<svg id="Layer_1" data-name="Layer 1" xmlns="http://www.w3.org/2000/svg" viewBox="0 0 3000 910.88189"><defs><style>.cls-1{isolation:isolate;}</style></defs><title>download (4)</title><path d="M483.28591,97.73509l-165.284,554.47705q-12.693,43.596-12.682,55.37305,0,11.751,9.029,24.24c6,8.303,12.504,13.713,19.502,16.156q10.491,3.67951,63.178,6.619l-5.366,17.47705h-333.84l5.356-17.47705q49.767-.97192,69.283-8.328a69.67022,69.67022,0,0,0,31.939-24q12.441-16.65307,28.051-70.061l97.181-329.319q22.968-75.08259,23.99-79.469a101.71762,101.71762,0,0,0,3.076-23.885q0-21.79357-13.469-34.61694-13.464-12.83094-38.438-12.84094-12.24751,0-48.489,3.902l-4.147-18.316,250.454-59.933h20.676Z"/><path d="M830.7289,320.01414l-21.643,150.69605h-18.322q-3.89549-58.09058-35.765-91.469-31.875-33.43047-68.356-33.413-22.386,0-36.965,13.166-14.601,13.119-14.597,31.656a68.33138,68.33138,0,0,0,6.336,29.218q6.31349,13.6875,28.267,37.056,76.983,82.851,93.644,113.9a138.89155,138.89155,0,0,1,16.608,66.49805,144.13166,144.13166,0,0,1-19.546,72.582q-19.55547,34.236-58.392,54.854-38.83055,20.66253-80.852,20.645-28.31855,0-69.835-10.756-27.36748-7.53148-41.045-7.512-12.225,0-19.062,3.504-6.846,3.53247-15.139,14.764h-18.316l24.148-162.355h15.812q17.064,59.41644,31.953,84.678a113.24718,113.24718,0,0,0,39.764,40.234q24.88953,14.98791,47.831,14.965,26.814,0,44.391-16.80505,17.56046-16.79553,17.554-40.199a92.82708,92.82708,0,0,0-11.472-44.352q-11.463-21.41253-52.935-66.754-57.08249-61.869-75.201-95.635-12.73653-24.47406-12.739-55.81494,0-52.86291,38.361-88.104,38.361-35.244,107.77-35.241,30.297,0,74.285,11.141,22.002,5.57245,35.198,5.568,19.03647,0,30.772-16.709h17.486v-.00635Z"/><path d="M1145.3019,200.95909l-40.86694,132.37H1159.063l-17.078,55.775h-55.416l-88.541,286.641q-8.48109,26.727-8.472,40.527c0,3.125,1.454,5.813,4.38306,8.078a15.348,15.348,0,0,0,9.734,3.428c5.501,0,11.193-2.295,17.035-6.855q22.407-17.07147,52.09-59.572l17.501,10.75805q-33.71246,58.58551-74.247,85.943-40.54192,27.345-79.608,27.346-33.19948,0-51.518-16.723Q866.587,751.92,866.604,726.224q0-28.33356,13.651-72.793l82.987-264.32592h-62.582l9.211-35.97705q59.3715-22.83143,103.27106-53.47706,43.87043-30.615,105.734-98.698h26.42505v.0061Z"/><path d="M1677.559,96.06908,1512.252,640.76915q-15.77545,51.09594-15.787,61.818a12.78319,12.78319,0,0,0,3.88305,9.29895c2.588,2.621,5.338,3.916,8.252,3.916,5.5,0,11.817-2.75,18.931-8.318q17.92053-13.73108,43.656-51.959l17.495,9.316q-68.75244,120.57147-151.118,120.551-29.26044,0-45.101-15.31995-15.83259-15.30158-15.85-39.145,0-22.866,12.70105-65.18005l15.374-49.766q-61.14294,107.66859-106.157,143.15-34.24952,26.28-66.527,26.266-36.71246,0-61.896-29.717-25.18506-29.70758-25.181-86.73206,0-72.603,32.525-143.27,32.5155-70.66644,75.163-117.931,42.60152-47.26042,81.316-67.493,38.679-20.23059,76.13306-20.231,19.23158,0,34.25806,7.98706,15.01207,7.96344,34.243,29.903l38.17505-120.858q14.58-45.61194,14.597-65.429,0-11.916-9.965-20.31006-9.96606-8.41644-26.559-8.41894a163.24863,163.24863,0,0,0-19.368,1.464l4.172-19.151,167.438-29.132h30.504v-.009ZM1458.5209,404.56114q0-29.742-11.908-43.416-11.916-13.65144-27.807-13.665-15.91809,0-34.25806,16.099-35.28,31.21344-73.767,125.621-38.484,94.38592-38.477,158.76,0,23.44355,8.438,34.646,8.424,11.2035,18.859,11.209,17.39557,0,34.78-15.615,42.19208-37.05158,83.17005-127.541,40.95757-90.462,40.97-146.0979"/><path d="M1851.07888,96.05614q30.46948,0,51.355,21.08606,20.89507,21.08257,20.90295,50.942,0,29.87256-21.129,50.942-21.17542,21.09009-51.13,21.072-29.53344,0-50.636-21.072-21.15308-21.05256-21.14794-50.942,0-29.87256,20.904-50.942,20.87549-21.06758,50.881-21.08606m39.629,223.958L1782.117,663.75218q-9.04194,29.484-9.01905,38.67395a15.19935,15.19935,0,0,0,4.329,10.35706c2.90406,3.22094,5.981,4.811,9.217,4.811,5.486,0,10.948-2.52,16.454-7.564q21.71557-18.72894,52.2-67.824l16.65,10.113q-74.19451,133.06952-157.73206,133.084-31.93945,0-50.86-17.707-18.915-17.71948-18.917-44.879,0-18.07342,9.139-45.932l74.78394-233.429q10.75653-33.67345,10.762-50.78894,0-10.734-9.874-19.046-9.85493-8.30109-26.99-8.313-7.8045,0-18.695.504l6.667-19.152,170.333-26.645h30.14307Z"/><path d="M2230.793,96.06407l-86.3999,292.93506q36.75586-41.48547,61.45508-55.233a108.41419,108.41419,0,0,1,53.5769-13.74695q55.88709,0,83.606,42.15295,27.69141,42.15,27.70093,97.215,0,131.58-93.533,234.882-83.02368,91.14-188.98,91.133-78.73938,0-166.56494-47.00195l151.08007-514.055q10.578-36.61946,12-51.273,0-12.53394-10.55493-19.86206-14.73889-10.31854-44.78393-8.87l4.17089-19.13306,167.20313-29.146h30.02393v.00305ZM2039.89187,743.27318q21.92394,14.65191,39.63891,14.66394,24.71119,0,41.4961-10.254,26.55285-16.623,55.7041-60.09,29.139-43.47307,48.729-105.043,19.548-61.51794,19.564-122.61206,0-34.66809-14.5669-52.73706-14.55138-18.087-33.687-18.097-31.88232,0-55.53589,34.109-15.93456,22.068-34.584,93.749Z"/><path d="M2773.68288,320.01414,2752.044,470.71019H2733.708q-3.89538-58.09058-35.74512-91.469-31.88232-33.43047-68.36206-33.413-22.36962,0-36.9751,13.166-14.56494,13.119-14.5769,31.656a68.32447,68.32447,0,0,0,6.32593,29.218q6.31494,13.6875,28.26806,37.056,76.97388,82.851,93.62891,113.9a138.83843,138.83843,0,0,1,16.61206,66.49805,144.07118,144.07118,0,0,1-19.52588,72.582q-19.56151,34.236-58.406,54.854-38.80043,20.66253-80.832,20.645-28.32606,0-69.846-10.756-27.36585-7.53148-41.04492-7.512-12.23109,0-19.08008,3.504-6.83239,3.53247-15.1189,14.764h-18.3269l24.14892-162.355h15.825q17.05665,59.41644,31.949,84.678a113.185,113.185,0,0,0,39.759,40.234q24.88953,14.98791,47.813,14.965,26.83338,0,44.40894-16.80505,17.53784-16.79553,17.53906-40.199a92.99091,92.99091,0,0,0-11.467-44.352q-11.47632-21.41253-52.90991-66.754-57.096-61.869-75.22608-95.635-12.75147-24.47406-12.739-55.81494,0-52.86291,38.36108-88.104,38.361-35.244,107.75488-35.241,30.31933,0,74.3,11.141,21.99464,5.57245,35.20288,5.568,19.03053,0,30.759-16.709h17.501Z"/><g class="cls-1"><path d="M2844.21271,668.25563a68.8159,68.8159,0,0,1,33.00684,8.67383,61.66856,61.66856,0,0,1,25.08887,24.82227,67.44853,67.44853,0,0,1,.13281,67.03613,62.393,62.393,0,0,1-24.82227,24.86621,67.45959,67.45959,0,0,1-66.81347,0,62.66753,62.66753,0,0,1-24.86621-24.86621,67.15522,67.15522,0,0,1,.13281-67.03613,61.93082,61.93082,0,0,1,25.13379-24.82227A68.80737,68.80737,0,0,1,2844.21271,668.25563Zm0,11.12012a57.1561,57.1561,0,0,0-27.53515,7.251,52.00328,52.00328,0,0,0-20.95215,20.72949,55.81211,55.81211,0,0,0-.13379,55.87109A52.68328,52.68328,0,0,0,2816.366,783.9568a55.9063,55.9063,0,0,0,55.69336,0,52.39627,52.39627,0,0,0,20.7295-20.72949,56.08769,56.08769,0,0,0-.13477-55.87109,51.66021,51.66021,0,0,0-20.95117-20.72949A57.2473,57.2473,0,0,0,2844.21271,679.37575Zm-29.44824,93.14844V700.284h24.82129q12.72218,0,18.416,2.001a17.85945,17.85945,0,0,1,9.07519,6.98437,18.5395,18.5395,0,0,1,3.38086,10.58692,19.24792,19.24792,0,0,1-5.64941,13.79q-5.65137,5.87109-14.99024,6.583a19.82343,19.82343,0,0,1,6.13868,3.82618q4.35644,4.27,10.67578,14.32324l8.80664,14.14551H2861.2049l-6.40527-11.3877q-7.563-13.43262-12.18848-16.81445-3.20214-2.49024-9.34179-2.49121h-6.84961v30.69336Zm11.65528-40.65723h14.14453q10.14258,0,13.835-3.02539a10.373,10.373,0,0,0,1.91308-13.74512,10.62974,10.62974,0,0,0-4.9375-3.78125q-3.15966-1.24512-11.69921-1.24511h-13.25586Z"/></g></svg>