<?xml version="1.0" encoding="utf-8"?>
<!-- Generator: Adobe Illustrator 16.0.0, SVG Export Plug-In . SVG Version: 6.00 Build 0)  -->
<!DOCTYPE svg PUBLIC "-//W3C//DTD SVG 1.1//EN" "http://www.w3.org/Graphics/SVG/1.1/DTD/svg11.dtd">
<svg version="1.1" id="Layer_1" xmlns="http://www.w3.org/2000/svg" xmlns:xlink="http://www.w3.org/1999/xlink" x="0px" y="0px"
	 width="3000px" height="3000px" viewBox="0 0 3000 3000" enable-background="new 0 0 3000 3000" xml:space="preserve">
<g>
	<path d="M527.813,1119.673L362.529,1674.15c-8.462,29.064-12.682,47.533-12.682,55.373c0,7.834,2.996,15.912,9.029,24.24
		c6,8.303,12.504,13.713,19.502,16.156c6.994,2.453,28.052,4.66,63.178,6.619l-5.366,17.477h-333.84l5.356-17.477
		c33.178-0.648,56.28-3.438,69.283-8.328c13.008-4.9,23.65-12.889,31.939-24c8.294-11.102,17.645-34.465,28.051-70.061
		l97.181-329.319c15.312-50.055,23.313-76.531,23.99-79.469c2.045-8.448,3.076-16.406,3.076-23.885
		c0-14.529-4.487-26.064-13.469-34.617c-8.976-8.554-21.797-12.841-38.438-12.841c-8.165,0-24.326,1.301-48.489,3.902l-4.147-18.316
		l250.454-59.933H527.813z"/>
	<path d="M875.256,1341.952l-21.643,150.696h-18.322c-2.597-38.727-14.524-69.207-35.765-91.469
		c-21.25-22.287-44.03-33.413-68.356-33.413c-14.924,0-27.23,4.387-36.965,13.166c-9.734,8.746-14.597,19.315-14.597,31.656
		c0,10.396,2.103,20.127,6.336,29.218c4.209,9.125,13.646,21.466,28.267,37.056c51.322,55.234,82.541,93.187,93.644,113.9
		c11.078,20.707,16.608,42.887,16.608,66.498c0,25.57-6.523,49.787-19.546,72.582c-13.037,22.824-32.506,41.107-58.392,54.854
		c-25.887,13.775-52.829,20.645-80.852,20.645c-18.879,0-42.168-3.594-69.835-10.756c-18.245-5.021-31.925-7.512-41.045-7.512
		c-8.15,0-14.516,1.176-19.062,3.504c-4.564,2.355-9.619,7.285-15.139,14.764h-18.316l24.148-162.355h15.812
		c11.376,39.611,22.036,67.824,31.953,84.678c9.922,16.854,23.18,30.254,39.764,40.234c16.593,9.992,32.52,14.965,47.831,14.965
		c17.876,0,32.693-5.586,44.391-16.805c11.707-11.197,17.554-24.604,17.554-40.199c0-15.26-3.815-30.049-11.472-44.352
		c-7.642-14.275-25.291-36.529-52.935-66.754c-38.055-41.246-63.135-73.123-75.201-95.635c-8.491-16.316-12.739-34.92-12.739-55.815
		c0-35.242,12.787-64.613,38.361-88.104c25.574-23.496,61.492-35.241,107.77-35.241c20.198,0,44.962,3.715,74.285,11.141
		c14.668,3.715,26.404,5.568,35.198,5.568c12.691,0,22.958-5.568,30.772-16.709h17.486V1341.952z"/>
	<path d="M1189.829,1222.897l-40.867,132.37h54.628l-17.078,55.775h-55.416l-88.541,286.641
		c-5.654,17.818-8.472,31.301-8.472,40.527c0,3.125,1.454,5.813,4.383,8.078c2.899,2.289,6.163,3.428,9.734,3.428
		c5.501,0,11.193-2.295,17.035-6.855c14.938-11.381,32.299-31.252,52.09-59.572l17.501,10.758
		c-22.475,39.057-47.223,67.699-74.247,85.943c-27.028,18.23-53.573,27.346-79.608,27.346c-22.133,0-39.326-5.582-51.518-16.723
		c-12.226-11.17-18.322-25.311-18.322-42.451c0-18.889,4.541-43.162,13.651-72.793l82.987-264.326h-62.582l9.211-35.977
		c39.581-15.221,74.002-33.048,103.271-53.477c29.247-20.41,64.493-53.323,105.734-98.698h26.425V1222.897z"/>
	<path d="M1722.086,1118.007l-165.307,544.7c-10.517,34.064-15.787,54.682-15.787,61.818c0,3.576,1.301,6.701,3.883,9.299
		c2.588,2.621,5.338,3.916,8.252,3.916c5.5,0,11.817-2.75,18.931-8.318c11.947-9.154,26.515-26.453,43.656-51.959l17.495,9.316
		c-45.835,80.381-96.187,120.551-151.118,120.551c-19.507,0-34.54-5.102-45.101-15.32c-10.555-10.201-15.85-23.246-15.85-39.145
		c0-15.244,4.238-36.955,12.701-65.18l15.374-49.766c-40.762,71.779-76.161,119.496-106.157,143.15
		c-22.833,17.52-45.009,26.266-66.527,26.266c-24.475,0-45.101-9.889-61.896-29.717c-16.79-19.805-25.181-48.725-25.181-86.732
		c0-48.402,10.839-96.152,32.525-143.27c21.677-47.111,46.732-86.415,75.163-117.931c28.401-31.507,55.521-54.015,81.316-67.493
		c25.786-13.487,51.164-20.231,76.133-20.231c12.821,0,24.221,2.678,34.258,7.987c10.008,5.309,21.418,15.283,34.243,29.903
		l38.175-120.858c9.72-30.408,14.597-52.215,14.597-65.429c0-7.944-3.317-14.703-9.965-20.31
		c-6.644-5.611-15.499-8.419-26.559-8.419c-5.165,0-11.626,0.504-19.368,1.464l4.172-19.151l167.438-29.132h30.504V1118.007z
		 M1503.048,1426.499c0-19.828-3.974-34.301-11.908-43.416c-7.944-9.101-17.223-13.665-27.807-13.665
		c-10.612,0-22.022,5.371-34.258,16.099c-23.52,20.809-48.12,62.684-73.767,125.621c-25.656,62.924-38.477,115.848-38.477,158.76
		c0,15.629,2.804,27.184,8.438,34.646c5.616,7.469,11.899,11.209,18.859,11.209c11.597,0,23.184-5.209,34.78-15.615
		c28.128-24.701,55.854-67.213,83.17-127.541C1489.383,1512.289,1503.048,1463.574,1503.048,1426.499"/>
	<path d="M1895.606,1117.994c20.313,0,37.444,7.041,51.355,21.086c13.93,14.055,20.903,31.027,20.903,50.942
		s-7.041,36.907-21.129,50.942c-14.117,14.06-31.143,21.072-51.13,21.072c-19.689,0-36.552-7.013-50.636-21.072
		c-14.102-14.035-21.148-31.027-21.148-50.942s6.965-36.893,20.904-50.942C1858.642,1125.035,1875.609,1117.994,1895.606,1117.994
		 M1935.235,1341.952l-108.591,343.738c-6.028,19.656-9.019,32.568-9.019,38.674c0,3.719,1.454,7.176,4.329,10.357
		c2.904,3.221,5.981,4.811,9.217,4.811c5.486,0,10.948-2.52,16.454-7.564c14.477-12.486,31.896-35.104,52.2-67.824l16.65,10.113
		c-49.463,88.713-102.048,133.084-157.732,133.084c-21.293,0-38.251-5.904-50.86-17.707c-12.61-11.813-18.917-26.76-18.917-44.879
		c0-12.049,3.038-27.355,9.139-45.932l74.784-233.429c7.171-22.449,10.762-39.394,10.762-50.789c0-7.156-3.293-13.502-9.874-19.046
		c-6.57-5.534-15.552-8.313-26.99-8.313c-5.203,0-11.429,0.173-18.695,0.504l6.667-19.152l170.333-26.645H1935.235z"/>
	<path d="M2275.32,1118.002l-86.4,292.935c24.504-27.657,44.99-46.075,61.455-55.233c16.454-9.153,34.311-13.747,53.577-13.747
		c37.258,0,65.116,14.06,83.606,42.153c18.461,28.1,27.701,60.509,27.701,97.215c0,87.72-31.191,166.027-93.533,234.882
		c-55.349,60.76-118.349,91.133-188.98,91.133c-52.493,0-108.01-15.672-166.565-47.002l151.08-514.055
		c7.052-24.413,11.026-41.515,12-51.273c0-8.356-3.532-14.967-10.555-19.862c-9.826-6.879-24.759-9.84-44.784-8.87l4.171-19.133
		l167.203-29.146h30.024V1118.002z M2084.419,1765.211c14.616,9.768,27.826,14.664,39.639,14.664
		c16.474,0,30.303-3.428,41.496-10.254c17.702-11.082,36.283-31.098,55.704-60.09c19.426-28.982,35.654-64.014,48.729-105.043
		c13.032-41.012,19.564-81.898,19.564-122.612c0-23.112-4.867-40.689-14.567-52.737c-9.701-12.058-20.934-18.097-33.687-18.097
		c-21.255,0-39.759,11.381-55.536,34.109c-10.623,14.712-22.143,45.965-34.584,93.749L2084.419,1765.211z"/>
	<path d="M2818.21,1341.952l-21.639,150.696h-18.336c-2.597-38.727-14.501-69.207-35.745-91.469
		c-21.255-22.287-44.026-33.413-68.362-33.413c-14.913,0-27.245,4.387-36.975,13.166c-9.71,8.746-14.577,19.315-14.577,31.656
		c0,10.396,2.093,20.127,6.326,29.218c4.21,9.125,13.651,21.466,28.268,37.056c51.316,55.234,82.535,93.187,93.629,113.9
		c11.083,20.707,16.612,42.887,16.612,66.498c0,25.57-6.499,49.787-19.526,72.582c-13.041,22.824-32.511,41.107-58.406,54.854
		c-25.867,13.775-52.829,20.645-80.832,20.645c-18.884,0-42.178-3.594-69.846-10.756c-18.244-5.021-31.93-7.512-41.045-7.512
		c-8.154,0-14.51,1.176-19.08,3.504c-4.555,2.355-9.59,7.285-15.119,14.764h-18.327l24.149-162.355h15.825
		c11.371,39.611,22.022,67.824,31.949,84.678c9.917,16.854,23.174,30.254,39.759,40.234c16.593,9.992,32.51,14.965,47.813,14.965
		c17.889,0,32.692-5.586,44.409-16.805c11.692-11.197,17.539-24.604,17.539-40.199c0-15.26-3.825-30.049-11.467-44.352
		c-7.651-14.275-25.296-36.529-52.91-66.754c-38.064-41.246-63.149-73.123-75.226-95.635c-8.501-16.316-12.739-34.92-12.739-55.815
		c0-35.242,12.768-64.613,38.361-88.104c25.574-23.496,61.493-35.241,107.755-35.241c20.213,0,44.98,3.715,74.3,11.141
		c14.663,3.715,26.399,5.568,35.203,5.568c12.687,0,22.958-5.568,30.759-16.709h17.501V1341.952z"/>
	<text transform="matrix(1 0 0 1 2821.3027 1822.8428)" font-family="'ArialMT'" font-size="182.2042">®</text>
</g>
</svg>
