<?xml version="1.0" encoding="UTF-8" standalone="no"?>
<svg width="160px" height="38px" viewBox="0 0 160 38" version="1.1" xmlns="http://www.w3.org/2000/svg" xmlns:xlink="http://www.w3.org/1999/xlink" xmlns:sketch="http://www.bohemiancoding.com/sketch/ns">
    <!-- Generator: Sketch 3.5.1 (25234) - http://www.bohemiancoding.com/sketch -->
    <title>99designs wordmark copy 2</title>
    <desc>Created with Sketch.</desc>
    <defs></defs>
    <g id="Blank-page" stroke="none" stroke-width="1" fill="none" fill-rule="evenodd" sketch:type="MSPage">
        <g id="Widescreen" sketch:type="MSArtboardGroup" transform="translate(-255.000000, -521.000000)" fill="#555555">
            <path d="M414.415906,535.326148 C414.141038,531.581073 411.220566,529.313412 407.097547,529.313412 C403.249396,529.313412 399.710471,531.752865 399.710471,535.532299 C399.710471,537.765601 400.981735,539.655318 405.791924,541.132733 C408.643679,542.026054 409.29649,542.57579 409.29649,543.640903 C409.29649,544.534224 408.300094,545.118319 407.303698,545.118319 C406.169867,545.118319 405.310905,544.568583 405.139113,543.366035 L399.469962,543.366035 C399.882263,547.248545 402.940169,549.687998 407.234981,549.687998 C411.564151,549.687998 415,547.179828 415,543.194243 C415,540.411205 413.522585,538.590205 408.987264,537.387658 C406.34166,536.700488 405.413981,536.185111 405.413981,535.154356 C405.413981,534.432827 406.101151,533.883092 407.063188,533.883092 C407.990868,533.883092 408.781113,534.226677 408.815471,535.326148 L414.415906,535.326148 Z M380.636297,549.066435 L386.346168,549.066435 L386.346168,538.384256 C386.346168,535.883211 387.42511,534.633253 389.582995,534.633253 C390.622683,534.633253 391.377494,534.951383 391.846306,535.5899 C392.316241,536.227288 392.550647,537.236957 392.550647,538.614392 L392.550647,549.066435 L398.26164,549.066435 L398.26164,537.083532 C398.26164,536.317538 398.229114,535.647434 398.166307,535.072092 C398.102378,534.499007 398.000316,533.98684 397.86012,533.541232 C397.721047,533.094496 397.531503,532.686116 397.290367,532.316092 C397.049231,531.946068 396.738559,531.581685 396.358349,531.225199 C395.749341,530.612629 395.00126,530.134306 394.111861,529.789101 C393.224706,529.445024 392.2725,529.272421 391.257487,529.272421 C390.039471,529.272421 389.030065,529.48338 388.230392,529.903041 C387.43184,530.324958 386.701703,531.007472 386.041103,531.952837 L386.041103,529.923347 L380.636297,529.923347 L380.636297,549.066435 Z M368.401512,545.310782 C366.086352,544.948666 366.137343,544.022718 366.698124,543.572598 C371.960492,545.578397 378.385919,543.032228 378.426295,536.927964 C378.413315,534.691351 377.618913,533.264793 377.007195,532.606625 C377.489127,531.682273 378.041388,531.218812 379.226189,530.93279 L376.818882,526.76924 C374.649016,526.956188 373.220655,528.294327 372.569045,529.670391 C371.287684,529.146874 368.660857,529.085266 366.566901,529.834338 C365.560861,530.191953 364.631086,530.705248 363.828048,531.417092 C363.058656,532.092837 362.455256,532.903956 362.029063,533.839168 C361.580438,534.812737 361.386408,535.855121 361.379678,536.925708 C361.392016,538.380984 361.84737,540.113778 362.696392,541.294921 C360.402798,543.566957 360.528413,546.936655 362.906124,549.067676 C362.654894,549.258328 362.421609,549.473799 362.207391,549.703936 C360.060722,552.048172 361.075735,555.306185 363.542049,557.017545 C366.659991,559.251225 372.194898,559.383215 375.598838,557.871533 C381.581248,555.437048 381.798831,546.523762 374.850756,545.356157 C372.917184,545.031258 370.716672,545.672898 368.401512,545.310782 Z M373.937805,553.009331 C373.285056,553.899418 372.046852,554.21078 371.011651,554.260417 C369.794756,554.319079 368.138209,554.039305 367.306011,553.038662 C366.505216,552.075247 366.692516,550.735039 367.774823,550.075088 C368.082131,549.884435 368.410749,549.769367 368.767406,549.717473 L371.604957,549.717473 C372.844282,549.717473 374.414469,550.068319 374.404375,551.607076 C374.402132,552.092168 374.224925,552.617873 373.937805,553.009331 Z M369.962938,533.599036 C371.697966,533.599036 373.10438,535.013676 373.10438,536.757618 C373.10438,538.501559 371.697966,539.916199 369.962938,539.916199 C368.229137,539.916199 366.822722,538.501559 366.822722,536.757618 C366.822722,535.012443 368.229137,533.599036 369.962938,533.599036 Z M359.057298,549.066886 L353.348549,549.066886 L353.348549,529.923798 L359.057298,529.923798 L359.057298,549.066886 Z M356.202363,527.915856 C358.091073,527.915856 359.622004,526.374842 359.622004,524.476214 C359.622004,522.577586 358.091073,521.036573 356.202363,521.036573 C354.313653,521.036573 352.782721,522.577586 352.782721,524.476214 C352.782721,526.374842 354.313653,527.915856 356.202363,527.915856 Z M351.238808,535.326148 C350.96394,531.581073 348.043469,529.313412 343.920449,529.313412 C340.072298,529.313412 336.533374,531.752865 336.533374,535.532299 C336.533374,537.765601 337.804638,539.655318 342.614827,541.132733 C345.466582,542.026054 346.119393,542.57579 346.119393,543.640903 C346.119393,544.534224 345.122997,545.118319 344.1266,545.118319 C342.99277,545.118319 342.133808,544.568583 341.962015,543.366035 L336.292864,543.366035 C336.705166,547.248545 339.763072,549.687998 344.057883,549.687998 C348.387053,549.687998 351.822903,547.179828 351.822903,543.194243 C351.822903,540.411205 350.345488,538.590205 345.810167,537.387658 C343.164563,536.700488 342.236883,536.185111 342.236883,535.154356 C342.236883,534.432827 342.924053,533.883092 343.886091,533.883092 C344.81377,533.883092 345.604016,534.226677 345.638374,535.326148 L351.238808,535.326148 Z M334.756665,535.58911 C334.248597,534.314333 333.545378,533.209903 332.642521,532.278074 C331.743028,531.346246 330.677545,530.612968 329.44607,530.075982 C328.215717,529.541253 326.888909,529.27276 325.467891,529.27276 C324.097342,529.27276 322.809789,529.541253 321.604111,530.075982 C320.399553,530.612968 319.353136,531.339478 318.464859,532.258896 C317.575461,533.177187 316.872242,534.26244 316.351837,535.513526 C315.831432,536.764612 315.572352,538.103692 315.572352,539.53415 C315.572352,540.962351 315.831432,542.29579 316.351837,543.533339 C316.872242,544.773144 317.583312,545.8505 318.482804,546.769919 C319.38454,547.688209 320.444416,548.410207 321.66131,548.932527 C322.879326,549.455975 324.187067,549.717699 325.58229,549.717699 C327.613438,549.717699 329.439341,549.129948 331.063362,547.955574 C332.617847,546.833093 333.834741,545.302233 334.714045,543.362993 L328.779862,543.362993 C328.170854,543.949616 327.613438,544.344458 327.105371,544.548648 C326.598425,544.753966 325.989417,544.855497 325.278347,544.855497 C324.136597,544.855497 323.183269,544.52947 322.422851,543.878544 C321.66131,543.227618 321.217172,542.365734 321.091557,541.295147 L335.365673,541.295147 C335.666251,539.362675 335.487923,537.427947 334.756665,535.58911 Z M321.242968,537.466304 C321.471766,536.39346 321.960767,535.569932 322.708849,534.995718 C323.456931,534.422633 324.39007,534.134962 325.507145,534.134962 C326.623099,534.134962 327.568576,534.441811 328.342453,535.054381 C329.116331,535.665822 329.60421,536.470173 329.807213,537.466304 L321.242968,537.466304 Z M274.377458,526.947831 C274.507717,526.663639 274.652047,526.382931 274.810678,526.106575 C277.613461,521.222939 283.822426,519.549935 288.677667,522.370238 C293.532908,525.189413 295.196184,531.434691 292.393401,536.318327 L285.06736,549.080762 L278.456875,549.080762 L282.872463,541.386976 C281.387516,541.280932 279.902568,540.854503 278.526412,540.055793 C276.63291,538.955899 275.224714,537.335262 274.377596,535.477598 C274.24743,535.761618 274.103211,536.04215 273.944709,536.318327 L266.618668,549.080762 L260.008183,549.080762 L264.423772,541.386976 C262.938824,541.280932 261.453876,540.854503 260.07772,540.055793 C255.222479,537.23549 253.558082,530.991339 256.361986,526.106575 C259.164769,521.222939 265.373734,519.549935 270.228975,522.370238 C272.122462,523.469683 273.53048,525.090207 274.377458,526.947831 Z M308.571315,521.584163 L308.571315,531.485682 C307.782857,530.716304 306.943928,530.147731 306.053408,529.775451 C305.162888,529.404299 304.118715,529.219287 302.92313,529.219287 C301.575013,529.219287 300.322228,529.476498 299.164776,529.987537 C298.006203,530.499704 297.009135,531.209292 296.167963,532.118558 C295.329035,533.025568 294.668435,534.107436 294.183921,535.361906 C293.700528,536.615249 293.459392,537.971251 293.459392,539.431039 C293.459392,540.940465 293.69492,542.322414 294.164854,543.576884 C294.63591,544.829099 295.297632,545.909839 296.150018,546.819105 C297.002405,547.72837 298.014054,548.43683 299.183843,548.950125 C300.354753,549.462292 301.638942,549.717248 303.037529,549.717248 C304.360972,549.717248 305.473561,549.507417 306.37754,549.084372 C307.280397,548.662455 308.113717,547.977685 308.877501,547.030063 L308.877501,549.065194 L314.296887,549.065194 L314.296887,521.584163 L308.571315,521.584163 Z M307.502466,542.96093 C306.587272,543.882605 305.416361,544.344007 303.991978,544.344007 C303.305582,544.344007 302.662927,544.22217 302.065135,543.978496 C301.467343,543.73595 300.959275,543.397513 300.538689,542.96093 C300.119225,542.526604 299.788365,542.008796 299.546107,541.407508 C299.30385,540.805091 299.183843,540.146268 299.183843,539.431039 C299.183843,538.739501 299.30385,538.093088 299.546107,537.491799 C299.788365,536.890511 300.124833,536.379472 300.557756,535.956426 C300.989557,535.534509 301.505476,535.201713 302.103268,534.959167 C302.70106,534.715493 303.356053,534.593656 304.068244,534.593656 C304.75464,534.593656 305.391687,534.715493 305.977142,534.959167 C306.561476,535.201713 307.070665,535.541278 307.502466,535.976732 C307.935389,536.409931 308.272979,536.916457 308.514115,537.491799 C308.756372,538.068269 308.877501,538.701145 308.877501,539.391555 C308.877501,540.851344 308.418782,542.041512 307.502466,542.96093 Z M279.586288,528.880625 C280.867111,526.650329 283.702419,525.885463 285.920868,527.173778 C288.138196,528.460964 288.897493,531.313982 287.617791,533.544278 C286.336968,535.775701 283.50166,536.539439 281.283211,535.252253 C279.065883,533.963939 278.305464,531.11092 279.586288,528.880625 Z M261.137596,528.880625 C262.418419,526.650329 265.253727,525.885463 267.472176,527.173778 C269.689504,528.460964 270.448801,531.313982 269.169099,533.544278 C267.888276,535.775701 265.052968,536.539439 262.834519,535.252253 C260.617191,533.963939 259.856772,531.11092 261.137596,528.880625 Z" id="99designs-wordmark-copy-2" sketch:type="MSShapeGroup"></path>
        </g>
    </g>
</svg>