<svg xmlns="http://www.w3.org/2000/svg" role="img" viewBox="40.26 48.26 181.48 43.11"><defs><style>.cls-1{fill:#eb2329}.cls-2{fill:#213468}</style></defs><path d="M88.44 81.23l-5.76-1.4a10.4 10.4 0 0 1-12.78-2.7 10.53 10.53 0 0 1-.61-12.66C72.23 60.17 76.72 59 83.1 61v-2.1l-2.25-.13c-.78-2.86-.36-3.63 2.29-4l.12-2.65c3.49-.75 4.72-.13 5.3 2.68l2.21.19c.8 2.9.41 3.62-2.33 3.94zm-5.23-10.87A5.32 5.32 0 0 0 78 65.1a5.43 5.43 0 0 0-5.34 5.32 5.32 5.32 0 0 0 5.24 5.22 5.25 5.25 0 0 0 5.31-5.28z" class="cls-1"/><path d="M105.38 61.07c.41-2 1.9-1.09 2.91-1.12a2.27 2.27 0 0 1 2.4 2 8.17 8.17 0 0 1 .1 1.64V79c0 .54-.05 1.07-.07 1.69-1.87.16-3.68.61-5-1.17-4.87 2.33-10.3 1.79-13.9-2.9a10.44 10.44 0 0 1-.09-12.39c3.11-4.17 7.78-5.29 13.65-3.16zm.14 9.3a5.26 5.26 0 0 0-5.16-5.27A5.47 5.47 0 0 0 95 70.41a5.36 5.36 0 0 0 5.24 5.23 5.21 5.21 0 0 0 5.28-5.27zM59.37 61.1c.39-2.11 2-1.12 3.08-1.13a2.27 2.27 0 0 1 2.32 2.46v18.38c-1.69-.1-3.3.55-4.71-.87-.25-.26-1.15-.05-1.67.16a10.52 10.52 0 0 1-12.13-16.45 10.48 10.48 0 0 1 11.41-3.19c.57.19 1.12.42 1.7.64zm-5 16.58c1.38-1.38 2.82-2.63 4-4.08a5.08 5.08 0 0 0-.53-7.07 5.18 5.18 0 0 0-7.11 0 5 5 0 0 0-.59 7.06c1.27 1.41 2.75 2.65 4.24 4.09zm101.22 3.16a10.47 10.47 0 1 1 0-20.94 10.47 10.47 0 0 1 0 20.94zm0-5.2a5.31 5.31 0 0 0 5.25-5.2 5.41 5.41 0 0 0-5.31-5.34 5.31 5.31 0 0 0-5.21 5.24 5.23 5.23 0 0 0 5.26 5.3zM131.86 59.9c-.81 2.25-1.53 4.29-2.26 6.32-2.23 6.15-4.48 12.29-6.7 18.43-1.13 3.1-1.39 3.31-4.73 3.3h-2c.91-2.57 1.8-4.84 2.49-7.17a4.8 4.8 0 0 0 0-2.76c-1.88-5.4-3.87-10.77-5.82-16.14-.22-.6-.4-1.22-.64-2h3.77a2.77 2.77 0 0 1 2.56 2.17c.89 2.52 1.8 5 2.71 7.54.21.55.46 1.09.81 1.9 1.1-3 2.12-5.78 3.12-8.53 1.06-2.92 1.3-3.09 4.36-3.09zm7.94 20.92c-1.16 0-2.09.08-3 0a2.13 2.13 0 0 1-2.14-2.1c-.06-6.2 0-12.41 0-19.12l5.8 1.29 4.54-1.24a24.36 24.36 0 0 1-.06 4.07 2.51 2.51 0 0 1-1.38 1.58 5.44 5.44 0 0 0-3.77 5.7c.05 3.17.01 6.38.01 9.82zm27.89-20.92h2a2.63 2.63 0 0 1 2.87 2.52 7.38 7.38 0 0 1 .05 1.15v17.24a23.84 23.84 0 0 1-3.18 0 2.16 2.16 0 0 1-2-2.23v-18.2c.04-.12.12-.22.26-.48z" class="cls-1"/><path d="M200.94 75.68a5.25 5.25 0 0 1-10.5-.06 5.18 5.18 0 0 1 5.29-5.27 5.12 5.12 0 0 1 5.21 5.33zm-5.21 3.07a3.23 3.23 0 0 0 3.11-3.17 3.18 3.18 0 0 0-3.16-3.1 3.09 3.09 0 0 0-3.06 3.15 3.15 3.15 0 0 0 3.11 3.12zm-18.82-2.03c.28-2.71.56-5.41.86-8.11q.61-5.53 1.27-11.07c0-.38.1-.75.16-1.13a1.71 1.71 0 0 1 2.18-1.64c1.29.25 1.58 1.22 1.31 2.39q-.7 3.11-1.46 6.21c-1 4.09-2 8.18-3 12.25a6.13 6.13 0 0 1-.73 1.35z" class="cls-2"/><path d="M190.47 72L189 73.17c-2.5-1-3.82-.83-4.86.7a2.88 2.88 0 0 0 .22 3.76c1.06 1.28 2.47 1.37 4.72.31l1.34 1.33a5.28 5.28 0 0 1-7.44.11 5.39 5.39 0 0 1-.15-7.4c1.91-2.1 5.05-2.19 7.64.02z" class="cls-2"/><path d="M106.36 59l-4.66-.91-4.08 1-.28-.54c1.4-1.21 2-3.28 4.24-3.57 2.77-.36 3.31 2.36 5 3.52zm53.51.05l-4.28-1-4.41 1-.29-.55c1.49-1.17 2.07-3.4 4.42-3.56 2.63-.19 3.25 2.27 4.78 3.55zm7.68-4.11h1.68c3.43 0 3.5.07 3.13 3.61-4.08 1.18-5.27.36-4.81-3.61zm-9.37.22c3.54-1.15 4.84 1.44 6.57 3.42-3.43 1.21-4.75-1.45-6.57-3.42zM54.25 73a2.51 2.51 0 0 1-2.53-2.64 2.6 2.6 0 1 1 5.19.13A2.52 2.52 0 0 1 54.25 73z" class="cls-1"/><circle cx="176.91" cy="79.29" r="1.89" class="cls-1"/><path d="M202.35 80.66V70h2.34v.74a4.65 4.65 0 0 1 5.54.7s5.74-4.31 8.08 2.25v7.18h-2.51l.09-6.93s-2-3.4-4.39 0v6.93h-2.42l.08-7s-2.17-3.53-4.22 0v6.81z" class="cls-2"/></svg>