<?xml version="1.0" encoding="UTF-8"?>
<svg width="1478px" height="368px" viewBox="0 0 1478 368" version="1.1" xmlns="http://www.w3.org/2000/svg" xmlns:xlink="http://www.w3.org/1999/xlink">
    <title>aftership_logo_main</title>
    <g stroke="none" stroke-width="1" fill="none" fill-rule="evenodd">
        <g id="aftership_logo_main" transform="translate(-152.000000, -152.000000)">
            <g transform="translate(152.870267, 152.000000)">
                <path d="M523.332965,247.658031 L522.869862,247.658031 C513.1447,260.569948 495.54679,268.870466 476.096467,268.870466 C429.323072,268.870466 402,230.595855 402,193.704663 C402,158.658031 431.175484,119 477.485776,119 C498.78851,119 514.997112,128.222798 522.869862,140.212435 L523.332965,140.212435 L523.332965,122.689119 L553.897757,122.689119 L553.897757,264.720207 L523.332965,264.720207 L523.332965,247.658031 L523.332965,247.658031 Z M479.80129,239.756477 C503.882642,239.756477 524.722273,219.005181 524.722273,193.642487 C524.722273,168.279793 503.882642,147.528497 479.80129,147.528497 C454.793733,147.528497 434.417204,168.279793 434.417204,193.642487 C434.417204,219.005181 454.793733,239.756477 479.80129,239.756477 L479.80129,239.756477 Z M589.531134,151.217617 L569.617708,151.217617 L569.617708,122.626943 L589.531134,122.626943 L589.531134,98.6476684 C589.531134,72.3626943 605.739736,47 642.78797,47 C650.197616,47 659.922778,48.3834197 666.406218,50.6891192 L653.90244,78.357513 C649.734513,76.5129534 646.02969,75.5906736 640.472455,75.5906736 C627.968676,75.5906736 620.55903,85.7357513 620.55903,96.3419689 L620.55903,122.165803 L651.123822,122.165803 L651.123822,150.756477 L620.55903,150.756477 L620.55903,264.196891 L589.994237,264.196891 L589.994237,151.217617 L589.531134,151.217617 Z M684.935773,151.217617 L667.337862,151.217617 L667.337862,122.626943 L684.935773,122.626943 L684.935773,80.2020725 L715.500566,80.2020725 L715.500566,122.626943 L737.266403,122.626943 L737.266403,151.217617 L715.500566,151.217617 L715.500566,264.658031 L684.935773,264.658031 L684.935773,151.217617 L684.935773,151.217617 Z M888.951214,234.284974 C871.816406,255.958549 848.198157,268.870466 822.727496,268.870466 C772.712381,268.870466 744,231.518135 744,193.704663 C744,155.891192 772.712381,119 822.727496,119 C852.366083,119 896.823963,143.440415 896.823963,198.777202 L896.823963,204.310881 L778.269616,204.310881 C780.122028,225.984456 800.498556,241.663212 821.80129,241.663212 C838.472995,241.663212 852.366083,233.823834 863.01745,219.528497 L888.951214,234.284974 L888.951214,234.284974 Z M859.883396,178.88601 C853.399955,157.212435 837.191353,145.683938 817.741031,145.683938 C798.290708,145.683938 782.545209,157.673575 777.451077,178.88601 L859.883396,178.88601 L859.883396,178.88601 Z M913.463103,121.689119 L942.175484,121.689119 L942.175484,137.367876 L942.638587,137.367876 C947.732719,125.839378 958.384086,118 970.887865,118 C977.834409,118 983.391644,119.84456 987.55957,122.611399 L976.4451,153.046632 C973.666482,150.740933 968.109247,148.896373 964.867527,148.896373 C953.753057,148.896373 943.564793,157.196891 943.564793,170.569948 L943.564793,264.642487 L913,264.642487 L913,121.689119 L913.463103,121.689119 Z M1006.76584,222.217617 C1017.88031,233.746114 1035.47822,242.968912 1051.68682,242.968912 C1069.28473,242.968912 1079.9361,232.823834 1079.9361,224.984456 C1079.9361,215.761658 1072.52645,210.689119 1061.41198,208.38342 L1043.81407,205.15544 C1003.52412,197.777202 992.409647,184.865285 992.409647,164.57513 C992.409647,140.595855 1012.78618,118 1048.4451,118 C1068.35853,118 1085.49333,123.994819 1104.94366,137.829016 L1087.34575,159.502591 C1072.52645,147.051813 1059.09647,143.823834 1048.9082,143.823834 C1035.47822,143.823834 1022.51134,150.279793 1022.51134,161.80829 C1022.51134,170.108808 1029.45788,174.720207 1041.03545,176.564767 L1072.06335,182.559585 C1097.53401,187.170984 1110.03779,199.160622 1110.03779,220.373057 C1110.03779,241.124352 1092.90298,268.331606 1049.37131,268.331606 C1025.28995,268.331606 1004.45032,260.031088 985,243.430052 L1006.76584,222.217617 L1006.76584,222.217617 Z M1276,123 L1306.56479,123 L1306.56479,265.031088 L1276,265.031088 L1276,123 L1276,123 Z M1127,80 L1157.56479,80 L1157.56479,140.409326 L1158.0279,140.409326 C1166.36375,127.036269 1182.10925,118.735751 1201.55957,118.735751 C1231.66126,118.735751 1257.13192,143.637306 1257.13192,179.145078 L1257.13192,264.917098 L1226.56713,264.917098 L1226.56713,185.601036 C1226.56713,159.777202 1213.13714,149.170984 1192.76061,149.170984 C1172.84719,149.170984 1157.56479,161.621762 1157.56479,185.139896 L1157.56479,264.917098 L1127,264.917098 L1127,80 L1127,80 Z M1355.66704,139.689119 L1356.13014,139.689119 C1367.24461,126.316062 1383.45321,118.476684 1402.90353,118.476684 C1449.67693,118.476684 1477,156.751295 1477,193.642487 C1477,228.689119 1447.82452,268.34715 1401.51422,268.34715 C1380.21149,268.34715 1364.00289,259.124352 1356.13014,247.134715 L1355.66704,247.134715 L1355.66704,314 L1325.10224,314 L1325.10224,122.626943 L1355.66704,122.626943 L1355.66704,139.689119 L1355.66704,139.689119 Z M1399.19871,147.528497 C1375.11736,147.528497 1354.27773,168.279793 1354.27773,193.642487 C1354.27773,219.005181 1375.11736,239.756477 1399.19871,239.756477 C1424.20627,239.756477 1444.5828,219.005181 1444.5828,193.642487 C1444.5828,168.279793 1424.20627,147.528497 1399.19871,147.528497 L1399.19871,147.528497 Z M1291.13481,78 C1300.39687,78 1308.26962,85.8393782 1308.26962,95.0621762 C1308.26962,104.284974 1300.39687,112.124352 1291.13481,112.124352 C1281.87275,112.124352 1274,104.284974 1274,95.0621762 C1274,85.3782383 1281.40965,78 1291.13481,78 L1291.13481,78 Z" id="aftership_monotone_black" fill="#000000"></path>
                <g id="aftership">
                    <path d="M162.656842,4.8316906e-13 C252.083952,4.8316906e-13 325.313684,71.3644261 325.313684,159.933942 C325.313684,234.486457 273.466762,296.928175 203.483175,314.773591 L162.656842,367.020567 L121.83051,314.773591 C51.8419816,296.928175 2.1032065e-12,234.486457 2.1032065e-12,159.933942 C2.1032065e-12,71.3644261 72.5824799,4.8316906e-13 162.656842,4.8316906e-13" id="Combined-Shape" fill="#FFA622"></path>
                    <path d="M71.5137954,129.590378 C72.2187799,129.590378 72.9170197,129.727647 73.5695384,129.994522 L138.89536,156.71234 C146.943801,160.004098 152.202386,167.836226 152.202386,176.531804 L152.202386,239.357392 C152.202386,242.356572 149.771071,244.787887 146.771892,244.787887 C146.066907,244.787887 145.368667,244.650618 144.716149,244.383742 L79.390327,217.665925 C71.3418855,214.374167 66.0833007,206.542039 66.0833007,197.84646 L66.0833007,135.020872 C66.0833007,132.021693 68.514616,129.590378 71.5137954,129.590378 Z M253.837155,129.590378 C256.836334,129.590378 259.267649,132.021693 259.267649,135.020872 L259.267649,135.020872 L259.267649,197.84646 C259.267649,206.542039 254.009065,214.374167 245.960623,217.665925 L245.960623,217.665925 L180.634802,244.383742 C179.982283,244.650618 179.284043,244.787887 178.579059,244.787887 C175.579879,244.787887 173.148564,242.356572 173.148564,239.357392 L173.148564,239.357392 L173.148564,176.531804 C173.148564,167.836226 178.407149,160.004098 186.45559,156.71234 L186.45559,156.71234 L251.781412,129.994522 C252.43393,129.727647 253.13217,129.590378 253.837155,129.590378 Z M172.339291,72.244657 L244.413004,101.607564 C246.940409,102.637231 248.154565,105.520808 247.124898,108.048213 C246.621692,109.283373 245.640565,110.262673 244.404468,110.763575 L172.295186,139.984315 C166.145705,142.476261 159.267641,142.476261 153.118159,139.984315 L81.0088775,110.763575 C78.4795571,109.738622 77.2600263,106.857314 78.2849792,104.327994 C78.7858808,103.091897 79.7651807,102.11077 81.0003411,101.607564 L153.074055,72.244657 C159.249393,69.7288176 166.163952,69.7288176 172.339291,72.244657 Z" id="形状结合" fill="#FFFFFF"></path>
                </g>
            </g>
        </g>
    </g>
</svg>