<svg xmlns="http://www.w3.org/2000/svg" width="161" height="24" viewBox="0 0 161 24">
  <g fill="none">
    <path fill="#EF3E24" d="M23.2477612,11.8567164 C23.2477612,5.44477612 18.0537313,0.250746269 11.641791,0.250746269 C5.22985075,0.250746269 0.0358208955,5.48059701 0.0358208955,11.8567164 C0.0358208955,18.2686567 5.22985075,23.4626866 11.641791,23.4626866 L11.641791,23.4626866 L18.7343284,23.3910448 L18.7701493,11.3910448 L18.7343284,11.3910448 C18.5552239,7.73731343 15.5104478,4.8 11.7850746,4.8 C7.95223881,4.8 4.8358209,7.88059701 4.8358209,11.7134328 C4.8,15.4029851 7.70149254,18.4477612 11.319403,18.6985075 C11.4626866,18.6985075 14.7940299,18.6985075 14.7940299,18.6985075 C14.7940299,17.9462687 14.8298507,17.0507463 13.9343284,16.6208955 C13.3970149,16.3701493 12.3223881,16.4776119 11.1761194,16.4059701 C8.8119403,16.1910448 7.02089552,14.041791 7.12835821,11.5701493 C7.2358209,9.13432836 9.20597015,7.1641791 11.641791,7.05671642 C14.3283582,6.94925373 16.5134328,9.09850746 16.5134328,11.7492537 L16.5134328,11.7492537 L16.5134328,21.1343284 L11.641791,21.1701493 C6.48358209,21.1701493 2.29253731,16.9432836 2.29253731,11.7850746 C2.29253731,6.66268657 6.48358209,2.47164179 11.641791,2.47164179 C16.8,2.47164179 21.0268657,6.66268657 21.0268657,11.8208955 L21.0268657,21.1343284 C20.9552239,22.8895522 21.3492537,23.4626866 23.2835821,23.3910448 L23.2835821,23.3910448 L23.2477612,11.8567164 Z"/>
    <g fill="#92C4E9" transform="translate(30.448)">
      <path d="M10.1731343 1.18208955C10.0298507.752238806 9.5641791.465671642 9.06268657.465671642 8.59701493.465671642 8.13134328.752238806 7.95223881 1.18208955L.107462687 22.1014925C.78117024e-15 22.3880597.78117024e-15 22.7104478.143283582 22.9970149.250746269 23.2835821.501492537 23.4985075.752238806 23.6059701L.823880597 23.641791.895522388 23.641791C.931343284 23.641791.967164179 23.641791 1.00298507 23.641791 1.07462687 23.641791 1.14626866 23.641791 1.18208955 23.641791 1.64776119 23.641791 2.07761194 23.3552239 2.25671642 22.8895522L4.15522388 17.8029851 13.9701493 17.8029851 15.8686567 22.8895522C16.0477612 23.319403 16.4776119 23.641791 16.9432836 23.641791 17.0149254 23.641791 17.0865672 23.641791 17.1223881 23.6059701 17.158209 23.6059701 17.1940299 23.6059701 17.2298507 23.6059701L17.3014925 23.6059701 17.3731343 23.5701493C17.9462687 23.319403 18.2328358 22.638806 17.9820896 22.0656716L10.1731343 1.18208955zM13.1104478 15.5104478L5.01492537 15.5104478 9.06268657 4.7641791 13.1104478 15.5104478zM35.0686567 21.3492537L24.6447761 21.3492537 24.6447761 1.50447761C24.6447761.895522388 24.1074627.358208955 23.4985075.358208955 22.8895522.358208955 22.3522388.859701493 22.3522388 1.50447761L22.3522388 22.5313433C22.3522388 23.1402985 22.8537313 23.6776119 23.4985075 23.6776119L35.1044776 23.6776119C35.7492537 23.6776119 36.2507463 23.1761194 36.2507463 22.5313433 36.2149254 21.8507463 35.7134328 21.3492537 35.0686567 21.3492537zM53.2298507 2.65074627C53.8746269 2.65074627 54.3761194 2.14925373 54.3761194 1.50447761 54.3761194.859701493 53.8746269.358208955 53.2298507.358208955L41.6238806.358208955C41.0149254.358208955 40.4776119.859701493 40.4776119 1.50447761L40.4776119 22.5313433C40.4776119 23.1402985 40.9074627 23.6059701 41.5522388 23.6776119L53.2298507 23.6776119C53.8746269 23.6776119 54.3761194 23.1761194 54.3761194 22.5313433 54.3761194 21.8507463 53.8746269 21.3850746 53.2298507 21.3850746L42.8059701 21.3850746 42.8059701 13.1820896 51.9044776 13.1820896C52.5134328 13.1820896 53.0507463 12.680597 53.0507463 12.0358209 53.0507463 11.3910448 52.5492537 10.8895522 51.9044776 10.8895522L42.8059701 10.8895522 42.8059701 2.65074627 53.2298507 2.65074627zM79.0925373 1.00298507C79.0208955.859701493 78.9134328.788059701 78.8059701.680597015L78.7343284.644776119C78.1970149.286567164 77.480597.429850746 77.158209.931343284L69.4567164 11.641791 61.719403.931343284C61.361194.429850746 60.680597.32238806 60.1432836.644776119L60.1074627.680597015C60.0716418.71641791 60.0358209.752238806 60 .788059701 59.7492537 1.00298507 59.6059701 1.28955224 59.6059701 1.64776119L59.6059701 22.5313433C59.6059701 23.1402985 60.1432836 23.6776119 60.7522388 23.6776119 61.361194 23.6776119 61.8985075 23.1761194 61.8985075 22.5313433L61.8985075 5.08656716 68.4537313 14.1492537C68.6686567 14.5074627 68.9910448 14.6865672 69.4208955 14.6865672L69.4925373 14.6865672C69.8865672 14.6865672 70.2447761 14.5074627 70.4238806 14.1850746L77.0149254 5.05074627 77.0149254 22.4955224C77.0149254 23.1402985 77.5164179 23.641791 78.161194 23.641791 78.7701493 23.641791 79.3074627 23.1402985 79.3074627 22.4955224L79.3074627 1.6119403C79.3074627 1.43283582 79.2358209 1.25373134 79.1283582 1.03880597L79.0925373 1.00298507zM95.0686567 10.638806C96.2507463 9.49253731 96.8955224 7.9880597 96.8955224 6.3761194 96.8955224 3.08059701 94.2089552.394029851 90.9134328.394029851L85.8985075.394029851C85.2895522.394029851 84.7522388.895522388 84.7522388 1.54029851L84.7522388 22.5671642C84.7522388 23.1761194 85.2537313 23.7134328 85.8985075 23.7134328L92.3462687 23.7134328C96.1074627 23.7134328 99.1522388 20.6686567 99.1522388 16.9074627 99.1522388 14.1492537 97.5402985 11.7134328 95.0686567 10.638806zM87.080597 9.99402985L87.080597 2.65074627 90.9492537 2.65074627C92.9910448 2.65074627 94.6029851 4.29850746 94.6029851 6.34029851 94.6029851 8.34626866 92.9552239 9.99402985 90.9492537 9.99402985L87.080597 9.99402985 87.080597 9.99402985zM96.8597015 16.8358209C96.8238806 19.3791045 94.8537313 21.3492537 92.3462687 21.3492537L87.080597 21.3492537 87.080597 12.3223881 92.3462687 12.3223881C94.8179104 12.3223881 96.8238806 14.3641791 96.8597015 16.8358209zM104.955224.358208955C104.346269.358208955 103.808955.859701493 103.808955 1.50447761L103.808955 22.5313433C103.808955 23.1402985 104.310448 23.6776119 104.955224 23.6776119 105.6 23.6776119 106.101493 23.1761194 106.101493 22.5313433L106.101493 1.50447761C106.137313.859701493 105.6.358208955 104.955224.358208955zM129.492537 19.0208955C129.170149 18.9492537 128.81194 19.0208955 128.525373 19.2L128.489552 19.2358209C126.877612 20.5970149 124.728358 21.3492537 122.471642 21.3492537 117.062687 21.3492537 112.692537 17.1223881 112.692537 11.8925373 112.692537 6.62686567 117.098507 2.32835821 122.471642 2.32835821 124.692537 2.32835821 126.80597 3.04477612 128.561194 4.44179104 128.81194 4.62089552 129.134328 4.72835821 129.420896 4.65671642 129.707463 4.62089552 129.958209 4.44179104 130.137313 4.22686567 130.316418 4.0119403 130.423881 3.76119403 130.38806 3.47462687 130.38806 3.11641791 130.208955 2.82985075 129.922388 2.57910448 127.773134.931343284 125.122388.0358208955 122.4.0358208955L122.4.0358208955C115.629851.071641791 110.292537 5.26567164 110.292537 11.8925373 110.292537 18.3761194 115.701493 23.641791 122.4 23.641791 125.122388 23.641791 127.808955 22.7462687 129.886567 21.1343284 130.137313 20.9552239 130.316418 20.6328358 130.352239 20.2746269 130.352239 19.9880597 130.280597 19.7014925 130.065672 19.4865672 129.99403 19.2716418 129.779104 19.0925373 129.492537 19.0208955z"/>
    </g>
  </g>
</svg>
