<svg xmlns="http://www.w3.org/2000/svg" viewBox="0 0 366.96 79.77"><defs><style>.cls-1{fill:#262626}</style></defs><g id="Calque_2" data-name="Calque 2"><g id="noir_fondblanc"><path d="M68.45 61.67l20.68-44.46a1.34 1.34 0 0 1 1.12-.73h.66a1.34 1.34 0 0 1 1.13.73l20.68 44.46a1.17 1.17 0 0 1-1.13 1.72h-7.33c-1.19 0-1.72-.4-2.31-1.65l-2.38-5.22h-18l-2.35 5.28a2.46 2.46 0 0 1-2.38 1.59h-7.26a1.17 1.17 0 0 1-1.13-1.72zm27.16-14.14l-5-10.9h-.07l-5 10.9zM116.15 18.4a1.26 1.26 0 0 1 1.25-1.26h7.86a1.31 1.31 0 0 1 1.26 1.26v35.28h15.72a1.25 1.25 0 0 1 1.26 1.25v7.2a1.26 1.26 0 0 1-1.26 1.26H117.4a1.26 1.26 0 0 1-1.25-1.26zM147.92 18.4a1.26 1.26 0 0 1 1.26-1.26H157a1.3 1.3 0 0 1 1.25 1.26v35.28H174a1.25 1.25 0 0 1 1.25 1.25v7.2a1.26 1.26 0 0 1-1.25 1.26h-24.82a1.26 1.26 0 0 1-1.26-1.26zM200.74 16.48A23.79 23.79 0 1 1 177 40.33a23.74 23.74 0 0 1 23.74-23.85zm0 37a13.22 13.22 0 1 0-13.15-13.15 13.24 13.24 0 0 0 13.15 13.15zM252 16.48a22.17 22.17 0 0 1 16 6.15 1.22 1.22 0 0 1 .07 1.85l-5.15 5.35a1.16 1.16 0 0 1-1.65 0 13.53 13.53 0 0 0-8.92-3.37c-7.47 0-13 6.21-13 13.61a13.09 13.09 0 0 0 13 13.41 14 14 0 0 0 8.86-3.17 1.29 1.29 0 0 1 1.71.06l5.16 5.49a1.32 1.32 0 0 1-.07 1.78 22.66 22.66 0 0 1-16 6.41 23.79 23.79 0 1 1 0-47.57zM274 18.4a1.3 1.3 0 0 1 1.26-1.26h7.92a1.31 1.31 0 0 1 1.26 1.26v43.73a1.31 1.31 0 0 1-1.26 1.26h-7.92a1.3 1.3 0 0 1-1.26-1.26zM290.83 18.33a1.25 1.25 0 0 1 1.26-1.19h1.35a3.29 3.29 0 0 1 1.94.92l24.72 23.79h.07V18.4a1.25 1.25 0 0 1 1.25-1.26h7.93a1.3 1.3 0 0 1 1.25 1.26v43.8a1.24 1.24 0 0 1-1.25 1.19h-1.28a3 3 0 0 1-2.07-1.18l-24.66-24.72h-.07v24.64a1.26 1.26 0 0 1-1.27 1.26h-7.87a1.3 1.3 0 0 1-1.25-1.26zM365.71 26.85A1.24 1.24 0 0 0 367 25.6v-7.2a1.25 1.25 0 0 0-1.25-1.26h-9.39l3.27-2.29a1.36 1.36 0 0 0-.06-2l-3.06-3.3c-.45-.51-1.39-.16-1.72.19L347.22 17a.76.76 0 0 1-.08.11h-8.78a1.26 1.26 0 0 0-1.26 1.26v43.76a1.26 1.26 0 0 0 1.26 1.26h27.35a1.25 1.25 0 0 0 1.29-1.26v-7.2a1.24 1.24 0 0 0-1.25-1.25h-18.3v-8.92h15.06a1.26 1.26 0 0 0 1.26-1.26v-7.2a1.3 1.3 0 0 0-1.26-1.25h-15.1v-8.2z" class="cls-1"/><path fill="#fff" d="M45.39 2.28A2.71 2.71 0 0 0 42.3 0L30.93 1.83a8.75 8.75 0 0 1-17.28 2.74L2.28 6.37A2.71 2.71 0 0 0 0 9.46l10.78 68a2.7 2.7 0 0 0 3.09 2.25l11.37-1.8a8.75 8.75 0 0 1 17.31-2.71l11.37-1.8a2.69 2.69 0 0 0 2.24-3.09z"/><path d="M31.46 54.83l-1.31-7.12a2.91 2.91 0 0 0-.94-1.45c-1.37-1.07-5.08 1.2-3.34-7s4.2-4.6 5.89-5a2.84 2.84 0 0 0 1.44-1l4.09-6a2 2 0 0 0-.16-2.42c-1.14-1.17-3-2.87-4.37-3.17-3-.64-10.37 4.13-12.95 16.24S22 57.45 25 58.09c1.4.3 3.77-.51 5.28-1.12a2 2 0 0 0 1.14-2.14" class="cls-1"/></g></g></svg>