<svg id="svg" version="1.1" xmlns="http://www.w3.org/2000/svg" xmlns:xlink="http://www.w3.org/1999/xlink" width="400" height="400" viewBox="0, 0, 400,400"><g id="svgg"><path id="path0" d="M42.000 156.424 C 42.000 156.657,41.820 156.736,41.600 156.600 C 41.380 156.464,41.200 156.661,41.200 157.038 C 41.200 157.677,41.250 157.679,41.931 157.062 C 42.595 156.462,44.880 156.400,66.488 156.400 L 90.313 156.400 92.316 158.200 C 94.634 160.285,95.612 160.661,93.476 158.646 C 92.687 157.902,92.152 157.182,92.287 157.046 C 92.423 156.911,92.154 156.800,91.690 156.800 C 91.227 156.800,90.736 156.620,90.600 156.400 C 90.246 155.827,42.000 155.850,42.000 156.424 M39.002 158.398 C 38.603 158.839,38.462 159.200,38.689 159.200 C 39.192 159.200,40.190 158.057,39.921 157.788 C 39.815 157.682,39.402 157.956,39.002 158.398 M38.180 160.140 C 37.603 160.771,37.161 162.001,37.513 161.997 C 37.795 161.994,38.884 159.944,38.696 159.769 C 38.643 159.721,38.411 159.888,38.180 160.140 M95.102 161.800 C 95.207 162.350,95.362 162.800,95.447 162.800 C 95.531 162.800,95.600 162.350,95.600 161.800 C 95.600 161.250,95.445 160.800,95.255 160.800 C 95.066 160.800,94.997 161.250,95.102 161.800 M96.086 163.000 C 96.029 163.220,95.990 170.182,96.000 178.471 C 96.011 188.323,95.876 193.629,95.609 193.795 C 95.363 193.947,95.234 195.749,95.284 198.324 L 95.369 202.600 95.499 198.414 C 95.571 196.112,95.805 194.120,96.020 193.988 C 96.265 193.836,96.369 187.976,96.300 178.173 C 96.240 169.608,96.143 162.780,96.086 163.000 M25.777 164.838 C 25.628 165.078,25.077 165.193,24.553 165.093 C 24.029 164.993,23.600 165.045,23.600 165.210 C 23.600 165.374,22.995 165.796,22.255 166.147 C 21.515 166.498,20.685 167.057,20.410 167.388 C 20.135 167.720,19.748 167.892,19.552 167.770 C 19.088 167.484,18.000 168.572,18.000 169.322 C 18.000 169.641,17.730 170.126,17.400 170.400 C 17.070 170.674,16.800 171.146,16.800 171.449 C 16.800 171.752,16.620 172.000,16.400 172.000 C 16.180 172.000,16.000 172.179,16.000 172.397 C 16.000 173.080,14.627 176.000,14.306 176.000 C 14.138 176.000,14.000 176.439,14.000 176.976 C 14.000 177.513,13.820 178.064,13.600 178.200 C 13.380 178.336,13.200 178.887,13.200 179.424 C 13.200 179.961,13.051 180.400,12.869 180.400 C 12.687 180.400,12.615 180.919,12.708 181.553 C 12.801 182.187,12.680 182.827,12.438 182.976 C 12.197 183.125,12.000 183.946,12.000 184.800 C 12.000 185.654,11.820 186.464,11.600 186.600 C 11.380 186.736,11.200 187.647,11.200 188.624 C 11.200 189.601,11.059 190.400,10.887 190.400 C 10.715 190.400,10.646 191.675,10.734 193.233 C 10.834 194.996,10.725 196.235,10.447 196.513 C 9.833 197.127,9.810 238.400,10.424 238.400 C 10.657 238.400,10.734 238.582,10.597 238.805 C 10.293 239.296,13.433 242.400,14.233 242.400 C 14.545 242.400,14.800 242.563,14.800 242.761 C 14.800 242.960,15.745 243.254,16.900 243.414 C 20.138 243.862,60.854 244.011,60.584 243.573 C 60.457 243.368,60.993 243.200,61.776 243.200 C 62.559 243.200,63.200 243.020,63.200 242.800 C 63.200 242.580,63.494 242.400,63.854 242.400 C 64.214 242.400,64.925 241.950,65.435 241.400 C 65.945 240.850,66.561 240.400,66.805 240.400 C 67.048 240.400,67.136 240.220,67.000 240.000 C 66.864 239.780,66.943 239.600,67.176 239.600 C 67.409 239.600,67.600 239.240,67.600 238.800 C 67.600 238.360,67.780 238.000,68.000 238.000 C 68.259 238.000,68.400 232.867,68.400 223.400 C 68.400 213.933,68.259 208.800,68.000 208.800 C 67.780 208.800,67.600 208.552,67.600 208.248 C 67.600 207.319,64.555 204.498,63.240 204.209 C 62.558 204.059,62.000 203.771,62.000 203.568 C 62.000 203.353,57.424 203.200,50.976 203.200 C 43.729 203.200,40.037 203.063,40.200 202.800 C 40.342 202.571,39.983 202.400,39.361 202.400 C 38.764 202.400,37.686 201.950,36.964 201.400 C 36.243 200.850,35.501 200.400,35.315 200.400 C 34.736 200.400,32.400 197.703,32.400 197.034 C 32.400 196.686,32.220 196.400,32.000 196.400 C 31.780 196.400,31.600 196.130,31.600 195.800 C 31.600 195.470,31.420 195.200,31.200 195.200 C 30.980 195.200,30.800 194.761,30.800 194.224 C 30.800 193.687,30.620 193.136,30.400 193.000 C 30.146 192.843,30.000 187.596,30.000 178.576 L 30.000 164.400 28.024 164.400 C 26.937 164.400,25.925 164.597,25.777 164.838 M37.513 190.791 C 37.622 191.529,38.199 192.389,39.030 193.052 C 39.768 193.640,40.278 194.274,40.162 194.461 C 40.047 194.647,40.271 194.800,40.660 194.800 C 41.184 194.800,40.931 194.356,39.683 193.085 C 38.730 192.113,38.000 190.986,38.000 190.485 C 38.000 189.998,37.851 189.600,37.669 189.600 C 37.487 189.600,37.417 190.136,37.513 190.791 M42.000 195.255 C 42.000 195.445,42.414 195.600,42.920 195.600 C 43.426 195.600,44.014 195.774,44.227 195.987 C 44.680 196.440,65.618 196.751,65.339 196.300 C 65.236 196.135,60.494 196.000,54.800 196.000 C 49.106 196.000,44.349 195.841,44.230 195.648 C 43.932 195.167,42.000 194.827,42.000 195.255 M67.200 197.192 C 67.200 197.416,67.470 197.600,67.800 197.600 C 68.130 197.600,68.400 197.767,68.400 197.972 C 68.400 198.177,68.805 198.406,69.300 198.482 C 69.795 198.557,70.155 198.840,70.100 199.109 C 70.045 199.379,70.204 199.600,70.454 199.600 C 70.704 199.600,71.325 200.050,71.835 200.600 C 72.345 201.150,72.897 201.600,73.062 201.600 C 73.227 201.600,72.651 200.865,71.781 199.966 C 70.131 198.261,67.200 196.486,67.200 197.192 M95.102 203.800 C 94.997 204.350,95.066 204.800,95.255 204.800 C 95.445 204.800,95.600 204.350,95.600 203.800 C 95.600 203.250,95.531 202.800,95.447 202.800 C 95.362 202.800,95.207 203.250,95.102 203.800 M93.437 213.643 C 93.098 214.679,92.959 217.200,93.240 217.200 C 93.394 217.200,93.596 216.345,93.689 215.300 C 93.864 213.349,93.758 212.658,93.437 213.643 M91.213 222.376 C 90.978 222.815,90.952 223.247,91.153 223.371 C 91.349 223.492,91.594 223.143,91.699 222.595 C 91.927 221.400,91.773 221.330,91.213 222.376 M86.799 230.602 C 86.283 231.151,86.044 231.600,86.268 231.600 C 86.779 231.600,88.198 230.065,87.932 229.799 C 87.825 229.691,87.314 230.052,86.799 230.602 M83.992 232.610 C 83.244 233.511,83.678 233.615,84.570 232.748 C 84.993 232.337,85.151 232.000,84.919 232.000 C 84.687 232.000,84.270 232.274,83.992 232.610 M81.000 233.867 C 80.560 233.963,79.840 234.203,79.400 234.400 C 78.960 234.597,78.240 234.837,77.800 234.933 C 77.360 235.029,77.675 235.128,78.500 235.154 C 79.325 235.179,80.000 235.020,80.000 234.800 C 80.000 234.580,80.450 234.400,81.000 234.400 C 81.550 234.400,82.000 234.220,82.000 234.000 C 82.000 233.780,81.955 233.621,81.900 233.646 C 81.845 233.672,81.440 233.771,81.000 233.867 " stroke="none" fill="#932c2b" fill-rule="evenodd"></path><path id="path1" d="M42.000 157.000 C 41.726 157.330,41.262 157.600,40.969 157.600 C 40.381 157.600,38.625 159.214,38.557 159.818 C 38.450 160.751,37.876 162.000,37.553 162.000 C 37.356 162.000,37.200 168.081,37.200 175.800 C 37.200 184.733,37.341 189.600,37.600 189.600 C 37.820 189.600,38.000 190.013,38.000 190.517 C 38.000 191.771,41.064 194.713,42.715 195.043 C 43.431 195.186,44.114 195.460,44.232 195.652 C 44.350 195.843,49.106 196.000,54.800 196.000 C 61.270 196.000,65.245 196.150,65.400 196.400 C 65.536 196.620,66.006 196.800,66.443 196.800 C 68.383 196.800,73.200 200.584,73.200 202.107 C 73.200 202.514,73.380 202.736,73.600 202.600 C 73.820 202.464,74.000 202.640,74.000 202.990 C 74.000 203.341,74.266 204.034,74.591 204.530 C 75.084 205.282,75.187 207.870,75.210 220.116 L 75.237 234.800 77.195 234.800 C 78.272 234.800,79.251 234.641,79.371 234.446 C 79.492 234.252,80.442 233.965,81.484 233.808 C 82.663 233.632,83.582 233.233,83.919 232.752 C 84.217 232.327,84.682 232.029,84.954 232.089 C 85.489 232.209,87.706 229.835,88.120 228.700 C 88.260 228.315,88.561 228.000,88.787 228.000 C 89.014 228.000,89.200 227.640,89.200 227.200 C 89.200 226.760,89.380 226.400,89.600 226.400 C 89.820 226.400,90.000 226.128,90.000 225.795 C 90.000 225.184,90.116 224.895,91.332 222.468 C 91.700 221.735,92.000 220.800,92.000 220.391 C 92.000 219.982,92.170 219.542,92.377 219.414 C 92.584 219.286,92.878 217.922,93.029 216.382 C 93.181 214.842,93.461 213.486,93.653 213.368 C 93.844 213.249,94.000 212.443,94.000 211.576 C 94.000 210.709,94.157 210.000,94.350 210.000 C 94.783 210.000,95.180 204.466,95.171 198.535 C 95.167 195.853,95.331 193.966,95.582 193.811 C 95.860 193.639,96.000 188.688,96.000 178.992 C 96.000 161.599,95.949 161.300,92.473 158.300 L 90.271 156.400 66.384 156.400 C 45.640 156.400,42.432 156.479,42.000 157.000 " stroke="none" fill="#eb5b14" fill-rule="evenodd"></path><path id="path2" d="M163.792 180.477 C 163.682 180.765,163.638 189.100,163.696 199.000 L 163.800 217.000 165.704 217.122 L 167.608 217.244 167.504 198.722 L 167.400 180.200 165.696 180.077 C 164.568 179.995,163.925 180.130,163.792 180.477 M205.783 180.500 C 205.678 180.775,205.638 189.100,205.696 199.000 L 205.800 217.000 208.100 217.120 L 210.400 217.240 210.446 209.320 C 210.472 204.964,210.534 201.220,210.585 201.000 C 210.636 200.780,210.706 200.407,210.739 200.171 C 210.870 199.246,214.681 195.750,216.082 195.269 C 217.623 194.741,220.328 195.546,219.813 196.380 C 219.695 196.570,219.956 196.632,220.392 196.518 C 220.994 196.361,221.286 196.588,221.601 197.455 C 221.830 198.085,222.200 198.962,222.424 199.404 C 222.675 199.897,222.787 203.489,222.716 208.720 L 222.600 217.234 225.000 217.117 L 227.400 217.000 227.600 207.400 L 227.800 197.800 226.823 196.400 C 225.245 194.140,223.907 192.810,223.477 193.076 C 223.257 193.212,223.199 193.125,223.349 192.882 C 223.500 192.639,223.235 192.233,222.761 191.979 C 221.659 191.389,215.073 191.380,214.877 191.969 C 214.798 192.206,214.492 192.400,214.197 192.400 C 213.903 192.400,213.110 192.952,212.435 193.626 C 210.546 195.516,210.400 195.053,210.400 187.176 L 210.400 180.000 208.187 180.000 C 206.786 180.000,205.905 180.183,205.783 180.500 M328.983 180.500 C 328.878 180.775,328.838 189.100,328.896 199.000 L 329.000 217.000 331.300 217.120 L 333.600 217.240 333.600 208.449 C 333.600 199.615,333.895 197.793,335.195 198.597 C 335.377 198.709,335.440 198.473,335.335 198.073 C 335.050 196.982,338.310 194.800,340.225 194.800 C 341.427 194.800,344.345 197.013,344.858 198.313 C 345.093 198.911,345.433 199.690,345.612 200.044 C 345.791 200.399,345.958 204.251,345.983 208.606 C 346.036 217.820,345.844 217.200,348.645 217.200 L 350.842 217.200 350.684 208.100 C 350.597 203.095,350.323 198.143,350.075 197.096 C 349.481 194.595,346.559 191.613,344.663 191.574 C 338.754 191.450,337.071 191.792,335.091 193.522 C 333.775 194.671,333.555 193.634,333.680 186.864 C 333.775 181.771,333.687 180.365,333.267 180.204 C 332.196 179.794,329.174 180.003,328.983 180.500 M271.400 181.236 C 263.635 181.745,260.000 184.881,260.000 191.071 C 260.000 195.832,262.927 198.763,270.515 201.603 C 274.970 203.270,276.964 207.026,275.341 210.695 C 274.721 212.094,273.210 213.231,273.188 212.314 C 273.181 212.013,273.005 212.094,272.763 212.508 C 272.536 212.898,272.201 213.124,272.017 213.011 C 271.834 212.897,271.591 213.047,271.477 213.343 C 271.148 214.201,265.416 214.060,263.267 213.141 C 260.280 211.864,259.879 212.077,259.512 215.137 C 259.396 216.109,262.338 217.687,263.527 217.291 C 263.802 217.199,264.267 217.323,264.560 217.566 C 265.509 218.354,270.807 218.331,272.600 217.531 C 273.480 217.139,274.596 216.814,275.080 216.809 C 275.564 216.804,276.127 216.502,276.331 216.137 C 276.536 215.772,277.043 215.448,277.458 215.418 C 278.608 215.333,279.191 214.841,278.934 214.172 C 278.807 213.841,278.971 213.262,279.298 212.885 C 280.731 211.234,281.132 205.684,279.958 203.753 C 279.541 203.067,279.200 202.255,279.200 201.949 C 279.200 201.643,278.840 201.168,278.400 200.893 C 277.960 200.618,277.600 200.142,277.600 199.834 C 277.600 199.501,277.317 199.346,276.900 199.451 C 276.515 199.548,274.786 198.818,273.057 197.828 C 271.328 196.838,269.775 196.067,269.606 196.114 C 267.477 196.706,263.971 191.443,264.858 188.989 C 266.212 185.245,273.303 183.663,276.571 186.376 C 277.435 187.093,278.361 186.423,278.874 184.710 C 279.387 182.999,278.775 182.000,277.213 182.000 C 276.864 182.000,276.223 181.775,275.789 181.500 C 275.230 181.146,273.951 181.069,271.400 181.236 M140.248 182.900 C 139.935 183.395,139.548 184.424,139.388 185.187 C 139.229 185.950,138.951 186.850,138.770 187.187 C 138.457 187.773,137.282 191.362,137.129 192.200 C 137.089 192.420,136.625 193.770,136.099 195.200 C 135.572 196.630,135.081 198.070,135.008 198.400 C 134.714 199.715,132.252 206.613,132.009 206.800 C 131.867 206.910,131.436 208.080,131.052 209.400 C 130.667 210.720,130.184 212.113,129.977 212.495 C 129.769 212.877,129.600 213.543,129.600 213.975 C 129.600 214.407,129.352 214.904,129.049 215.080 C 127.657 215.888,129.053 217.200,131.304 217.200 L 133.435 217.200 134.553 214.100 C 135.168 212.395,135.856 210.280,136.082 209.400 C 136.801 206.596,137.308 206.400,143.826 206.400 L 149.562 206.400 150.146 207.700 C 150.467 208.415,151.025 209.990,151.386 211.200 C 151.747 212.410,152.213 213.713,152.421 214.095 C 152.630 214.477,152.800 215.130,152.800 215.546 C 152.800 216.769,153.901 217.367,155.935 217.247 C 158.400 217.103,158.665 216.760,157.727 214.926 C 157.298 214.087,156.633 212.320,156.250 211.000 C 155.867 209.680,155.384 208.287,155.177 207.905 C 154.969 207.523,154.800 206.859,154.800 206.429 C 154.800 205.999,154.617 205.534,154.393 205.396 C 154.170 205.258,154.095 204.969,154.228 204.755 C 154.360 204.540,154.297 204.148,154.087 203.882 C 153.876 203.617,153.488 202.680,153.224 201.800 C 152.960 200.920,152.588 199.840,152.398 199.400 C 152.207 198.960,151.295 196.170,150.371 193.200 C 149.447 190.230,148.368 187.170,147.972 186.400 C 147.577 185.630,147.048 184.325,146.796 183.500 L 146.338 182.000 143.578 182.000 C 141.152 182.000,140.750 182.109,140.248 182.900 M287.400 182.306 C 285.198 183.924,286.087 187.600,288.679 187.600 C 291.841 187.600,293.289 184.900,291.307 182.700 C 290.666 181.989,288.174 181.737,287.400 182.306 M361.464 184.852 C 361.060 185.087,360.300 185.198,359.776 185.098 C 359.253 184.997,358.919 185.070,359.036 185.258 C 359.152 185.446,359.102 185.600,358.924 185.600 C 358.746 185.600,358.663 186.506,358.740 187.615 C 358.952 190.682,358.653 191.411,357.135 191.526 C 355.521 191.649,355.569 191.591,355.429 193.567 C 355.305 195.296,355.328 195.316,357.800 195.690 C 358.565 195.805,358.605 196.160,358.709 203.775 C 358.768 208.155,358.974 211.933,359.165 212.169 C 359.356 212.406,359.482 213.050,359.446 213.600 C 359.409 214.173,359.698 214.834,360.125 215.147 C 360.569 215.473,360.789 215.998,360.672 216.447 C 360.560 216.874,360.643 217.097,360.862 216.962 C 361.075 216.830,362.093 217.068,363.124 217.489 C 367.015 219.080,369.600 218.396,369.600 215.776 C 369.600 213.988,368.910 213.563,366.659 213.966 C 364.191 214.409,363.561 212.130,363.691 203.231 L 363.800 195.800 367.100 195.684 L 370.400 195.568 370.400 193.584 L 370.400 191.600 367.243 191.600 C 363.590 191.600,363.600 191.610,363.600 187.847 C 363.600 184.767,363.017 183.949,361.464 184.852 M144.139 189.430 C 144.326 190.294,144.638 191.308,144.833 191.684 C 145.028 192.060,145.081 192.644,144.952 192.981 C 144.813 193.343,144.987 193.697,145.375 193.846 C 145.737 193.985,145.995 194.391,145.948 194.749 C 145.901 195.107,146.323 196.390,146.886 197.600 C 147.450 198.810,148.038 200.397,148.193 201.127 L 148.475 202.454 143.538 202.327 C 137.992 202.184,138.094 202.259,139.243 199.200 C 140.424 196.056,142.512 189.498,142.607 188.633 C 142.730 187.511,142.730 187.510,143.300 187.697 C 143.575 187.787,143.953 188.567,144.139 189.430 M178.800 191.472 C 178.030 191.551,177.009 191.702,176.532 191.808 L 175.664 191.999 175.617 208.972 C 175.562 229.261,175.391 228.074,178.348 227.919 L 180.600 227.800 180.704 222.000 C 180.830 215.016,180.890 214.770,182.189 215.989 C 184.624 218.277,190.343 218.689,193.403 216.798 C 194.113 216.359,194.948 216.000,195.259 216.000 C 195.569 216.000,196.083 215.640,196.400 215.200 C 196.717 214.760,197.162 214.400,197.388 214.400 C 197.615 214.400,197.825 213.960,197.856 213.423 C 197.887 212.886,198.328 211.862,198.836 211.149 C 199.398 210.360,199.807 209.135,199.880 208.026 C 200.191 203.299,199.931 198.869,199.318 198.448 C 198.909 198.166,197.600 195.470,197.600 194.909 C 197.600 192.348,188.864 190.401,184.922 192.084 C 183.999 192.478,183.086 192.800,182.894 192.800 C 182.702 192.800,182.147 193.257,181.661 193.816 C 180.517 195.131,179.887 194.709,180.073 192.753 C 180.154 191.899,180.216 191.229,180.211 191.264 C 180.205 191.299,179.570 191.393,178.800 191.472 M238.792 191.731 C 234.929 193.306,234.791 193.465,235.647 195.344 C 236.114 196.368,236.161 196.368,239.200 195.323 C 241.760 194.443,247.200 195.221,247.200 196.466 C 247.200 196.711,247.481 197.117,247.824 197.368 C 249.349 198.483,248.663 200.786,246.740 201.006 C 245.368 201.162,242.329 201.739,240.212 202.244 C 235.197 203.440,232.531 207.671,233.607 212.726 C 234.353 216.231,234.423 216.433,234.812 216.193 C 235.025 216.061,235.200 216.228,235.200 216.564 C 235.200 216.944,235.428 217.087,235.803 216.943 C 236.135 216.816,236.900 217.038,237.503 217.436 C 238.545 218.124,244.000 218.573,244.000 217.971 C 244.000 217.708,246.979 216.208,248.250 215.830 C 248.895 215.639,249.154 215.780,249.319 216.412 C 249.508 217.136,249.793 217.230,251.469 217.123 L 253.400 217.000 253.528 209.200 C 253.768 194.485,252.191 191.777,243.192 191.450 C 241.318 191.382,239.338 191.508,238.792 191.731 M288.800 191.600 C 287.590 191.710,286.645 191.935,286.700 192.100 C 286.755 192.265,286.800 197.989,286.800 204.820 L 286.800 217.240 289.100 217.120 L 291.400 217.000 291.506 204.675 C 291.626 190.666,291.764 191.331,288.800 191.600 M305.102 191.964 C 304.174 192.275,303.163 192.780,302.856 193.087 C 302.548 193.395,302.050 193.551,301.748 193.436 C 301.437 193.316,301.200 193.479,301.200 193.813 C 301.200 194.136,300.936 194.400,300.613 194.400 C 300.279 194.400,300.116 194.637,300.236 194.948 C 300.351 195.250,300.149 195.794,299.785 196.158 C 297.649 198.294,296.617 207.884,298.271 210.230 C 298.724 210.874,299.212 211.760,299.354 212.200 C 300.582 215.986,308.955 218.991,311.954 216.722 C 312.479 216.325,313.122 216.000,313.384 216.000 C 313.646 216.000,314.271 215.563,314.773 215.029 C 316.329 213.373,317.740 216.094,316.418 218.200 C 316.280 218.420,315.926 219.320,315.633 220.200 C 314.279 224.255,309.324 225.873,304.000 224.000 C 301.010 222.948,300.400 222.978,300.400 224.176 C 300.400 224.713,300.220 225.264,300.000 225.400 C 299.780 225.536,299.600 226.027,299.600 226.490 C 299.600 226.954,299.718 227.215,299.863 227.070 C 300.008 226.925,300.323 226.953,300.563 227.131 C 303.650 229.424,312.112 228.769,317.184 225.845 C 317.971 225.391,319.951 222.350,320.105 221.358 C 320.170 220.941,320.330 220.420,320.461 220.200 C 320.885 219.487,321.186 212.828,321.273 202.200 L 321.358 191.800 319.490 191.583 C 317.447 191.345,317.200 191.567,317.200 193.633 C 317.200 194.953,316.434 195.216,316.117 194.004 C 316.003 193.567,315.764 193.299,315.587 193.408 C 315.410 193.518,315.021 193.364,314.724 193.067 C 313.106 191.449,308.294 190.897,305.102 191.964 M385.109 191.424 C 385.037 191.496,383.403 191.590,381.477 191.632 C 379.552 191.675,378.040 191.773,378.118 191.851 C 378.196 191.929,377.391 192.894,376.330 193.995 C 371.893 198.598,374.931 204.816,382.500 206.624 C 383.105 206.769,383.600 207.035,383.600 207.216 C 383.600 207.398,383.941 207.654,384.357 207.786 C 386.546 208.481,385.958 213.311,383.617 213.868 C 383.058 214.002,382.420 214.216,382.200 214.344 C 381.392 214.815,380.279 214.798,379.686 214.305 C 379.351 214.027,378.610 213.784,378.039 213.764 C 377.467 213.744,376.309 213.420,375.464 213.043 C 374.619 212.667,374.045 212.550,374.190 212.783 C 374.595 213.440,374.013 214.854,373.471 214.529 C 373.205 214.369,373.239 214.541,373.549 214.923 C 373.851 215.295,373.958 215.600,373.787 215.600 C 373.616 215.600,373.794 215.951,374.183 216.381 C 375.353 217.674,383.617 218.800,384.326 217.762 C 384.477 217.542,385.013 217.336,385.518 217.304 C 387.966 217.152,391.541 211.790,390.509 209.820 C 390.209 209.249,390.065 208.619,390.187 208.420 C 390.758 207.497,388.825 204.716,387.269 204.222 C 386.475 203.970,386.216 203.532,386.358 202.683 C 386.388 202.508,386.089 202.538,385.696 202.749 C 384.158 203.572,379.416 200.481,379.309 198.586 C 379.122 195.264,381.818 194.166,386.740 195.560 C 387.698 195.831,388.516 195.996,388.559 195.926 C 389.557 194.323,389.520 192.619,388.477 192.188 C 387.483 191.777,385.261 191.273,385.109 191.424 M190.119 195.324 C 191.320 195.947,192.431 197.036,192.151 197.316 C 192.035 197.432,192.315 197.646,192.774 197.792 C 193.711 198.089,194.800 199.923,194.800 201.204 C 194.800 201.668,194.940 201.961,195.111 201.855 C 195.281 201.750,195.463 202.774,195.513 204.132 C 195.722 209.731,190.032 216.218,186.726 214.150 C 186.437 213.969,186.020 213.807,185.800 213.789 C 184.911 213.717,183.351 212.831,182.549 211.942 C 180.762 209.965,180.585 209.139,180.843 203.995 L 181.087 199.146 182.827 197.373 C 183.882 196.298,184.927 195.600,185.483 195.600 C 185.987 195.600,186.400 195.449,186.400 195.265 C 186.400 194.733,189.062 194.776,190.119 195.324 M312.732 195.910 C 313.319 196.360,313.761 196.907,313.713 197.124 C 313.666 197.342,314.045 197.625,314.556 197.753 C 316.682 198.287,317.761 206.548,316.000 208.800 C 315.570 209.350,315.214 210.031,315.209 210.313 C 315.195 211.101,312.869 213.200,312.010 213.200 C 311.590 213.200,311.136 213.380,311.000 213.600 C 310.129 215.010,303.624 211.884,303.587 210.038 C 303.580 209.687,303.311 209.052,302.989 208.626 C 300.630 205.507,303.856 195.600,307.230 195.600 C 307.628 195.600,308.058 195.430,308.186 195.223 C 308.579 194.586,311.600 195.043,312.732 195.910 M248.405 205.210 C 248.876 206.089,248.790 210.000,248.300 210.000 C 248.135 210.000,248.000 210.246,248.000 210.546 C 248.000 212.923,243.428 215.160,240.520 214.206 C 239.170 213.763,237.532 210.382,238.214 209.448 C 238.506 209.049,238.663 208.508,238.562 208.246 C 237.676 205.937,247.220 202.994,248.405 205.210 " stroke="none" fill="#4a4a44" fill-rule="evenodd"></path><path id="path3" d="M66.183 155.900 C 81.364 155.967,90.312 156.152,90.563 156.403 C 90.781 156.621,91.239 156.794,91.580 156.787 C 92.072 156.777,92.040 156.654,91.424 156.187 C 90.757 155.683,87.208 155.614,66.424 155.697 L 42.200 155.794 66.183 155.900 M40.000 157.200 C 40.000 157.420,40.270 157.600,40.600 157.600 C 40.930 157.600,41.200 157.420,41.200 157.200 C 41.200 156.980,40.930 156.800,40.600 156.800 C 40.270 156.800,40.000 156.980,40.000 157.200 M92.284 157.049 C 92.151 157.183,92.662 157.878,93.420 158.593 C 94.179 159.309,94.800 160.098,94.800 160.347 C 94.800 160.596,94.980 160.800,95.200 160.800 C 95.420 160.800,95.600 161.376,95.600 162.080 C 95.600 163.041,95.714 163.246,96.058 162.902 C 96.401 162.559,96.392 162.146,96.020 161.248 C 95.438 159.842,92.638 156.695,92.284 157.049 M37.262 160.775 C 36.328 162.698,35.870 190.000,36.772 190.000 C 36.977 190.000,37.202 190.405,37.272 190.900 C 37.342 191.395,37.400 184.819,37.400 176.286 C 37.400 163.571,37.499 160.710,37.949 160.432 C 38.251 160.245,38.414 159.847,38.311 159.546 C 38.204 159.232,37.759 159.753,37.262 160.775 M96.494 178.500 C 96.434 188.504,96.258 194.000,96.000 194.000 C 95.753 194.000,95.600 196.067,95.600 199.400 C 95.600 202.733,95.447 204.800,95.200 204.800 C 94.971 204.800,94.800 206.000,94.800 207.600 C 94.800 209.257,94.632 210.400,94.387 210.400 C 94.161 210.400,93.986 210.985,94.001 211.700 C 94.043 213.842,93.523 217.200,93.149 217.200 C 92.957 217.200,92.800 217.776,92.800 218.480 C 92.800 221.537,93.797 218.255,94.646 212.400 C 94.758 211.630,95.011 210.640,95.208 210.200 C 96.072 208.272,96.823 191.383,96.701 176.600 L 96.589 163.000 96.494 178.500 M25.800 164.000 C 25.664 164.220,25.196 164.400,24.760 164.400 C 23.157 164.400,18.717 167.254,19.535 167.760 C 19.741 167.887,20.135 167.720,20.410 167.388 C 20.685 167.057,21.515 166.498,22.255 166.147 C 22.995 165.796,23.600 165.374,23.600 165.210 C 23.600 165.045,24.029 164.993,24.553 165.093 C 25.077 165.193,25.628 165.078,25.777 164.838 C 25.925 164.597,26.937 164.400,28.024 164.400 L 30.000 164.400 30.000 178.576 C 30.000 187.596,30.146 192.843,30.400 193.000 C 30.620 193.136,30.800 193.687,30.800 194.224 C 30.800 194.761,30.980 195.200,31.200 195.200 C 31.420 195.200,31.600 195.470,31.600 195.800 C 31.600 196.130,31.780 196.400,32.000 196.400 C 32.220 196.400,32.400 196.686,32.400 197.034 C 32.400 197.703,34.736 200.400,35.315 200.400 C 35.501 200.400,36.243 200.850,36.964 201.400 C 37.686 201.950,38.764 202.400,39.361 202.400 C 39.983 202.400,40.342 202.571,40.200 202.800 C 40.037 203.063,43.729 203.200,50.976 203.200 C 57.424 203.200,62.000 203.353,62.000 203.568 C 62.000 203.771,62.558 204.059,63.240 204.209 C 64.555 204.498,67.600 207.319,67.600 208.248 C 67.600 208.552,67.780 208.800,68.000 208.800 C 68.259 208.800,68.400 213.933,68.400 223.400 C 68.400 232.867,68.259 238.000,68.000 238.000 C 67.780 238.000,67.600 238.270,67.600 238.600 C 67.600 239.651,68.223 239.246,68.720 237.872 C 69.488 235.748,69.388 210.547,68.604 208.672 C 67.818 206.791,64.560 203.612,63.123 203.325 C 62.496 203.199,61.886 202.940,61.768 202.748 C 61.650 202.557,56.934 202.400,51.290 202.400 C 40.381 202.400,39.139 202.223,36.200 200.252 C 33.799 198.642,31.600 195.638,31.600 193.968 C 31.600 193.545,31.420 193.200,31.200 193.200 C 30.941 193.200,30.800 188.160,30.800 178.880 C 30.800 168.276,30.675 164.435,30.320 164.080 C 29.740 163.500,26.148 163.437,25.800 164.000 M16.877 169.892 C 16.395 170.569,16.000 171.321,16.000 171.562 C 16.000 171.803,15.820 172.000,15.600 172.000 C 15.380 172.000,15.199 172.225,15.198 172.500 C 15.197 172.775,14.743 173.893,14.189 174.985 C 13.635 176.077,13.073 177.656,12.939 178.494 C 12.805 179.332,12.539 180.114,12.347 180.232 C 12.156 180.351,12.000 180.966,12.000 181.600 C 12.000 182.234,11.844 182.849,11.653 182.967 C 11.462 183.085,11.193 183.951,11.054 184.891 C 10.915 185.831,10.634 187.590,10.430 188.800 C 10.226 190.010,10.045 192.215,10.029 193.700 C 10.013 195.214,9.824 196.400,9.600 196.400 C 9.049 196.400,9.049 237.460,9.600 237.800 C 9.865 237.964,10.000 231.097,10.000 217.504 C 10.000 202.901,10.129 196.831,10.447 196.513 C 10.725 196.235,10.834 194.996,10.734 193.233 C 10.646 191.675,10.715 190.400,10.887 190.400 C 11.059 190.400,11.200 189.601,11.200 188.624 C 11.200 187.647,11.380 186.736,11.600 186.600 C 11.820 186.464,12.000 185.654,12.000 184.800 C 12.000 183.946,12.197 183.125,12.438 182.976 C 12.680 182.827,12.801 182.187,12.708 181.553 C 12.615 180.919,12.687 180.400,12.869 180.400 C 13.051 180.400,13.200 179.961,13.200 179.424 C 13.200 178.887,13.380 178.336,13.600 178.200 C 13.820 178.064,14.000 177.513,14.000 176.976 C 14.000 176.439,14.138 176.000,14.306 176.000 C 14.627 176.000,16.000 173.080,16.000 172.397 C 16.000 172.179,16.180 172.000,16.400 172.000 C 16.620 172.000,16.800 171.789,16.800 171.531 C 16.800 171.274,17.088 170.744,17.441 170.355 C 17.794 169.965,18.008 169.425,17.918 169.154 C 17.822 168.865,17.390 169.172,16.877 169.892 M163.100 178.832 C 162.210 179.350,161.998 217.438,162.880 218.320 C 163.662 219.102,168.009 218.936,168.643 218.100 C 169.595 216.846,169.430 179.932,168.469 179.062 C 167.640 178.312,164.242 178.167,163.100 178.832 M205.289 179.023 L 204.400 179.645 204.400 198.679 C 204.400 220.516,204.058 218.766,208.329 218.787 C 212.060 218.806,211.925 219.177,212.072 208.525 L 212.200 199.337 213.523 198.014 C 214.699 196.839,215.110 196.685,217.206 196.629 C 220.078 196.553,220.465 196.261,218.819 195.410 C 216.781 194.356,211.088 197.710,210.739 200.171 C 210.706 200.407,210.636 200.780,210.585 201.000 C 210.534 201.220,210.472 204.964,210.446 209.320 L 210.400 217.240 208.100 217.120 L 205.800 217.000 205.800 198.600 L 205.800 180.200 208.100 180.080 L 210.400 179.960 210.400 187.156 C 210.400 195.054,210.545 195.516,212.435 193.626 C 213.110 192.952,213.903 192.400,214.197 192.400 C 214.492 192.400,214.797 192.210,214.874 191.977 C 214.992 191.625,218.183 191.436,221.686 191.573 C 222.627 191.610,224.888 193.662,226.479 195.923 L 227.800 197.800 227.600 207.400 L 227.400 217.000 225.000 217.117 L 222.600 217.234 222.716 208.720 C 222.787 203.489,222.675 199.897,222.424 199.404 C 222.200 198.962,221.837 198.105,221.618 197.500 C 221.245 196.470,220.452 196.081,219.884 196.649 C 219.747 196.787,220.077 197.479,220.617 198.187 C 221.594 199.468,221.600 199.527,221.600 208.594 C 221.600 216.809,221.669 217.764,222.300 218.243 C 223.184 218.914,227.669 218.971,228.320 218.320 C 229.153 217.487,228.978 198.700,228.116 196.413 C 225.761 190.167,217.636 187.918,212.500 192.092 C 212.104 192.414,212.000 191.163,212.000 186.072 C 212.000 178.618,211.892 178.400,208.200 178.400 C 207.017 178.400,205.809 178.658,205.289 179.023 M328.500 178.866 L 327.600 179.322 327.600 198.490 C 327.600 220.591,327.276 218.903,331.486 218.719 C 335.198 218.556,335.148 218.705,335.222 207.485 C 335.258 202.131,335.437 198.400,335.658 198.400 C 335.864 198.400,336.401 198.057,336.851 197.638 C 338.936 195.695,344.000 196.710,344.000 199.070 C 344.000 199.361,344.135 199.600,344.300 199.600 C 344.465 199.599,344.548 203.490,344.485 208.246 C 344.343 218.861,344.321 218.800,348.238 218.800 C 352.160 218.800,352.000 219.258,352.000 208.029 C 352.000 202.733,351.843 198.400,351.651 198.400 C 351.459 198.400,351.186 197.673,351.044 196.785 C 350.902 195.896,350.520 195.067,350.195 194.943 C 349.870 194.818,349.703 194.558,349.822 194.364 C 350.120 193.883,348.102 191.994,346.120 190.900 C 343.789 189.612,339.827 189.643,337.186 190.970 L 335.255 191.939 335.128 185.788 C 335.041 181.592,334.843 179.481,334.506 179.145 C 333.847 178.487,329.633 178.292,328.500 178.866 M167.504 198.722 L 167.608 217.244 165.704 217.122 L 163.800 217.000 163.696 199.000 C 163.577 178.531,163.431 179.913,165.696 180.077 L 167.400 180.200 167.504 198.722 M267.200 180.400 C 267.200 180.620,266.777 180.800,266.260 180.800 C 264.889 180.800,261.995 182.963,260.105 185.400 C 258.779 187.109,258.272 193.088,259.300 194.885 C 260.820 197.543,265.585 201.600,267.186 201.600 C 267.420 201.600,267.923 201.760,268.305 201.956 C 268.687 202.151,269.712 202.646,270.582 203.056 C 273.883 204.608,274.499 205.481,274.318 208.340 C 274.202 210.168,273.971 210.984,273.495 211.251 C 272.532 211.790,273.052 212.907,274.024 212.387 C 277.931 210.296,275.738 203.557,270.515 201.603 C 259.837 197.607,256.557 190.296,262.737 184.262 C 265.373 181.688,273.160 180.080,275.897 181.545 C 276.365 181.795,276.995 182.000,277.297 182.000 C 278.778 182.000,279.377 183.031,278.874 184.710 C 278.361 186.423,277.435 187.093,276.571 186.376 C 273.303 183.663,266.212 185.245,264.858 188.989 C 263.971 191.443,267.477 196.706,269.606 196.114 C 269.775 196.067,271.328 196.838,273.057 197.828 C 274.786 198.818,276.515 199.548,276.900 199.451 C 277.317 199.346,277.600 199.501,277.600 199.834 C 277.600 200.142,277.960 200.618,278.400 200.893 C 278.840 201.168,279.200 201.643,279.200 201.949 C 279.200 202.255,279.541 203.067,279.958 203.753 C 281.132 205.684,280.731 211.234,279.298 212.885 C 278.971 213.262,278.807 213.841,278.934 214.172 C 279.191 214.841,278.608 215.333,277.458 215.418 C 277.043 215.448,276.536 215.772,276.331 216.137 C 276.127 216.502,275.564 216.804,275.080 216.809 C 274.596 216.814,273.480 217.139,272.600 217.531 C 270.807 218.331,265.509 218.354,264.560 217.566 C 264.267 217.323,263.802 217.199,263.527 217.291 C 262.338 217.687,259.396 216.109,259.512 215.137 C 259.880 212.073,260.280 211.863,263.285 213.151 C 265.413 214.063,271.019 214.141,271.560 213.266 C 271.741 212.972,272.045 212.761,272.235 212.796 C 272.425 212.831,272.645 212.667,272.723 212.430 C 272.904 211.887,271.733 211.861,271.400 212.400 C 271.264 212.620,269.824 212.800,268.200 212.800 C 266.576 212.800,265.136 212.620,265.000 212.400 C 264.864 212.180,264.313 212.000,263.776 212.000 C 263.239 212.000,262.800 211.859,262.800 211.688 C 262.800 210.929,260.266 210.397,259.586 211.013 C 258.879 211.652,258.000 214.151,258.000 215.519 C 258.000 218.137,271.853 220.708,274.060 218.500 C 274.335 218.225,274.884 218.000,275.280 218.000 C 275.676 218.000,276.000 217.820,276.000 217.600 C 276.000 217.380,276.249 217.200,276.553 217.200 C 277.293 217.200,280.083 214.375,280.755 212.944 C 281.051 212.315,281.452 211.487,281.647 211.105 C 282.139 210.138,282.098 204.000,281.600 204.000 C 281.380 204.000,281.200 203.640,281.200 203.200 C 281.200 202.760,281.061 202.400,280.891 202.400 C 280.721 202.400,280.245 201.774,279.832 201.008 C 279.420 200.243,278.781 199.521,278.412 199.404 C 278.043 199.287,277.394 198.878,276.971 198.495 C 276.167 197.770,275.750 197.553,271.800 195.802 C 267.253 193.787,266.787 193.489,266.535 192.432 C 266.400 191.864,266.106 191.167,265.882 190.883 C 265.601 190.527,265.618 190.222,265.937 189.903 C 266.192 189.648,266.400 189.126,266.400 188.743 C 266.400 187.836,267.898 186.800,269.209 186.800 C 269.776 186.800,270.452 186.588,270.712 186.328 C 271.062 185.978,271.418 185.970,272.092 186.297 C 272.591 186.539,273.773 186.845,274.717 186.976 C 275.662 187.108,276.779 187.430,277.198 187.692 C 278.259 188.354,279.886 186.434,280.235 184.108 C 280.553 181.988,280.038 181.280,277.939 180.944 C 277.083 180.807,276.286 180.539,276.168 180.347 C 275.861 179.852,267.200 179.903,267.200 180.400 M333.267 180.204 C 333.687 180.365,333.775 181.771,333.680 186.864 C 333.555 193.634,333.775 194.671,335.091 193.522 C 337.071 191.792,338.754 191.450,344.663 191.574 C 346.559 191.613,349.481 194.595,350.075 197.096 C 350.323 198.143,350.597 203.095,350.684 208.100 L 350.842 217.200 348.645 217.200 C 345.844 217.200,346.036 217.820,345.983 208.606 C 345.958 204.251,345.791 200.399,345.612 200.044 C 345.433 199.690,345.093 198.911,344.858 198.313 C 343.380 194.566,337.136 194.004,335.397 197.462 C 335.176 197.902,334.681 198.576,334.297 198.960 C 333.676 199.581,333.600 200.621,333.600 208.449 L 333.600 217.240 331.300 217.120 L 329.000 217.000 328.896 199.000 C 328.838 189.100,328.878 180.775,328.983 180.500 C 329.174 180.003,332.196 179.794,333.267 180.204 M139.700 181.058 C 139.425 181.173,139.200 181.524,139.200 181.839 C 139.200 182.153,139.030 182.723,138.821 183.105 C 138.613 183.487,138.150 184.790,137.793 186.000 C 137.435 187.210,136.985 188.560,136.792 189.000 C 136.104 190.567,135.200 193.641,135.200 194.414 C 135.200 194.846,135.020 195.200,134.800 195.200 C 134.580 195.200,134.400 195.639,134.400 196.176 C 134.400 196.713,134.230 197.258,134.023 197.386 C 133.816 197.514,133.525 198.424,133.378 199.409 C 133.230 200.394,132.950 201.200,132.755 201.200 C 132.560 201.200,132.400 201.650,132.400 202.200 C 132.400 202.750,132.240 203.200,132.045 203.200 C 131.721 203.200,131.269 204.772,131.098 206.500 C 131.060 206.885,130.887 207.200,130.714 207.200 C 130.541 207.200,130.400 207.549,130.400 207.976 C 130.400 208.403,130.220 208.864,130.000 209.000 C 129.780 209.136,129.600 209.676,129.600 210.200 C 129.600 210.724,129.436 211.254,129.235 211.378 C 129.034 211.503,128.748 212.322,128.600 213.200 C 128.452 214.078,128.166 214.897,127.965 215.022 C 127.764 215.146,127.600 215.789,127.600 216.452 C 127.600 220.127,134.202 219.835,135.202 216.116 C 135.486 215.062,135.871 214.029,136.059 213.820 C 136.247 213.611,136.400 213.037,136.400 212.544 C 136.400 212.051,136.570 211.542,136.777 211.414 C 136.984 211.286,137.275 210.376,137.422 209.391 L 137.691 207.600 143.255 207.600 L 148.820 207.600 149.062 208.808 C 149.195 209.473,149.460 210.114,149.652 210.232 C 149.843 210.350,150.000 210.887,150.000 211.424 C 150.000 211.961,150.180 212.400,150.400 212.400 C 150.620 212.400,150.799 212.715,150.798 213.100 C 150.795 214.075,152.099 217.694,152.671 218.300 C 153.349 219.019,158.294 218.963,159.029 218.229 C 159.696 217.561,159.766 216.319,159.200 215.195 C 158.980 214.758,158.642 214.078,158.449 213.685 C 158.257 213.291,157.971 212.212,157.815 211.287 C 157.658 210.361,157.366 209.503,157.165 209.378 C 156.964 209.254,156.800 208.713,156.800 208.176 C 156.800 207.639,156.620 207.200,156.400 207.200 C 156.180 207.200,156.000 206.878,156.000 206.485 C 156.000 205.679,154.674 201.741,154.265 201.332 C 154.119 201.186,154.000 200.647,154.000 200.133 C 154.000 199.620,153.843 199.200,153.651 199.200 C 153.459 199.200,153.186 198.472,153.044 197.583 C 152.901 196.693,152.629 195.658,152.439 195.283 C 151.695 193.814,151.215 192.530,150.798 190.888 C 150.559 189.946,150.230 189.258,150.068 189.358 C 149.906 189.458,149.779 189.059,149.787 188.470 C 149.794 187.840,149.600 187.439,149.314 187.495 C 149.035 187.550,148.925 187.339,149.056 186.999 C 149.259 186.469,148.371 183.151,147.610 181.600 C 147.314 180.998,140.896 180.558,139.700 181.058 M286.020 181.865 C 282.585 186.233,288.232 191.288,292.160 187.360 C 293.977 185.543,294.075 183.958,292.487 182.100 C 290.944 180.295,287.358 180.165,286.020 181.865 M146.796 183.500 C 147.048 184.325,147.577 185.630,147.972 186.400 C 148.368 187.170,149.447 190.230,150.371 193.200 C 151.295 196.170,152.207 198.960,152.398 199.400 C 152.588 199.840,152.960 200.920,153.224 201.800 C 153.488 202.680,153.876 203.617,154.087 203.882 C 154.297 204.148,154.360 204.540,154.228 204.755 C 154.095 204.969,154.170 205.258,154.393 205.396 C 154.617 205.534,154.800 205.999,154.800 206.429 C 154.800 206.859,154.969 207.523,155.177 207.905 C 155.384 208.287,155.867 209.680,156.250 211.000 C 156.633 212.320,157.298 214.087,157.727 214.926 C 158.665 216.760,158.400 217.103,155.935 217.247 C 153.901 217.367,152.800 216.769,152.800 215.546 C 152.800 215.130,152.630 214.477,152.421 214.095 C 152.213 213.713,151.747 212.410,151.386 211.200 C 151.025 209.990,150.467 208.415,150.146 207.700 L 149.562 206.400 143.826 206.400 C 137.308 206.400,136.801 206.596,136.082 209.400 C 135.856 210.280,135.168 212.395,134.553 214.100 L 133.435 217.200 131.304 217.200 C 129.053 217.200,127.657 215.888,129.049 215.080 C 129.352 214.904,129.600 214.407,129.600 213.975 C 129.600 213.543,129.769 212.877,129.977 212.495 C 130.184 212.113,130.667 210.720,131.052 209.400 C 131.436 208.080,131.867 206.910,132.009 206.800 C 132.252 206.613,134.714 199.715,135.008 198.400 C 135.081 198.070,135.572 196.630,136.099 195.200 C 136.625 193.770,137.089 192.420,137.129 192.200 C 137.282 191.362,138.457 187.773,138.770 187.187 C 138.951 186.850,139.229 185.950,139.388 185.187 C 139.970 182.408,140.507 182.000,143.578 182.000 L 146.338 182.000 146.796 183.500 M291.307 182.700 C 293.289 184.900,291.841 187.600,288.679 187.600 C 286.087 187.600,285.198 183.924,287.400 182.306 C 288.174 181.737,290.666 181.989,291.307 182.700 M361.600 183.600 C 361.270 183.813,360.533 183.991,359.962 183.994 C 358.277 184.004,357.600 185.133,357.600 187.931 L 357.600 190.400 356.280 190.400 C 354.454 190.400,354.000 191.018,354.000 193.509 C 354.000 195.982,354.580 196.800,356.336 196.800 L 357.530 196.800 357.681 205.100 C 357.849 214.317,357.971 214.847,360.497 217.285 C 362.253 218.980,363.680 219.364,367.352 219.131 C 370.537 218.928,371.200 218.338,371.200 215.709 C 371.200 213.220,370.742 212.801,368.020 212.797 C 364.931 212.793,364.800 212.424,364.800 203.720 L 364.800 196.800 367.720 196.800 C 371.255 196.800,371.600 196.515,371.600 193.600 C 371.600 190.685,371.255 190.400,367.720 190.400 L 364.800 190.400 364.800 187.280 C 364.800 183.446,363.735 182.221,361.600 183.600 M363.120 184.880 C 363.390 185.150,363.600 186.446,363.600 187.847 C 363.600 191.610,363.590 191.600,367.243 191.600 L 370.400 191.600 370.400 193.584 L 370.400 195.568 367.100 195.684 L 363.800 195.800 363.691 203.231 C 363.561 212.130,364.191 214.409,366.659 213.966 C 368.910 213.563,369.600 213.988,369.600 215.776 C 369.600 216.753,369.417 217.666,369.193 217.804 C 368.970 217.942,368.914 218.268,369.070 218.528 C 369.280 218.878,369.204 218.888,368.777 218.567 C 368.460 218.329,367.480 218.163,366.600 218.198 C 365.720 218.233,364.156 217.916,363.124 217.492 C 362.093 217.069,361.075 216.830,360.862 216.962 C 360.643 217.097,360.560 216.874,360.672 216.447 C 360.789 215.998,360.569 215.473,360.125 215.147 C 359.698 214.834,359.409 214.173,359.446 213.600 C 359.482 213.050,359.356 212.406,359.165 212.169 C 358.974 211.933,358.768 208.155,358.709 203.775 C 358.605 196.160,358.565 195.805,357.800 195.690 C 355.328 195.316,355.305 195.296,355.429 193.567 C 355.569 191.591,355.521 191.649,357.135 191.526 C 358.653 191.411,358.952 190.682,358.740 187.615 C 358.659 186.447,358.768 185.597,359.000 185.594 C 359.220 185.590,359.130 185.411,358.800 185.194 C 358.370 184.913,358.558 184.870,359.460 185.043 C 360.154 185.175,361.054 185.091,361.460 184.854 C 362.412 184.301,362.543 184.303,363.120 184.880 M142.749 187.667 C 142.721 187.740,142.657 188.175,142.607 188.633 C 142.512 189.498,140.424 196.056,139.243 199.200 C 138.094 202.259,137.992 202.184,143.538 202.327 L 148.475 202.454 148.193 201.127 C 148.038 200.397,147.450 198.810,146.886 197.600 C 146.323 196.390,145.901 195.107,145.948 194.749 C 145.995 194.391,145.737 193.985,145.375 193.846 C 144.987 193.697,144.813 193.343,144.952 192.981 C 145.081 192.644,145.028 192.060,144.833 191.684 C 144.638 191.308,144.326 190.294,144.139 189.430 C 143.867 188.169,142.985 187.051,142.749 187.667 M184.800 190.516 C 184.250 190.770,183.710 191.077,183.600 191.198 C 182.644 192.251,181.200 192.787,181.200 192.089 C 181.200 190.832,180.331 190.400,177.800 190.400 C 174.151 190.400,174.400 188.977,174.400 209.818 C 174.400 231.116,174.103 229.600,178.270 229.600 C 181.844 229.600,182.000 229.319,182.000 222.881 C 182.000 217.566,182.377 216.602,183.685 218.571 C 184.432 219.694,194.800 218.782,194.800 217.593 C 194.800 217.477,195.412 217.053,196.159 216.650 C 196.907 216.247,197.847 215.307,198.250 214.559 C 198.653 213.812,199.077 213.200,199.193 213.200 C 199.978 213.200,201.360 207.567,201.352 204.400 C 201.345 201.771,200.460 197.200,199.957 197.200 C 199.761 197.200,199.600 196.932,199.600 196.605 C 199.600 196.277,199.285 195.624,198.900 195.153 C 197.491 193.429,196.400 192.290,196.400 192.542 C 196.400 192.684,196.044 192.444,195.609 192.009 C 193.740 190.140,187.485 189.276,184.800 190.516 M238.600 190.496 C 233.717 192.168,232.729 194.023,235.161 196.954 C 235.723 197.630,237.600 197.857,237.600 197.248 C 237.600 195.614,246.193 196.205,246.831 197.883 C 247.409 199.402,247.293 199.600,245.824 199.600 C 245.067 199.600,244.336 199.780,244.200 200.000 C 244.064 200.220,243.254 200.400,242.400 200.400 C 241.546 200.400,240.736 200.580,240.600 200.800 C 240.464 201.020,239.986 201.200,239.538 201.200 C 237.063 201.200,232.400 205.598,232.400 207.933 C 232.400 208.269,232.175 209.170,231.900 209.937 C 231.500 211.052,231.500 211.364,231.900 211.499 C 232.175 211.591,232.400 212.282,232.400 213.033 C 232.400 213.785,232.580 214.400,232.800 214.400 C 233.020 214.400,233.200 214.706,233.200 215.080 C 233.200 215.576,233.320 215.640,233.641 215.319 C 233.962 214.998,233.964 214.322,233.648 212.848 C 232.534 207.656,235.135 203.454,240.212 202.244 C 242.329 201.739,245.368 201.162,246.740 201.006 C 248.663 200.786,249.349 198.483,247.824 197.368 C 247.481 197.117,247.200 196.711,247.200 196.466 C 247.200 195.221,241.760 194.443,239.200 195.323 C 236.161 196.368,236.114 196.368,235.647 195.344 C 234.797 193.478,235.003 193.220,238.400 191.886 C 239.305 191.531,241.003 191.378,243.200 191.453 C 252.180 191.760,253.768 194.490,253.528 209.200 L 253.400 217.000 251.469 217.123 C 249.793 217.230,249.508 217.136,249.319 216.412 C 249.154 215.780,248.895 215.639,248.250 215.830 C 246.979 216.208,244.000 217.708,244.000 217.971 C 244.000 218.553,238.531 218.137,237.598 217.484 C 236.429 216.665,235.600 216.602,235.600 217.332 C 235.600 219.569,245.685 219.639,247.277 217.413 C 247.437 217.190,247.881 217.402,248.324 217.913 C 249.258 218.989,253.254 219.203,254.229 218.229 C 254.927 217.530,255.093 198.400,254.400 198.400 C 254.180 198.400,254.000 197.978,254.000 197.461 C 254.000 192.235,245.176 188.244,238.600 190.496 M305.200 190.377 C 304.870 190.559,304.095 190.944,303.478 191.233 C 301.776 192.031,298.579 195.417,297.540 197.525 C 296.414 199.806,295.854 209.448,296.866 209.112 C 297.250 208.985,297.430 207.878,297.506 205.167 C 297.622 201.050,298.418 197.763,299.642 196.352 C 300.073 195.854,300.336 195.211,300.226 194.923 C 300.115 194.636,300.289 194.400,300.613 194.400 C 300.936 194.400,301.200 194.136,301.200 193.813 C 301.200 193.479,301.437 193.316,301.748 193.436 C 302.050 193.551,302.550 193.393,302.859 193.083 C 304.987 190.956,312.603 190.946,314.724 193.067 C 315.021 193.364,315.410 193.518,315.587 193.408 C 315.764 193.299,316.003 193.567,316.117 194.004 C 316.434 195.216,317.200 194.953,317.200 193.633 C 317.200 191.567,317.447 191.345,319.490 191.583 L 321.358 191.800 321.273 202.200 C 321.186 212.828,320.885 219.487,320.461 220.200 C 320.330 220.420,320.167 220.958,320.099 221.396 C 320.031 221.834,319.514 222.858,318.950 223.673 C 318.385 224.487,318.040 225.342,318.183 225.572 C 318.340 225.827,318.193 225.895,317.806 225.747 C 317.456 225.613,316.837 225.804,316.430 226.173 C 314.316 228.086,305.755 229.247,302.719 228.033 C 300.834 227.279,300.192 227.075,299.900 227.136 C 299.450 227.232,299.539 225.685,300.000 225.400 C 300.220 225.264,300.400 224.713,300.400 224.176 C 300.400 222.978,301.010 222.948,304.000 224.000 C 309.324 225.873,314.279 224.255,315.633 220.200 C 315.926 219.320,316.280 218.420,316.418 218.200 C 317.740 216.094,316.329 213.373,314.773 215.029 C 314.271 215.563,313.646 216.000,313.384 216.000 C 313.122 216.000,312.479 216.325,311.954 216.722 C 308.955 218.991,300.582 215.986,299.354 212.200 C 298.911 210.831,297.522 209.118,297.154 209.486 C 296.771 209.869,297.582 212.400,298.088 212.400 C 298.259 212.400,298.400 212.632,298.400 212.917 C 298.400 216.845,310.673 220.692,313.200 217.556 C 314.235 216.271,315.272 216.793,314.995 218.460 C 314.836 219.417,314.547 220.260,314.353 220.333 C 314.159 220.407,314.000 220.678,314.000 220.937 C 314.000 221.196,313.633 221.637,313.184 221.917 C 312.736 222.197,312.460 222.574,312.572 222.755 C 312.684 222.936,312.331 222.999,311.788 222.896 C 311.214 222.786,310.800 222.894,310.800 223.153 C 310.800 223.436,309.848 223.600,308.200 223.600 C 306.733 223.600,305.600 223.426,305.600 223.200 C 305.600 222.980,305.178 222.800,304.661 222.800 C 304.145 222.800,303.128 222.503,302.401 222.140 C 301.025 221.454,300.121 221.675,299.589 222.827 C 299.443 223.142,299.116 223.803,298.862 224.295 C 297.851 226.252,299.083 228.157,301.698 228.680 C 302.313 228.803,302.914 229.060,303.032 229.252 C 303.339 229.749,313.200 229.699,313.200 229.200 C 313.200 228.980,313.566 228.800,314.014 228.800 C 317.399 228.800,322.000 222.583,322.000 218.009 C 322.000 216.992,322.183 215.977,322.406 215.754 C 323.015 215.145,322.749 191.400,322.133 191.400 C 321.877 191.400,321.517 191.236,321.333 191.036 C 321.140 190.824,321.210 190.792,321.500 190.959 C 321.775 191.118,322.000 191.048,322.000 190.805 C 322.000 189.866,316.673 190.495,316.177 191.492 C 315.754 192.344,315.700 192.353,314.967 191.689 C 313.250 190.133,307.136 189.312,305.200 190.377 M378.572 190.830 C 376.451 191.860,374.000 194.190,374.000 195.176 C 374.000 195.603,373.820 196.064,373.600 196.200 C 371.949 197.220,374.179 203.724,376.633 205.046 C 377.385 205.451,378.000 205.877,378.000 205.993 C 378.000 206.233,379.707 206.990,381.200 207.411 C 384.110 208.232,385.489 210.455,384.170 212.200 C 383.454 213.147,377.596 213.388,377.294 212.483 C 377.206 212.217,376.803 212.000,376.400 212.000 C 375.997 212.000,375.586 211.775,375.488 211.500 C 375.366 211.157,374.977 211.305,374.255 211.970 C 373.196 212.943,372.879 214.154,373.571 214.582 C 374.032 214.867,374.548 213.364,374.190 212.783 C 374.045 212.550,374.619 212.667,375.464 213.043 C 376.309 213.420,377.467 213.744,378.039 213.764 C 378.610 213.784,379.351 214.027,379.686 214.305 C 380.279 214.798,381.392 214.815,382.200 214.344 C 382.420 214.216,383.058 214.002,383.617 213.868 C 385.958 213.311,386.546 208.481,384.357 207.786 C 383.941 207.654,383.600 207.398,383.600 207.216 C 383.600 207.035,383.105 206.769,382.500 206.624 C 374.731 204.768,371.842 198.506,376.574 193.774 L 378.748 191.600 382.074 191.554 C 389.125 191.456,390.687 192.509,388.559 195.926 C 388.516 195.996,387.698 195.831,386.740 195.560 C 381.818 194.166,379.122 195.264,379.309 198.586 C 379.416 200.486,384.158 203.572,385.701 202.746 C 386.532 202.301,386.273 201.601,385.276 201.598 C 384.904 201.596,384.072 201.320,383.426 200.983 C 382.781 200.646,382.006 200.465,381.706 200.581 C 381.405 200.696,381.269 200.612,381.405 200.393 C 381.540 200.174,381.369 199.886,381.025 199.754 C 379.977 199.352,380.195 196.859,381.300 196.624 C 382.949 196.272,386.000 196.190,386.000 196.497 C 386.000 196.664,386.345 196.800,386.767 196.800 C 387.188 196.800,387.615 197.025,387.715 197.300 C 387.933 197.899,389.191 197.284,389.611 196.373 C 389.757 196.058,390.084 195.397,390.338 194.905 C 392.310 191.088,383.981 188.204,378.572 190.830 M286.100 190.998 C 285.395 191.799,285.376 217.616,286.080 218.320 C 286.775 219.015,291.513 218.944,292.229 218.229 C 292.999 217.458,293.085 191.645,292.320 190.880 C 291.626 190.186,286.733 190.279,286.100 190.998 M180.073 192.753 C 179.887 194.709,180.517 195.131,181.661 193.816 C 182.147 193.257,182.702 192.800,182.894 192.800 C 183.086 192.800,183.999 192.478,184.922 192.084 C 188.864 190.401,197.600 192.348,197.600 194.909 C 197.600 195.470,198.909 198.166,199.318 198.448 C 199.931 198.869,200.191 203.299,199.880 208.026 C 199.807 209.135,199.398 210.360,198.836 211.149 C 198.328 211.862,197.887 212.886,197.856 213.423 C 197.825 213.960,197.615 214.400,197.388 214.400 C 197.162 214.400,196.717 214.760,196.400 215.200 C 196.083 215.640,195.569 216.000,195.259 216.000 C 194.948 216.000,194.113 216.359,193.403 216.798 C 190.343 218.689,184.624 218.277,182.189 215.989 C 180.890 214.770,180.830 215.016,180.704 222.000 L 180.600 227.800 178.348 227.919 C 175.391 228.074,175.562 229.261,175.617 208.972 L 175.664 191.999 176.532 191.808 C 177.009 191.702,178.030 191.551,178.800 191.472 C 179.570 191.393,180.205 191.299,180.211 191.264 C 180.216 191.229,180.154 191.899,180.073 192.753 M291.506 204.675 L 291.400 217.000 289.100 217.120 L 286.800 217.240 286.800 204.820 C 286.800 197.989,286.755 192.265,286.700 192.100 C 286.523 191.570,290.970 191.353,291.306 191.875 C 291.474 192.136,291.564 197.896,291.506 204.675 M143.998 192.300 C 143.996 193.048,145.065 196.543,145.648 197.695 C 145.842 198.077,146.000 198.662,146.000 198.995 C 146.000 199.328,146.180 199.600,146.400 199.600 C 146.620 199.600,146.800 199.960,146.800 200.400 C 146.800 201.145,146.544 201.198,143.100 201.168 C 141.065 201.151,139.625 201.046,139.900 200.935 C 140.175 200.824,140.400 200.334,140.400 199.847 C 140.400 199.359,140.543 198.789,140.718 198.580 C 140.893 198.371,141.364 197.120,141.764 195.800 C 142.925 191.978,144.004 190.287,143.998 192.300 M38.000 192.584 C 38.000 192.937,39.753 194.400,40.175 194.400 C 40.409 194.399,40.077 193.949,39.438 193.400 C 38.271 192.396,38.000 192.242,38.000 192.584 M40.803 195.100 C 40.815 196.285,43.185 196.575,53.800 196.694 C 64.018 196.809,65.068 196.914,67.295 198.047 C 68.187 198.501,68.400 198.492,68.400 198.000 C 68.400 197.780,68.145 197.600,67.833 197.600 C 67.522 197.600,67.192 197.375,67.100 197.100 C 66.974 196.720,64.254 196.570,55.767 196.474 C 49.574 196.404,44.431 196.181,44.220 195.974 C 44.011 195.768,43.426 195.600,42.920 195.600 C 42.414 195.600,42.000 195.420,42.000 195.200 C 42.000 194.980,41.730 194.800,41.400 194.800 C 41.070 194.800,40.801 194.935,40.803 195.100 M186.400 195.265 C 186.400 195.449,185.987 195.600,185.483 195.600 C 184.927 195.600,183.882 196.298,182.827 197.373 L 181.087 199.146 180.843 203.995 C 180.585 209.139,180.762 209.965,182.549 211.942 C 183.351 212.831,184.911 213.717,185.800 213.789 C 186.020 213.807,186.437 213.969,186.726 214.150 C 190.745 216.665,196.959 207.717,195.144 202.028 C 194.140 198.882,193.848 198.345,192.845 197.800 C 192.270 197.488,191.948 197.225,192.129 197.216 C 192.607 197.193,191.240 195.906,190.119 195.324 C 189.062 194.776,186.400 194.733,186.400 195.265 M308.186 195.223 C 308.058 195.430,307.628 195.600,307.230 195.600 C 303.856 195.600,300.630 205.507,302.989 208.626 C 303.311 209.052,303.580 209.687,303.587 210.038 C 303.624 211.884,310.129 215.010,311.000 213.600 C 311.136 213.380,311.590 213.200,312.010 213.200 C 312.869 213.200,315.195 211.101,315.209 210.313 C 315.214 210.031,315.570 209.350,316.000 208.800 C 317.761 206.548,316.682 198.287,314.556 197.753 C 314.045 197.625,313.666 197.342,313.713 197.124 C 313.982 195.895,308.860 194.133,308.186 195.223 M191.323 197.608 C 192.629 198.743,193.600 200.557,193.600 201.861 C 193.600 202.378,193.780 202.800,194.000 202.800 C 194.545 202.800,194.510 206.285,193.962 206.624 C 193.720 206.773,193.598 207.402,193.689 208.023 C 193.786 208.685,193.678 209.120,193.427 209.076 C 193.192 209.034,193.014 209.404,193.032 209.898 C 193.049 210.392,192.977 210.711,192.872 210.606 C 192.767 210.500,192.393 210.728,192.041 211.110 C 189.342 214.040,184.290 213.311,182.449 209.726 C 181.788 208.440,181.871 201.007,182.562 199.680 C 184.268 196.399,188.722 195.346,191.323 197.608 M313.660 197.999 L 315.000 199.338 315.000 204.200 C 315.000 209.356,313.998 211.883,311.919 211.971 C 311.544 211.987,310.774 212.211,310.208 212.469 C 309.420 212.828,309.068 212.828,308.709 212.469 C 308.451 212.211,307.937 212.000,307.567 212.000 C 306.678 212.000,304.400 209.644,304.400 208.724 C 304.400 208.326,304.220 208.000,304.000 208.000 C 303.763 208.000,303.600 206.533,303.600 204.400 C 303.600 202.420,303.760 200.800,303.957 200.800 C 304.153 200.800,304.418 200.395,304.546 199.900 C 305.480 196.295,310.839 195.177,313.660 197.999 M71.273 200.700 C 71.836 201.305,72.614 202.301,73.002 202.912 C 73.838 204.230,74.292 204.092,73.528 202.753 C 72.884 201.624,70.976 199.600,70.556 199.600 C 70.388 199.600,70.711 200.095,71.273 200.700 M386.220 202.768 C 385.968 203.176,387.036 204.400,387.645 204.400 C 388.636 204.400,390.677 207.628,390.187 208.420 C 390.065 208.619,390.209 209.249,390.509 209.820 C 391.541 211.790,387.966 217.152,385.518 217.304 C 385.013 217.336,384.477 217.542,384.326 217.762 C 383.617 218.800,375.353 217.674,374.183 216.381 C 373.794 215.951,373.616 215.600,373.787 215.600 C 373.958 215.600,373.876 215.332,373.604 215.004 C 372.968 214.238,372.400 214.595,372.400 215.762 C 372.400 220.095,385.942 220.316,389.681 216.044 C 392.000 213.395,392.631 208.149,390.858 206.261 C 390.386 205.759,390.000 205.163,390.000 204.937 C 390.000 204.711,389.370 204.187,388.600 203.772 C 387.830 203.357,387.200 202.879,387.200 202.709 C 387.200 202.279,386.496 202.321,386.220 202.768 M74.319 219.221 C 74.388 228.008,74.595 234.355,74.819 234.579 C 75.060 234.820,75.200 229.584,75.200 220.280 C 75.200 211.534,75.050 205.600,74.829 205.600 C 74.625 205.600,74.400 205.295,74.329 204.922 C 74.258 204.549,74.253 210.983,74.319 219.221 M242.200 205.069 C 240.368 205.727,238.292 207.541,238.562 208.246 C 238.663 208.508,238.506 209.049,238.214 209.448 C 237.532 210.382,239.170 213.763,240.520 214.206 C 243.428 215.160,248.000 212.923,248.000 210.546 C 248.000 210.246,248.135 210.000,248.300 210.000 C 248.790 210.000,248.876 206.089,248.405 205.210 C 247.877 204.223,244.751 204.151,242.200 205.069 M247.200 207.958 C 247.200 211.802,244.106 214.169,240.845 212.819 C 238.850 211.992,238.820 207.834,240.805 207.315 C 241.242 207.200,241.600 206.948,241.600 206.753 C 241.600 206.559,242.039 206.400,242.576 206.400 C 243.113 206.400,243.664 206.220,243.800 206.000 C 243.936 205.780,244.757 205.600,245.624 205.600 L 247.200 205.600 247.200 207.958 M234.032 215.851 C 234.014 216.099,234.270 216.526,234.600 216.800 C 235.093 217.209,235.200 217.178,235.200 216.625 C 235.200 216.255,235.035 216.055,234.834 216.179 C 234.633 216.303,234.377 216.179,234.266 215.902 C 234.140 215.589,234.051 215.570,234.032 215.851 M92.000 220.824 C 92.000 221.277,92.180 221.536,92.400 221.400 C 92.620 221.264,92.800 220.893,92.800 220.576 C 92.800 220.259,92.620 220.000,92.400 220.000 C 92.180 220.000,92.000 220.371,92.000 220.824 M90.800 224.200 C 90.800 224.796,90.972 225.141,91.200 225.000 C 91.420 224.864,91.600 224.504,91.600 224.200 C 91.600 223.896,91.420 223.536,91.200 223.400 C 90.972 223.259,90.800 223.604,90.800 224.200 M90.000 225.687 C 90.000 226.043,89.888 226.664,89.751 227.067 C 89.574 227.588,89.703 227.529,90.197 226.866 C 90.709 226.179,90.775 225.815,90.446 225.486 C 90.118 225.158,90.000 225.211,90.000 225.687 M88.471 228.629 C 88.180 228.958,88.009 229.426,88.089 229.668 C 88.170 229.911,88.547 229.635,88.927 229.055 C 89.666 227.928,89.350 227.634,88.471 228.629 M82.000 234.000 C 82.000 234.220,81.550 234.400,81.000 234.400 C 80.450 234.400,80.000 234.592,80.000 234.827 C 80.000 235.086,80.354 235.144,80.900 234.974 C 83.620 234.126,84.348 233.600,82.800 233.600 C 82.360 233.600,82.000 233.780,82.000 234.000 M75.966 235.230 C 75.592 235.466,76.135 235.590,77.567 235.594 C 78.758 235.597,79.658 235.535,79.567 235.457 C 79.130 235.081,76.466 234.913,75.966 235.230 M10.800 239.971 C 10.800 240.557,12.353 241.922,14.400 243.134 L 16.200 244.200 38.386 244.319 C 50.588 244.385,60.464 244.330,60.332 244.198 C 60.200 244.066,50.846 243.901,39.546 243.830 C 19.517 243.705,14.800 243.502,14.800 242.761 C 14.800 242.563,14.536 242.400,14.213 242.400 C 13.891 242.400,12.991 241.764,12.213 240.987 C 11.436 240.209,10.800 239.752,10.800 239.971 M65.467 241.267 C 65.063 241.707,64.837 242.171,64.964 242.298 C 65.234 242.567,66.800 241.236,66.800 240.738 C 66.800 240.192,66.254 240.408,65.467 241.267 M63.200 242.800 C 63.200 243.020,62.559 243.200,61.776 243.200 C 60.929 243.200,60.453 243.362,60.600 243.600 C 60.936 244.143,62.019 244.103,63.317 243.500 C 64.499 242.951,64.741 242.400,63.800 242.400 C 63.470 242.400,63.200 242.580,63.200 242.800 " stroke="none" fill="#3c3c3c" fill-rule="evenodd"></path><path id="path4" d="" stroke="none" fill="#4c4c4c" fill-rule="evenodd"></path></g></svg>