<svg id="Layer_1" data-name="Layer 1" xmlns="http://www.w3.org/2000/svg" xmlns:xlink="http://www.w3.org/1999/xlink" viewBox="0 0 612 127.25556"><defs><style>.cls-1{fill:url(#linear-gradient);}.cls-2{fill:url(#linear-gradient-2);}.cls-3{fill:#474747;}</style><linearGradient id="linear-gradient" x1="48.65574" y1="117.82055" x2="48.65574" y2="19.69696" gradientUnits="userSpaceOnUse"><stop offset="0" stop-color="#a52423"/><stop offset="0.01812" stop-color="#a52524"/><stop offset="1" stop-color="#c0645f"/></linearGradient><linearGradient id="linear-gradient-2" x1="57.77944" y1="91.32904" x2="103.74697" y2="11.71095" gradientUnits="userSpaceOnUse"><stop offset="0" stop-color="#f57e1f"/><stop offset="1" stop-color="#f78e1d"/></linearGradient></defs><title>alphasights-logo</title><path class="cls-1" d="M48.703,117.81777q-12.41925-.001-24.8385-.00439a9.7164,9.7164,0,0,1-9.73039-7.30192,11.09135,11.09135,0,0,1-.22036-3.25256c.01072-11.9633-.07879-23.92774.06113-35.8895a145.89322,145.89322,0,0,1,2.50288-25.75565,58.95673,58.95673,0,0,1,4.85017-15.38953A23.2909,23.2909,0,0,1,26.9318,22.6175a11.21352,11.21352,0,0,1,7.68476-2.91843c.85816.01638,1.09348.29811,1.09206,1.16285q-.03486,21.337.00345,42.674a6.49111,6.49111,0,0,0,4.09095,6.2918,5.69183,5.69183,0,0,0,2.45463.423q15.483-.00789,30.96606-.00049a9.77128,9.77128,0,0,1,10.168,10.119q.04877,13.67733.006,27.35494a9.76363,9.76363,0,0,1-10.18453,10.09328Q60.95813,117.82342,48.703,117.81777Z"/><path class="cls-2" d="M92.07673,88.725c-.00043-6.89237-.07442-13.78583.02693-20.67672a7.01608,7.01608,0,0,0-7.209-7.19525c-10.20894.14233-20.4221-.034-30.63174.08072a9.7591,9.7591,0,0,1-9.86971-9.7064q-.07888-14.05779-.00531-28.11628A9.73776,9.73776,0,0,1,51.691,13.70457a7.08068,7.08068,0,0,1,1.95548-.16382q25.43614-.00275,50.87228-.00228a9.44131,9.44131,0,0,1,9.297,9.1556c.03556,12.47168.14373,24.94622-.07092,37.41455a138.27343,138.27343,0,0,1-3.002,27.88421,51.25512,51.25512,0,0,1-5.50494,15.14535c-2.06063,3.48548-4.596,6.47837-8.58729,7.88883a10.33327,10.33327,0,0,1-3.77961.40745.71966.71966,0,0,1-.78635-.829c.00207-.32815-.00707-.65634-.00709-.98452Q92.07682,99.173,92.07673,88.725Z"/><path class="cls-3" d="M475.05815,58.09442c.09939-1.80263.23341-3.39211.25677-4.9832.01335-.91049.277-1.33194,1.26127-1.29644,1.639.05913,3.28237.04314,4.92261.00446.81722-.01928,1.19854.21749,1.16226,1.11213-.52673,12.976-.10185,25.95958-.30668,38.93767a41.81055,41.81055,0,0,1-.97068,8.34342c-1.71052,7.76776-6.46967,12.55543-14.12243,14.25576a31.803,31.803,0,0,1-20.4434-1.84753c-.364-.16433-.7005-.38844-1.05906-.566a.90807.90807,0,0,1-.47482-1.27127c.51516-1.51874,1.04942-3.033,1.49594-4.57226.26874-.92618.70542-.9304,1.43377-.52228a24.02182,24.02182,0,0,0,8.03949,2.71181c4.38958.69769,8.64076.45251,12.51735-2.08429a11.2255,11.2255,0,0,0,4.10492-5.26477c1.61487-3.79991,1.38065-7.8123,1.32845-12.14735a15.74715,15.74715,0,0,1-3.919,4.15235,16.43755,16.43755,0,0,1-8.47222,2.89783,18.29214,18.29214,0,0,1-10.82436-2.36905,18.56962,18.56962,0,0,1-8.29753-10.62783c-2.26605-7.19844-2.05466-14.39,1.43972-21.15633,3.53788-6.85054,9.11515-10.78977,17.11991-10.87271,4.75183-.04924,8.81929,1.33342,12.03978,4.90087C473.87126,56.473,474.36272,57.1975,475.05815,58.09442Zm-.84227,15.67416c0-1.47279.02971-2.53142-.00593-3.58785a14.18454,14.18454,0,0,0-1.57907-6.72659,11.29022,11.29022,0,0,0-11.52064-5.87309c-5.383.77121-8.50022,4.17572-10.22431,9.03785a21.80276,21.80276,0,0,0-.60844,12.28521c1.497,6.61228,6.03416,10.957,12.92288,10.63644A11.788,11.788,0,0,0,474.01923,79.033,46.94155,46.94155,0,0,0,474.21588,73.76858Z"/><path class="cls-3" d="M239.30192,58.95883c1.18158-1.26886,2.00589-2.55887,3.1409-3.594a16.105,16.105,0,0,1,9.37787-4.30192c4.186-.42434,8.29566-.1728,12.0444,2.1433a19.27341,19.27341,0,0,1,8.41777,10.93043,30.96344,30.96344,0,0,1-.59852,20.68626A18.94037,18.94037,0,0,1,254.03392,97.07a17.29,17.29,0,0,1-9.994-2.58788,15.245,15.245,0,0,1-3.9014-3.79651c-.33471.31365-.203.6607-.20333.96316-.00743,7.29213-.01772,14.58434.01755,21.87631.00361.75163-.15919.871-.896.84377-2.11186-.07805-4.22884-.054-6.34284-.01533-.72244.0132-1.005-.24883-.962-.947.02239-.36317.00177-.729.00147-1.09356q-.02168-26.68913-.05255-53.37824c-.00353-2.03872-.10853-4.0788-.2234-6.115-.04427-.7849.236-1.0175.99075-1.00207q2.788.057,5.57786-.00319c.77652-.017,1.02078.27583.98511,1.0279C238.93775,54.81074,239.19334,56.76671,239.30192,58.95883Zm26.14916,14.93148A21.44051,21.44051,0,0,0,262.62741,63.291,11.91276,11.91276,0,0,0,250.232,57.803c-4.86589.9672-8.9826,5.45292-9.92969,10.63444a45.55048,45.55048,0,0,0-.31383,9.59215,12.7749,12.7749,0,0,0,3.47829,8.72578,12.16266,12.16266,0,0,0,19.11434-1.95468C264.64848,81.409,265.23191,77.68123,265.45108,73.89031Z"/><path class="cls-3" d="M175.98137,34.53664c1.38606,0,2.77247.01848,4.158-.00811a1.06656,1.06656,0,0,1,1.16784.87876q5.01849,14.80941,10.08035,29.60412,5.08228,14.90691,10.16172,29.81478c.46593,1.36768.46036,1.35547-.97123,1.34709-2.152-.0126-4.3049-.03681-6.45567.01546a1.17073,1.17073,0,0,1-1.35563-.919c-1.92205-5.7767-3.89264-11.53729-5.79841-17.31928a1.31517,1.31517,0,0,0-1.45893-1.10089q-9.57464.039-19.1494-.00558a1.55526,1.55526,0,0,0-1.692,1.30616c-1.82163,5.5791-3.69957,11.1399-5.50216,16.725a1.622,1.622,0,0,1-1.88369,1.315c-2.07627-.0727-4.15776-.03659-6.236.00776-.74186.01582-.89954-.19282-.661-.88935q2.83411-8.27639,5.63288-16.56491,2.72389-8.01942,5.45088-16.03778,3.72-10.92216,7.44777-21.84166c.61172-1.79363,1.27055-3.57305,1.81586-5.38663a1.17571,1.17571,0,0,1,1.41977-.96423c1.27352.06274,2.55241.017,3.829.017Zm-.02648,8.06191-.26815.02763c-.10767.34177-.23366.679-.32029,1.026-1.20024,4.8079-2.67336,9.5307-4.31554,14.20607-1.33927,3.813-2.57024,7.66395-3.86619,11.49233-.2504.73966-.11675,1.09.7403,1.08755q8.03312-.0226,16.06637-.00008c.645.00146.85288-.16153.60365-.82945-.45793-1.22728-.84244-2.48186-1.26247-3.7234-1.73806-5.13731-3.49706-10.26765-5.20913-15.41359C177.26407,47.88864,176.599,45.2458,175.95489,42.59855Z"/><path class="cls-3" d="M291.80225,58.61694a16.9019,16.9019,0,0,1,4.11978-4.45453c5.59712-4.16455,13.39027-4.28671,18.48215-.76438,4.02931,2.78732,5.88333,6.82361,6.684,11.48a23.59561,23.59561,0,0,1,.2655,4.03308c-.00716,8.7548-.0151,17.50967.02007,26.26434.00336.83524-.20451,1.04038-1.02875,1.01668-2.1868-.06289-4.377-.03852-6.56516-.00282-.58.00947-.69391-.10968-.69115-.72213.03828-8.49913.073-16.99875.01149-25.49755a17.35784,17.35784,0,0,0-1.56691-6.99311c-2.10593-4.71846-7.63016-5.98046-11.58739-4.64072a11.79073,11.79073,0,0,0-7.76038,8.25027,13.02361,13.02361,0,0,0-.38248,3.79372q-.00573,12.0926-.00291,24.18517c-.0003,1.59891-.00385,1.59947-1.64469,1.60245-1.86038.00339-3.722-.03266-5.58055.02648-.785.025-1.06019-.24052-1.001-.99387.03992-.50768.01194-1.0208.01194-1.53148q.00021-30.53241-.028-61.06477c-.00219-1.15459.34758-1.42217,1.42276-1.37283,1.82009.08352,3.64881.07478,5.46994.00365,1.05635-.04126,1.37411.32421,1.36951,1.37252-.03537,8.02508-.01846,16.05038-.01782,24.07562C291.80228,57.21413,291.80225,57.74553,291.80225,58.61694Z"/><path class="cls-3" d="M503.67649,58.22481a18.97375,18.97375,0,0,1,5.41958-4.89757c5.74491-3.26967,11.52909-3.49593,17.17417.10956,4.12678,2.63575,5.89592,6.79919,6.69427,11.45567a23.66983,23.66983,0,0,1,.26291,4.03329c-.00684,8.75479-.016,17.50966.02164,26.2643.00369.86039-.2457,1.02224-1.04469,1.00048q-3.22595-.08786-6.45556.00311c-.72258.01949-.78131-.18392-.77847-.85037.03564-8.4992.068-16.99893-.00187-25.49769a17.09413,17.09413,0,0,0-1.56785-6.88226C521.317,58.311,515.88626,57.00134,511.91,58.307a11.76353,11.76353,0,0,0-7.85449,8.29321,13.09366,13.09366,0,0,0-.3794,3.79427q-.00369,12.14728-.00272,24.29458c-.00043,1.46874-.007,1.47251-1.43992,1.47743-1.9333.00663-3.86787-.03237-5.79936.02835-.80331.02526-1.04041-.27457-.98607-1.00939.03767-.508.01154-1.02086.01154-1.53155q.00016-30.53237-.02249-61.06471c-.00155-1.03688.239-1.40985,1.32251-1.35926,1.85635.08667,3.72173.07733,5.57925.00409,1.07435-.04235,1.35869.35746,1.35431,1.38757-.03362,7.98861-.01742,15.97741-.01668,23.96616Q503.67658,57.40627,503.67649,58.22481Z"/><path class="cls-3" d="M396.89516,33.67577a29.15682,29.15682,0,0,1,12.24736,2.19986c.94177.37742,1.22617.82176.84719,1.80782-.60087,1.56343-1.10379,3.16594-1.60621,4.7651-.21784.69334-.46041.97247-1.23354.58342a23.3475,23.3475,0,0,0-10.52043-2.57355c-3.34027-.00988-6.51368.57368-9.076,3.02869a8.69038,8.69038,0,0,0,.60528,12.9417,30.52786,30.52786,0,0,0,8.25912,4.40323,37.36324,37.36324,0,0,1,10.70327,5.821,14.31029,14.31029,0,0,1,5.34853,9.47127c.50031,4.2014.18562,8.29333-2.10055,12.0429a17.24041,17.24041,0,0,1-10.97775,7.91507,33.17268,33.17268,0,0,1-22.51474-2.07556c-1.70849-.79361-1.68682-.81256-1.12242-2.639.44123-1.4278.86442-2.86206,1.25264-4.305.22171-.82413.534-.92755,1.301-.49493a26.56686,26.56686,0,0,0,14.13051,3.56345,13.03906,13.03906,0,0,0,8.92269-3.2747,9.98506,9.98506,0,0,0,.36281-13.74168c-2.37912-2.50855-5.433-3.89241-8.5804-5.08164a44.456,44.456,0,0,1-9.94564-4.96894,15.71214,15.71214,0,0,1,.81657-26.20863A22.07261,22.07261,0,0,1,396.89516,33.67577Z"/><path class="cls-3" d="M357.88858,91.07926c-.47294.01119-.5757.38148-.787.60441a16.50193,16.50193,0,0,1-12.03224,5.37972,15.29071,15.29071,0,0,1-8.14458-1.65746,11.78237,11.78237,0,0,1-6.27024-10.01049c-.51617-7.64288,3.71905-12.52759,10.34866-15.10512a37.52726,37.52726,0,0,1,11.08962-2.2704c1.3456-.09446,2.68743-.2168,4.037-.192.67227.01237.99791-.26581,1.01092-.96986.09881-5.3514-2.89428-9.42883-8.69671-9.68812a21.38447,21.38447,0,0,0-11.84623,2.81452c-.59692.34262-.97843.36162-1.22269-.40061-.43378-1.35353-.91677-2.69168-1.39978-4.02881-.22073-.6109.03644-.93687.55026-1.23144a25.46572,25.46572,0,0,1,8.62524-3.02774,30.48891,30.48891,0,0,1,9.47927-.103c6.92947,1.04862,10.8495,5.40257,12.22962,11.83087a26.04893,26.04893,0,0,1,.49485,5.65153c-.03187,5.17875-.07858,10.359.01176,15.53638a64.75317,64.75317,0,0,0,.75065,11.21671c.12221.63263-.1105.76387-.67448.75742-2.00565-.023-4.01226-.04624-6.01719-.005-.7926.0163-.95321-.31468-1.00836-1.03111A23.8639,23.8639,0,0,0,357.88858,91.07926Zm-.53-12.76175c0-1.30326-.034-2.47118.0116-3.636.03195-.81772-.29821-1.10044-1.09362-1.06571a36.53545,36.53545,0,0,0-10.34959,1.43806c-3.78882,1.29394-6.60011,3.47452-6.97123,7.88512a7.07139,7.07139,0,0,0,5.58109,7.75532,11.01624,11.01624,0,0,0,12.28452-6.89323A16.8923,16.8923,0,0,0,357.35854,78.31751Z"/><path class="cls-3" d="M585.44135,96.93766a23.44058,23.44058,0,0,1-11.86392-2.38239,1.14486,1.14486,0,0,1-.68747-1.72363c.50033-1.2507.89726-2.5432,1.32487-3.82235.49327-1.47554.49616-1.495,1.9155-.741a19.8353,19.8353,0,0,0,9.953,2.518A9.02428,9.02428,0,0,0,591.433,89.1396c3.65268-2.75353,3.05985-7.9743-1.10535-10.47521-2.42876-1.45832-5.162-2.18085-7.695-3.37907-3.23454-1.53-6.18512-3.49423-7.68579-6.83394a12.01377,12.01377,0,0,1,5.93306-15.71994c6.27558-2.923,12.53872-2.29281,18.72085.43485a.93763.93763,0,0,1,.58812,1.385c-.5084,1.32615-.94963,2.678-1.42575,4.01669-.406,1.14162-.58594,1.20538-1.64869.64407a16.26479,16.26479,0,0,0-8.62046-1.9953,6.88988,6.88988,0,0,0-5.64177,2.85451,5.22685,5.22685,0,0,0,.71253,6.67867c1.87617,1.71278,4.21874,2.563,6.52364,3.46425,3.105,1.21408,6.12511,2.55373,8.5286,4.96878a11.65857,11.65857,0,0,1,3.22936,9.93927c-.58952,5.68491-3.89385,9.16784-9.19881,10.89661a19.85318,19.85318,0,0,1-3.60389.8861A28.72028,28.72028,0,0,1,585.44135,96.93766Z"/><path class="cls-3" d="M547.54442,72.40644c-.00037-4.3384-.02442-8.677.0178-13.015.00967-.99492-.295-1.37124-1.31226-1.32419-1.56447.07235-3.135.00446-4.7017.0452-.66722.01735-1.00922-.106-.978-.89016.05937-1.49244.04745-2.98941.01224-4.48326-.01918-.81288.3258-1.10462,1.10791-1.09,1.4942.02791,2.99161-.043,4.48326.02485,1.02556.04666,1.43382-.26542,1.39219-1.349-.07556-1.9658-.01047-3.93667-.03067-5.90515-.0054-.53136.09426-.89072.67683-1.06611,2.16334-.65133,4.31669-1.33622,6.4702-2.01967.66781-.212.93323-.03183.92158.70454-.04393,2.7696-.0132,5.54062-.07807,8.30952-.02384,1.01718.36668,1.33606,1.34629,1.32273,2.98889-.04068,5.97906.01087,8.968-.02789.94022-.0122,1.31658.30533,1.27495,1.2666-.05835,1.3464-.05931,2.69913,0,4.04543.041.93141-.326,1.16529-1.21425,1.1502-2.98862-.05074-5.97911.01094-8.96785-.03745-1.01167-.01637-1.41469.26348-1.40908,1.35132.039,7.51.0162,15.02021.02416,22.53036a17.72929,17.72929,0,0,0,.39126,3.47153c.624,3.10583,2.45223,4.6377,5.62724,4.72394a14.12011,14.12011,0,0,0,3.79419-.38181c.60362-.14951.88518-.00928.91623.65241.07679,1.63636.1859,3.2714.30085,4.90565a.69739.69739,0,0,1-.55227.81792c-4.98819,1.28439-9.92577,1.92023-14.41169-1.49544-2.34845-1.78812-3.31037-4.36163-3.80659-7.15945a36.18917,36.18917,0,0,1-.25933-6.21849C547.53592,78.31252,547.5448,75.35947,547.54442,72.40644Z"/><path class="cls-3" d="M210.04271,63.70666c-.00024-10.38978.01258-20.77959-.02113-31.16926-.00321-.98217.22117-1.34948,1.262-1.30674,1.96531.08071,3.93665.04855,5.90461.01386.80831-.01425,1.0858.30159,1.07882,1.0943-.027,3.062-.00942,6.1244-.00938,9.18665q.0003,26.4119,0,52.8238c0,1.81714-.0011,1.8171-1.865,1.81834-1.7134.00115-3.43015-.06144-5.1389.02821-.98077.05147-1.24237-.25028-1.23585-1.21063.04058-5.9784.02379-11.9572.025-17.93587Q210.04407,70.378,210.04271,63.70666Z"/><path class="cls-3" d="M431.22953,73.95349c0,6.96739-.022,13.93493.02359,20.902.00689,1.04876-.26553,1.38713-1.33261,1.33776-1.89287-.08758-3.79336-.05705-5.6892-.01262-.87078.02041-1.23493-.23781-1.23349-1.17005q.03224-21.01158.00436-42.02321c-.00094-.82351.22943-1.18814,1.11288-1.1711,2.11485.04079,4.23149.02491,6.34668-.00973.619-.01014.802.16568.79974.80742-.025,7.1131-.01574,14.22631-.01574,21.33949Z"/><path class="cls-3" d="M422.12525,39.53089c.0482-3.36272,1.93335-5.04165,5.60375-4.99079,2.78843.03864,4.60734,2.14208,4.56847,5.283-.03728,3.01128-2.13139,4.91481-5.37392,4.88482C423.99,44.68083,422.081,42.621,422.12525,39.53089Z"/></svg>