<svg xmlns="http://www.w3.org/2000/svg" role="img" viewBox="-50.30 -47.80 2485.60 593.10"><defs><style>.cls-1{fill:#00a7cf}</style></defs><path d="M219.49 112.09c-1.38-1.82-3-2.78-4.7-2.78a6.93 6.93 0 0 0-3.6 1.19c-13.26 10.42-31.4 54.53-46.27 112.67l13.16.15c26 .29 52.84.6 79.38 1-7-26.63-13.61-49.45-19.67-67.88-8.86-26.92-14.84-38.98-18.3-44.35z" class="cls-1"/><path d="M249.01 0C111.49 0 .01 111.48.01 249s111.48 249 249 249 249-111.48 249-249S386.52 0 249.01 0zm179 253.52h-.06q-.4.33-.83.62l-.28.19-.58.35-.54.31a13.18 13.18 0 0 1-6.13 1.51H301.65c.94 3.91 2 8.35 3.09 13.18 6.47 27.98 23.64 102.17 41.88 102.17h.94c14.25 0 21.52-20.6 37.46-65.74l.19-.55c2.56-7.25 5.45-15.43 8.58-24.08l.8-2.21a5.7 5.7 0 0 1 10.8 3.65l-.66 2.22c-1.66 5.37-3.43 12.69-5.47 21.16-9.5 39.37-23.85 98.85-60.67 98.85h-.27c-23.79-.19-38-38.22-44.11-54.46-11.37-30.37-20-62.73-28.27-94.07H157.35l-22.54 72.08-.33-.26a11.46 11.46 0 0 1-21.13-6.09v-.39l1.36-8.16c3.11-18.54 6.84-37.78 11.1-57.23h-45.8l-.17-.17a17.35 17.35 0 0 1-14.71-17.1 17.17 17.17 0 0 1 14.12-17 44.18 44.18 0 0 1 5.36-.23h2.23c14.53.25 29.95.48 46.86.7 23.93-97.24 51.65-146.6 82.4-146.74 33 0 57.47 75.12 77.06 148.61l.08.29c40.25.81 83.15 2 124.86 5l1.75.16a13.28 13.28 0 0 1 2 .18h.56a13.19 13.19 0 0 1 5.6 23.25zm208.17 57.78l-19.74 48.78H559.1l109.11-254.71h50.65l108.73 254.71h-57l-19.74-48.78H636.18zm57-141.51l-37.24 92.73h75.22zm457.65 92.36v97.94h-51.76v-93.48c0-28.3-13.78-43.57-38-43.57-10.8 0-22.72 4.84-33.52 19.74a163.1 163.1 0 0 1 1.46 19.37v97.94h-51.72v-93.48c0-28.3-13.78-43.57-38.36-43.57-10.05 0-21.23 6-31.65 20.11v116.93h-51.76V181.71h51.76v10.8c11.17-10.43 23.09-16.39 43.94-16.39 22.72 0 42.82 8.94 57 25.32 19-17.5 36.87-25.32 64.8-25.32 43.55 0 77.81 33.89 77.81 86.03zm227.53 8.93c0 51.76-39.47 92.72-88.63 92.72-20.11 0-36.87-5.21-50.64-14.15v96.45h-51.76V181.71h51.76v10.43c13.78-8.94 30.54-14.15 50.64-14.15 49.15 0 88.63 40.59 88.63 93.09zm-51 0c0-26.44-19.36-49.53-46.18-49.53-15.27 0-30.54 5.21-42.08 20.85v57c11.54 15.27 26.81 20.48 42.08 20.48 26.83-.03 46.16-22.73 46.16-48.8zm131.8 89h-51.76V95.69h51.76v264.4zm46.55-241.3c0-17.5 13.78-30.54 31.28-30.54 17.13 0 30.91 13 30.91 30.54 0 17.13-13.78 29.79-30.91 29.79-17.5 0-31.28-12.66-31.28-29.79zm57.3 62.93v178.37h-51.76V181.71h51.76zm188.1 175.77c-21.6 6.7-31.28 8.19-48 8.19-43.2 0-71.5-30.54-71.5-76.71v-63.68h-37.6v-43.57h37.61v-63.68h51.39v63.68h64.42v43.57h-64.42v63.31c0 20.11 12.29 29.42 31.28 29.42 9.68 0 20.11-2.23 30.16-4.84zm207.79 2.6h-51.76v-12.66c-14.52 11.54-30.91 18.25-51 18.25-46.92 0-78.2-33.89-78.2-85.65v-98.31h51.76v93.47c0 28.3 14.15 43.57 38.36 43.57 13 0 27.18-7.82 39.1-22.34v-114.7h51.76v178.37zm219.72 0h-51.76v-10.42c-13.78 8.94-30.54 14.15-50.65 14.15-49.16 0-89-40.59-89-93.1 0-51.76 39.85-92.73 89-92.73 20.11 0 36.87 5.21 50.65 14.15V95.69h51.76v264.4zm-51.76-60.7v-57c-11.54-15.27-26.81-20.48-42.08-20.48-27.18 0-46.18 22.72-46.18 48.78 0 26.44 19 49.53 46.18 49.53 15.23.03 30.53-5.18 42.07-20.82zm261.78-15.26h-131.45c4.1 20.85 17.88 37.24 46.18 37.24q21.79 0 30.16-13.41h54c-9.68 34.26-43.2 57.72-85.28 57.72-57.35 0-96.08-41.33-96.08-94.59 0-55.11 38.36-95 94.59-95 51 0 89 36.12 89 91.24a104.57 104.57 0 0 1-1.12 16.8zm-131.08-30.54h80.81c-3-22.34-16.39-34.63-37.24-34.63-24.95 0-38.73 14.52-43.57 34.63z" class="cls-1"/></svg>