<svg id="Layer_1" data-name="Layer 1" xmlns="http://www.w3.org/2000/svg" viewBox="0 0 1770.41504 644.82021"><defs><style>.cls-1{fill:#9dcb3b;}.cls-2{fill:#fbc244;}.cls-3{fill:#dbb150;}.cls-4{fill:#e9b91f;}.cls-5{fill:#0daad6;}.cls-6{fill:#979797;}.cls-7{fill:#989898;}</style></defs><title>ants</title><path class="cls-1" d="M226.11163,491.76409c-.06854,30.79968-.09633,61.59954-.25986,92.39867a53.48823,53.48823,0,0,1-1.25472,10.87388c-3.04671,14.17152-12.80064,21.79291-29.52346,22.38821-13.97171.49743-27.97.30156-41.95661.31687q-47.20877.05181-94.41768.00061c-6.98628-.00439-13.92769-.15212-20.79013-1.981-11.684-3.11379-17.89773-10.89676-19.86536-22.42458A81.94351,81.94351,0,0,1,16.871,579.42958q.081-67.17919.00373-134.35843a81.40487,81.40487,0,0,1,1.181-13.90664c2.386-13.87775,11.171-21.81925,25.80742-23.56988a137.86983,137.86983,0,0,1,16.43312-.94317q42.20978.00787,84.41955-.12731c.23054.20212.46105.40428.69467.60424,1.31746,2.30581.99043,4.8525.99561,7.32547.0351,16.817-.02316,33.63422.02954,50.45113.05188,16.5668,8.2815,24.91953,24.87683,25.0747,15.3201.14327,30.64235.017,45.96356.04689,2.48706.00485,5.00433-.23517,7.43992.55857A2.92051,2.92051,0,0,1,226.11163,491.76409Z"/><path class="cls-2" d="M144.71578,406.52415c.04421-19.114.00036-38.22868.15816-57.3417.14827-17.961,8.8253-26.48527,26.82658-26.57814q28.17273-.14535,56.346-.19877l.02252.17021c1.55617,2.01784,1.29926,4.4052,1.30616,6.71126.03491,11.63711.06265,23.27461-.00613,34.91135a85.28212,85.28212,0,0,0,1.57982,15.85479c2.86184,15.645,13.007,23.60243,30.23876,25.054,14.45272,1.21748,28.89848.77052,43.34986.974,2.45264.0345,5.03119-.43171,7.20673,1.26751l.09325-.102c-.05182,16.61488-.04532,33.23149-.19121,49.8468a131.74923,131.74923,0,0,1-.84813,14.41014c-1.49106,12.51053-10.38614,19.87127-24.3559,20.01241-20.10892.2031-40.22019.1761-60.33051.24771l-.38037-.27151c-1.74075-2.14808-1.34925-4.72466-1.35672-7.18061-.043-14.12778-.01721-28.25577-.02158-42.38367a48.91621,48.91621,0,0,0-.414-7.45859c-2.50809-16.29706-10.07074-23.44866-26.4529-25.42525-14.92469-1.80069-29.891-.51268-44.83066-.95781-2.61931-.078-5.36118.466-7.71907-1.26172Z"/><path class="cls-3" d="M311.74422,407.34863c-19.04023.11072-38.12372,1.3664-57.05351-1.772-15.49431-2.56889-24.63618-13.61027-25.93654-29.29971-1.48483-17.91479-.58708-35.802-.68638-53.70145,18.61631-.01257,37.23237-.15,55.84621-.00366,19.049.1498,27.28784,8.18447,27.652,27.44683C311.92712,369.123,311.70854,388.23817,311.74422,407.34863Z"/><path class="cls-4" d="M144.93637,406.82454c18.27622-.16454,36.65491-1.69852,54.7849.95263,18.43938,2.69636,24.80538,11.35327,25.90057,29.2929,1.10348,18.076.15919,36.27692.11083,54.42261-18.96964.01864-37.93928.18321-56.90584.00989-14.5696-.13312-23.90547-9.76053-23.92961-24.28981C144.86378,447.08343,144.91907,426.954,144.93637,406.82454Z"/><path class="cls-5" d="M562.57835,234.771c13.452,10.91034,27.05408,21.63611,40.614,32.41339,7.145,5.67877,7.0083,5.5379,12.96105-1.10687,2.31775-2.58728,1.7865-3.69611-.64611-5.692-13.778-11.305-27.91541-22.25238-40.87574-34.44244-7.48144-7.03675-14.58374-7.847-24.083-5.98951-27.58,5.393-55.36982,9.70484-83.02179,14.74549-4.95941.904-5.76783-.59693-5.56018-5.03107.29577-6.31281.08532-12.6601-.13813-18.98462-.7442-21.056-9.44262-30.97583-30.1651-34.33154-10.58777-1.71454-21.28521-.68067-31.93231-.88275-2.45379-.04663-3.925.07611-3.32739-3.44287,5.45758-32.13648,10.62726-64.32184,16.0553-96.46351.68768-4.07171.24859-7.1239-2.62751-10.4151-12.3844-14.17157-24.46362-28.6101-36.63281-42.96923-5.56665-6.56849-5.41308-6.42371-11.98059-1.14319-2.90582,2.33636-2.89892,3.70868-.535,6.56073,12.11517,14.61664,23.93176,29.48028,35.9386,44.1875,1.68841,2.06823,2.54492,3.98877,2.0509,6.767-5.38562,30.28863-10.74365,60.58288-15.87787,90.91473-.76288,4.50665-2.12933,6.15857-7.13409,6.12012-34.99036-.26911-69.98395-.10584-104.97651-.12152a73.4577,73.4577,0,0,0-19.28924,2.22967c-11.86774,3.202-19.24988,10.66223-21.63532,22.89642a80.70344,80.70344,0,0,0-1.71685,15.35834q-.05522,53.22858.004,106.45734a2.92926,2.92926,0,0,0,1.39984,1.152c2.26508.74231,4.60853.55267,6.92572.55615q23.179.03434,46.35816-.00049a47.57543,47.57543,0,0,1,10.87439,1.1452c8.97528,2.07611,14.02392,7.77478,15.52637,16.72864a80.93855,80.93855,0,0,1,1.24163,13.8761c-.08007,14.45276-.04693,28.90619-.01348,43.35931.00573,2.47168-.29987,5.00251.86254,7.347.20758.22388.4115.45.61536.676,17.1629-.00366,34.3269.10944,51.48859-.04022,21.82086-.19037,43.65728.78644,65.46142-.64923,17.78278-1.1709,28.19776-9.21912,31.62842-24.47321a53.30251,53.30251,0,0,0,1.39215-11.36975q.24343-57.97549.18421-115.95178c-.00391-3.46667.598-5.28662,4.49438-5.978,29.4751-5.2306,58.913-10.67133,88.35-16.11426A8.73628,8.73628,0,0,1,562.57835,234.771Z"/><path class="cls-5" d="M1751.189,430.35293c.29248-19.79126-9.38428-32.65052-27.28662-39.92255-15.07032-6.12176-30.94483-7.74152-46.989-7.79828-40.65649-.14386-81.31372-.032-121.9707-.07586-9.17835-.01-18.32446-.52271-27.00244-3.96228-5.677-2.25013-8.79492-6.14435-8.44312-12.63715.30591-5.64771.05908-11.32513.063-16.98944.00684-9.45819,2.3501-12.73218,11.42432-15.47559,8.04712-2.43292,16.35376-2.88995,24.70447-2.889q87.72894.01006,175.45813-.01471c7.5686-.00434,6.40478,1.00994,6.48-6.70856.06494-6.66321-.32569-13.35083.12963-19.98346.31617-4.60791-1.29638-5.397-5.54614-5.38617q-84.72912.21653-169.45923.08166c-9.49853-.005-18.99389-.03472-28.447,1.03687-12.63147,1.43188-25.02392,3.82117-36.23767,10.2157-10.89,6.2099-17.82068,15.26819-19.59314,27.93951-1.27673,9.12866-.5376,18.29541-.58691,27.44074-.1189,21.99231,8.86657,34.78369,29.479,42.38659,14.74194,5.4375,30.12744,6.87891,45.66565,6.9198,40.32336.106,80.6471.04395,120.97083.056,8.5205.00257,16.99877.53388,25.1499,3.23291,8.11914,2.68836,10.57715,6.26044,10.58642,14.74134q.01649,15.49356.002,30.98718c-.00367,9.10882-2.426,12.4079-11.28736,15.08057-8.05273,2.42871-16.35766,2.91516-24.70532,2.9168q-74.73194.01466-149.46411.012c-11.49719.00067-22.99707.1355-34.49023-.08063-3.52613-.06635-4.54395.98932-4.42713,4.46759.25147,7.4884.33167,15.00317-.02283,22.48328-.19885,4.19586,1.06177,5.237,5.22388,5.21368,32.32446-.181,64.65039-.1,96.97608-.1V513.477c31.15893,0,62.32055.23737,93.47583-.09881,15.86328-.17109,31.5874-2.15619,46.20922-9.00812,15.63648-7.32758,24.04517-19.424,23.92505-37.03345C1751.06932,455.00912,1751.00682,442.67849,1751.189,430.35293Z"/><path class="cls-5" d="M1155.935,509.4714q-.14025-103.47171.01123-206.94373c.00562-3.53985-1.32544-4.02362-4.33594-3.97821-9.99682.15082-20.00561.29627-29.99243-.05438-4.33594-.15222-5.11609,1.28418-5.10522,5.30768q.20856,76.72869.0509,153.45819c-.00171,1.69244.76355,3.61133-.94714,5.38312-1.637-1.20142-3.243-2.35267-4.82056-3.54181Q1015.43932,387.21295,920.0803,315.3268c-7.43676-5.60406-14.25976-13.22894-22.66088-16.0086-8.41993-2.78583-18.46-.676-27.79-.71179a3.22838,3.22838,0,0,1-.49939-.0033c-3.24866-.528-4.21887.77637-4.21448,4.087q.13659,103.4718.00745,206.94391c-.00354,3.02117.74157,4.04162,3.8844,3.97827,9.66186-.19507,19.33056-.0199,28.99585-.08686,7.70117-.0534,6.72387,1.08777,6.72875-6.48748q.04761-75.22971.01636-150.45935V350.184c2.574,1.87635,4.18213,3.02228,5.76294,4.20484q95.42195,71.383,190.845,142.76452c7.32959,5.4812,14.04248,13.00721,22.3053,15.6814,8.45642,2.73676,18.46765.67059,27.79846.70654a3.24525,3.24525,0,0,1,.49951.00324C1154.99962,514.07009,1155.93944,512.76571,1155.935,509.4714Z"/><path class="cls-5" d="M796.60765,509.531c1.32837,2.02472,2.209,4.15362,5.51233,4.10107,13.65393-.21741,27.31335-.09112,41.89526-.09112-.90234-1.49372-1.35828-2.32892-1.88806-3.11414q-70.52-104.49289-140.98779-209.02075c-1.54493-2.29419-3.202-2.88928-5.7378-2.845-7.32739.12805-14.66479.22333-21.98523-.03382-3.3966-.11932-5.36547,1.03-7.27124,3.84327Q595.85881,406.123,525.41124,509.76632c-.70355,1.03656-1.93134,1.88641-1.62934,3.77527,12.77344,0,25.55976-.16675,38.33673.10217,3.81019.08014,5.89588-1.16547,7.979-4.30432q55.20191-83.17786,110.67224-166.17755c1.03406-1.5495,1.59924-3.61237,3.76746-4.39954,1.15637,1.73468,2.27172,3.38507,3.36413,5.05048Q742.25541,426.67126,796.60765,509.531Z"/><path class="cls-5" d="M1183.769,325.79214c-.20508,4.04425,1.14575,4.91491,4.98925,4.89892,34.81324-.14477,69.62818.03455,104.44019-.21789,5.01684-.03644,5.86816,1.46643,5.855,6.092-.16284,57.29046-.05933,114.5816-.20325,171.87219-.01037,4.16815,1.08081,5.32343,5.22034,5.20306,10.31885-.30011,20.66028-.33648,30.97607.01038,4.542.15277,5.75147-1.08789,5.7378-5.69391-.16919-56.79077-.11036-113.58227-.11011-170.37353.00012-6.97669.00122-6.977,7.215-6.977,33.31458-.00013,66.62952-.06427,99.94361.08667,3.87243.01751,5.16272-.90851,4.97009-4.9184-.34338-7.14484-.34961-14.33032-.00305-21.47492.21277-4.38763-.83582-5.83874-5.59509-5.81561-42.97486.20874-85.95118.12213-128.92725.12213-42.80933,0-85.61926.11493-128.427-.14673-5.29688-.03234-6.36865,1.54383-6.08777,6.3592A192.98055,192.98055,0,0,1,1183.769,325.79214Z"/><path class="cls-6" d="M1139.40965,553.71389c-2.74719-1.34131-9.74536.29217-11.66638,2.86908q-15.97065,21.42123-31.91834,42.85944c-4.14941,5.57592-4.14758,5.58569-8.4237-.14643q-15.52643-20.81323-31.04492-41.63238c-2.69666-3.61512-9.33216-5.95081-13.0542-3.8993-3.225,1.77759-1.12146,5.38428-1.40625,8.13758a97.47172,97.47172,0,0,0-.08033,9.98535c0,12.49219-.06176,24.98486.022,37.47644.05432,8.1015-1.33033,6.8606,7.0957,7.22308,3.66.15747,4.91907-.80011,4.83093-4.66278-.25854-11.32037-.11889-22.65051-.04712-33.97632.00708-1.13452-.77465-2.61993.94934-3.59051q14.38277,19.27954,28.69837,38.462c4.09973,5.4862,11.47351,5.43,15.62768-.1449,5.86805-7.87482,11.67347-15.79627,17.52979-23.67987,3.7168-5.00318,7.47729-9.97376,11.21826-14.95893q.46931.17551.93872.351c0,12.57464.1189,25.15118-.07666,37.72278-.05469,3.50628.98206,4.9104,4.49072,4.4317a17.99155,17.99155,0,0,1,3.99244-.009c2.51672.22394,3.55334-.67889,3.54138-3.35852-.08338-18.82116-.03784-37.64288-.0625-56.46441C1140.56309,555.61513,1140.823,554.40389,1139.40965,553.71389Z"/><path class="cls-6" d="M1249.26487,553.66317c-3.052-1.27881-9.593.33295-11.61279,3.04059-11.14844,14.94476-22.34521,29.85437-33.37512,44.88611-2.06311,2.81146-3.06738,2.93725-5.21033.012-10.32812-14.099-21.22363-27.79645-31.16772-42.15552-3.65039-5.27136-7.67188-6.4837-13.32886-5.97259-2.2301.20141-2.7876,1.04809-2.78345,3.06866.041,18.98792.01758,37.97595.04273,56.96393.00146,1.08093-.35571,2.7135,1.25879,2.80682,3.14294.18146,6.54565.72736,9.389-.2254,2.51843-.84375,1.09814-4.1441,1.12255-6.30621.13257-11.73212.06311-23.46662.06311-36.39759,1.88453,2.363,3.02735,3.71936,4.08741,5.13752q12.55663,16.79928,25.09277,33.61383c4.83105,6.4516,11.75854,6.4505,16.5293.02569q14.12145-19.01751,28.22046-38.05182.53832.16655,1.07666.333c0,11.60486-.07056,23.21015.02417,34.81421.0664,8.14282-1.49964,7.14209,7.52929,7.25488.49964.00623,1.00281-.04144,1.49878.00074,2.19885.18682,2.87793-.90937,2.87354-2.983-.04029-18.98785-.01783-37.976-.0376-56.96392C1250.55638,555.45766,1250.74754,554.28439,1249.26487,553.66317Z"/><path class="cls-6" d="M1736.38719,555.17049a44.92471,44.92471,0,0,0-10.2898-1.5578c-18.47412-.151-36.95043-.00946-55.425-.13379-3.02784-.02038-3.99952.80036-3.97632,3.91578.13672,18.30456.17187,36.61175-.01929,54.91534-.03906,3.75085,1.40723,4.33221,4.65283,4.26575,8.98438-.18409,17.97461-.06372,26.96289-.0636,4.3274.00006,8.65528.0318,12.98242-.00659,8.9524-.07941,17.9629.66455,26.73926-1.92829,8.14429-2.40606,11.833-7.12011,11.9126-15.62378.08228-8.81921.05444-17.63995.00879-26.45965C1749.88231,562.16677,1746.42161,557.6556,1736.38719,555.17049Zm1.40381,41.57709c-.02,7.34351-2.39844,10.08368-10.0564,10.58557-5.97217.39148-11.98608.15064-17.9812.18567-1.666.00971-3.33179.00147-4.99756.0011-7.32983-.00031-14.66308-.13391-21.98779.06287-3.11035.08349-3.97437-.991-3.93945-4.00855.14282-12.32342.16943-24.65112-.01246-36.97357-.0498-3.39264,1.15137-4.16791,4.32886-4.13355,13.99146.15168,27.98584-.00073,41.97852.08826,9.98095.06348,12.66772,2.85352,12.6726,12.70661C1737.79954,582.42385,1737.81077,589.58578,1737.791,596.74758Z"/><path class="cls-6" d="M755.84373,554.31423c-9.11621-1.43994-18.257-.32513-27.19262-.854-9.79688.45758-19.44263-.59711-29.04078.97509-8.89929,1.45771-12.90576,5.75324-12.95068,14.62031q-.07947,15.72316-.00561,31.447c.03466,9.20947,3.4569,13.35809,12.47912,14.97357a56.08427,56.08427,0,0,0,9.37415.99041c13.3125.10743,26.62646.06855,39.93969.03229a38.32165,38.32165,0,0,0,12.69727-2.0838c6.27881-2.21643,8.657-5.65314,8.70007-12.39355.068-10.64832.04993-21.29743.02674-31.94617C769.8491,559.94973,766.06224,555.92818,755.84373,554.31423Zm1.95484,15.64349c-.33179,9.80817-.089,19.63544-.09888,29.4549-.00623,6.28516-1.46,7.91309-7.87378,8.06079-7.154.16473-14.31482.03778-21.47266.042-6.8247.00428-13.65.04846-20.47436-.00744-7.67932-.06287-9.03784-1.439-9.03931-8.894q-.00257-13.98009.00134-27.96026c.00428-6.27973,1.45948-7.97125,7.82911-8.07086,10.318-.16126,20.64026-.059,30.96081-.04554,4.49317.00586,8.99561-.10022,13.47656.15076C755.50743,562.93447,757.97081,564.87051,757.79857,569.95772Z"/><path class="cls-6" d="M665.00926,587.81948c12.36719-4.15985,13.19263-5.42523,13.029-18.51428-.11-8.79846-3.18091-12.6861-11.77929-14.57929a40.47213,40.47213,0,0,0-8.35694-1.1322c-16.81079-.10376-33.623.00519-50.43371-.10687-2.85218-.019-3.71253.905-3.66809,3.70856.14453,9.15094.05419,18.30542.05371,27.45855s.15258,18.31006-.07862,27.45734c-.08813,3.48621.92078,4.95886,4.44751,4.41888a8.2942,8.2942,0,0,1,2.491.00031c4.01587.62457,5.61267-.74469,5.35327-5.07471-.37768-6.30133.03247-12.64593-.15308-18.96448-.08752-2.98333.76734-4.10382,3.90967-4.03576q12.97706.28143,25.96314-.00922c2.80249-.06537,4.14184,1.02881,5.33667,3.36548,2.94958,5.7688,6.74975,11.17358,9.0979,17.1601,2.5968,6.62084,6.82861,8.34552,13.39453,7.67047,3.5791-.36805,3.33008-1.31958,1.93237-3.79444-3.92395-6.94836-7.70215-13.97882-11.57239-20.95782C663.01365,590.15523,662.14061,588.78445,665.00926,587.81948Zm-7.273-8.33472c-12.78247.13257-25.56763-.012-38.35071.08387-2.58337.0194-3.34656-.85547-3.4696-3.43451-.64917-13.60541-.7229-13.60187,12.69018-13.60187q5.22968,0,10.45948.00171c6.14282.00171,12.28735-.0885,18.4281.02588,6.7782.12622,8.33654,1.72613,8.34826,8.09967C665.85521,577.70254,664.4536,579.41512,657.73631,579.48476Z"/><path class="cls-6" d="M922.87816,587.84212c12.74633-4.553,13.35839-5.51617,13.13525-18.92474-.14014-8.41943-2.59741-11.70233-10.74109-13.80072a39.15344,39.15344,0,0,0-9.28088-1.50519c-16.81043-.14575-33.62317.01239-50.43335-.141-3.2749-.02984-3.82007,1.2738-3.77759,4.11267.13733,9.15106.05127,18.30542.051,27.45856-.00037,8.48749.26586,16.98663-.10621,25.45776-.20336,4.62738.81495,6.98719,5.86243,6.02936a6.00743,6.00743,0,0,1,1.99219-.00287c3.55017.545,4.57165-1.00421,4.43957-4.45642-.248-6.48083.0315-12.98041-.11816-19.46734-.06519-2.82758.49487-4.22773,3.78918-4.15137,8.81714.20453,17.64331.1463,26.46338.01825a4.507,4.507,0,0,1,4.64832,2.81012c3.05859,5.90069,6.89038,11.46838,9.34314,17.597,2.60888,6.51917,6.72986,8.51654,13.337,7.75153,3.16529-.3664,3.75916-.82874,2.11255-3.69074-3.97924-6.91571-7.73047-13.96264-11.57885-20.95373C921.11961,590.35445,919.943,588.89046,922.87816,587.84212Zm-6.69141-8.38244c-12.947.18481-25.89893.00848-38.8479.11-2.6145.02051-3.32544-.90808-3.44348-3.46063-.62732-13.58008-.69861-13.57678,12.71362-13.57678q5.22968,0,10.45935.00384c6.30884.00385,12.62122-.12524,18.92554.04071,6.15393.162,7.79626,1.90259,7.82629,7.60981C923.85911,577.58443,922.61265,579.368,916.18675,579.45968Z"/><path class="cls-6" d="M844.987,582.46041c-3.49646-.11456-4.21289,1.29285-4.07422,4.37354.20191,4.486-.28369,9.01965.1399,13.47436.47,4.94074-2.145,6.94415-6.26331,7.01422q-18.97063.3229-37.94946-.01025c-4.2572-.07813-6.29383-2.50745-6.11658-7.24207.34863-9.31006.102-18.64227.10266-27.96539.00049-8.417,1.14075-9.55609,9.87634-9.57056,15.81861-.0263,31.6388-.11883,47.45508.07434,3.66309.04474,4.0387-1.61267,3.96546-4.5075-.06812-2.69361.05969-4.783-3.82947-4.64606-8.14917.2868-16.31519.087-24.47437.08606-5.9945-.00086-11.99121.09833-17.98291-.0315a79.14583,79.14583,0,0,0-14.87854,1.03949c-8.34362,1.4032-12.25158,5.88331-12.3009,14.18177-.0614,10.32165-.04114,20.64386-.01685,30.96576.02466,10.49627,3.7107,14.74279,14.168,16.02789,13.92286,1.71088,27.91407.57739,41.87134.65045a33.71,33.71,0,0,0,10.67944-2.19708c5.02808-1.70313,7.90833-5.2569,7.73279-10.91187-.13427-4.32428.05384-8.65777-.03381-12.98449C852.88182,581.60226,854.79564,582.78194,844.987,582.46041Z"/><path class="cls-6" d="M596.04429,568.48873c-.04321-7.67969-2.99743-11.64636-10.49194-13.50555a42.71946,42.71946,0,0,0-9.81628-1.37842c-16.29975-.13776-32.60242.03613-48.90131-.14276-3.50012-.03833-4.08685,1.31793-4.032,4.368.16137,8.97754.05761,17.9599.05737,26.94037-.00018,8.648.32843,17.31311-.12634,25.937-.26312,4.991,1.3974,6.6286,6.08478,5.82019a6.55219,6.55219,0,0,1,1.99151-.00275c3.24256.45478,4.38446-.84967,4.23218-4.15216-.245-5.31042.09125-10.64685-.12427-15.95978-.1253-3.08734.955-3.98986,3.98535-3.95318,11.97437.145,23.9516.08288,35.92768.04663a37.095,37.095,0,0,0,13.18481-2.22614c5.09253-1.94317,8.217-5.47485,8.04663-11.31469C595.96068,575.476,596.064,571.981,596.04429,568.48873Zm-25.20617,15.038c-10.65619.00007-21.314-.10137-31.96772.06226-3.09436.04755-4.08728-.96478-3.94079-4.001.21637-4.48437.20373-8.99347.00464-13.47937-.13043-2.9386,1.06488-3.691,3.799-3.62445,6.32349.15393,12.65314.04889,18.98028.05,5.99421.001,11.99018-.095,17.98188.02643,6.81945.13806,8.18493,1.58606,8.19958,8.153C583.92357,583.52651,583.92357,583.52669,570.83812,583.52669Z"/><path class="cls-6" d="M1464.28477,562.56423c7.82971-.13708,15.66345-.03155,23.49549-.03454s15.668-.14509,23.49438.0642c3.30933.08844,4.70166-.60992,4.67383-4.31555-.027-3.59143-.77759-4.89325-4.68164-4.83423-15.4939.23395-30.99341.07245-46.49072.11237a37.5292,37.5292,0,0,0-11.74122,1.91058c-6.71557,2.228-9.40869,5.94593-9.44177,12.93927-.05054,10.66272-.03015,21.32587-.01184,31.98883.015,8.71161,3.19861,12.91358,11.5835,14.86652a43.08762,43.08762,0,0,0,9.3601,1.19623c15.66309.11865,31.32911-.05652,46.99085.137,3.63367.04486,4.41614-1.21112,4.41174-4.57019-.00439-3.34192-.739-4.783-4.40381-4.57562-5.31543.3006-10.66064.077-15.993.07666-10.33166-.00073-20.66394.07831-30.9945-.03-7.18873-.07538-8.8025-1.8067-8.80982-8.84516q-.01464-13.74526.00073-27.49047C1455.73631,564.40505,1457.3347,562.68575,1464.28477,562.56423Z"/><path class="cls-7" d="M981.8491,556.51693q-19.3081,28.19138-38.54589,56.43072c-.67151.98664-2.04407,1.80878-1.36866,3.565a33.17042,33.17042,0,0,1,4.94263.03857c5.03027.76251,8.19873-1.165,10.87012-5.58417,4.98388-8.24457,10.59131-16.11389,15.977-24.11383,4.77051-7.08587,9.59253-14.137,14.68762-21.63934,1.698,2.48511,3.02856,4.3742,4.2998,6.30243q13.7287,20.82375,27.467,41.64117c.94543,1.42481,1.51477,3.4195,3.90393,3.36249,3.43237-.082,6.86816-.02087,11.46923-.02087-14.29553-21.04035-27.79345-41.003-41.42138-60.87671C991.645,551.99758,984.50084,552.64547,981.8491,556.51693Z"/><path class="cls-7" d="M1296.82225,556.51845q-19.30848,28.19092-38.54627,56.43012c-.67126.98621-2.0448,1.808-1.4364,3.384,11.68762.6117,11.68384.60919,17.97827-8.75958,9.35645-13.92676,18.719-27.84955,28.49427-42.39148,1.56677,2.25433,2.73034,3.85577,3.81945,5.50629q13.18709,19.98568,26.356,39.98352c4.13623,6.26123,8.55786,7.579,16.32446,4.77783-13.58252-19.99091-27.08081-39.95337-40.70837-59.82727C1306.62279,552.00417,1299.46971,552.653,1296.82225,556.51845Z"/><path class="cls-7" d="M1620.26854,555.85769c-2.68018-3.92066-9.71241-3.35224-12.57422.82794q-15.07838,22.02191-30.11829,44.07c-3.43347,5.02667-6.8573,10.05993-10.34631,15.1792,8.3457,2.01684,13.7666.07519,18.33862-7.56092,8.77539-14.65619,18.86255-28.527,28.40894-42.72857,2.11157,1.22815,2.855,3.17419,3.93774,4.80474,8.27783,12.46735,17.07422,24.64283,24.5083,37.598,4.27,7.44128,9.47071,9.79193,17.27783,8.34607.16309-.03028.32276-.08045.92334-.23279a8.22978,8.22978,0,0,0-.57714-1.69452Q1640.19029,585.14022,1620.26854,555.85769Z"/><path class="cls-6" d="M1406.95506,553.44772c-11.81848.26422-23.64685.0935-35.47119.093-11.32495-.00042-22.65027.05609-33.97437-.03521-3.34936-.02692-5.89465-.34864-5.87243,4.64935.02136,4.80743,2.47741,4.42822,5.61389,4.39764,7.99316-.07794,15.99634.19245,23.978-.1195,3.8883-.152,4.69238,1.19409,4.64062,4.81317-.20068,13.98413-.14966,27.97326-.05542,41.95959.0564,8.33795-1.4834,6.999,7.42957,7.3844,3.75232.16217,4.80139-.98089,4.74853-4.731-.21142-14.983.01917-29.9721-.16443-44.95587-.04345-3.55,1.07569-4.545,4.52893-4.44916,8.15418.22614,16.32239-.06384,24.47791.13837,3.2876.08154,4.37378-.96429,4.22827-4.25061C1410.93284,555.4089,1411.03465,553.35647,1406.95506,553.44772Z"/><path class="cls-6" d="M1431.90062,585.55984q0-11.95807,0-23.91626c0-8.534,0-8.53394-8.65943-8.10181a3.50044,3.50044,0,0,1-.49829.0022c-2.05163-.19177-2.99072.57257-2.98437,2.79736q.08239,28.64951.00085,57.29932c-.006,2.15411.78,3.03631,2.91419,2.8833a18.65374,18.65374,0,0,1,3.98108.01758c4.01562.58331,5.5216-.76435,5.34863-5.07648C1431.65721,602.84255,1431.90062,594.19625,1431.90062,585.55984Z"/></svg>