<?xml version="1.0" encoding="utf-8"?>
<!-- Generator: Adobe Illustrator 23.0.2, SVG Export Plug-In . SVG Version: 6.00 Build 0)  -->
<svg version="1.1" id="Layer_1" xmlns="http://www.w3.org/2000/svg" xmlns:xlink="http://www.w3.org/1999/xlink" x="0px" y="0px"
	 viewBox="0 0 400 245" style="enable-background:new 0 0 400 245;" xml:space="preserve">
<style type="text/css">
	.st0{fill:#010101;stroke:#FFFFFF;stroke-width:0.4091;stroke-miterlimit:10;}
</style>
<g>
	<path class="st0" d="M64.9,96.6h-12l-17.4,45.9h10.9l2.8-7.8h16.4l-3-8.6H51.8l7-19.8l12.5,36.2h10.9L64.9,96.6z"/>
	<path class="st0" d="M247.7,142.5V96.6h9.7v37.3h19.1v8.6L247.7,142.5L247.7,142.5z"/>
	<path class="st0" d="M303.5,142.5V96.6h9.7v37.3h19.1v8.6L303.5,142.5L303.5,142.5z"/>
	<path class="st0" d="M194.2,104.8c8,0,14.5,6.6,14.5,14.8s-6.5,14.8-14.5,14.8c-8,0-14.5-6.6-14.5-14.8
		C179.7,111.5,186.2,104.8,194.2,104.8 M194.2,95.8c-12.9,0-23.3,10.6-23.3,23.8s10.4,23.8,23.3,23.8s23.3-10.6,23.3-23.8
		S207.1,95.8,194.2,95.8L194.2,95.8z"/>
	<path class="st0" d="M376.7,104.8c8,0,14.5,6.6,14.5,14.8s-6.5,14.8-14.5,14.8c-8,0-14.5-6.6-14.5-14.8
		C362.2,111.5,368.7,104.8,376.7,104.8 M376.7,95.8c-12.9,0-23.3,10.6-23.3,23.8s10.4,23.8,23.3,23.8s23.3-10.6,23.3-23.8
		S389.6,95.8,376.7,95.8L376.7,95.8z"/>
	<path class="st0" d="M131.4,96.6H120h-1.6h-8v45.9h9.6v-15.8h11.4c8,0,14.5-6.9,14.5-15.1C146,103.5,139.5,96.6,131.4,96.6z
		 M131.4,117.7H120v-12.1h11.4c3.1,0,5.7,2.9,5.7,6.1C137.1,114.9,134.6,117.7,131.4,117.7z"/>
	<path class="st0" d="M102.1,156.5c-0.8,0-1.6,0.4-2,1.1c0,0-2.2,2.5-3.4,3.7c-4.9,5-10.7,9-17.1,11.7c-6.6,2.9-13.7,4.3-20.9,4.3
		s-14.3-1.4-20.9-4.3c-6.4-2.8-12.1-6.7-17.1-11.8c-4.9-5-8.8-10.9-11.5-17.4c-2.8-6.7-4.2-13.9-4.2-21.3s1.4-14.6,4.2-21.3
		c2.7-6.5,6.6-12.4,11.5-17.4c4.9-5,10.7-9,17.1-11.7c6.6-2.9,13.7-4.3,20.9-4.3s14.3,1.4,20.9,4.3c4.7,2,9,4.7,12.9,7.9
		c-0.2,0.6-0.3,1.3-0.3,2c0,3.4,2.7,6.2,6.1,6.2s6.1-2.8,6.1-6.2s-2.7-6.2-6.1-6.2c-0.8,0-1.6,0.2-2.3,0.5
		c-10.1-8.5-23.1-13.5-37.2-13.5C26.3,62.7,0,89.5,0,122.5s26.3,59.8,58.7,59.8c18.2,0,34.4-8.4,45.2-21.6c0.4-0.4,0.7-1.1,0.7-1.8
		C104.6,157.6,103.5,156.5,102.1,156.5z"/>
</g>
</svg>
