<?xml version="1.0" encoding="UTF-8"?>
<svg width="215px" height="105px" viewBox="0 0 215 105" version="1.1" xmlns="http://www.w3.org/2000/svg" xmlns:xlink="http://www.w3.org/1999/xlink">
    <title>GraphQL Tools/ Angular</title>
    <g id="GraphQL-Tools/-Angular" stroke="none" stroke-width="1" fill="none" fill-rule="evenodd">
        <rect id="Rectangle" fill="#FFFFFF" x="0" y="0" width="215" height="105"></rect>
        <g id="Libraries-Logos-/-Angular" transform="translate(6.000000, 20.000000)" fill="#FF1035">
            <path d="M36.0400049,60.3145407 C36.0400049,60.5683309 36.0151531,60.8160963 35.9767457,61.0593432 C35.9722272,61.0902198 35.9684617,61.1203432 35.9631901,61.1504667 C35.5655605,63.4345778 33.5736469,65.1772198 31.178079,65.1772198 C29.0415728,65.1772198 27.2273877,63.7900346 26.5759679,61.8711704 L6.34580741,50.1923062 C4.33958519,49.0340593 3.10452346,46.8930346 3.10452346,44.5780469 L3.10452346,24.9066765 C3.85384444,25.1604667 4.65286914,25.3043062 5.48804198,25.3043062 C6.23736296,25.3043062 6.96032593,25.1905901 7.64262222,24.9842444 L7.64262222,44.5780469 C7.64262222,45.2701333 8.01464691,45.9147753 8.61560988,46.2611951 L27.4872025,57.1568494 C28.3796099,56.1153309 29.7012765,55.4518617 31.178079,55.4518617 C32.7844123,55.4518617 34.2062395,56.2373309 35.0926222,57.441516 C35.108437,57.4633556 35.1250049,57.484442 35.1408198,57.5062815 C35.2025728,57.5943926 35.2613136,57.6840099 35.3177951,57.7766395 C35.3396346,57.8120346 35.3614741,57.8466765 35.3825605,57.8828247 C35.4322642,57.9679235 35.4782025,58.0552815 35.5226346,58.1433926 C35.5467333,58.190837 35.5693259,58.2382815 35.5911654,58.286479 C35.6295728,58.3685654 35.6649679,58.4514049 35.6988568,58.5357506 C35.7229556,58.5959975 35.744042,58.6562444 35.7658815,58.7172444 C35.7929926,58.7940593 35.8193506,58.8716272 35.8419432,58.9499481 C35.8645358,59.0252568 35.8811037,59.1005654 35.8999309,59.175121 C35.9172519,59.2459111 35.9353259,59.3159481 35.9488815,59.3874914 C35.9677086,59.4816272 35.979758,59.576516 35.9933136,59.672158 C36.0000914,59.7301457 36.0113877,59.785121 36.0166593,59.8423556 C36.0309679,59.9982444 36.0400049,60.1548864 36.0400049,60.3145407 L36.0400049,60.3145407 Z M60.919721,17.8487506 C60.919721,19.307479 60.2720667,20.614837 59.2508815,21.5064914 L59.2508815,44.5780469 C59.2508815,46.8930346 58.0165728,49.0340593 56.0095975,50.1923062 L38.629116,60.2264296 C38.6095358,58.5847012 38.0545111,57.0732568 37.1342395,55.8487383 L53.7405481,46.2611951 C54.340758,45.9147753 54.7127827,45.2701333 54.7127827,44.5780469 L54.7127827,22.5178864 C52.684721,21.9334914 51.195116,20.0635778 51.195116,17.8487506 C51.195116,16.7703309 51.5528321,15.7762568 52.1492765,14.9697012 C52.1575605,14.9568988 52.1673506,14.9440963 52.1771407,14.9312938 C52.2893506,14.7821827 52.4098444,14.6383432 52.5386222,14.5027877 L52.5559432,14.4839605 C52.8225358,14.2060716 53.120758,13.9620716 53.4460914,13.7534667 C53.4799802,13.7316272 53.5153753,13.7120469 53.5500173,13.6902074 C53.6787951,13.6133926 53.8105852,13.5403432 53.9461407,13.4748247 C53.9860543,13.4559975 54.0259679,13.4356642 54.0666346,13.4175901 C54.236079,13.3407753 54.4107951,13.2699852 54.5907827,13.2142568 C54.5915358,13.2142568 54.5915358,13.2142568 54.5915358,13.2135037 C55.054684,13.0666519 55.5464494,12.9860716 56.0577951,12.9860716 C58.7395358,12.9860716 60.919721,15.1670099 60.919721,17.8487506 L60.919721,17.8487506 Z M3.10452346,22.0826025 C1.6269679,21.2474296 0.625362963,19.6636889 0.625362963,17.8487506 C0.625362963,15.1670099 2.80630123,12.9860716 5.48804198,12.9860716 C6.18314074,12.9860716 6.84284444,13.1359358 7.44154815,13.399516 L27.936042,1.56702222 C28.9384,0.987898765 30.0589926,0.69871358 31.1773259,0.69871358 C32.2971654,0.69871358 33.4170049,0.987898765 34.419363,1.56702222 L51.9022642,11.6613926 C50.6159926,12.5289481 49.6196593,13.7896148 49.0729185,15.2664173 L32.1503136,5.49738025 C31.8551037,5.32642963 31.5184741,5.23681235 31.1773259,5.23681235 C30.8369309,5.23681235 30.5010543,5.32642963 30.2050914,5.49738025 L10.2724,17.0060469 C10.3205975,17.2801704 10.3499679,17.5603185 10.3499679,17.8487506 C10.3499679,19.9408247 9.0192642,21.7233802 7.16215309,22.4079358 C7.14784444,22.4132074 7.13278272,22.4192321 7.11922716,22.4237506 C6.97086914,22.4757136 6.82251111,22.5216519 6.66963457,22.5600593 C6.63875802,22.5675901 6.60863457,22.5766272 6.57775802,22.5826519 C6.43768395,22.6150346 6.29459753,22.6406395 6.15075802,22.6609728 C6.11159753,22.6662444 6.07319012,22.6737753 6.03327654,22.6782938 C5.85404198,22.6986272 5.67254815,22.7114296 5.48804198,22.7114296 C5.28998025,22.7114296 5.09493086,22.6956148 4.90214074,22.6722691 C4.85093086,22.6662444 4.80047407,22.6572074 4.74851111,22.6489235 C4.60090617,22.6263309 4.45631358,22.5977136 4.31247407,22.5615654 C4.26879506,22.5502691 4.22436296,22.540479 4.17993086,22.5276765 C3.8011284,22.4207383 3.4404,22.2723802 3.10452346,22.0826025 L3.10452346,22.0826025 Z" id="Fill-2"></path>
            <path d="M30.8386716,15.5490196 L14.3529412,21.4514828 L16.8554256,43.1480139 L30.8386716,50.9262987 L44.8227509,43.1480139 L47.3252353,21.4514828 L30.8386716,15.5490196 Z M19.192911,41.5871904 L17.0645909,23.1356389 L30.8386716,18.204003 L44.6127522,23.1356389 L42.4852655,41.5871904 L30.8386716,48.0654832 L19.192911,41.5871904 Z M21.3662307,41.7638559 L24.9120419,41.7638559 L26.81953,37.002219 L34.872813,37.002219 L36.7803011,41.7638559 L40.3186124,41.7638559 L30.8386716,20.4798222 L21.3662307,41.7638559 Z M30.8386716,27.397279 L33.6128209,34.0672373 L28.0645222,34.0672373 L30.8386716,27.397279 Z" id="Fill-1"></path>
        </g>
        <path d="M79.372,54.74 L74,68 L77.706,68 L78.437,66.062 L83.656,66.062 L84.387,68 L88.093,68 L82.738,54.74 L79.372,54.74 Z M82.5,62.985 L79.593,62.985 L81.055,59.092 L82.5,62.985 Z M93.674428,68 L93.674428,60.605 L99.590428,68 L102.463428,68 L102.463428,54.74 L99.080428,54.74 L99.080428,62.152 L93.164428,54.74 L90.274428,54.74 L90.274428,68 L93.674428,68 Z M111.699856,63.087 L114.912856,63.087 L114.912856,63.461 C114.283856,64.379 113.263856,64.974 112.073856,64.974 C110.067856,64.974 108.469856,63.376 108.469856,61.37 C108.469856,59.364 110.067856,57.766 112.073856,57.766 C113.229856,57.766 114.249856,58.293 114.912856,59.126 L117.683856,57.256 C116.408856,55.59 114.351856,54.485 112.073856,54.485 C108.231856,54.485 105.035856,57.579 105.035856,61.37 C105.035856,65.161 108.231856,68.255 112.073856,68.255 C113.433856,68.255 114.776856,67.745 115.422856,66.759 L115.422856,68 L118.091856,68 L118.091856,60.265 L111.699856,60.265 L111.699856,63.087 Z M129.589284,54.74 L129.589284,61.999 C129.589284,63.92 128.654284,64.974 126.869284,64.974 C125.101284,64.974 124.183284,63.92 124.183284,61.999 L124.183284,54.74 L120.783284,54.74 L120.783284,62.203 C120.783284,65.62 122.891284,68.255 126.869284,68.255 C130.830284,68.255 132.972284,65.62 132.972284,62.203 L132.972284,54.74 L129.589284,54.74 Z M135.986712,68 L145.727712,68 L145.727712,64.719 L139.369712,64.719 L139.369712,54.74 L135.986712,54.74 L135.986712,68 Z M152.48214,54.74 L147.11014,68 L150.81614,68 L151.54714,66.062 L156.76614,66.062 L157.49714,68 L161.20314,68 L155.84814,54.74 L152.48214,54.74 Z M155.61014,62.985 L152.70314,62.985 L154.16514,59.092 L155.61014,62.985 Z M163.384568,54.74 L163.384568,68 L166.767568,68 L166.767568,64.447 L168.501568,64.447 L171.017568,68 L175.080568,68 L172.207568,63.988 C173.992568,63.172 174.825568,61.438 174.825568,59.585 C174.825568,56.95 173.261568,54.74 169.861568,54.74 L163.384568,54.74 Z M169.674568,57.834 C171.034568,57.834 171.544568,58.599 171.544568,59.619 C171.544568,60.537 171.034568,61.37 169.674568,61.37 L166.767568,61.37 L166.767568,57.834 L169.674568,57.834 Z" id="ANGULAR" fill="#050713" fill-rule="nonzero"></path>
        <path d="M77.476,36.42 L74,45 L76.398,45 L76.871,43.746 L80.248,43.746 L80.721,45 L83.119,45 L79.654,36.42 L77.476,36.42 Z M79.5,41.755 L77.619,41.755 L78.565,39.236 L79.5,41.755 Z M86.2775714,45 L88.4775714,45 L88.4775714,43.053 L90.0615714,43.053 C92.3385714,43.053 93.4275714,41.524 93.4275714,39.709 C93.4275714,37.982 92.3385714,36.42 90.0615714,36.42 L86.2775714,36.42 L86.2775714,45 Z M89.9405714,38.422 C90.8645714,38.422 91.2055714,39.038 91.2055714,39.72 C91.2055714,40.479 90.8645714,41.051 89.9405714,41.051 L88.4775714,41.051 L88.4775714,38.422 L89.9405714,38.422 Z M96.3661429,40.71 C96.3661429,43.163 98.4451429,45.165 100.920143,45.165 C103.428143,45.165 105.474143,43.163 105.474143,40.71 C105.474143,38.257 103.428143,36.255 100.920143,36.255 C98.4451429,36.255 96.3661429,38.257 96.3661429,40.71 Z M98.5881429,40.71 C98.5881429,39.412 99.6331429,38.378 100.920143,38.378 C102.240143,38.378 103.252143,39.412 103.252143,40.71 C103.252143,42.008 102.240143,43.042 100.920143,43.042 C99.6331429,43.042 98.5881429,42.008 98.5881429,40.71 Z M108.885714,45 L115.188714,45 L115.188714,42.877 L111.074714,42.877 L111.074714,36.42 L108.885714,36.42 L108.885714,45 Z M118.490286,45 L124.793286,45 L124.793286,42.877 L120.679286,42.877 L120.679286,36.42 L118.490286,36.42 L118.490286,45 Z M127.478857,40.71 C127.478857,43.163 129.557857,45.165 132.032857,45.165 C134.540857,45.165 136.586857,43.163 136.586857,40.71 C136.586857,38.257 134.540857,36.255 132.032857,36.255 C129.557857,36.255 127.478857,38.257 127.478857,40.71 Z M129.700857,40.71 C129.700857,39.412 130.745857,38.378 132.032857,38.378 C133.352857,38.378 134.364857,39.412 134.364857,40.71 C134.364857,42.008 133.352857,43.042 132.032857,43.042 C130.745857,43.042 129.700857,42.008 129.700857,40.71 Z" id="Apollo" fill="#6D7A99" fill-rule="nonzero"></path>
    </g>
</svg>