<?xml version="1.0" encoding="UTF-8"?>
<svg width="215px" height="105px" viewBox="0 0 215 105" version="1.1" xmlns="http://www.w3.org/2000/svg" xmlns:xlink="http://www.w3.org/1999/xlink">
    <!-- Generator: Sketch 59.1 (86144) - https://sketch.com -->
    <title>GraphQL Tools/ Angular</title>
    <desc>Created with Sketch.</desc>
    <g id="GraphQL-Tools/-Angular" stroke="none" stroke-width="1" fill="none" fill-rule="evenodd">
        <g id="Libraries-Logos-/-Angular" transform="translate(6.000000, 20.000000)" fill="#FF1035">
            <path d="M36.0400049,60.5122933 C36.0400049,60.7669156 36.0151531,61.0154933 35.9767457,61.2595378 C35.9722272,61.2905156 35.9684617,61.3207378 35.9631901,61.35096 C35.5655605,63.64256 33.5736469,65.3909156 31.178079,65.3909156 C29.0415728,65.3909156 27.2273877,63.9991822 26.5759679,62.0740267 L6.34580741,50.3568711 C4.33958519,49.1948267 3.10452346,47.0467822 3.10452346,44.7242044 L3.10452346,24.9883378 C3.85384444,25.24296 4.65286914,25.3872711 5.48804198,25.3872711 C6.23736296,25.3872711 6.96032593,25.2731822 7.64262222,25.06616 L7.64262222,44.7242044 C7.64262222,45.41856 8.01464691,46.0653156 8.61560988,46.4128711 L27.4872025,57.3442489 C28.3796099,56.2993156 29.7012765,55.6336711 31.178079,55.6336711 C32.7844123,55.6336711 34.2062395,56.4217156 35.0926222,57.6298489 C35.108437,57.65176 35.1250049,57.6729156 35.1408198,57.6948267 C35.2025728,57.7832267 35.2613136,57.8731378 35.3177951,57.9660711 C35.3396346,58.0015822 35.3614741,58.0363378 35.3825605,58.0726044 C35.4322642,58.1579822 35.4782025,58.2456267 35.5226346,58.3340267 C35.5467333,58.3816267 35.5693259,58.4292267 35.5911654,58.4775822 C35.6295728,58.5599378 35.6649679,58.6430489 35.6988568,58.7276711 C35.7229556,58.7881156 35.744042,58.84856 35.7658815,58.90976 C35.7929926,58.9868267 35.8193506,59.0646489 35.8419432,59.1432267 C35.8645358,59.2187822 35.8811037,59.2943378 35.8999309,59.3691378 C35.9172519,59.44016 35.9353259,59.5104267 35.9488815,59.5822044 C35.9677086,59.6766489 35.979758,59.7718489 35.9933136,59.8678044 C36.0000914,59.9259822 36.0113877,59.9811378 36.0166593,60.03856 C36.0309679,60.19496 36.0400049,60.3521156 36.0400049,60.5122933 L36.0400049,60.5122933 Z M60.919721,17.9072711 C60.919721,19.3707822 60.2720667,20.6824267 59.2508815,21.5770044 L59.2508815,44.7242044 C59.2508815,47.0467822 58.0165728,49.1948267 56.0095975,50.3568711 L38.629116,60.4238933 C38.6095358,58.7767822 38.0545111,57.2603822 37.1342395,56.0318489 L53.7405481,46.4128711 C54.340758,46.0653156 54.7127827,45.41856 54.7127827,44.7242044 L54.7127827,22.5917156 C52.684721,22.0054044 51.195116,20.12936 51.195116,17.9072711 C51.195116,16.8253156 51.5528321,15.8279822 52.1492765,15.0187822 C52.1575605,15.0059378 52.1673506,14.9930933 52.1771407,14.9802489 C52.2893506,14.8306489 52.4098444,14.6863378 52.5386222,14.5503378 L52.5559432,14.5314489 C52.8225358,14.2526489 53.120758,14.0078489 53.4460914,13.79856 C53.4799802,13.7766489 53.5153753,13.7570044 53.5500173,13.7350933 C53.6787951,13.6580267 53.8105852,13.5847378 53.9461407,13.5190044 C53.9860543,13.5001156 54.0259679,13.4797156 54.0666346,13.4615822 C54.236079,13.3845156 54.4107951,13.3134933 54.5907827,13.2575822 C54.5915358,13.2575822 54.5915358,13.2575822 54.5915358,13.2568267 C55.054684,13.1094933 55.5464494,13.0286489 56.0577951,13.0286489 C58.7395358,13.0286489 60.919721,15.2167378 60.919721,17.9072711 L60.919721,17.9072711 Z M3.10452346,22.1550044 C1.6269679,21.3170933 0.625362963,19.72816 0.625362963,17.9072711 C0.625362963,15.2167378 2.80630123,13.0286489 5.48804198,13.0286489 C6.18314074,13.0286489 6.84284444,13.1790044 7.44154815,13.4434489 L27.936042,1.57216 C28.9384,0.991137778 30.0589926,0.701004444 31.1773259,0.701004444 C32.2971654,0.701004444 33.4170049,0.991137778 34.419363,1.57216 L51.9022642,11.6996267 C50.6159926,12.5700267 49.6196593,13.8348267 49.0729185,15.3164711 L32.1503136,5.51540444 C31.8551037,5.34389333 31.5184741,5.25398222 31.1773259,5.25398222 C30.8369309,5.25398222 30.5010543,5.34389333 30.2050914,5.51540444 L10.2724,17.0618044 C10.3205975,17.3368267 10.3499679,17.6178933 10.3499679,17.9072711 C10.3499679,20.0062044 9.0192642,21.7946044 7.16215309,22.4814044 C7.14784444,22.4866933 7.13278272,22.4927378 7.11922716,22.4972711 C6.97086914,22.5494044 6.82251111,22.5954933 6.66963457,22.6340267 C6.63875802,22.6415822 6.60863457,22.6506489 6.57775802,22.6566933 C6.43768395,22.6891822 6.29459753,22.7148711 6.15075802,22.7352711 C6.11159753,22.74056 6.07319012,22.7481156 6.03327654,22.7526489 C5.85404198,22.7730489 5.67254815,22.7858933 5.48804198,22.7858933 C5.28998025,22.7858933 5.09493086,22.7700267 4.90214074,22.7466044 C4.85093086,22.74056 4.80047407,22.7314933 4.74851111,22.7231822 C4.60090617,22.7005156 4.45631358,22.6718044 4.31247407,22.6355378 C4.26879506,22.6242044 4.22436296,22.6143822 4.17993086,22.6015378 C3.8011284,22.4942489 3.4404,22.3454044 3.10452346,22.1550044 L3.10452346,22.1550044 Z" id="Fill-2"></path>
            <path d="M30.8386716,15.6 L14.3529412,21.5218155 L16.8554256,43.2894828 L30.8386716,51.0932702 L44.8227509,43.2894828 L47.3252353,21.5218155 L30.8386716,15.6 Z M19.192911,41.7235418 L17.0645909,23.2114935 L30.8386716,18.2636883 L44.6127522,23.2114935 L42.4852655,41.7235418 L30.8386716,48.223075 L19.192911,41.7235418 Z M21.3662307,41.9007866 L24.9120419,41.9007866 L26.81953,37.1235377 L34.872813,37.1235377 L36.7803011,41.9007866 L40.3186124,41.9007866 L30.8386716,20.5469691 L21.3662307,41.9007866 Z M30.8386716,27.4871061 L33.6128209,34.1789332 L28.0645222,34.1789332 L30.8386716,27.4871061 Z" id="Fill-1"></path>
        </g>
        <path d="M79.372,54.74 L74,68 L77.706,68 L78.437,66.062 L83.656,66.062 L84.387,68 L88.093,68 L82.738,54.74 L79.372,54.74 Z M82.5,62.985 L79.593,62.985 L81.055,59.092 L82.5,62.985 Z M93.674428,68 L93.674428,60.605 L99.590428,68 L102.463428,68 L102.463428,54.74 L99.080428,54.74 L99.080428,62.152 L93.164428,54.74 L90.274428,54.74 L90.274428,68 L93.674428,68 Z M111.699856,63.087 L114.912856,63.087 L114.912856,63.461 C114.283856,64.379 113.263856,64.974 112.073856,64.974 C110.067856,64.974 108.469856,63.376 108.469856,61.37 C108.469856,59.364 110.067856,57.766 112.073856,57.766 C113.229856,57.766 114.249856,58.293 114.912856,59.126 L117.683856,57.256 C116.408856,55.59 114.351856,54.485 112.073856,54.485 C108.231856,54.485 105.035856,57.579 105.035856,61.37 C105.035856,65.161 108.231856,68.255 112.073856,68.255 C113.433856,68.255 114.776856,67.745 115.422856,66.759 L115.422856,68 L118.091856,68 L118.091856,60.265 L111.699856,60.265 L111.699856,63.087 Z M129.589284,54.74 L129.589284,61.999 C129.589284,63.92 128.654284,64.974 126.869284,64.974 C125.101284,64.974 124.183284,63.92 124.183284,61.999 L124.183284,54.74 L120.783284,54.74 L120.783284,62.203 C120.783284,65.62 122.891284,68.255 126.869284,68.255 C130.830284,68.255 132.972284,65.62 132.972284,62.203 L132.972284,54.74 L129.589284,54.74 Z M135.986712,68 L145.727712,68 L145.727712,64.719 L139.369712,64.719 L139.369712,54.74 L135.986712,54.74 L135.986712,68 Z M152.48214,54.74 L147.11014,68 L150.81614,68 L151.54714,66.062 L156.76614,66.062 L157.49714,68 L161.20314,68 L155.84814,54.74 L152.48214,54.74 Z M155.61014,62.985 L152.70314,62.985 L154.16514,59.092 L155.61014,62.985 Z M163.384568,54.74 L163.384568,68 L166.767568,68 L166.767568,64.447 L168.501568,64.447 L171.017568,68 L175.080568,68 L172.207568,63.988 C173.992568,63.172 174.825568,61.438 174.825568,59.585 C174.825568,56.95 173.261568,54.74 169.861568,54.74 L163.384568,54.74 Z M169.674568,57.834 C171.034568,57.834 171.544568,58.599 171.544568,59.619 C171.544568,60.537 171.034568,61.37 169.674568,61.37 L166.767568,61.37 L166.767568,57.834 L169.674568,57.834 Z" id="ANGULAR" fill="#050713" fill-rule="nonzero"></path>
        <path d="M77.476,36.42 L74,45 L76.398,45 L76.871,43.746 L80.248,43.746 L80.721,45 L83.119,45 L79.654,36.42 L77.476,36.42 Z M79.5,41.755 L77.619,41.755 L78.565,39.236 L79.5,41.755 Z M86.2775714,45 L88.4775714,45 L88.4775714,43.053 L90.0615714,43.053 C92.3385714,43.053 93.4275714,41.524 93.4275714,39.709 C93.4275714,37.982 92.3385714,36.42 90.0615714,36.42 L86.2775714,36.42 L86.2775714,45 Z M89.9405714,38.422 C90.8645714,38.422 91.2055714,39.038 91.2055714,39.72 C91.2055714,40.479 90.8645714,41.051 89.9405714,41.051 L88.4775714,41.051 L88.4775714,38.422 L89.9405714,38.422 Z M96.3661429,40.71 C96.3661429,43.163 98.4451429,45.165 100.920143,45.165 C103.428143,45.165 105.474143,43.163 105.474143,40.71 C105.474143,38.257 103.428143,36.255 100.920143,36.255 C98.4451429,36.255 96.3661429,38.257 96.3661429,40.71 Z M98.5881429,40.71 C98.5881429,39.412 99.6331429,38.378 100.920143,38.378 C102.240143,38.378 103.252143,39.412 103.252143,40.71 C103.252143,42.008 102.240143,43.042 100.920143,43.042 C99.6331429,43.042 98.5881429,42.008 98.5881429,40.71 Z M108.885714,45 L115.188714,45 L115.188714,42.877 L111.074714,42.877 L111.074714,36.42 L108.885714,36.42 L108.885714,45 Z M118.490286,45 L124.793286,45 L124.793286,42.877 L120.679286,42.877 L120.679286,36.42 L118.490286,36.42 L118.490286,45 Z M127.478857,40.71 C127.478857,43.163 129.557857,45.165 132.032857,45.165 C134.540857,45.165 136.586857,43.163 136.586857,40.71 C136.586857,38.257 134.540857,36.255 132.032857,36.255 C129.557857,36.255 127.478857,38.257 127.478857,40.71 Z M129.700857,40.71 C129.700857,39.412 130.745857,38.378 132.032857,38.378 C133.352857,38.378 134.364857,39.412 134.364857,40.71 C134.364857,42.008 133.352857,43.042 132.032857,43.042 C130.745857,43.042 129.700857,42.008 129.700857,40.71 Z" id="Apollo" fill="#6D7A99" fill-rule="nonzero"></path>
    </g>
</svg>