<svg version="1.1" xmlns="http://www.w3.org/2000/svg" x="0px" y="0px" viewBox="0 0 443.5 187.1" fill="#fff">
	<path d="M186.7,63.9c-2.6-3.1-5.5-5.4-8.9-6.8c-3.3-1.4-6.9-2.1-10.6-2.1c-4,0-7.5,0.7-10.3,2c-2.8,1.4-5.2,3-7,5V49.8
		h-23.6v68.1c-1.3,0.7-2.9,1.1-4,1.1c-3.1,0-5.5-0.8-7.1-2.4c-1.6-1.6-2.8-3.7-3.6-6.1c-0.8-2.4-1.3-4.9-1.4-7.6
		c-0.2-2.7-0.3-5-0.3-7.1V5.6H84v10.4c0,0-6-4.7-10.7-6.5C68.6,7.6,64,6.6,59.5,6.6c-8.6,0-16,2.3-22.2,7
		C31.1,18.2,26,24.2,22.2,31.3c-3.9,7.1-6.7,15.1-8.5,23.8c-1.8,8.7-2.7,17.1-2.7,25.2c0,10.5,1.3,19.5,4,26.9
		c2.7,7.4,6.1,13.4,10.2,18.1c4.1,4.6,8.8,8,14.1,10.2c5.2,2.1,10.5,3.2,15.6,3.2c8.3,0,15.3-2.4,21.2-7.1
		c5.9-4.7,10.1-10.5,12.7-17.2c1.6,8.8,4.5,15,8.8,18.7c4.3,3.7,9.1,5.5,14.5,5.5c5,0,9.5-1.5,13.4-4.4c0.3-0.2,0.6-0.5,0.9-0.7
		v45.3l23.6-5.9V133c1.2,1.5,3,2.9,5.4,4c2.4,1.1,5.7,1.7,9.8,1.7c5.8,0,10.6-1.3,14.5-3.9c3.9-2.6,7-5.9,9.3-10.1
		c2.3-4.1,3.9-8.8,4.8-14.1c0.9-5.3,1.4-10.5,1.4-15.7c0-7.3-0.8-13.5-2.3-18.7C191.3,71.2,189.2,67.1,186.7,63.9z M84,90.8
		c0,3.8-0.6,7.4-1.8,10.7c-1.2,3.4-2.9,6.4-5,8.9c-2.2,2.6-4.7,4.7-7.6,6.2c-2.9,1.5-6,2.3-9.3,2.3c-6.2,0-11.5-3.1-15.7-9.3
		c-4.3-6.2-6.5-16.3-6.5-30.3c0-6.4,0.6-13.1,1.7-20.1c1.1-7,2.9-13.3,5.3-19c2.4-5.7,5.5-10.4,9.3-14.1c3.8-3.7,8.4-5.6,14-5.6
		c4.5,0,7.9,1.1,10.3,3.4c2.4,2.2,4.2,4.8,5.4,7.8V90.8z M171.6,103.9c-0.5,3.8-1.3,7.2-2.5,10.3c-1.1,3.1-2.7,5.5-4.7,7.5
		c-2,1.9-4.4,2.9-7.2,2.9c-2,0-3.6-0.4-4.8-1.2c-1.2-0.8-2.1-1.7-2.6-2.5V75c0.9-2.7,2.2-4.8,4.1-6.1c1.8-1.4,3.8-2.1,5.7-2.1
		c0.8,0,1.8,0.2,3.2,0.7c1.4,0.4,2.8,1.5,4.2,3.2c1.4,1.7,2.7,4.3,3.7,7.8c1,3.5,1.6,8.3,1.6,14.3
		C172.3,96.4,172.1,100.2,171.6,103.9z"/>
	<path d="M261.5,63.9c-2.6-3.1-5.5-5.4-8.8-6.8c-3.3-1.4-6.9-2.1-10.6-2.1c-4.1,0-7.5,0.7-10.3,2c-2.8,1.4-5.2,3-7.1,5
		V49.8h-23.6v129l23.6-5.9V133c1.2,1.5,3,2.9,5.4,4c2.4,1.1,5.7,1.7,9.8,1.7c5.8,0,10.6-1.3,14.5-3.9c3.9-2.6,7-5.9,9.3-10.1
		c2.3-4.1,3.9-8.8,4.8-14.1c0.9-5.3,1.4-10.5,1.4-15.7c0-7.3-0.8-13.5-2.3-18.7C266.2,71.2,264.1,67.1,261.5,63.9z M246.5,103.9
		c-0.5,3.8-1.3,7.2-2.5,10.3c-1.2,3.1-2.7,5.5-4.7,7.5c-2,1.9-4.4,2.9-7.2,2.9c-2,0-3.6-0.4-4.8-1.2c-1.2-0.8-2.1-1.7-2.6-2.5V75
		c0.9-2.7,2.2-4.8,4.1-6.1c1.9-1.4,3.8-2.1,5.7-2.1c0.8,0,1.8,0.2,3.2,0.7c1.4,0.4,2.8,1.5,4.2,3.2c1.4,1.7,2.7,4.3,3.7,7.8
		c1,3.5,1.6,8.3,1.6,14.3C247.2,96.4,246.9,100.2,246.5,103.9z"/>
	<path d="M435.4,64.4c-0.7-1.7-1.7-3.3-2.9-4.7c-1.3-1.4-2.7-2.6-4.4-3.4c-1.7-0.9-3.6-1.3-5.7-1.3
		c-3.5,0-6.7,1.1-9.7,3.4c-3,2.2-5.6,4.8-8,7.6V55.8h-23.6V110c-1.2,1.7-2.4,3.4-3.7,5c-1.6,2-3.4,3.8-5.4,5.3
		c-2,1.5-4.2,2.6-6.7,3.5c-2.5,0.9-5.4,1.3-8.7,1.3c-5.9,0-10-1.6-12.4-4.7c-2.4-3.1-3.6-8.3-3.7-15.7c4.1-0.2,8-1,11.9-2.4
		c3.9-1.4,7.3-3.3,10.3-5.9c3-2.6,5.4-5.7,7.2-9.4c1.8-3.7,2.7-8,2.7-13c0-0.9-0.1-2.3-0.4-4.4c-0.3-2.1-1.1-4.2-2.5-6.4
		c-1.4-2.2-3.5-4.1-6.3-5.7c-2.8-1.6-6.9-2.5-12.1-2.5c-6.9,0-12.6,1.5-17.1,4.6c-4.5,3.1-8,6.9-10.7,11.5c-2.6,4.6-4.5,9.6-5.5,15
		c-1,5.4-1.6,10.5-1.6,15.2c0,6.2,0.7,11.5,2,16c-0.3,0.5-0.6,1-1,1.5c-2.1,2.7-4.8,4.1-7.9,4.1c-3.2,0-5.4-0.7-6.6-2.2
		c-1.3-1.5-1.9-4.5-1.9-9.1V55.8h-23.6v57.5c0,7.7,1.7,13.8,5.1,18.4c3.4,4.6,9.3,7,17.7,7c2.2,0,4.7-0.3,7.5-1
		c2.8-0.7,5.6-2.1,8.4-4.2c2.3-1.8,4.5-4.3,6.4-7.5c0.9,1.4,1.9,2.7,3,3.9c2.9,3,6.3,5.2,10.2,6.6c3.9,1.4,8.3,2.1,13,2.1
		c5.6,0,10.4-0.9,14.6-2.6c4.2-1.8,7.8-4,10.9-6.9c2.6-2.4,4.8-5,6.7-7.9v24.5l23.6-13.5V75.5c1.7-1.9,3.4-3.4,5-4.7
		c1.6-1.3,3.2-1.9,4.8-1.9c1.5,0,2.6,0.5,3.2,1.6c0.6,1.1,1.2,2.3,1.7,3.5c0.6,1.3,1.3,2.4,2.3,3.5c1,1.1,2.7,1.6,5.2,1.6
		c3.4,0,5.8-1,7.3-3c1.5-2,2.2-4.2,2.2-6.6C436.5,67.8,436.1,66.1,435.4,64.4z M341.9,84.2c0.7-4,1.6-7.5,2.8-10.5
		c1.1-3,2.5-5.4,4-7.2c1.5-1.8,3.2-2.7,5.1-2.7c1.5,0,3,0.8,4.3,2.4c1.3,1.6,2,4.3,2,8.1c0,3-0.5,5.9-1.5,8.5
		c-1,2.6-2.3,4.9-4.1,6.9c-1.8,2-3.8,3.6-6.2,4.9c-2.4,1.3-5,2-7.7,2.2C340.7,92.5,341.2,88.3,341.9,84.2z"/>
	<path d="M289,46c4.1,0,7.6-1.4,10.5-4.3c2.9-2.8,4.4-6.3,4.4-10.4c0-4.1-1.5-7.6-4.4-10.5c-2.9-2.9-6.4-4.4-10.5-4.4
		c-4.1,0-7.6,1.5-10.4,4.4c-2.9,2.9-4.3,6.4-4.3,10.5c0,4.1,1.4,7.6,4.3,10.4C281.4,44.6,284.9,46,289,46z"/>
</svg>
