<?xml version="1.0" encoding="UTF-8" standalone="no"?>
<svg xmlns:rdf="http://www.w3.org/1999/02/22-rdf-syntax-ns#" xmlns="http://www.w3.org/2000/svg" xml:space="preserve" height="34" viewBox="0 0 210 34" width="210" version="1.1" xmlns:cc="http://creativecommons.org/ns#" xmlns:dc="http://purl.org/dc/elements/1.1/"><g transform="matrix(1.25 0 0 -1.25 -215.8 145.8)"><g><path d="m329.4 103.7h3.844c0.9863 0 1.708-0.2512 2.166-0.7532 0.4581-0.4932 0.6871-1.211 0.6871-2.153 0-0.8719-0.2689-1.532-0.806-1.981-0.5373-0.4403-1.316-0.6608-2.338-0.6608h-3.554v5.548zm0 7.754h2.642c1.11 0 1.942-0.2113 2.497-0.634 0.5636-0.4227 0.8454-1.078 0.8454-1.968 0-0.8102-0.278-1.427-0.8328-1.849-0.5549-0.4227-1.347-0.634-2.378-0.634h-2.774v5.085zm-17.83 0h2.55c1.383 0 2.466-0.4664 3.25-1.4 0.7837-0.9335 1.175-2.144 1.175-3.632v-3.211c0-1.506-0.3914-2.725-1.175-3.659-0.7838-0.9335-1.867-1.4-3.25-1.4h-2.55v13.3zm11.93 2.972v-2.325l2.047-0.3958v-13.8l-2.047-0.3968v-2.312h9.458c2.228 0 3.95 0.471 5.165 1.413 1.215 0.9511 1.822 2.347 1.822 4.188 0 1.066-0.2903 2.004-0.8715 2.814-0.5724 0.8101-1.435 1.339-2.589 1.585 0.8983 0.3523 1.581 0.8761 2.047 1.572 0.4757 0.7046 0.7136 1.502 0.7136 2.391 0 1.753-0.6339 3.069-1.902 3.95-1.268 0.8807-3.034 1.321-5.297 1.321h-6.499-2.047zm-17.83 0v-2.325l2.047-0.3958v-13.8l-2.047-0.3968v-2.312h8.652c2.351 0 4.289 0.7444 5.812 2.233 1.524 1.497 2.285 3.425 2.285 5.785v3.184c0 2.351-0.762 4.276-2.285 5.773-1.524 1.506-3.461 2.259-5.812 2.259h-6.605-2.047z" fill="#dde072"/><path d="m248.9 101.5h1.968v-2.36c-0.2641-0.3787-0.634-0.6957-1.11-0.9511-0.4756-0.2466-1.004-0.3699-1.585-0.3699-0.5549 0-0.9907 0.1371-1.308 0.41-0.3083 0.2731-0.4629 0.6514-0.4629 1.136 0 0.5372 0.2113 1.175 0.634 1.554 0.4227 0.3875 1.044 0.5812 1.863 0.5812m32.25 5.301c0.5724 0 1.061-0.1188 1.466-0.3565 0.4138-0.2377 0.7439-0.5724 0.9904-1.004v-6.208c-0.2465-0.414-0.5766-0.7309-0.9904-0.9511-0.4051-0.2114-0.9029-0.317-1.493-0.317-0.9511 0-1.638 0.356-2.061 1.069-0.4227 0.7222-0.634 1.709-0.634 2.959v0.2776c0 1.347 0.2159 2.44 0.6474 3.276 0.4403 0.8366 1.132 1.255 2.074 1.255m15.81 0.0268c1.004 0 1.739-0.4005 2.206-1.202 0.4668-0.8012 0.7002-1.837 0.7002-3.105v-0.2768c0-1.295-0.2335-2.338-0.7002-3.131-0.4579-0.7926-1.185-1.189-2.18-1.189-1.022 0-1.761 0.392-2.219 1.176-0.4579 0.7926-0.6871 1.841-0.6871 3.144v0.2768c0 1.268 0.2292 2.304 0.6871 3.105 0.4578 0.8016 1.189 1.202 2.193 1.202m0 2.972c-2.105 0-3.756-0.6829-4.954-2.048-1.189-1.356-1.783-3.1-1.783-5.231v-0.2768c0-2.149 0.5944-3.902 1.783-5.258 1.198-1.348 2.858-2.021 4.98-2.021 2.096 0 3.739 0.6738 4.927 2.021 1.198 1.356 1.796 3.109 1.796 5.258v0.2768c0 2.14-0.5988 3.888-1.796 5.244-1.189 1.356-2.84 2.035-4.954 2.035m-30.2 0c-0.8631 0-1.643-0.2029-2.338-0.608-0.6957-0.405-1.281-0.9732-1.756-1.704l-0.1719 2.048h-5.64v-2.325l2.047-0.3967v-8.863l-1.849-0.3967v-2.312h7.265v2.312l-1.558 0.3967v7.662c0.2729 0.3787 0.6122 0.6689 1.017 0.8714 0.405 0.2115 0.863 0.3172 1.374 0.3172 0.7838 0 1.369-0.2023 1.756-0.6074 0.3875-0.3963 0.5812-1.075 0.5812-2.035v-6.208l-1.651-0.3967v-2.312h7.371v2.312l-1.849 0.3967v6.221c0 1.937-0.4051 3.36-1.215 4.267-0.8101 0.9071-1.937 1.361-3.382 1.361m-17.99 0c-0.934 0-1.805-0.1305-2.619-0.3768-0.3861-0.1018-0.7911-0.2331-1.186-0.408-1.516-0.6714-2.049-1.236-2.049-1.236l1.827-2.416s0.5825 0.6289 2.235 1.334c0.4839 0.2045 1.082 0.2868 1.539 0.2889 0.775 0 1.361-0.1892 1.757-0.5679 0.3963-0.3786 0.5946-0.9115 0.5946-1.598v-1.22h-1.968c-2.078 0-3.654-0.5458-4.729-1.277-1.074-0.7311-1.612-1.766-1.612-3.104 0-1.312 0.4097-2.351 1.229-3.117 0.8278-0.7575 1.942-1.136 3.342-1.136 0.8454 0 1.594 0.1632 2.245 0.4889 0.6604 0.3258 1.219 0.7532 1.677 1.282 0.0441-0.2554 0.1061-0.5112 0.1854-0.7666 0.0792-0.2466 0.1719-0.4886 0.2775-0.7264h4.451v2.312l-1.175 0.1584c-0.0264 0.1761-0.044 0.3614-0.0528 0.5553v0.6208 5.905c0 1.603-0.5551 2.836-1.665 3.699-1.101 0.872-2.536 1.308-4.306 1.308m-8.468 0c-0.6957 0-1.308-0.2074-1.836-0.6212-0.5284-0.4139-0.9603-0.9905-1.295-1.73l-0.172 2.087h-5.64v-2.325l2.047-0.3967v-8.863l-1.849-0.3967v-2.312h7.556v2.312l-1.849 0.3967v6.948c0.1937 0.4051 0.4756 0.7182 0.8454 0.9384 0.3698 0.2201 0.8369 0.3298 1.401 0.3298l1.585-0.0397 0.4093 3.514c-0.1498 0.044-0.3389 0.0793-0.5678 0.1058-0.2202 0.0352-0.4315 0.0527-0.6341 0.0527m43.86 0.048-0.3213-2.109c-0.4315 0.6604-0.9514 1.167-1.559 1.519-0.6075 0.361-1.312 0.5416-2.113 0.5416-1.77 0-3.148-0.6914-4.134-2.074-0.9775-1.383-1.467-3.201-1.467-5.456v-0.2776c0-2.105 0.4893-3.804 1.467-5.099 0.9863-1.286 2.356-1.929 4.108-1.929 0.7397 0 1.396 0.1409 1.968 0.4227 0.5725 0.2819 1.07 0.6914 1.492 1.229v-0.9376c0-1.022-0.2328-1.819-0.6995-2.391-0.4667-0.5724-1.171-0.859-2.114-0.859-0.6869 0-1.339 0.07959-1.955 0.2383-0.6164 0.1496-1.233 0.3564-1.849 0.6206l-0.7136-2.708c0.6869-0.3434 1.436-0.6115 2.246-0.8053 0.8102-0.2025 1.576-0.3044 2.298-0.3044 2.069 0 3.695 0.5636 4.875 1.691 1.189 1.118 1.783 2.62 1.783 4.505v2.469l0.003-0.0092v9.001l2.048 0.3967v2.325h-5.362-0.00012zm-63.49 0.203h0.0796l1.763-5.514h-3.607l1.765 5.514zm-1.915 4.425-5.852-16.72-1.374-0.1986v-2.312h6.552v2.312l-1.334 0.2381 1.249 3.904h5.402l1.275-3.904-1.334-0.2381v-2.312h6.552v2.312l-1.374 0.1986-5.812 16.72h-3.95z" fill="#fff"/><g transform="matrix(.2292 0 0 -.2292 204.7 322)"><path d="m5.397 947.4c-1.368-4.543-2.051-6.815-3.042-9.231-1.91-4.673-4.34-8.472-7.981-13.18-8.521-11-12.78-16.51-19.73-20.9-15.08-9.534-30.95-7.847-32.76-7.628-5.416 0.6521-17.33 3.029-27.54 12.88-5.784 5.588-9.419 13.6-11.12 17.69-1.881 32.6 30.1 45.66 37.63 51.12 2.419 1.152 7.984 3.602 12.5 5.934 10.43 5.383 17.66 6.497 21.39 7.149 8.128 1.425 20.77-1.793 26.77-8.519 5.749-6.445 7.423-15.14 6.052-22.89-0.4164-2.383-0.4226-6.62-2.174-12.44z" fill="#577138"/><path d="m0.7982 943.9c-2.178-5.811-4.731-9.667-7.762-14.24-3.71-5.601-7.026-9.419-9.689-12.46-5.679-6.484-8.521-9.726-12.38-12.08-6.661-4.065-13.1-4.799-16.76-5.181-8.638-0.8954-15.24 0.9359-18.45 1.857-3.302 0.9512-9.845 2.901-16.68 8.266-6.19 4.861-9.998 12.18-12.07 16.12-1.902 3.552 9.799 32.06 36.83 48.91 1.383 0.7151 5.234 2.473 7.612 3.676 0.774 0.3919 1.485 0.7427 2.15 1.065 1.074 0.4918 2.075 0.9625 3.018 1.413 3.036 1.371 4.916 2.068 7.404 3.37 8.62 4.507 17.72 3.222 19.07 3.012 1.789-0.2751 14.23-2.2 19.38-12.1 2.717-5.221 2.244-10.42 1.598-17.54-0.1829-2.019-0.7991-7.481-3.281-14.1" fill="#a3b34f"/><path d="m-40.94 978.8c9.06 3.468 12.04 5.28 15.92 5.753 1.275 0.1526 13.44 0.9174 20.57-5.819 5.309-5.012 5.564-10.08 5.87-12.47 1.058-8.228-1.282-18.78-4.015-23.96-3.588-6.805-4.515-8.235-14.14-20.99-7.128-9.434-10.7-11.18-14.42-13.63-6.394-4.181-13.79-4.276-18.81-4.483-3.693-0.1506-10.61 1.203-17.24 3.527-10.36 3.643-16.41 9.747-20.66 18.39-4.718 9.967 19.14 42.45 35.73 49.09" fill="#dde072"/><path d="m-37.84 959.3c5.777-1.01 9.623-6.938 10.8-11.74 1.652-6.792-1.765-12.46-4.042-16.24-2.149-3.557-5.928-8.534-12.77-11.31-6.299-2.56-11.19 0.5455-13.47 1.815-10.05 14.86-2.265 29.94 12.52 37.47 1.866 0.1844 5.494 0.2612 6.959 0.006" fill="#a3b34f"/><path d="m-54.57 973.3c2.536-3.028 7.411-9.306 9.383-13.21 0.1286-0.2541 0.2571-0.524 0.3857-0.8037 2.127-4.622 4.237-12.62 4.438-18.92 0.1803-5.642-1.749-9.455-1.749-9.455-1.968-5.131-7.628-6.888-10.11-7.838-2.038-0.738-3.864-1.115-5.717-1.327-3.649-0.3273-8.71 0.063-17.46 1.347-8.668 1.214-17.32 2.869-25.29 4.788-9.663 2.355-14.99 3.652-21.13 6.623-7.091 3.43-13.79 6.67-16.69 13.79-1.774 4.361-1.62 8.752-1.178 11.67 0 0 1.913 19.09 15.05 28.82 11 8.158 27.22 11.17 39.31 7.866 9.535-1.813 18.63-10.75 26.19-18.57 1.544-1.564 3.405-3.4 4.57-4.787z" fill="#577138"/><path d="m-66.54 970.1c-8.889 5.219-21.93 12.3-38.25 12.12-0.5256-0.006-1.055-0.019-1.588-0.0405-5.473-0.2208-20.01-0.8063-27.49-10.53-2.063-2.686-3.282-5.655-3.943-7.673l-0.0179-0.044 0.001-0.00052c-0.4-1.23-0.5476-1.953-0.5522-1.979-0.1132-0.5245-0.2064-1.037-0.2863-1.568l-0.0102-0.0359c-0.001-0.006-0.002-0.0113-0.003-0.0169l0.001-0.00051-0.003-0.008c-0.42-2.789-0.564-6.971 1.117-11.1 2.752-6.751 8.978-9.763 16.19-13.25 6.043-2.923 11.33-4.211 20.92-6.549 1.229-0.2976 2.411-0.5798 3.551-0.8416 1.289-0.292 2.527-0.5686 3.715-0.8201 2.328-0.4933 4.553-0.9297 6.805-1.334l0.01125-0.007c4.132-0.7356 7.757-1.276 11.12-1.767 8.667-1.271 13.66-1.661 17.22-1.34 1.953 0.1721 3.58 0.5502 5.441 1.263 2.542 0.9732 7.273 2.785 9.559 7.34 0.6879 1.373 1.095 2.894 1.212 4.528 0.0138 0.1583 0.023 0.3217 0.0277 0.4846 0.1398 4.105-1.552 8.14-2.461 10.31-5.107 12.16-14.6 18.34-22.29 22.86" fill="#a3b34f"/><path d="m-72.14 970.7c8.463-4.356 15.33-9.356 18.87-13.25 5.88-6.471 8.277-13.05 8.796-18.4 0.5819-5.995-3.188-8.236-4.467-9.326-4.76-4.063-11.23-3.998-17.11-4.019-2.672-0.009-6.506 0.1952-18.26 2.756-9.348 2.131-11.26 2.594-22.56 5.682-7.533 2.097-11.78 3.509-15.25 5.688-4.851 3.046-10.89 6.838-12.42 14.15-1.901 9.072 4.809 16.63 6.173 18.06 6.567 6.851 15.62 7.673 21.86 7.694 2.451 0.009 4.772-0.1204 6.818-0.2341 12.68-0.7007 21.41-5.646 27.55-8.796" fill="#dde072"/><path d="m-105 934.2c-0.9707 0.734-2.553 2.29-3.365 3.122l-2.258 2.525c-4.003 5.028-6.859 14.72-4.691 17.33 1.112 1.341 1.696 1.487 2.094 1.754 5.558 2.688 10.63 6.378 18.92 6.863l6.895-0.008c0.5583-0.023 1.378-0.0564 1.967-0.1004 1.537-0.1383 0.8662-0.1511 1.927-0.2643 9.538-1.566 22.24-8.314 21.75-17.76-0.1875-3.53-4.219-9.312-6.956-11.92-2.91-2.776-8.349-5.472-9.774-5.981-0.6669-0.2059-1.464-0.4779-2.794-0.7115-0.7013-0.125-1.392-0.2351-2.079-0.3145-0.3273-0.042-0.6552-0.0738-0.983-0.1055-0.3309-0.0308-0.6577-0.0486-0.985-0.0691-6.925-0.4308-13.14 1.374-17.93 4.426-0.3975 0.2536-0.7888 0.5128-1.166 0.7832-0.1952 0.1429-0.3852 0.2802-0.5752 0.4282" fill="#5e3108"/></g></g></g></svg>
