<svg id="Layer_1" data-name="Layer 1" xmlns="http://www.w3.org/2000/svg" viewBox="0 0 750 275"><title>artsy-logo</title><path d="M26.95876,28.07418H723.04388v217.627H428.42274v-35.864H411.90433v35.864H26.95876ZM9.8631,262.778H740.1369V11H9.8631Z"/><path d="M157.97713,92.10469H139.25849l-32.54685,83.72107h18.70924l8.54448-23.21707h29.42037l8.42632,23.21707h18.71864Zm-18.975,45.16959,9.609-26.23617,9.50967,26.23617Z"/><polygon points="320.507 92.105 320.507 108.731 349.816 108.731 349.816 175.826 367.445 175.826 367.445 108.731 396.871 108.731 396.871 92.105 320.507 92.105"/><polygon points="620.475 92.105 599.288 127.805 578.224 92.105 557.736 92.105 590.541 145.092 590.541 175.826 608.163 175.826 608.163 145.092 640.963 92.105 620.475 92.105"/><path d="M522.64149,131.73681c-5.45291-3.98025-12.91538-5.80729-19.50128-7.42355-1.36925-.337-2.70629-.65779-4.00307-1.00009l-.81083-.20807c-5.36429-1.35047-12.71939-3.20033-12.71939-9.60633,0-6.85438,7.986-8.67871,12.70059-8.67871,5.34549,0,12.06027,1.6015,13.7074,9.24252l.047.25639h16.607l-.01074-.33157c-.55842-15.4512-11.39709-24.31382-29.72912-24.31382-13.655,0-29.59622,6.37379-29.59622,24.32456,0,18.68641,16.63922,22.68279,31.3105,26.21468,1.34778.32888,2.66873.64435,3.96145.9719,7.47726,1.95322,11.27362,5.422,11.27362,10.31646,0,10.52453-13.80138,11.05614-16.57347,11.05614-9.699,0-14.96526-3.61511-16.5842-11.37294l-.047-.25238H465.81437l.0161.3262c.12352,6.63959.93029,10.68428,5.20456,15.70357,8.10148,9.44523,20.94841,10.85612,27.89137,10.85612,16.007,0,33.23014-8.31357,33.23014-26.57177a24.34261,24.34261,0,0,0-9.515-19.50931"/><path d="M281.09805,140.21685c6.40064-4.66891,10.37418-12.93283,10.37418-21.56053a26.28037,26.28037,0,0,0-12.5395-22.6009c-6.555-3.95207-13.18118-3.95207-19.59255-3.95207H221.57939v83.721h17.744V134.43774l32.93214,41.38666h21.49339L268.6753,145.10457c4.49042-.77321,8.225-1.823,12.42275-4.88772m-41.7746-9.56606v-22.7687l19.93889-.00536c3.96415,0,7.47189.16645,10.30838,2.21632a11.2472,11.2472,0,0,1,4.27023,9.17274c0,7.55377-5.39248,11.38367-16.0298,11.38367h-18.4877Z"/></svg>