<svg id="Layer_1" data-name="Layer 1" xmlns="http://www.w3.org/2000/svg" viewBox="0 0 1920 388.35999"><defs><style>.cls-1{fill:#333;}.cls-2{opacity:0;}.cls-3{isolation:isolate;}</style></defs><title>logo-horizontal</title><g id="bP0oBUrnn"><path class="cls-1" d="M121.0557,13.03986h13.43912l3.36311.01334h13.45248l3.36311.01335h10.08936l3.36311.01334h49.953l3.29637.01335h62.75151l3.30973-.01335h16.50865l3.30973-.01334h6.60612l3.29639-.01335h8.28769l.56051.01335.54718.01334.56052.01335.56052.02669.54718.02669.56051.02669.54716.02669.56054.04.54716.04.54718.05338.54717.04.54718.06673.54716.05338.54718.06673.54718.08007.54718.08008.53382.08007.54718.09342.53382.10677.53384.10676.54716.10677.53384.12011.53382.12011.52048.1468.53384.13346.53382.1468.52048.16015.52048.1735.53384.17349.52048.17349.52049.20019.50712.20018.52048.20019.52048.22688.50714.22687.50715.24023.50712.24022,1.20113.62725,1.18776.62724,1.14771.66729,1.12108.66729,1.09432.694,1.06768.72067,1.0276.72067,1.01429.7607.98757.76071.94753.7874.93422.81408.89414.82744.8675.84078.84078.86747.81407.88081.78739.89417.74736.92085.734.94754.694.94755.66729.98758.6406.98758.6139,1.01428.58721,1.041.54718,1.05431.53382,1.06766.49378,1.09435.46711,1.10769.44039,1.121.4004,1.14773.387,1.16107.347,1.18777.32029,1.20112.29361,1.2278.25357,1.24115.22689,1.2545.20018,1.28119.1735,1.29453.14678,1.32122.10679,1.33457.08007,1.34792.02668.68063.02672.66729.02667.66728.02668.68064.02672.66728.01332.66729.01335.68062.01336.66729.01332.66728.01336.68063v.66729l.01336.66728v.68064l.01332.66728v2.0152l-.01332.68064V70.6666l-.01336.66729v.68063l-.01336.66729v.66728l-.01332.68063V74.697l-.01336.68063-.01335.66728v.66729l-.01332.68063v.66729l-.01336.68062v1.33458l-.01336.68063V203.29622l-.01332,5.99221v71.90666l-.01336,5.99222v29.96111l-.01336,5.99223v3.16292l-.01331.32028v.62725l-.01336.32031-.01336.3203v.32029l-.01332.307-.01336.32029-.01336.3203-.01331.3203-.01336.307-.01336.32028-.01336.32031-.02668.30694-.02667.32031-.01336.3203-.02668.307-.02672.3203-.04.307-.02668.32028-.04.307-.02668.32028-.04.307-.04007.30694-.05336.30695-.04.3203-.0534.30695-.05339.30694-.05335.307-.0534.30694-.33364,1.61484-.4004,1.58813-.44039,1.56146-.48042,1.54809-.53386,1.50807-.58722,1.468-.62725,1.45468-.66728,1.41464-.72064,1.4013-.76072,1.34793-.80075,1.32122-.84078,1.29453-.89414,1.2545-.92086,1.22778-.96089,1.17443-1.00093,1.14775-1.041,1.121-1.081,1.06764-1.10772,1.02764-1.14771,1.00093-1.17443.94753-1.21446.9075-1.24114.86746-1.26786.82743-1.30785.78743-1.33459.734-1.36125.694-1.4013.654-1.41464.58721-1.44134.5605-1.468.49379-1.49471.45374-1.50807.41372-1.53475.347-1.56144.307-1.58815.24022-1.60148.20018-1.61484.14682-1.62817.08007-1.65488.02668-6.75292.01336-6.73959.01331h-6.73956l-6.75292.01336-6.73959.01336H286.0086l-6.75293.01336h-6.73958l-6.73958.01332H252.284l-6.73959.01336h-13.4925l-6.73957.01336h-67.4492l-6.73957-.01336H137.64441l-6.75294-.01336H117.41232l-6.75293-.01332h-6.73958l-6.73958-.01336-6.75293-.01336H83.68772l-6.73958-.01336-6.75293-.01331-6.73958-.01336-6.73958-.01336-1.88174-.04-1.85505-.10675-1.84171-.18685-1.80167-.24022-1.78832-.32028-1.74829-.387-1.73494-.44039-1.68156-.5205-1.66822-.57386-1.62817-.6406-1.58814-.694-1.56145-.76071-1.52141-.81407-1.48137-.86746-1.45468-.92086-1.4013-.97425-1.36126-1.0276-1.30788-1.081-1.28119-1.1344-1.2278-1.18778-1.17443-1.22779-1.13438-1.26785-1.081-1.32122-1.02762-1.36128-.97424-1.40129-.9342-1.44131-.86747-1.4814-.81409-1.52141-.74736-1.56144-.70732-1.58814-.62725-1.62818-.57386-1.66822-.52048-1.68155-.45376-1.73494-.37368-1.74829-.3203-1.775-.25356-1.815-.18684-1.82836-.10677-1.85505-.04-1.88175-.01334-6.73958-.01335-6.75293v-6.73958l-.01334-6.73959-.01335-6.75292V287.3608l-.01334-6.73957-.01335-6.75294v-6.73957l-.01335-6.73958V246.89663l-.01334-6.73958V213.172l-.01335-6.73958V179.46079l.01335-6.75293V145.73619l.01334-6.73958v-13.4925l.01335-6.73959v-6.73958l.01335-6.75292V98.53243l.01334-6.73957V85.03993l.01335-6.73958.01334-6.73958V64.80784l.01335-6.73958.04-1.92178.10676-1.89509.17349-1.8684.25357-1.8417.307-1.80168.387-1.775.44041-1.74828.50714-1.7216.57386-1.66821.62725-1.64152.694-1.60149.74735-1.57479.81409-1.52141.86747-1.49472.92086-1.44134L20.40239,31.15,21.43,29.78871l1.081-1.32122,1.13439-1.26784,1.17442-1.22781L26.061,24.79742l1.26784-1.121,1.33457-1.06765,1.36127-1.02762,1.41464-.97424,1.45468-.90751,1.50807-.86747,1.53475-.80074,1.5748-.74736,1.62817-.694,1.65487-.62725,1.68156-.57386,1.73494-.50714,1.74829-.44041,1.80167-.387,1.815-.3203,1.85506-.24022,1.88174-.18684,1.92178-.12011,1.93513-.04,3.36312-.01334,3.36311-.01335,3.36312-.01335,3.36312-.01334,3.36311-.01335h3.36312l3.34978-.01334H84.0614l3.36312-.01335h6.72623l3.36313-.01334H121.0557ZM321.85516,350.23241h.49378l.10677.01336h2.3622l.10677-.01336h.387l.10677-.01336h.09343l1.0543-.05335,1.02763-.09343,1.00092-.12011,1.00093-.14682.96089-.17346.94754-.21354.93419-.24025.89416-.26689.88082-.29361.86749-.33364.84076-.347.81409-.387.78741-.41371.774-.44042.74737-.45374.72066-.49381.694-.52048.66729-.54716.65393-.57388.61391-.58721.60055-.62725.57388-.64059.54715-.66728.52049-.694.48044-.72066.46711-.74736.44041-.76071.40038-.80073.387-.80076.347-.84078.33365-.85413.2936-.8808.26693-.89418.22688-.92083.21353-.94756.1735-.96089.14679-.98759.10675-1.00093.09342-1.0276.04-1.041.01336-.13347v-.28027l.01336-.13344v-.42708l.01332-.13344v-2.62911l-.01332-.28026V62.77929l.01332-.18684V61.3513l.01335-.18684V59.74982l-.01335-.18684v-.53383l-.01332-.17349v-.347l-.01336-.18684v-.1735l-.01336-.17349-.01332-.18684-.01336-.17349V57.441l-.01336-.17349-.01331-.18684-.01336-.17349-.09343-.92086-.12011-.89416-.14678-.89416-.18686-.86747-.20018-.85413-.22689-.84078-.26691-.82743-.28025-.81409-.32031-.7874-.33364-.77405-.36034-.74736-.40035-.734-.41374-.72067-.427-.694L344.743,44.856l-.48044-.65394-.50713-.64059-.53384-.6139-.54717-.58721-.57386-.57387L341.5,41.226l-.61391-.52048-.64059-.50714-.654-.48044-.68062-.45376-.694-.4404-.70733-.40038-.734-.387-.74736-.36033-.77405-.33365-.77406-.307-.80073-.28026-.81408-.25357-.84079-.22687-.84077-.20019-.86748-.16015-.88082-.1468-.8808-.10677-.90752-.08007-.92086-.05338-.17348-.01335H326.366l-.1735-.01334h-.1735l-.18684-.01335h-.347l-.18684-.01335h-.88082l-.18684-.01334h-1.60148l-.1735.01334h-1.78832l-.1735.01335H290.9465l-3.18962-.01335H72.21042l-3.243.01335H61.68066l-.20019-.01335H60.09252l-.20019-.01334H57.91717L57.717,35.474h-.58721l-.20019.01335H56.7294l-.20019.01335h-.18683l-.20019.01334-.20018.01335h-.20019l-.18684.01334-.20019.01335-.20018.01334-.20019.01335-.18684.01335-.20019.02669-.78739.08007-.7874.12011-.77405.13346-.77405.17349-.74736.20019-.74736.21353-.734.24022-.734.26692-.70732.2936-.694.3203-.68063.347-.68064.36033-.65394.387-.64059.40037-.62725.42706-.6139.45376-.60056.4671-.57386.48044-.56052.50714-.54718.53382-.53382.53383-.50714.56052-.49379.58721-.4671.58721-.45376.61391-.42706.62724-.40037.6406-.387.65394-.37368.68063-.347.68063-.3203.694-.29361.72067-.26691.72066-.25357.734-.21353.74735-.20018.74736-.1735.77406-.1468.77405-.12011.78739-.09342.80074-.01335.18685-.02669.20018-.01334.20019-.01335.18684-.01335.20018-.01334.20019-.01335.20018v.18684l-.01334.20019-.01335.20018v.20019l-.01334.20018v.387l-.01335.20019v.58721l-.01335.20018v.98758l.01335.20019v1.388l.01335.20018V322.47336l-.01335.16014v3.79018l.01335.16014v.3203l.01334.16014v.307l.01335.16014v.16014l.01334.16017.05339.8808.06672.86748.10677.84077.13346.84078.16015.82743.18683.81409.20019.80075.24022.78739.25357.774.28026.74736.307.74736.3203.72068.347.70732.37368.694.40037.66728.42706.66729.44041.64059.45375.61391.49379.60055.4938.58722.53382.57385.54718.54718.56052.52048.58721.50714.6139.48043.62725.46711.64059.45375.66729.41371.68063.40038.694.387.72066.36032.734.33364.74736.307.774.29361.78739.25355.80074.24021.82744.21354.82743.20022.85413.16014.86747.13346.18684.04.20018.01332.18684.02671.20019.02668.20019.02668.18684.01336.20018.01335.20019.02668.20018.01336.18684.01332.20019.01336.20018.01336.20019.01331h.18684l.20018.01336.20019.01336h.40037l.18684.01332h.40037l.20019.01336H321.85516Z"/></g><g id="bP0oBUrnn-2" data-name="bP0oBUrnn"><g class="cls-2"><path d="M121.0557,13.03986h13.43912l3.36311.01334h13.45248l3.36311.01335h10.08936l3.36311.01334h49.953l3.29637.01335h62.75151l3.30973-.01335h16.50865l3.30973-.01334h6.60612l3.29639-.01335h8.28769l.56051.01335.54718.01334.56052.01335.56052.02669.54718.02669.56051.02669.54716.02669.56054.04.54716.04.54718.05338.54717.04.54718.06673.54716.05338.54718.06673.54718.08007.54718.08008.53382.08007.54718.09342.53382.10677.53384.10676.54716.10677.53384.12011.53382.12011.52048.1468.53384.13346.53382.1468.52048.16015.52048.1735.53384.17349.52048.17349.52049.20019.50712.20018.52048.20019.52048.22688.50714.22687.50715.24023.50712.24022,1.20113.62725,1.18776.62724,1.14771.66729,1.12108.66729,1.09432.694,1.06768.72067,1.0276.72067,1.01429.7607.98757.76071.94753.7874.93422.81408.89414.82744.8675.84078.84078.86747.81407.88081.78739.89417.74736.92085.734.94754.694.94755.66729.98758.6406.98758.6139,1.01428.58721,1.041.54718,1.05431.53382,1.06766.49378,1.09435.46711,1.10769.44039,1.121.4004,1.14773.387,1.16107.347,1.18777.32029,1.20112.29361,1.2278.25357,1.24115.22689,1.2545.20018,1.28119.1735,1.29453.14678,1.32122.10679,1.33457.08007,1.34792.02668.68063.02672.66729.02667.66728.02668.68064.02672.66728.01332.66729.01335.68062.01336.66729.01332.66728.01336.68063v.66729l.01336.66728v.68064l.01332.66728v2.0152l-.01332.68064V70.6666l-.01336.66729v.68063l-.01336.66729v.66728l-.01332.68063V74.697l-.01336.68063-.01335.66728v.66729l-.01332.68063v.66729l-.01336.68062v1.33458l-.01336.68063V203.29622l-.01332,5.99221v71.90666l-.01336,5.99222v29.96111l-.01336,5.99223v3.16292l-.01331.32028v.62725l-.01336.32031-.01336.3203v.32029l-.01332.307-.01336.32029-.01336.3203-.01331.3203-.01336.307-.01336.32028-.01336.32031-.02668.30694-.02667.32031-.01336.3203-.02668.307-.02672.3203-.04.307-.02668.32028-.04.307-.02668.32028-.04.307-.04007.30694-.05336.30695-.04.3203-.0534.30695-.05339.30694-.05335.307-.0534.30694-.33364,1.61484-.4004,1.58813-.44039,1.56146-.48042,1.54809-.53386,1.50807-.58722,1.468-.62725,1.45468-.66728,1.41464-.72064,1.4013-.76072,1.34793-.80075,1.32122-.84078,1.29453-.89414,1.2545-.92086,1.22778-.96089,1.17443-1.00093,1.14775-1.041,1.121-1.081,1.06764-1.10772,1.02764-1.14771,1.00093-1.17443.94753-1.21446.9075-1.24114.86746-1.26786.82743-1.30785.78743-1.33459.734-1.36125.694-1.4013.654-1.41464.58721-1.44134.5605-1.468.49379-1.49471.45374-1.50807.41372-1.53475.347-1.56144.307-1.58815.24022-1.60148.20018-1.61484.14682-1.62817.08007-1.65488.02668-6.75292.01336-6.73959.01331h-6.73956l-6.75292.01336-6.73959.01336H286.0086l-6.75293.01336h-6.73958l-6.73958.01332H252.284l-6.73959.01336h-13.4925l-6.73957.01336h-67.4492l-6.73957-.01336H137.64441l-6.75294-.01336H117.41232l-6.75293-.01332h-6.73958l-6.73958-.01336-6.75293-.01336H83.68772l-6.73958-.01336-6.75293-.01331-6.73958-.01336-6.73958-.01336-1.88174-.04-1.85505-.10675-1.84171-.18685-1.80167-.24022-1.78832-.32028-1.74829-.387-1.73494-.44039-1.68156-.5205-1.66822-.57386-1.62817-.6406-1.58814-.694-1.56145-.76071-1.52141-.81407-1.48137-.86746-1.45468-.92086-1.4013-.97425-1.36126-1.0276-1.30788-1.081-1.28119-1.1344-1.2278-1.18778-1.17443-1.22779-1.13438-1.26785-1.081-1.32122-1.02762-1.36128-.97424-1.40129-.9342-1.44131-.86747-1.4814-.81409-1.52141-.74736-1.56144-.70732-1.58814-.62725-1.62818-.57386-1.66822-.52048-1.68155-.45376-1.73494-.37368-1.74829-.3203-1.775-.25356-1.815-.18684-1.82836-.10677-1.85505-.04-1.88175-.01334-6.73958-.01335-6.75293v-6.73958l-.01334-6.73959-.01335-6.75292V287.3608l-.01334-6.73957-.01335-6.75294v-6.73957l-.01335-6.73958V246.89663l-.01334-6.73958V213.172l-.01335-6.73958V179.46079l.01335-6.75293V145.73619l.01334-6.73958v-13.4925l.01335-6.73959v-6.73958l.01335-6.75292V98.53243l.01334-6.73957V85.03993l.01335-6.73958.01334-6.73958V64.80784l.01335-6.73958.04-1.92178.10676-1.89509.17349-1.8684.25357-1.8417.307-1.80168.387-1.775.44041-1.74828.50714-1.7216.57386-1.66821.62725-1.64152.694-1.60149.74735-1.57479.81409-1.52141.86747-1.49472.92086-1.44134L20.40239,31.15,21.43,29.78871l1.081-1.32122,1.13439-1.26784,1.17442-1.22781L26.061,24.79742l1.26784-1.121,1.33457-1.06765,1.36127-1.02762,1.41464-.97424,1.45468-.90751,1.50807-.86747,1.53475-.80074,1.5748-.74736,1.62817-.694,1.65487-.62725,1.68156-.57386,1.73494-.50714,1.74829-.44041,1.80167-.387,1.815-.3203,1.85506-.24022,1.88174-.18684,1.92178-.12011,1.93513-.04,3.36312-.01334,3.36311-.01335,3.36312-.01335,3.36312-.01334,3.36311-.01335h3.36312l3.34978-.01334H84.0614l3.36312-.01335h6.72623l3.36313-.01334H121.0557ZM321.85516,350.23241h.49378l.10677.01336h2.3622l.10677-.01336h.387l.10677-.01336h.09343l1.0543-.05335,1.02763-.09343,1.00092-.12011,1.00093-.14682.96089-.17346.94754-.21354.93419-.24025.89416-.26689.88082-.29361.86749-.33364.84076-.347.81409-.387.78741-.41371.774-.44042.74737-.45374.72066-.49381.694-.52048.66729-.54716.65393-.57388.61391-.58721.60055-.62725.57388-.64059.54715-.66728.52049-.694.48044-.72066.46711-.74736.44041-.76071.40038-.80073.387-.80076.347-.84078.33365-.85413.2936-.8808.26693-.89418.22688-.92083.21353-.94756.1735-.96089.14679-.98759.10675-1.00093.09342-1.0276.04-1.041.01336-.13347v-.28027l.01336-.13344v-.42708l.01332-.13344v-2.62911l-.01332-.28026V62.77929l.01332-.18684V61.3513l.01335-.18684V59.74982l-.01335-.18684v-.53383l-.01332-.17349v-.347l-.01336-.18684v-.1735l-.01336-.17349-.01332-.18684-.01336-.17349V57.441l-.01336-.17349-.01331-.18684-.01336-.17349-.09343-.92086-.12011-.89416-.14678-.89416-.18686-.86747-.20018-.85413-.22689-.84078-.26691-.82743-.28025-.81409-.32031-.7874-.33364-.77405-.36034-.74736-.40035-.734-.41374-.72067-.427-.694L344.743,44.856l-.48044-.65394-.50713-.64059-.53384-.6139-.54717-.58721-.57386-.57387L341.5,41.226l-.61391-.52048-.64059-.50714-.654-.48044-.68062-.45376-.694-.4404-.70733-.40038-.734-.387-.74736-.36033-.77405-.33365-.77406-.307-.80073-.28026-.81408-.25357-.84079-.22687-.84077-.20019-.86748-.16015-.88082-.1468-.8808-.10677-.90752-.08007-.92086-.05338-.17348-.01335H326.366l-.1735-.01334h-.1735l-.18684-.01335h-.347l-.18684-.01335h-.88082l-.18684-.01334h-1.60148l-.1735.01334h-1.78832l-.1735.01335H290.9465l-3.18962-.01335H72.21042l-3.243.01335H61.68066l-.20019-.01335H60.09252l-.20019-.01334H57.91717L57.717,35.474h-.58721l-.20019.01335H56.7294l-.20019.01335h-.18683l-.20019.01334-.20018.01335h-.20019l-.18684.01334-.20019.01335-.20018.01334-.20019.01335-.18684.01335-.20019.02669-.78739.08007-.7874.12011-.77405.13346-.77405.17349-.74736.20019-.74736.21353-.734.24022-.734.26692-.70732.2936-.694.3203-.68063.347-.68064.36033-.65394.387-.64059.40037-.62725.42706-.6139.45376-.60056.4671-.57386.48044-.56052.50714-.54718.53382-.53382.53383-.50714.56052-.49379.58721-.4671.58721-.45376.61391-.42706.62724-.40037.6406-.387.65394-.37368.68063-.347.68063-.3203.694-.29361.72067-.26691.72066-.25357.734-.21353.74735-.20018.74736-.1735.77406-.1468.77405-.12011.78739-.09342.80074-.01335.18685-.02669.20018-.01334.20019-.01335.18684-.01335.20018-.01334.20019-.01335.20018v.18684l-.01334.20019-.01335.20018v.20019l-.01334.20018v.387l-.01335.20019v.58721l-.01335.20018v.98758l.01335.20019v1.388l.01335.20018V322.47336l-.01335.16014v3.79018l.01335.16014v.3203l.01334.16014v.307l.01335.16014v.16014l.01334.16017.05339.8808.06672.86748.10677.84077.13346.84078.16015.82743.18683.81409.20019.80075.24022.78739.25357.774.28026.74736.307.74736.3203.72068.347.70732.37368.694.40037.66728.42706.66729.44041.64059.45375.61391.49379.60055.4938.58722.53382.57385.54718.54718.56052.52048.58721.50714.6139.48043.62725.46711.64059.45375.66729.41371.68063.40038.694.387.72066.36032.734.33364.74736.307.774.29361.78739.25355.80074.24021.82744.21354.82743.20022.85413.16014.86747.13346.18684.04.20018.01332.18684.02671.20019.02668.20019.02668.18684.01336.20018.01335.20019.02668.20018.01336.18684.01332.20019.01336.20018.01336.20019.01331h.18684l.20018.01336.20019.01336h.40037l.18684.01332h.40037l.20019.01336H321.85516Z"/></g><g class="cls-2"><path d="M225.314,373.32031l-170.49365-.16015-1.8789-.10743-1.8711-.18945-1.82275-.24316-1.81787-.32422-1.77442-.39258-1.75488-.44531-1.71484-.5293-1.68848-.58105-1.65478-.65039-1.61133-.70313-1.58643-.77246-1.54394-.82617-1.50342-.87891-1.47461-.93359-1.42529-.99024-1.38233-1.043-1.33154-1.09863-1.29785-1.15039-1.24951-1.207-1.19288-1.24609-1.14892-1.28321-1.10059-1.34375-1.04394-1.38183-.98926-1.42285-.94629-1.459-.8833-1.50781-.82666-1.544-1.47559-3.19238-.64062-1.65918-.582-1.69238-.52735-1.70117-.46191-1.7627-.38037-1.77734-.32471-1.79688-.25732-1.84179-.18994-1.85157-.10889-1.88476-.041-1.90528-.1206-148.3789.147-123.32813.10791-1.91894.17481-1.89258.25732-1.87109.31006-1.82227.39306-1.80518.44532-1.76953.51367-1.74707.58349-1.69677.63428-1.6626.70557-1.62891.75635-1.59521.82861-1.5503.87891-1.51465.93554-1.46582.98877-1.42285,1.043-1.38232,1.09717-1.3418,1.15381-1.29,1.189-1.24463,1.26514-1.19775,1.28418-1.13623,2.73535-2.12744,1.439-.9917,1.47949-.92383,1.52881-.87988,1.55908-.814,1.59717-.75879,1.65234-.70459,1.67969-.63769,1.70312-.58106,1.7627-.5166,1.773-.44677,1.8247-.39209,1.83936-.3252,1.88476-.24463,1.90186-.18945,1.94629-.12207,1.96289-.041,77.33838-.10693,149.63232.05322,41.31836-.04,6.13428.32227,5.51074.85156,3.24463.84424,3.1665,1.13574,2.0879.95459,2.41455,1.26758,2.29882,1.35107,2.19385,1.43457,2.06885,1.501,1.96143,1.56885,1.855,1.66455,1.73388,1.73388,1.62354,1.79834,1.50781,1.9004,1.38672,1.9707,1.27246,2.0293,1.15576,2.13427L368.106,39.043l.91992,2.25928.79932,2.34179.67919,2.42823.55616,2.50732.43261,2.56592.32422,2.645.39063,9.46972.02734,4.71045-.01367.69336.00049,2.00244-.01416.68116.00049.667-.01368.68017.00049.6543-.01367.69385.00049.65381-.02734,1.36133.00048.65429-.01367.69336.00049.6543-.01416.69385.00049,1.32129-.01367.69335.00048,122.52735L372.061,326.65137l.001.59961-.02783.668.001.293-.74414,7.62793-.33741,1.63575-.85205,3.19531-.48535,1.56543-.54248,1.53222-1.23047,2.96485L367.167,348.168l-.731,1.42187-1.584,2.71L364,353.6123l-1.84082,2.51856-1.99268,2.36035-1.05517,1.13672-2.22315,2.13086-1.16357,1.01465-1.19385.96386L352.03857,365.54l-1.28564.83887-1.32813.7998-1.35742.748-1.37988.70312-1.42188.66407-2.89648,1.165-3.01074.96485-1.52588.418-3.144.665-3.23487.44824-1.63769.14844-1.65576.082-1.67627.02832ZM73.98535,13.74756l-18.73681.106-1.894.11914-1.85742.18505-1.835.2378-1.78467.31592-1.77783.38183-1.72559.43506-1.71045.501-1.6538.56445-1.63379.62012-1.60254.68359-1.5503.73682-1.51269.78955-1.48389.854-1.43408.895-1.38965.958-2.65771,2.06641-1.24219,1.10009-1.22461,1.15918-1.15039,1.20459-1.11963,1.251-1.06152,1.29883-1.01172,1.34082-.959,1.38037-.90625,1.41992-.853,1.47022-.80274,1.50146-.73242,1.5459-.68506,1.581-.61572,1.61426-.5669,1.647-.49755,1.69288-.4336,1.72314-.38232,1.75391-.30078,1.77148-.25049,1.8208L12.7793,54.313l-.10547,1.87109-.03906,1.898-.106,148.35059.15967,123.25976.10547,1.83106.18457,1.79785.251,1.792.31592,1.749.36914,1.72657.44727,1.70508.5122,1.65332.56739,1.64941.61914,1.60449,1.43408,3.10156.80029,1.49512.855,1.459.91846,1.415.96191,1.38378,1.0127,1.33985,1.06494,1.30078,1.11475,1.24512,1.15918,1.21191,1.21,1.16895,1.25927,1.11523,1.291,1.06543L30.48,363.5127l1.38037.959,1.43067.90527,1.46142.8545,1.49951.80273,1.53858.749,1.563.68164,1.605.63086,1.6416.56446,1.66162.51367,1.70166.43164,1.728.38183,1.7622.31446,1.77246.23633,1.82081.18457,1.82568.10449,1.85742.03906,168.58252.12012,102.80371-.13379,1.60693-.0791,1.58692-.14551,3.15039-.43555,3.04834-.64453,2.95654-.85547,1.44922-.48828,2.813-1.13086,1.375-.64258,2.65625-1.4082,1.28516-.77344,2.47119-1.6709,1.19726-.89453,1.15479-.93261,2.22021-1.999,1.06641-1.05273,2.00781-2.23242.94727-1.15918,1.78808-2.44629,1.61426-2.57422.75049-1.33008.70849-1.37891.65674-1.39355,1.19825-2.88672.5249-1.48242.90771-3.06738.39551-1.57032.96777-7.09765.08008-1.89649-.001-.292.02783-.66894-.001-.59864.01416-.34765-.001-3.13575L370.794,80.0625l-.00049-1.32178.01416-.69384-.00049-.65381.01367-.69336-.00049-.65479.02735-1.36133-.00049-.6538.01367-.69385-.00049-.6543.01367-.68018-.00048-.66748.01416-.68115-.00049-2.00146.01367-.69336-.227-11.38477-.18457-2.65576-.31641-2.58057L369.75,48.83154l-.53906-2.43213-.65918-2.35742-.77686-2.27588-.89209-2.18945-1.00976-2.12207-1.11866-2.06641-1.23291-1.9663-1.34033-1.90479-1.46094-1.8418L359.147,27.93311l-1.68261-1.68262-1.80274-1.61719-1.90381-1.52246L351.73975,21.647,349.604,20.24951l-2.24707-1.3208-4.36181-2.1543L339.42188,15.519l-4.20508-.9707-4.84473-.604-4.94238-.22413-104.0542.04053L97.51367,13.70752Zm250.875,337.16553-270.562-.28125-2.85059-.55176-2.46289-.71973-1.5708-.61914-1.49951-.71484-2.09521-1.23047-1.94092-1.44336-1.19092-1.06348-1.11572-1.15625L38.55762,341.915l-.92871-1.30078-.84961-1.36817-.74756-1.45117-.93311-2.27539-.50732-1.60156-.56445-2.50977-.24707-1.72461-.17872-7.0498.01563-.21484-.00244-.89356L33.76318,55.646l.21924-1.64209.32862-1.59327.42382-1.53271.83741-2.24316L36.2627,47.209l1.18994-2.02587.91015-1.28418,1.51026-1.78614,1.68847-1.62207,1.83936-1.44287,1.97851-1.25195,2.11524-1.05957,1.49316-.58154,2.28369-.67139,1.60743-.32031,7.01318-.37012.24561.01562,1.34277-.002.24414.01465,130.50391-.01465,134.54834.05518,1.83642.13427,1.813.26026,1.75293.36963,1.69922.49218,1.62158.60352,1.56543.71338,1.48.8081,1.4165.91944,1.33838,1.02,1.25537,1.11621,1.1543,1.19385,1.07568,1.29541.97461,1.37109,1.27686,2.207.72119,1.57568.61816,1.64893.50733,1.71191.395,1.75538.27588,1.83935.21972,5.26709-.01513.2334.002,1.19434-.01514.23388.002,1.19434v258.666l.01318,2.91016-.0166.19824.00342.36231-.01758.20117.00391.21191-.25733,3.27442-.32715,1.99511-.44922,1.91016-.57519,1.82617-.69727,1.73926-.80713,1.64551-.93847,1.5625-1.03321,1.46094-1.15771,1.35351-1.25049,1.251-1.35937,1.15527-1.46,1.04883-1.56934.92285-1.645.82324-1.75488.70117-1.82325.57715-1.92578.46582-2.0122.3291-2.06446.21778Zm-2.01758-1.334h1.78809l.187.667-.08447-.66211.3916-.01855.18652.667-.08447-.66211.28467-.01855,2.02148-.14356,1.96582-.26269,1.85791-.37891,1.78467-.49512,1.69971-.61035,1.6084-.71386,1.51758-.83106,1.42041-.91894,1.31591-1.03321,1.2295-1.127,1.13867-1.23047,1.03076-1.31641.91553-1.42089.42871-.74122.76367-1.55761.66016-1.64746.543-1.72364.42872-1.82421.311-1.9004.1958-1.99023.05371-1.17969-.00342-.21484.01758-.20117-.0039-.35938.0166-.19824-.0166-4.36621V62.7793l.01513-.23389-.002-1.19434.01514-.23339-.11963-4.15821-.20948-1.77832-.3247-1.71045-.41895-1.66113-.53418-1.59814-.63574-1.51465-.73389-1.42627-.82324-1.38379-.9165-1.28955-1.00684-1.21143-1.08935-1.12744-1.17432-1.04394-1.25781-.959-1.3374-.86816-1.395-.76075-1.47413-.67138-1.53125-.56983-1.60839-.46582-1.65528-.34863-1.72119-.24756-1.97168-.14355-.13623.002-.22607-.01611-.1211.00244-.23388-.01514-.29981.002-.23389-.01514-.834.00195-.23584-.01562-7.7583.02881-261.769.12744-1.561.19824-1.50342.29883-2.1665.63672-1.39307.54248L46.03125,38.96l-1.8584,1.17627L42.4375,41.49756l-1.59814,1.53467-1.418,1.67871-.85108,1.20117L37.44238,47.833l-.646,1.333-.78907,2.11328-.56689,2.19726-.25879,1.51612-.19434,2.12011.002.1416-.02783.44434.00146.15576-.01562.24561.00195.34179-.01465.24415.00147.54345-.01465.24414.02783,4.11963.0376,264.20362.1206,1.752.23389,1.62793.53564,2.38476.751,2.23633.61279,1.43164.69824,1.35645,1.23,1.91308,1.40234,1.75,1.042,1.0791,1.11231.99415,1.83056,1.36132,1.98145,1.16309,1.40625.66992,1.48193.584,2.3457.68457,1.6377.35058,1.07129.17774.10205-.001,2.1626.2002.14453-.001.4458.02832.355-.001.23193.01367.355-.001.24561.01465,204.63769-.001Z"/></g></g><g id="ez4x72UGX"><path class="cls-1" d="M176.93415,235.099q32.24991-55.77169,64.48645-111.59678a42.19829,42.19829,0,0,1,3.79017-6.00556,10.74178,10.74178,0,0,1,14.23988-2.469,10.9926,10.9926,0,0,1,4.53754,13.71939,37.00074,37.00074,0,0,1-2.509,4.91121q-38.11532,66.10128-76.244,132.20255c-4.56425,7.88731-11.544,9.28861-18.32365,3.16294q-25.24341-22.80114-50.033-46.09607c-5.45839-5.09805-5.80538-11.27712-1.56145-16.16165,4.324-4.95125,11.17036-5.16478,16.81559-.08007,10.98351,9.87583,21.7535,19.97852,32.6169,29.97446,2.122,1.96182,4.25728,3.91028,7.22,6.61946C173.97141,239.97021,175.50616,237.568,176.93415,235.099Z"/></g><g id="ez4x72UGX-2" data-name="ez4x72UGX"><g class="cls-2"><path d="M176.93415,235.099q32.24991-55.77169,64.48645-111.59678a42.19829,42.19829,0,0,1,3.79017-6.00556,10.74178,10.74178,0,0,1,14.23988-2.469,10.9926,10.9926,0,0,1,4.53754,13.71939,37.00074,37.00074,0,0,1-2.509,4.91121q-38.11532,66.10128-76.244,132.20255c-4.56425,7.88731-11.544,9.28861-18.32365,3.16294q-25.24341-22.80114-50.033-46.09607c-5.45839-5.09805-5.80538-11.27712-1.56145-16.16165,4.324-4.95125,11.17036-5.16478,16.81559-.08007,10.98351,9.87583,21.7535,19.97852,32.6169,29.97446,2.122,1.96182,4.25728,3.91028,7.22,6.61946C173.97141,239.97021,175.50616,237.568,176.93415,235.099Z"/></g><g class="cls-2"><path d="M175.35352,273.50293c-2.93946,0-5.9834-1.3584-8.88916-3.98438-18.30225-16.53027-36.35694-33.32128-50.04151-46.10351-5.603-5.23242-6.22021-11.78027-1.60986-17.08692a11.22794,11.22794,0,0,1,7.88379-4.01367,13.70465,13.70465,0,0,1,9.88281,3.875c7.55371,6.793,15.12988,13.80567,22.45654,20.58789q5.07789,4.70216,10.165,9.39161c1.77979,1.6455,3.56738,3.28027,5.84424,5.36132l.7749.709c.60645-.99707,1.16992-1.91211,1.70069-2.77539,1.05224-1.71,1.96045-3.18555,2.83545-4.69922h0Q194.56811,203.2705,212.772,171.75q14.03394-24.293,28.0708-48.58154c.2461-.42285.48682-.84912.72852-1.27637a31.69326,31.69326,0,0,1,3.12793-4.82373,11.34646,11.34646,0,0,1,15.09521-2.61231,11.59782,11.59782,0,0,1,4.81592,14.53223,33.34605,33.34605,0,0,1-2.27295,4.51026l-.27783.48876-15.75439,27.32276q-30.24024,52.448-60.4917,104.88525c-2.40821,4.16016-5.521,6.64746-9.002,7.19434A9.4522,9.4522,0,0,1,175.35352,273.50293Zm-52.00342-69.874q-.28785,0-.57324.01757a9.92444,9.92444,0,0,0-6.95752,3.55762c-4.08838,4.707-3.5083,10.54492,1.51464,15.23633,13.68067,12.77734,31.73,29.56348,50.02491,46.08789,3.08105,2.7832,6.27978,4.00879,9.2456,3.543,3.06983-.48242,5.85449-2.74512,8.05322-6.54395q30.25489-52.42675,60.4917-104.88379l16.02832-27.80566a32.43918,32.43918,0,0,0,2.1875-4.3291,10.29868,10.29868,0,0,0-4.25927-12.90967,10.06441,10.06441,0,0,0-13.38477,2.32715,30.72007,30.72007,0,0,0-2.98828,4.623c-.24414.43164-.48779.86279-.73584,1.28857q-14.03613,24.28345-28.06982,48.57959-18.20581,31.51465-36.41553,63.01514h0c-.88379,1.52929-1.79688,3.01269-2.854,4.73047-.65039,1.05761-1.3496,2.19238-2.11718,3.46289l-.4209.69629-1.9751-1.80665c-2.27881-2.084-4.06787-3.71972-5.84814-5.36523q-5.09107-4.686-10.167-9.39355c-7.32275-6.7793-14.8955-13.78907-22.44287-20.5752A12.66265,12.66265,0,0,0,123.3501,203.62891Z"/></g></g><g id="cfEdWDxIe"><g id="b1u6paQQxf" class="cls-3"><g class="cls-3"><path class="cls-1" d="M579.9751,246.92578H482.58643l-21.87256,60.82715H429.10254L517.86963,75.29834h26.82178l88.92724,232.45459H602.1665Zm-88.12891-25.0664h79.02832L531.28076,113.13623Z"/><path class="cls-1" d="M760.86182,261.93262q0-11.97363-9.02051-18.59961-9.02051-6.62256-31.45117-11.415-22.43262-4.79-35.60254-11.49512-13.17187-6.70605-19.47754-15.96484-6.30909-9.25782-6.30664-22.03223,0-21.23145,17.96094-35.92187,17.96044-14.68726,45.90039-14.68848,29.373,0,47.65625,15.167,18.27978,15.16992,18.28027,38.7959H759.106q0-12.1311-10.29785-20.91455-10.29786-8.77808-25.94336-8.78076-16.12794,0-25.22559,7.02441a22.11621,22.11621,0,0,0-9.09961,18.36035q0,10.69776,8.46094,16.125,8.46093,5.42871,30.57422,10.377,22.11034,4.95117,35.84179,11.81445,13.72852,6.86573,20.35547,16.52441,6.624,9.66064,6.626,23.54883,0,23.1504-18.51953,37.11914-18.52294,13.97169-48.05567,13.96973-20.75684,0-36.7207-7.34375-15.96533-7.34179-24.98535-20.51563a49.44,49.44,0,0,1-9.02051-28.498h29.53613q.79688,14.84765,11.89356,23.54883,11.09472,8.70263,29.29687,8.70117,16.76369,0,26.90137-6.78516Q760.86084,273.26855,760.86182,261.93262Z"/><path class="cls-1" d="M929.45557,261.93262q0-11.97363-9.02051-18.59961-9.02051-6.62256-31.45117-11.415-22.43262-4.79-35.60254-11.49512-13.17187-6.70605-19.47754-15.96484-6.30909-9.25782-6.30664-22.03223,0-21.23145,17.96094-35.92187,17.96044-14.68726,45.90039-14.68848,29.373,0,47.65625,15.167,18.27978,15.16992,18.28027,38.7959H927.69971q0-12.1311-10.29785-20.91455Q907.104,156.08569,891.4585,156.083q-16.12794,0-25.22559,7.02441a22.11621,22.11621,0,0,0-9.09961,18.36035q0,10.69776,8.46094,16.125,8.46093,5.42871,30.57422,10.377,22.11034,4.95117,35.84179,11.81445,13.72852,6.86573,20.35547,16.52441,6.624,9.66064,6.626,23.54883,0,23.1504-18.51953,37.11914-18.52294,13.97169-48.05567,13.96973-20.75684,0-36.7207-7.34375-15.96533-7.34179-24.98535-20.51563a49.44,49.44,0,0,1-9.02051-28.498h29.53613q.79688,14.84765,11.89356,23.54883,11.09472,8.70263,29.29687,8.70117,16.76369,0,26.90137-6.78516Q929.45459,273.26855,929.45557,261.93262Z"/><path class="cls-1" d="M1069.15234,310.94629q-35.12549,0-57.15625-23.07031-22.0327-23.06837-22.03222-61.70606v-5.42773q0-25.70361,9.81836-45.8999,9.81884-20.19507,27.46093-31.61133a69.04959,69.04959,0,0,1,38.23633-11.41553q33.68555,0,52.36621,22.19189,18.67969,22.19312,18.67969,63.54151v12.29394H1019.5q.63574,25.54542,14.92773,41.26953,14.28663,15.728,36.32032,15.72657,15.646,0,26.50293-6.38672a66.59487,66.59487,0,0,0,18.999-16.92285l18.04,14.0498Q1112.57666,310.94825,1069.15234,310.94629ZM1065.47949,156.083a39.3965,39.3965,0,0,0-30.01465,13.01172q-12.13476,13.0144-15.00683,36.48047h86.53222v-2.23536q-1.28027-22.51025-12.13378-34.88379Q1083.99756,156.08545,1065.47949,156.083Z"/><path class="cls-1" d="M1254.18945,161.51123a88.669,88.669,0,0,0-14.52832-1.11768q-29.05956,0-39.43359,24.7461V307.75293h-29.53613V135.00879h28.7373l.47949,19.95654q14.5254-23.14746,41.19043-23.1499,8.62061,0,13.09082,2.23535Z"/><path class="cls-1" d="M1329.38672,93.17969v41.8291h32.25v22.83008h-32.25V265.10059q0,10.39159,4.31055,15.58593,4.30956,5.19434,14.6875,5.19434a71.52478,71.52478,0,0,0,14.0498-1.916v23.8086a86.14418,86.14418,0,0,1-22.6709,3.17285q-19.79736,0-29.85547-11.97363-10.05762-11.9751-10.05761-34.00684v-107.127h-31.45215V135.00879h31.45215V93.17969Z"/><path class="cls-1" d="M1396.28125,89.188a17.623,17.623,0,0,1,4.39063-12.1333q4.39012-4.94678,13.01171-4.94922,8.62207,0,13.0918,4.94922a17.4531,17.4531,0,0,1,4.4707,12.1333,16.87734,16.87734,0,0,1-4.4707,11.97412q-4.47216,4.79-13.0918,4.78955-8.62061,0-13.01171-4.78955A17.03824,17.03824,0,0,1,1396.28125,89.188Zm31.93066,218.56494h-29.53515V135.00879h29.53515Z"/><path class="cls-1" d="M1621.71191,223.29688q0,39.59619-18.20019,63.62109-18.20068,24.03077-48.85449,24.02832-32.729,0-50.60938-23.14941l-1.4375,19.95605h-27.14062V62.52588h29.53613v91.48144q17.87841-22.18944,49.332-22.19189,31.45166,0,49.41309,23.78857,17.96044,23.79054,17.96093,65.13819Zm-29.53613-3.35254q0-30.17579-11.6543-46.61914-11.65575-16.44141-33.52734-16.44385-29.21631,0-41.98828,27.14062v74.71729q13.56738,27.14355,42.30762,27.1416,21.23143,0,33.04785-16.44434Q1592.17529,252.99513,1592.17578,219.94434Z"/><path class="cls-1" d="M1691.001,307.75293h-29.53516V62.52588H1691.001Z"/><path class="cls-1" d="M1809.94336,310.94629q-35.12548,0-57.15625-23.07031-22.03272-23.06837-22.03223-61.70606v-5.42773q0-25.70361,9.81836-45.8999,9.81885-20.19507,27.46094-31.61133a69.04959,69.04959,0,0,1,38.23633-11.41553q33.68555,0,52.36621,22.19189,18.67968,22.19312,18.67969,63.54151v12.29394H1760.291q.63573,25.54542,14.92773,41.26953,14.28661,15.728,36.32031,15.72657,15.646,0,26.50293-6.38672a66.5949,66.5949,0,0,0,18.999-16.92285l18.04,14.0498Q1853.36768,310.94825,1809.94336,310.94629ZM1806.27051,156.083a39.3965,39.3965,0,0,0-30.01465,13.01172q-12.13476,13.0144-15.00684,36.48047h86.53223v-2.23536q-1.28028-22.51025-12.13379-34.88379Q1824.78857,156.08545,1806.27051,156.083Z"/></g></g></g></svg>