<?xml version="1.0" encoding="UTF-8"?>
<!DOCTYPE svg PUBLIC "-//W3C//DTD SVG 1.1//EN" "http://www.w3.org/Graphics/SVG/1.1/DTD/svg11.dtd">

<!-- SVG created by Florian Albrecht; http://de.wikipedia.org/wiki/Benutzer:Flo12 -->
<!-- Rings created using proton32 text editor. Text vectorized using CorelDRAW -->

<svg xmlns="http://www.w3.org/2000/svg" xmlns:xlink="http://www.w3.org/1999/xlink" 
xml:space="preserve" width="295mm" height="180mm" 
style="shape-rendering:geometricPrecision; text-rendering:geometricPrecision; image-rendering:optimizeQuality; fill-rule:evenodd; clip-rule:evenodd"
viewBox="0 0 295 180">
 <defs>
    <style type="text/css">
     <![CDATA[
      .str0 {stroke:black;stroke-width:0.0762}
      .str1 {stroke:white;stroke-width:0.1}
      .fil2 {fill:white}
      .fil0 {fill:url(#id0)}
      .fil1 {fill:url(#id1)}
      .char {fill:#ff0024}
     ]]>
    </style>
    <linearGradient id="id0" gradientUnits="objectBoundingBox" x1="0" y1="0" x2="1" y2="1">
     <stop offset="0" style="stop-color:#101010"/>
     <stop offset="0.9" style="stop-color:white"/>
     <stop offset="1" style="stop-color:white"/>
    </linearGradient>
    <linearGradient id="id1" gradientUnits="objectBoundingBox" x1="0" y1="0" x2="1" y2="1">
     <stop offset="0" style="stop-color:white"/>
     <stop offset="0.1" style="stop-color:white"/>
     <stop offset="1" style="stop-color:#101010"/>
    </linearGradient>
  
    <clipPath id="RingClip">
      <path d="M 4,10 h82 v19 h-37 v63 h37 v20 h-82 z" />
      <rect x="86" y="29" width="30" height="63" />
    </clipPath>
  
    <g id="AudiRing">
        <path id="InnerRing" class="fil0 str0" d="M 5,60.5 a 50,50 0 1 1 0,0.01 m 11,0 a 39,39 0 1 1 0,0.01" fill-rule="evenodd" />
        <path id="OuterRing" class="fil1 str0" d="M 5,60.5 a 50,50 0 1 1 0,0.01 m 6,0 a 44,44 0 1 1 0,0.01" fill-rule="evenodd" />
        <path id="RingFront" class="fil2 str1" d="M 10,60.5 a 45,45 0 1 1 0,0.01 m 1.1,0 a 43.9,43.9 0 1 1 0,0.01" fill-rule="evenodd" />
    </g>
  </defs>

  <!-- Rings -->
  <use xlink:href="#AudiRing" transform="translate(186,0)" />
  <use xlink:href="#AudiRing" clip-path="url(#RingClip)" transform="translate(124,0)" />
  <use xlink:href="#AudiRing" clip-path="url(#RingClip)" transform="translate(62,0)" />
  <use xlink:href="#AudiRing" clip-path="url(#RingClip)" />
  
  <!-- Text -->
  <path id="A" class="char" d="M50 177l-17 0 30 -45 -6 -7 20 0 35 52 -18 0 -5 -8 -34 0 -5 8z m33 -18l-11 -18 -11 18 22 0z"/>
  <path id="U" class="char" d="M143 160l0 -20.5 15.5 0 0 23c-0.0453,12.9748 -12.5567,16 -24.5,16 -11.9433,0 -24.4621,-5.158 -24.5,-16l0 -23 15.5 0 0 20.5c0,5.5 2.87,8.5 9,8.5 6.1304,0 9,-2.62 9,-8.5z"/>
  <path id="D" class="char" d="M183 125l18.5 0 12.5 16c4.2928,5.4947 7.4616,10.5223 7.5,17 0.086,14.4996 -14,20.5 -29.5,20.5 -17.5,0 -30,-7.5 -30,-20.5 0,-12 12,-19.5 27,-19.5 3.5,0 5.5,0.5 8,1.5l-14 -15zm9 23c8.0068,0 14.5,4.59 14.5,10.25 0,5.66 -6.4932,10.25 -14.5,10.25 -8.0068,0 -14.5,-4.59 -14.5,-10.25 0,-5.66 6.4932,-10.25 14.5,-10.25z" fill-rule="evenodd"/>
  <rect id="I" class="char" x="225.5" y="139.5" width="16" height="37.5"/>
  
</svg>