<?xml version="1.0" encoding="UTF-8" standalone="no" ?>
<!DOCTYPE svg PUBLIC "-//W3C//DTD SVG 1.1//EN" "http://www.w3.org/Graphics/SVG/1.1/DTD/svg11.dtd">
<svg xmlns="http://www.w3.org/2000/svg" xmlns:xlink="http://www.w3.org/1999/xlink" version="1.1" width="640" height="480" viewBox="0 0 640 480" xml:space="preserve">
<desc>Created with Fabric.js 3.6.3</desc>
<defs>
</defs>
<g transform="matrix(18.11 0 0 15.2 162.99 136.8)"  >
<g style=""   >
		<g transform="matrix(1 0 0 1 0 0.01)"  >
<linearGradient id="SVGID_7" gradientUnits="userSpaceOnUse" gradientTransform="matrix(1 0 0 1 0 0)"  x1="9" y1="16.82" x2="9" y2="1.18">
<stop offset="0%" style="stop-color:rgb(25,138,179);stop-opacity: 1"/>
<stop offset="9%" style="stop-color:rgb(31,157,196);stop-opacity: 1"/>
<stop offset="24%" style="stop-color:rgb(40,181,217);stop-opacity: 1"/>
<stop offset="40%" style="stop-color:rgb(45,198,233);stop-opacity: 1"/>
<stop offset="56.99999999999999%" style="stop-color:rgb(49,209,242);stop-opacity: 1"/>
<stop offset="78%" style="stop-color:rgb(50,212,245);stop-opacity: 1"/>
</linearGradient>
<path style="stroke: none; stroke-width: 1; stroke-dasharray: none; stroke-linecap: butt; stroke-dashoffset: 0; stroke-linejoin: miter; stroke-miterlimit: 4; fill: url(#SVGID_7); fill-rule: nonzero; opacity: 1;"  transform=" translate(-9, -9.01)" d="M 14.18 5.89 A 4.85 4.85 0 0 0 9.23 1.18 A 5 5 0 0 0 4.48 4.47 A 4.61 4.61 0 0 0 0.5 9 A 4.67 4.67 0 0 0 5.29 13.5 a 3 3 0 0 0 0.42 0 h 1.2 a 1.47 1.47 0 0 1 -0.11 -0.56 v 0 A 1.51 1.51 0 0 1 7 12.21 H 5.6 l -0.31 0 A 3.41 3.41 0 0 1 1.77 9 A 3.33 3.33 0 0 1 4.68 5.73 l 0.76 -0.12 l 0.25 -0.73 A 3.73 3.73 0 0 1 9.23 2.45 A 3.6 3.6 0 0 1 12.91 5.9 V 7 L 14 7.15 a 2.59 2.59 0 0 1 2.26 2.49 a 2.63 2.63 0 0 1 -2.62 2.54 h -0.15 l -0.08 0 h -1 A 3.92 3.92 0 0 0 8.54 9 a 0.64 0.64 0 1 0 0 1.27 a 2.65 2.65 0 0 1 0 5.29 a 0.64 0.64 0 1 0 0 1.27 a 3.92 3.92 0 0 0 3.87 -3.34 h 1.05 a 0.64 0.64 0 0 0 0.2 0 A 3.91 3.91 0 0 0 17.5 9.64 A 3.86 3.86 0 0 0 14.18 5.89 Z" stroke-linecap="round" />
</g>
		<g transform="matrix(1 0 0 1 -0.64 3.91)"  >
<linearGradient id="SVGID_8" gradientUnits="userSpaceOnUse" gradientTransform="matrix(1 0 0 1 -8.36 -12.91)"  x1="8.36" y1="11.35" x2="8.36" y2="14.46">
<stop offset="0%" style="stop-color:rgb(198,154,235);stop-opacity: 1"/>
<stop offset="100%" style="stop-color:rgb(111,75,178);stop-opacity: 1"/>
</linearGradient>
<rect style="stroke: none; stroke-width: 1; stroke-dasharray: none; stroke-linecap: butt; stroke-dashoffset: 0; stroke-linejoin: miter; stroke-miterlimit: 4; fill: url(#SVGID_8); fill-rule: nonzero; opacity: 1;"  x="-1.56" y="-1.56" rx="1.54" ry="1.54" width="3.12" height="3.12" />
</g>
</g>
</g>
<g transform="matrix(1 0 0 1 47 308)"  >
<line style="stroke: rgb(0,0,0); stroke-width: 2; stroke-dasharray: none; stroke-linecap: butt; stroke-dashoffset: 0; stroke-linejoin: miter; stroke-miterlimit: 4; fill: rgb(0,0,0); fill-rule: nonzero; opacity: 1;"  x1="0" y1="0" x2="0" y2="0" />
</g>
<g transform="matrix(1 0 0 1 160 276.82)" style=""  >
		<text xml:space="preserve" font-family="'Open Sans', sans-serif" font-size="28" font-style="normal" font-weight="normal" style="stroke: none; stroke-width: 0; stroke-dasharray: none; stroke-linecap: butt; stroke-dashoffset: 0; stroke-linejoin: miter; stroke-miterlimit: 4; fill: rgb(0,0,0); fill-rule: nonzero; opacity: 1; white-space: pre;" ><tspan x="-157" y="8.8" >Azure API Management</tspan></text>
</g>
</svg>