<svg xmlns="http://www.w3.org/2000/svg" role="img" viewBox="-3.27 11.23 326.04 286.54"><path fill="#FFF" d="M0 0h640v480H0z"/><defs><linearGradient id="a" x1="9" x2="9" y1="16.82" y2="1.18" gradientTransform="scale(18.11 15.2)" gradientUnits="userSpaceOnUse"><stop offset="0" stop-color="#198AB3"/><stop offset=".09" stop-color="#1F9DC4"/><stop offset=".24" stop-color="#28B5D9"/><stop offset=".4" stop-color="#2DC6E9"/><stop offset=".57" stop-color="#31D1F2"/><stop offset=".78" stop-color="#32D4F5"/></linearGradient><linearGradient id="b" x1="8.36" x2="8.36" y1="11.35" y2="14.46" gradientTransform="scale(18.11 15.2)" gradientUnits="userSpaceOnUse"><stop offset="0" stop-color="#C69AEB"/><stop offset="1" stop-color="#6F4BB2"/></linearGradient></defs><path fill="url(#a)" d="M256.8 89.528c-1.382-40.479-41.407-72.444-89.645-71.592-38.409-.331-72.888 19.712-86.022 50.008-41.06 4.753-71.747 34.069-72.078 68.856 1.673 38.909 40.375 69.426 86.747 68.4 2.532.149 5.074.149 7.606 0h21.732c-1.32-2.701-1.997-5.593-1.992-8.512.065-3.897 1.312-7.715 3.622-11.096H95.802c-33.506.955-61.8-20.701-63.747-48.792.302-25.293 22.804-46.515 52.7-49.704l13.763-1.824 4.528-11.096c9.937-22.436 35.592-37.217 64.109-36.936 35.532-.688 65.174 22.636 66.645 52.44v16.72l19.74 2.28c22.873 2.457 40.225 18.503 40.929 37.848-.877 21.483-21.837 38.539-47.449 38.608h-22.275c-6.452-28.172-35.906-48.486-70.086-48.336-4.453-.47-8.829 1.26-11.233 4.441s-2.404 7.241 0 10.422c2.404 3.181 6.78 4.911 11.233 4.441 25.313 1.307 45.045 18.918 45.045 40.204s-19.732 38.897-45.045 40.204c-4.453-.47-8.829 1.26-11.233 4.441s-2.404 7.241 0 10.422c2.404 3.181 6.78 4.911 11.233 4.441 35.104-.052 64.892-21.629 70.086-50.768h19.016c1.199.159 2.422.159 3.622 0 38.192-.57 68.962-26.463 69.542-58.52-.642-28.816-26.124-52.973-60.125-57z"/><path fill="url(#b)" d="M151.037 172.52h.725c15.403 0 27.889 10.48 27.889 23.408v.608c0 12.928-12.486 23.408-27.889 23.408h-.725c-15.402 0-27.889-10.48-27.889-23.408v-.608c0-12.928 12.487-23.408 27.889-23.408z"/><path d="M15.441 277.39l-3.048-8.874-3.241 8.874zm-4.47-11.854h3.076l7.287 20.084h-2.98l-2.038-6.016H8.373l-2.174 6.016H3.41zm11.416 18.143l8.681-10.5h-8.039v-2.202h11.348v2.01l-8.627 10.432h8.887v2.201h-12.25zm17.554-12.702v9.721q0 1.121.356 1.832.656 1.313 2.447 1.313 2.57 0 3.5-2.297.506-1.231.506-3.377v-7.192h2.461v14.643h-2.324l.027-2.16q-.478.834-1.189 1.408-1.409 1.148-3.418 1.148-3.131 0-4.266-2.091-.615-1.121-.615-2.994v-9.954zm13.18 0h2.338v2.53q.287-.739 1.408-1.798 1.121-1.06 2.584-1.06.069 0 .233.014t.56.055v2.597q-.219-.041-.403-.054-.185-.014-.403-.014-1.86 0-2.858 1.196-.998 1.197-.998 2.755v8.422h-2.461zm15.354-.328q1.558 0 3.021.732 1.463.731 2.229 1.893.738 1.108.984 2.584.219 1.012.219 3.227H64.195q.069 2.228 1.053 3.575t3.049 1.347q1.928 0 3.076-1.272.656-.738.93-1.709h2.42q-.096.807-.636 1.798t-1.21 1.62q-1.121 1.094-2.775 1.477-.889.219-2.01.219-2.735 0-4.635-1.99-1.9-1.989-1.9-5.571 0-3.527 1.914-5.729 1.914-2.201 5.004-2.201zm3.923 6.481q-.15-1.6-.697-2.557-1.012-1.777-3.377-1.777-1.695 0-2.844 1.223-1.148 1.224-1.216 3.111zm22.436.26l-3.049-8.874-3.24 8.874zm-4.471-11.854h3.076l7.288 20.084h-2.981l-2.037-6.016h-7.943l-2.174 6.016h-2.789zm13.098 0h9.037q2.68 0 4.32 1.511 1.641 1.51 1.641 4.245 0 2.351-1.463 4.095-1.463 1.743-4.498 1.743h-6.316v8.49h-2.721zm12.25 5.77q0-2.215-1.641-3.008-.902-.424-2.474-.424h-5.414v6.959h5.414q1.832 0 2.973-.779 1.142-.78 1.142-2.748zm6.781-5.77h2.748v20.084h-2.748zm14.875 0h3.897l5.769 16.98 5.729-16.98h3.855v20.084h-2.584v-11.854q0-.615.028-2.037.027-1.422.027-3.048l-5.729 16.939h-2.693l-5.77-16.939v.615q0 .738.035 2.249.034 1.511.034 2.221v11.854h-2.598zm24.951 16.188q0 1.066.78 1.681.779.615 1.845.615 1.299 0 2.516-.601 2.051-.998 2.051-3.268v-1.982q-.451.287-1.162.478-.711.192-1.395.274l-1.49.191q-1.34.178-2.01.561-1.135.642-1.135 2.051zm5.961-4.977q.848-.109 1.135-.711.164-.328.164-.943 0-1.258-.895-1.826-.896-.567-2.564-.567-1.928 0-2.734 1.039-.451.574-.588 1.709H160.5q.068-2.707 1.757-3.766 1.688-1.06 3.917-1.06 2.584 0 4.197.984 1.6.985 1.6 3.063v8.435q0 .383.157.616.157.232.663.232.164 0 .369-.02.205-.021.438-.062v1.818q-.575.164-.875.205-.301.041-.821.041-1.271 0-1.845-.902-.301-.478-.424-1.353-.752.984-2.16 1.709-1.409.724-3.104.724-2.037 0-3.329-1.237-1.292-1.237-1.292-3.097 0-2.037 1.272-3.158 1.271-1.121 3.335-1.381zm7.725-5.77h2.338v2.079q1.039-1.286 2.201-1.846 1.162-.561 2.584-.561 3.117 0 4.211 2.174.601 1.19.601 3.404v9.393h-2.501v-9.229q0-1.339-.397-2.16-.656-1.367-2.379-1.367-.875 0-1.435.178-1.012.301-1.778 1.203-.615.725-.8 1.497-.184.773-.184 2.208v7.67h-2.461zm17.459 10.747q0 1.066.779 1.681t1.846.615q1.299 0 2.516-.601 2.05-.998 2.05-3.268v-1.982q-.451.287-1.162.478-.711.192-1.394.274l-1.491.191q-1.339.178-2.009.561-1.135.642-1.135 2.051zm5.961-4.977q.847-.109 1.135-.711.164-.328.164-.943 0-1.258-.896-1.826-.895-.567-2.563-.567-1.928 0-2.735 1.039-.451.574-.588 1.709h-2.296q.068-2.707 1.756-3.766 1.689-1.06 3.917-1.06 2.584 0 4.198.984 1.599.985 1.599 3.063v8.435q0 .383.157.616.158.232.664.232.164 0 .369-.02.205-.021.437-.062v1.818q-.574.164-.875.205-.301.041-.82.041-1.272 0-1.846-.902-.301-.478-.424-1.353-.752.984-2.16 1.709-1.408.724-3.103.724-2.037 0-3.329-1.237-1.292-1.237-1.292-3.097 0-2.037 1.271-3.158 1.272-1.121 3.336-1.381zm12.892-6.029q1.723 0 3.008.847.697.479 1.422 1.395v-1.846h2.27v13.317q0 2.789-.821 4.402-1.531 2.98-5.783 2.98-2.365 0-3.978-1.059-1.614-1.06-1.805-3.316h2.502q.178.985.711 1.518.834.82 2.625.82 2.83 0 3.705-1.996.519-1.176.478-4.197-.738 1.121-1.777 1.668-1.039.547-2.748.547-2.379 0-4.163-1.689-1.784-1.688-1.784-5.585 0-3.677 1.798-5.742 1.797-2.064 4.34-2.064zm4.43 7.519q0-2.721-1.121-4.033-1.121-1.313-2.857-1.313-2.598 0-3.555 2.434-.506 1.299-.506 3.404 0 2.475 1.005 3.767 1.005 1.292 2.7 1.292 2.652 0 3.733-2.393.601-1.353.601-3.158zm12.072-7.588q1.559 0 3.022.732 1.463.731 2.228 1.893.739 1.108.985 2.584.218 1.012.218 3.227h-10.732q.068 2.228 1.053 3.575.984 1.347 3.049 1.347 1.927 0 3.076-1.272.656-.738.929-1.709h2.42q-.095.807-.635 1.798t-1.21 1.62q-1.121 1.094-2.776 1.477-.888.219-2.009.219-2.735 0-4.635-1.99-1.901-1.989-1.901-5.571 0-3.527 1.914-5.729 1.915-2.201 5.004-2.201zm3.924 6.481q-.15-1.6-.697-2.557-1.012-1.777-3.377-1.777-1.695 0-2.844 1.223-1.148 1.224-1.217 3.111zm5.551-6.153h2.434v2.079q.875-1.081 1.585-1.573 1.217-.834 2.762-.834 1.75 0 2.817.862.601.492 1.093 1.449.821-1.176 1.928-1.743 1.108-.568 2.488-.568 2.954 0 4.02 2.133.574 1.149.574 3.09v9.748h-2.556v-10.172q0-1.463-.732-2.01-.731-.547-1.784-.547-1.449 0-2.495.971t-1.046 3.24v8.518h-2.502v-9.557q0-1.49-.356-2.173-.56-1.026-2.091-1.026-1.395 0-2.536 1.08-1.142 1.08-1.142 3.91v7.766h-2.461zm29.422-.328q1.558 0 3.021.732 1.463.731 2.229 1.893.738 1.108.984 2.584.219 1.012.219 3.227h-10.732q.068 2.228 1.052 3.575.985 1.347 3.049 1.347 1.928 0 3.076-1.272.657-.738.93-1.709h2.42q-.096.807-.636 1.798t-1.21 1.62q-1.121 1.094-2.775 1.477-.889.219-2.01.219-2.734 0-4.635-1.99-1.9-1.989-1.9-5.571 0-3.527 1.914-5.729 1.914-2.201 5.004-2.201zm3.924 6.481q-.151-1.6-.698-2.557-1.011-1.777-3.377-1.777-1.695 0-2.843 1.223-1.149 1.224-1.217 3.111zm5.55-6.153h2.338v2.079q1.039-1.286 2.202-1.846 1.162-.561 2.583-.561 3.118 0 4.211 2.174.602 1.19.602 3.404v9.393h-2.502v-9.229q0-1.339-.396-2.16-.657-1.367-2.379-1.367-.875 0-1.436.178-1.012.301-1.777 1.203-.615.725-.8 1.497-.185.773-.185 2.208v7.67h-2.461zm16.065-4.087h2.488v4.087h2.338v2.01h-2.338v9.557q0 .765.52 1.025.287.151.957.151.177 0 .383-.007.205-.007.478-.034v1.941q-.424.123-.882.178-.458.054-.991.054-1.723 0-2.338-.881-.615-.882-.615-2.29v-9.694h-1.983v-2.01h1.983z"/></svg>