<?xml version="1.0" encoding="utf-8"?>
<!-- Generator: Adobe Illustrator 22.1.0, SVG Export Plug-In . SVG Version: 6.00 Build 0)  -->
<svg version="1.1" id="Layer_1" xmlns="http://www.w3.org/2000/svg" xmlns:xlink="http://www.w3.org/1999/xlink" x="0px" y="0px"
	 viewBox="0 0 1280 1024" style="enable-background:new 0 0 1280 1024;" xml:space="preserve">
<style type="text/css">
	.st0{clip-path:url(#SVGID_2_);fill:#2A4E82;}
	.st1{clip-path:url(#SVGID_4_);fill:#2A4F82;}
	.st2{clip-path:url(#SVGID_6_);fill:#2A4F82;}
	.st3{clip-path:url(#SVGID_8_);fill:#2A4F82;}
	.st4{clip-path:url(#SVGID_10_);fill:#2A4F82;}
	.st5{clip-path:url(#SVGID_12_);fill:#2A4F82;}
	.st6{clip-path:url(#SVGID_14_);fill:#2A4F82;}
	.st7{clip-path:url(#SVGID_16_);fill:#2A4F82;}
	.st8{clip-path:url(#SVGID_18_);fill:#2A4F82;}
</style>
<g>
	<defs>
		<path id="SVGID_1_" d="M632.8,183.2c13.2-13.2,34.6-13.2,47.8,0l3.8,3.8c9.8,13.2,8.7,32-3.3,43.9l-24.2,24.2L632.8,231
			C619.6,217.8,619.6,196.4,632.8,183.2z M656.9,381.6l-52.7,52.3c-10.2,10.2-26.9,10.2-37.2,0c-10.3-10.1-10.3-26.7,0-36.9
			l55.8-55.4l-55.8-55.4c-10.3-10.1-10.3-26.7,0-36.9c10.2-10.2,26.9-10.2,37.2,0l52.6,52.3l52.7-52.3c10.2-10.2,26.9-10.2,37.2,0
			c10.3,10.1,10.3,26.7,0,36.9l-55.8,55.4l55.8,55.4c10.3,10.1,10.3,26.7,0,36.9c-10.2,10.2-26.9,10.2-37.2,0L656.9,381.6z"/>
	</defs>
	<clipPath id="SVGID_2_">
		<use xlink:href="#SVGID_1_"  style="overflow:visible;"/>
	</clipPath>
	<rect x="522.9" y="136.8" class="st0" width="268.1" height="341.2"/>
</g>
<g>
	<defs>
		<path id="SVGID_3_" d="M201.3,673.5c21.3,0,34.4-8.5,34.4-24.4v-0.5c0-15.1-12-23.9-36.6-23.9h-49.6v48.9H201.3z M192.2,598
			c20.1,0,33.5-8,33.5-24.3v-0.5c0-14.1-11.2-22.7-31.3-22.7h-45v47.3h42.8V598z M118.5,538.6c0-9,6.9-15.8,15.7-15.8h64.2
			c20.3,0,36.4,5.6,46.6,15.8c8,8,12,17.6,12,29.5v0.5c0,21.4-12.2,32.9-25.4,39.7c20.8,7.1,35.4,19.2,35.4,43.3v0.5
			c0,31.9-26.2,48.9-65.9,48.9h-66.7c-9,0-15.7-7-15.7-15.8L118.5,538.6z"/>
	</defs>
	<clipPath id="SVGID_4_">
		<use xlink:href="#SVGID_3_"  style="overflow:visible;"/>
	</clipPath>
	<rect x="81.4" y="485.7" class="st1" width="222.7" height="252.4"/>
</g>
<g>
	<defs>
		<path id="SVGID_5_" d="M389.8,626.6c-2.1-19.6-13.9-35-34.5-35c-19.1,0-32.5,14.4-35.4,35H389.8z M358.9,705.4
			c-39.5,0-69.9-28-69.9-69v-0.5c0-38,27.7-69.2,66.7-69.2c43.3,0,64.8,34.7,64.8,65.5c0,8.5-6.7,14.6-14.8,14.6h-85.4
			c3.4,21.6,19.1,33.7,39.2,33.7c13.2,0,23.5-4.5,32.3-11.6c2.4-1.8,4.5-2.8,8.1-2.8c7,0,12.4,5.4,12.4,12.4c0,3.9-1.9,7-4.1,9.4
			C395.4,698.5,380,705.4,358.9,705.4z"/>
	</defs>
	<clipPath id="SVGID_6_">
		<use xlink:href="#SVGID_5_"  style="overflow:visible;"/>
	</clipPath>
	<rect x="252.4" y="530.1" class="st2" width="204.4" height="211.7"/>
</g>
<g>
	<defs>
		<path id="SVGID_7_" d="M453.4,665.9v-71h-5.1c-7.5,0-13.3-5.9-13.3-13.3c0-7.3,6-13.3,13.3-13.3h5.1v-22.9c0-8.5,7-15.3,15.7-15.3
			c8.5,0,15.4,7,15.4,15.3v22.9h24.4c7.5,0,13.7,5.9,13.7,13.3c0,7.3-6.1,13.3-13.7,13.3h-24.4V661c0,12.1,6.1,16.8,16.7,16.8
			c3.6,0,6.7-0.8,7.7-0.8c7,0,13.2,5.6,13.2,12.7c0,5.6-3.9,10.2-8.2,12.1c-6.7,2.4-13.2,3.6-21.3,3.6
			C469.6,705.5,453.4,695.7,453.4,665.9z"/>
	</defs>
	<clipPath id="SVGID_8_">
		<use xlink:href="#SVGID_7_"  style="overflow:visible;"/>
	</clipPath>
	<rect x="398.5" y="493.6" class="st3" width="160.6" height="248.2"/>
</g>
<g>
	<defs>
		<path id="SVGID_9_" d="M555.6,665.9v-71h-5.1c-7.5,0-13.3-5.9-13.3-13.3c0-7.3,6-13.3,13.3-13.3h5.1v-22.9c0-8.5,7-15.3,15.7-15.3
			c8.5,0,15.4,7,15.4,15.3v22.9h24.4c7.5,0,13.7,5.9,13.7,13.3c0,7.3-6.1,13.3-13.7,13.3h-24.4V661c0,12.1,6.1,16.8,16.7,16.8
			c3.6,0,6.7-0.8,7.7-0.8c7,0,13.2,5.6,13.2,12.7c0,5.6-3.9,10.2-8.2,12.1c-6.7,2.4-13.2,3.6-21.3,3.6
			C571.8,705.5,555.6,695.7,555.6,665.9z"/>
	</defs>
	<clipPath id="SVGID_10_">
		<use xlink:href="#SVGID_9_"  style="overflow:visible;"/>
	</clipPath>
	<rect x="500.7" y="493.6" class="st4" width="160.6" height="248.2"/>
</g>
<g>
	<defs>
		<path id="SVGID_11_" d="M733.1,626.6c-2.1-19.6-13.9-35-34.5-35c-19.1,0-32.5,14.4-35.4,35H733.1z M702,705.4
			c-39.5,0-69.9-28-69.9-69v-0.5c0-38,27.7-69.2,66.7-69.2c43.3,0,64.8,34.7,64.8,65.5c0,8.5-6.7,14.6-14.8,14.6h-85.4
			c3.4,21.6,19.1,33.7,39.2,33.7c13.2,0,23.5-4.5,32.3-11.6c2.4-1.8,4.5-2.8,8.1-2.8c7,0,12.4,5.4,12.4,12.4c0,3.9-1.9,7-4.1,9.4
			C738.8,698.5,723.3,705.4,702,705.4z"/>
	</defs>
	<clipPath id="SVGID_12_">
		<use xlink:href="#SVGID_11_"  style="overflow:visible;"/>
	</clipPath>
	<rect x="595.6" y="530.1" class="st5" width="204.4" height="211.7"/>
</g>
<g>
	<defs>
		<path id="SVGID_13_" d="M785.4,582.5c0-8.7,6.6-15.7,15.3-15.7c8.7,0,15.7,7,15.7,15.7v13.9c7.1-16.9,20.4-29.8,34-29.8
			c9.7,0,15.3,6.5,15.3,15.4c0,8.2-5.4,13.7-12.3,14.9c-22,3.9-37.1,20.9-37.1,53v40c0,8.6-7,15.4-15.7,15.4
			c-8.5,0-15.3-6.7-15.3-15.4V582.5z"/>
	</defs>
	<clipPath id="SVGID_14_">
		<use xlink:href="#SVGID_13_"  style="overflow:visible;"/>
	</clipPath>
	<rect x="748.9" y="530.1" class="st6" width="153.3" height="211.7"/>
</g>
<g>
	<defs>
		<path id="SVGID_15_" d="M955.7,617c23.8,0,38.6-13.4,38.6-32.4v-0.5c0-21.2-15.1-32.4-38.6-32.4h-36.6V617H955.7z M887.6,538.8
			c0-9.1,7-16,15.8-16h54.8c41.9,0,68.1,24.1,68.1,60.6v0.5c0,40.6-32.2,61.8-71.7,61.8h-35.6v43.7c0,8.8-7,15.8-15.7,15.8
			c-9,0-15.8-7.1-15.8-15.8V538.8z"/>
	</defs>
	<clipPath id="SVGID_16_">
		<use xlink:href="#SVGID_15_"  style="overflow:visible;"/>
	</clipPath>
	<rect x="851.1" y="486.3" class="st7" width="211.7" height="255.5"/>
</g>
<g>
	<defs>
		<path id="SVGID_17_" d="M1098.3,552.4h-42.9c-8.1,0-14.5-6.7-14.5-14.8c0-8.1,6.4-14.8,14.5-14.8h117.5c7.9,0,14.1,6.7,14.1,14.8
			c0,8.1-6.4,14.8-14.1,14.8h-43.2v137.1c0,8.8-7.1,15.8-15.6,15.8s-15.6-7.1-15.6-15.8V552.4H1098.3z"/>
	</defs>
	<clipPath id="SVGID_18_">
		<use xlink:href="#SVGID_17_"  style="overflow:visible;"/>
	</clipPath>
	<rect x="1004.5" y="486.3" class="st8" width="219" height="255.5"/>
</g>
</svg>
