<svg xmlns="http://www.w3.org/2000/svg" role="img" viewBox="-17.36 -17.36 902.72 325.72"><defs><clipPath id="clip-path"><path d="M207.24 82.21l41.1-41.11H78.78v41.11h128.46z" class="cls-1"/></clipPath><clipPath id="clip-path-2"><path d="M39.39 250.05l41.53-42.13h126.3l1.66 42.19-169.49-.06z" class="cls-1"/></clipPath><clipPath id="clip-path-3"><path d="M41.1 0L0 41.58v249.54l248.34.04V41.1l-41.11 41.11v167.83H41.1V0z" class="cls-1"/></clipPath><clipPath id="clip-path-4"><path d="M41.1 250.05l41.12-42.13V41.1l166.12.01v250.05l42.82-41.12V0H41.1v250.05z" class="cls-1"/></clipPath><style>.cls-1{fill:none}.cls-3{fill:#0f1c30}.cls-8{fill:#3d4597}</style></defs><g clip-path="url(#clip-path)"><path d="M70.22 32.54h186.69v58.23H70.22z" class="cls-3"/></g><g clip-path="url(#clip-path-2)"><path d="M30.83 199.36h186.61v59.32H30.83z" class="cls-3"/></g><g clip-path="url(#clip-path-3)"><path fill="#d81f34" d="M-8.56-8.56h265.47v308.28H-8.56z"/></g><g clip-path="url(#clip-path-4)"><path d="M32.54-8.56h267.18v308.28H32.54z" class="cls-8"/></g><path d="M333.67 250.67V41.83h109.9c39.77 0 60.12 25.36 60.12 53.23 0 26-16.28 43.83-36 47.9 22.55 3.45 40.08 25 40.08 51 0 31.62-20.66 56.67-60.74 56.67zm124.43-147c0-12.39-9.07-21.15-23.57-21.15h-57.77v42.3h57.77c14.47-.02 23.57-8.18 23.57-21.17zm3.9 82.66c0-12.36-8.83-22.37-25-22.37h-60.24v44.74H437c15.58-.02 25-8.26 25-22.39zm111.33 63.82V82.53h-61.82v-40.7h166.58v40.7h-62v167.62zm126.98 0V41.83H798c45.4 0 70.14 30.68 70.14 67.32 0 36.32-25 67-70.14 67h-55.21v74zm122.38-140.24c0-17.06-13.09-27.41-30.15-27.41h-49.75V137h49.75c17.06 0 30.15-10.34 30.15-27.09z" class="cls-8"/></svg>