<?xml version="1.0" encoding="UTF-8" standalone="no"?>
<!-- Created with Inkscape (http://www.inkscape.org/) -->

<svg
   xmlns:dc="http://purl.org/dc/elements/1.1/"
   xmlns:cc="http://creativecommons.org/ns#"
   xmlns:rdf="http://www.w3.org/1999/02/22-rdf-syntax-ns#"
   xmlns:svg="http://www.w3.org/2000/svg"
   xmlns="http://www.w3.org/2000/svg"
   xmlns:sodipodi="http://sodipodi.sourceforge.net/DTD/sodipodi-0.dtd"
   xmlns:inkscape="http://www.inkscape.org/namespaces/inkscape"
   width="636.7973"
   height="87.391731"
   viewBox="0 0 168.48595 23.122395"
   version="1.1"
   id="svg8"
   inkscape:version="0.92.0 r15299"
   sodipodi:docname="braintree.svg">
  <defs
     id="defs2" />
  <sodipodi:namedview
     id="base"
     pagecolor="#ffffff"
     bordercolor="#666666"
     borderopacity="1.0"
     inkscape:pageopacity="0.0"
     inkscape:pageshadow="2"
     inkscape:zoom="0.35"
     inkscape:cx="317.39866"
     inkscape:cy="42.695874"
     inkscape:document-units="mm"
     inkscape:current-layer="layer1"
     showgrid="false"
     fit-margin-top="0"
     fit-margin-left="0"
     fit-margin-right="0"
     fit-margin-bottom="0"
     units="px"
     inkscape:window-width="1280"
     inkscape:window-height="744"
     inkscape:window-x="-4"
     inkscape:window-y="-4"
     inkscape:window-maximized="1" />
  <metadata
     id="metadata5">
    <rdf:RDF>
      <cc:Work
         rdf:about="">
        <dc:format>image/svg+xml</dc:format>
        <dc:type
           rdf:resource="http://purl.org/dc/dcmitype/StillImage" />
        <dc:title></dc:title>
      </cc:Work>
    </rdf:RDF>
  </metadata>
  <g
     inkscape:label="Layer 1"
     inkscape:groupmode="layer"
     id="layer1"
     transform="translate(107.41292,-137.00756)">
    <g
       transform="matrix(0.35277777,0,0,-0.35277777,-107.14834,159.86537)"
       inkscape:label="ink_ext_XXXXXX"
       id="g58"
       style="fill:#000000">
      <g
         transform="scale(0.1)"
         id="g60"
         style="fill:#000000">
        <path
           inkscape:connector-curvature="0"
           id="path62"
           style="fill:#000000;fill-opacity:1;fill-rule:nonzero;stroke:none"
           d="M 155.465,96.7969 H 266.934 C 352.98,96.7969 396,125.156 396,179.91 c 0,53.77 -45.957,83.106 -135.91,83.106 H 155.465 Z m 0,400.8871 V 343.191 h 97.781 c 73.332,0 111.465,27.383 111.465,77.247 0,50.851 -39.109,77.246 -112.445,77.246 z M 0,13.6797 V 96.7969 H 65.5117 V 497.684 H 0 v 83.117 h 262.047 c 120.262,0 193.598,-55.735 193.598,-152.539 0,-63.555 -37.153,-102.668 -84.086,-121.242 67.464,-18.582 115.375,-66.493 115.375,-132 C 486.934,71.375 406.758,13.6797 275.73,13.6797 H 0" />
        <path
           inkscape:connector-curvature="0"
           id="path64"
           style="fill:#000000;fill-opacity:1;fill-rule:nonzero;stroke:none"
           d="m 962.156,308.973 c -9.777,33.242 -34.222,52.804 -66.488,52.804 C 820.383,361.777 749,306.043 749,204.355 V 96.7969 H 893.715 V 13.6797 H 571.047 v 83.1172 h 91.906 V 347.109 h -72.351 v 83.114 h 157.421 v -70.399 c 26.403,48.887 80.18,84.082 151.555,84.082 80.184,0 130.042,-45.957 144.712,-111.465 l -82.134,-23.468" />
        <path
           inkscape:connector-curvature="0"
           id="path66"
           style="fill:#000000;fill-opacity:1;fill-rule:nonzero;stroke:none"
           d="m 1402.18,181.863 c -27.38,9.778 -68.45,17.598 -106.58,17.598 -54.76,0 -107.56,-17.598 -107.56,-67.469 0,-37.1482 33.24,-54.7576 79.2,-54.7576 63.56,0 134.94,34.2306 134.94,92.8906 z m 0,74.309 v 23.465 c 0,58.672 -46.94,83.117 -97.78,83.117 -47.91,0 -88.98,-19.563 -122.23,-49.863 l -56.71,61.589 c 39.12,36.184 94.85,69.426 178.94,69.426 104.62,0 185.78,-55.734 185.78,-161.328 V 96.7969 h 60.62 V 13.6797 H 1402.18 V 57.6836 C 1379.69,21.5039 1319.07,0 1259.42,0 c -86.05,0 -160.36,43.9922 -160.36,131.016 0,102.664 100.72,141.777 192.62,141.777 44.99,0 82.14,-8.801 110.5,-16.621" />
        <path
           inkscape:connector-curvature="0"
           id="path68"
           style="fill:#000000;fill-opacity:1;fill-rule:nonzero;stroke:none"
           d="m 1912.6,513.328 h -96.8 v 127.11 h 96.8 z M 2072.96,96.7969 V 13.6797 h -420.45 v 83.1172 h 174.05 V 347.109 h -132.98 v 83.114 H 1912.6 V 96.7969 h 160.36" />
        <path
           inkscape:connector-curvature="0"
           id="path70"
           style="fill:#000000;fill-opacity:1;fill-rule:nonzero;stroke:none"
           d="m 2176.63,96.7969 h 63.55 V 347.109 h -59.65 v 83.114 h 144.72 v -53.778 c 25.42,41.063 78.22,67.461 142.75,67.461 92.89,0 159.38,-58.664 159.38,-153.508 V 96.7969 h 63.56 V 13.6797 h -216.09 v 83.1172 h 66.49 V 266.934 c 0,72.351 -44,92.89 -84.09,92.89 -65.52,0 -131.02,-48.898 -131.02,-124.179 V 96.7969 h 66.48 V 13.6797 h -216.08 v 83.1172" />
        <path
           inkscape:connector-curvature="0"
           id="path72"
           style="fill:#000000;fill-opacity:1;fill-rule:nonzero;stroke:none"
           d="m 2809.27,347.109 h -108.53 v 83.114 h 108.53 v 150.578 h 86.04 V 430.223 h 202.4 v -83.114 h -202.4 V 172.09 c 0,-64.543 44.98,-90.9377 96.8,-90.9377 48.89,0 89.96,27.3707 120.27,57.6837 l 57.69,-59.6368 C 3131.94,38.125 3073.27,0 2992.11,0 2887.49,0 2809.27,57.6836 2809.27,169.148 v 177.961" />
        <path
           inkscape:connector-curvature="0"
           id="path74"
           style="fill:#000000;fill-opacity:1;fill-rule:nonzero;stroke:none"
           d="m 3639.42,308.973 c -9.78,33.242 -34.22,52.804 -66.49,52.804 -75.28,0 -146.67,-55.734 -146.67,-157.422 V 96.7969 h 144.72 V 13.6797 h -322.67 v 83.1172 h 91.91 V 347.109 h -72.35 v 83.114 h 157.42 v -70.399 c 26.4,48.887 80.18,84.082 151.56,84.082 80.18,0 130.04,-45.957 144.71,-111.465 l -82.14,-23.468" />
        <path
           inkscape:connector-curvature="0"
           id="path76"
           style="fill:#000000;fill-opacity:1;fill-rule:nonzero;stroke:none"
           d="m 3871.18,264.969 h 256.17 c -12.71,59.648 -65.51,99.738 -124.17,99.738 -66.5,0 -117.34,-41.066 -132,-99.738 z M 4218.29,77.2344 C 4175.27,32.2656 4099,0 4013.93,0 c -139.82,0 -237.6,93.8672 -237.6,221.953 0,128.086 94.85,221.953 226.85,221.953 131.02,0 222.93,-100.715 222.93,-237.597 v -14.668 h -358.84 c 14.66,-69.426 72.35,-111.4652 147.64,-111.4652 62.58,0 116.35,25.4182 145.69,57.6832 l 57.69,-60.6246" />
        <path
           inkscape:connector-curvature="0"
           id="path78"
           style="fill:#000000;fill-opacity:1;fill-rule:nonzero;stroke:none"
           d="m 4406.04,264.969 h 256.18 c -12.71,59.648 -65.51,99.738 -124.18,99.738 -66.48,0 -117.33,-41.066 -132,-99.738 z M 4753.16,77.2344 C 4710.13,32.2656 4633.87,0 4548.8,0 c -139.82,0 -237.6,93.8672 -237.6,221.953 0,128.086 94.84,221.953 226.84,221.953 131.03,0 222.94,-100.715 222.94,-237.597 v -14.668 h -358.85 c 14.67,-69.426 72.36,-111.4652 147.65,-111.4652 62.58,0 116.35,25.4182 145.69,57.6832 l 57.69,-60.6246" />
      </g>
    </g>
  </g>
</svg>
