<svg xmlns="http://www.w3.org/2000/svg" width="327px" height="92px" viewBox="0 0 326.39 91.54"><defs><style>.cls-1{fill:#071d3e}</style></defs><g id="Layer_2" data-name="Layer 2"><g id="Layer_2-2" data-name="Layer 2"><path class="cls-1" d="M92.6 0a3.88 3.88 0 0 1 3.88 3.88v38.54c0 13 6.9 19.33 15.19 19.33 9.27 0 15.78-6.8 15.78-16.47S121.24 29 111.87 29a19.39 19.39 0 0 0-6.64 1.4 3.88 3.88 0 0 1-5.3-3.6v-.33a3.87 3.87 0 0 1 2.29-3.55 27.38 27.38 0 0 1 11.13-2.21c12.13 0 22.79 10.26 22.79 23.48 0 14-9.08 25.85-24.47 25.85C97.76 70 87.8 59.58 87.8 44V3.88A3.88 3.88 0 0 1 91.68 0zM148.62 21.7h.53a3.88 3.88 0 0 1 3.85 3.88v1.55h.2c3-4.64 6.48-6.16 12.82-6.42.83 0 2-.19 2.49.66 1 1.83.8 5.8-.28 7.35a.81.81 0 0 1-.6.28h-.92c-8.38 0-13.31 5.13-13.31 18v18.17a3.88 3.88 0 0 1-3.88 3.88h-.93a3.88 3.88 0 0 1-3.88-3.88V25.58a3.88 3.88 0 0 1 3.91-3.88zM181.68 5.92a5.07 5.07 0 0 1 5.22 5.23 5.23 5.23 0 0 1-10.45 0 5.07 5.07 0 0 1 5.23-5.23zm-4.35 59.25V25.58a3.88 3.88 0 0 1 3.88-3.88h.93a3.88 3.88 0 0 1 3.86 3.88v39.59a3.88 3.88 0 0 1-3.88 3.88h-.93a3.88 3.88 0 0 1-3.86-3.88zM230.14 64.43a3.91 3.91 0 0 1-2.43 3.6A24.93 24.93 0 0 1 219 70c-13.82 0-24.47-10.22-24.47-24 0-14.21 9.66-25.26 24.46-25.26 14.4 0 23.28 11.65 23.28 23.48V65.3c0 17.76-10.85 26.24-24.76 26.24a46.16 46.16 0 0 1-11.93-1.66 3.86 3.86 0 0 1-2.7-4.72l.13-.51a3.87 3.87 0 0 1 4.68-2.78 38.81 38.81 0 0 0 9.43 1.39c7.79 0 16.47-3.46 16.47-15V46.17c0-10.66-6.9-17.17-15-17.17-10.36 0-15.39 8.19-15.39 17.46s6.9 15.29 15.88 15.29a16.09 16.09 0 0 0 5.75-1.18 3.85 3.85 0 0 1 5.3 3.54zM251.79 65.17V3.88A3.88 3.88 0 0 1 255.66 0h.93a3.88 3.88 0 0 1 3.88 3.88v14.63a3.86 3.86 0 0 0 5.32 3.6 17.15 17.15 0 0 1 6.81-1.4c10.95 0 19.63 4.74 19.63 20.72v23.74a3.88 3.88 0 0 1-3.88 3.88h-.92a3.88 3.88 0 0 1-3.88-3.88V41.43c0-9.67-5.33-12.43-11.55-12.43s-11.54 5.13-11.54 12.43v23.74a3.88 3.88 0 0 1-3.88 3.88h-.93a3.87 3.87 0 0 1-3.86-3.88zM322.51 30h-9.21a3.88 3.88 0 0 0-3.88 3.88V51a9.8 9.8 0 0 0 9.8 9.8h3.29a3.88 3.88 0 0 1 3.88 3.87v.53a3.88 3.88 0 0 1-3.88 3.88h-7.76c-8.88 0-14-5.92-14-15.29v-40a3.88 3.88 0 0 1 3.88-3.88h.92a3.88 3.88 0 0 1 3.88 3.88v4.08c.24 3.2 1 3.87 3.88 3.88h9.21a3.88 3.88 0 0 1 3.88 3.88v.53a3.88 3.88 0 0 1-3.89 3.84z"/><path d="M68.34 38.1a3.2 3.2 0 0 0-3-3.21A43 43 0 0 0 21.19 65a3.22 3.22 0 0 0 3.06 4.19h40.88A3.21 3.21 0 0 0 68.34 66z" fill="#f5c434"/><path class="cls-1" d="M54.49 28.18a51.1 51.1 0 0 1 10.44-.52 3.21 3.21 0 0 0 3.41-3.19V4.06A3.21 3.21 0 0 0 65.13.85H3.21A3.21 3.21 0 0 0 0 4.06V66a3.21 3.21 0 0 0 3.21 3.21h7a3.2 3.2 0 0 0 3.12-2.48 50.14 50.14 0 0 1 41.16-38.55z"/></g></g></svg>
