<svg id="svg" version="1.1" xmlns="http://www.w3.org/2000/svg" xmlns:xlink="http://www.w3.org/1999/xlink" width="400" height="112.69974768713205" viewBox="0, 0, 400,112.69974768713205"><g id="svgg"><path id="path0" d="M35.167 16.500 C 35.167 16.592,34.792 16.667,34.333 16.667 C 33.875 16.667,33.500 16.742,33.500 16.833 C 33.500 16.925,33.200 17.000,32.833 17.000 C 32.467 17.000,32.167 17.075,32.167 17.167 C 32.167 17.258,31.942 17.333,31.667 17.333 C 31.392 17.333,31.167 17.408,31.167 17.500 C 31.167 17.592,30.942 17.667,30.667 17.667 C 30.392 17.667,30.167 17.742,30.167 17.833 C 30.167 17.925,29.942 18.000,29.667 18.000 C 29.392 18.000,29.167 18.075,29.167 18.167 C 29.167 18.258,29.017 18.333,28.833 18.333 C 28.650 18.333,28.500 18.408,28.500 18.500 C 28.500 18.592,28.350 18.667,28.167 18.667 C 27.983 18.667,27.833 18.742,27.833 18.833 C 27.833 18.925,27.683 19.000,27.500 19.000 C 27.317 19.000,27.167 19.075,27.167 19.167 C 27.167 19.258,27.069 19.333,26.950 19.333 C 26.643 19.333,25.836 19.725,25.835 19.875 C 25.834 19.944,25.721 20.000,25.583 20.000 C 25.446 20.000,25.333 20.075,25.333 20.167 C 25.333 20.258,25.235 20.333,25.115 20.333 C 24.995 20.333,24.735 20.483,24.538 20.667 C 24.342 20.850,24.112 21.000,24.027 21.000 C 23.943 21.000,23.564 21.300,23.187 21.667 C 22.809 22.033,22.438 22.333,22.363 22.333 C 22.184 22.333,19.667 24.851,19.667 25.029 C 19.667 25.105,19.367 25.475,19.000 25.853 C 18.633 26.231,18.333 26.644,18.333 26.770 C 18.333 26.897,18.258 27.000,18.167 27.000 C 18.075 27.000,18.000 27.113,18.000 27.250 C 18.000 27.387,17.925 27.500,17.833 27.500 C 17.742 27.500,17.667 27.633,17.667 27.797 C 17.667 27.960,17.517 28.201,17.333 28.333 C 17.150 28.465,17.000 28.707,17.000 28.870 C 17.000 29.033,16.925 29.167,16.833 29.167 C 16.742 29.167,16.667 29.317,16.667 29.500 C 16.667 29.683,16.592 29.833,16.500 29.833 C 16.408 29.833,16.333 29.983,16.333 30.167 C 16.333 30.350,16.258 30.500,16.167 30.500 C 16.075 30.500,16.000 30.650,16.000 30.833 C 16.000 31.017,15.925 31.167,15.833 31.167 C 15.742 31.167,15.667 31.317,15.667 31.500 C 15.667 31.683,15.592 31.833,15.500 31.833 C 15.408 31.833,15.333 32.058,15.333 32.333 C 15.333 32.608,15.258 32.833,15.167 32.833 C 15.075 32.833,15.000 33.058,15.000 33.333 C 15.000 33.608,14.925 33.833,14.833 33.833 C 14.742 33.833,14.667 34.058,14.667 34.333 C 14.667 34.608,14.592 34.833,14.500 34.833 C 14.408 34.833,14.333 35.133,14.333 35.500 C 14.333 35.867,14.258 36.167,14.167 36.167 C 14.075 36.167,14.000 36.542,14.000 37.000 C 14.000 37.458,13.925 37.833,13.833 37.833 C 13.727 37.833,13.667 39.333,13.667 42.000 C 13.667 44.667,13.727 46.167,13.833 46.167 C 13.925 46.167,14.000 46.537,14.000 46.990 C 14.000 47.443,14.075 47.860,14.167 47.917 C 14.258 47.973,14.333 48.315,14.333 48.677 C 14.333 49.038,14.408 49.333,14.500 49.333 C 14.592 49.333,14.667 49.558,14.667 49.833 C 14.667 50.108,14.742 50.333,14.833 50.333 C 14.925 50.333,15.000 50.558,15.000 50.833 C 15.000 51.108,15.075 51.333,15.167 51.333 C 15.258 51.333,15.333 51.558,15.333 51.833 C 15.333 52.108,15.408 52.333,15.500 52.333 C 15.592 52.333,15.667 52.483,15.667 52.667 C 15.667 52.850,15.742 53.000,15.833 53.000 C 15.925 53.000,16.000 53.150,16.000 53.333 C 16.000 53.517,16.075 53.667,16.167 53.667 C 16.258 53.667,16.333 53.817,16.333 54.000 C 16.333 54.183,16.408 54.333,16.500 54.333 C 16.592 54.333,16.667 54.483,16.667 54.667 C 16.667 54.850,16.742 55.000,16.833 55.000 C 16.925 55.000,17.000 55.133,17.000 55.297 C 17.000 55.460,17.150 55.701,17.333 55.833 C 17.517 55.965,17.667 56.190,17.667 56.333 C 17.667 56.476,17.817 56.701,18.000 56.833 C 18.183 56.965,18.333 57.177,18.333 57.303 C 18.333 57.430,18.558 57.743,18.833 58.000 C 19.108 58.257,19.333 58.554,19.333 58.661 C 19.333 58.768,20.815 60.312,22.625 62.092 C 24.435 63.872,25.971 65.386,26.036 65.456 C 29.152 68.770,41.745 81.167,41.995 81.167 C 42.379 81.167,43.538 80.058,51.837 71.750 C 58.643 64.938,61.692 61.888,70.083 53.502 C 73.475 50.113,77.580 46.007,79.205 44.378 C 85.358 38.212,88.842 34.833,89.047 34.833 C 89.164 34.833,89.368 34.683,89.500 34.500 C 89.632 34.317,89.874 34.167,90.037 34.167 C 90.200 34.167,90.333 34.092,90.333 34.000 C 90.333 33.908,90.483 33.833,90.667 33.833 C 90.850 33.833,91.000 33.758,91.000 33.667 C 91.000 33.575,91.150 33.500,91.333 33.500 C 91.517 33.500,91.667 33.425,91.667 33.333 C 91.667 33.242,91.967 33.167,92.333 33.167 C 92.700 33.167,93.000 33.092,93.000 33.000 C 93.000 32.900,93.663 32.833,94.657 32.833 C 95.582 32.833,96.359 32.907,96.417 33.000 C 96.473 33.092,96.773 33.167,97.083 33.167 C 97.393 33.167,97.693 33.242,97.750 33.333 C 97.807 33.425,98.036 33.500,98.260 33.500 C 98.484 33.500,98.667 33.575,98.667 33.667 C 98.667 33.758,98.803 33.833,98.969 33.833 C 99.135 33.833,99.431 33.983,99.628 34.167 C 99.825 34.350,100.085 34.500,100.206 34.500 C 100.327 34.500,100.535 34.650,100.667 34.833 C 100.799 35.017,101.005 35.167,101.126 35.167 C 101.410 35.167,102.500 36.257,102.500 36.541 C 102.500 36.661,102.650 36.868,102.833 37.000 C 103.017 37.132,103.167 37.357,103.167 37.500 C 103.167 37.643,103.317 37.868,103.500 38.000 C 103.696 38.141,103.833 38.431,103.833 38.703 C 103.833 38.958,103.908 39.167,104.000 39.167 C 104.092 39.167,104.167 39.317,104.167 39.500 C 104.167 39.683,104.242 39.833,104.333 39.833 C 104.425 39.833,104.500 40.133,104.500 40.500 C 104.500 40.867,104.575 41.167,104.667 41.167 C 104.765 41.167,104.833 41.778,104.833 42.667 C 104.833 43.556,104.765 44.167,104.667 44.167 C 104.575 44.167,104.500 44.462,104.500 44.823 C 104.500 45.185,104.425 45.527,104.333 45.583 C 104.242 45.640,104.167 45.907,104.167 46.177 C 104.167 46.446,104.092 46.667,104.000 46.667 C 103.908 46.667,103.833 46.817,103.833 47.000 C 103.833 47.183,103.758 47.333,103.667 47.333 C 103.575 47.333,103.500 47.467,103.500 47.630 C 103.500 47.793,103.350 48.035,103.167 48.167 C 102.983 48.299,102.829 48.522,102.823 48.662 C 102.818 48.802,102.101 49.592,101.232 50.417 C 100.362 51.242,96.579 54.992,92.826 58.750 C 82.468 69.121,82.137 69.451,76.374 75.167 C 73.418 78.100,70.887 80.500,70.749 80.500 C 70.612 80.500,70.499 80.556,70.499 80.625 C 70.497 80.775,69.690 81.167,69.383 81.167 C 69.264 81.167,69.167 81.242,69.167 81.333 C 69.167 81.554,65.887 81.554,65.750 81.333 C 65.693 81.242,65.501 81.167,65.323 81.167 C 65.146 81.167,65.000 81.092,65.000 81.000 C 65.000 80.908,64.850 80.833,64.667 80.833 C 64.483 80.833,64.333 80.758,64.333 80.667 C 64.333 80.575,64.218 80.500,64.077 80.500 C 63.936 80.500,63.151 79.825,62.333 79.000 C 60.380 77.030,60.746 76.907,56.872 80.831 C 50.686 87.097,49.333 88.503,49.333 88.670 C 49.333 88.899,53.118 92.667,53.348 92.667 C 53.450 92.667,53.743 92.892,54.000 93.167 C 54.257 93.442,54.570 93.667,54.697 93.667 C 54.823 93.667,55.035 93.817,55.167 94.000 C 55.299 94.183,55.540 94.333,55.703 94.333 C 55.867 94.333,56.000 94.408,56.000 94.500 C 56.000 94.592,56.150 94.667,56.333 94.667 C 56.517 94.667,56.667 94.742,56.667 94.833 C 56.667 94.925,56.817 95.000,57.000 95.000 C 57.183 95.000,57.333 95.075,57.333 95.167 C 57.333 95.258,57.483 95.333,57.667 95.333 C 57.850 95.333,58.000 95.408,58.000 95.500 C 58.000 95.592,58.150 95.667,58.333 95.667 C 58.517 95.667,58.667 95.742,58.667 95.833 C 58.667 95.925,58.817 96.000,59.000 96.000 C 59.183 96.000,59.333 96.075,59.333 96.167 C 59.333 96.258,59.558 96.333,59.833 96.333 C 60.108 96.333,60.333 96.408,60.333 96.500 C 60.333 96.592,60.633 96.667,61.000 96.667 C 61.367 96.667,61.667 96.742,61.667 96.833 C 61.667 96.925,61.962 97.000,62.323 97.000 C 62.685 97.000,63.027 97.075,63.083 97.167 C 63.140 97.258,63.782 97.333,64.510 97.333 C 65.281 97.333,65.833 97.403,65.833 97.500 C 65.833 97.600,66.500 97.667,67.500 97.667 C 68.500 97.667,69.167 97.600,69.167 97.500 C 69.167 97.403,69.722 97.333,70.500 97.333 C 71.278 97.333,71.833 97.264,71.833 97.167 C 71.833 97.075,72.133 97.000,72.500 97.000 C 72.867 97.000,73.167 96.925,73.167 96.833 C 73.167 96.742,73.467 96.667,73.833 96.667 C 74.200 96.667,74.500 96.592,74.500 96.500 C 74.500 96.408,74.725 96.333,75.000 96.333 C 75.275 96.333,75.500 96.258,75.500 96.167 C 75.500 96.075,75.650 96.000,75.833 96.000 C 76.017 96.000,76.167 95.925,76.167 95.833 C 76.167 95.742,76.317 95.667,76.500 95.667 C 76.683 95.667,76.833 95.592,76.833 95.500 C 76.833 95.408,76.983 95.333,77.167 95.333 C 77.350 95.333,77.500 95.258,77.500 95.167 C 77.500 95.075,77.650 95.000,77.833 95.000 C 78.017 95.000,78.167 94.925,78.167 94.833 C 78.167 94.742,78.300 94.667,78.463 94.667 C 78.626 94.667,78.868 94.517,79.000 94.333 C 79.132 94.150,79.357 94.000,79.500 94.000 C 79.643 94.000,79.868 93.850,80.000 93.667 C 80.132 93.483,80.336 93.333,80.453 93.333 C 80.569 93.333,81.048 92.958,81.516 92.500 C 81.984 92.042,82.453 91.667,82.559 91.666 C 82.804 91.666,90.000 84.428,90.000 84.181 C 90.000 84.079,92.324 81.691,95.165 78.873 C 108.690 65.459,116.167 57.893,116.167 57.619 C 116.167 57.503,116.317 57.299,116.500 57.167 C 116.683 57.035,116.833 56.810,116.833 56.667 C 116.833 56.524,116.983 56.299,117.167 56.167 C 117.350 56.035,117.500 55.793,117.500 55.630 C 117.500 55.467,117.575 55.333,117.667 55.333 C 117.758 55.333,117.833 55.183,117.833 55.000 C 117.833 54.817,117.908 54.667,118.000 54.667 C 118.092 54.667,118.167 54.517,118.167 54.333 C 118.167 54.150,118.235 54.000,118.319 54.000 C 118.509 54.000,119.667 51.681,119.667 51.300 C 119.667 51.146,119.742 50.973,119.833 50.917 C 119.925 50.860,120.000 50.635,120.000 50.417 C 120.000 50.198,120.075 49.973,120.167 49.917 C 120.258 49.860,120.333 49.593,120.333 49.323 C 120.333 49.054,120.408 48.833,120.500 48.833 C 120.592 48.833,120.667 48.458,120.667 48.000 C 120.667 47.542,120.742 47.167,120.833 47.167 C 120.926 47.167,121.000 46.722,121.000 46.167 C 121.000 45.611,121.074 45.167,121.167 45.167 C 121.272 45.167,121.333 44.000,121.333 42.000 C 121.333 40.000,121.272 38.833,121.167 38.833 C 121.073 38.833,121.000 38.364,121.000 37.760 C 121.000 37.169,120.925 36.640,120.833 36.583 C 120.742 36.527,120.667 36.185,120.667 35.823 C 120.667 35.462,120.592 35.167,120.500 35.167 C 120.408 35.167,120.333 34.942,120.333 34.667 C 120.333 34.392,120.258 34.167,120.167 34.167 C 120.075 34.167,120.000 33.942,120.000 33.667 C 120.000 33.392,119.925 33.167,119.833 33.167 C 119.742 33.167,119.667 32.984,119.667 32.760 C 119.667 32.536,119.592 32.307,119.500 32.250 C 119.408 32.193,119.333 32.001,119.333 31.823 C 119.333 31.646,119.258 31.500,119.167 31.500 C 119.075 31.500,119.000 31.350,119.000 31.167 C 119.000 30.983,118.925 30.833,118.833 30.833 C 118.742 30.833,118.667 30.683,118.667 30.500 C 118.667 30.315,118.556 30.167,118.417 30.167 C 118.278 30.167,118.167 30.019,118.167 29.833 C 118.167 29.650,118.092 29.500,118.000 29.500 C 117.908 29.500,117.833 29.350,117.833 29.167 C 117.833 28.983,117.758 28.833,117.667 28.833 C 117.575 28.833,117.500 28.683,117.500 28.500 C 117.500 28.317,117.425 28.167,117.333 28.167 C 117.242 28.167,117.167 28.054,117.167 27.917 C 117.167 27.779,117.092 27.667,117.000 27.667 C 116.908 27.667,116.833 27.554,116.833 27.417 C 116.833 27.279,116.758 27.167,116.667 27.167 C 116.575 27.167,116.500 27.071,116.500 26.953 C 116.500 26.836,116.350 26.632,116.167 26.500 C 115.983 26.368,115.833 26.163,115.833 26.045 C 115.833 25.765,111.402 21.333,111.122 21.333 C 111.004 21.333,110.799 21.183,110.667 21.000 C 110.535 20.817,110.310 20.667,110.167 20.667 C 110.024 20.667,109.799 20.517,109.667 20.333 C 109.535 20.150,109.310 20.000,109.167 20.000 C 109.024 20.000,108.799 19.850,108.667 19.667 C 108.535 19.483,108.293 19.333,108.130 19.333 C 107.967 19.333,107.833 19.258,107.833 19.167 C 107.833 19.075,107.683 19.000,107.500 19.000 C 107.317 19.000,107.167 18.925,107.167 18.833 C 107.167 18.742,107.017 18.667,106.833 18.667 C 106.650 18.667,106.500 18.592,106.500 18.500 C 106.500 18.408,106.275 18.333,106.000 18.333 C 105.725 18.333,105.500 18.258,105.500 18.167 C 105.500 18.075,105.350 18.000,105.167 18.000 C 104.983 18.000,104.833 17.925,104.833 17.833 C 104.833 17.742,104.608 17.667,104.333 17.667 C 104.058 17.667,103.833 17.592,103.833 17.500 C 103.833 17.408,103.608 17.333,103.333 17.333 C 103.058 17.333,102.833 17.258,102.833 17.167 C 102.833 17.075,102.533 17.000,102.167 17.000 C 101.800 17.000,101.500 16.925,101.500 16.833 C 101.500 16.742,101.087 16.667,100.583 16.667 C 100.079 16.667,99.667 16.592,99.667 16.500 C 99.667 16.393,98.167 16.333,95.500 16.333 C 92.833 16.333,91.333 16.393,91.333 16.500 C 91.333 16.593,90.889 16.667,90.333 16.667 C 89.778 16.667,89.333 16.741,89.333 16.833 C 89.333 16.925,89.033 17.000,88.667 17.000 C 88.300 17.000,88.000 17.075,88.000 17.167 C 88.000 17.258,87.775 17.333,87.500 17.333 C 87.225 17.333,87.000 17.408,87.000 17.500 C 87.000 17.592,86.775 17.667,86.500 17.667 C 86.225 17.667,86.000 17.742,86.000 17.833 C 86.000 17.925,85.850 18.000,85.667 18.000 C 85.483 18.000,85.333 18.075,85.333 18.167 C 85.333 18.258,85.183 18.333,85.000 18.333 C 84.817 18.333,84.667 18.408,84.667 18.500 C 84.667 18.592,84.458 18.667,84.203 18.667 C 83.931 18.667,83.641 18.804,83.500 19.000 C 83.368 19.183,83.126 19.333,82.963 19.333 C 82.800 19.333,82.667 19.408,82.667 19.500 C 82.667 19.592,82.517 19.667,82.333 19.667 C 82.150 19.667,82.000 19.742,82.000 19.833 C 82.000 19.925,81.850 20.000,81.667 20.000 C 81.483 20.000,81.333 20.062,81.333 20.139 C 81.333 20.215,81.128 20.383,80.877 20.514 C 80.425 20.748,79.999 21.058,79.577 21.458 C 79.456 21.573,79.278 21.667,79.181 21.667 C 79.085 21.667,77.711 22.984,76.128 24.595 C 73.114 27.662,65.950 34.837,59.219 41.531 C 57.036 43.702,52.947 47.790,50.133 50.614 C 47.319 53.439,44.337 56.406,43.507 57.208 L 41.998 58.666 36.915 53.583 C 34.120 50.788,31.833 48.405,31.833 48.287 C 31.833 48.170,31.683 47.965,31.500 47.833 C 31.317 47.701,31.167 47.460,31.167 47.297 C 31.167 47.133,31.092 47.000,31.000 47.000 C 30.908 47.000,30.833 46.775,30.833 46.500 C 30.833 46.225,30.758 46.000,30.667 46.000 C 30.575 46.000,30.500 45.779,30.500 45.510 C 30.500 45.240,30.425 44.973,30.333 44.917 C 30.236 44.857,30.167 43.915,30.167 42.657 C 30.167 41.330,30.231 40.500,30.333 40.500 C 30.425 40.500,30.500 40.275,30.500 40.000 C 30.500 39.725,30.575 39.500,30.667 39.500 C 30.758 39.500,30.833 39.395,30.833 39.266 C 30.833 38.988,31.528 37.608,31.708 37.528 C 31.777 37.497,31.833 37.365,31.833 37.233 C 31.833 36.935,33.915 34.833,34.210 34.833 C 34.329 34.833,34.535 34.683,34.667 34.500 C 34.799 34.317,35.040 34.167,35.203 34.167 C 35.367 34.167,35.500 34.092,35.500 34.000 C 35.500 33.908,35.650 33.833,35.833 33.833 C 36.017 33.833,36.167 33.758,36.167 33.667 C 36.167 33.575,36.392 33.500,36.667 33.500 C 36.942 33.500,37.167 33.425,37.167 33.333 C 37.167 33.242,37.392 33.167,37.667 33.167 C 37.942 33.167,38.167 33.092,38.167 33.000 C 38.167 32.900,38.830 32.833,39.823 32.833 C 40.748 32.833,41.526 32.907,41.583 33.000 C 41.640 33.092,41.940 33.167,42.250 33.167 C 42.560 33.167,42.860 33.242,42.917 33.333 C 42.973 33.425,43.163 33.500,43.338 33.500 C 43.513 33.500,43.924 33.650,44.250 33.833 C 44.576 34.017,44.924 34.167,45.022 34.167 C 45.119 34.167,45.410 34.392,45.667 34.667 C 45.924 34.942,46.220 35.167,46.325 35.167 C 46.430 35.167,47.034 35.692,47.667 36.333 C 49.332 38.022,49.288 38.034,52.118 35.194 C 57.709 29.585,60.333 26.805,60.333 26.492 C 60.333 26.146,55.987 21.667,55.652 21.667 C 55.550 21.667,55.257 21.442,55.000 21.167 C 54.743 20.892,54.430 20.667,54.303 20.667 C 54.177 20.667,53.965 20.517,53.833 20.333 C 53.701 20.150,53.460 20.000,53.297 20.000 C 53.133 20.000,53.000 19.925,53.000 19.833 C 53.000 19.742,52.850 19.667,52.667 19.667 C 52.483 19.667,52.333 19.592,52.333 19.500 C 52.333 19.408,52.200 19.333,52.037 19.333 C 51.874 19.333,51.632 19.183,51.500 19.000 C 51.359 18.804,51.069 18.667,50.797 18.667 C 50.542 18.667,50.333 18.592,50.333 18.500 C 50.333 18.408,50.183 18.333,50.000 18.333 C 49.817 18.333,49.667 18.258,49.667 18.167 C 49.667 18.075,49.521 18.000,49.343 18.000 C 49.165 18.000,48.973 17.925,48.917 17.833 C 48.860 17.742,48.631 17.667,48.407 17.667 C 48.183 17.667,48.000 17.592,48.000 17.500 C 48.000 17.408,47.737 17.333,47.417 17.333 C 47.096 17.333,46.833 17.258,46.833 17.167 C 46.833 17.075,46.533 17.000,46.167 17.000 C 45.800 17.000,45.500 16.925,45.500 16.833 C 45.500 16.741,45.056 16.667,44.500 16.667 C 43.944 16.667,43.500 16.593,43.500 16.500 C 43.500 16.393,42.000 16.333,39.333 16.333 C 36.667 16.333,35.167 16.393,35.167 16.500 M148.833 42.157 C 148.833 58.970,148.890 67.682,149.000 67.750 C 149.092 67.807,149.167 68.182,149.167 68.583 C 149.167 68.985,149.242 69.360,149.333 69.417 C 149.425 69.473,149.500 69.740,149.500 70.010 C 149.500 70.279,149.575 70.500,149.667 70.500 C 149.758 70.500,149.833 70.650,149.833 70.833 C 149.833 71.017,149.908 71.167,150.000 71.167 C 150.092 71.167,150.167 71.340,150.167 71.552 C 150.167 71.764,150.317 72.098,150.500 72.295 C 150.683 72.492,150.833 72.768,150.833 72.910 C 150.833 73.051,150.908 73.167,151.000 73.167 C 151.092 73.167,151.167 73.268,151.167 73.392 C 151.167 73.516,151.392 73.853,151.667 74.140 C 151.942 74.428,152.167 74.721,152.167 74.790 C 152.169 75.077,154.044 76.833,154.348 76.833 C 154.450 76.833,154.743 77.058,155.000 77.333 C 155.257 77.608,155.587 77.833,155.734 77.833 C 155.880 77.833,156.000 77.908,156.000 78.000 C 156.000 78.092,156.150 78.167,156.333 78.167 C 156.517 78.167,156.667 78.242,156.667 78.333 C 156.667 78.425,156.817 78.500,157.000 78.500 C 157.183 78.500,157.333 78.575,157.333 78.667 C 157.333 78.758,157.483 78.833,157.667 78.833 C 157.850 78.833,158.000 78.908,158.000 79.000 C 158.000 79.092,158.225 79.167,158.500 79.167 C 158.775 79.167,159.000 79.242,159.000 79.333 C 159.000 79.425,159.300 79.500,159.667 79.500 C 160.033 79.500,160.333 79.575,160.333 79.667 C 160.333 79.758,160.708 79.833,161.167 79.833 C 161.625 79.833,162.000 79.908,162.000 80.000 C 162.000 80.107,163.611 80.167,166.500 80.167 C 169.389 80.167,171.000 80.107,171.000 80.000 C 171.000 79.908,171.375 79.833,171.833 79.833 C 172.292 79.833,172.667 79.758,172.667 79.667 C 172.667 79.575,172.887 79.500,173.157 79.500 C 173.426 79.500,173.693 79.425,173.750 79.333 C 173.807 79.242,173.999 79.167,174.177 79.167 C 174.354 79.167,174.500 79.092,174.500 79.000 C 174.500 78.908,174.650 78.833,174.833 78.833 C 175.017 78.833,175.167 78.758,175.167 78.667 C 175.167 78.575,175.317 78.500,175.500 78.500 C 175.683 78.500,175.833 78.425,175.833 78.333 C 175.833 78.242,175.983 78.167,176.167 78.167 C 176.350 78.167,176.500 78.092,176.500 78.000 C 176.500 77.908,176.650 77.833,176.833 77.833 C 177.017 77.833,177.167 77.758,177.167 77.667 C 177.167 77.575,177.287 77.500,177.433 77.500 C 177.580 77.500,177.910 77.275,178.167 77.000 C 178.424 76.725,178.717 76.500,178.820 76.500 C 179.080 76.500,181.500 74.053,181.500 73.789 C 181.500 73.671,181.650 73.465,181.833 73.333 C 182.017 73.201,182.167 72.960,182.167 72.797 C 182.167 72.633,182.242 72.500,182.333 72.500 C 182.425 72.500,182.500 72.367,182.500 72.203 C 182.500 72.040,182.650 71.799,182.833 71.667 C 183.029 71.526,183.167 71.235,183.167 70.963 C 183.167 70.708,183.242 70.500,183.333 70.500 C 183.425 70.500,183.500 70.350,183.500 70.167 C 183.500 69.983,183.575 69.833,183.667 69.833 C 183.758 69.833,183.833 69.688,183.833 69.510 C 183.833 69.332,183.908 69.140,184.000 69.083 C 184.092 69.027,184.167 68.797,184.167 68.573 C 184.167 68.350,184.242 68.167,184.333 68.167 C 184.425 68.167,184.500 67.946,184.500 67.677 C 184.500 67.407,184.575 67.140,184.667 67.083 C 184.758 67.027,184.833 66.685,184.833 66.323 C 184.833 65.962,184.908 65.667,185.000 65.667 C 185.092 65.667,185.167 65.367,185.167 65.000 C 185.167 64.633,185.242 64.333,185.333 64.333 C 185.426 64.333,185.500 63.889,185.500 63.333 C 185.500 62.778,185.574 62.333,185.667 62.333 C 185.768 62.333,185.833 61.611,185.833 60.500 C 185.833 59.389,185.899 58.667,186.000 58.667 C 186.103 58.667,186.167 57.778,186.167 56.333 C 186.167 54.889,186.103 54.000,186.000 54.000 C 185.899 54.000,185.833 53.278,185.833 52.167 C 185.833 51.056,185.768 50.333,185.667 50.333 C 185.575 50.333,185.500 49.958,185.500 49.500 C 185.500 49.042,185.425 48.667,185.333 48.667 C 185.242 48.667,185.167 48.292,185.167 47.833 C 185.167 47.375,185.092 47.000,185.000 47.000 C 184.908 47.000,184.833 46.779,184.833 46.510 C 184.833 46.240,184.758 45.973,184.667 45.917 C 184.575 45.860,184.500 45.593,184.500 45.323 C 184.500 45.054,184.425 44.833,184.333 44.833 C 184.242 44.833,184.167 44.650,184.167 44.427 C 184.167 44.203,184.092 43.973,184.000 43.917 C 183.908 43.860,183.833 43.668,183.833 43.490 C 183.833 43.312,183.758 43.167,183.667 43.167 C 183.575 43.167,183.500 43.017,183.500 42.833 C 183.500 42.650,183.425 42.500,183.333 42.500 C 183.242 42.500,183.167 42.367,183.167 42.203 C 183.167 42.040,183.017 41.799,182.833 41.667 C 182.650 41.535,182.500 41.310,182.500 41.167 C 182.500 41.024,182.350 40.799,182.167 40.667 C 181.983 40.535,181.833 40.330,181.833 40.211 C 181.833 39.931,178.403 36.500,178.122 36.500 C 178.004 36.500,177.799 36.350,177.667 36.167 C 177.535 35.983,177.293 35.833,177.130 35.833 C 176.967 35.833,176.833 35.758,176.833 35.667 C 176.833 35.575,176.683 35.500,176.500 35.500 C 176.317 35.500,176.167 35.425,176.167 35.333 C 176.167 35.242,176.017 35.167,175.833 35.167 C 175.650 35.167,175.500 35.092,175.500 35.000 C 175.500 34.908,175.275 34.833,175.000 34.833 C 174.725 34.833,174.500 34.758,174.500 34.667 C 174.500 34.575,174.313 34.500,174.083 34.500 C 173.854 34.500,173.667 34.425,173.667 34.333 C 173.667 34.242,173.367 34.167,173.000 34.167 C 172.633 34.167,172.333 34.092,172.333 34.000 C 172.333 33.908,171.958 33.833,171.500 33.833 C 171.042 33.833,170.667 33.758,170.667 33.667 C 170.667 33.560,169.000 33.500,166.000 33.500 C 163.000 33.500,161.333 33.560,161.333 33.667 C 161.333 33.758,160.958 33.833,160.500 33.833 L 159.667 33.833 159.667 25.250 L 159.667 16.667 154.250 16.667 L 148.833 16.667 148.833 42.157 M302.333 25.250 L 302.333 33.833 301.510 33.833 C 301.057 33.833,300.640 33.758,300.583 33.667 C 300.519 33.562,298.748 33.500,295.823 33.500 C 292.830 33.500,291.167 33.560,291.167 33.667 C 291.167 33.758,290.792 33.833,290.333 33.833 C 289.875 33.833,289.500 33.908,289.500 34.000 C 289.500 34.092,289.200 34.167,288.833 34.167 C 288.467 34.167,288.167 34.242,288.167 34.333 C 288.167 34.425,287.942 34.500,287.667 34.500 C 287.392 34.500,287.167 34.575,287.167 34.667 C 287.167 34.758,287.017 34.833,286.833 34.833 C 286.650 34.833,286.500 34.908,286.500 35.000 C 286.500 35.092,286.350 35.167,286.167 35.167 C 285.983 35.167,285.833 35.242,285.833 35.333 C 285.833 35.425,285.683 35.500,285.500 35.500 C 285.317 35.500,285.167 35.575,285.167 35.667 C 285.167 35.758,285.033 35.833,284.870 35.833 C 284.707 35.833,284.465 35.983,284.333 36.167 C 284.201 36.350,283.996 36.500,283.877 36.500 C 283.679 36.500,283.040 37.081,280.542 39.532 C 280.060 40.005,279.667 40.490,279.667 40.612 C 279.667 40.734,279.602 40.833,279.524 40.833 C 279.337 40.833,277.664 44.164,277.665 44.532 C 277.666 44.687,277.592 44.860,277.500 44.917 C 277.408 44.973,277.333 45.198,277.333 45.417 C 277.333 45.635,277.258 45.860,277.167 45.917 C 277.075 45.973,277.000 46.240,277.000 46.510 C 277.000 46.779,276.925 47.000,276.833 47.000 C 276.742 47.000,276.667 47.300,276.667 47.667 C 276.667 48.033,276.592 48.333,276.500 48.333 C 276.407 48.333,276.333 48.778,276.333 49.333 C 276.333 49.889,276.259 50.333,276.167 50.333 C 276.066 50.333,276.000 51.056,276.000 52.167 C 276.000 53.278,275.934 54.000,275.833 54.000 C 275.730 54.000,275.667 54.889,275.667 56.333 C 275.667 57.778,275.730 58.667,275.833 58.667 C 275.934 58.667,276.000 59.389,276.000 60.500 C 276.000 61.611,276.066 62.333,276.167 62.333 C 276.259 62.333,276.333 62.778,276.333 63.333 C 276.333 63.889,276.407 64.333,276.500 64.333 C 276.592 64.333,276.667 64.708,276.667 65.167 C 276.667 65.625,276.742 66.000,276.833 66.000 C 276.925 66.000,277.000 66.221,277.000 66.490 C 277.000 66.760,277.075 67.027,277.167 67.083 C 277.258 67.140,277.333 67.365,277.333 67.583 C 277.333 67.802,277.408 68.027,277.500 68.083 C 277.592 68.140,277.667 68.365,277.667 68.583 C 277.667 68.802,277.742 69.027,277.833 69.083 C 277.925 69.140,278.000 69.332,278.000 69.510 C 278.000 69.688,278.075 69.833,278.167 69.833 C 278.258 69.833,278.333 69.973,278.333 70.143 C 278.333 70.523,279.335 72.500,279.528 72.500 C 279.604 72.500,279.667 72.615,279.667 72.756 C 279.667 73.055,279.963 73.409,281.705 75.186 C 282.413 75.909,283.077 76.500,283.180 76.500 C 283.282 76.500,283.576 76.725,283.833 77.000 C 284.090 77.275,284.420 77.500,284.567 77.500 C 284.713 77.500,284.833 77.575,284.833 77.667 C 284.833 77.758,284.983 77.833,285.167 77.833 C 285.350 77.833,285.500 77.908,285.500 78.000 C 285.500 78.092,285.650 78.167,285.833 78.167 C 286.017 78.167,286.167 78.242,286.167 78.333 C 286.167 78.425,286.317 78.500,286.500 78.500 C 286.683 78.500,286.833 78.575,286.833 78.667 C 286.833 78.758,286.983 78.833,287.167 78.833 C 287.350 78.833,287.500 78.908,287.500 79.000 C 287.500 79.092,287.650 79.167,287.833 79.167 C 288.017 79.167,288.167 79.242,288.167 79.333 C 288.167 79.425,288.392 79.500,288.667 79.500 C 288.942 79.500,289.167 79.575,289.167 79.667 C 289.167 79.758,289.467 79.833,289.833 79.833 C 290.200 79.833,290.500 79.908,290.500 80.000 C 290.500 80.107,292.167 80.167,295.167 80.167 C 298.167 80.167,299.833 80.107,299.833 80.000 C 299.833 79.908,300.246 79.833,300.750 79.833 C 301.254 79.833,301.667 79.758,301.667 79.667 C 301.667 79.575,301.925 79.500,302.240 79.500 C 302.556 79.500,302.860 79.425,302.917 79.333 C 302.973 79.242,303.240 79.167,303.510 79.167 C 303.779 79.167,304.000 79.092,304.000 79.000 C 304.000 78.908,304.150 78.833,304.333 78.833 C 304.517 78.833,304.667 78.758,304.667 78.667 C 304.667 78.575,304.817 78.500,305.000 78.500 C 305.183 78.500,305.333 78.425,305.333 78.333 C 305.333 78.242,305.483 78.167,305.667 78.167 C 305.850 78.167,306.000 78.092,306.000 78.000 C 306.000 77.908,306.120 77.833,306.266 77.833 C 306.413 77.833,306.743 77.608,307.000 77.333 C 307.257 77.058,307.551 76.833,307.654 76.833 C 307.897 76.833,309.667 75.064,309.667 74.820 C 309.667 74.718,309.892 74.424,310.167 74.167 C 310.442 73.910,310.667 73.596,310.667 73.470 C 310.667 73.344,310.817 73.132,311.000 73.000 C 311.183 72.868,311.333 72.626,311.333 72.463 C 311.333 72.300,311.408 72.167,311.500 72.167 C 311.592 72.167,311.667 72.017,311.667 71.833 C 311.667 71.650,311.742 71.500,311.833 71.500 C 311.925 71.500,312.000 71.275,312.000 71.000 C 312.000 70.725,312.075 70.500,312.167 70.500 C 312.258 70.500,312.333 70.275,312.333 70.000 C 312.333 69.725,312.408 69.500,312.500 69.500 C 312.592 69.500,312.667 69.200,312.667 68.833 C 312.667 68.467,312.742 68.167,312.833 68.167 C 312.944 68.167,313.000 59.472,313.000 42.417 L 313.000 16.667 307.667 16.667 L 302.333 16.667 302.333 25.250 M335.583 33.333 C 335.527 33.425,334.885 33.500,334.157 33.500 C 333.386 33.500,332.833 33.570,332.833 33.667 C 332.833 33.758,332.533 33.833,332.167 33.833 C 331.800 33.833,331.500 33.908,331.500 34.000 C 331.500 34.092,331.275 34.167,331.000 34.167 C 330.725 34.167,330.500 34.242,330.500 34.333 C 330.500 34.425,330.275 34.500,330.000 34.500 C 329.725 34.500,329.500 34.575,329.500 34.667 C 329.500 34.758,329.350 34.833,329.167 34.833 C 328.983 34.833,328.833 34.908,328.833 35.000 C 328.833 35.092,328.683 35.167,328.500 35.167 C 328.317 35.167,328.167 35.242,328.167 35.333 C 328.167 35.425,328.033 35.500,327.870 35.500 C 327.707 35.500,327.465 35.650,327.333 35.833 C 327.201 36.017,326.996 36.167,326.878 36.167 C 326.597 36.167,323.500 39.263,323.500 39.544 C 323.500 39.663,323.350 39.868,323.167 40.000 C 322.983 40.132,322.833 40.374,322.833 40.537 C 322.833 40.700,322.758 40.833,322.667 40.833 C 322.575 40.833,322.500 40.967,322.500 41.130 C 322.500 41.293,322.350 41.535,322.167 41.667 C 321.983 41.799,321.833 42.040,321.833 42.203 C 321.833 42.367,321.758 42.500,321.667 42.500 C 321.575 42.500,321.500 42.725,321.500 43.000 C 321.500 43.275,321.425 43.500,321.333 43.500 C 321.242 43.500,321.167 43.650,321.167 43.833 C 321.167 44.017,321.092 44.167,321.000 44.167 C 320.908 44.167,320.833 44.392,320.833 44.667 C 320.833 44.942,320.758 45.167,320.667 45.167 C 320.575 45.167,320.500 45.387,320.500 45.657 C 320.500 45.926,320.425 46.193,320.333 46.250 C 320.242 46.307,320.167 46.574,320.167 46.843 C 320.167 47.113,320.092 47.333,320.000 47.333 C 319.908 47.333,319.833 47.708,319.833 48.167 C 319.833 48.625,319.758 49.000,319.667 49.000 C 319.575 49.000,319.500 49.375,319.500 49.833 C 319.500 50.292,319.425 50.667,319.333 50.667 C 319.233 50.667,319.167 51.333,319.167 52.333 C 319.167 53.333,319.100 54.000,319.000 54.000 C 318.895 54.000,318.833 55.167,318.833 57.167 C 318.833 59.167,318.895 60.333,319.000 60.333 C 319.100 60.333,319.167 61.000,319.167 62.000 C 319.167 63.000,319.233 63.667,319.333 63.667 C 319.425 63.667,319.500 64.042,319.500 64.500 C 319.500 64.958,319.575 65.333,319.667 65.333 C 319.758 65.333,319.833 65.671,319.833 66.083 C 319.833 66.496,319.908 66.833,320.000 66.833 C 320.092 66.833,320.167 67.133,320.167 67.500 C 320.167 67.867,320.242 68.167,320.333 68.167 C 320.425 68.167,320.500 68.392,320.500 68.667 C 320.500 68.942,320.575 69.167,320.667 69.167 C 320.758 69.167,320.833 69.317,320.833 69.500 C 320.833 69.683,320.908 69.833,321.000 69.833 C 321.092 69.833,321.167 70.058,321.167 70.333 C 321.167 70.608,321.242 70.833,321.333 70.833 C 321.425 70.833,321.500 70.983,321.500 71.167 C 321.500 71.350,321.575 71.500,321.667 71.500 C 321.758 71.500,321.833 71.633,321.833 71.797 C 321.833 71.960,321.983 72.201,322.167 72.333 C 322.350 72.465,322.500 72.690,322.500 72.833 C 322.500 72.976,322.650 73.201,322.833 73.333 C 323.017 73.465,323.167 73.671,323.167 73.789 C 323.167 74.053,325.587 76.500,325.847 76.500 C 325.949 76.500,326.243 76.725,326.500 77.000 C 326.757 77.275,327.087 77.500,327.234 77.500 C 327.380 77.500,327.500 77.575,327.500 77.667 C 327.500 77.758,327.650 77.833,327.833 77.833 C 328.017 77.833,328.167 77.908,328.167 78.000 C 328.167 78.092,328.317 78.167,328.500 78.167 C 328.683 78.167,328.833 78.242,328.833 78.333 C 328.833 78.425,328.983 78.500,329.167 78.500 C 329.350 78.500,329.500 78.575,329.500 78.667 C 329.500 78.758,329.650 78.833,329.833 78.833 C 330.017 78.833,330.167 78.908,330.167 79.000 C 330.167 79.092,330.317 79.167,330.500 79.167 C 330.683 79.167,330.833 79.242,330.833 79.333 C 330.833 79.425,331.133 79.500,331.500 79.500 C 331.867 79.500,332.167 79.575,332.167 79.667 C 332.167 79.758,332.542 79.833,333.000 79.833 C 333.458 79.833,333.833 79.908,333.833 80.000 C 333.833 80.107,335.583 80.167,338.750 80.167 C 341.917 80.167,343.667 80.107,343.667 80.000 C 343.667 79.907,344.111 79.833,344.667 79.833 C 345.222 79.833,345.667 79.759,345.667 79.667 C 345.667 79.575,345.967 79.500,346.333 79.500 C 346.700 79.500,347.000 79.425,347.000 79.333 C 347.000 79.242,347.300 79.167,347.667 79.167 C 348.033 79.167,348.333 79.092,348.333 79.000 C 348.333 78.908,348.558 78.833,348.833 78.833 C 349.108 78.833,349.333 78.758,349.333 78.667 C 349.333 78.575,349.558 78.500,349.833 78.500 C 350.108 78.500,350.333 78.425,350.333 78.333 C 350.333 78.242,350.558 78.167,350.833 78.167 C 351.108 78.167,351.333 78.092,351.333 78.000 C 351.333 77.908,351.483 77.833,351.667 77.833 C 351.850 77.833,352.000 77.758,352.000 77.667 C 352.000 77.575,352.150 77.500,352.333 77.500 C 352.517 77.500,352.667 77.425,352.667 77.333 C 352.667 77.242,352.817 77.167,353.000 77.167 C 353.183 77.167,353.333 77.092,353.333 77.000 C 353.333 76.908,353.483 76.833,353.667 76.833 C 353.850 76.833,354.000 76.758,354.000 76.667 C 354.000 76.575,354.150 76.500,354.333 76.500 C 354.659 76.500,354.667 76.389,354.667 71.833 L 354.667 67.167 354.000 67.167 C 353.633 67.167,353.333 67.242,353.333 67.333 C 353.333 67.425,353.183 67.500,353.000 67.500 C 352.817 67.500,352.667 67.575,352.667 67.667 C 352.667 67.758,352.442 67.833,352.167 67.833 C 351.892 67.833,351.667 67.908,351.667 68.000 C 351.667 68.092,351.517 68.167,351.333 68.167 C 351.150 68.167,351.000 68.242,351.000 68.333 C 351.000 68.425,350.775 68.500,350.500 68.500 C 350.225 68.500,350.000 68.575,350.000 68.667 C 350.000 68.758,349.775 68.833,349.500 68.833 C 349.225 68.833,349.000 68.908,349.000 69.000 C 349.000 69.092,348.775 69.167,348.500 69.167 C 348.225 69.167,348.000 69.242,348.000 69.333 C 348.000 69.425,347.700 69.500,347.333 69.500 C 346.967 69.500,346.667 69.575,346.667 69.667 C 346.667 69.758,346.292 69.833,345.833 69.833 C 345.375 69.833,345.000 69.908,345.000 70.000 C 345.000 70.097,344.444 70.167,343.667 70.167 C 342.889 70.167,342.333 70.236,342.333 70.333 C 342.333 70.435,341.556 70.500,340.333 70.500 C 339.111 70.500,338.333 70.435,338.333 70.333 C 338.333 70.239,337.861 70.167,337.250 70.167 C 336.639 70.167,336.167 70.094,336.167 70.000 C 336.167 69.908,335.942 69.833,335.667 69.833 C 335.392 69.833,335.167 69.758,335.167 69.667 C 335.167 69.575,335.017 69.500,334.833 69.500 C 334.650 69.500,334.500 69.425,334.500 69.333 C 334.500 69.242,334.350 69.167,334.167 69.167 C 333.983 69.167,333.833 69.092,333.833 69.000 C 333.833 68.908,333.700 68.833,333.537 68.833 C 333.374 68.833,333.132 68.683,333.000 68.500 C 332.868 68.317,332.660 68.167,332.539 68.167 C 332.235 68.167,331.500 67.406,331.500 67.091 C 331.500 66.949,331.425 66.833,331.333 66.833 C 331.242 66.833,331.167 66.683,331.167 66.500 C 331.167 66.317,331.092 66.167,331.000 66.167 C 330.908 66.167,330.833 66.017,330.833 65.833 C 330.833 65.650,330.758 65.500,330.667 65.500 C 330.575 65.500,330.500 65.313,330.500 65.083 C 330.500 64.854,330.425 64.667,330.333 64.667 C 330.242 64.667,330.167 64.367,330.167 64.000 C 330.167 63.633,330.092 63.333,330.000 63.333 C 329.907 63.333,329.833 62.889,329.833 62.334 L 329.833 61.335 343.458 61.293 L 357.083 61.250 357.128 56.428 C 357.156 53.326,357.111 51.545,357.003 51.436 C 356.910 51.343,356.833 50.832,356.833 50.300 C 356.833 49.767,356.759 49.333,356.667 49.333 C 356.575 49.333,356.500 48.958,356.500 48.500 C 356.500 48.042,356.425 47.667,356.333 47.667 C 356.242 47.667,356.167 47.442,356.167 47.167 C 356.167 46.892,356.092 46.667,356.000 46.667 C 355.908 46.667,355.833 46.457,355.833 46.200 C 355.833 45.943,355.771 45.662,355.696 45.575 C 355.620 45.488,355.458 45.097,355.335 44.706 C 355.212 44.315,355.012 43.912,354.889 43.811 C 354.767 43.709,354.667 43.523,354.667 43.396 C 354.667 43.270,354.592 43.167,354.500 43.167 C 354.408 43.167,354.333 43.017,354.333 42.833 C 354.333 42.650,354.258 42.500,354.167 42.500 C 354.075 42.500,354.000 42.350,354.000 42.167 C 354.000 41.983,353.925 41.833,353.833 41.833 C 353.742 41.833,353.667 41.700,353.667 41.537 C 353.667 41.374,353.517 41.132,353.333 41.000 C 353.150 40.868,353.000 40.643,353.000 40.500 C 353.000 40.357,352.850 40.132,352.667 40.000 C 352.483 39.868,352.333 39.663,352.333 39.544 C 352.333 39.263,349.570 36.500,349.289 36.500 C 349.171 36.500,348.965 36.350,348.833 36.167 C 348.701 35.983,348.476 35.833,348.333 35.833 C 348.190 35.833,347.965 35.683,347.833 35.500 C 347.701 35.317,347.460 35.167,347.297 35.167 C 347.133 35.167,347.000 35.092,347.000 35.000 C 347.000 34.908,346.775 34.833,346.500 34.833 C 346.225 34.833,346.000 34.758,346.000 34.667 C 346.000 34.575,345.850 34.500,345.667 34.500 C 345.483 34.500,345.333 34.425,345.333 34.333 C 345.333 34.242,345.108 34.167,344.833 34.167 C 344.558 34.167,344.333 34.092,344.333 34.000 C 344.333 33.908,344.033 33.833,343.667 33.833 C 343.300 33.833,343.000 33.758,343.000 33.667 C 343.000 33.569,342.444 33.500,341.667 33.500 C 340.889 33.500,340.333 33.431,340.333 33.333 C 340.333 33.230,339.448 33.167,338.010 33.167 C 336.641 33.167,335.644 33.235,335.583 33.333 M245.833 33.667 C 245.833 33.763,245.306 33.833,244.583 33.833 C 243.861 33.833,243.333 33.904,243.333 34.000 C 243.333 34.092,242.958 34.167,242.500 34.167 C 242.042 34.167,241.667 34.242,241.667 34.333 C 241.667 34.425,241.367 34.500,241.000 34.500 C 240.633 34.500,240.333 34.575,240.333 34.667 C 240.333 34.758,240.108 34.833,239.833 34.833 C 239.558 34.833,239.333 34.908,239.333 35.000 C 239.333 35.092,239.108 35.167,238.833 35.167 C 238.558 35.167,238.333 35.242,238.333 35.333 C 238.333 35.425,238.108 35.500,237.833 35.500 C 237.558 35.500,237.333 35.575,237.333 35.667 C 237.333 35.758,237.108 35.833,236.833 35.833 C 236.558 35.833,236.333 35.908,236.333 36.000 C 236.333 36.092,236.183 36.167,236.000 36.167 C 235.817 36.167,235.667 36.242,235.667 36.333 C 235.667 36.425,235.442 36.500,235.167 36.500 C 234.892 36.500,234.667 36.575,234.667 36.667 C 234.667 36.758,234.517 36.833,234.333 36.833 C 234.150 36.833,234.000 36.908,234.000 37.000 C 234.000 37.092,233.850 37.167,233.667 37.167 C 233.483 37.167,233.333 37.242,233.333 37.333 C 233.333 37.425,233.183 37.500,233.000 37.500 C 232.817 37.500,232.667 37.575,232.667 37.667 C 232.667 37.758,232.517 37.833,232.333 37.833 C 232.150 37.833,232.000 37.908,232.000 38.000 C 232.000 38.092,231.850 38.167,231.667 38.167 C 231.335 38.167,231.333 38.278,231.333 58.833 L 231.333 79.500 236.833 79.500 L 242.333 79.500 242.333 61.833 L 242.333 44.167 243.000 44.167 C 243.367 44.167,243.667 44.092,243.667 44.000 C 243.667 43.903,244.222 43.833,245.000 43.833 C 245.778 43.833,246.333 43.764,246.333 43.667 C 246.333 43.561,247.528 43.500,249.583 43.500 C 251.639 43.500,252.833 43.561,252.833 43.667 C 252.833 43.758,253.208 43.833,253.667 43.833 C 254.125 43.833,254.500 43.908,254.500 44.000 C 254.500 44.092,254.725 44.167,255.000 44.167 C 255.275 44.167,255.500 44.242,255.500 44.333 C 255.500 44.425,255.650 44.500,255.833 44.500 C 256.017 44.500,256.167 44.575,256.167 44.667 C 256.167 44.758,256.282 44.833,256.422 44.833 C 256.734 44.833,257.833 45.904,257.833 46.208 C 257.833 46.328,257.983 46.535,258.167 46.667 C 258.350 46.799,258.500 47.036,258.500 47.194 C 258.500 47.351,258.575 47.527,258.667 47.583 C 258.758 47.640,258.833 47.865,258.833 48.083 C 258.833 48.302,258.908 48.527,259.000 48.583 C 259.092 48.640,259.167 49.207,259.167 49.843 C 259.167 50.503,259.238 51.000,259.333 51.000 C 259.443 51.000,259.500 55.861,259.500 65.250 L 259.500 79.500 264.917 79.500 L 270.333 79.500 270.333 64.750 C 270.333 55.028,270.277 50.000,270.167 50.000 C 270.069 50.000,270.000 49.444,270.000 48.667 C 270.000 47.889,269.931 47.333,269.833 47.333 C 269.742 47.333,269.667 47.038,269.667 46.677 C 269.667 46.315,269.592 45.973,269.500 45.917 C 269.408 45.860,269.333 45.560,269.333 45.250 C 269.333 44.940,269.258 44.640,269.167 44.583 C 269.075 44.527,269.000 44.302,269.000 44.083 C 269.000 43.865,268.925 43.640,268.833 43.583 C 268.742 43.527,268.667 43.335,268.667 43.157 C 268.667 42.979,268.592 42.833,268.500 42.833 C 268.408 42.833,268.333 42.683,268.333 42.500 C 268.333 42.317,268.258 42.167,268.167 42.167 C 268.075 42.167,268.000 42.017,268.000 41.833 C 268.000 41.650,267.925 41.500,267.833 41.500 C 267.742 41.500,267.667 41.402,267.667 41.281 C 267.667 41.161,267.517 40.902,267.333 40.705 C 267.150 40.508,267.000 40.274,267.000 40.185 C 267.000 39.836,263.821 36.833,263.452 36.833 C 263.335 36.833,263.132 36.683,263.000 36.500 C 262.868 36.317,262.643 36.167,262.500 36.167 C 262.357 36.167,262.132 36.017,262.000 35.833 C 261.868 35.650,261.626 35.500,261.463 35.500 C 261.300 35.500,261.167 35.425,261.167 35.333 C 261.167 35.242,261.017 35.167,260.833 35.167 C 260.650 35.167,260.500 35.092,260.500 35.000 C 260.500 34.908,260.275 34.833,260.000 34.833 C 259.725 34.833,259.500 34.758,259.500 34.667 C 259.500 34.575,259.275 34.500,259.000 34.500 C 258.725 34.500,258.500 34.425,258.500 34.333 C 258.500 34.242,258.275 34.167,258.000 34.167 C 257.725 34.167,257.500 34.092,257.500 34.000 C 257.500 33.908,257.125 33.833,256.667 33.833 C 256.208 33.833,255.833 33.758,255.833 33.667 C 255.833 33.559,254.056 33.500,250.833 33.500 C 247.611 33.500,245.833 33.559,245.833 33.667 M380.000 33.667 C 380.000 33.762,379.500 33.833,378.833 33.833 C 378.167 33.833,377.667 33.905,377.667 34.000 C 377.667 34.093,377.222 34.167,376.667 34.167 C 376.111 34.167,375.667 34.241,375.667 34.333 C 375.667 34.425,375.367 34.500,375.000 34.500 C 374.633 34.500,374.333 34.575,374.333 34.667 C 374.333 34.758,374.033 34.833,373.667 34.833 C 373.300 34.833,373.000 34.908,373.000 35.000 C 373.000 35.092,372.704 35.167,372.343 35.167 C 371.982 35.167,371.640 35.242,371.583 35.333 C 371.527 35.425,371.185 35.500,370.823 35.500 C 370.462 35.500,370.167 35.575,370.167 35.667 C 370.167 35.758,369.909 35.833,369.593 35.833 C 369.278 35.833,368.973 35.908,368.917 36.000 C 368.860 36.092,368.593 36.167,368.323 36.167 C 368.054 36.167,367.833 36.242,367.833 36.333 C 367.833 36.425,367.608 36.500,367.333 36.500 C 367.058 36.500,366.833 36.575,366.833 36.667 C 366.833 36.758,366.683 36.833,366.500 36.833 C 366.317 36.833,366.167 36.908,366.167 37.000 C 366.167 37.092,365.942 37.167,365.667 37.167 C 365.392 37.167,365.167 37.242,365.167 37.333 C 365.167 37.425,365.017 37.500,364.833 37.500 C 364.650 37.500,364.500 37.575,364.500 37.667 C 364.500 37.758,364.350 37.833,364.167 37.833 C 363.835 37.833,363.833 37.944,363.833 58.667 L 363.833 79.500 369.250 79.500 L 374.667 79.500 374.667 62.000 L 374.667 44.500 375.333 44.500 C 375.700 44.500,376.000 44.425,376.000 44.333 C 376.000 44.242,376.300 44.167,376.667 44.167 C 377.033 44.167,377.333 44.092,377.333 44.000 C 377.333 43.907,377.778 43.833,378.333 43.833 C 378.889 43.833,379.333 43.759,379.333 43.667 C 379.333 43.568,379.944 43.500,380.833 43.500 C 381.722 43.500,382.333 43.432,382.333 43.333 C 382.333 43.235,382.944 43.167,383.833 43.167 L 385.333 43.167 385.333 38.333 L 385.333 33.500 382.667 33.500 C 381.000 33.500,380.000 33.563,380.000 33.667 M186.500 34.740 C 186.500 35.056,186.575 35.360,186.667 35.417 C 186.758 35.473,186.833 35.698,186.833 35.917 C 186.833 36.135,186.908 36.360,187.000 36.417 C 187.092 36.473,187.167 36.665,187.167 36.843 C 187.167 37.021,187.242 37.167,187.333 37.167 C 187.425 37.167,187.500 37.392,187.500 37.667 C 187.500 37.942,187.575 38.167,187.667 38.167 C 187.758 38.167,187.833 38.392,187.833 38.667 C 187.833 38.942,187.908 39.167,188.000 39.167 C 188.092 39.167,188.167 39.392,188.167 39.667 C 188.167 39.942,188.242 40.167,188.333 40.167 C 188.425 40.167,188.500 40.350,188.500 40.573 C 188.500 40.797,188.575 41.027,188.667 41.083 C 188.758 41.140,188.833 41.332,188.833 41.510 C 188.833 41.688,188.908 41.833,189.000 41.833 C 189.092 41.833,189.167 42.058,189.167 42.333 C 189.167 42.608,189.242 42.833,189.333 42.833 C 189.425 42.833,189.500 43.058,189.500 43.333 C 189.500 43.608,189.575 43.833,189.667 43.833 C 189.758 43.833,189.833 44.006,189.833 44.217 C 189.833 44.428,189.895 44.671,189.971 44.758 C 190.047 44.845,190.211 45.243,190.337 45.643 C 190.462 46.042,190.663 46.406,190.783 46.452 C 190.902 46.498,191.000 46.790,191.000 47.101 C 191.000 47.412,191.075 47.667,191.167 47.667 C 191.258 47.667,191.333 47.892,191.333 48.167 C 191.333 48.442,191.408 48.667,191.500 48.667 C 191.592 48.667,191.667 48.892,191.667 49.167 C 191.667 49.442,191.742 49.667,191.833 49.667 C 191.925 49.667,192.000 49.892,192.000 50.167 C 192.000 50.442,192.075 50.667,192.167 50.667 C 192.258 50.667,192.333 50.892,192.333 51.167 C 192.333 51.442,192.408 51.667,192.500 51.667 C 192.592 51.667,192.667 51.817,192.667 52.000 C 192.667 52.183,192.742 52.333,192.833 52.333 C 192.925 52.333,193.000 52.558,193.000 52.833 C 193.000 53.108,193.075 53.333,193.167 53.333 C 193.258 53.333,193.333 53.558,193.333 53.833 C 193.333 54.108,193.408 54.333,193.500 54.333 C 193.592 54.333,193.667 54.558,193.667 54.833 C 193.667 55.108,193.742 55.333,193.833 55.333 C 193.925 55.333,194.000 55.558,194.000 55.833 C 194.000 56.108,194.075 56.333,194.167 56.333 C 194.258 56.333,194.333 56.483,194.333 56.667 C 194.333 56.850,194.408 57.000,194.500 57.000 C 194.592 57.000,194.667 57.225,194.667 57.500 C 194.667 57.775,194.742 58.000,194.833 58.000 C 194.925 58.000,195.000 58.225,195.000 58.500 C 195.000 58.775,195.075 59.000,195.167 59.000 C 195.258 59.000,195.333 59.225,195.333 59.500 C 195.333 59.775,195.408 60.000,195.500 60.000 C 195.592 60.000,195.667 60.225,195.667 60.500 C 195.667 60.775,195.742 61.000,195.833 61.000 C 195.925 61.000,196.000 61.150,196.000 61.333 C 196.000 61.517,196.075 61.667,196.167 61.667 C 196.258 61.667,196.333 61.892,196.333 62.167 C 196.333 62.442,196.408 62.667,196.500 62.667 C 196.592 62.667,196.667 62.892,196.667 63.167 C 196.667 63.442,196.742 63.667,196.833 63.667 C 196.925 63.667,197.000 63.892,197.000 64.167 C 197.000 64.442,197.075 64.667,197.167 64.667 C 197.258 64.667,197.333 64.892,197.333 65.167 C 197.333 65.442,197.408 65.667,197.500 65.667 C 197.592 65.667,197.667 65.892,197.667 66.167 C 197.667 66.442,197.742 66.667,197.833 66.667 C 197.925 66.667,198.000 66.854,198.000 67.083 C 198.000 67.313,198.075 67.500,198.167 67.500 C 198.258 67.500,198.333 67.725,198.333 68.000 C 198.333 68.275,198.408 68.500,198.500 68.500 C 198.592 68.500,198.667 68.725,198.667 69.000 C 198.667 69.275,198.742 69.500,198.833 69.500 C 198.925 69.500,199.000 69.725,199.000 70.000 C 199.000 70.275,199.075 70.500,199.167 70.500 C 199.258 70.500,199.333 70.725,199.333 71.000 C 199.333 71.275,199.408 71.500,199.500 71.500 C 199.592 71.500,199.667 71.650,199.667 71.833 C 199.667 72.017,199.742 72.167,199.833 72.167 C 199.925 72.167,200.000 72.392,200.000 72.667 C 200.000 72.942,200.075 73.167,200.167 73.167 C 200.258 73.167,200.333 73.392,200.333 73.667 C 200.333 73.942,200.408 74.167,200.500 74.167 C 200.592 74.167,200.667 74.392,200.667 74.667 C 200.667 74.942,200.742 75.167,200.833 75.167 C 200.925 75.167,201.000 75.392,201.000 75.667 C 201.000 75.942,201.075 76.167,201.167 76.167 C 201.258 76.167,201.333 76.542,201.333 77.000 C 201.333 77.458,201.258 77.833,201.167 77.833 C 201.075 77.833,201.000 77.983,201.000 78.167 C 201.000 78.350,200.925 78.500,200.833 78.500 C 200.742 78.500,200.667 78.725,200.667 79.000 C 200.667 79.275,200.592 79.500,200.500 79.500 C 200.408 79.500,200.333 79.650,200.333 79.833 C 200.333 80.017,200.258 80.167,200.167 80.167 C 200.075 80.167,200.001 80.260,200.001 80.375 C 200.003 80.639,198.630 83.398,198.460 83.472 C 198.390 83.503,198.333 83.634,198.333 83.764 C 198.333 83.894,198.258 84.000,198.167 84.000 C 198.075 84.000,198.000 84.120,198.000 84.266 C 198.000 84.413,197.775 84.743,197.500 85.000 C 197.225 85.257,197.000 85.587,197.000 85.734 C 197.000 85.880,196.880 86.000,196.734 86.000 C 196.587 86.000,196.257 86.225,196.000 86.500 C 195.743 86.775,195.413 87.000,195.266 87.000 C 195.120 87.000,195.000 87.075,195.000 87.167 C 195.000 87.267,194.337 87.333,193.343 87.333 C 192.418 87.333,191.641 87.260,191.583 87.167 C 191.527 87.075,191.260 87.000,190.990 87.000 C 190.721 87.000,190.500 86.925,190.500 86.833 C 190.500 86.742,190.275 86.667,190.000 86.667 C 189.725 86.667,189.500 86.592,189.500 86.500 C 189.500 86.408,189.275 86.333,189.000 86.333 L 188.500 86.333 188.500 91.095 C 188.500 96.254,188.514 96.333,189.405 96.333 C 189.640 96.333,189.833 96.408,189.833 96.500 C 189.833 96.592,190.096 96.667,190.417 96.667 C 190.737 96.667,191.000 96.742,191.000 96.833 C 191.000 96.925,191.375 97.000,191.833 97.000 C 192.292 97.000,192.667 97.075,192.667 97.167 C 192.667 97.270,193.611 97.333,195.167 97.333 C 196.722 97.333,197.667 97.270,197.667 97.167 C 197.667 97.075,197.967 97.000,198.333 97.000 C 198.700 97.000,199.000 96.925,199.000 96.833 C 199.000 96.742,199.225 96.667,199.500 96.667 C 199.775 96.667,200.000 96.592,200.000 96.500 C 200.000 96.408,200.150 96.333,200.333 96.333 C 200.517 96.333,200.667 96.258,200.667 96.167 C 200.667 96.075,200.817 96.000,201.000 96.000 C 201.183 96.000,201.333 95.925,201.333 95.833 C 201.333 95.742,201.467 95.667,201.630 95.667 C 201.793 95.667,202.035 95.517,202.167 95.333 C 202.299 95.150,202.504 95.000,202.622 95.000 C 202.903 95.000,206.000 91.903,206.000 91.622 C 206.000 91.504,206.150 91.299,206.333 91.167 C 206.517 91.035,206.667 90.810,206.667 90.667 C 206.667 90.524,206.817 90.299,207.000 90.167 C 207.183 90.035,207.333 89.793,207.333 89.630 C 207.333 89.467,207.408 89.333,207.500 89.333 C 207.592 89.333,207.667 89.183,207.667 89.000 C 207.667 88.817,207.742 88.667,207.833 88.667 C 207.925 88.667,208.000 88.517,208.000 88.333 C 208.000 88.150,208.075 88.000,208.167 88.000 C 208.258 88.000,208.333 87.850,208.333 87.667 C 208.333 87.483,208.408 87.333,208.500 87.333 C 208.592 87.333,208.667 87.183,208.667 87.000 C 208.667 86.817,208.742 86.667,208.833 86.667 C 208.925 86.667,209.000 86.517,209.000 86.333 C 209.000 86.150,209.061 86.000,209.135 86.000 C 209.303 86.000,209.833 84.818,209.833 84.444 C 209.833 84.291,209.908 84.167,210.000 84.167 C 210.092 84.167,210.167 84.017,210.167 83.833 C 210.167 83.650,210.242 83.500,210.333 83.500 C 210.425 83.500,210.500 83.275,210.500 83.000 C 210.500 82.725,210.575 82.500,210.667 82.500 C 210.758 82.500,210.833 82.354,210.833 82.177 C 210.833 81.999,210.908 81.807,211.000 81.750 C 211.092 81.693,211.167 81.464,211.167 81.240 C 211.167 81.016,211.242 80.833,211.333 80.833 C 211.425 80.833,211.500 80.608,211.500 80.333 C 211.500 80.058,211.575 79.833,211.667 79.833 C 211.758 79.833,211.833 79.608,211.833 79.333 C 211.833 79.058,211.908 78.833,212.000 78.833 C 212.092 78.833,212.167 78.608,212.167 78.333 C 212.167 78.058,212.242 77.833,212.333 77.833 C 212.425 77.833,212.500 77.608,212.500 77.333 C 212.500 77.058,212.575 76.833,212.667 76.833 C 212.758 76.833,212.833 76.608,212.833 76.333 C 212.833 76.058,212.908 75.833,213.000 75.833 C 213.092 75.833,213.167 75.608,213.167 75.333 C 213.167 75.058,213.242 74.833,213.333 74.833 C 213.425 74.833,213.500 74.608,213.500 74.333 C 213.500 74.058,213.575 73.833,213.667 73.833 C 213.758 73.833,213.833 73.608,213.833 73.333 C 213.833 73.058,213.908 72.833,214.000 72.833 C 214.092 72.833,214.167 72.608,214.167 72.333 C 214.167 72.058,214.242 71.833,214.333 71.833 C 214.425 71.833,214.500 71.608,214.500 71.333 C 214.500 71.058,214.575 70.833,214.667 70.833 C 214.758 70.833,214.833 70.608,214.833 70.333 C 214.833 70.058,214.908 69.833,215.000 69.833 C 215.092 69.833,215.167 69.613,215.167 69.343 C 215.167 69.074,215.242 68.807,215.333 68.750 C 215.425 68.693,215.500 68.468,215.500 68.250 C 215.500 68.032,215.575 67.807,215.667 67.750 C 215.758 67.693,215.833 67.468,215.833 67.250 C 215.833 67.032,215.908 66.807,216.000 66.750 C 216.092 66.693,216.167 66.426,216.167 66.157 C 216.167 65.887,216.242 65.667,216.333 65.667 C 216.425 65.667,216.500 65.442,216.500 65.167 C 216.500 64.892,216.575 64.667,216.667 64.667 C 216.758 64.667,216.833 64.442,216.833 64.167 C 216.833 63.892,216.908 63.667,217.000 63.667 C 217.092 63.667,217.167 63.442,217.167 63.167 C 217.167 62.892,217.242 62.667,217.333 62.667 C 217.425 62.667,217.500 62.442,217.500 62.167 C 217.500 61.892,217.575 61.667,217.667 61.667 C 217.758 61.667,217.833 61.442,217.833 61.167 C 217.833 60.892,217.908 60.667,218.000 60.667 C 218.092 60.667,218.167 60.442,218.167 60.167 C 218.167 59.892,218.242 59.667,218.333 59.667 C 218.425 59.667,218.500 59.442,218.500 59.167 C 218.500 58.892,218.575 58.667,218.667 58.667 C 218.758 58.667,218.833 58.442,218.833 58.167 C 218.833 57.892,218.908 57.667,219.000 57.667 C 219.092 57.667,219.167 57.442,219.167 57.167 C 219.167 56.892,219.242 56.667,219.333 56.667 C 219.425 56.667,219.500 56.442,219.500 56.167 C 219.500 55.892,219.575 55.667,219.667 55.667 C 219.758 55.667,219.833 55.442,219.833 55.167 C 219.833 54.892,219.908 54.667,220.000 54.667 C 220.092 54.667,220.167 54.442,220.167 54.167 C 220.167 53.892,220.242 53.667,220.333 53.667 C 220.425 53.667,220.500 53.442,220.500 53.167 C 220.500 52.892,220.575 52.667,220.667 52.667 C 220.758 52.667,220.833 52.442,220.833 52.167 C 220.833 51.892,220.908 51.667,221.000 51.667 C 221.092 51.667,221.167 51.442,221.167 51.167 C 221.167 50.892,221.242 50.667,221.333 50.667 C 221.425 50.667,221.500 50.442,221.500 50.167 C 221.500 49.892,221.575 49.667,221.667 49.667 C 221.758 49.667,221.833 49.442,221.833 49.167 C 221.833 48.892,221.908 48.667,222.000 48.667 C 222.092 48.667,222.167 48.446,222.167 48.177 C 222.167 47.907,222.242 47.640,222.333 47.583 C 222.425 47.527,222.500 47.260,222.500 46.990 C 222.500 46.721,222.575 46.500,222.667 46.500 C 222.758 46.500,222.833 46.275,222.833 46.000 C 222.833 45.725,222.908 45.500,223.000 45.500 C 223.092 45.500,223.167 45.275,223.167 45.000 C 223.167 44.725,223.242 44.500,223.333 44.500 C 223.425 44.500,223.500 44.275,223.500 44.000 C 223.500 43.725,223.575 43.500,223.667 43.500 C 223.758 43.500,223.833 43.275,223.833 43.000 C 223.833 42.725,223.908 42.500,224.000 42.500 C 224.092 42.500,224.167 42.275,224.167 42.000 C 224.167 41.725,224.242 41.500,224.333 41.500 C 224.425 41.500,224.500 41.275,224.500 41.000 C 224.500 40.725,224.575 40.500,224.667 40.500 C 224.758 40.500,224.833 40.275,224.833 40.000 C 224.833 39.725,224.908 39.500,225.000 39.500 C 225.092 39.500,225.167 39.275,225.167 39.000 C 225.167 38.725,225.242 38.500,225.333 38.500 C 225.425 38.500,225.500 38.350,225.500 38.167 C 225.500 37.983,225.575 37.833,225.667 37.833 C 225.758 37.833,225.833 37.608,225.833 37.333 C 225.833 37.058,225.908 36.833,226.000 36.833 C 226.092 36.833,226.167 36.608,226.167 36.333 C 226.167 36.058,226.242 35.833,226.333 35.833 C 226.425 35.833,226.500 35.458,226.500 35.000 L 226.500 34.167 221.167 34.167 C 215.944 34.167,215.833 34.174,215.833 34.500 C 215.833 34.683,215.758 34.833,215.667 34.833 C 215.575 34.833,215.500 35.133,215.500 35.500 C 215.500 35.867,215.425 36.167,215.333 36.167 C 215.242 36.167,215.167 36.392,215.167 36.667 C 215.167 36.942,215.092 37.167,215.000 37.167 C 214.908 37.167,214.833 37.467,214.833 37.833 C 214.833 38.200,214.758 38.500,214.667 38.500 C 214.575 38.500,214.500 38.725,214.500 39.000 C 214.500 39.275,214.425 39.500,214.333 39.500 C 214.242 39.500,214.167 39.725,214.167 40.000 C 214.167 40.275,214.092 40.500,214.000 40.500 C 213.908 40.500,213.833 40.800,213.833 41.167 C 213.833 41.533,213.758 41.833,213.667 41.833 C 213.575 41.833,213.500 42.058,213.500 42.333 C 213.500 42.608,213.425 42.833,213.333 42.833 C 213.242 42.833,213.167 43.058,213.167 43.333 C 213.167 43.608,213.092 43.833,213.000 43.833 C 212.908 43.833,212.833 44.133,212.833 44.500 C 212.833 44.867,212.758 45.167,212.667 45.167 C 212.575 45.167,212.500 45.387,212.500 45.657 C 212.500 45.926,212.425 46.193,212.333 46.250 C 212.242 46.307,212.167 46.649,212.167 47.010 C 212.167 47.371,212.092 47.667,212.000 47.667 C 211.908 47.667,211.833 47.892,211.833 48.167 C 211.833 48.442,211.758 48.667,211.667 48.667 C 211.575 48.667,211.500 48.892,211.500 49.167 C 211.500 49.442,211.425 49.667,211.333 49.667 C 211.242 49.667,211.167 49.967,211.167 50.333 C 211.167 50.700,211.092 51.000,211.000 51.000 C 210.908 51.000,210.833 51.225,210.833 51.500 C 210.833 51.775,210.758 52.000,210.667 52.000 C 210.575 52.000,210.500 52.225,210.500 52.500 C 210.500 52.775,210.425 53.000,210.333 53.000 C 210.242 53.000,210.167 53.300,210.167 53.667 C 210.167 54.033,210.092 54.333,210.000 54.333 C 209.908 54.333,209.833 54.558,209.833 54.833 C 209.833 55.108,209.758 55.333,209.667 55.333 C 209.575 55.333,209.500 55.633,209.500 56.000 C 209.500 56.367,209.425 56.667,209.333 56.667 C 209.242 56.667,209.167 56.892,209.167 57.167 C 209.167 57.442,209.109 57.667,209.039 57.667 C 208.877 57.667,208.333 59.184,208.333 59.638 C 208.333 59.826,208.258 60.027,208.167 60.083 C 208.075 60.140,208.000 60.365,208.000 60.583 C 208.000 60.802,207.925 61.027,207.833 61.083 C 207.742 61.140,207.667 61.440,207.667 61.750 C 207.667 62.060,207.592 62.360,207.500 62.417 C 207.408 62.473,207.331 62.684,207.328 62.885 C 207.322 63.302,206.938 63.882,206.775 63.720 C 206.716 63.660,206.667 63.399,206.667 63.139 C 206.667 62.879,206.592 62.667,206.500 62.667 C 206.408 62.667,206.333 62.442,206.333 62.167 C 206.333 61.892,206.258 61.667,206.167 61.667 C 206.075 61.667,206.000 61.367,206.000 61.000 C 206.000 60.633,205.925 60.333,205.833 60.333 C 205.742 60.333,205.667 60.108,205.667 59.833 C 205.667 59.558,205.592 59.333,205.500 59.333 C 205.408 59.333,205.333 59.108,205.333 58.833 C 205.333 58.558,205.258 58.333,205.167 58.333 C 205.075 58.333,205.000 58.108,205.000 57.833 C 205.000 57.558,204.925 57.333,204.833 57.333 C 204.742 57.333,204.667 57.033,204.667 56.667 C 204.667 56.300,204.592 56.000,204.500 56.000 C 204.408 56.000,204.333 55.775,204.333 55.500 C 204.333 55.225,204.258 55.000,204.167 55.000 C 204.075 55.000,204.000 54.775,204.000 54.500 C 204.000 54.225,203.925 54.000,203.833 54.000 C 203.742 54.000,203.667 53.700,203.667 53.333 C 203.667 52.967,203.592 52.667,203.500 52.667 C 203.408 52.667,203.333 52.442,203.333 52.167 C 203.333 51.892,203.258 51.667,203.167 51.667 C 203.075 51.667,203.000 51.442,203.000 51.167 C 203.000 50.892,202.925 50.667,202.833 50.667 C 202.742 50.667,202.667 50.367,202.667 50.000 C 202.667 49.633,202.592 49.333,202.500 49.333 C 202.408 49.333,202.333 49.108,202.333 48.833 C 202.333 48.558,202.258 48.333,202.167 48.333 C 202.075 48.333,202.000 48.108,202.000 47.833 C 202.000 47.558,201.925 47.333,201.833 47.333 C 201.742 47.333,201.667 47.033,201.667 46.667 C 201.667 46.300,201.592 46.000,201.500 46.000 C 201.408 46.000,201.333 45.737,201.333 45.417 C 201.333 45.096,201.258 44.833,201.167 44.833 C 201.075 44.833,201.000 44.608,201.000 44.333 C 201.000 44.058,200.925 43.833,200.833 43.833 C 200.742 43.833,200.667 43.575,200.667 43.260 C 200.667 42.944,200.592 42.640,200.500 42.583 C 200.408 42.527,200.333 42.260,200.333 41.990 C 200.333 41.721,200.258 41.500,200.167 41.500 C 200.075 41.500,200.000 41.275,200.000 41.000 C 200.000 40.725,199.925 40.500,199.833 40.500 C 199.742 40.500,199.667 40.200,199.667 39.833 C 199.667 39.467,199.592 39.167,199.500 39.167 C 199.408 39.167,199.333 38.942,199.333 38.667 C 199.333 38.392,199.258 38.167,199.167 38.167 C 199.075 38.167,199.000 37.942,199.000 37.667 C 199.000 37.392,198.925 37.167,198.833 37.167 C 198.742 37.167,198.667 36.867,198.667 36.500 C 198.667 36.133,198.592 35.833,198.500 35.833 C 198.408 35.833,198.333 35.608,198.333 35.333 C 198.333 35.058,198.258 34.833,198.167 34.833 C 198.075 34.833,198.000 34.683,198.000 34.500 C 198.000 34.173,197.889 34.167,192.250 34.167 L 186.500 34.167 186.500 34.740 M168.333 42.667 C 168.333 42.758,168.558 42.833,168.833 42.833 C 169.108 42.833,169.333 42.908,169.333 43.000 C 169.333 43.092,169.431 43.167,169.550 43.167 C 169.857 43.167,170.664 43.559,170.665 43.708 C 170.666 43.777,170.783 43.833,170.924 43.833 C 171.066 43.833,171.357 44.002,171.572 44.208 C 171.786 44.415,172.231 44.808,172.561 45.083 C 172.890 45.358,173.161 45.698,173.163 45.838 C 173.165 45.978,173.317 46.201,173.500 46.333 C 173.683 46.465,173.833 46.703,173.833 46.860 C 173.833 47.018,173.908 47.193,174.000 47.250 C 174.092 47.307,174.167 47.574,174.167 47.843 C 174.167 48.113,174.242 48.333,174.333 48.333 C 174.425 48.333,174.500 48.558,174.500 48.833 C 174.500 49.108,174.575 49.333,174.667 49.333 C 174.758 49.333,174.833 49.708,174.833 50.167 C 174.833 50.625,174.908 51.000,175.000 51.000 C 175.108 51.000,175.167 52.833,175.167 56.167 C 175.167 59.500,175.108 61.333,175.000 61.333 C 174.907 61.333,174.833 61.778,174.833 62.333 C 174.833 62.889,174.759 63.333,174.667 63.333 C 174.575 63.333,174.500 63.633,174.500 64.000 C 174.500 64.367,174.425 64.667,174.333 64.667 C 174.242 64.667,174.167 64.929,174.167 65.250 C 174.167 65.571,174.092 65.833,174.000 65.833 C 173.908 65.833,173.833 65.983,173.833 66.167 C 173.833 66.350,173.758 66.500,173.667 66.500 C 173.575 66.500,173.500 66.633,173.500 66.797 C 173.500 66.960,173.350 67.201,173.167 67.333 C 172.983 67.465,172.833 67.707,172.833 67.870 C 172.833 68.033,172.769 68.167,172.691 68.167 C 172.613 68.167,172.314 68.392,172.026 68.667 C 171.738 68.942,171.390 69.167,171.252 69.167 C 171.113 69.167,170.999 69.223,170.999 69.292 C 170.997 69.441,170.190 69.833,169.883 69.833 C 169.764 69.833,169.667 69.908,169.667 70.000 C 169.667 70.092,169.367 70.167,169.000 70.167 C 168.633 70.167,168.333 70.242,168.333 70.333 C 168.333 70.433,167.667 70.500,166.667 70.500 C 165.667 70.500,165.000 70.433,165.000 70.333 C 165.000 70.242,164.625 70.167,164.167 70.167 C 163.708 70.167,163.333 70.092,163.333 70.000 C 163.333 69.908,163.108 69.833,162.833 69.833 C 162.558 69.833,162.333 69.758,162.333 69.667 C 162.333 69.575,162.219 69.500,162.080 69.500 C 161.643 69.500,160.000 67.725,160.000 67.254 C 160.000 67.022,159.925 66.833,159.833 66.833 C 159.724 66.833,159.667 62.778,159.667 55.000 C 159.667 43.278,159.670 43.167,160.000 43.167 C 160.183 43.167,160.333 43.092,160.333 43.000 C 160.333 42.908,160.708 42.833,161.167 42.833 C 161.625 42.833,162.000 42.758,162.000 42.667 C 162.000 42.561,163.167 42.500,165.167 42.500 C 167.167 42.500,168.333 42.561,168.333 42.667 M300.000 42.667 C 300.000 42.758,300.375 42.833,300.833 42.833 C 301.292 42.833,301.667 42.908,301.667 43.000 C 301.667 43.092,301.817 43.167,302.000 43.167 C 302.330 43.167,302.333 43.278,302.333 55.167 C 302.333 63.056,302.276 67.167,302.167 67.167 C 302.075 67.167,302.000 67.317,302.000 67.500 C 302.000 67.683,301.925 67.833,301.833 67.833 C 301.742 67.833,301.667 67.951,301.667 68.095 C 301.667 68.416,301.271 68.833,300.965 68.833 C 300.842 68.833,300.632 68.983,300.500 69.167 C 300.368 69.350,300.126 69.500,299.963 69.500 C 299.800 69.500,299.667 69.575,299.667 69.667 C 299.667 69.758,299.446 69.833,299.177 69.833 C 298.907 69.833,298.640 69.908,298.583 70.000 C 298.527 70.092,298.110 70.167,297.657 70.167 C 297.204 70.167,296.833 70.242,296.833 70.333 C 296.833 70.433,296.167 70.500,295.167 70.500 C 294.167 70.500,293.500 70.433,293.500 70.333 C 293.500 70.242,293.200 70.167,292.833 70.167 C 292.467 70.167,292.167 70.092,292.167 70.000 C 292.167 69.908,292.017 69.833,291.833 69.833 C 291.650 69.833,291.500 69.758,291.500 69.667 C 291.500 69.575,291.350 69.500,291.167 69.500 C 290.983 69.500,290.833 69.425,290.833 69.333 C 290.833 69.242,290.718 69.167,290.578 69.167 C 290.266 69.167,289.167 68.096,289.167 67.792 C 289.167 67.672,289.017 67.465,288.833 67.333 C 288.650 67.201,288.500 66.960,288.500 66.797 C 288.500 66.633,288.425 66.500,288.333 66.500 C 288.242 66.500,288.167 66.350,288.167 66.167 C 288.167 65.983,288.092 65.833,288.000 65.833 C 287.908 65.833,287.833 65.613,287.833 65.343 C 287.833 65.074,287.758 64.807,287.667 64.750 C 287.575 64.693,287.500 64.351,287.500 63.990 C 287.500 63.629,287.425 63.333,287.333 63.333 C 287.241 63.333,287.167 62.889,287.167 62.333 C 287.167 61.778,287.093 61.333,287.000 61.333 C 286.896 61.333,286.833 60.338,286.833 58.681 C 286.833 56.721,286.779 56.002,286.625 55.931 C 286.458 55.853,286.458 55.814,286.625 55.736 C 286.777 55.665,286.833 55.012,286.833 53.319 C 286.833 51.884,286.897 51.000,287.000 51.000 C 287.092 51.000,287.167 50.625,287.167 50.167 C 287.167 49.708,287.242 49.333,287.333 49.333 C 287.425 49.333,287.500 49.113,287.500 48.843 C 287.500 48.574,287.575 48.307,287.667 48.250 C 287.758 48.193,287.833 47.926,287.833 47.657 C 287.833 47.387,287.908 47.167,288.000 47.167 C 288.092 47.167,288.167 47.017,288.167 46.833 C 288.167 46.650,288.242 46.500,288.333 46.500 C 288.425 46.500,288.500 46.386,288.500 46.247 C 288.500 45.917,290.584 43.833,290.914 43.833 C 291.053 43.833,291.167 43.758,291.167 43.667 C 291.167 43.575,291.317 43.500,291.500 43.500 C 291.683 43.500,291.833 43.425,291.833 43.333 C 291.833 43.242,291.983 43.167,292.167 43.167 C 292.350 43.167,292.500 43.092,292.500 43.000 C 292.500 42.908,292.725 42.833,293.000 42.833 C 293.275 42.833,293.500 42.758,293.500 42.667 C 293.500 42.561,294.694 42.500,296.750 42.500 C 298.806 42.500,300.000 42.561,300.000 42.667 M339.667 43.000 C 339.667 43.092,339.817 43.167,340.000 43.167 C 340.183 43.167,340.333 43.242,340.333 43.333 C 340.333 43.425,340.483 43.500,340.667 43.500 C 340.850 43.500,341.000 43.575,341.000 43.667 C 341.000 43.758,341.114 43.833,341.254 43.833 C 341.562 43.833,343.333 45.573,343.333 45.876 C 343.333 45.996,343.483 46.201,343.667 46.333 C 343.850 46.465,344.000 46.707,344.000 46.870 C 344.000 47.033,344.075 47.167,344.167 47.167 C 344.258 47.167,344.333 47.312,344.333 47.490 C 344.333 47.668,344.408 47.860,344.500 47.917 C 344.592 47.973,344.667 48.165,344.667 48.343 C 344.667 48.521,344.742 48.667,344.833 48.667 C 344.925 48.667,345.000 48.892,345.000 49.167 C 345.000 49.442,345.075 49.667,345.167 49.667 C 345.258 49.667,345.333 49.967,345.333 50.333 C 345.333 50.700,345.408 51.000,345.500 51.000 C 345.592 51.000,345.667 51.375,345.667 51.833 C 345.667 52.292,345.742 52.667,345.833 52.667 C 345.925 52.667,346.000 52.742,346.000 52.833 C 346.000 52.942,343.194 53.000,337.917 53.000 L 329.833 53.000 329.833 51.833 C 329.833 51.167,329.905 50.667,330.000 50.667 C 330.092 50.667,330.167 50.367,330.167 50.000 C 330.167 49.633,330.242 49.333,330.333 49.333 C 330.425 49.333,330.500 49.071,330.500 48.750 C 330.500 48.429,330.575 48.167,330.667 48.167 C 330.758 48.167,330.833 47.942,330.833 47.667 C 330.833 47.392,330.908 47.167,331.000 47.167 C 331.092 47.167,331.167 47.017,331.167 46.833 C 331.167 46.650,331.242 46.500,331.333 46.500 C 331.425 46.500,331.500 46.386,331.500 46.247 C 331.500 45.917,333.584 43.833,333.914 43.833 C 334.053 43.833,334.167 43.758,334.167 43.667 C 334.167 43.575,334.317 43.500,334.500 43.500 C 334.683 43.500,334.833 43.425,334.833 43.333 C 334.833 43.242,335.058 43.167,335.333 43.167 C 335.608 43.167,335.833 43.092,335.833 43.000 C 335.833 42.899,336.583 42.833,337.750 42.833 C 338.917 42.833,339.667 42.899,339.667 43.000 " stroke="none" fill="#04acfc" fill-rule="evenodd"></path><path id="path1" d="" stroke="none" fill="#08acfc" fill-rule="evenodd"></path><path id="path2" d="" stroke="none" fill="#08acfc" fill-rule="evenodd"></path><path id="path3" d="" stroke="none" fill="#08acfc" fill-rule="evenodd"></path><path id="path4" d="" stroke="none" fill="#08acfc" fill-rule="evenodd"></path></g></svg>