<svg id="Layer_1" data-name="Layer 1" xmlns="http://www.w3.org/2000/svg" viewBox="0 0 612 168.5578"><defs><style>.cls-1{fill:#00b75f;}.cls-2{fill:#009d52;}.cls-3{fill:#fbfdfc;}.cls-4{fill:#f8fcfa;}.cls-5{fill:#00713a;}</style></defs><title>Cloverleaf</title><path class="cls-1" d="M388.89279,132.96477q-106.41537,0-212.83075.03635c-1.54341.00091-1.9584-.31286-1.95526-1.92148q.086-44.32851.00619-88.65719c-.00234-1.45575.3962-1.75925,1.79207-1.75893q212.98775.04922,425.97549.00058c1.39012-.00031,1.80468.29332,1.8023,1.75856q-.07179,44.40676,0,88.81365c.00238,1.46522-.412,1.75946-1.8023,1.75878Q495.38665,132.94342,388.89279,132.96477Zm6.51808-46.14337c0,8.47082.02537,16.9418-.02893,25.41227-.00763,1.19264.32312,1.51085,1.48918,1.47344,2.66466-.08555,5.33473-.06493,8.00093-.00782,1.02305.0219,1.48263-.17359,1.46669-1.35176-.065-4.80972-.0271-9.62081-.0271-14.4314,0-3.88733.0005-3.84629,3.87786-3.89373a1.72317,1.72317,0,0,1,1.94083,1.28054c2.30694,5.7596,4.72731,11.47373,7.04675,17.22844a1.52643,1.52643,0,0,0,1.69711,1.17185c2.92754-.0633,5.85735-.02121,8.78627-.02384,1.8858-.0017,1.95049-.09106,1.21944-1.79634-2.77522-6.47369-5.53952-12.95222-8.35436-19.40869-.4049-.9286-.35888-1.42222.5873-1.97735a11.905,11.905,0,0,0,3.89108-3.80848c2.31039-3.516,2.86915-7.44347,2.69528-11.54049-.38562-9.0857-5.82477-14.57966-14.93279-15.03984-5.90487-.29833-11.81641-.02139-17.72243-.15865-1.28776-.02994-1.67373.28909-1.66411,1.61649C395.44084,69.98413,395.41087,78.40287,395.41087,86.8214Zm-87.481-.216a92.208,92.208,0,0,0-.34247-9.71328c-1.64285-12.79646-11.68587-19.97993-24.16042-17.01623-7.48341,1.77791-11.65262,7.06348-13.14092,14.248a63.70633,63.70633,0,0,0-.06754,25.53242c1.779,8.87772,7.76248,13.84221,16.77947,14.68959,9.84054.92479,17.4734-4.48152,19.97788-14.03889C308.10747,95.98841,307.91437,91.60559,307.92982,86.60535Zm236.3656,27.07474c1.51631,0,3.03508-.05283,4.548.01814,1.04853.0492,1.37112-.17379,1.01926-1.28439Q541.738,86.77032,533.6921,61.102c-.26863-.85726-.63126-1.162-1.52195-1.142-2.45624.055-4.91777.0943-7.37052-.01329-1.19851-.05257-1.5936.44648-1.90714,1.48525-1.386,4.59206-2.85539,9.15891-4.28659,13.73738q-5.787,18.51309-11.59211,37.02047c-.39965,1.26467-.17643,1.56045,1.13444,1.51823,2.82056-.09084,5.64828-.094,8.46845.00244,1.24569.0426,1.68465-.39484,1.94883-1.57665.61375-2.746,1.44638-5.44235,2.10373-8.17962.21992-.9157.56366-1.29417,1.55969-1.281q6.11639.08082,12.23425-.00356c.99657-.01528,1.35131.3669,1.57038,1.2531.71346,2.88548,1.53973,5.74371,2.21766,8.637a1.23262,1.23262,0,0,0,1.49592,1.13624C541.26127,113.63853,542.77911,113.68,544.29542,113.68009ZM473.13989,86.8324q0,12.71-.00812,25.41993c-.00134.85572-.01537,1.46321,1.19422,1.45724q14.28231-.07048,28.56518-.01111c.87479.00219,1.1899-.25057,1.16323-1.15549-.06009-2.03811-.116-4.0854.01379-6.117.09408-1.472-.27177-1.95646-1.84763-1.92643-5.596.10669-11.19542.01465-16.793.06465-1.09853.00983-1.42319-.31727-1.40479-1.412.06235-3.71256.07323-7.42785-.00418-11.13985-.02552-1.22433.30377-1.60273,1.55923-1.58251,4.60273.07417,9.20777-.00062,13.81111.05137,1.09095.01232,1.61242-.1576,1.53812-1.42889a54.24835,54.24835,0,0,1-.00269-5.95946c.06151-1.18789-.30357-1.50676-1.47982-1.48947-4.55066.06689-9.10354-.01605-13.654.0546-1.2962.02011-1.84932-.19356-1.78436-1.68288.13423-3.08011.11059-6.17249.008-9.255-.04476-1.34286.396-1.646,1.67185-1.631,5.64946.06629,11.30042.0052,16.95034.04995,1.03163.00817,1.36556-.29613,1.33019-1.33054-.07143-2.08973-.08917-4.18667.00467-6.27463.05484-1.22027-.29-1.59584-1.55681-1.58825q-13.81131.08282-27.62314-.00856c-1.47409-.01214-1.68734.49152-1.679,1.78941C473.16626,70.09482,473.13985,78.4637,473.13989,86.8324Zm-114.72168-.00259q0,12.70712-.00326,25.41421c-.00049.79777-.149,1.47865,1.13866,1.4708,9.51924-.058,19.03905-.04212,28.55855-.01426.90184.00265,1.16993-.28622,1.147-1.16749-.0543-2.09028-.10044-4.18742.01249-6.273.07258-1.34011-.2515-1.78155-1.69132-1.75727-5.59508.09434-11.19316.0002-16.789.06848-1.21063.01476-1.4768-.35947-1.45477-1.50022.07063-3.6591.08212-7.32175-.00429-10.98018-.03008-1.27287.26468-1.692,1.61181-1.66561,4.54885.08916,9.10135-.01478,13.65054.06516,1.27708.02245,1.59169-.38923,1.53318-1.58928-.09408-1.93024-.09558-3.87194.001-5.80192.05832-1.16438-.26882-1.51677-1.46672-1.49774-4.54943.07226-9.10143-.01514-13.65082.058-1.24672.02-1.73282-.21449-1.68369-1.5937.11159-3.13357.09135-6.27535.00693-9.41062-.03284-1.21961.29542-1.58282,1.54678-1.56751,5.64816.06913,11.29785.0011,16.94635.05518,1.10141.01054,1.43036-.29831,1.3866-1.39638-.0853-2.14059-.09163-4.2899.00191-6.4298.05-1.14408-.36033-1.368-1.41859-1.36365q-13.96534.05788-27.93093-.00425c-1.16116-.00593-1.48658.27317-1.47857,1.46718C358.44473,69.88689,358.41821,78.35844,358.41821,86.82981ZM332.484,97.93134l-.31127.03288c-2.82677-12.18821-5.6784-24.3708-8.44186-36.57334-.27552-1.21668-.77319-1.45625-1.87752-1.43378q-4.62634.0941-9.25574.00066c-1.08957-.02136-1.29424.20537-.97844,1.29834q7.405,25.62767,14.70644,51.28513c.249.87443.59991,1.17177,1.49389,1.15719,2.98016-.04865,5.96281-.06671,8.94186.00882.99334.02518,1.3344-.35483,1.58762-1.2364q7.34187-25.564,14.75189-51.10848c.30484-1.05043.27169-1.4479-1.00075-1.41223q-4.7031.13184-9.41178-.00358c-1.15434-.03475-1.51911.41589-1.74984,1.43331q-2.68252,11.82932-5.44027,23.64157Q334.00312,91.47919,332.484,97.93134ZM192.67044,86.80863c0,2.76828-.132,5.54434.03081,8.303a23.77468,23.77468,0,0,0,3.53246,11.71953c3.96513,6.14381,9.95329,7.90276,16.83392,7.50922,4.15064-.2374,8.0313-1.31313,11.2-4.22351,3.96916-3.64559,5.19776-8.419,5.61152-13.537.06666-.82453-.37586-.92911-1.05362-.92383-2.92839.02281-5.85749.03756-8.78536-.00764-.84233-.013-1.02536.30038-1.08244,1.08365a17.36973,17.36973,0,0,1-.91535,4.9106,5.00708,5.00708,0,0,1-3.218,3.17614c-5.6914,1.93434-9.9918-.58208-10.85777-6.471-.83991-5.71178-.60072-11.46663-.49415-17.20925a28.9456,28.9456,0,0,1,.69934-6.52587c1.3421-5.36938,5.27006-7.53932,10.56757-5.83693a5.00514,5.00514,0,0,1,3.30564,3.09095,13.55453,13.55453,0,0,1,.909,4.9042c.00343,1.33394.4883,1.63258,1.73909,1.56715,2.13829-.11186,4.28664-.03085,6.43078-.03085,2.92573,0,2.92573,0,2.575-2.851-1.20676-9.80839-6.69317-15.234-16.31677-16.13587-9.4921-.88957-16.61454,3.82421-19.502,12.89282C192.36223,76.98037,192.49438,81.89987,192.67044,86.80863Zm362.40332-.01612c0,8.47277.0223,16.94566-.026,25.41816-.00663,1.16586.29266,1.54011,1.48512,1.50059,2.66512-.08828,5.33726-.09036,8.00216.00093,1.19411.04091,1.4837-.32614,1.473-1.4922-.05817-6.3279.00751-12.657-.05806-18.98471-.01257-1.21318.35209-1.47318,1.49964-1.45724,4.655.06467,9.31185-.00144,13.96727.04852,1.046.01123,1.4901-.20181,1.43986-1.36135-.0927-2.14033-.07882-4.28937-.00383-6.43108.03591-1.02654-.2689-1.32377-1.30555-1.31193-4.76.05439-9.52126-.00638-14.28123.04769-1.03239.01173-1.3262-.27817-1.309-1.30755.06028-3.60776.08269-7.21865-.00843-10.82512-.0325-1.28584.403-1.558,1.59659-1.54454,5.17846.05861,10.3585-.01633,15.53665.05413,1.302.01772,1.87963-.19766,1.77011-1.67677a47.1995,47.1995,0,0,1-.00824-5.95816c.06557-1.24233-.32281-1.57168-1.55773-1.56446q-13.33968.07809-26.67988-.00165c-1.26382-.00792-1.56621.36765-1.55893,1.58548C555.09752,69.95142,555.07372,78.372,555.07376,86.79251ZM236.442,86.83517q0,12.70524-.00725,25.4105c-.00116.84617-.03318,1.47029,1.18582,1.46395q13.8063-.07182,27.61314-.00455c1.03677.00417,1.20149-.40392,1.17966-1.30028-.0534-2.19468-.0812-4.39415.00951-6.58638.04527-1.09458-.37058-1.3016-1.34847-1.29472-5.28185.03711-10.56508-.03894-15.84556.05375-1.4818.026-1.92639-.31109-1.91886-1.86666.06662-13.75062.02538-27.50175.06321-41.2526.0031-1.13194-.22343-1.55887-1.44985-1.51282-2.61121.09808-5.23119.09781-7.84251.001-1.28765-.04771-1.67967.30547-1.67,1.63534C236.47222,69.99918,236.442,78.41728,236.442,86.83517Zm200.59673-.11882q0,12.78367-.012,25.56732c-.00211.89851.06453,1.431,1.2286,1.42524q13.80636-.06858,27.61322-.00925c.90214.0026,1.16383-.29914,1.14172-1.17609-.054-2.14233-.08683-4.29.00924-6.4294.0546-1.21608-.27637-1.60166-1.54364-1.58363-5.17647.0736-10.35458.031-15.53209.0305-1.99758-.0002-1.99823-.001-1.99827-2.025-.00019-13.64637-.01835-27.29281.02924-40.939.00456-1.30668-.343-1.68629-1.64974-1.63317-2.61064.10612-5.23085.09574-7.84248.003-1.21457-.04311-1.47485.37221-1.4686,1.516C437.05988,69.88049,437.03876,78.29848,437.03876,86.71635Z"/><path class="cls-1" d="M123.87426,69.58241c14.50679,6.05988,23.57948,16.80116,26.92095,32.09547a43.86619,43.86619,0,0,1-29.40342,50.74236c-14.20358,4.51648-27.53057,2.38145-39.76926-6.2014-.37981-.26637-.71476-.59669-1.07051-.89707.01638-.71321.56517-1.08269.99072-1.531,1.86421-1.96385,3.91328-3.74275,5.59705-5.88913a43.27142,43.27142,0,0,0,9.4445-25.116,38.51254,38.51254,0,0,0-.31881-8.41284q.01875-.14046.03008-.28224A32.22072,32.22072,0,0,0,105.741,99.038,44.083,44.083,0,0,0,121.11981,79.4253,63.18184,63.18184,0,0,0,123.87426,69.58241Z"/><path class="cls-1" d="M79.658,145.17866A40.59291,40.59291,0,0,1,58.66571,154.213c-14.5914,1.85912-27.35528-2.29141-37.71775-12.7852C-1.03271,119.16852,6.77147,81.56557,35.71633,69.7011c.19178-.0786.39788-.1223.59731-.18232a13.01711,13.01711,0,0,0,.518,3.22568,44.50237,44.50237,0,0,0,9.60761,19.07895A42.314,42.314,0,0,0,62.233,103.53093a1.90519,1.90519,0,0,1,1.43021,2.22727c-.12568.95947-.02725,1.96953-.11787,2.89865a35.67551,35.67551,0,0,0,.38136,8.75394c1.56281,10.55773,6.64257,19.17831,14.41347,26.34085C78.80965,144.18435,79.65714,144.30484,79.658,145.17866Z"/><path class="cls-1" d="M36.36859,69.25717A42.11871,42.11871,0,0,1,39.83288,44.8076a44.12085,44.12085,0,0,1,83.82487,11.98122,39.07425,39.07425,0,0,1-.03354,12.471,7.07483,7.07483,0,0,1-.74638-.20721,42.91452,42.91452,0,0,0-19.4963-2.55759,41.0837,41.0837,0,0,0-19.15006,6.531c-1.40461.90741-3.05683,1.53511-3.95963,3.09749l-.61207.018c-.00983-.47632-.334-.6943-.67923-.96513a39.16984,39.16984,0,0,0-8.17821-4.841,43.63709,43.63709,0,0,0-16.86047-3.94557A47.781,47.781,0,0,0,36.36859,69.25717Z"/><path class="cls-2" d="M36.36859,69.25717a47.781,47.781,0,0,1,17.57327-2.86728,43.63709,43.63709,0,0,1,16.86047,3.94557,39.16984,39.16984,0,0,1,8.17821,4.841c.34524.27083.6694.48881.6792.9653a73.58976,73.58976,0,0,0-6.21823,6.34752,44.25307,44.25307,0,0,0-9.446,20.26144c-.1523.747-.20032,1.54514.82777,1.91766a45.47,45.47,0,0,0,22.41679,2.08123c3.10556-.45268,6.01582-1.59005,9.02511-2.37712a38.49746,38.49746,0,0,1,.31911,8.41314,43.27142,43.27142,0,0,1-9.4445,25.116c-1.68377,2.14638-3.73284,3.92528-5.59705,5.88913-.42555.4483-.97434.81778-.99072,1.531q-.44724-.07161-.89416-.14307c-.00072-.87387-.84821-.99436-1.31767-1.42707-7.7709-7.16254-12.85066-15.78312-14.41347-26.34085a35.67551,35.67551,0,0,1-.38136-8.75394c.09062-.92912-.00781-1.93918.11787-2.89865a1.90519,1.90519,0,0,0-1.43021-2.22727A42.314,42.314,0,0,1,46.43923,91.82341a44.50237,44.50237,0,0,1-9.60761-19.07895,13.01711,13.01711,0,0,1-.518-3.22568A.5284.5284,0,0,1,36.36859,69.25717Z"/><path class="cls-2" d="M80.27184,76.12356c.9028-1.56238,2.555-2.19008,3.95963-3.09749a41.0837,41.0837,0,0,1,19.15006-6.531,42.91452,42.91452,0,0,1,19.4963,2.55759,7.07483,7.07483,0,0,0,.74638.20721l.25012.32259a63.19053,63.19053,0,0,1-2.75452,9.84285A44.083,44.083,0,0,1,105.741,99.038a32.22072,32.22072,0,0,1-9.44547,5.05258c-.10213-.40241-.23085-.80014-.30252-1.20792C94.08141,92.00728,88.615,83.22123,80.27184,76.12356Z"/><path class="cls-3" d="M395.41087,86.8214c0-8.41853.03-16.83727-.031-25.25536-.00962-1.3274.37635-1.64643,1.66411-1.61649,5.906.13726,11.81756-.13968,17.72243.15865,9.108.46018,14.54717,5.95414,14.93279,15.03984.17387,4.097-.38489,8.02449-2.69528,11.54049a11.905,11.905,0,0,1-3.89108,3.80848c-.94618.55513-.9922,1.04875-.5873,1.97735,2.81484,6.45647,5.57914,12.935,8.35436,19.40869.731,1.70528.66636,1.79464-1.21944,1.79634-2.92892.00263-5.85873-.03946-8.78627.02384a1.52643,1.52643,0,0,1-1.69711-1.17185c-2.31944-5.75471-4.73981-11.46884-7.04675-17.22844a1.72317,1.72317,0,0,0-1.94083-1.28054c-3.87736.04744-3.87786.0064-3.87786,3.89373,0,4.81059-.03793,9.62168.0271,14.4314.01594,1.17817-.44364,1.37366-1.46669,1.35176-2.6662-.05711-5.33627-.07773-8.00093.00782-1.16606.03741-1.49681-.2808-1.48918-1.47344C395.43624,103.7632,395.41087,95.29222,395.41087,86.8214Zm14.66237-1.8444c.78308,0,1.56708.02462,2.34909-.00426,3.33762-.12326,5.18031-1.58,6.03237-4.83137a12.58251,12.58251,0,0,0-.19663-7.10105,5.04095,5.04095,0,0,0-4.79414-3.83911c-1.97819-.10369-3.96581-.01987-5.94561-.10466-.9861-.04224-1.23572.32968-1.22423,1.2622.04426,3.60154.01763,7.204.01755,10.806C406.31157,84.9949,406.31164,84.9949,410.07324,84.977Z"/><path class="cls-3" d="M307.92982,86.60535c-.01545,5.00024.17765,9.38306-.954,13.70156-2.50448,9.55737-10.13734,14.96368-19.97788,14.03889-9.017-.84738-15.00045-5.81187-16.77947-14.68959a63.70633,63.70633,0,0,1,.06754-25.53242c1.4883-7.18447,5.65751-12.47,13.14092-14.248,12.47455-2.9637,22.51757,4.21977,24.16042,17.01623A92.208,92.208,0,0,1,307.92982,86.60535Zm-10.89715.98459c0-2.08447.02856-3.75652-.00629-5.42725a24.77336,24.77336,0,0,0-1.359-8.76379c-1.30909-3.30351-3.67217-4.99991-7.00686-5.03076-3.35-.031-5.85139,1.73742-7.15,5.07077a14.34871,14.34871,0,0,0-.9447,3.62354c-.67339,6.09313-.37294,12.203-.21827,18.30571a14.39816,14.39816,0,0,0,1.01084,4.72479,7.6577,7.6577,0,0,0,10.42375,4.61328c3.20189-1.29822,4.1847-4.16817,4.78181-7.22134C297.23046,94.07649,296.98714,90.61825,297.03267,87.58994Z"/><path class="cls-3" d="M544.29542,113.68005c-1.51631,0-3.03415-.04152-4.54828.01589a1.23262,1.23262,0,0,1-1.49592-1.13624c-.67793-2.89329-1.5042-5.75152-2.21766-8.637-.21907-.8862-.57381-1.26838-1.57038-1.2531q-6.116.09369-12.23425.00356c-.996-.01317-1.33977.3653-1.55969,1.281-.65735,2.73727-1.49,5.43366-2.10373,8.17962-.26418,1.18181-.70314,1.61925-1.94883,1.57665-2.82017-.09645-5.64789-.09328-8.46845-.00244-1.31087.04222-1.53409-.25356-1.13444-1.51823q5.84478-18.49487,11.59211-37.02047c1.4312-4.57847,2.90061-9.14532,4.28659-13.73738.31354-1.03877.70863-1.53782,1.90714-1.48525,2.45275.10759,4.91428.06833,7.37052.01329.89069-.02,1.25332.28476,1.52195,1.142q8.04336,25.66909,16.17063,51.31187c.35186,1.1106.02927,1.33359-1.01926,1.28439C547.3305,113.62726,545.81173,113.68009,544.29542,113.68005Zm-15.84486-38.4418c-.19647.22042-.3035.28627-.3268.37426-1.49428,5.64571-2.96886,11.29669-4.482,16.93732-.26445.98584.22893,1.02345.96021,1.01751,2.45765-.02,4.91711-.0571,7.37285.01449,1.10015.03208,1.21553-.38518.97323-1.29491C531.445,86.643,529.96572,80.99282,528.45056,75.23825Z"/><path class="cls-4" d="M473.13989,86.8324c0-8.3687.02637-16.73758-.02767-25.10593-.00835-1.29789.2049-1.80155,1.679-1.78941q13.81089.11367,27.62314.00856c1.2668-.00759,1.61165.368,1.55681,1.58825-.09384,2.088-.0761,4.1849-.00467,6.27463.03537,1.03441-.29856,1.33871-1.33019,1.33054-5.64992-.04475-11.30088.01634-16.95034-.04995-1.27581-.015-1.71661.28813-1.67185,1.631.10262,3.08254.12626,6.17492-.008,9.255-.065,1.48932.48816,1.703,1.78436,1.68288,4.5505-.07065,9.10338.01229,13.654-.0546,1.17625-.01729,1.54133.30158,1.47982,1.48947a54.24835,54.24835,0,0,0,.00269,5.95946c.0743,1.27129-.44717,1.44121-1.53812,1.42889-4.60334-.052-9.20838.0228-13.81111-.05137-1.25546-.02022-1.58475.35818-1.55923,1.58251.07741,3.712.06653,7.42729.00418,11.13985-.0184,1.09474.30626,1.42184,1.40479,1.412,5.59758-.05,11.197.042,16.793-.06465,1.57586-.03,1.94171.45443,1.84763,1.92643-.12983,2.03158-.07388,4.07887-.01379,6.117.02667.90492-.28844,1.15768-1.16323,1.15549q-14.28253-.03591-28.56518.01111c-1.20959.006-1.19556-.60152-1.19422-1.45724Q473.15183,99.5424,473.13989,86.8324Z"/><path class="cls-4" d="M358.41821,86.82981c0-8.47137.02652-16.94292-.03012-25.41391-.008-1.194.31741-1.47311,1.47857-1.46718q13.96518.07134,27.93093.00425c1.05826-.00439,1.4686.21957,1.41859,1.36365-.09354,2.1399-.08721,4.28921-.00191,6.4298.04376,1.09807-.28519,1.40692-1.3866,1.39638-5.6485-.05408-11.29819.014-16.94635-.05518-1.25136-.01531-1.57962.3479-1.54678,1.56751.08442,3.13527.10466,6.27705-.00693,9.41062-.04913,1.37921.437,1.61374,1.68369,1.5937,4.54939-.07311,9.10139.01429,13.65082-.058,1.1979-.019,1.525.33336,1.46672,1.49774-.09661,1.93-.09511,3.87168-.001,5.80192.05851,1.20005-.2561,1.61173-1.53318,1.58928-4.54919-.07994-9.10169.024-13.65054-.06516-1.34713-.02641-1.64189.39274-1.61181,1.66561.08641,3.65843.07492,7.32108.00429,10.98018-.022,1.14075.24414,1.515,1.45477,1.50022,5.59585-.06828,11.19393.02586,16.789-.06848,1.43982-.02428,1.7639.41716,1.69132,1.75727-.11293,2.08559-.06679,4.18273-.01249,6.273.02291.88127-.24518,1.17014-1.147,1.16749-9.5195-.02786-19.03931-.04378-28.55855.01426-1.28769.00785-1.13915-.673-1.13866-1.4708Q358.42283,99.53692,358.41821,86.82981Z"/><path class="cls-3" d="M332.484,97.93134q1.5079-6.45477,3.01423-12.90991,2.73574-11.81721,5.44027-23.64157c.23073-1.01742.5955-1.46806,1.74984-1.43331q4.70252.14153,9.41178.00358c1.27244-.03567,1.30559.3618,1.00075,1.41223q-7.41374,25.54332-14.75189,51.10848c-.25322.88157-.59428,1.26158-1.58762,1.2364-2.979-.07553-5.9617-.05747-8.94186-.00882-.894.01458-1.24493-.28276-1.49389-1.15719q-7.30509-25.65631-14.70644-51.28513c-.3158-1.093-.11113-1.3197.97844-1.29834q4.62653.09071,9.25574-.00066c1.10433-.02247,1.602.2171,1.87752,1.43378,2.76346,12.20254,5.61509,24.38513,8.44186,36.57334Z"/><path class="cls-3" d="M192.67044,86.80863c-.17606-4.90876-.30821-9.82826,1.20963-14.59546,2.88742-9.06861,10.00986-13.78239,19.502-12.89282,9.6236.90189,15.11,6.32748,16.31677,16.13587.35075,2.851.35075,2.851-2.575,2.851-2.14414,0-4.29249-.081-6.43078.03085-1.25079.06543-1.73566-.23321-1.73909-1.56715a13.55453,13.55453,0,0,0-.909-4.9042,5.00514,5.00514,0,0,0-3.30564-3.09095c-5.29751-1.70239-9.22547.46755-10.56757,5.83693a28.9456,28.9456,0,0,0-.69934,6.52587c-.10657,5.74262-.34576,11.49747.49415,17.20925.866,5.88891,5.16637,8.40533,10.85777,6.471a5.00708,5.00708,0,0,0,3.218-3.17614,17.36973,17.36973,0,0,0,.91535-4.9106c.05708-.78327.24011-1.09665,1.08244-1.08365,2.92787.0452,5.857.03045,8.78536.00764.67776-.00528,1.12028.0993,1.05362.92383-.41376,5.118-1.64236,9.89139-5.61152,13.537-3.16868,2.91038-7.04934,3.98611-11.2,4.22351-6.88063.39354-12.86879-1.36541-16.83392-7.50922a23.77468,23.77468,0,0,1-3.53246-11.71953C192.53848,92.353,192.67044,89.57691,192.67044,86.80863Z"/><path class="cls-4" d="M555.07376,86.79251c0-8.42048.02376-16.84109-.02656-25.26126-.00728-1.21783.29511-1.5934,1.55893-1.58548q13.33961.08352,26.67988.00165c1.23492-.00722,1.6233.32213,1.55773,1.56446A47.1995,47.1995,0,0,0,584.852,67.47c.10952,1.47911-.46809,1.69449-1.77011,1.67677-5.17815-.07046-10.35819.00448-15.53665-.05413-1.19357-.0135-1.62909.2587-1.59659,1.54454.09112,3.60647.06871,7.21736.00843,10.82512-.01717,1.02938.27664,1.31928,1.309,1.30755,4.76-.05407,9.52127.0067,14.28123-.04769,1.03665-.01184,1.34146.28539,1.30555,1.31193-.075,2.14171-.08887,4.29075.00383,6.43108.05024,1.15954-.3939,1.37258-1.43986,1.36135-4.65542-.05-9.31223.01615-13.96727-.04852-1.14755-.01594-1.51221.24406-1.49964,1.45724.06557,6.32775-.00011,12.65681.05806,18.98471.01073,1.16606-.27886,1.53311-1.473,1.4922-2.6649-.09129-5.337-.08921-8.00216-.00093-1.19246.03952-1.49175-.33473-1.48512-1.50059C555.09606,103.73817,555.07376,95.26528,555.07376,86.79251Z"/><path class="cls-4" d="M236.442,86.83517c0-8.41789.03021-16.836-.03114-25.25343-.00967-1.32987.38235-1.68305,1.67-1.63534,2.61132.09677,5.2313.097,7.84251-.001,1.22642-.04605,1.45295.38088,1.44985,1.51282-.03783,13.75085.00341,27.502-.06321,41.2526-.00753,1.55557.43706,1.89268,1.91886,1.86666,5.28048-.09269,10.56371-.01664,15.84556-.05375.97789-.00688,1.39374.20014,1.34847,1.29472-.09071,2.19223-.06291,4.3917-.00951,6.58638.02183.89636-.14289,1.30445-1.17966,1.30028q-13.80645-.0556-27.61314.00455c-1.219.00634-1.187-.61778-1.18582-1.46395Q236.45257,99.54045,236.442,86.83517Z"/><path class="cls-4" d="M437.03876,86.71635c0-8.41787.02112-16.83586-.02483-25.25349-.00625-1.14381.254-1.55913,1.4686-1.516,2.61163.09273,5.23184.10311,7.84248-.003,1.30669-.05312,1.6543.32649,1.64974,1.63317-.04759,13.6462-.02943,27.29264-.02924,40.939,0,2.024.00069,2.02483,1.99827,2.025,5.17751.0005,10.35562.0431,15.53209-.0305,1.26727-.018,1.59824.36755,1.54364,1.58363-.09607,2.13937-.06323,4.28707-.00924,6.4294.02211.87695-.23958,1.17869-1.14172,1.17609q-13.8066-.03987-27.61322.00925c-1.16407.00577-1.23071-.52673-1.2286-1.42524Q437.057,99.50007,437.03876,86.71635Z"/><path class="cls-5" d="M80.27184,76.12356C88.615,83.22123,94.08141,92.00728,95.993,102.88262c.07167.40778.20039.80551.30252,1.20792q-.01147.14162-.03008.28224c-3.00959.78677-5.91985,1.92414-9.02541,2.37682a45.47,45.47,0,0,1-22.41679-2.08123c-1.02809-.37252-.98007-1.1707-.82777-1.91766a44.25307,44.25307,0,0,1,9.446-20.26144,73.58976,73.58976,0,0,1,6.21823-6.34752Q79.96581,76.13248,80.27184,76.12356Z"/><path class="cls-1" d="M410.07324,84.977c-3.7616.0179-3.76167.0179-3.7616-3.81222.00008-3.60208.02671-7.20449-.01755-10.806-.01149-.93252.23813-1.30444,1.22423-1.2622,1.9798.08479,3.96742.001,5.94561.10466a5.04095,5.04095,0,0,1,4.79414,3.83911,12.58251,12.58251,0,0,1,.19663,7.10105c-.85206,3.2514-2.69475,4.70811-6.03237,4.83137C411.64032,85.00162,410.85632,84.977,410.07324,84.977Z"/><path class="cls-1" d="M297.03267,87.58994c-.04553,3.02831.19779,6.48655-.46878,9.89495-.59711,3.05317-1.57992,5.92312-4.78181,7.22134a7.6577,7.6577,0,0,1-10.42375-4.61328,14.39816,14.39816,0,0,1-1.01084-4.72479c-.15467-6.10267-.45512-12.21258.21827-18.30571a14.34871,14.34871,0,0,1,.9447-3.62354c1.29865-3.33335,3.8-5.10176,7.15-5.07077,3.33469.03085,5.69777,1.72725,7.00686,5.03076a24.77336,24.77336,0,0,1,1.359,8.76379C297.06123,83.83342,297.03267,85.50547,297.03267,87.58994Z"/><path class="cls-1" d="M528.45056,75.23825c1.51516,5.75457,2.99445,11.40478,4.49746,17.04867.2423.90973.12692,1.327-.97323,1.29491-2.45574-.07159-4.9152-.03449-7.37285-.01449-.73128.00594-1.22466-.03167-.96021-1.01751,1.51317-5.64063,2.98775-11.29161,4.482-16.93732C528.14706,75.52452,528.25409,75.45867,528.45056,75.23825Z"/></svg>