<svg id="svg" version="1.1" xmlns="http://www.w3.org/2000/svg" xmlns:xlink="http://www.w3.org/1999/xlink" width="400" height="400" viewBox="0, 0, 400,400"><g id="svgg"><path id="path0" d="M351.977 167.289 C 351.330 167.998,350.800 168.732,350.800 168.920 C 350.800 169.386,348.457 171.696,347.477 172.195 C 346.970 172.454,346.633 173.104,346.542 174.000 C 346.456 174.858,346.052 175.670,345.500 176.097 C 342.412 178.490,340.515 182.400,342.443 182.400 C 342.640 182.400,342.800 182.760,342.800 183.200 C 342.800 183.962,343.566 184.234,345.123 184.025 C 345.822 183.931,347.199 182.525,347.204 181.900 C 347.206 181.625,347.924 180.770,348.800 180.000 C 349.676 179.230,350.394 178.403,350.396 178.162 C 350.400 177.685,351.683 176.400,352.156 176.400 C 352.491 176.400,352.017 180.096,351.642 180.400 C 351.119 180.825,350.400 183.532,350.400 185.079 C 350.400 185.972,350.164 186.898,349.875 187.138 C 349.519 187.433,349.324 188.820,349.269 191.435 C 349.225 193.558,349.065 195.494,348.915 195.738 C 348.660 196.149,348.305 198.038,347.664 202.391 C 347.446 203.872,347.210 204.249,346.305 204.567 C 344.334 205.258,338.362 202.210,337.749 200.200 C 337.615 199.760,337.228 199.084,336.889 198.698 C 335.468 197.080,334.671 187.579,335.811 185.840 C 336.303 185.088,336.403 184.402,336.198 183.186 C 335.978 181.888,336.062 181.443,336.598 181.051 C 337.480 180.406,338.431 173.944,337.680 173.693 C 337.416 173.605,337.200 173.278,337.200 172.967 C 337.200 172.655,337.047 172.400,336.859 172.400 C 336.672 172.400,335.954 171.860,335.263 171.200 C 334.572 170.540,333.755 170.000,333.446 170.000 C 332.804 170.000,330.400 172.129,330.400 172.698 C 330.400 172.906,330.026 173.415,329.568 173.829 C 328.962 174.377,328.797 174.883,328.958 175.691 C 329.080 176.301,329.025 176.800,328.837 176.800 C 328.648 176.800,328.393 177.183,328.271 177.651 C 328.095 178.322,327.825 178.460,326.995 178.301 C 326.157 178.141,325.868 178.294,325.581 179.050 C 325.382 179.572,325.042 180.000,324.825 180.000 C 323.805 180.000,322.786 181.722,323.403 182.404 C 324.557 183.678,324.019 184.867,322.249 184.957 C 321.461 184.997,320.069 187.058,320.019 188.261 C 320.000 188.712,321.967 189.656,323.244 189.808 C 324.255 189.929,327.600 187.309,327.600 186.396 C 327.600 185.958,327.773 185.600,327.985 185.600 C 328.196 185.600,328.567 184.867,328.808 183.970 C 329.177 182.600,329.340 182.419,329.836 182.830 C 330.480 183.365,330.292 188.567,329.598 189.403 C 329.394 189.648,329.402 190.074,329.617 190.413 C 329.821 190.736,329.995 191.900,330.004 193.000 C 330.050 198.786,334.034 205.518,338.523 207.394 C 339.295 207.716,339.989 208.168,340.066 208.397 C 340.142 208.627,341.194 208.913,342.402 209.033 C 347.103 209.500,346.941 208.992,345.398 218.400 C 345.019 220.710,344.685 223.995,344.655 225.700 C 344.625 227.404,344.462 228.799,344.294 228.800 C 343.631 228.801,344.206 231.242,344.986 231.739 C 345.834 232.279,351.519 233.414,351.828 233.105 C 351.925 233.008,352.021 230.567,352.040 227.682 C 352.066 223.774,352.214 222.320,352.621 221.983 C 352.962 221.699,353.082 221.109,352.941 220.403 C 352.817 219.783,352.947 217.953,353.231 216.338 C 353.514 214.722,353.699 213.065,353.641 212.657 C 353.434 211.205,353.988 209.910,354.699 210.183 C 355.064 210.323,355.912 210.177,356.582 209.857 C 357.918 209.221,361.690 208.362,363.080 208.378 C 363.564 208.383,364.070 208.211,364.204 207.994 C 364.338 207.777,364.723 207.600,365.060 207.600 C 365.628 207.600,370.034 204.174,370.333 203.500 C 370.407 203.335,370.820 203.200,371.252 203.200 C 372.247 203.200,374.021 201.321,373.734 200.572 C 373.615 200.261,373.805 199.896,374.156 199.761 C 374.508 199.627,374.695 199.354,374.572 199.155 C 374.450 198.957,374.631 198.686,374.975 198.554 C 375.319 198.422,375.600 197.968,375.600 197.545 C 375.600 197.121,375.870 196.671,376.200 196.545 C 376.542 196.413,376.800 195.817,376.800 195.157 C 376.800 194.325,376.997 193.998,377.500 193.991 C 378.066 193.984,378.009 193.836,377.203 193.216 C 376.142 192.401,376.092 192.471,378.200 191.813 C 378.853 191.609,379.023 190.185,378.438 189.823 C 377.805 189.432,378.473 187.953,379.449 187.581 C 380.292 187.261,380.364 187.048,380.151 185.497 C 379.972 184.190,380.070 183.640,380.553 183.239 C 380.970 182.893,381.109 182.376,380.953 181.754 C 380.808 181.178,380.889 180.800,381.157 180.800 C 381.936 180.800,381.631 179.533,380.800 179.316 C 379.982 179.102,379.795 178.738,380.263 178.270 C 380.408 178.125,380.768 178.207,381.063 178.452 C 382.858 179.942,381.470 176.369,379.500 174.429 C 376.161 171.142,375.750 170.800,375.137 170.800 C 374.531 170.800,371.200 173.887,371.200 174.449 C 371.200 174.627,370.615 175.376,369.900 176.112 C 368.602 177.449,367.971 178.374,366.868 180.558 C 366.546 181.196,365.949 182.051,365.542 182.458 C 365.134 182.866,364.800 183.470,364.800 183.800 C 364.800 184.130,364.620 184.400,364.400 184.400 C 364.180 184.400,364.000 184.631,364.000 184.914 C 364.000 185.672,366.127 186.816,366.782 186.411 C 367.097 186.217,367.620 186.255,368.014 186.502 C 368.725 186.946,368.871 186.830,372.134 183.246 C 373.847 181.364,374.880 182.166,373.422 184.247 C 373.105 184.700,372.717 186.033,372.561 187.208 C 372.405 188.383,372.036 189.807,371.741 190.372 C 371.446 190.937,371.204 191.585,371.202 191.812 C 371.196 192.821,368.796 197.778,367.369 199.726 C 364.788 203.253,360.796 205.517,356.818 205.711 L 355.000 205.800 355.131 201.600 C 355.204 199.290,355.547 196.410,355.894 195.200 C 356.512 193.047,356.862 190.447,356.817 188.351 C 356.805 187.774,357.066 187.077,357.398 186.802 C 357.789 186.477,358.002 185.583,358.007 184.251 C 358.016 181.639,358.888 177.558,359.974 175.045 C 360.866 172.981,360.516 170.800,359.292 170.800 C 359.011 170.800,358.609 170.350,358.400 169.800 C 358.191 169.250,357.853 168.800,357.649 168.800 C 357.446 168.800,356.907 168.170,356.453 167.400 C 355.332 165.500,353.650 165.458,351.977 167.289 M63.200 200.800 L 63.200 228.000 69.800 228.000 L 76.400 228.000 76.400 200.800 L 76.400 173.600 69.800 173.600 L 63.200 173.600 63.200 200.800 M124.000 200.600 C 124.000 221.924,124.105 227.604,124.500 227.617 C 124.775 227.627,128.102 227.956,131.893 228.349 C 135.685 228.742,139.375 228.989,140.093 228.898 C 155.932 226.899,160.663 222.193,160.332 208.765 C 160.045 197.104,153.478 190.951,141.635 191.246 L 137.400 191.352 137.292 182.476 L 137.185 173.600 130.592 173.600 L 124.000 173.600 124.000 200.600 M296.400 182.400 L 296.400 191.200 291.024 191.200 C 288.067 191.200,285.550 191.357,285.432 191.548 C 285.314 191.740,284.632 192.014,283.918 192.156 C 270.294 194.881,270.037 222.690,283.600 226.609 C 284.150 226.768,284.804 227.061,285.054 227.260 C 286.949 228.770,300.137 229.031,308.223 227.719 L 309.600 227.495 309.600 200.548 L 309.600 173.600 303.000 173.600 L 296.400 173.600 296.400 182.400 M43.000 178.253 C 29.326 180.395,20.823 194.471,24.184 209.400 C 25.741 216.313,31.470 224.216,36.183 225.954 C 36.413 226.038,37.320 226.452,38.200 226.874 C 41.281 228.350,47.123 229.013,52.136 228.456 C 57.303 227.881,57.186 227.990,57.194 223.759 C 57.197 221.976,57.313 219.436,57.451 218.114 L 57.702 215.710 52.902 215.908 C 43.473 216.296,38.258 211.707,38.237 203.000 C 38.215 194.205,46.817 188.376,55.400 191.370 C 57.374 192.059,57.177 192.837,56.866 185.601 L 56.600 179.402 55.000 178.868 C 53.379 178.327,45.202 177.909,43.000 178.253 M182.209 179.691 C 182.093 180.191,181.711 182.400,181.359 184.600 C 181.008 186.800,180.386 190.490,179.977 192.800 C 179.010 198.258,177.785 205.242,176.784 210.998 C 176.344 213.528,175.611 217.713,175.155 220.299 C 174.700 222.884,174.235 225.675,174.122 226.500 L 173.916 228.000 180.280 228.000 L 186.643 228.000 187.311 222.300 C 187.944 216.894,189.204 207.106,189.958 201.740 C 190.410 198.523,190.885 197.752,191.277 199.600 C 191.440 200.370,191.951 202.620,192.411 204.600 C 192.872 206.580,193.590 209.730,194.007 211.600 C 195.979 220.446,196.985 225.010,197.426 227.100 C 197.609 227.973,197.761 228.000,202.400 228.000 L 207.185 228.000 207.424 226.900 C 207.556 226.295,207.921 224.900,208.236 223.800 C 208.550 222.700,209.064 220.630,209.378 219.200 C 209.955 216.567,211.026 212.030,212.447 206.200 C 212.876 204.440,213.413 202.190,213.640 201.200 C 213.866 200.210,214.142 199.130,214.253 198.800 C 214.697 197.472,215.349 199.919,216.059 205.580 C 217.446 216.632,218.610 225.072,219.029 227.100 C 219.213 227.987,219.303 228.000,225.520 228.000 L 231.825 228.000 231.129 223.500 C 230.451 219.121,229.617 214.032,227.967 204.200 C 226.863 197.622,225.716 190.683,224.827 185.200 C 223.662 178.019,224.689 178.800,216.414 178.800 L 209.322 178.800 208.661 180.846 C 208.297 181.971,208.000 183.121,208.000 183.400 C 208.000 183.679,207.737 184.784,207.416 185.854 C 206.842 187.763,205.555 192.450,203.970 198.400 C 203.531 200.050,202.984 202.097,202.755 202.949 C 202.207 204.986,201.642 204.411,200.959 201.121 C 200.671 199.735,200.069 196.980,199.620 195.000 C 198.206 188.759,197.137 183.882,196.641 181.400 L 196.160 179.000 189.290 178.891 C 182.432 178.781,182.420 178.783,182.209 179.691 M331.400 182.000 C 331.206 182.313,330.976 182.336,330.710 182.070 C 330.490 181.850,330.440 181.458,330.600 181.200 C 330.794 180.887,331.024 180.864,331.290 181.130 C 331.510 181.350,331.560 181.742,331.400 182.000 M379.462 185.871 C 378.926 186.407,378.383 185.502,378.881 184.902 C 379.349 184.337,379.413 184.344,379.535 184.969 C 379.610 185.350,379.577 185.757,379.462 185.871 M247.545 190.636 C 229.020 194.617,229.064 224.628,247.600 228.254 C 251.934 229.102,262.209 228.451,263.796 227.227 C 264.018 227.056,265.098 226.696,266.195 226.428 C 269.086 225.722,269.215 225.542,268.593 223.084 C 267.822 220.034,266.871 216.737,266.717 216.583 C 266.586 216.452,265.219 216.833,260.800 218.232 C 254.063 220.365,246.784 217.879,247.282 213.614 L 247.400 212.600 258.164 212.316 C 264.626 212.146,269.092 211.868,269.339 211.621 C 270.088 210.872,268.990 199.868,267.961 197.808 C 264.801 191.481,256.760 188.656,247.545 190.636 M82.480 204.300 C 82.634 219.620,82.791 220.455,86.200 224.131 C 91.828 230.201,106.941 230.497,113.136 224.659 C 116.801 221.204,117.600 217.168,117.600 202.100 L 117.600 190.800 110.616 190.800 L 103.633 190.800 103.516 203.223 L 103.400 215.647 102.400 216.414 C 100.976 217.508,98.710 217.428,97.322 216.235 L 96.200 215.270 96.083 203.035 L 95.967 190.800 89.155 190.800 L 82.343 190.800 82.480 204.300 M253.251 197.427 C 254.846 198.251,255.600 200.170,255.600 203.401 L 255.600 206.028 251.500 205.914 L 247.400 205.800 247.275 204.054 C 247.075 201.275,248.676 197.966,250.600 197.178 C 251.738 196.713,251.900 196.728,253.251 197.427 M295.909 201.135 C 296.299 201.383,296.392 203.359,296.309 209.629 L 296.200 217.800 293.332 217.800 C 288.699 217.800,287.073 215.728,287.054 209.800 C 287.038 204.822,288.246 202.011,290.800 201.081 C 291.740 200.739,295.345 200.777,295.909 201.135 M143.868 202.100 C 147.518 204.594,147.826 214.203,144.348 217.079 C 143.356 217.899,140.253 218.536,138.684 218.242 L 137.200 217.964 137.200 209.849 C 137.200 205.385,137.320 201.613,137.467 201.467 C 138.157 200.776,142.569 201.213,143.868 202.100 " stroke="none" fill="#342494" fill-rule="evenodd"></path><path id="path1" d="M0.000 200.000 L 0.000 400.000 200.000 400.000 L 400.000 400.000 400.000 200.000 L 400.000 0.000 200.000 0.000 L 0.000 0.000 0.000 200.000 M357.106 167.348 C 358.038 168.309,358.800 169.299,358.800 169.548 C 358.800 169.797,359.064 170.000,359.386 170.000 C 360.955 170.000,361.349 173.750,360.049 176.311 C 359.596 177.204,359.097 179.561,358.803 182.200 C 358.533 184.620,358.152 186.798,357.957 187.040 C 357.762 187.281,357.533 188.660,357.447 190.103 C 357.362 191.546,357.162 192.938,357.003 193.194 C 356.502 194.005,355.575 198.482,355.600 199.971 C 355.613 200.757,355.503 202.365,355.357 203.544 L 355.090 205.689 356.845 205.415 C 362.289 204.564,366.381 201.525,368.770 196.557 C 370.200 193.584,371.995 188.192,372.014 186.811 C 372.022 186.255,372.286 185.350,372.600 184.800 C 373.289 183.595,373.335 183.200,372.787 183.200 C 372.561 183.200,372.258 183.515,372.116 183.900 C 371.627 185.219,368.757 187.717,368.279 187.239 C 368.038 186.998,367.143 186.800,366.291 186.800 C 365.440 186.800,364.486 186.543,364.171 186.229 C 363.519 185.577,363.398 184.000,364.000 184.000 C 364.220 184.000,364.400 183.752,364.400 183.449 C 364.400 183.146,364.689 182.658,365.042 182.365 C 365.395 182.073,365.847 181.465,366.046 181.016 C 367.707 177.277,373.557 170.400,375.078 170.400 C 375.508 170.400,376.283 170.850,376.800 171.400 C 377.317 171.950,378.068 172.400,378.470 172.400 C 378.871 172.400,379.200 172.579,379.200 172.799 C 379.200 173.018,379.830 173.895,380.600 174.747 C 382.048 176.350,382.674 180.336,381.584 181.010 C 381.355 181.152,381.272 181.597,381.400 182.000 C 381.528 182.403,381.445 182.848,381.216 182.990 C 380.987 183.131,380.800 184.243,380.800 185.461 C 380.800 187.312,380.673 187.708,380.028 187.877 C 379.015 188.142,378.764 188.881,379.187 190.356 C 379.441 191.239,379.382 191.683,378.966 192.028 C 378.655 192.287,378.400 192.842,378.400 193.262 C 378.400 193.681,378.169 194.114,377.886 194.222 C 377.604 194.331,377.334 194.910,377.286 195.510 C 377.237 196.109,376.974 196.781,376.699 197.001 C 376.425 197.222,376.141 197.671,376.068 197.998 C 375.995 198.325,375.777 198.690,375.583 198.810 C 375.390 198.930,374.950 199.701,374.606 200.523 C 373.868 202.291,372.655 203.600,371.756 203.600 C 371.402 203.600,370.727 203.959,370.256 204.399 C 366.589 207.819,364.983 208.800,363.046 208.800 C 362.507 208.800,362.006 208.983,361.931 209.207 C 361.856 209.431,360.185 209.797,358.218 210.020 C 354.092 210.489,354.256 210.402,354.303 212.100 C 354.323 212.815,354.065 214.562,353.731 215.982 C 353.396 217.401,353.222 219.182,353.345 219.938 C 353.468 220.694,353.364 221.692,353.114 222.156 C 352.834 222.676,352.689 224.840,352.735 227.800 C 352.830 233.940,352.872 233.879,349.016 233.279 C 344.465 232.572,342.157 230.747,343.602 228.999 C 343.784 228.779,344.017 227.159,344.120 225.399 C 344.223 223.640,344.651 219.470,345.072 216.134 L 345.838 210.068 344.669 209.834 C 344.026 209.705,343.062 209.600,342.528 209.600 C 339.285 209.600,332.748 204.110,330.831 199.776 C 329.480 196.724,328.970 189.126,329.832 184.900 C 329.933 184.405,329.832 184.000,329.608 184.000 C 329.383 184.000,329.200 184.366,329.200 184.813 C 329.200 185.259,328.930 185.729,328.600 185.855 C 328.270 185.982,327.993 186.471,327.985 186.943 C 327.970 187.857,325.201 189.892,323.536 190.212 C 321.311 190.641,318.630 188.492,319.790 187.211 C 320.126 186.840,320.400 186.258,320.400 185.917 C 320.400 185.084,321.557 184.172,322.426 184.319 C 323.476 184.497,323.774 183.655,322.974 182.771 C 322.189 181.904,322.797 180.000,323.857 180.000 C 324.144 180.000,324.665 179.449,325.013 178.774 C 325.519 177.797,325.865 177.574,326.723 177.674 C 327.733 177.792,327.808 177.690,327.926 176.037 C 328.019 174.739,328.309 174.072,329.026 173.508 C 329.562 173.087,330.000 172.530,330.000 172.271 C 330.000 171.522,332.664 169.600,333.703 169.600 C 335.361 169.600,338.401 173.322,338.394 175.343 C 338.386 177.432,337.417 181.619,336.862 181.962 C 336.594 182.128,336.577 182.434,336.815 182.811 C 337.430 183.782,337.251 185.030,336.384 185.814 C 335.649 186.479,335.586 186.911,335.744 190.176 C 336.149 198.562,338.779 202.609,344.803 204.116 C 346.620 204.570,347.128 203.547,347.941 197.800 C 348.097 196.700,348.353 195.593,348.511 195.340 C 348.668 195.088,348.815 193.198,348.837 191.140 C 348.859 189.083,349.056 187.290,349.274 187.155 C 349.492 187.020,349.731 186.030,349.806 184.955 C 349.880 183.880,350.315 182.130,350.771 181.067 C 351.227 180.004,351.587 178.744,351.572 178.267 C 351.549 177.555,351.495 177.521,351.272 178.077 C 351.122 178.450,350.252 179.395,349.337 180.177 C 348.252 181.105,347.735 181.842,347.850 182.299 C 348.133 183.432,345.602 184.912,343.920 184.596 C 341.967 184.230,340.196 179.960,341.750 179.364 C 342.052 179.248,342.626 178.546,343.026 177.803 C 343.426 177.061,344.124 176.254,344.577 176.011 C 345.035 175.766,345.666 174.733,346.000 173.685 C 346.459 172.244,346.817 171.769,347.522 171.669 C 348.055 171.594,348.598 171.131,348.812 170.569 C 349.014 170.036,349.365 169.600,349.590 169.600 C 349.816 169.600,350.000 169.336,350.000 169.014 C 350.000 168.692,350.360 168.235,350.800 168.000 C 351.240 167.765,351.600 167.336,351.600 167.047 C 351.600 166.400,353.056 165.663,354.406 165.627 C 355.090 165.609,355.954 166.160,357.106 167.348 M76.703 200.709 L 76.805 228.418 69.703 228.309 L 62.600 228.200 62.490 201.400 C 62.429 186.660,62.478 174.191,62.600 173.691 C 62.820 172.783,62.834 172.781,69.710 172.891 L 76.600 173.000 76.703 200.709 M137.600 182.000 L 137.800 191.000 141.437 190.858 C 153.868 190.375,161.055 197.274,160.962 209.600 C 160.838 225.961,147.484 232.796,124.700 228.160 L 123.600 227.936 123.600 200.359 L 123.600 172.781 130.500 172.891 L 137.400 173.000 137.600 182.000 M310.303 200.309 L 310.406 227.618 309.466 227.975 C 307.776 228.617,297.501 229.311,292.964 229.089 C 279.667 228.439,273.040 221.827,273.029 209.200 C 273.018 197.040,279.308 190.697,291.300 190.776 L 296.000 190.807 296.000 182.070 C 296.000 177.265,296.124 173.209,296.276 173.058 C 296.427 172.906,299.622 172.831,303.376 172.891 L 310.200 173.000 310.303 200.309 M25.440 174.560 C 29.289 178.409,24.820 184.692,20.004 182.202 C 15.668 179.960,17.316 173.200,22.200 173.200 C 23.805 173.200,24.279 173.399,25.440 174.560 M20.839 174.506 C 18.046 175.941,17.662 179.318,20.122 180.818 C 21.669 181.761,22.909 181.809,24.184 180.974 C 27.821 178.591,24.685 172.529,20.839 174.506 M24.331 176.722 C 24.403 177.229,24.255 177.893,24.003 178.196 C 23.672 178.596,23.663 178.971,23.973 179.550 C 24.700 180.908,23.667 180.983,22.896 179.628 C 22.048 178.138,21.693 178.082,21.527 179.412 C 21.275 181.422,20.598 180.558,20.480 178.077 L 20.361 175.555 22.280 175.677 C 23.937 175.783,24.218 175.927,24.331 176.722 M21.600 176.971 C 21.600 177.342,21.942 177.600,22.433 177.600 C 23.408 177.600,23.270 176.665,22.267 176.471 C 21.872 176.394,21.600 176.598,21.600 176.971 M54.216 178.221 C 57.364 179.040,57.154 178.542,57.458 185.915 C 57.755 193.132,57.874 192.847,55.000 191.812 C 46.789 188.853,39.000 194.300,39.000 203.000 C 39.000 211.866,42.998 215.452,52.752 215.336 L 58.104 215.273 57.819 221.536 C 57.490 228.771,57.744 228.233,54.400 228.774 C 38.097 231.408,25.712 222.883,23.351 207.400 C 20.423 188.208,36.003 173.479,54.216 178.221 M196.761 179.900 C 196.977 180.725,197.428 182.660,197.764 184.200 C 198.100 185.740,199.008 189.904,199.782 193.452 C 200.556 197.001,201.266 200.151,201.361 200.452 C 201.456 200.754,201.659 201.540,201.812 202.200 C 202.037 203.170,202.647 201.333,204.997 192.600 C 206.596 186.660,208.114 181.031,208.370 180.091 L 208.835 178.383 216.511 178.491 L 224.187 178.600 224.482 180.200 C 224.644 181.080,225.148 184.050,225.603 186.800 C 226.058 189.550,226.784 193.915,227.215 196.500 C 227.647 199.085,228.350 203.315,228.778 205.900 C 229.205 208.485,229.930 212.850,230.387 215.600 C 231.650 223.188,232.385 227.767,232.393 228.100 C 232.397 228.265,229.279 228.400,225.464 228.400 L 218.529 228.400 218.074 224.900 C 217.602 221.263,216.526 213.258,215.401 205.007 C 215.041 202.371,214.693 200.159,214.626 200.093 C 214.512 199.978,213.202 205.250,209.533 220.600 C 208.639 224.340,207.844 227.625,207.766 227.900 C 207.470 228.950,197.255 228.571,197.006 227.500 C 196.892 227.005,196.508 225.250,196.154 223.600 C 195.801 221.950,195.168 219.070,194.747 217.200 C 193.043 209.611,192.346 206.452,191.720 203.472 C 190.869 199.423,190.614 199.955,189.623 207.846 C 189.184 211.341,188.466 217.051,188.028 220.535 C 187.590 224.019,187.121 227.218,186.986 227.644 C 186.597 228.868,173.350 228.629,173.494 227.400 C 173.585 226.622,174.309 222.344,175.984 212.700 C 176.433 210.115,177.149 205.975,177.577 203.500 C 178.004 201.025,178.728 196.840,179.186 194.200 C 179.644 191.560,180.285 187.780,180.611 185.800 C 180.936 183.820,181.400 181.345,181.641 180.300 L 182.080 178.400 189.224 178.400 L 196.368 178.400 196.761 179.900 M261.415 190.952 C 264.288 192.263,266.915 194.713,268.254 197.327 C 269.942 200.624,270.728 211.635,269.314 212.178 C 268.380 212.536,253.625 213.273,250.400 213.122 L 247.800 213.000 247.923 214.149 C 248.382 218.444,255.018 219.703,263.105 217.029 C 267.325 215.634,267.132 215.512,268.454 220.421 C 269.857 225.628,269.862 225.445,268.300 226.146 C 260.451 229.668,249.118 230.265,243.434 227.456 C 227.983 219.819,230.715 194.027,247.400 190.015 C 250.750 189.209,258.771 189.745,261.415 190.952 M96.706 202.875 L 96.811 215.151 97.860 215.975 C 99.622 217.362,101.660 217.017,102.615 215.171 C 103.090 214.253,103.200 211.811,103.200 202.220 L 103.200 190.400 110.600 190.400 L 118.000 190.400 117.997 202.100 C 117.993 217.967,117.387 221.034,113.484 224.937 C 107.776 230.645,92.213 230.795,86.446 225.198 C 82.409 221.280,81.618 217.309,81.607 200.891 L 81.600 190.382 89.100 190.491 L 96.600 190.600 96.706 202.875 M249.961 198.113 C 248.946 198.887,248.067 200.905,247.771 203.137 L 247.497 205.200 251.586 205.200 L 255.675 205.200 255.388 203.100 C 254.735 198.328,252.442 196.220,249.961 198.113 M291.200 201.481 C 288.000 202.646,286.257 208.689,287.808 213.241 C 288.934 216.546,290.962 217.861,294.427 217.531 L 295.800 217.400 295.908 209.549 L 296.017 201.698 295.108 201.454 C 294.024 201.164,292.035 201.178,291.200 201.481 M138.091 201.935 C 137.702 202.182,137.608 204.080,137.691 210.029 L 137.800 217.800 139.679 217.921 C 145.256 218.280,148.675 209.627,145.122 204.148 C 143.707 201.966,139.921 200.774,138.091 201.935 M376.553 217.616 L 380.106 221.279 376.161 225.239 C 371.409 230.009,372.274 229.987,367.744 225.456 C 363.221 220.933,363.207 221.810,367.869 217.130 C 372.378 212.605,371.652 212.565,376.553 217.616 " stroke="none" fill="#fbfbfb" fill-rule="evenodd"></path><path id="path2" d="M351.348 167.500 C 350.494 168.671,349.896 170.000,350.222 170.000 C 350.331 170.000,350.594 169.595,350.806 169.100 C 351.018 168.605,351.486 167.795,351.845 167.300 C 352.204 166.805,352.419 166.400,352.324 166.400 C 352.229 166.400,351.789 166.895,351.348 167.500 M358.406 169.937 C 358.403 170.233,358.760 170.569,359.200 170.684 C 359.640 170.799,360.000 171.132,360.000 171.423 C 360.000 171.714,360.163 172.054,360.363 172.177 C 360.562 172.300,360.627 172.026,360.507 171.567 C 360.387 171.108,359.999 170.626,359.644 170.495 C 359.290 170.365,358.868 170.065,358.706 169.829 C 358.514 169.548,358.410 169.585,358.406 169.937 M329.218 173.781 C 328.628 174.409,328.374 175.056,328.511 175.580 C 328.629 176.031,328.584 176.487,328.411 176.593 C 328.238 176.700,328.002 177.151,327.886 177.594 C 327.770 178.038,327.838 178.300,328.037 178.177 C 328.237 178.054,328.400 177.693,328.400 177.376 C 328.400 177.059,328.583 176.800,328.808 176.800 C 329.045 176.800,329.108 176.373,328.959 175.778 C 328.770 175.025,328.944 174.498,329.621 173.778 C 330.126 173.240,330.449 172.800,330.339 172.800 C 330.229 172.800,329.725 173.241,329.218 173.781 M62.897 200.700 L 62.994 228.200 63.100 200.910 L 63.206 173.619 69.903 173.499 L 76.600 173.379 69.700 173.290 L 62.800 173.200 62.897 200.700 M123.788 173.690 C 123.680 173.971,123.641 186.260,123.699 201.000 L 123.806 227.800 123.903 200.700 L 124.000 173.600 130.592 173.600 L 137.185 173.600 137.292 182.467 C 137.383 189.947,137.494 191.359,138.000 191.497 C 138.436 191.616,138.465 191.565,138.108 191.312 C 137.750 191.058,137.587 188.569,137.508 182.181 L 137.400 173.400 130.691 173.290 C 125.543 173.206,123.937 173.299,123.788 173.690 M302.897 173.499 L 309.594 173.619 309.700 200.710 L 309.806 227.800 309.903 200.500 L 310.000 173.200 303.100 173.290 L 296.200 173.379 302.897 173.499 M346.169 174.253 C 346.021 174.884,345.517 175.737,345.050 176.149 L 344.200 176.898 345.181 176.313 C 346.057 175.790,347.036 173.703,346.606 173.273 C 346.514 173.181,346.318 173.622,346.169 174.253 M20.400 173.911 C 20.400 174.081,21.087 174.156,21.928 174.075 C 23.558 173.920,26.000 175.455,26.000 176.636 C 26.000 176.946,26.163 177.200,26.363 177.200 C 27.063 177.200,26.291 175.580,25.121 174.595 C 23.972 173.628,20.400 173.110,20.400 173.911 M18.837 175.044 C 17.486 176.762,17.199 180.000,18.398 180.000 C 18.640 180.000,18.641 179.635,18.400 179.000 C 17.979 177.893,18.434 176.268,19.492 175.098 C 19.842 174.712,20.030 174.297,19.910 174.176 C 19.790 174.056,19.307 174.447,18.837 175.044 M20.656 175.878 C 20.242 176.291,20.363 179.930,20.800 180.200 C 21.023 180.338,21.222 179.995,21.250 179.424 C 21.394 176.474,21.380 175.911,21.156 175.773 C 21.021 175.690,20.796 175.737,20.656 175.878 M22.860 175.980 C 23.032 176.496,23.581 176.588,23.630 176.110 C 23.647 175.951,23.444 175.748,23.180 175.660 C 22.916 175.572,22.772 175.716,22.860 175.980 M351.123 177.100 C 350.374 177.972,349.858 179.335,350.405 178.997 C 350.622 178.863,350.800 178.504,350.800 178.199 C 350.800 177.895,351.200 177.365,351.689 177.023 C 352.178 176.680,352.386 176.400,352.151 176.400 C 351.916 176.400,351.453 176.715,351.123 177.100 M22.895 177.665 C 22.399 178.161,22.679 179.200,23.309 179.200 C 23.543 179.200,23.615 179.082,23.470 178.937 C 23.325 178.792,23.394 178.448,23.623 178.172 C 24.148 177.540,23.483 177.077,22.895 177.665 M351.849 177.815 C 351.712 178.173,351.621 178.946,351.646 179.533 C 351.680 180.332,351.770 180.198,352.004 179.000 C 352.335 177.300,352.262 176.740,351.849 177.815 M46.100 177.891 C 46.925 177.978,48.275 177.978,49.100 177.891 C 49.925 177.805,49.250 177.734,47.600 177.734 C 45.950 177.734,45.275 177.805,46.100 177.891 M358.600 179.200 C 358.446 180.110,358.404 180.938,358.507 181.040 C 358.610 181.143,358.813 180.477,358.960 179.560 C 359.107 178.643,359.148 177.815,359.053 177.720 C 358.958 177.624,358.754 178.290,358.600 179.200 M380.263 178.270 C 379.795 178.738,379.982 179.102,380.800 179.316 C 381.240 179.431,381.600 179.384,381.600 179.212 C 381.600 178.716,380.554 177.979,380.263 178.270 M26.000 178.969 C 26.000 179.282,25.511 180.120,24.914 180.830 C 23.939 181.988,23.918 182.072,24.710 181.648 C 25.943 180.988,27.290 178.400,26.400 178.400 C 26.180 178.400,26.000 178.656,26.000 178.969 M18.861 181.018 C 19.224 181.389,19.740 181.620,20.006 181.531 C 20.273 181.442,19.975 181.139,19.345 180.856 C 18.273 180.376,18.242 180.386,18.861 181.018 M330.600 181.200 C 330.440 181.458,330.490 181.850,330.710 182.070 C 330.976 182.336,331.206 182.313,331.400 182.000 C 331.560 181.742,331.510 181.350,331.290 181.130 C 331.024 180.864,330.794 180.887,330.600 181.200 M358.093 182.800 C 358.093 183.570,358.175 183.885,358.276 183.500 C 358.376 183.115,358.376 182.485,358.276 182.100 C 358.175 181.715,358.093 182.030,358.093 182.800 M323.147 182.498 C 323.448 182.882,323.600 183.557,323.485 183.998 C 323.369 184.440,323.438 184.700,323.637 184.577 C 324.239 184.205,324.046 182.934,323.300 182.349 C 322.666 181.852,322.652 181.866,323.147 182.498 M346.700 182.785 C 345.682 183.777,345.840 184.180,346.871 183.220 C 347.350 182.774,347.665 182.340,347.571 182.256 C 347.477 182.172,347.085 182.410,346.700 182.785 M372.624 182.613 C 372.196 182.936,372.025 183.200,372.244 183.200 C 372.462 183.200,372.879 182.975,373.172 182.700 C 373.609 182.288,373.657 182.412,373.439 183.400 C 373.246 184.278,373.285 184.439,373.582 184.000 C 374.593 182.506,373.965 181.598,372.624 182.613 M196.856 182.800 C 196.856 183.130,197.011 183.760,197.200 184.200 C 197.417 184.704,197.544 184.778,197.544 184.400 C 197.544 184.070,197.389 183.440,197.200 183.000 C 196.983 182.496,196.856 182.422,196.856 182.800 M336.181 183.967 C 336.191 184.821,336.335 185.438,336.500 185.337 C 336.891 185.097,336.875 183.538,336.475 182.907 C 336.294 182.623,336.170 183.073,336.181 183.967 M350.211 182.900 C 349.917 183.798,349.790 187.170,350.062 186.881 C 350.317 186.610,350.717 182.399,350.487 182.400 C 350.426 182.400,350.301 182.625,350.211 182.900 M380.480 183.280 C 379.907 183.853,379.860 185.562,380.395 186.400 C 380.657 186.812,380.702 186.531,380.537 185.503 C 380.385 184.561,380.482 183.783,380.797 183.403 C 381.393 182.685,381.164 182.596,380.480 183.280 M207.240 185.040 C 207.010 185.873,206.894 186.627,206.982 186.715 C 207.070 186.803,207.330 186.193,207.560 185.360 C 207.790 184.527,207.906 183.773,207.818 183.685 C 207.730 183.597,207.470 184.207,207.240 185.040 M56.928 186.400 C 56.928 187.830,57.001 188.415,57.089 187.700 C 57.178 186.985,57.178 185.815,57.089 185.100 C 57.001 184.385,56.928 184.970,56.928 186.400 M180.849 186.200 C 180.816 186.640,180.696 187.450,180.583 188.000 L 180.377 189.000 180.806 188.019 C 181.042 187.479,181.161 186.669,181.072 186.219 C 180.913 185.421,180.907 185.421,180.849 186.200 M372.196 187.100 C 372.064 187.925,371.886 188.941,371.800 189.358 C 371.715 189.774,371.791 189.954,371.971 189.758 C 372.320 189.374,372.901 185.600,372.610 185.600 C 372.515 185.600,372.328 186.275,372.196 187.100 M335.293 187.600 C 335.293 188.370,335.375 188.685,335.476 188.300 C 335.576 187.915,335.576 187.285,335.476 186.900 C 335.375 186.515,335.293 186.830,335.293 187.600 M357.249 186.941 C 356.774 187.513,356.773 189.664,357.247 189.371 C 357.400 189.276,357.431 188.838,357.315 188.397 C 357.200 187.957,357.329 187.327,357.602 186.998 C 357.875 186.669,358.008 186.400,357.898 186.400 C 357.788 186.400,357.496 186.644,357.249 186.941 M225.206 188.233 C 225.209 188.875,225.384 189.670,225.595 190.000 C 225.855 190.409,225.899 190.090,225.732 189.000 C 225.429 187.023,225.198 186.686,225.206 188.233 M329.552 188.313 C 329.421 189.107,329.479 189.481,329.701 189.259 C 329.903 189.057,330.001 188.467,329.919 187.946 C 329.793 187.145,329.737 187.202,329.552 188.313 M379.300 187.612 C 378.805 187.811,378.414 188.205,378.432 188.487 C 378.456 188.889,378.507 188.891,378.665 188.500 C 378.776 188.225,379.111 188.000,379.410 188.000 C 379.708 188.000,380.064 187.820,380.200 187.600 C 380.487 187.136,380.485 187.136,379.300 187.612 M198.468 189.800 C 198.462 190.240,198.611 190.960,198.800 191.400 C 199.238 192.419,199.238 191.368,198.800 190.000 C 198.543 189.196,198.477 189.157,198.468 189.800 M205.829 190.229 C 205.681 190.815,205.638 191.372,205.732 191.466 C 205.827 191.560,206.024 191.158,206.171 190.571 C 206.319 189.985,206.362 189.428,206.268 189.334 C 206.173 189.240,205.976 189.642,205.829 190.229 M335.238 191.400 C 335.224 192.720,335.356 194.027,335.532 194.304 C 335.708 194.580,335.782 193.680,335.697 192.304 C 335.487 188.910,335.269 188.480,335.238 191.400 M250.433 189.745 C 250.525 189.825,252.400 189.985,254.600 190.102 C 257.274 190.244,258.003 190.206,256.800 189.987 C 254.995 189.658,250.121 189.473,250.433 189.745 M247.000 190.410 C 246.466 190.647,246.798 190.686,248.000 190.527 C 248.990 190.396,249.875 190.224,249.967 190.144 C 250.314 189.843,247.764 190.072,247.000 190.410 M329.526 192.694 C 329.617 194.182,329.814 195.628,329.965 195.906 C 330.116 196.185,330.164 195.195,330.074 193.706 C 329.983 192.218,329.786 190.772,329.635 190.494 C 329.484 190.215,329.436 191.205,329.526 192.694 M378.708 191.110 C 378.563 191.662,378.166 192.000,377.661 192.000 C 376.502 192.000,376.233 192.682,377.189 193.194 C 377.674 193.454,378.000 193.473,378.000 193.243 C 378.000 193.032,377.685 192.776,377.300 192.676 C 376.744 192.530,376.775 192.483,377.451 192.446 C 378.443 192.392,379.350 191.449,379.108 190.724 C 379.016 190.447,378.836 190.621,378.708 191.110 M48.200 191.037 C 50.029 191.330,55.108 191.390,54.672 191.112 C 54.412 190.947,52.670 190.834,50.800 190.861 C 48.930 190.887,47.760 190.967,48.200 191.037 M82.178 202.800 C 82.178 209.510,82.232 212.255,82.299 208.900 C 82.366 205.545,82.366 200.055,82.299 196.700 C 82.232 193.345,82.178 196.090,82.178 202.800 M96.177 202.600 C 96.177 209.200,96.232 211.956,96.299 208.725 C 96.366 205.493,96.366 200.093,96.299 196.725 C 96.232 193.356,96.177 196.000,96.177 202.600 M147.200 191.541 C 147.530 191.734,148.340 192.009,149.000 192.152 C 149.768 192.318,149.984 192.284,149.600 192.059 C 149.270 191.866,148.460 191.591,147.800 191.448 C 147.032 191.282,146.816 191.316,147.200 191.541 M265.183 194.100 C 266.841 195.866,267.200 196.184,267.200 195.883 C 267.200 195.819,266.345 194.964,265.300 193.983 L 263.400 192.200 265.183 194.100 M179.254 195.467 C 179.225 195.944,179.096 196.664,178.970 197.067 C 178.752 197.761,178.764 197.762,179.196 197.088 C 179.447 196.697,179.575 195.977,179.481 195.488 C 179.309 194.601,179.309 194.601,179.254 195.467 M204.229 196.229 C 204.081 196.815,204.038 197.372,204.132 197.466 C 204.227 197.560,204.424 197.158,204.571 196.571 C 204.719 195.985,204.762 195.428,204.668 195.334 C 204.573 195.240,204.376 195.642,204.229 196.229 M355.456 196.484 C 355.321 196.988,355.230 197.940,355.253 198.600 C 355.281 199.428,355.397 199.184,355.626 197.813 C 355.976 195.723,355.874 194.926,355.456 196.484 M276.723 197.100 C 276.018 197.921,275.490 198.800,275.701 198.800 C 275.783 198.800,276.249 198.260,276.737 197.600 C 277.701 196.296,277.692 195.972,276.723 197.100 M226.806 197.833 C 226.809 198.475,226.984 199.270,227.195 199.600 C 227.455 200.009,227.499 199.690,227.332 198.600 C 227.029 196.623,226.798 196.286,226.806 197.833 M250.500 197.212 C 249.115 197.769,249.434 198.014,250.900 197.520 C 251.615 197.279,252.275 197.018,252.367 196.941 C 252.692 196.666,251.386 196.856,250.500 197.212 M214.298 198.635 C 214.134 198.799,214.003 199.218,214.006 199.567 C 214.011 200.100,214.070 200.109,214.374 199.628 C 214.639 199.209,214.806 199.478,214.995 200.628 C 215.427 203.256,215.506 203.457,215.536 202.000 C 215.568 200.411,214.749 198.184,214.298 198.635 M38.124 203.000 C 38.126 204.320,38.201 204.812,38.290 204.093 C 38.379 203.374,38.377 202.294,38.286 201.693 C 38.195 201.092,38.122 201.680,38.124 203.000 M247.449 201.415 C 247.312 201.773,247.224 202.726,247.253 203.533 C 247.301 204.844,247.338 204.787,247.595 203.000 C 247.903 200.871,247.855 200.358,247.449 201.415 M137.379 201.711 C 137.271 201.992,137.235 205.817,137.300 210.211 L 137.418 218.200 137.509 209.933 C 137.577 203.764,137.727 201.615,138.100 201.465 C 138.492 201.307,138.489 201.256,138.087 201.232 C 137.806 201.214,137.487 201.430,137.379 201.711 M202.629 202.229 C 202.481 202.815,202.438 203.372,202.532 203.466 C 202.627 203.560,202.824 203.158,202.971 202.571 C 203.119 201.985,203.162 201.428,203.068 201.334 C 202.973 201.240,202.776 201.642,202.629 202.229 M191.668 202.200 C 191.662 202.640,191.811 203.360,192.000 203.800 C 192.438 204.819,192.438 203.768,192.000 202.400 C 191.743 201.596,191.677 201.557,191.668 202.200 M269.324 204.200 C 269.326 205.520,269.401 206.012,269.490 205.293 C 269.579 204.574,269.577 203.494,269.486 202.893 C 269.395 202.292,269.322 202.880,269.324 204.200 M347.152 203.113 C 347.021 203.907,347.079 204.281,347.301 204.059 C 347.503 203.857,347.601 203.267,347.519 202.746 C 347.393 201.945,347.337 202.002,347.152 203.113 M234.249 203.015 C 234.112 203.373,234.015 203.966,234.034 204.333 C 234.053 204.700,234.227 204.469,234.421 203.820 C 234.798 202.558,234.665 201.933,234.249 203.015 M273.457 204.115 C 273.325 204.639,273.128 206.403,273.018 208.034 C 272.824 210.915,272.834 210.891,273.368 207.200 C 273.904 203.502,273.941 202.185,273.457 204.115 M177.649 204.200 C 177.616 204.640,177.496 205.450,177.383 206.000 L 177.177 207.000 177.606 206.019 C 177.842 205.479,177.961 204.669,177.872 204.219 C 177.713 203.421,177.707 203.421,177.649 204.200 M212.650 204.850 C 212.509 205.553,212.469 206.202,212.559 206.292 C 212.650 206.383,212.848 205.891,213.000 205.200 C 213.152 204.509,213.193 203.859,213.091 203.758 C 212.989 203.656,212.791 204.147,212.650 204.850 M189.301 206.600 C 189.305 207.480,189.387 207.793,189.483 207.295 C 189.579 206.798,189.575 206.078,189.475 205.695 C 189.375 205.313,189.296 205.720,189.301 206.600 M247.554 205.715 C 247.728 205.889,249.655 205.978,251.835 205.913 L 255.800 205.795 251.518 205.598 C 249.163 205.489,247.379 205.542,247.554 205.715 M160.544 209.200 C 160.544 211.290,160.612 212.145,160.694 211.100 C 160.776 210.055,160.776 208.345,160.694 207.300 C 160.612 206.255,160.544 207.110,160.544 209.200 M366.770 206.668 L 365.800 207.736 366.887 206.968 C 367.486 206.546,367.981 206.065,367.987 205.900 C 368.008 205.407,367.789 205.546,366.770 206.668 M146.493 207.600 C 146.493 208.370,146.575 208.685,146.676 208.300 C 146.776 207.915,146.776 207.285,146.676 206.900 C 146.575 206.515,146.493 206.830,146.493 207.600 M269.595 209.282 C 269.488 210.757,269.545 211.818,269.722 211.640 C 269.899 211.462,269.986 210.255,269.917 208.958 L 269.790 206.600 269.595 209.282 M23.680 208.200 C 23.680 208.640,23.824 209.450,24.000 210.000 C 24.254 210.792,24.320 210.833,24.320 210.200 C 24.320 209.760,24.176 208.950,24.000 208.400 C 23.746 207.608,23.680 207.567,23.680 208.200 M193.044 208.600 C 193.373 210.071,193.602 210.390,193.594 209.367 C 193.591 208.945,193.405 208.330,193.182 208.000 C 192.885 207.562,192.848 207.724,193.044 208.600 M363.824 208.213 C 362.825 208.968,363.195 208.963,364.654 208.202 C 365.284 207.874,365.530 207.610,365.200 207.615 C 364.870 207.621,364.251 207.890,363.824 208.213 M286.909 209.600 C 286.909 210.590,286.987 210.995,287.082 210.500 C 287.178 210.005,287.178 209.195,287.082 208.700 C 286.987 208.205,286.909 208.610,286.909 209.600 M358.600 209.200 L 357.000 209.486 358.700 209.543 C 359.635 209.574,360.400 209.420,360.400 209.200 C 360.400 208.980,360.355 208.826,360.300 208.857 C 360.245 208.888,359.480 209.042,358.600 209.200 M344.033 209.344 C 344.125 209.423,344.740 209.608,345.400 209.756 C 346.276 209.952,346.438 209.915,346.000 209.618 C 345.460 209.253,343.632 208.998,344.033 209.344 M353.842 210.700 C 353.567 211.605,353.627 214.906,353.913 214.620 C 354.033 214.500,354.102 213.655,354.066 212.741 C 354.030 211.828,354.203 210.838,354.450 210.540 C 354.750 210.178,354.759 210.000,354.476 210.000 C 354.244 210.000,353.958 210.315,353.842 210.700 M146.454 211.200 C 146.419 211.750,146.296 212.650,146.183 213.200 L 145.977 214.200 146.407 213.215 C 146.643 212.674,146.765 211.774,146.678 211.215 L 146.520 210.200 146.454 211.200 M346.109 212.000 C 346.109 212.990,346.187 213.395,346.282 212.900 C 346.378 212.405,346.378 211.595,346.282 211.100 C 346.187 210.605,346.109 211.010,346.109 212.000 M273.301 212.600 C 273.305 213.480,273.387 213.793,273.483 213.295 C 273.579 212.798,273.575 212.078,273.475 211.695 C 273.375 211.313,273.296 211.720,273.301 212.600 M263.500 212.282 C 263.995 212.378,264.805 212.378,265.300 212.282 C 265.795 212.187,265.390 212.109,264.400 212.109 C 263.410 212.109,263.005 212.187,263.500 212.282 M216.901 213.800 C 216.905 214.680,216.987 214.993,217.083 214.495 C 217.179 213.998,217.175 213.278,217.075 212.895 C 216.975 212.513,216.896 212.920,216.901 213.800 M247.467 212.667 C 247.078 213.055,247.152 214.505,247.595 215.200 C 247.858 215.612,247.902 215.334,247.738 214.310 L 247.499 212.821 253.849 212.699 L 260.200 212.578 253.967 212.489 C 250.538 212.440,247.613 212.520,247.467 212.667 M233.862 214.000 C 233.998 214.770,234.262 215.670,234.448 216.000 C 234.652 216.361,234.688 216.043,234.538 215.200 C 234.402 214.430,234.138 213.530,233.952 213.200 C 233.748 212.839,233.712 213.157,233.862 214.000 M25.228 213.800 C 25.228 214.020,25.486 214.650,25.800 215.200 C 26.114 215.750,26.372 216.020,26.372 215.800 C 26.372 215.580,26.114 214.950,25.800 214.400 C 25.486 213.850,25.228 213.580,25.228 213.800 M117.040 216.040 C 116.893 216.957,116.852 217.785,116.947 217.880 C 117.042 217.976,117.246 217.310,117.400 216.400 C 117.554 215.490,117.596 214.662,117.493 214.560 C 117.390 214.457,117.187 215.123,117.040 216.040 M194.644 215.800 C 194.973 217.271,195.202 217.590,195.194 216.567 C 195.191 216.145,195.005 215.530,194.782 215.200 C 194.485 214.762,194.448 214.924,194.644 215.800 M56.705 215.483 C 57.601 215.655,57.608 215.707,57.350 220.129 C 57.207 222.588,57.180 224.510,57.292 224.400 C 57.403 224.290,57.617 222.175,57.768 219.700 L 58.043 215.200 56.921 215.254 C 55.970 215.301,55.937 215.335,56.705 215.483 M187.856 216.884 C 187.721 217.388,187.631 218.430,187.655 219.200 C 187.689 220.269,187.775 220.080,188.018 218.402 C 188.353 216.092,188.272 215.333,187.856 216.884 M209.849 216.615 C 209.712 216.973,209.615 217.566,209.634 217.933 C 209.653 218.300,209.827 218.069,210.021 217.420 C 210.398 216.158,210.265 215.533,209.849 216.615 M100.000 216.800 L 98.200 217.080 99.876 217.140 C 100.798 217.173,101.664 217.020,101.800 216.800 C 101.936 216.580,101.992 216.427,101.924 216.460 C 101.856 216.493,100.990 216.646,100.000 216.800 M139.100 218.282 C 139.595 218.378,140.405 218.378,140.900 218.282 C 141.395 218.187,140.990 218.109,140.000 218.109 C 139.010 218.109,138.605 218.187,139.100 218.282 M250.800 218.394 C 251.130 218.611,251.835 218.791,252.367 218.794 C 253.651 218.802,253.325 218.575,251.600 218.258 C 250.615 218.077,250.378 218.118,250.800 218.394 M258.600 218.400 C 257.493 218.682,257.477 218.709,258.400 218.747 C 258.950 218.769,259.670 218.613,260.000 218.400 C 260.681 217.960,260.329 217.960,258.600 218.400 M28.296 219.400 C 28.750 220.060,29.629 221.050,30.250 221.600 C 30.999 222.264,30.859 221.996,29.832 220.800 C 27.736 218.357,27.315 217.974,28.296 219.400 M254.300 219.082 C 254.795 219.178,255.605 219.178,256.100 219.082 C 256.595 218.987,256.190 218.909,255.200 218.909 C 254.210 218.909,253.805 218.987,254.300 219.082 M352.488 222.100 C 352.087 222.590,351.802 233.132,352.201 232.733 C 352.311 232.622,352.419 230.297,352.441 227.566 C 352.462 224.832,352.663 222.375,352.888 222.100 C 353.114 221.825,353.208 221.600,353.098 221.600 C 352.988 221.600,352.714 221.825,352.488 222.100 M196.244 223.000 C 196.573 224.471,196.802 224.790,196.794 223.767 C 196.791 223.345,196.605 222.730,196.382 222.400 C 196.085 221.962,196.048 222.124,196.244 223.000 M31.967 223.345 C 32.500 224.001,34.000 224.993,34.000 224.689 C 34.000 224.613,33.415 224.122,32.700 223.599 C 31.896 223.010,31.616 222.913,31.967 223.345 M218.282 224.600 C 218.409 225.700,218.577 226.675,218.656 226.767 C 218.955 227.114,218.728 224.164,218.397 223.400 C 218.174 222.885,218.133 223.313,218.282 224.600 M112.975 224.900 L 111.800 226.200 113.100 225.025 C 114.312 223.930,114.584 223.600,114.275 223.600 C 114.206 223.600,113.621 224.185,112.975 224.900 M268.865 224.300 C 268.928 224.685,268.815 225.270,268.613 225.600 C 268.304 226.106,268.346 226.119,268.882 225.685 C 269.244 225.392,269.429 224.833,269.312 224.385 C 269.057 223.412,268.708 223.345,268.865 224.300 M110.300 226.629 C 108.805 227.440,108.896 227.778,110.400 227.000 C 111.060 226.659,111.600 226.294,111.600 226.190 C 111.600 225.932,111.557 225.947,110.300 226.629 M42.378 228.414 C 42.915 228.644,45.075 228.904,47.178 228.993 L 51.000 229.155 47.510 228.812 C 45.591 228.623,43.431 228.362,42.710 228.232 C 41.531 228.020,41.498 228.038,42.378 228.414 M104.600 228.400 L 103.000 228.686 104.400 228.715 C 105.170 228.731,106.160 228.589,106.600 228.400 C 107.543 227.995,106.862 227.995,104.600 228.400 M129.400 228.384 C 130.280 228.568,132.620 228.816,134.600 228.934 C 137.505 229.107,137.737 229.085,135.800 228.821 C 131.912 228.289,127.509 227.989,129.400 228.384 M142.400 228.628 L 139.000 229.148 142.097 228.940 C 143.801 228.826,145.691 228.583,146.297 228.401 C 147.877 227.925,146.452 228.008,142.400 228.628 M246.673 228.384 C 247.153 228.587,248.683 228.847,250.073 228.961 C 252.524 229.162,252.540 229.158,250.600 228.807 C 246.541 228.072,245.734 227.985,246.673 228.384 M288.600 228.404 C 289.367 228.730,292.711 228.953,292.367 228.656 C 292.275 228.577,291.210 228.411,290.000 228.288 C 288.631 228.149,288.102 228.192,288.600 228.404 M51.905 228.683 C 52.402 228.779,53.122 228.775,53.505 228.675 C 53.887 228.575,53.480 228.496,52.600 228.501 C 51.720 228.505,51.407 228.587,51.905 228.683 M95.600 228.819 C 97.400 229.141,103.081 229.328,102.767 229.056 C 102.675 228.976,100.620 228.818,98.200 228.705 C 95.390 228.573,94.451 228.614,95.600 228.819 M256.705 228.683 C 257.202 228.779,257.922 228.775,258.305 228.675 C 258.687 228.575,258.280 228.496,257.400 228.501 C 256.520 228.505,256.207 228.587,256.705 228.683 M300.100 228.687 C 300.705 228.778,301.695 228.778,302.300 228.687 C 302.905 228.595,302.410 228.520,301.200 228.520 C 299.990 228.520,299.495 228.595,300.100 228.687 M253.505 229.083 C 254.002 229.179,254.722 229.175,255.105 229.075 C 255.487 228.975,255.080 228.896,254.200 228.901 C 253.320 228.905,253.007 228.987,253.505 229.083 M294.311 229.093 C 295.251 229.178,296.691 229.177,297.511 229.091 C 298.330 229.005,297.560 228.936,295.800 228.937 C 294.040 228.939,293.370 229.009,294.311 229.093 M343.689 229.966 C 343.794 230.887,344.163 231.520,344.822 231.910 C 345.743 232.454,345.755 232.450,345.020 231.841 C 344.591 231.486,344.174 230.704,344.094 230.105 C 343.878 228.496,343.506 228.368,343.689 229.966 " stroke="none" fill="#6753b0" fill-rule="evenodd"></path><path id="path3" d="M367.869 217.130 C 363.207 221.810,363.221 220.933,367.744 225.456 C 372.274 229.987,371.409 230.009,376.161 225.239 L 380.106 221.279 376.553 217.616 C 371.652 212.565,372.378 212.605,367.869 217.130 " stroke="none" fill="#fccc24" fill-rule="evenodd"></path><path id="path4" d="M353.700 165.876 C 354.085 165.976,354.715 165.976,355.100 165.876 C 355.485 165.775,355.170 165.693,354.400 165.693 C 353.630 165.693,353.315 165.775,353.700 165.876 M356.400 167.077 C 356.400 167.267,356.940 167.896,357.600 168.475 C 358.260 169.054,358.800 169.408,358.800 169.263 C 358.800 169.117,358.260 168.488,357.600 167.865 C 356.940 167.242,356.400 166.887,356.400 167.077 M350.118 168.700 C 349.976 169.085,349.622 169.544,349.330 169.720 C 349.039 169.896,348.800 170.218,348.800 170.435 C 348.800 170.983,350.215 169.559,350.523 168.700 C 350.662 168.315,350.685 168.000,350.575 168.000 C 350.465 168.000,350.259 168.315,350.118 168.700 M372.229 172.500 C 371.424 173.435,370.441 174.560,370.045 175.000 C 368.856 176.319,367.200 178.652,367.200 179.008 C 367.200 179.191,367.785 178.534,368.500 177.547 C 369.215 176.561,370.115 175.404,370.501 174.977 C 372.309 172.973,374.074 170.800,373.893 170.800 C 373.783 170.800,373.034 171.565,372.229 172.500 M330.005 172.187 C 329.798 172.731,329.263 173.404,328.815 173.684 C 328.261 174.029,328.000 174.618,328.000 175.520 C 328.000 176.250,328.163 176.746,328.362 176.623 C 328.562 176.500,328.628 176.029,328.510 175.576 C 328.369 175.039,328.640 174.380,329.289 173.677 C 329.835 173.085,330.393 172.285,330.529 171.900 C 330.912 170.811,330.427 171.077,330.005 172.187 M69.500 173.094 L 76.400 173.219 76.400 200.609 L 76.400 228.000 69.603 228.000 L 62.806 228.000 62.699 200.700 L 62.592 173.400 62.596 200.800 L 62.600 228.200 69.703 228.309 L 76.805 228.418 76.703 200.709 L 76.600 173.000 69.600 172.985 L 62.600 172.970 69.500 173.094 M123.600 173.100 C 123.600 173.265,126.733 173.400,130.562 173.400 C 134.391 173.400,137.440 173.265,137.338 173.100 C 137.236 172.935,134.103 172.800,130.376 172.800 C 126.649 172.800,123.600 172.935,123.600 173.100 M296.276 173.058 C 296.124 173.209,296.000 177.265,296.000 182.070 L 296.000 190.807 291.180 190.757 C 288.529 190.730,286.267 190.799,286.155 190.912 C 286.042 191.024,288.302 191.136,291.175 191.160 L 296.400 191.203 296.400 182.201 L 296.400 173.200 303.200 173.200 L 310.000 173.200 310.000 200.382 L 310.000 227.564 308.700 227.771 C 303.432 228.613,302.871 228.758,305.800 228.521 C 307.340 228.396,309.006 228.142,309.503 227.956 L 310.406 227.618 310.303 200.309 L 310.200 173.000 303.376 172.891 C 299.622 172.831,296.427 172.906,296.276 173.058 M345.788 174.126 C 345.631 174.960,345.142 175.698,344.469 176.115 C 343.881 176.480,343.580 176.779,343.800 176.780 C 344.647 176.784,345.933 175.343,346.192 174.100 C 346.341 173.385,346.367 172.800,346.250 172.800 C 346.132 172.800,345.924 173.397,345.788 174.126 M18.960 174.560 C 18.212 175.308,17.601 176.163,17.601 176.460 C 17.602 176.757,17.953 176.426,18.380 175.726 C 19.865 173.289,22.931 172.809,25.269 174.645 L 26.600 175.691 25.294 174.445 C 23.375 172.616,20.858 172.662,18.960 174.560 M337.768 176.543 C 337.748 178.627,337.839 179.368,338.021 178.600 C 338.414 176.942,338.464 173.686,338.100 173.467 C 337.935 173.367,337.786 174.752,337.768 176.543 M380.537 175.061 C 381.567 176.203,381.662 176.549,381.537 178.724 C 381.462 180.045,381.535 181.042,381.700 180.939 C 382.682 180.328,381.979 176.130,380.700 174.975 L 379.400 173.800 380.537 175.061 M359.872 175.819 C 358.932 177.789,359.064 178.124,360.047 176.262 C 360.493 175.416,360.787 174.654,360.701 174.567 C 360.614 174.481,360.241 175.044,359.872 175.819 M23.905 176.614 C 24.009 177.159,23.848 177.919,23.547 178.302 C 23.052 178.934,23.066 178.948,23.700 178.451 C 24.427 177.881,24.656 176.205,24.058 175.836 C 23.870 175.719,23.801 176.070,23.905 176.614 M25.613 176.665 C 26.087 178.025,25.271 180.800,24.397 180.800 C 24.153 180.800,24.042 180.656,24.150 180.481 C 24.258 180.305,24.199 179.922,24.018 179.629 C 23.807 179.288,23.708 179.545,23.740 180.349 C 23.769 181.037,23.973 181.603,24.196 181.606 C 24.418 181.609,24.330 181.787,24.000 182.000 C 22.408 183.029,19.253 181.988,18.226 180.095 C 17.899 179.493,17.625 179.185,17.616 179.411 C 17.481 182.885,25.340 183.779,26.311 180.400 C 26.405 180.070,26.184 180.205,25.819 180.700 C 25.454 181.195,24.979 181.600,24.765 181.600 C 24.551 181.600,24.777 181.057,25.268 180.394 C 26.249 179.067,26.460 176.700,25.669 175.909 C 25.281 175.521,25.270 175.680,25.613 176.665 M21.400 176.500 C 21.304 176.775,21.248 177.270,21.276 177.600 C 21.416 179.269,21.172 180.430,20.738 180.162 C 20.450 179.984,20.385 180.052,20.566 180.345 C 21.000 181.047,21.600 180.485,21.600 179.376 C 21.600 178.155,22.130 178.120,22.751 179.300 C 23.109 179.980,23.161 180.005,22.965 179.400 C 22.822 178.960,22.696 178.375,22.686 178.100 C 22.675 177.825,22.427 177.600,22.133 177.600 C 21.840 177.600,21.600 177.330,21.600 177.000 C 21.600 176.270,22.436 176.218,23.201 176.900 C 23.678 177.325,23.682 177.296,23.232 176.700 C 22.615 175.885,21.652 175.780,21.400 176.500 M351.280 177.280 C 351.016 177.544,350.800 177.926,350.800 178.130 C 350.800 178.333,349.989 179.213,348.998 180.085 C 348.007 180.957,347.310 181.855,347.449 182.079 C 348.005 182.979,345.521 184.453,343.814 184.236 L 342.200 184.031 343.713 184.458 C 345.534 184.973,348.172 183.590,347.847 182.291 C 347.729 181.816,348.255 181.093,349.435 180.106 C 350.406 179.294,351.200 178.388,351.200 178.092 C 351.200 177.795,351.361 177.652,351.558 177.774 C 351.755 177.896,352.019 177.726,352.146 177.398 C 352.421 176.679,351.945 176.615,351.280 177.280 M41.256 178.059 C 39.115 178.675,39.974 178.757,42.600 178.188 C 44.023 177.879,44.511 177.668,43.800 177.670 C 43.140 177.671,41.995 177.846,41.256 178.059 M52.765 178.241 C 54.176 178.550,55.404 178.729,55.493 178.640 C 55.699 178.434,51.789 177.587,50.880 177.640 C 50.506 177.662,51.354 177.933,52.765 178.241 M324.980 178.895 L 324.335 180.200 325.303 179.033 C 325.941 178.264,326.495 177.951,326.923 178.115 C 327.281 178.253,327.658 178.230,327.760 178.066 C 327.861 177.901,327.423 177.726,326.785 177.678 C 325.835 177.605,325.510 177.824,324.980 178.895 M185.500 178.698 C 187.535 178.771,190.865 178.771,192.900 178.698 C 194.935 178.625,193.270 178.566,189.200 178.566 C 185.130 178.566,183.465 178.625,185.500 178.698 M216.272 178.695 C 223.135 178.804,223.966 178.890,224.149 179.509 C 224.304 180.032,224.334 180.006,224.272 179.400 C 224.193 178.631,223.890 178.599,216.395 178.586 L 208.600 178.573 216.272 178.695 M56.691 179.887 C 56.777 180.499,57.005 183.430,57.198 186.400 L 57.549 191.800 57.361 185.607 C 57.258 182.200,57.029 179.269,56.854 179.094 C 56.678 178.918,56.605 179.276,56.691 179.887 M196.662 180.600 C 196.796 181.480,196.972 182.275,197.053 182.367 C 197.356 182.710,197.129 180.568,196.781 179.800 C 196.529 179.242,196.493 179.485,196.662 180.600 M341.384 179.626 C 341.049 180.167,341.511 182.698,341.999 183.000 C 342.202 183.125,342.176 182.676,341.941 182.001 C 341.705 181.327,341.606 180.421,341.719 179.988 C 341.945 179.123,341.795 178.961,341.384 179.626 M350.695 181.196 C 350.348 182.078,350.149 182.800,350.253 182.800 C 350.523 182.800,351.678 179.945,351.486 179.752 C 351.397 179.664,351.041 180.313,350.695 181.196 M18.800 180.197 C 18.800 180.686,21.474 181.994,22.400 181.958 C 23.259 181.924,23.218 181.875,22.110 181.612 C 21.401 181.443,20.366 181.007,19.810 180.643 C 19.255 180.279,18.800 180.078,18.800 180.197 M34.000 181.236 C 33.336 181.779,33.269 181.915,33.800 181.640 C 35.105 180.966,35.828 180.412,35.400 180.415 C 35.180 180.417,34.550 180.786,34.000 181.236 M207.673 182.473 C 207.435 183.409,207.310 184.243,207.394 184.327 C 207.478 184.412,207.751 183.724,208.000 182.800 C 208.249 181.876,208.374 181.041,208.279 180.945 C 208.183 180.850,207.910 181.537,207.673 182.473 M322.533 181.431 C 322.395 181.790,322.607 182.351,323.023 182.731 C 323.711 183.359,323.724 183.358,323.233 182.705 C 322.946 182.323,322.815 181.738,322.943 181.405 C 323.070 181.072,323.085 180.800,322.975 180.800 C 322.865 180.800,322.666 181.084,322.533 181.431 M181.033 183.233 C 180.883 184.366,180.841 185.374,180.939 185.472 C 181.037 185.571,181.245 184.728,181.400 183.600 C 181.555 182.472,181.598 181.464,181.494 181.361 C 181.391 181.258,181.184 182.100,181.033 183.233 M224.646 182.806 C 224.765 183.800,225.022 185.240,225.216 186.006 C 225.502 187.134,225.526 186.994,225.344 185.277 C 225.220 184.110,224.964 182.670,224.774 182.077 C 224.517 181.273,224.484 181.459,224.646 182.806 M358.200 184.002 C 358.045 185.542,357.757 186.903,357.559 187.025 C 357.362 187.147,357.221 187.642,357.246 188.124 C 357.289 188.936,357.307 188.941,357.489 188.200 C 357.598 187.760,357.829 187.220,358.004 187.000 C 358.369 186.540,358.998 181.200,358.687 181.200 C 358.574 181.200,358.355 182.461,358.200 184.002 M336.209 182.300 C 336.890 183.921,336.874 184.857,336.149 185.714 L 335.400 186.600 336.300 185.838 C 337.240 185.042,337.449 183.814,336.815 182.811 C 336.569 182.422,336.605 182.117,336.921 181.917 C 337.239 181.714,337.151 181.610,336.657 181.606 C 336.104 181.602,335.989 181.778,336.209 182.300 M329.200 183.308 C 329.200 183.642,329.470 184.018,329.800 184.145 C 330.130 184.271,330.400 184.223,330.400 184.036 C 330.400 183.850,330.130 183.474,329.800 183.200 C 329.312 182.795,329.200 182.815,329.200 183.308 M380.493 184.800 C 380.493 185.570,380.575 185.885,380.676 185.500 C 380.776 185.115,380.776 184.485,380.676 184.100 C 380.575 183.715,380.493 184.030,380.493 184.800 M320.971 184.831 C 320.657 185.179,320.403 185.719,320.406 186.031 C 320.409 186.344,320.642 186.150,320.923 185.600 C 321.268 184.924,321.708 184.639,322.281 184.719 C 322.748 184.785,323.218 184.695,323.326 184.519 C 323.700 183.915,321.542 184.201,320.971 184.831 M363.600 184.829 C 363.600 185.284,363.857 185.914,364.171 186.229 C 365.040 187.097,365.425 186.911,364.613 186.015 C 364.223 185.583,364.009 184.953,364.139 184.615 C 364.269 184.277,364.201 184.000,363.987 184.000 C 363.774 184.000,363.600 184.373,363.600 184.829 M372.465 185.017 C 372.209 185.578,372.007 186.254,372.016 186.519 C 372.024 186.783,372.297 186.388,372.622 185.639 C 373.305 184.065,373.161 183.490,372.465 185.017 M328.832 184.857 C 328.814 185.219,328.530 185.618,328.200 185.745 C 327.870 185.871,327.600 186.168,327.600 186.403 C 327.600 186.639,327.979 186.478,328.443 186.046 C 328.907 185.613,329.191 185.021,329.075 184.730 C 328.927 184.359,328.854 184.398,328.832 184.857 M369.870 186.051 C 369.248 186.688,368.546 187.090,368.308 186.943 C 368.051 186.785,367.992 186.864,368.162 187.138 C 368.319 187.392,368.515 187.600,368.599 187.600 C 368.924 187.600,371.345 185.212,371.177 185.056 C 371.080 184.966,370.491 185.413,369.870 186.051 M198.028 186.833 C 198.044 187.365,198.219 188.160,198.419 188.600 C 198.671 189.158,198.707 188.915,198.538 187.800 C 198.255 185.943,197.987 185.436,198.028 186.833 M206.229 187.829 C 206.081 188.415,206.038 188.972,206.132 189.066 C 206.227 189.160,206.424 188.758,206.571 188.171 C 206.719 187.585,206.762 187.028,206.668 186.934 C 206.573 186.840,206.376 187.242,206.229 187.829 M319.680 187.280 C 318.923 188.037,319.726 189.600,320.873 189.600 C 321.102 189.600,320.870 189.261,320.357 188.846 C 319.559 188.199,319.502 188.000,319.962 187.446 C 320.585 186.695,320.384 186.576,319.680 187.280 M348.865 191.100 C 348.865 193.245,348.934 194.820,349.019 194.600 C 349.302 193.868,349.404 187.199,349.133 187.200 C 348.986 187.200,348.866 188.955,348.865 191.100 M378.642 188.634 C 378.508 188.983,378.549 189.537,378.733 189.866 C 378.968 190.286,379.067 190.099,379.067 189.231 C 379.067 187.837,378.990 187.729,378.642 188.634 M371.236 190.036 C 370.966 190.939,370.818 191.752,370.908 191.842 C 370.998 191.932,371.293 191.266,371.564 190.364 C 371.834 189.461,371.982 188.648,371.892 188.558 C 371.802 188.468,371.507 189.134,371.236 190.036 M356.973 189.726 C 356.862 190.015,356.941 190.690,357.149 191.226 C 357.485 192.093,357.519 192.035,357.463 190.702 C 357.396 189.098,357.293 188.893,356.973 189.726 M259.600 190.600 C 261.426 191.303,262.145 191.293,260.600 190.586 C 259.940 190.283,259.130 190.042,258.800 190.048 C 258.470 190.055,258.830 190.303,259.600 190.600 M81.693 201.691 L 81.787 213.000 81.900 201.900 L 82.013 190.800 89.200 190.800 L 96.388 190.800 96.503 202.700 L 96.618 214.600 96.609 202.600 L 96.600 190.600 89.100 190.491 L 81.600 190.382 81.693 201.691 M103.294 202.300 L 103.387 214.200 103.500 202.500 L 103.612 190.800 110.600 190.800 L 117.588 190.800 117.700 202.900 L 117.812 215.000 117.906 202.700 L 118.000 190.400 110.600 190.400 L 103.200 190.400 103.294 202.300 M179.433 192.433 C 179.283 193.566,179.241 194.574,179.339 194.672 C 179.437 194.771,179.645 193.928,179.800 192.800 C 179.955 191.672,179.998 190.664,179.894 190.561 C 179.791 190.458,179.584 191.300,179.433 192.433 M141.312 191.095 C 142.364 191.177,143.984 191.176,144.912 191.092 C 145.840 191.008,144.980 190.941,143.000 190.942 C 141.020 190.943,140.260 191.012,141.312 191.095 M226.246 192.406 C 226.365 193.400,226.622 194.840,226.816 195.606 C 227.102 196.734,227.126 196.594,226.944 194.877 C 226.820 193.710,226.564 192.270,226.374 191.677 C 226.117 190.873,226.084 191.059,226.246 192.406 M378.800 191.800 C 378.526 192.130,377.919 192.421,377.451 192.446 C 376.813 192.481,376.769 192.537,377.275 192.671 C 377.647 192.769,378.031 193.153,378.129 193.525 C 378.277 194.085,378.315 194.069,378.354 193.431 C 378.379 193.009,378.698 192.334,379.062 191.931 C 379.426 191.529,379.628 191.200,379.511 191.200 C 379.394 191.200,379.074 191.470,378.800 191.800 M44.800 192.200 C 43.494 192.947,43.951 192.955,45.654 192.216 C 46.394 191.894,46.730 191.631,46.400 191.630 C 46.070 191.629,45.350 191.886,44.800 192.200 M55.600 191.982 C 55.930 192.205,56.545 192.391,56.967 192.394 C 57.990 192.402,57.671 192.173,56.200 191.844 C 55.324 191.648,55.162 191.685,55.600 191.982 M150.000 192.200 C 150.550 192.514,151.180 192.772,151.400 192.772 C 151.620 192.772,151.350 192.514,150.800 192.200 C 150.250 191.886,149.620 191.628,149.400 191.628 C 149.180 191.628,149.450 191.886,150.000 192.200 M264.084 192.775 C 264.900 193.466,266.115 194.696,266.784 195.507 C 267.453 196.318,268.000 196.844,268.000 196.674 C 268.000 196.190,264.326 192.385,263.417 191.928 C 262.968 191.702,263.268 192.083,264.084 192.775 M24.446 193.239 C 24.201 193.943,24.013 194.718,24.028 194.960 C 24.044 195.202,24.314 194.696,24.630 193.835 C 24.945 192.974,25.133 192.200,25.048 192.115 C 24.962 192.029,24.692 192.535,24.446 193.239 M41.895 194.234 C 41.067 195.018,40.119 196.232,39.789 196.930 C 39.459 197.629,39.416 197.850,39.694 197.422 C 39.972 196.994,40.990 195.779,41.955 194.722 C 44.028 192.451,44.001 192.237,41.895 194.234 M204.629 193.829 C 204.481 194.415,204.438 194.972,204.532 195.066 C 204.627 195.160,204.824 194.758,204.971 194.171 C 205.119 193.585,205.162 193.028,205.068 192.934 C 204.973 192.840,204.776 193.242,204.629 193.829 M238.786 195.100 L 236.600 197.400 238.900 195.214 C 240.165 194.011,241.200 192.976,241.200 192.914 C 241.200 192.617,240.818 192.963,238.786 195.100 M279.600 193.879 C 278.830 194.456,277.757 195.484,277.215 196.164 C 276.566 196.979,276.974 196.731,278.415 195.434 C 279.617 194.352,280.771 193.317,280.980 193.134 C 281.801 192.413,280.925 192.885,279.600 193.879 M153.800 194.170 C 154.460 194.742,155.360 195.404,155.800 195.641 C 156.240 195.877,156.060 195.603,155.400 195.030 C 154.740 194.458,153.840 193.796,153.400 193.559 C 152.960 193.323,153.140 193.597,153.800 194.170 M199.668 194.200 C 199.662 194.640,199.811 195.360,200.000 195.800 C 200.438 196.819,200.438 195.768,200.000 194.400 C 199.743 193.596,199.677 193.557,199.668 194.200 M336.267 196.000 C 336.394 196.990,336.746 198.026,337.048 198.301 C 337.393 198.617,337.449 198.624,337.199 198.321 C 336.979 198.057,336.787 197.381,336.772 196.820 C 336.756 196.259,336.584 195.440,336.390 195.000 C 336.152 194.463,336.111 194.791,336.267 196.000 M369.265 195.417 C 368.595 196.888,368.723 197.202,369.447 195.865 C 369.786 195.240,369.988 194.654,369.896 194.563 C 369.805 194.471,369.521 194.856,369.265 195.417 M376.882 195.514 C 376.834 196.096,376.522 196.724,376.189 196.910 C 375.856 197.097,375.675 197.398,375.787 197.579 C 375.899 197.761,375.723 198.132,375.396 198.404 C 375.068 198.676,374.800 199.083,374.800 199.310 C 374.800 199.537,375.156 199.312,375.592 198.810 C 376.027 198.308,376.298 197.759,376.194 197.590 C 376.090 197.422,376.250 197.190,376.549 197.075 C 377.128 196.853,377.673 194.892,377.231 194.619 C 377.087 194.530,376.930 194.933,376.882 195.514 M330.006 197.233 C 330.009 197.765,330.189 198.470,330.406 198.800 C 330.682 199.222,330.723 198.985,330.542 198.000 C 330.225 196.275,329.998 195.949,330.006 197.233 M203.233 199.033 C 202.975 200.059,202.839 200.972,202.931 201.064 C 203.022 201.156,203.309 200.392,203.567 199.367 C 203.825 198.341,203.961 197.428,203.869 197.336 C 203.778 197.244,203.491 198.008,203.233 199.033 M253.879 198.389 C 254.142 198.734,254.536 199.463,254.754 200.008 C 255.017 200.668,255.158 200.773,255.175 200.322 C 255.189 199.950,254.795 199.221,254.300 198.703 C 253.805 198.185,253.616 198.043,253.879 198.389 M178.025 200.625 C 177.769 202.093,177.639 203.372,177.735 203.469 C 177.832 203.565,178.119 202.443,178.375 200.975 C 178.631 199.507,178.761 198.228,178.665 198.131 C 178.568 198.035,178.281 199.157,178.025 200.625 M268.659 199.000 C 269.185 201.334,269.609 202.301,269.361 200.600 C 269.232 199.720,268.961 198.730,268.758 198.400 C 268.511 197.998,268.478 198.197,268.659 199.000 M190.655 199.512 C 190.531 199.712,190.339 200.669,190.228 201.638 C 190.117 202.607,190.121 203.040,190.236 202.600 C 190.351 202.160,190.639 201.299,190.876 200.687 C 191.289 199.622,191.125 198.751,190.655 199.512 M201.079 200.600 C 201.356 202.505,201.942 204.192,202.226 203.907 C 202.338 203.795,202.260 203.275,202.052 202.752 C 201.844 202.228,201.487 201.170,201.260 200.400 L 200.845 199.000 201.079 200.600 M214.046 200.439 C 213.801 201.143,213.612 202.008,213.627 202.360 C 213.641 202.712,213.904 202.197,214.209 201.216 C 214.849 199.162,214.715 198.522,214.046 200.439 M337.600 199.492 C 337.600 200.641,342.818 204.515,343.478 203.855 C 343.563 203.770,342.951 203.413,342.117 203.061 C 340.402 202.338,339.290 201.453,338.288 200.011 C 337.909 199.467,337.600 199.233,337.600 199.492 M347.449 200.215 C 347.312 200.573,347.215 201.166,347.234 201.533 C 347.253 201.900,347.427 201.669,347.621 201.020 C 347.998 199.758,347.865 199.133,347.449 200.215 M38.537 203.000 C 38.539 204.760,38.609 205.430,38.693 204.489 C 38.778 203.549,38.777 202.109,38.691 201.289 C 38.605 200.470,38.536 201.240,38.537 203.000 M373.979 201.055 C 373.758 201.636,373.652 202.185,373.743 202.276 C 373.833 202.367,374.099 201.892,374.333 201.220 C 374.853 199.728,374.539 199.582,373.979 201.055 M227.846 202.006 C 227.965 203.000,228.222 204.440,228.416 205.206 C 228.702 206.334,228.726 206.194,228.544 204.477 C 228.420 203.310,228.164 201.870,227.974 201.277 C 227.717 200.473,227.684 200.659,227.846 202.006 M234.444 201.644 C 234.198 202.351,234.066 203.000,234.152 203.085 C 234.238 203.171,234.509 202.662,234.756 201.956 C 235.002 201.249,235.134 200.600,235.048 200.515 C 234.962 200.429,234.691 200.938,234.444 201.644 M331.200 200.644 C 331.200 200.877,331.785 201.692,332.500 202.457 C 333.215 203.221,333.513 203.476,333.162 203.023 C 332.812 202.570,332.227 201.755,331.862 201.211 C 331.498 200.667,331.200 200.412,331.200 200.644 M22.920 202.800 C 22.920 204.010,22.995 204.505,23.087 203.900 C 23.178 203.295,23.178 202.305,23.087 201.700 C 22.995 201.095,22.920 201.590,22.920 202.800 M292.400 201.020 C 292.730 201.090,293.679 201.258,294.508 201.393 L 296.017 201.639 295.908 209.520 L 295.800 217.400 294.059 217.525 C 293.102 217.594,291.756 217.454,291.069 217.214 C 290.101 216.877,289.926 216.886,290.295 217.255 C 290.994 217.954,295.066 218.209,295.799 217.601 C 296.296 217.189,296.400 215.755,296.400 209.341 L 296.400 201.580 295.374 201.190 C 294.810 200.976,293.775 200.821,293.074 200.846 C 292.373 200.872,292.070 200.950,292.400 201.020 M138.138 201.506 C 137.884 201.668,138.812 201.800,140.200 201.800 C 141.588 201.800,142.516 201.668,142.262 201.506 C 142.008 201.344,141.080 201.212,140.200 201.212 C 139.320 201.212,138.392 201.344,138.138 201.506 M273.646 202.439 C 273.401 203.143,273.213 203.918,273.228 204.160 C 273.244 204.402,273.514 203.896,273.830 203.035 C 274.145 202.174,274.333 201.400,274.248 201.315 C 274.162 201.229,273.892 201.735,273.646 202.439 M289.496 202.216 C 288.893 202.775,288.400 203.349,288.400 203.491 C 288.400 203.633,288.895 203.288,289.500 202.725 C 290.105 202.161,290.870 201.602,291.200 201.481 C 291.731 201.288,291.730 201.260,291.196 201.232 C 290.864 201.214,290.099 201.657,289.496 202.216 M355.049 202.215 C 354.912 202.573,354.824 203.526,354.853 204.333 C 354.901 205.644,354.938 205.587,355.195 203.800 C 355.503 201.671,355.455 201.158,355.049 202.215 M144.839 203.776 C 145.301 204.559,145.756 205.200,145.850 205.200 C 146.134 205.200,144.836 202.869,144.402 202.601 C 144.180 202.464,144.377 202.993,144.839 203.776 M160.307 204.000 C 160.468 204.770,160.589 207.650,160.577 210.400 C 160.558 214.286,160.630 214.999,160.899 213.600 C 161.349 211.262,161.061 204.385,160.472 203.380 C 160.093 202.736,160.065 202.844,160.307 204.000 M191.668 203.600 C 191.688 204.639,192.318 206.346,192.332 205.400 C 192.338 204.960,192.189 204.240,192.000 203.800 C 191.789 203.310,191.661 203.232,191.668 203.600 M360.200 204.614 C 359.200 205.096,359.166 205.151,360.000 204.948 C 361.133 204.671,362.407 204.021,361.800 204.030 C 361.580 204.033,360.860 204.296,360.200 204.614 M269.693 205.600 C 269.693 206.370,269.775 206.685,269.876 206.300 C 269.976 205.915,269.976 205.285,269.876 204.900 C 269.775 204.515,269.693 204.830,269.693 205.600 M334.800 205.367 C 335.711 206.375,337.200 207.439,337.200 207.081 C 337.200 207.000,336.435 206.332,335.500 205.597 C 334.008 204.423,333.922 204.395,334.800 205.367 M247.554 205.315 C 247.728 205.489,249.655 205.578,251.835 205.513 L 255.800 205.395 251.518 205.198 C 249.163 205.089,247.379 205.142,247.554 205.315 M212.433 207.033 C 212.175 208.059,212.039 208.972,212.131 209.064 C 212.222 209.156,212.509 208.392,212.767 207.367 C 213.025 206.341,213.161 205.428,213.069 205.336 C 212.978 205.244,212.691 206.008,212.433 207.033 M215.647 206.833 C 215.673 207.585,215.841 208.740,216.020 209.400 C 216.235 210.189,216.270 209.778,216.123 208.200 C 215.877 205.555,215.573 204.681,215.647 206.833 M367.400 206.501 C 366.960 206.940,366.015 207.549,365.300 207.855 C 363.720 208.531,363.568 208.914,365.100 208.361 C 366.315 207.923,368.675 206.132,368.384 205.869 C 368.283 205.778,367.840 206.062,367.400 206.501 M233.331 209.400 C 233.333 210.940,233.405 211.521,233.492 210.691 C 233.579 209.861,233.577 208.601,233.489 207.891 C 233.400 207.181,233.329 207.860,233.331 209.400 M337.600 207.408 C 337.600 207.481,338.158 207.820,338.840 208.160 C 339.778 208.628,339.970 208.645,339.627 208.233 C 339.219 207.741,337.600 207.082,337.600 207.408 M189.057 209.682 C 188.507 213.627,188.304 215.788,188.501 215.600 C 188.783 215.330,189.688 208.354,189.469 208.136 C 189.374 208.041,189.189 208.736,189.057 209.682 M361.783 208.827 C 361.638 209.062,361.267 209.158,360.960 209.040 C 360.652 208.922,360.400 208.990,360.400 209.191 C 360.400 209.392,359.635 209.632,358.700 209.725 C 357.765 209.817,358.060 209.842,359.356 209.780 C 360.652 209.717,361.822 209.498,361.956 209.293 C 362.090 209.088,362.470 208.817,362.800 208.692 C 363.290 208.505,363.276 208.457,362.724 208.432 C 362.352 208.414,361.928 208.592,361.783 208.827 M176.255 210.655 C 176.113 211.686,176.074 212.608,176.169 212.702 C 176.263 212.796,176.465 212.039,176.618 211.018 C 176.771 209.998,176.810 209.076,176.704 208.971 C 176.598 208.865,176.396 209.623,176.255 210.655 M340.821 209.221 C 341.355 209.560,344.342 209.781,343.967 209.455 C 343.875 209.375,342.999 209.208,342.021 209.082 C 340.870 208.935,340.446 208.984,340.821 209.221 M193.267 210.600 C 193.261 211.452,194.292 214.877,194.350 214.200 C 194.369 213.980,194.134 212.900,193.828 211.800 C 193.522 210.700,193.269 210.160,193.267 210.600 M229.472 211.800 C 229.599 212.900,229.769 213.875,229.851 213.967 C 230.132 214.282,229.920 211.799,229.580 210.800 C 229.351 210.126,229.316 210.451,229.472 211.800 M345.819 210.500 C 345.541 211.390,345.131 216.202,345.352 215.981 C 345.597 215.736,346.329 210.000,346.115 210.000 C 346.038 210.000,345.905 210.225,345.819 210.500 M41.226 211.539 C 42.107 212.739,45.600 215.224,45.600 214.651 C 45.600 214.524,45.015 214.119,44.300 213.749 C 43.585 213.380,42.380 212.431,41.622 211.639 L 40.244 210.200 41.226 211.539 M263.000 212.400 L 259.800 212.653 262.600 212.692 C 264.140 212.713,266.300 212.590,267.400 212.418 C 269.968 212.018,267.929 212.010,263.000 212.400 M287.228 212.374 C 287.186 213.239,288.810 216.400,289.298 216.400 C 289.532 216.400,289.428 216.073,289.066 215.673 C 288.705 215.274,288.150 214.239,287.833 213.373 C 287.516 212.508,287.244 212.058,287.228 212.374 M251.113 213.095 C 252.276 213.176,254.076 213.176,255.113 213.093 C 256.151 213.011,255.200 212.945,253.000 212.946 C 250.800 212.947,249.951 213.014,251.113 213.095 M210.650 214.450 C 210.509 215.153,210.469 215.802,210.559 215.892 C 210.650 215.983,210.848 215.491,211.000 214.800 C 211.152 214.109,211.193 213.459,211.091 213.358 C 210.989 213.256,210.791 213.747,210.650 214.450 M82.036 215.600 C 82.003 216.632,82.761 219.782,82.983 219.538 C 83.052 219.462,82.874 218.320,82.588 217.000 C 82.301 215.680,82.053 215.050,82.036 215.600 M144.789 215.621 C 144.547 216.073,143.775 216.793,143.074 217.220 C 142.374 217.647,142.001 217.998,142.246 217.999 C 142.874 218.001,144.726 216.487,145.217 215.569 C 145.443 215.146,145.538 214.800,145.428 214.800 C 145.318 214.800,145.030 215.170,144.789 215.621 M353.449 215.415 C 353.312 215.773,353.218 216.456,353.241 216.933 C 353.267 217.481,353.403 217.286,353.610 216.403 C 353.960 214.916,353.865 214.333,353.449 215.415 M48.079 215.660 C 49.247 215.990,53.430 215.985,54.986 215.651 C 55.639 215.511,54.144 215.398,51.665 215.398 C 49.187 215.399,47.573 215.517,48.079 215.660 M217.077 217.400 C 217.200 218.720,217.368 219.875,217.450 219.967 C 217.718 220.264,217.515 217.434,217.180 216.200 C 216.965 215.411,216.930 215.822,217.077 217.400 M267.256 217.434 C 267.491 218.295,267.776 219.090,267.889 219.200 C 268.241 219.544,267.534 216.620,267.172 216.234 C 266.983 216.033,267.021 216.573,267.256 217.434 M175.000 218.000 C 174.846 218.910,174.804 219.738,174.907 219.840 C 175.010 219.943,175.213 219.277,175.360 218.360 C 175.507 217.443,175.548 216.615,175.453 216.520 C 175.358 216.424,175.154 217.090,175.000 218.000 M262.056 217.259 C 261.317 217.472,260.787 217.720,260.879 217.812 C 261.081 218.014,264.000 217.237,264.000 216.981 C 264.000 216.746,263.682 216.791,262.056 217.259 M195.063 218.600 C 195.201 219.480,195.465 220.560,195.650 221.000 C 195.864 221.508,195.895 221.215,195.737 220.200 C 195.599 219.320,195.335 218.240,195.150 217.800 C 194.936 217.292,194.905 217.585,195.063 218.600 M344.909 219.200 C 344.909 220.190,344.987 220.595,345.082 220.100 C 345.178 219.605,345.178 218.795,345.082 218.300 C 344.987 217.805,344.909 218.210,344.909 219.200 M116.480 219.480 C 115.888 221.409,116.175 221.695,116.800 219.800 C 117.064 219.001,117.202 218.269,117.107 218.174 C 117.012 218.078,116.730 218.666,116.480 219.480 M274.400 218.153 C 274.400 218.582,275.590 220.800,275.821 220.800 C 275.931 220.800,275.723 220.215,275.359 219.500 C 274.617 218.040,274.400 217.736,274.400 218.153 M209.233 220.233 C 208.975 221.259,208.839 222.172,208.931 222.264 C 209.022 222.356,209.309 221.592,209.567 220.567 C 209.825 219.541,209.961 218.628,209.869 218.536 C 209.778 218.444,209.491 219.208,209.233 220.233 M254.307 218.690 C 255.026 218.779,256.106 218.777,256.707 218.686 C 257.308 218.595,256.720 218.522,255.400 218.524 C 254.080 218.526,253.588 218.601,254.307 218.690 M57.709 220.400 C 57.709 221.390,57.787 221.795,57.882 221.300 C 57.978 220.805,57.978 219.995,57.882 219.500 C 57.787 219.005,57.709 219.410,57.709 220.400 M235.200 218.953 C 235.200 219.382,236.390 221.600,236.621 221.600 C 236.731 221.600,236.523 221.015,236.159 220.300 C 235.417 218.840,235.200 218.536,235.200 218.953 M352.868 219.400 C 352.862 219.840,353.011 220.560,353.200 221.000 C 353.638 222.019,353.638 220.968,353.200 219.600 C 352.943 218.796,352.877 218.757,352.868 219.400 M231.072 221.400 C 231.199 222.500,231.369 223.475,231.451 223.567 C 231.732 223.882,231.520 221.399,231.180 220.400 C 230.951 219.726,230.916 220.051,231.072 221.400 M30.200 222.000 C 31.283 223.100,32.260 224.000,32.370 224.000 C 32.480 224.000,31.683 223.100,30.600 222.000 C 29.517 220.900,28.540 220.000,28.430 220.000 C 28.320 220.000,29.117 220.900,30.200 222.000 M187.463 222.082 C 186.786 227.074,186.715 227.784,186.916 227.599 C 187.208 227.331,188.098 220.765,187.873 220.540 C 187.776 220.443,187.591 221.136,187.463 222.082 M156.027 223.309 C 154.555 224.996,154.341 225.348,155.362 224.400 C 156.704 223.154,158.660 220.785,158.327 220.809 C 158.257 220.814,157.222 221.939,156.027 223.309 M268.456 221.600 C 268.456 221.930,268.611 222.560,268.800 223.000 C 269.017 223.504,269.144 223.578,269.144 223.200 C 269.144 222.870,268.989 222.240,268.800 221.800 C 268.583 221.296,268.456 221.222,268.456 221.600 M344.256 222.084 C 344.121 222.588,344.028 223.450,344.049 224.000 C 344.072 224.589,344.231 224.271,344.436 223.225 C 344.803 221.352,344.673 220.527,344.256 222.084 M277.215 222.638 C 277.757 223.320,278.920 224.384,279.800 225.003 C 281.607 226.274,281.482 226.126,278.415 223.366 C 276.962 222.058,276.560 221.814,277.215 222.638 M238.600 224.000 C 239.683 225.100,240.660 226.000,240.770 226.000 C 240.880 226.000,240.083 225.100,239.000 224.000 C 237.917 222.900,236.940 222.000,236.830 222.000 C 236.720 222.000,237.517 222.900,238.600 224.000 M85.347 224.020 C 85.699 224.581,86.485 225.403,87.094 225.846 C 88.714 227.026,89.604 227.417,88.200 226.332 C 87.540 225.822,86.484 224.864,85.854 224.203 C 84.852 223.152,84.788 223.129,85.347 224.020 M57.270 226.043 C 57.201 227.859,57.175 227.893,55.500 228.326 L 53.800 228.766 55.400 228.552 C 57.492 228.272,57.681 228.039,57.496 225.954 L 57.340 224.200 57.270 226.043 M196.644 225.600 C 197.109 228.624,196.700 228.435,202.513 228.311 L 207.765 228.200 208.089 226.640 C 208.267 225.781,208.326 224.992,208.220 224.886 C 208.113 224.780,207.908 225.437,207.762 226.347 L 207.498 228.000 202.536 228.000 C 198.911 228.000,197.536 227.865,197.430 227.500 C 197.350 227.225,197.092 226.370,196.857 225.600 L 196.429 224.200 196.644 225.600 M35.200 225.796 C 35.200 226.070,37.649 227.284,37.832 227.101 C 37.919 227.014,37.362 226.644,36.595 226.278 C 35.828 225.912,35.200 225.695,35.200 225.796 M152.000 226.400 C 151.230 226.822,150.744 227.174,150.920 227.183 C 151.344 227.205,153.600 226.032,153.600 225.790 C 153.600 225.528,153.577 225.537,152.000 226.400 M352.480 229.267 C 352.436 230.954,352.296 232.664,352.170 233.067 C 351.956 233.747,351.972 233.750,352.387 233.105 C 352.652 232.692,352.778 231.151,352.697 229.305 L 352.561 226.200 352.480 229.267 M218.446 227.500 L 218.400 228.400 225.400 228.400 L 232.400 228.400 232.354 227.500 C 232.319 226.823,232.262 226.773,232.124 227.300 C 231.959 227.931,231.293 228.000,225.400 228.000 C 219.507 228.000,218.841 227.931,218.676 227.300 C 218.538 226.773,218.481 226.823,218.446 227.500 M173.302 227.600 C 173.439 228.102,174.566 228.203,180.233 228.216 L 187.000 228.231 180.417 228.105 C 175.806 228.017,173.730 227.833,173.487 227.490 C 173.236 227.136,173.184 227.167,173.302 227.600 M39.600 227.949 C 39.930 228.146,40.830 228.420,41.600 228.556 C 42.544 228.723,42.740 228.692,42.200 228.461 C 40.963 227.932,38.890 227.523,39.600 227.949 M124.200 227.969 C 124.640 228.147,126.260 228.396,127.800 228.524 C 129.739 228.684,130.108 228.655,129.000 228.430 C 126.427 227.909,123.312 227.609,124.200 227.969 M245.000 228.214 C 245.660 228.517,246.470 228.758,246.800 228.752 C 247.130 228.745,246.770 228.497,246.000 228.200 C 244.174 227.497,243.455 227.507,245.000 228.214 M260.600 228.216 L 258.600 228.756 260.400 228.527 C 261.390 228.401,262.560 228.152,263.000 227.974 C 264.247 227.470,262.842 227.612,260.600 228.216 M285.800 227.946 C 286.240 228.139,287.230 228.410,288.000 228.550 C 288.961 228.724,289.149 228.694,288.600 228.454 C 288.160 228.261,287.170 227.990,286.400 227.850 C 285.439 227.676,285.251 227.706,285.800 227.946 M92.200 228.400 C 92.640 228.589,93.270 228.744,93.600 228.744 C 93.978 228.744,93.904 228.617,93.400 228.400 C 92.960 228.211,92.330 228.056,92.000 228.056 C 91.622 228.056,91.696 228.183,92.200 228.400 M346.400 232.750 C 347.945 233.245,350.684 233.612,350.000 233.232 C 349.670 233.049,348.500 232.794,347.400 232.664 C 346.160 232.519,345.780 232.551,346.400 232.750 " stroke="none" fill="#9c8ccc" fill-rule="evenodd"></path></g></svg>