<?xml version="1.0" encoding="UTF-8" standalone="no"?>
<svg
   xmlns:svg="http://www.w3.org/2000/svg"
   xmlns="http://www.w3.org/2000/svg"
   version="1.0"
   width="704"
   height="131"
   viewBox="-0.778 -0.596 704 131"
   id="svg2"
   xml:space="preserve">
	<defs
   id="defs4">
	</defs>
	<g
   transform="matrix(0.9857767,0,0,0.9228277,4,5.9997149)"
   id="g6">
		<g
   id="g8">
			<polygon
   points="703.07,100.12 689.66,86.72 676.232,100.12 689.66,113.534 703.07,100.12 "
   style="fill:#fcb100"
   id="polygon10" />
		</g>
		<path
   d="M 668,75.813 C 667.428,104.209 666.641,129.806 665.672,129.575 C 658.424,127.848 655.84,103.591 655.109,78.612 C 635.168,79.149 618.138,57.091 619.908,32.812 C 615.025,34.669 611.142,35.679 608.388,30.679 C 617.189,22.502 634.902,10.237 634.275,15.788 C 632.726,22.702 628.464,76.78 655.011,74.766 C 654.452,49.223 655.679,24.094 655.697,22.665 C 650.351,24.821 643.549,32.717 638.234,23.937 C 647.918,13.436 660.488,0.99 667.564,0.01 C 668.279,-0.06 669.093,0.221 669.093,1.168 C 669.093,1.168 668.739,37.618 668.081,71.678 C 693.845,61.485 692.274,27.658 688.329,20.201 C 683.403,22.017 680.329,25.857 674.181,19.117 C 689.603,5.304 696.74,0.698 697.638,3.888 C 697.638,3.888 715.861,60.958 668,75.813 z "
   style="fill:#1a3484"
   id="path12" />
		<path
   d="M 423.712,21.51 L 423.712,116.229 L 404.946,116.229 L 404.946,59.691 C 404.946,56.053 405.073,49.822 405.46,45.869 L 404.896,45.869 L 377.812,116.228 L 360.443,116.228 L 333.368,45.87 L 332.797,45.87 C 333.183,49.823 333.31,56.054 333.31,59.692 L 333.31,116.23 L 314.544,116.23 L 314.544,21.51 L 341.652,21.51 L 369.402,93.958 L 397.166,21.51 L 423.712,21.51 L 423.712,21.51 z M 514.728,73.934 L 514.728,85.432 C 514.728,107.803 528.259,117.192 551.871,117.192 C 575.483,117.192 589.014,108.924 589.014,86.552 L 589.014,20.549 L 570.248,20.549 L 570.248,47.536 C 564.027,44.523 556.287,42.899 549.066,42.899 C 524.875,42.9 514.728,56.21 514.728,73.934 z M 570.248,86.534 C 570.248,99.451 560.035,104.184 551.31,104.184 C 542.585,104.184 532.372,99.451 532.372,86.534 L 532.372,73.554 C 532.372,60.638 542.585,55.904 551.31,55.904 C 560.035,55.904 570.248,60.638 570.248,73.554 L 570.248,86.534 z M 505.226,105.995 C 494.427,114.518 483.433,117.192 470.74,117.192 C 445.537,117.192 432.59,103.706 432.59,82.075 L 432.59,79.142 C 432.59,56.771 446.121,42.904 469.733,42.904 C 493.345,42.904 506.878,56.771 506.878,79.142 L 506.878,84.955 L 450.796,84.955 L 450.796,86.533 C 450.796,98.109 459.812,104.184 470.882,104.184 C 479.861,104.184 485.82,102.238 493.71,96.99 L 505.226,105.995 z M 488.667,73.842 C 488.667,60.644 478.456,55.5 469.731,55.5 C 461.004,55.5 450.793,60.644 450.793,73.842 L 488.667,73.842 z M 124.989,102.522 L 132.546,102.522 L 132.546,116.229 L 120.77,116.229 C 102.31,116.229 94.807,107.743 94.807,92.357 L 94.807,20.545 L 113.572,20.545 L 113.572,91.721 C 113.571,100.197 116.738,102.522 124.989,102.522 z M 169.252,117.192 C 192.863,117.192 204.662,108.924 204.662,86.552 L 204.662,43.864 L 185.897,43.864 L 185.897,86.534 C 185.897,99.451 177.977,104.184 169.252,104.184 C 160.527,104.184 152.606,99.451 152.606,86.534 L 152.606,43.864 L 133.841,43.864 L 133.841,86.552 C 133.842,108.924 145.641,117.192 169.252,117.192 z M 254.734,42.9 C 247.512,42.9 239.773,44.524 233.552,47.537 L 233.552,20.549 L 214.787,20.549 L 214.787,86.552 C 214.787,108.924 228.317,117.192 251.929,117.192 C 275.54,117.192 289.071,107.803 289.071,85.432 L 289.071,73.934 C 289.072,56.21 278.925,42.9 254.734,42.9 z M 233.553,73.553 C 233.553,60.637 243.765,55.903 252.49,55.903 C 261.215,55.903 271.427,60.637 271.427,73.553 L 271.427,86.533 C 271.427,99.45 261.216,104.183 252.49,104.183 C 243.764,104.183 233.553,99.45 233.553,86.533 L 233.553,73.553 z M 88.436,87.813 L 68.442,87.813 C 65.019,99.172 56.654,104.319 44.904,104.319 C 26.371,104.319 19.571,92.075 19.571,73.243 L 19.571,63.835 C 19.571,43.103 28.694,33.425 44.904,33.425 C 56.654,33.425 65.019,38.573 68.442,49.933 L 88.436,49.933 C 84.894,33.02 69.83,20.55 44.904,20.55 C 16.229,20.55 0,37.341 0,63.528 L 0,76.452 C 0,101.65 15.645,117.193 44.904,117.193 C 69.83,117.193 84.894,104.724 88.436,87.813 z "
   style="fill:#1a3484"
   id="path14" />
	</g>
</svg>