<?xml version="1.0" encoding="utf-8"?>
<!-- Generator: Adobe Illustrator 23.0.1, SVG Export Plug-In . SVG Version: 6.00 Build 0)  -->
<svg version="1.1" id="Layer_1" xmlns="http://www.w3.org/2000/svg" xmlns:xlink="http://www.w3.org/1999/xlink" x="0px" y="0px"
	 viewBox="0 0 703 129.5" style="enable-background:new 0 0 703 129.5;" xml:space="preserve">
<style type="text/css">
	.st0{fill:#DCB47B;}
	.st1{fill:#034694;}
</style>
<polygon class="st0" points="703,100.1 689.6,86.7 676.2,100.1 689.6,113.5 "/>
<path class="st1" d="M697.6,3.9c-0.9-3.2-8,1.4-23.5,15.2c6.1,6.7,9.2,2.9,14.1,1.1c3.9,7.5,5.5,41.3-20.2,51.5
	c0.7-34.1,1-70.5,1-70.5c0-0.7-0.6-1.3-1.4-1.2c0,0-0.1,0-0.1,0c-7.1,1-19.6,13.4-29.3,23.9c5.3,8.8,12.1,0.9,17.5-1.3
	c0,1.4-1.2,26.6-0.7,52.1c-26.5,2-22.3-52.1-20.7-59c0.6-5.6-17.1,6.7-25.9,14.9c2.8,5,6.6,4,11.5,2.1C618.1,57,635.2,79,655.1,78.5
	c0.7,25,3.3,49.2,10.6,51c1,0.2,1.8-25.4,2.3-53.8C715.8,61,697.6,3.9,697.6,3.9z"/>
<path class="st1" d="M113.5,91.7V20.5H94.8v71.9c0,15.4,7.5,23.9,26,23.9h11.8v-13.7H125C116.7,102.5,113.5,100.2,113.5,91.7z"/>
<path class="st1" d="M397.1,21.5l-27.8,72.4l-27.7-72.4h-27.1v94.7h18.8V59.7c0-3.6-0.1-9.9-0.5-13.8h0.6l27.1,70.4h17.4L405,45.9
	h0.6c-0.4,4-0.5,10.2-0.5,13.8v56.5h18.8V21.5H397.1z"/>
<path class="st1" d="M169.2,117.2c23.6,0,35.4-8.3,35.4-30.6V43.9h-18.8v42.7c0,12.9-7.9,17.7-16.6,17.7s-16.6-4.7-16.6-17.7V43.9
	h-18.8v42.7C133.8,108.9,145.6,117.2,169.2,117.2z"/>
<path class="st1" d="M289,73.9v11.5c0,22.4-13.5,31.8-37.1,31.8s-37.1-8.3-37.1-30.6v-66h18.8v27c6.6-3.1,13.9-4.6,21.2-4.6
	C278.9,42.9,289,56.2,289,73.9z M233.5,86.5c0,12.9,10.2,17.7,18.9,17.7c8.7,0,18.9-4.7,18.9-17.7v-13c0-12.9-10.2-17.7-18.9-17.7
	c-8.7,0-18.9,4.7-18.9,17.7L233.5,86.5L233.5,86.5L233.5,86.5z"/>
<path class="st1" d="M549,42.9c7.3,0,14.6,1.5,21.2,4.6v-27H589v66c0,22.4-13.5,30.6-37.1,30.6s-37.1-9.4-37.1-31.8V73.9
	C514.7,56.2,524.9,42.9,549,42.9z M570.2,73.5c0-12.9-10.2-17.7-18.9-17.7s-18.9,4.7-18.9,17.7v13c0,12.9,10.2,17.7,18.9,17.7
	s18.9-4.8,18.9-17.7V73.5z"/>
<path class="st1" d="M493.7,97c-7.9,5.2-13.8,7.2-22.8,7.2c-11.1,0-20.1-6.1-20.1-17.7v-1.6h56.1v-5.8c0-22.4-13.5-36.2-37.1-36.2
	s-37.1,13.9-37.1,36.2V82c0,21.6,12.9,35.1,38.2,35.1c12.7,0,23.7-2.7,34.5-11.2L493.7,97z M450.8,73.8c0-13.2,10.2-18.3,18.9-18.3
	s18.9,5.1,18.9,18.3H450.8z"/>
<path class="st1" d="M44.9,117.2C15.6,117.2,0,101.7,0,76.5v-13c0-26.2,16.2-43,44.9-43c24.9,0,40,12.5,43.5,29.4h-20
	C65,38.6,56.6,33.4,44.9,33.4c-16.2,0-25.3,9.7-25.3,30.4v9.4c0,18.8,6.8,31.1,25.3,31.1c11.8,0,20.1-5.1,23.5-16.5h20
	C84.9,104.7,69.8,117.2,44.9,117.2z"/>
</svg>
