<svg id="Layer_1" data-name="Layer 1" xmlns="http://www.w3.org/2000/svg" viewBox="0 0 2499.05732 632.92896"><defs><style>.cls-1{fill:#482b2c;}.cls-2{fill:#79a340;}.cls-3{fill:#0f80c3;}.cls-4{fill:#f16026;}.cls-5{fill:#79a341;}</style></defs><title>coletica</title><path class="cls-1" d="M718.4829,30.53339q211.23221,0,422.46434.01432c6.99147.001,6.119-.97484,6.087,5.97617q-.293,63.641-.6488,127.28173a21.38791,21.38791,0,0,0,.00559,2.38206c.23319,2.174-.496,3.34488-2.88262,3.11831-1.10248-.10466-2.22347-.01464-3.33607-.01445q-158.54312.02667-317.08611.05405-252.00012.05494-504.00019.08283c-37.91222-.01035-71.52812,11.65964-100.22543,36.43249-29.0811,25.10416-46.26589,56.909-51.11945,95.09884C157.48787,381.63668,213.3426,453.82679,290.41325,467.4066a177.31174,177.31174,0,0,0,30.83289,2.47322q93.21855.0186,186.43712.05378,317.08649.0722,634.173.13885c5.67374.00128,5.69714.00227,5.61937,5.43071q-.90753,63.39575-1.83149,126.7912c-.0114.79438-.06158,1.59022-.031,2.38291.05565,1.438-.67092,1.96674-2.02754,1.90884-.95171-.04057-1.90692-.00076-2.8605.00139q-241.26738.542-482.53472,1.084-170.46113.38391-340.92222.77948c-45.91249.113-89.631-9.69312-130.3489-30.79567Q70.33153,517.23225,36.41,389.96282a273.97907,273.97907,0,0,1-8.47225-83.12124A288.95279,288.95279,0,0,1,176.51958,66.85465a285.661,285.661,0,0,1,92.08983-32.25051A301.75856,301.75856,0,0,1,318.906,30.57755q199.78844.02216,399.57688.0082Z"/><path class="cls-2" d="M639.53071,300.06067q140.40916,0,280.8184-.01321,76.51839-.038,153.03655-.28508c.95358-.00186,1.907-.00387,2.86062.00047,5.18618.0236,5.19829.02424,5.22716,5.17208q.095,16.92141.16647,33.84294c.02282,5.29735.521,5.03352-5.24427,5.03765q-26.9374.01929-53.8748.04187-409.06825.18306-818.1365.34313c-8.01457.00282-6.2438,1.2234-7.61859-6.79957a108.042,108.042,0,0,1-.248-33.22586c.51808-3.73486.45735-3.79184,4.38488-3.7976q25.74554-.0378,51.49113-.02479,193.5685-.00206,387.137-.00073Z"/><path class="cls-3" d="M215.8059,254.47793c-.26732-2.08043.80861-2.9399,1.50185-3.93672a122.196,122.196,0,0,1,44.424-38.81721,17.01072,17.01072,0,0,1,8.24736-1.72721q153.295.04374,306.59005.0243,248.89544,0,497.79092.01239c7.27787.0007,6.267-.8874,6.36166,6.31023q.21968,16.68263.34494,33.36646c.03679,4.32626.003,4.35681-4.48115,4.3621q-36.23733.043-72.47477.0582-248.17954.12522-496.359.24477-143.04319.06526-286.08638.1026C219.76923,254.47851,217.87312,254.47793,215.8059,254.47793Z"/><path class="cls-4" d="M219.03711,389.9794c1.76051,0,3.44057.00038,5.12062-.00008q215.75543-.06189,431.51082-.12495,210.03364-.06749,420.06723-.13909c7.1512-.00189,6.36957-.82522,6.44047,6.306q.16817,16.922.2056,33.84528c.01036,3.62024-.06194,3.62688-3.70675,3.70963-1.11191.02526-2.225.00425-3.33747.00425q-396.46578,0-792.93151.05363a31.78794,31.78794,0,0,1-12.899-2.59841,121.81048,121.81048,0,0,1-48.54366-37.39507C220.22188,392.693,219.176,391.85589,219.03711,389.9794Z"/><path class="cls-2" d="M2319.817,494.43551c1.4366-19.5625,10.6669-33.9186,28.10979-42.89136a84.24319,84.24319,0,0,1,31.9695-8.70593c17.00492-1.39462,33.97585-1.10462,50.59775,3.51383a64.19112,64.19112,0,0,1,10.2485,3.82c15.49172,7.31888,23.32036,19.62577,23.48218,36.66314.16787,17.63452.03865,35.27189.04749,52.908.00606,11.59846-.0284,23.19739.057,34.79533.074,10.04054.92319,19.98076,4.56078,29.48276.095.248-.07939.59925-.13457.94225-1.32251.67351-2.7633.34412-4.14867.34784q-17.16336.04628-34.3265.01531c-4.90794-.00285-4.95218-.00285-6.14337-4.99214-.73506-3.07969-1.31063-6.19744-1.98-9.40556-.38861.12145-.92553.12989-1.21145.402-9.38723,8.93586-20.687,13.98037-33.28037,16.39238-12.63063,2.419-25.29526,2.76729-37.80064-.47058-26.49507-6.86023-36.90375-27.03171-34.814-51.13178,1.59539-18.39829,11.60639-30.38067,28.7885-36.62438,1.787-.6493,3.59033-1.26164,5.41017-1.81182,10.54187-3.18666,21.45534-4.26137,32.3127-5.65529,7.86915-1.01017,15.79115-1.68472,23.49755-3.73236a30.46806,30.46806,0,0,0,8.7949-3.55364,13.58131,13.58131,0,0,0,6.67773-11.89672c.18929-12.248-5.99366-19.36661-18.12044-20.91551a65.39474,65.39474,0,0,0-18.038-.01507c-10.8697,1.61535-17.78283,7.90573-20.21945,18.65284a16.07907,16.07907,0,0,0-.526,2.32023c-.13667,1.88305-1.252,2.36277-2.90206,2.24789-.63239-.044-1.27082-.00169-1.90646-.00169q-17.40156.00062-34.80312-.01269C2322.77261,495.12043,2321.475,495.396,2319.817,494.43551Zm100.76081,33.50663c-7.353,4.48921-15.01418,5.57661-22.63187,6.79681-4.6907.75143-9.42612,1.25168-14.09121,2.13155-6.24838,1.17859-12.38011,2.80617-17.62194,6.68338-7.119,5.26554-8.5921,12.68755-7.40906,20.796,1.12553,7.71543,6.04418,12.36735,13.42461,14.38938a49.28867,49.28867,0,0,0,24.4531.33067c12.88629-2.97133,20.1312-11.30864,22.79391-23.93852C2421.3401,546.38152,2420.28442,537.52632,2420.5778,527.94214Z"/><path class="cls-5" d="M1776.572,556.02057a6.279,6.279,0,0,1,.06717,1.79419c-7.01464,20.36347-18.82861,36.59761-39.23828,45.37955a74.51173,74.51173,0,0,1-22.04663,5.64923c-16.67127,1.68909-33.01843.46109-48.53693-6.41666-16.30967-7.22839-28.76673-18.77424-36.1007-35.05262-12.19442-27.06709-12.7112-54.57083.11024-81.5057,11.52444-24.21013,31.29056-38.19807,57.73149-42.55249a83.0578,83.0578,0,0,1,39.09987,2.41532c21.16953,6.72615,35.46681,21.02673,44.30863,41.0693,6.32486,14.33712,8.58418,29.47933,8.36881,45.04712-.0645,4.65443-.15088,4.68544-4.8892,4.68673q-51.707.0144-103.414.00535c-6.71149.00006-6.68424-.0021-6.004,6.44506a49.9427,49.9427,0,0,0,2.0642,9.75993c3.85029,12.24653,11.92852,19.94491,24.55986,22.69917,10.05372,2.19225,19.90279,1.69543,29.34172-2.63216,6.94094-3.18229,12.78943-7.67021,16.14145-14.81683.47207-1.00662.86475-1.99544,2.30961-1.99177Q1758.48759,556.049,1776.572,556.02057Zm-76.00642-47.14679q9.99564,0,19.99139-.00035c4.28383-.00087,8.56859-.05889,12.85113.01391,2.16957.03678,2.81545-.90443,2.39716-2.92093a70.1566,70.1566,0,0,0-3.02826-10.48877c-4.49966-11.95271-12.97092-18.91706-25.75465-20.25062-22.6442-2.36225-37.91985,9.7136-41.12192,29.5647-.64449,3.99663-.66033,4.05663,3.25015,4.06978C1679.62213,508.89689,1690.09392,508.87355,1700.56558,508.87378Z"/><path class="cls-2" d="M1459.70022,442.22925a84.66146,84.66146,0,0,1,30.073,5.04324c23.78172,8.64377,39.22024,25.38143,46.39659,49.44374a98.77889,98.77889,0,0,1-.57127,60.04111c-8.641,26.38916-26.71568,43.00711-53.6146,49.82143a95.25986,95.25986,0,0,1-51.73376-1.0157c-23.60582-7.12933-40.10676-22.22947-48.48838-45.43873-8.275-22.91385-8.31154-46.21757.22492-69.02894,10.25722-27.40993,30.83734-42.64793,59.35365-47.68767A103.24252,103.24252,0,0,1,1459.70022,442.22925Zm36.82016,83.22768a71.42177,71.42177,0,0,0-1.105-14.80327,77.24758,77.24758,0,0,0-1.93347-8.33779c-2.35665-7.72538-5.97573-14.72564-12.43692-19.88351-18.45933-14.73577-46.76167-7.74884-56.156,13.83739a52.27057,52.27057,0,0,0-2.91673,8.55037,90.25854,90.25854,0,0,0-.59233,39.6766,46.6836,46.6836,0,0,0,10.357,21.66985c12.78617,14.80456,48.18081,16.72532,59.675-10.99421C1495.31022,545.77081,1496.70758,535.93977,1496.52038,525.45693Z"/><path class="cls-2" d="M1928.88984,502.37611c-6.03661-.00093-12.07428-.066-18.10926.03416-2.11915.03521-3.37239-.56-3.41582-2.839a4.06281,4.06281,0,0,0-.18277-.93341c-3.9333-14.96116-13.98667-23.07064-29.48655-23.636-13.99656-.51049-24.51678,5.32514-31.43351,17.54741a58.87445,58.87445,0,0,0-7.045,22.5776c-1.54812,13.5709-.89769,26.97025,4.47988,39.77483a38.30709,38.30709,0,0,0,11.09974,15.24469c13.38374,10.90092,42.157,9.62206,51.45471-13.88423a49.47426,49.47426,0,0,0,2.681-9.11942c.32923-1.76445.89793-2.77061,3.01022-2.7556,12.23144.08724,24.464.013,36.696.06292,2.68541.01094,2.92919.36355,2.46166,3.16314-6.01659,36.03374-29.53928,56.40978-61.49214,60.84474-13.528,1.8777-26.94572,1.48511-40.07975-2.47427-25.27385-7.61918-42.34071-24.0768-50.2662-49.13914-7.82479-24.74309-6.05815-49.32025,5.09887-72.80158,9.60761-20.21995,25.6139-33.30417,47.37251-38.81984,21.26268-5.39,42.25712-4.31374,62.399,4.76628,20.31444,9.15788,32.44681,24.86594,35.95879,47.01649.02491.15684.05309.31327.075.47046.65369,4.69219.51515,4.87778-4.11944,4.89547C1940.32789,502.39362,1934.60875,502.377,1928.88984,502.37611Z"/><path class="cls-2" d="M1333.68605,502.37494c-6.03743.00047-12.076-.06326-18.11182.03545-2.077.03387-3.41954-.44771-3.47309-2.766a2.328,2.328,0,0,0-.12271-.45882c-3.39218-14.11312-12.16578-22.30436-26.69018-23.92047-14.4492-1.60768-25.85233,3.46122-33.58865,15.999a56.76855,56.76855,0,0,0-7.53829,21.91439c-1.81192,12.39989-1.413,24.69891,2.404,36.73565a57.40073,57.40073,0,0,0,2.998,7.50459c9.40679,19.54994,28.64053,22.67444,44.22667,16.51686,10.23662-4.04406,15.79243-12.29321,18.82709-22.56421.65974-2.2327.09884-5.26316,2.18889-6.54575,1.95256-1.19826,4.658-.37385,7.02826-.38322q15.49062-.06111,30.98158-.00128c3.34608.01339,3.31954.08922,2.79624,3.50068a78.62649,78.62649,0,0,1-8.03551,24.79325,63.82284,63.82284,0,0,1-36.58326,31.626c-19.96135,6.94712-40.25472,7.2807-60.29419.46394-23.35342-7.9442-39.14969-24.03065-46.57971-47.43644-8.00571-25.21982-6.38191-50.29177,5.32623-74.13055,11.24084-22.88732,30.2478-35.834,55.26949-39.83466,17.06976-2.72929,33.92881-1.56676,50.13185,4.83507,20.39419,8.05768,34.04186,22.25758,39.00731,44.04161.52819,2.31674.81923,4.68713,1.23519,7.03.40164,2.2629-.46113,3.1288-2.8151,3.08411C1346.08024,502.29649,1339.88239,502.37442,1333.68605,502.37494Z"/><path class="cls-2" d="M2302.81207,544.9336c-2.89438,26.91543-18.80544,54.38984-54.76272,62.317-16.89432,3.72451-33.81612,3.37108-50.27737-2.34147-23.65448-8.20882-39.5986-24.43732-46.96086-48.28115-7.54551-24.43662-6.00577-48.74609,4.85369-71.97246,10.20751-21.832,27.60663-35.322,51.184-40.28888,20.91447-4.40593,41.44126-2.93909,60.88164,6.56774,19.91421,9.73868,31.26844,25.81139,34.19658,47.80051.44216,3.32045.26427,3.612-3.03105,3.62377-12.07556.04341-24.15158-.03556-36.22621.06308-2.33418.01909-3.61966-.66984-3.79219-3.05914a5.1749,5.1749,0,0,0-.2517-.91689c-3.9603-14.87165-13.74569-22.80177-29.09887-23.4421-14.2088-.59267-24.8431,5.3192-31.76764,17.775a60.369,60.369,0,0,0-6.545,19.78656,80.8066,80.8066,0,0,0,2.367,37.657,45.10614,45.10614,0,0,0,6.2209,12.80027c7.52572,10.60162,17.99005,14.73617,30.65212,13.43036,18.43989-1.90162,26.50578-13.95611,29.76385-27.715,1.01447-4.28476.97163-4.30734,5.52613-4.31054q16.20675-.01152,32.41328.01577C2299.71349,544.448,2301.34008,544.06717,2302.81207,544.9336Z"/><path class="cls-5" d="M2056.5746,571.84135a2.34411,2.34411,0,0,1,.6531,1.90459c.00606,9.52906-.064,19.059.0617,28.58642.031,2.36021-.71038,3.53793-3.06411,3.7333-15.53829,1.28933-31.091,2.29334-46.42767-1.55268-16.957-4.25229-25.8734-15.36877-25.99657-32.93689-.21-30.015-.06543-60.0325-.09872-90.04892-.00722-6.48056.767-5.83744-5.84138-5.86659-5.87747-.026-11.75611-.07182-17.63195.02491-2.21415.03643-3.11162-.68847-3.083-2.99641q.14442-11.67127-.00116-23.34521c-.02759-2.23451.67569-3.10478,2.99124-3.0595,6.034.11785,12.07183.057,18.10833.03183,6.0819-.02543,5.44789.57178,5.45976-5.25611.02561-12.70535-.00442-25.41083.01513-38.11618.00652-4.215.04424-4.25977,4.06811-4.2678q17.871-.03552,35.74191.00175c3.79871.00908,3.853.06561,3.86134,4.03073.027,12.70533-.01047,25.41083.0191,38.11616.01443,6.25423-.59467,5.45252,5.70936,5.487,7.62467.04167,15.251.08974,22.874-.03375,2.4634-.03992,3.32792.75353,3.28811,3.24619q-.18267,11.432-.0028,22.86846c.03563,2.44465-.75578,3.34193-3.266,3.30573-8.25845-.11931-16.52016-.06949-24.78024-.03015-3.71513.01775-3.80593.07618-3.8078,3.6073q-.022,38.59251.0354,77.185a39.40715,39.40715,0,0,0,.28545,4.7537c.83216,6.76072,4.2751,10.14751,11.073,10.97088a69.152,69.152,0,0,0,13.79575.10533C2052.64573,572.13012,2054.67839,571.98381,2056.5746,571.84135Z"/><path class="cls-5" d="M1601.22508,495.89019v102.432c0,.95285.01106,1.90587-.0021,2.85855-.05669,4.10638-.05926,4.14765-4.23214,4.15544q-17.86991.03327-35.73981-.00494c-3.65785-.0103-3.66285-.078-3.75133-3.67446-.0234-.95232-.00408-1.90564-.00408-2.85848q0-103.38489.01106-206.76976c.00187-6.7139-.85613-6.04581,6.12556-6.06408q16.44042-.043,32.88071-.00268c4.676.00641,4.706.03029,4.70724,4.63778q.01344,50.97781.00489,101.95559Z"/><path class="cls-5" d="M2123.01333,526.36386q0,36.90582-.0007,73.81169c-.00046,5.58.34553,5.16289-5.12983,5.1651q-16.67092.00681-33.34161.00075c-5.56361-.0011-5.24788.39068-5.24648-5.06174q.00558-24.0483.00116-48.09661,0-49.52527.00023-99.05049c0-1.11114-.02724-2.2231.00582-3.33325.09942-3.35787.108-3.43585,3.47135-3.45133,9.36721-.04324,18.73466-.01542,28.1021-.01554,2.54024-.00006,5.08071-.01222,7.62095.00268,4.46672.0263,4.49233.03317,4.51049,4.31229.02515,5.87311.00675,11.74639.00675,17.61956Q2123.01356,497.31542,2123.01333,526.36386Z"/><path class="cls-5" d="M2101.10955,385.95961c6.19575.00024,12.39244.06739,18.58657-.03407,2.35094-.03853,3.3987.58723,3.36471,3.1948-.12806,9.84576-.09872,19.69461-.0156,29.54131.01886,2.22575-.67942,3.09572-2.98728,3.082q-18.82477-.11239-37.65046.00812c-2.61708.01961-3.16564-1.12281-3.14538-3.44391.08522-9.68785.09988-19.37759-.00769-29.065-.02724-2.46772.77837-3.372,3.26878-3.32329C2088.71663,386.04074,2094.91379,385.95941,2101.10955,385.95961Z"/></svg>