<svg viewBox="0 0 161 35" fill="none" xmlns="http://www.w3.org/2000/svg">
<path d="M77.844 8.87111C76.5355 7.43983 74.7856 6.72419 72.5944 6.72419C70.0751 6.72419 68.1787 7.64374 66.9054 9.48283C65.7863 7.6457 64.055 6.72615 61.7114 6.72419C59.321 6.72419 57.5526 7.58002 56.4062 9.29167C56.4062 8.1693 55.4999 7.25945 54.3819 7.25945H51.4788V26.4258H56.4062V15.656C56.4062 14.2502 56.7304 13.1718 57.3788 12.4209C58.04 11.6744 59.0007 11.2662 59.9948 11.3092C61.0113 11.3092 61.8023 11.6298 62.3618 12.2679C62.9213 12.9061 63.2025 13.8178 63.2025 14.9648V26.4347H68.127V15.656C68.127 14.2502 68.4385 13.1718 69.0615 12.4209C69.7177 11.6657 70.6836 11.2557 71.6804 11.3092C72.5716 11.2578 73.4389 11.6096 74.0445 12.2679C74.605 12.9071 74.8852 13.8012 74.8852 14.9501V26.42H79.8126V14.6207C79.8126 12.2189 79.1564 10.3024 77.844 8.87111Z" fill="#2839CC"/>
<path fill-rule="evenodd" clip-rule="evenodd" d="M93.1522 6.72455C95.6703 6.70151 98.0748 7.77348 99.7439 9.66329C101.568 11.6166 102.48 14.0077 102.48 16.8368C102.48 19.6658 101.569 22.0599 99.7468 24.019C98.077 25.9079 95.673 26.9797 93.1551 26.9578C90.4789 26.9578 88.4156 26.0262 86.9651 24.163V34.0725H82.0301V7.2594H84.7043C85.9501 7.2594 86.9605 8.27072 86.9622 9.5193C88.4126 7.65613 90.476 6.72455 93.1522 6.72455ZM92.2256 22.247C93.6502 22.2917 95.0299 21.7439 96.0375 20.7335C97.0596 19.7039 97.6124 18.2972 97.5652 16.8456C97.6178 15.3964 97.0714 13.9898 96.0551 12.9576C95.0475 11.9472 93.6678 11.3994 92.2432 11.4442C90.8252 11.3982 89.4523 11.9466 88.4547 12.9576C87.4486 13.9949 86.9103 15.4 86.9651 16.8456C86.9071 18.2894 87.4411 19.6942 88.4429 20.7335C89.4391 21.743 90.8096 22.2913 92.2256 22.247Z" fill="#2839CC"/>
<path fill-rule="evenodd" clip-rule="evenodd" d="M119.724 9.51357C119.724 8.26786 120.734 7.25802 121.979 7.25802H124.654V26.3907H119.724V24.138C118.244 25.9976 116.167 26.9274 113.492 26.9274C110.945 26.9235 108.76 25.9458 106.938 23.9943C105.115 22.0428 104.204 19.6533 104.204 16.8258C104.199 14.0022 105.11 11.6127 106.938 9.6573C108.766 7.70189 110.951 6.72419 113.492 6.72419C116.169 6.72419 118.246 7.65398 119.724 9.51357ZM114.401 22.2081C115.826 22.2524 117.206 21.7057 118.214 20.6975C119.23 19.6669 119.776 18.2632 119.724 16.817C119.777 15.3706 119.23 13.9667 118.214 12.9365C117.206 11.9283 115.826 11.3817 114.401 11.426C112.984 11.3816 111.613 11.9288 110.615 12.9365C109.611 13.973 109.073 15.3745 109.125 16.817C109.073 18.2594 109.611 19.6607 110.615 20.6975C111.613 21.7052 112.984 22.2524 114.401 22.2081Z" fill="#2839CC"/>
<path fill-rule="evenodd" clip-rule="evenodd" d="M155.854 7.91865C156.277 7.49565 156.85 7.25802 157.448 7.25802H160.133V26.3907H155.194V24.138C153.715 25.9976 151.639 26.9274 148.966 26.9274C146.42 26.9235 144.236 25.9458 142.415 23.9943C140.594 22.0428 139.683 19.6533 139.683 16.8258C139.677 14.0022 140.588 11.6127 142.415 9.6573C144.242 7.70189 146.425 6.72419 148.966 6.72419C151.639 6.72419 153.715 7.65398 155.194 9.51357C155.194 8.91536 155.432 8.34165 155.854 7.91865ZM149.874 22.2081C151.298 22.2524 152.677 21.7057 153.685 20.6975C154.7 19.6669 155.246 18.2632 155.194 16.817C155.247 15.3706 154.7 13.9667 153.685 12.9365C152.677 11.9283 151.298 11.3816 149.874 11.426C148.458 11.3794 147.086 11.927 146.09 12.9365C145.084 13.9713 144.544 15.3737 144.598 16.817C144.545 18.2607 145.085 19.6631 146.093 20.6975C147.088 21.7062 148.459 22.2538 149.874 22.2081Z" fill="#2839CC"/>
<path d="M39.1575 6.83134C34.4018 6.80489 30.9874 9.56157 29.5378 13.1C32.0726 13.3714 34.635 13.0131 36.9993 12.0567L37.0547 12.0295C38.3635 11.4658 39.8253 11.493 41.1341 12.0567L41.1927 12.0831C42.7184 12.7679 43.9278 14.2403 44.0684 16.4915C44.0684 16.6531 44.0859 16.8147 44.0859 16.9823C44.0859 17.1498 44.0859 17.2967 44.0684 17.4495C44.0684 17.4936 44.0684 17.5377 44.0684 17.5847C44.0669 17.5935 44.0669 17.6024 44.0684 17.6112C43.8605 19.7419 42.6481 21.1379 41.14 21.7727L40.9174 21.8638C39.4513 22.4068 37.8201 22.2645 36.4693 21.4758L36.3639 21.4112C36.199 21.3052 36.0405 21.1894 35.8895 21.0644C33.829 19.4597 31.3969 18.4051 28.8204 17.9991C29.0566 20.2958 30.0937 22.4348 31.7488 24.0385C38.0359 30.2543 49.4126 26.1545 49.4595 16.9352C49.48 11.1603 44.8356 6.85191 39.1575 6.83134Z" fill="#2839CC"/>
<path d="M24.6621 17.9668C25.1394 17.911 25.646 17.8757 26.1966 17.861C23.9985 24.4353 17.1935 28.2677 10.4569 26.7251C3.72028 25.1826 -0.754977 18.7672 0.105818 11.8867C0.966612 5.00616 6.88325 -0.0997681 13.7907 0.0769205C20.6982 0.253609 26.348 5.6554 26.8584 12.571C26.5333 12.4828 26.2112 12.3829 25.895 12.2771L25.8335 12.2565L25.6988 12.2066H25.6812C24.077 11.6263 22.5988 10.7424 21.3267 9.60272C21.2418 9.52925 21.1569 9.4499 21.0749 9.37055L20.823 9.12368V9.10899L20.7528 9.03552C20.6942 8.97674 20.6356 8.91796 20.58 8.85625L20.4951 8.76514L20.2871 8.53591L20.2227 8.4595C20.1876 8.42129 20.1524 8.38309 20.1202 8.34194L19.9972 8.19206C15.1215 2.22318 5.56335 5.45889 5.0626 12.9648C4.90001 15.2971 5.70562 17.5931 7.28848 19.3085C8.87134 21.024 11.0906 22.0062 13.4201 22.0225H13.795C14.6278 22.0016 15.4517 21.8447 16.2343 21.5581L16.2958 21.5346C16.9742 21.2634 17.6253 20.9278 18.2402 20.5324C19.0652 19.9931 19.9207 19.5024 20.8025 19.063C22.0103 18.4956 23.1582 18.1312 24.4844 17.9904L24.6621 17.9668Z" fill="#2839CC"/>
<path opacity="0.6" d="M34.1266 16.9029C34.1266 18.7897 34.8022 20.1713 35.8594 21.0412C33.7979 19.4469 31.3924 18.3983 28.8204 17.9991C28.6524 16.325 28.8962 14.6554 29.5352 13.0998C32.0699 13.3712 34.6669 13.0015 37.0312 12.0451C35.4206 12.7886 34.1383 14.3872 34.1266 16.9029Z" fill="#4168FF"/>
<path opacity="0.6" d="M16.3075 21.5258C16.9859 21.2546 17.637 20.919 18.2519 20.5236C17.65 20.9411 16.9963 21.278 16.3075 21.5258Z" fill="white"/>
<path opacity="0.6" d="M25.6812 12.1948C24.077 11.6146 22.5988 10.7306 21.3267 9.59097C22.6043 10.723 24.081 11.6061 25.6812 12.1948Z" fill="white"/>
<path d="M132.182 9.09909L131.782 9.46583C131.776 8.35914 130.875 7.46491 129.765 7.46333H126.871V26.4347H131.782V17.3652C131.716 15.8609 132.365 14.4136 133.534 13.4592C135.703 11.5993 138.079 12.7839 138.438 12.9207L140.669 9.29701C139.556 8.2492 138.135 7.88246 136.873 7.77477C135.16 7.61468 133.466 7.96105 132.182 9.09909Z" fill="#2839CC"/>
</svg>
