<svg id="Layer_1" data-name="Layer 1" xmlns="http://www.w3.org/2000/svg" xmlns:xlink="http://www.w3.org/1999/xlink" viewBox="0 0 612 175.25546"><defs><style>.cls-1{fill:url(#linear-gradient);}.cls-2{fill:url(#linear-gradient-2);}.cls-3{fill:url(#linear-gradient-3);}.cls-4{fill:url(#linear-gradient-4);}.cls-5{fill:url(#linear-gradient-5);}.cls-6{fill:url(#linear-gradient-6);}.cls-7{fill:url(#linear-gradient-7);}.cls-8{fill:url(#linear-gradient-8);}.cls-9{fill:url(#linear-gradient-9);}.cls-10{fill:url(#linear-gradient-10);}.cls-11{fill:url(#linear-gradient-11);}.cls-12{fill:url(#linear-gradient-12);}.cls-13{fill:url(#linear-gradient-13);}.cls-14{fill:url(#linear-gradient-14);}</style><linearGradient id="linear-gradient" x1="11.02347" y1="172.32046" x2="66.72654" y2="19.13703" gradientUnits="userSpaceOnUse"><stop offset="0" stop-color="#6c2986"/><stop offset="1" stop-color="#783dc0"/></linearGradient><linearGradient id="linear-gradient-2" x1="21.98665" y1="176.30706" x2="77.68971" y2="23.12364" xlink:href="#linear-gradient"/><linearGradient id="linear-gradient-3" x1="53.37933" y1="187.72259" x2="109.0824" y2="34.53916" xlink:href="#linear-gradient"/><linearGradient id="linear-gradient-4" x1="77.18503" y1="196.37921" x2="132.8881" y2="43.19578" xlink:href="#linear-gradient"/><linearGradient id="linear-gradient-5" x1="65.80332" y1="192.2404" x2="121.50638" y2="39.05697" xlink:href="#linear-gradient"/><linearGradient id="linear-gradient-6" x1="34.5729" y1="180.88388" x2="90.27596" y2="27.70045" xlink:href="#linear-gradient"/><linearGradient id="linear-gradient-7" x1="208.25573" y1="87.87399" x2="280.88221" y2="87.87399" gradientUnits="userSpaceOnUse"><stop offset="0" stop-color="#71319d"/><stop offset="1" stop-color="#7538b2"/></linearGradient><linearGradient id="linear-gradient-8" x1="281.29845" y1="99.80947" x2="340.88671" y2="99.80947" xlink:href="#linear-gradient-7"/><linearGradient id="linear-gradient-9" x1="348.64855" y1="99.38274" x2="401.28351" y2="99.38274" xlink:href="#linear-gradient-7"/><linearGradient id="linear-gradient-10" x1="408.58418" y1="87.16055" x2="464.06994" y2="87.16055" xlink:href="#linear-gradient-7"/><linearGradient id="linear-gradient-11" x1="474.449" y1="100.29533" x2="527.08695" y2="100.29533" xlink:href="#linear-gradient-7"/><linearGradient id="linear-gradient-12" x1="538.55003" y1="99.83866" x2="553.86708" y2="99.83866" xlink:href="#linear-gradient-7"/><linearGradient id="linear-gradient-13" x1="536.49877" y1="53.20363" x2="555.91834" y2="53.20363" xlink:href="#linear-gradient-7"/><linearGradient id="linear-gradient-14" x1="560.02684" y1="91.15077" x2="602.16894" y2="91.15077" xlink:href="#linear-gradient-7"/></defs><title>conduit</title><polygon class="cls-1" points="82.369 59.775 68.143 45.699 21.756 59.152 9.677 106.731 22.561 120.957 34.016 73.464 82.369 59.775"/><polygon class="cls-2" points="104.915 74.723 109.534 56.421 74.224 22.753 26.823 36.537 22.305 54.776 68.478 40.701 104.915 74.723"/><polygon class="cls-3" points="102.767 104.408 120.978 99.174 132.963 50.537 97.675 16.555 78.494 21.31 113.701 54.348 102.767 104.408"/><polygon class="cls-4" points="135.195 55.232 124.012 102.994 76.465 116.418 90.692 130.493 135.736 117.306 148.885 70.531 135.195 55.232"/><polygon class="cls-5" points="53.336 100.321 48.386 118.535 83.08 152.839 130.723 139.917 135.571 121.762 89.15 134.997 53.336 100.321"/><polygon class="cls-6" points="56.312 71.587 37.543 76.742 25.891 123.985 61.03 159.193 79.158 154.248 44.364 120.791 56.312 71.587"/><path class="cls-7" d="M268.35007,110.50146a25.77694,25.77694,0,0,1-3.78509,2.9047,21.65729,21.65729,0,0,1-4.02166,1.942,22.71082,22.71082,0,0,1-4.67148,1.11846,44.02968,44.02968,0,0,1-5.9142.35635,25.06423,25.06423,0,0,1-9.82807-1.93,22.663,22.663,0,0,1-7.90258-5.58032,26.62438,26.62438,0,0,1-5.32728-9.05547,36.43237,36.43237,0,0,1-1.96142-12.3839,37.47734,37.47734,0,0,1,1.88057-12.315,26.46673,26.46673,0,0,1,5.19252-9.05248,21.82716,21.82716,0,0,1,7.88462-5.5923,26.2,26.2,0,0,1,10.17543-1.933,25.7651,25.7651,0,0,1,13.34365,3.19068,39.67671,39.67671,0,0,1,3.5605,2.2429c2.42857,1.76977,4.70741,1.617,6.10586.59741a6.48676,6.48676,0,0,0,1.43139-1.43737l5.1506-7.2917-.95526-.91333a40.51109,40.51109,0,0,0-12.28658-7.96547,41.73386,41.73386,0,0,0-16.29327-2.999,44.15871,44.15871,0,0,0-16.967,3.19368,38.78746,38.78746,0,0,0-13.28376,8.9881,40.61725,40.61725,0,0,0-8.58832,13.79133,49.07542,49.07542,0,0,0-3.03347,17.49558,51.45877,51.45877,0,0,0,2.85379,17.44017,40.12256,40.12256,0,0,0,8.208,13.77037,37.43432,37.43432,0,0,0,12.91543,9.02853,42.68845,42.68845,0,0,0,16.87121,3.2311,44.03553,44.03553,0,0,0,18.063-3.41077,35.48935,35.48935,0,0,0,12.85854-9.73673l.85644-1.03162-6.21666-6.75118C273.01856,108.65832,270.45823,108.60741,268.35007,110.50146Z"/><path class="cls-8" d="M332.80147,76.90426a26.617,26.617,0,0,0-9.42381-6.34841,34.9294,34.9294,0,0,0-24.51027,0,26.87565,26.87565,0,0,0-9.45076,6.34392,28.01183,28.01183,0,0,0-6.034,9.94036A38.114,38.114,0,0,0,281.29845,99.781a38.11049,38.11049,0,0,0,2.08419,12.94238,28.28,28.28,0,0,0,6.028,9.96432,26.66916,26.66916,0,0,0,9.45675,6.37686,34.95151,34.95151,0,0,0,24.51027,0,26.41226,26.41226,0,0,0,9.4268-6.37986,28.474,28.474,0,0,0,5.99806-9.96132A38.11049,38.11049,0,0,0,340.88671,99.781a38.114,38.114,0,0,0-2.08419-12.94089A28.17583,28.17583,0,0,0,332.80147,76.90426Zm-7.63008,22.93365c0,6.17174-1.19482,10.93755-3.55152,14.16865-2.27585,3.1218-5.7016,4.64-10.4689,4.64-4.84516,0-8.31882-1.51972-10.61862-4.646-2.37167-3.22661-3.57548-7.99242-3.57548-14.16266,0-6.17173,1.20381-10.957,3.58147-14.22554,2.2998-3.15923,5.77047-4.69543,10.61263-4.69543,4.76431,0,8.18706,1.5347,10.46591,4.69094C323.97657,88.87791,325.17139,93.66618,325.17139,99.83791Z"/><path class="cls-9" d="M395.93227,74.96979a18.4068,18.4068,0,0,0-6.64487-4.908,22.28,22.28,0,0,0-9.02254-1.72635,25.20274,25.20274,0,0,0-5.95014.67077,24.65524,24.65524,0,0,0-5.16258,1.88357,27.54423,27.54423,0,0,0-4.55769,2.86726c-.64382.50009-1.28465,1.03162-1.9135,1.5916l-.43122-2.66514a4.52725,4.52725,0,0,0-4.66249-3.43623h-8.93869v61.18286h15.31406V87.183a24.332,24.332,0,0,1,5.77346-4.39748,14.40334,14.40334,0,0,1,6.88144-1.6979c3.2371,0,5.54289.88189,7.05513,2.69658,1.56015,1.87008,2.35071,4.60709,2.35071,8.13465v38.51123h15.26016V91.91886a32.10046,32.10046,0,0,0-1.32359-9.4253A20.98935,20.98935,0,0,0,395.93227,74.96979Z"/><path class="cls-10" d="M448.75289,72.46486a22.42552,22.42552,0,0,0-4.27321-2.54086,22.66641,22.66641,0,0,0-9.34894-1.75929A24.25225,24.25225,0,0,0,415.6423,77.4313a30.9877,30.9877,0,0,0-5.24942,10.09608,41.55832,41.55832,0,0,0-1.8087,12.48272,48.73245,48.73245,0,0,0,1.623,13.1505,29.33479,29.33479,0,0,0,4.67148,9.82507,20.6892,20.6892,0,0,0,7.38153,6.17474,21.38974,21.38974,0,0,0,9.56455,2.12312,23.19491,23.19491,0,0,0,11.54992-2.81785,31.51462,31.51462,0,0,0,6.552-4.932l.59891,3.45869a4.48188,4.48188,0,0,0,4.6026,3.43773h8.94169V43.03756h-15.317Zm-4.71041,9.41183a12.62178,12.62178,0,0,1,4.71041,3.74167v25.98958a21.47587,21.47587,0,0,1-5.54588,4.947,14.03022,14.03022,0,0,1-7.27972,1.8057,12.06979,12.06979,0,0,1-4.908-.95226,8.50036,8.50036,0,0,1-3.53056-2.96459,16.24526,16.24526,0,0,1-2.37766-5.64919,38.34965,38.34965,0,0,1-.86842-8.78447c0-6.49814,1.25471-11.42715,3.7282-14.65077a11.79857,11.79857,0,0,1,10.00774-4.67A15.39191,15.39191,0,0,1,444.04248,81.87669Z"/><path class="cls-11" d="M511.7699,112.55122a23.815,23.815,0,0,1-5.76448,4.36453,14.472,14.472,0,0,1-6.83353,1.67395c-3.2371,0-5.54289-.88189-7.05513-2.69658-1.56015-1.87009-2.35071-4.6071-2.35071-8.13466V69.24723H474.449v38.51123a32.06844,32.06844,0,0,0,1.32358,9.4238,20.98021,20.98021,0,0,0,4.03065,7.52527,18.303,18.303,0,0,0,6.67482,4.908,22.428,22.428,0,0,0,9.04949,1.72784,25.18974,25.18974,0,0,0,5.9172-.67077,24.607,24.607,0,0,0,5.19252-1.88656,26.574,26.574,0,0,0,4.56667-2.9017q.95676-.75464,1.87757-1.5901l.46116,2.69807a4.48188,4.48188,0,0,0,4.6026,3.43773H527.087V69.24723h-15.317Z"/><rect class="cls-12" x="538.55003" y="69.24723" width="15.31705" height="61.18286"/><path class="cls-13" d="M553.00166,46.351a10.28184,10.28184,0,0,0-3.10833-2.07671,9.50922,9.50922,0,0,0-7.5612.009,9.81126,9.81126,0,0,0-3.00651,2.09617,10.251,10.251,0,0,0-2.03928,3.04095,9.32033,9.32033,0,0,0-.78757,3.81055,9.19423,9.19423,0,0,0,.78457,3.75065,10.27786,10.27786,0,0,0,2.04527,3.04695,9.72581,9.72581,0,0,0,3.00052,2.09168,9.0048,9.0048,0,0,0,3.73719.792,9.58226,9.58226,0,0,0,3.827-.78157,10.28745,10.28745,0,0,0,3.10833-2.07521,9.83064,9.83064,0,0,0,2.13211-3.0739,9.25633,9.25633,0,0,0,.78457-3.75065,9.3941,9.3941,0,0,0-.78757-3.81205A9.7982,9.7982,0,0,0,553.00166,46.351Z"/><path class="cls-14" d="M597.86879,117.868a3.253,3.253,0,0,0-4.89307-1.26219c-.33539.22908-.73366.47313-1.18584.73665a9.611,9.611,0,0,1-1.52122.68276,5.77369,5.77369,0,0,1-1.92848.27849,3.83254,3.83254,0,0,1-2.97957-1.16338,5.36,5.36,0,0,1-1.12894-3.74167V81.94257h16.12558V70.04528H584.23167V50.95811h-7.80076a4.16258,4.16258,0,0,0-2.83583.97921,4.87883,4.87883,0,0,0-1.47031,2.478l-2.50044,15.69436-9.59749,1.39545v6.284a3.95833,3.95833,0,0,0,1.25771,3.11282,4.12967,4.12967,0,0,0,2.78192,1.0406h4.84815v32.311c0,5.32279,1.45834,9.54209,4.3301,12.54111,2.88973,3.0185,7.00722,4.5487,12.24466,4.5487a25.90629,25.90629,0,0,0,8.47753-1.42539,21.42852,21.42852,0,0,0,7.2348-4.14444l.96723-.84746Z"/></svg>