<?xml version="1.0" encoding="utf-8"?>
<!-- Generator: Adobe Illustrator 23.0.2, SVG Export Plug-In . SVG Version: 6.00 Build 0)  -->
<svg version="1.1" id="Layer_1" xmlns="http://www.w3.org/2000/svg" xmlns:xlink="http://www.w3.org/1999/xlink" x="0px" y="0px"
	 viewBox="0 0 500 300" style="enable-background:new 0 0 500 300;" xml:space="preserve">
<style type="text/css">
	.st0{fill:#333333;}
	.st1{fill:#39C6F3;}
</style>
<g>
	<g>
		<g>
			<path class="st0" d="M33.4,253.2c-1.3-6.1-4.6-8.8-10.1-8.8c-6.7,0-10.3,4.4-10.3,15.2v6.4c0,10.7,3.6,15.2,10.3,15.2
				c5.7,0,8.8-2.8,10.1-8.8h8c-1.7,11.2-8.2,16.2-18.1,16.2c-11.2,0-18.7-6.7-18.7-22.5v-6.4c0-15.7,7.5-22.5,18.7-22.5
				c9.9,0,16.5,5.3,18.2,16.2H33.4z"/>
			<path class="st0" d="M65.9,288.4c-11.2,0-18.7-6.7-18.7-22.5v-6.4c0-15.7,7.5-22.5,18.7-22.5c11.2,0,18.8,6.7,18.8,22.5v6.4
				C84.7,281.6,77.1,288.4,65.9,288.4z M55.6,265.9c0,10.8,3.6,15.2,10.3,15.2c6.7,0,10.4-4.4,10.4-15.2v-6.4
				c0-10.8-3.7-15.2-10.4-15.2c-6.7,0-10.3,4.4-10.3,15.2V265.9z"/>
			<path class="st0" d="M127.8,237.7v50h-7.5l-20.4-34v34h-8.1v-50h7.3l20.6,34.4v-34.4H127.8z"/>
			<path class="st0" d="M167.7,237.7v7.3h-22.3v14.4h20.1v7.3h-20.1v21.1H137v-50H167.7z"/>
			<path class="st0" d="M182.4,287.7H174v-50h8.4V287.7z"/>
			<path class="st0" d="M227.4,262.1v3.8c0,15.7-7.2,22.5-18.4,22.5c-11.2,0-18.7-6.7-18.7-22.5v-6c0-16.1,7.5-22.8,18.7-22.8
				c10.2,0,16.6,5.7,18.2,16.2h-8.1c-1.2-5.8-4.4-8.8-10.1-8.8c-6.7,0-10.3,4.4-10.3,15.2v6.4c0,10.8,3.6,15.2,10.3,15.2
				c6.4,0,9.6-3.8,10.2-11.7h-9.9v-7.3H227.4z"/>
			<path class="st0" d="M272,237.7v29.7c0,14.8-7.6,21-18.7,21c-11.1,0-18.7-6.2-18.7-20.9v-29.8h8.4v29.8c0,9.6,3.4,13.6,10.3,13.6
				c6.9,0,10.3-4,10.3-13.6v-29.8H272z"/>
			<path class="st0" d="M309,287.7l-9.6-20.3h-9.7v20.3h-8.4v-50h17c11.5,0,18.4,5,18.4,14.9c0,6.9-3.3,11.3-9.1,13.4l10.7,21.7H309
				z M297.7,260.2c7.1,0,10.6-1.9,10.6-7.5c0-5.7-3.5-7.6-10.6-7.6h-8.1v15.2H297.7z"/>
			<path class="st0" d="M354.4,237.7v7.3h-22.3v13.2h20.1v7.3h-20.1v15h22.3v7.3h-30.7v-50H354.4z"/>
			<path class="st0" d="M393.6,288.4c-11.2,0-18.7-6.7-18.7-22.5v-6.4c0-15.7,7.5-22.5,18.7-22.5c11.2,0,18.8,6.7,18.8,22.5v6.4
				C412.4,281.6,404.8,288.4,393.6,288.4z M383.3,265.9c0,10.8,3.6,15.2,10.3,15.2c6.7,0,10.4-4.4,10.4-15.2v-6.4
				c0-10.8-3.7-15.2-10.4-15.2c-6.7,0-10.3,4.4-10.3,15.2V265.9z"/>
			<path class="st0" d="M455.5,237.7v50H448l-20.4-34v34h-8.1v-50h7.3l20.6,34.4v-34.4H455.5z"/>
			<path class="st0" d="M495.4,237.7v7.3h-22.3v13.2h20.1v7.3h-20.1v15h22.3v7.3h-30.7v-50H495.4z"/>
		</g>
	</g>
	<path class="st1" d="M328.4,139.8c-7.9,0-15.1,3.1-20.4,8.1l-20.3-15.2c3.9-6.6,6.2-14.3,6.2-22.5c0-5.5-1-10.7-2.8-15.6l27-13.3
		c2.7,2.6,6.3,4.2,10.3,4.2c8.2,0,14.8-6.6,14.8-14.8c0-8.2-6.6-14.8-14.8-14.8c-8.2,0-14.8,6.6-14.8,14.8c0,0.6,0,1.2,0.1,1.7
		l-27.1,13.4c-7.9-12-21.6-20-37.1-20c-8.2,0-15.9,2.2-22.5,6.2l-21.3-28.4c2.7-3.4,4.3-7.6,4.3-12.3c0-10.9-8.8-19.7-19.7-19.7
		c-10.9,0-19.7,8.8-19.7,19.7c0,10.9,8.8,19.7,19.7,19.7c2.7,0,5.2-0.5,7.5-1.5l21.3,28.4c-8.6,8.1-14,19.6-14,32.3
		c0,7.3,1.8,14.2,5,20.3l-15.4,10.3c-1.3-0.7-2.8-1-4.4-1c-5.4,0-9.9,4.4-9.9,9.9c0,5.4,4.4,9.9,9.9,9.9c5.4,0,9.9-4.4,9.9-9.9
		c0-0.2,0-0.4,0-0.6l15.4-10.3c8.1,9.7,20.3,15.8,33.9,15.8c12.7,0,24.2-5.4,32.3-14l20.3,15.2c-2.1,4.1-3.3,8.7-3.3,13.6
		c0,16.3,13.2,29.6,29.6,29.6s29.6-13.2,29.6-29.6S344.7,139.8,328.4,139.8z M249.5,144.7c-19,0-34.5-15.5-34.5-34.5
		s15.5-34.5,34.5-34.5c19,0,34.5,15.5,34.5,34.5S268.5,144.7,249.5,144.7z"/>
</g>
</svg>
