<?xml version="1.0" encoding="utf-8"?>
<!-- Generator: Adobe Illustrator 23.0.6, SVG Export Plug-In . SVG Version: 6.00 Build 0)  -->
<svg version="1.1" id="Layer_1" xmlns="http://www.w3.org/2000/svg" xmlns:xlink="http://www.w3.org/1999/xlink" x="0px" y="0px"
	 viewBox="0 0 412 100" style="enable-background:new 0 0 412 100;" xml:space="preserve">
<title>Craft CMS logo</title>
<style type="text/css">
	.st0{fill:#E5422B;}
</style>
<path class="st0" d="M142.6,60.9c-6.8,0-10.5-4.3-9.6-10.5c1.1-6.3,6.2-10.5,12.9-10.5c3.5,0,6.7,1.6,8.5,4.1l6.5-5.4
	c-3.5-4-8.5-6-13.9-6c-11,0-20.6,7.4-22.2,17.8c-1.6,10.5,5.4,17.8,16.5,17.8c5.6,0,11.2-2.3,16.1-6.2l-4.7-5.4
	C149.4,59.6,145.8,60.9,142.6,60.9z"/>
<path class="st0" d="M185.1,40.2c0.2,0,1.4-7.3,1.4-7.3s-1.4-0.2-1.5-0.2c-1.5-0.2-3.2-0.1-4.7,0c-1.4,0.1-2.8,0.4-4.2,0.8
	c-1.2,0.4-2.5,0.8-3.5,1.5l0.2-1.6h-8l-5.4,33.9h8l3.2-19.8c0.1-1.2,0.6-2.2,1.2-3.2s1.4-1.8,2.3-2.3c0.9-0.7,1.9-1.2,2.9-1.5
	c1.1-0.4,2.1-0.6,3.3-0.7c1.5-0.1,3.2,0,4.7,0.4C185,40.2,185.1,40.2,185.1,40.2z"/>
<path class="st0" d="M89.6,0H10.5C4.7,0,0,4.7,0,10.5v78.9C0,95.3,4.7,100,10.5,100h79c5.7,0,10.5-4.7,10.5-10.5v-79
	C100.1,4.7,95.4,0,89.6,0z M49.8,60.9c3.3,0,6.8-1.3,10.2-4.3l4.7,5.4c-4.9,4-10.5,6.2-16.1,6.2c-11.1,0-18.1-7.4-16.5-17.8
	C33.7,40,43.2,32.6,54.4,32.6c5.4,0,10.4,2.1,13.9,6L61.7,44c-1.9-2.5-5-4.1-8.5-4.1c-6.7,0-11.8,4.3-12.9,10.5
	C39.3,56.6,43,60.9,49.8,60.9z"/>
<path class="st0" d="M362.8,32.6c-5,0-10.1,2-13.3,5.4c-2.1-3.4-6.1-5.4-11-5.4h-0.7c-3.9,0.1-6.9,0.8-9.6,2.5l0.2-1.6h-8L315,67.4
	h8l3.2-19.8c0.7-4.7,5.8-7.5,10.3-7.7c4.3,0.1,7,2.9,6.3,7.5l-3.2,20h8l3.2-19.8c0.7-4.8,5.5-7.7,10.3-7.7c4.6,0,7.1,2.8,6.3,7.5
	l-3.2,20h8l3.2-20.6C376.7,38.4,371.5,32.6,362.8,32.6z"/>
<path class="st0" d="M298.4,60.9c-6.8,0-10.5-4.3-9.6-10.5c1.1-6.2,6.2-10.5,12.9-10.5c3.5,0,6.7,1.6,8.5,4.1l6.5-5.4
	c-3.5-3.9-8.5-6-13.9-6c-11.1,0-20.6,7.4-22.2,17.8c-1.6,10.5,5.4,17.8,16.5,17.8c5.6,0,11.2-2.2,16.1-6.2l-4.7-5.4
	C305.1,59.6,301.6,60.9,298.4,60.9z"/>
<path class="st0" d="M394.9,46.7c-5.6-0.9-6.9-1.5-6.7-3c0.4-2.2,3.2-3.6,8-3.6c4.1,0,7.7,1.3,10.5,3l4.9-6.1
	c-3.6-2.5-9-4.2-14.2-4.2c-7.3,0-16,2.5-17.4,11c-0.9,6.8,3.6,8.7,12.6,10.2c4.3,0.7,8.2,1.4,7.8,3.5c-0.5,2.7-4.4,3.5-8.4,3.5
	c-4.3,0-9.5-1.6-12.2-3.7l-4.9,6.1c3.7,3,10.5,4.9,15.8,5c9.5,0,16.7-4,17.8-11.1C409.8,49.4,403,48.1,394.9,46.7z"/>
<path class="st0" d="M260.5,23.9l-9.1,6.5l-0.5,3.2h-10.3l1.1-6.4c0.6-3,3.9-2.9,3.9-2.9h3.9l1.2-7h-4.4H245
	c-10.9,0-11.2,8.4-11.2,8.4l-0.7,4l-0.6,4h-0.7l-8.9,7h8.4L226,74.9h8.2l5.4-34.4h10.3l-4.2,26.9h8.1l4.2-26.9h10l1.2-7H259
	L260.5,23.9z"/>
<path class="st0" d="M214.4,35.6c-2.2-1.9-5.6-2.9-9.6-2.9c-9.9,0-18.9,7.1-20.7,17.7c-1.6,10.5,5.3,17.7,14.9,17.7
	c4.3,0,8-0.6,11-2.7l-0.2,1.9h7.3l5.3-33.7h-7.5L214.4,35.6z M212.7,50.3c-1.1,6.4-5.8,10.9-12,10.9c-6.3,0-9.9-4.7-8.9-11
	s6.1-10.8,12.3-10.8C210.3,39.5,213.7,43.9,212.7,50.3z"/>
</svg>
