<svg id="svg" version="1.1" xmlns="http://www.w3.org/2000/svg" xmlns:xlink="http://www.w3.org/1999/xlink" width="400" height="400" viewBox="0, 0, 400,400"><g id="svgg"><path id="path0" d="M213.600 184.000 L 213.600 308.000 229.596 308.000 L 245.592 308.000 245.696 289.713 L 245.800 271.426 253.260 265.813 C 262.006 259.233,269.315 253.268,276.757 246.639 C 281.561 242.358,282.165 241.937,282.615 242.553 C 282.892 242.931,289.931 254.765,298.259 268.851 C 306.587 282.936,314.548 295.992,315.952 297.864 C 324.333 309.041,338.958 313.991,352.993 310.402 C 356.102 309.607,359.333 308.163,359.074 307.685 C 358.989 307.528,346.913 287.375,332.238 262.899 L 305.558 218.398 308.281 215.299 C 324.239 197.140,337.881 176.570,349.008 153.889 C 353.638 144.452,358.934 132.202,358.694 131.483 C 358.590 131.171,329.964 120.420,329.200 120.406 C 329.090 120.404,328.390 121.977,327.644 123.901 C 314.316 158.302,292.862 190.188,265.772 215.859 C 256.517 224.630,246.307 233.373,245.852 232.918 C 245.713 232.780,245.600 193.817,245.600 146.333 L 245.600 60.000 229.600 60.000 L 213.600 60.000 213.600 184.000 M121.800 129.445 C 107.663 131.485,100.539 133.530,91.000 138.289 C 60.107 153.700,43.401 186.810,45.945 227.586 C 48.481 268.254,67.770 296.527,100.229 307.156 C 123.219 314.683,157.843 311.821,182.900 300.321 L 185.600 299.082 185.600 283.141 C 185.600 274.373,185.506 267.200,185.392 267.200 C 185.278 267.200,184.498 267.633,183.659 268.163 C 174.660 273.844,157.599 279.835,145.000 281.738 C 102.522 288.154,75.337 258.210,80.026 210.169 C 83.353 176.089,102.022 158.182,134.200 158.208 C 150.989 158.222,164.505 161.693,177.343 169.287 L 178.886 170.200 180.282 168.600 C 181.932 166.708,184.062 162.635,184.929 159.713 C 189.411 144.621,178.036 134.281,152.600 130.326 C 147.612 129.550,125.462 128.917,121.800 129.445 " stroke="none" fill="#fbfbfb" fill-rule="evenodd"></path><path id="path1" d="M75.039 0.456 C 36.124 5.449,5.246 36.540,0.419 75.590 C -0.165 80.313,-0.165 319.687,0.419 324.410 C 5.278 363.720,36.280 394.722,75.590 399.581 C 80.313 400.165,319.687 400.165,324.410 399.581 C 363.720 394.722,394.722 363.720,399.581 324.410 C 400.165 319.687,400.165 80.313,399.581 75.590 C 394.722 36.280,363.720 5.278,324.410 0.419 C 320.168 -0.105,79.135 -0.070,75.039 0.456 M246.000 146.220 C 246.000 220.494,246.080 232.794,246.562 232.520 C 250.260 230.415,272.322 209.625,280.012 201.000 C 300.256 178.292,315.724 153.265,327.017 124.948 L 328.952 120.095 330.976 120.805 C 338.624 123.489,358.657 130.918,358.915 131.166 C 359.490 131.721,351.197 150.740,346.516 159.600 C 336.041 179.425,325.431 195.180,310.920 212.458 C 308.214 215.680,306.000 218.410,306.000 218.526 C 306.000 218.642,318.052 238.821,332.782 263.369 L 359.563 308.002 358.077 308.761 C 348.478 313.658,332.267 312.055,323.149 305.308 C 316.945 300.716,316.202 299.634,297.404 267.800 C 289.090 253.720,282.263 242.165,282.233 242.123 C 282.204 242.081,279.934 244.041,277.190 246.479 C 269.034 253.724,262.678 258.918,254.109 265.338 L 246.019 271.400 246.009 289.700 L 246.000 308.000 229.600 308.000 L 213.200 308.000 213.200 183.800 L 213.200 59.600 229.600 59.600 L 246.000 59.600 246.000 146.220 M143.600 129.211 C 165.607 130.879,179.952 136.958,184.634 146.600 C 187.162 151.805,185.979 160.575,181.933 166.624 C 179.131 170.813,179.325 170.742,175.985 168.791 C 158.489 158.573,131.786 155.119,114.600 160.850 C 91.923 168.414,79.846 189.069,79.897 220.200 C 79.982 271.962,115.964 294.726,167.400 275.557 C 172.002 273.842,180.987 269.625,183.900 267.812 L 185.600 266.755 185.600 283.134 L 185.600 299.513 180.700 301.516 C 158.192 310.719,129.834 314.032,109.569 309.826 C 69.582 301.527,45.600 268.076,45.600 220.600 C 45.600 160.796,84.291 124.716,143.600 129.211 " stroke="none" fill="#3cdc94" fill-rule="evenodd"></path><path id="path2" d="M221.500 59.900 C 225.955 59.964,233.245 59.964,237.700 59.900 C 242.155 59.835,238.510 59.782,229.600 59.782 C 220.690 59.782,217.045 59.835,221.500 59.900 M138.100 129.076 C 138.485 129.176,139.115 129.176,139.500 129.076 C 139.885 128.975,139.570 128.893,138.800 128.893 C 138.030 128.893,137.715 128.975,138.100 129.076 M79.693 215.600 C 79.693 216.370,79.775 216.685,79.876 216.300 C 79.976 215.915,79.976 215.285,79.876 214.900 C 79.775 214.515,79.693 214.830,79.693 215.600 " stroke="none" fill="#90ecc4" fill-rule="evenodd"></path><path id="path3" d="M213.397 184.000 C 213.397 252.310,213.444 280.255,213.500 246.100 C 213.556 211.945,213.556 156.055,213.500 121.900 C 213.444 87.745,213.397 115.690,213.397 184.000 M245.698 146.276 C 245.644 193.838,245.735 232.836,245.900 232.938 C 246.171 233.106,246.170 174.161,245.897 91.000 C 245.841 73.840,245.751 98.714,245.698 146.276 M130.117 129.097 C 131.611 129.174,133.951 129.174,135.317 129.096 C 136.682 129.018,135.460 128.955,132.600 128.955 C 129.740 128.956,128.622 129.020,130.117 129.097 M274.975 206.500 L 273.800 207.800 275.100 206.625 C 275.815 205.979,276.400 205.394,276.400 205.325 C 276.400 205.016,276.070 205.288,274.975 206.500 M45.693 214.400 C 45.693 215.170,45.775 215.485,45.876 215.100 C 45.976 214.715,45.976 214.085,45.876 213.700 C 45.775 213.315,45.693 213.630,45.693 214.400 M45.693 226.400 C 45.693 227.170,45.775 227.485,45.876 227.100 C 45.976 226.715,45.976 226.085,45.876 225.700 C 45.775 225.315,45.693 225.630,45.693 226.400 M245.784 289.800 C 245.784 299.920,245.836 304.003,245.900 298.873 C 245.963 293.742,245.963 285.462,245.900 280.473 C 245.836 275.483,245.784 279.680,245.784 289.800 M131.900 282.693 C 132.835 282.777,134.365 282.777,135.300 282.693 C 136.235 282.609,135.470 282.540,133.600 282.540 C 131.730 282.540,130.965 282.609,131.900 282.693 " stroke="none" fill="#a4f0cc" fill-rule="evenodd"></path><path id="path4" d="M270.192 211.300 L 266.600 215.000 270.300 211.408 C 272.335 209.433,274.000 207.768,274.000 207.708 C 274.000 207.418,273.528 207.864,270.192 211.300 " stroke="none" fill="#7ee6b6" fill-rule="evenodd"></path></g></svg>