<svg width="84" height="32" viewBox="0 0 84 32" fill="none" xmlns="http://www.w3.org/2000/svg">
<g clip-path="url(#clip0_906_1416)">
<path d="M22.44 10.0324L12.0234 4V8.17391L22.44 14.1804L22.44 10.0324Z" fill="#FF6492"/>
<path d="M22.44 14.1804L19.315 16L12.0214 11.7838L7.85399 14.1838L4.72842 12.4973L12.0234 8.17392L22.44 14.1804Z" fill="#141446"/>
<path d="M7.85399 14.1838L4.72842 12.4973V16L7.85399 14.1838Z" fill="#A14474"/>
<path d="M1.60287 21.9676L12.0215 16L22.44 21.9676L12.0215 28L1.60287 21.9676Z" fill="#141446"/>
<path d="M22.44 17.8261L12.0215 11.7189V16L22.44 21.9676L22.44 17.8261Z" fill="#FF6492"/>
<path d="M4.72845 16V12.4973L12.0234 8.17391V4L1.60287 10.0324V21.9676L12.0215 16V11.7189L4.72845 16Z" fill="#7A77FF"/>
<path d="M28.903 16.5382C28.903 12.9302 31.7698 10.1228 35.3829 10.1228C37.701 10.1228 39.4945 11.2506 40.5419 12.9789L38.6982 14.4322C37.9001 13.3044 36.8786 12.5525 35.4088 12.5525C33.1652 12.5525 31.5707 14.3069 31.5707 16.5365C31.5707 18.8165 33.1652 20.5448 35.4088 20.5448C36.8544 20.5448 37.8758 19.819 38.6982 18.6912L40.5419 20.1201C39.4703 21.8484 37.675 22.9762 35.3829 22.9762C31.7698 22.978 28.903 20.1706 28.903 16.5382Z" fill="#141446"/>
<path d="M42.8098 17.5407V10.3996H45.4014V17.7409C45.4014 19.4692 46.6219 20.5465 48.1679 20.5465C49.6637 20.5465 50.8599 19.4692 50.8599 17.7409V10.3996H53.4775V17.5407C53.4775 20.8738 51.1594 22.978 48.1696 22.978C45.1279 22.978 42.8098 20.8738 42.8098 17.5407Z" fill="#141446"/>
<path d="M69.3544 16.5625C69.3544 20.2209 66.8373 22.9779 63.3731 22.9779C61.5778 22.9779 60.0076 22.2521 59.0866 20.9989V22.7029H56.6439V3.90918H59.2615V11.9032C60.1842 10.7754 61.654 10.1244 63.3489 10.1244C66.8373 10.1227 69.3544 12.904 69.3544 16.5625ZM66.6624 16.5381C66.6624 14.1571 65.0178 12.5298 62.923 12.5298C61.0793 12.5298 59.2338 13.7829 59.2338 16.5642C59.2338 19.3698 61.1035 20.5725 62.923 20.5725C65.042 20.5725 66.6624 18.9191 66.6624 16.5381Z" fill="#141446"/>
<path d="M82.8874 17.4154H73.7656C74.1153 19.4448 75.6596 20.6475 77.7526 20.6475C79.174 20.6475 80.294 20.0957 81.3172 19.1942L82.5637 20.9991C81.267 22.2261 79.6223 22.978 77.6782 22.978C73.8903 22.978 71.0978 20.1967 71.0978 16.5626C71.0978 12.9546 73.8643 10.1228 77.4289 10.1228C80.694 10.1228 83.0865 12.5281 83.0865 15.7602C83.0865 16.4373 82.9619 17.0899 82.8874 17.4154ZM73.8158 15.3599H80.4706C80.4204 13.4297 79.0008 12.3524 77.3302 12.3524C75.6094 12.3541 74.214 13.5307 73.8158 15.3599Z" fill="#141446"/>
</g>
<defs>
<clipPath id="clip0_906_1416">
<rect width="84" height="32" fill="white"/>
</clipPath>
</defs>
</svg>
