<svg id="Layer_1" data-name="Layer 1" xmlns="http://www.w3.org/2000/svg" xmlns:xlink="http://www.w3.org/1999/xlink" viewBox="0 0 200 200"><defs><style>.cls-1{opacity:0.62;filter:url(#Blur7);}.cls-2{fill:#fff;}.cls-3{fill:#fc6621;}.cls-4{fill:#999;}</style><filter id="Blur7" x="-10" y="-10" width="120" height="120" name="Blur7"><feGaussianBlur stdDeviation="7"/></filter></defs><title>directlyrics-3</title><g class="cls-1"><path class="cls-2" d="M144.514,19.365h38.929V176.828H144.514Z"/><path class="cls-3" d="M52.973,179.12a46.381,46.381,0,0,1-9.741-.984,36.26958,36.26958,0,0,1-8.518-2.952,33.75154,33.75154,0,0,1-7.296-4.917,38.32192,38.32192,0,0,1-6.074-6.888,58.80594,58.80594,0,0,1-8.194-17.436,75.95872,75.95872,0,0,1-2.732-20.828,74.81912,74.81912,0,0,1,3.018-22.231,43.40892,43.40892,0,0,1,9.052-16.317,40.00007,40.00007,0,0,1,13.7-10.018,42.25615,42.25615,0,0,1,16.972-3.34,42.939,42.939,0,0,1,16.458,3.058,37.6,37.6,0,0,1,13.119,9.159V19.367h39.215V176.829H85.604v-14.98c-5.065,6.332-9.752,10.665-13.93,12.881a37.82619,37.82619,0,0,1-8.874,3.292A43.08372,43.08372,0,0,1,52.973,179.12Zm5.906-70.708a18.492,18.492,0,1,0,7.22,1.455A18.492,18.492,0,0,0,58.879,108.412Z"/><path class="cls-4" d="M144.514,19.365h38.929V176.828H144.514Z"/><path class="cls-4" d="M52.973,179.12a46.381,46.381,0,0,1-9.741-.984,36.26958,36.26958,0,0,1-8.518-2.952,33.75154,33.75154,0,0,1-7.296-4.917,38.32192,38.32192,0,0,1-6.074-6.888,58.80594,58.80594,0,0,1-8.194-17.436,75.95872,75.95872,0,0,1-2.732-20.828,74.81912,74.81912,0,0,1,3.018-22.231,43.40892,43.40892,0,0,1,9.052-16.317,40.00007,40.00007,0,0,1,13.7-10.018,42.25615,42.25615,0,0,1,16.972-3.34,42.939,42.939,0,0,1,16.458,3.058,37.6,37.6,0,0,1,13.119,9.159V19.367h39.215V176.829H85.604v-14.98c-5.065,6.332-9.752,10.665-13.93,12.881a37.82619,37.82619,0,0,1-8.874,3.292A43.08372,43.08372,0,0,1,52.973,179.12Zm5.906-70.708a18.492,18.492,0,1,0,7.22,1.455A18.492,18.492,0,0,0,58.879,108.412Z"/></g><path class="cls-2" d="M141.99254,20.5123h38.929v157.463h-38.929Z"/><path class="cls-3" d="M52.973,179.12a46.38029,46.38029,0,0,1-9.741-.984,36.26955,36.26955,0,0,1-8.518-2.952,33.75162,33.75162,0,0,1-7.296-4.917,38.32192,38.32192,0,0,1-6.074-6.888,58.80594,58.80594,0,0,1-8.194-17.436,75.95881,75.95881,0,0,1-2.732-20.828,74.81905,74.81905,0,0,1,3.018-22.231,43.40884,43.40884,0,0,1,9.052-16.317,39.9999,39.9999,0,0,1,13.7-10.018,42.25615,42.25615,0,0,1,16.972-3.34,42.93915,42.93915,0,0,1,16.458,3.058,37.6,37.6,0,0,1,13.119,9.159V19.367h39.215V176.829H85.604v-14.98c-5.065,6.332-9.752,10.665-13.93,12.881a37.82644,37.82644,0,0,1-8.874,3.292A43.08372,43.08372,0,0,1,52.973,179.12Zm5.906-70.708a18.492,18.492,0,1,0,7.22,1.455A18.492,18.492,0,0,0,58.879,108.412Z"/></svg>