<svg id="svg" version="1.1" xmlns="http://www.w3.org/2000/svg" xmlns:xlink="http://www.w3.org/1999/xlink" width="400" height="400" viewBox="0, 0, 400,400"><g id="svgg"><path id="path0" d="M165.867 39.467 C 165.720 39.613,165.600 68.829,165.600 104.390 C 165.600 155.489,165.495 169.189,165.100 169.722 C 164.651 170.328,164.354 170.160,162.200 168.081 C 159.415 165.394,155.666 162.244,154.800 161.864 C 154.470 161.719,153.390 160.974,152.400 160.209 C 151.410 159.444,150.060 158.537,149.400 158.195 C 148.740 157.852,147.480 157.132,146.600 156.594 C 145.720 156.056,144.730 155.500,144.400 155.358 C 144.070 155.217,142.706 154.583,141.368 153.950 C 140.031 153.318,138.764 152.800,138.553 152.800 C 138.342 152.800,137.463 152.440,136.600 152.000 C 135.737 151.560,134.624 151.200,134.128 151.200 C 133.631 151.200,132.544 150.855,131.712 150.434 C 130.881 150.012,129.228 149.542,128.039 149.388 C 126.850 149.234,125.263 148.851,124.511 148.537 C 120.106 146.697,93.161 146.692,88.800 148.532 C 88.030 148.856,86.320 149.251,85.000 149.409 C 83.680 149.567,81.845 150.035,80.922 150.448 C 79.999 150.862,78.919 151.206,78.522 151.213 C 78.125 151.219,76.900 151.668,75.800 152.209 C 74.700 152.750,73.604 153.194,73.364 153.196 C 72.771 153.201,68.065 155.571,67.802 155.997 C 67.686 156.185,67.072 156.453,66.437 156.592 C 65.802 156.731,64.966 157.195,64.579 157.623 C 64.193 158.050,63.671 158.400,63.419 158.400 C 63.168 158.400,62.611 158.672,62.181 159.005 C 61.752 159.337,60.500 160.182,59.400 160.883 C 56.765 162.561,51.935 166.615,48.061 170.399 C 45.944 172.467,39.553 180.387,38.400 182.371 C 37.850 183.318,37.090 184.427,36.710 184.836 C 36.331 185.245,35.910 186.021,35.774 186.560 C 35.639 187.100,35.184 187.852,34.764 188.233 C 34.344 188.613,34.000 189.221,34.000 189.584 C 34.000 189.947,33.550 190.855,33.000 191.600 C 32.450 192.345,32.000 193.200,32.000 193.498 C 32.000 193.797,31.640 194.752,31.200 195.621 C 30.760 196.489,30.055 197.885,29.633 198.722 C 29.211 199.560,28.733 200.953,28.570 201.818 C 28.408 202.684,27.947 204.114,27.546 204.996 C 27.145 205.878,26.810 207.140,26.800 207.800 C 26.790 208.460,26.447 209.738,26.037 210.641 C 25.628 211.543,25.162 213.433,25.002 214.841 C 24.842 216.248,24.465 217.998,24.164 218.729 C 23.863 219.460,23.417 222.055,23.173 224.496 C 22.929 226.937,22.550 229.399,22.331 229.967 C 20.991 233.446,21.042 262.581,22.400 269.600 C 22.804 271.690,23.234 274.761,23.356 276.423 C 23.477 278.086,23.832 280.066,24.144 280.823 C 24.456 281.581,24.842 283.352,25.002 284.759 C 25.162 286.167,25.628 288.057,26.037 288.959 C 26.447 289.862,26.790 291.140,26.800 291.800 C 26.810 292.460,27.145 293.722,27.546 294.604 C 27.947 295.486,28.408 296.926,28.571 297.804 C 28.734 298.682,29.190 299.940,29.585 300.600 C 29.980 301.260,30.419 302.457,30.562 303.260 C 30.705 304.063,31.086 304.940,31.411 305.209 C 31.735 305.478,32.000 305.986,32.000 306.337 C 32.000 306.958,35.317 313.743,37.603 317.800 C 38.223 318.900,38.988 320.340,39.303 321.000 C 39.618 321.660,40.174 322.447,40.538 322.749 C 40.902 323.051,41.200 323.524,41.200 323.800 C 41.200 324.076,41.489 324.542,41.842 324.835 C 42.195 325.127,42.649 325.735,42.852 326.184 C 44.264 329.312,54.778 340.645,58.443 342.989 C 59.116 343.420,61.100 344.794,63.800 346.701 C 64.680 347.322,65.985 348.071,66.700 348.364 C 67.415 348.657,68.000 349.055,68.000 349.249 C 68.000 349.442,68.225 349.601,68.500 349.602 C 68.775 349.602,70.080 350.142,71.400 350.800 C 72.720 351.458,74.070 351.999,74.400 352.001 C 74.730 352.003,75.540 352.363,76.200 352.800 C 76.860 353.237,77.853 353.596,78.406 353.597 C 78.959 353.599,80.039 353.935,80.806 354.344 C 81.573 354.753,83.280 355.218,84.600 355.376 C 85.920 355.535,88.350 355.998,90.000 356.404 C 95.846 357.845,118.497 357.774,122.012 356.304 C 122.789 355.980,124.499 355.581,125.812 355.418 C 127.126 355.255,128.828 354.861,129.597 354.541 C 130.365 354.222,131.802 353.779,132.790 353.557 C 133.778 353.336,134.860 352.920,135.194 352.632 C 135.527 352.345,136.418 351.993,137.174 351.850 C 137.929 351.707,138.829 351.345,139.174 351.046 C 139.518 350.746,140.461 350.289,141.268 350.030 C 142.075 349.771,142.952 349.298,143.217 348.980 C 143.482 348.661,144.008 348.400,144.387 348.400 C 144.766 348.400,145.387 348.056,145.767 347.637 C 146.147 347.217,146.985 346.655,147.629 346.388 C 148.273 346.121,148.800 345.739,148.800 345.539 C 148.800 345.338,149.144 345.045,149.563 344.887 C 151.908 344.005,169.200 326.936,169.200 325.503 C 169.200 324.915,171.118 325.208,171.357 325.833 C 171.491 326.181,171.600 332.133,171.600 339.059 C 171.600 346.975,171.754 351.940,172.014 352.426 C 172.419 353.182,173.238 353.200,207.755 353.200 L 243.082 353.200 243.346 349.450 C 243.828 342.586,243.629 40.317,243.142 39.730 C 242.670 39.161,166.432 38.902,165.867 39.467 M126.867 217.489 C 127.190 217.757,128.432 218.183,129.627 218.434 C 130.822 218.685,132.070 219.117,132.400 219.394 C 132.730 219.672,133.675 220.116,134.500 220.380 C 135.325 220.645,136.000 221.010,136.000 221.192 C 136.000 221.373,136.495 221.722,137.100 221.966 C 139.869 223.084,145.955 228.744,148.266 232.350 C 149.059 233.587,150.044 235.088,150.454 235.684 C 150.864 236.280,151.200 237.021,151.200 237.330 C 151.200 237.639,151.537 238.321,151.948 238.846 C 152.359 239.371,152.886 240.610,153.118 241.600 C 153.350 242.590,153.838 244.210,154.203 245.200 C 155.272 248.100,155.164 259.787,154.039 262.986 C 153.578 264.299,153.200 265.609,153.200 265.898 C 153.200 266.357,151.658 269.669,149.707 273.400 C 147.579 277.470,139.010 285.518,135.677 286.575 C 135.235 286.716,134.654 287.094,134.387 287.415 C 134.120 287.737,133.609 288.002,133.251 288.004 C 132.893 288.006,131.700 288.450,130.600 288.991 C 129.500 289.532,128.111 289.981,127.514 289.987 C 126.917 289.994,125.657 290.252,124.714 290.561 C 119.951 292.119,110.022 291.226,104.974 288.786 C 104.079 288.354,102.965 288.000,102.497 288.000 C 102.030 288.000,101.525 287.802,101.375 287.559 C 101.225 287.317,100.539 286.865,99.851 286.556 C 96.110 284.872,86.800 276.261,86.800 274.483 C 86.800 274.286,86.450 273.807,86.023 273.421 C 85.595 273.034,85.134 272.208,84.997 271.586 C 84.860 270.964,84.502 270.250,84.200 270.000 C 83.898 269.750,83.532 268.972,83.386 268.272 C 83.241 267.573,82.863 266.592,82.547 266.094 C 82.008 265.242,81.288 262.093,80.384 256.631 C 79.983 254.205,80.358 249.610,81.187 246.803 C 81.414 246.034,81.600 244.931,81.600 244.351 C 81.600 242.924,84.395 236.514,86.200 233.802 C 87.455 231.916,90.863 227.948,92.373 226.613 C 93.128 225.946,94.028 225.124,94.373 224.786 C 94.718 224.449,95.810 223.656,96.800 223.024 C 97.790 222.392,99.088 221.543,99.684 221.137 C 100.280 220.732,100.963 220.400,101.202 220.400 C 101.441 220.400,102.482 219.950,103.515 219.400 C 104.548 218.850,105.728 218.400,106.136 218.400 C 106.545 218.400,107.446 218.146,108.140 217.836 C 108.833 217.526,109.670 217.173,110.000 217.052 C 111.245 216.597,126.261 216.985,126.867 217.489 " stroke="none" fill="#fb6424" fill-rule="evenodd"></path><path id="path1" d="M0.000 200.000 L 0.000 400.000 200.000 400.000 L 400.000 400.000 400.000 200.000 L 400.000 0.000 200.000 0.000 L 0.000 0.000 0.000 200.000 M238.258 34.447 C 238.666 34.803,239.801 35.215,240.780 35.364 C 243.959 35.848,246.784 38.760,247.426 42.214 C 247.588 43.086,248.009 44.242,248.360 44.782 C 248.944 45.678,249.000 59.027,249.000 196.382 L 249.000 347.000 248.100 348.594 C 247.605 349.471,247.200 350.447,247.200 350.763 C 247.200 351.079,246.953 351.621,246.652 351.969 C 246.351 352.316,245.932 353.140,245.722 353.800 C 245.434 354.701,244.948 355.130,243.772 355.521 C 242.911 355.808,241.845 356.370,241.403 356.769 C 240.961 357.168,239.707 357.610,238.616 357.751 C 237.525 357.892,236.454 358.186,236.236 358.404 C 235.700 358.940,180.307 358.947,179.772 358.412 C 179.558 358.198,178.067 357.836,176.459 357.608 C 171.877 356.959,167.590 353.227,167.026 349.397 C 166.864 348.299,166.402 347.040,165.998 346.600 C 165.594 346.160,165.205 345.260,165.132 344.600 C 164.956 343.001,161.868 342.617,160.137 343.978 C 159.563 344.430,158.850 344.800,158.555 344.800 C 158.259 344.800,156.557 346.060,154.772 347.600 C 152.987 349.140,151.220 350.400,150.844 350.400 C 150.469 350.400,149.484 351.095,148.654 351.945 C 147.824 352.795,146.459 353.695,145.620 353.947 C 144.781 354.198,143.872 354.673,143.598 355.002 C 143.325 355.331,142.788 355.600,142.405 355.600 C 142.022 355.600,141.279 355.934,140.754 356.342 C 140.229 356.750,139.080 357.212,138.200 357.368 C 137.320 357.524,135.941 357.989,135.135 358.401 C 134.329 358.813,132.979 359.272,132.135 359.420 C 131.291 359.568,130.219 359.928,129.752 360.220 C 129.286 360.511,127.306 360.871,125.352 361.020 C 123.139 361.188,121.423 361.537,120.800 361.945 C 119.303 362.925,90.824 362.935,89.000 361.956 C 88.340 361.602,86.663 361.198,85.272 361.059 C 83.882 360.920,82.357 360.535,81.883 360.203 C 81.410 359.871,80.560 359.600,79.996 359.600 C 79.431 359.600,78.256 359.231,77.385 358.780 C 76.513 358.330,74.931 357.792,73.869 357.585 C 72.807 357.378,71.477 356.847,70.915 356.404 C 70.352 355.962,69.629 355.600,69.308 355.600 C 68.986 355.600,68.246 355.264,67.662 354.852 C 67.078 354.441,66.150 353.967,65.600 353.797 C 65.050 353.628,64.171 353.155,63.646 352.745 C 63.121 352.335,62.401 351.998,62.046 351.997 C 61.691 351.995,60.729 351.357,59.909 350.580 C 59.089 349.803,57.767 348.895,56.971 348.562 C 55.017 347.746,41.288 334.246,40.894 332.753 C 40.733 332.140,39.861 330.864,38.958 329.918 C 38.056 328.972,37.175 327.749,37.001 327.199 C 36.827 326.650,36.103 325.480,35.392 324.600 C 34.680 323.720,33.961 322.550,33.794 322.000 C 33.627 321.450,33.065 320.491,32.545 319.869 C 32.025 319.247,31.600 318.417,31.600 318.023 C 31.600 317.630,31.265 316.879,30.855 316.354 C 30.445 315.829,29.971 314.950,29.800 314.400 C 29.629 313.850,29.155 312.971,28.745 312.446 C 28.335 311.921,28.000 311.196,28.000 310.835 C 28.000 310.474,27.754 309.823,27.454 309.389 C 27.154 308.955,26.769 308.150,26.599 307.600 C 26.429 307.050,25.964 306.182,25.565 305.672 C 25.167 305.161,24.721 303.943,24.574 302.965 C 24.427 301.987,23.968 300.522,23.554 299.709 C 23.139 298.896,22.799 297.774,22.797 297.215 C 22.796 296.657,22.437 295.660,22.000 295.000 C 21.563 294.340,21.204 293.165,21.203 292.389 C 21.201 291.613,20.953 290.623,20.652 290.189 C 19.959 289.192,19.200 285.680,19.200 283.469 C 19.200 282.539,18.946 281.415,18.636 280.972 C 18.289 280.478,17.883 278.014,17.585 274.592 C 17.297 271.292,16.872 268.671,16.543 268.169 C 15.262 266.214,15.471 231.002,16.772 229.433 C 17.019 229.136,17.417 226.758,17.655 224.151 C 17.904 221.428,18.325 219.071,18.644 218.616 C 18.950 218.179,19.200 217.061,19.200 216.131 C 19.200 213.920,19.959 210.408,20.652 209.411 C 20.953 208.977,21.200 207.982,21.200 207.200 C 21.200 206.418,21.502 205.347,21.871 204.821 C 22.239 204.294,22.682 202.971,22.854 201.881 C 23.027 200.791,23.416 199.606,23.719 199.249 C 24.022 198.892,24.489 197.579,24.757 196.331 C 25.025 195.083,25.492 193.855,25.796 193.603 C 26.100 193.351,26.462 192.630,26.600 192.000 C 26.738 191.370,27.109 190.642,27.423 190.381 C 27.737 190.120,28.172 189.253,28.390 188.453 C 28.608 187.654,29.419 186.292,30.193 185.427 C 30.967 184.562,31.600 183.549,31.600 183.176 C 31.600 182.803,31.889 182.258,32.242 181.965 C 32.595 181.672,33.293 180.525,33.792 179.416 C 34.348 178.181,35.881 176.205,37.750 174.316 C 39.427 172.620,40.800 170.950,40.800 170.605 C 40.800 169.762,48.345 162.194,49.571 161.807 C 50.105 161.639,51.635 160.447,52.971 159.159 C 54.307 157.871,55.940 156.600,56.600 156.336 C 57.260 156.071,58.358 155.377,59.039 154.793 C 59.721 154.209,62.421 152.697,65.039 151.433 C 67.658 150.168,70.070 148.965,70.400 148.759 C 71.686 147.955,73.612 147.200,74.375 147.200 C 74.815 147.200,75.856 146.852,76.688 146.426 C 77.519 146.000,78.920 145.527,79.800 145.375 C 80.680 145.223,81.706 144.831,82.081 144.505 C 82.468 144.167,83.934 143.818,85.481 143.695 C 86.976 143.577,88.564 143.243,89.009 142.954 C 91.590 141.274,121.863 141.299,124.556 142.983 C 125.020 143.273,126.549 143.632,127.954 143.781 C 129.358 143.930,130.888 144.290,131.354 144.581 C 131.819 144.872,132.920 145.236,133.800 145.389 C 134.680 145.542,135.940 145.991,136.600 146.386 C 137.260 146.782,138.651 147.227,139.691 147.376 C 140.731 147.525,141.683 147.811,141.808 148.013 C 142.028 148.370,147.728 151.200,148.226 151.200 C 148.362 151.200,148.931 151.560,149.491 152.000 C 150.050 152.440,150.799 152.804,151.154 152.809 C 151.509 152.814,152.250 153.170,152.800 153.600 C 154.444 154.886,157.177 154.686,158.625 153.174 L 159.800 151.948 160.000 99.435 C 160.148 60.541,160.320 46.777,160.663 46.361 C 160.917 46.053,161.253 44.900,161.409 43.800 C 161.583 42.576,162.050 41.412,162.613 40.800 C 163.118 40.250,163.592 39.350,163.666 38.800 C 163.763 38.079,164.273 37.573,165.494 36.986 C 166.425 36.539,167.406 35.954,167.674 35.686 C 167.941 35.419,168.534 35.200,168.991 35.200 C 169.448 35.200,170.189 34.943,170.638 34.629 C 172.372 33.414,236.875 33.241,238.258 34.447 M357.376 34.613 C 357.804 34.936,358.992 35.200,360.017 35.200 C 364.223 35.200,366.581 37.935,362.900 38.543 C 360.942 38.867,295.058 38.867,293.100 38.543 C 290.151 38.056,291.344 35.200,294.497 35.200 C 295.240 35.200,296.196 34.936,296.624 34.613 C 297.792 33.729,356.208 33.729,357.376 34.613 M288.468 43.305 C 289.360 46.051,289.392 344.254,288.501 348.953 C 287.758 352.871,286.322 352.981,285.869 349.155 C 285.736 348.033,285.396 346.837,285.114 346.496 C 284.190 345.383,284.375 45.718,285.300 44.411 C 285.685 43.867,286.000 43.048,286.000 42.591 C 286.000 41.666,286.763 40.721,287.352 40.917 C 287.563 40.988,288.065 42.062,288.468 43.305 M369.496 41.300 C 369.712 41.575,370.006 42.693,370.149 43.784 C 370.291 44.875,370.586 45.946,370.804 46.164 C 371.365 46.725,371.350 346.090,370.789 346.651 C 370.564 346.876,370.269 347.991,370.134 349.128 C 369.890 351.187,369.069 352.465,368.441 351.763 C 366.726 349.849,366.800 356.839,366.806 196.325 C 366.812 38.965,366.753 45.482,368.202 41.300 C 368.297 41.025,368.539 40.800,368.738 40.800 C 368.938 40.800,369.279 41.025,369.496 41.300 M113.400 222.800 C 112.740 223.001,110.607 223.521,108.661 223.956 C 106.715 224.391,104.825 225.007,104.461 225.326 C 104.097 225.645,103.388 226.031,102.884 226.185 C 101.265 226.679,90.813 236.767,90.804 237.845 C 90.802 238.089,90.121 239.619,89.291 241.245 C 86.415 246.878,85.790 260.239,88.263 263.239 C 88.517 263.547,88.857 264.700,89.019 265.800 C 89.190 266.970,89.704 268.269,90.256 268.931 C 90.775 269.553,91.200 270.345,91.200 270.692 C 91.200 271.534,100.017 280.377,100.869 280.390 C 101.237 280.395,102.047 280.823,102.669 281.340 C 103.291 281.857,104.610 282.406,105.600 282.560 C 106.590 282.714,107.761 283.076,108.202 283.365 C 110.972 285.177,125.891 285.156,128.031 283.337 C 128.379 283.042,128.815 282.800,129.000 282.800 C 129.868 282.800,134.798 280.123,136.472 278.743 C 137.501 277.894,138.581 277.198,138.872 277.196 C 139.660 277.189,141.903 274.726,142.201 273.539 C 142.344 272.969,143.167 271.813,144.030 270.970 C 144.894 270.127,145.601 269.159,145.603 268.819 C 145.604 268.478,145.963 267.660,146.400 267.000 C 146.837 266.340,147.196 265.257,147.197 264.594 C 147.199 263.931,147.587 262.671,148.060 261.794 C 149.255 259.581,149.430 248.829,148.300 247.099 C 147.915 246.510,147.600 245.528,147.600 244.918 C 147.600 243.810,145.063 238.210,144.367 237.780 C 144.165 237.655,144.000 237.204,144.000 236.778 C 144.000 233.796,130.719 224.000,126.675 224.000 C 126.068 224.000,125.108 223.696,124.540 223.324 C 123.349 222.543,115.462 222.172,113.400 222.800 M364.300 354.227 C 366.258 354.523,366.479 355.041,364.900 355.631 C 364.295 355.857,362.990 356.437,362.000 356.921 C 360.207 357.797,360.092 357.801,332.387 357.932 C 298.602 358.093,292.846 357.831,291.062 356.047 C 290.391 355.375,289.953 354.713,290.091 354.576 C 290.921 353.746,359.008 353.426,364.300 354.227 " stroke="none" fill="#fafafa" fill-rule="evenodd"></path><path id="path2" d="M174.000 37.692 C 171.690 37.852,169.350 38.050,168.800 38.132 C 168.250 38.213,184.360 38.283,204.600 38.286 C 228.082 38.290,240.097 38.165,237.800 37.942 C 233.310 37.505,179.716 37.295,174.000 37.692 M165.149 39.061 C 164.690 39.614,164.579 49.556,164.472 99.471 L 164.344 159.219 163.426 160.209 C 162.921 160.754,162.181 161.200,161.780 161.200 C 161.379 161.200,160.625 161.600,160.105 162.090 C 159.484 162.673,159.062 162.829,158.879 162.543 C 158.726 162.304,157.835 161.720,156.900 161.246 C 155.965 160.772,155.200 160.220,155.200 160.019 C 155.200 159.818,154.809 159.530,154.331 159.378 C 153.853 159.226,153.099 158.764,152.655 158.351 C 152.212 157.938,151.641 157.600,151.386 157.600 C 151.131 157.600,150.507 157.240,150.000 156.800 C 149.493 156.360,148.870 156.000,148.617 156.000 C 148.363 156.000,147.545 155.550,146.800 155.000 C 146.055 154.450,145.142 154.000,144.771 154.000 C 144.401 154.000,143.875 153.731,143.602 153.403 C 143.330 153.074,142.363 152.608,141.453 152.366 C 140.544 152.124,139.507 151.665,139.150 151.346 C 138.792 151.027,137.802 150.653,136.950 150.515 C 136.097 150.377,134.860 149.936,134.200 149.534 C 133.540 149.132,132.367 148.802,131.594 148.801 C 130.821 148.801,129.533 148.449,128.733 148.020 C 127.847 147.545,126.052 147.140,124.139 146.984 C 122.413 146.842,120.190 146.428,119.200 146.063 C 116.521 145.076,96.081 145.077,94.000 146.065 C 93.230 146.430,90.995 146.847,89.032 146.991 C 86.739 147.159,84.923 147.529,83.948 148.026 C 83.114 148.452,81.893 148.800,81.235 148.800 C 79.968 148.800,78.000 149.536,78.000 150.010 C 78.000 150.165,77.175 150.404,76.167 150.542 C 75.159 150.681,73.875 151.155,73.313 151.597 C 72.752 152.039,71.911 152.404,71.446 152.409 C 70.981 152.414,70.150 152.770,69.600 153.200 C 69.050 153.630,68.313 153.986,67.962 153.991 C 67.611 153.996,67.007 154.350,66.621 154.777 C 66.234 155.205,65.397 155.669,64.761 155.809 C 64.125 155.948,63.469 156.299,63.302 156.588 C 63.136 156.877,62.325 157.394,61.500 157.737 C 60.675 158.079,60.000 158.548,60.000 158.780 C 60.000 159.011,59.755 159.200,59.455 159.200 C 58.882 159.200,56.387 160.958,54.958 162.369 C 54.495 162.826,53.986 163.200,53.826 163.200 C 53.667 163.200,52.758 163.965,51.807 164.900 C 50.856 165.835,49.434 167.140,48.647 167.800 C 47.861 168.460,47.213 169.225,47.209 169.500 C 47.204 169.775,46.924 170.000,46.587 170.000 C 46.251 170.000,45.856 170.315,45.712 170.700 C 45.567 171.085,44.718 172.149,43.824 173.064 C 41.206 175.746,38.400 179.439,38.400 180.203 C 38.400 180.425,38.040 180.832,37.600 181.107 C 37.160 181.382,36.800 181.804,36.800 182.046 C 36.800 182.287,36.350 183.019,35.800 183.673 C 35.250 184.327,34.800 185.090,34.800 185.369 C 34.800 185.648,34.440 186.202,34.000 186.600 C 33.560 186.998,33.200 187.542,33.200 187.808 C 33.200 188.074,32.851 188.736,32.425 189.278 C 31.998 189.820,31.521 190.789,31.364 191.432 C 31.207 192.074,30.745 193.029,30.339 193.554 C 29.933 194.079,29.599 194.799,29.597 195.154 C 29.596 195.509,29.237 196.340,28.800 197.000 C 28.363 197.660,27.998 198.560,27.990 199.000 C 27.982 199.440,27.532 200.700,26.991 201.800 C 26.450 202.900,26.006 204.272,26.004 204.849 C 26.002 205.426,25.660 206.686,25.243 207.649 C 24.827 208.612,24.360 210.467,24.206 211.772 C 24.051 213.076,23.668 214.535,23.354 215.014 C 23.041 215.492,22.672 217.395,22.536 219.242 C 22.400 221.089,22.026 223.121,21.704 223.758 C 21.374 224.411,20.948 227.111,20.725 229.958 C 20.509 232.731,20.218 236.170,20.079 237.600 C 19.754 240.953,19.784 258.849,20.118 261.200 C 20.259 262.190,20.538 265.620,20.737 268.823 C 20.967 272.515,21.317 275.077,21.694 275.823 C 22.021 276.470,22.400 278.511,22.536 280.358 C 22.673 282.215,23.044 284.113,23.366 284.604 C 23.686 285.093,24.074 286.607,24.228 287.968 C 24.382 289.329,24.844 291.101,25.254 291.906 C 25.664 292.711,26.002 293.916,26.004 294.585 C 26.006 295.253,26.450 296.700,26.991 297.800 C 27.532 298.900,27.981 300.271,27.987 300.846 C 27.994 301.421,28.332 302.321,28.738 302.846 C 29.144 303.371,29.596 304.418,29.743 305.174 C 29.889 305.929,30.261 306.829,30.568 307.174 C 30.874 307.518,31.329 308.565,31.578 309.500 C 31.827 310.435,32.197 311.200,32.400 311.200 C 32.603 311.200,32.961 311.912,33.195 312.783 C 33.430 313.654,33.792 314.471,33.999 314.600 C 34.207 314.728,34.748 315.591,35.201 316.517 C 36.678 319.533,37.312 320.595,37.816 320.895 C 38.088 321.057,38.435 321.687,38.588 322.295 C 38.740 322.903,39.210 323.722,39.632 324.116 C 40.055 324.509,40.400 325.094,40.400 325.416 C 40.400 325.737,40.547 326.000,40.726 326.000 C 40.906 326.000,41.457 326.720,41.952 327.600 C 42.447 328.480,43.025 329.200,43.238 329.200 C 43.451 329.200,43.756 329.551,43.915 329.981 C 44.638 331.937,55.974 343.600,57.152 343.600 C 57.373 343.600,57.790 343.915,58.077 344.300 C 58.728 345.172,62.178 347.600,62.765 347.600 C 63.004 347.600,63.200 347.784,63.200 348.010 C 63.200 348.235,63.674 348.600,64.252 348.820 C 64.831 349.040,65.804 349.575,66.414 350.010 C 67.024 350.444,67.789 350.800,68.113 350.800 C 68.437 350.800,68.925 351.069,69.198 351.397 C 69.470 351.726,70.437 352.192,71.347 352.434 C 72.256 352.676,73.293 353.135,73.650 353.454 C 74.008 353.773,74.998 354.141,75.850 354.271 C 76.703 354.402,77.694 354.762,78.053 355.073 C 78.412 355.384,79.933 355.829,81.434 356.063 C 82.934 356.297,84.564 356.751,85.055 357.073 C 85.555 357.401,87.322 357.743,89.074 357.852 C 90.793 357.959,93.190 358.351,94.400 358.723 C 97.198 359.584,113.996 359.698,115.504 358.867 C 116.000 358.592,118.421 358.191,120.882 357.975 C 123.740 357.725,125.587 357.374,125.995 357.005 C 126.346 356.687,127.706 356.310,129.017 356.167 C 130.328 356.024,131.995 355.568,132.723 355.153 C 133.450 354.739,134.485 354.400,135.023 354.400 C 135.560 354.400,136.335 354.065,136.745 353.655 C 137.155 353.245,138.190 352.779,139.045 352.620 C 139.900 352.460,140.922 351.985,141.316 351.565 C 141.709 351.144,142.446 350.800,142.954 350.800 C 143.461 350.800,144.202 350.440,144.600 350.000 C 144.998 349.560,145.552 349.200,145.831 349.200 C 146.110 349.200,146.873 348.750,147.527 348.200 C 148.181 347.650,148.908 347.200,149.144 347.200 C 149.379 347.200,149.765 346.840,150.000 346.400 C 150.235 345.960,150.623 345.600,150.861 345.600 C 151.331 345.600,153.272 344.054,155.800 341.667 C 156.680 340.835,157.715 340.036,158.100 339.890 C 158.485 339.744,158.800 339.349,158.800 339.013 C 158.800 338.676,159.001 338.400,159.247 338.400 C 159.493 338.400,160.375 337.698,161.208 336.839 C 162.041 335.981,163.100 335.159,163.562 335.012 C 164.071 334.850,164.400 334.408,164.400 333.884 L 164.400 333.022 165.023 333.911 C 165.434 334.498,166.058 334.800,166.860 334.800 C 167.732 334.800,168.133 335.022,168.281 335.587 C 168.394 336.019,168.800 336.473,169.183 336.595 C 169.805 336.792,169.904 337.681,170.104 344.857 C 170.290 351.545,170.437 353.008,170.978 353.549 C 171.569 354.140,174.902 354.201,207.314 354.208 L 243.000 354.217 207.320 354.008 C 184.344 353.874,171.499 353.658,171.245 353.400 C 171.015 353.167,170.730 347.812,170.563 340.600 C 170.405 333.780,170.139 327.750,169.972 327.200 C 169.805 326.650,169.653 326.483,169.634 326.829 C 169.593 327.592,154.691 342.347,152.884 343.414 C 152.178 343.831,151.600 344.318,151.600 344.496 C 151.600 344.674,151.195 344.996,150.700 345.211 C 150.205 345.427,148.990 346.229,148.000 346.993 C 147.010 347.757,145.660 348.653,145.000 348.983 C 144.340 349.314,143.530 349.756,143.200 349.966 C 142.639 350.323,139.922 351.577,136.200 353.196 C 133.339 354.441,130.657 355.272,127.695 355.830 C 126.097 356.131,124.431 356.569,123.993 356.804 C 123.555 357.038,121.082 357.407,118.498 357.623 C 115.914 357.839,112.360 358.193,110.600 358.408 C 106.552 358.905,101.822 358.910,99.331 358.421 C 98.269 358.212,95.307 357.852,92.748 357.620 C 90.190 357.388,87.332 356.929,86.398 356.599 C 85.464 356.270,84.227 355.992,83.650 355.982 C 83.072 355.973,81.880 355.691,81.000 355.357 C 80.120 355.022,78.590 354.504,77.600 354.205 C 75.346 353.524,71.430 351.883,70.729 351.325 C 70.438 351.094,69.525 350.687,68.700 350.421 C 67.875 350.155,67.200 349.784,67.200 349.596 C 67.200 349.408,66.795 349.133,66.300 348.985 C 62.006 347.702,47.911 335.335,44.050 329.463 C 43.693 328.919,42.408 326.972,41.196 325.137 C 38.621 321.236,38.525 321.081,36.413 317.351 C 35.526 315.784,34.800 314.299,34.800 314.051 C 34.800 313.803,34.634 313.600,34.431 313.600 C 34.228 313.600,33.845 312.925,33.580 312.100 C 33.316 311.275,32.868 310.330,32.587 310.000 C 32.305 309.670,31.873 308.643,31.626 307.717 C 31.380 306.791,31.016 305.934,30.818 305.811 C 30.620 305.689,30.252 304.916,29.999 304.094 C 29.746 303.272,29.295 302.060,28.996 301.400 C 28.234 299.718,27.230 296.623,26.532 293.800 C 26.206 292.480,25.752 291.055,25.524 290.634 C 25.297 290.212,24.880 288.592,24.598 287.034 C 24.316 285.475,23.796 283.127,23.442 281.816 C 23.089 280.505,22.800 278.943,22.800 278.345 C 22.800 277.748,22.456 275.491,22.037 273.329 C 20.126 263.496,20.099 231.199,21.998 226.206 C 22.181 225.724,22.540 223.581,22.795 221.443 C 23.050 219.306,23.492 216.982,23.778 216.278 C 24.063 215.575,24.422 214.012,24.575 212.805 C 24.728 211.597,25.091 210.067,25.383 209.405 C 25.674 208.742,26.186 207.120,26.519 205.800 C 27.737 200.983,28.335 199.472,31.875 192.272 C 35.226 185.458,35.677 184.636,36.269 184.280 C 36.561 184.104,36.800 183.724,36.800 183.435 C 36.800 182.934,38.497 180.512,39.791 179.166 C 40.126 178.818,40.400 178.392,40.400 178.221 C 40.400 176.380,53.667 163.661,59.600 159.814 C 61.250 158.744,63.240 157.448,64.022 156.934 C 64.803 156.420,65.634 156.000,65.868 156.000 C 66.101 156.000,66.736 155.651,67.278 155.225 C 67.820 154.798,68.737 154.331,69.315 154.186 C 69.894 154.040,70.567 153.681,70.811 153.386 C 71.055 153.092,71.828 152.729,72.528 152.580 C 73.227 152.430,73.997 152.150,74.237 151.957 C 74.869 151.450,80.201 149.657,83.006 149.008 C 84.329 148.702,85.887 148.271,86.469 148.050 C 87.050 147.829,88.667 147.533,90.063 147.393 C 91.458 147.253,94.131 146.871,96.003 146.545 C 102.467 145.419,117.648 146.110,125.200 147.873 C 132.712 149.627,134.876 150.275,137.800 151.650 C 138.680 152.064,139.597 152.402,139.838 152.401 C 140.468 152.400,148.460 156.563,151.349 158.398 C 153.937 160.042,154.014 160.098,157.833 163.092 C 159.172 164.141,160.779 165.360,161.405 165.800 C 162.031 166.240,162.980 167.016,163.514 167.524 C 164.048 168.033,164.601 168.333,164.742 168.191 C 164.884 168.049,165.090 138.925,165.200 103.471 L 165.400 39.008 166.600 38.751 C 167.756 38.504,167.761 38.493,166.749 38.447 C 166.171 38.421,165.451 38.698,165.149 39.061 M242.800 38.918 L 243.800 39.424 243.901 196.170 C 243.975 311.716,243.883 353.059,243.552 353.458 C 243.228 353.848,243.226 354.000,243.543 354.000 C 244.898 354.000,244.924 350.996,244.938 195.800 C 244.951 32.747,245.032 38.390,242.676 38.406 C 241.838 38.412,241.844 38.434,242.800 38.918 M112.605 217.497 C 111.728 217.586,110.821 217.817,110.589 218.009 C 110.357 218.202,109.275 218.550,108.184 218.783 C 106.207 219.204,103.100 220.380,101.200 221.425 C 100.650 221.728,99.750 222.204,99.200 222.483 C 98.650 222.762,97.961 223.219,97.669 223.498 C 97.377 223.777,96.747 224.209,96.269 224.458 C 95.240 224.994,94.884 225.298,92.000 228.100 C 89.807 230.232,89.363 230.770,87.304 233.800 C 85.996 235.725,84.000 239.549,84.000 240.130 C 84.000 240.360,83.651 241.279,83.225 242.174 C 81.736 245.297,81.136 254.445,82.016 260.600 C 82.544 264.292,84.883 270.320,86.982 273.400 C 95.635 286.093,108.644 291.866,123.800 289.739 C 126.220 289.399,128.563 288.892,129.006 288.613 C 129.449 288.334,130.439 287.968,131.206 287.800 C 131.973 287.633,133.029 287.159,133.554 286.748 C 134.079 286.337,134.709 285.997,134.954 285.993 C 135.392 285.986,138.086 284.325,139.944 282.916 C 141.700 281.585,146.767 276.423,147.413 275.308 C 147.766 274.699,148.486 273.480,149.013 272.600 C 150.844 269.542,152.368 265.951,152.780 263.727 C 153.007 262.497,153.378 261.268,153.603 260.996 C 154.199 260.278,154.529 252.206,154.077 249.400 C 153.553 246.151,152.420 241.535,151.966 240.800 C 151.762 240.470,151.479 239.930,151.338 239.600 C 149.956 236.366,148.562 233.833,147.833 233.227 C 147.485 232.938,147.200 232.496,147.200 232.243 C 147.200 231.561,140.078 224.724,138.000 223.412 C 137.010 222.786,135.712 221.943,135.116 221.537 C 134.520 221.132,133.820 220.800,133.560 220.800 C 133.300 220.800,132.348 220.455,131.444 220.034 C 129.959 219.341,127.587 218.658,123.000 217.603 C 121.420 217.239,115.704 217.181,112.605 217.497 M121.892 218.213 C 122.699 218.550,124.538 218.994,125.979 219.201 C 127.421 219.407,129.313 219.941,130.185 220.388 C 131.056 220.835,132.265 221.200,132.871 221.200 C 133.562 221.200,134.131 221.497,134.400 222.000 C 134.635 222.440,135.150 222.800,135.544 222.800 C 135.938 222.800,136.683 223.250,137.200 223.800 C 137.717 224.350,138.425 224.800,138.774 224.800 C 139.122 224.800,139.632 225.160,139.907 225.600 C 140.182 226.040,140.675 226.400,141.003 226.400 C 141.332 226.400,141.600 226.586,141.600 226.813 C 141.600 227.351,144.249 230.000,144.787 230.000 C 145.014 230.000,145.200 230.268,145.200 230.597 C 145.200 230.925,145.560 231.418,146.000 231.693 C 146.440 231.968,146.800 232.487,146.800 232.847 C 146.800 233.207,147.095 233.747,147.455 234.045 C 147.815 234.344,148.430 235.336,148.822 236.250 C 149.213 237.164,149.729 238.032,149.967 238.180 C 150.205 238.327,150.400 238.862,150.400 239.370 C 150.400 239.877,150.746 240.731,151.168 241.268 C 151.641 241.869,152.102 243.437,152.367 245.348 C 152.605 247.054,153.020 248.844,153.289 249.325 C 154.049 250.681,153.947 257.488,153.141 259.200 C 152.778 259.970,152.357 261.717,152.204 263.082 C 152.051 264.447,151.677 265.770,151.373 266.022 C 151.070 266.274,150.703 267.137,150.557 267.940 C 150.412 268.743,149.958 269.722,149.547 270.116 C 149.136 270.509,148.800 271.039,148.800 271.294 C 148.800 272.387,143.342 279.372,141.636 280.463 C 141.066 280.827,139.892 281.772,139.027 282.563 C 138.162 283.353,137.291 284.000,137.090 284.000 C 136.890 284.000,136.269 284.360,135.709 284.800 C 135.150 285.240,134.384 285.600,134.008 285.600 C 133.632 285.600,133.020 285.936,132.647 286.348 C 132.275 286.759,131.184 287.203,130.222 287.335 C 129.260 287.467,127.746 287.954,126.856 288.418 C 124.680 289.552,110.120 289.483,108.400 288.330 C 107.850 287.961,106.680 287.530,105.800 287.372 C 104.920 287.213,103.771 286.750,103.246 286.342 C 102.721 285.934,101.984 285.600,101.608 285.600 C 101.232 285.600,100.607 285.250,100.221 284.823 C 99.834 284.395,98.994 283.931,98.355 283.790 C 97.716 283.650,97.009 283.190,96.783 282.767 C 96.557 282.345,96.115 282.000,95.800 282.000 C 95.485 282.000,95.035 281.640,94.800 281.200 C 94.565 280.760,94.120 280.400,93.813 280.400 C 93.505 280.400,93.143 280.049,93.006 279.620 C 92.870 279.192,92.408 278.730,91.980 278.594 C 91.551 278.457,91.200 278.095,91.200 277.787 C 91.200 277.480,90.840 277.035,90.400 276.800 C 89.960 276.565,89.600 276.115,89.600 275.800 C 89.600 275.485,89.255 275.043,88.833 274.817 C 88.410 274.591,87.944 273.857,87.797 273.184 C 87.649 272.512,87.184 271.747,86.764 271.485 C 86.344 271.222,86.000 270.625,86.000 270.158 C 86.000 269.690,85.646 268.858,85.213 268.308 C 84.781 267.758,84.302 266.518,84.150 265.554 C 83.998 264.589,83.523 263.124,83.095 262.297 C 82.033 260.248,82.160 245.387,83.249 244.142 C 83.606 243.734,84.026 242.690,84.182 241.821 C 84.338 240.953,84.811 239.804,85.233 239.267 C 85.655 238.731,86.000 237.978,86.000 237.595 C 86.000 237.212,86.263 236.680,86.585 236.413 C 86.906 236.146,87.290 235.539,87.439 235.064 C 87.713 234.186,90.935 230.219,92.851 228.400 C 94.949 226.409,96.884 224.800,97.180 224.800 C 97.347 224.800,97.969 224.350,98.562 223.800 C 99.156 223.250,99.990 222.800,100.417 222.800 C 100.844 222.800,101.418 222.440,101.693 222.000 C 101.978 221.544,102.626 221.200,103.199 221.200 C 103.753 221.200,105.015 220.776,106.003 220.257 C 107.039 219.713,108.890 219.204,110.376 219.055 C 111.793 218.913,113.323 218.537,113.776 218.219 C 114.912 217.423,119.993 217.419,121.892 218.213 " stroke="none" fill="#ccb2a8" fill-rule="evenodd"></path><path id="path3" d="M166.600 38.748 L 165.400 39.008 165.200 103.471 C 165.090 138.925,164.884 168.049,164.742 168.191 C 164.601 168.333,164.048 168.033,163.514 167.524 C 162.980 167.016,162.031 166.240,161.405 165.800 C 160.779 165.360,159.172 164.141,157.833 163.092 C 154.014 160.098,153.937 160.042,151.349 158.398 C 148.460 156.563,140.468 152.400,139.838 152.401 C 139.597 152.402,138.680 152.064,137.800 151.650 C 134.876 150.275,132.712 149.627,125.200 147.873 C 117.648 146.110,102.467 145.419,96.003 146.545 C 94.131 146.871,91.458 147.253,90.063 147.393 C 88.667 147.533,87.050 147.829,86.469 148.050 C 85.887 148.271,84.329 148.702,83.006 149.008 C 80.201 149.657,74.869 151.450,74.237 151.957 C 73.997 152.150,73.227 152.430,72.528 152.580 C 71.828 152.729,71.055 153.092,70.811 153.386 C 70.567 153.681,69.894 154.040,69.315 154.186 C 68.737 154.331,67.820 154.798,67.278 155.225 C 66.736 155.651,66.101 156.000,65.868 156.000 C 65.634 156.000,64.803 156.420,64.022 156.934 C 63.240 157.448,61.250 158.744,59.600 159.814 C 53.667 163.661,40.400 176.380,40.400 178.221 C 40.400 178.392,40.126 178.818,39.791 179.166 C 38.497 180.512,36.800 182.934,36.800 183.435 C 36.800 183.724,36.561 184.104,36.269 184.280 C 35.677 184.636,35.226 185.458,31.875 192.272 C 28.335 199.472,27.737 200.983,26.519 205.800 C 26.186 207.120,25.674 208.742,25.383 209.405 C 25.091 210.067,24.728 211.597,24.575 212.805 C 24.422 214.012,24.063 215.575,23.778 216.278 C 23.492 216.982,23.050 219.306,22.795 221.443 C 22.540 223.581,22.181 225.724,21.998 226.206 C 20.099 231.199,20.126 263.496,22.037 273.329 C 22.456 275.491,22.800 277.748,22.800 278.345 C 22.800 278.943,23.089 280.505,23.442 281.816 C 23.796 283.127,24.316 285.475,24.598 287.034 C 24.880 288.592,25.297 290.212,25.524 290.634 C 25.752 291.055,26.206 292.480,26.532 293.800 C 27.230 296.623,28.234 299.718,28.996 301.400 C 29.295 302.060,29.746 303.272,29.999 304.094 C 30.252 304.916,30.620 305.689,30.818 305.811 C 31.016 305.934,31.380 306.791,31.626 307.717 C 31.873 308.643,32.305 309.670,32.587 310.000 C 32.868 310.330,33.316 311.275,33.580 312.100 C 33.845 312.925,34.228 313.600,34.431 313.600 C 34.634 313.600,34.800 313.803,34.800 314.051 C 34.800 314.299,35.526 315.784,36.413 317.351 C 38.525 321.081,38.621 321.236,41.196 325.137 C 42.408 326.972,43.693 328.919,44.050 329.463 C 47.911 335.335,62.006 347.702,66.300 348.985 C 66.795 349.133,67.200 349.408,67.200 349.596 C 67.200 349.784,67.875 350.155,68.700 350.421 C 69.525 350.687,70.438 351.094,70.729 351.325 C 71.430 351.883,75.346 353.524,77.600 354.205 C 78.590 354.504,80.120 355.022,81.000 355.357 C 81.880 355.691,83.072 355.973,83.650 355.982 C 84.227 355.992,85.464 356.270,86.398 356.599 C 87.332 356.929,90.190 357.388,92.748 357.620 C 95.307 357.852,98.269 358.212,99.331 358.421 C 101.822 358.910,106.552 358.905,110.600 358.408 C 112.360 358.193,115.914 357.839,118.498 357.623 C 121.082 357.407,123.555 357.038,123.993 356.804 C 124.431 356.569,126.097 356.131,127.695 355.830 C 130.657 355.272,133.339 354.441,136.200 353.196 C 139.922 351.577,142.639 350.323,143.200 349.966 C 143.530 349.756,144.340 349.314,145.000 348.983 C 145.660 348.653,147.010 347.757,148.000 346.993 C 148.990 346.229,150.205 345.427,150.700 345.211 C 151.195 344.996,151.600 344.674,151.600 344.496 C 151.600 344.318,152.178 343.831,152.884 343.414 C 154.691 342.347,169.593 327.592,169.634 326.829 C 169.653 326.483,169.805 326.650,169.972 327.200 C 170.139 327.750,170.405 333.780,170.563 340.600 C 170.730 347.813,171.015 353.167,171.245 353.400 C 171.840 354.003,242.729 354.157,243.451 353.557 C 244.373 352.792,244.261 39.915,243.339 39.149 C 242.635 38.565,169.222 38.181,166.600 38.748 M243.142 39.730 C 243.629 40.317,243.828 342.586,243.346 349.450 L 243.082 353.200 207.755 353.200 C 173.238 353.200,172.419 353.182,172.014 352.426 C 171.754 351.940,171.600 346.975,171.600 339.059 C 171.600 332.133,171.491 326.181,171.357 325.833 C 171.118 325.208,169.200 324.915,169.200 325.503 C 169.200 326.936,151.908 344.005,149.563 344.887 C 149.144 345.045,148.800 345.338,148.800 345.539 C 148.800 345.739,148.273 346.121,147.629 346.388 C 146.985 346.655,146.147 347.217,145.767 347.637 C 145.387 348.056,144.766 348.400,144.387 348.400 C 144.008 348.400,143.482 348.661,143.217 348.980 C 142.952 349.298,142.075 349.771,141.268 350.030 C 140.461 350.289,139.518 350.746,139.174 351.046 C 138.829 351.345,137.929 351.707,137.174 351.850 C 136.418 351.993,135.527 352.345,135.194 352.632 C 134.860 352.920,133.778 353.336,132.790 353.557 C 131.802 353.779,130.365 354.222,129.597 354.541 C 128.828 354.861,127.126 355.255,125.812 355.418 C 124.499 355.581,122.789 355.980,122.012 356.304 C 118.497 357.774,95.846 357.845,90.000 356.404 C 88.350 355.998,85.920 355.535,84.600 355.376 C 83.280 355.218,81.573 354.753,80.806 354.344 C 80.039 353.935,78.959 353.599,78.406 353.597 C 77.853 353.596,76.860 353.237,76.200 352.800 C 75.540 352.363,74.730 352.003,74.400 352.001 C 74.070 351.999,72.720 351.458,71.400 350.800 C 70.080 350.142,68.775 349.602,68.500 349.602 C 68.225 349.601,68.000 349.442,68.000 349.249 C 68.000 349.055,67.415 348.657,66.700 348.364 C 65.985 348.071,64.680 347.322,63.800 346.701 C 61.100 344.794,59.116 343.420,58.443 342.989 C 54.778 340.645,44.264 329.312,42.852 326.184 C 42.649 325.735,42.195 325.127,41.842 324.835 C 41.489 324.542,41.200 324.076,41.200 323.800 C 41.200 323.524,40.902 323.051,40.538 322.749 C 40.174 322.447,39.618 321.660,39.303 321.000 C 38.988 320.340,38.223 318.900,37.603 317.800 C 35.317 313.743,32.000 306.958,32.000 306.337 C 32.000 305.986,31.735 305.478,31.411 305.209 C 31.086 304.940,30.705 304.063,30.562 303.260 C 30.419 302.457,29.980 301.260,29.585 300.600 C 29.190 299.940,28.734 298.682,28.571 297.804 C 28.408 296.926,27.947 295.486,27.546 294.604 C 27.145 293.722,26.810 292.460,26.800 291.800 C 26.790 291.140,26.447 289.862,26.037 288.959 C 25.628 288.057,25.162 286.167,25.002 284.759 C 24.842 283.352,24.456 281.581,24.144 280.823 C 23.832 280.066,23.477 278.086,23.356 276.423 C 23.234 274.761,22.804 271.690,22.400 269.600 C 21.042 262.581,20.991 233.446,22.331 229.967 C 22.550 229.399,22.929 226.937,23.173 224.496 C 23.417 222.055,23.863 219.460,24.164 218.729 C 24.465 217.998,24.842 216.248,25.002 214.841 C 25.162 213.433,25.628 211.543,26.037 210.641 C 26.447 209.738,26.790 208.460,26.800 207.800 C 26.810 207.140,27.145 205.878,27.546 204.996 C 27.947 204.114,28.408 202.684,28.570 201.818 C 28.733 200.953,29.211 199.560,29.633 198.722 C 30.055 197.885,30.760 196.489,31.200 195.621 C 31.640 194.752,32.000 193.797,32.000 193.498 C 32.000 193.200,32.450 192.345,33.000 191.600 C 33.550 190.855,34.000 189.947,34.000 189.584 C 34.000 189.221,34.344 188.613,34.764 188.233 C 35.184 187.852,35.639 187.100,35.774 186.560 C 35.910 186.021,36.331 185.245,36.710 184.836 C 37.090 184.427,37.850 183.318,38.400 182.371 C 39.553 180.387,45.944 172.467,48.061 170.399 C 51.935 166.615,56.765 162.561,59.400 160.883 C 60.500 160.182,61.752 159.337,62.181 159.005 C 62.611 158.672,63.168 158.400,63.419 158.400 C 63.671 158.400,64.193 158.050,64.579 157.623 C 64.966 157.195,65.802 156.731,66.437 156.592 C 67.072 156.453,67.686 156.185,67.802 155.997 C 68.065 155.571,72.771 153.201,73.364 153.196 C 73.604 153.194,74.700 152.750,75.800 152.209 C 76.900 151.668,78.125 151.219,78.522 151.213 C 78.919 151.206,79.999 150.862,80.922 150.448 C 81.845 150.035,83.680 149.567,85.000 149.409 C 86.320 149.251,88.030 148.856,88.800 148.532 C 93.161 146.692,120.106 146.697,124.511 148.537 C 125.263 148.851,126.850 149.234,128.039 149.388 C 129.228 149.542,130.881 150.012,131.712 150.434 C 132.544 150.855,133.631 151.200,134.128 151.200 C 134.624 151.200,135.737 151.560,136.600 152.000 C 137.463 152.440,138.342 152.800,138.553 152.800 C 138.764 152.800,140.031 153.318,141.368 153.950 C 142.706 154.583,144.070 155.217,144.400 155.358 C 144.730 155.500,145.720 156.056,146.600 156.594 C 147.480 157.132,148.740 157.852,149.400 158.195 C 150.060 158.537,151.410 159.444,152.400 160.209 C 153.390 160.974,154.470 161.719,154.800 161.864 C 155.666 162.244,159.415 165.394,162.200 168.081 C 164.354 170.160,164.651 170.328,165.100 169.722 C 165.495 169.189,165.600 155.489,165.600 104.390 C 165.600 68.829,165.720 39.613,165.867 39.467 C 166.432 38.902,242.670 39.161,243.142 39.730 M110.000 217.052 C 109.670 217.173,108.833 217.526,108.140 217.836 C 107.446 218.146,106.545 218.400,106.136 218.400 C 105.728 218.400,104.548 218.850,103.515 219.400 C 102.482 219.950,101.441 220.400,101.202 220.400 C 100.963 220.400,100.280 220.732,99.684 221.137 C 99.088 221.543,97.790 222.392,96.800 223.024 C 95.810 223.656,94.718 224.449,94.373 224.786 C 94.028 225.124,93.128 225.946,92.373 226.613 C 90.863 227.948,87.455 231.916,86.200 233.802 C 84.395 236.514,81.600 242.924,81.600 244.351 C 81.600 244.931,81.414 246.034,81.187 246.803 C 80.358 249.610,79.983 254.205,80.384 256.631 C 81.288 262.093,82.008 265.242,82.547 266.094 C 82.863 266.592,83.241 267.573,83.386 268.272 C 83.532 268.972,83.898 269.750,84.200 270.000 C 84.502 270.250,84.860 270.964,84.997 271.586 C 85.134 272.208,85.595 273.034,86.023 273.421 C 86.450 273.807,86.800 274.286,86.800 274.483 C 86.800 276.261,96.110 284.872,99.851 286.556 C 100.539 286.865,101.225 287.317,101.375 287.559 C 101.525 287.802,102.030 288.000,102.497 288.000 C 102.965 288.000,104.079 288.354,104.974 288.786 C 110.022 291.226,119.951 292.119,124.714 290.561 C 125.657 290.252,126.917 289.994,127.514 289.987 C 128.111 289.981,129.500 289.532,130.600 288.991 C 131.700 288.450,132.893 288.006,133.251 288.004 C 133.609 288.002,134.120 287.737,134.387 287.415 C 134.654 287.094,135.235 286.716,135.677 286.575 C 139.010 285.518,147.579 277.470,149.707 273.400 C 151.658 269.669,153.200 266.357,153.200 265.898 C 153.200 265.609,153.578 264.299,154.039 262.986 C 155.164 259.787,155.272 248.100,154.203 245.200 C 153.838 244.210,153.350 242.590,153.118 241.600 C 152.886 240.610,152.359 239.371,151.948 238.846 C 151.537 238.321,151.200 237.639,151.200 237.330 C 151.200 237.021,150.864 236.280,150.454 235.684 C 150.044 235.088,149.059 233.587,148.266 232.350 C 145.955 228.744,139.869 223.084,137.100 221.966 C 136.495 221.722,136.000 221.373,136.000 221.192 C 136.000 221.010,135.325 220.645,134.500 220.380 C 133.675 220.116,132.730 219.672,132.400 219.394 C 132.070 219.117,130.822 218.685,129.627 218.434 C 128.432 218.183,127.190 217.757,126.867 217.489 C 126.261 216.985,111.245 216.597,110.000 217.052 M123.000 217.603 C 127.587 218.658,129.959 219.341,131.444 220.034 C 132.348 220.455,133.300 220.800,133.560 220.800 C 133.820 220.800,134.520 221.132,135.116 221.537 C 135.712 221.943,137.010 222.786,138.000 223.412 C 140.078 224.724,147.200 231.561,147.200 232.243 C 147.200 232.496,147.485 232.938,147.833 233.227 C 148.562 233.833,149.956 236.366,151.338 239.600 C 151.479 239.930,151.762 240.470,151.966 240.800 C 152.420 241.535,153.553 246.151,154.077 249.400 C 154.529 252.206,154.199 260.278,153.603 260.996 C 153.378 261.268,153.007 262.497,152.780 263.727 C 152.368 265.951,150.844 269.542,149.013 272.600 C 148.486 273.480,147.766 274.699,147.413 275.308 C 146.767 276.423,141.700 281.585,139.944 282.916 C 138.086 284.325,135.392 285.986,134.954 285.993 C 134.709 285.997,134.079 286.337,133.554 286.748 C 133.029 287.159,131.973 287.633,131.206 287.800 C 130.439 287.968,129.449 288.334,129.006 288.613 C 126.647 290.100,115.245 290.552,109.436 289.388 C 96.351 286.766,83.886 273.679,82.016 260.600 C 81.136 254.445,81.736 245.297,83.225 242.174 C 83.651 241.279,84.000 240.360,84.000 240.130 C 84.000 239.549,85.996 235.725,87.304 233.800 C 89.363 230.770,89.807 230.232,92.000 228.100 C 94.884 225.298,95.240 224.994,96.269 224.458 C 96.747 224.209,97.377 223.777,97.669 223.498 C 97.961 223.219,98.650 222.762,99.200 222.483 C 99.750 222.204,100.650 221.728,101.200 221.425 C 103.100 220.380,106.207 219.204,108.184 218.783 C 109.275 218.550,110.357 218.202,110.589 218.009 C 111.465 217.282,120.342 216.991,123.000 217.603 " stroke="none" fill="#d69a86" fill-rule="evenodd"></path><path id="path4" d="M173.027 33.888 C 172.162 33.981,171.087 34.314,170.638 34.629 C 170.189 34.943,169.448 35.200,168.991 35.200 C 168.534 35.200,167.941 35.419,167.674 35.686 C 167.406 35.954,166.425 36.539,165.494 36.986 C 164.273 37.573,163.763 38.079,163.666 38.800 C 163.592 39.350,163.118 40.250,162.613 40.800 C 162.050 41.412,161.583 42.576,161.409 43.800 C 161.253 44.900,160.917 46.053,160.663 46.361 C 160.320 46.777,160.148 60.541,160.000 99.435 L 159.800 151.948 158.625 153.174 C 157.177 154.686,154.444 154.886,152.800 153.600 C 152.250 153.170,151.509 152.814,151.154 152.809 C 150.799 152.804,150.050 152.440,149.491 152.000 C 148.931 151.560,148.362 151.200,148.226 151.200 C 147.728 151.200,142.028 148.370,141.808 148.013 C 141.683 147.811,140.731 147.525,139.691 147.376 C 138.651 147.227,137.260 146.782,136.600 146.386 C 135.940 145.991,134.680 145.542,133.800 145.389 C 132.920 145.236,131.819 144.872,131.354 144.581 C 130.888 144.290,129.358 143.930,127.954 143.781 C 126.549 143.632,125.020 143.273,124.556 142.983 C 121.863 141.299,91.590 141.274,89.009 142.954 C 88.564 143.243,86.976 143.577,85.481 143.695 C 83.934 143.818,82.468 144.167,82.081 144.505 C 81.706 144.831,80.680 145.223,79.800 145.375 C 78.920 145.527,77.519 146.000,76.688 146.426 C 75.856 146.852,74.815 147.200,74.375 147.200 C 73.612 147.200,71.686 147.955,70.400 148.759 C 70.070 148.965,67.658 150.168,65.039 151.433 C 62.421 152.697,59.721 154.209,59.039 154.793 C 58.358 155.377,57.260 156.071,56.600 156.336 C 55.940 156.600,54.307 157.871,52.971 159.159 C 51.635 160.447,50.105 161.639,49.571 161.807 C 48.345 162.194,40.800 169.762,40.800 170.605 C 40.800 170.950,39.427 172.620,37.750 174.316 C 35.881 176.205,34.348 178.181,33.792 179.416 C 33.293 180.525,32.595 181.672,32.242 181.965 C 31.889 182.258,31.600 182.803,31.600 183.176 C 31.600 183.549,30.967 184.562,30.193 185.427 C 29.419 186.292,28.608 187.654,28.390 188.453 C 28.172 189.253,27.737 190.120,27.423 190.381 C 27.109 190.642,26.738 191.370,26.600 192.000 C 26.462 192.630,26.100 193.351,25.796 193.603 C 25.492 193.855,25.025 195.083,24.757 196.331 C 24.489 197.579,24.022 198.892,23.719 199.249 C 23.416 199.606,23.027 200.791,22.854 201.881 C 22.682 202.971,22.239 204.294,21.871 204.821 C 21.502 205.347,21.200 206.418,21.200 207.200 C 21.200 207.982,20.953 208.977,20.652 209.411 C 19.959 210.408,19.200 213.920,19.200 216.131 C 19.200 217.061,18.950 218.179,18.644 218.616 C 18.325 219.071,17.904 221.428,17.655 224.151 C 17.417 226.758,17.019 229.136,16.772 229.433 C 15.471 231.002,15.262 266.214,16.543 268.169 C 16.872 268.671,17.297 271.292,17.585 274.592 C 17.883 278.014,18.289 280.478,18.636 280.972 C 18.946 281.415,19.200 282.539,19.200 283.469 C 19.200 285.680,19.959 289.192,20.652 290.189 C 20.953 290.623,21.201 291.613,21.203 292.389 C 21.204 293.165,21.563 294.340,22.000 295.000 C 22.437 295.660,22.796 296.657,22.797 297.215 C 22.799 297.774,23.139 298.896,23.554 299.709 C 23.968 300.522,24.427 301.987,24.574 302.965 C 24.721 303.943,25.167 305.161,25.565 305.672 C 25.964 306.182,26.429 307.050,26.599 307.600 C 26.769 308.150,27.154 308.955,27.454 309.389 C 27.754 309.823,28.000 310.474,28.000 310.835 C 28.000 311.196,28.335 311.921,28.745 312.446 C 29.155 312.971,29.629 313.850,29.800 314.400 C 29.971 314.950,30.445 315.829,30.855 316.354 C 31.265 316.879,31.600 317.630,31.600 318.023 C 31.600 318.417,32.025 319.247,32.545 319.869 C 33.065 320.491,33.627 321.450,33.794 322.000 C 33.961 322.550,34.680 323.720,35.392 324.600 C 36.103 325.480,36.827 326.650,37.001 327.199 C 37.175 327.749,38.056 328.972,38.958 329.918 C 39.861 330.864,40.733 332.140,40.894 332.753 C 41.288 334.246,55.017 347.746,56.971 348.562 C 57.767 348.895,59.089 349.803,59.909 350.580 C 60.729 351.357,61.691 351.995,62.046 351.997 C 62.401 351.998,63.121 352.335,63.646 352.745 C 64.171 353.155,65.050 353.628,65.600 353.797 C 66.150 353.967,67.078 354.441,67.662 354.852 C 68.246 355.264,68.986 355.600,69.308 355.600 C 69.629 355.600,70.352 355.962,70.915 356.404 C 71.477 356.847,72.807 357.378,73.869 357.585 C 74.931 357.792,76.513 358.330,77.385 358.780 C 78.256 359.231,79.431 359.600,79.996 359.600 C 80.560 359.600,81.410 359.871,81.883 360.203 C 82.357 360.535,83.882 360.920,85.272 361.059 C 86.663 361.198,88.340 361.602,89.000 361.956 C 90.824 362.935,119.303 362.925,120.800 361.945 C 121.423 361.537,123.139 361.188,125.352 361.020 C 127.306 360.871,129.286 360.511,129.752 360.220 C 130.219 359.928,131.291 359.568,132.135 359.420 C 132.979 359.272,134.329 358.813,135.135 358.401 C 135.941 357.989,137.320 357.524,138.200 357.368 C 139.080 357.212,140.229 356.750,140.754 356.342 C 141.279 355.934,142.022 355.600,142.405 355.600 C 142.788 355.600,143.325 355.331,143.598 355.002 C 143.872 354.673,144.781 354.198,145.620 353.947 C 146.459 353.695,147.824 352.795,148.654 351.945 C 149.484 351.095,150.469 350.400,150.844 350.400 C 151.220 350.400,152.987 349.140,154.772 347.600 C 156.557 346.060,158.259 344.800,158.555 344.800 C 158.850 344.800,159.563 344.430,160.137 343.978 C 161.868 342.617,164.956 343.001,165.132 344.600 C 165.205 345.260,165.594 346.160,165.998 346.600 C 166.402 347.040,166.864 348.299,167.026 349.397 C 167.590 353.227,171.877 356.959,176.459 357.608 C 178.067 357.836,179.558 358.198,179.772 358.412 C 180.307 358.947,235.700 358.940,236.236 358.404 C 236.454 358.186,237.525 357.892,238.616 357.751 C 239.707 357.610,240.961 357.168,241.403 356.769 C 241.845 356.370,242.911 355.808,243.772 355.521 C 244.948 355.130,245.434 354.701,245.722 353.800 C 245.932 353.140,246.351 352.316,246.652 351.969 C 246.953 351.621,247.200 351.079,247.200 350.763 C 247.200 350.447,247.605 349.471,248.100 348.594 L 249.000 347.000 249.000 196.382 C 249.000 59.027,248.944 45.678,248.360 44.782 C 248.009 44.242,247.588 43.086,247.426 42.214 C 246.784 38.760,243.959 35.848,240.780 35.364 C 239.801 35.215,238.666 34.803,238.258 34.447 C 237.547 33.827,178.313 33.319,173.027 33.888 M296.624 34.613 C 296.196 34.936,295.240 35.200,294.497 35.200 C 291.344 35.200,290.151 38.056,293.100 38.543 C 295.058 38.867,360.942 38.867,362.900 38.543 C 366.581 37.935,364.223 35.200,360.017 35.200 C 358.992 35.200,357.804 34.936,357.376 34.613 C 356.208 33.729,297.792 33.729,296.624 34.613 M238.591 37.993 C 241.226 38.229,243.560 38.600,243.776 38.816 C 244.877 39.917,244.950 49.822,244.940 195.800 C 244.930 337.269,244.824 352.909,243.867 353.867 C 243.154 354.580,171.697 354.269,170.978 353.549 C 170.437 353.008,170.290 351.546,170.104 344.857 C 169.904 337.681,169.805 336.792,169.183 336.595 C 168.800 336.473,168.394 336.019,168.281 335.587 C 168.133 335.022,167.732 334.800,166.860 334.800 C 166.058 334.800,165.434 334.498,165.023 333.911 L 164.400 333.022 164.400 333.884 C 164.400 334.408,164.071 334.850,163.562 335.012 C 163.100 335.159,162.041 335.981,161.208 336.839 C 160.375 337.698,159.493 338.400,159.247 338.400 C 159.001 338.400,158.800 338.676,158.800 339.013 C 158.800 339.349,158.485 339.744,158.100 339.890 C 157.715 340.036,156.680 340.835,155.800 341.667 C 153.272 344.054,151.331 345.600,150.861 345.600 C 150.623 345.600,150.235 345.960,150.000 346.400 C 149.765 346.840,149.379 347.200,149.144 347.200 C 148.908 347.200,148.181 347.650,147.527 348.200 C 146.873 348.750,146.110 349.200,145.831 349.200 C 145.552 349.200,144.998 349.560,144.600 350.000 C 144.202 350.440,143.461 350.800,142.954 350.800 C 142.446 350.800,141.709 351.144,141.316 351.565 C 140.922 351.985,139.900 352.460,139.045 352.620 C 138.190 352.779,137.155 353.245,136.745 353.655 C 136.335 354.065,135.560 354.400,135.023 354.400 C 134.485 354.400,133.450 354.739,132.723 355.153 C 131.995 355.568,130.328 356.024,129.017 356.167 C 127.706 356.310,126.346 356.687,125.995 357.005 C 125.587 357.374,123.740 357.725,120.882 357.975 C 118.421 358.191,116.000 358.592,115.504 358.867 C 113.996 359.698,97.198 359.584,94.400 358.723 C 93.190 358.351,90.793 357.959,89.074 357.852 C 87.322 357.743,85.555 357.401,85.055 357.073 C 84.564 356.751,82.934 356.297,81.434 356.063 C 79.933 355.829,78.412 355.384,78.053 355.073 C 77.694 354.762,76.703 354.402,75.850 354.271 C 74.998 354.141,74.008 353.773,73.650 353.454 C 73.293 353.135,72.256 352.676,71.347 352.434 C 70.437 352.192,69.470 351.726,69.198 351.397 C 68.925 351.069,68.437 350.800,68.113 350.800 C 67.789 350.800,67.024 350.444,66.414 350.010 C 65.804 349.575,64.831 349.040,64.252 348.820 C 63.674 348.600,63.200 348.235,63.200 348.010 C 63.200 347.784,63.004 347.600,62.765 347.600 C 62.178 347.600,58.728 345.172,58.077 344.300 C 57.790 343.915,57.373 343.600,57.152 343.600 C 55.974 343.600,44.638 331.937,43.915 329.981 C 43.756 329.551,43.451 329.200,43.238 329.200 C 43.025 329.200,42.447 328.480,41.952 327.600 C 41.457 326.720,40.906 326.000,40.726 326.000 C 40.547 326.000,40.400 325.737,40.400 325.416 C 40.400 325.094,40.055 324.509,39.632 324.116 C 39.210 323.722,38.740 322.903,38.588 322.295 C 38.435 321.687,38.088 321.057,37.816 320.895 C 37.312 320.595,36.678 319.533,35.201 316.517 C 34.748 315.591,34.207 314.728,33.999 314.600 C 33.792 314.471,33.430 313.654,33.195 312.783 C 32.961 311.912,32.603 311.200,32.400 311.200 C 32.197 311.200,31.827 310.435,31.578 309.500 C 31.329 308.565,30.874 307.518,30.568 307.174 C 30.261 306.829,29.889 305.929,29.743 305.174 C 29.596 304.418,29.144 303.371,28.738 302.846 C 28.332 302.321,27.994 301.421,27.987 300.846 C 27.981 300.271,27.532 298.900,26.991 297.800 C 26.450 296.700,26.006 295.253,26.004 294.585 C 26.002 293.916,25.664 292.711,25.254 291.906 C 24.844 291.101,24.382 289.329,24.228 287.968 C 24.074 286.607,23.686 285.093,23.366 284.604 C 23.044 284.113,22.673 282.215,22.536 280.358 C 22.400 278.511,22.021 276.470,21.694 275.823 C 21.317 275.077,20.967 272.515,20.737 268.823 C 20.538 265.620,20.259 262.190,20.118 261.200 C 19.784 258.849,19.754 240.953,20.079 237.600 C 20.218 236.170,20.509 232.731,20.725 229.958 C 20.948 227.111,21.374 224.411,21.704 223.758 C 22.026 223.121,22.400 221.089,22.536 219.242 C 22.672 217.395,23.041 215.492,23.354 215.014 C 23.668 214.535,24.051 213.076,24.206 211.772 C 24.360 210.467,24.827 208.612,25.243 207.649 C 25.660 206.686,26.002 205.426,26.004 204.849 C 26.006 204.272,26.450 202.900,26.991 201.800 C 27.532 200.700,27.982 199.440,27.990 199.000 C 27.998 198.560,28.363 197.660,28.800 197.000 C 29.237 196.340,29.596 195.509,29.597 195.154 C 29.599 194.799,29.933 194.079,30.339 193.554 C 30.745 193.029,31.207 192.074,31.364 191.432 C 31.521 190.789,31.998 189.820,32.425 189.278 C 32.851 188.736,33.200 188.074,33.200 187.808 C 33.200 187.542,33.560 186.998,34.000 186.600 C 34.440 186.202,34.800 185.648,34.800 185.369 C 34.800 185.090,35.250 184.327,35.800 183.673 C 36.350 183.019,36.800 182.287,36.800 182.046 C 36.800 181.804,37.160 181.382,37.600 181.107 C 38.040 180.832,38.400 180.425,38.400 180.203 C 38.400 179.439,41.206 175.746,43.824 173.064 C 44.718 172.149,45.567 171.085,45.712 170.700 C 45.856 170.315,46.251 170.000,46.587 170.000 C 46.924 170.000,47.204 169.775,47.209 169.500 C 47.213 169.225,47.861 168.460,48.647 167.800 C 49.434 167.140,50.856 165.835,51.807 164.900 C 52.758 163.965,53.667 163.200,53.826 163.200 C 53.986 163.200,54.495 162.826,54.958 162.369 C 56.387 160.958,58.882 159.200,59.455 159.200 C 59.755 159.200,60.000 159.011,60.000 158.780 C 60.000 158.548,60.675 158.079,61.500 157.737 C 62.325 157.394,63.136 156.877,63.302 156.588 C 63.469 156.299,64.125 155.948,64.761 155.809 C 65.397 155.669,66.234 155.205,66.621 154.777 C 67.007 154.350,67.611 153.996,67.962 153.991 C 68.313 153.986,69.050 153.630,69.600 153.200 C 70.150 152.770,70.981 152.414,71.446 152.409 C 71.911 152.404,72.752 152.039,73.313 151.597 C 73.875 151.155,75.159 150.681,76.167 150.542 C 77.175 150.404,78.000 150.165,78.000 150.010 C 78.000 149.536,79.968 148.800,81.235 148.800 C 81.893 148.800,83.114 148.452,83.948 148.026 C 84.923 147.529,86.739 147.159,89.032 146.991 C 90.995 146.847,93.230 146.430,94.000 146.065 C 96.081 145.077,116.521 145.076,119.200 146.063 C 120.190 146.428,122.413 146.842,124.139 146.984 C 126.052 147.140,127.847 147.545,128.733 148.020 C 129.533 148.449,130.821 148.801,131.594 148.801 C 132.367 148.802,133.540 149.132,134.200 149.534 C 134.860 149.936,136.097 150.377,136.950 150.515 C 137.802 150.653,138.792 151.027,139.150 151.346 C 139.507 151.665,140.544 152.124,141.453 152.366 C 142.363 152.608,143.330 153.074,143.602 153.403 C 143.875 153.731,144.401 154.000,144.771 154.000 C 145.142 154.000,146.055 154.450,146.800 155.000 C 147.545 155.550,148.363 156.000,148.617 156.000 C 148.870 156.000,149.493 156.360,150.000 156.800 C 150.507 157.240,151.131 157.600,151.386 157.600 C 151.641 157.600,152.212 157.938,152.655 158.351 C 153.099 158.764,153.853 159.226,154.331 159.378 C 154.809 159.530,155.200 159.818,155.200 160.019 C 155.200 160.220,155.965 160.772,156.900 161.246 C 157.835 161.720,158.726 162.304,158.879 162.543 C 159.062 162.829,159.484 162.673,160.105 162.090 C 160.625 161.600,161.379 161.200,161.780 161.200 C 162.181 161.200,162.921 160.754,163.426 160.209 L 164.344 159.219 164.472 99.424 C 164.584 46.919,164.673 39.555,165.200 39.031 C 165.741 38.492,170.148 37.900,176.600 37.499 C 181.371 37.203,234.494 37.627,238.591 37.993 M286.485 41.275 C 286.218 41.542,286.000 42.134,286.000 42.591 C 286.000 43.048,285.685 43.867,285.300 44.411 C 284.375 45.718,284.190 345.383,285.114 346.496 C 285.396 346.837,285.736 348.033,285.869 349.155 C 286.322 352.981,287.758 352.871,288.501 348.953 C 289.392 344.254,289.360 46.051,288.468 43.305 C 287.693 40.915,287.274 40.486,286.485 41.275 M368.202 41.300 C 366.753 45.482,366.812 38.965,366.806 196.325 C 366.800 356.839,366.726 349.849,368.441 351.763 C 369.069 352.465,369.890 351.187,370.134 349.128 C 370.269 347.991,370.564 346.876,370.789 346.651 C 371.350 346.090,371.365 46.725,370.804 46.164 C 370.586 45.946,370.291 44.875,370.149 43.784 C 369.889 41.796,369.418 40.800,368.738 40.800 C 368.539 40.800,368.297 41.025,368.202 41.300 M113.776 218.219 C 113.323 218.537,111.793 218.913,110.376 219.055 C 108.890 219.204,107.039 219.713,106.003 220.257 C 105.015 220.776,103.753 221.200,103.199 221.200 C 102.626 221.200,101.978 221.544,101.693 222.000 C 101.418 222.440,100.844 222.800,100.417 222.800 C 99.990 222.800,99.156 223.250,98.562 223.800 C 97.969 224.350,97.347 224.800,97.180 224.800 C 96.884 224.800,94.949 226.409,92.851 228.400 C 90.935 230.219,87.713 234.186,87.439 235.064 C 87.290 235.539,86.906 236.146,86.585 236.413 C 86.263 236.680,86.000 237.212,86.000 237.595 C 86.000 237.978,85.655 238.731,85.233 239.267 C 84.811 239.804,84.338 240.953,84.182 241.821 C 84.026 242.690,83.606 243.734,83.249 244.142 C 82.160 245.387,82.033 260.248,83.095 262.297 C 83.523 263.124,83.998 264.589,84.150 265.554 C 84.302 266.518,84.781 267.758,85.213 268.308 C 85.646 268.858,86.000 269.690,86.000 270.158 C 86.000 270.625,86.344 271.222,86.764 271.485 C 87.184 271.747,87.649 272.512,87.797 273.184 C 87.944 273.857,88.410 274.591,88.833 274.817 C 89.255 275.043,89.600 275.485,89.600 275.800 C 89.600 276.115,89.960 276.565,90.400 276.800 C 90.840 277.035,91.200 277.480,91.200 277.787 C 91.200 278.095,91.551 278.457,91.980 278.594 C 92.408 278.730,92.870 279.192,93.006 279.620 C 93.143 280.049,93.505 280.400,93.813 280.400 C 94.120 280.400,94.565 280.760,94.800 281.200 C 95.035 281.640,95.485 282.000,95.800 282.000 C 96.115 282.000,96.557 282.345,96.783 282.767 C 97.009 283.190,97.716 283.650,98.355 283.790 C 98.994 283.931,99.834 284.395,100.221 284.823 C 100.607 285.250,101.232 285.600,101.608 285.600 C 101.984 285.600,102.721 285.934,103.246 286.342 C 103.771 286.750,104.920 287.213,105.800 287.372 C 106.680 287.530,107.850 287.961,108.400 288.330 C 110.120 289.483,124.680 289.552,126.856 288.418 C 127.746 287.954,129.260 287.467,130.222 287.335 C 131.184 287.203,132.275 286.759,132.647 286.348 C 133.020 285.936,133.632 285.600,134.008 285.600 C 134.384 285.600,135.150 285.240,135.709 284.800 C 136.269 284.360,136.890 284.000,137.090 284.000 C 137.291 284.000,138.162 283.353,139.027 282.563 C 139.892 281.772,141.066 280.827,141.636 280.463 C 143.342 279.372,148.800 272.387,148.800 271.294 C 148.800 271.039,149.136 270.509,149.547 270.116 C 149.958 269.722,150.412 268.743,150.557 267.940 C 150.703 267.137,151.070 266.274,151.373 266.022 C 151.677 265.770,152.051 264.447,152.204 263.082 C 152.357 261.717,152.778 259.970,153.141 259.200 C 153.947 257.488,154.049 250.681,153.289 249.325 C 153.020 248.844,152.605 247.054,152.367 245.348 C 152.102 243.437,151.641 241.869,151.168 241.268 C 150.746 240.731,150.400 239.877,150.400 239.370 C 150.400 238.862,150.205 238.327,149.967 238.180 C 149.729 238.032,149.213 237.164,148.822 236.250 C 148.430 235.336,147.815 234.344,147.455 234.045 C 147.095 233.747,146.800 233.207,146.800 232.847 C 146.800 232.487,146.440 231.968,146.000 231.693 C 145.560 231.418,145.200 230.925,145.200 230.597 C 145.200 230.268,145.014 230.000,144.787 230.000 C 144.249 230.000,141.600 227.351,141.600 226.813 C 141.600 226.586,141.332 226.400,141.003 226.400 C 140.675 226.400,140.182 226.040,139.907 225.600 C 139.632 225.160,139.122 224.800,138.774 224.800 C 138.425 224.800,137.717 224.350,137.200 223.800 C 136.683 223.250,135.938 222.800,135.544 222.800 C 135.150 222.800,134.635 222.440,134.400 222.000 C 134.131 221.497,133.562 221.200,132.871 221.200 C 132.265 221.200,131.056 220.835,130.185 220.388 C 129.313 219.941,127.421 219.407,125.979 219.201 C 124.538 218.994,122.699 218.550,121.892 218.213 C 119.993 217.419,114.912 217.423,113.776 218.219 M124.540 223.324 C 125.108 223.696,126.068 224.000,126.675 224.000 C 130.719 224.000,144.000 233.796,144.000 236.778 C 144.000 237.204,144.165 237.655,144.367 237.780 C 145.063 238.210,147.600 243.810,147.600 244.918 C 147.600 245.528,147.915 246.510,148.300 247.099 C 149.430 248.829,149.255 259.581,148.060 261.794 C 147.587 262.671,147.199 263.931,147.197 264.594 C 147.196 265.257,146.837 266.340,146.400 267.000 C 145.963 267.660,145.604 268.478,145.603 268.819 C 145.601 269.159,144.894 270.127,144.030 270.970 C 143.167 271.813,142.344 272.969,142.201 273.539 C 141.903 274.726,139.660 277.189,138.872 277.196 C 138.581 277.198,137.501 277.894,136.472 278.743 C 134.798 280.123,129.868 282.800,129.000 282.800 C 128.815 282.800,128.379 283.042,128.031 283.337 C 125.891 285.156,110.972 285.177,108.202 283.365 C 107.761 283.076,106.590 282.714,105.600 282.560 C 104.610 282.406,103.291 281.857,102.669 281.340 C 102.047 280.823,101.237 280.395,100.869 280.390 C 100.017 280.377,91.200 271.534,91.200 270.692 C 91.200 270.345,90.775 269.553,90.256 268.931 C 89.704 268.269,89.190 266.970,89.019 265.800 C 88.857 264.700,88.517 263.547,88.263 263.239 C 85.790 260.239,86.415 246.878,89.291 241.245 C 90.121 239.619,90.802 238.089,90.804 237.845 C 90.813 236.767,101.265 226.679,102.884 226.185 C 103.388 226.031,104.097 225.645,104.461 225.326 C 104.825 225.007,106.715 224.391,108.661 223.956 C 110.607 223.521,112.740 223.001,113.400 222.800 C 115.462 222.172,123.349 222.543,124.540 223.324 M295.670 354.003 C 289.527 354.375,289.432 354.417,291.062 356.047 C 292.846 357.831,298.602 358.093,332.387 357.932 C 360.092 357.801,360.207 357.797,362.000 356.921 C 362.990 356.437,364.295 355.857,364.900 355.631 C 366.479 355.041,366.258 354.523,364.300 354.227 C 361.695 353.832,301.718 353.637,295.670 354.003 " stroke="none" fill="#d1d4d4" fill-rule="evenodd"></path></g></svg>