<?xml version="1.0" encoding="UTF-8"?>
<svg width="100px" height="40px" viewBox="0 0 100 40" version="1.1" xmlns="http://www.w3.org/2000/svg" xmlns:xlink="http://www.w3.org/1999/xlink">
    <!-- Generator: Sketch 47.1 (45422) - http://www.bohemiancoding.com/sketch -->
    <title>logo</title>
    <desc>Created with Sketch.</desc>
    <defs></defs>
    <g id="Symbols" stroke="none" stroke-width="1" fill="none" fill-rule="evenodd">
        <g id="Navigation" transform="translate(-20.000000, 0.000000)" fill="#222222">
            <g transform="translate(20.000000, 0.000000)" id="logo">
                <g>
                    <g>
                        <path d="M39.5630143,19.8548699 C39.5630143,30.7993478 30.706468,39.6718503 19.7816725,39.6718503 C8.85687697,39.6718503 0.000330656703,30.7993478 0.000330656703,19.8548699 C0.000330656703,8.91039202 8.85687697,0.037889505 19.7816725,0.037889505 C30.706468,0.037889505 39.5630143,8.91039202 39.5630143,19.8548699 Z M32.3215046,14.5881771 C32.0632482,14.4373479 31.7445488,14.4373479 31.4862924,14.5881771 L20.8175554,20.8151127 C20.5582,20.9670429 20.3999493,21.2455816 20.3999493,21.54724 L20.3999493,24.8302531 C20.3999493,25.1319116 20.5582,25.4104503 20.8175554,25.5612795 C21.0736139,25.7110078 21.3879174,25.7110078 21.6450749,25.5645824 C21.6472728,25.5634814 21.6494707,25.5623805 21.6527676,25.5612795 L25.1628568,23.511323 L25.1628568,31.1232454 C25.1628568,31.4249038 25.3211076,31.7034425 25.579364,31.8542718 C25.7090416,31.9291359 25.8530059,31.9676689 25.9969701,31.9676689 C26.1409343,31.9676689 26.2848985,31.9291359 26.4145762,31.8542718 L28.5124974,30.6300227 C28.7707538,30.4791935 28.9301035,30.1995539 28.9301035,29.8989964 L28.9301035,21.3116382 L32.3215046,19.3310411 C32.579761,19.1802118 32.7391107,18.9016732 32.7391107,18.6000147 L32.7391107,15.3192035 C32.7391107,15.017545 32.579761,14.7390063 32.3215046,14.5881771 Z M20.8175554,12.5985523 L24.1803835,14.5615343 C24.1979669,14.5725437 24.2089566,14.5912597 24.2089566,14.6110767 L24.2089566,17.0485653 C24.2089566,17.3061861 24.4836974,17.4680247 24.705688,17.3381134 C26.0123556,16.5773615 29.5279396,14.528506 30.8236175,13.7754607 C31.0423112,13.6488522 31.0390143,13.3339824 30.8203206,13.206273 L21.6527676,7.85568828 C21.3945112,7.70485904 21.0758118,7.70485904 20.8175554,7.85568828 C20.5582,8.00651752 20.3999493,8.28505619 20.3999493,8.58671467 L20.3999493,11.8675259 C20.3999493,12.1691844 20.5582,12.447723 20.8175554,12.5985523 Z M18.9263492,7.8552479 C18.6680928,7.70441866 18.3493934,7.70441866 18.091137,7.8552479 L8.9191882,13.2091354 C8.7026924,13.3357439 8.69829655,13.64621 8.91479235,13.7728184 C10.2093713,14.5247628 13.7480335,16.5868297 15.0481073,17.3442787 C15.265702,17.4708872 15.5349481,17.3123513 15.5349481,17.0591344 L15.5349481,14.578709 L18.7615047,12.6949949 C19.1219647,12.4836138 19.3439553,12.0971827 19.3439553,11.6799251 L19.3439553,8.58627429 C19.3439553,8.28461581 19.1846056,8.00607714 18.9263492,7.8552479 Z M18.7460093,20.815443 L8.07617335,14.5885074 C7.8190159,14.4376781 7.50031651,14.4376781 7.2420601,14.5885074 C6.98380369,14.7393366 6.824454,15.0167743 6.824454,15.3184328 L6.824454,18.600345 C6.824454,18.9020034 6.98380369,19.1805421 7.2420601,19.3313714 L10.6334613,21.3108675 L10.6334613,29.8993266 C10.6334613,30.1998842 10.791712,30.4784228 11.0499684,30.6292521 L13.1489886,31.854602 C13.2786662,31.9294662 13.4226305,31.9679992 13.5665947,31.9679992 C13.7105589,31.9679992 13.8545231,31.9294662 13.9842008,31.854602 C14.2413582,31.7037728 14.4007079,31.4252341 14.4007079,31.1235756 L14.4007079,23.5116533 L17.9107971,25.5616098 C17.914094,25.5627108 17.9162919,25.5638117 17.9184899,25.5649126 C18.1756473,25.7113381 18.4899508,25.7102372 18.7460093,25.5616098 C19.0042657,25.4107806 19.1636154,25.1322419 19.1636154,24.8305834 L19.1636154,21.5464694 C19.1636154,21.2459119 19.0042657,20.9662722 18.7460093,20.815443 Z" id="Combined-Shape"></path>
                        <path d="M50.8424453,25.324907 C53.8239331,25.324907 55.749317,22.973292 55.749317,19.96001 C55.749317,16.9753526 53.8239331,14.6226366 50.8424453,14.6226366 L48.0730574,14.6226366 L48.0730574,25.324907 L50.8424453,25.324907 Z M43.9585383,11.2405386 C43.9585383,10.9763122 44.1695393,10.7385085 44.4332905,10.7385085 L50.8688204,10.7385085 C55.959219,10.7385085 60.1275873,14.886863 60.1275873,19.96001 C60.1275873,25.0871032 55.959219,29.2354578 50.8688204,29.2354578 L44.4332905,29.2354578 C44.1695393,29.2354578 43.9585383,28.997654 43.9585383,28.7334276 L43.9585383,11.2405386 Z" id="Fill-19"></path>
                        <path d="M62.3687035,17.6086152 C62.3687035,17.2651209 62.6324547,17.0273171 62.9478572,17.0273171 L64.214962,17.0273171 C64.5325625,17.0273171 64.6897142,17.1858529 64.7688396,17.3972341 L65.3227172,18.7447887 C65.8502196,17.767151 66.7733489,16.7630907 68.3558563,16.7630907 C69.4647104,16.7630907 70.2823392,17.0537397 70.7296173,17.3972341 C70.9417172,17.5557699 70.9417172,17.8199963 70.8098416,18.0578001 L69.595487,20.4622604 C69.4647104,20.7011651 69.2537094,20.8861236 68.9097338,20.7529094 C68.6987328,20.6736415 68.2514547,20.5679509 67.9866045,20.5679509 C67.0634753,20.5679509 66.3777221,21.2296179 66.3777221,22.2601009 L66.3777221,28.6543799 C66.3777221,29.0242969 66.1667211,29.235678 65.719443,29.235678 L62.9478572,29.235678 C62.6324547,29.235678 62.3687035,28.9714516 62.3687035,28.6543799 L62.3687035,17.6086152 Z" id="Fill-21"></path>
                        <path d="M73.2162418,17.6086152 C73.2162418,17.2651209 73.4788941,17.0273171 73.7953956,17.0273171 L76.6439088,17.0273171 C76.9615092,17.0273171 77.2241615,17.2651209 77.2241615,17.6086152 L77.2241615,28.6543799 C77.2241615,28.9714516 76.9615092,29.235678 76.6439088,29.235678 L73.7953956,29.235678 C73.4788941,29.235678 73.2162418,28.9714516 73.2162418,28.6543799 L73.2162418,17.6086152 Z M72.9250165,13.063921 C72.9250165,11.7956343 73.9272712,10.7387286 75.1932771,10.7387286 C76.4592829,10.7387286 77.4890117,11.7956343 77.4890117,13.063921 C77.4890117,14.3057851 76.4592829,15.3362681 75.1932771,15.3362681 C73.9272712,15.3362681 72.9250165,14.3057851 72.9250165,13.063921 L72.9250165,13.063921 Z" id="Fill-23"></path>
                        <path d="M81.0270145,20.6475491 L79.9720097,20.6475491 C79.6291331,20.6475491 79.391757,20.3833227 79.391757,20.066251 L79.391757,17.6089455 C79.391757,17.2654511 79.6291331,17.0276474 79.9720097,17.0276474 L81.0270145,17.0276474 L81.0270145,16.023587 C81.0270145,12.7460787 82.7413975,10.4737316 86.2756639,10.4737316 C87.8581713,10.4737316 89.4681527,11.1342976 89.9956551,11.6363278 C90.180281,11.7695419 90.2319323,12.0866136 90.1011556,12.3233164 L88.8087746,14.5956635 C88.6758001,14.8081456 88.3856737,14.8874135 88.1482976,14.7541994 C87.7526708,14.5174965 87.173517,14.2796928 86.5657903,14.2796928 C85.1942839,14.2796928 85.0349342,15.0459493 85.0349342,16.023587 L85.0349342,17.0276474 L88.0966463,17.0276474 C88.4120488,17.0276474 88.6758001,17.2654511 88.6758001,17.6089455 L88.6758001,20.066251 C88.6758001,20.3833227 88.4120488,20.6475491 88.0966463,20.6475491 L85.0349342,20.6475491 L85.0349342,28.6547102 C85.0349342,28.9717819 84.7459068,29.2360083 84.4305043,29.2360083 L81.6072672,29.2360083 C81.3171409,29.2360083 81.0270145,28.9717819 81.0270145,28.6547102 L81.0270145,20.6475491 Z" id="Fill-25"></path>
                        <path d="M92.3898569,20.3566799 L91.3876022,20.3566799 C91.0974759,20.3566799 90.8590008,20.0924535 90.8590008,19.7753818 L90.8590008,17.3180762 C90.8590008,16.9745819 91.0974759,16.7367781 91.3876022,16.7367781 L92.3898569,16.7367781 L92.3898569,13.3546802 C92.3898569,13.0376085 92.6536081,12.7722811 92.9701096,12.7722811 L95.871373,12.7722811 C96.1625983,12.7722811 96.3988755,13.0376085 96.3988755,13.3546802 L96.3988755,16.7367781 L98.8528608,16.7367781 C99.1682633,16.7367781 99.4320146,16.9745819 99.4320146,17.3180762 L99.4320146,19.7753818 C99.4320146,20.0924535 99.1682633,20.3566799 98.8528608,20.3566799 L96.3988755,20.3566799 L96.3988755,24.610725 C96.3988755,25.1931241 96.6890018,25.4562495 97.2176032,25.4562495 C97.6385062,25.4562495 98.4297599,25.271291 98.7209852,25.1931241 C99.0374867,25.1127552 99.3265141,25.2448684 99.4067384,25.563041 L99.9342408,27.8618108 C100.013366,28.2317277 99.8803916,28.3902636 99.538614,28.5487994 C98.7209852,28.8922937 97.3494789,29.2357881 96.0559989,29.2357881 C93.7360871,29.2357881 92.3898569,27.7561202 92.3898569,24.9817429 L92.3898569,20.3566799 Z" id="Fill-27"></path>
                    </g>
                </g>
            </g>
        </g>
    </g>
</svg>