<svg id="Layer_1" data-name="Layer 1" xmlns="http://www.w3.org/2000/svg" viewBox="0 0 612 160.74386"><defs><style>.cls-1{fill:#db1d56;}.cls-2{fill:#ee1555;}.cls-3{stroke:#000;stroke-miterlimit:10;stroke-width:3.5673px;}</style></defs><title>DueDil-logo</title><path class="cls-1" d="M82.21653,6.42522A74.56846,74.56846,0,0,0,21.52347,124.4013L39.1527,106.69667a50.20789,50.20789,0,1,1,17.60795,17.5291L39.12937,141.93245A74.61,74.61,0,1,0,82.21653,6.42522Z"/><circle class="cls-2" cx="82.21612" cy="81.05454" r="26.19333" transform="translate(-33.23367 81.8759) rotate(-45)"/><path class="cls-3" d="M233.66989,31.74845H191.95v96.71524h41.71987c29.52955,0,43.8876-20.86037,43.8876-48.8989C277.55749,47.46079,258.72986,31.74845,233.66989,31.74845Zm-1.49015,78.83517h-18.9635V49.62852h15.1715c21.13036,0,27.90353,12.46206,27.90353,31.96727C256.29127,102.99787,244.5068,110.58362,232.17974,110.58362Z"/><path class="cls-3" d="M336.75768,95.14214c0,14.22219-4.46958,20.04693-14.89977,20.04693-8.93916,0-12.32531-5.68888-12.32531-17.20249V58.43269H290.29737v43.0759c0,17.33836,5.14716,28.852,25.60168,28.852a24.98363,24.98363,0,0,0,21.40209-11.64948h.40585v9.75261h18.28592v-70.031H336.75768Z"/><path class="cls-3" d="M402.99842,56.53669c-21.26622,0-35.76014,15.98407-35.76014,36.97856,0,21.67382,13.68221,36.84531,35.76014,36.84531,15.84907,0,27.36269-7.044,32.78158-23.57068H418.84749c-1.21929,4.33546-7.44988,9.07677-15.17149,9.07677-10.70018,0-16.66078-5.55476-17.20249-17.74421h50.524C438.3527,76.58449,426.83909,56.53669,402.99842,56.53669ZM386.47351,85.93125c.27-5.41889,3.792-14.90064,15.98319-14.90064,9.34676,0,13.54635,5.14716,15.30736,14.90064Z"/><path class="cls-3" d="M492.134,31.74845H450.41326v96.71524H492.134c29.52955,0,43.8876-20.86037,43.8876-48.8989C536.0216,47.46079,517.19223,31.74845,492.134,31.74845Zm-1.491,78.83517h-18.9635V49.62852H486.851c21.13036,0,27.90266,12.46206,27.90266,31.96727C514.75364,102.99787,502.97,110.58362,490.643,110.58362Z"/><rect class="cls-3" x="549.30145" y="58.43269" width="19.23523" height="70.031"/><rect class="cls-3" x="549.30145" y="31.74845" width="19.23523" height="15.8482"/><rect class="cls-3" x="584.24989" y="31.74845" width="19.23523" height="96.71524"/></svg>