<svg id="svg" version="1.1" xmlns="http://www.w3.org/2000/svg" xmlns:xlink="http://www.w3.org/1999/xlink" width="400" height="333.203125" viewBox="0, 0, 400,333.203125"><g id="svgg"><path id="path0" d="M236.328 189.625 C 231.160 190.759,230.627 197.953,235.572 199.832 C 238.407 200.910,241.691 199.793,242.889 197.344 C 245.038 192.951,241.287 188.537,236.328 189.625 M172.785 196.533 C 172.725 196.990,172.569 198.792,172.439 200.537 L 172.203 203.711 170.082 203.711 L 167.960 203.711 168.013 207.373 L 168.066 211.035 170.154 211.090 L 172.241 211.146 172.309 220.172 C 172.398 232.073,172.922 233.641,177.441 235.521 C 180.107 236.630,189.546 236.340,190.519 235.120 C 190.582 235.040,189.674 228.085,189.589 228.001 C 189.554 227.965,189.224 228.023,188.856 228.128 C 187.716 228.455,184.955 228.366,184.194 227.978 C 182.606 227.169,182.374 225.659,182.464 216.699 L 182.520 211.230 186.426 211.133 L 190.332 211.035 190.385 207.377 L 190.438 203.719 186.479 203.666 L 182.520 203.613 182.467 199.658 L 182.414 195.703 177.655 195.703 L 172.896 195.703 172.785 196.533 M263.770 202.953 C 252.673 203.638,245.414 214.518,249.007 225.080 C 253.012 236.855,268.378 240.172,276.970 231.116 C 278.339 229.674,280.078 227.075,280.078 226.473 C 280.078 226.415,278.133 226.367,275.756 226.367 L 271.434 226.367 270.656 227.070 C 266.492 230.832,259.013 228.363,258.275 222.982 L 258.150 222.070 269.773 222.070 L 281.396 222.070 281.519 221.460 C 281.716 220.473,281.658 218.770,281.368 216.992 C 279.932 208.214,272.650 202.404,263.770 202.953 M80.078 203.055 C 70.621 204.882,64.615 213.719,66.520 223.006 C 69.612 238.082,90.143 241.178,97.554 227.686 L 98.278 226.367 93.898 226.367 L 89.518 226.367 88.675 227.145 C 84.631 230.879,76.873 228.176,76.338 222.847 L 76.270 222.168 87.891 222.070 L 99.512 221.973 99.504 219.336 C 99.483 211.829,95.044 205.831,87.793 203.511 C 86.447 203.080,81.469 202.786,80.078 203.055 M114.453 203.136 C 110.922 203.520,105.023 205.214,103.944 206.155 C 103.910 206.184,104.027 206.547,104.203 206.961 C 104.379 207.376,104.921 208.813,105.407 210.156 C 106.507 213.195,106.311 213.042,108.065 212.232 C 113.388 209.773,119.062 209.504,121.168 211.611 C 122.271 212.713,122.747 215.620,121.826 215.629 C 108.891 215.758,102.470 219.383,102.461 226.563 C 102.450 235.599,113.953 239.757,121.322 233.380 C 122.603 232.272,122.656 232.254,122.656 232.921 C 122.656 233.589,123.055 235.192,123.298 235.503 C 123.639 235.937,134.059 235.826,133.914 235.389 C 133.853 235.207,133.561 234.399,133.265 233.594 L 132.727 232.129 132.607 222.461 C 132.473 211.634,132.420 211.197,130.946 208.771 C 128.341 204.482,122.001 202.316,114.453 203.136 M148.535 203.131 C 141.842 204.163,138.069 208.094,138.321 213.772 C 138.542 218.723,141.181 221.181,148.491 223.245 C 153.975 224.793,155.078 225.390,155.078 226.810 C 155.078 230.225,146.784 229.550,141.602 225.712 L 140.723 225.061 138.725 228.107 C 136.415 231.628,136.490 231.373,137.546 232.129 C 147.730 239.418,162.448 237.045,164.646 227.759 C 166.031 221.909,162.974 218.216,154.688 215.727 C 153.022 215.227,151.193 214.678,150.621 214.507 C 149.224 214.089,148.117 213.264,147.953 212.519 C 147.225 209.204,154.610 209.092,159.916 212.337 C 160.589 212.749,161.174 213.086,161.216 213.086 C 161.309 213.086,164.380 207.845,164.552 207.393 C 164.872 206.552,160.752 204.426,157.031 203.511 C 155.125 203.043,150.462 202.834,148.535 203.131 M193.996 204.053 C 194.048 204.241,194.991 206.768,196.091 209.668 C 197.190 212.568,199.056 217.490,200.237 220.605 C 201.418 223.721,203.002 227.896,203.757 229.883 C 204.513 231.870,205.293 233.929,205.491 234.459 C 205.689 234.988,205.963 235.494,206.099 235.583 C 206.503 235.846,216.549 235.750,216.763 235.481 C 216.863 235.356,217.360 234.155,217.867 232.813 C 218.375 231.470,219.343 228.921,220.018 227.148 C 220.694 225.376,221.881 222.256,222.656 220.215 C 223.431 218.174,225.154 213.665,226.486 210.196 C 227.817 206.727,228.906 203.849,228.906 203.800 C 228.906 203.751,226.462 203.711,223.475 203.711 L 218.044 203.711 216.808 207.764 C 216.128 209.993,214.711 214.658,213.660 218.130 C 211.544 225.122,211.553 225.095,211.420 224.962 C 211.369 224.910,211.115 224.173,210.857 223.323 C 210.598 222.473,210.035 220.635,209.606 219.238 C 209.176 217.842,208.737 216.392,208.631 216.016 C 208.281 214.779,206.242 208.116,206.061 207.617 C 205.963 207.349,205.656 206.360,205.377 205.420 L 204.870 203.711 199.385 203.711 C 194.255 203.711,193.906 203.733,193.996 204.053 M232.665 219.678 L 232.715 235.645 237.842 235.697 L 242.969 235.749 242.969 219.730 L 242.969 203.711 237.792 203.711 L 232.615 203.711 232.665 219.678 M283.029 204.346 C 283.133 204.695,283.911 207.397,284.758 210.352 C 285.605 213.306,286.708 217.129,287.208 218.848 C 288.152 222.092,290.161 229.050,291.321 233.095 C 292.168 236.045,291.526 235.768,297.364 235.702 L 302.407 235.645 305.302 225.508 C 306.894 219.932,308.240 215.328,308.293 215.275 C 308.419 215.149,308.384 215.037,309.777 220.020 C 310.437 222.383,311.225 225.151,311.528 226.172 C 311.831 227.192,312.536 229.653,313.095 231.641 C 313.654 233.628,314.194 235.357,314.294 235.483 C 314.426 235.650,315.868 235.703,319.567 235.679 L 324.657 235.645 327.290 226.465 C 328.737 221.416,330.167 216.406,330.467 215.332 C 330.996 213.438,333.495 204.742,333.709 204.053 C 333.847 203.610,323.355 203.513,323.196 203.955 C 323.148 204.089,322.112 208.881,320.894 214.603 C 319.676 220.326,318.619 224.940,318.544 224.857 C 318.469 224.775,317.244 219.983,315.821 214.209 L 313.234 203.711 308.325 203.711 L 303.417 203.711 300.814 214.111 C 297.966 225.493,298.072 225.091,297.956 224.975 C 297.912 224.930,297.735 224.236,297.563 223.433 C 297.392 222.630,297.082 221.182,296.876 220.215 C 296.669 219.248,296.284 217.446,296.021 216.211 C 294.399 208.597,293.538 204.590,293.435 204.180 L 293.317 203.711 288.078 203.711 L 282.840 203.711 283.029 204.346 M84.869 209.873 C 87.490 210.556,89.313 212.478,89.741 215.010 L 89.878 215.820 83.025 215.820 L 76.172 215.820 76.174 215.283 C 76.186 211.830,80.965 208.856,84.869 209.873 M266.630 209.836 C 269.277 210.459,271.671 212.996,271.678 215.186 L 271.680 215.820 264.819 215.820 L 257.959 215.820 258.083 215.198 C 258.857 211.329,262.708 208.913,266.630 209.836 M122.266 223.799 C 122.266 227.586,120.469 229.501,116.927 229.488 C 112.380 229.472,111.147 224.052,115.288 222.283 C 116.526 221.754,118.807 221.372,121.045 221.318 L 122.266 221.289 122.266 223.799 M138.161 245.817 C 137.134 246.324,136.757 247.894,137.456 248.756 C 139.029 250.699,142.078 249.056,141.126 246.778 C 140.653 245.646,139.358 245.226,138.161 245.817 M171.831 245.812 C 170.301 246.643,170.673 249.208,172.370 249.526 C 173.857 249.805,175.000 248.993,175.000 247.658 C 175.000 245.950,173.350 244.988,171.831 245.812 M107.813 255.943 L 107.813 265.793 109.571 265.855 L 111.329 265.918 111.329 261.900 C 111.328 255.863,112.657 253.607,115.564 254.713 C 117.029 255.271,117.082 255.477,117.154 260.951 L 117.218 265.820 118.960 265.820 L 120.703 265.820 120.701 260.791 C 120.698 254.081,120.404 253.019,118.281 252.030 C 116.293 251.105,113.752 251.603,112.296 253.203 C 111.340 254.253,111.328 254.214,111.328 250.000 L 111.328 246.094 109.570 246.094 L 107.813 246.094 107.813 255.943 M233.984 255.957 L 233.984 265.820 235.742 265.820 L 237.500 265.820 237.502 261.572 L 237.504 257.324 238.090 256.302 C 239.005 254.706,240.401 254.149,241.908 254.778 C 243.094 255.274,243.224 255.868,243.318 261.230 L 243.401 265.918 245.089 265.857 L 246.777 265.796 246.680 260.095 C 246.596 255.223,246.534 254.307,246.250 253.789 C 244.808 251.155,240.954 250.777,238.595 253.037 C 238.097 253.515,237.646 253.906,237.594 253.906 C 237.542 253.906,237.500 252.148,237.500 250.000 L 237.500 246.094 235.742 246.094 L 233.984 246.094 233.984 255.957 M295.117 255.949 L 295.117 265.820 296.875 265.820 L 298.633 265.820 298.633 261.659 C 298.633 256.269,299.185 254.954,301.613 254.560 C 303.961 254.179,304.389 255.182,304.392 261.083 L 304.395 265.819 306.215 265.820 L 308.035 265.820 307.973 260.400 C 307.915 255.361,307.881 254.918,307.495 254.083 C 306.058 250.976,302.008 250.637,299.399 253.406 L 298.730 254.115 298.633 250.153 L 298.535 246.191 296.826 246.135 L 295.117 246.079 295.117 255.949 M160.865 248.202 C 160.812 248.287,160.707 249.122,160.631 250.057 L 160.493 251.758 159.543 251.758 L 158.594 251.758 158.594 253.017 L 158.594 254.275 159.521 254.335 L 160.449 254.395 160.547 259.082 C 160.684 265.674,161.532 266.738,166.120 266.077 C 167.913 265.818,167.768 265.969,167.635 264.509 L 167.526 263.300 166.289 263.339 C 164.186 263.407,164.160 263.347,164.160 258.442 L 164.160 254.395 165.967 254.338 L 167.773 254.282 167.773 253.020 L 167.773 251.758 165.918 251.758 L 164.063 251.758 164.063 249.902 L 164.063 248.047 162.512 248.047 C 161.658 248.047,160.917 248.117,160.865 248.202 M96.767 251.920 C 89.131 254.768,91.019 266.140,99.121 266.106 C 101.404 266.096,104.492 264.896,104.492 264.018 C 104.492 263.264,103.072 261.706,102.658 262.005 C 99.223 264.487,95.679 262.872,95.659 258.816 C 95.640 254.946,99.283 253.103,102.284 255.464 C 102.957 255.993,102.936 256.001,103.785 254.864 L 104.528 253.868 103.980 253.295 C 102.525 251.776,98.969 251.098,96.767 251.920 M131.102 252.155 C 130.538 252.479,129.878 253.048,129.637 253.420 C 129.075 254.288,128.907 254.277,128.904 253.369 C 128.898 251.793,128.857 251.758,127.028 251.758 L 125.391 251.758 125.391 258.789 L 125.391 265.820 125.879 265.833 C 126.147 265.839,126.851 265.845,127.441 265.845 C 128.032 265.845,128.604 265.839,128.711 265.833 C 128.834 265.825,128.907 264.427,128.908 262.061 C 128.911 256.568,130.165 254.479,133.192 254.923 C 133.849 255.019,133.877 254.957,134.090 252.881 L 134.225 251.563 133.177 251.564 C 132.371 251.566,131.892 251.702,131.102 252.155 M148.154 251.909 C 144.617 253.086,144.058 257.652,147.253 259.271 C 147.782 259.539,149.038 260.022,150.043 260.344 C 151.871 260.929,152.734 261.471,152.734 262.032 C 152.734 263.836,149.198 263.933,146.865 262.194 L 146.191 261.692 145.361 262.628 C 144.381 263.733,144.360 263.863,145.078 264.393 C 148.911 267.227,154.779 266.551,155.941 263.143 C 156.914 260.287,155.738 258.700,151.650 257.348 C 149.077 256.497,148.633 256.223,148.633 255.488 C 148.633 254.028,151.035 253.695,153.348 254.834 C 154.940 255.618,154.736 255.652,155.461 254.474 C 156.161 253.337,156.104 253.162,154.821 252.508 C 152.891 251.523,150.073 251.270,148.154 251.909 M182.129 251.839 C 179.296 252.490,179.056 252.726,179.700 254.228 C 180.211 255.420,180.107 255.366,181.009 254.906 C 183.679 253.544,186.773 254.009,187.327 255.855 C 187.684 257.049,187.516 257.227,186.033 257.227 C 180.722 257.227,177.580 259.843,178.738 263.301 C 179.717 266.224,184.132 267.198,186.597 265.034 C 187.424 264.308,187.429 264.309,187.585 265.137 L 187.713 265.820 189.664 265.820 L 191.615 265.820 191.364 265.381 C 191.188 265.071,191.082 263.525,191.008 260.156 C 190.892 254.894,190.795 254.408,189.613 253.187 C 188.260 251.789,184.944 251.192,182.129 251.839 M202.051 251.798 C 201.305 252.059,200.242 252.833,199.590 253.590 L 199.083 254.180 198.946 252.969 L 198.809 251.758 197.158 251.758 L 195.508 251.758 195.507 258.838 L 195.507 265.918 197.265 265.855 L 199.023 265.793 199.028 261.656 C 199.033 256.193,199.820 254.494,202.344 254.494 C 204.453 254.494,204.745 255.263,204.840 261.084 L 204.918 265.820 206.674 265.820 L 208.431 265.820 208.365 260.400 C 208.293 254.498,208.182 253.867,207.007 252.741 C 205.897 251.678,203.630 251.246,202.051 251.798 M223.103 251.846 C 217.945 253.458,216.384 260.452,220.302 264.393 C 222.616 266.720,228.071 266.721,230.240 264.395 L 230.695 263.907 229.968 262.813 C 229.190 261.641,229.079 261.568,228.725 261.995 C 227.226 263.800,223.372 263.364,222.293 261.266 C 220.001 256.813,224.389 252.525,228.280 255.415 C 229.017 255.961,229.099 255.925,230.030 254.627 L 230.647 253.768 230.119 253.287 C 228.430 251.750,225.401 251.128,223.103 251.846 M275.391 251.705 C 274.705 251.965,273.430 252.980,273.112 253.519 C 272.627 254.339,272.529 254.260,272.379 252.930 L 272.246 251.758 270.596 251.758 L 268.945 251.758 268.945 258.775 L 268.945 265.793 270.704 265.855 L 272.462 265.918 272.470 262.109 C 272.482 256.557,273.567 254.604,276.460 254.931 L 277.307 255.026 277.416 254.222 C 277.476 253.780,277.582 253.000,277.652 252.490 L 277.779 251.563 276.731 251.578 C 276.155 251.586,275.552 251.643,275.391 251.705 M284.236 251.846 C 277.288 254.017,277.712 264.521,284.809 266.043 C 286.872 266.486,289.703 265.857,291.057 264.655 L 291.854 263.948 291.114 262.833 C 290.245 261.523,290.421 261.581,289.442 262.291 C 286.037 264.757,282.077 261.871,282.995 257.591 C 283.647 254.552,287.328 253.451,289.659 255.596 L 290.159 256.055 290.989 254.932 L 291.819 253.809 291.002 253.076 C 289.523 251.751,286.372 251.178,284.236 251.846 M137.435 251.888 C 137.363 251.960,137.305 255.124,137.305 258.919 L 137.305 265.820 139.160 265.820 L 141.016 265.820 141.016 258.789 L 141.016 251.758 139.290 251.758 C 138.341 251.758,137.507 251.816,137.435 251.888 M171.183 252.003 C 171.131 252.138,171.112 255.317,171.140 259.068 L 171.191 265.888 172.949 265.868 L 174.707 265.848 174.744 259.081 C 174.764 255.358,174.733 252.188,174.674 252.035 C 174.531 251.662,171.325 251.633,171.183 252.003 M251.403 257.373 C 251.472 263.672,251.516 263.881,253.019 265.201 C 254.792 266.757,257.872 266.416,259.632 264.467 C 260.468 263.542,260.547 263.513,260.547 264.136 C 260.547 264.391,260.602 264.874,260.669 265.210 L 260.791 265.820 262.427 265.820 L 264.063 265.820 264.063 258.789 L 264.063 251.758 262.305 251.758 L 260.547 251.758 260.547 256.032 L 260.547 260.307 260.007 261.355 C 259.285 262.755,258.116 263.395,256.815 263.103 C 255.096 262.717,254.885 261.964,254.884 256.201 L 254.883 251.758 253.112 251.758 L 251.340 251.758 251.403 257.373 M187.459 260.559 C 187.548 262.565,186.187 263.821,184.139 263.624 C 180.893 263.312,181.672 259.904,185.108 259.387 C 187.329 259.054,187.394 259.086,187.459 260.559 " stroke="none" fill="#343542" fill-rule="evenodd"></path><path id="path1" d="M0.000 166.602 L 0.000 333.203 200.000 333.203 L 400.000 333.203 400.000 166.602 L 400.000 0.000 200.000 0.000 L 0.000 0.000 0.000 166.602 M195.508 70.981 L 195.508 74.969 194.971 75.077 C 194.675 75.137,193.818 75.284,193.066 75.405 C 182.442 77.107,173.231 82.608,165.941 91.604 C 154.891 105.238,154.170 126.177,164.224 141.406 C 165.040 142.642,165.755 143.696,165.813 143.750 C 165.871 143.804,166.561 144.612,167.346 145.546 C 173.887 153.326,183.692 158.754,193.799 160.187 L 195.508 160.430 195.508 164.515 L 195.508 168.600 194.189 168.471 C 175.089 166.593,157.686 152.480,151.544 133.887 C 148.619 125.030,148.132 114.197,150.290 105.957 C 154.657 89.280,165.348 76.785,180.669 70.453 C 184.912 68.699,191.409 67.082,194.482 67.015 L 195.508 66.992 195.508 70.981 M207.961 67.291 C 218.525 68.948,227.604 73.570,236.148 81.641 C 242.262 87.415,247.149 96.179,249.710 105.957 C 255.678 128.747,242.889 154.654,220.884 164.352 C 215.872 166.561,208.213 168.555,204.741 168.555 C 204.547 168.555,204.492 167.654,204.492 164.480 L 204.492 160.405 205.615 160.274 C 229.839 157.440,247.058 133.301,242.061 109.180 C 238.455 91.773,224.168 78.033,206.934 75.397 C 206.182 75.282,205.325 75.139,205.029 75.079 L 204.492 74.969 204.492 70.981 L 204.492 66.992 205.276 66.992 C 205.706 66.992,206.915 67.126,207.961 67.291 M205.371 91.108 C 217.223 93.585,225.570 102.834,226.966 115.039 C 227.187 116.968,227.107 120.856,226.832 121.574 C 226.729 121.842,224.692 121.875,208.085 121.875 L 189.453 121.875 189.460 122.314 C 189.475 123.301,190.033 125.292,190.637 126.519 C 193.778 132.899,204.037 134.521,209.400 129.487 L 210.414 128.535 217.523 128.504 C 221.434 128.488,224.680 128.522,224.739 128.580 C 225.017 128.858,222.464 133.221,221.007 134.959 C 205.408 153.553,175.154 144.220,173.008 120.151 C 172.546 114.976,173.768 108.770,176.004 104.928 C 177.629 102.137,178.075 101.507,179.878 99.456 C 185.775 92.748,196.467 89.247,205.371 91.108 M197.280 102.252 C 193.266 103.375,189.748 107.119,189.321 110.723 L 189.203 111.722 200.021 111.672 L 210.840 111.621 210.782 110.645 C 210.446 104.974,203.340 100.557,197.280 102.252 M240.297 189.768 C 243.753 190.987,244.780 195.748,242.217 198.667 C 240.190 200.975,235.102 200.867,233.244 198.476 C 229.505 193.663,234.357 187.672,240.297 189.768 M182.617 199.508 L 182.617 203.508 186.572 203.560 L 190.527 203.613 190.580 207.369 L 190.633 211.125 186.674 211.178 L 182.715 211.230 182.715 218.652 C 182.715 227.054,182.704 226.992,184.277 227.809 C 185.139 228.256,187.231 228.326,188.831 227.962 C 189.445 227.822,189.697 227.832,189.757 227.996 C 189.866 228.294,190.410 232.366,190.559 233.995 L 190.675 235.275 189.918 235.501 C 185.033 236.959,178.610 236.688,175.950 234.912 C 172.518 232.620,172.074 230.777,172.072 218.799 L 172.070 211.133 169.922 211.133 L 167.773 211.133 167.773 207.324 L 167.773 203.516 169.903 203.516 L 172.032 203.516 172.152 202.393 C 172.271 201.282,172.655 196.224,172.656 195.752 C 172.656 195.563,173.783 195.508,177.637 195.508 L 182.617 195.508 182.617 199.508 M87.500 203.279 C 94.985 205.517,99.805 211.952,99.805 219.709 C 99.805 220.775,99.751 221.787,99.686 221.957 C 99.580 222.234,98.366 222.266,87.972 222.266 L 76.377 222.266 76.488 222.900 C 77.441 228.359,84.677 230.707,88.732 226.874 L 89.475 226.172 93.826 226.172 C 98.782 226.172,98.573 226.112,97.947 227.348 C 90.035 242.962,66.023 237.084,66.017 219.531 C 66.013 208.585,77.125 200.179,87.500 203.279 M156.489 203.233 C 159.711 203.908,164.844 206.288,164.844 207.107 C 164.844 207.323,161.748 212.686,161.401 213.070 C 161.187 213.307,161.043 213.275,160.409 212.853 C 155.210 209.391,148.047 209.053,148.047 212.270 C 148.047 213.220,149.181 213.966,151.669 214.654 C 161.340 217.330,164.225 219.393,164.906 224.122 C 166.279 233.651,154.891 239.336,142.871 235.124 C 140.500 234.293,136.523 231.963,136.523 231.406 C 136.523 231.165,140.582 225.000,140.741 225.000 C 140.813 225.000,141.294 225.304,141.811 225.675 C 146.973 229.384,154.883 230.065,154.883 226.801 C 154.883 225.472,154.062 224.979,149.981 223.856 C 140.679 221.297,137.723 218.435,138.153 212.402 C 138.656 205.351,146.908 201.224,156.489 203.233 M268.319 203.043 C 276.493 204.719,282.759 213.089,281.709 220.931 L 281.543 222.168 269.944 222.218 L 258.346 222.269 258.465 223.138 C 259.169 228.273,266.463 230.559,270.580 226.935 L 271.447 226.172 275.860 226.172 C 278.785 226.172,280.273 226.240,280.273 226.375 C 280.273 227.687,276.815 231.916,274.426 233.524 C 263.107 241.147,248.034 233.213,248.050 219.641 C 248.063 208.765,257.707 200.868,268.319 203.043 M122.457 203.319 C 126.928 204.231,129.812 206.166,131.376 209.307 C 132.598 211.761,132.641 212.169,132.796 222.852 L 132.936 232.520 133.433 233.789 C 133.706 234.487,133.995 235.212,134.076 235.400 C 134.213 235.721,133.881 235.742,128.644 235.742 L 123.066 235.742 122.733 234.191 L 122.399 232.641 121.409 233.507 C 115.040 239.079,104.057 236.466,102.538 229.018 C 100.820 220.595,107.403 215.651,120.367 215.628 L 122.276 215.625 122.166 214.600 C 121.819 211.400,120.419 210.442,116.113 210.460 C 113.162 210.472,111.011 210.983,108.293 212.316 C 106.265 213.311,106.471 213.417,105.531 210.888 C 105.083 209.680,104.489 208.095,104.212 207.365 L 103.709 206.039 104.997 205.461 C 110.087 203.177,117.374 202.284,122.457 203.319 M206.519 208.545 C 207.358 211.311,208.293 214.409,208.597 215.430 C 209.619 218.865,211.365 224.511,211.424 224.573 C 211.513 224.666,212.264 222.290,214.654 214.355 C 215.851 210.381,217.079 206.338,217.383 205.371 L 217.936 203.613 223.533 203.561 L 229.130 203.510 228.992 203.952 C 228.917 204.195,227.978 206.680,226.906 209.473 C 225.835 212.266,224.058 216.924,222.958 219.824 C 221.858 222.725,220.044 227.494,218.926 230.423 L 216.895 235.748 211.338 235.696 L 205.782 235.645 203.670 230.078 C 202.509 227.017,200.363 221.348,198.902 217.480 C 197.440 213.613,195.683 208.978,194.997 207.181 C 194.311 205.383,193.750 203.823,193.750 203.714 C 193.750 203.584,195.702 203.516,199.372 203.516 L 204.993 203.516 206.519 208.545 M243.164 219.629 L 243.164 235.742 237.891 235.742 L 232.617 235.742 232.617 219.629 L 232.617 203.516 237.891 203.516 L 243.164 203.516 243.164 219.629 M293.640 204.248 C 293.784 205.063,294.879 210.263,295.604 213.574 C 295.862 214.756,296.440 217.437,296.887 219.531 C 297.745 223.555,297.986 224.573,298.041 224.414 C 298.059 224.360,299.245 219.658,300.676 213.965 L 303.277 203.613 308.319 203.613 L 313.361 203.613 315.864 213.770 C 317.240 219.355,318.421 224.058,318.487 224.219 C 318.618 224.535,318.677 224.319,319.423 220.801 C 319.673 219.619,320.606 215.247,321.496 211.084 L 323.114 203.516 328.562 203.516 C 333.662 203.516,334.004 203.538,333.904 203.857 C 333.709 204.483,326.534 229.557,325.982 231.543 C 325.684 232.617,325.290 234.001,325.108 234.619 L 324.777 235.742 319.420 235.742 C 316.473 235.742,314.063 235.690,314.063 235.625 C 314.063 235.561,313.326 232.946,312.427 229.815 C 311.527 226.683,310.746 223.945,310.692 223.730 C 310.431 222.707,308.379 215.736,308.322 215.679 C 308.287 215.643,308.107 216.166,307.923 216.840 C 307.739 217.515,307.504 218.330,307.401 218.652 C 307.299 218.975,306.334 222.358,305.257 226.172 C 304.180 229.985,303.124 233.699,302.911 234.424 L 302.523 235.742 297.209 235.741 L 291.895 235.739 290.665 231.395 C 289.989 229.006,289.124 225.996,288.743 224.707 C 288.362 223.418,287.716 221.177,287.307 219.727 C 286.300 216.155,283.662 207.031,283.192 205.497 C 282.526 203.319,282.031 203.516,288.162 203.516 L 293.511 203.516 293.640 204.248 M80.691 210.186 C 78.555 210.925,76.608 213.181,76.334 215.234 L 76.270 215.723 82.866 215.774 C 90.377 215.833,89.943 215.941,89.377 214.146 C 88.337 210.849,84.213 208.969,80.691 210.186 M263.048 210.026 C 260.791 210.665,258.203 213.500,258.203 215.333 L 258.203 215.794 264.871 215.805 L 271.538 215.816 271.420 214.821 C 271.017 211.418,266.753 208.976,263.048 210.026 M118.457 221.675 C 114.871 222.096,112.891 223.560,112.891 225.791 C 112.891 229.376,117.745 230.563,120.938 227.759 C 122.005 226.823,122.213 226.177,122.252 223.682 L 122.287 221.484 120.958 221.511 C 120.227 221.526,119.102 221.600,118.457 221.675 M140.851 246.038 C 142.143 247.330,141.287 249.542,139.416 249.747 C 137.447 249.963,136.190 247.778,137.390 246.222 C 138.074 245.335,140.044 245.230,140.851 246.038 M174.187 245.757 C 175.115 246.215,175.450 247.573,174.899 248.639 C 173.870 250.629,170.701 249.847,170.704 247.604 C 170.706 245.815,172.440 244.896,174.187 245.757 M111.523 249.941 L 111.523 253.788 112.331 252.972 C 114.256 251.028,117.947 250.875,119.573 252.672 C 120.663 253.878,120.783 254.607,120.863 260.498 L 120.938 266.016 118.965 266.016 L 116.992 266.016 116.991 261.475 C 116.990 255.558,116.703 254.688,114.755 254.688 C 112.195 254.688,111.523 256.170,111.523 261.817 L 111.523 266.030 109.619 265.974 L 107.715 265.918 107.664 256.006 L 107.614 246.094 109.569 246.094 L 111.523 246.094 111.523 249.941 M237.695 249.917 L 237.695 253.741 238.167 253.180 C 239.934 251.080,243.751 250.820,245.539 252.677 C 246.769 253.955,246.875 254.587,246.875 260.651 L 246.875 266.016 245.020 266.016 L 243.164 266.016 243.163 261.572 C 243.162 255.701,242.809 254.688,240.769 254.688 C 238.346 254.688,237.806 255.893,237.734 261.460 L 237.675 266.016 235.732 266.016 L 233.789 266.016 233.789 256.055 L 233.789 246.094 235.742 246.094 L 237.695 246.094 237.695 249.917 M298.828 249.916 L 298.828 253.739 299.463 253.068 C 302.036 250.352,306.600 251.051,307.745 254.337 C 308.061 255.243,308.105 256.023,308.105 260.645 L 308.105 265.918 306.214 265.974 L 304.322 266.029 304.260 261.189 C 304.186 255.286,303.971 254.688,301.931 254.688 C 299.499 254.688,298.828 256.212,298.828 261.743 L 298.828 266.016 296.875 266.016 L 294.922 266.016 294.922 256.055 L 294.922 246.094 296.875 246.094 L 298.828 246.094 298.828 249.916 M164.258 249.902 L 164.258 251.758 166.122 251.758 L 167.986 251.758 167.928 253.154 L 167.871 254.549 166.053 254.509 L 164.235 254.468 164.295 258.502 L 164.355 262.535 164.844 262.931 C 165.254 263.263,165.510 263.308,166.444 263.210 L 167.555 263.094 167.675 263.920 C 168.000 266.177,167.941 266.228,164.941 266.265 C 160.996 266.314,160.354 265.248,160.353 258.643 L 160.352 254.492 159.375 254.492 L 158.398 254.492 158.398 253.125 L 158.398 251.758 159.347 251.758 L 160.296 251.758 160.421 250.557 C 160.490 249.897,160.547 249.062,160.547 248.702 L 160.547 248.047 162.402 248.047 L 164.258 248.047 164.258 249.902 M101.906 251.879 C 102.885 252.229,104.664 253.440,104.680 253.768 C 104.694 254.057,103.080 256.055,102.832 256.055 C 102.697 256.055,102.466 255.909,102.319 255.731 C 100.369 253.374,96.150 254.948,95.768 258.174 C 95.286 262.239,100.050 264.816,102.527 261.831 C 102.948 261.324,103.188 261.471,103.955 262.711 C 104.859 264.172,104.861 264.130,103.886 264.836 C 99.212 268.222,92.882 265.804,92.028 260.309 C 91.087 254.248,96.235 249.854,101.906 251.879 M134.255 252.051 C 134.243 252.373,134.172 253.208,134.098 253.906 L 133.964 255.176 132.719 255.176 C 131.284 255.176,130.730 255.486,129.785 256.822 L 129.199 257.650 129.136 261.833 L 129.074 266.016 127.135 266.016 L 125.195 266.016 125.195 258.887 L 125.195 251.758 127.026 251.758 L 128.856 251.758 128.988 252.756 L 129.121 253.755 129.856 252.958 C 131.344 251.347,134.305 250.736,134.255 252.051 M154.102 252.034 C 155.785 252.725,156.407 253.235,156.099 253.676 C 155.974 253.856,155.635 254.421,155.346 254.931 L 154.821 255.859 154.217 255.455 C 151.943 253.937,149.012 253.914,148.865 255.413 C 148.793 256.160,148.939 256.247,152.109 257.338 C 155.412 258.474,156.324 259.407,156.308 261.629 C 156.276 266.025,150.438 267.852,145.661 264.960 C 144.161 264.052,144.129 263.909,145.135 262.635 C 145.903 261.664,146.484 261.249,146.484 261.674 C 146.484 262.504,150.537 263.592,151.754 263.088 C 153.409 262.402,152.552 261.287,149.673 260.381 C 146.226 259.296,145.028 258.156,145.023 255.957 C 145.013 252.198,149.633 250.201,154.102 252.034 M187.657 251.814 C 190.629 252.860,191.211 254.292,191.211 260.563 C 191.211 263.590,191.277 264.623,191.504 265.167 C 191.665 265.552,191.797 265.904,191.797 265.948 C 191.797 265.993,190.857 266.004,189.709 265.973 L 187.622 265.918 187.455 265.273 L 187.288 264.628 186.687 265.134 C 183.910 267.470,179.213 266.252,178.519 263.015 C 177.748 259.422,180.891 257.036,186.403 257.032 L 187.356 257.031 187.249 256.235 C 186.984 254.256,184.193 253.653,181.344 254.957 C 180.065 255.542,180.108 255.561,179.511 254.131 C 178.955 252.802,178.998 252.716,180.494 252.190 C 182.965 251.320,185.825 251.170,187.657 251.814 M205.326 251.637 C 208.085 252.467,208.382 253.310,208.405 260.376 L 208.423 265.918 206.568 265.974 L 204.712 266.029 204.651 261.189 C 204.575 255.140,204.277 254.429,201.955 254.741 C 199.709 255.042,199.219 256.294,199.219 261.724 L 199.219 266.016 197.266 266.016 L 195.313 266.016 195.313 258.887 L 195.313 251.758 197.168 251.758 L 199.023 251.758 199.026 252.295 C 199.033 253.636,199.176 253.720,200.058 252.898 C 201.512 251.542,203.461 251.075,205.326 251.637 M227.298 251.646 C 228.467 251.957,229.778 252.676,230.410 253.352 L 230.839 253.812 230.019 254.931 C 229.053 256.248,229.156 256.223,228.017 255.420 C 226.065 254.044,223.166 254.695,222.249 256.716 C 220.352 260.893,224.449 264.681,228.162 262.182 C 228.700 261.820,229.166 261.523,229.196 261.523 C 229.226 261.523,229.631 262.106,230.095 262.819 L 230.939 264.114 230.362 264.581 C 226.492 267.713,220.636 266.584,218.702 262.333 C 215.957 256.296,221.038 249.979,227.298 251.646 M277.763 252.539 C 277.725 253.130,277.634 253.965,277.561 254.395 L 277.429 255.176 276.432 255.111 C 273.546 254.922,272.656 256.570,272.656 262.103 L 272.656 266.016 270.703 266.016 L 268.750 266.016 268.750 258.887 L 268.750 251.758 270.605 251.758 L 272.461 251.758 272.464 252.295 C 272.470 253.631,272.653 253.804,273.268 253.058 C 274.097 252.052,275.647 251.340,276.855 251.409 L 277.832 251.465 277.763 252.539 M289.344 251.964 C 289.983 252.204,290.844 252.717,291.259 253.104 L 292.012 253.809 291.096 255.040 L 290.180 256.271 289.670 255.783 C 287.530 253.733,283.986 254.581,283.226 257.324 C 281.981 261.820,286.467 264.897,289.812 261.842 L 290.268 261.426 290.658 261.907 C 290.872 262.171,291.276 262.778,291.556 263.254 L 292.063 264.121 291.491 264.598 C 287.003 268.337,280.113 265.925,279.285 260.326 C 278.366 254.102,283.554 249.789,289.344 251.964 M141.211 258.887 L 141.211 266.016 139.258 266.016 L 137.305 266.016 137.305 258.887 L 137.305 251.758 139.258 251.758 L 141.211 251.758 141.211 258.887 M174.805 258.894 L 174.805 266.030 172.900 265.974 L 170.996 265.918 170.961 258.838 L 170.927 251.758 172.866 251.758 L 174.805 251.758 174.805 258.894 M255.078 256.497 C 255.078 260.751,255.115 261.306,255.443 261.917 C 256.194 263.319,258.062 263.391,259.355 262.070 C 260.243 261.161,260.349 260.502,260.350 255.908 L 260.352 251.758 262.305 251.758 L 264.258 251.758 264.258 258.887 L 264.258 266.016 262.402 266.016 L 260.547 266.016 260.544 265.479 C 260.537 264.047,260.387 263.976,259.372 264.926 C 256.939 267.201,253.190 266.705,251.826 263.926 L 251.270 262.793 251.207 257.275 L 251.145 251.758 253.111 251.758 L 255.078 251.758 255.078 256.497 M185.059 259.566 C 182.824 259.877,181.882 260.907,182.494 262.372 C 183.518 264.821,187.305 263.390,187.305 260.554 L 187.305 259.375 186.670 259.402 C 186.321 259.418,185.596 259.491,185.059 259.566 " stroke="none" fill="#fbfbfb" fill-rule="evenodd"></path><path id="path2" d="M191.309 67.569 C 174.170 70.635,158.783 82.962,152.901 98.340 C 152.819 98.555,152.610 99.082,152.436 99.512 C 141.545 126.471,157.474 158.568,185.742 166.626 C 189.353 167.656,194.916 168.626,195.256 168.285 C 195.466 168.076,195.532 165.363,195.392 162.753 L 195.275 160.565 194.366 160.448 C 178.146 158.360,164.088 146.658,159.056 131.055 C 155.830 121.051,156.437 109.223,160.633 100.293 C 160.886 99.756,161.229 99.009,161.396 98.633 C 166.750 86.591,181.243 76.328,194.824 74.961 L 195.410 74.902 195.472 72.852 C 195.507 71.724,195.477 69.988,195.405 68.994 L 195.276 67.188 194.269 67.203 C 193.715 67.212,192.383 67.377,191.309 67.569 M204.595 68.994 C 204.523 69.988,204.493 71.724,204.528 72.852 L 204.590 74.902 205.176 74.958 C 217.846 76.158,232.016 85.693,237.651 96.812 C 237.879 97.261,238.154 97.788,238.263 97.984 C 243.374 107.174,244.437 120.296,240.940 131.055 C 235.910 146.533,222.237 158.086,206.270 160.348 C 204.568 160.590,204.627 160.447,204.583 164.428 C 204.533 168.816,204.319 168.510,207.164 168.112 C 213.543 167.220,220.763 164.758,225.488 161.865 C 237.835 154.305,246.057 143.394,249.406 130.128 C 251.795 120.666,251.263 109.304,248.034 100.781 C 247.810 100.190,247.558 99.487,247.473 99.219 C 244.960 91.245,235.166 79.318,227.506 74.902 C 227.319 74.795,226.547 74.329,225.789 73.867 C 220.165 70.440,210.361 67.191,205.633 67.188 L 204.724 67.188 204.595 68.994 M195.172 91.228 C 173.852 95.193,165.546 121.357,180.759 136.631 C 193.034 148.954,213.272 146.845,222.740 132.257 C 223.525 131.047,224.609 128.930,224.609 128.608 C 224.609 128.557,221.479 128.516,217.653 128.516 L 210.697 128.516 209.589 129.541 C 204.067 134.652,193.638 133.024,190.467 126.557 C 189.962 125.528,189.258 122.904,189.258 122.053 C 189.258 121.947,196.807 121.875,207.916 121.875 C 225.503 121.875,226.583 121.855,226.715 121.533 C 227.075 120.656,226.863 114.389,226.399 112.224 C 225.018 105.771,221.770 100.503,216.661 96.432 C 215.888 95.816,215.192 95.313,215.114 95.313 C 215.036 95.313,214.833 95.187,214.664 95.034 C 214.058 94.486,209.765 92.402,208.691 92.135 C 208.477 92.081,207.642 91.859,206.836 91.642 C 203.420 90.719,198.794 90.555,195.172 91.228 M203.711 102.239 C 206.705 103.277,208.930 105.228,210.188 107.918 C 210.846 109.323,211.182 111.447,210.786 111.692 C 210.675 111.760,205.731 111.793,199.799 111.764 L 189.013 111.712 189.144 110.690 C 189.647 106.777,193.747 102.719,198.047 101.879 C 199.005 101.692,202.834 101.935,203.711 102.239 " stroke="none" fill="#f3841f" fill-rule="evenodd"></path><path id="path3" d="M194.277 67.136 L 195.292 67.207 195.365 68.125 L 195.437 69.043 195.473 68.018 L 195.508 66.992 194.385 67.028 L 193.262 67.064 194.277 67.136 M204.527 68.018 L 204.563 69.043 204.635 68.125 L 204.708 67.207 205.723 67.136 L 206.738 67.064 205.615 67.028 L 204.492 66.992 204.527 68.018 M188.965 67.866 C 187.929 68.207,188.306 68.215,189.648 67.879 C 190.239 67.732,190.503 67.611,190.234 67.610 C 189.966 67.609,189.395 67.724,188.965 67.866 M209.391 67.650 C 209.436 67.689,209.824 67.775,210.254 67.841 C 210.798 67.923,210.917 67.906,210.645 67.783 C 210.270 67.613,209.223 67.502,209.391 67.650 M211.523 68.164 C 211.792 68.250,212.188 68.320,212.402 68.320 C 212.712 68.320,212.691 68.288,212.305 68.164 C 212.036 68.078,211.641 68.008,211.426 68.008 C 211.116 68.008,211.137 68.040,211.523 68.164 M186.230 68.555 C 185.984 68.660,185.948 68.723,186.133 68.723 C 186.294 68.723,186.602 68.647,186.816 68.555 C 187.063 68.449,187.099 68.387,186.914 68.387 C 186.753 68.387,186.445 68.462,186.230 68.555 M213.184 68.555 C 213.398 68.647,213.706 68.723,213.867 68.723 C 214.052 68.723,214.016 68.660,213.770 68.555 C 213.555 68.462,213.247 68.387,213.086 68.387 C 212.901 68.387,212.937 68.449,213.184 68.555 M184.863 68.945 C 184.617 69.051,184.581 69.113,184.766 69.113 C 184.927 69.113,185.234 69.038,185.449 68.945 C 185.695 68.840,185.732 68.777,185.547 68.777 C 185.386 68.777,185.078 68.853,184.863 68.945 M214.551 68.945 C 214.766 69.038,215.073 69.113,215.234 69.113 C 215.419 69.113,215.383 69.051,215.137 68.945 C 214.922 68.853,214.614 68.777,214.453 68.777 C 214.268 68.777,214.305 68.840,214.551 68.945 M182.773 69.621 C 182.054 69.877,181.307 70.188,181.113 70.312 C 180.790 70.519,180.794 70.526,181.152 70.404 C 182.657 69.891,184.290 69.288,184.359 69.221 C 184.536 69.047,184.023 69.176,182.773 69.621 M217.480 69.903 C 217.910 70.104,218.481 70.323,218.750 70.389 C 219.019 70.455,218.886 70.345,218.456 70.146 C 218.026 69.947,217.455 69.728,217.187 69.660 C 216.919 69.592,217.051 69.701,217.480 69.903 M178.516 71.387 C 178.032 71.646,177.725 71.857,177.832 71.857 C 177.939 71.857,178.423 71.646,178.906 71.387 C 179.390 71.128,179.697 70.916,179.590 70.916 C 179.482 70.916,178.999 71.128,178.516 71.387 M221.289 71.484 C 221.665 71.690,222.061 71.859,222.168 71.859 C 222.275 71.859,222.056 71.690,221.680 71.484 C 221.304 71.279,220.908 71.110,220.801 71.110 C 220.693 71.110,220.913 71.279,221.289 71.484 M176.660 72.294 C 174.555 73.434,172.432 74.693,172.327 74.864 C 172.255 74.980,172.542 74.861,172.963 74.600 C 173.385 74.339,174.390 73.754,175.195 73.300 C 176.855 72.365,177.289 72.096,177.148 72.088 C 177.095 72.085,176.875 72.177,176.660 72.294 M222.852 72.161 C 222.852 72.215,223.291 72.482,223.828 72.754 C 224.365 73.026,224.805 73.205,224.805 73.151 C 224.805 73.097,224.365 72.831,223.828 72.559 C 223.291 72.286,222.852 72.108,222.852 72.161 M225.260 73.479 C 226.389 74.272,227.603 75.001,227.675 74.930 C 227.720 74.884,227.203 74.516,226.525 74.111 C 225.243 73.345,224.643 73.045,225.260 73.479 M170.719 75.882 C 170.029 76.354,169.326 76.883,169.156 77.058 C 168.987 77.233,169.573 76.880,170.459 76.273 C 171.345 75.666,172.070 75.131,172.070 75.085 C 172.070 74.957,172.063 74.961,170.719 75.882 M193.262 75.195 C 192.449 75.402,193.249 75.411,194.238 75.207 C 194.895 75.071,194.926 75.045,194.434 75.046 C 194.111 75.046,193.584 75.113,193.262 75.195 M205.762 75.207 C 206.751 75.411,207.551 75.402,206.738 75.195 C 206.416 75.113,205.889 75.046,205.566 75.046 C 205.074 75.045,205.105 75.071,205.762 75.207 M227.930 75.071 C 227.930 75.125,228.193 75.356,228.516 75.586 C 228.838 75.815,229.102 75.959,229.102 75.906 C 229.102 75.852,228.838 75.620,228.516 75.391 C 228.193 75.161,227.930 75.017,227.930 75.071 M189.552 75.931 C 188.907 76.100,188.468 76.265,188.575 76.298 C 188.682 76.331,189.385 76.192,190.137 75.989 C 190.889 75.787,191.328 75.622,191.113 75.623 C 190.898 75.624,190.196 75.763,189.552 75.931 M209.863 75.989 C 210.615 76.192,211.316 76.331,211.420 76.299 C 211.639 76.232,209.127 75.577,208.749 75.604 C 208.610 75.613,209.111 75.787,209.863 75.989 M229.297 76.034 C 229.297 76.074,229.714 76.391,230.225 76.740 C 230.927 77.221,231.010 77.250,230.566 76.861 C 229.977 76.345,229.297 75.902,229.297 76.034 M185.615 77.132 C 184.148 77.649,182.641 78.357,183.691 78.035 C 184.139 77.898,186.623 76.990,187.207 76.749 C 188.159 76.358,187.060 76.622,185.615 77.132 M213.281 76.946 C 213.550 77.032,214.376 77.333,215.118 77.616 C 215.860 77.899,216.497 78.099,216.535 78.061 C 216.647 77.949,213.482 76.756,213.122 76.775 C 212.923 76.785,212.985 76.852,213.281 76.946 M167.090 78.676 C 165.543 79.995,161.523 83.966,161.523 84.175 C 161.523 84.235,162.732 83.095,164.209 81.643 C 165.686 80.191,167.334 78.634,167.871 78.183 C 168.408 77.732,168.804 77.359,168.750 77.354 C 168.696 77.348,167.949 77.943,167.090 78.676 M232.602 78.603 C 234.901 80.642,239.042 84.929,240.110 86.377 C 240.724 87.209,241.273 87.891,241.330 87.891 C 241.617 87.891,239.184 84.866,237.295 82.874 C 235.923 81.428,232.810 78.564,231.918 77.927 C 231.694 77.767,232.002 78.072,232.602 78.603 M181.689 78.752 C 181.017 79.087,180.498 79.392,180.537 79.430 C 180.575 79.468,181.213 79.195,181.954 78.822 C 182.695 78.449,183.213 78.144,183.105 78.144 C 182.998 78.144,182.360 78.418,181.689 78.752 M217.383 78.516 C 217.759 78.721,218.154 78.890,218.262 78.890 C 218.369 78.890,218.149 78.721,217.773 78.516 C 217.397 78.310,217.002 78.141,216.895 78.141 C 216.787 78.141,217.007 78.310,217.383 78.516 M218.555 78.999 C 218.555 79.053,219.170 79.406,219.922 79.785 C 220.674 80.164,221.289 80.430,221.289 80.376 C 221.289 80.322,220.674 79.969,219.922 79.590 C 219.170 79.211,218.555 78.945,218.555 78.999 M178.369 80.475 C 177.805 80.798,177.344 81.108,177.344 81.165 C 177.344 81.271,179.063 80.329,179.385 80.046 C 179.727 79.745,179.402 79.882,178.369 80.475 M222.461 81.120 C 222.461 81.173,222.922 81.499,223.486 81.845 C 224.050 82.190,224.841 82.732,225.244 83.050 C 225.647 83.367,225.977 83.578,225.977 83.519 C 225.977 83.382,224.155 82.035,223.193 81.460 C 222.791 81.220,222.461 81.066,222.461 81.120 M175.729 82.136 C 175.328 82.408,175.000 82.673,175.000 82.725 C 175.000 82.776,175.352 82.585,175.781 82.301 C 176.464 81.850,176.694 81.641,176.510 81.641 C 176.481 81.641,176.130 81.864,175.729 82.136 M172.266 84.784 C 169.759 86.869,165.452 91.494,165.745 91.786 C 165.802 91.844,165.935 91.739,166.039 91.553 C 166.637 90.484,170.544 86.427,172.607 84.732 C 173.837 83.722,174.175 83.392,173.975 83.400 C 173.948 83.402,173.179 84.024,172.266 84.784 M226.172 83.651 C 226.172 83.709,226.633 84.122,227.197 84.570 C 228.364 85.496,229.849 86.901,231.517 88.657 C 232.147 89.320,232.695 89.831,232.734 89.792 C 232.849 89.677,229.504 86.299,228.125 85.138 C 226.513 83.780,226.172 83.521,226.172 83.651 M160.759 85.036 L 160.287 85.645 160.846 85.113 C 161.154 84.821,161.366 84.547,161.318 84.504 C 161.270 84.462,161.018 84.701,160.759 85.036 M159.551 86.572 C 158.497 87.942,158.472 87.980,158.722 87.830 C 158.965 87.685,160.405 85.742,160.270 85.742 C 160.225 85.742,159.902 86.116,159.551 86.572 M158.008 88.672 C 157.778 88.994,157.635 89.258,157.688 89.258 C 157.742 89.258,157.974 88.994,158.203 88.672 C 158.433 88.350,158.576 88.086,158.523 88.086 C 158.469 88.086,158.237 88.350,158.008 88.672 M242.403 89.583 C 243.358 91.023,244.021 91.893,243.646 91.211 C 243.235 90.464,241.743 88.271,241.576 88.168 C 241.473 88.104,241.845 88.741,242.403 89.583 M157.151 89.941 C 156.978 90.210,156.694 90.671,156.520 90.967 L 156.204 91.504 156.597 91.029 C 157.061 90.467,157.676 89.453,157.553 89.453 C 157.506 89.453,157.325 89.673,157.151 89.941 M234.341 92.069 C 235.165 93.186,236.221 94.702,236.687 95.438 C 237.153 96.175,237.482 96.614,237.417 96.413 C 237.163 95.625,233.218 90.039,232.916 90.039 C 232.875 90.039,233.516 90.953,234.341 92.069 M198.885 90.770 C 199.615 90.808,200.757 90.807,201.424 90.769 C 202.091 90.731,201.494 90.701,200.098 90.701 C 198.701 90.701,198.156 90.732,198.885 90.770 M203.369 90.955 C 203.557 91.004,203.865 91.004,204.053 90.955 C 204.241 90.906,204.087 90.866,203.711 90.866 C 203.335 90.866,203.181 90.906,203.369 90.955 M193.066 91.498 C 192.031 91.840,192.407 91.847,193.750 91.512 C 194.341 91.365,194.604 91.243,194.336 91.243 C 194.067 91.242,193.496 91.357,193.066 91.498 M205.957 91.406 C 206.172 91.499,206.523 91.572,206.738 91.568 C 207.052 91.564,207.033 91.532,206.641 91.406 C 205.973 91.192,205.459 91.192,205.957 91.406 M155.664 92.383 C 155.445 92.813,155.309 93.164,155.363 93.164 C 155.417 93.164,155.640 92.813,155.859 92.383 C 156.079 91.953,156.214 91.602,156.160 91.602 C 156.107 91.602,155.883 91.953,155.664 92.383 M207.813 91.895 C 208.188 92.039,208.628 92.158,208.789 92.158 C 208.950 92.158,208.774 92.039,208.398 91.895 C 208.022 91.750,207.583 91.631,207.422 91.631 C 207.261 91.631,207.437 91.750,207.813 91.895 M244.043 92.188 C 244.210 92.510,244.390 92.773,244.444 92.773 C 244.497 92.773,244.405 92.510,244.238 92.188 C 244.072 91.865,243.891 91.602,243.838 91.602 C 243.784 91.602,243.876 91.865,244.043 92.188 M165.039 92.578 C 164.810 92.900,164.666 93.164,164.719 93.164 C 164.773 93.164,165.005 92.900,165.234 92.578 C 165.464 92.256,165.608 91.992,165.554 91.992 C 165.500 91.992,165.269 92.256,165.039 92.578 M188.965 92.954 C 187.429 93.702,187.675 93.720,189.280 92.978 C 189.966 92.660,190.439 92.397,190.332 92.392 C 190.225 92.388,189.609 92.641,188.965 92.954 M211.149 93.042 C 211.350 93.221,212.500 93.750,212.500 93.662 C 212.500 93.550,211.417 92.969,211.208 92.969 C 211.131 92.969,211.104 93.002,211.149 93.042 M245.117 94.141 C 245.443 94.785,245.753 95.313,245.806 95.313 C 245.860 95.313,245.638 94.785,245.313 94.141 C 244.987 93.496,244.677 92.969,244.623 92.969 C 244.570 92.969,244.792 93.496,245.117 94.141 M164.183 93.848 C 164.009 94.116,163.725 94.578,163.551 94.873 L 163.235 95.410 163.628 94.935 C 164.092 94.373,164.708 93.359,164.584 93.359 C 164.537 93.359,164.356 93.579,164.183 93.848 M154.287 94.942 C 153.956 95.597,153.718 96.166,153.757 96.205 C 153.796 96.244,154.109 95.708,154.452 95.013 C 154.794 94.318,155.033 93.750,154.981 93.750 C 154.930 93.750,154.618 94.286,154.287 94.942 M213.281 94.170 C 213.657 94.397,214.213 94.755,214.517 94.965 C 214.821 95.175,215.112 95.305,215.164 95.253 C 215.269 95.148,213.033 93.748,212.767 93.753 C 212.674 93.755,212.905 93.943,213.281 94.170 M184.548 95.408 C 183.838 95.889,183.135 96.431,182.986 96.614 C 182.757 96.893,184.276 95.883,185.645 94.845 C 186.470 94.219,185.781 94.573,184.548 95.408 M215.430 95.377 C 215.430 95.431,215.781 95.753,216.211 96.094 C 216.641 96.434,216.992 96.669,216.992 96.615 C 216.992 96.561,216.641 96.239,216.211 95.898 C 215.781 95.558,215.430 95.324,215.430 95.377 M162.800 96.013 C 162.618 96.291,162.502 96.552,162.543 96.593 C 162.585 96.634,162.772 96.407,162.961 96.088 C 163.382 95.375,163.256 95.317,162.800 96.013 M245.912 95.605 C 245.912 95.713,246.038 96.021,246.191 96.289 C 246.345 96.558,246.471 96.689,246.471 96.582 C 246.471 96.475,246.345 96.167,246.191 95.898 C 246.038 95.630,245.912 95.498,245.912 95.605 M161.818 97.769 C 161.530 98.261,161.331 98.701,161.377 98.747 C 161.423 98.793,161.700 98.390,161.992 97.853 C 162.659 96.628,162.524 96.564,161.818 97.769 M180.887 98.421 C 180.045 99.272,179.069 100.349,178.719 100.814 L 178.082 101.660 178.707 100.977 C 179.050 100.601,180.082 99.524,180.999 98.584 C 181.917 97.644,182.612 96.875,182.543 96.875 C 182.475 96.875,181.730 97.571,180.887 98.421 M218.370 97.875 C 218.967 98.453,219.934 99.455,220.519 100.101 C 221.841 101.562,221.548 101.126,220.035 99.382 C 219.413 98.666,218.541 97.797,218.095 97.452 C 217.448 96.950,217.504 97.036,218.370 97.875 M152.365 99.240 C 152.245 99.586,152.181 99.902,152.223 99.944 C 152.264 99.986,152.397 99.738,152.517 99.392 C 152.638 99.047,152.702 98.731,152.660 98.689 C 152.618 98.647,152.486 98.895,152.365 99.240 M247.476 99.219 C 247.475 99.500,248.026 100.618,248.040 100.364 C 248.044 100.296,247.918 99.944,247.762 99.583 C 247.605 99.222,247.476 99.058,247.476 99.219 M160.286 101.009 C 160.110 101.459,159.997 101.859,160.036 101.898 C 160.075 101.937,160.254 101.603,160.433 101.156 C 160.612 100.708,160.725 100.308,160.683 100.266 C 160.642 100.225,160.463 100.559,160.286 101.009 M239.272 100.240 C 239.249 100.471,239.886 101.976,239.970 101.892 C 240.012 101.850,239.876 101.428,239.666 100.956 C 239.457 100.484,239.279 100.162,239.272 100.240 M177.604 102.295 C 177.420 102.590,177.176 102.959,177.063 103.114 C 176.912 103.319,176.917 103.359,177.080 103.261 C 177.317 103.119,178.173 101.758,178.025 101.758 C 177.978 101.758,177.788 102.000,177.604 102.295 M199.170 101.901 C 199.626 101.942,200.374 101.942,200.830 101.901 C 201.287 101.860,200.913 101.826,200.000 101.826 C 199.087 101.826,198.713 101.860,199.170 101.901 M222.206 102.359 C 222.400 102.689,222.683 103.063,222.836 103.189 C 222.988 103.315,222.867 103.044,222.566 102.588 C 221.934 101.629,221.684 101.471,222.206 102.359 M196.582 102.262 C 196.152 102.417,195.678 102.589,195.529 102.644 C 195.379 102.699,195.306 102.793,195.365 102.852 C 195.425 102.912,195.653 102.866,195.871 102.749 C 196.090 102.632,196.735 102.411,197.304 102.258 C 197.874 102.104,198.120 101.979,197.852 101.980 C 197.583 101.980,197.012 102.107,196.582 102.262 M203.086 102.258 C 203.656 102.411,204.301 102.632,204.519 102.749 C 204.738 102.866,204.965 102.912,205.025 102.852 C 205.085 102.793,205.012 102.699,204.862 102.645 C 203.490 102.145,202.818 101.955,202.466 101.966 C 202.237 101.973,202.517 102.104,203.086 102.258 M206.175 103.551 C 207.040 104.204,207.208 104.256,206.551 103.667 C 206.224 103.375,205.879 103.133,205.784 103.130 C 205.689 103.127,205.865 103.317,206.175 103.551 M223.054 103.613 C 223.055 103.721,223.235 104.028,223.455 104.297 C 223.720 104.621,223.787 104.654,223.652 104.395 C 223.323 103.757,223.053 103.404,223.054 103.613 M192.299 104.932 C 191.629 105.603,190.973 106.372,190.842 106.641 C 190.650 107.033,190.688 107.014,191.037 106.543 C 191.275 106.221,191.998 105.452,192.642 104.834 C 193.286 104.216,193.747 103.711,193.666 103.711 C 193.585 103.711,192.970 104.260,192.299 104.932 M208.296 105.263 C 208.799 105.848,209.382 106.661,209.590 107.070 C 209.798 107.478,210.013 107.813,210.067 107.813 C 210.344 107.813,209.261 106.159,208.384 105.246 L 207.380 104.199 208.296 105.263 M150.502 104.994 C 150.430 105.281,150.409 105.553,150.455 105.599 C 150.501 105.645,150.598 105.448,150.670 105.162 C 150.741 104.876,150.763 104.604,150.717 104.558 C 150.671 104.512,150.574 104.708,150.502 104.994 M175.576 105.683 C 175.352 106.123,175.216 106.531,175.274 106.589 C 175.332 106.647,175.470 106.457,175.581 106.166 C 175.691 105.876,175.872 105.468,175.984 105.260 C 176.095 105.053,176.140 104.883,176.085 104.883 C 176.030 104.883,175.801 105.243,175.576 105.683 M224.428 106.152 C 224.428 106.260,224.554 106.567,224.707 106.836 C 224.861 107.104,224.986 107.236,224.986 107.129 C 224.986 107.021,224.861 106.714,224.707 106.445 C 224.554 106.177,224.428 106.045,224.428 106.152 M189.832 108.492 C 189.516 109.188,189.261 109.913,189.265 110.103 C 189.269 110.293,189.431 110.010,189.624 109.473 C 189.818 108.936,190.125 108.210,190.306 107.861 C 190.487 107.512,190.583 107.227,190.520 107.227 C 190.457 107.227,190.147 107.796,189.832 108.492 M174.433 108.490 C 174.208 109.092,174.028 109.692,174.034 109.822 C 174.039 109.952,174.255 109.490,174.512 108.796 C 174.770 108.101,174.950 107.502,174.912 107.464 C 174.874 107.426,174.658 107.888,174.433 108.490 M157.910 108.398 C 157.836 108.736,157.816 109.053,157.866 109.103 C 157.916 109.153,158.012 108.912,158.081 108.569 C 158.150 108.226,158.170 107.909,158.125 107.865 C 158.081 107.821,157.984 108.061,157.910 108.398 M210.268 108.398 C 210.340 108.667,210.480 109.019,210.580 109.180 C 210.706 109.383,210.721 109.324,210.630 108.984 C 210.558 108.716,210.418 108.364,210.319 108.203 C 210.193 108.000,210.177 108.059,210.268 108.398 M225.202 108.034 C 225.198 108.102,225.324 108.454,225.481 108.815 C 225.638 109.177,225.766 109.341,225.767 109.180 C 225.767 108.898,225.216 107.780,225.202 108.034 M210.788 110.156 C 210.788 110.532,210.828 110.686,210.877 110.498 C 210.926 110.310,210.926 110.002,210.877 109.814 C 210.828 109.626,210.788 109.780,210.788 110.156 M189.108 111.133 C 189.108 111.509,189.148 111.663,189.197 111.475 C 189.246 111.287,189.246 110.979,189.197 110.791 C 189.148 110.603,189.108 110.757,189.108 111.133 M149.264 111.914 C 149.264 112.290,149.304 112.444,149.353 112.256 C 149.403 112.068,149.403 111.760,149.353 111.572 C 149.304 111.384,149.264 111.538,149.264 111.914 M250.631 111.914 C 250.631 112.290,250.671 112.444,250.721 112.256 C 250.770 112.068,250.770 111.760,250.721 111.572 C 250.671 111.384,250.631 111.538,250.631 111.914 M157.272 112.305 C 157.272 112.681,157.312 112.834,157.361 112.646 C 157.410 112.458,157.410 112.151,157.361 111.963 C 157.312 111.775,157.272 111.929,157.272 112.305 M242.623 112.305 C 242.623 112.681,242.664 112.834,242.713 112.646 C 242.762 112.458,242.762 112.151,242.713 111.963 C 242.664 111.775,242.623 111.929,242.623 112.305 M149.086 114.453 C 149.086 115.151,149.121 115.437,149.165 115.088 C 149.208 114.739,149.208 114.167,149.165 113.818 C 149.121 113.469,149.086 113.755,149.086 114.453 M157.092 114.355 C 157.093 115.000,157.129 115.240,157.173 114.889 C 157.216 114.538,157.215 114.011,157.171 113.717 C 157.126 113.424,157.091 113.711,157.092 114.355 M242.832 114.258 C 242.832 114.849,242.869 115.090,242.913 114.795 C 242.958 114.500,242.958 114.016,242.913 113.721 C 242.869 113.425,242.832 113.667,242.832 114.258 M250.842 114.355 C 250.843 115.000,250.879 115.240,250.923 114.889 C 250.966 114.538,250.965 114.011,250.921 113.717 C 250.876 113.424,250.841 113.711,250.842 114.355 M173.092 114.453 C 173.092 114.829,173.132 114.983,173.182 114.795 C 173.231 114.607,173.231 114.299,173.182 114.111 C 173.132 113.923,173.092 114.077,173.092 114.453 M226.803 114.648 C 226.803 115.024,226.843 115.178,226.892 114.990 C 226.942 114.802,226.942 114.495,226.892 114.307 C 226.843 114.119,226.803 114.272,226.803 114.648 M172.925 117.676 C 172.925 118.857,172.957 119.316,172.996 118.694 C 173.035 118.072,173.035 117.106,172.995 116.546 C 172.956 115.986,172.924 116.494,172.925 117.676 M227.025 117.773 C 227.025 118.901,227.058 119.363,227.097 118.799 C 227.137 118.235,227.137 117.312,227.097 116.748 C 227.058 116.184,227.025 116.646,227.025 117.773 M148.877 117.871 C 148.880 118.301,148.920 118.454,148.966 118.211 C 149.013 117.968,149.011 117.616,148.962 117.429 C 148.913 117.243,148.875 117.441,148.877 117.871 M251.030 117.969 C 251.030 118.452,251.068 118.650,251.114 118.408 C 251.161 118.167,251.161 117.771,251.114 117.529 C 251.068 117.288,251.030 117.485,251.030 117.969 M226.803 120.898 C 226.803 121.274,226.843 121.428,226.892 121.240 C 226.942 121.052,226.942 120.745,226.892 120.557 C 226.843 120.369,226.803 120.522,226.803 120.898 M157.084 121.289 C 157.084 121.772,157.123 121.970,157.169 121.729 C 157.216 121.487,157.216 121.091,157.169 120.850 C 157.123 120.608,157.084 120.806,157.084 121.289 M173.096 121.191 C 173.098 121.621,173.138 121.774,173.185 121.531 C 173.232 121.288,173.230 120.936,173.181 120.750 C 173.132 120.563,173.094 120.762,173.096 121.191 M242.827 121.289 C 242.827 121.772,242.865 121.970,242.911 121.729 C 242.958 121.487,242.958 121.091,242.911 120.850 C 242.865 120.608,242.827 120.806,242.827 121.289 M149.077 121.484 C 149.077 121.968,149.115 122.166,149.161 121.924 C 149.208 121.682,149.208 121.287,149.161 121.045 C 149.115 120.803,149.077 121.001,149.077 121.484 M250.834 121.484 C 250.834 121.968,250.873 122.166,250.919 121.924 C 250.966 121.682,250.966 121.287,250.919 121.045 C 250.873 120.803,250.834 121.001,250.834 121.484 M157.272 122.852 C 157.272 123.228,157.312 123.381,157.361 123.193 C 157.410 123.005,157.410 122.698,157.361 122.510 C 157.312 122.322,157.272 122.476,157.272 122.852 M242.623 123.047 C 242.623 123.423,242.664 123.577,242.713 123.389 C 242.762 123.201,242.762 122.893,242.713 122.705 C 242.664 122.517,242.623 122.671,242.623 123.047 M149.268 123.535 C 149.270 123.965,149.310 124.118,149.357 123.875 C 149.404 123.632,149.402 123.280,149.353 123.093 C 149.304 122.907,149.266 123.105,149.268 123.535 M250.635 123.535 C 250.637 123.965,250.677 124.118,250.724 123.875 C 250.771 123.632,250.769 123.280,250.720 123.093 C 250.671 122.907,250.633 123.105,250.635 123.535 M242.428 124.414 C 242.428 124.790,242.468 124.944,242.517 124.756 C 242.567 124.568,242.567 124.260,242.517 124.072 C 242.468 123.884,242.428 124.038,242.428 124.414 M149.463 125.098 C 149.465 125.527,149.505 125.680,149.552 125.437 C 149.599 125.194,149.597 124.843,149.548 124.656 C 149.499 124.469,149.461 124.668,149.463 125.098 M250.436 125.000 C 250.436 125.376,250.476 125.530,250.525 125.342 C 250.574 125.154,250.574 124.846,250.525 124.658 C 250.476 124.470,250.436 124.624,250.436 125.000 M189.844 125.071 C 189.844 125.304,190.404 126.563,190.507 126.563 C 190.561 126.563,190.468 126.233,190.302 125.830 C 189.988 125.074,189.844 124.835,189.844 125.071 M157.638 125.586 C 157.631 125.747,157.747 126.318,157.896 126.855 C 158.046 127.393,158.174 127.700,158.182 127.539 C 158.189 127.378,158.073 126.807,157.924 126.270 C 157.774 125.732,157.646 125.425,157.638 125.586 M242.101 126.085 C 242.027 126.477,242.006 126.837,242.054 126.885 C 242.102 126.932,242.201 126.651,242.274 126.259 C 242.348 125.867,242.369 125.507,242.321 125.459 C 242.273 125.411,242.174 125.693,242.101 126.085 M190.632 126.855 C 190.633 126.963,190.813 127.271,191.033 127.539 C 191.298 127.863,191.365 127.896,191.231 127.637 C 190.901 127.000,190.631 126.646,190.632 126.855 M192.179 128.955 C 192.658 129.465,193.076 129.883,193.107 129.883 C 193.254 129.883,193.099 129.707,192.236 128.898 L 191.309 128.027 192.179 128.955 M175.014 128.418 C 175.014 128.525,175.139 128.833,175.293 129.102 C 175.446 129.370,175.572 129.502,175.572 129.395 C 175.572 129.287,175.446 128.979,175.293 128.711 C 175.139 128.442,175.014 128.311,175.014 128.418 M224.370 128.484 C 224.568 128.610,224.558 128.786,224.318 129.360 C 224.153 129.755,224.062 130.078,224.116 130.078 C 224.292 130.078,224.805 128.674,224.694 128.495 C 224.635 128.399,224.482 128.322,224.354 128.323 C 224.187 128.325,224.191 128.371,224.370 128.484 M209.180 129.653 C 208.581 130.250,208.365 130.546,208.691 130.321 C 209.380 129.846,210.707 128.501,210.439 128.549 C 210.337 128.567,209.771 129.064,209.180 129.653 M175.977 130.469 C 176.196 130.898,176.419 131.250,176.473 131.250 C 176.526 131.250,176.391 130.898,176.172 130.469 C 175.953 130.039,175.729 129.688,175.676 129.688 C 175.622 129.688,175.757 130.039,175.977 130.469 M150.619 130.762 C 150.616 130.977,150.689 131.328,150.781 131.543 C 150.995 132.041,150.995 131.527,150.781 130.859 C 150.656 130.467,150.624 130.448,150.619 130.762 M249.146 131.079 C 248.983 131.893,249.140 132.051,249.316 131.250 C 249.391 130.912,249.411 130.595,249.361 130.546 C 249.311 130.496,249.214 130.736,249.146 131.079 M223.083 131.689 C 222.867 132.039,222.504 132.632,222.276 133.008 L 221.863 133.691 222.334 133.131 C 222.842 132.528,223.716 131.055,223.567 131.055 C 223.517 131.055,223.299 131.340,223.083 131.689 M205.762 131.745 C 205.439 131.893,205.308 132.014,205.469 132.016 C 205.630 132.017,205.981 131.892,206.250 131.738 C 206.868 131.385,206.538 131.390,205.762 131.745 M204.297 132.227 C 203.895 132.355,203.877 132.386,204.199 132.399 C 204.414 132.408,204.722 132.331,204.883 132.227 C 205.225 132.005,204.987 132.005,204.297 132.227 M200.836 132.566 C 201.349 132.606,202.140 132.606,202.594 132.565 C 203.047 132.524,202.627 132.491,201.660 132.491 C 200.693 132.492,200.322 132.525,200.836 132.566 M177.939 133.663 C 178.151 134.023,179.168 135.188,180.197 136.251 L 182.069 138.184 180.364 136.328 C 179.427 135.308,178.450 134.143,178.194 133.740 C 177.617 132.831,177.411 132.769,177.939 133.663 M220.593 135.171 C 219.215 136.856,217.071 138.721,214.813 140.201 C 212.416 141.771,212.323 141.840,213.086 141.480 C 215.431 140.373,220.563 135.962,221.748 134.033 C 222.129 133.414,221.625 133.911,220.593 135.171 M151.674 134.375 C 151.746 134.644,151.887 134.995,151.986 135.156 C 152.112 135.360,152.127 135.300,152.036 134.961 C 151.965 134.692,151.824 134.341,151.725 134.180 C 151.599 133.976,151.584 134.036,151.674 134.375 M160.158 134.098 C 160.161 134.348,162.262 138.672,162.380 138.672 C 162.462 138.672,160.413 134.234,160.222 134.001 C 160.186 133.956,160.157 134.000,160.158 134.098 M239.485 134.481 C 239.158 135.199,239.220 135.352,239.574 134.700 C 239.739 134.395,239.838 134.109,239.793 134.064 C 239.748 134.019,239.610 134.207,239.485 134.481 M238.323 137.019 C 237.872 137.928,237.545 138.672,237.597 138.672 C 237.727 138.672,239.299 135.523,239.212 135.436 C 239.174 135.398,238.773 136.110,238.323 137.019 M152.162 135.592 C 152.140 135.823,152.776 137.328,152.861 137.244 C 152.903 137.201,152.766 136.780,152.557 136.308 C 152.347 135.836,152.170 135.513,152.162 135.592 M247.388 136.324 C 246.947 137.426,247.015 137.589,247.479 136.544 C 247.688 136.072,247.825 135.650,247.782 135.608 C 247.740 135.565,247.562 135.888,247.388 136.324 M246.377 138.690 C 246.206 139.022,246.100 139.329,246.142 139.371 C 246.184 139.414,246.365 139.142,246.544 138.767 C 246.946 137.925,246.806 137.860,246.377 138.690 M236.610 140.088 C 236.197 140.759,235.423 141.924,234.889 142.676 C 234.356 143.428,234.057 143.929,234.226 143.790 C 234.788 143.328,237.708 138.867,237.449 138.867 C 237.400 138.867,237.023 139.417,236.610 140.088 M183.478 139.229 C 183.746 139.662,187.500 141.986,187.500 141.719 C 187.500 141.670,186.995 141.343,186.377 140.991 C 185.759 140.639,184.818 140.040,184.285 139.659 C 183.752 139.278,183.389 139.085,183.478 139.229 M163.400 140.479 C 163.749 141.081,165.487 143.555,165.561 143.555 C 165.660 143.555,165.605 143.465,164.398 141.644 C 163.884 140.868,163.417 140.234,163.361 140.234 C 163.304 140.234,163.322 140.344,163.400 140.479 M154.297 140.503 C 154.297 140.714,155.073 142.188,155.184 142.188 C 155.237 142.188,155.093 141.814,154.863 141.357 C 154.410 140.460,154.297 140.289,154.297 140.503 M244.531 142.383 C 244.312 142.813,244.177 143.164,244.230 143.164 C 244.284 143.164,244.507 142.813,244.727 142.383 C 244.946 141.953,245.081 141.602,245.027 141.602 C 244.974 141.602,244.750 141.953,244.531 142.383 M188.281 142.188 C 188.657 142.393,189.053 142.562,189.160 142.562 C 189.268 142.562,189.048 142.393,188.672 142.188 C 188.296 141.982,187.900 141.813,187.793 141.813 C 187.686 141.813,187.905 141.982,188.281 142.188 M189.844 142.832 C 190.370 143.132,191.406 143.425,191.406 143.275 C 191.406 143.224,191.121 143.100,190.771 142.999 C 190.422 142.898,189.961 142.757,189.746 142.685 C 189.504 142.603,189.541 142.659,189.844 142.832 M208.105 143.464 C 207.317 143.825,207.788 143.826,208.620 143.465 C 208.982 143.308,209.146 143.183,208.984 143.188 C 208.823 143.192,208.428 143.317,208.105 143.464 M243.288 144.580 L 242.936 145.215 243.339 144.727 C 243.696 144.294,243.854 143.945,243.694 143.945 C 243.664 143.945,243.481 144.231,243.288 144.580 M204.590 144.336 C 204.064 144.470,204.054 144.485,204.492 144.489 C 204.761 144.491,205.200 144.422,205.469 144.336 C 206.125 144.126,205.416 144.126,204.590 144.336 M197.119 144.666 C 197.307 144.715,197.615 144.715,197.803 144.666 C 197.991 144.617,197.837 144.577,197.461 144.577 C 197.085 144.577,196.931 144.617,197.119 144.666 M199.658 144.869 C 200.061 144.911,200.720 144.911,201.123 144.869 C 201.526 144.827,201.196 144.792,200.391 144.792 C 199.585 144.792,199.255 144.827,199.658 144.869 M167.723 146.191 C 168.272 146.836,169.361 147.979,170.145 148.730 C 171.148 149.694,170.969 149.463,169.541 147.949 C 166.853 145.102,166.533 144.792,167.723 146.191 M230.772 147.614 C 229.489 148.980,228.774 149.790,229.183 149.414 C 230.051 148.617,231.704 146.897,232.610 145.850 C 233.840 144.427,233.078 145.159,230.772 147.614 M158.392 147.353 C 158.720 147.831,159.083 148.280,159.197 148.350 C 159.310 148.421,159.081 148.030,158.687 147.481 C 157.808 146.257,157.565 146.152,158.392 147.353 M241.313 147.481 C 240.919 148.030,240.690 148.421,240.803 148.350 C 241.041 148.203,242.252 146.484,242.118 146.484 C 242.069 146.484,241.707 146.933,241.313 147.481 M160.219 149.756 C 160.695 150.374,161.287 151.055,161.533 151.270 C 161.779 151.484,161.425 150.979,160.747 150.146 C 159.310 148.381,158.957 148.121,160.219 149.756 M239.009 150.439 C 237.229 152.630,234.355 155.439,231.787 157.499 C 229.468 159.360,229.273 159.672,231.492 157.971 C 233.441 156.478,238.449 151.540,239.724 149.854 C 241.096 148.040,240.686 148.376,239.009 150.439 M171.869 150.283 C 172.193 150.676,175.135 152.985,175.586 153.199 C 175.747 153.276,175.621 153.137,175.306 152.890 C 174.991 152.643,174.024 151.877,173.157 151.187 C 172.291 150.498,171.711 150.091,171.869 150.283 M227.624 150.635 L 227.051 151.270 227.686 150.696 C 228.277 150.161,228.410 150.000,228.259 150.000 C 228.226 150.000,227.940 150.286,227.624 150.635 M225.647 152.114 C 224.398 153.059,223.896 153.509,224.414 153.219 C 224.867 152.967,226.953 151.355,226.953 151.258 C 226.953 151.128,226.944 151.134,225.647 152.114 M164.361 154.199 C 166.466 156.277,169.141 158.589,169.141 158.330 C 169.141 158.279,168.679 157.870,168.115 157.422 C 166.939 156.488,166.013 155.660,163.659 153.436 C 162.739 152.567,163.055 152.910,164.361 154.199 M175.977 153.381 C 175.977 153.497,178.121 154.867,179.053 155.347 C 180.156 155.915,179.739 155.532,178.467 154.807 C 177.795 154.425,176.960 153.925,176.611 153.697 C 176.262 153.469,175.977 153.327,175.977 153.381 M219.727 155.859 C 219.351 156.065,219.113 156.237,219.199 156.242 C 219.406 156.253,220.508 155.680,220.508 155.561 C 220.508 155.434,220.496 155.438,219.727 155.859 M180.164 155.963 C 180.373 156.121,180.631 156.250,180.739 156.250 C 180.846 156.250,180.763 156.121,180.555 155.963 C 180.346 155.806,180.088 155.676,179.980 155.676 C 179.873 155.676,179.956 155.806,180.164 155.963 M182.422 157.031 C 182.798 157.237,183.193 157.406,183.301 157.406 C 183.408 157.406,183.188 157.237,182.813 157.031 C 182.437 156.825,182.041 156.657,181.934 156.657 C 181.826 156.657,182.046 156.825,182.422 157.031 M185.254 158.189 C 185.684 158.396,186.167 158.568,186.328 158.572 C 186.663 158.579,185.663 158.118,184.948 157.935 C 184.687 157.868,184.824 157.982,185.254 158.189 M169.858 158.918 C 170.199 159.223,170.770 159.639,171.128 159.842 C 172.001 160.339,171.627 159.998,170.313 159.099 C 169.514 158.552,169.397 158.506,169.858 158.918 M187.598 158.984 C 187.813 159.077,188.120 159.152,188.281 159.152 C 188.466 159.152,188.430 159.090,188.184 158.984 C 187.969 158.892,187.661 158.817,187.500 158.817 C 187.315 158.817,187.351 158.879,187.598 158.984 M211.816 158.984 C 211.570 159.090,211.534 159.152,211.719 159.152 C 211.880 159.152,212.188 159.077,212.402 158.984 C 212.649 158.879,212.685 158.817,212.500 158.817 C 212.339 158.817,212.031 158.892,211.816 158.984 M228.418 159.982 C 226.923 160.991,226.556 161.360,227.832 160.569 C 228.842 159.944,229.859 159.188,229.688 159.189 C 229.634 159.190,229.063 159.546,228.418 159.982 M189.844 159.570 C 190.512 159.784,191.025 159.784,190.527 159.570 C 190.313 159.478,189.961 159.405,189.746 159.408 C 189.432 159.413,189.451 159.445,189.844 159.570 M192.480 160.156 C 192.803 160.238,193.330 160.306,193.652 160.306 C 194.145 160.307,194.114 160.281,193.457 160.145 C 192.468 159.940,191.668 159.950,192.480 160.156 M206.445 160.156 C 205.786 160.295,205.783 160.300,206.348 160.303 C 206.670 160.304,207.197 160.238,207.520 160.156 C 208.330 159.950,207.425 159.950,206.445 160.156 M194.864 160.488 C 195.236 160.560,195.303 160.721,195.364 161.682 L 195.434 162.793 195.471 161.572 C 195.508 160.356,195.506 160.352,194.971 160.378 C 194.524 160.400,194.506 160.419,194.864 160.488 M204.524 161.572 L 204.556 162.793 204.671 161.737 C 204.759 160.926,204.875 160.647,205.176 160.530 C 205.514 160.399,205.494 160.377,205.029 160.365 C 204.496 160.352,204.492 160.360,204.524 161.572 M225.830 161.634 C 225.374 161.908,225.000 162.178,225.000 162.234 C 225.000 162.339,226.318 161.591,226.650 161.297 C 226.986 161.000,226.673 161.129,225.830 161.634 M175.000 162.184 C 175.000 162.331,176.414 163.105,176.508 163.010 C 176.559 162.959,176.240 162.734,175.800 162.510 C 175.360 162.285,175.000 162.138,175.000 162.184 M223.535 162.904 C 223.213 163.110,223.037 163.279,223.145 163.279 C 223.252 163.279,223.604 163.104,223.926 162.891 C 224.248 162.677,224.424 162.508,224.316 162.516 C 224.209 162.523,223.857 162.697,223.535 162.904 M177.256 163.457 C 177.520 163.706,181.657 165.479,181.752 165.383 C 181.796 165.340,181.327 165.098,180.710 164.846 C 180.094 164.595,179.069 164.140,178.432 163.835 C 177.215 163.253,176.950 163.167,177.256 163.457 M220.703 164.258 C 220.327 164.464,220.107 164.632,220.215 164.632 C 220.322 164.632,220.718 164.464,221.094 164.258 C 221.470 164.052,221.689 163.884,221.582 163.884 C 221.475 163.884,221.079 164.052,220.703 164.258 M218.848 165.053 C 218.418 165.260,218.286 165.374,218.555 165.307 C 219.108 165.170,220.123 164.661,219.824 164.671 C 219.717 164.674,219.277 164.846,218.848 165.053 M185.059 166.602 C 185.273 166.694,185.581 166.769,185.742 166.769 C 185.927 166.769,185.891 166.707,185.645 166.602 C 185.430 166.509,185.122 166.434,184.961 166.434 C 184.776 166.434,184.812 166.496,185.059 166.602 M214.355 166.602 C 214.109 166.707,214.073 166.769,214.258 166.769 C 214.419 166.769,214.727 166.694,214.941 166.602 C 215.188 166.496,215.224 166.434,215.039 166.434 C 214.878 166.434,214.570 166.509,214.355 166.602 M187.207 167.188 C 187.422 167.280,187.729 167.355,187.891 167.355 C 188.075 167.355,188.039 167.293,187.793 167.188 C 187.578 167.095,187.271 167.020,187.109 167.020 C 186.925 167.020,186.961 167.082,187.207 167.188 M212.207 167.188 C 211.961 167.293,211.925 167.355,212.109 167.355 C 212.271 167.355,212.578 167.280,212.793 167.188 C 213.039 167.082,213.075 167.020,212.891 167.020 C 212.729 167.020,212.422 167.095,212.207 167.188 M189.274 167.648 C 189.319 167.686,189.663 167.774,190.039 167.843 C 190.520 167.931,190.636 167.911,190.430 167.776 C 190.165 167.603,189.080 167.482,189.274 167.648 M209.473 167.773 C 208.975 167.987,209.488 167.987,210.156 167.773 C 210.549 167.648,210.568 167.616,210.254 167.611 C 210.039 167.608,209.687 167.681,209.473 167.773 M195.313 168.152 C 195.313 168.252,195.027 168.370,194.678 168.413 C 194.053 168.491,194.054 168.493,194.775 168.523 C 195.310 168.546,195.508 168.476,195.508 168.262 C 195.508 168.101,195.464 167.969,195.410 167.969 C 195.356 167.969,195.313 168.051,195.313 168.152 M204.495 168.213 C 204.493 168.474,204.641 168.548,205.127 168.528 C 205.664 168.506,205.687 168.488,205.273 168.411 C 205.005 168.361,204.721 168.219,204.642 168.096 C 204.549 167.951,204.497 167.993,204.495 168.213 M192.627 168.299 C 192.815 168.348,193.123 168.348,193.311 168.299 C 193.499 168.250,193.345 168.209,192.969 168.209 C 192.593 168.209,192.439 168.250,192.627 168.299 M206.494 168.299 C 206.682 168.348,206.990 168.348,207.178 168.299 C 207.366 168.250,207.212 168.209,206.836 168.209 C 206.460 168.209,206.306 168.250,206.494 168.299 M172.510 197.754 C 172.512 198.184,172.552 198.336,172.599 198.093 C 172.646 197.850,172.644 197.499,172.595 197.312 C 172.546 197.125,172.508 197.324,172.510 197.754 M151.025 202.877 C 151.428 202.919,152.087 202.919,152.490 202.877 C 152.893 202.835,152.563 202.800,151.758 202.800 C 150.952 202.800,150.623 202.835,151.025 202.877 M243.062 219.629 C 243.062 228.545,243.086 232.221,243.115 227.798 C 243.144 223.375,243.144 216.080,243.115 211.587 C 243.086 207.094,243.062 210.713,243.062 219.629 M190.511 207.422 C 190.511 209.517,190.540 210.374,190.575 209.326 C 190.610 208.279,190.610 206.565,190.575 205.518 C 190.540 204.470,190.511 205.327,190.511 207.422 M167.855 207.520 C 167.855 209.561,167.884 210.369,167.919 209.316 C 167.954 208.263,167.954 206.593,167.919 205.605 C 167.883 204.617,167.855 205.479,167.855 207.520 M252.629 207.861 L 251.660 208.887 252.686 207.917 C 253.250 207.384,253.711 206.923,253.711 206.892 C 253.711 206.746,253.530 206.909,252.629 207.861 M277.148 208.105 C 277.513 208.481,277.855 208.789,277.909 208.789 C 277.962 208.789,277.708 208.481,277.344 208.105 C 276.979 207.729,276.637 207.422,276.584 207.422 C 276.530 207.422,276.784 207.729,277.148 208.105 M87.793 211.719 C 88.213 212.148,88.600 212.500,88.653 212.500 C 88.707 212.500,88.408 212.148,87.988 211.719 C 87.569 211.289,87.181 210.938,87.128 210.938 C 87.074 210.938,87.373 211.289,87.793 211.719 M172.160 219.141 C 172.160 223.599,172.185 225.422,172.217 223.193 C 172.248 220.964,172.248 217.317,172.217 215.088 C 172.185 212.859,172.160 214.683,172.160 219.141 M132.706 222.363 C 132.706 226.553,132.732 228.239,132.763 226.110 C 132.795 223.981,132.795 220.554,132.763 218.493 C 132.732 216.432,132.706 218.174,132.706 222.363 M118.018 215.760 C 118.206 215.809,118.513 215.809,118.701 215.760 C 118.889 215.711,118.735 215.670,118.359 215.670 C 117.983 215.670,117.830 215.711,118.018 215.760 M281.699 219.727 C 281.699 220.317,281.736 220.559,281.781 220.264 C 281.825 219.968,281.825 219.485,281.781 219.189 C 281.736 218.894,281.699 219.136,281.699 219.727 M90.723 226.308 C 94.575 226.447,98.393 226.452,98.310 226.318 C 98.260 226.238,96.181 226.190,93.690 226.212 C 91.198 226.233,89.863 226.277,90.723 226.308 M271.221 226.318 C 271.171 226.399,272.462 226.442,274.091 226.415 C 279.485 226.323,280.035 226.251,275.646 226.211 C 273.262 226.190,271.271 226.238,271.221 226.318 M116.458 229.437 C 116.755 229.482,117.194 229.481,117.434 229.434 C 117.675 229.388,117.432 229.351,116.895 229.353 C 116.357 229.354,116.161 229.392,116.458 229.437 M70.703 231.348 C 71.287 231.938,71.808 232.422,71.862 232.422 C 71.915 232.422,71.482 231.938,70.898 231.348 C 70.315 230.757,69.794 230.273,69.740 230.273 C 69.686 230.273,70.120 230.757,70.703 231.348 M94.817 231.494 L 93.848 232.520 94.873 231.550 C 95.437 231.017,95.898 230.556,95.898 230.525 C 95.898 230.379,95.717 230.541,94.817 231.494 M161.904 232.764 L 161.230 233.496 161.963 232.823 C 162.645 232.197,162.785 232.031,162.636 232.031 C 162.603 232.031,162.274 232.361,161.904 232.764 M104.297 232.874 C 104.297 232.907,104.583 233.193,104.932 233.508 L 105.566 234.082 104.993 233.447 C 104.458 232.856,104.297 232.723,104.297 232.874 M112.549 236.468 C 112.844 236.513,113.328 236.513,113.623 236.468 C 113.918 236.423,113.677 236.387,113.086 236.387 C 112.495 236.387,112.253 236.423,112.549 236.468 M149.854 236.470 C 150.256 236.513,150.916 236.513,151.318 236.470 C 151.721 236.428,151.392 236.394,150.586 236.394 C 149.780 236.394,149.451 236.428,149.854 236.470 M181.885 236.470 C 182.288 236.513,182.947 236.513,183.350 236.470 C 183.752 236.428,183.423 236.394,182.617 236.394 C 181.812 236.394,181.482 236.428,181.885 236.470 M107.708 255.957 C 107.708 261.436,107.733 263.705,107.763 261.000 C 107.794 258.295,107.794 253.813,107.764 251.039 C 107.733 248.265,107.708 250.479,107.708 255.957 M164.134 249.902 C 164.134 250.977,164.167 251.391,164.207 250.824 C 164.246 250.256,164.246 249.377,164.206 248.870 C 164.166 248.364,164.133 248.828,164.134 249.902 M138.821 249.748 C 139.064 249.794,139.415 249.792,139.602 249.744 C 139.789 249.695,139.590 249.656,139.160 249.659 C 138.730 249.661,138.578 249.701,138.821 249.748 M172.610 249.748 C 172.853 249.794,173.204 249.792,173.391 249.744 C 173.578 249.695,173.379 249.656,172.949 249.659 C 172.520 249.661,172.367 249.701,172.610 249.748 M160.401 250.879 C 160.403 251.309,160.443 251.461,160.490 251.218 C 160.536 250.975,160.535 250.624,160.486 250.437 C 160.437 250.250,160.399 250.449,160.401 250.879 M98.584 251.508 C 98.933 251.552,99.504 251.552,99.854 251.508 C 100.203 251.465,99.917 251.430,99.219 251.430 C 98.521 251.430,98.235 251.465,98.584 251.508 M183.643 251.502 C 183.831 251.551,184.138 251.551,184.326 251.502 C 184.514 251.453,184.360 251.413,183.984 251.413 C 183.608 251.413,183.455 251.453,183.643 251.502 M185.110 251.505 C 185.353 251.552,185.704 251.550,185.891 251.501 C 186.078 251.452,185.879 251.414,185.449 251.416 C 185.020 251.419,184.867 251.459,185.110 251.505 M203.174 251.507 C 203.469 251.552,203.953 251.552,204.248 251.507 C 204.543 251.462,204.302 251.426,203.711 251.426 C 203.120 251.426,202.878 251.462,203.174 251.507 M225.635 251.502 C 225.823 251.551,226.130 251.551,226.318 251.502 C 226.506 251.453,226.353 251.413,225.977 251.413 C 225.601 251.413,225.447 251.453,225.635 251.502 M241.650 251.507 C 241.946 251.552,242.429 251.552,242.725 251.507 C 243.020 251.462,242.778 251.426,242.188 251.426 C 241.597 251.426,241.355 251.462,241.650 251.507 M277.381 251.488 C 277.562 251.542,277.755 251.735,277.809 251.916 C 277.880 252.155,277.896 252.139,277.867 251.858 C 277.844 251.630,277.667 251.453,277.439 251.429 C 277.157 251.401,277.141 251.417,277.381 251.488 M125.284 258.887 C 125.284 262.861,125.310 264.460,125.342 262.438 C 125.373 260.417,125.373 257.165,125.341 255.212 C 125.310 253.258,125.284 254.912,125.284 258.887 M141.104 258.887 C 141.104 262.861,141.130 264.460,141.162 262.438 C 141.194 260.417,141.194 257.165,141.162 255.212 C 141.130 253.258,141.104 254.912,141.104 258.887 M167.771 253.165 C 167.719 253.993,167.746 254.599,167.832 254.513 C 167.918 254.426,167.961 253.749,167.928 253.008 L 167.867 251.660 167.771 253.165 M251.257 256.934 C 251.257 259.834,251.284 261.048,251.318 259.631 C 251.351 258.214,251.351 255.841,251.318 254.357 C 251.285 252.874,251.257 254.033,251.257 256.934 M264.151 258.887 C 264.151 262.861,264.177 264.460,264.209 262.438 C 264.241 260.417,264.240 257.165,264.209 255.212 C 264.177 253.258,264.151 254.912,264.151 258.887 M170.986 259.277 C 170.986 262.930,171.013 264.396,171.045 262.536 C 171.077 260.676,171.077 257.688,171.045 255.896 C 171.012 254.103,170.986 255.625,170.986 259.277 M268.837 259.375 C 268.837 262.866,268.864 264.294,268.896 262.549 C 268.929 260.803,268.929 257.947,268.896 256.201 C 268.864 254.456,268.837 255.884,268.837 259.375 M99.172 254.630 C 99.415 254.677,99.767 254.675,99.953 254.626 C 100.140 254.577,99.941 254.539,99.512 254.541 C 99.082 254.544,98.929 254.584,99.172 254.630 M164.143 257.910 C 164.143 259.844,164.173 260.608,164.208 259.609 C 164.244 258.610,164.244 257.028,164.208 256.094 C 164.172 255.159,164.143 255.977,164.143 257.910 M225.244 254.627 C 225.432 254.676,225.740 254.676,225.928 254.627 C 226.116 254.578,225.962 254.538,225.586 254.538 C 225.210 254.538,225.056 254.578,225.244 254.627 M286.279 254.630 C 286.521 254.677,286.917 254.677,287.158 254.630 C 287.400 254.583,287.202 254.545,286.719 254.545 C 286.235 254.545,286.038 254.583,286.279 254.630 M144.975 255.859 C 144.975 256.343,145.013 256.541,145.060 256.299 C 145.106 256.057,145.106 255.662,145.060 255.420 C 145.013 255.178,144.975 255.376,144.975 255.859 M120.788 261.133 C 120.788 263.872,120.815 264.993,120.849 263.623 C 120.883 262.253,120.883 260.012,120.849 258.643 C 120.815 257.273,120.788 258.394,120.788 261.133 M191.098 260.156 C 191.098 262.358,191.126 263.259,191.161 262.158 C 191.196 261.057,191.196 259.255,191.161 258.154 C 191.126 257.053,191.098 257.954,191.098 260.156 M308.092 261.035 C 308.092 263.721,308.120 264.846,308.154 263.537 C 308.187 262.227,308.187 260.030,308.154 258.654 C 308.120 257.278,308.093 258.350,308.092 261.035 M218.036 258.887 C 218.036 259.746,218.071 260.073,218.112 259.614 C 218.153 259.155,218.153 258.451,218.111 258.051 C 218.069 257.651,218.035 258.027,218.036 258.887 M279.151 258.887 C 279.153 259.316,279.193 259.469,279.240 259.226 C 279.286 258.983,279.285 258.632,279.236 258.445 C 279.187 258.258,279.149 258.457,279.151 258.887 M154.688 258.460 C 154.688 258.493,154.973 258.779,155.322 259.094 L 155.957 259.668 155.383 259.033 C 154.849 258.442,154.688 258.309,154.688 258.460 M160.401 262.402 C 160.403 262.832,160.443 262.985,160.490 262.742 C 160.536 262.499,160.535 262.147,160.486 261.961 C 160.437 261.774,160.399 261.973,160.401 262.402 M184.133 263.615 C 184.376 263.661,184.728 263.660,184.914 263.611 C 185.101 263.562,184.902 263.524,184.473 263.526 C 184.043 263.528,183.890 263.568,184.133 263.615 M98.779 266.349 C 99.021 266.395,99.417 266.395,99.658 266.349 C 99.900 266.302,99.702 266.264,99.219 266.264 C 98.735 266.264,98.538 266.302,98.779 266.349 M149.856 266.351 C 150.153 266.396,150.593 266.395,150.833 266.348 C 151.073 266.302,150.830 266.265,150.293 266.267 C 149.756 266.268,149.559 266.306,149.856 266.351 M164.404 266.349 C 164.646 266.395,165.042 266.395,165.283 266.349 C 165.525 266.302,165.327 266.264,164.844 266.264 C 164.360 266.264,164.163 266.302,164.404 266.349 M182.861 266.346 C 183.049 266.395,183.357 266.395,183.545 266.346 C 183.733 266.296,183.579 266.256,183.203 266.256 C 182.827 266.256,182.673 266.296,182.861 266.346 M224.661 266.351 C 224.958 266.396,225.397 266.395,225.637 266.348 C 225.878 266.302,225.635 266.265,225.098 266.267 C 224.561 266.268,224.364 266.306,224.661 266.351 M255.618 266.349 C 255.860 266.396,256.212 266.394,256.399 266.345 C 256.585 266.296,256.387 266.258,255.957 266.260 C 255.527 266.262,255.375 266.302,255.618 266.349 M285.889 266.349 C 286.130 266.395,286.526 266.395,286.768 266.349 C 287.009 266.302,286.812 266.264,286.328 266.264 C 285.845 266.264,285.647 266.302,285.889 266.349 " stroke="none" fill="#c3af9e" fill-rule="evenodd"></path><path id="path4" d="M232.087 194.824 C 232.089 195.361,232.127 195.558,232.171 195.261 C 232.216 194.964,232.215 194.525,232.169 194.284 C 232.122 194.044,232.086 194.287,232.087 194.824 M172.731 195.789 C 172.672 195.944,172.664 196.230,172.715 196.424 C 172.775 196.655,172.814 196.592,172.829 196.240 L 172.852 195.703 177.633 195.703 L 182.414 195.703 182.467 199.658 L 182.520 203.613 186.475 203.620 L 190.430 203.626 186.524 203.567 L 182.617 203.508 182.617 199.508 L 182.617 195.508 177.728 195.508 C 173.651 195.508,172.821 195.555,172.731 195.789 M237.453 200.333 C 237.696 200.380,238.048 200.378,238.235 200.330 C 238.421 200.281,238.223 200.242,237.793 200.245 C 237.363 200.247,237.210 200.287,237.453 200.333 M82.086 202.878 C 82.599 202.919,83.390 202.918,83.844 202.877 C 84.297 202.836,83.877 202.803,82.910 202.804 C 81.943 202.804,81.572 202.838,82.086 202.878 M264.017 202.876 C 264.368 202.919,264.896 202.918,265.189 202.874 C 265.483 202.829,265.195 202.794,264.551 202.795 C 263.906 202.796,263.666 202.832,264.017 202.876 M115.088 203.064 C 115.276 203.113,115.583 203.113,115.771 203.064 C 115.959 203.015,115.806 202.975,115.430 202.975 C 115.054 202.975,114.900 203.015,115.088 203.064 M119.094 203.068 C 119.337 203.115,119.689 203.113,119.875 203.064 C 120.062 203.015,119.863 202.977,119.434 202.979 C 119.004 202.981,118.851 203.021,119.094 203.068 M172.070 203.320 C 172.070 203.438,171.260 203.516,170.031 203.516 C 168.909 203.516,167.951 203.582,167.901 203.662 C 167.851 203.743,168.812 203.781,170.038 203.748 C 171.818 203.699,172.266 203.631,172.266 203.406 C 172.266 203.252,172.222 203.125,172.168 203.125 C 172.114 203.125,172.070 203.213,172.070 203.320 M193.750 203.659 C 193.750 203.741,196.226 203.784,199.252 203.754 C 203.553 203.711,204.793 203.753,204.931 203.949 C 205.066 204.140,205.089 204.129,205.028 203.906 C 204.941 203.587,193.750 203.342,193.750 203.659 M219.824 203.653 C 224.712 203.792,229.057 203.796,228.974 203.662 C 228.924 203.582,226.405 203.534,223.377 203.557 C 220.349 203.579,218.750 203.623,219.824 203.653 M235.217 203.662 C 236.700 203.695,239.073 203.695,240.490 203.662 C 241.907 203.628,240.693 203.601,237.793 203.601 C 234.893 203.601,233.733 203.628,235.217 203.662 M285.400 203.662 C 286.877 203.695,289.294 203.695,290.771 203.662 C 292.249 203.628,291.040 203.601,288.086 203.601 C 285.132 203.601,283.923 203.628,285.400 203.662 M305.701 203.661 C 307.065 203.695,309.350 203.695,310.779 203.662 C 312.209 203.628,311.094 203.601,308.301 203.601 C 305.508 203.601,304.338 203.628,305.701 203.661 M323.177 203.646 C 323.105 203.717,323.048 203.871,323.050 203.988 C 323.052 204.116,323.113 204.104,323.206 203.958 C 323.319 203.779,324.713 203.703,328.623 203.662 L 333.887 203.607 328.597 203.561 C 325.688 203.536,323.249 203.574,323.177 203.646 M140.810 206.592 L 140.137 207.324 140.869 206.651 C 141.551 206.025,141.691 205.859,141.542 205.859 C 141.510 205.859,141.180 206.189,140.810 206.592 M93.555 206.506 C 93.555 206.540,93.840 206.826,94.189 207.141 L 94.824 207.715 94.251 207.080 C 93.716 206.488,93.555 206.356,93.555 206.506 M70.987 207.666 L 70.215 208.496 71.045 207.724 C 71.817 207.006,71.965 206.836,71.817 206.836 C 71.785 206.836,71.412 207.209,70.987 207.666 M82.471 209.710 C 82.766 209.755,83.250 209.755,83.545 209.710 C 83.840 209.665,83.599 209.629,83.008 209.629 C 82.417 209.629,82.175 209.665,82.471 209.710 M264.307 209.710 C 264.602 209.755,265.085 209.755,265.381 209.710 C 265.676 209.665,265.435 209.629,264.844 209.629 C 264.253 209.629,264.011 209.665,264.307 209.710 M115.581 210.300 C 116.041 210.341,116.744 210.340,117.144 210.298 C 117.544 210.256,117.168 210.222,116.309 210.223 C 115.449 210.224,115.122 210.258,115.581 210.300 M269.727 211.621 C 270.091 211.997,270.433 212.305,270.487 212.305 C 270.540 212.305,270.286 211.997,269.922 211.621 C 269.557 211.245,269.215 210.938,269.162 210.938 C 269.108 210.938,269.362 211.245,269.727 211.621 M182.509 217.383 C 182.509 220.767,182.535 222.151,182.568 220.459 C 182.601 218.767,182.601 215.999,182.568 214.307 C 182.535 212.615,182.509 213.999,182.509 217.383 M138.144 213.281 C 138.144 213.872,138.181 214.114,138.226 213.818 C 138.271 213.523,138.271 213.040,138.226 212.744 C 138.181 212.449,138.144 212.690,138.144 213.281 M119.189 215.760 C 119.377 215.809,119.685 215.809,119.873 215.760 C 120.061 215.711,119.907 215.670,119.531 215.670 C 119.155 215.670,119.001 215.711,119.189 215.760 M99.673 219.629 C 99.674 220.381,99.710 220.665,99.752 220.259 C 99.794 219.854,99.793 219.239,99.750 218.892 C 99.707 218.545,99.673 218.877,99.673 219.629 M66.076 219.629 C 66.077 220.273,66.114 220.514,66.157 220.163 C 66.201 219.811,66.200 219.284,66.155 218.991 C 66.111 218.697,66.075 218.984,66.076 219.629 M140.039 219.006 C 140.039 219.040,140.325 219.326,140.674 219.641 L 141.309 220.215 140.735 219.580 C 140.200 218.988,140.039 218.856,140.039 219.006 M120.068 221.427 C 120.310 221.473,120.706 221.473,120.947 221.427 C 121.189 221.380,120.991 221.342,120.508 221.342 C 120.024 221.342,119.827 221.380,120.068 221.427 M76.300 222.217 C 76.217 222.350,84.186 222.348,94.531 222.212 C 96.733 222.183,93.553 222.140,87.463 222.115 C 81.373 222.090,76.349 222.136,76.300 222.217 M264.028 222.217 C 267.285 222.247,272.558 222.247,275.746 222.217 C 278.935 222.187,276.270 222.162,269.824 222.162 C 263.379 222.162,260.770 222.187,264.028 222.217 M113.757 223.291 L 113.184 223.926 113.818 223.352 C 114.167 223.037,114.453 222.751,114.453 222.717 C 114.453 222.566,114.292 222.699,113.757 223.291 M164.900 225.488 C 164.901 226.025,164.939 226.222,164.984 225.925 C 165.029 225.628,165.028 225.189,164.981 224.948 C 164.935 224.708,164.898 224.951,164.900 225.488 M120.984 227.783 L 120.410 228.418 121.045 227.844 C 121.637 227.310,121.769 227.148,121.619 227.148 C 121.585 227.148,121.299 227.434,120.984 227.783 M83.645 228.851 C 83.942 228.896,84.382 228.895,84.622 228.848 C 84.862 228.802,84.619 228.765,84.082 228.767 C 83.545 228.768,83.348 228.806,83.645 228.851 M265.479 228.851 C 265.774 228.896,266.257 228.896,266.553 228.851 C 266.848 228.806,266.606 228.769,266.016 228.769 C 265.425 228.769,265.183 228.806,265.479 228.851 M150.541 229.048 C 150.892 229.091,151.419 229.090,151.712 229.046 C 152.006 229.001,151.719 228.966,151.074 228.967 C 150.430 228.968,150.190 229.004,150.541 229.048 M132.663 230.469 C 132.663 230.845,132.703 230.999,132.752 230.811 C 132.801 230.623,132.801 230.315,132.752 230.127 C 132.703 229.939,132.663 230.093,132.663 230.469 M252.832 231.445 C 253.470 232.090,254.036 232.617,254.089 232.617 C 254.143 232.617,253.665 232.090,253.027 231.445 C 252.390 230.801,251.824 230.273,251.770 230.273 C 251.716 230.273,252.194 230.801,252.832 231.445 M276.651 231.494 L 275.879 232.324 276.709 231.552 C 277.481 230.834,277.629 230.664,277.481 230.664 C 277.449 230.664,277.076 231.038,276.651 231.494 M111.411 250.000 C 111.411 252.202,111.439 253.103,111.474 252.002 C 111.509 250.901,111.509 249.099,111.474 247.998 C 111.439 246.897,111.411 247.798,111.411 250.000 M233.884 256.055 L 233.887 265.918 235.742 265.918 L 237.598 265.918 237.604 261.523 L 237.609 257.129 237.551 261.475 L 237.493 265.820 235.740 265.820 L 233.988 265.820 233.935 256.006 L 233.881 246.191 233.884 256.055 M298.632 250.156 L 298.730 254.199 298.783 250.307 C 298.813 248.166,298.769 246.347,298.686 246.264 C 298.603 246.181,298.579 247.932,298.632 250.156 M237.577 248.926 C 237.577 250.430,237.608 251.019,237.645 250.236 C 237.682 249.452,237.682 248.222,237.645 247.501 C 237.607 246.781,237.577 247.422,237.577 248.926 M295.017 256.103 L 295.020 265.918 296.875 265.918 L 298.730 265.918 298.736 261.670 L 298.742 257.422 298.684 261.621 L 298.625 265.820 296.873 265.820 L 295.121 265.820 295.067 256.055 L 295.014 246.289 295.017 256.103 M160.592 249.219 C 160.592 249.595,160.632 249.749,160.682 249.561 C 160.731 249.373,160.731 249.065,160.682 248.877 C 160.632 248.689,160.592 248.843,160.592 249.219 M150.342 251.505 C 150.583 251.552,150.979 251.552,151.221 251.505 C 151.462 251.458,151.265 251.420,150.781 251.420 C 150.298 251.420,150.100 251.458,150.342 251.505 M158.437 253.076 L 158.398 254.492 159.371 254.492 L 160.343 254.492 160.403 258.154 L 160.463 261.816 160.456 258.105 L 160.449 254.395 159.530 254.335 L 158.611 254.276 158.543 252.968 L 158.475 251.660 158.437 253.076 M237.549 252.441 C 237.551 252.871,237.591 253.024,237.638 252.781 C 237.685 252.538,237.683 252.186,237.634 252.000 C 237.585 251.813,237.547 252.012,237.549 252.441 M254.967 256.348 C 254.967 258.926,254.995 259.953,255.029 258.631 C 255.063 257.309,255.063 255.200,255.029 253.944 C 254.995 252.688,254.967 253.770,254.967 256.348 M260.435 256.055 C 260.435 258.472,260.463 259.460,260.497 258.252 C 260.532 257.043,260.532 255.066,260.497 253.857 C 260.463 252.649,260.435 253.638,260.435 256.055 M103.516 252.795 C 103.516 252.829,103.801 253.115,104.150 253.430 L 104.785 254.004 104.212 253.369 C 103.677 252.777,103.516 252.645,103.516 252.795 M195.400 259.375 C 195.400 262.974,195.426 264.446,195.459 262.646 C 195.491 260.847,195.491 257.903,195.459 256.104 C 195.426 254.304,195.400 255.776,195.400 259.375 M150.342 254.239 C 150.583 254.286,150.979 254.286,151.221 254.239 C 151.462 254.193,151.265 254.155,150.781 254.155 C 150.298 254.155,150.100 254.193,150.342 254.239 M165.088 254.440 C 165.598 254.481,166.433 254.481,166.943 254.440 C 167.454 254.400,167.036 254.367,166.016 254.367 C 164.995 254.367,164.578 254.400,165.088 254.440 M114.307 254.627 C 114.495 254.676,114.802 254.676,114.990 254.627 C 115.178 254.578,115.024 254.538,114.648 254.538 C 114.272 254.538,114.119 254.578,114.307 254.627 M201.904 254.630 C 202.146 254.677,202.542 254.677,202.783 254.630 C 203.025 254.583,202.827 254.545,202.344 254.545 C 201.860 254.545,201.663 254.583,201.904 254.630 M240.383 254.630 C 240.626 254.677,240.978 254.675,241.164 254.626 C 241.351 254.577,241.152 254.539,240.723 254.541 C 240.293 254.544,240.140 254.584,240.383 254.630 M301.611 254.627 C 301.799 254.676,302.107 254.676,302.295 254.627 C 302.483 254.578,302.329 254.538,301.953 254.538 C 301.577 254.538,301.423 254.578,301.611 254.627 M275.732 255.021 C 275.974 255.067,276.370 255.067,276.611 255.021 C 276.853 254.974,276.655 254.936,276.172 254.936 C 275.688 254.936,275.491 254.974,275.732 255.021 M246.765 260.547 C 246.765 263.394,246.792 264.558,246.826 263.135 C 246.859 261.711,246.859 259.382,246.826 257.959 C 246.792 256.536,246.765 257.700,246.765 260.547 M187.327 256.483 C 187.307 256.955,187.220 257.016,186.475 257.084 L 185.645 257.158 186.481 257.192 C 187.360 257.228,187.618 256.991,187.442 256.310 C 187.380 256.074,187.342 256.132,187.327 256.483 M117.084 261.426 L 117.090 265.918 118.897 265.930 L 120.704 265.941 118.949 265.873 L 117.195 265.806 117.137 261.370 L 117.079 256.934 117.084 261.426 M204.732 261.572 L 204.688 266.016 206.592 265.975 L 208.496 265.935 206.693 265.870 L 204.890 265.806 204.834 261.467 L 204.777 257.129 204.732 261.572 M199.068 261.565 L 199.023 265.805 197.314 265.870 L 195.605 265.935 197.321 265.975 C 199.417 266.025,199.240 266.460,199.170 261.421 L 199.113 257.324 199.068 261.565 M304.380 261.523 C 304.380 263.833,304.408 264.778,304.443 263.623 C 304.477 262.468,304.477 260.579,304.443 259.424 C 304.408 258.269,304.380 259.214,304.380 261.523 M111.411 261.816 C 111.412 264.180,111.440 265.120,111.474 263.905 C 111.508 262.691,111.508 260.757,111.474 259.608 C 111.439 258.459,111.411 259.453,111.411 261.816 M243.247 261.914 C 243.247 264.224,243.275 265.168,243.310 264.014 C 243.344 262.859,243.344 260.969,243.310 259.814 C 243.275 258.660,243.247 259.604,243.247 261.914 M282.862 258.691 C 282.864 259.121,282.904 259.274,282.951 259.031 C 282.997 258.788,282.996 258.436,282.947 258.250 C 282.898 258.063,282.860 258.262,282.862 258.691 M128.906 261.995 C 128.906 264.847,128.846 265.812,128.662 265.886 C 128.516 265.945,128.556 265.991,128.760 266.000 C 129.074 266.014,129.102 265.705,129.102 262.109 C 129.102 259.961,129.058 258.203,129.004 258.203 C 128.950 258.203,128.906 259.910,128.906 261.995 M272.543 262.012 C 272.543 264.160,272.571 265.066,272.606 264.024 C 272.641 262.982,272.642 261.225,272.607 260.118 C 272.572 259.011,272.543 259.863,272.543 262.012 M186.710 259.289 C 187.272 259.395,187.289 259.434,187.360 260.705 L 187.434 262.012 187.418 260.645 L 187.402 259.277 186.768 259.229 C 186.158 259.182,186.156 259.184,186.710 259.289 M291.296 264.502 L 290.723 265.137 291.357 264.563 C 291.949 264.028,292.082 263.867,291.931 263.867 C 291.897 263.867,291.612 264.153,291.296 264.502 M259.364 264.795 L 258.691 265.527 259.424 264.854 C 259.827 264.484,260.156 264.154,260.156 264.122 C 260.156 263.973,259.991 264.113,259.364 264.795 M252.148 264.514 C 252.148 264.548,252.434 264.833,252.783 265.149 L 253.418 265.723 252.844 265.088 C 252.310 264.496,252.148 264.363,252.148 264.514 M260.613 265.430 C 260.644 265.910,260.673 265.918,262.354 265.930 L 264.064 265.942 262.415 265.874 C 260.900 265.811,260.760 265.771,260.674 265.373 C 260.594 265.006,260.585 265.014,260.613 265.430 M268.924 265.878 C 269.009 265.963,269.818 266.006,270.721 265.974 L 272.363 265.915 270.565 265.819 C 269.577 265.766,268.838 265.792,268.924 265.878 M108.648 265.964 C 109.162 266.004,109.953 266.004,110.406 265.963 C 110.860 265.922,110.439 265.889,109.473 265.890 C 108.506 265.890,108.135 265.924,108.648 265.964 M127.005 265.960 C 127.302 266.005,127.741 266.004,127.981 265.958 C 128.221 265.911,127.979 265.875,127.441 265.876 C 126.904 265.878,126.708 265.916,127.005 265.960 M138.239 265.965 C 138.807 266.004,139.685 266.004,140.192 265.964 C 140.699 265.924,140.234 265.891,139.160 265.892 C 138.086 265.892,137.671 265.925,138.239 265.965 M172.408 265.961 C 172.754 266.004,173.370 266.005,173.775 265.963 C 174.180 265.921,173.896 265.885,173.145 265.884 C 172.393 265.884,172.061 265.918,172.408 265.961 M188.623 265.964 C 189.187 266.004,190.110 266.004,190.674 265.964 C 191.238 265.925,190.776 265.893,189.648 265.893 C 188.521 265.893,188.059 265.925,188.623 265.964 M244.391 265.964 C 244.904 266.004,245.695 266.004,246.148 265.963 C 246.602 265.922,246.182 265.889,245.215 265.890 C 244.248 265.890,243.877 265.924,244.391 265.964 M305.231 265.965 C 305.799 266.004,306.678 266.004,307.184 265.964 C 307.691 265.924,307.227 265.891,306.152 265.892 C 305.078 265.892,304.664 265.925,305.231 265.965 " stroke="none" fill="#797c81" fill-rule="evenodd"></path></g></svg>