<?xml version="1.0" encoding="utf-8"?>
<!-- Generator: Adobe Illustrator 19.2.1, SVG Export Plug-In . SVG Version: 6.00 Build 0)  -->
<svg version="1.1" id="Layer_1" xmlns="http://www.w3.org/2000/svg" xmlns:xlink="http://www.w3.org/1999/xlink" x="0px" y="0px"
	 viewBox="0 0 574.7 90.1" style="enable-background:new 0 0 574.7 90.1;" xml:space="preserve">
<style type="text/css">
	.st0{fill:#FFFFFF;}
</style>
<title>Logo_blue_horiz</title>
<g>
	<path class="st0" d="M64.5,42.2c-1.4,8.6-6.8,16-14.6,19.8l0,0c-7.5,3.7-16.3,3.7-23.8,0l0,0C13,55.4,7.6,39.3,14.2,26.1
		s22.7-18.6,35.9-12c3.1,1.5,5.8,3.6,8.1,6.2l-1.3,0.9l-17.7,12c-2.7-0.5-5.2,1.3-5.7,3.9c-0.5,2.7,1.3,5.2,3.9,5.7
		c2.7,0.5,5.2-1.3,5.7-3.9c0-0.2,0.1-0.5,0.1-0.7L59,23.9l1.8-1.6l1.4-1.3l6.2-5.5h0.1l0,0l0,0l0.2-0.1l0,0c-0.3-0.4-0.7-0.9-1-1.3
		l0,0l0,0C53.9-1.8,29.9-3.6,14,10.2s-17.6,37.7-3.9,53.6c0.6,0.7,1.2,1.3,1.8,2l0.1,0.1l11,10.7l13.4,12.9c0.9,0.9,2.4,0.9,3.3,0
		l13.3-13L63.8,66c6.6-6.1,10.9-14.3,12-23.2L64.5,42.2z"/>
	<g>
		<path class="st0" d="M147.9,43.9c0-6.9-2-12.7-6.1-17.2c-2-2.2-4.4-3.9-7.1-5.1c-2.8-1.2-5.9-1.7-8.9-1.7c-3.1,0-6.2,0.5-9.1,1.7
			c-2.8,1.2-5.3,2.9-7.4,5.2c-4.3,4.6-6.6,10.7-6.5,17c-0.2,6.5,2.3,12.7,6.9,17.2c4.6,4.6,10.9,7,17.4,6.9
			c3.7,0.1,7.5-0.6,10.9-2.1c3.2-1.4,5.9-3.5,8-6.2l1-1.2l-8.4-3.8l-0.6,0.7c-1.4,1.5-3,2.7-4.9,3.5s-3.9,1.2-6,1.2
			c-3.4,0.1-6.7-1-9.3-3.1l0,0c-2.6-2.1-4.4-5.1-5-8.4l-0.1-0.7H148L147.9,43.9L147.9,43.9z M112.6,40.3c0.5-3.2,1.9-6.2,4.1-8.5
			c5-4.9,13.1-4.9,18.1,0l0,0c2.2,2.3,3.7,5.3,4.1,8.5H112.6L112.6,40.3z"/>
		<path class="st0" d="M190.7,21.1v4.2c-1.6-1.4-3.5-2.5-5.5-3.4c-5.7-2.4-12.1-2.4-17.8-0.1c-2.7,1.2-5.2,3-7.2,5.2
			c-4.2,4.6-6.3,10.4-6.3,17.2s2.1,12.6,6.3,17.1l0.1,0.2l-0.1-0.2c2,2.2,4.4,3.9,7.2,5.1c5.7,2.3,12.1,2.3,17.8-0.1
			c2-0.9,3.8-2,5.5-3.4v4.2h9.3v-46H190.7L190.7,21.1z M187.5,55.6c-1.2,1.4-2.7,2.5-4.4,3.2c-3.6,1.4-7.6,1.4-11.2,0
			c-1.7-0.7-3.2-1.8-4.4-3.2c-2.6-2.9-3.9-6.7-3.9-11.5s1.3-8.6,3.9-11.6l0,0c1.2-1.4,2.7-2.5,4.4-3.3c3.6-1.5,7.6-1.5,11.1,0
			c1.7,0.8,3.2,1.9,4.4,3.3l0,0c2.6,2.9,3.9,6.7,3.9,11.6S190.1,52.7,187.5,55.6L187.5,55.6L187.5,55.6z"/>
		<path class="st0" d="M243.3,47.9c-1.1-1.8-2.6-3.4-4.4-4.5l0,0c-2.1-1.3-5.4-2.6-10-4l0,0c-2-0.6-3.6-1.1-4.9-1.6
			c-0.9-0.3-1.8-0.7-2.7-1.2c-0.6-0.4-1.1-0.9-1.5-1.5c-0.3-0.6-0.5-1.2-0.5-1.8c0-0.7,0.1-1.4,0.4-2c0.3-0.6,0.7-1.1,1.2-1.5
			c1.7-1.2,3.8-1.8,5.9-1.7c4.2,0,8.3,1.8,11.3,4.8l1,1l5.4-6.9l-0.9-0.8c-4.7-4-10.6-6.3-16.8-6.3c-4.4-0.2-8.7,1.1-12.2,3.6l0,0
			c-1.5,1.2-2.7,2.6-3.6,4.4c-0.8,1.7-1.2,3.6-1.2,5.5c0,2,0.5,4,1.5,5.8c1.1,1.8,2.7,3.3,4.5,4.3c1.2,0.6,2.4,1.2,3.7,1.6
			c1.7,0.6,3.8,1.3,6.3,2.1c2,0.6,3.7,1.2,5,1.6c0.9,0.3,1.7,0.6,2.5,1l0,0c0.7,0.4,1.2,0.9,1.6,1.6c0.4,0.7,0.5,1.5,0.5,2.2
			c0,0.8-0.2,1.6-0.5,2.3c-0.4,0.7-1,1.4-1.7,1.9c-1.9,1.2-4.2,1.8-6.5,1.7c-2.3,0-4.6-0.5-6.7-1.4c-2.2-1-4.3-2.5-6-4.2l-1-1
			l-5.6,7l0.9,0.8c5,4.7,11.6,7.2,18.5,7.2c5,0,9.3-1.2,12.6-3.6l0,0c1.7-1.2,3-2.8,4-4.6c0.9-1.8,1.4-3.8,1.4-5.8
			C244.8,51.8,244.3,49.8,243.3,47.9z"/>
		<path class="st0" d="M284,21.1v25.3c0,1.9-0.3,3.8-1,5.7c-0.6,1.6-1.6,3.1-2.9,4.2l0,0c-2.4,2.3-5.6,3.6-9,3.6
			c-1.4,0-2.8-0.2-4.1-0.7c-1.1-0.5-2.2-1.2-3-2.1l0,0c-1.6-1.9-2.5-4.5-2.5-7.9v-28h-9.3v28.4c0,2.6,0.4,5.1,1.3,7.5
			c0.8,2.3,2.2,4.3,3.9,6c3.4,3.3,7.9,5.1,12.6,5c3.1,0,6.1-0.6,8.9-1.9c1.9-0.9,3.6-2.1,5.2-3.5V67c0,1.4-0.3,2.7-0.8,3.9
			c-0.6,1.2-1.4,2.3-2.5,3.2c-2.2,1.8-5.3,2.8-9.5,2.8c-5-0.1-9.8-1.5-14-4.2l-1.1-0.7l-4.3,7.7l1,0.6c5.5,3.5,11.9,5.2,18.4,5.1
			c6.4,0,11.8-1.7,16-5.3l0,0c2-1.7,3.6-3.8,4.7-6.2c1.1-2.5,1.6-5.2,1.6-7.9V21.1H284L284,21.1z"/>
		<path class="st0" d="M356.8,53.4c-1,2-2.6,3.7-4.6,4.9c-2,1.1-4.3,1.7-6.6,1.6c-1.9,0-3.7-0.3-5.4-1.1c-1.6-0.7-3.1-1.8-4.2-3.2
			l0,0c-1.2-1.4-2.1-3.1-2.7-4.9c-0.6-2.2-1-4.4-0.9-6.7c0-2.3,0.3-4.5,0.9-6.7c0.6-1.8,1.5-3.5,2.7-4.9l0,0
			c1.1-1.4,2.6-2.5,4.2-3.2c3.9-1.6,8.3-1.4,12,0.5c1.9,1.2,3.5,2.9,4.6,4.9l0.6,1l8.4-3.8l-0.7-1.2c-1.9-3.3-4.7-6-8.1-7.9
			c-6.4-3.2-13.8-3.5-20.4-0.9c-2.8,1.2-5.3,3-7.4,5.2c-4.3,4.6-6.6,10.8-6.5,17.1c0,6.8,2.2,12.6,6.5,17.1s10.3,7,16.5,6.8
			c3.9,0.1,7.8-0.8,11.2-2.6c3.3-1.8,6.1-4.5,8.1-7.8l0.7-1.2l-8.3-4L356.8,53.4z"/>
		<path class="st0" d="M416.4,22.3V21h-9.3v4.2c-1.7-1.4-3.5-2.5-5.5-3.4c-5.7-2.4-12.1-2.4-17.8-0.1c-2.7,1.2-5.2,3-7.2,5.2
			c-4.2,4.6-6.3,10.4-6.3,17.2s2.1,12.6,6.3,17.1l0,0c2,2.2,4.4,3.9,7.2,5.1c5.7,2.3,12.1,2.3,17.8-0.1c2-0.9,3.8-2,5.5-3.4V67h9.3
			v-1.3h0.1L416.4,22.3L416.4,22.3L416.4,22.3z M403.9,55.6L403.9,55.6c-1.2,1.4-2.7,2.5-4.4,3.2c-3.6,1.4-7.6,1.4-11.2,0
			c-1.7-0.7-3.2-1.8-4.4-3.2l0,0c-1.3-1.4-2.3-3.1-2.9-4.9c-1.3-4.3-1.3-8.9,0-13.2c0.6-1.8,1.6-3.5,2.9-5l0,0
			c1.2-1.4,2.7-2.5,4.4-3.3c3.6-1.5,7.6-1.5,11.1,0c1.7,0.8,3.2,1.9,4.4,3.3l0,0c2.6,2.9,3.9,6.7,3.9,11.6S406.4,52.7,403.9,55.6z"
			/>
		<path class="st0" d="M450.5,21.3V20H449c-3,0-6.1,0.5-8.9,1.7c-1.7,0.7-3.4,1.7-4.8,2.9v-2.3h-0.1V21h-9.3v45.8h9.3v-1.3h0.1v-28
			c0-1.1,0.1-2.1,0.4-3.2c0.1-0.2,0.1-0.4,0.2-0.5c0.4-0.9,0.9-1.8,1.7-2.4c1.8-1.4,4-2.1,6.2-2c1.7,0,3.4,0.2,5,0.8l1.6,0.5V29h0.1
			L450.5,21.3L450.5,21.3L450.5,21.3z"/>
		<path class="st0" d="M481.3,21.3L481.3,21.3l-0.1-1.2h-1.5c-3,0-6.1,0.5-8.9,1.7c-1.7,0.7-3.4,1.7-4.8,2.9v-2.3h-0.1v-1.3h-9.3
			v45.8h9.3v-1.3h0.1V37.5c0-1.1,0.1-2.1,0.4-3.2c0.1-0.2,0.1-0.4,0.2-0.5c0.4-0.9,1-1.8,1.8-2.4c1.8-1.4,4-2.1,6.2-2
			c1.7,0,3.4,0.2,5,0.8l1.6,0.5V29h0.1L481.3,21.3L481.3,21.3z"/>
		<path class="st0" d="M530.8,36.9c-0.2-0.6-0.3-1.1-0.5-1.7v-0.1c-1.1-3-2.8-5.8-5-8.2l0,0c-2.1-2.2-4.7-4-7.6-5.2
			c-5.9-2.3-12.4-2.3-18.2,0c-2.8,1.2-5.3,2.9-7.4,5.2c-4.3,4.6-6.6,10.8-6.4,17.1c0,6.8,2.2,12.6,6.5,17.1l0,0
			c4.3,4.5,10.3,7,16.5,6.8c6.2,0.2,12.2-2.3,16.5-6.8c2.7-2.8,4.7-6.2,5.7-9.9c0.7-2.3,1-4.8,1-7.2
			C531.8,41.6,531.4,39.2,530.8,36.9z M518.2,55.6L518.2,55.6c-1.2,1.4-2.6,2.5-4.3,3.2c-3.5,1.4-7.4,1.4-10.8,0
			c-1.6-0.7-3.1-1.8-4.2-3.2c-1.2-1.4-2.1-3.1-2.7-4.9c-0.6-2.2-1-4.4-0.9-6.7c0-2.3,0.3-4.5,1-6.7c0.6-1.8,1.6-3.5,2.8-4.9l0,0l0,0
			c1.1-1.4,2.5-2.5,4.1-3.3c1.7-0.7,3.5-1.1,5.4-1.1s3.7,0.3,5.4,1.1c1.6,0.8,3.1,1.9,4.3,3.3l0,0c2.5,2.9,3.8,6.7,3.8,11.6
			S520.7,52.7,518.2,55.6z"/>
		<path class="st0" d="M574.7,53.9c0-2.1-0.6-4.2-1.5-6c-1.1-1.8-2.6-3.4-4.4-4.5l0,0c-2.1-1.3-5.4-2.6-10-4l0,0
			c-2-0.6-3.6-1.1-4.9-1.6c-0.9-0.3-1.8-0.7-2.7-1.2c-0.6-0.3-1.1-0.8-1.5-1.4c-0.1-0.2-0.2-0.4-0.3-0.7c-0.1-0.4-0.1-0.8-0.1-1.2
			c0-0.7,0.1-1.4,0.3-2.1c0.3-0.6,0.7-1.1,1.2-1.5c1.7-1.2,3.8-1.8,5.9-1.7c4.3,0,8.3,1.8,11.3,4.8l1,1l5.4-6.9l-0.9-0.8
			c-4.7-4-10.6-6.3-16.8-6.3c-4.4-0.2-8.7,1.1-12.2,3.6l0,0c-1.5,1.2-2.7,2.6-3.6,4.4c-0.8,1.7-1.2,3.6-1.2,5.5c0,2,0.5,4,1.5,5.8
			c1.1,1.8,2.7,3.3,4.5,4.3c1.2,0.6,2.4,1.2,3.7,1.6c1.7,0.6,3.8,1.3,6.3,2.1l0,0c2,0.6,3.7,1.2,5,1.6c0.9,0.3,1.7,0.6,2.6,1.1l0,0
			c0.7,0.4,1.2,0.9,1.6,1.6c0.4,0.7,0.5,1.5,0.5,2.2c0,0.8-0.2,1.6-0.5,2.3c-0.4,0.7-1,1.4-1.7,1.9c-1.9,1.2-4.2,1.8-6.5,1.7
			c-2.3,0-4.6-0.5-6.7-1.4c-2.2-1-4.3-2.5-6-4.2l-1-1l-5.6,7l0.9,0.8c5,4.7,11.6,7.2,18.5,7.1c5,0,9.3-1.2,12.6-3.6l0,0
			c1.7-1.2,3-2.8,4-4.6c0.3-0.6,0.5-1.1,0.7-1.7C574.5,56.7,574.7,55.3,574.7,53.9z"/>
	</g>
</g>
</svg>
