<svg id="svg" version="1.1" xmlns="http://www.w3.org/2000/svg" xmlns:xlink="http://www.w3.org/1999/xlink" width="400" height="400" viewBox="0, 0, 400,400"><g id="svgg"><path id="path0" d="M145.200 170.227 L 145.200 182.454 144.300 182.177 C 143.805 182.024,142.250 181.382,140.844 180.749 C 122.575 172.530,105.759 186.959,105.821 210.800 C 105.891 237.480,123.308 249.528,141.853 235.724 C 145.392 233.089,145.200 233.050,145.200 236.400 L 145.200 239.200 153.800 239.200 L 162.400 239.200 162.400 198.600 L 162.400 158.000 153.800 158.000 L 145.200 158.000 145.200 170.227 M171.600 165.200 L 171.600 172.400 180.600 172.400 L 189.600 172.400 189.600 165.200 L 189.600 158.000 180.600 158.000 L 171.600 158.000 171.600 165.200 M199.600 198.600 L 199.600 239.200 208.200 239.200 L 216.800 239.200 216.800 229.570 L 216.800 219.940 219.035 216.970 C 220.265 215.337,221.422 214.000,221.606 214.000 C 221.791 214.000,225.330 219.668,229.471 226.595 L 237.000 239.190 246.943 239.195 C 255.005 239.199,256.847 239.100,256.683 238.673 C 256.572 238.383,251.963 230.996,246.441 222.256 C 240.918 213.517,236.400 206.197,236.400 205.990 C 236.400 205.783,239.415 201.724,243.100 196.970 C 246.785 192.217,251.110 186.634,252.712 184.564 L 255.624 180.800 245.712 180.805 L 235.800 180.809 232.000 186.038 C 221.907 199.924,220.503 201.863,219.179 203.736 C 216.682 207.268,216.800 208.341,216.800 182.033 L 216.800 158.000 208.200 158.000 L 199.600 158.000 199.600 198.600 M317.508 172.100 L 317.400 180.600 313.900 180.716 L 310.400 180.831 310.400 187.016 L 310.400 193.200 313.500 193.206 C 315.205 193.209,316.814 193.348,317.076 193.515 C 317.428 193.739,317.584 198.227,317.676 210.809 L 317.800 227.800 319.126 230.873 C 322.631 238.995,334.403 242.498,347.900 239.433 L 351.200 238.684 351.200 232.096 L 351.200 225.507 350.300 225.728 C 349.805 225.850,348.410 226.315,347.200 226.762 C 342.976 228.321,338.774 227.711,336.692 225.236 C 334.864 223.065,334.754 221.966,334.881 207.200 L 335.000 193.400 343.100 193.292 L 351.200 193.183 351.200 187.000 L 351.200 180.817 343.100 180.708 L 335.000 180.600 334.892 172.100 L 334.784 163.600 326.200 163.600 L 317.616 163.600 317.508 172.100 M67.600 179.059 C 50.880 181.570,42.216 192.267,42.216 210.400 C 42.216 225.706,48.251 234.860,61.200 239.198 C 70.991 242.477,85.139 241.794,96.100 237.512 L 98.400 236.614 98.400 229.107 C 98.400 220.476,98.503 220.657,94.950 223.016 C 80.379 232.688,62.537 229.601,59.962 216.963 C 59.122 212.836,57.200 213.200,79.839 213.200 L 99.704 213.200 99.483 206.700 C 98.779 185.996,87.355 176.092,67.600 179.059 M275.800 179.238 C 266.749 180.523,259.069 185.970,255.007 193.986 C 250.330 203.217,250.443 218.025,255.259 227.007 C 262.654 240.796,285.982 245.495,306.299 237.286 L 307.997 236.600 307.999 229.100 L 308.000 221.600 307.062 221.600 C 306.546 221.600,305.815 221.942,305.436 222.360 C 304.343 223.568,296.851 227.109,294.000 227.765 C 281.180 230.717,271.875 226.584,269.376 216.827 C 268.359 212.860,266.494 213.200,289.249 213.200 L 309.324 213.200 309.076 207.100 C 308.192 185.307,297.300 176.187,275.800 179.238 M172.000 210.000 L 172.000 239.200 180.600 239.200 L 189.200 239.200 189.200 210.000 L 189.200 180.800 180.600 180.800 L 172.000 180.800 172.000 210.000 M77.557 191.724 C 80.647 193.769,83.265 199.568,82.270 202.162 C 81.994 202.882,59.867 203.156,59.428 202.446 C 59.008 201.765,60.779 195.975,61.828 194.598 C 64.973 190.475,73.355 188.943,77.557 191.724 M286.276 191.374 C 289.626 192.934,291.519 196.089,291.706 200.425 L 291.800 202.600 280.405 202.600 C 267.264 202.600,268.188 202.960,269.578 198.382 C 271.635 191.610,279.602 188.267,286.276 191.374 M143.700 193.358 L 145.200 194.011 145.200 208.759 L 145.200 223.508 144.100 224.253 C 136.437 229.439,126.803 227.294,124.611 219.912 C 120.944 207.565,124.747 195.539,133.200 192.749 C 134.838 192.209,142.016 192.624,143.700 193.358 " stroke="none" fill="#313131" fill-rule="evenodd"></path><path id="path1" d="M0.000 200.000 L 0.000 400.000 200.000 400.000 L 400.000 400.000 400.000 200.000 L 400.000 0.000 200.000 0.000 L 0.000 0.000 0.000 200.000 M162.800 198.800 L 162.800 239.600 153.800 239.600 L 144.800 239.600 144.800 236.820 L 144.800 234.040 141.900 236.237 C 140.305 237.445,137.650 239.099,136.000 239.912 L 133.000 241.390 127.600 241.395 L 122.200 241.400 119.040 239.891 C 101.174 231.361,100.239 194.076,117.599 182.417 C 124.885 177.524,139.125 177.096,143.780 181.630 C 144.697 182.523,144.800 181.353,144.800 170.000 L 144.800 158.000 153.800 158.000 L 162.800 158.000 162.800 198.800 M190.000 165.407 L 190.000 172.814 180.500 172.707 L 171.000 172.600 170.891 165.300 L 170.782 158.000 180.391 158.000 L 190.000 158.000 190.000 165.407 M217.214 181.700 L 217.229 205.400 218.243 204.200 C 218.801 203.540,219.649 202.432,220.129 201.738 C 220.608 201.043,222.481 198.433,224.291 195.938 C 226.101 193.442,229.343 188.970,231.496 186.000 L 235.410 180.600 245.705 180.493 C 251.367 180.435,256.000 180.500,256.000 180.638 C 256.000 180.934,254.239 183.290,248.102 191.201 C 238.166 204.009,236.800 205.799,236.800 206.016 C 236.800 206.140,237.492 207.312,238.338 208.620 C 239.184 209.929,242.810 215.680,246.396 221.400 C 253.271 232.367,255.130 235.306,256.661 237.622 C 257.177 238.403,257.600 239.168,257.600 239.322 C 257.600 239.475,252.950 239.600,247.267 239.600 L 236.935 239.600 235.732 237.700 C 235.071 236.655,233.570 234.180,232.398 232.200 C 231.225 230.220,229.868 227.970,229.381 227.200 C 228.627 226.006,226.867 223.059,222.549 215.759 L 221.698 214.320 219.449 217.139 L 217.200 219.957 217.200 229.786 L 217.200 239.615 208.100 239.508 L 199.000 239.400 198.898 198.700 L 198.796 158.000 207.998 158.000 L 217.200 158.000 217.214 181.700 M335.108 171.900 L 335.216 180.400 343.408 180.400 L 351.600 180.400 351.600 187.000 L 351.600 193.600 343.400 193.600 L 335.200 193.600 335.210 207.100 C 335.221 223.414,335.462 224.773,338.636 226.395 C 340.286 227.239,345.311 227.148,347.600 226.234 C 348.590 225.838,349.850 225.489,350.400 225.457 L 351.400 225.400 351.510 232.106 C 351.638 239.951,352.244 239.114,345.684 240.150 C 333.483 242.077,323.883 239.627,320.001 233.596 C 317.587 229.846,317.441 228.630,317.210 210.400 L 317.000 193.800 313.500 193.684 L 310.000 193.569 310.000 186.984 L 310.000 180.400 313.600 180.400 L 317.200 180.400 317.200 172.067 C 317.200 167.483,317.323 163.610,317.474 163.459 C 317.625 163.308,321.630 163.233,326.374 163.292 L 335.000 163.400 335.108 171.900 M83.800 179.798 C 95.147 183.796,100.000 192.450,100.000 208.690 L 100.000 213.600 80.000 213.600 L 60.000 213.600 59.996 214.900 C 59.954 228.315,80.503 232.803,94.933 222.530 C 96.226 221.609,97.220 221.194,97.933 221.277 L 99.000 221.400 99.109 228.844 C 99.232 237.273,99.484 236.605,95.600 238.132 C 81.908 243.514,63.660 242.672,53.800 236.202 C 36.556 224.888,37.700 192.734,55.715 182.403 C 62.842 178.316,76.102 177.086,83.800 179.798 M293.009 179.700 C 304.605 183.789,309.547 192.433,309.588 208.700 L 309.600 213.600 289.544 213.600 L 269.489 213.600 269.700 215.925 C 270.875 228.887,290.136 232.521,304.530 222.496 C 308.119 219.997,308.200 220.145,308.200 229.180 L 308.200 236.960 305.249 238.087 C 289.998 243.907,271.831 242.627,261.711 235.020 C 245.361 222.729,248.161 190.965,266.400 181.815 C 273.548 178.229,286.026 177.237,293.009 179.700 M189.600 210.000 L 189.600 239.600 180.600 239.600 L 171.600 239.600 171.600 210.000 L 171.600 180.400 180.600 180.400 L 189.600 180.400 189.600 210.000 M67.576 191.320 C 63.258 192.545,60.795 195.663,59.847 201.100 L 59.620 202.400 70.810 202.400 L 82.000 202.400 82.000 200.815 C 82.000 193.594,75.240 189.145,67.576 191.320 M277.117 191.361 C 273.043 192.457,270.082 196.055,269.429 200.700 L 269.191 202.400 280.441 202.400 L 291.691 202.400 291.418 200.580 C 290.208 192.510,285.094 189.214,277.117 191.361 M133.117 193.334 C 126.985 195.072,123.831 200.944,123.845 210.600 C 123.864 224.472,131.110 230.322,141.757 225.060 L 144.800 223.556 144.800 208.841 L 144.800 194.127 143.185 193.643 C 140.666 192.888,135.274 192.723,133.117 193.334 " stroke="none" fill="#fbfbfb" fill-rule="evenodd"></path><path id="path2" d="M162.593 198.600 C 162.593 221.040,162.641 230.161,162.700 218.869 C 162.759 207.578,162.759 189.218,162.700 178.069 C 162.641 166.921,162.593 176.160,162.593 198.600 M144.800 170.280 C 144.690 176.925,144.738 182.223,144.906 182.054 C 145.075 181.886,145.164 176.449,145.106 169.974 L 144.999 158.200 144.800 170.280 M171.790 210.000 C 171.790 226.170,171.839 232.785,171.900 224.700 C 171.960 216.615,171.960 203.385,171.900 195.300 C 171.839 187.215,171.790 193.830,171.790 210.000 M351.362 187.000 C 351.362 190.520,351.424 191.906,351.498 190.081 C 351.572 188.256,351.572 185.376,351.497 183.681 C 351.422 181.986,351.361 183.480,351.362 187.000 M144.981 208.800 C 144.981 216.830,145.034 220.115,145.099 216.100 C 145.165 212.085,145.165 205.515,145.099 201.500 C 145.034 197.485,144.981 200.770,144.981 208.800 M41.714 210.600 C 41.717 211.700,41.795 212.103,41.887 211.495 C 41.979 210.886,41.977 209.986,41.882 209.495 C 41.787 209.003,41.711 209.500,41.714 210.600 M105.301 210.600 C 105.305 211.480,105.387 211.793,105.483 211.295 C 105.579 210.798,105.575 210.078,105.475 209.695 C 105.375 209.313,105.296 209.720,105.301 210.600 M334.920 218.400 C 334.920 219.610,334.995 220.105,335.087 219.500 C 335.178 218.895,335.178 217.905,335.087 217.300 C 334.995 216.695,334.920 217.190,334.920 218.400 M351.363 232.000 C 351.363 235.630,351.423 237.115,351.498 235.300 C 351.572 233.485,351.572 230.515,351.498 228.700 C 351.423 226.885,351.363 228.370,351.363 232.000 M144.931 236.600 C 144.933 238.140,145.005 238.721,145.092 237.891 C 145.179 237.061,145.177 235.801,145.089 235.091 C 145.000 234.381,144.929 235.060,144.931 236.600 " stroke="none" fill="#949494" fill-rule="evenodd"></path><path id="path3" d="M171.366 165.200 C 171.366 169.270,171.425 170.935,171.498 168.900 C 171.571 166.865,171.571 163.535,171.498 161.500 C 171.425 159.465,171.366 161.130,171.366 165.200 M189.766 165.200 C 189.766 169.270,189.825 170.935,189.898 168.900 C 189.971 166.865,189.971 163.535,189.898 161.500 C 189.825 159.465,189.766 161.130,189.766 165.200 M199.397 198.600 L 199.400 239.400 208.000 239.412 L 216.600 239.423 208.102 239.304 L 199.604 239.184 199.499 198.492 L 199.394 157.800 199.397 198.600 M317.291 171.884 L 317.200 180.369 313.700 180.484 L 310.200 180.600 310.200 187.000 L 310.200 193.400 313.400 193.424 L 316.600 193.448 313.500 193.308 L 310.400 193.168 310.400 186.984 L 310.400 180.800 313.813 180.800 C 317.983 180.800,317.644 181.648,317.500 171.589 L 317.382 163.400 317.291 171.884 M71.312 178.695 C 72.364 178.777,73.984 178.776,74.912 178.692 C 75.840 178.608,74.980 178.541,73.000 178.542 C 71.020 178.543,70.260 178.612,71.312 178.695 M129.300 178.691 C 130.125 178.778,131.475 178.778,132.300 178.691 C 133.125 178.605,132.450 178.534,130.800 178.534 C 129.150 178.534,128.475 178.605,129.300 178.691 M280.500 178.694 C 281.545 178.776,283.255 178.776,284.300 178.694 C 285.345 178.612,284.490 178.544,282.400 178.544 C 280.310 178.544,279.455 178.612,280.500 178.694 M180.500 180.696 L 189.200 180.816 189.200 210.000 L 189.200 239.184 180.600 239.304 L 172.000 239.424 180.700 239.412 L 189.400 239.400 189.400 210.000 L 189.400 180.600 180.600 180.588 L 171.800 180.575 180.500 180.696 M240.500 180.699 C 243.305 180.768,247.895 180.768,250.700 180.699 C 253.505 180.630,251.210 180.574,245.600 180.574 C 239.990 180.574,237.695 180.630,240.500 180.699 M339.100 180.698 C 341.355 180.770,345.045 180.770,347.300 180.698 C 349.555 180.627,347.710 180.569,343.200 180.569 C 338.690 180.569,336.845 180.627,339.100 180.698 M91.200 184.125 C 91.200 184.194,91.785 184.779,92.500 185.425 L 93.800 186.600 92.625 185.300 C 91.530 184.088,91.200 183.816,91.200 184.125 M259.578 187.100 L 258.200 188.600 259.700 187.222 C 261.096 185.938,261.384 185.600,261.078 185.600 C 261.012 185.600,260.337 186.275,259.578 187.100 M271.978 193.900 L 270.600 195.400 272.100 194.022 C 273.496 192.738,273.784 192.400,273.478 192.400 C 273.412 192.400,272.737 193.075,271.978 193.900 M339.100 193.498 C 341.355 193.570,345.045 193.570,347.300 193.498 C 349.555 193.427,347.710 193.369,343.200 193.369 C 338.690 193.369,336.845 193.427,339.100 193.498 M317.381 207.800 C 317.380 215.720,317.434 219.017,317.499 215.126 C 317.565 211.235,317.565 204.755,317.500 200.726 C 317.434 196.697,317.381 199.880,317.381 207.800 M127.978 195.900 L 126.600 197.400 128.100 196.022 C 129.496 194.738,129.784 194.400,129.478 194.400 C 129.412 194.400,128.737 195.075,127.978 195.900 M268.961 201.600 L 269.000 202.600 280.300 202.610 L 291.600 202.619 280.426 202.503 L 269.252 202.388 269.087 201.494 C 268.946 200.727,268.928 200.743,268.961 201.600 M59.303 202.000 C 59.443 202.515,61.074 202.601,70.833 202.610 L 82.200 202.620 71.020 202.503 C 62.721 202.417,59.749 202.260,59.489 201.894 C 59.234 201.534,59.183 201.562,59.303 202.000 M308.901 203.000 C 308.905 203.880,308.987 204.193,309.083 203.695 C 309.179 203.198,309.175 202.478,309.075 202.095 C 308.975 201.713,308.896 202.120,308.901 203.000 M99.683 209.096 L 99.600 213.193 79.700 213.300 L 59.800 213.408 79.713 213.504 C 95.942 213.582,99.663 213.502,99.828 213.070 C 99.940 212.778,99.972 210.843,99.899 208.770 L 99.766 205.000 99.683 209.096 M123.328 210.400 C 123.328 211.830,123.401 212.415,123.489 211.700 C 123.578 210.985,123.578 209.815,123.489 209.100 C 123.401 208.385,123.328 208.970,123.328 210.400 M251.328 210.400 C 251.328 211.830,251.401 212.415,251.489 211.700 C 251.578 210.985,251.578 209.815,251.489 209.100 C 251.401 208.385,251.328 208.970,251.328 210.400 M268.950 213.787 C 268.826 214.110,268.817 214.605,268.931 214.887 C 269.044 215.169,269.151 214.997,269.168 214.504 L 269.200 213.607 289.300 213.500 L 309.400 213.392 289.287 213.296 C 271.919 213.213,269.144 213.280,268.950 213.787 M98.567 229.000 C 98.567 233.180,98.626 234.836,98.698 232.679 C 98.771 230.523,98.770 227.103,98.698 225.079 C 98.625 223.056,98.566 224.820,98.567 229.000 M308.167 229.000 C 308.167 233.180,308.226 234.836,308.298 232.679 C 308.371 230.523,308.370 227.103,308.298 225.079 C 308.225 223.056,308.166 224.820,308.167 229.000 M272.000 222.925 C 272.000 222.994,272.585 223.579,273.300 224.225 L 274.600 225.400 273.425 224.100 C 272.330 222.888,272.000 222.616,272.000 222.925 M133.491 227.089 C 134.201 227.177,135.461 227.179,136.291 227.092 C 137.121 227.005,136.540 226.933,135.000 226.931 C 133.460 226.929,132.781 227.000,133.491 227.089 M76.300 228.689 C 77.015 228.778,78.185 228.778,78.900 228.689 C 79.615 228.601,79.030 228.528,77.600 228.528 C 76.170 228.528,75.585 228.601,76.300 228.689 M285.907 228.690 C 286.626 228.779,287.706 228.777,288.307 228.686 C 288.908 228.595,288.320 228.522,287.000 228.524 C 285.680 228.526,285.188 228.601,285.907 228.690 M259.183 232.500 C 260.164 233.545,261.019 234.400,261.083 234.400 C 261.384 234.400,261.066 234.041,259.300 232.383 L 257.400 230.600 259.183 232.500 M49.600 232.600 C 50.346 233.370,51.047 234.000,51.157 234.000 C 51.267 234.000,50.746 233.370,50.000 232.600 C 49.254 231.830,48.553 231.200,48.443 231.200 C 48.333 231.200,48.854 231.830,49.600 232.600 M113.800 236.000 C 114.659 236.880,115.452 237.600,115.562 237.600 C 115.672 237.600,115.059 236.880,114.200 236.000 C 113.341 235.120,112.548 234.400,112.438 234.400 C 112.328 234.400,112.941 235.120,113.800 236.000 M320.800 234.525 C 320.800 234.594,321.385 235.179,322.100 235.825 L 323.400 237.000 322.225 235.700 C 321.130 234.488,320.800 234.216,320.800 234.525 M247.000 239.200 L 237.000 239.421 247.100 239.511 C 253.626 239.568,257.200 239.458,257.200 239.200 C 257.200 238.980,257.155 238.840,257.100 238.889 C 257.045 238.939,252.500 239.078,247.000 239.200 M149.278 239.498 C 151.631 239.569,155.591 239.569,158.078 239.499 C 160.565 239.429,158.640 239.371,153.800 239.370 C 148.960 239.370,146.925 239.428,149.278 239.498 M73.715 241.496 C 74.988 241.576,76.968 241.575,78.115 241.494 C 79.262 241.414,78.220 241.349,75.800 241.350 C 73.380 241.351,72.442 241.416,73.715 241.496 M125.891 241.489 C 126.601 241.577,127.861 241.579,128.691 241.492 C 129.521 241.405,128.940 241.333,127.400 241.331 C 125.860 241.329,125.181 241.400,125.891 241.489 M283.315 241.496 C 284.588 241.576,286.568 241.575,287.715 241.494 C 288.862 241.414,287.820 241.349,285.400 241.350 C 282.980 241.351,282.042 241.416,283.315 241.496 " stroke="none" fill="#8c8c8c" fill-rule="evenodd"></path><path id="path4" d="M170.986 165.300 L 171.000 172.600 180.600 172.611 L 190.200 172.623 180.709 172.504 L 171.218 172.386 171.095 165.192 L 170.972 157.999 170.986 165.300 M198.895 198.476 C 198.843 220.848,198.935 239.236,199.100 239.338 C 199.372 239.506,199.369 210.744,199.094 172.400 C 199.037 164.370,198.947 176.104,198.895 198.476 M216.897 181.700 C 216.842 195.217,216.952 205.600,217.151 205.600 C 217.344 205.600,217.749 205.285,218.051 204.900 C 218.548 204.266,218.534 204.252,217.903 204.746 C 217.243 205.264,217.201 204.054,217.100 181.546 L 216.994 157.800 216.897 181.700 M326.092 163.496 L 334.784 163.616 334.904 171.908 L 335.024 180.200 335.012 171.800 L 335.000 163.400 326.200 163.388 L 317.400 163.375 326.092 163.496 M114.185 185.300 L 112.200 187.400 114.300 185.415 C 115.455 184.323,116.400 183.378,116.400 183.315 C 116.400 183.017,116.029 183.349,114.185 185.300 M70.700 190.682 C 71.195 190.778,72.005 190.778,72.500 190.682 C 72.995 190.587,72.590 190.509,71.600 190.509 C 70.610 190.509,70.205 190.587,70.700 190.682 M280.300 190.682 C 280.795 190.778,281.605 190.778,282.100 190.682 C 282.595 190.587,282.190 190.509,281.200 190.509 C 280.210 190.509,279.805 190.587,280.300 190.682 M136.300 192.682 C 136.795 192.778,137.605 192.778,138.100 192.682 C 138.595 192.587,138.190 192.509,137.200 192.509 C 136.210 192.509,135.805 192.587,136.300 192.682 M334.976 205.400 C 334.976 211.560,335.032 214.024,335.099 210.876 C 335.167 207.727,335.167 202.687,335.099 199.676 C 335.031 196.664,334.976 199.240,334.976 205.400 M309.358 208.200 C 309.358 211.280,309.421 212.487,309.497 210.882 C 309.573 209.278,309.573 206.758,309.496 205.282 C 309.419 203.807,309.357 205.120,309.358 208.200 M251.293 205.600 C 251.293 206.370,251.375 206.685,251.476 206.300 C 251.576 205.915,251.576 205.285,251.476 204.900 C 251.375 204.515,251.293 204.830,251.293 205.600 M105.324 207.000 C 105.326 208.320,105.401 208.812,105.490 208.093 C 105.579 207.374,105.577 206.294,105.486 205.693 C 105.395 205.092,105.322 205.680,105.324 207.000 M41.693 207.600 C 41.693 208.370,41.775 208.685,41.876 208.300 C 41.976 207.915,41.976 207.285,41.876 206.900 C 41.775 206.515,41.693 206.830,41.693 207.600 M250.909 210.400 C 250.909 211.390,250.987 211.795,251.082 211.300 C 251.178 210.805,251.178 209.995,251.082 209.500 C 250.987 209.005,250.909 209.410,250.909 210.400 M105.324 214.200 C 105.326 215.520,105.401 216.012,105.490 215.293 C 105.579 214.574,105.577 213.494,105.486 212.893 C 105.395 212.292,105.322 212.880,105.324 214.200 M251.293 215.200 C 251.293 215.970,251.375 216.285,251.476 215.900 C 251.576 215.515,251.576 214.885,251.476 214.500 C 251.375 214.115,251.293 214.430,251.293 215.200 M216.973 229.800 C 216.973 235.300,217.030 237.605,217.099 234.923 C 217.168 232.241,217.168 227.741,217.099 224.923 C 217.030 222.105,216.974 224.300,216.973 229.800 M95.985 221.880 C 95.518 222.495,95.520 222.527,95.999 222.100 C 96.308 221.825,97.060 221.600,97.671 221.600 L 98.782 221.600 98.904 228.900 L 99.026 236.200 99.013 228.800 L 99.000 221.400 97.766 221.280 C 96.941 221.199,96.351 221.398,95.985 221.880 M305.845 221.528 C 305.733 221.708,306.173 221.777,306.821 221.682 C 307.470 221.587,308.000 221.440,308.000 221.355 C 308.000 221.050,306.043 221.207,305.845 221.528 M317.301 225.000 C 317.305 225.880,317.387 226.193,317.483 225.695 C 317.579 225.198,317.575 224.478,317.475 224.095 C 317.375 223.713,317.296 224.120,317.301 225.000 M299.900 225.029 C 298.405 225.840,298.496 226.178,300.000 225.400 C 300.660 225.059,301.200 224.694,301.200 224.590 C 301.200 224.332,301.157 224.347,299.900 225.029 M342.100 227.476 C 342.485 227.576,343.115 227.576,343.500 227.476 C 343.885 227.375,343.570 227.293,342.800 227.293 C 342.030 227.293,341.715 227.375,342.100 227.476 M258.000 231.725 C 258.000 231.794,258.585 232.379,259.300 233.025 L 260.600 234.200 259.425 232.900 C 258.330 231.688,258.000 231.416,258.000 231.725 M113.600 236.200 C 114.346 236.970,115.047 237.600,115.157 237.600 C 115.267 237.600,114.746 236.970,114.000 236.200 C 113.254 235.430,112.553 234.800,112.443 234.800 C 112.333 234.800,112.854 235.430,113.600 236.200 M335.916 240.697 C 337.299 240.775,339.459 240.774,340.716 240.695 C 341.972 240.616,340.840 240.552,338.200 240.553 C 335.560 240.553,334.532 240.618,335.916 240.697 " stroke="none" fill="#b0b0b0" fill-rule="evenodd"></path></g></svg>