<?xml version="1.0" encoding="utf-8"?>
<!-- Generator: Adobe Illustrator 23.0.3, SVG Export Plug-In . SVG Version: 6.00 Build 0)  -->
<svg version="1.1" id="Layer_1" xmlns="http://www.w3.org/2000/svg" xmlns:xlink="http://www.w3.org/1999/xlink" x="0px" y="0px"
	 viewBox="0 0 400 245" style="enable-background:new 0 0 400 245;" xml:space="preserve">
<style type="text/css">
	.st0{fill:#95BF47;}
	.st1{fill:#5E8E3E;}
	.st2{fill:#FFFFFF;}
	.st3{fill:#001B56;}
	.st4{fill-rule:evenodd;clip-rule:evenodd;fill:#7357E6;}
	.st5{fill-rule:evenodd;clip-rule:evenodd;fill:#403689;}
	.st6{fill-rule:evenodd;clip-rule:evenodd;fill:#AB9AF0;}
	.st7{fill-rule:evenodd;clip-rule:evenodd;fill:#001B56;}
	.st8{fill-rule:evenodd;clip-rule:evenodd;fill:#4569EB;}
	.st9{fill-rule:evenodd;clip-rule:evenodd;fill:#738FF0;}
	.st10{fill-rule:evenodd;clip-rule:evenodd;fill:#0C344B;}
</style>
<g>
	<g>
		<polygon class="st3" points="1.68,225.96 23.3,225.96 23.3,220.54 7.06,220.54 7.06,212.44 23.3,212.44 23.3,207.06 7.06,207.06 
			7.06,198.92 23.3,198.92 23.3,193.49 1.68,193.49 		"/>
		<polygon class="st3" points="57.52,193.49 52.14,193.49 52.14,225.96 73.75,225.96 73.75,220.54 57.52,220.54 		"/>
		<polygon class="st3" points="102.6,225.96 124.22,225.96 124.22,220.54 107.98,220.54 107.98,212.44 124.22,212.44 124.22,207.06 
			107.98,207.06 107.98,198.92 124.22,198.92 124.22,193.49 102.6,193.49 		"/>
		<polygon class="st3" points="153.06,193.49 153.06,225.96 158.44,225.96 158.44,206.54 169.3,217.4 180.1,206.54 180.1,225.96 
			185.57,225.96 185.57,193.49 169.3,209.73 		"/>
		<polygon class="st3" points="214.42,225.96 236.04,225.96 236.04,220.54 219.8,220.54 219.8,212.44 236.04,212.44 236.04,207.06 
			219.8,207.06 219.8,198.92 236.04,198.92 236.04,193.49 214.42,193.49 		"/>
		<polygon class="st3" points="286.5,212.91 264.88,193.45 264.88,225.92 270.26,225.92 270.26,206.5 291.92,225.96 291.92,225.92 
			291.92,225.87 291.92,193.45 286.5,193.45 		"/>
		<polygon class="st3" points="320.78,198.92 331.63,198.92 331.63,225.96 337.06,225.96 337.06,198.92 347.86,198.92 
			347.86,193.49 320.78,193.49 		"/>
		<polygon class="st3" points="382.09,220.54 382.09,193.49 376.71,193.49 376.71,225.96 398.32,225.96 398.32,220.54 		"/>
	</g>
	<polygon class="st4" points="174.82,132.72 157.36,162.95 137.41,128.38 116.37,91.93 137.41,55.48 157.36,20.92 174.82,51.14 
		163.59,70.6 151.27,91.93 163.59,113.27 	"/>
	<polygon class="st5" points="248.72,93.81 283.63,93.81 263.67,128.38 242.63,164.83 200.54,164.83 160.63,164.83 178.08,134.6 
		200.54,134.6 225.18,134.6 237.49,113.27 	"/>
	<polygon class="st6" points="242.63,19.04 263.67,55.48 283.63,90.05 248.72,90.05 237.49,70.6 225.18,49.27 200.54,49.27 
		178.07,49.27 160.62,19.04 200.54,19.04 	"/>
	<polygon class="st7" points="178.07,53.03 200.54,91.93 178.07,130.84 155.62,91.93 	"/>
	<polygon class="st8" points="178.07,130.84 200.54,91.93 245.46,91.93 223,130.84 	"/>
	<polygon class="st9" points="245.46,91.93 200.54,91.93 178.08,53.03 223,53.03 	"/>
</g>
</svg>
