<?xml version="1.0" encoding="UTF-8" standalone="no"?>
<!-- Created with Inkscape (http://www.inkscape.org/) -->

<svg
   xmlns:dc="http://purl.org/dc/elements/1.1/"
   xmlns:cc="http://creativecommons.org/ns#"
   xmlns:rdf="http://www.w3.org/1999/02/22-rdf-syntax-ns#"
   xmlns:svg="http://www.w3.org/2000/svg"
   xmlns="http://www.w3.org/2000/svg"
   xmlns:sodipodi="http://sodipodi.sourceforge.net/DTD/sodipodi-0.dtd"
   xmlns:inkscape="http://www.inkscape.org/namespaces/inkscape"
   version="1.1"
   id="svg2"
   xml:space="preserve"
   width="869.44611"
   height="476.91507"
   viewBox="0 0 869.44614 476.91509"
   sodipodi:docname="Elementl.svg"
   inkscape:version="0.92.1 r15371"><metadata
     id="metadata8"><rdf:RDF><cc:Work
         rdf:about=""><dc:format>image/svg+xml</dc:format><dc:type
           rdf:resource="http://purl.org/dc/dcmitype/StillImage" /><dc:title></dc:title></cc:Work></rdf:RDF></metadata><defs
     id="defs6" /><sodipodi:namedview
     pagecolor="#ffffff"
     bordercolor="#666666"
     borderopacity="1"
     objecttolerance="10"
     gridtolerance="10"
     guidetolerance="10"
     inkscape:pageopacity="0"
     inkscape:pageshadow="2"
     inkscape:window-width="1143"
     inkscape:window-height="726"
     id="namedview4"
     showgrid="false"
     inkscape:zoom="0.17700001"
     inkscape:cx="446.01167"
     inkscape:cy="217.19315"
     inkscape:window-x="0"
     inkscape:window-y="27"
     inkscape:window-maximized="0"
     inkscape:current-layer="g10" /><g
     id="g10"
     inkscape:groupmode="layer"
     inkscape:label="Elementl 1"
     transform="matrix(1.3333333,0,0,-1.3333333,-231.95439,903.78971)"><g
       id="g12"
       transform="translate(458.6108,490.9463)"><path
         d="m 0,0 -28.692,-49.696 -32.81,56.829 -34.596,59.921 34.596,59.921 32.809,56.828 L 0,134.106 -18.464,102.126 -38.713,67.054 -18.464,31.98 Z"
         style="fill:#28b7ea;fill-opacity:1;fill-rule:evenodd;stroke:none"
         id="path14"
         inkscape:connector-curvature="0" /></g><g
       id="g16"
       transform="translate(580.1064,554.9072)"><path
         d="m 0,0 h 57.384 l -32.81,-56.828 -34.595,-59.921 h -69.191 -65.619 l 28.693,49.696 h 36.926 40.499 l 20.249,35.073 z"
         style="fill:#1a243c;fill-opacity:1;fill-rule:evenodd;stroke:none"
         id="path18"
         inkscape:connector-curvature="0" /></g><g
       id="g20"
       transform="translate(570.085,677.8423)"><path
         d="m 0,0 34.596,-59.921 32.81,-56.829 H 10.021 l -18.463,31.98 -20.249,35.074 H -69.19 -106.118 L -134.81,0 h 65.62 z"
         style="fill:#3090ce;fill-opacity:1;fill-rule:evenodd;stroke:none"
         id="path22"
         inkscape:connector-curvature="0" /></g><g
       id="g24"
       transform="translate(463.9668,621.96)"><path
         d="M 0,0 36.928,-63.96 0,-127.92 -36.927,-63.96 Z"
         style="fill:#1a243c;fill-opacity:1;fill-rule:evenodd;stroke:none"
         id="path26"
         inkscape:connector-curvature="0" /></g><g
       id="g28"
       transform="translate(463.9668,494.04)"><path
         d="m 0,0 36.928,63.96 h 73.855 L 73.855,0 Z"
         style="fill:#3090ce;fill-opacity:1;fill-rule:evenodd;stroke:none"
         id="path30"
         inkscape:connector-curvature="0" /></g><g
       id="g32"
       transform="translate(574.75,558)"><path
         d="m 0,0 -73.855,-0.001 -36.927,63.961 73.854,-10e-4 z"
         style="fill:#28b7ea;fill-opacity:1;fill-rule:evenodd;stroke:none"
         id="path34"
         inkscape:connector-curvature="0" /></g><g
       id="g36"
       transform="translate(173.9658,320.1562)"><path
         d="M 0,0 H 35.538 V 8.923 H 8.846 V 22.23 h 26.692 v 8.846 H 8.846 v 13.385 h 26.692 v 8.923 H 0 Z"
         style="fill:#1a243c;fill-opacity:1;fill-rule:nonzero;stroke:none"
         id="path38"
         inkscape:connector-curvature="0" /></g><g
       id="g40"
       transform="translate(265.7646,373.54)"><path
         d="m 0,0 h -8.846 v -53.384 h 35.538 v 8.923 H 0 Z"
         style="fill:#1a243c;fill-opacity:1;fill-rule:nonzero;stroke:none"
         id="path42"
         inkscape:connector-curvature="0" /></g><g
       id="g44"
       transform="translate(339.8799,320.1562)"><path
         d="M 0,0 H 35.538 V 8.923 H 8.846 V 22.23 h 26.692 v 8.846 H 8.846 v 13.385 h 26.692 v 8.923 H 0 Z"
         style="fill:#1a243c;fill-opacity:1;fill-rule:nonzero;stroke:none"
         id="path46"
         inkscape:connector-curvature="0" /></g><g
       id="g48"
       transform="translate(422.833,373.54)"><path
         d="m 0,0 v -53.384 h 8.846 v 31.923 l 17.846,-17.846 17.769,17.846 v -31.923 h 9 V 0 L 26.692,-26.691 Z"
         style="fill:#1a243c;fill-opacity:1;fill-rule:nonzero;stroke:none"
         id="path50"
         inkscape:connector-curvature="0" /></g><g
       id="g52"
       transform="translate(523.7158,320.1562)"><path
         d="M 0,0 H 35.538 V 8.923 H 8.846 V 22.23 h 26.692 v 8.846 H 8.846 v 13.385 h 26.692 v 8.923 H 0 Z"
         style="fill:#1a243c;fill-opacity:1;fill-rule:nonzero;stroke:none"
         id="path54"
         inkscape:connector-curvature="0" /></g><g
       id="g56"
       transform="translate(642.207,341.6172)"><path
         d="m 0,0 -35.538,32 v -53.384 h 8.846 v 31.923 l 35.615,-32 v 0.077 0.077 L 8.923,32 H 0 Z"
         style="fill:#1a243c;fill-opacity:1;fill-rule:nonzero;stroke:none"
         id="path58"
         inkscape:connector-curvature="0" /></g><g
       id="g60"
       transform="translate(698.5596,364.6172)"><path
         d="m 0,0 h 17.846 v -44.461 h 8.923 V 0 H 44.538 V 8.923 H 0 Z"
         style="fill:#1a243c;fill-opacity:1;fill-rule:nonzero;stroke:none"
         id="path62"
         inkscape:connector-curvature="0" /></g><g
       id="g64"
       transform="translate(799.3584,329.0791)"><path
         d="M 0,0 V 44.461 H -8.846 V -8.923 H 26.692 V 0 Z"
         style="fill:#1a243c;fill-opacity:1;fill-rule:nonzero;stroke:none"
         id="path66"
         inkscape:connector-curvature="0" /></g></g></svg>