<?xml version="1.0" encoding="UTF-8" standalone="no"?>
<svg
   xmlns:dc="http://purl.org/dc/elements/1.1/"
   xmlns:cc="http://creativecommons.org/ns#"
   xmlns:rdf="http://www.w3.org/1999/02/22-rdf-syntax-ns#"
   xmlns:svg="http://www.w3.org/2000/svg"
   xmlns="http://www.w3.org/2000/svg"
   viewBox="0 0 1333.3333 933.33331"
   height="933.33331"
   width="1333.3333"
   xml:space="preserve"
   id="svg2"
   version="1.1"><metadata
     id="metadata8"><rdf:RDF><cc:Work
         rdf:about=""><dc:format>image/svg+xml</dc:format><dc:type
           rdf:resource="http://purl.org/dc/dcmitype/StillImage" /></cc:Work></rdf:RDF></metadata><defs
     id="defs6"><clipPath
       id="clipPath18"
       clipPathUnits="userSpaceOnUse"><path
         id="path16"
         d="m 564.709,306.213 c -8.091,-4.852 -14.533,-11.362 -19.321,-19.531 v 0 c -4.788,-8.168 -7.181,-17.008 -7.181,-26.522 v 0 c 0,-9.802 2.37,-18.763 7.11,-26.883 v 0 c 4.74,-8.119 11.18,-14.534 19.32,-19.242 v 0 c 8.14,-4.709 16.998,-7.063 26.574,-7.063 v 0 c 9.48,0 18.314,2.379 26.502,7.134 v 0 c 8.188,4.757 14.676,11.22 19.464,19.388 v 0 c 4.788,8.168 7.182,17.057 7.182,26.666 v 0 c 0,9.514 -2.418,18.354 -7.254,26.522 v 0 c -4.835,8.169 -11.324,14.679 -19.464,19.531 v 0 c -8.139,4.853 -16.95,7.279 -26.43,7.279 v 0 c -9.576,0 -18.411,-2.426 -26.502,-7.279 m 7.832,-80.473 c -5.986,3.556 -10.702,8.361 -14.15,14.414 v 0 c -3.447,6.054 -5.17,12.637 -5.17,19.747 v 0 c 0,7.207 1.699,13.886 5.099,20.037 v 0 c 3.4,6.149 8.068,11.026 14.005,14.629 v 0 c 5.938,3.604 12.449,5.406 19.536,5.406 v 0 c 7.086,0 13.598,-1.778 19.534,-5.334 v 0 c 5.938,-3.555 10.63,-8.407 14.078,-14.558 v 0 c 3.447,-6.15 5.171,-12.828 5.171,-20.035 v 0 c 0,-7.207 -1.7,-13.862 -5.099,-19.964 v 0 c -3.399,-6.102 -8.044,-10.906 -13.934,-14.414 v 0 c -5.889,-3.508 -12.377,-5.261 -19.463,-5.261 v 0 c -7.087,0 -13.623,1.778 -19.607,5.333" /></clipPath><clipPath
       id="clipPath28"
       clipPathUnits="userSpaceOnUse"><path
         id="path26"
         d="m 363.313,261.621 c -12.377,-12.617 -12.377,-33.073 0,-45.69 v 0 c 12.376,-12.617 32.001,-12.617 44.377,0 v 0 14.212 l -7.028,-6.597 c -6.961,-7.097 -17.572,-8.207 -25.673,-3.329 v 0 l 34.636,35.311 c 0.404,0.412 1.135,1.179 2.193,2.301 v 0 l -3.687,3.792 c -6.188,6.308 -14.298,9.462 -22.409,9.462 v 0 c -8.111,0 -16.222,-3.154 -22.409,-9.462 m 7.47,-7.615 c 6.96,7.097 17.571,8.206 25.673,3.327 v 0 l -28.937,-29.5 c -4.786,8.259 -3.698,19.077 3.264,26.173" /></clipPath><clipPath
       id="clipPath38"
       clipPathUnits="userSpaceOnUse"><path
         id="path36"
         d="m 235.283,261.621 c -12.377,-12.617 -12.377,-33.073 0,-45.69 v 0 c 12.375,-12.617 32.001,-12.617 44.377,0 v 0 14.212 l -7.029,-6.597 c -6.962,-7.097 -17.572,-8.207 -25.674,-3.329 v 0 l 34.637,35.311 c 0.404,0.412 1.135,1.179 2.194,2.301 v 0 l -3.687,3.792 c -6.189,6.308 -14.3,9.462 -22.409,9.462 v 0 c -8.111,0 -16.222,-3.154 -22.409,-9.462 m 7.469,-7.615 c 6.961,7.097 17.571,8.206 25.673,3.327 v 0 l -28.937,-29.5 c -4.785,8.259 -3.698,19.077 3.264,26.173" /></clipPath><clipPath
       id="clipPath48"
       clipPathUnits="userSpaceOnUse"><path
         id="path46"
         d="m 728.495,261.621 c -12.377,-12.617 -12.377,-33.073 0,-45.69 v 0 c 12.376,-12.617 32.001,-12.617 44.377,0 v 0 14.212 l -7.03,-6.597 c -6.96,-7.097 -17.57,-8.207 -25.672,-3.329 v 0 l 34.636,35.311 c 0.405,0.412 1.135,1.179 2.194,2.301 v 0 l -3.688,3.792 c -6.188,6.308 -14.298,9.462 -22.409,9.462 v 0 c -8.11,0 -16.22,-3.154 -22.408,-9.462 m 7.47,-7.615 c 6.961,7.097 17.571,8.206 25.673,3.327 v 0 l -28.938,-29.5 c -4.785,8.259 -3.697,19.077 3.265,26.173" /></clipPath><clipPath
       id="clipPath62"
       clipPathUnits="userSpaceOnUse"><path
         id="path60"
         d="m 442.745,266.431 c -4.214,-2.451 -7.374,-5.838 -9.481,-10.162 v 0 13.187 h -12.927 v -61.331 h 13.359 v 27.964 c 0,6.534 1.723,11.915 5.171,16.143 v 0 c 3.447,4.229 7.805,6.342 13.071,6.342 v 0 c 3.639,-0.096 6.368,-1.105 8.188,-3.026 v 0 c 1.82,-1.922 2.825,-4.565 3.016,-7.928 v 0 -39.495 h 13.503 v 44.107 c -0.096,5.286 -1.963,9.585 -5.602,12.901 v 0 c -3.639,3.315 -8.236,4.972 -13.79,4.972 v 0 c -5.458,0 -10.294,-1.224 -14.508,-3.674" /></clipPath><clipPath
       id="clipPath76"
       clipPathUnits="userSpaceOnUse"><path
         id="path74"
         d="m 677.103,266.431 c -4.214,-2.451 -7.373,-5.838 -9.48,-10.162 v 0 13.187 h -12.928 v -61.331 h 13.359 v 27.964 c 0,6.534 1.723,11.915 5.171,16.143 v 0 c 3.448,4.229 7.804,6.342 13.072,6.342 v 0 c 3.638,-0.096 6.368,-1.105 8.187,-3.026 v 0 c 1.82,-1.922 2.825,-4.565 3.017,-7.928 v 0 -39.495 h 13.503 v 44.107 c -0.097,5.286 -1.964,9.585 -5.603,12.901 v 0 c -3.639,3.315 -8.235,4.972 -13.79,4.972 v 0 c -5.457,0 -10.294,-1.224 -14.508,-3.674" /></clipPath><clipPath
       id="clipPath86"
       clipPathUnits="userSpaceOnUse"><path
         id="path84"
         d="m 425.079,523.601 c -35.23,-35.197 -35.23,-92.264 0,-127.462 v 0 c 35.231,-35.199 92.349,-35.199 127.58,0 v 0 l 61.093,61.038 c 0.705,0.704 1.1,1.659 1.1,2.655 v 0 c 0,2.074 -1.682,3.756 -3.758,3.756 v 0 H 544.19 c -0.997,0 -1.953,-0.396 -2.656,-1.101 v 0 c -1.469,-1.466 -1.469,-3.843 0,-5.31 v 0 l 10.593,-10.584 c 2.349,-2.347 2.349,-6.151 0,-8.498 v 0 l -20.733,-20.713 c -19.815,-19.797 -50.017,-22.891 -73.081,-9.283 v 0 l 98.598,98.507 c 3.523,3.52 3.523,9.227 0,12.746 v 0 l -4.252,4.249 C 535.043,541.2 511.956,550 488.868,550 v 0 c -23.087,0 -46.174,-8.8 -63.789,-26.399 m 21.263,-21.244 c 19.816,19.799 50.019,22.893 73.082,9.284 v 0 L 437.05,429.343 c -13.621,23.042 -10.523,53.217 9.292,73.014" /></clipPath><clipPath
       id="clipPath94"
       clipPathUnits="userSpaceOnUse"><path
         id="path92"
         d="M 0,700 H 1000 V 0 H 0 Z" /></clipPath><clipPath
       id="clipPath98"
       clipPathUnits="userSpaceOnUse"><path
         id="path96"
         d="M 0,700 H 1000 V 0 H 0 Z" /></clipPath><linearGradient
       id="linearGradient104"
       gradientTransform="matrix(1,0,0,-1,398.65671,550)"
       gradientUnits="userSpaceOnUse"
       y2="1024"
       x2="0"
       y1="0"
       x1="0"><stop
         id="stop100"
         offset="0"
         style="stop-opacity:1;stop-color:#163172" /><stop
         id="stop102"
         offset="1"
         style="stop-opacity:1;stop-color:#088aff" /></linearGradient><clipPath
       id="clipPath126"
       clipPathUnits="userSpaceOnUse"><path
         id="path124"
         d="m 425.079,523.601 c -35.23,-35.197 -35.23,-92.264 0,-127.462 v 0 c 35.231,-35.199 92.349,-35.199 127.58,0 v 0 l 61.093,61.038 c 0.705,0.704 1.1,1.659 1.1,2.655 v 0 c 0,2.074 -1.682,3.756 -3.758,3.756 v 0 H 544.19 c -0.997,0 -1.953,-0.396 -2.656,-1.101 v 0 c -1.469,-1.466 -1.469,-3.843 0,-5.31 v 0 l 10.593,-10.584 c 2.349,-2.347 2.349,-6.151 0,-8.498 v 0 l -20.733,-20.713 c -19.815,-19.797 -50.017,-22.891 -73.081,-9.283 v 0 l 98.598,98.507 c 3.523,3.52 3.523,9.227 0,12.746 v 0 l -4.252,4.249 C 535.043,541.2 511.956,550 488.868,550 v 0 c -23.087,0 -46.174,-8.8 -63.789,-26.399 m 21.263,-21.244 c 19.816,19.799 50.019,22.893 73.082,9.284 v 0 L 437.05,429.343 c -13.621,23.042 -10.523,53.217 9.292,73.014" /></clipPath><linearGradient
       id="linearGradient136"
       spreadMethod="pad"
       gradientTransform="matrix(1,0,0,-1,398.65671,550)"
       gradientUnits="userSpaceOnUse"
       y2="110.134"
       x2="175.899"
       y1="-35.240299"
       x1="8.2870197"><stop
         id="stop132"
         offset="0"
         style="stop-opacity:1;stop-color:#163172" /><stop
         id="stop134"
         offset="1"
         style="stop-opacity:1;stop-color:#088aff" /></linearGradient></defs><g
     transform="matrix(1.3333333,0,0,-1.3333333,0,933.33333)"
     id="g10"><g
       id="g12"><g
         clip-path="url(#clipPath18)"
         id="g14"><path
           id="path20"
           style="fill:#088aff;fill-opacity:1;fill-rule:nonzero;stroke:none"
           d="M 533.207,318.492 H 649.359 V 201.971 H 533.207 Z" /></g></g><g
       id="g22"><g
         clip-path="url(#clipPath28)"
         id="g24"><path
           id="path30"
           style="fill:#163172;fill-opacity:1;fill-rule:nonzero;stroke:none"
           d="m 349.031,276.083 h 67.788 v -74.615 h -67.788 z" /></g></g><g
       id="g32"><g
         clip-path="url(#clipPath38)"
         id="g34"><path
           id="path40"
           style="fill:#163172;fill-opacity:1;fill-rule:nonzero;stroke:none"
           d="m 221,276.083 h 67.788 V 201.468 H 221 Z" /></g></g><g
       id="g42"><g
         clip-path="url(#clipPath48)"
         id="g44"><path
           id="path50"
           style="fill:#088aff;fill-opacity:1;fill-rule:nonzero;stroke:none"
           d="M 714.213,276.083 H 782 v -74.615 h -67.787 z" /></g></g><g
       transform="translate(338.0418,267.7995)"
       id="g52"><path
         id="path54"
         style="fill:#163172;fill-opacity:1;fill-rule:nonzero;stroke:none"
         d="M 0,0 -16.663,-38.054 -34.618,0 h -15.944 l 33.037,-64.717 h 0.718 L 14.939,0 Z" /></g><g
       id="g56"><g
         clip-path="url(#clipPath62)"
         id="g58"><path
           id="path64"
           style="fill:#163172;fill-opacity:1;fill-rule:nonzero;stroke:none"
           d="m 415.337,275.105 h 66.308 v -71.98 h -66.308 z" /></g></g><g
       transform="translate(499.8879,294.0336)"
       id="g66"><path
         id="path68"
         style="fill:#163172;fill-opacity:1;fill-rule:nonzero;stroke:none"
         d="M 0,0 V -26.378 H -15.87 V -37.044 H 0 v -48.865 h 13.503 v 48.865 h 14.58 v 10.666 h -14.58 l 0,26.378 z" /></g><g
       id="g70"><g
         clip-path="url(#clipPath76)"
         id="g72"><path
           id="path78"
           style="fill:#088aff;fill-opacity:1;fill-rule:nonzero;stroke:none"
           d="m 649.695,275.105 h 66.309 v -71.98 h -66.309 z" /></g></g><g
       id="g80"><g
         clip-path="url(#clipPath86)"
         id="g82"><g
           id="g88"><g
             id="g90" /><g
             id="g118"><g
               style="opacity:0"
               id="g116"
               clip-path="url(#clipPath94)"><g
                 id="g114"><g
                   id="g112"
                   clip-path="url(#clipPath98)"><g
                     id="g110"><g
                       id="g108"><path
                         id="path106"
                         style="fill:url(#linearGradient104);stroke:none"
                         d="M 0,700 H 1000 V 0 H 0 Z" /></g></g></g></g></g></g></g></g></g><g
       id="g120"><g
         clip-path="url(#clipPath126)"
         id="g122"><g
           id="g128"><g
             id="g130"><path
               id="path138"
               style="fill:url(#linearGradient136);stroke:none"
               d="m 425.079,523.601 c -35.23,-35.197 -35.23,-92.264 0,-127.462 v 0 c 35.231,-35.199 92.349,-35.199 127.58,0 v 0 l 61.093,61.038 c 0.705,0.704 1.1,1.659 1.1,2.655 v 0 c 0,2.074 -1.682,3.756 -3.758,3.756 v 0 H 544.19 c -0.997,0 -1.953,-0.396 -2.656,-1.101 v 0 c -1.469,-1.466 -1.469,-3.843 0,-5.31 v 0 l 10.593,-10.584 c 2.349,-2.347 2.349,-6.151 0,-8.498 v 0 l -20.733,-20.713 c -19.815,-19.797 -50.017,-22.891 -73.081,-9.283 v 0 l 98.598,98.507 c 3.523,3.52 3.523,9.227 0,12.746 v 0 l -4.252,4.249 C 535.043,541.2 511.956,550 488.868,550 v 0 c -23.087,0 -46.174,-8.8 -63.789,-26.399 m 21.263,-21.244 c 19.816,19.799 50.019,22.893 73.082,9.284 v 0 L 437.05,429.343 c -13.621,23.042 -10.523,53.217 9.292,73.014" /></g></g></g></g></g></svg>