<?xml version="1.0" encoding="utf-8"?>
<!-- Generator: Adobe Illustrator 22.1.0, SVG Export Plug-In . SVG Version: 6.00 Build 0)  -->
<svg version="1.1" id="Layer_1" xmlns="http://www.w3.org/2000/svg" xmlns:xlink="http://www.w3.org/1999/xlink" x="0px" y="0px"
	 viewBox="0 0 100.9 46.9" style="enable-background:new 0 0 100.9 46.9;" xml:space="preserve">
<style type="text/css">
	.st0{fill:#2D2C34;}
	.st1{fill:#F16439;}
</style>
<g>
	<g>
		<g>
			<path class="st0" d="M87,28.4l3.2-4.6c0.4-0.5,0.4-0.4,0-0.9L87,18.3h2.3c0.3,0,0.7,0.2,0.9,0.5l2.8,4.2c0.1,0.2,0.1,0.6,0,0.8
				l-2.8,4.2c-0.2,0.2-0.6,0.5-0.9,0.5H87z"/>
			<polygon class="st0" points="7.9,19 14.9,19 14.9,20.2 9.1,20.2 9.1,23.1 14.5,23.1 14.5,24.2 9.1,24.2 9.1,27.5 15,27.5 
				15,28.7 7.9,28.7 			"/>
			<polygon class="st0" points="17.6,28.7 16,28.7 19.5,23.7 16.2,19 17.9,19 20.3,22.7 22.8,19 24.3,19 21.1,23.7 24.5,28.7 
				22.9,28.7 20.3,24.7 			"/>
			<path class="st0" d="M26,19h4.4c0.9,0,1.6,0.2,2.1,0.7c0.5,0.5,0.8,1.2,0.8,2.1c0,0.8-0.2,1.4-0.7,2c-0.5,0.6-1.2,0.8-2.2,0.8h-3
				v4.1H26V19z M31.1,20.3c-0.3-0.1-0.7-0.2-1.2-0.2h-2.6v3.4h2.6c0.6,0,1.1-0.1,1.4-0.4c0.4-0.3,0.5-0.7,0.5-1.3
				C31.9,21,31.6,20.6,31.1,20.3"/>
			<polygon class="st0" points="35,19 42.1,19 42.1,20.2 36.3,20.2 36.3,23.1 41.6,23.1 41.6,24.2 36.3,24.2 36.3,27.5 42.2,27.5 
				42.2,28.7 35,28.7 			"/>
			<path class="st0" d="M44.1,19h4.4c0.7,0,1.3,0.1,1.8,0.3c0.9,0.4,1.3,1.2,1.3,2.3c0,0.6-0.1,1.1-0.4,1.4c-0.2,0.4-0.6,0.7-1,0.9
				c0.4,0.2,0.7,0.4,0.9,0.6c0.2,0.3,0.3,0.7,0.3,1.2l0,1.3c0,0.4,0,0.6,0.1,0.8c0.1,0.3,0.2,0.5,0.4,0.6v0.2h-1.6
				c0-0.1-0.1-0.2-0.1-0.3c0-0.1,0-0.4-0.1-0.8L50.2,26c0-0.6-0.3-1.1-0.7-1.3c-0.2-0.1-0.6-0.2-1.2-0.2h-2.9v4.2h-1.3V19z
				 M48.4,23.4c0.6,0,1.1-0.1,1.4-0.4c0.3-0.2,0.5-0.7,0.5-1.3c0-0.7-0.2-1.2-0.7-1.4c-0.3-0.1-0.6-0.2-1-0.2h-3.1v3.3H48.4z"/>
			<polygon class="st0" points="60.6,19 60.6,20.1 57.3,20.1 57.3,28.7 56,28.7 56,20.1 52.7,20.1 52.7,19 			"/>
			<path class="st1" d="M64.4,25.5c0,0.4,0.1,0.8,0.2,1c0.2,0.5,0.7,0.7,1.3,0.7c0.4,0,0.7-0.1,1-0.4c0.3-0.3,0.4-0.7,0.4-1.2
				c0-0.7-0.3-1.1-0.8-1.4c-0.3-0.1-0.8-0.2-1.5-0.2v-1.4c0.7,0,1.1-0.1,1.4-0.2c0.4-0.2,0.7-0.6,0.7-1.2c0-0.4-0.1-0.7-0.3-1
				c-0.2-0.2-0.6-0.4-1-0.4c-0.5,0-0.8,0.2-1.1,0.5c-0.2,0.3-0.3,0.7-0.3,1.2h-1.9c0-0.5,0.1-1,0.3-1.5c0.2-0.4,0.4-0.8,0.8-1.1
				c0.3-0.2,0.6-0.4,0.9-0.6c0.4-0.1,0.8-0.2,1.3-0.2c1,0,1.8,0.3,2.4,0.8c0.6,0.5,0.9,1.2,0.9,2c0,0.6-0.2,1.1-0.5,1.5
				c-0.2,0.3-0.5,0.4-0.7,0.5c0.2,0,0.4,0.2,0.8,0.5c0.5,0.5,0.8,1.1,0.8,2c0,0.9-0.3,1.6-0.9,2.3c-0.6,0.7-1.5,1-2.7,1
				c-1.5,0-2.5-0.5-3-1.4c-0.3-0.5-0.5-1.2-0.5-2H64.4z"/>
			<path class="st1" d="M75.1,21c0-0.2-0.1-0.3-0.2-0.5c-0.2-0.3-0.5-0.5-1-0.5c-0.7,0-1.1,0.4-1.4,1.1c-0.2,0.4-0.3,1-0.3,1.8
				c0.3-0.3,0.5-0.5,0.9-0.7c0.3-0.1,0.7-0.2,1.1-0.2c0.9,0,1.7,0.3,2.2,0.9c0.6,0.6,0.9,1.4,0.9,2.4c0,1-0.3,1.8-0.9,2.5
				C75.9,28.6,75,29,73.8,29c-1.3,0-2.3-0.5-2.9-1.6c-0.5-0.8-0.7-1.9-0.7-3.3c0-0.8,0-1.4,0.1-1.9c0.1-0.9,0.3-1.6,0.7-2.2
				c0.3-0.5,0.7-0.9,1.2-1.2c0.5-0.3,1-0.5,1.7-0.5c1,0,1.7,0.2,2.3,0.7c0.6,0.5,0.9,1.1,1,2H75.1z M72.7,26.8
				c0.3,0.4,0.7,0.5,1.1,0.5c0.5,0,0.8-0.2,1.1-0.5c0.3-0.3,0.4-0.8,0.4-1.3c0-0.6-0.1-1.1-0.4-1.4c-0.3-0.3-0.7-0.5-1.1-0.5
				c-0.3,0-0.7,0.1-0.9,0.3c-0.4,0.3-0.6,0.8-0.6,1.5C72.3,26,72.4,26.4,72.7,26.8"/>
			<path class="st1" d="M84.3,19.7c0.5,0.9,0.8,2.2,0.8,3.9s-0.3,3-0.8,3.9c-0.5,0.9-1.4,1.4-2.8,1.4c-1.3,0-2.2-0.5-2.8-1.4
				c-0.5-0.9-0.8-2.2-0.8-3.9s0.3-3,0.8-3.9c0.5-0.9,1.4-1.4,2.8-1.4C82.8,18.3,83.7,18.8,84.3,19.7 M80.3,26.4
				c0.2,0.6,0.6,0.9,1.2,0.9c0.6,0,1-0.3,1.2-0.9c0.2-0.6,0.3-1.5,0.3-2.7c0-1.2-0.1-2.2-0.3-2.8c-0.2-0.6-0.6-0.9-1.2-0.9
				c-0.6,0-1,0.3-1.2,0.9c-0.2,0.6-0.3,1.5-0.3,2.8C80,24.8,80.1,25.7,80.3,26.4"/>
		</g>
	</g>
	<path class="st1" d="M88,31.1c0,0-1.9,0-2.2,0c-0.3,0-0.7,0.2-0.9,0.4c-2.5,3-6.4,5.1-11.1,5.2h-0.1c-4.7,0-8.5-2.2-11.1-5.2
		c-0.1-0.2-0.6-0.4-0.9-0.4c-0.2,0-2.2,0-2.2,0c2.7,4.4,7.9,7.8,14.1,7.8v0h0.2v0C80.1,38.9,85.3,35.5,88,31.1z"/>
	<path class="st1" d="M88,15.5c0,0-1.9,0-2.2,0c-0.3,0-0.7-0.2-0.9-0.4c-2.5-3-6.4-5.1-11.1-5.2h-0.1c-4.7,0-8.5,2.2-11.1,5.2
		c-0.1,0.2-0.6,0.4-0.9,0.4c-0.2,0-2.2,0-2.2,0c2.7-4.4,7.9-7.8,14.1-7.8v0h0.2v0C80.1,7.7,85.3,11.1,88,15.5z"/>
</g>
</svg>