<svg id="svg2" xmlns="http://www.w3.org/2000/svg" xmlns:xlink="http://www.w3.org/1999/xlink" viewBox="0 0 1066.66675 305.53467"><defs><style>.cls-1{fill:none;}.cls-2{fill:#989898;}.cls-3{clip-path:url(#clip-path);}.cls-4{clip-path:url(#clip-path-2);}.cls-5{fill:#0f72ba;}.cls-6{fill:#1071b9;}.cls-7{fill:#1070b8;}.cls-8{fill:#116fb8;}.cls-9{fill:#126eb7;}.cls-10{fill:#126db6;}.cls-11{fill:#136cb5;}.cls-12{fill:#146bb5;}.cls-13{fill:#146ab4;}.cls-14{fill:#1569b3;}.cls-15{fill:#1667b2;}.cls-16{fill:#1666b1;}.cls-17{fill:#1765b1;}.cls-18{fill:#1864b0;}.cls-19{fill:#1863af;}.cls-20{fill:#1962ae;}.cls-21{fill:#1a61ae;}.cls-22{fill:#1a60ad;}.cls-23,.cls-71{fill:#1b5fac;}.cls-24{fill:#1b5eab;}.cls-25{fill:#1c5dab;}.cls-26{fill:#1c5caa;}.cls-27{fill:#1c5ba9;}.cls-28{fill:#1c5aa9;}.cls-29{fill:#1d59a8;}.cls-30{fill:#1d58a7;}.cls-31{fill:#1d57a7;}.cls-32{fill:#1d56a6;}.cls-33{fill:#1e54a5;}.cls-34{fill:#1e53a4;}.cls-35{fill:#1e52a4;}.cls-36{fill:#1e51a3;}.cls-37{fill:#1f50a2;}.cls-38{fill:#1f4fa2;}.cls-39{fill:#1f4ea1;}.cls-40{fill:#1f4da0;}.cls-41{fill:#204ca0;}.cls-42,.cls-73{fill:#204b9f;}.cls-43{fill:#214a9e;}.cls-44{fill:#21499e;}.cls-45{fill:#22489d;}.cls-46{fill:#23479c;}.cls-47{fill:#24469b;}.cls-48{fill:#24459b;}.cls-49{fill:#25449a;}.cls-50{fill:#264399;}.cls-51{fill:#264298;}.cls-52{fill:#274198;}.cls-53{fill:#283f97;}.cls-54{fill:#283e96;}.cls-55{fill:#293d95;}.cls-56{fill:#2a3c95;}.cls-57{fill:#2b3b94;}.cls-58{fill:#2b3a93;}.cls-59{fill:#2c3992;}.cls-60{fill:#2d3892;}.cls-61{fill:#2d3791;}.cls-62{fill:#2e3690;}.cls-63{clip-path:url(#clip-path-3);}.cls-64{clip-path:url(#clip-path-5);}.cls-65{clip-path:url(#clip-path-6);}.cls-66{clip-path:url(#clip-path-7);}.cls-67{isolation:isolate;}.cls-68{fill:#4e4e4e;}.cls-69{fill:#4d4f4f;}.cls-70{fill:#67a9d7;}.cls-70,.cls-71,.cls-72,.cls-73{fill-rule:evenodd;}.cls-72{fill:#348dc9;}</style><clipPath id="clip-path"><polygon class="cls-1" points="385.212 99.38 348.332 99.38 348.332 124.813 383.909 124.813 383.749 139.827 348.332 139.827 348.332 190.211 332.359 190.211 332.359 84.369 385.212 84.369 385.212 99.38"/></clipPath><clipPath id="clip-path-2"><path class="cls-1" d="M385.212,99.38h-36.88v25.43332h35.57735l-.16,15.01334H348.332v50.384H332.35864V84.36936H385.212Z"/></clipPath><clipPath id="clip-path-3"><path class="cls-1" d="M578.17729,149.48935,562.48,113.50534l-16.45069,35.984Zm6.516,15.016H539.37993l-11.792,25.70533h-17.204l52.37467-112.492,50.52132,112.492H595.80123Z"/></clipPath><clipPath id="clip-path-5"><rect class="cls-1" x="733.14929" y="84.36936" width="15.97331" height="105.84132"/></clipPath><clipPath id="clip-path-6"><path class="cls-1" d="M749.1226,190.21068H733.14929V84.36936H749.1226Z"/></clipPath><clipPath id="clip-path-7"><path class="cls-1" d="M881.19192,84.36936v105.84h15.97071V146.888h2.87866l30.23063,43.32133h19.53735L917.04527,145.1a28.71108,28.71108,0,0,0,16.99732-10.34666h0a30.073,30.073,0,0,0,6.44-19.32666h0q0-14.396-10.28-23.17733h0q-9.324-7.878-30.29866-7.88h-18.712ZM897.16263,99.38h5.688q22.074,0,22.07333,16.248h0q0,17.348-22.68669,17.34267h-5.07471Z"/></clipPath></defs><title>fair-consulting-group</title><g id="g10"><g id="path12"><path class="cls-2" d="M448.80531,68.39469h3.10132v132.032h-3.10132Z"/></g><g id="path14"><path class="cls-2" d="M664.59465,68.39469H667.7v132.032h-3.10534Z"/></g><g id="path16"><path class="cls-2" d="M820.58792,68.39469h3.10531v132.032h-3.10531Z"/></g><g id="g18"><g class="cls-3"><g id="g20"><g id="g26"><g id="g28"><g id="path46"><g class="cls-4"><polygon class="cls-5" points="348.33 190.211 385.212 190.211 385.212 190.211 348.33 190.211"/><polygon class="cls-5" points="332.359 169.767 385.212 169.767 385.212 190.211 348.332 190.211 332.359 190.211 332.359 169.767"/><rect class="cls-5" x="332.35864" y="168.12214" width="52.85333" height="1.64481"/><rect class="cls-6" x="332.35864" y="166.47733" width="52.85333" height="1.64481"/><rect class="cls-7" x="332.35864" y="164.83252" width="52.85333" height="1.64481"/><rect class="cls-8" x="332.35864" y="163.18771" width="52.85333" height="1.64481"/><rect class="cls-9" x="332.35864" y="161.5429" width="52.85333" height="1.64481"/><rect class="cls-10" x="332.35864" y="159.89809" width="52.85333" height="1.64481"/><rect class="cls-11" x="332.35864" y="158.25328" width="52.85333" height="1.64481"/><rect class="cls-12" x="332.35864" y="156.60847" width="52.85333" height="1.64481"/><rect class="cls-13" x="332.35864" y="154.96366" width="52.85333" height="1.64481"/><rect class="cls-14" x="332.35864" y="153.31885" width="52.85333" height="1.64481"/><rect class="cls-15" x="332.35864" y="151.67404" width="52.85333" height="1.64481"/><rect class="cls-16" x="332.35864" y="150.02923" width="52.85333" height="1.64481"/><rect class="cls-17" x="332.35864" y="148.38442" width="52.85333" height="1.64481"/><rect class="cls-18" x="332.35864" y="146.73961" width="52.85333" height="1.64481"/><rect class="cls-19" x="332.35864" y="145.0948" width="52.85333" height="1.64481"/><rect class="cls-20" x="332.35864" y="143.44999" width="52.85333" height="1.64481"/><rect class="cls-21" x="332.35864" y="141.80518" width="52.85333" height="1.64481"/><rect class="cls-22" x="332.35864" y="140.16037" width="52.85333" height="1.64481"/><rect class="cls-23" x="332.35864" y="138.51556" width="52.85333" height="1.64481"/><rect class="cls-23" x="332.35864" y="134.1218" width="52.85333" height="4.39376"/><rect class="cls-23" x="332.35864" y="132.90171" width="52.85333" height="1.22008"/><rect class="cls-24" x="332.35864" y="131.68163" width="52.85333" height="1.22008"/><rect class="cls-25" x="332.35864" y="130.46155" width="52.85333" height="1.22008"/><rect class="cls-26" x="332.35864" y="129.24147" width="52.85333" height="1.22008"/><rect class="cls-27" x="332.35864" y="128.02138" width="52.85333" height="1.22008"/><rect class="cls-28" x="332.35864" y="126.8013" width="52.85333" height="1.22008"/><rect class="cls-29" x="332.35864" y="125.58122" width="52.85333" height="1.22008"/><rect class="cls-30" x="332.35864" y="124.36114" width="52.85333" height="1.22008"/><rect class="cls-31" x="332.35864" y="123.14106" width="52.85333" height="1.22008"/><rect class="cls-32" x="332.35864" y="121.92097" width="52.85333" height="1.22008"/><rect class="cls-33" x="332.35864" y="120.70089" width="52.85333" height="1.22008"/><rect class="cls-34" x="332.35864" y="119.48081" width="52.85333" height="1.22008"/><rect class="cls-35" x="332.35864" y="118.26073" width="52.85333" height="1.22008"/><rect class="cls-36" x="332.35864" y="117.04064" width="52.85333" height="1.22008"/><rect class="cls-37" x="332.35864" y="115.82056" width="52.85333" height="1.22008"/><rect class="cls-38" x="332.35864" y="114.60048" width="52.85333" height="1.22008"/><rect class="cls-39" x="332.35864" y="113.3804" width="52.85333" height="1.22008"/><rect class="cls-40" x="332.35864" y="112.16032" width="52.85333" height="1.22008"/><rect class="cls-41" x="332.35864" y="110.94023" width="52.85333" height="1.22008"/><rect class="cls-42" x="332.35864" y="109.72015" width="52.85333" height="1.22008"/><rect class="cls-42" x="332.35864" y="109.27387" width="52.85333" height="0.44628"/><rect class="cls-42" x="332.35864" y="108.08794" width="52.85333" height="1.18593"/><rect class="cls-43" x="332.35864" y="106.90201" width="52.85333" height="1.18593"/><rect class="cls-44" x="332.35864" y="105.71608" width="52.85333" height="1.18593"/><rect class="cls-45" x="332.35864" y="104.53015" width="52.85333" height="1.18593"/><rect class="cls-46" x="332.35864" y="103.34422" width="52.85333" height="1.18593"/><rect class="cls-47" x="332.35864" y="102.15829" width="52.85333" height="1.18593"/><rect class="cls-48" x="332.35864" y="100.97236" width="52.85333" height="1.18593"/><rect class="cls-49" x="332.35864" y="99.78643" width="52.85333" height="1.18593"/><rect class="cls-50" x="332.35864" y="98.60051" width="52.85333" height="1.18593"/><rect class="cls-51" x="332.35864" y="97.41458" width="52.85333" height="1.18593"/><rect class="cls-52" x="332.35864" y="96.22865" width="52.85333" height="1.18593"/><rect class="cls-53" x="332.35864" y="95.04272" width="52.85333" height="1.18593"/><rect class="cls-54" x="332.35864" y="93.85679" width="52.85333" height="1.18593"/><rect class="cls-55" x="332.35864" y="92.67086" width="52.85333" height="1.18593"/><rect class="cls-56" x="332.35864" y="91.48493" width="52.85333" height="1.18593"/><rect class="cls-57" x="332.35864" y="90.299" width="52.85333" height="1.18593"/><rect class="cls-58" x="332.35864" y="89.11307" width="52.85333" height="1.18593"/><rect class="cls-59" x="332.35864" y="87.92714" width="52.85333" height="1.18593"/><rect class="cls-60" x="332.35864" y="86.74121" width="52.85333" height="1.18593"/><rect class="cls-61" x="332.35864" y="85.55529" width="52.85333" height="1.18593"/><polygon class="cls-62" points="332.359 84.369 332.359 84.369 385.212 84.369 385.212 85.555 332.359 85.555 332.359 84.369"/></g></g></g></g></g></g></g><g id="g48"><g class="cls-63"><g id="g50"><g id="g56"><g id="g58"><g id="path76"><g class="cls-63"><rect class="cls-5" x="510.38392" y="168.48235" width="102.89599" height="21.72833"/><rect class="cls-5" x="510.38392" y="166.73418" width="102.89599" height="1.74816"/><rect class="cls-6" x="510.38392" y="164.98602" width="102.89599" height="1.74816"/><rect class="cls-7" x="510.38392" y="163.23786" width="102.89599" height="1.74816"/><rect class="cls-8" x="510.38392" y="161.48969" width="102.89599" height="1.74816"/><rect class="cls-9" x="510.38392" y="159.74153" width="102.89599" height="1.74816"/><rect class="cls-10" x="510.38392" y="157.99336" width="102.89599" height="1.74816"/><rect class="cls-11" x="510.38392" y="156.2452" width="102.89599" height="1.74816"/><rect class="cls-12" x="510.38392" y="154.49703" width="102.89599" height="1.74816"/><rect class="cls-13" x="510.38392" y="152.74887" width="102.89599" height="1.74816"/><rect class="cls-14" x="510.38392" y="151.00071" width="102.89599" height="1.74816"/><rect class="cls-15" x="510.38392" y="149.25254" width="102.89599" height="1.74816"/><rect class="cls-16" x="510.38392" y="147.50438" width="102.89599" height="1.74816"/><rect class="cls-17" x="510.38392" y="145.75621" width="102.89599" height="1.74816"/><rect class="cls-18" x="510.38392" y="144.00805" width="102.89599" height="1.74816"/><rect class="cls-19" x="510.38392" y="142.25989" width="102.89599" height="1.74816"/><rect class="cls-20" x="510.38392" y="140.51172" width="102.89599" height="1.74816"/><rect class="cls-21" x="510.38392" y="138.76356" width="102.89599" height="1.74816"/><rect class="cls-22" x="510.38392" y="137.01539" width="102.89599" height="1.74816"/><rect class="cls-23" x="510.38392" y="135.26723" width="102.89599" height="1.74816"/><rect class="cls-23" x="510.38392" y="130.59738" width="102.89599" height="4.66985"/><rect class="cls-23" x="510.38392" y="129.30063" width="102.89599" height="1.29675"/><rect class="cls-24" x="510.38392" y="128.00389" width="102.89599" height="1.29675"/><rect class="cls-25" x="510.38392" y="126.70714" width="102.89599" height="1.29675"/><rect class="cls-26" x="510.38392" y="125.41039" width="102.89599" height="1.29675"/><rect class="cls-27" x="510.38392" y="124.11364" width="102.89599" height="1.29675"/><rect class="cls-28" x="510.38392" y="122.81689" width="102.89599" height="1.29675"/><rect class="cls-29" x="510.38392" y="121.52015" width="102.89599" height="1.29675"/><rect class="cls-30" x="510.38392" y="120.2234" width="102.89599" height="1.29675"/><rect class="cls-31" x="510.38392" y="118.92665" width="102.89599" height="1.29675"/><rect class="cls-32" x="510.38392" y="117.6299" width="102.89599" height="1.29675"/><rect class="cls-33" x="510.38392" y="116.33316" width="102.89599" height="1.29675"/><rect class="cls-34" x="510.38392" y="115.03641" width="102.89599" height="1.29675"/><rect class="cls-35" x="510.38392" y="113.73966" width="102.89599" height="1.29675"/><rect class="cls-36" x="510.38392" y="112.44291" width="102.89599" height="1.29675"/><rect class="cls-37" x="510.38392" y="111.14617" width="102.89599" height="1.29675"/><rect class="cls-38" x="510.38392" y="109.84942" width="102.89599" height="1.29675"/><rect class="cls-39" x="510.38392" y="108.55267" width="102.89599" height="1.29675"/><rect class="cls-40" x="510.38392" y="107.25592" width="102.89599" height="1.29675"/><rect class="cls-41" x="510.38392" y="105.95917" width="102.89599" height="1.29675"/><rect class="cls-42" x="510.38392" y="104.66243" width="102.89599" height="1.29675"/><rect class="cls-42" x="510.38392" y="104.1881" width="102.89599" height="0.47433"/><rect class="cls-42" x="510.38392" y="102.92765" width="102.89599" height="1.26045"/><rect class="cls-43" x="510.38392" y="101.6672" width="102.89599" height="1.26045"/><rect class="cls-44" x="510.38392" y="100.40675" width="102.89599" height="1.26045"/><rect class="cls-45" x="510.38392" y="99.14631" width="102.89599" height="1.26045"/><rect class="cls-46" x="510.38392" y="97.88586" width="102.89599" height="1.26045"/><rect class="cls-47" x="510.38392" y="96.62541" width="102.89599" height="1.26045"/><rect class="cls-48" x="510.38392" y="95.36496" width="102.89599" height="1.26045"/><rect class="cls-49" x="510.38392" y="94.10451" width="102.89599" height="1.26045"/><rect class="cls-50" x="510.38392" y="92.84406" width="102.89599" height="1.26045"/><rect class="cls-51" x="510.38392" y="91.58362" width="102.89599" height="1.26045"/><rect class="cls-52" x="510.38392" y="90.32317" width="102.89599" height="1.26045"/><rect class="cls-53" x="510.38392" y="89.06272" width="102.89599" height="1.26045"/><rect class="cls-54" x="510.38392" y="87.80227" width="102.89599" height="1.26045"/><rect class="cls-55" x="510.38392" y="86.54182" width="102.89599" height="1.26045"/><rect class="cls-56" x="510.38392" y="85.28137" width="102.89599" height="1.26045"/><rect class="cls-57" x="510.38392" y="84.02092" width="102.89599" height="1.26045"/><rect class="cls-58" x="510.38392" y="82.76048" width="102.89599" height="1.26045"/><rect class="cls-59" x="510.38392" y="81.50003" width="102.89599" height="1.26045"/><rect class="cls-60" x="510.38392" y="80.23958" width="102.89599" height="1.26045"/><rect class="cls-61" x="510.38392" y="78.97913" width="102.89599" height="1.26045"/><polygon class="cls-62" points="510.384 77.719 562.757 77.719 613.28 77.719 613.28 78.979 510.384 78.979 510.384 77.719"/><polygon class="cls-62" points="562.757 77.719 510.384 77.719 510.384 77.719 562.757 77.719"/><rect class="cls-15" x="546.02926" y="149.25254" width="32.14803" height="0.23681"/><rect class="cls-16" x="546.02926" y="147.50438" width="32.14803" height="1.74816"/><rect class="cls-17" x="546.02926" y="145.75621" width="32.14803" height="1.74816"/><rect class="cls-18" x="546.02926" y="144.00805" width="32.14803" height="1.74816"/><rect class="cls-19" x="546.02926" y="142.25989" width="32.14803" height="1.74816"/><rect class="cls-20" x="546.02926" y="140.51172" width="32.14803" height="1.74816"/><rect class="cls-21" x="546.02926" y="138.76356" width="32.14803" height="1.74816"/><rect class="cls-22" x="546.02926" y="137.01539" width="32.14803" height="1.74816"/><rect class="cls-23" x="546.02926" y="135.26723" width="32.14803" height="1.74816"/><rect class="cls-23" x="546.02926" y="130.59738" width="32.14803" height="4.66985"/><rect class="cls-23" x="546.02926" y="129.30063" width="32.14803" height="1.29675"/><rect class="cls-24" x="546.02926" y="128.00389" width="32.14803" height="1.29675"/><rect class="cls-25" x="546.02926" y="126.70714" width="32.14803" height="1.29675"/><rect class="cls-26" x="546.02926" y="125.41039" width="32.14803" height="1.29675"/><rect class="cls-27" x="546.02926" y="124.11364" width="32.14803" height="1.29675"/><rect class="cls-28" x="546.02926" y="122.81689" width="32.14803" height="1.29675"/><rect class="cls-29" x="546.02926" y="121.52015" width="32.14803" height="1.29675"/><rect class="cls-30" x="546.02926" y="120.2234" width="32.14803" height="1.29675"/><rect class="cls-31" x="546.02926" y="118.92665" width="32.14803" height="1.29675"/><rect class="cls-32" x="546.02926" y="117.6299" width="32.14803" height="1.29675"/><rect class="cls-33" x="546.02926" y="116.33316" width="32.14803" height="1.29675"/><rect class="cls-34" x="546.02926" y="115.03641" width="32.14803" height="1.29675"/><rect class="cls-35" x="546.02926" y="113.73966" width="32.14803" height="1.29675"/><rect class="cls-36" x="546.02926" y="113.50534" width="32.14803" height="0.23432"/></g></g></g></g></g></g></g><g id="g78"><g class="cls-64"><g id="g80"><g id="g86"><g id="g88"><g id="path106"><g class="cls-65"><rect class="cls-5" x="733.14929" y="169.76695" width="15.97331" height="20.44373"/><rect class="cls-5" x="733.14929" y="168.12214" width="15.97331" height="1.64481"/><rect class="cls-6" x="733.14929" y="166.47733" width="15.97331" height="1.64481"/><rect class="cls-7" x="733.14929" y="164.83252" width="15.97331" height="1.64481"/><rect class="cls-8" x="733.14929" y="163.18771" width="15.97331" height="1.64481"/><rect class="cls-9" x="733.14929" y="161.5429" width="15.97331" height="1.64481"/><rect class="cls-10" x="733.14929" y="159.89809" width="15.97331" height="1.64481"/><rect class="cls-11" x="733.14929" y="158.25328" width="15.97331" height="1.64481"/><rect class="cls-12" x="733.14929" y="156.60847" width="15.97331" height="1.64481"/><rect class="cls-13" x="733.14929" y="154.96366" width="15.97331" height="1.64481"/><rect class="cls-14" x="733.14929" y="153.31885" width="15.97331" height="1.64481"/><rect class="cls-15" x="733.14929" y="151.67404" width="15.97331" height="1.64481"/><rect class="cls-16" x="733.14929" y="150.02923" width="15.97331" height="1.64481"/><rect class="cls-17" x="733.14929" y="148.38442" width="15.97331" height="1.64481"/><rect class="cls-18" x="733.14929" y="146.73961" width="15.97331" height="1.64481"/><rect class="cls-19" x="733.14929" y="145.0948" width="15.97331" height="1.64481"/><rect class="cls-20" x="733.14929" y="143.44999" width="15.97331" height="1.64481"/><rect class="cls-21" x="733.14929" y="141.80518" width="15.97331" height="1.64481"/><rect class="cls-22" x="733.14929" y="140.16037" width="15.97331" height="1.64481"/><rect class="cls-23" x="733.14929" y="138.51556" width="15.97331" height="1.64481"/><rect class="cls-23" x="733.14929" y="134.1218" width="15.97331" height="4.39376"/><rect class="cls-23" x="733.14929" y="132.90171" width="15.97331" height="1.22008"/><rect class="cls-24" x="733.14929" y="131.68163" width="15.97331" height="1.22008"/><rect class="cls-25" x="733.14929" y="130.46155" width="15.97331" height="1.22008"/><rect class="cls-26" x="733.14929" y="129.24147" width="15.97331" height="1.22008"/><rect class="cls-27" x="733.14929" y="128.02138" width="15.97331" height="1.22008"/><rect class="cls-28" x="733.14929" y="126.8013" width="15.97331" height="1.22008"/><rect class="cls-29" x="733.14929" y="125.58122" width="15.97331" height="1.22008"/><rect class="cls-30" x="733.14929" y="124.36114" width="15.97331" height="1.22008"/><rect class="cls-31" x="733.14929" y="123.14106" width="15.97331" height="1.22008"/><rect class="cls-32" x="733.14929" y="121.92097" width="15.97331" height="1.22008"/><rect class="cls-33" x="733.14929" y="120.70089" width="15.97331" height="1.22008"/><rect class="cls-34" x="733.14929" y="119.48081" width="15.97331" height="1.22008"/><rect class="cls-35" x="733.14929" y="118.26073" width="15.97331" height="1.22008"/><rect class="cls-36" x="733.14929" y="117.04064" width="15.97331" height="1.22008"/><rect class="cls-37" x="733.14929" y="115.82056" width="15.97331" height="1.22008"/><rect class="cls-38" x="733.14929" y="114.60048" width="15.97331" height="1.22008"/><rect class="cls-39" x="733.14929" y="113.3804" width="15.97331" height="1.22008"/><rect class="cls-40" x="733.14929" y="112.16032" width="15.97331" height="1.22008"/><rect class="cls-41" x="733.14929" y="110.94023" width="15.97331" height="1.22008"/><rect class="cls-42" x="733.14929" y="109.72015" width="15.97331" height="1.22008"/><rect class="cls-42" x="733.14929" y="109.27387" width="15.97331" height="0.44628"/><rect class="cls-42" x="733.14929" y="108.08794" width="15.97331" height="1.18593"/><rect class="cls-43" x="733.14929" y="106.90201" width="15.97331" height="1.18593"/><rect class="cls-44" x="733.14929" y="105.71608" width="15.97331" height="1.18593"/><rect class="cls-45" x="733.14929" y="104.53015" width="15.97331" height="1.18593"/><rect class="cls-46" x="733.14929" y="103.34422" width="15.97331" height="1.18593"/><rect class="cls-47" x="733.14929" y="102.15829" width="15.97331" height="1.18593"/><rect class="cls-48" x="733.14929" y="100.97236" width="15.97331" height="1.18593"/><rect class="cls-49" x="733.14929" y="99.78643" width="15.97331" height="1.18593"/><rect class="cls-50" x="733.14929" y="98.60051" width="15.97331" height="1.18593"/><rect class="cls-51" x="733.14929" y="97.41458" width="15.97331" height="1.18593"/><rect class="cls-52" x="733.14929" y="96.22865" width="15.97331" height="1.18593"/><rect class="cls-53" x="733.14929" y="95.04272" width="15.97331" height="1.18593"/><rect class="cls-54" x="733.14929" y="93.85679" width="15.97331" height="1.18593"/><rect class="cls-55" x="733.14929" y="92.67086" width="15.97331" height="1.18593"/><rect class="cls-56" x="733.14929" y="91.48493" width="15.97331" height="1.18593"/><rect class="cls-57" x="733.14929" y="90.299" width="15.97331" height="1.18593"/><rect class="cls-58" x="733.14929" y="89.11307" width="15.97331" height="1.18593"/><rect class="cls-59" x="733.14929" y="87.92714" width="15.97331" height="1.18593"/><rect class="cls-60" x="733.14929" y="86.74121" width="15.97331" height="1.18593"/><rect class="cls-61" x="733.14929" y="85.55529" width="15.97331" height="1.18593"/><rect class="cls-62" x="733.14929" y="84.36936" width="15.97331" height="1.18593"/></g></g></g></g></g></g></g><g id="g108"><g class="cls-66"><g id="g110"><g id="g116"><g id="g118"><g id="path136"><g class="cls-66"><rect class="cls-23" x="897.16254" y="132.9011" width="27.76139" height="0.06959"/><rect class="cls-24" x="897.16254" y="131.68104" width="27.76139" height="1.22007"/><rect class="cls-25" x="897.16254" y="130.46097" width="27.76139" height="1.22007"/><rect class="cls-26" x="897.16254" y="129.2409" width="27.76139" height="1.22007"/><rect class="cls-27" x="897.16254" y="128.02083" width="27.76139" height="1.22007"/><rect class="cls-28" x="897.16254" y="126.80077" width="27.76139" height="1.22007"/><rect class="cls-29" x="897.16254" y="125.5807" width="27.76139" height="1.22007"/><rect class="cls-30" x="897.16254" y="124.36063" width="27.76139" height="1.22007"/><rect class="cls-31" x="897.16254" y="123.14057" width="27.76139" height="1.22007"/><rect class="cls-32" x="897.16254" y="121.9205" width="27.76139" height="1.22007"/><rect class="cls-33" x="897.16254" y="120.70043" width="27.76139" height="1.22007"/><rect class="cls-34" x="897.16254" y="119.48037" width="27.76139" height="1.22007"/><rect class="cls-35" x="897.16254" y="118.2603" width="27.76139" height="1.22007"/><rect class="cls-36" x="897.16254" y="117.04023" width="27.76139" height="1.22007"/><rect class="cls-37" x="897.16254" y="115.82017" width="27.76139" height="1.22007"/><rect class="cls-38" x="897.16254" y="114.6001" width="27.76139" height="1.22007"/><rect class="cls-39" x="897.16254" y="113.38003" width="27.76139" height="1.22007"/><rect class="cls-40" x="897.16254" y="112.15997" width="27.76139" height="1.22007"/><rect class="cls-41" x="897.16254" y="110.9399" width="27.76139" height="1.22007"/><rect class="cls-42" x="897.16254" y="109.71983" width="27.76139" height="1.22007"/><rect class="cls-42" x="897.16254" y="109.27355" width="27.76139" height="0.44628"/><rect class="cls-42" x="897.16254" y="108.08764" width="27.76139" height="1.18591"/><rect class="cls-43" x="897.16254" y="106.90172" width="27.76139" height="1.18591"/><rect class="cls-44" x="897.16254" y="105.71581" width="27.76139" height="1.18591"/><rect class="cls-45" x="897.16254" y="104.5299" width="27.76139" height="1.18591"/><rect class="cls-46" x="897.16254" y="103.34398" width="27.76139" height="1.18591"/><rect class="cls-47" x="897.16254" y="102.15807" width="27.76139" height="1.18591"/><rect class="cls-48" x="897.16254" y="100.97215" width="27.76139" height="1.18591"/><rect class="cls-49" x="897.16254" y="99.78624" width="27.76139" height="1.18591"/><rect class="cls-50" x="897.16254" y="99.38002" width="27.76139" height="0.40622"/><polygon class="cls-5" points="897.166 190.209 949.809 190.209 949.809 190.209 897.166 190.209"/><polygon class="cls-5" points="881.192 169.766 949.809 169.766 949.809 190.209 897.166 190.209 881.192 190.209 881.192 169.766"/><rect class="cls-5" x="881.19192" y="168.12109" width="68.61735" height="1.64479"/><rect class="cls-6" x="881.19192" y="166.4763" width="68.61735" height="1.64479"/><rect class="cls-7" x="881.19192" y="164.83151" width="68.61735" height="1.64479"/><rect class="cls-8" x="881.19192" y="163.18672" width="68.61735" height="1.64479"/><rect class="cls-9" x="881.19192" y="161.54193" width="68.61735" height="1.64479"/><rect class="cls-10" x="881.19192" y="159.89714" width="68.61735" height="1.64479"/><rect class="cls-11" x="881.19192" y="158.25235" width="68.61735" height="1.64479"/><rect class="cls-12" x="881.19192" y="156.60756" width="68.61735" height="1.64479"/><rect class="cls-13" x="881.19192" y="154.96277" width="68.61735" height="1.64479"/><rect class="cls-14" x="881.19192" y="153.31798" width="68.61735" height="1.64479"/><rect class="cls-15" x="881.19192" y="151.67319" width="68.61735" height="1.64479"/><rect class="cls-16" x="881.19192" y="150.0284" width="68.61735" height="1.64479"/><rect class="cls-17" x="881.19192" y="148.38361" width="68.61735" height="1.64479"/><rect class="cls-18" x="881.19192" y="146.73882" width="68.61735" height="1.64479"/><rect class="cls-19" x="881.19192" y="145.09403" width="68.61735" height="1.64479"/><rect class="cls-20" x="881.19192" y="143.44924" width="68.61735" height="1.64479"/><rect class="cls-21" x="881.19192" y="141.80445" width="68.61735" height="1.64479"/><rect class="cls-22" x="881.19192" y="140.15966" width="68.61735" height="1.64479"/><rect class="cls-23" x="881.19192" y="138.51487" width="68.61735" height="1.64479"/><rect class="cls-23" x="881.19192" y="134.12117" width="68.61735" height="4.39371"/><rect class="cls-23" x="881.19192" y="132.9011" width="68.61735" height="1.22007"/><rect class="cls-24" x="881.19192" y="131.68103" width="68.61735" height="1.22007"/><rect class="cls-25" x="881.19192" y="130.46097" width="68.61735" height="1.22007"/><rect class="cls-26" x="881.19192" y="129.2409" width="68.61735" height="1.22007"/><rect class="cls-27" x="881.19192" y="128.02083" width="68.61735" height="1.22007"/><rect class="cls-28" x="881.19192" y="126.80077" width="68.61735" height="1.22007"/><rect class="cls-29" x="881.19192" y="125.5807" width="68.61735" height="1.22007"/><rect class="cls-30" x="881.19192" y="124.36063" width="68.61735" height="1.22007"/><rect class="cls-31" x="881.19192" y="123.14057" width="68.61735" height="1.22007"/><rect class="cls-32" x="881.19192" y="121.9205" width="68.61735" height="1.22007"/><rect class="cls-33" x="881.19192" y="120.70043" width="68.61735" height="1.22007"/><rect class="cls-34" x="881.19192" y="119.48037" width="68.61735" height="1.22007"/><rect class="cls-35" x="881.19192" y="118.2603" width="68.61735" height="1.22007"/><rect class="cls-36" x="881.19192" y="117.04023" width="68.61735" height="1.22007"/><rect class="cls-37" x="881.19192" y="115.82017" width="68.61735" height="1.22007"/><rect class="cls-38" x="881.19192" y="114.6001" width="68.61735" height="1.22007"/><rect class="cls-39" x="881.19192" y="113.38003" width="68.61735" height="1.22007"/><rect class="cls-40" x="881.19192" y="112.15996" width="68.61735" height="1.22007"/><rect class="cls-41" x="881.19192" y="110.9399" width="68.61735" height="1.22007"/><rect class="cls-42" x="881.19192" y="109.71983" width="68.61735" height="1.22007"/><rect class="cls-42" x="881.19192" y="109.27355" width="68.61735" height="0.44628"/><rect class="cls-42" x="881.19192" y="108.08764" width="68.61735" height="1.18591"/><rect class="cls-43" x="881.19192" y="106.90172" width="68.61735" height="1.18591"/><rect class="cls-44" x="881.19192" y="105.71581" width="68.61735" height="1.18591"/><rect class="cls-45" x="881.19192" y="104.5299" width="68.61735" height="1.18591"/><rect class="cls-46" x="881.19192" y="103.34398" width="68.61735" height="1.18591"/><rect class="cls-47" x="881.19192" y="102.15807" width="68.61735" height="1.18591"/><rect class="cls-48" x="881.19192" y="100.97215" width="68.61735" height="1.18591"/><rect class="cls-49" x="881.19192" y="99.78624" width="68.61735" height="1.18591"/><rect class="cls-50" x="881.19192" y="98.60033" width="68.61735" height="1.18591"/><rect class="cls-51" x="881.19192" y="97.41441" width="68.61735" height="1.18591"/><rect class="cls-52" x="881.19192" y="96.2285" width="68.61735" height="1.18591"/><rect class="cls-53" x="881.19192" y="95.04258" width="68.61735" height="1.18591"/><rect class="cls-54" x="881.19192" y="93.85667" width="68.61735" height="1.18591"/><rect class="cls-55" x="881.19192" y="92.67075" width="68.61735" height="1.18591"/><rect class="cls-56" x="881.19192" y="91.48484" width="68.61735" height="1.18591"/><rect class="cls-57" x="881.19192" y="90.29893" width="68.61735" height="1.18591"/><rect class="cls-58" x="881.19192" y="89.11301" width="68.61735" height="1.18591"/><rect class="cls-59" x="881.19192" y="87.9271" width="68.61735" height="1.18591"/><rect class="cls-60" x="881.19192" y="86.74118" width="68.61735" height="1.18591"/><rect class="cls-61" x="881.19192" y="85.55527" width="68.61735" height="1.18591"/><polygon class="cls-62" points="881.192 84.369 881.196 84.369 949.809 84.369 949.809 85.555 881.192 85.555 881.192 84.369"/></g></g></g></g></g></g></g><g id="text140" class="cls-67"><g class="cls-67"><path class="cls-68" d="M354.53125,231.50977v5.15332a12.06542,12.06542,0,0,0-7.80518-3.15528,9.93849,9.93849,0,0,0-7.48828,3.19336,10.76328,10.76328,0,0,0-3.0625,7.76758,10.5076,10.5076,0,0,0,3.0625,7.65625,10.11759,10.11759,0,0,0,7.50684,3.11816,9.2091,9.2091,0,0,0,3.90283-.74707,11.31836,11.31836,0,0,0,1.85791-1.00781,22.02741,22.02741,0,0,0,2.02588-1.53125v5.24609a15.701,15.701,0,0,1-7.84277,2.11133A14.46967,14.46967,0,0,1,336.13818,255a14.29976,14.29976,0,0,1-4.35107-10.49414,14.80607,14.80607,0,0,1,3.6416-9.82227,14.49828,14.49828,0,0,1,11.5957-5.28418A14.71514,14.71514,0,0,1,354.53125,231.50977Z"/></g><g class="cls-67"><path class="cls-68" d="M373.69336,244.24414a14.12284,14.12284,0,0,1,4.46289-10.457A14.69326,14.69326,0,0,1,388.8374,229.418,15.07714,15.07714,0,0,1,403.832,244.41211a14.17679,14.17679,0,0,1-4.44385,10.55078,15.23461,15.23461,0,0,1-20.80224.48633A14.169,14.169,0,0,1,373.69336,244.24414Zm4.38818.05664a10.42194,10.42194,0,0,0,3.21192,7.86133,10.63766,10.63766,0,0,0,15.03222-.05664,11.18981,11.18981,0,0,0,.03711-15.46094,10.7526,10.7526,0,0,0-15.18115,0A10.40084,10.40084,0,0,0,378.08154,244.30078Z"/></g><g class="cls-67"><path class="cls-68" d="M424.61768,258.791v-30.793l21.02587,21.998V229.959h4.35108v30.5879l-21.02588-21.94141V258.791Z"/></g><g class="cls-67"><path class="cls-68" d="M488.49365,234.25391l-3.52929,2.09179a6.06849,6.06849,0,0,0-1.88575-2.24023,4.40188,4.40188,0,0,0-2.40918-.59766,4.44885,4.44885,0,0,0-3.00634,1.02637,3.18364,3.18364,0,0,0-1.19483,2.54q0,2.10938,3.13672,3.39844l2.876,1.17578a12.288,12.288,0,0,1,5.13525,3.46484,7.80728,7.80728,0,0,1,1.62451,5.01367,8.80846,8.80846,0,0,1-2.65185,6.57227,9.09708,9.09708,0,0,1-6.62891,2.61523,8.86832,8.86832,0,0,1-6.19971-2.22265,10.23108,10.23108,0,0,1-3.00634-6.25586l4.40722-.97071a7.48944,7.48944,0,0,0,1.04541,3.51075,4.969,4.969,0,0,0,7.30127.5039,4.71457,4.71457,0,0,0,1.34473-3.4541,4.85857,4.85857,0,0,0-.2334-1.541,3.92518,3.92518,0,0,0-.72852-1.28907,5.87534,5.87534,0,0,0-1.27929-1.10156,12.46127,12.46127,0,0,0-1.86719-.98047l-2.78223-1.15722q-5.91943-2.502-5.91943-7.31934a6.94511,6.94511,0,0,1,2.4834-5.43457,8.97478,8.97478,0,0,1,6.18115-2.20313Q485.69263,229.39941,488.49365,234.25391Z"/></g><g class="cls-67"><path class="cls-68" d="M514.13623,229.959v17.36719q0,3.71484,1.21338,5.4336a6.49322,6.49322,0,0,0,10.21435,0q1.21364-1.66114,1.21387-5.4336V229.959h4.35108v18.56153a10.38593,10.38593,0,0,1-2.83838,7.50683,10.97753,10.97753,0,0,1-15.667,0,10.3839,10.3839,0,0,1-2.83838-7.50683V229.959Z"/></g><g class="cls-67"><path class="cls-68" d="M557.69531,229.959v24.74219h8.47657V258.791H553.34375V229.959Z"/></g><g class="cls-67"><path class="cls-68" d="M591.68164,234.04883V258.791H587.332V234.04883h-6.62891V229.959H598.293v4.08985Z"/></g><g class="cls-67"><path class="cls-68" d="M621.80957,229.959v28.832H617.458V229.959Z"/></g><g class="cls-67"><path class="cls-68" d="M644.03613,258.791v-30.793l21.02637,21.998V229.959h4.35156v30.5879L648.3877,238.60547V258.791Z"/></g><g class="cls-67"><path class="cls-68" d="M706.74707,243.77734h11.91309v.95313a19.66378,19.66378,0,0,1-.76563,5.751,12.22379,12.22379,0,0,1-2.52051,4.332,13.05987,13.05987,0,0,1-10.21386,4.51855,14.04182,14.04182,0,0,1-10.36426-4.36914,15.0496,15.0496,0,0,1,17.06738-24.18164,18.21185,18.21185,0,0,1,5.50879,4.48145l-3.09961,2.96972q-3.54784-4.72558-8.64551-4.72461a10.32827,10.32827,0,0,0-7.6748,3.15528,10.53579,10.53579,0,0,0-3.09961,7.76855,10.83181,10.83181,0,0,0,10.457,10.83008,8.69314,8.69314,0,0,0,5.76953-2.166,7.70955,7.70955,0,0,0,2.85742-5.22851h-7.18945Z"/></g><g class="cls-67"><path class="cls-68" d="M781.35938,243.77734h11.91308v.95313a19.66379,19.66379,0,0,1-.76562,5.751,12.22379,12.22379,0,0,1-2.52051,4.332,13.0599,13.0599,0,0,1-10.21387,4.51855,14.04182,14.04182,0,0,1-10.36426-4.36914,15.0496,15.0496,0,0,1,17.06739-24.18164,18.212,18.212,0,0,1,5.50879,4.48145l-3.09961,2.96972q-3.54786-4.72558-8.64551-4.72461a10.3283,10.3283,0,0,0-7.67481,3.15528,10.53579,10.53579,0,0,0-3.09961,7.76855,10.83183,10.83183,0,0,0,10.457,10.83008,8.69318,8.69318,0,0,0,5.76953-2.166,7.70959,7.70959,0,0,0,2.85742-5.22851h-7.18945Z"/></g><g class="cls-67"><path class="cls-68" d="M823.79688,246.50391l8.92578,12.28711h-5.32227L819.166,246.98926h-.78418V258.791h-4.35157V229.959h5.09864q5.71289,0,8.25293,2.14844a7.89,7.89,0,0,1,2.80175,6.31055,8.19,8.19,0,0,1-1.75586,5.26562A7.81735,7.81735,0,0,1,823.79688,246.50391Zm-5.415-3.30469h1.38183q6.18018,0,6.18067-4.72461,0-4.42676-6.0127-4.42578h-1.5498Z"/></g><g class="cls-67"><path class="cls-68" d="M850.26172,244.24414a14.121,14.121,0,0,1,4.46289-10.457,14.69357,14.69357,0,0,1,10.68164-4.36914,15.078,15.078,0,0,1,14.99414,14.99414,14.17542,14.17542,0,0,1-4.44434,10.55078,15.234,15.234,0,0,1-20.80175.48633A14.169,14.169,0,0,1,850.26172,244.24414Zm4.38867.05664a10.42019,10.42019,0,0,0,3.21191,7.86133,10.6365,10.6365,0,0,0,15.03125-.05664,11.18854,11.18854,0,0,0,.03809-15.46094,10.75319,10.75319,0,0,0-15.18164,0A10.40228,10.40228,0,0,0,854.65039,244.30078Z"/></g><g class="cls-67"><path class="cls-68" d="M905.53711,229.959v17.36719q0,3.71484,1.21387,5.4336a6.49272,6.49272,0,0,0,10.21386,0q1.21435-1.66114,1.21387-5.4336V229.959h4.35059v18.56153a10.38762,10.38762,0,0,1-2.83789,7.50683,10.97754,10.97754,0,0,1-15.667,0,10.38429,10.38429,0,0,1-2.83886-7.50683V229.959Z"/></g><g class="cls-67"><path class="cls-68" d="M949.0957,247.083v11.708h-4.35156V229.959h4.93066a22.24686,22.24686,0,0,1,5.47071.50391,7.34835,7.34835,0,0,1,3.28711,1.90527,8.20665,8.20665,0,0,1,2.4834,6.125,7.90334,7.90334,0,0,1-2.65235,6.27442,10.49452,10.49452,0,0,1-7.15137,2.31543Zm0-4.03418h1.624q5.99413,0,5.99414-4.61133,0-4.46339-6.18067-4.46289h-1.4375Z"/></g></g><g id="g142"><g id="g144"><g id="g150"><g id="path152"><path class="cls-69" d="M1008.89447,65.95a5.01984,5.01984,0,0,1-.02667.53066,1.02091,1.02091,0,0,1-.10533.36.55.55,0,0,1-.17733.19867.41624.41624,0,0,1-.228.06h-5.81067v17.916a.38322.38322,0,0,1-.06533.216.36093.36093,0,0,1-.224.15333,1.99361,1.99361,0,0,1-.416.09867,4.81683,4.81683,0,0,1-.66667.04533,4.62466,4.62466,0,0,1-.65333-.04533,1.94927,1.94927,0,0,1-.43333-.09867.37339.37339,0,0,1-.22267-.15333.363.363,0,0,1-.064-.216v-17.916h-5.81467a.45853.45853,0,0,1-.23066-.06.49369.49369,0,0,1-.16667-.19867,1.94523,1.94523,0,0,1-.10267-.36,3.38044,3.38044,0,0,1-.03866-.53066,3.46558,3.46558,0,0,1,.03866-.52934,2.0871,2.0871,0,0,1,.10267-.37733.43477.43477,0,0,1,.16667-.20667.45124.45124,0,0,1,.23066-.06533h14.37067a.40843.40843,0,0,1,.228.06533.4756.4756,0,0,1,.17733.20667,1.10072,1.10072,0,0,1,.10533.37733,5.151,5.151,0,0,1,.02667.52934"/></g></g><g id="g154"><g id="path156"><path class="cls-69" d="M1034.33978,85.01521a.34525.34525,0,0,1-.068.216.37535.37535,0,0,1-.22666.15333,2.10245,2.10245,0,0,1-.41867.1,4.79841,4.79841,0,0,1-.66533.044,4.87375,4.87375,0,0,1-.64934-.044,2.00407,2.00407,0,0,1-.43066-.1.36.36,0,0,1-.21734-.15333.35283.35283,0,0,1-.06666-.216v-17.988h-.03867l-7.272,18.068a.58779.58779,0,0,1-.14.188.626.626,0,0,1-.25333.13467,1.62831,1.62831,0,0,1-.39734.08133,4.92144,4.92144,0,0,1-.548.02933,5.03149,5.03149,0,0,1-.58-.036,2.26474,2.26474,0,0,1-.39333-.088.66107.66107,0,0,1-.25067-.13866.49266.49266,0,0,1-.12133-.17067l-6.95733-18.068h-.02267v17.988a.35281.35281,0,0,1-.28933.36933,2.14442,2.14442,0,0,1-.432.1,4.87845,4.87845,0,0,1-.66934.044,4.732,4.732,0,0,1-.65733-.044,1.92136,1.92136,0,0,1-.42133-.1.33646.33646,0,0,1-.21067-.15333.34929.34929,0,0,1-.06-.216V66.01655a1.15009,1.15009,0,0,1,.35733-.95467,1.2586,1.2586,0,0,1,.79067-.29067h1.68933a3.74255,3.74255,0,0,1,.912.10267,1.84488,1.84488,0,0,1,.67467.29733,1.81514,1.81514,0,0,1,.488.528,3.89116,3.89116,0,0,1,.33867.74934l5.90933,14.95866h.07333l6.15067-14.91333a4.6361,4.6361,0,0,1,.38933-.81334,2.14782,2.14782,0,0,1,.456-.532,1.59887,1.59887,0,0,1,.56934-.28933,2.82066,2.82066,0,0,1,.712-.088h1.76533a1.43925,1.43925,0,0,1,.464.07334.93746.93746,0,0,1,.36933.22266,1.14649,1.14649,0,0,1,.25334.38667,1.43992,1.43992,0,0,1,.09466.56267Z"/></g></g><g id="g158"><g id="path160"><path class="cls-70" d="M228.35025,228.14281a21.49219,21.49219,0,0,0-5.93467-3.45867c17.92133-19.572,24.95333-48.504,14.56933-72.16933,2.332,30.052-7.75333,52.16266-32.80533,65.44266-25.35733,13.44134-49.244,7.504-71.012-9.06533-2.24666,2.72533-4.36,5.29467-6.39333,7.76533-2.61866,3.17334-5.10132,6.18667-7.56,9.16934,16.62267,20.436,47.38,27.092,73.97333,17.98933a21.50586,21.50586,0,1,0,35.16266-15.67333"/></g></g><g id="g162"><g id="path164"><path class="cls-71" d="M112.51426,70.23136A21.59085,21.59085,0,1,0,81.70759,81.64469C54.61026,99.706,41.55426,136.19535,54.16093,164.93535c-2.34134-30.04133,7.75066-52.15466,32.80666-65.43866,25.35333-13.44,49.23733-7.49733,71.00266,9.068,5.136-6.23333,9.59333-11.64133,13.96-16.932-13.65467-16.78133-36.83466-24.28133-59.416-21.40133"/></g></g><g id="g166"><g id="path168"><path class="cls-72" d="M259.15491,86.51521a21.4757,21.4757,0,0,0-34.528,11.40533c-.284-.50266-.528-1.03333-.828-1.53333-17.36133-28.94666-55.39466-43.27333-85.07865-30.24133,30.04133-2.33734,52.16266,7.74533,65.44266,32.80666,13.44267,25.35333,7.50534,49.23733-9.06133,71.00266,6.22933,5.14267,11.63733,9.59334,16.92266,13.95334,17.79734-14.464,25.15867-39.64667,20.77067-63.476a21.48591,21.48591,0,0,0,26.36-33.91733"/></g></g><g id="g170"><g id="path172"><path class="cls-73" d="M85.69919,216.1544c-13.444-25.34933-7.50133-49.23466,9.064-70.99332-6.232-5.14267-11.63866-9.60134-16.928-13.96267-18.456,15.01067-25.66933,41.552-20.20533,66.136a21.50688,21.50688,0,1,0,9.23734,33.88666,21.23229,21.23229,0,0,0,3.54266-6.176c18.79067,24.616,53.308,35.95466,80.732,23.92-30.044,2.35333-52.164-7.744-65.44267-32.81067"/></g></g></g></g></g></svg>
