<svg id="Layer_1" data-name="Layer 1" xmlns="http://www.w3.org/2000/svg" viewBox="0 0 542.54999 301"><defs><style>.cls-1{fill:#0089d0;}.cls-2{isolation:isolate;}.cls-3{fill:#fff;}</style></defs><title>faifax-media</title><g id="Layer_1-2" data-name="Layer 1-2"><circle class="cls-1" cx="150.5" cy="150.5" r="150.5"/><g class="cls-2"><g class="cls-2"><path class="cls-3" d="M39.95068,180.75977H28.585V115.919H63.0166v7.25537H39.95068v21.583H61.09473v7.25635h-21.144Z"/></g><g class="cls-2"><path class="cls-3" d="M90.34814,180.75977v-4.86719c-2.50732,3.94922-6.35156,5.87695-11.61669,5.87695-8.60791,0-13.45508-5.60156-13.45508-14.32715,0-9.55176,5.85009-13.31738,20.47509-13.31738,1.92237,0,3.34327.0918,4.26221.18359v-4.4082c0-3.58154-.66846-6.06152-1.92187-7.439-1.4209-1.56153-3.76075-2.2959-6.93653-2.2959a19.97432,19.97432,0,0,0-11.86718,3.67334v-5.602c3.34277-3.30664,9.35986-5.23536,14.95947-5.23536,6.01709,0,10.2793,1.37793,12.87012,4.2251,2.42334,2.47949,3.59326,6.88819,3.59326,13.2251v30.30811Zm-.33447-21.39942H86.83789c-8.60791,0-11.36572,2.47949-11.36572,7.71485,0,5.05175,2.34033,7.99023,6.686,7.99023a11.0826,11.0826,0,0,0,7.85547-3.03027Z"/><path class="cls-3" d="M124.3623,119.77637a6.8732,6.8732,0,0,1-1.67138,4.86767,5.649,5.649,0,0,1-4.17871,1.74463c-3.25928,0-5.7666-2.47949-5.7666-6.52051,0-4.31689,2.84179-6.70459,5.93408-6.70459a5.34293,5.34293,0,0,1,4.09472,1.74512A6.84078,6.84078,0,0,1,124.3623,119.77637Zm-.50146,60.9834H113.24707V134.2876h10.61377Z"/></g><g class="cls-2"><path class="cls-3" d="M146.99951,180.75977H136.38574V134.2876H146.749V141.084c1.58789-4.50048,5.8501-7.99072,10.1958-7.99072a15.6836,15.6836,0,0,1,4.26221.45947v9.00049a15.47111,15.47111,0,0,0-5.8501-1.01025c-3.59375,0-7.271,1.37744-8.35742,3.21435Z"/></g><g class="cls-2"><path class="cls-3" d="M181.84766,180.75977H171.15039v-39.584H165.0498V134.2876h6.10059v-4.3169c0-5.78613,1.00293-10.10254,3.00879-12.85791,2.59033-3.582,6.68555-5.41845,12.20117-5.41845,3.59375,0,6.10108.55078,7.52149,1.74462v6.06153a10.77915,10.77915,0,0,0-5.01416-1.10205c-2.59082,0-4.4292.73486-5.34864,2.20459-1.08642,1.65283-1.67138,4.59179-1.67138,8.72509v4.95948h8.35742v6.88818h-8.35742Z"/></g><g class="cls-2"><path class="cls-3" d="M217.70264,180.75977v-4.86719c-2.50733,3.94922-6.35157,5.87695-11.6167,5.87695-8.60791,0-13.45508-5.60156-13.45508-14.32715,0-9.55176,5.8501-13.31738,20.4751-13.31738,1.92236,0,3.34326.0918,4.2622.18359v-4.4082c0-3.58154-.66845-6.06152-1.92187-7.439-1.4209-1.56153-3.76074-2.2959-6.93652-2.2959a19.97433,19.97433,0,0,0-11.86719,3.67334v-5.602c3.34277-3.30664,9.35986-5.23536,14.95947-5.23536,6.01709,0,10.2793,1.37793,12.87012,4.2251,2.42334,2.47949,3.59326,6.88819,3.59326,13.2251v30.30811Zm-.33448-21.39942h-3.17578c-8.60791,0-11.36572,2.47949-11.36572,7.71485,0,5.05175,2.34033,7.99023,6.686,7.99023a11.08259,11.08259,0,0,0,7.85546-3.03027Z"/></g><g class="cls-2"><path class="cls-3" d="M234.67188,180.75977l14.792-23.41993L235.6748,134.2876h12.87012c4.67969,7.99023,7.68848,13.2251,8.9419,15.61279l9.27685-15.61279h8.94141l-14.20654,21.58349L276.625,180.75977H263.58789l-10.02881-16.89844c-.83594,1.56055-4.17871,7.16308-10.02881,16.89844Z"/></g></g><g class="cls-2"><path class="cls-1" d="M319.1709,180.75977V115.919h11.61621c8.94238,25.99121,14.542,42.89062,16.88184,50.51269,2.08886-7.43848,7.60449-24.2456,16.37988-50.51269H375.582v64.84082h-8.35742c.084-27.09375.167-46.38038.334-57.67725q-4.13671,13.77612-17.88379,54.646h-6.60253l-17.96778-54.646c0,14.05176,0,33.33936.083,57.67725Z"/><path class="cls-1" d="M419.792,177.72852c-3.76074,2.84765-8.35644,4.2246-13.95605,4.2246-13.45508,0-20.14063-8.17382-20.14063-24.52148,0-15.52148,7.27051-24.24658,19.05371-24.24658,11.78418,0,16.38086,6.88818,16.38086,21.21533,0,1.5625,0,2.66406-.084,3.49023H393.96875c.083,12.21485,4.59668,18.27735,13.70605,18.27735a21.11143,21.11143,0,0,0,12.11719-3.67383Zm-6.60156-24.70508a23.95011,23.95011,0,0,0,.083-2.66358c0-8.26562-2.92481-12.39892-8.8584-12.39892-5.59961,0-10.11231,3.94922-10.36328,15.0625Z"/><path class="cls-1" d="M456.98242,180.75977v-5.14258c-2.6748,4.13281-6.93652,6.15234-12.78613,6.15234-10.11231,0-17.04883-8.082-17.04883-23.60351,0-18.91895,10.2793-24.88868,19.1377-24.88868,4.76367,0,8.19043,1.102,10.27929,3.39795V112.24512h8.02344v68.51465Zm-.418-39.67579c-1.92187-1.56152-4.59668-2.29638-8.10644-2.29638-8.27344,0-13.03711,5.05127-13.03711,19.01123,0,11.84765,3.92773,17.81836,11.7832,17.81836a14.321,14.321,0,0,0,9.36035-3.21485Z"/><path class="cls-1" d="M481.46973,125.37842c-2.67481,0-4.76368-2.11231-4.76368-5.41846,0-3.582,2.25586-5.60254,4.84668-5.60254,2.67481,0,4.76368,1.92871,4.76368,5.51074C486.31641,123.26611,484.06055,125.37842,481.46973,125.37842Zm4.01074,55.38135H477.541V134.37939h7.93945Z"/><path class="cls-1" d="M520.665,180.75977v-5.23438c-2.08984,3.67285-6.68555,6.24414-12.03418,6.24414-8.6084,0-13.53906-5.60156-13.53906-14.14258,0-9.09375,5.51562-13.13476,20.47558-13.13476,2.25586,0,3.84375.09179,4.93067.18359v-4.959c0-3.85742-.66895-6.52051-1.92285-7.99024-1.5879-1.74511-4.01075-2.57129-7.35352-2.57129a20.34487,20.34487,0,0,0-12.20215,3.76514v-4.68359c3.42676-3.39844,8.19043-5.05176,14.124-5.05176,5.76661,0,9.77833,1.37793,12.03418,4.0415,2.25684,2.47949,3.34278,6.61231,3.34278,12.49024v31.043Zm-.167-21.76661H516.7373c-10.61425,0-13.79,2.75489-13.79,8.35743,0,5.51074,2.92578,8.81738,7.68945,8.81738a13.8423,13.8423,0,0,0,9.86133-4.041Z"/></g></g></svg>