<?xml version="1.0" encoding="UTF-8" standalone="no"?>
<svg
   xmlns:dc="http://purl.org/dc/elements/1.1/"
   xmlns:cc="http://creativecommons.org/ns#"
   xmlns:rdf="http://www.w3.org/1999/02/22-rdf-syntax-ns#"
   xmlns:svg="http://www.w3.org/2000/svg"
   xmlns="http://www.w3.org/2000/svg"
   viewBox="0 0 1066.6667 305.53467"
   height="305.53467"
   width="1066.6667"
   xml:space="preserve"
   id="svg2"
   version="1.1"><metadata
     id="metadata8"><rdf:RDF><cc:Work
         rdf:about=""><dc:format>image/svg+xml</dc:format><dc:type
           rdf:resource="http://purl.org/dc/dcmitype/StillImage" /></cc:Work></rdf:RDF></metadata><defs
     id="defs6"><clipPath
       id="clipPath24"
       clipPathUnits="userSpaceOnUse"><path
         id="path22"
         d="m 288.909,154.616 h -27.66 v -19.075 h 26.683 l -0.12,-11.26 H 261.249 V 86.493 h -11.98 v 79.381 h 39.64 z" /></clipPath><linearGradient
       id="linearGradient44"
       spreadMethod="pad"
       gradientTransform="matrix(-3.5e-6,79.380859,79.380859,3.5e-6,269.08887,86.493164)"
       gradientUnits="userSpaceOnUse"
       y2="0"
       x2="1"
       y1="0"
       x1="0"><stop
         id="stop30"
         offset="0"
         style="stop-opacity:1;stop-color:#0f72ba" /><stop
         id="stop32"
         offset="0.19315449"
         style="stop-opacity:1;stop-color:#0f72ba" /><stop
         id="stop34"
         offset="0.488421"
         style="stop-opacity:1;stop-color:#1b5fac" /><stop
         id="stop36"
         offset="0.52993371"
         style="stop-opacity:1;stop-color:#1b5fac" /><stop
         id="stop38"
         offset="0.760483"
         style="stop-opacity:1;stop-color:#204b9f" /><stop
         id="stop40"
         offset="0.76469958"
         style="stop-opacity:1;stop-color:#204b9f" /><stop
         id="stop42"
         offset="1"
         style="stop-opacity:1;stop-color:#2e3690" /></linearGradient><clipPath
       id="clipPath54"
       clipPathUnits="userSpaceOnUse"><path
         id="path52"
         d="m 433.633,117.034 -11.773,26.988 -12.338,-26.988 z m 4.887,-11.262 h -33.985 l -8.844,-19.279 h -12.903 l 39.281,84.369 37.891,-84.369 h -13.109 z" /></clipPath><linearGradient
       id="linearGradient74"
       spreadMethod="pad"
       gradientTransform="matrix(-3.7e-6,84.369141,84.369141,3.7e-6,421.37402,86.493164)"
       gradientUnits="userSpaceOnUse"
       y2="0"
       x2="1"
       y1="0"
       x1="0"><stop
         id="stop60"
         offset="0"
         style="stop-opacity:1;stop-color:#0f72ba" /><stop
         id="stop62"
         offset="0.19315449"
         style="stop-opacity:1;stop-color:#0f72ba" /><stop
         id="stop64"
         offset="0.488421"
         style="stop-opacity:1;stop-color:#1b5fac" /><stop
         id="stop66"
         offset="0.52993371"
         style="stop-opacity:1;stop-color:#1b5fac" /><stop
         id="stop68"
         offset="0.760483"
         style="stop-opacity:1;stop-color:#204b9f" /><stop
         id="stop70"
         offset="0.76469958"
         style="stop-opacity:1;stop-color:#204b9f" /><stop
         id="stop72"
         offset="1"
         style="stop-opacity:1;stop-color:#2e3690" /></linearGradient><clipPath
       id="clipPath84"
       clipPathUnits="userSpaceOnUse"><path
         id="path82"
         d="m 561.842,86.493 h -11.98 v 79.381 h 11.98 z" /></clipPath><linearGradient
       id="linearGradient104"
       spreadMethod="pad"
       gradientTransform="matrix(-3.5e-6,79.380859,79.380859,3.5e-6,555.85156,86.493164)"
       gradientUnits="userSpaceOnUse"
       y2="0"
       x2="1"
       y1="0"
       x1="0"><stop
         id="stop90"
         offset="0"
         style="stop-opacity:1;stop-color:#0f72ba" /><stop
         id="stop92"
         offset="0.19315449"
         style="stop-opacity:1;stop-color:#0f72ba" /><stop
         id="stop94"
         offset="0.488421"
         style="stop-opacity:1;stop-color:#1b5fac" /><stop
         id="stop96"
         offset="0.52993371"
         style="stop-opacity:1;stop-color:#1b5fac" /><stop
         id="stop98"
         offset="0.760483"
         style="stop-opacity:1;stop-color:#204b9f" /><stop
         id="stop100"
         offset="0.76469958"
         style="stop-opacity:1;stop-color:#204b9f" /><stop
         id="stop102"
         offset="1"
         style="stop-opacity:1;stop-color:#2e3690" /></linearGradient><clipPath
       id="clipPath114"
       clipPathUnits="userSpaceOnUse"><path
         id="path112"
         d="m 660.894,165.874 v -79.38 h 11.978 v 32.491 h 2.159 l 22.673,-32.491 h 14.653 l -24.573,33.832 c 5.274,1.127 9.524,3.716 12.748,7.76 v 0 c 3.22,4.042 4.83,8.877 4.83,14.495 v 0 c 0,7.198 -2.57,12.993 -7.71,17.383 v 0 c -4.662,3.939 -12.236,5.91 -22.724,5.91 v 0 z m 11.978,-11.258 h 4.266 c 11.037,0 16.555,-4.064 16.555,-12.186 v 0 c 0,-8.674 -5.672,-13.007 -17.015,-13.007 v 0 h -3.806 z" /></clipPath><linearGradient
       id="linearGradient134"
       spreadMethod="pad"
       gradientTransform="matrix(-3.5e-6,79.380859,79.380859,3.5e-6,686.62598,86.493164)"
       gradientUnits="userSpaceOnUse"
       y2="0"
       x2="1"
       y1="0"
       x1="0"><stop
         id="stop120"
         offset="0"
         style="stop-opacity:1;stop-color:#0f72ba" /><stop
         id="stop122"
         offset="0.19315449"
         style="stop-opacity:1;stop-color:#0f72ba" /><stop
         id="stop124"
         offset="0.488421"
         style="stop-opacity:1;stop-color:#1b5fac" /><stop
         id="stop126"
         offset="0.52993371"
         style="stop-opacity:1;stop-color:#1b5fac" /><stop
         id="stop128"
         offset="0.760483"
         style="stop-opacity:1;stop-color:#204b9f" /><stop
         id="stop130"
         offset="0.76469958"
         style="stop-opacity:1;stop-color:#204b9f" /><stop
         id="stop132"
         offset="1"
         style="stop-opacity:1;stop-color:#2e3690" /></linearGradient><clipPath
       id="clipPath148"
       clipPathUnits="userSpaceOnUse"><path
         id="path146"
         d="M 0,229.151 H 800 V 0 H 0 Z" /></clipPath></defs><g
     transform="matrix(1.3333333,0,0,-1.3333333,0,305.53467)"
     id="g10"><path
       id="path12"
       style="fill:#989898;fill-opacity:1;fill-rule:nonzero;stroke:none"
       d="m 336.604,177.855 h 2.326 V 78.831 h -2.326 z" /><path
       id="path14"
       style="fill:#989898;fill-opacity:1;fill-rule:nonzero;stroke:none"
       d="m 498.446,177.855 h 2.329 V 78.831 h -2.329 z" /><path
       id="path16"
       style="fill:#989898;fill-opacity:1;fill-rule:nonzero;stroke:none"
       d="m 615.441,177.855 h 2.329 V 78.831 h -2.329 z" /><g
       id="g18"><g
         clip-path="url(#clipPath24)"
         id="g20"><g
           id="g26"><g
             id="g28"><path
               id="path46"
               style="fill:url(#linearGradient44);stroke:none"
               d="m 288.909,154.616 h -27.66 v -19.075 h 26.683 l -0.12,-11.26 H 261.249 V 86.493 h -11.98 v 79.381 h 39.64 z" /></g></g></g></g><g
       id="g48"><g
         clip-path="url(#clipPath54)"
         id="g50"><g
           id="g56"><g
             id="g58"><path
               id="path76"
               style="fill:url(#linearGradient74);stroke:none"
               d="m 433.633,117.034 -11.773,26.988 -12.338,-26.988 z m 4.887,-11.262 h -33.985 l -8.844,-19.279 h -12.903 l 39.281,84.369 37.891,-84.369 h -13.109 z" /></g></g></g></g><g
       id="g78"><g
         clip-path="url(#clipPath84)"
         id="g80"><g
           id="g86"><g
             id="g88"><path
               id="path106"
               style="fill:url(#linearGradient104);stroke:none"
               d="m 561.842,86.493 h -11.98 v 79.381 h 11.98 z" /></g></g></g></g><g
       id="g108"><g
         clip-path="url(#clipPath114)"
         id="g110"><g
           id="g116"><g
             id="g118"><path
               id="path136"
               style="fill:url(#linearGradient134);stroke:none"
               d="m 660.894,165.874 v -79.38 h 11.978 v 32.491 h 2.159 l 22.673,-32.491 h 14.653 l -24.573,33.832 c 5.274,1.127 9.524,3.716 12.748,7.76 v 0 c 3.22,4.042 4.83,8.877 4.83,14.495 v 0 c 0,7.198 -2.57,12.993 -7.71,17.383 v 0 c -4.662,3.939 -12.236,5.91 -22.724,5.91 v 0 z m 11.978,-11.258 h 4.266 c 11.037,0 16.555,-4.064 16.555,-12.186 v 0 c 0,-8.674 -5.672,-13.007 -17.015,-13.007 v 0 h -3.806 z" /></g></g></g></g><text
       id="text140"
       style="font-variant:normal;font-weight:500;font-stretch:normal;font-size:28.68219948px;font-family:Futura;-inkscape-font-specification:Futura-Medium;writing-mode:lr-tb;fill:#4e4e4e;fill-opacity:1;fill-rule:nonzero;stroke:none"
       transform="matrix(1,0,0,-1,247.32788,35.0576)"><tspan
         id="tspan138"
         y="0"
         x="0 31.429955 68.544724 104.22538 132.41998 165.089 187.87701 213.17471 233.10884 269.02182 304.64511 324.9808 360.6041 388.85605 425.97083 458.63986">CONSULTING GROUP</tspan></text>
<g
       id="g142"><g
         clip-path="url(#clipPath148)"
         id="g144"><g
           transform="translate(756.6709,179.6885)"
           id="g150"><path
             id="path152"
             style="fill:#4d4f4f;fill-opacity:1;fill-rule:nonzero;stroke:none"
             d="M 0,0 C 0,-0.155 -0.008,-0.283 -0.02,-0.398 -0.036,-0.51 -0.06,-0.6 -0.099,-0.668 -0.136,-0.732 -0.178,-0.783 -0.232,-0.817 -0.28,-0.848 -0.339,-0.862 -0.403,-0.862 h -4.358 v -13.437 c 0,-0.061 -0.019,-0.119 -0.049,-0.162 -0.03,-0.053 -0.086,-0.09 -0.168,-0.115 -0.079,-0.031 -0.185,-0.055 -0.312,-0.074 -0.137,-0.019 -0.303,-0.034 -0.5,-0.034 -0.193,0 -0.356,0.015 -0.49,0.034 -0.141,0.019 -0.244,0.043 -0.325,0.074 -0.08,0.025 -0.135,0.062 -0.167,0.115 -0.032,0.043 -0.048,0.101 -0.048,0.162 v 13.437 h -4.361 c -0.06,0 -0.119,0.014 -0.173,0.045 -0.055,0.034 -0.09,0.085 -0.125,0.149 -0.029,0.068 -0.054,0.158 -0.077,0.27 -0.018,0.115 -0.029,0.243 -0.029,0.398 0,0.148 0.011,0.281 0.029,0.397 0.023,0.119 0.048,0.211 0.077,0.283 0.035,0.071 0.07,0.125 0.125,0.155 0.054,0.032 0.113,0.049 0.173,0.049 h 10.778 c 0.064,0 0.123,-0.017 0.171,-0.049 C -0.178,0.805 -0.136,0.751 -0.099,0.68 -0.06,0.608 -0.036,0.516 -0.02,0.397 -0.008,0.281 0,0.148 0,0" /></g><g
           transform="translate(775.7549,165.3896)"
           id="g154"><path
             id="path156"
             style="fill:#4d4f4f;fill-opacity:1;fill-rule:nonzero;stroke:none"
             d="m 0,0 c 0,-0.062 -0.017,-0.119 -0.051,-0.162 -0.031,-0.053 -0.089,-0.09 -0.17,-0.115 -0.082,-0.032 -0.188,-0.055 -0.314,-0.075 -0.128,-0.018 -0.296,-0.033 -0.499,-0.033 -0.19,0 -0.351,0.015 -0.487,0.033 -0.136,0.02 -0.242,0.043 -0.323,0.075 -0.078,0.025 -0.133,0.062 -0.163,0.115 -0.033,0.043 -0.05,0.1 -0.05,0.162 V 13.491 H -2.086 L -7.54,-0.06 c -0.025,-0.053 -0.061,-0.102 -0.105,-0.141 -0.043,-0.043 -0.105,-0.073 -0.19,-0.101 -0.083,-0.03 -0.182,-0.05 -0.298,-0.061 -0.115,-0.013 -0.254,-0.022 -0.411,-0.022 -0.168,0 -0.311,0.013 -0.435,0.027 -0.115,0.015 -0.217,0.041 -0.295,0.066 -0.083,0.027 -0.144,0.063 -0.188,0.104 -0.043,0.042 -0.072,0.081 -0.091,0.128 l -5.218,13.551 h -0.017 V 0 c 0,-0.062 -0.016,-0.119 -0.043,-0.162 -0.035,-0.053 -0.093,-0.09 -0.174,-0.115 -0.084,-0.032 -0.191,-0.055 -0.324,-0.075 -0.127,-0.018 -0.301,-0.033 -0.502,-0.033 -0.199,0 -0.365,0.015 -0.493,0.033 -0.131,0.02 -0.239,0.043 -0.316,0.075 -0.077,0.025 -0.131,0.062 -0.158,0.115 -0.033,0.043 -0.045,0.1 -0.045,0.162 v 14.249 c 0,0.336 0.09,0.575 0.268,0.716 0.178,0.141 0.378,0.218 0.593,0.218 h 1.267 c 0.257,0 0.486,-0.027 0.684,-0.077 0.193,-0.043 0.359,-0.119 0.506,-0.223 0.148,-0.105 0.266,-0.237 0.366,-0.396 0.093,-0.159 0.182,-0.344 0.254,-0.562 L -8.473,2.706 h 0.055 l 4.613,11.185 c 0.089,0.238 0.187,0.44 0.292,0.61 0.103,0.166 0.22,0.299 0.342,0.399 0.127,0.099 0.268,0.174 0.427,0.217 0.15,0.039 0.328,0.066 0.534,0.066 h 1.324 c 0.122,0 0.239,-0.018 0.348,-0.055 0.107,-0.037 0.201,-0.09 0.277,-0.167 0.08,-0.078 0.14,-0.172 0.19,-0.29 C -0.022,14.556 0,14.415 0,14.249 Z" /></g><g
           transform="translate(171.2627,58.0439)"
           id="g158"><path
             id="path160"
             style="fill:#67a9d7;fill-opacity:1;fill-rule:evenodd;stroke:none"
             d="M 0,0 C -1.374,1.134 -2.881,1.985 -4.451,2.594 8.99,17.273 14.264,38.972 6.476,56.721 8.225,34.182 0.661,17.599 -18.128,7.639 -37.146,-2.442 -55.061,2.011 -71.387,14.438 c -1.685,-2.044 -3.27,-3.971 -4.795,-5.824 -1.964,-2.38 -3.826,-4.64 -5.67,-6.877 12.467,-15.327 35.535,-20.319 55.48,-13.492 -0.207,-4.884 1.785,-9.806 5.848,-13.144 6.871,-5.664 17.039,-4.706 22.71,2.189 C 7.853,-15.841 6.881,-5.668 0,0" /></g><g
           transform="translate(84.3857,176.4775)"
           id="g162"><path
             id="path164"
             style="fill:#1b5fac;fill-opacity:1;fill-rule:evenodd;stroke:none"
             d="m 0,0 c 2.244,6.236 0.502,13.469 -4.904,17.922 -6.871,5.666 -17.038,4.687 -22.715,-2.196 -5.664,-6.872 -4.687,-17.053 2.188,-22.706 0.74,-0.61 1.521,-1.125 2.326,-1.58 -20.323,-13.546 -30.115,-40.913 -20.66,-62.468 -1.756,22.531 5.813,39.116 24.605,49.079 19.015,10.08 36.928,5.623 53.252,-6.801 3.852,4.675 7.195,8.731 10.47,12.699 C 34.321,-3.465 16.936,2.16 0,0" /></g><g
           transform="translate(194.3662,164.2646)"
           id="g166"><path
             id="path168"
             style="fill:#348dc9;fill-opacity:1;fill-rule:evenodd;stroke:none"
             d="m 0,0 c -6.872,5.666 -17.037,4.698 -22.702,-2.189 -1.585,-1.923 -2.631,-4.103 -3.194,-6.365 -0.213,0.377 -0.396,0.775 -0.621,1.15 -13.021,21.71 -41.546,32.455 -63.809,22.681 22.531,1.753 39.122,-5.809 49.082,-24.605 10.082,-19.015 5.629,-36.928 -6.796,-53.252 4.672,-3.857 8.728,-7.195 12.692,-10.465 13.348,10.848 18.869,29.735 15.578,47.607 6.864,-5.039 16.5,-3.918 21.97,2.728 C 7.88,-15.83 6.89,-5.68 0,0" /></g><g
           transform="translate(64.2744,67.0352)"
           id="g170"><path
             id="path172"
             style="fill:#204b9f;fill-opacity:1;fill-rule:evenodd;stroke:none"
             d="M 0,0 C -10.083,19.012 -5.626,36.926 6.798,53.245 2.124,57.102 -1.931,60.446 -5.898,63.717 -19.74,52.459 -25.15,32.553 -21.052,14.115 c -6.24,2.271 -13.496,0.53 -17.97,-4.892 -5.664,-6.854 -4.686,-17.038 2.193,-22.713 6.875,-5.651 17.039,-4.683 22.705,2.19 1.177,1.424 2.049,2.992 2.657,4.632 C 2.626,-25.13 28.514,-33.634 49.082,-24.608 26.549,-26.373 9.959,-18.8 0,0" /></g></g></g></g></svg>