<svg id="svg" version="1.1" xmlns="http://www.w3.org/2000/svg" xmlns:xlink="http://www.w3.org/1999/xlink" width="400" height="76.26459143968872" viewBox="0, 0, 400,76.26459143968872"><g id="svgg"><path id="path0" d="M97.385 11.305 C 97.148 11.542,97.123 62.346,97.360 62.582 C 97.491 62.714,108.194 62.695,108.326 62.563 C 108.376 62.513,108.436 57.922,108.459 52.361 C 108.501 42.264,108.501 42.250,108.857 41.955 C 109.184 41.683,109.720 41.660,115.560 41.671 C 121.518 41.681,121.914 41.664,122.025 41.383 C 122.216 40.898,122.189 33.686,121.994 33.322 C 121.828 33.012,121.579 33.000,115.494 33.000 C 109.389 33.000,109.155 32.988,108.833 32.667 C 108.341 32.174,108.311 20.723,108.801 20.280 C 109.073 20.033,110.403 20.003,122.787 19.962 C 130.314 19.937,136.535 19.854,136.611 19.778 C 136.861 19.528,136.882 11.341,136.633 11.249 C 136.049 11.032,97.603 11.087,97.385 11.305 M151.715 11.122 L 146.514 11.171 146.417 11.711 C 146.299 12.371,146.382 62.438,146.502 62.558 C 146.549 62.605,149.099 62.660,152.169 62.680 L 157.750 62.717 157.750 36.900 L 157.750 11.083 157.333 11.078 C 157.104 11.074,154.576 11.094,151.715 11.122 M172.054 11.304 C 171.826 11.532,171.710 61.439,171.935 62.280 C 172.071 62.787,170.590 62.754,191.128 62.707 L 209.839 62.664 209.794 58.374 L 209.750 54.083 196.726 54.000 C 184.215 53.920,183.688 53.904,183.351 53.599 L 183.000 53.282 183.000 32.224 C 183.000 15.493,182.957 11.165,182.792 11.161 C 178.545 11.035,172.238 11.119,172.054 11.304 M218.815 11.178 C 218.558 11.337,218.617 62.363,218.874 62.576 C 219.018 62.696,225.538 62.724,239.750 62.667 L 260.417 62.583 260.417 58.333 L 260.417 54.083 245.528 54.000 C 231.033 53.919,230.633 53.908,230.403 53.593 C 230.118 53.203,230.051 42.825,230.329 42.094 L 230.492 41.667 238.819 41.667 C 245.298 41.667,247.177 41.620,247.282 41.458 C 247.491 41.135,247.551 33.989,247.349 33.457 L 247.175 33.000 238.930 33.000 L 230.686 33.000 230.426 32.630 C 230.151 32.236,230.053 21.446,230.316 20.500 L 230.432 20.083 244.889 20.000 C 257.497 19.927,259.366 19.885,259.504 19.667 C 259.592 19.527,259.663 17.599,259.664 15.292 L 259.667 11.167 259.292 11.165 C 245.085 11.101,218.926 11.109,218.815 11.178 M276.464 11.134 C 276.008 11.222,276.005 11.401,276.002 37.377 C 276.000 63.277,275.988 63.887,275.417 66.436 C 275.115 67.785,273.332 68.700,270.768 68.822 C 268.407 68.935,268.378 68.964,268.844 70.752 C 269.010 71.392,269.194 72.517,269.251 73.250 C 269.413 75.335,269.395 75.297,270.264 75.428 C 272.225 75.722,280.319 74.800,281.043 74.201 C 281.157 74.106,281.775 73.751,282.417 73.411 C 284.788 72.154,286.349 70.182,287.031 67.583 C 287.266 66.690,287.372 11.483,287.139 11.251 C 287.032 11.143,276.989 11.033,276.464 11.134 M302.833 11.156 C 302.613 11.302,302.583 14.350,302.583 36.917 C 302.583 64.168,302.551 63.025,303.305 62.748 C 303.427 62.703,312.746 62.667,324.014 62.667 L 344.500 62.667 344.500 58.597 C 344.500 56.359,344.454 54.409,344.399 54.264 C 344.308 54.026,342.840 54.000,329.503 54.000 C 316.843 54.000,314.679 53.965,314.509 53.761 C 314.297 53.505,314.209 42.170,314.416 41.835 C 314.483 41.725,317.418 41.667,322.837 41.667 C 330.890 41.667,331.160 41.656,331.327 41.344 C 331.512 40.999,331.571 34.032,331.395 33.375 L 331.294 33.000 323.001 33.000 C 316.190 33.000,314.674 32.959,314.518 32.772 C 314.383 32.609,314.342 30.774,314.373 26.314 L 314.417 20.083 328.833 20.000 C 336.762 19.954,343.344 19.856,343.458 19.782 C 343.616 19.680,343.667 18.616,343.667 15.407 L 343.667 11.167 323.854 11.167 C 312.957 11.167,303.826 11.127,303.563 11.079 C 303.299 11.030,302.971 11.065,302.833 11.156 M351.187 11.333 C 351.042 11.683,351.057 19.352,351.203 19.708 C 351.315 19.981,351.904 20.000,360.235 20.000 L 369.148 20.000 369.407 20.370 C 369.639 20.701,369.667 22.992,369.667 41.611 C 369.667 55.778,369.722 62.514,369.839 62.587 C 370.180 62.798,380.729 62.669,380.867 62.452 C 380.937 62.341,380.996 52.889,380.997 41.447 C 380.999 27.431,381.056 20.540,381.173 20.322 C 381.340 20.010,381.615 20.000,390.155 20.000 C 398.388 20.000,398.972 19.981,399.084 19.708 C 399.241 19.325,399.184 11.263,399.023 11.205 C 398.417 10.987,351.278 11.113,351.187 11.333 " stroke="none" fill="#344f78" fill-rule="evenodd"></path><path id="path1" d="M0.000 0.833 C 0.000 1.735,0.242 1.927,0.506 1.235 C 0.598 0.993,0.889 0.720,1.168 0.615 C 1.965 0.314,1.793 0.000,0.833 0.000 L 0.000 0.000 0.000 0.833 M72.833 0.250 C 72.833 0.388,72.912 0.500,73.008 0.500 C 73.103 0.500,73.366 0.684,73.591 0.909 L 74.000 1.318 74.000 37.043 L 74.000 72.768 73.450 73.301 L 72.901 73.833 37.277 73.833 L 1.653 73.833 1.142 73.458 C 0.860 73.252,0.565 72.915,0.486 72.708 C 0.161 71.863,0.000 72.372,0.000 74.250 L 0.000 76.167 134.603 76.167 L 269.206 76.167 269.093 75.792 C 269.031 75.585,268.913 74.929,268.831 74.333 C 268.750 73.737,268.604 72.932,268.508 72.543 C 268.234 71.440,268.208 68.769,268.468 68.456 C 268.643 68.245,269.133 68.181,270.914 68.138 C 272.954 68.088,273.174 68.052,273.539 67.708 C 273.759 67.502,274.018 67.333,274.116 67.333 C 274.213 67.333,274.389 67.102,274.506 66.819 C 274.623 66.536,274.838 66.185,274.984 66.039 C 275.225 65.799,275.258 63.151,275.333 38.381 C 275.407 14.274,275.447 10.969,275.667 10.830 C 276.003 10.617,287.014 10.617,287.572 10.829 L 288.000 10.992 287.990 38.454 C 287.985 53.559,287.916 66.254,287.838 66.667 C 287.586 68.001,287.181 69.244,286.943 69.418 C 286.815 69.512,286.657 69.831,286.592 70.129 C 286.526 70.426,286.329 70.746,286.153 70.841 C 285.977 70.935,285.833 71.100,285.833 71.207 C 285.833 71.625,283.063 73.989,282.564 73.997 C 282.462 73.999,282.191 74.147,281.962 74.328 C 281.733 74.508,281.193 74.734,280.762 74.831 C 280.331 74.927,279.815 75.110,279.614 75.237 C 279.414 75.365,278.612 75.517,277.833 75.576 C 276.068 75.711,275.500 75.817,275.500 76.013 C 275.500 76.106,299.943 76.167,337.750 76.167 L 400.000 76.167 400.000 48.147 L 400.000 20.128 399.625 20.268 C 399.419 20.346,395.303 20.431,390.479 20.457 L 381.707 20.506 381.604 21.024 C 381.547 21.309,381.500 30.823,381.500 42.167 C 381.500 61.147,381.478 62.811,381.224 63.021 C 380.750 63.415,369.614 63.352,369.214 62.952 C 368.933 62.671,368.912 61.530,368.833 41.619 L 368.750 20.583 359.869 20.500 C 352.218 20.428,350.966 20.382,350.830 20.167 C 350.560 19.740,350.621 11.078,350.895 10.851 C 351.065 10.711,357.472 10.673,375.562 10.706 L 400.000 10.750 400.000 5.375 L 400.000 0.000 236.417 0.000 C 91.120 0.000,72.833 0.028,72.833 0.250 M136.967 10.867 C 137.303 11.203,137.246 19.897,136.905 20.238 C 136.671 20.472,135.172 20.500,122.905 20.500 L 109.167 20.500 109.167 26.417 L 109.167 32.333 115.375 32.336 C 123.653 32.339,122.833 31.802,122.833 37.217 C 122.833 42.877,123.561 42.377,115.417 42.310 L 109.250 42.260 109.167 52.538 C 109.101 60.656,109.038 62.862,108.867 63.033 C 108.519 63.381,97.919 63.443,97.102 63.102 L 96.500 62.850 96.500 36.920 L 96.500 10.989 96.875 10.839 C 97.484 10.594,136.721 10.621,136.967 10.867 M158.126 36.816 C 158.156 55.942,158.118 62.941,157.980 63.107 C 157.630 63.529,146.596 63.429,146.167 63.000 C 145.701 62.534,145.633 11.391,146.097 10.926 C 146.330 10.694,147.058 10.668,152.222 10.706 L 158.083 10.750 158.126 36.816 M183.483 10.958 L 183.837 11.250 183.877 32.333 L 183.917 53.417 196.901 53.459 C 206.156 53.490,209.949 53.555,210.109 53.688 C 210.471 53.988,210.433 62.710,210.069 63.074 C 209.696 63.447,171.893 63.395,171.442 63.021 C 171.003 62.657,171.019 11.103,171.458 10.847 C 172.030 10.514,183.068 10.616,183.483 10.958 M259.994 10.989 C 260.298 11.557,260.221 19.682,259.907 20.130 L 259.648 20.500 245.157 20.500 L 230.667 20.500 230.667 26.417 L 230.667 32.333 238.880 32.333 C 246.043 32.333,247.140 32.366,247.463 32.593 C 247.955 32.937,248.054 41.422,247.571 41.905 C 247.340 42.136,246.331 42.167,238.988 42.167 L 230.667 42.167 230.667 47.729 L 230.667 53.292 231.188 53.396 C 231.474 53.453,238.180 53.500,246.091 53.500 C 254.001 53.500,260.591 53.546,260.736 53.601 C 261.224 53.788,261.124 62.728,260.630 63.074 C 260.299 63.305,258.032 63.333,239.640 63.333 C 219.095 63.333,218.302 63.313,217.964 62.781 C 217.802 62.526,217.799 11.310,217.961 11.067 C 218.203 10.705,218.852 10.693,239.202 10.680 C 259.424 10.667,259.825 10.673,259.994 10.989 M343.967 10.867 C 344.303 11.203,344.246 19.897,343.905 20.238 C 343.671 20.472,342.104 20.500,329.155 20.500 L 314.667 20.500 314.667 26.412 L 314.667 32.324 323.075 32.371 C 329.703 32.407,331.529 32.463,331.700 32.633 C 332.103 33.037,332.004 41.629,331.593 41.930 C 331.324 42.127,329.874 42.167,322.966 42.167 L 314.662 42.167 314.706 47.792 L 314.750 53.417 329.651 53.459 C 340.323 53.490,344.615 53.555,344.776 53.688 C 345.046 53.912,345.103 62.579,344.837 63.000 C 344.609 63.361,302.543 63.382,302.109 63.021 C 301.816 62.778,301.670 11.503,301.961 11.067 C 302.028 10.966,302.196 10.840,302.333 10.788 C 302.876 10.582,343.759 10.659,343.967 10.867 M14.207 28.291 L 14.250 42.417 19.500 42.417 L 24.750 42.417 24.833 33.900 C 24.901 27.020,24.961 25.331,25.145 25.109 C 25.353 24.859,26.163 24.833,33.739 24.833 C 40.167 24.833,42.169 24.785,42.387 24.625 C 42.647 24.435,42.668 23.964,42.628 19.333 L 42.583 14.250 28.374 14.207 L 14.165 14.165 14.207 28.291 M49.326 14.248 C 49.182 15.873,49.349 24.574,49.527 24.687 C 49.811 24.867,59.511 24.874,59.794 24.694 C 59.958 24.590,59.995 23.419,59.961 19.405 L 59.917 14.250 54.625 14.206 C 51.715 14.182,49.330 14.201,49.326 14.248 M32.033 31.867 C 31.739 32.161,31.749 41.821,32.045 42.225 C 32.274 42.539,42.133 42.589,42.445 42.278 C 42.815 41.907,42.703 32.266,42.324 31.959 C 41.868 31.590,32.395 31.505,32.033 31.867 M14.280 49.275 C 14.140 49.416,14.128 59.372,14.268 59.736 C 14.409 60.105,24.344 60.139,24.649 59.772 C 24.783 59.609,24.825 58.055,24.794 54.397 L 24.750 49.250 19.572 49.206 C 16.724 49.182,14.343 49.213,14.280 49.275 " stroke="none" fill="#fbfbfb" fill-rule="evenodd"></path><path id="path2" d="M97.204 11.093 L 96.833 11.352 96.833 36.900 C 96.833 61.439,96.845 62.459,97.138 62.724 C 97.493 63.045,107.592 63.147,108.406 62.837 L 108.833 62.675 108.833 52.537 C 108.833 44.875,108.882 42.351,109.033 42.200 C 109.182 42.051,110.867 42.000,115.583 42.000 C 120.300 42.000,121.985 41.949,122.133 41.800 C 122.521 41.412,122.407 33.051,122.011 32.839 C 121.805 32.729,119.435 32.667,115.461 32.667 C 110.839 32.667,109.182 32.615,109.033 32.467 C 108.747 32.180,108.747 20.653,109.033 20.367 C 109.186 20.214,112.502 20.167,122.944 20.167 C 136.329 20.167,136.659 20.159,136.827 19.844 C 137.085 19.364,137.060 11.293,136.800 11.033 C 136.458 10.691,97.694 10.749,97.204 11.093 M146.458 11.013 C 146.061 11.245,145.998 62.486,146.395 62.815 C 146.558 62.950,148.241 62.992,152.270 62.961 L 157.917 62.917 157.959 37.101 C 157.990 18.160,157.951 11.225,157.813 11.059 C 157.579 10.776,146.939 10.733,146.458 11.013 M171.875 11.037 L 171.500 11.218 171.500 36.936 C 171.500 62.193,171.506 62.658,171.822 62.827 C 172.540 63.212,209.795 63.051,210.002 62.662 C 210.305 62.097,210.151 54.030,209.833 53.830 C 209.682 53.734,204.532 53.671,196.742 53.669 C 186.979 53.667,183.852 53.619,183.700 53.467 C 183.547 53.313,183.500 48.370,183.500 32.233 L 183.500 11.199 182.975 11.016 C 182.263 10.768,172.394 10.786,171.875 11.037 M218.514 11.125 L 218.158 11.417 218.204 36.972 C 218.249 62.049,218.256 62.531,218.574 62.763 C 219.106 63.153,260.197 63.115,260.521 62.724 C 260.782 62.411,260.866 54.144,260.611 53.889 C 260.535 53.813,253.747 53.712,245.528 53.667 L 230.583 53.583 230.540 47.810 L 230.496 42.037 230.914 41.932 C 231.144 41.874,234.914 41.833,239.291 41.841 L 247.250 41.854 247.456 41.469 C 247.749 40.919,247.745 33.748,247.451 33.167 L 247.240 32.750 238.912 32.667 L 230.583 32.583 230.537 26.750 C 230.511 23.542,230.531 20.748,230.582 20.542 L 230.673 20.167 245.053 20.167 C 256.016 20.167,259.481 20.119,259.633 19.967 C 260.021 19.579,259.907 11.218,259.511 11.006 C 258.867 10.661,218.938 10.777,218.514 11.125 M276.042 11.037 L 275.667 11.218 275.665 37.150 C 275.664 64.280,275.634 65.529,274.954 66.666 C 274.075 68.136,273.221 68.500,270.647 68.500 C 268.285 68.500,268.074 68.861,268.747 71.762 C 268.886 72.361,269.048 73.373,269.107 74.010 C 269.264 75.696,269.317 75.739,271.275 75.745 C 273.134 75.751,277.412 75.409,278.417 75.174 C 280.157 74.768,280.983 74.491,281.763 74.056 C 282.229 73.796,282.866 73.442,283.180 73.268 C 284.369 72.611,286.211 70.630,286.424 69.779 C 286.486 69.532,286.608 69.286,286.695 69.232 C 287.621 68.660,287.667 67.198,287.667 38.064 L 287.667 11.352 287.296 11.093 C 286.838 10.772,276.696 10.721,276.042 11.037 M302.542 11.037 L 302.167 11.218 302.167 36.915 L 302.167 62.613 302.591 62.807 C 303.348 63.151,344.233 63.077,344.579 62.730 C 344.876 62.434,344.905 54.182,344.611 53.889 C 344.535 53.812,337.747 53.712,329.528 53.667 L 314.583 53.583 314.537 48.083 C 314.511 45.058,314.531 42.415,314.582 42.208 L 314.673 41.833 322.970 41.833 C 329.201 41.833,331.316 41.784,331.467 41.633 C 331.757 41.343,331.750 33.342,331.458 32.949 C 331.268 32.692,330.515 32.664,322.917 32.625 L 314.583 32.583 314.540 26.603 C 314.508 22.328,314.550 20.558,314.685 20.395 C 314.842 20.205,317.294 20.167,329.261 20.167 C 340.587 20.167,343.676 20.122,343.782 19.958 C 344.075 19.505,344.044 11.402,343.748 11.105 C 343.411 10.768,303.238 10.701,302.542 11.037 M351.006 11.156 C 350.783 11.571,350.775 19.157,350.996 19.739 L 351.158 20.167 359.821 20.167 C 366.040 20.167,368.604 20.221,368.909 20.360 L 369.333 20.554 369.333 41.501 C 369.333 61.583,369.346 62.460,369.638 62.724 C 370.064 63.110,380.404 63.146,380.926 62.763 C 381.243 62.532,381.251 62.096,381.294 41.570 C 381.325 26.507,381.389 20.550,381.522 20.390 C 381.673 20.209,383.343 20.167,390.404 20.167 C 396.945 20.167,399.150 20.117,399.300 19.967 C 399.688 19.579,399.574 11.218,399.178 11.006 C 398.482 10.634,351.206 10.781,351.006 11.156 M136.633 11.249 C 136.882 11.341,136.861 19.528,136.611 19.778 C 136.535 19.854,130.314 19.937,122.787 19.962 C 110.403 20.003,109.073 20.033,108.801 20.280 C 108.311 20.723,108.341 32.174,108.833 32.667 C 109.155 32.988,109.389 33.000,115.494 33.000 C 121.579 33.000,121.828 33.012,121.994 33.322 C 122.189 33.686,122.216 40.898,122.025 41.383 C 121.914 41.664,121.518 41.681,115.560 41.671 C 109.720 41.660,109.184 41.683,108.857 41.955 C 108.501 42.250,108.501 42.264,108.459 52.361 C 108.436 57.922,108.376 62.513,108.326 62.563 C 108.194 62.695,97.491 62.714,97.360 62.582 C 97.123 62.346,97.148 11.542,97.385 11.305 C 97.603 11.087,136.049 11.032,136.633 11.249 M157.750 36.900 L 157.750 62.717 152.169 62.680 C 149.099 62.660,146.549 62.605,146.502 62.558 C 146.382 62.438,146.299 12.371,146.417 11.711 L 146.514 11.171 151.715 11.122 C 154.576 11.094,157.104 11.074,157.333 11.078 L 157.750 11.083 157.750 36.900 M182.792 11.161 C 182.957 11.165,183.000 15.493,183.000 32.224 L 183.000 53.282 183.351 53.599 C 183.688 53.904,184.215 53.920,196.726 54.000 L 209.750 54.083 209.794 58.374 L 209.839 62.664 191.128 62.707 C 170.590 62.754,172.071 62.787,171.935 62.280 C 171.710 61.439,171.826 11.532,172.054 11.304 C 172.238 11.119,178.545 11.035,182.792 11.161 M259.292 11.165 L 259.667 11.167 259.664 15.292 C 259.663 17.599,259.592 19.527,259.504 19.667 C 259.366 19.885,257.497 19.927,244.889 20.000 L 230.432 20.083 230.316 20.500 C 230.053 21.446,230.151 32.236,230.426 32.630 L 230.686 33.000 238.930 33.000 L 247.175 33.000 247.349 33.457 C 247.551 33.989,247.491 41.135,247.282 41.458 C 247.177 41.620,245.298 41.667,238.819 41.667 L 230.492 41.667 230.329 42.094 C 230.051 42.825,230.118 53.203,230.403 53.593 C 230.633 53.908,231.033 53.919,245.528 54.000 L 260.417 54.083 260.417 58.333 L 260.417 62.583 239.750 62.667 C 225.538 62.724,219.018 62.696,218.874 62.576 C 218.617 62.363,218.558 11.337,218.815 11.178 C 218.926 11.109,245.085 11.101,259.292 11.165 M287.139 11.251 C 287.372 11.483,287.266 66.690,287.031 67.583 C 286.349 70.182,284.788 72.154,282.417 73.411 C 281.775 73.751,281.157 74.106,281.043 74.201 C 280.319 74.800,272.225 75.722,270.264 75.428 C 269.395 75.297,269.413 75.335,269.251 73.250 C 269.194 72.517,269.010 71.392,268.844 70.752 C 268.378 68.964,268.407 68.935,270.768 68.822 C 273.332 68.700,275.115 67.785,275.417 66.436 C 275.988 63.887,276.000 63.277,276.002 37.377 C 276.005 11.401,276.008 11.222,276.464 11.134 C 276.989 11.033,287.032 11.143,287.139 11.251 M323.854 11.167 L 343.667 11.167 343.667 15.407 C 343.667 18.616,343.616 19.680,343.458 19.782 C 343.344 19.856,336.762 19.954,328.833 20.000 L 314.417 20.083 314.373 26.314 C 314.342 30.774,314.383 32.609,314.518 32.772 C 314.674 32.959,316.190 33.000,323.001 33.000 L 331.294 33.000 331.395 33.375 C 331.571 34.032,331.512 40.999,331.327 41.344 C 331.160 41.656,330.890 41.667,322.837 41.667 C 317.418 41.667,314.483 41.725,314.416 41.835 C 314.209 42.170,314.297 53.505,314.509 53.761 C 314.679 53.965,316.843 54.000,329.503 54.000 C 342.840 54.000,344.308 54.026,344.399 54.264 C 344.454 54.409,344.500 56.359,344.500 58.597 L 344.500 62.667 324.014 62.667 C 312.746 62.667,303.427 62.703,303.305 62.748 C 302.551 63.025,302.583 64.168,302.583 36.917 C 302.583 8.821,302.505 10.885,303.563 11.079 C 303.826 11.127,312.957 11.167,323.854 11.167 M399.023 11.205 C 399.184 11.263,399.241 19.325,399.084 19.708 C 398.972 19.981,398.388 20.000,390.155 20.000 C 381.615 20.000,381.340 20.010,381.173 20.322 C 381.056 20.540,380.999 27.431,380.997 41.447 C 380.996 52.889,380.937 62.341,380.867 62.452 C 380.729 62.669,370.180 62.798,369.839 62.587 C 369.722 62.514,369.667 55.778,369.667 41.611 C 369.667 22.992,369.639 20.701,369.407 20.370 L 369.148 20.000 360.235 20.000 C 351.904 20.000,351.315 19.981,351.203 19.708 C 351.057 19.352,351.042 11.683,351.187 11.333 C 351.278 11.113,398.417 10.987,399.023 11.205 " stroke="none" fill="#7c8484" fill-rule="evenodd"></path><path id="path3" d="M1.667 0.238 C 1.667 0.369,1.541 0.500,1.387 0.529 C 1.233 0.559,17.239 0.564,36.955 0.540 L 72.804 0.497 73.319 0.930 L 73.833 1.363 73.833 37.057 L 73.833 72.751 73.348 73.209 L 72.863 73.667 37.302 73.667 C -1.232 73.667,1.408 73.725,0.708 72.860 C 0.594 72.719,0.500 72.683,0.500 72.782 C 0.500 72.880,0.757 73.157,1.072 73.397 L 1.644 73.833 37.290 73.833 L 72.935 73.833 73.467 73.284 L 74.000 72.734 74.000 37.026 L 74.000 1.318 73.591 0.909 C 73.366 0.684,73.103 0.500,73.008 0.500 C 72.912 0.500,72.833 0.388,72.833 0.250 C 72.833 0.029,68.769 0.000,37.250 0.000 C 6.544 0.000,1.667 0.033,1.667 0.238 M0.700 0.867 C 0.590 0.977,0.500 1.167,0.500 1.289 C 0.500 1.411,0.388 1.554,0.250 1.606 C -0.130 1.752,-0.130 72.248,0.250 72.394 C 0.472 72.479,0.500 68.482,0.501 37.036 C 0.502 6.567,0.536 1.519,0.741 1.125 C 1.005 0.618,0.998 0.569,0.700 0.867 M96.875 10.839 L 96.500 10.989 96.500 36.920 L 96.500 62.850 97.102 63.102 C 97.919 63.443,108.519 63.381,108.867 63.033 C 109.038 62.862,109.101 60.656,109.167 52.538 L 109.250 42.260 115.417 42.310 C 123.561 42.377,122.833 42.877,122.833 37.217 C 122.833 31.802,123.653 32.339,115.375 32.336 L 109.167 32.333 109.167 26.417 L 109.167 20.500 122.905 20.500 C 135.172 20.500,136.671 20.472,136.905 20.238 C 137.246 19.897,137.303 11.203,136.967 10.867 C 136.721 10.621,97.484 10.594,96.875 10.839 M146.097 10.926 C 145.633 11.391,145.701 62.534,146.167 63.000 C 146.596 63.429,157.630 63.529,157.980 63.107 C 158.118 62.941,158.156 55.942,158.126 36.816 L 158.083 10.750 152.222 10.706 C 147.058 10.668,146.330 10.694,146.097 10.926 M171.458 10.847 C 171.019 11.103,171.003 62.657,171.442 63.021 C 171.893 63.395,209.696 63.447,210.069 63.074 C 210.433 62.710,210.471 53.988,210.109 53.688 C 209.949 53.555,206.156 53.490,196.901 53.459 L 183.917 53.417 183.877 32.333 L 183.837 11.250 183.483 10.958 C 183.068 10.616,172.030 10.514,171.458 10.847 M218.333 10.788 C 218.196 10.840,218.028 10.966,217.961 11.067 C 217.799 11.310,217.802 62.526,217.964 62.781 C 218.302 63.313,219.095 63.333,239.640 63.333 C 258.032 63.333,260.299 63.305,260.630 63.074 C 261.124 62.728,261.224 53.788,260.736 53.601 C 260.591 53.546,254.001 53.500,246.091 53.500 C 238.180 53.500,231.474 53.453,231.188 53.396 L 230.667 53.292 230.667 47.729 L 230.667 42.167 238.988 42.167 C 246.331 42.167,247.340 42.136,247.571 41.905 C 248.054 41.422,247.955 32.937,247.463 32.593 C 247.140 32.366,246.043 32.333,238.880 32.333 L 230.667 32.333 230.667 26.417 L 230.667 20.500 245.157 20.500 L 259.648 20.500 259.907 20.130 C 260.221 19.682,260.298 11.557,259.994 10.989 C 259.824 10.672,219.154 10.476,218.333 10.788 M275.667 10.830 C 275.447 10.969,275.407 14.274,275.333 38.381 C 275.258 63.151,275.225 65.799,274.984 66.039 C 274.838 66.185,274.623 66.536,274.506 66.819 C 274.389 67.102,274.213 67.333,274.116 67.333 C 274.018 67.333,273.759 67.502,273.539 67.708 C 273.174 68.052,272.954 68.088,270.914 68.138 C 269.133 68.181,268.643 68.245,268.468 68.456 C 268.177 68.807,268.250 71.581,268.584 72.887 C 268.721 73.422,268.833 74.089,268.833 74.369 C 268.833 74.649,268.920 75.168,269.026 75.522 L 269.219 76.167 272.346 76.167 C 274.479 76.167,275.492 76.108,275.534 75.983 C 275.568 75.878,276.429 75.715,277.523 75.606 C 278.584 75.501,279.560 75.325,279.691 75.216 C 279.823 75.106,280.294 74.936,280.738 74.836 C 281.182 74.736,281.733 74.508,281.962 74.328 C 282.191 74.147,282.462 73.999,282.564 73.997 C 283.063 73.989,285.833 71.625,285.833 71.207 C 285.833 71.100,285.977 70.935,286.153 70.841 C 286.329 70.746,286.526 70.426,286.592 70.129 C 286.657 69.831,286.815 69.512,286.943 69.418 C 287.181 69.244,287.586 68.001,287.838 66.667 C 287.916 66.254,287.985 53.559,287.990 38.454 L 288.000 10.992 287.572 10.829 C 287.014 10.617,276.003 10.617,275.667 10.830 M302.333 10.788 C 302.196 10.840,302.028 10.966,301.961 11.067 C 301.670 11.503,301.816 62.778,302.109 63.021 C 302.543 63.382,344.609 63.361,344.837 63.000 C 345.103 62.579,345.046 53.912,344.776 53.688 C 344.615 53.555,340.323 53.490,329.651 53.459 L 314.750 53.417 314.706 47.792 L 314.662 42.167 322.966 42.167 C 329.874 42.167,331.324 42.127,331.593 41.930 C 332.004 41.629,332.103 33.037,331.700 32.633 C 331.529 32.463,329.703 32.407,323.075 32.371 L 314.667 32.324 314.667 26.412 L 314.667 20.500 329.155 20.500 C 342.104 20.500,343.671 20.472,343.905 20.238 C 344.246 19.897,344.303 11.203,343.967 10.867 C 343.759 10.659,302.876 10.582,302.333 10.788 M350.867 10.867 C 350.619 11.114,350.585 19.779,350.830 20.167 C 350.966 20.382,352.218 20.428,359.869 20.500 L 368.750 20.583 368.833 41.619 C 368.912 61.530,368.933 62.671,369.214 62.952 C 369.614 63.352,380.750 63.415,381.224 63.021 C 381.478 62.811,381.500 61.147,381.500 42.167 C 381.500 30.823,381.547 21.307,381.604 21.021 L 381.708 20.500 390.301 20.500 C 396.569 20.500,399.043 20.446,399.447 20.300 L 400.000 20.100 400.000 15.487 L 400.000 10.875 399.479 10.771 C 398.420 10.559,351.081 10.652,350.867 10.867 M136.800 11.033 C 137.060 11.293,137.085 19.364,136.827 19.844 C 136.659 20.159,136.329 20.167,122.944 20.167 C 112.502 20.167,109.186 20.214,109.033 20.367 C 108.747 20.653,108.747 32.180,109.033 32.467 C 109.182 32.615,110.839 32.667,115.461 32.667 C 119.435 32.667,121.805 32.729,122.011 32.839 C 122.407 33.051,122.521 41.412,122.133 41.800 C 121.985 41.949,120.300 42.000,115.583 42.000 C 110.867 42.000,109.182 42.051,109.033 42.200 C 108.882 42.351,108.833 44.875,108.833 52.537 L 108.833 62.675 108.406 62.837 C 107.592 63.147,97.493 63.045,97.138 62.724 C 96.845 62.459,96.833 61.439,96.833 36.900 L 96.833 11.352 97.204 11.093 C 97.694 10.749,136.458 10.691,136.800 11.033 M157.813 11.059 C 157.951 11.225,157.990 18.160,157.959 37.101 L 157.917 62.917 152.270 62.961 C 148.241 62.992,146.558 62.950,146.395 62.815 C 145.998 62.486,146.061 11.245,146.458 11.013 C 146.939 10.733,157.579 10.776,157.813 11.059 M182.975 11.016 L 183.500 11.199 183.500 32.233 C 183.500 48.370,183.547 53.313,183.700 53.467 C 183.852 53.619,186.979 53.667,196.742 53.669 C 204.532 53.671,209.682 53.734,209.833 53.830 C 210.151 54.030,210.305 62.097,210.002 62.662 C 209.795 63.051,172.540 63.212,171.822 62.827 C 171.506 62.658,171.500 62.193,171.500 36.936 L 171.500 11.218 171.875 11.037 C 172.394 10.786,182.263 10.768,182.975 11.016 M259.511 11.006 C 259.907 11.218,260.021 19.579,259.633 19.967 C 259.481 20.119,256.016 20.167,245.053 20.167 L 230.673 20.167 230.582 20.542 C 230.531 20.748,230.511 23.542,230.537 26.750 L 230.583 32.583 238.912 32.667 L 247.240 32.750 247.451 33.167 C 247.745 33.748,247.749 40.919,247.456 41.469 L 247.250 41.854 239.291 41.841 C 234.914 41.833,231.144 41.874,230.914 41.932 L 230.496 42.037 230.540 47.810 L 230.583 53.583 245.528 53.667 C 253.747 53.712,260.535 53.813,260.611 53.889 C 260.866 54.144,260.782 62.411,260.521 62.724 C 260.197 63.115,219.106 63.153,218.574 62.763 C 218.256 62.531,218.249 62.049,218.204 36.972 L 218.158 11.417 218.514 11.125 C 218.938 10.777,258.867 10.661,259.511 11.006 M287.296 11.093 L 287.667 11.352 287.667 38.064 C 287.667 67.198,287.621 68.660,286.695 69.232 C 286.608 69.286,286.486 69.532,286.424 69.779 C 286.211 70.630,284.369 72.611,283.180 73.268 C 282.866 73.442,282.229 73.796,281.763 74.056 C 280.983 74.491,280.157 74.768,278.417 75.174 C 277.412 75.409,273.134 75.751,271.275 75.745 C 269.317 75.739,269.264 75.696,269.107 74.010 C 269.048 73.373,268.886 72.361,268.747 71.762 C 268.074 68.861,268.285 68.500,270.647 68.500 C 273.221 68.500,274.075 68.136,274.954 66.666 C 275.634 65.529,275.664 64.280,275.665 37.150 L 275.667 11.218 276.042 11.037 C 276.696 10.721,286.838 10.772,287.296 11.093 M343.748 11.105 C 344.044 11.402,344.075 19.505,343.782 19.958 C 343.676 20.122,340.587 20.167,329.261 20.167 C 317.294 20.167,314.842 20.205,314.685 20.395 C 314.550 20.558,314.508 22.328,314.540 26.603 L 314.583 32.583 322.917 32.625 C 330.515 32.664,331.268 32.692,331.458 32.949 C 331.750 33.342,331.757 41.343,331.467 41.633 C 331.316 41.784,329.201 41.833,322.970 41.833 L 314.673 41.833 314.582 42.208 C 314.531 42.415,314.511 45.058,314.537 48.083 L 314.583 53.583 329.528 53.667 C 337.747 53.712,344.535 53.812,344.611 53.889 C 344.905 54.182,344.876 62.434,344.579 62.730 C 344.233 63.077,303.348 63.151,302.591 62.807 L 302.167 62.613 302.167 36.915 L 302.167 11.218 302.542 11.037 C 303.238 10.701,343.411 10.768,343.748 11.105 M399.178 11.006 C 399.574 11.218,399.688 19.579,399.300 19.967 C 399.150 20.117,396.945 20.167,390.404 20.167 C 383.343 20.167,381.673 20.209,381.522 20.390 C 381.389 20.550,381.325 26.507,381.294 41.570 C 381.251 62.096,381.243 62.532,380.926 62.763 C 380.404 63.146,370.064 63.110,369.638 62.724 C 369.346 62.460,369.333 61.583,369.333 41.501 L 369.333 20.554 368.909 20.360 C 368.604 20.221,366.040 20.167,359.821 20.167 L 351.158 20.167 350.996 19.739 C 350.775 19.157,350.783 11.571,351.006 11.156 C 351.206 10.781,398.482 10.634,399.178 11.006 M28.326 14.165 L 42.568 14.250 42.684 14.667 C 42.781 15.016,42.803 15.028,42.817 14.742 C 42.854 13.981,43.201 13.998,28.258 14.040 L 14.083 14.081 28.326 14.165 M49.276 14.125 C 49.233 14.194,51.610 14.250,54.558 14.250 L 59.917 14.250 59.961 19.458 C 59.985 22.323,59.985 24.683,59.961 24.702 C 59.936 24.722,57.629 24.780,54.833 24.832 L 49.750 24.926 54.671 24.963 C 58.896 24.995,59.645 24.963,59.963 24.741 C 60.507 24.359,60.552 14.462,60.011 14.173 C 59.637 13.973,49.398 13.927,49.276 14.125 M14.080 28.250 C 14.080 35.950,14.100 39.076,14.125 35.196 C 14.150 31.316,14.150 25.016,14.125 21.196 C 14.100 17.376,14.080 20.550,14.080 28.250 M49.239 19.417 C 49.239 21.800,49.263 22.752,49.291 21.532 C 49.320 20.312,49.320 18.362,49.291 17.198 C 49.263 16.035,49.239 17.033,49.239 19.417 M42.686 24.117 C 42.675 24.318,42.535 24.560,42.375 24.653 C 42.215 24.747,42.168 24.825,42.271 24.828 C 42.568 24.836,42.868 24.379,42.783 24.050 C 42.721 23.809,42.702 23.823,42.686 24.117 M25.145 25.109 C 24.961 25.331,24.901 27.020,24.833 33.900 L 24.750 42.417 19.474 42.417 C 16.572 42.417,14.233 42.473,14.276 42.542 C 14.424 42.781,24.606 42.691,24.807 42.448 C 24.931 42.299,25.003 39.557,25.036 33.795 C 25.062 29.156,25.146 25.298,25.222 25.222 C 25.298 25.146,29.123 25.044,33.722 24.997 L 42.083 24.911 33.729 24.872 C 26.133 24.837,25.353 24.858,25.145 25.109 M31.853 31.763 C 31.319 32.442,31.302 41.802,31.833 42.333 C 32.152 42.652,32.389 42.667,37.135 42.667 C 42.396 42.667,42.800 42.611,42.621 41.906 C 42.546 41.612,42.537 41.615,42.519 41.939 C 42.491 42.467,42.205 42.495,36.964 42.498 C 32.402 42.500,32.170 42.485,32.006 42.178 C 31.747 41.694,31.773 32.127,32.033 31.867 C 32.368 31.532,41.812 31.587,42.296 31.926 C 42.723 32.225,42.804 31.988,42.391 31.645 C 42.175 31.466,41.058 31.406,37.161 31.366 L 32.205 31.315 31.853 31.763 M14.200 49.200 C 13.939 49.461,13.914 59.360,14.173 59.844 C 14.427 60.320,24.408 60.349,24.768 59.875 C 25.073 59.473,25.103 49.503,24.800 49.200 C 24.514 48.914,14.486 48.914,14.200 49.200 M24.794 54.397 C 24.825 58.055,24.783 59.609,24.649 59.772 C 24.344 60.139,14.409 60.105,14.268 59.736 C 14.128 59.372,14.140 49.416,14.280 49.275 C 14.343 49.213,16.724 49.182,19.572 49.206 L 24.750 49.250 24.794 54.397 " stroke="none" fill="#a1acc4" fill-rule="evenodd"></path><path id="path4" d="M1.335 0.649 C 1.106 0.712,0.826 0.949,0.712 1.174 C 0.407 1.776,0.404 72.484,0.708 72.860 C 1.408 73.725,-1.232 73.667,37.302 73.667 L 72.863 73.667 73.348 73.209 L 73.833 72.751 73.833 37.057 L 73.833 1.363 73.321 0.931 L 72.808 0.500 37.279 0.517 C 17.738 0.526,1.563 0.585,1.335 0.649 M42.586 14.171 C 42.644 14.265,42.693 16.647,42.695 19.463 L 42.698 24.583 42.307 24.789 C 42.013 24.944,39.901 24.996,33.750 25.000 C 28.902 25.003,25.482 25.069,25.333 25.163 C 25.118 25.299,25.077 26.477,25.036 33.776 C 25.003 39.551,24.931 42.299,24.807 42.448 C 24.469 42.856,14.393 42.757,14.173 42.344 C 13.986 41.996,13.917 14.744,14.101 14.264 C 14.224 13.942,42.388 13.851,42.586 14.171 M60.011 14.173 C 60.552 14.462,60.507 24.359,59.963 24.741 C 59.527 25.046,50.368 25.132,49.594 24.837 L 49.167 24.675 49.167 19.449 C 49.167 16.574,49.217 14.172,49.278 14.111 C 49.466 13.923,59.654 13.981,60.011 14.173 M42.391 31.645 C 42.850 32.027,42.806 42.247,42.344 42.494 C 41.660 42.860,32.216 42.716,31.833 42.333 C 31.302 41.802,31.319 32.442,31.853 31.763 L 32.205 31.315 37.161 31.366 C 41.058 31.406,42.175 31.466,42.391 31.645 M24.800 49.200 C 25.103 49.503,25.073 59.473,24.768 59.875 C 24.408 60.349,14.427 60.320,14.173 59.844 C 13.914 59.360,13.939 49.461,14.200 49.200 C 14.486 48.914,24.514 48.914,24.800 49.200 " stroke="none" fill="#749ef4" fill-rule="evenodd"></path></g></svg>