<?xml version="1.0" encoding="utf-8"?>
<!-- Generator: Adobe Illustrator 24.0.1, SVG Export Plug-In . SVG Version: 6.00 Build 0)  -->
<svg version="1.1" id="Layer_2" xmlns="http://www.w3.org/2000/svg" xmlns:xlink="http://www.w3.org/1999/xlink" x="0px" y="0px"
	 viewBox="0 0 703 406" style="enable-background:new 0 0 703 406;" xml:space="preserve">
<style type="text/css">
	.st0{fill:#0080C2;}
	.st1{fill:#77787B;}
</style>
<g>
	<path class="st0" d="M602.97,261.8v68.84h67.35c5.16,0,9.55-2.49,13.15-7.47c3.62-4.97,5.41-10.96,5.41-17.95v-18.54
		c0-6.78-1.81-12.62-5.46-17.52c-3.64-4.91-8.01-7.36-13.1-7.36H602.97z M621.53,279.3h39.78c2.55,0,4.68,0.7,6.42,2.12
		c1.73,1.41,2.6,3.17,2.6,5.29v18.19c0,2.26-0.92,4.19-2.76,5.82c-1.84,1.62-4.03,2.43-6.58,2.43h-39.46V279.3z M512.28,261.8v69.05
		h18.56v-17.5h36.06c1.77,0,3.18,1.42,4.24,4.24c1.06,2.83,1.59,7.25,1.59,13.26h18.56c0-9.05-0.5-15.65-1.49-19.78
		c-0.99-4.14-3.5-6.45-7.53-6.95c2.76-2.05,4.95-4.07,6.58-6.08c1.63-2.01,2.44-4.39,2.44-7.15v-11.64c0-4.8-1.82-8.91-5.46-12.33
		c-3.64-3.42-8.01-5.13-13.1-5.13H512.28z M530.84,279.3h33.62c2.26,0,4.21,0.74,5.84,2.22c1.62,1.47,2.44,3.27,2.44,5.37
		c0,2.46-0.82,4.57-2.44,6.32c-1.63,1.76-3.57,2.63-5.84,2.63h-33.62V279.3z M439.41,261.8l-33.73,68.84h20.68l6.36-13.05h42.43
		l6.37,13.05h20.58l-33.51-68.84H439.41z M454.05,274.21l14.43,29.59h-28.96L454.05,274.21z M399.64,261.8l-21.74,56.64
		l-15.38-56.64h-24.93l-15.38,56.96l-21.96-56.96h-18.78l26.52,68.84h29.07L350,282.59l13.05,48.05H392l26.41-68.84H399.64z
		 M195.67,261.8v69.05h18.56v-17.5h36.06c1.77,0,3.18,1.42,4.24,4.24c1.06,2.83,1.59,7.25,1.59,13.26h18.56
		c0-9.05-0.49-15.65-1.49-19.78c-0.99-4.14-3.5-6.45-7.53-6.95c2.76-2.05,4.95-4.07,6.58-6.08c1.63-2.01,2.44-4.39,2.44-7.15v-11.64
		c0-4.8-1.82-8.91-5.46-12.33c-3.64-3.42-8.01-5.13-13.1-5.13H195.67z M214.23,279.3h33.63c2.26,0,4.2,0.74,5.83,2.22
		c1.63,1.47,2.44,3.27,2.44,5.37c0,2.46-0.81,4.57-2.44,6.32c-1.63,1.76-3.57,2.63-5.83,2.63h-33.63V279.3z M114,261.8
		c-5.16,0-9.55,1.69-13.15,5.08c-3.61,3.39-5.41,7.52-5.41,12.39v33.89c0,4.73,1.84,8.82,5.52,12.29c3.67,3.46,8.02,5.19,13.04,5.19
		h50.92c5.09,0,9.45-1.75,13.1-5.24c3.64-3.49,5.46-7.68,5.46-12.55v-33.57c0-4.8-1.82-8.91-5.46-12.34
		c-3.64-3.42-8.01-5.13-13.1-5.13H114z M116.28,310.76c-1.52-1.59-2.28-3.44-2.28-5.55v-18.5c0-2.04,0.76-3.79,2.28-5.23
		c1.52-1.45,3.41-2.17,5.67-2.17h34.79c2.33,0,4.28,0.7,5.84,2.12c1.55,1.41,2.33,3.17,2.33,5.29v18.5c0,2.19-0.82,4.06-2.44,5.61
		c-1.63,1.55-3.54,2.32-5.73,2.32h-34.79C119.69,313.14,117.8,312.35,116.28,310.76z M13.55,261.8v68.84h18.56v-27.89h49v-13.79h-49
		v-11.24h51.97V261.8H13.55z"/>
</g>
<g>
	<path class="st1" d="M654.88,350.59c-3.02,0-5.58,0.78-7.69,2.35c-2.11,1.57-3.16,3.46-3.16,5.69v6.24c0,2.88,0.88,5.22,2.63,7.01
		c1.76,1.79,4.5,2.69,8.21,2.69l19.52,0.68c1.07,0,1.98,0.35,2.73,1.05c0.74,0.7,1.11,1.55,1.11,2.54c0,1.08-0.52,1.99-1.57,2.76
		c-1.05,0.77-2.33,1.15-3.81,1.15h-14.88c-0.87,0-1.6-0.44-2.2-1.33c-0.6-0.89-0.9-1.95-0.9-3.19l-10.85-0.31v4.84
		c0,2.19,1.06,4.08,3.19,5.67c2.12,1.59,4.68,2.39,7.65,2.39h20.76c4.5,0,7.87-0.91,10.1-2.73c2.23-1.82,3.35-5.31,3.35-10.48
		c0-4.34-0.98-7.34-2.95-9.02c-1.96-1.67-4.6-2.51-7.91-2.51l-21.07-0.68c-1.08,0-1.73-0.26-1.95-0.78
		c-0.23-0.52-0.34-1.37-0.34-2.57c0-0.95,0.29-1.75,0.87-2.42c0.58-0.66,1.26-0.99,2.04-0.99h14.87c1.49,0,2.59,0.35,3.29,1.05
		c0.7,0.7,1.05,1.63,1.05,2.79h10.84v-3.84c0-2.23-0.83-4.13-2.48-5.7c-1.65-1.57-3.66-2.35-6.01-2.35H654.88z M589.24,350.59
		l-15.68,14.5h-6.69v-14.5h-10.84v40.22h10.84v-14.88H574l17.35,14.88h16.73l-24.11-20.64l21.2-19.59H589.24z M471.74,350.59v40.35
		h10.85v-10.23h21.07c1.03,0,1.86,0.83,2.48,2.48c0.62,1.65,0.93,4.23,0.93,7.75h10.84c0-5.29-0.29-9.14-0.87-11.56
		c-0.58-2.42-2.04-3.77-4.4-4.06c1.61-1.2,2.89-2.38,3.84-3.55c0.95-1.17,1.43-2.57,1.43-4.17v-6.8c0-2.8-1.06-5.2-3.19-7.2
		c-2.13-2-4.68-3-7.65-3H471.74z M482.58,360.81h19.65c1.32,0,2.46,0.43,3.41,1.29c0.95,0.86,1.43,1.91,1.43,3.14
		c0,1.44-0.48,2.67-1.43,3.7c-0.95,1.03-2.09,1.54-3.41,1.54h-19.65V360.81z M393.03,350.59c-3.02,0-5.58,0.99-7.69,2.97
		c-2.11,1.98-3.16,4.39-3.16,7.24v19.8c0,2.76,1.08,5.16,3.22,7.18c2.15,2.02,4.69,3.03,7.62,3.03h29.75c2.98,0,5.52-1.02,7.65-3.07
		c2.13-2.04,3.19-4.49,3.19-7.33V360.8c0-2.81-1.06-5.21-3.19-7.21c-2.13-2-4.68-3-7.65-3H393.03z M394.36,379.19
		c-0.89-0.93-1.33-2.01-1.33-3.24v-10.81c0-1.19,0.44-2.21,1.33-3.06c0.89-0.84,2-1.26,3.32-1.26h20.33c1.36,0,2.5,0.41,3.41,1.23
		c0.91,0.82,1.36,1.86,1.36,3.09v10.81c0,1.28-0.48,2.37-1.42,3.27c-0.96,0.9-2.07,1.36-3.35,1.36h-20.33
		C396.36,380.58,395.25,380.12,394.36,379.19z M334.21,350.59l-12.7,33.1l-8.99-33.1h-14.57l-8.99,33.28l-12.83-33.28h-10.97
		l15.5,40.22h16.98l7.56-28.08l7.62,28.08h16.92l15.43-40.22H334.21z M182,350.59v10.85h16.79v29.38h12.33v-29.38h16.73v-10.85H182z
		 M103.48,350.59v40.22h41.22v-9.3h-30.37v-7.01h28.63v-8.06h-28.63v-6.57h30.37v-9.3H103.48z M54.39,350.59v32.47l-22-32.47H13.8
		v40.22h10.84v-32.35l21.82,32.35h18.78v-40.22H54.39z"/>
</g>
<g>
	<path class="st1" d="M392.21,121.24l25.37-11.96l-67.43-34.57l-0.02,0.02v-0.02l-143.06,73.02v24.96l0.1-0.05l-0.01,0.03
		l31.2,14.84c0,0,0.1-5.95,2.89-11.71c2.83-5.84,6.67-8.89,6.67-8.89l-15.35-7.23l117.56-60L392.21,121.24z"/>
	<path class="st1" d="M492.58,147.77v-0.04l-33.93-17.4l-25.35,11.97l33.99,17.42l-116.9,55.3l-0.33,0.02l-59.5-28.28
		c-0.32-3.83-1.58-7.63-3.9-11.03c-4.44-6.51-11.64-10.01-18.97-10.01c-4.46,0-8.96,1.3-12.91,4c-10.46,7.14-13.15,21.42-6.01,31.88
		c7.15,10.46,21.42,13.15,31.88,6.01c0.06-0.04,0.11-0.09,0.16-0.12l69.29,32.77l0.03-0.04v0.05l142.59-67.62v-24.96L492.58,147.77z
		 M267.88,201.77c-0.14,0.01-0.28,0.01-0.43,0.01c-7.07,0-12.91-5.62-13.14-12.74c-0.23-7.26,5.47-13.34,12.73-13.57
		c7.26-0.23,13.34,5.47,13.57,12.73C280.84,195.46,275.15,201.53,267.88,201.77z"/>
</g>
<g>
	<path class="st0" d="M452.43,52.54c-6.66-10.46-20.37-13.67-30.96-7.43L350.14,8.56l-0.02,0.02V8.56L207.06,81.58v24.96l0.1-0.05
		l-0.01,0.03l34.05,16.1l25.44-13.03l-34.02-16.03l117.5-59.66l60.03,30.81c-0.03,4.27,1.11,8.61,3.57,12.48
		c6.81,10.69,20.99,13.83,31.67,7.02C456.09,77.41,459.23,63.23,452.43,52.54z M433.32,78.09c-7.26,0-13.15-5.89-13.15-13.15
		c0-7.26,5.89-13.15,13.15-13.15c7.26,0,13.15,5.89,13.15,13.15C446.48,72.2,440.58,78.09,433.32,78.09z"/>
	<path class="st0" d="M492.56,81.63l0.02-0.04l-30.16-15.44c0,0,0.08,4.86-2.63,10.99c-2.86,6.46-6.74,9.17-6.74,9.17l14.23,7.29
		l-116.16,54.95v-0.03l-1.07,0.4l-42.52-20.04l-25.43,13.1l67.99,32.16l0.03-0.04v0.05l142.59-67.62V81.56L492.56,81.63z"/>
</g>
</svg>
