<?xml version="1.0" encoding="utf-8"?>
<!-- Generator: Adobe Illustrator 23.0.3, SVG Export Plug-In . SVG Version: 6.00 Build 0)  -->
<svg version="1.1" id="Layer_1" xmlns="http://www.w3.org/2000/svg" xmlns:xlink="http://www.w3.org/1999/xlink" x="0px" y="0px"
	 viewBox="0 0 400 245" style="enable-background:new 0 0 400 245;" xml:space="preserve">
<style type="text/css">
	.st0{fill:#E01B22;}
	.st1{fill:#4064AD;}
	.st2{fill:#E98300;}
	.st3{fill:#00549F;}
	.st4{fill-rule:evenodd;clip-rule:evenodd;}
	.st5{fill-rule:evenodd;clip-rule:evenodd;fill:#C9243A;}
	.st6{fill-rule:evenodd;clip-rule:evenodd;fill:#231F20;}
	.st7{fill-rule:evenodd;clip-rule:evenodd;fill:#7C848A;}
	.st8{fill:#EE3B29;}
	.st9{fill:#7C848A;}
	.st10{fill:#0F0F59;}
	.st11{fill:#F42A4D;}
	.st12{fill:#DA2128;}
	.st13{fill-rule:evenodd;clip-rule:evenodd;fill:#12ABDB;}
	.st14{fill-rule:evenodd;clip-rule:evenodd;fill:#0070AD;}
	.st15{fill:#929497;}
	.st16{fill:#231F20;}
	.st17{fill:#00ADEE;}
	.st18{fill:#2E3191;}
	.st19{fill:#EC1C24;}
	.st20{fill:#0082C9;}
	.st21{fill:#6D67AE;}
	.st22{fill:#2B62AD;}
	.st23{fill:#404041;}
	.st24{fill:#273B5B;}
	.st25{fill:#39B54A;}
	.st26{fill:#474749;}
	.st27{fill:#009245;}
	.st28{fill:#DDDDDD;}
	.st29{fill:#FFFFFF;}
	.st30{fill:url(#SVGID_1_);}
	.st31{fill:url(#SVGID_2_);}
	.st32{fill:url(#SVGID_3_);}
	.st33{fill:url(#SVGID_4_);}
	.st34{fill:url(#SVGID_5_);}
	.st35{fill:url(#SVGID_6_);}
	.st36{fill:url(#SVGID_7_);}
	.st37{fill:url(#SVGID_8_);}
	.st38{fill:url(#SVGID_9_);}
	.st39{fill:url(#SVGID_10_);}
	.st40{fill:url(#SVGID_11_);}
	.st41{fill:url(#SVGID_12_);}
	.st42{fill:url(#SVGID_13_);}
	.st43{fill:url(#SVGID_14_);}
	.st44{fill:url(#SVGID_15_);}
	.st45{fill:url(#SVGID_16_);}
	.st46{fill:url(#SVGID_17_);}
	.st47{fill:#59595C;}
	.st48{fill:#1D7DB9;}
	.st49{fill:#121110;}
	.st50{fill:#010101;}
	.st51{fill:#663795;}
	.st52{fill:#09324A;stroke:#1B75BB;stroke-width:0.6975;stroke-miterlimit:10;}
	.st53{fill:#002432;stroke:#1B75BB;stroke-width:1.0463;stroke-miterlimit:10;}
	.st54{fill-rule:evenodd;clip-rule:evenodd;fill:#E73836;}
	.st55{fill:#231916;}
	.st56{fill:#E73836;}
	.st57{fill:#8C9091;}
	.st58{fill-rule:evenodd;clip-rule:evenodd;fill:#365072;}
	.st59{fill:#365072;}
	.st60{fill:#0093D7;}
	.st61{clip-path:url(#SVGID_19_);fill:url(#SVGID_20_);}
	.st62{clip-path:url(#SVGID_22_);fill:url(#SVGID_23_);}
	.st63{clip-path:url(#SVGID_25_);fill:url(#SVGID_26_);}
	.st64{clip-path:url(#SVGID_28_);fill:url(#SVGID_29_);}
	.st65{clip-path:url(#SVGID_31_);fill:url(#SVGID_32_);}
	.st66{clip-path:url(#SVGID_34_);fill:url(#SVGID_35_);}
	.st67{clip-path:url(#SVGID_37_);fill:url(#SVGID_38_);}
	.st68{clip-path:url(#SVGID_40_);fill:url(#SVGID_41_);}
	.st69{clip-path:url(#SVGID_43_);fill:url(#SVGID_44_);}
	.st70{clip-path:url(#SVGID_68_);}
	.st71{clip-path:url(#SVGID_79_);}
	.st72{fill:#00A9E6;}
	.st73{fill:#4D4D4F;}
	.st74{fill:#898B8D;}
	.st75{fill:#04B3AC;}
	.st76{fill:#A4A2A0;}
	.st77{fill:#D0CFCE;}
	.st78{fill:#74777C;}
	.st79{fill:none;stroke:#ED3024;stroke-width:0.4269;}
	.st80{fill:#A2A4A8;}
	.st81{fill:#3F7BA3;}
	.st82{enable-background:new    ;}
	.st83{fill:#E8B520;}
	.st84{fill:#D27D41;}
	.st85{fill:#0B74BB;}
	.st86{fill:#702784;}
	.st87{fill:#AD2E91;}
	.st88{fill:#ED3694;}
	.st89{fill:#004E9A;}
	.st90{clip-path:url(#SVGID_82_);fill:url(#SVGID_83_);}
	.st91{clip-path:url(#SVGID_85_);fill:url(#SVGID_86_);}
	.st92{clip-path:url(#SVGID_88_);fill:url(#SVGID_89_);}
	.st93{fill:#0898CC;}
	.st94{fill:#12284C;}
	.st95{fill-rule:evenodd;clip-rule:evenodd;fill:#84BE42;}
	.st96{fill-rule:evenodd;clip-rule:evenodd;fill:#C1C0C0;}
	.st97{clip-path:url(#SVGID_91_);fill:#84BE42;}
	.st98{fill:#0066A5;}
	.st99{fill:#F05A22;}
	.st100{clip-path:url(#SVGID_93_);}
	.st101{clip-path:url(#SVGID_95_);fill:#1D1D1B;}
	.st102{clip-path:url(#SVGID_97_);}
	.st103{clip-path:url(#SVGID_99_);fill:#1D1D1B;}
	.st104{clip-path:url(#SVGID_101_);}
	.st105{clip-path:url(#SVGID_103_);fill:#1D1D1B;}
	.st106{clip-path:url(#SVGID_105_);}
	.st107{clip-path:url(#SVGID_107_);fill:#1D1D1B;}
	.st108{clip-path:url(#SVGID_109_);}
	.st109{clip-path:url(#SVGID_111_);fill:#1D1D1B;}
	.st110{clip-path:url(#SVGID_113_);}
	.st111{clip-path:url(#SVGID_115_);fill:#1D1D1B;}
	.st112{clip-path:url(#SVGID_117_);}
	.st113{clip-path:url(#SVGID_119_);fill:#1D9DD9;}
	.st114{clip-path:url(#SVGID_121_);}
	.st115{clip-path:url(#SVGID_123_);fill:#1D1D1B;}
	.st116{clip-path:url(#SVGID_125_);}
	.st117{clip-path:url(#SVGID_127_);fill:#1D9DD9;}
	.st118{clip-path:url(#SVGID_129_);}
	.st119{clip-path:url(#SVGID_131_);fill:#1D1D1B;}
	.st120{clip-path:url(#SVGID_133_);}
	.st121{clip-path:url(#SVGID_135_);fill:#1D9DD9;}
	.st122{clip-path:url(#SVGID_137_);}
	.st123{clip-path:url(#SVGID_139_);fill:#1D1D1B;}
	.st124{clip-path:url(#SVGID_141_);}
	.st125{clip-path:url(#SVGID_143_);fill:#1D9DD9;}
	.st126{clip-path:url(#SVGID_145_);}
	.st127{clip-path:url(#SVGID_147_);fill:#1D1D1B;}
	.st128{fill:#D44432;}
	.st129{fill:#272525;}
	.st130{fill:url(#SVGID_148_);}
	.st131{fill:url(#SVGID_149_);}
	.st132{fill:url(#SVGID_150_);}
	.st133{fill:#002B54;}
	.st134{fill:#B2B1B1;}
	.st135{fill:#E1134F;}
	.st136{fill:#454547;}
	.st137{fill:#00B4D0;}
	.st138{fill:#4564A7;}
	.st139{fill:#0088EE;}
	.st140{fill:#026FC2;}
	.st141{fill:#009FEE;}
	.st142{fill:#00BEEE;}
	.st143{fill:#00AFEE;}
	.st144{fill-rule:evenodd;clip-rule:evenodd;fill:#224099;}
	.st145{clip-path:url(#SVGID_152_);}
	.st146{clip-path:url(#SVGID_156_);}
	.st147{fill:#203260;}
	.st148{fill-rule:evenodd;clip-rule:evenodd;fill:#989A9D;}
	.st149{fill-rule:evenodd;clip-rule:evenodd;fill:#DF068C;}
	.st150{fill:#2E3437;}
	.st151{fill:#989FA4;}
	.st152{fill:#E1DE22;}
	.st153{fill-rule:evenodd;clip-rule:evenodd;fill:#86171D;}
	.st154{fill-rule:evenodd;clip-rule:evenodd;fill:#FFFFFF;}
	.st155{fill:none;stroke:#86171D;stroke-width:6.1349;stroke-miterlimit:10;}
	.st156{fill:#1F1F1F;}
	.st157{fill:#009590;}
	.st158{fill:#ED1651;}
</style>
<g>
	<g>
		<path class="st50" d="M236.9,115h10.5v37.5h-10.5v-4.9c-3.7,5.6-8.6,6-11.6,6c-11.6,0-19.1-9-19.1-19.9c0-11.2,7.5-19.9,18.4-19.9
			c3,0,8.6,0.4,12,6v-4.9h0.3V115z M217.4,133.7c0,6,4.1,10.5,10.5,10.5c6,0,10.5-4.5,10.5-10.5s-4.1-10.5-10.5-10.5
			C221.9,123.3,217.4,127.7,217.4,133.7z"/>
		<path class="st50" d="M268,124v28.5h-10.5V124h-4.1v-9h4.1v-12.7H268V115h7.1v9H268z"/>
		<path class="st50" d="M299.9,124c-2.6-2.2-4.9-2.6-6-2.6c-2.6,0-4.1,1.1-4.1,3c0,1.1,0.4,2.2,3.4,3.4l2.6,0.7
			c3,1.1,7.5,2.2,9.4,5.2c1.1,1.5,1.9,3.7,1.9,6.4c0,3.4-1.1,6.7-4.1,9.4c-3,2.6-6.7,4.1-11.2,4.1c-7.9,0-12-3.7-14.6-6.4l5.6-6.4
			c2.2,2.2,5.2,4.5,8.2,4.5s5.2-1.5,5.2-4.1c0-2.2-1.9-3.4-3.4-3.7l-2.2-0.7c-2.6-1.1-5.6-2.2-7.9-4.5c-1.9-1.9-3-4.1-3-7.1
			c0-3.7,1.9-6.7,3.7-8.6c3-2.2,6.7-2.6,9.7-2.6c2.6,0,7.1,0.4,12,4.1L299.9,124z"/>
		<path class="st50" d="M322.8,119.9c3.7-5.2,9-6,12-6c10.9,0,18.4,8.6,18.4,19.9s-7.5,19.9-18.7,19.9c-2.2,0-7.9-0.4-12-6v4.9
			h-10.1v-63h10.5v30.3H322.8z M321.6,133.7c0,6,4.1,10.5,10.5,10.5c6,0,10.5-4.5,10.5-10.5s-4.1-10.5-10.5-10.5
			S321.6,127.7,321.6,133.7z"/>
		<path class="st50" d="M370.4,146.9l-18-31.9h12.4l11.6,21.4l10.5-21.4h12l-30,57.4h-12L370.4,146.9z"/>
		<path class="st50" d="M203.6,121.4h-10.5h-15.7v10.5h13.9c-2.2,7.1-7.5,12-17.2,12c-10.9,0-18.7-9-18.7-19.9s7.5-20.2,18.4-20.2
			c6,0,12,3,15.7,7.9l8.6-5.6c-5.6-7.9-14.6-12.4-24.4-12.4c-16.5,0-30,13.5-30,30.4s12.7,30.4,30,30.4s30-13.5,30-30.4
			C203.9,122.9,203.6,122.1,203.6,121.4z"/>
	</g>
	<g>
		<g>
			<path class="st29" d="M94.9,122.5H68.6v7.5h18c-2.6,11.2-10.9,20.6-21.7,24.4l-43.1-43.1C26.3,98.1,39,88.8,53.6,88.8
				c11.2,0,21.4,5.6,27.7,14.2l5.6-4.9C79.4,88,67.4,81.2,53.5,81.2c-19.5,0-36,13.9-40.1,32.2L63,163C81,158.5,94.9,142,94.9,122.5
				z"/>
			<path class="st29" d="M12.4,122.9c0,10.5,4.1,20.6,12,28.5s18.4,12,28.5,12L12.4,122.9z"/>
		</g>
		<path class="st51" d="M53.6,70C24.7,70,1.1,93.6,1.1,122.5S24.7,175,53.6,175s52.5-23.6,52.5-52.5S82.5,70,53.6,70z M24.4,151.7
			c-7.9-7.9-12-18.4-12-28.5l40.8,40.5C42.8,163.4,32.3,159.6,24.4,151.7z M62.6,162.6l-49.1-49.1c4.1-18.4,20.6-32.2,40.1-32.2
			c13.9,0,25.9,6.7,33.4,16.9l-5.6,4.9C75,94.4,64.9,88.8,53.6,88.8c-14.6,0-27,9.4-31.9,22.5l43.1,43.1
			c10.9-3.7,19.1-13.1,21.7-24.4h-18v-7.5h26.2C94.9,142,81,158.5,62.6,162.6z"/>
	</g>
</g>
</svg>
