<svg id="svg" version="1.1" xmlns="http://www.w3.org/2000/svg" xmlns:xlink="http://www.w3.org/1999/xlink" width="400" height="161.4596350912272" viewBox="0, 0, 400,161.4596350912272"><g id="svgg"><path id="path0" d="M281.917 20.443 C 276.082 22.058,277.231 30.489,283.287 30.498 C 286.522 30.503,288.417 28.626,288.417 25.417 C 288.417 21.857,285.333 19.498,281.917 20.443 M261.123 25.699 C 260.972 26.709,260.654 28.245,260.508 28.667 C 260.429 28.896,260.239 29.496,260.087 30.000 C 259.663 31.400,258.232 34.251,257.423 35.310 C 256.294 36.786,253.390 39.333,252.836 39.333 C 252.743 39.333,252.667 39.408,252.667 39.500 C 252.667 39.592,252.573 39.669,252.458 39.672 C 252.344 39.675,251.950 39.823,251.583 40.000 C 251.217 40.177,250.822 40.325,250.706 40.328 C 250.590 40.331,250.365 40.404,250.206 40.490 C 250.047 40.576,249.710 40.690,249.458 40.743 C 249.145 40.809,249.000 40.944,249.000 41.170 C 249.000 41.486,249.120 41.500,251.824 41.500 L 254.648 41.500 254.716 56.125 C 254.781 70.273,254.795 70.788,255.125 71.917 C 255.618 73.600,256.334 75.333,256.537 75.333 C 256.608 75.333,256.667 75.442,256.667 75.574 C 256.667 75.986,258.745 77.916,259.687 78.379 C 264.070 80.531,269.075 79.943,272.084 76.922 C 274.161 74.836,275.611 71.197,275.930 67.265 L 276.048 65.804 275.649 65.860 C 275.315 65.907,275.215 66.067,275.038 66.833 C 273.953 71.538,272.026 74.221,269.129 75.063 C 266.347 75.872,263.947 74.712,262.785 72.000 L 262.250 70.750 262.203 56.114 L 262.156 41.479 268.636 41.531 L 275.115 41.583 276.402 42.237 C 277.902 42.999,278.756 43.880,279.544 45.481 L 280.083 46.576 280.133 58.413 C 280.205 75.683,280.134 76.083,276.673 77.902 C 276.028 78.241,275.500 78.589,275.500 78.676 C 275.500 78.773,278.709 78.833,283.833 78.833 C 292.694 78.833,292.822 78.820,291.209 78.057 C 290.094 77.529,288.761 76.343,288.341 75.504 C 287.508 73.844,287.500 73.647,287.500 55.813 L 287.500 39.167 274.835 39.167 L 262.170 39.167 262.127 32.208 L 262.083 25.250 261.644 25.199 C 261.261 25.155,261.195 25.219,261.123 25.699 M62.212 37.320 C 61.642 37.464,59.883 38.301,59.556 38.583 C 59.449 38.675,59.112 38.936,58.806 39.164 C 57.773 39.932,56.012 41.871,55.536 42.765 C 55.256 43.292,55.296 43.307,54.213 42.250 C 53.697 41.746,53.218 41.333,53.149 41.333 C 53.080 41.333,52.925 41.237,52.804 41.119 C 52.549 40.871,50.876 39.833,50.731 39.833 C 50.677 39.833,50.397 39.730,50.109 39.604 C 45.211 37.462,37.745 37.676,33.047 40.094 C 32.294 40.481,31.557 40.919,31.410 41.066 C 31.263 41.213,31.089 41.333,31.024 41.333 C 30.809 41.333,28.683 43.518,28.579 43.846 C 28.523 44.022,28.422 44.167,28.354 44.167 C 28.247 44.167,27.228 46.087,26.806 47.083 C 26.001 48.983,26.012 53.942,26.824 55.750 C 26.906 55.933,27.167 56.524,27.404 57.063 C 28.284 59.066,30.278 61.327,32.126 62.419 C 32.725 62.773,32.682 62.814,31.083 63.404 C 28.754 64.263,26.544 66.104,25.667 67.917 C 23.642 72.099,26.441 76.861,31.734 78.239 C 32.979 78.563,33.016 78.609,32.136 78.744 C 20.908 80.470,18.684 90.813,28.555 95.402 C 33.353 97.633,43.073 98.565,48.667 97.332 C 53.300 96.310,57.608 94.731,58.667 93.666 C 58.712 93.620,59.083 93.358,59.489 93.083 C 60.867 92.151,63.500 89.193,63.500 88.576 C 63.500 88.516,63.605 88.231,63.732 87.942 C 65.485 83.981,64.677 78.707,61.893 75.935 C 60.562 74.610,60.488 74.553,59.275 73.939 C 55.527 72.039,54.132 71.861,42.802 71.845 C 33.107 71.831,32.131 71.710,30.853 70.356 C 29.084 68.482,30.046 65.612,32.953 64.092 C 33.999 63.545,34.051 63.545,36.000 64.057 C 40.196 65.161,45.044 65.107,48.750 63.916 C 49.797 63.579,52.667 62.168,52.667 61.989 C 52.667 61.916,52.798 61.812,52.958 61.759 C 53.570 61.556,56.167 58.803,56.167 58.358 C 56.167 58.253,56.225 58.167,56.297 58.167 C 56.427 58.167,56.531 57.957,57.160 56.417 C 58.329 53.556,58.358 49.523,57.230 46.701 C 56.897 45.868,56.440 44.935,56.314 44.833 C 54.844 43.639,59.711 40.855,62.134 41.505 C 65.493 42.405,66.511 45.586,64.599 49.209 C 64.394 49.598,64.053 50.479,63.842 51.167 C 63.631 51.854,63.399 52.567,63.328 52.750 C 62.162 55.733,62.506 63.892,63.934 67.109 C 64.062 67.397,64.167 67.682,64.167 67.740 C 64.167 68.175,65.892 71.328,66.580 72.153 C 68.212 74.105,69.485 75.328,70.720 76.129 C 71.103 76.377,71.454 76.629,71.500 76.690 C 71.687 76.935,74.662 78.281,75.750 78.612 C 80.709 80.123,86.632 79.711,90.786 77.566 C 94.171 75.818,97.195 72.332,98.072 69.167 C 98.136 68.938,98.251 68.600,98.328 68.417 C 98.493 68.023,99.019 65.794,98.959 65.743 C 98.599 65.442,98.193 65.539,98.090 65.951 C 96.550 72.085,88.657 76.725,82.083 75.362 C 80.629 75.060,79.909 74.853,79.406 74.590 C 79.137 74.450,78.855 74.335,78.779 74.334 C 78.400 74.332,76.119 72.668,75.156 71.692 C 73.672 70.188,71.500 66.593,71.500 65.640 C 71.500 65.508,71.433 65.329,71.351 65.242 C 70.988 64.856,70.178 60.311,70.172 58.625 L 70.167 57.333 84.442 57.333 L 98.718 57.333 98.616 55.208 C 98.512 53.035,98.393 52.252,97.810 49.917 C 96.845 46.046,94.716 42.818,91.833 40.850 C 90.862 40.187,88.858 39.167,88.526 39.167 C 88.418 39.167,88.199 39.096,88.039 39.010 C 86.564 38.211,79.849 37.922,77.417 38.553 C 74.938 39.196,72.503 40.304,70.890 41.522 L 69.863 42.298 69.692 41.329 C 69.161 38.312,65.670 36.441,62.212 37.320 M123.167 38.275 C 121.535 38.595,119.322 39.497,118.000 40.380 C 116.514 41.373,113.500 44.767,113.500 45.446 C 113.500 45.552,113.444 45.664,113.375 45.694 C 113.239 45.755,112.866 46.490,112.373 47.667 C 112.200 48.079,111.976 48.604,111.874 48.833 C 111.733 49.150,111.687 48.003,111.678 44.042 L 111.667 38.833 105.417 38.833 C 98.733 38.833,98.326 38.889,99.915 39.588 C 100.327 39.769,100.664 39.973,100.665 40.042 C 100.666 40.110,100.746 40.167,100.843 40.167 C 101.522 40.167,103.152 42.168,103.762 43.750 C 104.264 45.051,104.262 73.290,103.760 74.583 C 103.132 76.200,102.416 76.970,100.725 77.846 C 98.810 78.838,98.772 78.833,108.000 78.833 C 117.181 78.833,117.147 78.838,115.291 77.878 C 113.204 76.799,112.397 75.747,111.927 73.496 C 111.504 71.468,111.548 56.563,111.984 53.969 C 113.046 47.661,116.169 43.690,120.939 42.584 C 126.126 41.381,130.423 44.651,131.165 50.365 C 131.368 51.927,131.372 71.537,131.170 73.090 C 130.918 75.029,129.382 77.500,128.429 77.500 C 128.285 77.500,128.166 77.556,128.166 77.625 C 128.166 77.694,127.828 77.889,127.416 78.058 C 125.640 78.788,126.079 78.833,135.000 78.833 C 144.157 78.833,144.208 78.827,142.375 77.906 C 141.260 77.346,139.928 76.167,139.579 75.430 C 138.800 73.787,138.797 73.736,138.668 61.083 C 138.595 53.899,138.476 48.746,138.372 48.244 C 137.695 44.979,136.126 42.245,134.026 40.667 C 133.721 40.438,133.384 40.175,133.277 40.083 C 132.913 39.770,130.918 38.852,130.000 38.575 C 129.091 38.301,124.142 38.084,123.167 38.275 M159.750 38.658 C 155.889 39.387,152.713 41.082,149.917 43.904 C 148.698 45.135,147.167 47.132,147.167 47.491 C 147.167 47.572,147.104 47.664,147.027 47.694 C 146.573 47.876,145.018 51.966,144.473 54.417 C 144.109 56.051,144.169 62.748,144.561 64.333 C 146.545 72.339,151.187 77.251,158.500 79.080 C 160.869 79.673,166.901 79.738,167.979 79.183 C 168.128 79.107,168.530 78.993,168.872 78.932 C 170.172 78.697,173.231 77.266,173.970 76.548 C 174.091 76.430,174.251 76.333,174.325 76.333 C 174.501 76.333,177.167 73.667,177.167 73.492 C 177.167 73.418,177.263 73.258,177.381 73.137 C 178.391 72.098,179.665 68.979,180.239 66.139 C 180.271 65.978,180.165 65.828,179.984 65.781 C 179.728 65.714,179.512 66.030,178.767 67.558 C 173.564 78.231,159.367 78.551,153.928 68.116 C 152.661 65.687,151.871 62.619,151.718 59.542 L 151.616 57.500 165.808 57.500 L 180.000 57.500 179.999 56.792 C 179.992 53.456,179.080 48.892,178.026 46.917 C 176.842 44.699,176.548 44.279,175.167 42.836 C 173.992 41.610,172.566 40.580,171.250 40.010 C 170.792 39.811,170.267 39.583,170.083 39.504 C 167.682 38.460,162.878 38.067,159.750 38.658 M203.742 38.653 C 199.311 39.728,195.895 43.522,193.754 49.750 L 193.181 51.417 193.174 45.292 L 193.167 39.167 186.917 39.167 C 181.689 39.167,180.667 39.205,180.667 39.399 C 180.667 39.526,180.867 39.681,181.113 39.742 C 182.928 40.198,184.728 42.274,185.403 44.692 C 185.791 46.078,185.801 72.465,185.415 73.950 C 184.900 75.934,183.948 77.105,182.166 77.948 C 180.297 78.832,180.310 78.833,190.667 78.833 C 199.585 78.833,201.054 78.764,199.875 78.399 C 199.715 78.350,199.453 78.239,199.294 78.155 C 199.135 78.070,198.912 78.000,198.798 78.000 C 196.963 78.000,194.028 75.103,193.406 72.678 C 193.017 71.158,193.137 57.201,193.555 55.333 C 193.916 53.724,194.311 52.327,194.510 51.961 C 194.596 51.801,194.667 51.590,194.667 51.492 C 194.667 51.190,195.482 49.491,196.303 48.083 C 198.687 43.993,202.712 42.070,205.696 43.595 C 208.200 44.875,208.207 48.479,205.708 49.925 C 204.851 50.421,205.414 51.070,206.949 51.353 C 209.540 51.832,212.065 50.518,213.269 48.063 C 214.065 46.441,213.901 42.504,213.003 41.667 C 212.954 41.621,212.738 41.321,212.523 41.000 C 211.109 38.890,207.138 37.829,203.742 38.653 M225.667 38.662 C 220.440 39.598,216.635 42.367,215.413 46.123 C 214.995 47.411,215.126 50.284,215.652 51.373 C 217.680 55.562,224.834 55.475,225.735 51.250 L 225.842 50.750 224.629 50.748 C 220.221 50.743,219.713 44.085,223.917 41.414 C 226.669 39.665,231.489 39.749,234.362 41.595 C 237.421 43.561,238.584 46.766,238.467 52.911 L 238.417 55.573 237.167 55.783 C 235.504 56.062,233.959 56.341,229.583 57.152 C 229.033 57.254,228.321 57.408,228.000 57.493 C 227.679 57.579,226.742 57.810,225.917 58.006 C 216.629 60.211,212.830 64.196,213.660 70.862 C 213.759 71.657,213.955 72.594,214.097 72.945 C 214.488 73.916,214.863 74.710,215.022 74.906 C 221.228 82.577,235.016 79.922,238.285 70.427 L 238.575 69.583 238.769 71.667 C 239.065 74.849,239.448 75.848,241.000 77.480 C 243.082 79.670,246.887 80.131,250.375 78.618 C 250.864 78.405,251.000 78.000,250.582 78.000 C 250.113 78.000,248.069 75.798,247.512 74.693 C 246.087 71.864,246.000 70.923,246.120 59.582 C 246.237 48.465,246.208 48.173,244.638 45.056 C 244.037 43.863,242.665 42.270,241.635 41.572 C 241.240 41.304,240.879 41.046,240.833 40.999 C 238.967 39.094,230.522 37.792,225.667 38.662 M309.583 38.672 C 307.130 39.111,306.429 39.316,304.725 40.094 C 304.436 40.226,304.157 40.333,304.106 40.333 C 303.959 40.333,301.443 41.877,301.196 42.118 C 301.075 42.236,300.917 42.333,300.846 42.333 C 300.280 42.333,296.894 46.245,295.940 48.000 C 293.156 53.122,292.257 62.244,294.180 65.873 C 294.264 66.032,294.333 66.249,294.333 66.355 C 294.333 66.649,295.540 69.409,295.696 69.472 C 295.772 69.503,295.833 69.620,295.833 69.733 C 295.833 70.450,298.663 73.908,300.317 75.212 C 300.922 75.689,301.516 76.174,301.637 76.290 C 301.758 76.405,301.964 76.500,302.095 76.500 C 302.226 76.500,302.333 76.559,302.333 76.632 C 302.333 76.843,305.005 78.132,306.333 78.562 C 311.405 80.205,317.414 79.896,322.063 77.755 C 323.039 77.306,324.575 76.417,324.944 76.089 C 325.051 75.994,325.388 75.735,325.694 75.512 C 328.283 73.630,331.206 69.349,332.133 66.083 C 332.737 63.954,332.861 63.289,333.036 61.249 C 333.717 53.319,330.591 45.708,325.165 42.084 C 324.753 41.809,324.379 41.541,324.333 41.487 C 324.251 41.392,323.960 41.237,322.167 40.335 C 318.686 38.585,313.727 37.929,309.583 38.672 M357.500 38.608 C 356.813 38.738,356.100 38.914,355.917 39.001 C 355.733 39.087,355.198 39.305,354.726 39.486 C 353.833 39.828,352.377 40.669,351.676 41.247 C 350.353 42.337,348.333 44.694,348.333 45.146 C 348.333 45.234,348.276 45.331,348.207 45.361 C 348.014 45.446,346.711 48.187,346.359 49.250 C 346.241 49.604,346.189 48.206,346.180 44.458 L 346.167 39.167 340.000 39.167 C 333.434 39.167,333.046 39.219,334.546 39.905 C 336.754 40.915,338.052 42.596,338.560 45.103 C 338.970 47.122,338.972 71.528,338.563 73.567 C 338.197 75.388,336.859 77.500,336.070 77.500 C 335.955 77.500,335.836 77.556,335.806 77.625 C 335.775 77.694,335.394 77.924,334.958 78.137 C 333.578 78.811,333.821 78.833,342.500 78.833 C 347.624 78.833,350.833 78.773,350.833 78.676 C 350.833 78.589,350.315 78.246,349.682 77.913 C 346.417 76.198,346.167 75.212,346.167 64.083 C 346.167 56.054,346.432 52.716,347.181 51.294 C 347.265 51.135,347.336 50.910,347.339 50.794 C 347.342 50.678,347.490 50.283,347.667 49.917 C 347.844 49.550,347.991 49.195,347.994 49.128 C 348.002 48.958,349.023 47.300,349.286 47.030 C 349.404 46.909,349.500 46.759,349.501 46.696 C 349.504 46.230,352.047 44.121,353.250 43.588 C 355.079 42.777,355.212 42.750,357.333 42.750 C 361.413 42.750,363.673 44.391,365.137 48.417 C 365.872 50.437,366.223 69.703,365.590 73.299 C 365.158 75.753,363.703 77.543,361.458 78.381 C 360.421 78.768,361.581 78.833,369.500 78.833 C 377.973 78.833,378.442 78.796,377.208 78.227 C 376.865 78.069,376.246 77.716,375.833 77.445 C 375.181 77.014,374.876 76.728,374.194 75.908 C 374.114 75.812,373.873 75.249,373.657 74.658 L 373.266 73.583 373.148 61.583 C 373.083 54.983,372.959 49.246,372.873 48.833 C 372.496 47.021,372.324 46.500,371.546 44.833 C 369.270 39.951,363.634 37.453,357.500 38.608 M44.468 40.077 C 45.163 40.330,45.885 40.732,46.269 41.081 C 46.372 41.174,46.634 41.404,46.853 41.591 C 47.071 41.779,47.438 42.179,47.667 42.481 C 47.896 42.782,48.158 43.116,48.250 43.223 C 48.488 43.500,49.084 44.788,49.380 45.667 C 49.891 47.186,50.011 47.790,50.164 49.625 C 50.833 57.654,47.521 63.231,42.083 63.231 C 38.241 63.231,35.908 61.013,34.391 55.917 C 34.009 54.632,33.950 48.748,34.306 47.417 C 35.525 42.868,37.377 40.670,40.750 39.773 C 41.347 39.614,43.732 39.809,44.468 40.077 M83.319 40.091 C 85.369 40.519,87.033 41.564,88.253 43.191 C 88.700 43.787,89.506 45.720,89.807 46.917 C 90.417 49.340,90.517 50.059,90.618 52.708 L 90.718 55.333 80.526 55.333 C 70.872 55.333,70.333 55.318,70.333 55.037 C 70.333 46.231,76.841 38.740,83.319 40.091 M165.762 40.590 C 168.051 41.514,169.080 42.406,170.134 44.383 C 171.251 46.474,172.154 51.181,172.165 54.958 L 172.167 55.667 161.956 55.667 L 151.745 55.667 151.853 54.375 C 152.468 47.055,156.407 41.365,161.583 40.321 C 162.553 40.125,165.002 40.283,165.762 40.590 M315.917 40.642 C 317.275 41.138,317.833 41.398,317.833 41.537 C 317.833 41.608,317.919 41.667,318.024 41.667 C 318.710 41.667,321.231 44.545,322.300 46.547 C 324.803 51.239,325.708 60.692,324.177 66.167 C 323.477 68.672,323.190 69.471,322.413 71.083 C 321.380 73.227,320.233 74.682,318.430 76.136 C 316.324 77.833,312.056 78.299,309.730 77.086 C 309.466 76.948,309.156 76.835,309.042 76.834 C 308.927 76.834,308.833 76.758,308.833 76.667 C 308.833 76.575,308.735 76.500,308.615 76.500 C 308.146 76.500,306.158 74.639,305.321 73.417 C 305.007 72.958,304.706 72.546,304.651 72.500 C 304.568 72.430,303.654 70.561,303.144 69.417 C 301.442 65.603,301.004 56.476,302.279 51.421 C 303.330 47.257,305.428 43.658,307.727 42.078 C 307.989 41.897,308.290 41.675,308.396 41.583 C 309.853 40.321,313.714 39.838,315.917 40.642 M238.491 58.542 C 238.452 63.821,238.124 67.153,237.501 68.583 C 237.421 68.767,237.225 69.217,237.064 69.583 C 233.767 77.115,223.219 77.742,221.573 70.503 C 220.106 64.055,224.168 60.024,234.000 58.173 C 234.504 58.078,235.509 57.889,236.233 57.754 C 236.956 57.618,237.588 57.468,237.635 57.420 C 238.148 56.907,238.500 57.368,238.491 58.542 M52.833 79.233 C 55.556 80.107,56.923 81.363,57.781 83.779 C 58.111 84.709,58.190 87.979,57.892 88.357 C 57.793 88.481,57.661 88.799,57.598 89.063 C 57.369 90.016,55.168 92.833,54.651 92.833 C 54.581 92.833,54.422 92.927,54.297 93.042 C 53.745 93.549,52.140 94.329,50.496 94.889 C 49.272 95.306,48.494 95.486,46.333 95.855 C 44.935 96.093,39.142 96.103,38.167 95.868 C 36.189 95.393,35.877 95.304,35.333 95.065 C 34.172 94.555,33.582 94.248,33.528 94.125 C 33.497 94.056,33.380 94.000,33.268 94.000 C 33.156 94.000,32.812 93.794,32.504 93.542 C 30.049 91.536,29.085 89.616,29.092 86.750 C 29.101 82.577,31.474 79.947,36.083 78.998 C 37.494 78.708,51.823 78.909,52.833 79.233 M73.262 88.039 C 72.306 92.274,69.709 96.326,66.333 98.851 C 65.737 99.296,65.175 99.719,65.082 99.789 C 64.936 99.900,63.921 100.465,63.167 100.855 C 62.221 101.343,59.853 102.167,59.395 102.167 C 59.263 102.167,59.167 102.342,59.167 102.583 L 59.167 103.000 63.075 103.000 L 66.983 103.000 67.049 117.625 C 67.113 131.826,67.125 132.285,67.462 133.473 C 68.964 138.776,72.630 141.296,78.337 140.949 C 83.796 140.616,87.271 136.565,88.157 129.500 C 88.247 128.780,88.369 127.998,88.429 127.762 C 88.526 127.375,88.489 127.333,88.052 127.333 C 87.594 127.333,87.557 127.388,87.345 128.375 C 87.092 129.556,86.573 131.155,86.232 131.810 C 86.105 132.052,86.002 132.344,86.001 132.458 C 86.000 132.573,85.943 132.667,85.874 132.667 C 85.805 132.667,85.646 132.897,85.521 133.179 C 83.692 137.311,77.291 137.819,75.383 133.984 C 74.410 132.028,74.438 132.489,74.374 117.117 L 74.314 102.983 79.866 103.033 L 85.417 103.083 86.417 103.573 C 87.263 103.988,88.591 105.136,89.251 106.024 C 89.452 106.294,89.806 107.061,90.049 107.750 C 90.161 108.068,90.268 112.259,90.342 119.250 C 90.414 126.053,90.526 130.504,90.635 130.917 C 90.732 131.283,90.894 131.921,90.995 132.333 C 91.163 133.021,91.357 133.532,91.882 134.667 C 93.944 139.130,98.664 141.455,104.472 140.868 C 110.248 140.285,114.676 136.591,116.799 130.583 L 117.153 129.583 117.160 134.875 L 117.167 140.167 126.167 140.167 C 131.117 140.167,135.167 140.123,135.167 140.070 C 135.167 140.017,134.870 139.680,134.508 139.322 C 133.266 138.093,133.496 135.617,135.040 133.583 C 135.110 133.492,135.779 132.592,136.528 131.583 C 137.277 130.575,137.933 129.712,137.986 129.667 C 138.040 129.621,138.313 129.283,138.595 128.917 C 138.876 128.550,139.624 127.575,140.256 126.750 C 141.641 124.943,141.553 125.055,142.166 124.333 C 142.438 124.013,142.663 123.702,142.664 123.643 C 142.665 123.585,142.910 123.265,143.208 122.934 L 143.750 122.330 144.667 123.707 C 145.171 124.464,145.621 125.158,145.667 125.250 C 145.712 125.342,146.894 127.125,148.292 129.213 C 149.690 131.301,150.833 133.082,150.833 133.171 C 150.833 133.260,150.892 133.333,150.963 133.333 C 151.035 133.333,151.180 133.540,151.285 133.792 C 151.390 134.044,151.626 134.512,151.809 134.833 C 153.117 137.127,153.147 138.956,151.887 139.717 C 151.228 140.115,152.071 140.167,159.250 140.167 C 165.880 140.167,166.833 140.135,166.833 139.917 C 166.833 139.779,166.721 139.667,166.583 139.667 C 166.446 139.667,166.333 139.609,166.333 139.538 C 166.333 139.467,166.052 139.261,165.708 139.080 C 163.532 137.932,160.100 134.719,158.500 132.332 C 158.362 132.127,158.175 131.875,158.082 131.771 C 157.990 131.668,157.615 131.133,157.249 130.583 C 156.883 130.033,156.541 129.546,156.490 129.500 C 156.438 129.454,156.104 128.929,155.746 128.333 C 155.389 127.737,155.034 127.175,154.959 127.083 C 154.833 126.931,152.990 124.109,150.985 121.000 C 150.542 120.313,150.118 119.675,150.043 119.583 C 149.574 119.010,148.831 117.602,148.953 117.518 C 149.034 117.462,149.280 117.154,149.500 116.833 C 149.720 116.513,149.944 116.212,149.996 116.167 C 150.048 116.121,150.501 115.558,151.002 114.917 C 151.503 114.275,151.988 113.659,152.081 113.547 C 152.272 113.319,152.255 113.340,153.497 111.750 C 153.999 111.108,154.450 110.546,154.500 110.500 C 154.550 110.454,155.001 109.892,155.502 109.250 C 158.087 105.941,160.541 103.597,163.208 101.890 C 164.010 101.377,164.667 100.891,164.667 100.812 C 164.667 100.732,162.229 100.667,159.250 100.667 C 156.271 100.667,153.833 100.710,153.833 100.763 C 153.833 100.816,154.130 101.153,154.492 101.512 C 155.425 102.436,155.594 103.976,154.907 105.293 C 154.776 105.544,154.668 105.805,154.668 105.872 C 154.664 106.307,151.428 110.818,148.370 114.652 C 147.515 115.725,147.482 115.756,147.401 115.568 C 147.312 115.360,146.268 113.751,144.112 110.500 C 140.147 104.520,139.624 103.055,140.917 101.545 C 141.237 101.170,141.500 100.819,141.500 100.765 C 141.500 100.711,138.087 100.667,133.917 100.667 C 129.746 100.667,126.333 100.728,126.333 100.802 C 126.333 100.968,127.259 101.667,127.479 101.667 C 127.567 101.667,127.664 101.723,127.694 101.792 C 127.725 101.860,128.350 102.325,129.083 102.824 C 131.498 104.468,134.206 107.524,136.574 111.278 C 137.432 112.639,140.351 117.123,141.606 119.009 C 142.006 119.609,142.333 120.159,142.333 120.230 C 142.333 120.333,140.574 122.667,139.616 123.833 C 139.347 124.161,136.037 128.384,135.500 129.085 C 134.472 130.426,133.424 131.757,133.335 131.833 C 133.282 131.879,132.941 132.292,132.578 132.750 C 129.750 136.312,127.839 136.926,125.644 134.974 C 124.513 133.969,124.588 135.183,124.538 117.042 L 124.492 100.667 118.329 100.667 C 114.940 100.667,112.167 100.726,112.167 100.798 C 112.167 100.870,112.597 101.152,113.123 101.423 C 114.345 102.053,115.872 103.535,116.296 104.500 C 117.102 106.338,117.083 106.079,117.083 115.583 C 117.083 124.819,117.017 125.892,116.344 127.583 C 116.271 127.767,116.037 128.367,115.825 128.917 C 114.733 131.744,112.459 134.389,110.167 135.498 C 109.754 135.697,109.304 135.918,109.167 135.988 C 106.159 137.527,101.460 136.229,99.555 133.333 C 97.677 130.479,97.667 130.381,97.667 114.292 L 97.667 100.667 86.000 100.667 L 74.333 100.667 74.333 93.667 L 74.333 86.667 73.952 86.667 C 73.612 86.667,73.539 86.811,73.262 88.039 " stroke="none" fill="#040404" fill-rule="evenodd"></path><path id="path1" d="" stroke="none" fill="#080404" fill-rule="evenodd"></path><path id="path2" d="" stroke="none" fill="#080404" fill-rule="evenodd"></path><path id="path3" d="" stroke="none" fill="#080404" fill-rule="evenodd"></path><path id="path4" d="" stroke="none" fill="#080404" fill-rule="evenodd"></path></g></svg>