<?xml version="1.0" encoding="UTF-8" standalone="no"?>
<!DOCTYPE svg PUBLIC "-//W3C//DTD SVG 1.1//EN" "http://www.w3.org/Graphics/SVG/1.1/DTD/svg11.dtd">
<svg width="100%" height="100%" viewBox="0 0 900 500" version="1.1" xmlns="http://www.w3.org/2000/svg" xmlns:xlink="http://www.w3.org/1999/xlink" xml:space="preserve" xmlns:serif="http://www.serif.com/" style="fill-rule:evenodd;clip-rule:evenodd;stroke-linejoin:round;stroke-miterlimit:2;">
    <path d="M900,36.016C900,16.138 883.862,0 863.984,0L36.016,0C16.138,0 0,16.138 0,36.016L0,463.984C0,483.862 16.138,500 36.016,500L863.984,500C883.862,500 900,483.862 900,463.984L900,36.016Z" style="fill:rgb(16,100,187);"/>
    <g>
        <g>
            <g transform="matrix(1.32016,0,0,1.32016,-48.4919,-81.8603)">
                <path d="M161.404,370.854C157.971,370.854 154.921,370.096 152.254,368.579C149.587,367.062 147.521,364.946 146.054,362.229C144.587,359.512 143.854,356.421 143.854,352.954C143.854,349.421 144.621,346.287 146.154,343.554C147.687,340.821 149.779,338.704 152.429,337.204C155.079,335.704 158.021,334.954 161.254,334.954C163.854,334.954 166.129,335.271 168.079,335.904C170.029,336.537 171.904,337.421 173.704,338.554C173.971,338.687 174.204,338.921 174.404,339.254C174.604,339.587 174.704,339.954 174.704,340.354C174.704,340.921 174.512,341.404 174.129,341.804C173.746,342.204 173.237,342.404 172.604,342.404C172.237,342.404 171.887,342.321 171.554,342.154C169.987,341.221 168.421,340.521 166.854,340.054C165.287,339.587 163.587,339.354 161.754,339.354C159.221,339.354 156.937,339.887 154.904,340.954C152.871,342.021 151.279,343.579 150.129,345.629C148.979,347.679 148.404,350.121 148.404,352.954C148.404,355.554 148.946,357.879 150.029,359.929C151.112,361.979 152.679,363.596 154.729,364.779C156.779,365.962 159.204,366.554 162.004,366.554C165.137,366.554 168.054,365.821 170.754,364.354L170.754,355.304L162.504,355.304C161.937,355.304 161.454,355.104 161.054,354.704C160.654,354.304 160.454,353.821 160.454,353.254C160.454,352.687 160.654,352.204 161.054,351.804C161.454,351.404 161.937,351.204 162.504,351.204L172.354,351.204C173.021,351.204 173.587,351.437 174.054,351.904C174.521,352.371 174.754,352.937 174.754,353.604L174.754,364.954C174.754,365.654 174.579,366.279 174.229,366.829C173.879,367.379 173.421,367.787 172.854,368.054C169.121,369.921 165.304,370.854 161.404,370.854Z" style="fill:white;fill-rule:nonzero;stroke:white;stroke-width:1.1px;"/>
                <path d="M194.304,370.854C190.237,370.854 187.062,369.696 184.779,367.379C182.496,365.062 181.354,361.804 181.354,357.604C181.354,355.237 181.787,353.054 182.654,351.054C183.521,349.054 184.854,347.437 186.654,346.204C188.454,344.971 190.671,344.354 193.304,344.354C195.771,344.354 197.904,344.929 199.704,346.079C201.504,347.229 202.871,348.762 203.804,350.679C204.737,352.596 205.204,354.687 205.204,356.954C205.204,357.587 204.996,358.121 204.579,358.554C204.162,358.987 203.604,359.204 202.904,359.204L185.954,359.204C186.221,361.537 187.087,363.354 188.554,364.654C190.021,365.954 192.071,366.604 194.704,366.604C196.104,366.604 197.329,366.471 198.379,366.204C199.429,365.937 200.454,365.554 201.454,365.054C201.721,364.921 202.021,364.854 202.354,364.854C202.887,364.854 203.354,365.037 203.754,365.404C204.154,365.771 204.354,366.237 204.354,366.804C204.354,367.537 203.921,368.154 203.054,368.654C201.754,369.387 200.471,369.937 199.204,370.304C197.937,370.671 196.304,370.854 194.304,370.854ZM200.704,355.504C200.604,353.871 200.179,352.504 199.429,351.404C198.679,350.304 197.754,349.496 196.654,348.979C195.554,348.462 194.437,348.204 193.304,348.204C192.171,348.204 191.054,348.462 189.954,348.979C188.854,349.496 187.937,350.304 187.204,351.404C186.471,352.504 186.054,353.871 185.954,355.504L200.704,355.504Z" style="fill:white;fill-rule:nonzero;stroke:white;stroke-width:1.1px;"/>
                <path d="M213.454,370.604C212.821,370.604 212.287,370.387 211.854,369.954C211.421,369.521 211.204,368.987 211.204,368.354L211.204,346.904C211.204,346.271 211.421,345.729 211.854,345.279C212.287,344.829 212.821,344.604 213.454,344.604C214.087,344.604 214.629,344.829 215.079,345.279C215.529,345.729 215.754,346.271 215.754,346.904L215.754,349.054C218.087,345.921 220.704,344.354 223.604,344.354L223.854,344.354C224.487,344.354 225.012,344.571 225.429,345.004C225.846,345.437 226.054,345.971 226.054,346.604C226.054,347.237 225.837,347.754 225.404,348.154C224.971,348.554 224.421,348.754 223.754,348.754L223.504,348.754C221.904,348.754 220.437,349.146 219.104,349.929C217.771,350.712 216.654,351.787 215.754,353.154L215.754,368.354C215.754,368.987 215.529,369.521 215.079,369.954C214.629,370.387 214.087,370.604 213.454,370.604Z" style="fill:white;fill-rule:nonzero;stroke:white;stroke-width:1.1px;"/>
                <path d="M232.604,370.604C231.971,370.604 231.437,370.387 231.004,369.954C230.571,369.521 230.354,368.987 230.354,368.354L230.354,346.904C230.354,346.271 230.571,345.729 231.004,345.279C231.437,344.829 231.971,344.604 232.604,344.604C233.237,344.604 233.779,344.829 234.229,345.279C234.679,345.729 234.904,346.271 234.904,346.904L234.904,348.954C235.837,347.621 236.962,346.521 238.279,345.654C239.596,344.787 241.304,344.354 243.404,344.354C245.271,344.354 246.871,344.854 248.204,345.854C249.537,346.854 250.487,348.071 251.054,349.504C253.121,346.071 256.187,344.354 260.254,344.354C262.121,344.354 263.679,344.821 264.929,345.754C266.179,346.687 267.104,347.887 267.704,349.354C268.304,350.821 268.604,352.354 268.604,353.954L268.604,368.354C268.604,368.987 268.379,369.521 267.929,369.954C267.479,370.387 266.937,370.604 266.304,370.604C265.671,370.604 265.137,370.387 264.704,369.954C264.271,369.521 264.054,368.987 264.054,368.354L264.054,354.854C264.054,352.687 263.671,351.096 262.904,350.079C262.137,349.062 260.821,348.554 258.954,348.554C257.254,348.554 255.846,348.996 254.729,349.879C253.612,350.762 252.621,351.921 251.754,353.354L251.754,368.354C251.754,368.987 251.529,369.521 251.079,369.954C250.629,370.387 250.087,370.604 249.454,370.604C248.821,370.604 248.287,370.387 247.854,369.954C247.421,369.521 247.204,368.987 247.204,368.354L247.204,354.854C247.204,352.687 246.821,351.096 246.054,350.079C245.287,349.062 243.971,348.554 242.104,348.554C240.404,348.554 238.996,348.996 237.879,349.879C236.762,350.762 235.771,351.921 234.904,353.354L234.904,368.354C234.904,368.987 234.679,369.521 234.229,369.954C233.779,370.387 233.237,370.604 232.604,370.604Z" style="fill:white;fill-rule:nonzero;stroke:white;stroke-width:1.1px;"/>
                <path d="M282.754,370.854C281.287,370.854 279.929,370.554 278.679,369.954C277.429,369.354 276.437,368.479 275.704,367.329C274.971,366.179 274.604,364.854 274.604,363.354C274.604,360.887 275.579,358.921 277.529,357.454C279.479,355.987 282.337,355.254 286.104,355.254L292.154,355.254L292.154,354.854C292.154,352.654 291.612,351.071 290.529,350.104C289.446,349.137 287.754,348.654 285.454,348.654C284.187,348.654 283.062,348.754 282.079,348.954C281.096,349.154 280.004,349.454 278.804,349.854C278.537,349.921 278.321,349.954 278.154,349.954C277.654,349.954 277.221,349.771 276.854,349.404C276.487,349.037 276.304,348.587 276.304,348.054C276.304,347.154 276.737,346.521 277.604,346.154C280.437,344.954 283.321,344.354 286.254,344.354C288.554,344.354 290.496,344.821 292.079,345.754C293.662,346.687 294.829,347.896 295.579,349.379C296.329,350.862 296.704,352.471 296.704,354.204L296.704,368.354C296.704,368.987 296.479,369.521 296.029,369.954C295.579,370.387 295.037,370.604 294.404,370.604C293.771,370.604 293.237,370.387 292.804,369.954C292.371,369.521 292.154,368.987 292.154,368.354L292.154,367.054C289.687,369.587 286.554,370.854 282.754,370.854ZM284.454,366.854C285.921,366.854 287.337,366.496 288.704,365.779C290.071,365.062 291.221,364.171 292.154,363.104L292.154,358.904L286.704,358.904C281.671,358.904 279.154,360.221 279.154,362.854C279.154,364.054 279.562,365.021 280.379,365.754C281.196,366.487 282.554,366.854 284.454,366.854Z" style="fill:white;fill-rule:nonzero;stroke:white;stroke-width:1.1px;"/>
                <path d="M306.604,370.604C305.971,370.604 305.437,370.387 305.004,369.954C304.571,369.521 304.354,368.987 304.354,368.354L304.354,346.904C304.354,346.271 304.571,345.729 305.004,345.279C305.437,344.829 305.971,344.604 306.604,344.604C307.237,344.604 307.779,344.829 308.229,345.279C308.679,345.729 308.904,346.271 308.904,346.904L308.904,348.954C310.171,347.554 311.537,346.437 313.004,345.604C314.471,344.771 316.204,344.354 318.204,344.354C320.037,344.354 321.629,344.787 322.979,345.654C324.329,346.521 325.362,347.704 326.079,349.204C326.796,350.704 327.154,352.354 327.154,354.154L327.154,368.354C327.154,368.987 326.929,369.521 326.479,369.954C326.029,370.387 325.487,370.604 324.854,370.604C324.221,370.604 323.687,370.387 323.254,369.954C322.821,369.521 322.604,368.987 322.604,368.354L322.604,354.654C322.604,350.587 320.771,348.554 317.104,348.554C315.437,348.554 313.946,348.987 312.629,349.854C311.312,350.721 310.071,351.887 308.904,353.354L308.904,368.354C308.904,368.987 308.679,369.521 308.229,369.954C307.779,370.387 307.237,370.604 306.604,370.604Z" style="fill:white;fill-rule:nonzero;stroke:white;stroke-width:1.1px;"/>
                <path d="M342.854,370.604C342.221,370.604 341.687,370.387 341.254,369.954C340.821,369.521 340.604,368.987 340.604,368.354L340.604,339.704L330.404,339.704C329.804,339.704 329.304,339.504 328.904,339.104C328.504,338.704 328.304,338.204 328.304,337.604C328.304,337.004 328.504,336.496 328.904,336.079C329.304,335.662 329.804,335.454 330.404,335.454L355.304,335.454C355.904,335.454 356.412,335.662 356.829,336.079C357.246,336.496 357.454,337.004 357.454,337.604C357.454,338.204 357.246,338.704 356.829,339.104C356.412,339.504 355.904,339.704 355.304,339.704L345.154,339.704L345.154,368.354C345.154,368.987 344.929,369.521 344.479,369.954C344.029,370.387 343.487,370.604 342.854,370.604Z" style="fill:white;fill-rule:nonzero;stroke:white;stroke-width:1.1px;"/>
                <path d="M370.254,370.854C366.187,370.854 363.012,369.696 360.729,367.379C358.446,365.062 357.304,361.804 357.304,357.604C357.304,355.237 357.737,353.054 358.604,351.054C359.471,349.054 360.804,347.437 362.604,346.204C364.404,344.971 366.621,344.354 369.254,344.354C371.721,344.354 373.854,344.929 375.654,346.079C377.454,347.229 378.821,348.762 379.754,350.679C380.687,352.596 381.154,354.687 381.154,356.954C381.154,357.587 380.946,358.121 380.529,358.554C380.112,358.987 379.554,359.204 378.854,359.204L361.904,359.204C362.171,361.537 363.037,363.354 364.504,364.654C365.971,365.954 368.021,366.604 370.654,366.604C372.054,366.604 373.279,366.471 374.329,366.204C375.379,365.937 376.404,365.554 377.404,365.054C377.671,364.921 377.971,364.854 378.304,364.854C378.837,364.854 379.304,365.037 379.704,365.404C380.104,365.771 380.304,366.237 380.304,366.804C380.304,367.537 379.871,368.154 379.004,368.654C377.704,369.387 376.421,369.937 375.154,370.304C373.887,370.671 372.254,370.854 370.254,370.854ZM376.654,355.504C376.554,353.871 376.129,352.504 375.379,351.404C374.629,350.304 373.704,349.496 372.604,348.979C371.504,348.462 370.387,348.204 369.254,348.204C368.121,348.204 367.004,348.462 365.904,348.979C364.804,349.496 363.887,350.304 363.154,351.404C362.421,352.504 362.004,353.871 361.904,355.504L376.654,355.504Z" style="fill:white;fill-rule:nonzero;stroke:white;stroke-width:1.1px;"/>
                <path d="M398.954,370.854C396.554,370.854 394.337,370.321 392.304,369.254C390.271,368.187 388.646,366.654 387.429,364.654C386.212,362.654 385.604,360.304 385.604,357.604C385.604,354.904 386.212,352.554 387.429,350.554C388.646,348.554 390.271,347.021 392.304,345.954C394.337,344.887 396.554,344.354 398.954,344.354C400.721,344.354 402.246,344.579 403.529,345.029C404.812,345.479 406.004,346.054 407.104,346.754C407.771,347.187 408.104,347.771 408.104,348.504C408.104,349.004 407.912,349.462 407.529,349.879C407.146,350.296 406.704,350.504 406.204,350.504C405.837,350.504 405.471,350.404 405.104,350.204C404.004,349.637 403.062,349.229 402.279,348.979C401.496,348.729 400.521,348.604 399.354,348.604C396.487,348.604 394.237,349.429 392.604,351.079C390.971,352.729 390.154,354.904 390.154,357.604C390.154,360.304 390.971,362.479 392.604,364.129C394.237,365.779 396.487,366.604 399.354,366.604C400.521,366.604 401.496,366.479 402.279,366.229C403.062,365.979 404.004,365.571 405.104,365.004C405.471,364.804 405.837,364.704 406.204,364.704C406.704,364.704 407.146,364.912 407.529,365.329C407.912,365.746 408.104,366.204 408.104,366.704C408.104,367.437 407.771,368.021 407.104,368.454C406.004,369.154 404.812,369.729 403.529,370.179C402.246,370.629 400.721,370.854 398.954,370.854Z" style="fill:white;fill-rule:nonzero;stroke:white;stroke-width:1.1px;"/>
                <path d="M416.054,370.604C415.421,370.604 414.887,370.387 414.454,369.954C414.021,369.521 413.804,368.987 413.804,368.354L413.804,335.904C413.804,335.271 414.021,334.729 414.454,334.279C414.887,333.829 415.421,333.604 416.054,333.604C416.687,333.604 417.229,333.829 417.679,334.279C418.129,334.729 418.354,335.271 418.354,335.904L418.354,348.954C419.621,347.554 420.987,346.437 422.454,345.604C423.921,344.771 425.654,344.354 427.654,344.354C429.487,344.354 431.079,344.787 432.429,345.654C433.779,346.521 434.812,347.704 435.529,349.204C436.246,350.704 436.604,352.354 436.604,354.154L436.604,368.354C436.604,368.987 436.379,369.521 435.929,369.954C435.479,370.387 434.937,370.604 434.304,370.604C433.671,370.604 433.137,370.387 432.704,369.954C432.271,369.521 432.054,368.987 432.054,368.354L432.054,354.654C432.054,350.587 430.221,348.554 426.554,348.554C424.887,348.554 423.396,348.987 422.079,349.854C420.762,350.721 419.521,351.887 418.354,353.354L418.354,368.354C418.354,368.987 418.129,369.521 417.679,369.954C417.229,370.387 416.687,370.604 416.054,370.604Z" style="fill:white;fill-rule:nonzero;stroke:white;stroke-width:1.1px;"/>
                <path d="M448.704,370.854C446.271,370.854 444.054,370.287 442.054,369.154C441.321,368.721 440.954,368.104 440.954,367.304C440.954,366.771 441.129,366.296 441.479,365.879C441.829,365.462 442.287,365.254 442.854,365.254C443.187,365.254 443.487,365.321 443.754,365.454C445.287,366.187 446.837,366.554 448.404,366.554C450.204,366.554 451.662,366.037 452.779,365.004C453.896,363.971 454.454,362.021 454.454,359.154L454.454,337.504C454.454,336.871 454.671,336.329 455.104,335.879C455.537,335.429 456.071,335.204 456.704,335.204C457.337,335.204 457.879,335.429 458.329,335.879C458.779,336.329 459.004,336.871 459.004,337.504L459.004,358.854C459.004,363.221 458.029,366.312 456.079,368.129C454.129,369.946 451.671,370.854 448.704,370.854Z" style="fill:white;fill-rule:nonzero;stroke:white;stroke-width:1.1px;"/>
                <path d="M478.804,370.854C476.237,370.854 473.987,370.304 472.054,369.204C470.121,368.104 468.629,366.546 467.579,364.529C466.529,362.512 466.004,360.204 466.004,357.604C466.004,355.004 466.529,352.696 467.579,350.679C468.629,348.662 470.121,347.104 472.054,346.004C473.987,344.904 476.237,344.354 478.804,344.354C481.337,344.354 483.571,344.904 485.504,346.004C487.437,347.104 488.937,348.662 490.004,350.679C491.071,352.696 491.604,355.004 491.604,357.604C491.604,360.204 491.071,362.512 490.004,364.529C488.937,366.546 487.437,368.104 485.504,369.204C483.571,370.304 481.337,370.854 478.804,370.854ZM478.804,366.704C480.171,366.704 481.479,366.387 482.729,365.754C483.979,365.121 485.012,364.121 485.829,362.754C486.646,361.387 487.054,359.654 487.054,357.554C487.054,355.487 486.646,353.771 485.829,352.404C485.012,351.037 483.979,350.046 482.729,349.429C481.479,348.812 480.171,348.504 478.804,348.504C477.404,348.504 476.079,348.812 474.829,349.429C473.579,350.046 472.554,351.037 471.754,352.404C470.954,353.771 470.554,355.487 470.554,357.554C470.554,359.654 470.954,361.387 471.754,362.754C472.554,364.121 473.579,365.121 474.829,365.754C476.079,366.387 477.404,366.704 478.804,366.704Z" style="fill:white;fill-rule:nonzero;stroke:white;stroke-width:1.1px;"/>
                <path d="M511.054,370.854C507.787,370.854 504.937,369.587 502.504,367.054L502.504,368.354C502.504,368.987 502.279,369.521 501.829,369.954C501.379,370.387 500.837,370.604 500.204,370.604C499.571,370.604 499.037,370.387 498.604,369.954C498.171,369.521 497.954,368.987 497.954,368.354L497.954,335.904C497.954,335.271 498.171,334.729 498.604,334.279C499.037,333.829 499.571,333.604 500.204,333.604C500.871,333.604 501.421,333.821 501.854,334.254C502.287,334.687 502.504,335.237 502.504,335.904L502.504,348.154C504.937,345.621 507.787,344.354 511.054,344.354C513.121,344.354 515.079,344.879 516.929,345.929C518.779,346.979 520.279,348.512 521.429,350.529C522.579,352.546 523.154,354.904 523.154,357.604C523.154,360.304 522.579,362.662 521.429,364.679C520.279,366.696 518.779,368.229 516.929,369.279C515.079,370.329 513.121,370.854 511.054,370.854ZM510.404,366.604C512.871,366.604 514.854,365.821 516.354,364.254C517.854,362.687 518.604,360.471 518.604,357.604C518.604,354.737 517.854,352.521 516.354,350.954C514.854,349.387 512.871,348.604 510.404,348.604C508.871,348.604 507.429,348.946 506.079,349.629C504.729,350.312 503.537,351.221 502.504,352.354L502.504,362.854C503.537,363.987 504.729,364.896 506.079,365.579C507.429,366.262 508.871,366.604 510.404,366.604Z" style="fill:white;fill-rule:nonzero;stroke:white;stroke-width:1.1px;"/>
                <path d="M537.754,370.854C534.421,370.854 531.387,370.104 528.654,368.604C528.087,368.204 527.804,367.654 527.804,366.954C527.804,366.421 527.987,365.954 528.354,365.554C528.721,365.154 529.187,364.954 529.754,364.954C530.054,364.954 530.354,365.021 530.654,365.154C531.721,365.621 532.787,365.987 533.854,366.254C534.921,366.521 536.121,366.654 537.454,366.654C541.154,366.654 543.004,365.471 543.004,363.104C543.004,362.337 542.579,361.754 541.729,361.354C540.879,360.954 539.487,360.504 537.554,360.004C535.587,359.537 533.962,359.054 532.679,358.554C531.396,358.054 530.296,357.296 529.379,356.279C528.462,355.262 528.004,353.921 528.004,352.254C528.004,349.921 528.846,348.021 530.529,346.554C532.212,345.087 534.621,344.354 537.754,344.354C540.321,344.354 542.737,344.771 545.004,345.604C545.471,345.737 545.829,345.987 546.079,346.354C546.329,346.721 546.454,347.104 546.454,347.504C546.454,348.037 546.262,348.504 545.879,348.904C545.496,349.304 545.021,349.504 544.454,349.504C544.287,349.504 544.071,349.471 543.804,349.404C541.871,348.804 539.971,348.504 538.104,348.504C536.304,348.504 534.896,348.829 533.879,349.479C532.862,350.129 532.354,350.971 532.354,352.004C532.354,353.004 532.821,353.737 533.754,354.204C534.687,354.671 536.137,355.121 538.104,355.554C540.071,356.054 541.671,356.546 542.904,357.029C544.137,357.512 545.196,358.271 546.079,359.304C546.962,360.337 547.404,361.721 547.404,363.454C547.404,365.587 546.562,367.354 544.879,368.754C543.196,370.154 540.821,370.854 537.754,370.854Z" style="fill:white;fill-rule:nonzero;stroke:white;stroke-width:1.1px;"/>
                <path d="M555.804,370.504C555.037,370.504 554.379,370.229 553.829,369.679C553.279,369.129 553.004,368.471 553.004,367.704L553.004,367.404C553.004,366.637 553.279,365.979 553.829,365.429C554.379,364.879 555.037,364.604 555.804,364.604L556.304,364.604C557.071,364.604 557.729,364.879 558.279,365.429C558.829,365.979 559.104,366.637 559.104,367.404L559.104,367.704C559.104,368.471 558.829,369.129 558.279,369.679C557.729,370.229 557.071,370.504 556.304,370.504L555.804,370.504Z" style="fill:white;fill-rule:nonzero;stroke:white;stroke-width:1.1px;"/>
                <path d="M576.554,370.854C574.487,370.854 572.529,370.329 570.679,369.279C568.829,368.229 567.329,366.696 566.179,364.679C565.029,362.662 564.454,360.304 564.454,357.604C564.454,354.904 565.029,352.546 566.179,350.529C567.329,348.512 568.829,346.979 570.679,345.929C572.529,344.879 574.487,344.354 576.554,344.354C579.821,344.354 582.671,345.621 585.104,348.154L585.104,335.904C585.104,335.237 585.329,334.687 585.779,334.254C586.229,333.821 586.771,333.604 587.404,333.604C588.037,333.604 588.571,333.829 589.004,334.279C589.437,334.729 589.654,335.271 589.654,335.904L589.654,368.354C589.654,368.987 589.437,369.521 589.004,369.954C588.571,370.387 588.037,370.604 587.404,370.604C586.771,370.604 586.229,370.387 585.779,369.954C585.329,369.521 585.104,368.987 585.104,368.354L585.104,367.054C582.671,369.587 579.821,370.854 576.554,370.854ZM577.204,366.604C578.737,366.604 580.179,366.262 581.529,365.579C582.879,364.896 584.071,363.987 585.104,362.854L585.104,352.354C584.071,351.221 582.879,350.312 581.529,349.629C580.179,348.946 578.737,348.604 577.204,348.604C574.737,348.604 572.754,349.387 571.254,350.954C569.754,352.521 569.004,354.737 569.004,357.604C569.004,360.471 569.754,362.687 571.254,364.254C572.754,365.821 574.737,366.604 577.204,366.604Z" style="fill:white;fill-rule:nonzero;stroke:white;stroke-width:1.1px;"/>
                <path d="M608.954,370.854C604.887,370.854 601.712,369.696 599.429,367.379C597.146,365.062 596.004,361.804 596.004,357.604C596.004,355.237 596.437,353.054 597.304,351.054C598.171,349.054 599.504,347.437 601.304,346.204C603.104,344.971 605.321,344.354 607.954,344.354C610.421,344.354 612.554,344.929 614.354,346.079C616.154,347.229 617.521,348.762 618.454,350.679C619.387,352.596 619.854,354.687 619.854,356.954C619.854,357.587 619.646,358.121 619.229,358.554C618.812,358.987 618.254,359.204 617.554,359.204L600.604,359.204C600.871,361.537 601.737,363.354 603.204,364.654C604.671,365.954 606.721,366.604 609.354,366.604C610.754,366.604 611.979,366.471 613.029,366.204C614.079,365.937 615.104,365.554 616.104,365.054C616.371,364.921 616.671,364.854 617.004,364.854C617.537,364.854 618.004,365.037 618.404,365.404C618.804,365.771 619.004,366.237 619.004,366.804C619.004,367.537 618.571,368.154 617.704,368.654C616.404,369.387 615.121,369.937 613.854,370.304C612.587,370.671 610.954,370.854 608.954,370.854ZM615.354,355.504C615.254,353.871 614.829,352.504 614.079,351.404C613.329,350.304 612.404,349.496 611.304,348.979C610.204,348.462 609.087,348.204 607.954,348.204C606.821,348.204 605.704,348.462 604.604,348.979C603.504,349.496 602.587,350.304 601.854,351.404C601.121,352.504 600.704,353.871 600.604,355.504L615.354,355.504Z" style="fill:white;fill-rule:nonzero;stroke:white;stroke-width:1.1px;"/>
            </g>
            <g transform="matrix(0.0489109,-7.86853e-34,-7.86853e-34,-0.0489109,79.9276,632.901)">
                <path d="M3200,11039C3551,11009 3893,10890 4223,10683C4329,10616 4360,10572 4367,10477C4371,10423 4368,10408 4343,10360C4325,10326 4298,10294 4271,10275C4234,10249 4218,10245 4151,10242L4074,10238L3949,10303C3558,10507 3250,10582 2871,10567C2516,10552 2222,10438 1967,10216C1822,10089 1675,9864 1607,9660C1523,9413 1502,9049 1555,8771C1618,8441 1799,8136 2044,7946C2310,7739 2596,7649 2990,7648C3300,7647 3545,7701 3838,7835L3920,7873L3920,8837L3463,8843C3205,8847 2989,8854 2969,8860C2950,8865 2915,8886 2893,8905C2838,8951 2816,9010 2822,9092C2827,9177 2868,9238 2943,9275L2996,9301L3586,9298L4175,9295L4226,9268C4256,9252 4291,9223 4309,9198C4372,9113 4371,9120 4368,8388L4365,7725L4342,7668C4308,7583 4233,7507 4137,7459C3882,7331 3572,7234 3265,7189C3148,7171 2766,7171 2640,7188C1987,7279 1494,7623 1224,8175C1133,8363 1074,8556 1044,8767C1022,8923 1022,9240 1044,9410C1167,10346 1853,10994 2779,11049C2908,11057 3028,11054 3200,11039ZM7884,10971C7905,10964 7945,10938 7971,10913C8097,10796 8061,10604 7900,10531C7869,10517 7792,10515 7295,10512L6725,10510L6720,10207C6717,10041 6713,9348 6712,8667C6711,7871 6706,7413 6700,7383C6686,7323 6669,7292 6628,7254C6499,7132 6300,7169 6226,7329L6205,7375L6213,10519L5634,10522C5063,10525 5054,10525 5015,10547C4931,10592 4890,10661 4890,10757C4891,10854 4939,10931 5025,10972C5064,10990 5110,10990 6455,10987C7519,10984 7854,10980 7884,10971ZM10264,10003C10310,9980 11567,8723 11593,8675C11618,8627 11621,8539 11598,8496C11578,8457 10350,7218 10293,7179C10213,7123 10106,7127 10039,7187C10017,7207 9992,7237 9984,7253C9964,7291 9964,7377 9985,7426C9996,7454 10160,7624 10560,8025L11120,8585L10555,9150C10138,9567 9987,9724 9978,9750C9919,9927 10099,10087 10264,10003ZM8687,9956C8751,9926 8815,9862 8844,9801C8874,9735 8874,9585 8844,9519C8813,9453 8757,9395 8692,9363C8643,9339 8626,9336 8541,9337C8464,9337 8435,9341 8395,9359C8258,9419 8183,9568 8210,9722C8224,9796 8239,9828 8287,9881C8353,9954 8415,9978 8540,9979C8620,9980 8643,9976 8687,9956ZM8690,7802C8807,7741 8863,7647 8864,7510C8864,7436 8861,7416 8837,7368C8803,7298 8727,7228 8663,7206C8595,7183 8465,7185 8397,7210C8253,7264 8176,7403 8200,7568C8215,7673 8275,7754 8375,7802C8431,7829 8442,7831 8540,7828C8627,7826 8653,7821 8690,7802ZM13999,7520C14023,7506 14057,7478 14074,7457C14103,7421 14105,7412 14105,7341C14105,7275 14101,7258 14080,7228C14046,7178 13987,7142 13926,7135C13898,7132 13472,7130 12980,7132C11984,7135 12057,7130 11993,7204C11889,7322 11950,7502 12105,7539C12129,7544 12510,7548 13050,7547L13955,7545L13999,7520Z" style="fill:white;fill-rule:nonzero;"/>
            </g>
        </g>
    </g>
</svg>
