<?xml version="1.0" encoding="utf-8"?>
<!-- Generator: Adobe Illustrator 19.0.0, SVG Export Plug-In . SVG Version: 6.00 Build 0)  -->
<svg version="1.1" id="Layer_1" xmlns="http://www.w3.org/2000/svg" xmlns:xlink="http://www.w3.org/1999/xlink" x="0px" y="0px"
	 viewBox="0 0 500 500" style="enable-background:new 0 0 500 500;" xml:space="preserve">
<style type="text/css">
	.st0{fill:#161312;}
</style>
<g id="XMLID_17_">
	<path id="XMLID_19_" class="st0" d="M139.3,243h-30.3c-0.8,0-1.4,0.6-1.4,1.4v14.8c0,0.8,0.6,1.4,1.4,1.4h11.8V279
		c0,0-2.7,0.9-10,0.9c-8.6,0-20.7-3.2-20.7-29.7c0-26.6,12.6-30,24.4-30c10.2,0,14.6,1.8,17.4,2.7c0.9,0.3,1.7-0.6,1.7-1.4l3.4-14.3
		c0-0.4-0.1-0.8-0.5-1.1c-1.1-0.8-8.1-4.7-25.6-4.7c-20.2,0-40.9,8.6-40.9,49.9c0,41.3,23.7,47.5,43.7,47.5
		c16.5,0,26.6-7.1,26.6-7.1c0.4-0.2,0.5-0.8,0.5-1.1v-46.1C140.8,243.6,140.1,243,139.3,243"/>
	<path id="XMLID_23_" class="st0" d="M295.2,206.3c0-0.8-0.6-1.4-1.4-1.4h-17c-0.8,0-1.4,0.6-1.4,1.4l0,32.9h-26.6v-32.9
		c0-0.8-0.6-1.4-1.4-1.4h-17c-0.8,0-1.4,0.6-1.4,1.4v89.1c0,0.8,0.6,1.4,1.4,1.4h17c0.8,0,1.4-0.6,1.4-1.4v-38.1h26.6l0,38.1
		c0,0.8,0.6,1.4,1.4,1.4h17.1c0.8,0,1.4-0.6,1.4-1.4V206.3"/>
	<path id="XMLID_24_" class="st0" d="M171.5,218c0-6.1-4.9-11.1-11-11.1c-6.1,0-11,5-11,11.1c0,6.1,4.9,11.1,11,11.1
		C166.6,229.1,171.5,224.1,171.5,218"/>
	<path id="XMLID_25_" class="st0" d="M170.3,276.6c0-2.3,0-41.1,0-41.1c0-0.8-0.6-1.4-1.4-1.4h-17c-0.8,0-1.5,0.8-1.5,1.6
		c0,0,0,49.5,0,58.9c0,1.7,1.1,2.2,2.5,2.2c0,0,7.2,0,15.3,0c1.7,0,2.1-0.8,2.1-2.3C170.3,291.4,170.3,279,170.3,276.6"/>
	<path id="XMLID_26_" class="st0" d="M360,234.2h-16.9c-0.8,0-1.4,0.6-1.4,1.4v43.7c0,0-4.3,3.1-10.4,3.1c-6.1,0-7.7-2.8-7.7-8.7
		c0-6,0-38.1,0-38.1c0-0.8-0.6-1.4-1.4-1.4H305c-0.8,0-1.4,0.6-1.4,1.4c0,0,0,23.3,0,41c0,17.7,9.9,22.1,23.5,22.1
		c11.1,0,20.1-6.2,20.1-6.2s0.4,3.2,0.6,3.6c0.2,0.4,0.7,0.8,1.2,0.8l10.9,0c0.8,0,1.4-0.6,1.4-1.4l0-59.8
		C361.4,234.8,360.8,234.2,360,234.2"/>
	<path id="XMLID_29_" class="st0" d="M399.5,282.4c-5.9-0.2-9.8-2.8-9.8-2.8v-28.2c0,0,3.9-2.4,8.7-2.8c6.1-0.5,12,1.3,12,15.8
		C410.4,279.6,407.7,282.6,399.5,282.4z M406.2,232.2c-9.6,0-16.1,4.3-16.1,4.3v-30.2c0-0.8-0.6-1.4-1.4-1.4h-17.1
		c-0.8,0-1.4,0.6-1.4,1.4v89.1c0,0.8,0.6,1.4,1.4,1.4h11.9c0.5,0,0.9-0.3,1.2-0.8c0.3-0.5,0.7-4.1,0.7-4.1s7,6.6,20.2,6.6
		c15.5,0,24.4-7.9,24.4-35.3C430,235.8,415.8,232.2,406.2,232.2"/>
	<path id="XMLID_30_" class="st0" d="M219.2,234h-12.8l0-16.9c0-0.6-0.3-1-1.1-1h-17.4c-0.7,0-1,0.3-1,0.9v17.4c0,0-8.7,2.1-9.3,2.3
		c-0.6,0.2-1,0.7-1,1.4v11c0,0.8,0.6,1.4,1.4,1.4h8.9c0,0,0,11.5,0,26.4c0,19.6,13.7,21.5,23,21.5c4.2,0,9.3-1.4,10.1-1.7
		c0.5-0.2,0.8-0.7,0.8-1.3l0-12.1c0-0.8-0.7-1.4-1.4-1.4c-0.7,0-2.6,0.3-4.6,0.3c-6.3,0-8.4-2.9-8.4-6.7c0-3.8,0-25.1,0-25.1h12.8
		c0.8,0,1.4-0.6,1.4-1.4v-13.7C220.6,234.7,220,234,219.2,234"/>
</g>
</svg>
