<svg width="161" height="40" viewBox="0 0 161 40" version="1.1" xmlns="http://www.w3.org/2000/svg" xmlns:xlink="http://www.w3.org/1999/xlink">
<title>white logo</title>
<desc>Created using Figma</desc>
<g id="Canvas" transform="translate(-700 -5277)">
<g id="white logo">
<g id="Page 1">
<g id="Fill 1">
<use xlink:href="#path0_fill" transform="translate(711.671 5287.63)" fill="#FEFEFE"/>
</g>
<g id="Fill 3">
<use xlink:href="#path1_fill" transform="translate(706.021 5277)" fill="#FEFEFE"/>
</g>
<g id="Group 7">
<mask id="mask0_outline" mask-type="alpha">
<g id="Clip 6">
<use xlink:href="#path2_fill" transform="translate(700 5295.22)" fill="#FFFFFF"/>
</g>
</mask>
<g id="Fill 5" mask="url(#mask0_outline)">
<use xlink:href="#path3_fill" transform="translate(700 5295.22)" fill="#FEFEFE"/>
</g>
</g>
<g id="Fill 8">
<use xlink:href="#path4_fill" transform="translate(729.96 5287.63)" fill="#FEFEFE"/>
</g>
<g id="Fill 10">
<use xlink:href="#path5_fill" transform="translate(752.204 5284.88)" fill="#FEFEFE"/>
</g>
<g id="Fill 12">
<use xlink:href="#path6_fill" transform="translate(777.512 5292.29)" fill="#FEFEFE"/>
</g>
<g id="Fill 14">
<use xlink:href="#path7_fill" transform="translate(797.133 5292.29)" fill="#FEFEFE"/>
</g>
<mask id="mask1_outline" mask-type="alpha">
<g id="Clip 17">
<use xlink:href="#path8_fill" transform="translate(700 5277)" fill="#FFFFFF"/>
</g>
</mask>
<g id="Fill 16" mask="url(#mask1_outline)">
<use xlink:href="#path9_fill" transform="translate(815.422 5283.91)" fill="#FEFEFE"/>
</g>
<g id="Fill 18" mask="url(#mask1_outline)">
<use xlink:href="#path10_fill" transform="translate(823.479 5284.88)" fill="#FEFEFE"/>
</g>
<g id="Fill 19" mask="url(#mask1_outline)">
<use xlink:href="#path11_fill" transform="translate(830.723 5283.52)" fill="#FEFEFE"/>
</g>
<g id="Fill 20" mask="url(#mask1_outline)">
<use xlink:href="#path12_fill" transform="translate(842.646 5292.68)" fill="#FEFEFE"/>
</g>
</g>
</g>
</g>
<defs>
<path id="path0_fill" fill-rule="evenodd" d="M 1.38958 2.9457C 2.13188 2.9457 2.73358 2.344 2.73358 1.6017C 2.73358 1.09261 2.45067 0.649939 2.03345 0.421818C 2.55079 0.153697 3.13673 0 3.75927 0C 5.83564 0 7.51879 1.68315 7.51879 3.75927C 7.51879 5.83564 5.83564 7.51879 3.75927 7.51879C 1.68315 7.51879 0 5.83564 0 3.75927C 0 3.26158 0.0989091 2.78739 0.274667 2.35248C 0.516121 2.7103 0.925333 2.9457 1.38958 2.9457Z"/>
<path id="path1_fill" fill-rule="evenodd" d="M 9.19498 4.63889C 13.3734 4.63889 16.9729 7.15695 18.5615 10.7543C 20.1501 7.15695 23.7496 4.63889 27.9278 4.63889C 31.7138 4.63889 35.0236 6.70652 36.7942 9.77028C 36.9773 4.97246 36.8849 0.870889 36.8839 0.828707C 36.8781 0.578525 36.762 0.343616 36.5666 0.18701C 36.3717 0.0301615 36.1179 -0.0326264 35.8713 0.0163433C 31.7382 0.831374 29.0837 2.84907 27.8153 4.04834C 24.9877 2.48107 21.7976 1.65537 18.5458 1.65537C 15.2452 1.65537 12.0141 2.50362 9.15764 4.11428C 7.88734 2.89295 5.22382 0.843252 1.03158 0.0163433C 0.785036 -0.0328688 0.530491 0.0304039 0.335097 0.18798C 0.139703 0.345313 0.0240665 0.581192 0.019218 0.831858C 0.0182483 0.876949 -0.0651456 5.29028 0.123218 10.1426C 1.83473 6.87501 5.25776 4.63889 9.19498 4.63889Z"/>
<path id="path2_fill" fill-rule="evenodd" d="M 3.28546e-21 0L 3.28546e-21 21.7118L 24.4573 21.7118L 48.9145 21.7118L 48.9145 3.44506e-15L 0 3.44506e-15L 3.28546e-21 0Z"/>
<path id="path3_fill" fill-rule="evenodd" d="M 40.2334 12.0757C 39.9238 12.0858 32.7852 12.409 30.9018 19.9741C 30.8332 20.25 30.5859 20.4342 30.3141 20.4342C 30.2656 20.4342 30.2164 20.4281 30.1675 20.4158C 29.8426 20.335 29.6445 20.0063 29.7255 19.6815C 31.8356 11.2058 40.1141 10.8664 40.1975 10.864C 40.5396 10.8546 40.8111 11.1176 40.821 11.4521C 40.8307 11.7867 40.5677 12.0655 40.2334 12.0757ZM 18.6404 20.4158C 18.5914 20.4281 18.542 20.4342 18.4935 20.4342C 18.2217 20.4342 17.9747 20.25 17.9059 19.9741C 16.0154 12.3804 8.64913 12.0778 8.57471 12.0756C 8.24016 12.066 7.97689 11.7867 7.98659 11.4521C 7.99628 11.1234 8.26562 10.8638 8.59216 10.8638C 8.59822 10.8638 8.60404 10.8638 8.61034 10.864C 8.6935 10.8664 16.972 11.2058 19.0821 19.6815C 19.1631 20.0063 18.9653 20.335 18.6404 20.4158ZM 48.5408 10.2082C 46.4108 9.32364 44.4404 8.86594 42.7054 8.66424C 42.8925 8.10861 43.0545 7.54182 43.1905 6.96485C 44.4581 6.91976 45.8542 6.99006 47.3694 7.24267C 47.6981 7.29794 48.0118 7.07491 48.0668 6.74473C 48.1221 6.41455 47.8991 6.1023 47.5689 6.04727C 46.0811 5.79903 44.701 5.71297 43.4385 5.73794C 43.6106 4.70788 43.7049 3.65188 43.7049 2.57406C 43.7049 1.77527 43.6378 1.01358 43.5449 0.216485C 42.0952 4.10982 38.3413 6.89091 33.9493 6.89091C 31.5573 6.89091 29.3558 6.06473 27.6118 4.68412C 27.7711 4.8737 27.8055 5.14885 27.6746 5.37576L 25.423 9.27588C 25.3148 9.46352 25.1148 9.57891 24.8981 9.57891C 24.6819 9.57891 24.4816 9.46352 24.3733 9.27588L 22.1214 5.37576C 21.9541 5.08606 22.0535 4.71539 22.3432 4.54788C 22.6327 4.38085 23.0038 4.47976 23.1711 4.7697L 24.8981 7.76073L 26.6249 4.7697C 26.7878 4.48752 27.143 4.38836 27.4285 4.53697C 26.2108 3.52727 25.23 2.24121 24.5827 0.775758C 22.9941 4.37309 19.3948 6.89091 15.2164 6.89091C 10.7437 6.89091 6.93424 4.00606 5.5449 0C 5.42878 0.781818 5.42781 1.57285 5.42902 2.34545L 5.42927 2.57406C 5.42927 3.65479 5.52381 4.71321 5.6969 5.74545C 4.37448 5.70545 2.92139 5.78448 1.34587 6.04727C 1.01545 6.1023 0.792418 6.41455 0.84769 6.74473C 0.902478 7.07491 1.21593 7.29745 1.54514 7.24267C 3.14708 6.97552 4.61933 6.91176 5.94587 6.97527C 6.07945 7.54085 6.23824 8.09649 6.42102 8.6417C 4.63508 8.8303 2.59145 9.28727 0.373751 10.2082C 0.0644177 10.3365 -0.0817642 10.6912 0.0464783 11.0002C 0.143448 11.2335 0.36866 11.3741 0.606478 11.3741C 0.683812 11.3741 0.762599 11.3593 0.838721 11.3275C 3.05811 10.4058 5.10248 9.98133 6.86199 9.82958C 9.72648 16.7939 16.5818 21.7118 24.567 21.7118C 32.5459 21.7118 39.397 16.8019 42.2656 9.84606C 43.9381 10.0126 45.918 10.4315 48.0758 11.3275C 48.1519 11.3593 48.2307 11.3741 48.3081 11.3741C 48.5459 11.3741 48.7713 11.2335 48.8681 11.0002C 48.9963 10.6912 48.8501 10.3365 48.5408 10.2082Z"/>
<path id="path4_fill" fill-rule="evenodd" d="M 5.48533 0.421818C 4.968 0.153697 4.38206 0 3.75952 0C 1.68315 0 0 1.68315 0 3.75927C 0 5.83564 1.68315 7.51879 3.75952 7.51879C 5.83564 7.51879 7.51879 5.83564 7.51879 3.75927C 7.51879 3.26158 7.41988 2.78739 7.24412 2.35248C 7.00267 2.7103 6.59345 2.9457 6.12921 2.9457C 5.38691 2.9457 4.78521 2.344 4.78521 1.6017C 4.78521 1.09261 5.06812 0.649939 5.48533 0.421818Z"/>
<path id="path5_fill" fill-rule="evenodd" d="M 22.0579 21.9607C 20.5636 22.7408 19.0044 23.3042 17.3799 23.6502C 15.7559 23.9964 14.0989 24.1699 12.4095 24.1699C 10.6116 24.1699 8.95467 23.8882 7.43927 23.3253C 5.92267 22.7624 4.61261 21.9559 3.50836 20.905C 2.40364 19.8548 1.54279 18.5825 0.925333 17.0878C 0.308364 15.5932 0 13.9261 0 12.0848C 0 10.2441 0.308364 8.57648 0.925333 7.08218C 1.54279 5.58788 2.40364 4.31539 3.50836 3.26473C 4.61261 2.21455 5.92267 1.40776 7.43927 0.844364C 8.95467 0.281455 10.6116 0 12.4095 0C 14.2502 0 15.945 0.222061 17.4938 0.666182C 19.0417 1.11006 20.4015 1.87345 21.5712 2.95612L 17.9973 6.85479C 17.3038 6.13988 16.5241 5.59855 15.6582 5.23006C 14.792 4.8623 13.7088 4.67806 12.4095 4.67806C 11.3263 4.67806 10.3469 4.8623 9.46958 5.23006C 8.59273 5.59855 7.83952 6.11297 7.21164 6.77309C 6.58352 7.43442 6.10158 8.21891 5.76606 9.12873C 5.43006 10.0383 5.26255 11.0238 5.26255 12.0848C 5.26255 13.168 5.43006 14.1588 5.76606 15.0575C 6.10158 15.9564 6.58352 16.736 7.21164 17.3966C 7.83952 18.0575 8.59273 18.5716 9.46958 18.9396C 10.3469 19.3081 11.3263 19.4919 12.4095 19.4919C 13.5144 19.4919 14.4669 19.3675 15.2686 19.1185C 16.0693 18.8693 16.7084 18.6148 17.1855 18.3552L 17.1855 14.6187L 13.0594 14.6187L 13.0594 9.94061L 22.0579 9.94061L 22.0579 21.9607Z"/>
<path id="path6_fill" fill-rule="evenodd" d="M 4.87299 8.28421C 4.87299 9.47548 5.21383 10.4394 5.89626 11.1756C 6.57796 11.9121 7.5365 12.2798 8.77093 12.2798C 10.0053 12.2798 10.9639 11.9121 11.6461 11.1756C 12.3285 10.4394 12.6693 9.47548 12.6693 8.28421C 12.6693 7.09342 12.3285 6.12906 11.6461 5.39281C 10.9639 4.65681 10.0053 4.28809 8.77093 4.28809C 7.5365 4.28809 6.57796 4.65681 5.89626 5.39281C 5.21383 6.12906 4.87299 7.09342 4.87299 8.28421ZM 0 8.28412C 0 7.02812 0.227394 5.89139 0.681697 4.87297C 1.13673 3.85503 1.75903 2.98376 2.54982 2.2577C 3.34036 1.53261 4.27176 0.974545 5.34351 0.584485C 6.416 0.194909 7.55806 0 8.77091 0C 9.98376 0 11.1265 0.194909 12.1983 0.584485C 13.2708 0.974545 14.2015 1.53261 14.9925 2.2577C 15.7828 2.98376 16.4058 3.85503 16.8601 4.87297C 17.3152 5.89139 17.5425 7.02812 17.5425 8.28412C 17.5425 9.54012 17.3152 10.6773 16.8601 11.6953C 16.4058 12.7137 15.7828 13.585 14.9925 14.3101C 14.2015 15.0361 13.2708 15.5937 12.1983 15.9833C 11.1265 16.3733 9.98376 16.5682 8.77091 16.5682C 7.55806 16.5682 6.416 16.3733 5.34351 15.9833C 4.27176 15.5937 3.34036 15.0361 2.54982 14.3101C 1.75903 13.585 1.13673 12.7137 0.681697 11.6953C 0.227394 10.6773 0 9.54012 0 8.28412Z"/>
<path id="path7_fill" fill-rule="evenodd" d="M 9.48628 9.25879C 9.11731 9.25879 8.65768 9.27503 8.10543 9.30752C 7.55319 9.33976 7.02228 9.43212 6.51319 9.5834C 6.00434 9.7354 5.57162 9.96279 5.21404 10.2658C 4.85695 10.5693 4.67804 10.9919 4.67804 11.5327C 4.67804 12.1172 4.92652 12.5512 5.42519 12.8321C 5.92337 13.1141 6.44313 13.2544 6.98446 13.2544C 7.46083 13.2544 7.92119 13.1897 8.36531 13.0595C 8.80895 12.9298 9.20434 12.7461 9.55101 12.5073C 9.89743 12.2692 10.1736 11.9664 10.3794 11.5975C 10.5852 11.2297 10.6877 10.797 10.6877 10.2983L 10.6877 9.25879L 9.48628 9.25879ZM 10.6878 14.1968L 10.623 14.1968C 10.0817 15.0412 9.36097 15.648 8.46255 16.016C 7.56364 16.3838 6.616 16.5685 5.62036 16.5685C 4.88339 16.5685 4.17455 16.4655 3.49212 16.2596C 2.80994 16.0543 2.20921 15.7457 1.68945 15.3341C 1.1697 14.9229 0.758061 14.4136 0.454788 13.8068C 0.151273 13.2012 0 12.4967 0 11.6955C 0 10.7857 0.167515 10.0175 0.503515 9.38861C 0.83903 8.76073 1.29382 8.24097 1.86764 7.82933C 2.44145 7.41818 3.09673 7.09842 3.83321 6.87103C 4.56945 6.64364 5.33285 6.47612 6.12388 6.36752C 6.91418 6.25939 7.70448 6.19467 8.49551 6.17236C 9.28533 6.15127 10.0162 6.14012 10.6878 6.14012C 10.6878 5.27394 10.3794 4.58618 9.76242 4.07733C 9.14497 3.56849 8.41382 3.31394 7.56945 3.31394C 6.76776 3.31394 6.03685 3.48194 5.37648 3.81745C 4.71539 4.15345 4.12582 4.61333 3.6063 5.19782L 1.00703 2.53382C 1.91685 1.68945 2.97745 1.05576 4.19079 0.633697C 5.40364 0.211394 6.65964 0 7.95903 0C 9.38861 0 10.5632 0.178909 11.4841 0.536C 12.4044 0.893576 13.1406 1.41867 13.6933 2.112C 14.2453 2.80509 14.6296 3.65479 14.8463 4.66182C 15.0628 5.66885 15.1714 6.8337 15.1714 8.15418L 15.1714 16.1784L 10.6878 16.1784L 10.6878 14.1968Z"/>
<path id="path8_fill" fill-rule="evenodd" d="M 0 39.9312L 160.513 39.9312L 160.513 0L 0 0L 0 39.9312Z"/>
<path id="path9_fill" fill-rule="evenodd" d="M 0 24.56L 4.87297 24.56L 4.87297 0L 0 0L 0 24.56Z"/>
<path id="path10_fill" fill-rule="evenodd" d="M 0.389587 23.5852L 5.26256 23.5852L 5.26256 7.79688L 0.389587 7.79688L 0.389587 23.5852ZM 0 2.82594C 0 2.0463 0.276121 1.38036 0.828121 0.828121C 1.38036 0.275879 2.04655 0 2.82618 0C 3.60558 0 4.27176 0.275879 4.824 0.828121C 5.37648 1.38036 5.65261 2.0463 5.65261 2.82594C 5.65261 3.60558 5.37648 4.27176 4.824 4.82376C 4.27176 5.37648 3.60558 5.65261 2.82618 5.65261C 2.04655 5.65261 1.38036 5.37648 0.828121 4.82376C 0.276121 4.27176 0 3.60558 0 2.82594Z"/>
<path id="path11_fill" fill-rule="evenodd" d="M 3.21624 13.0596L 0 13.0596L 0 9.1617L 3.21624 9.1617L 3.21624 6.36752C 3.21624 5.50133 3.29188 4.68412 3.44364 3.91467C 3.59491 3.14642 3.88727 2.46909 4.32048 1.88436C 4.75394 1.29988 5.37673 0.839515 6.18861 0.503515C 7.00073 0.168 8.06715 0 9.38861 0C 9.88679 0 10.3741 0.022303 10.8507 0.0649697C 11.3265 0.108606 11.7927 0.184242 12.2478 0.292364L 12.0201 4.41818C 11.7382 4.3103 11.4783 4.22909 11.2407 4.17455C 11.0019 4.12097 10.7312 4.09358 10.4281 4.09358C 9.64849 4.09358 9.064 4.26158 8.67394 4.59709C 8.28436 4.93309 8.08921 5.62036 8.08921 6.65988L 8.08921 9.1617L 11.6955 9.1617L 11.6955 13.0596L 8.08921 13.0596L 8.08921 24.9501L 3.21624 24.9501L 3.21624 13.0596Z"/>
<path id="path12_fill" fill-rule="evenodd" d="M 10.7207 18.3547C 10.3961 19.1995 10.0817 19.9467 9.77842 20.5966C 9.47491 21.2461 9.09091 21.7927 8.6257 22.2368C 8.15952 22.6805 7.56945 23.0165 6.85479 23.2439C 6.13988 23.4715 5.1983 23.5855 4.02861 23.5855C 2.77212 23.5855 1.55976 23.3903 0.390061 23.0002L 1.04 19.0046C 1.77576 19.3292 2.5343 19.4919 3.31394 19.4919C 3.85479 19.4919 4.29915 19.432 4.64558 19.313C 4.992 19.1942 5.27927 19.0208 5.50667 18.7935C 5.73406 18.5658 5.92339 18.2899 6.07515 17.9651C 6.22642 17.6405 6.38909 17.2611 6.56242 16.8279L 6.92 15.9185L 0 0L 5.26303 0L 9.32364 10.4281L 9.38909 10.4281L 12.865 0L 17.8679 0L 10.7207 18.3547Z"/>
</defs>
</svg>
