<?xml version="1.0" encoding="utf-8"?>
<!-- Generator: Adobe Illustrator 21.0.0, SVG Export Plug-In . SVG Version: 6.00 Build 0)  -->
<svg version="1.1" id="Layer_1" xmlns="http://www.w3.org/2000/svg" xmlns:xlink="http://www.w3.org/1999/xlink" x="0px" y="0px"
	 width="161px" height="40px" viewBox="0 0 161 40" style="enable-background:new 0 0 161 40;" xml:space="preserve">
<style type="text/css">
	.st0{fill:url(#gradient-fill);}
	.st1{fill:url(#gradient-fill);}
	.st2{fill:url(#gradient-fill);}
	.st3{fill:#E61F62;}
	.st4{fill:url(#gradient-fill);}
	.st5{fill:url(#gradient-fill);}
	.st6{fill:url(#gradient-fill);}
	.st7{fill:url(#gradient-fill);}
	.st8{fill:url(#gradient-fill);}
	.st9{fill:url(#gradient-fill);}
	.st10{fill:url(#gradient-fill);}
	.st11{fill:url(#gradient-fill);}
	.st12{fill:url(#gradient-fill);}
	.st13{fill:url(#gradient-fill);}
	.st14{fill:url(#gradient-fill);}
	.st15{fill:url(#gradient-fill);}
	.st16{fill:url(#gradient-fill);}
	.st17{fill:url(#gradient-fill);}
</style>
<title>Desktop</title>
<desc>Created with Sketch.</desc>
<g id="Page-1">
	<g id="Desktop">
		<g id="Group" transform="translate(201.000000, 144.000000)">

				<linearGradient id="gradient-fill"
					x1="0%" y1="0%"
					x2="140%" y2="0%"
					gradientTransform="rotate(45)">
				<stop  offset="0" style="stop-color:#CE1198"/>
				<stop  offset="0.5" style="stop-color:#EA1F55"/>
				<stop  offset="1" style="stop-color:#F9420D"/>
			</linearGradient>
			<path id="Fill-20" class="st0" d="M-193.3-133.1c0,0-0.6,1.6-0.7,2.9c0,0.8,0.1,1.8,0.2,2.6c0.1,0.9,0.2,1.2,0.1,1.5
				c-0.3,0.9-0.3,1.8-0.3,2.8l0,0.2c0,9.6,7.8,17.4,17.4,17.4s17.4-7.8,17.4-17.4c0-0.9-0.1-1.9-0.2-2.9c-0.1-0.6,0-1.2,0.1-1.8
				c0.1-0.6,0.2-1.2,0.1-2c-0.2-1.3-0.9-3.6-0.9-3.7c0-0.1,0-0.2,0-0.3c0.1-3.5,0.1-6.6,0.1-8.2c-3.6,1-5.8,2.9-6.6,3.8
				c-0.3,0.3-0.7,0.3-1.1,0.1c-2.7-1.6-5.8-2.5-8.9-2.5c-3.2,0-6.3,0.9-9,2.5c-0.3,0.2-0.8,0.1-1.1-0.1c-0.8-0.9-3-2.9-6.7-3.8
				c0,1.6,0,4.9,0.1,8.5C-193.2-133.3-193.2-133.2-193.3-133.1 M-176.6-104c-10.5,0-19.1-8.5-19.1-19.1l0-0.2c0-1.1,0-2.2,0.3-3.3
				c0-0.2-0.1-0.5-0.1-0.8c-0.1-0.8-0.3-2-0.2-2.9c0.1-1.3,0.5-2.7,0.7-3.2c-0.2-4.9-0.1-9.4-0.1-9.4c0-0.2,0.1-0.5,0.3-0.6
				c0.2-0.2,0.4-0.2,0.7-0.2c4.2,0.8,6.8,2.9,8.1,4.1c2.8-1.6,6.1-2.4,9.3-2.4c3.2,0,6.4,0.8,9.2,2.4c1.3-1.2,3.9-3.2,8-4
				c0.2,0,0.5,0,0.7,0.2c0.2,0.2,0.3,0.4,0.3,0.6c0,0,0.1,4.3-0.1,9.2c0.2,0.5,0.7,2.5,0.9,3.8c0.1,1.1,0,1.9-0.1,2.5
				c-0.1,0.5-0.2,0.9-0.1,1.2c0.1,1.1,0.3,2.1,0.3,3.1C-157.5-112.5-166.1-104-176.6-104"/>

			<path id="Fill-21" class="st1" d="M-176.2-118.5c-0.2,0-0.4-0.1-0.5-0.3l-2.3-3.9c-0.2-0.3-0.1-0.7,0.2-0.8
				c0.3-0.2,0.7-0.1,0.8,0.2l1.7,3l1.7-3c0.2-0.3,0.5-0.4,0.8-0.2c0.3,0.2,0.4,0.5,0.2,0.8l-2.3,3.9
				C-175.8-118.7-176-118.5-176.2-118.5"/>

			<path id="Fill-22" class="st2" d="M-185.7-137.7c-4.6,0-8.3,3.7-8.3,8.3c0,4.6,3.7,8.3,8.3,8.3c4.6,0,8.3-3.7,8.3-8.3
				C-177.4-134-181.1-137.7-185.7-137.7 M-185.7-119.5c-5.5,0-10-4.5-10-10c0-5.5,4.5-10,10-10c5.5,0,10,4.5,10,10
				C-175.7-123.9-180.2-119.5-185.7-119.5"/>
			<path id="Fill-23" class="st3" d="M-185.7-133.2c-0.6,0-1.2,0.2-1.7,0.4c0.4,0.2,0.7,0.7,0.7,1.2c0,0.7-0.6,1.3-1.3,1.3
				c-0.5,0-0.9-0.2-1.1-0.6c-0.2,0.4-0.3,0.9-0.3,1.4c0,2.1,1.7,3.7,3.7,3.7c2.1,0,3.7-1.7,3.7-3.7
				C-181.9-131.5-183.6-133.2-185.7-133.2"/>

			<path id="Fill-24" class="st4" d="M-167.4-137.7c-4.6,0-8.3,3.7-8.3,8.3c0,4.6,3.7,8.3,8.3,8.3s8.3-3.7,8.3-8.3
				C-159.2-134-162.9-137.7-167.4-137.7 M-167.4-119.5c-5.5,0-10-4.5-10-10c0-5.5,4.5-10,10-10c5.5,0,10,4.5,10,10
				C-157.5-123.9-161.9-119.5-167.4-119.5"/>

			<path id="Fill-25" class="st5" d="M-166.4-116.4c-0.2,0-0.4-0.1-0.5-0.3c-0.2-0.3-0.1-0.7,0.2-0.8c0.2-0.1,5.1-3.4,13-2.1
				c0.3,0.1,0.6,0.4,0.5,0.7c-0.1,0.3-0.4,0.6-0.7,0.5c-7.5-1.2-12.1,1.9-12.1,1.9C-166.1-116.4-166.2-116.4-166.4-116.4"/>

			<path id="Fill-26" class="st6" d="M-152.9-114.3c-0.1,0-0.2,0-0.2,0c-3.6-1.5-6.7-1.7-8.7-1.5c-2.2,0.1-3.5,0.7-3.5,0.7
				c-0.3,0.1-0.7,0-0.8-0.3c-0.1-0.3,0-0.7,0.3-0.8c0.2-0.1,5.7-2.2,13.1,0.9c0.3,0.1,0.5,0.5,0.3,0.8
				C-152.5-114.4-152.7-114.3-152.9-114.3"/>

			<path id="Fill-27" class="st7" d="M-187-116.4c-0.1,0-0.2,0-0.3-0.1c0,0-4.7-3.2-12.1-1.9c-0.3,0.1-0.6-0.2-0.7-0.5
				c-0.1-0.3,0.2-0.6,0.5-0.7c7.9-1.3,12.8,2,13,2.1c0.3,0.2,0.3,0.6,0.2,0.8C-186.6-116.4-186.8-116.4-187-116.4"/>

			<path id="Fill-28" class="st8" d="M-200.4-114.3c-0.2,0-0.5-0.1-0.6-0.4c-0.1-0.3,0-0.7,0.3-0.8c7.4-3.1,12.9-1,13.1-0.9
				c0.3,0.1,0.5,0.5,0.3,0.8c-0.1,0.3-0.5,0.5-0.8,0.3c-0.1,0-5.3-2-12.2,0.9C-200.2-114.3-200.3-114.3-200.4-114.3"/>

			<path id="Fill-29" class="st9" d="M-182.6-105.3c-0.3,0-0.5-0.2-0.6-0.5c-1.9-7.5-9.2-7.8-9.3-7.8c-0.3,0-0.6-0.3-0.6-0.6
				c0-0.3,0.3-0.6,0.6-0.6c0,0,0,0,0,0c0.1,0,8.3,0.3,10.5,8.8c0.1,0.3-0.1,0.6-0.4,0.7C-182.5-105.3-182.6-105.3-182.6-105.3"/>

			<path id="Fill-30" class="st10" d="M-170.8-105.3c0,0-0.1,0-0.1,0c-0.3-0.1-0.5-0.4-0.4-0.7c2.1-8.4,10.4-8.7,10.5-8.8
				c0.3,0,0.6,0.3,0.6,0.6c0,0.3-0.3,0.6-0.6,0.6c-0.3,0-7.4,0.3-9.3,7.8C-170.3-105.4-170.5-105.3-170.8-105.3"/>
			<path id="Fill-31" class="st3" d="M-164-130.8c-0.2,0.4-0.6,0.6-1.1,0.6c-0.7,0-1.3-0.6-1.3-1.3c0-0.5,0.3-0.9,0.7-1.2
				c-0.5-0.3-1.1-0.4-1.7-0.4c-2.1,0-3.7,1.7-3.7,3.7c0,2.1,1.7,3.7,3.7,3.7c2.1,0,3.7-1.7,3.7-3.7
				C-163.8-129.9-163.9-130.4-164-130.8"/>
			<g>

				<path id="Fill-32" class="st11" d="M-127-114.6c-1.5,0.8-3.1,1.3-4.7,1.7c-1.6,0.3-3.3,0.5-5,0.5c-1.8,0-3.5-0.3-5-0.8
					c-1.5-0.6-2.8-1.4-3.9-2.4c-1.1-1.1-2-2.3-2.6-3.8c-0.6-1.5-0.9-3.2-0.9-5c0-1.8,0.3-3.5,0.9-5c0.6-1.5,1.5-2.8,2.6-3.8
					c1.1-1.1,2.4-1.9,3.9-2.4c1.5-0.6,3.2-0.8,5-0.8c1.8,0,3.5,0.2,5.1,0.7c1.6,0.4,2.9,1.2,4.1,2.3l-3.6,3.9
					c-0.7-0.7-1.5-1.3-2.3-1.6c-0.9-0.4-2-0.6-3.3-0.6c-1.1,0-2.1,0.2-2.9,0.6c-0.9,0.4-1.6,0.9-2.3,1.5c-0.6,0.7-1.1,1.4-1.4,2.4
					c-0.3,0.9-0.5,1.9-0.5,3c0,1.1,0.2,2.1,0.5,3c0.3,0.9,0.8,1.7,1.4,2.3c0.6,0.7,1.4,1.2,2.3,1.5c0.9,0.4,1.9,0.6,2.9,0.6
					c1.1,0,2.1-0.1,2.9-0.4c0.8-0.2,1.4-0.5,1.9-0.8v-3.7h-4.1v-4.7h9V-114.6z"/>

				<path id="Fill-33" class="st12" d="M-119-120.8c0,1.2,0.3,2.2,1,2.9c0.7,0.7,1.6,1.1,2.9,1.1s2.2-0.4,2.9-1.1
					c0.7-0.7,1-1.7,1-2.9c0-1.2-0.3-2.2-1-2.9c-0.7-0.7-1.6-1.1-2.9-1.1s-2.2,0.4-2.9,1.1C-118.7-123-119-122-119-120.8
					 M-123.9-120.8c0-1.3,0.2-2.4,0.7-3.4c0.5-1,1.1-1.9,1.9-2.6c0.8-0.7,1.7-1.3,2.8-1.7c1.1-0.4,2.2-0.6,3.4-0.6s2.4,0.2,3.4,0.6
					c1.1,0.4,2,0.9,2.8,1.7c0.8,0.7,1.4,1.6,1.9,2.6c0.5,1,0.7,2.2,0.7,3.4s-0.2,2.4-0.7,3.4c-0.5,1-1.1,1.9-1.9,2.6
					c-0.8,0.7-1.7,1.3-2.8,1.7c-1.1,0.4-2.2,0.6-3.4,0.6s-2.4-0.2-3.4-0.6c-1.1-0.4-2-0.9-2.8-1.7c-0.8-0.7-1.4-1.6-1.9-2.6
					C-123.7-118.4-123.9-119.6-123.9-120.8"/>

				<path id="Fill-34" class="st13" d="M-94.8-119.9c-0.4,0-0.8,0-1.4,0c-0.6,0-1.1,0.1-1.6,0.3c-0.5,0.2-0.9,0.4-1.3,0.7
					c-0.4,0.3-0.5,0.7-0.5,1.3c0,0.6,0.2,1,0.7,1.3c0.5,0.3,1,0.4,1.6,0.4c0.5,0,0.9-0.1,1.4-0.2c0.4-0.1,0.8-0.3,1.2-0.6
					c0.3-0.2,0.6-0.5,0.8-0.9c0.2-0.4,0.3-0.8,0.3-1.3v-1H-94.8z M-93.6-114.9L-93.6-114.9c-0.6,0.8-1.3,1.4-2.2,1.8
					c-0.9,0.4-1.8,0.6-2.8,0.6c-0.7,0-1.4-0.1-2.1-0.3c-0.7-0.2-1.3-0.5-1.8-0.9c-0.5-0.4-0.9-0.9-1.2-1.5c-0.3-0.6-0.5-1.3-0.5-2.1
					c0-0.9,0.2-1.7,0.5-2.3c0.3-0.6,0.8-1.1,1.4-1.6c0.6-0.4,1.2-0.7,2-1c0.7-0.2,1.5-0.4,2.3-0.5c0.8-0.1,1.6-0.2,2.4-0.2
					c0.8,0,1.5,0,2.2,0c0-0.9-0.3-1.6-0.9-2.1c-0.6-0.5-1.3-0.8-2.2-0.8c-0.8,0-1.5,0.2-2.2,0.5c-0.7,0.3-1.2,0.8-1.8,1.4l-2.6-2.7
					c0.9-0.8,2-1.5,3.2-1.9c1.2-0.4,2.5-0.6,3.8-0.6c1.4,0,2.6,0.2,3.5,0.5c0.9,0.4,1.7,0.9,2.2,1.6c0.6,0.7,0.9,1.5,1.2,2.5
					c0.2,1,0.3,2.2,0.3,3.5v8h-4.5V-114.9z"/>

				<polygon id="Fill-35" class="st14" points="-85.9,-112.9 -81.1,-112.9 -81.1,-137.5 -85.9,-137.5 				"/>

				<path id="Fill-36" class="st15" d="M-77.4-112.9h4.8v-15.9h-4.8V-112.9z M-77.8-133.8c0-0.8,0.3-1.5,0.8-2
					c0.5-0.6,1.2-0.8,2-0.8c0.8,0,1.4,0.3,2,0.8c0.5,0.6,0.8,1.2,0.8,2c0,0.8-0.3,1.5-0.8,2c-0.5,0.6-1.2,0.8-2,0.8
					c-0.8,0-1.4-0.3-2-0.8C-77.5-132.3-77.8-133-77.8-133.8L-77.8-133.8z"/>

				<path id="Fill-37" class="st16" d="M-67.4-124.9h-3.2v-3.9h3.2v-2.8c0-0.9,0.1-1.7,0.2-2.5c0.2-0.8,0.4-1.5,0.9-2
					c0.4-0.6,1.1-1.1,1.9-1.4c0.8-0.3,1.9-0.5,3.2-0.5c0.5,0,1,0,1.5,0.1c0.5,0,0.9,0.1,1.4,0.2l-0.2,4.1c-0.3-0.1-0.5-0.2-0.8-0.2
					c-0.2-0.1-0.5-0.1-0.8-0.1c-0.8,0-1.4,0.2-1.7,0.5c-0.4,0.3-0.6,1-0.6,2.1v2.5h3.6v3.9h-3.6v12h-4.9V-124.9z"/>

				<path id="Fill-38" class="st17" d="M-47.8-110.3c-0.3,0.8-0.6,1.6-0.9,2.3c-0.3,0.7-0.7,1.2-1.2,1.6c-0.5,0.4-1.1,0.8-1.8,1
					c-0.7,0.2-1.7,0.3-2.8,0.3c-1.3,0-2.5-0.2-3.7-0.6l0.7-4c0.7,0.3,1.5,0.5,2.3,0.5c0.5,0,1-0.1,1.3-0.2c0.3-0.1,0.6-0.3,0.9-0.5
					c0.2-0.2,0.4-0.5,0.6-0.8c0.2-0.3,0.3-0.7,0.5-1.1l0.4-0.9l-6.9-16h5.3l4.1,10.5h0.1l3.5-10.5h5L-47.8-110.3z"/>
			</g>
		</g>
	</g>
</g>
</svg>
