<?xml version="1.0" encoding="UTF-8"?>
<svg width="215px" height="105px" viewBox="0 0 215 105" version="1.1" xmlns="http://www.w3.org/2000/svg" xmlns:xlink="http://www.w3.org/1999/xlink">
    <title>GraphQL Tools/ CLI</title>
    <g id="GraphQL-Tools/-CLI" stroke="none" stroke-width="1" fill="none" fill-rule="evenodd">
        <rect id="Rectangle" fill="#FFFFFF" x="0" y="0" width="215" height="105"></rect>
        <g id="Libraries-Logos-/-CLI" transform="translate(6.000000, 20.000000)" fill="#8C0082">
            <path d="M36.0400049,60.3145407 C36.0400049,60.5683309 36.0151531,60.8160963 35.9767457,61.0593432 C35.9722272,61.0902198 35.9684617,61.1203432 35.9631901,61.1504667 C35.5655605,63.4345778 33.5736469,65.1772198 31.178079,65.1772198 C29.0415728,65.1772198 27.2273877,63.7900346 26.5759679,61.8711704 L6.34580741,50.1923062 C4.33958519,49.0340593 3.10452346,46.8930346 3.10452346,44.5780469 L3.10452346,24.9066765 C3.85384444,25.1604667 4.65286914,25.3043062 5.48804198,25.3043062 C6.23736296,25.3043062 6.96032593,25.1905901 7.64262222,24.9842444 L7.64262222,44.5780469 C7.64262222,45.2701333 8.01464691,45.9147753 8.61560988,46.2611951 L27.4872025,57.1568494 C28.3796099,56.1153309 29.7012765,55.4518617 31.178079,55.4518617 C32.7844123,55.4518617 34.2062395,56.2373309 35.0926222,57.441516 C35.108437,57.4633556 35.1250049,57.484442 35.1408198,57.5062815 C35.2025728,57.5943926 35.2613136,57.6840099 35.3177951,57.7766395 C35.3396346,57.8120346 35.3614741,57.8466765 35.3825605,57.8828247 C35.4322642,57.9679235 35.4782025,58.0552815 35.5226346,58.1433926 C35.5467333,58.190837 35.5693259,58.2382815 35.5911654,58.286479 C35.6295728,58.3685654 35.6649679,58.4514049 35.6988568,58.5357506 C35.7229556,58.5959975 35.744042,58.6562444 35.7658815,58.7172444 C35.7929926,58.7940593 35.8193506,58.8716272 35.8419432,58.9499481 C35.8645358,59.0252568 35.8811037,59.1005654 35.8999309,59.175121 C35.9172519,59.2459111 35.9353259,59.3159481 35.9488815,59.3874914 C35.9677086,59.4816272 35.979758,59.576516 35.9933136,59.672158 C36.0000914,59.7301457 36.0113877,59.785121 36.0166593,59.8423556 C36.0309679,59.9982444 36.0400049,60.1548864 36.0400049,60.3145407 L36.0400049,60.3145407 Z M60.919721,17.8487506 C60.919721,19.307479 60.2720667,20.614837 59.2508815,21.5064914 L59.2508815,44.5780469 C59.2508815,46.8930346 58.0165728,49.0340593 56.0095975,50.1923062 L38.629116,60.2264296 C38.6095358,58.5847012 38.0545111,57.0732568 37.1342395,55.8487383 L53.7405481,46.2611951 C54.340758,45.9147753 54.7127827,45.2701333 54.7127827,44.5780469 L54.7127827,22.5178864 C52.684721,21.9334914 51.195116,20.0635778 51.195116,17.8487506 C51.195116,16.7703309 51.5528321,15.7762568 52.1492765,14.9697012 C52.1575605,14.9568988 52.1673506,14.9440963 52.1771407,14.9312938 C52.2893506,14.7821827 52.4098444,14.6383432 52.5386222,14.5027877 L52.5559432,14.4839605 C52.8225358,14.2060716 53.120758,13.9620716 53.4460914,13.7534667 C53.4799802,13.7316272 53.5153753,13.7120469 53.5500173,13.6902074 C53.6787951,13.6133926 53.8105852,13.5403432 53.9461407,13.4748247 C53.9860543,13.4559975 54.0259679,13.4356642 54.0666346,13.4175901 C54.236079,13.3407753 54.4107951,13.2699852 54.5907827,13.2142568 C54.5915358,13.2142568 54.5915358,13.2142568 54.5915358,13.2135037 C55.054684,13.0666519 55.5464494,12.9860716 56.0577951,12.9860716 C58.7395358,12.9860716 60.919721,15.1670099 60.919721,17.8487506 L60.919721,17.8487506 Z M3.10452346,22.0826025 C1.6269679,21.2474296 0.625362963,19.6636889 0.625362963,17.8487506 C0.625362963,15.1670099 2.80630123,12.9860716 5.48804198,12.9860716 C6.18314074,12.9860716 6.84284444,13.1359358 7.44154815,13.399516 L27.936042,1.56702222 C28.9384,0.987898765 30.0589926,0.69871358 31.1773259,0.69871358 C32.2971654,0.69871358 33.4170049,0.987898765 34.419363,1.56702222 L51.9022642,11.6613926 C50.6159926,12.5289481 49.6196593,13.7896148 49.0729185,15.2664173 L32.1503136,5.49738025 C31.8551037,5.32642963 31.5184741,5.23681235 31.1773259,5.23681235 C30.8369309,5.23681235 30.5010543,5.32642963 30.2050914,5.49738025 L10.2724,17.0060469 C10.3205975,17.2801704 10.3499679,17.5603185 10.3499679,17.8487506 C10.3499679,19.9408247 9.0192642,21.7233802 7.16215309,22.4079358 C7.14784444,22.4132074 7.13278272,22.4192321 7.11922716,22.4237506 C6.97086914,22.4757136 6.82251111,22.5216519 6.66963457,22.5600593 C6.63875802,22.5675901 6.60863457,22.5766272 6.57775802,22.5826519 C6.43768395,22.6150346 6.29459753,22.6406395 6.15075802,22.6609728 C6.11159753,22.6662444 6.07319012,22.6737753 6.03327654,22.6782938 C5.85404198,22.6986272 5.67254815,22.7114296 5.48804198,22.7114296 C5.28998025,22.7114296 5.09493086,22.6956148 4.90214074,22.6722691 C4.85093086,22.6662444 4.80047407,22.6572074 4.74851111,22.6489235 C4.60090617,22.6263309 4.45631358,22.5977136 4.31247407,22.5615654 C4.26879506,22.5502691 4.22436296,22.540479 4.17993086,22.5276765 C3.8011284,22.4207383 3.4404,22.2723802 3.10452346,22.0826025 L3.10452346,22.0826025 Z" id="Fill-2"></path>
            <path d="M44.2550048,41.8158686 C44.2550048,40.9614452 43.5615598,40.2680002 42.7071365,40.2680002 L30.0664695,40.2680002 C29.2120461,40.2680002 28.5186011,40.9614452 28.5186011,41.8158686 C28.5186011,42.6702919 29.2120461,43.3637369 30.0664695,43.3637369 L42.7071365,43.3637369 C43.5615598,43.3637369 44.2550048,42.6702919 44.2550048,41.8158686 M19.4883371,43.3637369 C19.124588,43.3637369 18.760065,43.2360378 18.46597,42.9767699 C17.8243786,42.4117979 17.7632378,41.4335451 18.3282097,40.7927276 L25.391907,32.7778652 L18.3638107,25.3357141 C17.7763947,24.714245 17.8050302,23.7344443 18.4264994,23.1478022 C19.0487425,22.561934 20.0269953,22.5882478 20.6144113,23.2104909 L28.6122471,31.6796526 C29.1617404,32.2608772 29.1772191,33.1656062 28.6478481,33.7654052 L20.6500123,42.8390096 C20.3443083,43.186506 19.9178705,43.3637369 19.4883371,43.3637369" id="Fill-1"></path>
        </g>
        <path d="M84.608,63.087 C84.013,64.209 82.84,64.974 81.429,64.974 C79.44,64.974 77.825,63.376 77.825,61.37 C77.825,59.364 79.44,57.766 81.429,57.766 C82.823,57.766 84.013,58.531 84.608,59.653 L87.702,58.259 C86.529,56.032 84.166,54.485 81.429,54.485 C77.604,54.485 74.391,57.579 74.391,61.37 C74.391,65.161 77.604,68.255 81.429,68.255 C84.166,68.255 86.563,66.708 87.719,64.447 L84.608,63.087 Z M90.070428,68 L99.811428,68 L99.811428,64.719 L93.453428,64.719 L93.453428,54.74 L90.070428,54.74 L90.070428,68 Z M102.213856,54.74 L105.613856,54.74 L105.613856,68 L102.213856,68 L102.213856,54.74 Z" id="CLI" fill="#050713" fill-rule="nonzero"></path>
        <path d="M78.565,41.821 L80.644,41.821 L80.644,42.063 C80.237,42.657 79.577,43.042 78.807,43.042 C77.509,43.042 76.475,42.008 76.475,40.71 C76.475,39.412 77.509,38.378 78.807,38.378 C79.555,38.378 80.215,38.719 80.644,39.258 L82.437,38.048 C81.612,36.97 80.281,36.255 78.807,36.255 C76.321,36.255 74.253,38.257 74.253,40.71 C74.253,43.163 76.321,45.165 78.807,45.165 C79.687,45.165 80.556,44.835 80.974,44.197 L80.974,45 L82.701,45 L82.701,39.995 L78.565,39.995 L78.565,41.821 Z M86.3105714,36.42 L86.3105714,45 L88.4995714,45 L88.4995714,42.701 L89.6215714,42.701 L91.2495714,45 L93.8785714,45 L92.0195714,42.404 C93.1745714,41.876 93.7135714,40.754 93.7135714,39.555 C93.7135714,37.85 92.7015714,36.42 90.5015714,36.42 L86.3105714,36.42 Z M90.3805714,38.422 C91.2605714,38.422 91.5905714,38.917 91.5905714,39.577 C91.5905714,40.171 91.2605714,40.71 90.3805714,40.71 L88.4995714,40.71 L88.4995714,38.422 L90.3805714,38.422 Z M99.8861429,36.42 L96.4101429,45 L98.8081429,45 L99.2811429,43.746 L102.658143,43.746 L103.131143,45 L105.529143,45 L102.064143,36.42 L99.8861429,36.42 Z M101.910143,41.755 L100.029143,41.755 L100.975143,39.236 L101.910143,41.755 Z M108.687714,45 L110.887714,45 L110.887714,43.053 L112.471714,43.053 C114.748714,43.053 115.837714,41.524 115.837714,39.709 C115.837714,37.982 114.748714,36.42 112.471714,36.42 L108.687714,36.42 L108.687714,45 Z M112.350714,38.422 C113.274714,38.422 113.615714,39.038 113.615714,39.72 C113.615714,40.479 113.274714,41.051 112.350714,41.051 L110.887714,41.051 L110.887714,38.422 L112.350714,38.422 Z M124.870286,36.42 L124.870286,39.753 L121.372286,39.753 L121.372286,36.42 L119.183286,36.42 L119.183286,45 L121.372286,45 L121.372286,41.81 L124.870286,41.81 L124.870286,45 L127.070286,45 L127.070286,36.42 L124.870286,36.42 Z M130.481857,40.71 C130.481857,42.91 132.153857,44.758 134.287857,45.099 C135.772857,45.594 136.773857,47.134 138.500857,47.134 C139.281857,47.134 140.282857,46.815 140.898857,45.968 L139.237857,44.626 C139.006857,44.978 138.610857,45.011 138.489857,45.011 C138.115857,45.011 137.763857,44.813 137.367857,44.538 C138.698857,43.757 139.589857,42.338 139.589857,40.71 C139.589857,38.257 137.543857,36.255 135.035857,36.255 C132.560857,36.255 130.481857,38.257 130.481857,40.71 Z M132.703857,40.71 C132.703857,39.412 133.748857,38.378 135.035857,38.378 C136.355857,38.378 137.367857,39.412 137.367857,40.71 C137.367857,42.008 136.355857,43.042 135.035857,43.042 C133.748857,43.042 132.703857,42.008 132.703857,40.71 Z M143.012429,45 L143.012429,36.42 L145.201429,36.42 L145.201429,42.877 L149.315429,42.877 L149.315429,45 L143.012429,45 Z" id="GraphQL" fill="#6D7A99" fill-rule="nonzero"></path>
    </g>
</svg>