<?xml version="1.0" encoding="UTF-8"?>
<svg width="215px" height="105px" viewBox="0 0 215 105" version="1.1" xmlns="http://www.w3.org/2000/svg" xmlns:xlink="http://www.w3.org/1999/xlink">
    <!-- Generator: Sketch 59.1 (86144) - https://sketch.com -->
    <title>GraphQL Tools/ config</title>
    <desc>Created with Sketch.</desc>
    <g id="GraphQL-Tools/-config" stroke="none" stroke-width="1" fill="none" fill-rule="evenodd">
        <g id="Libraries-Logos-/-Config" transform="translate(6.000000, 20.000000)" fill="#6D7A99">
            <path d="M36.0400049,60.5122933 C36.0400049,60.7669156 36.0151531,61.0154933 35.9767457,61.2595378 C35.9722272,61.2905156 35.9684617,61.3207378 35.9631901,61.35096 C35.5655605,63.64256 33.5736469,65.3909156 31.178079,65.3909156 C29.0415728,65.3909156 27.2273877,63.9991822 26.5759679,62.0740267 L6.34580741,50.3568711 C4.33958519,49.1948267 3.10452346,47.0467822 3.10452346,44.7242044 L3.10452346,24.9883378 C3.85384444,25.24296 4.65286914,25.3872711 5.48804198,25.3872711 C6.23736296,25.3872711 6.96032593,25.2731822 7.64262222,25.06616 L7.64262222,44.7242044 C7.64262222,45.41856 8.01464691,46.0653156 8.61560988,46.4128711 L27.4872025,57.3442489 C28.3796099,56.2993156 29.7012765,55.6336711 31.178079,55.6336711 C32.7844123,55.6336711 34.2062395,56.4217156 35.0926222,57.6298489 C35.108437,57.65176 35.1250049,57.6729156 35.1408198,57.6948267 C35.2025728,57.7832267 35.2613136,57.8731378 35.3177951,57.9660711 C35.3396346,58.0015822 35.3614741,58.0363378 35.3825605,58.0726044 C35.4322642,58.1579822 35.4782025,58.2456267 35.5226346,58.3340267 C35.5467333,58.3816267 35.5693259,58.4292267 35.5911654,58.4775822 C35.6295728,58.5599378 35.6649679,58.6430489 35.6988568,58.7276711 C35.7229556,58.7881156 35.744042,58.84856 35.7658815,58.90976 C35.7929926,58.9868267 35.8193506,59.0646489 35.8419432,59.1432267 C35.8645358,59.2187822 35.8811037,59.2943378 35.8999309,59.3691378 C35.9172519,59.44016 35.9353259,59.5104267 35.9488815,59.5822044 C35.9677086,59.6766489 35.979758,59.7718489 35.9933136,59.8678044 C36.0000914,59.9259822 36.0113877,59.9811378 36.0166593,60.03856 C36.0309679,60.19496 36.0400049,60.3521156 36.0400049,60.5122933 L36.0400049,60.5122933 Z M60.919721,17.9072711 C60.919721,19.3707822 60.2720667,20.6824267 59.2508815,21.5770044 L59.2508815,44.7242044 C59.2508815,47.0467822 58.0165728,49.1948267 56.0095975,50.3568711 L38.629116,60.4238933 C38.6095358,58.7767822 38.0545111,57.2603822 37.1342395,56.0318489 L53.7405481,46.4128711 C54.340758,46.0653156 54.7127827,45.41856 54.7127827,44.7242044 L54.7127827,22.5917156 C52.684721,22.0054044 51.195116,20.12936 51.195116,17.9072711 C51.195116,16.8253156 51.5528321,15.8279822 52.1492765,15.0187822 C52.1575605,15.0059378 52.1673506,14.9930933 52.1771407,14.9802489 C52.2893506,14.8306489 52.4098444,14.6863378 52.5386222,14.5503378 L52.5559432,14.5314489 C52.8225358,14.2526489 53.120758,14.0078489 53.4460914,13.79856 C53.4799802,13.7766489 53.5153753,13.7570044 53.5500173,13.7350933 C53.6787951,13.6580267 53.8105852,13.5847378 53.9461407,13.5190044 C53.9860543,13.5001156 54.0259679,13.4797156 54.0666346,13.4615822 C54.236079,13.3845156 54.4107951,13.3134933 54.5907827,13.2575822 C54.5915358,13.2575822 54.5915358,13.2575822 54.5915358,13.2568267 C55.054684,13.1094933 55.5464494,13.0286489 56.0577951,13.0286489 C58.7395358,13.0286489 60.919721,15.2167378 60.919721,17.9072711 L60.919721,17.9072711 Z M3.10452346,22.1550044 C1.6269679,21.3170933 0.625362963,19.72816 0.625362963,17.9072711 C0.625362963,15.2167378 2.80630123,13.0286489 5.48804198,13.0286489 C6.18314074,13.0286489 6.84284444,13.1790044 7.44154815,13.4434489 L27.936042,1.57216 C28.9384,0.991137778 30.0589926,0.701004444 31.1773259,0.701004444 C32.2971654,0.701004444 33.4170049,0.991137778 34.419363,1.57216 L51.9022642,11.6996267 C50.6159926,12.5700267 49.6196593,13.8348267 49.0729185,15.3164711 L32.1503136,5.51540444 C31.8551037,5.34389333 31.5184741,5.25398222 31.1773259,5.25398222 C30.8369309,5.25398222 30.5010543,5.34389333 30.2050914,5.51540444 L10.2724,17.0618044 C10.3205975,17.3368267 10.3499679,17.6178933 10.3499679,17.9072711 C10.3499679,20.0062044 9.0192642,21.7946044 7.16215309,22.4814044 C7.14784444,22.4866933 7.13278272,22.4927378 7.11922716,22.4972711 C6.97086914,22.5494044 6.82251111,22.5954933 6.66963457,22.6340267 C6.63875802,22.6415822 6.60863457,22.6506489 6.57775802,22.6566933 C6.43768395,22.6891822 6.29459753,22.7148711 6.15075802,22.7352711 C6.11159753,22.74056 6.07319012,22.7481156 6.03327654,22.7526489 C5.85404198,22.7730489 5.67254815,22.7858933 5.48804198,22.7858933 C5.28998025,22.7858933 5.09493086,22.7700267 4.90214074,22.7466044 C4.85093086,22.74056 4.80047407,22.7314933 4.74851111,22.7231822 C4.60090617,22.7005156 4.45631358,22.6718044 4.31247407,22.6355378 C4.26879506,22.6242044 4.22436296,22.6143822 4.17993086,22.6015378 C3.8011284,22.4942489 3.4404,22.3454044 3.10452346,22.1550044 L3.10452346,22.1550044 Z" id="Fill-2"></path>
            <path d="M26.1189516,20.3760625 C26.9539888,20.3760625 27.184184,20.6752125 28.4541203,23.8139625 L28.9763082,24.0247625 C32.0375962,22.6351875 32.4500937,22.5693125 33.0518458,23.1497875 L34.8856832,24.9485625 C35.5090643,25.5732125 35.397829,26.0320125 34.0776824,29.0359125 L34.2808413,29.5179625 C37.3977469,30.6362875 37.8086996,30.8757625 37.8056269,31.7747625 L37.8056269,34.3059125 C37.8056269,35.1537625 37.4997126,35.3831625 34.2939732,36.6324625 L34.0923593,37.1129625 C35.4719859,40.0339375 35.6056228,40.5376875 34.9575227,41.1646625 L33.1360447,42.9541375 C32.5288854,43.5291875 32.1534663,43.4757125 29.0110692,42.1419375 L28.4911987,42.3535125 C27.3240006,45.4728875 27.0768111,45.8076875 26.2278695,45.8076875 L23.6447388,45.8076875 C22.8073842,45.8076875 22.5771889,45.5077625 21.3095701,42.3705625 L20.7858372,42.1574375 C17.6882433,43.5671625 17.3120517,43.6229625 16.7072098,43.0293125 L14.8780071,41.2351875 C14.2530811,40.6144125 14.3643164,40.1540625 15.6867804,37.1455125 L15.4851665,36.6673375 C12.3721232,35.5490125 11.9603981,35.3095375 11.9603981,34.4136375 L11.9603981,31.8755125 C11.9603981,31.0268875 12.2655227,30.7974875 15.4697171,29.5528375 L15.6713311,29.0731125 C14.2963393,26.1622125 14.1611575,25.6600125 14.7968981,25.0291625 L16.6276456,23.2296125 C17.2301701,22.6545625 17.6071342,22.7080375 20.7549385,24.0418125 L21.274809,23.8310125 C22.4381448,20.7108625 22.6853344,20.3760625 23.5365933,20.3760625 L26.1189516,20.3760625 Z M25.4515398,22.7010625 L24.2217719,22.7010625 C23.97072,23.2823125 23.5829414,24.2704375 23.2685472,25.1206125 L23.0916522,25.6003375 L20.7348544,26.5590125 L20.2922306,26.3699125 C19.4170251,25.9971375 18.3857812,25.5786375 17.777077,25.3546625 L16.9273629,26.1901125 C17.1699177,26.7775625 17.6009545,27.7331375 17.9856432,28.5437875 L18.2096587,29.0142125 L17.2239904,31.3671125 L16.7628274,31.5445875 C15.8868495,31.8824875 14.8710549,32.2955625 14.2778,32.5598375 L14.2778,33.7122625 C14.8718274,33.9594875 15.8768074,34.3400125 16.7435157,34.6492375 L17.2239904,34.8205125 L18.2104312,37.1672125 L18.0080447,37.6267875 C17.6372604,38.4668875 17.2209005,39.4565625 16.9914777,40.0564125 L17.8427367,40.8910875 C18.439854,40.6547125 19.4355643,40.2207125 20.2790987,39.8339875 L20.7340819,39.6262875 L23.0924246,40.5872875 L23.2754994,41.0445375 C23.6200198,41.9040125 24.0425594,42.9029875 24.3113781,43.4826875 L25.542691,43.4826875 C25.7945153,42.9006625 26.1822939,41.9133125 26.4974606,41.0623625 L26.6751281,40.5826375 L29.0319259,39.6247375 L29.4753221,39.8130625 C30.3489826,40.1866125 31.379454,40.6051125 31.9873858,40.8283125 L32.8363274,39.9944125 C32.5930002,39.4069625 32.1619634,38.4529375 31.7765022,37.6422875 L31.5532592,37.1718625 L32.5404724,34.8189625 L33.0000905,34.6414875 C33.8776134,34.3020375 34.8949528,33.8874125 35.4882077,33.6223625 L35.4882077,32.4722625 C34.8926354,32.2242625 33.8876554,31.8452875 33.022492,31.5368375 L32.5420174,31.3647875 L31.5540317,29.0142125 L31.7564181,28.5538625 C32.1272024,27.7145375 32.5427898,26.7264125 32.7729851,26.1265625 L31.9217261,25.2926625 C31.3246089,25.5282625 30.328126,25.9614875 29.4838192,26.3474375 L29.0311534,26.5543625 L26.6743556,25.6003375 L26.4905084,25.1423125 C26.144443,24.2812875 25.7211309,23.2815375 25.4515398,22.7010625 Z M24.8830039,28.2268125 C27.6005439,28.2268125 29.8113454,30.4084375 29.8113454,33.0899375 C29.8113454,35.7729875 27.6005439,37.9553875 24.8830039,37.9553875 C22.1654638,37.9553875 19.9546624,35.7729875 19.9546624,33.0899375 C19.9546624,30.4084375 22.1654638,28.2268125 24.8830039,28.2268125 Z M24.8830039,30.5518125 C23.4438973,30.5518125 22.2720643,31.6902875 22.2720643,33.0899375 C22.2720643,34.4911375 23.4438973,35.6303875 24.8830039,35.6303875 C26.3221105,35.6303875 27.4939434,34.4911375 27.4939434,33.0899375 C27.4939434,31.6902875 26.3221105,30.5518125 24.8830039,30.5518125 Z M42.3265519,21.19702 L42.4107509,21.20012 C43.411096,20.176345 43.7262627,19.911295 44.2569478,20.14922 L45.3901573,20.66072 C45.9077104,20.884695 45.928567,21.262895 45.8729494,22.743145 L45.9316569,22.80437 C47.4001173,22.792745 47.7801712,22.828395 47.9987795,23.34687 L48.4568526,24.510145 C48.6661912,25.051095 48.4089596,25.33087 47.3151459,26.322095 L47.3143734,26.385645 C48.3803783,27.41097 48.6291128,27.69927 48.4105045,28.22782 L47.903766,29.363195 C47.6612112,29.885545 47.2749776,29.899495 45.7918403,29.82587 L45.7462647,29.86772 C45.7779359,31.31852 45.7470372,31.73547 45.1761839,31.931545 L44.0406569,32.354695 C43.9371463,32.391895 43.8429053,32.41127 43.7509817,32.41127 C43.3709277,32.41127 43.0294972,32.074145 42.2160891,31.19607 L42.1311177,31.19297 C41.1261377,32.215195 40.810971,32.48257 40.2779686,32.23612 L39.1524837,31.731595 C38.6341581,31.50452 38.614074,31.12632 38.6658293,29.64762 L38.6063493,29.58562 C37.1425237,29.58872 36.7601524,29.56082 36.5423166,29.046995 L36.0819261,27.88217 C35.8749049,27.33967 36.1298191,27.059895 37.2228603,26.06712 L37.2244053,26.00822 C36.1723048,24.99762 35.8965339,24.680645 36.1398612,24.141245 L36.6357852,23.028345 C36.8706152,22.504445 37.2545315,22.48972 38.7469384,22.56877 L38.7940589,22.524595 C38.7623877,21.07922 38.7925139,20.66382 39.3556426,20.46387 L40.5004392,20.038395 C41.0195372,19.835345 41.3038052,20.095745 42.3265519,21.19702 Z M40.6116745,21.64962 L40.3389935,21.751145 C40.3343587,22.051845 40.3374486,22.47267 40.3467182,22.836145 L40.3552153,23.183345 L39.3208816,24.152095 L38.992583,24.13427 C38.6094392,24.113345 38.164498,24.09707 37.8539661,24.091645 L37.7450482,24.33732 C37.9574768,24.558195 38.2664637,24.863545 38.5368272,25.122395 L38.7832443,25.35877 L38.7538906,26.768495 L38.5059286,26.993245 C38.2286128,27.244345 37.9119012,27.540395 37.6932929,27.754295 L37.799121,28.022445 C38.1073354,28.031745 38.5522766,28.037945 38.9292406,28.033295 L39.2621741,28.03097 L40.2339379,29.04932 L40.2215785,29.37637 C40.2076741,29.75612 40.1991769,30.19787 40.1999494,30.503995 L40.4873072,30.632645 C40.7059155,30.426495 41.0094951,30.12657 41.2667268,29.86462 L41.5046467,29.62127 L42.9113097,29.66932 L43.1306904,29.905695 C43.3956467,30.19322 43.7100409,30.522595 43.9301941,30.742695 L44.2013301,30.641945 C44.2059649,30.34047 44.202875,29.91887 44.1936054,29.555395 L44.1858808,29.206645 L45.2186696,28.24487 L45.5446508,28.26192 C45.9293395,28.281295 46.3758256,28.296795 46.685585,28.30067 L46.7952754,28.056545 C46.5805295,27.83567 46.272315,27.53032 46.001179,27.270695 L45.7555344,27.035095 L45.7841156,25.61917 L46.0328501,25.395195 C46.3109384,25.14487 46.62765,24.84882 46.8454857,24.63647 L46.7396577,24.36832 C46.4337607,24.358245 45.9903644,24.355145 45.6103105,24.35592 L45.2796945,24.358245 L44.3040683,23.342995 L44.3172002,23.01362 C44.3311046,22.63387 44.3411467,22.19212 44.3403742,21.88677 L44.0553338,21.75812 C43.8359531,21.965045 43.5323734,22.265745 43.2759143,22.53002 L43.0349045,22.77647 L41.6282415,22.72067 L41.4119506,22.485845 C41.1454494,22.199095 40.8318277,21.870495 40.6116745,21.64962 Z M43.3091304,23.860695 C44.6115103,24.44892 45.2032202,25.970245 44.6323669,27.252095 L44.6323669,27.25287 C44.2105997,28.197595 43.2759143,28.757145 42.2933358,28.757145 C41.9380009,28.757145 41.5757137,28.68352 41.2296483,28.52852 C39.9280409,27.94572 39.3355585,26.422845 39.9095017,25.13402 C40.1868174,24.510145 40.6966459,24.034295 41.344746,23.794045 C41.9851214,23.55767 42.6834318,23.580145 43.3091304,23.860695 Z M42.2454429,25.18207 C42.1218481,25.18207 41.9982533,25.20377 41.8792933,25.247945 C41.6251516,25.342495 41.4266275,25.52617 41.320027,25.765645 C41.0936941,26.27482 41.3354763,26.878545 41.8592092,27.11337 C42.3852594,27.349745 42.9955086,27.126545 43.2218415,26.62047 C43.4466295,26.115945 43.2017574,25.51222 42.6772521,25.27507 C42.5397529,25.21307 42.3922116,25.18207 42.2454429,25.18207 Z" id="Combined-Shape"></path>
        </g>
        <path d="M84.608,63.087 C84.013,64.209 82.84,64.974 81.429,64.974 C79.44,64.974 77.825,63.376 77.825,61.37 C77.825,59.364 79.44,57.766 81.429,57.766 C82.823,57.766 84.013,58.531 84.608,59.653 L87.702,58.259 C86.529,56.032 84.166,54.485 81.429,54.485 C77.604,54.485 74.391,57.579 74.391,61.37 C74.391,65.161 77.604,68.255 81.429,68.255 C84.166,68.255 86.563,66.708 87.719,64.447 L84.608,63.087 Z M89.441428,61.37 C89.441428,65.161 92.654428,68.255 96.479428,68.255 C100.355428,68.255 103.517428,65.161 103.517428,61.37 C103.517428,57.579 100.355428,54.485 96.479428,54.485 C92.654428,54.485 89.441428,57.579 89.441428,61.37 Z M92.875428,61.37 C92.875428,59.364 94.490428,57.766 96.479428,57.766 C98.519428,57.766 100.083428,59.364 100.083428,61.37 C100.083428,63.376 98.519428,64.974 96.479428,64.974 C94.490428,64.974 92.875428,63.376 92.875428,61.37 Z M109.489856,68 L109.489856,60.605 L115.405856,68 L118.278856,68 L118.278856,54.74 L114.895856,54.74 L114.895856,62.152 L108.979856,54.74 L106.089856,54.74 L106.089856,68 L109.489856,68 Z M121.480284,68 L124.863284,68 L124.863284,63.461 L130.286284,63.461 L130.286284,60.384 L124.863284,60.384 L124.863284,58.038 L131.323284,58.038 L131.323284,54.74 L121.480284,54.74 L121.480284,68 Z M133.946712,54.74 L133.946712,68 L137.346712,68 L137.346712,54.74 L133.946712,54.74 Z M146.58314,63.087 L146.58314,60.265 L152.97514,60.265 L152.97514,68 L150.30614,68 L150.30614,66.759 C149.66014,67.745 148.31714,68.255 146.95714,68.255 C143.11514,68.255 139.91914,65.161 139.91914,61.37 C139.91914,57.579 143.11514,54.485 146.95714,54.485 C149.23514,54.485 151.29214,55.59 152.56714,57.256 L149.79614,59.126 C149.13314,58.293 148.11314,57.766 146.95714,57.766 C144.95114,57.766 143.35314,59.364 143.35314,61.37 C143.35314,63.376 144.95114,64.974 146.95714,64.974 C148.14714,64.974 149.16714,64.379 149.79614,63.461 L149.79614,63.087 L146.58314,63.087 Z" id="Config" fill="#050713" fill-rule="nonzero"></path>
        <path d="M78.565,41.821 L80.644,41.821 L80.644,42.063 C80.237,42.657 79.577,43.042 78.807,43.042 C77.509,43.042 76.475,42.008 76.475,40.71 C76.475,39.412 77.509,38.378 78.807,38.378 C79.555,38.378 80.215,38.719 80.644,39.258 L82.437,38.048 C81.612,36.97 80.281,36.255 78.807,36.255 C76.321,36.255 74.253,38.257 74.253,40.71 C74.253,43.163 76.321,45.165 78.807,45.165 C79.687,45.165 80.556,44.835 80.974,44.197 L80.974,45 L82.701,45 L82.701,39.995 L78.565,39.995 L78.565,41.821 Z M86.3105714,36.42 L86.3105714,45 L88.4995714,45 L88.4995714,42.701 L89.6215714,42.701 L91.2495714,45 L93.8785714,45 L92.0195714,42.404 C93.1745714,41.876 93.7135714,40.754 93.7135714,39.555 C93.7135714,37.85 92.7015714,36.42 90.5015714,36.42 L86.3105714,36.42 Z M90.3805714,38.422 C91.2605714,38.422 91.5905714,38.917 91.5905714,39.577 C91.5905714,40.171 91.2605714,40.71 90.3805714,40.71 L88.4995714,40.71 L88.4995714,38.422 L90.3805714,38.422 Z M99.8861429,36.42 L96.4101429,45 L98.8081429,45 L99.2811429,43.746 L102.658143,43.746 L103.131143,45 L105.529143,45 L102.064143,36.42 L99.8861429,36.42 Z M101.910143,41.755 L100.029143,41.755 L100.975143,39.236 L101.910143,41.755 Z M108.687714,45 L110.887714,45 L110.887714,43.053 L112.471714,43.053 C114.748714,43.053 115.837714,41.524 115.837714,39.709 C115.837714,37.982 114.748714,36.42 112.471714,36.42 L108.687714,36.42 L108.687714,45 Z M112.350714,38.422 C113.274714,38.422 113.615714,39.038 113.615714,39.72 C113.615714,40.479 113.274714,41.051 112.350714,41.051 L110.887714,41.051 L110.887714,38.422 L112.350714,38.422 Z M124.870286,36.42 L124.870286,39.753 L121.372286,39.753 L121.372286,36.42 L119.183286,36.42 L119.183286,45 L121.372286,45 L121.372286,41.81 L124.870286,41.81 L124.870286,45 L127.070286,45 L127.070286,36.42 L124.870286,36.42 Z M130.481857,40.71 C130.481857,42.91 132.153857,44.758 134.287857,45.099 C135.772857,45.594 136.773857,47.134 138.500857,47.134 C139.281857,47.134 140.282857,46.815 140.898857,45.968 L139.237857,44.626 C139.006857,44.978 138.610857,45.011 138.489857,45.011 C138.115857,45.011 137.763857,44.813 137.367857,44.538 C138.698857,43.757 139.589857,42.338 139.589857,40.71 C139.589857,38.257 137.543857,36.255 135.035857,36.255 C132.560857,36.255 130.481857,38.257 130.481857,40.71 Z M132.703857,40.71 C132.703857,39.412 133.748857,38.378 135.035857,38.378 C136.355857,38.378 137.367857,39.412 137.367857,40.71 C137.367857,42.008 136.355857,43.042 135.035857,43.042 C133.748857,43.042 132.703857,42.008 132.703857,40.71 Z M143.012429,45 L143.012429,36.42 L145.201429,36.42 L145.201429,42.877 L149.315429,42.877 L149.315429,45 L143.012429,45 Z" id="GraphQL" fill="#6D7A99" fill-rule="nonzero"></path>
    </g>
</svg>