<?xml version="1.0" encoding="UTF-8"?>
<svg width="215px" height="105px" viewBox="0 0 215 105" version="1.1" xmlns="http://www.w3.org/2000/svg" xmlns:xlink="http://www.w3.org/1999/xlink">
    <!-- Generator: Sketch 59.1 (86144) - https://sketch.com -->
    <title>GraphQL Tools/ Code Gen</title>
    <desc>Created with Sketch.</desc>
    <g id="GraphQL-Tools/-Code-Gen" stroke="none" stroke-width="1" fill="none" fill-rule="evenodd">
        <g id="Libraries-Logos-/-Gennerator" transform="translate(6.000000, 20.000000)" fill="#FCEB14">
            <g id="generator-logo">
                <path d="M36.0400049,60.5122933 C36.0400049,60.7669156 36.0151531,61.0154933 35.9767457,61.2595378 C35.9722272,61.2905156 35.9684617,61.3207378 35.9631901,61.35096 C35.5655605,63.64256 33.5736469,65.3909156 31.178079,65.3909156 C29.0415728,65.3909156 27.2273877,63.9991822 26.5759679,62.0740267 L6.34580741,50.3568711 C4.33958519,49.1948267 3.10452346,47.0467822 3.10452346,44.7242044 L3.10452346,24.9883378 C3.85384444,25.24296 4.65286914,25.3872711 5.48804198,25.3872711 C6.23736296,25.3872711 6.96032593,25.2731822 7.64262222,25.06616 L7.64262222,44.7242044 C7.64262222,45.41856 8.01464691,46.0653156 8.61560988,46.4128711 L27.4872025,57.3442489 C28.3796099,56.2993156 29.7012765,55.6336711 31.178079,55.6336711 C32.7844123,55.6336711 34.2062395,56.4217156 35.0926222,57.6298489 C35.108437,57.65176 35.1250049,57.6729156 35.1408198,57.6948267 C35.2025728,57.7832267 35.2613136,57.8731378 35.3177951,57.9660711 C35.3396346,58.0015822 35.3614741,58.0363378 35.3825605,58.0726044 C35.4322642,58.1579822 35.4782025,58.2456267 35.5226346,58.3340267 C35.5467333,58.3816267 35.5693259,58.4292267 35.5911654,58.4775822 C35.6295728,58.5599378 35.6649679,58.6430489 35.6988568,58.7276711 C35.7229556,58.7881156 35.744042,58.84856 35.7658815,58.90976 C35.7929926,58.9868267 35.8193506,59.0646489 35.8419432,59.1432267 C35.8645358,59.2187822 35.8811037,59.2943378 35.8999309,59.3691378 C35.9172519,59.44016 35.9353259,59.5104267 35.9488815,59.5822044 C35.9677086,59.6766489 35.979758,59.7718489 35.9933136,59.8678044 C36.0000914,59.9259822 36.0113877,59.9811378 36.0166593,60.03856 C36.0309679,60.19496 36.0400049,60.3521156 36.0400049,60.5122933 L36.0400049,60.5122933 Z M60.919721,17.9072711 C60.919721,19.3707822 60.2720667,20.6824267 59.2508815,21.5770044 L59.2508815,44.7242044 C59.2508815,47.0467822 58.0165728,49.1948267 56.0095975,50.3568711 L38.629116,60.4238933 C38.6095358,58.7767822 38.0545111,57.2603822 37.1342395,56.0318489 L53.7405481,46.4128711 C54.340758,46.0653156 54.7127827,45.41856 54.7127827,44.7242044 L54.7127827,22.5917156 C52.684721,22.0054044 51.195116,20.12936 51.195116,17.9072711 C51.195116,16.8253156 51.5528321,15.8279822 52.1492765,15.0187822 C52.1575605,15.0059378 52.1673506,14.9930933 52.1771407,14.9802489 C52.2893506,14.8306489 52.4098444,14.6863378 52.5386222,14.5503378 L52.5559432,14.5314489 C52.8225358,14.2526489 53.120758,14.0078489 53.4460914,13.79856 C53.4799802,13.7766489 53.5153753,13.7570044 53.5500173,13.7350933 C53.6787951,13.6580267 53.8105852,13.5847378 53.9461407,13.5190044 C53.9860543,13.5001156 54.0259679,13.4797156 54.0666346,13.4615822 C54.236079,13.3845156 54.4107951,13.3134933 54.5907827,13.2575822 C54.5915358,13.2575822 54.5915358,13.2575822 54.5915358,13.2568267 C55.054684,13.1094933 55.5464494,13.0286489 56.0577951,13.0286489 C58.7395358,13.0286489 60.919721,15.2167378 60.919721,17.9072711 L60.919721,17.9072711 Z M3.10452346,22.1550044 C1.6269679,21.3170933 0.625362963,19.72816 0.625362963,17.9072711 C0.625362963,15.2167378 2.80630123,13.0286489 5.48804198,13.0286489 C6.18314074,13.0286489 6.84284444,13.1790044 7.44154815,13.4434489 L27.936042,1.57216 C28.9384,0.991137778 30.0589926,0.701004444 31.1773259,0.701004444 C32.2971654,0.701004444 33.4170049,0.991137778 34.419363,1.57216 L51.9022642,11.6996267 C50.6159926,12.5700267 49.6196593,13.8348267 49.0729185,15.3164711 L32.1503136,5.51540444 C31.8551037,5.34389333 31.5184741,5.25398222 31.1773259,5.25398222 C30.8369309,5.25398222 30.5010543,5.34389333 30.2050914,5.51540444 L10.2724,17.0618044 C10.3205975,17.3368267 10.3499679,17.6178933 10.3499679,17.9072711 C10.3499679,20.0062044 9.0192642,21.7946044 7.16215309,22.4814044 C7.14784444,22.4866933 7.13278272,22.4927378 7.11922716,22.4972711 C6.97086914,22.5494044 6.82251111,22.5954933 6.66963457,22.6340267 C6.63875802,22.6415822 6.60863457,22.6506489 6.57775802,22.6566933 C6.43768395,22.6891822 6.29459753,22.7148711 6.15075802,22.7352711 C6.11159753,22.74056 6.07319012,22.7481156 6.03327654,22.7526489 C5.85404198,22.7730489 5.67254815,22.7858933 5.48804198,22.7858933 C5.28998025,22.7858933 5.09493086,22.7700267 4.90214074,22.7466044 C4.85093086,22.74056 4.80047407,22.7314933 4.74851111,22.7231822 C4.60090617,22.7005156 4.45631358,22.6718044 4.31247407,22.6355378 C4.26879506,22.6242044 4.22436296,22.6143822 4.17993086,22.6015378 C3.8011284,22.4942489 3.4404,22.3454044 3.10452346,22.1550044 L3.10452346,22.1550044 Z" id="Fill-2"></path>
                <path d="M43.0516914,39.5980622 L27.8039506,47.8358844 L27.8039506,46.3806844 L32.5664691,43.9916178 C32.5785185,43.9855733 32.5868025,43.9757511 32.5980988,43.9697067 C32.6101481,43.9636622 32.6221975,43.9613956 32.6342469,43.9545956 C32.6711481,43.9326844 32.7005185,43.9017067 32.7344074,43.8767733 C32.7630247,43.8548622 32.7969136,43.83824 32.8232716,43.8140622 C32.8315556,43.8072622 32.8360741,43.7981956 32.8428519,43.79064 C32.8820123,43.7536178 32.913642,43.7097956 32.9460247,43.6667289 C32.9693704,43.6365067 32.9979877,43.6108178 33.018321,43.5783289 C33.0228395,43.5707733 33.0258519,43.5639733 33.0296173,43.5564178 C33.0574815,43.5095733 33.0755556,43.4589511 33.0958889,43.4083289 C33.1117037,43.3713067 33.132037,43.3373067 33.1433333,43.2980178 C33.1455926,43.2927289 33.1470988,43.2866844 33.149358,43.28064 C33.1636667,43.2269956 33.1659259,43.1710844 33.1727037,43.1144178 C33.1779753,43.07664 33.1900247,43.0411289 33.1907778,43.0025956 C33.1907778,42.9980622 33.1892716,42.9935289 33.1892716,42.9889956 C33.1892716,42.9852178 33.1907778,42.9821956 33.1907778,42.9776622 L33.1907778,30.1339733 L43.0516914,24.6380622 L43.0516914,39.5980622 Z M26.7021852,44.3988622 L21.0073457,41.2247733 L16.9745679,38.9769956 L19.912358,37.5029067 L29.6399753,42.9247733 L26.7021852,44.3988622 Z M25.5446914,47.8071733 L15.6837778,42.3105067 L15.6837778,40.8507733 L25.5446914,46.3466844 L25.5446914,47.8071733 Z M21.0706049,24.6380622 L30.9315185,30.1339733 L30.9315185,41.0517511 L21.0706049,35.5550844 L21.0706049,24.6380622 Z M28.7701605,19.0869956 L29.6173827,20.9985511 C29.8033951,21.8817956 30.7733704,22.4937956 32.0611481,22.4937956 C33.3489259,22.4937956 34.3189012,21.8817956 34.5049136,20.9985511 L35.3521358,19.0869956 L41.855037,22.7113956 L32.0611481,28.1702844 L22.2665062,22.7113956 L28.7701605,19.0869956 Z M32.0611481,14.0867289 C33.5650617,14.0867289 34.5440741,14.4924622 34.8807037,14.75464 C34.543321,15.0160622 33.5650617,15.4217956 32.0611481,15.4217956 C30.5572346,15.4217956 29.5782222,15.0160622 29.2408395,14.75464 C29.5782222,14.4924622 30.5564815,14.0867289 32.0611481,14.0867289 L32.0611481,14.0867289 Z M30.7455062,17.96424 L30.5738025,17.5773956 C31.040716,17.6491733 31.537,17.6884622 32.0611481,17.6884622 C32.5860494,17.6884622 33.0823333,17.6491733 33.5492469,17.5773956 L32.3917531,20.1901067 C32.2358642,20.2293956 31.8871852,20.2293956 31.7312963,20.1901067 L30.753037,17.9816178 L30.7455062,17.96424 Z M45.271037,22.4152178 C45.262,22.3789511 45.2424198,22.3472178 45.2296173,22.3124622 C45.2070247,22.25504 45.1881975,22.1968622 45.1580741,22.1439733 C45.1369877,22.1077067 45.1068642,22.0774844 45.0820123,22.0434844 C45.0481235,21.9981511 45.0187531,21.9505511 44.9788395,21.9105067 C44.9502222,21.88104 44.913321,21.8598844 44.8809383,21.83344 C44.8387654,21.8001956 44.8011111,21.7624178 44.7544198,21.7344622 C44.7499012,21.7321956 44.7446296,21.73144 44.7401111,21.7291733 C44.7363457,21.7269067 44.7333333,21.7231289 44.730321,21.7208622 L36.2739136,17.0077067 L36.6384074,16.1841511 C37.0194691,15.76784 37.2310864,15.2842844 37.2310864,14.75464 C37.2310864,14.7183733 37.2243086,14.6836178 37.2220494,14.6481067 C37.2280741,14.4871733 37.201716,14.3277511 37.140716,14.1773956 C36.7069383,12.78264 34.7052346,11.8200622 32.0611481,11.8200622 C29.4163086,11.8200622 27.4123457,12.7833956 26.9800741,14.1804178 C26.9205802,14.3285067 26.8949753,14.4841511 26.9002469,14.6420622 C26.8979877,14.67984 26.8912099,14.7161067 26.8912099,14.75464 C26.8912099,15.2842844 27.1028272,15.7693511 27.484642,16.1856622 L27.8491358,17.0077067 L19.3919753,21.7208622 C19.3882099,21.7231289 19.3851975,21.7269067 19.3814321,21.7291733 C19.3769136,21.73144 19.3723951,21.7321956 19.3678765,21.7344622 C19.3204321,21.7624178 19.2827778,21.8001956 19.241358,21.83344 C19.2089753,21.8598844 19.1728272,21.88104 19.1434568,21.9105067 C19.1035432,21.9505511 19.0726667,21.9981511 19.0395309,22.0434844 C19.014679,22.0774844 18.9845556,22.1077067 18.9642222,22.1439733 C18.9333457,22.1968622 18.9145185,22.25504 18.8934321,22.3124622 C18.8798765,22.3472178 18.8610494,22.3789511 18.8505062,22.4152178 C18.8249012,22.5104178 18.8113457,22.6101511 18.8113457,22.7113956 L18.8113457,35.5210844 L14.0488272,37.9109067 C14.038284,37.9161956 14.0292469,37.9260178 14.0171975,37.9320622 C14.0059012,37.9381067 13.9930988,37.9403733 13.9810494,37.9471733 C13.9449012,37.9690844 13.916284,38.0000622 13.8823951,38.0249956 C13.8454938,38.0529511 13.8070864,38.0778844 13.7739506,38.1096178 C13.7347901,38.1481511 13.7024074,38.1919733 13.6685185,38.23504 C13.6421605,38.2705511 13.612037,38.30304 13.5894444,38.3408178 C13.5600741,38.3891733 13.5404938,38.4413067 13.5194074,38.49344 C13.5028395,38.5334844 13.4817531,38.5712622 13.4704568,38.6128178 C13.4538889,38.6694844 13.4493704,38.7284178 13.4425926,38.7873511 C13.4380741,38.8251289 13.4252716,38.86064 13.4245185,38.8999289 C13.4245185,38.9044622 13.4260247,38.90824 13.4260247,38.9127733 C13.4260247,38.9165511 13.4245185,38.9203289 13.4245185,38.9241067 L13.4245185,42.9776622 C13.4245185,43.38944 13.646679,43.7687289 14.0059012,43.9681956 L26.125321,50.7236178 C26.1787901,50.7530844 26.2360247,50.7697067 26.291,50.7901067 C26.3226296,50.80144 26.352,50.8188178 26.3843827,50.8271289 C26.4800247,50.8528178 26.5771728,50.8664178 26.674321,50.8664178 C26.769963,50.8664178 26.8656049,50.8528178 26.9589877,50.82864 C26.9891111,50.8210844 27.0169753,50.8044622 27.0478519,50.7938844 C27.1020741,50.77424 27.1585556,50.7591289 27.2097654,50.7311733 L44.7167654,41.2731289 C45.0827654,41.0751733 45.3109506,40.6921067 45.3109506,40.27504 L45.3109506,22.7113956 C45.3109506,22.6101511 45.296642,22.5104178 45.271037,22.4152178 L45.271037,22.4152178 Z" id="Fill-4"></path>
            </g>
        </g>
        <path d="M84.608,45.087 C84.013,46.209 82.84,46.974 81.429,46.974 C79.44,46.974 77.825,45.376 77.825,43.37 C77.825,41.364 79.44,39.766 81.429,39.766 C82.823,39.766 84.013,40.531 84.608,41.653 L87.702,40.259 C86.529,38.032 84.166,36.485 81.429,36.485 C77.604,36.485 74.391,39.579 74.391,43.37 C74.391,47.161 77.604,50.255 81.429,50.255 C84.166,50.255 86.563,48.708 87.719,46.447 L84.608,45.087 Z M89.441428,43.37 C89.441428,47.161 92.654428,50.255 96.479428,50.255 C100.355428,50.255 103.517428,47.161 103.517428,43.37 C103.517428,39.579 100.355428,36.485 96.479428,36.485 C92.654428,36.485 89.441428,39.579 89.441428,43.37 Z M92.875428,43.37 C92.875428,41.364 94.490428,39.766 96.479428,39.766 C98.519428,39.766 100.083428,41.364 100.083428,43.37 C100.083428,45.376 98.519428,46.974 96.479428,46.974 C94.490428,46.974 92.875428,45.376 92.875428,43.37 Z M106.089856,50 L112.243856,50 C116.391856,50 118.516856,46.991 118.516856,43.37 C118.516856,39.766 116.391856,36.74 112.243856,36.74 L106.089856,36.74 L106.089856,50 Z M111.988856,40.038 C114.011856,40.038 115.082856,41.381 115.082856,43.37 C115.082856,45.359 114.011856,46.719 111.988856,46.719 L109.489856,46.719 L109.489856,40.038 L111.988856,40.038 Z M121.157284,50 L131.340284,50 L131.340284,46.719 L124.557284,46.719 L124.557284,45.019 L130.133284,45.019 L130.133284,41.942 L124.557284,41.942 L124.557284,40.038 L131.340284,40.038 L131.340284,36.74 L121.157284,36.74 L121.157284,50 Z M81.055,65.087 L84.268,65.087 L84.268,65.461 C83.639,66.379 82.619,66.974 81.429,66.974 C79.423,66.974 77.825,65.376 77.825,63.37 C77.825,61.364 79.423,59.766 81.429,59.766 C82.585,59.766 83.605,60.293 84.268,61.126 L87.039,59.256 C85.764,57.59 83.707,56.485 81.429,56.485 C77.587,56.485 74.391,59.579 74.391,63.37 C74.391,67.161 77.587,70.255 81.429,70.255 C82.789,70.255 84.132,69.745 84.778,68.759 L84.778,70 L87.447,70 L87.447,62.265 L81.055,62.265 L81.055,65.087 Z M90.325428,70 L100.508428,70 L100.508428,66.719 L93.725428,66.719 L93.725428,65.019 L99.301428,65.019 L99.301428,61.942 L93.725428,61.942 L93.725428,60.038 L100.508428,60.038 L100.508428,56.74 L90.325428,56.74 L90.325428,70 Z M106.718856,70 L106.718856,62.605 L112.634856,70 L115.507856,70 L115.507856,56.74 L112.124856,56.74 L112.124856,64.152 L106.208856,56.74 L103.318856,56.74 L103.318856,70 L106.718856,70 Z M118.709284,70 L128.892284,70 L128.892284,66.719 L122.109284,66.719 L122.109284,65.019 L127.685284,65.019 L127.685284,61.942 L122.109284,61.942 L122.109284,60.038 L128.892284,60.038 L128.892284,56.74 L118.709284,56.74 L118.709284,70 Z M131.702712,56.74 L131.702712,70 L135.085712,70 L135.085712,66.447 L136.819712,66.447 L139.335712,70 L143.398712,70 L140.525712,65.988 C142.310712,65.172 143.143712,63.438 143.143712,61.585 C143.143712,58.95 141.579712,56.74 138.179712,56.74 L131.702712,56.74 Z M137.992712,59.834 C139.352712,59.834 139.862712,60.599 139.862712,61.619 C139.862712,62.537 139.352712,63.37 137.992712,63.37 L135.085712,63.37 L135.085712,59.834 L137.992712,59.834 Z M149.98314,56.74 L144.61114,70 L148.31714,70 L149.04814,68.062 L154.26714,68.062 L154.99814,70 L158.70414,70 L153.34914,56.74 L149.98314,56.74 Z M153.11114,64.985 L150.20414,64.985 L151.66614,61.092 L153.11114,64.985 Z M158.029568,60.038 L162.160568,60.038 L162.160568,70 L165.560568,70 L165.560568,60.038 L169.691568,60.038 L169.691568,56.74 L158.029568,56.74 L158.029568,60.038 Z M171.175996,63.37 C171.175996,67.161 174.388996,70.255 178.213996,70.255 C182.089996,70.255 185.251996,67.161 185.251996,63.37 C185.251996,59.579 182.089996,56.485 178.213996,56.485 C174.388996,56.485 171.175996,59.579 171.175996,63.37 Z M174.609996,63.37 C174.609996,61.364 176.224996,59.766 178.213996,59.766 C180.253996,59.766 181.817996,61.364 181.817996,63.37 C181.817996,65.376 180.253996,66.974 178.213996,66.974 C176.224996,66.974 174.609996,65.376 174.609996,63.37 Z M187.824424,56.74 L187.824424,70 L191.207424,70 L191.207424,66.447 L192.941424,66.447 L195.457424,70 L199.520424,70 L196.647424,65.988 C198.432424,65.172 199.265424,63.438 199.265424,61.585 C199.265424,58.95 197.701424,56.74 194.301424,56.74 L187.824424,56.74 Z M194.114424,59.834 C195.474424,59.834 195.984424,60.599 195.984424,61.619 C195.984424,62.537 195.474424,63.37 194.114424,63.37 L191.207424,63.37 L191.207424,59.834 L194.114424,59.834 Z" id="CodeGenerator" fill="#050713" fill-rule="nonzero"></path>
    </g>
</svg>