<?xml version="1.0" encoding="UTF-8"?>
<svg width="215px" height="105px" viewBox="0 0 215 105" version="1.1" xmlns="http://www.w3.org/2000/svg" xmlns:xlink="http://www.w3.org/1999/xlink">
    <title>GraphQL Tools/ Mesh</title>
    <g id="GraphQL-Tools/-Mesh" stroke="none" stroke-width="1" fill="none" fill-rule="evenodd">
        <rect id="Rectangle" fill="#FFFFFF" x="0" y="0" width="215" height="105"></rect>
        <g id="Libraries-Logos-/-Mesh" transform="translate(6.000000, 20.000000)" fill="#1BCBE2">
            <path d="M36.0400049,60.3145407 C36.0400049,60.5683309 36.0151531,60.8160963 35.9767457,61.0593432 C35.9722272,61.0902198 35.9684617,61.1203432 35.9631901,61.1504667 C35.5655605,63.4345778 33.5736469,65.1772198 31.178079,65.1772198 C29.0415728,65.1772198 27.2273877,63.7900346 26.5759679,61.8711704 L6.34580741,50.1923062 C4.33958519,49.0340593 3.10452346,46.8930346 3.10452346,44.5780469 L3.10452346,24.9066765 C3.85384444,25.1604667 4.65286914,25.3043062 5.48804198,25.3043062 C6.23736296,25.3043062 6.96032593,25.1905901 7.64262222,24.9842444 L7.64262222,44.5780469 C7.64262222,45.2701333 8.01464691,45.9147753 8.61560988,46.2611951 L27.4872025,57.1568494 C28.3796099,56.1153309 29.7012765,55.4518617 31.178079,55.4518617 C32.7844123,55.4518617 34.2062395,56.2373309 35.0926222,57.441516 C35.108437,57.4633556 35.1250049,57.484442 35.1408198,57.5062815 C35.2025728,57.5943926 35.2613136,57.6840099 35.3177951,57.7766395 C35.3396346,57.8120346 35.3614741,57.8466765 35.3825605,57.8828247 C35.4322642,57.9679235 35.4782025,58.0552815 35.5226346,58.1433926 C35.5467333,58.190837 35.5693259,58.2382815 35.5911654,58.286479 C35.6295728,58.3685654 35.6649679,58.4514049 35.6988568,58.5357506 C35.7229556,58.5959975 35.744042,58.6562444 35.7658815,58.7172444 C35.7929926,58.7940593 35.8193506,58.8716272 35.8419432,58.9499481 C35.8645358,59.0252568 35.8811037,59.1005654 35.8999309,59.175121 C35.9172519,59.2459111 35.9353259,59.3159481 35.9488815,59.3874914 C35.9677086,59.4816272 35.979758,59.576516 35.9933136,59.672158 C36.0000914,59.7301457 36.0113877,59.785121 36.0166593,59.8423556 C36.0309679,59.9982444 36.0400049,60.1548864 36.0400049,60.3145407 L36.0400049,60.3145407 Z M60.919721,17.8487506 C60.919721,19.307479 60.2720667,20.614837 59.2508815,21.5064914 L59.2508815,44.5780469 C59.2508815,46.8930346 58.0165728,49.0340593 56.0095975,50.1923062 L38.629116,60.2264296 C38.6095358,58.5847012 38.0545111,57.0732568 37.1342395,55.8487383 L53.7405481,46.2611951 C54.340758,45.9147753 54.7127827,45.2701333 54.7127827,44.5780469 L54.7127827,22.5178864 C52.684721,21.9334914 51.195116,20.0635778 51.195116,17.8487506 C51.195116,16.7703309 51.5528321,15.7762568 52.1492765,14.9697012 C52.1575605,14.9568988 52.1673506,14.9440963 52.1771407,14.9312938 C52.2893506,14.7821827 52.4098444,14.6383432 52.5386222,14.5027877 L52.5559432,14.4839605 C52.8225358,14.2060716 53.120758,13.9620716 53.4460914,13.7534667 C53.4799802,13.7316272 53.5153753,13.7120469 53.5500173,13.6902074 C53.6787951,13.6133926 53.8105852,13.5403432 53.9461407,13.4748247 C53.9860543,13.4559975 54.0259679,13.4356642 54.0666346,13.4175901 C54.236079,13.3407753 54.4107951,13.2699852 54.5907827,13.2142568 C54.5915358,13.2142568 54.5915358,13.2142568 54.5915358,13.2135037 C55.054684,13.0666519 55.5464494,12.9860716 56.0577951,12.9860716 C58.7395358,12.9860716 60.919721,15.1670099 60.919721,17.8487506 L60.919721,17.8487506 Z M3.10452346,22.0826025 C1.6269679,21.2474296 0.625362963,19.6636889 0.625362963,17.8487506 C0.625362963,15.1670099 2.80630123,12.9860716 5.48804198,12.9860716 C6.18314074,12.9860716 6.84284444,13.1359358 7.44154815,13.399516 L27.936042,1.56702222 C28.9384,0.987898765 30.0589926,0.69871358 31.1773259,0.69871358 C32.2971654,0.69871358 33.4170049,0.987898765 34.419363,1.56702222 L51.9022642,11.6613926 C50.6159926,12.5289481 49.6196593,13.7896148 49.0729185,15.2664173 L32.1503136,5.49738025 C31.8551037,5.32642963 31.5184741,5.23681235 31.1773259,5.23681235 C30.8369309,5.23681235 30.5010543,5.32642963 30.2050914,5.49738025 L10.2724,17.0060469 C10.3205975,17.2801704 10.3499679,17.5603185 10.3499679,17.8487506 C10.3499679,19.9408247 9.0192642,21.7233802 7.16215309,22.4079358 C7.14784444,22.4132074 7.13278272,22.4192321 7.11922716,22.4237506 C6.97086914,22.4757136 6.82251111,22.5216519 6.66963457,22.5600593 C6.63875802,22.5675901 6.60863457,22.5766272 6.57775802,22.5826519 C6.43768395,22.6150346 6.29459753,22.6406395 6.15075802,22.6609728 C6.11159753,22.6662444 6.07319012,22.6737753 6.03327654,22.6782938 C5.85404198,22.6986272 5.67254815,22.7114296 5.48804198,22.7114296 C5.28998025,22.7114296 5.09493086,22.6956148 4.90214074,22.6722691 C4.85093086,22.6662444 4.80047407,22.6572074 4.74851111,22.6489235 C4.60090617,22.6263309 4.45631358,22.5977136 4.31247407,22.5615654 C4.26879506,22.5502691 4.22436296,22.540479 4.17993086,22.5276765 C3.8011284,22.4207383 3.4404,22.2723802 3.10452346,22.0826025 L3.10452346,22.0826025 Z" id="Fill-2"></path>
            <path d="M31.0980392,40.2446794 C31.5495924,40.2446794 31.9170842,40.6123728 31.9170842,41.063926 L31.9170842,41.063926 L31.9170842,44.5384666 C33.1409143,44.8978949 34.0053161,46.0336319 34.0053161,47.3280172 C34.0053161,48.9310311 32.7010531,50.2352941 31.0980392,50.2352941 C29.4950253,50.2352941 28.1907623,48.9310311 28.1907623,47.3280172 C28.1907623,46.0336319 29.0551641,44.8978949 30.2789943,44.5384666 L30.2789943,44.5384666 L30.2789943,41.063926 C30.2789943,40.6123728 30.646486,40.2446794 31.0980392,40.2446794 Z M31.0980392,46.0590317 C30.3983333,46.0590317 29.8290538,46.6283113 29.8290538,47.3280172 C29.8290538,48.0277231 30.3983333,48.5970026 31.0980392,48.5970026 C31.7977451,48.5970026 32.3670247,48.0277231 32.3670247,47.3280172 C32.3670247,46.6283113 31.7977451,46.0590317 31.0980392,46.0590317 Z M36.7197355,37.9160357 C37.0392497,37.5969247 37.5589391,37.5967231 37.8784533,37.9158341 L37.8784533,37.9158341 L38.9365795,38.9741619 C39.5637144,38.567764 40.2853931,38.3540826 41.0395273,38.3540826 C43.1799701,38.3540826 44.9212722,40.0953847 44.9212722,42.2356259 C44.9212722,44.3760687 43.1799701,46.1173708 41.0397289,46.1173708 C38.8994877,46.1173708 37.1581856,44.3760687 37.1581856,42.2356259 C37.1581856,41.4812902 37.371867,40.7596114 37.7780633,40.1324765 L37.7780633,40.1324765 L36.7199371,39.0743503 C36.5653204,38.9199352 36.4800495,38.7141157 36.4800495,38.4953946 C36.4800495,38.2766735 36.5653204,38.0710555 36.7197355,37.9160357 Z M24.3175848,37.9158341 C24.6375022,37.5969247 25.15699,37.5973278 25.476101,37.9162373 C25.7954136,38.2355499 25.7954136,38.7552393 25.476101,39.0745519 L25.476101,39.0745519 L24.4179748,40.1326781 C24.8243727,40.759813 25.0380541,41.4814917 25.0380541,42.2356259 C25.0380541,44.3760687 23.296752,46.1173708 21.1565108,46.1173708 C19.016068,46.1173708 17.2747659,44.3760687 17.2747659,42.2356259 C17.2747659,40.0953847 19.016068,38.3540826 21.1565108,38.3540826 C21.910645,38.3540826 22.6323237,38.567764 23.2594586,38.9741619 L23.2594586,38.9741619 Z M41.0395273,39.9923741 C39.8025941,39.9923741 38.7962755,40.9986927 38.7962755,42.2356259 C38.7962755,43.4727607 39.8025941,44.4790793 41.0395273,44.4790793 C42.2766622,44.4790793 43.2829807,43.4727607 43.2829807,42.2356259 C43.2829807,40.9986927 42.2766622,39.9923741 41.0395273,39.9923741 Z M21.1565108,39.9923741 C19.919376,39.9923741 18.9130574,40.9986927 18.9130574,42.2356259 C18.9130574,43.4727607 19.919376,44.4790793 21.1565108,44.4790793 C22.393444,44.4790793 23.3997626,43.4727607 23.3997626,42.2356259 C23.3997626,40.9986927 22.393444,39.9923741 21.1565108,39.9923741 Z M30.8104764,25.2630512 C30.9959358,25.1933024 31.2001427,25.1933024 31.385602,25.2630512 L31.385602,25.2630512 L37.5105987,27.5597234 C37.8285002,27.6788609 38.0421816,27.9870863 38.0421816,28.3267591 L38.0421816,28.3267591 L38.0421816,32.0587254 C38.0421816,32.5102786 37.6746899,32.8777703 37.2229351,32.8777703 C36.7713819,32.8777703 36.4038902,32.5102786 36.4038902,32.0587254 L36.4038902,32.0587254 L36.4038902,29.5086593 L31.917185,31.1912997 L31.917185,37.3763691 L36.4038902,35.6937287 L36.4038902,34.4672779 C36.4038902,34.0157247 36.7713819,33.6480314 37.2229351,33.6480314 C37.6746899,33.6480314 38.0421816,34.0157247 38.0421816,34.4672779 L38.0421816,34.4672779 L38.0421816,36.2613956 C38.0421816,36.6010684 37.8285002,36.9090922 37.5105987,37.0282297 L37.5105987,37.0282297 L31.385602,39.325305 C31.3315769,39.3454636 31.2755359,39.3599779 31.2188902,39.3684445 L31.2188902,39.3684445 L31.2188902,39.478309 L24.6854797,37.0284313 C24.3675782,36.9092938 24.1538968,36.6010684 24.1538968,36.2613956 L24.1538968,36.2613956 L24.1538968,32.4032363 C24.1538968,31.9514815 24.5213885,31.5839898 24.9731433,31.5839898 C25.4246965,31.5839898 25.7921883,31.9514815 25.7921883,32.4032363 L25.7921883,32.4032363 L25.7921883,35.6939303 L30.2788935,37.3763691 L30.2788935,31.1912997 L25.7921883,29.5086593 L25.7921883,29.9858139 C25.7921883,30.4375687 25.4246965,30.8050605 24.9731433,30.8050605 C24.5213885,30.8050605 24.1538968,30.4375687 24.1538968,29.9858139 L24.1538968,29.9858139 L24.1538968,28.3267591 C24.1538968,27.9872878 24.3675782,27.6790625 24.6852781,27.5597234 L24.6852781,27.5597234 Z M46.1319388,29.3868407 C47.7349526,29.3868407 49.0392157,30.6911038 49.0392157,32.2941176 C49.0392157,33.8971315 47.7349526,35.2013946 46.1319388,35.2013946 C44.8375534,35.2013946 43.7018165,34.3369927 43.3423882,33.1131626 L43.3423882,33.1131626 L39.8678475,33.1131626 C39.4162943,33.1131626 39.048601,32.7456709 39.048601,32.2941176 C39.048601,31.8425644 39.4162943,31.4750727 39.8678475,31.4750727 L39.8678475,31.4750727 L43.3423882,31.4750727 C43.7018165,30.2512426 44.8375534,29.3868407 46.1319388,29.3868407 Z M16.0640994,29.3868407 C17.3584847,29.3868407 18.4942216,30.2512426 18.8536499,31.4750727 L18.8536499,31.4750727 L22.3281906,31.4750727 C22.7799454,31.4750727 23.1474371,31.8425644 23.1474371,32.2941176 C23.1474371,32.7456709 22.7799454,33.1131626 22.3281906,33.1131626 L22.3281906,33.1131626 L18.8536499,33.1131626 C18.4942216,34.3369927 17.3584847,35.2013946 16.0640994,35.2013946 C14.4610855,35.2013946 13.1568224,33.8971315 13.1568224,32.2941176 C13.1568224,30.6911038 14.4610855,29.3868407 16.0640994,29.3868407 Z M46.1319388,31.0251322 C45.4322329,31.0251322 44.8629533,31.5944118 44.8629533,32.2941176 C44.8629533,32.9938235 45.4322329,33.5631031 46.1319388,33.5631031 C46.8316446,33.5631031 47.4009242,32.9938235 47.4009242,32.2941176 C47.4009242,31.5944118 46.8316446,31.0251322 46.1319388,31.0251322 Z M16.0640994,31.0251322 C15.3643935,31.0251322 14.7951139,31.5944118 14.7951139,32.2941176 C14.7951139,32.9938235 15.3643935,33.5631031 16.0640994,33.5631031 C16.7638052,33.5631031 17.3328832,32.9938235 17.3328832,32.2941176 C17.3328832,31.5944118 16.7638052,31.0251322 16.0640994,31.0251322 Z M31.0979384,26.9045681 L27.3058994,28.3267591 L31.0979384,29.7489501 L34.890179,28.3267591 L31.0979384,26.9045681 Z M41.0395676,18.4708645 C43.1800105,18.4708645 44.9213125,20.2121666 44.9213125,22.3526094 C44.9213125,24.4928506 43.1800105,26.2341527 41.0395676,26.2341527 C40.2854335,26.2341527 39.5637547,26.0204712 38.9366199,25.6140734 L38.9366199,25.6140734 L37.8784936,26.6721996 C37.7234738,26.8268163 37.5176542,26.9120872 37.2991347,26.9120872 C37.0804136,26.9120872 36.8749972,26.8268163 36.7199774,26.671998 C36.4006648,26.3526854 36.4006648,25.832996 36.7199774,25.5136834 L36.7199774,25.5136834 L37.7781037,24.4555572 C37.3717058,23.8284223 37.1580243,23.1067436 37.1580243,22.3526094 C37.1580243,20.2121666 38.8993264,18.4708645 41.0395676,18.4708645 Z M21.1565511,18.4708645 C23.2969939,18.4708645 25.038296,20.2121666 25.038296,22.3526094 C25.038296,23.1067436 24.8246146,23.8284223 24.4180151,24.4557588 L24.4180151,24.4557588 L25.4761413,25.513885 C25.630758,25.6683001 25.716029,25.8741196 25.716029,26.0928407 C25.716029,26.3115618 25.630758,26.5171798 25.4763429,26.6721996 C25.3209199,26.8268163 25.1155035,26.9120872 24.896984,26.9120872 C24.6784645,26.9120872 24.472645,26.8268163 24.3178267,26.6724012 L24.3178267,26.6724012 L23.2594989,25.6140734 C22.6323641,26.0204712 21.9106853,26.2341527 21.1565511,26.2341527 C19.0161083,26.2341527 17.2748062,24.4928506 17.2748062,22.3526094 C17.2748062,20.2121666 19.0161083,18.4708645 21.1565511,18.4708645 Z M41.0395676,20.109156 C39.8026344,20.109156 38.7963158,21.1154746 38.7963158,22.3526094 C38.7963158,23.5895426 39.8026344,24.5958612 41.0395676,24.5958612 C42.2767025,24.5958612 43.283021,23.5895426 43.283021,22.3526094 C43.283021,21.1154746 42.2767025,20.109156 41.0395676,20.109156 Z M21.1565511,20.109156 C19.9194163,20.109156 18.9130977,21.1154746 18.9130977,22.3526094 C18.9130977,23.5895426 19.9194163,24.5958612 21.1565511,24.5958612 C22.3934844,24.5958612 23.3998029,23.5895426 23.3998029,22.3526094 C23.3998029,21.1154746 22.3934844,20.109156 21.1565511,20.109156 Z M31.0980392,14.3529412 C32.7010531,14.3529412 34.0053161,15.6572042 34.0053161,17.2602181 C34.0053161,18.5546034 33.1409143,19.6903404 31.9170842,20.0497687 L31.9170842,20.0497687 L31.9170842,23.5243093 C31.9170842,23.9758625 31.5495924,24.3435558 31.0980392,24.3435558 C30.646486,24.3435558 30.2789943,23.9758625 30.2789943,23.5243093 L30.2789943,23.5243093 L30.2789943,20.0497687 C29.0551641,19.6903404 28.1907623,18.5546034 28.1907623,17.2602181 C28.1907623,15.6572042 29.4950253,14.3529412 31.0980392,14.3529412 Z M31.0980392,15.9912327 C30.3983333,15.9912327 29.8290538,16.5605122 29.8290538,17.2602181 C29.8290538,17.959924 30.3983333,18.5292036 31.0980392,18.5292036 C31.7977451,18.5292036 32.3670247,17.959924 32.3670247,17.2602181 C32.3670247,16.5605122 31.7977451,15.9912327 31.0980392,15.9912327 Z" id="Combined-Shape"></path>
        </g>
        <path d="M78.565,41.821 L80.644,41.821 L80.644,42.063 C80.237,42.657 79.577,43.042 78.807,43.042 C77.509,43.042 76.475,42.008 76.475,40.71 C76.475,39.412 77.509,38.378 78.807,38.378 C79.555,38.378 80.215,38.719 80.644,39.258 L82.437,38.048 C81.612,36.97 80.281,36.255 78.807,36.255 C76.321,36.255 74.253,38.257 74.253,40.71 C74.253,43.163 76.321,45.165 78.807,45.165 C79.687,45.165 80.556,44.835 80.974,44.197 L80.974,45 L82.701,45 L82.701,39.995 L78.565,39.995 L78.565,41.821 Z M86.3105714,36.42 L86.3105714,45 L88.4995714,45 L88.4995714,42.701 L89.6215714,42.701 L91.2495714,45 L93.8785714,45 L92.0195714,42.404 C93.1745714,41.876 93.7135714,40.754 93.7135714,39.555 C93.7135714,37.85 92.7015714,36.42 90.5015714,36.42 L86.3105714,36.42 Z M90.3805714,38.422 C91.2605714,38.422 91.5905714,38.917 91.5905714,39.577 C91.5905714,40.171 91.2605714,40.71 90.3805714,40.71 L88.4995714,40.71 L88.4995714,38.422 L90.3805714,38.422 Z M99.8861429,36.42 L96.4101429,45 L98.8081429,45 L99.2811429,43.746 L102.658143,43.746 L103.131143,45 L105.529143,45 L102.064143,36.42 L99.8861429,36.42 Z M101.910143,41.755 L100.029143,41.755 L100.975143,39.236 L101.910143,41.755 Z M108.687714,45 L110.887714,45 L110.887714,43.053 L112.471714,43.053 C114.748714,43.053 115.837714,41.524 115.837714,39.709 C115.837714,37.982 114.748714,36.42 112.471714,36.42 L108.687714,36.42 L108.687714,45 Z M112.350714,38.422 C113.274714,38.422 113.615714,39.038 113.615714,39.72 C113.615714,40.479 113.274714,41.051 112.350714,41.051 L110.887714,41.051 L110.887714,38.422 L112.350714,38.422 Z M124.870286,36.42 L124.870286,39.753 L121.372286,39.753 L121.372286,36.42 L119.183286,36.42 L119.183286,45 L121.372286,45 L121.372286,41.81 L124.870286,41.81 L124.870286,45 L127.070286,45 L127.070286,36.42 L124.870286,36.42 Z M130.481857,40.71 C130.481857,42.91 132.153857,44.758 134.287857,45.099 C135.772857,45.594 136.773857,47.134 138.500857,47.134 C139.281857,47.134 140.282857,46.815 140.898857,45.968 L139.237857,44.626 C139.006857,44.978 138.610857,45.011 138.489857,45.011 C138.115857,45.011 137.763857,44.813 137.367857,44.538 C138.698857,43.757 139.589857,42.338 139.589857,40.71 C139.589857,38.257 137.543857,36.255 135.035857,36.255 C132.560857,36.255 130.481857,38.257 130.481857,40.71 Z M132.703857,40.71 C132.703857,39.412 133.748857,38.378 135.035857,38.378 C136.355857,38.378 137.367857,39.412 137.367857,40.71 C137.367857,42.008 136.355857,43.042 135.035857,43.042 C133.748857,43.042 132.703857,42.008 132.703857,40.71 Z M143.012429,45 L143.012429,36.42 L145.201429,36.42 L145.201429,42.877 L149.315429,42.877 L149.315429,45 L143.012429,45 Z" id="GraphQL" fill="#6D7A99" fill-rule="nonzero"></path>
        <path d="M77.5649306,65.6469087 L77.5649306,59.1092728 L80.4507535,65.112497 L82.784351,65.112497 L85.6701739,59.1092728 L85.6701739,65.6469087 L89.2151045,65.6469087 L89.2151045,51.7522058 L85.6345465,51.7522058 L81.6086454,60.5343706 L77.600558,51.7522058 L74.02,51.7522058 L74.02,65.6469087 L77.5649306,65.6469087 Z M105.596393,65.6469087 L105.596393,62.2088604 L98.4887184,62.2088604 L98.4887184,60.4274882 L104.331619,60.4274882 L104.331619,57.2032046 L98.4887184,57.2032046 L98.4887184,55.2080678 L105.596393,55.2080678 L105.596393,51.7522058 L94.9259741,51.7522058 L94.9259741,65.6469087 L105.596393,65.6469087 Z M116.241664,65.9141145 C119.412506,65.9141145 121.763917,64.4890168 121.763917,61.7813311 C121.763917,58.7351847 118.486193,57.5951065 116.562311,56.9181851 C114.905635,56.348146 114.264341,56.0631264 114.264341,55.5109011 C114.264341,55.0477443 114.745311,54.5667738 115.956644,54.5667738 C117.399556,54.5667738 118.094291,55.3683913 118.094291,56.0453127 L118.094291,56.1700088 L121.567966,56.1700088 L121.567966,55.9740578 C121.567966,53.212931 119.127487,51.485 115.885389,51.485 C112.714547,51.485 110.452204,53.1416761 110.452204,55.7959206 C110.452204,58.6639298 113.355841,59.7327531 115.564742,60.4631157 C117.239232,61.0331548 117.933967,61.3894292 117.933967,61.977282 C117.933967,62.3869976 117.506438,62.8323406 116.170409,62.8323406 C114.54936,62.8323406 113.818998,62.1019781 113.818998,61.5675664 L113.818998,61.4784978 L110.345322,61.4784978 L110.345322,61.6388213 C110.345322,64.3643207 112.910498,65.9141145 116.241664,65.9141145 Z M130.467492,65.6469087 L130.467492,60.4809294 L136.132256,60.4809294 L136.132256,65.6469087 L139.695,65.6469087 L139.695,51.7522058 L136.132256,51.7522058 L136.132256,57.1497635 L130.467492,57.1497635 L130.467492,51.7522058 L126.922562,51.7522058 L126.922562,65.6469087 L130.467492,65.6469087 Z" id="MESH" fill="#000000" fill-rule="nonzero"></path>
    </g>
</svg>