<?xml version="1.0" encoding="UTF-8"?>
<svg width="215px" height="105px" viewBox="0 0 215 105" version="1.1" xmlns="http://www.w3.org/2000/svg" xmlns:xlink="http://www.w3.org/1999/xlink">
    <!-- Generator: Sketch 59.1 (86144) - https://sketch.com -->
    <title>GraphQL Tools/ Scalars</title>
    <desc>Created with Sketch.</desc>
    <g id="GraphQL-Tools/-Scalars" stroke="none" stroke-width="1" fill="none" fill-rule="evenodd">
        <g id="Libraries-Logos-/-Scalars" transform="translate(6.000000, 20.000000)" fill="#FF3388">
            <path d="M36.0400049,60.5122933 C36.0400049,60.7669156 36.0151531,61.0154933 35.9767457,61.2595378 C35.9722272,61.2905156 35.9684617,61.3207378 35.9631901,61.35096 C35.5655605,63.64256 33.5736469,65.3909156 31.178079,65.3909156 C29.0415728,65.3909156 27.2273877,63.9991822 26.5759679,62.0740267 L6.34580741,50.3568711 C4.33958519,49.1948267 3.10452346,47.0467822 3.10452346,44.7242044 L3.10452346,24.9883378 C3.85384444,25.24296 4.65286914,25.3872711 5.48804198,25.3872711 C6.23736296,25.3872711 6.96032593,25.2731822 7.64262222,25.06616 L7.64262222,44.7242044 C7.64262222,45.41856 8.01464691,46.0653156 8.61560988,46.4128711 L27.4872025,57.3442489 C28.3796099,56.2993156 29.7012765,55.6336711 31.178079,55.6336711 C32.7844123,55.6336711 34.2062395,56.4217156 35.0926222,57.6298489 C35.108437,57.65176 35.1250049,57.6729156 35.1408198,57.6948267 C35.2025728,57.7832267 35.2613136,57.8731378 35.3177951,57.9660711 C35.3396346,58.0015822 35.3614741,58.0363378 35.3825605,58.0726044 C35.4322642,58.1579822 35.4782025,58.2456267 35.5226346,58.3340267 C35.5467333,58.3816267 35.5693259,58.4292267 35.5911654,58.4775822 C35.6295728,58.5599378 35.6649679,58.6430489 35.6988568,58.7276711 C35.7229556,58.7881156 35.744042,58.84856 35.7658815,58.90976 C35.7929926,58.9868267 35.8193506,59.0646489 35.8419432,59.1432267 C35.8645358,59.2187822 35.8811037,59.2943378 35.8999309,59.3691378 C35.9172519,59.44016 35.9353259,59.5104267 35.9488815,59.5822044 C35.9677086,59.6766489 35.979758,59.7718489 35.9933136,59.8678044 C36.0000914,59.9259822 36.0113877,59.9811378 36.0166593,60.03856 C36.0309679,60.19496 36.0400049,60.3521156 36.0400049,60.5122933 L36.0400049,60.5122933 Z M60.919721,17.9072711 C60.919721,19.3707822 60.2720667,20.6824267 59.2508815,21.5770044 L59.2508815,44.7242044 C59.2508815,47.0467822 58.0165728,49.1948267 56.0095975,50.3568711 L38.629116,60.4238933 C38.6095358,58.7767822 38.0545111,57.2603822 37.1342395,56.0318489 L53.7405481,46.4128711 C54.340758,46.0653156 54.7127827,45.41856 54.7127827,44.7242044 L54.7127827,22.5917156 C52.684721,22.0054044 51.195116,20.12936 51.195116,17.9072711 C51.195116,16.8253156 51.5528321,15.8279822 52.1492765,15.0187822 C52.1575605,15.0059378 52.1673506,14.9930933 52.1771407,14.9802489 C52.2893506,14.8306489 52.4098444,14.6863378 52.5386222,14.5503378 L52.5559432,14.5314489 C52.8225358,14.2526489 53.120758,14.0078489 53.4460914,13.79856 C53.4799802,13.7766489 53.5153753,13.7570044 53.5500173,13.7350933 C53.6787951,13.6580267 53.8105852,13.5847378 53.9461407,13.5190044 C53.9860543,13.5001156 54.0259679,13.4797156 54.0666346,13.4615822 C54.236079,13.3845156 54.4107951,13.3134933 54.5907827,13.2575822 C54.5915358,13.2575822 54.5915358,13.2575822 54.5915358,13.2568267 C55.054684,13.1094933 55.5464494,13.0286489 56.0577951,13.0286489 C58.7395358,13.0286489 60.919721,15.2167378 60.919721,17.9072711 L60.919721,17.9072711 Z M3.10452346,22.1550044 C1.6269679,21.3170933 0.625362963,19.72816 0.625362963,17.9072711 C0.625362963,15.2167378 2.80630123,13.0286489 5.48804198,13.0286489 C6.18314074,13.0286489 6.84284444,13.1790044 7.44154815,13.4434489 L27.936042,1.57216 C28.9384,0.991137778 30.0589926,0.701004444 31.1773259,0.701004444 C32.2971654,0.701004444 33.4170049,0.991137778 34.419363,1.57216 L51.9022642,11.6996267 C50.6159926,12.5700267 49.6196593,13.8348267 49.0729185,15.3164711 L32.1503136,5.51540444 C31.8551037,5.34389333 31.5184741,5.25398222 31.1773259,5.25398222 C30.8369309,5.25398222 30.5010543,5.34389333 30.2050914,5.51540444 L10.2724,17.0618044 C10.3205975,17.3368267 10.3499679,17.6178933 10.3499679,17.9072711 C10.3499679,20.0062044 9.0192642,21.7946044 7.16215309,22.4814044 C7.14784444,22.4866933 7.13278272,22.4927378 7.11922716,22.4972711 C6.97086914,22.5494044 6.82251111,22.5954933 6.66963457,22.6340267 C6.63875802,22.6415822 6.60863457,22.6506489 6.57775802,22.6566933 C6.43768395,22.6891822 6.29459753,22.7148711 6.15075802,22.7352711 C6.11159753,22.74056 6.07319012,22.7481156 6.03327654,22.7526489 C5.85404198,22.7730489 5.67254815,22.7858933 5.48804198,22.7858933 C5.28998025,22.7858933 5.09493086,22.7700267 4.90214074,22.7466044 C4.85093086,22.74056 4.80047407,22.7314933 4.74851111,22.7231822 C4.60090617,22.7005156 4.45631358,22.6718044 4.31247407,22.6355378 C4.26879506,22.6242044 4.22436296,22.6143822 4.17993086,22.6015378 C3.8011284,22.4942489 3.4404,22.3454044 3.10452346,22.1550044 L3.10452346,22.1550044 Z" id="Fill-2"></path>
            <path d="M28.5458568,45.1965503 L17.8050078,39.4775124 L28.5458568,21.2406908 L28.5458568,45.1965503 Z M31.6504561,21.2406908 L40.4458027,36.1770908 L31.6504561,31.4344314 L31.6504561,21.2406908 Z M31.4741477,47.8393395 L31.4741477,34.675307 L43.6848154,41.2595124 C44.2503989,41.5624962 44.9940364,41.4425286 45.4348075,40.9827989 C45.8877979,40.5090584 45.9724609,39.7831232 45.6390459,39.2165611 L31.4462176,15.1170908 C31.1712812,14.64948 30.6580666,14.3762692 30.1177948,14.4016638 C30.0924831,14.4007881 30.0680444,14.3999124 30.0436056,14.3999124 C29.4902415,14.3999124 29.0128122,14.6704962 28.7492224,15.1179665 L14.5563941,39.2174368 C14.1479172,39.9100962 14.3748488,40.8102908 15.0626262,41.2236097 L29.2423623,49.09068 C29.7119362,49.3743989 30.281011,49.3735232 30.731383,49.1187016 C31.1896103,48.8586259 31.4741477,48.3682476 31.4741477,47.8393395 L31.4741477,47.8393395 Z" id="Fill-1"></path>
        </g>
        <path d="M74.493,64.022 L74.493,64.175 C74.493,66.776 76.941,68.255 80.12,68.255 C83.146,68.255 85.39,66.895 85.39,64.311 C85.39,61.4870571 82.4381894,60.3796563 80.5864324,59.726486 L79.980413,59.514433 C78.72872,59.06905 78.233,58.8013 78.233,58.327 C78.233,57.885 78.692,57.426 79.848,57.426 C81.225,57.426 81.888,58.191 81.888,58.837 L81.888,58.956 L85.203,58.956 L85.203,58.769 C85.203,56.134 82.874,54.485 79.78,54.485 C76.754,54.485 74.595,56.066 74.595,58.599 C74.595,61.175 77.0495882,62.2300588 79.0958166,62.9263633 L79.474,63.053 C81.072,63.597 81.735,63.937 81.735,64.498 C81.735,64.889 81.327,65.314 80.052,65.314 C78.505,65.314 77.808,64.617 77.808,64.107 L77.808,64.022 L74.493,64.022 Z M97.652428,63.087 C97.057428,64.209 95.884428,64.974 94.473428,64.974 C92.484428,64.974 90.869428,63.376 90.869428,61.37 C90.869428,59.364 92.484428,57.766 94.473428,57.766 C95.867428,57.766 97.057428,58.531 97.652428,59.653 L100.746428,58.259 C99.573428,56.032 97.210428,54.485 94.473428,54.485 C90.648428,54.485 87.435428,57.579 87.435428,61.37 C87.435428,65.161 90.648428,68.255 94.473428,68.255 C97.210428,68.255 99.607428,66.708 100.763428,64.447 L97.652428,63.087 Z M106.871856,54.74 L101.499856,68 L105.205856,68 L105.936856,66.062 L111.155856,66.062 L111.886856,68 L115.592856,68 L110.237856,54.74 L106.871856,54.74 Z M109.999856,62.985 L107.092856,62.985 L108.554856,59.092 L109.999856,62.985 Z M117.774284,68 L127.515284,68 L127.515284,64.719 L121.157284,64.719 L121.157284,54.74 L117.774284,54.74 L117.774284,68 Z M134.269712,54.74 L128.897712,68 L132.603712,68 L133.334712,66.062 L138.553712,66.062 L139.284712,68 L142.990712,68 L137.635712,54.74 L134.269712,54.74 Z M137.397712,62.985 L134.490712,62.985 L135.952712,59.092 L137.397712,62.985 Z M145.17214,54.74 L145.17214,68 L148.55514,68 L148.55514,64.447 L150.28914,64.447 L152.80514,68 L156.86814,68 L153.99514,63.988 C155.78014,63.172 156.61314,61.438 156.61314,59.585 C156.61314,56.95 155.04914,54.74 151.64914,54.74 L145.17214,54.74 Z M151.46214,57.834 C152.82214,57.834 153.33214,58.599 153.33214,59.619 C153.33214,60.537 152.82214,61.37 151.46214,61.37 L148.55514,61.37 L148.55514,57.834 L151.46214,57.834 Z M158.828568,64.022 L162.143568,64.022 L162.143568,64.107 C162.143568,64.617 162.840568,65.314 164.387568,65.314 C165.662568,65.314 166.070568,64.889 166.070568,64.498 C166.070568,63.937 165.407568,63.597 163.809568,63.053 L163.04363,62.7913183 C161.087921,62.0922353 158.930568,61.014 158.930568,58.599 C158.930568,56.066 161.089568,54.485 164.115568,54.485 C167.209568,54.485 169.538568,56.134 169.538568,58.769 L169.538568,58.956 L166.223568,58.956 L166.223568,58.837 C166.223568,58.191 165.560568,57.426 164.183568,57.426 C163.027568,57.426 162.568568,57.885 162.568568,58.327 C162.568568,58.8013 163.064288,59.06905 164.315981,59.514433 L165.259376,59.8467235 C167.110815,60.5158784 169.725568,61.6531714 169.725568,64.311 C169.725568,66.895 167.481568,68.255 164.455568,68.255 C161.276568,68.255 158.828568,66.776 158.828568,64.175 L158.828568,64.022 Z" id="Scalars" fill="#050713" fill-rule="nonzero"></path>
        <path d="M78.565,41.821 L80.644,41.821 L80.644,42.063 C80.237,42.657 79.577,43.042 78.807,43.042 C77.509,43.042 76.475,42.008 76.475,40.71 C76.475,39.412 77.509,38.378 78.807,38.378 C79.555,38.378 80.215,38.719 80.644,39.258 L82.437,38.048 C81.612,36.97 80.281,36.255 78.807,36.255 C76.321,36.255 74.253,38.257 74.253,40.71 C74.253,43.163 76.321,45.165 78.807,45.165 C79.687,45.165 80.556,44.835 80.974,44.197 L80.974,45 L82.701,45 L82.701,39.995 L78.565,39.995 L78.565,41.821 Z M86.3105714,36.42 L86.3105714,45 L88.4995714,45 L88.4995714,42.701 L89.6215714,42.701 L91.2495714,45 L93.8785714,45 L92.0195714,42.404 C93.1745714,41.876 93.7135714,40.754 93.7135714,39.555 C93.7135714,37.85 92.7015714,36.42 90.5015714,36.42 L86.3105714,36.42 Z M90.3805714,38.422 C91.2605714,38.422 91.5905714,38.917 91.5905714,39.577 C91.5905714,40.171 91.2605714,40.71 90.3805714,40.71 L88.4995714,40.71 L88.4995714,38.422 L90.3805714,38.422 Z M99.8861429,36.42 L96.4101429,45 L98.8081429,45 L99.2811429,43.746 L102.658143,43.746 L103.131143,45 L105.529143,45 L102.064143,36.42 L99.8861429,36.42 Z M101.910143,41.755 L100.029143,41.755 L100.975143,39.236 L101.910143,41.755 Z M108.687714,45 L110.887714,45 L110.887714,43.053 L112.471714,43.053 C114.748714,43.053 115.837714,41.524 115.837714,39.709 C115.837714,37.982 114.748714,36.42 112.471714,36.42 L108.687714,36.42 L108.687714,45 Z M112.350714,38.422 C113.274714,38.422 113.615714,39.038 113.615714,39.72 C113.615714,40.479 113.274714,41.051 112.350714,41.051 L110.887714,41.051 L110.887714,38.422 L112.350714,38.422 Z M124.870286,36.42 L124.870286,39.753 L121.372286,39.753 L121.372286,36.42 L119.183286,36.42 L119.183286,45 L121.372286,45 L121.372286,41.81 L124.870286,41.81 L124.870286,45 L127.070286,45 L127.070286,36.42 L124.870286,36.42 Z M130.481857,40.71 C130.481857,42.91 132.153857,44.758 134.287857,45.099 C135.772857,45.594 136.773857,47.134 138.500857,47.134 C139.281857,47.134 140.282857,46.815 140.898857,45.968 L139.237857,44.626 C139.006857,44.978 138.610857,45.011 138.489857,45.011 C138.115857,45.011 137.763857,44.813 137.367857,44.538 C138.698857,43.757 139.589857,42.338 139.589857,40.71 C139.589857,38.257 137.543857,36.255 135.035857,36.255 C132.560857,36.255 130.481857,38.257 130.481857,40.71 Z M132.703857,40.71 C132.703857,39.412 133.748857,38.378 135.035857,38.378 C136.355857,38.378 137.367857,39.412 137.367857,40.71 C137.367857,42.008 136.355857,43.042 135.035857,43.042 C133.748857,43.042 132.703857,42.008 132.703857,40.71 Z M143.012429,45 L143.012429,36.42 L145.201429,36.42 L145.201429,42.877 L149.315429,42.877 L149.315429,45 L143.012429,45 Z" id="GraphQL" fill="#6D7A99" fill-rule="nonzero"></path>
    </g>
</svg>