<?xml version="1.0" encoding="UTF-8"?>
<svg width="215px" height="105px" viewBox="0 0 215 105" version="1.1" xmlns="http://www.w3.org/2000/svg" xmlns:xlink="http://www.w3.org/1999/xlink">
    <title>GraphQL Tools/ Inspector</title>
    <g id="GraphQL-Tools/-Inspector" stroke="none" stroke-width="1" fill="none" fill-rule="evenodd">
        <rect id="Rectangle" fill="#FFFFFF" x="0" y="0" width="215" height="105"></rect>
        <g id="Libraries-Logos-/-Inspector" transform="translate(6.000000, 20.000000)" fill="#59F79D">
            <path d="M36.0400049,60.3145407 C36.0400049,60.5683309 36.0151531,60.8160963 35.9767457,61.0593432 C35.9722272,61.0902198 35.9684617,61.1203432 35.9631901,61.1504667 C35.5655605,63.4345778 33.5736469,65.1772198 31.178079,65.1772198 C29.0415728,65.1772198 27.2273877,63.7900346 26.5759679,61.8711704 L6.34580741,50.1923062 C4.33958519,49.0340593 3.10452346,46.8930346 3.10452346,44.5780469 L3.10452346,24.9066765 C3.85384444,25.1604667 4.65286914,25.3043062 5.48804198,25.3043062 C6.23736296,25.3043062 6.96032593,25.1905901 7.64262222,24.9842444 L7.64262222,44.5780469 C7.64262222,45.2701333 8.01464691,45.9147753 8.61560988,46.2611951 L27.4872025,57.1568494 C28.3796099,56.1153309 29.7012765,55.4518617 31.178079,55.4518617 C32.7844123,55.4518617 34.2062395,56.2373309 35.0926222,57.441516 C35.108437,57.4633556 35.1250049,57.484442 35.1408198,57.5062815 C35.2025728,57.5943926 35.2613136,57.6840099 35.3177951,57.7766395 C35.3396346,57.8120346 35.3614741,57.8466765 35.3825605,57.8828247 C35.4322642,57.9679235 35.4782025,58.0552815 35.5226346,58.1433926 C35.5467333,58.190837 35.5693259,58.2382815 35.5911654,58.286479 C35.6295728,58.3685654 35.6649679,58.4514049 35.6988568,58.5357506 C35.7229556,58.5959975 35.744042,58.6562444 35.7658815,58.7172444 C35.7929926,58.7940593 35.8193506,58.8716272 35.8419432,58.9499481 C35.8645358,59.0252568 35.8811037,59.1005654 35.8999309,59.175121 C35.9172519,59.2459111 35.9353259,59.3159481 35.9488815,59.3874914 C35.9677086,59.4816272 35.979758,59.576516 35.9933136,59.672158 C36.0000914,59.7301457 36.0113877,59.785121 36.0166593,59.8423556 C36.0309679,59.9982444 36.0400049,60.1548864 36.0400049,60.3145407 L36.0400049,60.3145407 Z M60.919721,17.8487506 C60.919721,19.307479 60.2720667,20.614837 59.2508815,21.5064914 L59.2508815,44.5780469 C59.2508815,46.8930346 58.0165728,49.0340593 56.0095975,50.1923062 L38.629116,60.2264296 C38.6095358,58.5847012 38.0545111,57.0732568 37.1342395,55.8487383 L53.7405481,46.2611951 C54.340758,45.9147753 54.7127827,45.2701333 54.7127827,44.5780469 L54.7127827,22.5178864 C52.684721,21.9334914 51.195116,20.0635778 51.195116,17.8487506 C51.195116,16.7703309 51.5528321,15.7762568 52.1492765,14.9697012 C52.1575605,14.9568988 52.1673506,14.9440963 52.1771407,14.9312938 C52.2893506,14.7821827 52.4098444,14.6383432 52.5386222,14.5027877 L52.5559432,14.4839605 C52.8225358,14.2060716 53.120758,13.9620716 53.4460914,13.7534667 C53.4799802,13.7316272 53.5153753,13.7120469 53.5500173,13.6902074 C53.6787951,13.6133926 53.8105852,13.5403432 53.9461407,13.4748247 C53.9860543,13.4559975 54.0259679,13.4356642 54.0666346,13.4175901 C54.236079,13.3407753 54.4107951,13.2699852 54.5907827,13.2142568 C54.5915358,13.2142568 54.5915358,13.2142568 54.5915358,13.2135037 C55.054684,13.0666519 55.5464494,12.9860716 56.0577951,12.9860716 C58.7395358,12.9860716 60.919721,15.1670099 60.919721,17.8487506 L60.919721,17.8487506 Z M3.10452346,22.0826025 C1.6269679,21.2474296 0.625362963,19.6636889 0.625362963,17.8487506 C0.625362963,15.1670099 2.80630123,12.9860716 5.48804198,12.9860716 C6.18314074,12.9860716 6.84284444,13.1359358 7.44154815,13.399516 L27.936042,1.56702222 C28.9384,0.987898765 30.0589926,0.69871358 31.1773259,0.69871358 C32.2971654,0.69871358 33.4170049,0.987898765 34.419363,1.56702222 L51.9022642,11.6613926 C50.6159926,12.5289481 49.6196593,13.7896148 49.0729185,15.2664173 L32.1503136,5.49738025 C31.8551037,5.32642963 31.5184741,5.23681235 31.1773259,5.23681235 C30.8369309,5.23681235 30.5010543,5.32642963 30.2050914,5.49738025 L10.2724,17.0060469 C10.3205975,17.2801704 10.3499679,17.5603185 10.3499679,17.8487506 C10.3499679,19.9408247 9.0192642,21.7233802 7.16215309,22.4079358 C7.14784444,22.4132074 7.13278272,22.4192321 7.11922716,22.4237506 C6.97086914,22.4757136 6.82251111,22.5216519 6.66963457,22.5600593 C6.63875802,22.5675901 6.60863457,22.5766272 6.57775802,22.5826519 C6.43768395,22.6150346 6.29459753,22.6406395 6.15075802,22.6609728 C6.11159753,22.6662444 6.07319012,22.6737753 6.03327654,22.6782938 C5.85404198,22.6986272 5.67254815,22.7114296 5.48804198,22.7114296 C5.28998025,22.7114296 5.09493086,22.6956148 4.90214074,22.6722691 C4.85093086,22.6662444 4.80047407,22.6572074 4.74851111,22.6489235 C4.60090617,22.6263309 4.45631358,22.5977136 4.31247407,22.5615654 C4.26879506,22.5502691 4.22436296,22.540479 4.17993086,22.5276765 C3.8011284,22.4207383 3.4404,22.2723802 3.10452346,22.0826025 L3.10452346,22.0826025 Z" id="Fill-2"></path>
            <path d="M15.1429721,28.7169144 L18.4615972,21.6091128 L21.7802224,28.7169144 L15.1429721,28.7169144 Z M22.5599717,30.994623 C22.0428906,32.8062831 20.3880809,34.0783477 18.4676011,34.0783477 L18.4623477,34.0783477 L18.4593458,34.0783477 L18.4338295,34.0783477 C16.5163516,34.0783477 14.8825553,32.8085346 14.391741,30.994623 L22.5599717,30.994623 Z M27.0275826,43.9148967 L27.0275826,43.8893804 C27.0275826,43.2649805 27.5581724,42.7561547 28.21034,42.7561547 L33.9530175,42.7561547 C34.6059356,42.7561547 35.1365253,43.2649805 35.1365253,43.8893804 L27.0275826,43.9148967 Z M29.7143031,22.9397149 C29.5116734,22.3580924 29.7007945,21.7104277 30.1856049,21.3284331 C30.4467722,21.1228014 30.7627245,21.0184846 31.0801778,21.0184846 C31.3518517,21.0184846 31.6227752,21.0942831 31.8614281,21.2473812 C32.3800101,21.5798441 32.6314211,22.2057449 32.5045899,22.7505938 C32.4760717,22.8203885 32.4543077,22.8954365 32.4520563,22.9232043 C32.2554304,23.5138325 31.7038271,23.9108368 31.0816787,23.9115872 L31.0801778,23.9115872 C30.4647837,23.9115872 29.9161824,23.5213373 29.7143031,22.9397149 L29.7143031,22.9397149 Z M24.5855188,47.2755488 C24.6132866,46.6736634 25.1326191,46.1926053 25.7660248,46.1926053 L36.3973327,46.1926053 C37.0314888,46.1926053 37.5500709,46.6736634 37.5785892,47.2755488 L24.5855188,47.2755488 Z M40.3456111,35.9718102 L43.6634857,28.8647591 L46.9821109,35.9718102 L40.3456111,35.9718102 Z M47.7626107,38.2502693 C47.2447791,40.0619294 45.5899694,41.3332435 43.6694896,41.3332435 L43.6642362,41.3332435 L43.6612343,41.3332435 L43.635718,41.3332435 C41.7189905,41.3332435 40.0851943,40.0634304 39.59438,38.2502693 L47.7626107,38.2502693 Z M49.546503,36.116653 L45.683029,27.8411036 L46.7374542,28.1435473 C47.0301416,28.2283516 47.3378387,28.193079 47.6035088,28.0444838 C47.8691789,27.8973896 48.061302,27.6549844 48.1453558,27.3630474 C48.2294096,27.07036 48.194137,26.762663 48.0470428,26.4969928 C47.8991982,26.2305722 47.6567929,26.0376987 47.364856,25.9543954 L34.803312,22.3490867 C34.7522793,20.7040332 33.622806,19.2803715 32.02053,18.8631043 C30.4767914,18.4608468 28.8640086,19.087498 27.9896987,20.3940847 L15.4266537,16.7895265 C15.1347168,16.7062231 14.8262693,16.7407453 14.5613496,16.8878394 C14.294929,17.0356841 14.1020555,17.2773389 14.0180017,17.5707768 C13.8453912,18.1741632 14.1958656,18.8060678 14.799252,18.9786784 L16.9096034,19.5850667 L12.5665722,28.886523 C12.1995872,29.081648 11.9616849,29.467395 11.9609341,29.892167 C11.9601839,32.5338587 13.5361932,34.8926191 15.976756,35.9005146 C18.4180694,36.90841 21.2001009,36.3515534 23.0597918,34.4836072 C24.2898295,33.2843393 24.9975326,31.6107676 25.0005346,29.892167 C25.0005346,29.4478825 24.7378664,29.0471259 24.3438641,28.8617572 L20.4931482,20.6132251 L27.360796,22.5839871 C27.4118287,24.1690021 28.4459909,25.5303739 29.9431997,26.0106814 L29.9431997,40.4776957 L28.21034,40.4776957 C26.3018679,40.4776957 24.749874,42.0079256 24.749874,43.8893804 L24.749874,44.0424784 C23.3262124,44.4800086 22.3160655,45.8136126 22.3055588,47.3265815 L22.3055588,48.4072735 C22.3250713,49.0406791 22.8361486,49.5435011 23.475558,49.5532574 L38.6938033,49.5532574 C39.3279594,49.5435011 39.8382862,49.0406791 39.8585492,48.3960163 L39.8585492,47.3235795 C39.8480424,45.8136126 38.8371451,44.4800086 37.4142339,44.0424784 L37.4142339,43.8893804 C37.4142339,42.0079256 35.8614896,40.4776957 33.9530175,40.4776957 L32.2209083,40.4776957 L32.2209083,26.0099309 C33.0164177,25.7525161 33.7068598,25.2324331 34.1729083,24.538989 L42.1212481,26.818949 L37.7692112,36.1421693 C37.4014757,36.3365438 37.1635734,36.7222908 37.1628229,37.1478133 C37.1628229,39.7887545 38.7395826,42.147515 41.179395,43.1554104 C43.6199579,44.1640563 46.4019894,43.6071997 48.2616803,41.7392535 C49.491718,40.5399855 50.1994211,38.8671643 50.2031735,37.1470628 C50.2024231,36.7027783 49.9397549,36.3020217 49.546503,36.116653 L49.546503,36.116653 Z" id="Fill-1"></path>
        </g>
        <path d="M75.02,54.74 L75.02,68 L78.42,68 L78.42,54.74 L75.02,54.74 Z M85.021428,68 L85.021428,60.605 L90.937428,68 L93.810428,68 L93.810428,54.74 L90.427428,54.74 L90.427428,62.152 L84.511428,54.74 L81.621428,54.74 L81.621428,68 L85.021428,68 Z M96.484856,64.022 L96.484856,64.175 C96.484856,66.776 98.932856,68.255 102.111856,68.255 C105.137856,68.255 107.381856,66.895 107.381856,64.311 C107.381856,61.4870571 104.430045,60.3796563 102.578288,59.726486 L101.972269,59.514433 C100.720576,59.06905 100.224856,58.8013 100.224856,58.327 C100.224856,57.885 100.683856,57.426 101.839856,57.426 C103.216856,57.426 103.879856,58.191 103.879856,58.837 L103.879856,58.956 L107.194856,58.956 L107.194856,58.769 C107.194856,56.134 104.865856,54.485 101.771856,54.485 C98.745856,54.485 96.586856,56.066 96.586856,58.599 C96.586856,61.175 99.0414442,62.2300588 101.087673,62.9263633 L101.465856,63.053 C103.063856,63.597 103.726856,63.937 103.726856,64.498 C103.726856,64.889 103.318856,65.314 102.043856,65.314 C100.496856,65.314 99.799856,64.617 99.799856,64.107 L99.799856,64.022 L96.484856,64.022 Z M110.056284,68 L113.456284,68 L113.456284,64.991 L115.904284,64.991 C119.423284,64.991 121.106284,62.628 121.106284,59.823 C121.106284,57.154 119.423284,54.74 115.904284,54.74 L110.056284,54.74 L110.056284,68 Z M115.717284,57.834 C117.145284,57.834 117.672284,58.786 117.672284,59.84 C117.672284,61.013 117.145284,61.897 115.717284,61.897 L113.456284,61.897 L113.456284,57.834 L115.717284,57.834 Z M123.576712,68 L133.759712,68 L133.759712,64.719 L126.976712,64.719 L126.976712,63.019 L132.552712,63.019 L132.552712,59.942 L126.976712,59.942 L126.976712,58.038 L133.759712,58.038 L133.759712,54.74 L123.576712,54.74 L123.576712,68 Z M145.92014,63.087 C145.32514,64.209 144.15214,64.974 142.74114,64.974 C140.75214,64.974 139.13714,63.376 139.13714,61.37 C139.13714,59.364 140.75214,57.766 142.74114,57.766 C144.13514,57.766 145.32514,58.531 145.92014,59.653 L149.01414,58.259 C147.84114,56.032 145.47814,54.485 142.74114,54.485 C138.91614,54.485 135.70314,57.579 135.70314,61.37 C135.70314,65.161 138.91614,68.255 142.74114,68.255 C145.47814,68.255 147.87514,66.708 149.03114,64.447 L145.92014,63.087 Z M150.566568,58.038 L154.697568,58.038 L154.697568,68 L158.097568,68 L158.097568,58.038 L162.228568,58.038 L162.228568,54.74 L150.566568,54.74 L150.566568,58.038 Z M163.712996,61.37 C163.712996,65.161 166.925996,68.255 170.750996,68.255 C174.626996,68.255 177.788996,65.161 177.788996,61.37 C177.788996,57.579 174.626996,54.485 170.750996,54.485 C166.925996,54.485 163.712996,57.579 163.712996,61.37 Z M167.146996,61.37 C167.146996,59.364 168.761996,57.766 170.750996,57.766 C172.790996,57.766 174.354996,59.364 174.354996,61.37 C174.354996,63.376 172.790996,64.974 170.750996,64.974 C168.761996,64.974 167.146996,63.376 167.146996,61.37 Z M180.361424,54.74 L180.361424,68 L183.744424,68 L183.744424,64.447 L185.478424,64.447 L187.994424,68 L192.057424,68 L189.184424,63.988 C190.969424,63.172 191.802424,61.438 191.802424,59.585 C191.802424,56.95 190.238424,54.74 186.838424,54.74 L180.361424,54.74 Z M186.651424,57.834 C188.011424,57.834 188.521424,58.599 188.521424,59.619 C188.521424,60.537 188.011424,61.37 186.651424,61.37 L183.744424,61.37 L183.744424,57.834 L186.651424,57.834 Z" id="Inspector" fill="#050713" fill-rule="nonzero"></path>
        <path d="M78.565,41.821 L80.644,41.821 L80.644,42.063 C80.237,42.657 79.577,43.042 78.807,43.042 C77.509,43.042 76.475,42.008 76.475,40.71 C76.475,39.412 77.509,38.378 78.807,38.378 C79.555,38.378 80.215,38.719 80.644,39.258 L82.437,38.048 C81.612,36.97 80.281,36.255 78.807,36.255 C76.321,36.255 74.253,38.257 74.253,40.71 C74.253,43.163 76.321,45.165 78.807,45.165 C79.687,45.165 80.556,44.835 80.974,44.197 L80.974,45 L82.701,45 L82.701,39.995 L78.565,39.995 L78.565,41.821 Z M86.3105714,36.42 L86.3105714,45 L88.4995714,45 L88.4995714,42.701 L89.6215714,42.701 L91.2495714,45 L93.8785714,45 L92.0195714,42.404 C93.1745714,41.876 93.7135714,40.754 93.7135714,39.555 C93.7135714,37.85 92.7015714,36.42 90.5015714,36.42 L86.3105714,36.42 Z M90.3805714,38.422 C91.2605714,38.422 91.5905714,38.917 91.5905714,39.577 C91.5905714,40.171 91.2605714,40.71 90.3805714,40.71 L88.4995714,40.71 L88.4995714,38.422 L90.3805714,38.422 Z M99.8861429,36.42 L96.4101429,45 L98.8081429,45 L99.2811429,43.746 L102.658143,43.746 L103.131143,45 L105.529143,45 L102.064143,36.42 L99.8861429,36.42 Z M101.910143,41.755 L100.029143,41.755 L100.975143,39.236 L101.910143,41.755 Z M108.687714,45 L110.887714,45 L110.887714,43.053 L112.471714,43.053 C114.748714,43.053 115.837714,41.524 115.837714,39.709 C115.837714,37.982 114.748714,36.42 112.471714,36.42 L108.687714,36.42 L108.687714,45 Z M112.350714,38.422 C113.274714,38.422 113.615714,39.038 113.615714,39.72 C113.615714,40.479 113.274714,41.051 112.350714,41.051 L110.887714,41.051 L110.887714,38.422 L112.350714,38.422 Z M124.870286,36.42 L124.870286,39.753 L121.372286,39.753 L121.372286,36.42 L119.183286,36.42 L119.183286,45 L121.372286,45 L121.372286,41.81 L124.870286,41.81 L124.870286,45 L127.070286,45 L127.070286,36.42 L124.870286,36.42 Z M130.481857,40.71 C130.481857,42.91 132.153857,44.758 134.287857,45.099 C135.772857,45.594 136.773857,47.134 138.500857,47.134 C139.281857,47.134 140.282857,46.815 140.898857,45.968 L139.237857,44.626 C139.006857,44.978 138.610857,45.011 138.489857,45.011 C138.115857,45.011 137.763857,44.813 137.367857,44.538 C138.698857,43.757 139.589857,42.338 139.589857,40.71 C139.589857,38.257 137.543857,36.255 135.035857,36.255 C132.560857,36.255 130.481857,38.257 130.481857,40.71 Z M132.703857,40.71 C132.703857,39.412 133.748857,38.378 135.035857,38.378 C136.355857,38.378 137.367857,39.412 137.367857,40.71 C137.367857,42.008 136.355857,43.042 135.035857,43.042 C133.748857,43.042 132.703857,42.008 132.703857,40.71 Z M143.012429,45 L143.012429,36.42 L145.201429,36.42 L145.201429,42.877 L149.315429,42.877 L149.315429,45 L143.012429,45 Z" id="GraphQL" fill="#6D7A99" fill-rule="nonzero"></path>
    </g>
</svg>