<svg width="326" height="90" viewBox="0 0 326 90" fill="none" xmlns="http://www.w3.org/2000/svg">
<g clip-path="url(#clip0)">
<path d="M125.774 57.8259V44.9434H112.719V49.6564H120.565V55.4382C119.623 56.1294 118.556 56.6946 117.238 57.1347C115.983 57.5743 114.602 57.7629 113.159 57.7629C111.589 57.7629 110.146 57.4488 108.891 56.9462C107.636 56.3805 106.506 55.5637 105.627 54.6209C104.686 53.6156 103.995 52.4843 103.493 51.1018C102.991 49.7825 102.74 48.274 102.74 46.703C102.74 45.2581 102.991 43.8121 103.493 42.4927C103.995 41.1727 104.686 40.0419 105.627 39.0361C106.506 38.0308 107.573 37.2765 108.765 36.6484C109.958 36.0827 111.276 35.8316 112.656 35.8316C113.661 35.8316 114.539 35.8941 115.355 36.0827C116.108 36.2082 116.862 36.4598 117.552 36.7109C118.242 37.0255 118.87 37.3396 119.498 37.7792C120.062 38.1563 120.69 38.5965 121.255 39.0991L124.707 35.0143C123.891 34.3862 123.075 33.7575 122.259 33.2548C121.42 32.7403 120.538 32.2989 119.623 31.9354C118.619 31.6032 117.591 31.351 116.547 31.1812C115.345 30.9721 114.128 30.867 112.907 30.8671C110.585 30.8671 108.451 31.3067 106.506 32.1234C104.56 33.0038 102.929 34.1346 101.485 35.58C100.104 37.0249 99.0374 38.722 98.2212 40.6701C97.4679 42.5557 97.0918 44.6294 97.0918 46.766C97.0918 49.0282 97.4679 51.1649 98.2212 53.0499C98.9745 54.9981 100.041 56.6946 101.422 58.0775C102.803 59.5224 104.498 60.5908 106.443 61.4081C108.389 62.2248 110.585 62.6019 112.97 62.6019C114.277 62.6072 115.581 62.4809 116.862 62.2248C118.054 62.0362 119.183 61.6591 120.25 61.2195C121.291 60.7928 122.298 60.2886 123.263 59.711C124.205 59.0828 125.02 58.5171 125.774 57.8259ZM137.51 53.3015C137.51 51.793 137.699 50.4106 138.075 49.2793C138.451 48.0854 139.016 47.1426 139.707 46.3889C140.395 45.6291 141.256 45.0469 142.217 44.6918C143.159 44.3153 144.226 44.1261 145.418 44.1261H145.732V38.4704C143.661 38.4079 141.966 38.9106 140.648 39.9789C139.268 40.9842 138.263 42.4296 137.51 44.1892V38.9106H132.175V62.0993H137.51V53.3015ZM168.577 62.0993V48.3995C168.577 45.2575 167.761 42.8698 166.067 41.1728C164.435 39.4132 161.862 38.5965 158.41 38.5965C156.527 38.5965 154.895 38.785 153.577 39.0991C152.196 39.4762 150.878 39.9159 149.623 40.544L151.067 44.7549C152.065 44.3443 153.093 44.0083 154.142 43.7496C155.209 43.4349 156.339 43.3094 157.656 43.3094C159.539 43.3094 160.92 43.7496 161.924 44.5663C162.866 45.4461 163.368 46.703 163.368 48.274V48.8397C162.489 48.5886 161.547 48.337 160.543 48.1479C159.539 47.9599 158.347 47.8968 156.966 47.8968C155.648 47.8968 154.393 48.0229 153.201 48.337C152.071 48.6511 151.067 49.0907 150.25 49.7194C149.435 50.3476 148.744 51.1018 148.305 52.0447C147.803 52.9875 147.614 54.0552 147.614 55.3752V55.4382C147.614 56.6321 147.803 57.6374 148.305 58.5171C148.744 59.3969 149.309 60.1512 150.062 60.7793C150.815 61.345 151.694 61.7852 152.699 62.0993C153.64 62.4133 154.707 62.6019 155.837 62.6019C157.594 62.6019 159.1 62.2878 160.292 61.5966C161.547 60.9679 162.552 60.2136 163.305 59.2714V62.0993H168.577ZM163.431 53.7412C163.431 54.4329 163.305 55.1236 162.991 55.6893C162.677 56.318 162.238 56.8206 161.673 57.2602C161.171 57.7004 160.481 58.0145 159.728 58.2661C158.95 58.4752 158.148 58.5808 157.343 58.5802C156.087 58.5802 155.02 58.3286 154.142 57.7004C153.263 57.1347 152.824 56.2549 152.824 55.1866V55.0611C152.824 53.8672 153.326 52.9869 154.268 52.2957C155.209 51.6675 156.464 51.3529 158.159 51.3529C159.163 51.3529 160.167 51.4159 161.045 51.6045C161.987 51.793 162.803 51.9816 163.431 52.2963V53.7412ZM198.828 50.5362C198.828 48.588 198.514 46.8915 197.886 45.383C197.259 43.8751 196.443 42.6182 195.439 41.6129C194.435 40.5446 193.305 39.7903 192.05 39.2252C190.732 38.722 189.414 38.471 188.033 38.471C186.213 38.471 184.644 38.8475 183.389 39.7273C182.134 40.5446 181.067 41.5499 180.25 42.8068V38.9106H174.916V69.1374H180.25L180.188 58.5171C181.004 59.5855 182.071 60.5283 183.326 61.345C184.581 62.1617 186.15 62.6019 188.033 62.6019C189.414 62.6019 190.732 62.3503 192.05 61.7852C193.368 61.282 194.498 60.4652 195.502 59.4599C196.546 58.3553 197.357 57.0515 197.886 55.6262C198.514 54.1813 198.828 52.4218 198.828 50.5362ZM193.493 50.5362C193.493 51.6675 193.305 52.6728 192.929 53.6156C192.638 54.494 192.143 55.2908 191.485 55.9409C190.92 56.6321 190.23 57.0717 189.414 57.4488C188.598 57.8259 187.782 57.9514 186.841 57.9514C185.962 57.9514 185.083 57.8259 184.268 57.4488C183.451 57.0717 182.761 56.569 182.134 55.9409C181.506 55.2491 181.004 54.4954 180.627 53.6156C180.293 52.6235 180.123 51.5832 180.125 50.5362C180.125 49.4053 180.313 48.337 180.627 47.4567C181.004 46.5144 181.506 45.7607 182.134 45.132C182.729 44.4668 183.456 43.932 184.268 43.561C185.083 43.2464 185.962 43.0584 186.841 43.0584C187.782 43.0584 188.598 43.2464 189.414 43.5605C190.23 43.9381 190.92 44.4408 191.485 45.069C192.112 45.6977 192.614 46.5144 192.929 47.4567C193.305 48.337 193.493 49.4053 193.493 50.5362ZM209.56 49.0282C209.56 47.2687 210.062 45.8232 211.004 44.8179C211.945 43.8121 213.201 43.3094 214.77 43.3094C216.339 43.3094 217.531 43.8121 218.41 44.8179C219.226 45.7607 219.665 47.1431 219.665 48.9652V62.0993H225V47.3312C225 44.6294 224.309 42.4927 222.866 40.8587C221.422 39.2877 219.414 38.471 216.778 38.471C215.899 38.471 215.083 38.5965 214.393 38.785C213.64 39.0361 213.012 39.2871 212.384 39.7279C211.819 40.1044 211.255 40.5446 210.815 40.9842C210.376 41.4868 209.937 41.99 209.56 42.5552V30.0498H204.226V62.0993H209.56V49.0282ZM258.703 57.1978L255.25 53.6781C253.933 54.935 252.615 55.8778 251.234 56.569C249.916 57.3233 248.284 57.7004 246.402 57.7004C244.958 57.7004 243.64 57.3858 242.384 56.8206C241.129 56.2549 240.062 55.4382 239.183 54.4954C238.242 53.4901 237.552 52.2957 237.05 50.9763C236.548 49.6564 236.297 48.2109 236.297 46.703C236.297 45.1945 236.548 43.7496 237.05 42.4296C237.552 41.1103 238.242 39.9789 239.183 38.9736C240.062 38.0308 241.129 37.2765 242.384 36.6484C243.64 36.0827 244.958 35.8316 246.402 35.8316C248.159 35.8316 249.728 36.1457 251.108 36.8994C252.489 37.5912 253.807 38.471 255 39.6648L258.451 35.6425C257.761 34.9513 256.945 34.3231 256.129 33.6944C255.295 33.1181 254.413 32.6137 253.493 32.1865C252.489 31.8093 251.485 31.4322 250.292 31.2437C249.163 30.9926 247.908 30.8671 246.464 30.8671C244.142 30.8671 242.008 31.3067 240.062 32.1234C238.179 32.9407 236.485 34.0715 235.104 35.517C233.661 36.9625 232.594 38.6595 231.841 40.6071C231.025 42.5552 230.648 44.5663 230.648 46.766C230.648 49.0282 231.025 51.1018 231.841 53.0499C232.656 54.9356 233.723 56.6321 235.104 58.0145C236.485 59.4599 238.117 60.5908 240.062 61.4081C241.945 62.2248 244.016 62.6019 246.276 62.6019C247.656 62.6019 248.975 62.4764 250.167 62.2248C251.359 62.0362 252.426 61.6591 253.431 61.1565C254.435 60.6538 255.376 60.0881 256.192 59.4599C257.071 58.7687 257.886 58.0145 258.703 57.1978ZM292.092 46.703C292.092 44.5663 291.715 42.4927 290.899 40.6701C290.083 38.7845 289.016 37.151 287.573 35.7686C286.129 34.3862 284.372 33.3178 282.364 32.5636C280.257 31.7705 278.024 31.366 275.774 31.3697H264.351V62.0993H275.774C278.159 62.0993 280.355 61.7221 282.364 60.9054C284.288 60.1781 286.056 59.0904 287.573 57.7004C289.016 56.318 290.083 54.684 290.899 52.7983C291.715 50.9133 292.092 48.8397 292.092 46.703ZM286.443 46.766C286.443 48.337 286.192 49.7194 285.69 50.9763C285.125 52.2957 284.435 53.364 283.493 54.3068C282.615 55.2497 281.485 55.9409 280.167 56.4435C278.764 56.9792 277.275 57.2559 275.774 57.2602H269.686V36.2712H275.774C277.343 36.2712 278.849 36.5223 280.167 37.0255C281.485 37.5912 282.615 38.3449 283.493 39.2877C284.435 40.1675 285.125 41.2988 285.69 42.6182C286.192 43.8751 286.443 45.2575 286.443 46.766ZM319.958 52.6098L303.577 31.3697H298.619V62.0993H303.953V40.2305L320.837 62.0993H325.355V31.3697H319.958V52.6098Z" fill="#3B4C6A"/>
<path fill-rule="evenodd" clip-rule="evenodd" d="M23.1313 39.5631L59.2825 10.4676L44.5332 1.92033C41.5206 0.223823 38.1313 0.223823 35.1817 1.92033L4.93098 19.4538C3.51286 20.2254 2.33881 21.3792 1.54174 22.7844L1.29102 23.35L12.2115 36.3581L23.1319 39.5631H23.1313Z" fill="#4568A5"/>
<path fill-rule="evenodd" clip-rule="evenodd" d="M38.7814 51.5575L10.7894 30.1289C6.77283 27.0495 5.45513 22.148 6.0825 18.7544L4.95313 19.4462C3.535 20.2177 2.36094 21.3715 1.56389 22.7767L1.43853 22.9647C1.37557 23.0902 1.31261 23.1533 1.31261 23.2788C0.622278 24.5362 0.308594 25.9817 0.308594 27.4902V62.493C0.308594 65.8861 2.00293 68.84 4.95313 70.5365L13.0487 75.187L38.7814 51.5581V51.5575Z" fill="#608BD8"/>
<path fill-rule="evenodd" clip-rule="evenodd" d="M61.9416 52.8174L16 76.9483L35.2055 88.0713C38.1551 89.7684 41.5438 89.7684 44.5564 88.0713L59.6823 79.2736L74.8701 70.5383C76.3767 69.5961 77.569 68.4022 78.3853 66.8937L77.3183 64.3799L68.3429 54.0743L61.9416 52.8174Z" fill="#4568A5"/>
<path fill-rule="evenodd" clip-rule="evenodd" d="M78.4036 66.8711L78.5295 66.6195C79.1569 65.3626 79.4706 63.9802 79.4706 62.4723V32.5595C79.4706 29.7946 78.4036 27.4694 76.3326 25.5838C76.0189 25.3327 75.6423 25.0186 75.3286 24.8301L49.2822 41.8598L61.9605 52.7942L69.9937 59.8329C73.383 62.7233 74.387 67.3107 73.1947 71.4585L74.889 70.5157C76.3956 69.5729 77.5879 68.3791 78.4036 66.8711Z" fill="#608BD8"/>
</g>
<defs>
<clipPath id="clip0">
<rect width="325.385" height="90" fill="white" transform="translate(0.308594)"/>
</clipPath>
</defs>
</svg>
