<svg xmlns="http://www.w3.org/2000/svg" role="img" viewBox="77.22 26.22 1444.56 446.56"><title>GraphQL Spec logo</title><g fill="#E434AA"><path d="M137.239 352.66l-14.376-8.3 160.15-277.38 14.376 8.3z"/><path d="M119.571 322.2h320.3v16.6h-320.3z"/><path d="M286.119 424.026l-160.21-92.5 8.3-14.376 160.21 92.5zm139.174-241.079l-160.21-92.5 8.301-14.376 160.21 92.5z"/><path d="M134.253 182.883l-8.3-14.375 160.21-92.5 8.301 14.375z"/><path d="M422.339 352.663l-160.15-277.38 14.376-8.3 160.15 277.38zM132.271 157.5h16.6v185h-16.6z"/><path d="M410.671 157.5h16.6v185h-16.6z"/><path d="M283.293 416.999l-7.25-12.557 139.339-80.45 7.25 12.557z"/><path d="M449.272 347.9c-9.6 16.7-31 22.4-47.7 12.8-16.701-9.6-22.4-31-12.8-47.7 9.599-16.7 31-22.4 47.699-12.8 16.801 9.7 22.5 31 12.801 47.7M170.671 187c-9.6 16.7-31 22.4-47.7 12.8-16.7-9.6-22.4-31-12.8-47.7 9.6-16.7 31-22.4 47.7-12.8 16.7 9.7 22.4 31 12.8 47.7m-60.4 160.9c-9.6-16.7-3.9-38 12.8-47.7 16.7-9.6 38-3.9 47.7 12.8 9.6 16.7 3.9 38-12.8 47.7-16.8 9.6-38.1 3.9-47.7-12.8m278.6-160.9c-9.6-16.7-3.9-38 12.8-47.7 16.7-9.6 38-3.9 47.7 12.8 9.6 16.7 3.9 38-12.8 47.7-16.7 9.6-38.1 3.9-47.7-12.8m-109.1 258.8c-19.3 0-34.9-15.6-34.9-34.9 0-19.3 15.6-34.9 34.9-34.9 19.301 0 34.9 15.6 34.9 34.9 0 19.2-15.599 34.9-34.9 34.9m0-321.8c-19.3 0-34.9-15.6-34.9-34.9 0-19.3 15.6-34.9 34.9-34.9 19.301 0 34.9 15.6 34.9 34.9 0 19.3-15.599 34.9-34.9 34.9"/><g><path d="M1395.102 332.35q-2.43 0-3.888-1.458-1.458-1.458-1.458-3.888V167.596q0-2.43 1.458-3.888 1.458-1.458 3.888-1.458h4.617q2.43 0 3.888 1.458 1.458 1.458 1.458 3.888V317.77h83.835q2.673 0 4.131 1.458 1.458 1.458 1.458 4.131v3.645q0 2.43-1.458 3.888-1.458 1.458-4.131 1.458zm-56.133 15.795q-2.673 0-4.618-2.066-1.944-2.065-3.158-3.523l-10.693-14.823q-14.579 7.047-34.02 7.047-20.168 0-34.262-7.169-14.094-7.168-21.628-22.113-7.533-14.944-8.262-37.786-.243-10.935-.243-20.412 0-9.477.243-20.412.729-22.599 8.749-37.544 8.018-14.944 22.234-22.234 14.215-7.29 33.169-7.29 18.954 0 33.17 7.29 14.215 7.29 22.356 22.234 8.14 14.945 8.626 37.544.487 10.935.487 20.412 0 9.477-.487 20.412-1.215 34.749-17.739 51.03l15.552 21.87q.243.243.487.85.242.608.242 1.823 0 1.944-1.458 3.402-1.457 1.458-3.402 1.458zM1286.48 320.2q20.899 0 34.385-12.636 13.486-12.636 14.458-41.067.486-10.935.486-19.197 0-8.262-.486-19.197-.485-18.954-6.925-30.861-6.44-11.907-17.253-17.375-10.813-5.467-24.665-5.467-13.608 0-24.421 5.467-10.814 5.468-17.253 17.375-6.44 11.907-7.169 30.861-.242 10.935-.242 19.197 0 8.262.242 19.197.972 28.431 14.581 41.067 13.607 12.636 34.262 12.636zm-198.773 12.15q-2.43 0-3.888-1.458-1.458-1.458-1.458-3.888V165.166q0-2.43 1.458-3.888 1.458-1.458 3.888-1.458h4.131q2.43 0 3.888 1.458 1.458 1.458 1.458 3.888v57.591q6.561-8.505 15.916-13.851 9.356-5.346 24.908-5.346 16.524 0 27.58 7.168 11.057 7.169 16.524 19.44 5.468 12.272 5.468 27.824v69.012q0 2.43-1.458 3.888-1.458 1.458-3.888 1.458h-4.131q-2.43 0-3.888-1.458-1.458-1.458-1.458-3.888v-67.797q0-19.44-9.477-30.497-9.477-11.056-27.702-11.056-17.253 0-27.824 11.056-10.57 11.057-10.57 30.497v67.797q0 2.43-1.458 3.888-1.458 1.458-3.888 1.458zm-141.183 46.17q-2.43 0-3.888-1.458-1.458-1.458-1.458-3.888V211.336q0-2.43 1.458-3.888 1.458-1.458 3.888-1.458h4.131q2.43 0 3.888 1.458 1.458 1.458 1.458 3.888v11.421q6.075-8.262 15.916-13.73 9.842-5.467 24.908-5.467 14.337 0 24.057 4.981 9.72 4.982 15.795 13.244 6.075 8.262 8.991 18.468 2.916 10.206 3.159 20.898.243 3.645.243 8.019 0 4.374-.243 8.019-.243 10.692-3.159 20.898t-8.991 18.468q-6.075 8.262-15.795 13.243-9.72 4.982-24.057 4.982-15.066 0-24.908-5.589-9.841-5.589-15.916-13.608v57.591q0 2.43-1.458 3.888-1.458 1.458-3.888 1.458zm48.843-57.834q14.337 0 22.599-6.318t11.907-16.524q3.645-10.206 4.131-21.87.243-6.804 0-13.608-.486-11.664-4.131-21.87-3.645-10.206-11.907-16.524-8.262-6.318-22.599-6.318-13.851 0-22.356 6.561t-12.515 16.402q-4.009 9.842-4.495 19.805-.243 3.645-.243 9.477 0 5.832.243 9.477.243 9.72 4.495 19.197 4.253 9.477 12.879 15.795 8.627 6.318 21.992 6.318zm-150.66 14.094q-11.664 0-21.506-4.86-9.841-4.86-15.916-13.001-6.075-8.14-6.075-18.346 0-16.524 13.365-26.487 13.365-9.963 34.749-12.879l38.394-5.346v-8.505q0-12.879-7.898-20.291-7.897-7.411-25.15-7.411-12.636 0-20.412 4.981-7.776 4.982-10.692 13.001-1.215 3.645-4.617 3.645h-3.888q-2.916 0-4.131-1.58-1.215-1.579-1.215-3.766 0-3.402 2.551-8.505 2.552-5.103 7.898-10.085 5.346-4.981 13.851-8.383 8.505-3.402 20.655-3.402 14.337 0 23.692 3.888 9.356 3.888 14.58 10.084 5.225 6.197 7.412 13.73 2.187 7.533 2.187 14.823v80.919q0 2.43-1.458 3.888-1.458 1.458-3.888 1.458h-4.131q-2.43 0-3.888-1.458-1.458-1.458-1.458-3.888v-11.421q-2.916 4.374-8.262 8.748t-13.73 7.411q-8.383 3.038-21.019 3.038zm2.43-14.094q11.178 0 20.412-4.86 9.234-4.86 14.701-14.944 5.468-10.085 5.468-25.394v-8.262l-31.347 4.374q-19.926 2.673-30.132 9.234-10.206 6.561-10.206 16.524 0 8.019 4.617 13.122t11.785 7.654q7.169 2.552 14.702 2.552zM733.413 332.35q-2.43 0-3.888-1.458-1.458-1.458-1.458-3.888V211.579q0-2.43 1.458-4.01 1.458-1.579 3.888-1.579h3.888q2.43 0 4.009 1.579 1.58 1.58 1.58 4.01v11.178q4.374-8.505 12.636-12.636 8.262-4.131 20.412-4.131h8.991q2.43 0 3.888 1.458 1.458 1.458 1.458 3.888v3.402q0 2.43-1.458 3.888-1.458 1.458-3.888 1.458H774.48q-14.58 0-23.085 8.505t-8.505 23.085v75.33q0 2.43-1.58 3.888-1.579 1.458-4.009 1.458zm-105.219 2.43q-20.898 0-35.114-8.141-14.215-8.14-21.627-22.72-7.411-14.58-8.141-33.534-.242-10.935-.242-23.085t.242-23.085q.73-19.197 8.141-33.656 7.412-14.458 21.749-22.599 14.337-8.14 34.992-8.14 16.767 0 28.673 4.981 11.908 4.982 19.44 12.393 7.534 7.412 11.179 14.945 3.644 7.533 3.888 12.636.243 2.187-1.215 3.523-1.458 1.337-3.888 1.337h-5.347q-2.187 0-3.158-1.094-.972-1.093-1.944-3.766-2.43-7.533-8.141-14.459-5.71-6.925-15.309-11.421-9.599-4.495-24.178-4.495-21.627 0-35.114 11.785-13.486 11.786-14.458 39.245-.729 21.87 0 43.74.972 27.216 14.458 39.123 13.487 11.907 35.114 11.907 14.337 0 25.758-5.468 11.42-5.467 17.982-16.767 6.561-11.299 6.561-28.795v-12.393h-42.282q-2.43 0-3.888-1.58-1.458-1.579-1.458-4.009v-3.402q0-2.673 1.458-4.131 1.458-1.458 3.888-1.458h52.002q2.673 0 4.131 1.458 1.458 1.458 1.458 4.131v21.384q0 19.44-7.655 34.263-7.654 14.823-22.356 23.085-14.702 8.262-35.599 8.262z"/></g></g></svg>