<?xml version="1.0" encoding="UTF-8"?>
<svg width="215px" height="105px" viewBox="0 0 215 105" version="1.1" xmlns="http://www.w3.org/2000/svg" xmlns:xlink="http://www.w3.org/1999/xlink">
    <title>GraphQL Tools/ Code Gen</title>
    <g id="GraphQL-Tools/-Code-Gen" stroke="none" stroke-width="1" fill="none" fill-rule="evenodd">
        <rect id="Rectangle" fill="#FFFFFF" x="0" y="0" width="215" height="105"></rect>
        <g id="Libraries-Logos-/-Gennerator" transform="translate(6.000000, 20.000000)" fill="#FCEB14">
            <g id="generator-logo">
                <path d="M36.0400049,60.3145407 C36.0400049,60.5683309 36.0151531,60.8160963 35.9767457,61.0593432 C35.9722272,61.0902198 35.9684617,61.1203432 35.9631901,61.1504667 C35.5655605,63.4345778 33.5736469,65.1772198 31.178079,65.1772198 C29.0415728,65.1772198 27.2273877,63.7900346 26.5759679,61.8711704 L6.34580741,50.1923062 C4.33958519,49.0340593 3.10452346,46.8930346 3.10452346,44.5780469 L3.10452346,24.9066765 C3.85384444,25.1604667 4.65286914,25.3043062 5.48804198,25.3043062 C6.23736296,25.3043062 6.96032593,25.1905901 7.64262222,24.9842444 L7.64262222,44.5780469 C7.64262222,45.2701333 8.01464691,45.9147753 8.61560988,46.2611951 L27.4872025,57.1568494 C28.3796099,56.1153309 29.7012765,55.4518617 31.178079,55.4518617 C32.7844123,55.4518617 34.2062395,56.2373309 35.0926222,57.441516 C35.108437,57.4633556 35.1250049,57.484442 35.1408198,57.5062815 C35.2025728,57.5943926 35.2613136,57.6840099 35.3177951,57.7766395 C35.3396346,57.8120346 35.3614741,57.8466765 35.3825605,57.8828247 C35.4322642,57.9679235 35.4782025,58.0552815 35.5226346,58.1433926 C35.5467333,58.190837 35.5693259,58.2382815 35.5911654,58.286479 C35.6295728,58.3685654 35.6649679,58.4514049 35.6988568,58.5357506 C35.7229556,58.5959975 35.744042,58.6562444 35.7658815,58.7172444 C35.7929926,58.7940593 35.8193506,58.8716272 35.8419432,58.9499481 C35.8645358,59.0252568 35.8811037,59.1005654 35.8999309,59.175121 C35.9172519,59.2459111 35.9353259,59.3159481 35.9488815,59.3874914 C35.9677086,59.4816272 35.979758,59.576516 35.9933136,59.672158 C36.0000914,59.7301457 36.0113877,59.785121 36.0166593,59.8423556 C36.0309679,59.9982444 36.0400049,60.1548864 36.0400049,60.3145407 L36.0400049,60.3145407 Z M60.919721,17.8487506 C60.919721,19.307479 60.2720667,20.614837 59.2508815,21.5064914 L59.2508815,44.5780469 C59.2508815,46.8930346 58.0165728,49.0340593 56.0095975,50.1923062 L38.629116,60.2264296 C38.6095358,58.5847012 38.0545111,57.0732568 37.1342395,55.8487383 L53.7405481,46.2611951 C54.340758,45.9147753 54.7127827,45.2701333 54.7127827,44.5780469 L54.7127827,22.5178864 C52.684721,21.9334914 51.195116,20.0635778 51.195116,17.8487506 C51.195116,16.7703309 51.5528321,15.7762568 52.1492765,14.9697012 C52.1575605,14.9568988 52.1673506,14.9440963 52.1771407,14.9312938 C52.2893506,14.7821827 52.4098444,14.6383432 52.5386222,14.5027877 L52.5559432,14.4839605 C52.8225358,14.2060716 53.120758,13.9620716 53.4460914,13.7534667 C53.4799802,13.7316272 53.5153753,13.7120469 53.5500173,13.6902074 C53.6787951,13.6133926 53.8105852,13.5403432 53.9461407,13.4748247 C53.9860543,13.4559975 54.0259679,13.4356642 54.0666346,13.4175901 C54.236079,13.3407753 54.4107951,13.2699852 54.5907827,13.2142568 C54.5915358,13.2142568 54.5915358,13.2142568 54.5915358,13.2135037 C55.054684,13.0666519 55.5464494,12.9860716 56.0577951,12.9860716 C58.7395358,12.9860716 60.919721,15.1670099 60.919721,17.8487506 L60.919721,17.8487506 Z M3.10452346,22.0826025 C1.6269679,21.2474296 0.625362963,19.6636889 0.625362963,17.8487506 C0.625362963,15.1670099 2.80630123,12.9860716 5.48804198,12.9860716 C6.18314074,12.9860716 6.84284444,13.1359358 7.44154815,13.399516 L27.936042,1.56702222 C28.9384,0.987898765 30.0589926,0.69871358 31.1773259,0.69871358 C32.2971654,0.69871358 33.4170049,0.987898765 34.419363,1.56702222 L51.9022642,11.6613926 C50.6159926,12.5289481 49.6196593,13.7896148 49.0729185,15.2664173 L32.1503136,5.49738025 C31.8551037,5.32642963 31.5184741,5.23681235 31.1773259,5.23681235 C30.8369309,5.23681235 30.5010543,5.32642963 30.2050914,5.49738025 L10.2724,17.0060469 C10.3205975,17.2801704 10.3499679,17.5603185 10.3499679,17.8487506 C10.3499679,19.9408247 9.0192642,21.7233802 7.16215309,22.4079358 C7.14784444,22.4132074 7.13278272,22.4192321 7.11922716,22.4237506 C6.97086914,22.4757136 6.82251111,22.5216519 6.66963457,22.5600593 C6.63875802,22.5675901 6.60863457,22.5766272 6.57775802,22.5826519 C6.43768395,22.6150346 6.29459753,22.6406395 6.15075802,22.6609728 C6.11159753,22.6662444 6.07319012,22.6737753 6.03327654,22.6782938 C5.85404198,22.6986272 5.67254815,22.7114296 5.48804198,22.7114296 C5.28998025,22.7114296 5.09493086,22.6956148 4.90214074,22.6722691 C4.85093086,22.6662444 4.80047407,22.6572074 4.74851111,22.6489235 C4.60090617,22.6263309 4.45631358,22.5977136 4.31247407,22.5615654 C4.26879506,22.5502691 4.22436296,22.540479 4.17993086,22.5276765 C3.8011284,22.4207383 3.4404,22.2723802 3.10452346,22.0826025 L3.10452346,22.0826025 Z" id="Fill-2"></path>
                <path d="M43.0516914,39.4686568 L27.8039506,47.679558 L27.8039506,46.2291136 L32.5664691,43.8478543 C32.5785185,43.8418296 32.5868025,43.8320395 32.5980988,43.8260148 C32.6101481,43.8199901 32.6221975,43.8177309 32.6342469,43.8109531 C32.6711481,43.7891136 32.7005185,43.758237 32.7344074,43.7333852 C32.7630247,43.7115457 32.7969136,43.6949778 32.8232716,43.670879 C32.8315556,43.6641012 32.8360741,43.6550642 32.8428519,43.6475333 C32.8820123,43.6106321 32.913642,43.5669531 32.9460247,43.5240272 C32.9693704,43.4939037 32.9979877,43.4682988 33.018321,43.435916 C33.0228395,43.4283852 33.0258519,43.4216074 33.0296173,43.4140765 C33.0574815,43.3673852 33.0755556,43.3169284 33.0958889,43.2664716 C33.1117037,43.2295704 33.132037,43.1956815 33.1433333,43.156521 C33.1455926,43.1512494 33.1470988,43.1452247 33.149358,43.1392 C33.1636667,43.0857309 33.1659259,43.0300025 33.1727037,42.973521 C33.1779753,42.9358667 33.1900247,42.9004716 33.1907778,42.8620642 C33.1907778,42.8575457 33.1892716,42.8530272 33.1892716,42.8485086 C33.1892716,42.8447432 33.1907778,42.8417309 33.1907778,42.8372123 L33.1907778,30.0354963 L43.0516914,24.5575457 L43.0516914,39.4686568 Z M26.7021852,44.2537679 L21.0073457,41.0900519 L16.9745679,38.8496198 L19.912358,37.3803481 L29.6399753,42.7844963 L26.7021852,44.2537679 Z M25.5446914,47.6509407 L15.6837778,42.172237 L15.6837778,40.7172741 L25.5446914,46.1952247 L25.5446914,47.6509407 Z M21.0706049,24.5575457 L30.9315185,30.0354963 L30.9315185,40.9175951 L21.0706049,35.4388914 L21.0706049,24.5575457 Z M28.7701605,19.0246198 L29.6173827,20.9299284 C29.8033951,21.8102864 30.7733704,22.4202864 32.0611481,22.4202864 C33.3489259,22.4202864 34.3189012,21.8102864 34.5049136,20.9299284 L35.3521358,19.0246198 L41.855037,22.6371753 L32.0611481,28.0782247 L22.2665062,22.6371753 L28.7701605,19.0246198 Z M32.0611481,14.0406938 C33.5650617,14.0406938 34.5440741,14.4451012 34.8807037,14.7064222 C34.543321,14.9669901 33.5650617,15.3713975 32.0611481,15.3713975 C30.5572346,15.3713975 29.5782222,14.9669901 29.2408395,14.7064222 C29.5782222,14.4451012 30.5564815,14.0406938 32.0611481,14.0406938 L32.0611481,14.0406938 Z M30.7455062,17.9055333 L30.5738025,17.5199531 C31.040716,17.5914963 31.537,17.6306568 32.0611481,17.6306568 C32.5860494,17.6306568 33.0823333,17.5914963 33.5492469,17.5199531 L32.3917531,20.1241259 C32.2358642,20.1632864 31.8871852,20.1632864 31.7312963,20.1241259 L30.753037,17.9228543 L30.7455062,17.9055333 Z M45.271037,22.3419654 C45.262,22.3058173 45.2424198,22.2741877 45.2296173,22.2395457 C45.2070247,22.1823111 45.1881975,22.1243235 45.1580741,22.0716074 C45.1369877,22.0354593 45.1068642,22.0053358 45.0820123,21.9714469 C45.0481235,21.9262617 45.0187531,21.8788173 44.9788395,21.8389037 C44.9502222,21.8095333 44.913321,21.7884469 44.8809383,21.7620889 C44.8387654,21.7289531 44.8011111,21.6912988 44.7544198,21.6634346 C44.7499012,21.6611753 44.7446296,21.6604222 44.7401111,21.658163 C44.7363457,21.6559037 44.7333333,21.6521383 44.730321,21.649879 L36.2739136,16.9521259 L36.6384074,16.1312617 C37.0194691,15.7163111 37.2310864,15.2343358 37.2310864,14.7064222 C37.2310864,14.6702741 37.2243086,14.6356321 37.2220494,14.600237 C37.2280741,14.4398296 37.201716,14.2809284 37.140716,14.1310642 C36.7069383,12.7408667 34.7052346,11.7814346 32.0611481,11.7814346 C29.4163086,11.7814346 27.4123457,12.7416198 26.9800741,14.1340765 C26.9205802,14.2816815 26.8949753,14.4368173 26.9002469,14.5942123 C26.8979877,14.6318667 26.8912099,14.6680148 26.8912099,14.7064222 C26.8912099,15.2343358 27.1028272,15.7178173 27.484642,16.1327679 L27.8491358,16.9521259 L19.3919753,21.649879 C19.3882099,21.6521383 19.3851975,21.6559037 19.3814321,21.658163 C19.3769136,21.6604222 19.3723951,21.6611753 19.3678765,21.6634346 C19.3204321,21.6912988 19.2827778,21.7289531 19.241358,21.7620889 C19.2089753,21.7884469 19.1728272,21.8095333 19.1434568,21.8389037 C19.1035432,21.8788173 19.0726667,21.9262617 19.0395309,21.9714469 C19.014679,22.0053358 18.9845556,22.0354593 18.9642222,22.0716074 C18.9333457,22.1243235 18.9145185,22.1823111 18.8934321,22.2395457 C18.8798765,22.2741877 18.8610494,22.3058173 18.8505062,22.3419654 C18.8249012,22.4368543 18.8113457,22.5362617 18.8113457,22.6371753 L18.8113457,35.4050025 L14.0488272,37.7870148 C14.038284,37.7922864 14.0292469,37.8020765 14.0171975,37.8081012 C14.0059012,37.8141259 13.9930988,37.8163852 13.9810494,37.823163 C13.9449012,37.8450025 13.916284,37.875879 13.8823951,37.9007309 C13.8454938,37.9285951 13.8070864,37.9534469 13.7739506,37.9850765 C13.7347901,38.023484 13.7024074,38.067163 13.6685185,38.1100889 C13.6421605,38.145484 13.612037,38.1778667 13.5894444,38.215521 C13.5600741,38.2637185 13.5404938,38.3156815 13.5194074,38.3676444 C13.5028395,38.407558 13.4817531,38.4452123 13.4704568,38.4866321 C13.4538889,38.5431136 13.4493704,38.6018543 13.4425926,38.6605951 C13.4380741,38.6982494 13.4252716,38.7336444 13.4245185,38.7728049 C13.4245185,38.7773235 13.4260247,38.7810889 13.4260247,38.7856074 C13.4260247,38.7893728 13.4245185,38.7931383 13.4245185,38.7969037 L13.4245185,42.8372123 C13.4245185,43.2476444 13.646679,43.6256938 14.0059012,43.8245086 L26.125321,50.5578543 C26.1787901,50.5872247 26.2360247,50.6037926 26.291,50.6241259 C26.3226296,50.6354222 26.352,50.6527432 26.3843827,50.6610272 C26.4800247,50.6866321 26.5771728,50.7001877 26.674321,50.7001877 C26.769963,50.7001877 26.8656049,50.6866321 26.9589877,50.6625333 C26.9891111,50.6550025 27.0169753,50.6384346 27.0478519,50.6278914 C27.1020741,50.6083111 27.1585556,50.5932494 27.2097654,50.5653852 L44.7167654,41.1382494 C45.0827654,40.9409407 45.3109506,40.5591259 45.3109506,40.1434222 L45.3109506,22.6371753 C45.3109506,22.5362617 45.296642,22.4368543 45.271037,22.3419654 L45.271037,22.3419654 Z" id="Fill-4"></path>
            </g>
        </g>
        <path d="M84.608,45.087 C84.013,46.209 82.84,46.974 81.429,46.974 C79.44,46.974 77.825,45.376 77.825,43.37 C77.825,41.364 79.44,39.766 81.429,39.766 C82.823,39.766 84.013,40.531 84.608,41.653 L87.702,40.259 C86.529,38.032 84.166,36.485 81.429,36.485 C77.604,36.485 74.391,39.579 74.391,43.37 C74.391,47.161 77.604,50.255 81.429,50.255 C84.166,50.255 86.563,48.708 87.719,46.447 L84.608,45.087 Z M89.441428,43.37 C89.441428,47.161 92.654428,50.255 96.479428,50.255 C100.355428,50.255 103.517428,47.161 103.517428,43.37 C103.517428,39.579 100.355428,36.485 96.479428,36.485 C92.654428,36.485 89.441428,39.579 89.441428,43.37 Z M92.875428,43.37 C92.875428,41.364 94.490428,39.766 96.479428,39.766 C98.519428,39.766 100.083428,41.364 100.083428,43.37 C100.083428,45.376 98.519428,46.974 96.479428,46.974 C94.490428,46.974 92.875428,45.376 92.875428,43.37 Z M106.089856,50 L112.243856,50 C116.391856,50 118.516856,46.991 118.516856,43.37 C118.516856,39.766 116.391856,36.74 112.243856,36.74 L106.089856,36.74 L106.089856,50 Z M111.988856,40.038 C114.011856,40.038 115.082856,41.381 115.082856,43.37 C115.082856,45.359 114.011856,46.719 111.988856,46.719 L109.489856,46.719 L109.489856,40.038 L111.988856,40.038 Z M121.157284,50 L131.340284,50 L131.340284,46.719 L124.557284,46.719 L124.557284,45.019 L130.133284,45.019 L130.133284,41.942 L124.557284,41.942 L124.557284,40.038 L131.340284,40.038 L131.340284,36.74 L121.157284,36.74 L121.157284,50 Z M81.055,65.087 L84.268,65.087 L84.268,65.461 C83.639,66.379 82.619,66.974 81.429,66.974 C79.423,66.974 77.825,65.376 77.825,63.37 C77.825,61.364 79.423,59.766 81.429,59.766 C82.585,59.766 83.605,60.293 84.268,61.126 L87.039,59.256 C85.764,57.59 83.707,56.485 81.429,56.485 C77.587,56.485 74.391,59.579 74.391,63.37 C74.391,67.161 77.587,70.255 81.429,70.255 C82.789,70.255 84.132,69.745 84.778,68.759 L84.778,70 L87.447,70 L87.447,62.265 L81.055,62.265 L81.055,65.087 Z M90.325428,70 L100.508428,70 L100.508428,66.719 L93.725428,66.719 L93.725428,65.019 L99.301428,65.019 L99.301428,61.942 L93.725428,61.942 L93.725428,60.038 L100.508428,60.038 L100.508428,56.74 L90.325428,56.74 L90.325428,70 Z M106.718856,70 L106.718856,62.605 L112.634856,70 L115.507856,70 L115.507856,56.74 L112.124856,56.74 L112.124856,64.152 L106.208856,56.74 L103.318856,56.74 L103.318856,70 L106.718856,70 Z M118.709284,70 L128.892284,70 L128.892284,66.719 L122.109284,66.719 L122.109284,65.019 L127.685284,65.019 L127.685284,61.942 L122.109284,61.942 L122.109284,60.038 L128.892284,60.038 L128.892284,56.74 L118.709284,56.74 L118.709284,70 Z M131.702712,56.74 L131.702712,70 L135.085712,70 L135.085712,66.447 L136.819712,66.447 L139.335712,70 L143.398712,70 L140.525712,65.988 C142.310712,65.172 143.143712,63.438 143.143712,61.585 C143.143712,58.95 141.579712,56.74 138.179712,56.74 L131.702712,56.74 Z M137.992712,59.834 C139.352712,59.834 139.862712,60.599 139.862712,61.619 C139.862712,62.537 139.352712,63.37 137.992712,63.37 L135.085712,63.37 L135.085712,59.834 L137.992712,59.834 Z M149.98314,56.74 L144.61114,70 L148.31714,70 L149.04814,68.062 L154.26714,68.062 L154.99814,70 L158.70414,70 L153.34914,56.74 L149.98314,56.74 Z M153.11114,64.985 L150.20414,64.985 L151.66614,61.092 L153.11114,64.985 Z M158.029568,60.038 L162.160568,60.038 L162.160568,70 L165.560568,70 L165.560568,60.038 L169.691568,60.038 L169.691568,56.74 L158.029568,56.74 L158.029568,60.038 Z M171.175996,63.37 C171.175996,67.161 174.388996,70.255 178.213996,70.255 C182.089996,70.255 185.251996,67.161 185.251996,63.37 C185.251996,59.579 182.089996,56.485 178.213996,56.485 C174.388996,56.485 171.175996,59.579 171.175996,63.37 Z M174.609996,63.37 C174.609996,61.364 176.224996,59.766 178.213996,59.766 C180.253996,59.766 181.817996,61.364 181.817996,63.37 C181.817996,65.376 180.253996,66.974 178.213996,66.974 C176.224996,66.974 174.609996,65.376 174.609996,63.37 Z M187.824424,56.74 L187.824424,70 L191.207424,70 L191.207424,66.447 L192.941424,66.447 L195.457424,70 L199.520424,70 L196.647424,65.988 C198.432424,65.172 199.265424,63.438 199.265424,61.585 C199.265424,58.95 197.701424,56.74 194.301424,56.74 L187.824424,56.74 Z M194.114424,59.834 C195.474424,59.834 195.984424,60.599 195.984424,61.619 C195.984424,62.537 195.474424,63.37 194.114424,63.37 L191.207424,63.37 L191.207424,59.834 L194.114424,59.834 Z" id="CodeGenerator" fill="#050713" fill-rule="nonzero"></path>
    </g>
</svg>