<?xml version="1.0" encoding="UTF-8"?>
<svg width="215px" height="105px" viewBox="0 0 215 105" version="1.1" xmlns="http://www.w3.org/2000/svg" xmlns:xlink="http://www.w3.org/1999/xlink">
    <title>GraphQL Tools/ config</title>
    <g id="GraphQL-Tools/-config" stroke="none" stroke-width="1" fill="none" fill-rule="evenodd">
        <rect id="Rectangle" fill="#FFFFFF" x="0" y="0" width="215" height="105"></rect>
        <g id="Libraries-Logos-/-Config" transform="translate(6.000000, 20.000000)" fill="#6D7A99">
            <path d="M36.0400049,60.3145407 C36.0400049,60.5683309 36.0151531,60.8160963 35.9767457,61.0593432 C35.9722272,61.0902198 35.9684617,61.1203432 35.9631901,61.1504667 C35.5655605,63.4345778 33.5736469,65.1772198 31.178079,65.1772198 C29.0415728,65.1772198 27.2273877,63.7900346 26.5759679,61.8711704 L6.34580741,50.1923062 C4.33958519,49.0340593 3.10452346,46.8930346 3.10452346,44.5780469 L3.10452346,24.9066765 C3.85384444,25.1604667 4.65286914,25.3043062 5.48804198,25.3043062 C6.23736296,25.3043062 6.96032593,25.1905901 7.64262222,24.9842444 L7.64262222,44.5780469 C7.64262222,45.2701333 8.01464691,45.9147753 8.61560988,46.2611951 L27.4872025,57.1568494 C28.3796099,56.1153309 29.7012765,55.4518617 31.178079,55.4518617 C32.7844123,55.4518617 34.2062395,56.2373309 35.0926222,57.441516 C35.108437,57.4633556 35.1250049,57.484442 35.1408198,57.5062815 C35.2025728,57.5943926 35.2613136,57.6840099 35.3177951,57.7766395 C35.3396346,57.8120346 35.3614741,57.8466765 35.3825605,57.8828247 C35.4322642,57.9679235 35.4782025,58.0552815 35.5226346,58.1433926 C35.5467333,58.190837 35.5693259,58.2382815 35.5911654,58.286479 C35.6295728,58.3685654 35.6649679,58.4514049 35.6988568,58.5357506 C35.7229556,58.5959975 35.744042,58.6562444 35.7658815,58.7172444 C35.7929926,58.7940593 35.8193506,58.8716272 35.8419432,58.9499481 C35.8645358,59.0252568 35.8811037,59.1005654 35.8999309,59.175121 C35.9172519,59.2459111 35.9353259,59.3159481 35.9488815,59.3874914 C35.9677086,59.4816272 35.979758,59.576516 35.9933136,59.672158 C36.0000914,59.7301457 36.0113877,59.785121 36.0166593,59.8423556 C36.0309679,59.9982444 36.0400049,60.1548864 36.0400049,60.3145407 L36.0400049,60.3145407 Z M60.919721,17.8487506 C60.919721,19.307479 60.2720667,20.614837 59.2508815,21.5064914 L59.2508815,44.5780469 C59.2508815,46.8930346 58.0165728,49.0340593 56.0095975,50.1923062 L38.629116,60.2264296 C38.6095358,58.5847012 38.0545111,57.0732568 37.1342395,55.8487383 L53.7405481,46.2611951 C54.340758,45.9147753 54.7127827,45.2701333 54.7127827,44.5780469 L54.7127827,22.5178864 C52.684721,21.9334914 51.195116,20.0635778 51.195116,17.8487506 C51.195116,16.7703309 51.5528321,15.7762568 52.1492765,14.9697012 C52.1575605,14.9568988 52.1673506,14.9440963 52.1771407,14.9312938 C52.2893506,14.7821827 52.4098444,14.6383432 52.5386222,14.5027877 L52.5559432,14.4839605 C52.8225358,14.2060716 53.120758,13.9620716 53.4460914,13.7534667 C53.4799802,13.7316272 53.5153753,13.7120469 53.5500173,13.6902074 C53.6787951,13.6133926 53.8105852,13.5403432 53.9461407,13.4748247 C53.9860543,13.4559975 54.0259679,13.4356642 54.0666346,13.4175901 C54.236079,13.3407753 54.4107951,13.2699852 54.5907827,13.2142568 C54.5915358,13.2142568 54.5915358,13.2142568 54.5915358,13.2135037 C55.054684,13.0666519 55.5464494,12.9860716 56.0577951,12.9860716 C58.7395358,12.9860716 60.919721,15.1670099 60.919721,17.8487506 L60.919721,17.8487506 Z M3.10452346,22.0826025 C1.6269679,21.2474296 0.625362963,19.6636889 0.625362963,17.8487506 C0.625362963,15.1670099 2.80630123,12.9860716 5.48804198,12.9860716 C6.18314074,12.9860716 6.84284444,13.1359358 7.44154815,13.399516 L27.936042,1.56702222 C28.9384,0.987898765 30.0589926,0.69871358 31.1773259,0.69871358 C32.2971654,0.69871358 33.4170049,0.987898765 34.419363,1.56702222 L51.9022642,11.6613926 C50.6159926,12.5289481 49.6196593,13.7896148 49.0729185,15.2664173 L32.1503136,5.49738025 C31.8551037,5.32642963 31.5184741,5.23681235 31.1773259,5.23681235 C30.8369309,5.23681235 30.5010543,5.32642963 30.2050914,5.49738025 L10.2724,17.0060469 C10.3205975,17.2801704 10.3499679,17.5603185 10.3499679,17.8487506 C10.3499679,19.9408247 9.0192642,21.7233802 7.16215309,22.4079358 C7.14784444,22.4132074 7.13278272,22.4192321 7.11922716,22.4237506 C6.97086914,22.4757136 6.82251111,22.5216519 6.66963457,22.5600593 C6.63875802,22.5675901 6.60863457,22.5766272 6.57775802,22.5826519 C6.43768395,22.6150346 6.29459753,22.6406395 6.15075802,22.6609728 C6.11159753,22.6662444 6.07319012,22.6737753 6.03327654,22.6782938 C5.85404198,22.6986272 5.67254815,22.7114296 5.48804198,22.7114296 C5.28998025,22.7114296 5.09493086,22.6956148 4.90214074,22.6722691 C4.85093086,22.6662444 4.80047407,22.6572074 4.74851111,22.6489235 C4.60090617,22.6263309 4.45631358,22.5977136 4.31247407,22.5615654 C4.26879506,22.5502691 4.22436296,22.540479 4.17993086,22.5276765 C3.8011284,22.4207383 3.4404,22.2723802 3.10452346,22.0826025 L3.10452346,22.0826025 Z" id="Fill-2"></path>
            <path d="M26.1189516,20.3094741 C26.9539888,20.3094741 27.184184,20.6076464 28.4541203,23.7361391 L28.9763082,23.9462502 C32.0375962,22.5612163 32.4500937,22.4955566 33.0518458,23.0741346 L34.8856832,24.8670312 C35.5090643,25.4896399 35.397829,25.9469406 34.0776824,28.9410239 L34.2808413,29.4214986 C37.3977469,30.5361689 37.8086996,30.7748613 37.8056269,31.6709234 L37.8056269,34.1938017 C37.8056269,35.0388809 37.4997126,35.2675312 34.2939732,36.5127486 L34.0923593,36.9916783 C35.4719859,39.9031076 35.6056228,40.4052114 34.9575227,41.0301375 L33.1360447,42.8137645 C32.5288854,43.3869353 32.1534663,43.333635 29.0110692,42.0042187 L28.4911987,42.2151023 C27.3240006,45.3242833 27.0768111,45.6579892 26.2278695,45.6579892 L23.6447388,45.6579892 C22.8073842,45.6579892 22.5771889,45.3590443 21.3095701,42.2320966 L20.7858372,42.0196681 C17.6882433,43.4247862 17.3120517,43.4804038 16.7072098,42.8886938 L14.8780071,41.100432 C14.2530811,40.4816857 14.3643164,40.0228401 15.6867804,37.0241219 L15.4851665,36.5475096 C12.3721232,35.4328393 11.9603981,35.1941469 11.9603981,34.3011746 L11.9603981,31.7713442 C11.9603981,30.9254924 12.2655227,30.6968421 15.4697171,29.4562596 L15.6713311,28.9781023 C14.2963393,26.0767151 14.1611575,25.5761562 14.7968981,24.9473679 L16.6276456,23.1536987 C17.2301701,22.580528 17.6071342,22.6338282 20.7549385,23.9632445 L21.274809,23.7531334 C22.4381448,20.6431799 22.6853344,20.3094741 23.5365933,20.3094741 L26.1189516,20.3094741 Z M25.4515398,22.626876 L24.2217719,22.626876 C23.97072,23.2062265 23.5829414,24.1911223 23.2685472,25.038519 L23.0916522,25.5166763 L20.7348544,26.4722183 L20.2922306,26.2837363 C19.4170251,25.9121795 18.3857812,25.4950472 17.777077,25.2718041 L16.9273629,26.1045239 C17.1699177,26.6900541 17.6009545,27.6425063 17.9856432,28.4505071 L18.2096587,28.9193948 L17.2239904,31.2646056 L16.7628274,31.4415006 C15.8868495,31.7782964 14.8710549,32.1900214 14.2778,32.4534328 L14.2778,33.6020917 C14.8718274,33.8485088 15.8768074,34.2277902 16.7435157,34.5360047 L17.2239904,34.70672 L18.2104312,37.045751 L18.0080447,37.5038241 C17.6372604,38.3411787 17.2209005,39.3276195 16.9914777,39.9255092 L17.8427367,40.7574565 C18.439854,40.521854 19.4355643,40.0892723 20.2790987,39.7038111 L20.7340819,39.4967898 L23.0924246,40.4546493 L23.2754994,40.910405 C23.6200198,41.7670713 24.0425594,42.7627817 24.3113781,43.3405872 L25.542691,43.3405872 C25.7945153,42.7604643 26.1822939,41.7763409 26.4974606,40.9281718 L26.6751281,40.4500145 L29.0319259,39.4952449 L29.4753221,39.6829545 C30.3489826,40.0552837 31.379454,40.4724161 31.9873858,40.6948866 L32.8363274,39.8637118 C32.5930002,39.2781816 32.1619634,38.3272743 31.7765022,37.5192735 L31.5532592,37.0503858 L32.5404724,34.705175 L33.0000905,34.52828 C33.8776134,34.1899393 34.8949528,33.7766693 35.4882077,33.5124855 L35.4882077,32.366144 C34.8926354,32.1189545 33.8876554,31.7412179 33.022492,31.4337759 L32.5420174,31.2622882 L31.5540317,28.9193948 L31.7564181,28.4605492 C32.1272024,27.6239671 32.5427898,26.6390713 32.7729851,26.0411816 L31.9217261,25.2100067 C31.3246089,25.4448368 30.328126,25.876646 29.4838192,26.2613348 L29.0311534,26.4675835 L26.6743556,25.5166763 L26.4905084,25.0601481 C26.144443,24.2019369 25.7211309,23.205454 25.4515398,22.626876 Z M24.8830039,28.134568 C27.6005439,28.134568 29.8113454,30.3090635 29.8113454,32.9818004 C29.8113454,35.6560823 27.6005439,37.8313503 24.8830039,37.8313503 C22.1654638,37.8313503 19.9546624,35.6560823 19.9546624,32.9818004 C19.9546624,30.3090635 22.1654638,28.134568 24.8830039,28.134568 Z M24.8830039,30.45197 C23.4438973,30.45197 22.2720643,31.5867245 22.2720643,32.9818004 C22.2720643,34.3784214 23.4438973,35.5139483 24.8830039,35.5139483 C26.3221105,35.5139483 27.4939434,34.3784214 27.4939434,32.9818004 C27.4939434,31.5867245 26.3221105,30.45197 24.8830039,30.45197 Z M42.3265519,21.1277487 L42.4107509,21.1308386 C43.411096,20.1104092 43.7262627,19.8462254 44.2569478,20.0833729 L45.3901573,20.5932013 C45.9077104,20.8164444 45.928567,21.1934084 45.8729494,22.668821 L45.9316569,22.7298459 C47.4001173,22.7182589 47.7801712,22.7537924 47.9987795,23.270573 L48.4568526,24.4300465 C48.6661912,24.9692287 48.4089596,25.2480894 47.3151459,26.2360751 L47.3143734,26.2994174 C48.3803783,27.3213917 48.6291128,27.6087495 48.4105045,28.1355722 L47.903766,29.2672368 C47.6612112,29.7878798 47.2749776,29.8017842 45.7918403,29.7283998 L45.7462647,29.7701131 C45.7779359,31.2161719 45.7470372,31.6317593 45.1761839,31.8271935 L44.0406569,32.2489607 C43.9371463,32.2860391 43.8429053,32.3053508 43.7509817,32.3053508 C43.3709277,32.3053508 43.0294972,31.9693275 42.2160891,31.0941221 L42.1311177,31.0910322 C41.1261377,32.1099166 40.810971,32.3764178 40.2779686,32.1307732 L39.1524837,31.627897 C38.6341581,31.4015641 38.614074,31.0246 38.6658293,29.5507324 L38.6063493,29.488935 C37.1425237,29.4920248 36.7601524,29.464216 36.5423166,28.9520702 L36.0819261,27.7910518 C35.8749049,27.2503247 36.1298191,26.971464 37.2228603,25.9819333 L37.2244053,25.9232258 C36.1723048,24.9159284 35.8965339,24.5999893 36.1398612,24.062352 L36.6357852,22.953089 C36.8706152,22.4309011 37.2545315,22.4162242 38.7469384,22.4950158 L38.7940589,22.4509852 C38.7623877,21.0103337 38.7925139,20.5962912 39.3556426,20.3969946 L40.5004392,19.97291 C41.0195372,19.7705236 41.3038052,20.0300726 42.3265519,21.1277487 Z M40.6116745,21.5788696 L40.3389935,21.6800628 C40.3343587,21.9797801 40.3374486,22.3992299 40.3467182,22.7615171 L40.3552153,23.1075824 L39.3208816,24.0731666 L38.992583,24.0553998 C38.6094392,24.0345432 38.164498,24.0183214 37.8539661,24.0129141 L37.7450482,24.2577863 C37.9574768,24.4779395 38.2664637,24.7822916 38.5368272,25.0402957 L38.7832443,25.2758982 L38.7538906,26.6810163 L38.5059286,26.9050318 C38.2286128,27.1553112 37.9119012,27.4503937 37.6932929,27.6635947 L37.799121,27.9308684 C38.1073354,27.940138 38.5522766,27.9463177 38.9292406,27.9416829 L39.2621741,27.9393655 L40.2339379,28.9543876 L40.2215785,29.2803688 C40.2076741,29.6588778 40.1991769,30.0991842 40.1999494,30.4043087 L40.4873072,30.5325383 C40.7059155,30.327062 41.0094951,30.0281172 41.2667268,29.7670232 L41.5046467,29.5244685 L42.9113097,29.5723614 L43.1306904,29.807964 C43.3956467,30.0945493 43.7100409,30.422848 43.9301941,30.6422287 L44.2013301,30.5418079 C44.2059649,30.2413181 44.202875,29.8210959 44.1936054,29.4588087 L44.1858808,29.1111984 L45.2186696,28.1525665 L45.5446508,28.1695608 C45.9293395,28.1888725 46.3758256,28.2043218 46.685585,28.2081842 L46.7952754,27.9648569 C46.5805295,27.7447038 46.272315,27.4403516 46.001179,27.1815751 L45.7555344,26.946745 L45.7841156,25.5354472 L46.0328501,25.3122042 C46.3109384,25.0626972 46.62765,24.7676147 46.8454857,24.5559587 L46.7396577,24.288685 C46.4337607,24.2786429 45.9903644,24.275553 45.6103105,24.2763255 L45.2796945,24.2786429 L44.3040683,23.2667107 L44.3172002,22.9384121 C44.3311046,22.5599031 44.3411467,22.1195967 44.3403742,21.8152446 L44.0553338,21.687015 C43.8359531,21.8932638 43.5323734,22.1929811 43.2759143,22.4563925 L43.0349045,22.7020371 L41.6282415,22.6464194 L41.4119506,22.4123618 C41.1454494,22.1265489 40.8318277,21.7990228 40.6116745,21.5788696 Z M43.3091304,23.7827189 C44.5594151,24.3455695 45.1547464,25.7655547 44.6953179,27.0086456 L44.6323669,27.1638083 C44.2105997,28.105446 43.2759143,28.6631674 42.2933358,28.6631674 C41.9380009,28.6631674 41.5757137,28.589783 41.2296483,28.4352895 C39.9280409,27.8543941 39.3355585,26.3364958 39.9095017,25.0518827 C40.1868174,24.4300465 40.6966459,23.9557516 41.344746,23.7162867 C41.9851214,23.4806842 42.6834318,23.5030857 43.3091304,23.7827189 Z M42.2454429,25.0997757 C42.1218481,25.0997757 41.9982533,25.1214047 41.8792933,25.1654354 C41.6251516,25.2596764 41.4266275,25.4427511 41.320027,25.6814435 C41.0936941,26.1889546 41.3354763,26.7907066 41.8592092,27.0247642 C42.3852594,27.2603667 42.9955086,27.0378962 43.2218415,26.533475 C43.4466295,26.0305988 43.2017574,25.4288467 42.6772521,25.1924717 C42.5397529,25.1306743 42.3922116,25.0997757 42.2454429,25.0997757 Z" id="Combined-Shape"></path>
        </g>
        <path d="M84.608,63.087 C84.013,64.209 82.84,64.974 81.429,64.974 C79.44,64.974 77.825,63.376 77.825,61.37 C77.825,59.364 79.44,57.766 81.429,57.766 C82.823,57.766 84.013,58.531 84.608,59.653 L87.702,58.259 C86.529,56.032 84.166,54.485 81.429,54.485 C77.604,54.485 74.391,57.579 74.391,61.37 C74.391,65.161 77.604,68.255 81.429,68.255 C84.166,68.255 86.563,66.708 87.719,64.447 L84.608,63.087 Z M89.441428,61.37 C89.441428,65.161 92.654428,68.255 96.479428,68.255 C100.355428,68.255 103.517428,65.161 103.517428,61.37 C103.517428,57.579 100.355428,54.485 96.479428,54.485 C92.654428,54.485 89.441428,57.579 89.441428,61.37 Z M92.875428,61.37 C92.875428,59.364 94.490428,57.766 96.479428,57.766 C98.519428,57.766 100.083428,59.364 100.083428,61.37 C100.083428,63.376 98.519428,64.974 96.479428,64.974 C94.490428,64.974 92.875428,63.376 92.875428,61.37 Z M109.489856,68 L109.489856,60.605 L115.405856,68 L118.278856,68 L118.278856,54.74 L114.895856,54.74 L114.895856,62.152 L108.979856,54.74 L106.089856,54.74 L106.089856,68 L109.489856,68 Z M121.480284,68 L124.863284,68 L124.863284,63.461 L130.286284,63.461 L130.286284,60.384 L124.863284,60.384 L124.863284,58.038 L131.323284,58.038 L131.323284,54.74 L121.480284,54.74 L121.480284,68 Z M133.946712,54.74 L133.946712,68 L137.346712,68 L137.346712,54.74 L133.946712,54.74 Z M146.58314,63.087 L146.58314,60.265 L152.97514,60.265 L152.97514,68 L150.30614,68 L150.30614,66.759 C149.66014,67.745 148.31714,68.255 146.95714,68.255 C143.11514,68.255 139.91914,65.161 139.91914,61.37 C139.91914,57.579 143.11514,54.485 146.95714,54.485 C149.23514,54.485 151.29214,55.59 152.56714,57.256 L149.79614,59.126 C149.13314,58.293 148.11314,57.766 146.95714,57.766 C144.95114,57.766 143.35314,59.364 143.35314,61.37 C143.35314,63.376 144.95114,64.974 146.95714,64.974 C148.14714,64.974 149.16714,64.379 149.79614,63.461 L149.79614,63.087 L146.58314,63.087 Z" id="Config" fill="#050713" fill-rule="nonzero"></path>
        <path d="M78.565,41.821 L80.644,41.821 L80.644,42.063 C80.237,42.657 79.577,43.042 78.807,43.042 C77.509,43.042 76.475,42.008 76.475,40.71 C76.475,39.412 77.509,38.378 78.807,38.378 C79.555,38.378 80.215,38.719 80.644,39.258 L82.437,38.048 C81.612,36.97 80.281,36.255 78.807,36.255 C76.321,36.255 74.253,38.257 74.253,40.71 C74.253,43.163 76.321,45.165 78.807,45.165 C79.687,45.165 80.556,44.835 80.974,44.197 L80.974,45 L82.701,45 L82.701,39.995 L78.565,39.995 L78.565,41.821 Z M86.3105714,36.42 L86.3105714,45 L88.4995714,45 L88.4995714,42.701 L89.6215714,42.701 L91.2495714,45 L93.8785714,45 L92.0195714,42.404 C93.1745714,41.876 93.7135714,40.754 93.7135714,39.555 C93.7135714,37.85 92.7015714,36.42 90.5015714,36.42 L86.3105714,36.42 Z M90.3805714,38.422 C91.2605714,38.422 91.5905714,38.917 91.5905714,39.577 C91.5905714,40.171 91.2605714,40.71 90.3805714,40.71 L88.4995714,40.71 L88.4995714,38.422 L90.3805714,38.422 Z M99.8861429,36.42 L96.4101429,45 L98.8081429,45 L99.2811429,43.746 L102.658143,43.746 L103.131143,45 L105.529143,45 L102.064143,36.42 L99.8861429,36.42 Z M101.910143,41.755 L100.029143,41.755 L100.975143,39.236 L101.910143,41.755 Z M108.687714,45 L110.887714,45 L110.887714,43.053 L112.471714,43.053 C114.748714,43.053 115.837714,41.524 115.837714,39.709 C115.837714,37.982 114.748714,36.42 112.471714,36.42 L108.687714,36.42 L108.687714,45 Z M112.350714,38.422 C113.274714,38.422 113.615714,39.038 113.615714,39.72 C113.615714,40.479 113.274714,41.051 112.350714,41.051 L110.887714,41.051 L110.887714,38.422 L112.350714,38.422 Z M124.870286,36.42 L124.870286,39.753 L121.372286,39.753 L121.372286,36.42 L119.183286,36.42 L119.183286,45 L121.372286,45 L121.372286,41.81 L124.870286,41.81 L124.870286,45 L127.070286,45 L127.070286,36.42 L124.870286,36.42 Z M130.481857,40.71 C130.481857,42.91 132.153857,44.758 134.287857,45.099 C135.772857,45.594 136.773857,47.134 138.500857,47.134 C139.281857,47.134 140.282857,46.815 140.898857,45.968 L139.237857,44.626 C139.006857,44.978 138.610857,45.011 138.489857,45.011 C138.115857,45.011 137.763857,44.813 137.367857,44.538 C138.698857,43.757 139.589857,42.338 139.589857,40.71 C139.589857,38.257 137.543857,36.255 135.035857,36.255 C132.560857,36.255 130.481857,38.257 130.481857,40.71 Z M132.703857,40.71 C132.703857,39.412 133.748857,38.378 135.035857,38.378 C136.355857,38.378 137.367857,39.412 137.367857,40.71 C137.367857,42.008 136.355857,43.042 135.035857,43.042 C133.748857,43.042 132.703857,42.008 132.703857,40.71 Z M143.012429,45 L143.012429,36.42 L145.201429,36.42 L145.201429,42.877 L149.315429,42.877 L149.315429,45 L143.012429,45 Z" id="GraphQL" fill="#6D7A99" fill-rule="nonzero"></path>
    </g>
</svg>