<?xml version="1.0" encoding="UTF-8"?>
<svg width="215px" height="105px" viewBox="0 0 215 105" version="1.1" xmlns="http://www.w3.org/2000/svg" xmlns:xlink="http://www.w3.org/1999/xlink">
    <!-- Generator: Sketch 59.1 (86144) - https://sketch.com -->
    <title>GraphQL Tools/ Inspector</title>
    <desc>Created with Sketch.</desc>
    <g id="GraphQL-Tools/-Inspector" stroke="none" stroke-width="1" fill="none" fill-rule="evenodd">
        <g id="Libraries-Logos-/-Inspector" transform="translate(6.000000, 20.000000)" fill="#59F79D">
            <path d="M36.0400049,60.5122933 C36.0400049,60.7669156 36.0151531,61.0154933 35.9767457,61.2595378 C35.9722272,61.2905156 35.9684617,61.3207378 35.9631901,61.35096 C35.5655605,63.64256 33.5736469,65.3909156 31.178079,65.3909156 C29.0415728,65.3909156 27.2273877,63.9991822 26.5759679,62.0740267 L6.34580741,50.3568711 C4.33958519,49.1948267 3.10452346,47.0467822 3.10452346,44.7242044 L3.10452346,24.9883378 C3.85384444,25.24296 4.65286914,25.3872711 5.48804198,25.3872711 C6.23736296,25.3872711 6.96032593,25.2731822 7.64262222,25.06616 L7.64262222,44.7242044 C7.64262222,45.41856 8.01464691,46.0653156 8.61560988,46.4128711 L27.4872025,57.3442489 C28.3796099,56.2993156 29.7012765,55.6336711 31.178079,55.6336711 C32.7844123,55.6336711 34.2062395,56.4217156 35.0926222,57.6298489 C35.108437,57.65176 35.1250049,57.6729156 35.1408198,57.6948267 C35.2025728,57.7832267 35.2613136,57.8731378 35.3177951,57.9660711 C35.3396346,58.0015822 35.3614741,58.0363378 35.3825605,58.0726044 C35.4322642,58.1579822 35.4782025,58.2456267 35.5226346,58.3340267 C35.5467333,58.3816267 35.5693259,58.4292267 35.5911654,58.4775822 C35.6295728,58.5599378 35.6649679,58.6430489 35.6988568,58.7276711 C35.7229556,58.7881156 35.744042,58.84856 35.7658815,58.90976 C35.7929926,58.9868267 35.8193506,59.0646489 35.8419432,59.1432267 C35.8645358,59.2187822 35.8811037,59.2943378 35.8999309,59.3691378 C35.9172519,59.44016 35.9353259,59.5104267 35.9488815,59.5822044 C35.9677086,59.6766489 35.979758,59.7718489 35.9933136,59.8678044 C36.0000914,59.9259822 36.0113877,59.9811378 36.0166593,60.03856 C36.0309679,60.19496 36.0400049,60.3521156 36.0400049,60.5122933 L36.0400049,60.5122933 Z M60.919721,17.9072711 C60.919721,19.3707822 60.2720667,20.6824267 59.2508815,21.5770044 L59.2508815,44.7242044 C59.2508815,47.0467822 58.0165728,49.1948267 56.0095975,50.3568711 L38.629116,60.4238933 C38.6095358,58.7767822 38.0545111,57.2603822 37.1342395,56.0318489 L53.7405481,46.4128711 C54.340758,46.0653156 54.7127827,45.41856 54.7127827,44.7242044 L54.7127827,22.5917156 C52.684721,22.0054044 51.195116,20.12936 51.195116,17.9072711 C51.195116,16.8253156 51.5528321,15.8279822 52.1492765,15.0187822 C52.1575605,15.0059378 52.1673506,14.9930933 52.1771407,14.9802489 C52.2893506,14.8306489 52.4098444,14.6863378 52.5386222,14.5503378 L52.5559432,14.5314489 C52.8225358,14.2526489 53.120758,14.0078489 53.4460914,13.79856 C53.4799802,13.7766489 53.5153753,13.7570044 53.5500173,13.7350933 C53.6787951,13.6580267 53.8105852,13.5847378 53.9461407,13.5190044 C53.9860543,13.5001156 54.0259679,13.4797156 54.0666346,13.4615822 C54.236079,13.3845156 54.4107951,13.3134933 54.5907827,13.2575822 C54.5915358,13.2575822 54.5915358,13.2575822 54.5915358,13.2568267 C55.054684,13.1094933 55.5464494,13.0286489 56.0577951,13.0286489 C58.7395358,13.0286489 60.919721,15.2167378 60.919721,17.9072711 L60.919721,17.9072711 Z M3.10452346,22.1550044 C1.6269679,21.3170933 0.625362963,19.72816 0.625362963,17.9072711 C0.625362963,15.2167378 2.80630123,13.0286489 5.48804198,13.0286489 C6.18314074,13.0286489 6.84284444,13.1790044 7.44154815,13.4434489 L27.936042,1.57216 C28.9384,0.991137778 30.0589926,0.701004444 31.1773259,0.701004444 C32.2971654,0.701004444 33.4170049,0.991137778 34.419363,1.57216 L51.9022642,11.6996267 C50.6159926,12.5700267 49.6196593,13.8348267 49.0729185,15.3164711 L32.1503136,5.51540444 C31.8551037,5.34389333 31.5184741,5.25398222 31.1773259,5.25398222 C30.8369309,5.25398222 30.5010543,5.34389333 30.2050914,5.51540444 L10.2724,17.0618044 C10.3205975,17.3368267 10.3499679,17.6178933 10.3499679,17.9072711 C10.3499679,20.0062044 9.0192642,21.7946044 7.16215309,22.4814044 C7.14784444,22.4866933 7.13278272,22.4927378 7.11922716,22.4972711 C6.97086914,22.5494044 6.82251111,22.5954933 6.66963457,22.6340267 C6.63875802,22.6415822 6.60863457,22.6506489 6.57775802,22.6566933 C6.43768395,22.6891822 6.29459753,22.7148711 6.15075802,22.7352711 C6.11159753,22.74056 6.07319012,22.7481156 6.03327654,22.7526489 C5.85404198,22.7730489 5.67254815,22.7858933 5.48804198,22.7858933 C5.28998025,22.7858933 5.09493086,22.7700267 4.90214074,22.7466044 C4.85093086,22.74056 4.80047407,22.7314933 4.74851111,22.7231822 C4.60090617,22.7005156 4.45631358,22.6718044 4.31247407,22.6355378 C4.26879506,22.6242044 4.22436296,22.6143822 4.17993086,22.6015378 C3.8011284,22.4942489 3.4404,22.3454044 3.10452346,22.1550044 L3.10452346,22.1550044 Z" id="Fill-2"></path>
            <path d="M15.1429721,28.8110682 L18.4615972,21.6799624 L21.7802224,28.8110682 L15.1429721,28.8110682 Z M22.5599717,31.0962447 C22.0428906,32.9138447 20.3880809,34.19008 18.4676011,34.19008 L18.4623477,34.19008 L18.4593458,34.19008 L18.4338295,34.19008 C16.5163516,34.19008 14.8825553,32.9161035 14.391741,31.0962447 L22.5599717,31.0962447 Z M27.0275826,44.05888 L27.0275826,44.03328 C27.0275826,43.4068329 27.5581724,42.8963388 28.21034,42.8963388 L33.9530175,42.8963388 C34.6059356,42.8963388 35.1365253,43.4068329 35.1365253,44.03328 L27.0275826,44.05888 Z M29.7143031,23.0149271 C29.5116734,22.4313976 29.7007945,21.7816094 30.1856049,21.3983624 C30.4467722,21.1920565 30.7627245,21.0873976 31.0801778,21.0873976 C31.3518517,21.0873976 31.6227752,21.1634447 31.8614281,21.3170447 C32.3800101,21.6505976 32.6314211,22.2785506 32.5045899,22.8251859 C32.4760717,22.8952094 32.4543077,22.9705035 32.4520563,22.9983624 C32.2554304,23.5909271 31.7038271,23.9892329 31.0816787,23.9899859 L31.0801778,23.9899859 C30.4647837,23.9899859 29.9161824,23.5984565 29.7143031,23.0149271 L29.7143031,23.0149271 Z M24.5855188,47.4305506 C24.6132866,46.8266918 25.1326191,46.3440565 25.7660248,46.3440565 L36.3973327,46.3440565 C37.0314888,46.3440565 37.5500709,46.8266918 37.5785892,47.4305506 L24.5855188,47.4305506 Z M40.3456111,36.0897506 L43.6634857,28.9593976 L46.9821109,36.0897506 L40.3456111,36.0897506 Z M47.7626107,38.37568 C47.2447791,40.19328 45.5899694,41.4687624 43.6694896,41.4687624 L43.6642362,41.4687624 L43.6612343,41.4687624 L43.635718,41.4687624 C41.7189905,41.4687624 40.0851943,40.1947859 39.59438,38.37568 L47.7626107,38.37568 Z M49.546503,36.2350682 L45.683029,27.9323859 L46.7374542,28.2358212 C47.0301416,28.3209035 47.3378387,28.2855153 47.6035088,28.1364329 C47.8691789,27.9888565 48.061302,27.7456565 48.1453558,27.4527624 C48.2294096,27.1591153 48.194137,26.8504094 48.0470428,26.5838682 C47.8991982,26.3165741 47.6567929,26.1230682 47.364856,26.0394918 L34.803312,22.4223624 C34.7522793,20.7719153 33.622806,19.3435859 32.02053,18.9249506 C30.4767914,18.5213741 28.8640086,19.15008 27.9896987,20.4609506 L15.4266537,16.8445741 C15.1347168,16.7609976 14.8262693,16.7956329 14.5613496,16.9432094 C14.294929,17.0915388 14.1020555,17.3339859 14.0180017,17.6283859 C13.8453912,18.2337506 14.1958656,18.8677271 14.799252,19.0409035 L16.9096034,19.64928 L12.5665722,28.9812329 C12.1995872,29.1769976 11.9616849,29.5640094 11.9609341,29.9901741 C11.9601839,32.6405271 13.5361932,35.0070212 15.976756,36.0182212 C18.4180694,37.0294212 21.2001009,36.4707388 23.0597918,34.5966682 C24.2898295,33.3934682 24.9975326,31.7144094 25.0005346,29.9901741 C25.0005346,29.5444329 24.7378664,29.1423624 24.3438641,28.9563859 L20.4931482,20.6808094 L27.360796,22.6580329 C27.4118287,24.2482447 28.4459909,25.61408 29.9431997,26.0959624 L29.9431997,40.6104094 L28.21034,40.6104094 C26.3018679,40.6104094 24.749874,42.1456565 24.749874,44.03328 L24.749874,44.18688 C23.3262124,44.6258447 22.3160655,45.9638212 22.3055588,47.4817506 L22.3055588,48.5659859 C22.3250713,49.2014682 22.8361486,49.7059388 23.475558,49.7157271 L38.6938033,49.7157271 C39.3279594,49.7059388 39.8382862,49.2014682 39.8585492,48.5546918 L39.8585492,47.4787388 C39.8480424,45.9638212 38.8371451,44.6258447 37.4142339,44.18688 L37.4142339,44.03328 C37.4142339,42.1456565 35.8614896,40.6104094 33.9530175,40.6104094 L32.2209083,40.6104094 L32.2209083,26.0952094 C33.0164177,25.8369506 33.7068598,25.3151624 34.1729083,24.6194447 L42.1212481,26.90688 L37.7692112,36.2606682 C37.4014757,36.45568 37.1635734,36.8426918 37.1628229,37.2696094 C37.1628229,39.9192094 38.7395826,42.2857035 41.179395,43.2969035 C43.6199579,44.3088565 46.4019894,43.7501741 48.2616803,41.8761035 C49.491718,40.6729035 50.1994211,38.9945976 50.2031735,37.2688565 C50.2024231,36.8231153 49.9397549,36.4210447 49.546503,36.2350682 L49.546503,36.2350682 Z" id="Fill-1"></path>
        </g>
        <path d="M75.02,54.74 L75.02,68 L78.42,68 L78.42,54.74 L75.02,54.74 Z M85.021428,68 L85.021428,60.605 L90.937428,68 L93.810428,68 L93.810428,54.74 L90.427428,54.74 L90.427428,62.152 L84.511428,54.74 L81.621428,54.74 L81.621428,68 L85.021428,68 Z M96.484856,64.022 L96.484856,64.175 C96.484856,66.776 98.932856,68.255 102.111856,68.255 C105.137856,68.255 107.381856,66.895 107.381856,64.311 C107.381856,61.4870571 104.430045,60.3796563 102.578288,59.726486 L101.972269,59.514433 C100.720576,59.06905 100.224856,58.8013 100.224856,58.327 C100.224856,57.885 100.683856,57.426 101.839856,57.426 C103.216856,57.426 103.879856,58.191 103.879856,58.837 L103.879856,58.956 L107.194856,58.956 L107.194856,58.769 C107.194856,56.134 104.865856,54.485 101.771856,54.485 C98.745856,54.485 96.586856,56.066 96.586856,58.599 C96.586856,61.175 99.0414442,62.2300588 101.087673,62.9263633 L101.465856,63.053 C103.063856,63.597 103.726856,63.937 103.726856,64.498 C103.726856,64.889 103.318856,65.314 102.043856,65.314 C100.496856,65.314 99.799856,64.617 99.799856,64.107 L99.799856,64.022 L96.484856,64.022 Z M110.056284,68 L113.456284,68 L113.456284,64.991 L115.904284,64.991 C119.423284,64.991 121.106284,62.628 121.106284,59.823 C121.106284,57.154 119.423284,54.74 115.904284,54.74 L110.056284,54.74 L110.056284,68 Z M115.717284,57.834 C117.145284,57.834 117.672284,58.786 117.672284,59.84 C117.672284,61.013 117.145284,61.897 115.717284,61.897 L113.456284,61.897 L113.456284,57.834 L115.717284,57.834 Z M123.576712,68 L133.759712,68 L133.759712,64.719 L126.976712,64.719 L126.976712,63.019 L132.552712,63.019 L132.552712,59.942 L126.976712,59.942 L126.976712,58.038 L133.759712,58.038 L133.759712,54.74 L123.576712,54.74 L123.576712,68 Z M145.92014,63.087 C145.32514,64.209 144.15214,64.974 142.74114,64.974 C140.75214,64.974 139.13714,63.376 139.13714,61.37 C139.13714,59.364 140.75214,57.766 142.74114,57.766 C144.13514,57.766 145.32514,58.531 145.92014,59.653 L149.01414,58.259 C147.84114,56.032 145.47814,54.485 142.74114,54.485 C138.91614,54.485 135.70314,57.579 135.70314,61.37 C135.70314,65.161 138.91614,68.255 142.74114,68.255 C145.47814,68.255 147.87514,66.708 149.03114,64.447 L145.92014,63.087 Z M150.566568,58.038 L154.697568,58.038 L154.697568,68 L158.097568,68 L158.097568,58.038 L162.228568,58.038 L162.228568,54.74 L150.566568,54.74 L150.566568,58.038 Z M163.712996,61.37 C163.712996,65.161 166.925996,68.255 170.750996,68.255 C174.626996,68.255 177.788996,65.161 177.788996,61.37 C177.788996,57.579 174.626996,54.485 170.750996,54.485 C166.925996,54.485 163.712996,57.579 163.712996,61.37 Z M167.146996,61.37 C167.146996,59.364 168.761996,57.766 170.750996,57.766 C172.790996,57.766 174.354996,59.364 174.354996,61.37 C174.354996,63.376 172.790996,64.974 170.750996,64.974 C168.761996,64.974 167.146996,63.376 167.146996,61.37 Z M180.361424,54.74 L180.361424,68 L183.744424,68 L183.744424,64.447 L185.478424,64.447 L187.994424,68 L192.057424,68 L189.184424,63.988 C190.969424,63.172 191.802424,61.438 191.802424,59.585 C191.802424,56.95 190.238424,54.74 186.838424,54.74 L180.361424,54.74 Z M186.651424,57.834 C188.011424,57.834 188.521424,58.599 188.521424,59.619 C188.521424,60.537 188.011424,61.37 186.651424,61.37 L183.744424,61.37 L183.744424,57.834 L186.651424,57.834 Z" id="Inspector" fill="#050713" fill-rule="nonzero"></path>
        <path d="M78.565,41.821 L80.644,41.821 L80.644,42.063 C80.237,42.657 79.577,43.042 78.807,43.042 C77.509,43.042 76.475,42.008 76.475,40.71 C76.475,39.412 77.509,38.378 78.807,38.378 C79.555,38.378 80.215,38.719 80.644,39.258 L82.437,38.048 C81.612,36.97 80.281,36.255 78.807,36.255 C76.321,36.255 74.253,38.257 74.253,40.71 C74.253,43.163 76.321,45.165 78.807,45.165 C79.687,45.165 80.556,44.835 80.974,44.197 L80.974,45 L82.701,45 L82.701,39.995 L78.565,39.995 L78.565,41.821 Z M86.3105714,36.42 L86.3105714,45 L88.4995714,45 L88.4995714,42.701 L89.6215714,42.701 L91.2495714,45 L93.8785714,45 L92.0195714,42.404 C93.1745714,41.876 93.7135714,40.754 93.7135714,39.555 C93.7135714,37.85 92.7015714,36.42 90.5015714,36.42 L86.3105714,36.42 Z M90.3805714,38.422 C91.2605714,38.422 91.5905714,38.917 91.5905714,39.577 C91.5905714,40.171 91.2605714,40.71 90.3805714,40.71 L88.4995714,40.71 L88.4995714,38.422 L90.3805714,38.422 Z M99.8861429,36.42 L96.4101429,45 L98.8081429,45 L99.2811429,43.746 L102.658143,43.746 L103.131143,45 L105.529143,45 L102.064143,36.42 L99.8861429,36.42 Z M101.910143,41.755 L100.029143,41.755 L100.975143,39.236 L101.910143,41.755 Z M108.687714,45 L110.887714,45 L110.887714,43.053 L112.471714,43.053 C114.748714,43.053 115.837714,41.524 115.837714,39.709 C115.837714,37.982 114.748714,36.42 112.471714,36.42 L108.687714,36.42 L108.687714,45 Z M112.350714,38.422 C113.274714,38.422 113.615714,39.038 113.615714,39.72 C113.615714,40.479 113.274714,41.051 112.350714,41.051 L110.887714,41.051 L110.887714,38.422 L112.350714,38.422 Z M124.870286,36.42 L124.870286,39.753 L121.372286,39.753 L121.372286,36.42 L119.183286,36.42 L119.183286,45 L121.372286,45 L121.372286,41.81 L124.870286,41.81 L124.870286,45 L127.070286,45 L127.070286,36.42 L124.870286,36.42 Z M130.481857,40.71 C130.481857,42.91 132.153857,44.758 134.287857,45.099 C135.772857,45.594 136.773857,47.134 138.500857,47.134 C139.281857,47.134 140.282857,46.815 140.898857,45.968 L139.237857,44.626 C139.006857,44.978 138.610857,45.011 138.489857,45.011 C138.115857,45.011 137.763857,44.813 137.367857,44.538 C138.698857,43.757 139.589857,42.338 139.589857,40.71 C139.589857,38.257 137.543857,36.255 135.035857,36.255 C132.560857,36.255 130.481857,38.257 130.481857,40.71 Z M132.703857,40.71 C132.703857,39.412 133.748857,38.378 135.035857,38.378 C136.355857,38.378 137.367857,39.412 137.367857,40.71 C137.367857,42.008 136.355857,43.042 135.035857,43.042 C133.748857,43.042 132.703857,42.008 132.703857,40.71 Z M143.012429,45 L143.012429,36.42 L145.201429,36.42 L145.201429,42.877 L149.315429,42.877 L149.315429,45 L143.012429,45 Z" id="GraphQL" fill="#6D7A99" fill-rule="nonzero"></path>
    </g>
</svg>