<svg id="Layer_1" data-name="Layer 1" xmlns="http://www.w3.org/2000/svg" viewBox="0 0 300 91.5347"><defs><style>.cls-1{fill:none;}.cls-2{fill:#e10098;}</style></defs><title>graphiql</title><path class="cls-1" d="M49.8564,18.40066l-.00239-.00478a7.44188,7.44188,0,0,1-2.06964-.29764l-22.56529,39.082a7.31035,7.31035,0,0,1,2.09906,3.6342H72.40439a7.38317,7.38317,0,0,1,2.0947-3.63321L51.94335,18.09987A7.476,7.476,0,0,1,49.8564,18.40066Z"/><path class="cls-1" d="M149.845,50.66135a3.67724,3.67724,0,0,0,.50439,1.96237,4.9303,4.9303,0,0,0,1.36911,1.36911,6.0576,6.0576,0,0,0,1.87351.81666,8.61227,8.61227,0,0,0,2.10174.257l-.012-.02162a8.39423,8.39423,0,0,0,2.92073-.50438,6.96139,6.96139,0,0,0,2.46442-1.59731,7.38157,7.38157,0,0,0,1.64054-2.647,10.68656,10.68656,0,0,0,.5957-3.73983V45.00717l-5.88482.81665Q149.845,46.84943,149.845,50.66135Z"/><path class="cls-1" d="M73.21785,31.87808a7.45809,7.45809,0,0,1-.70665-5.77475l-17.2866-9.981c-.02908.03-.05431.063-.08391.09254-.03834.03828-.08082.07108-.11992.10844L77.58694,55.407c.101-.02913.20243-.05553.30452-.08047L77.88057,35.386A7.45268,7.45268,0,0,1,73.21785,31.87808Z"/><path class="cls-1" d="M189.04729,38.29369a5.69076,5.69076,0,0,0-2.19055-1.87357,6.82667,6.82667,0,0,0-3.33154-.73018,7.00078,7.00078,0,0,0-3.33148.73018,7.24438,7.24438,0,0,0-2.30593,1.9168,8.539,8.539,0,0,0-1.321,2.55328,12.4894,12.4894,0,0,0-.48038,2.82949v.00722q-.048.68456-.048,1.77742t.048,1.77747a10.82849,10.82849,0,0,0,.48038,2.78625,8.17146,8.17146,0,0,0,1.36912,2.46442,7.4681,7.4681,0,0,0,2.30586,1.82548,7.27162,7.27162,0,0,0,3.28347.68456,7.19539,7.19539,0,0,0,3.33154-.68456,5.88278,5.88278,0,0,0,2.19055-1.82548,7.53552,7.53552,0,0,0,1.22985-2.69022,16.21219,16.21219,0,0,0,.50438-3.1946q.048-1.28024,0-2.55568a15.09556,15.09556,0,0,0-.50438-3.15136A6.99275,6.99275,0,0,0,189.04729,38.29369Z"/><path class="cls-1" d="M27.308,64.36929c-.02389.0965-.04977.19212-.07745.28757l17.25823,9.962a7.44312,7.44312,0,0,1,10.87391.15244l17.18632-9.93c-.04964-.15628-.09673-.31285-.136-.472Z"/><path class="cls-1" d="M257.927,32.60972a8.36179,8.36179,0,0,0-1.91674-3.15137,7.25235,7.25235,0,0,0-2.87517-1.77747,10.45814,10.45814,0,0,0-3.55232-.59191,10.62,10.62,0,0,0-3.55262.59191,7.26031,7.26031,0,0,0-2.87517,1.77747,8.83039,8.83039,0,0,0-1.96242,3.15137,15.17015,15.17015,0,0,0-.77581,4.56372q-.048,1.02561-.09125,1.91674v3.4204q.048.86471.09125,1.8735a15.36227,15.36227,0,0,0,.77581,4.61174,8.90774,8.90774,0,0,0,1.9168,3.07451,7.74491,7.74491,0,0,0,2.87511,1.82548,12.14492,12.14492,0,0,0,7.19625,0,7.34923,7.34923,0,0,0,2.82954-1.82548,8.43962,8.43962,0,0,0,1.91674-3.07451,14.27893,14.27893,0,0,0,.81665-4.61174q.048-1.004.048-1.8735.00009-.91276,0-1.7294.00009-.81672,0-1.691.00009-.8647-.048-1.91674A14.30924,14.30924,0,0,0,257.927,32.60972Z"/><path class="cls-1" d="M44.70684,16.326c-.06719-.064-.13478-.12732-.19958-.19381L27.2132,26.098a7.46705,7.46705,0,0,1-.7014,5.78244v-.00239a7.4566,7.4566,0,0,1-4.67659,3.51136V55.33078q.153.03749.30411.08105Z"/><path class="cls-2" d="M44.70684,16.326,22.13932,55.41183a7.47129,7.47129,0,0,1,3.07976,1.76838l22.56529-39.082A7.45466,7.45466,0,0,1,44.70684,16.326Z"/><polygon class="cls-2" points="136.147 36.646 136.147 36.642 136.144 36.646 136.147 36.646"/><path class="cls-2" d="M125.80865,40.29929h-9.73513a.89713.89713,0,0,0-1.004,1.02567v.64132a.89709.89709,0,0,0,1.004,1.02561h7.9745v2.32994a11.51313,11.51313,0,0,1-.73018,4.28984,8.18809,8.18809,0,0,1-2.01289,3.0145,8.3086,8.3086,0,0,1-2.96641,1.7294,12.36082,12.36082,0,0,1-3.73984.54523,13.04981,13.04981,0,0,1-3.73984-.50445,7.81586,7.81586,0,0,1-2.87511-1.69094,8.83035,8.83035,0,0,1-1.9168-3.012,13.68372,13.68372,0,0,1-.7758-4.35476q-.14414-4.13139,0-8.2147a13.854,13.854,0,0,1,.7758-4.3547,8.33862,8.33862,0,0,1,1.9168-2.96642,7.107,7.107,0,0,1,2.87511-1.691,12.13921,12.13921,0,0,1,3.73984-.54523l-.10087.048a11.336,11.336,0,0,1,3.58612.50444,9.16719,9.16719,0,0,1,2.6013,1.321,6.64736,6.64736,0,0,1,1.72946,1.82549,9.91973,9.91973,0,0,1,1.02561,2.04889,3.43022,3.43022,0,0,0,.36029.73018.827.827,0,0,0,.5933.18012h1.004a1.02365,1.02365,0,0,0,.73018-.257.75635.75635,0,0,0,.257-.68456,6.78263,6.78263,0,0,0-.73018-2.4188,9.20877,9.20877,0,0,0-2.10175-2.78624,12.30753,12.30753,0,0,0-3.651-2.30587,15.2927,15.2927,0,0,0-10.5398-.04807,10.45425,10.45425,0,0,0-3.78785,2.46442,11.032,11.032,0,0,0-2.32509,3.83353,15.33082,15.33082,0,0,0-.91275,4.88316q-.09125,2.02963-.09125,4.33553,0,2.2867.09125,4.33554a16.63009,16.63009,0,0,0,.86473,4.92884,11.13955,11.13955,0,0,0,2.3251,3.78546,11.0265,11.0265,0,0,0,3.78785,2.51,14.35764,14.35764,0,0,0,5.20026.86467,14.7276,14.7276,0,0,0,5.20021-.86467,10.53764,10.53764,0,0,0,3.88394-2.55567,10.85442,10.85442,0,0,0,2.41879-3.884,14.80485,14.80485,0,0,0,.81666-5.02009V41.325A.90657.90657,0,0,0,125.80865,40.29929Z"/><path class="cls-2" d="M164.348,35.69239a7.12635,7.12635,0,0,0-2.78625-1.9168,11.50928,11.50928,0,0,0-4.42684-.73018A9.8475,9.8475,0,0,0,153.251,33.73a8.75806,8.75806,0,0,0-2.647,1.54928,6.69243,6.69243,0,0,0-1.46037,1.87351,3.74812,3.74812,0,0,0-.48038,1.5973.94225.94225,0,0,0,1.004,1.004h.64132a1.09024,1.09024,0,0,0,.64132-.18011,1.56957,1.56957,0,0,0,.48038-.77587,4.22428,4.22428,0,0,1,1.7294-2.10169,6.78568,6.78568,0,0,1,3.97047-1.004q3.23784,0,4.69821,1.36911a4.91786,4.91786,0,0,1,1.506,3.83348v1.5973l-7.2107,1.00406a16.71816,16.71816,0,0,0-3.699.91274,9.591,9.591,0,0,0-2.82954,1.54923,6.98157,6.98157,0,0,0-1.8735,2.145,5.96326,5.96326,0,0,0-.64133,2.78625,5.73032,5.73032,0,0,0,.64133,2.69022,7.552,7.552,0,0,0,1.77747,2.14492,9.34822,9.34822,0,0,0,2.6013,1.46037,9.88508,9.88508,0,0,0,3.15136.50444,11.6307,11.6307,0,0,0,3.07451-.36512,9.67379,9.67379,0,0,0,2.30587-.81665,6.48614,6.48614,0,0,0,1.5973-1.14093,6.66367,6.66367,0,0,0,1.09531-1.28026v2.14493a.88743.88743,0,0,0,1.004,1.004l.01684-.00478h.77581a.8875.8875,0,0,0,1.00405-1.004V41.03192a10.03159,10.03159,0,0,0-.40835-2.78625A6.156,6.156,0,0,0,164.348,35.69239Zm-1.04484,10.864a10.68656,10.68656,0,0,1-.5957,3.73983,7.38157,7.38157,0,0,1-1.64054,2.647,6.96139,6.96139,0,0,1-2.46442,1.59731,8.39423,8.39423,0,0,1-2.92073.50438l.012.02162a8.61227,8.61227,0,0,1-2.10174-.257,6.0576,6.0576,0,0,1-1.87351-.81666,4.9303,4.9303,0,0,1-1.36911-1.36911,3.67724,3.67724,0,0,1-.50439-1.96237q0-3.8119,7.57332-4.83753l5.88482-.81665Z"/><path class="cls-2" d="M217.15985,35.96136a7.90361,7.90361,0,0,0-2.87517-2.14492,9.84349,9.84349,0,0,0-4.05933-.77587,9.35776,9.35776,0,0,0-4.69821,1.004,10.074,10.074,0,0,0-2.96642,2.6013l.00484-.036V25.80109a.88743.88743,0,0,0-1.004-1.004h-.77586a.88741.88741,0,0,0-1.004,1.004v30.4232a.88743.88743,0,0,0,1.004,1.004h.77586a.88745.88745,0,0,0,1.004-1.004V43.49389a7.98787,7.98787,0,0,1,1.96236-5.7575,6.93325,6.93325,0,0,1,5.24828-2.04884,6.42912,6.42912,0,0,1,5.20026,2.10169,8.427,8.427,0,0,1,1.77742,5.70226V56.22184a.88748.88748,0,0,0,1.004,1.00406h.76858a.88749.88749,0,0,0,1.00406-1.00406V43.26331a13.37957,13.37957,0,0,0-.59331-4.05933A9.03191,9.03191,0,0,0,217.15985,35.96136Z"/><path class="cls-2" d="M249.549,27.08763l.0338.00134.03344-.00134Z"/><path class="cls-2" d="M261.239,32.00421a10.273,10.273,0,0,0-2.46436-3.92485,9.5859,9.5859,0,0,0-3.73984-2.37311,14.40633,14.40633,0,0,0-4.83759-.77581l-.03362-.02162a14.55207,14.55207,0,0,0-4.88316.77581,10.07337,10.07337,0,0,0-3.73983,2.37317,11.08688,11.08688,0,0,0-2.46442,3.92479,17.22841,17.22841,0,0,0-.96076,5.52448q-.09126,2.056-.09131,3.83353,0,1.78464.09131,3.83348.18495,6.47812,3.24262,9.5358,3.101,3.05769,8.80555,3.05767a14.503,14.503,0,0,0,6.38921-1.32588l2.01283,2.7863q.233.281.5933.64132a1.1148,1.1148,0,0,0,.86473.4083h1.03284a.93559.93559,0,0,0,.91513-.91513.74824.74824,0,0,0-.048-.31944q-.04327-.08889-.09131-.18017l-2.92079-4.08334q3.07448-3.05771,3.33154-9.58381.09124-2.056.09125-3.83348,0-1.78473-.09125-3.83354A16.42979,16.42979,0,0,0,261.239,32.00421Zm-1.86633,9.358q.00009.81663,0,1.7294.00009.8695-.048,1.8735a14.27893,14.27893,0,0,1-.81665,4.61174,8.43962,8.43962,0,0,1-1.91674,3.07451,7.34923,7.34923,0,0,1-2.82954,1.82548,12.14492,12.14492,0,0,1-7.19625,0,7.74491,7.74491,0,0,1-2.87511-1.82548,8.90774,8.90774,0,0,1-1.9168-3.07451,15.36227,15.36227,0,0,1-.77581-4.61174q-.04326-1.00883-.09125-1.8735v-3.4204q.04327-.89109.09125-1.91674a15.17015,15.17015,0,0,1,.77581-4.56372,8.83039,8.83039,0,0,1,1.96242-3.15137,7.26031,7.26031,0,0,1,2.87517-1.77747,10.62,10.62,0,0,1,3.55262-.59191l-.0338-.00134h.06724l-.03344.00134a10.45814,10.45814,0,0,1,3.55232.59191,7.25235,7.25235,0,0,1,2.87517,1.77747,8.36179,8.36179,0,0,1,1.91674,3.15137,14.30924,14.30924,0,0,1,.81665,4.56372q.048,1.052.048,1.91674Q259.3728,40.54554,259.37271,41.36222Z"/><path class="cls-2" d="M144.04186,33.49455h-1.691q-4.56317,0-6.20425,3.14753v.00384h-.00239l.00239-.00384V34.54423a.91339.91339,0,0,0-.3195-.73018.87091.87091,0,0,0-.73018-.3195h-.73019a.91347.91347,0,0,0-.73018.3195.93865.93865,0,0,0-.27381.73018V56.21945a.88744.88744,0,0,0,1.004,1.00406h.73019a.98689.98689,0,0,0,.73018-.27381.871.871,0,0,0,.3195-.73025V42.07676a5.51286,5.51286,0,0,1,5.93283-5.93284h1.96237a.88743.88743,0,0,0,1.004-1.004v-.64132A.88748.88748,0,0,0,144.04186,33.49455Z"/><path class="cls-2" d="M192.87366,39.95584a9.59388,9.59388,0,0,0-1.64054-3.46841,8.006,8.006,0,0,0-3.01205-2.46442,11.07194,11.07194,0,0,0-9.16589.06485,9.01246,9.01246,0,0,0-2.96642,2.55328v-2.145a.88742.88742,0,0,0-1.004-1.004H174.309a.88746.88746,0,0,0-1.00405,1.004v30.4232a.88745.88745,0,0,0,1.00405,1.004h.77581a.88741.88741,0,0,0,1.004-1.004V54.11054a9.346,9.346,0,0,0,2.96642,2.55567,9.51692,9.51692,0,0,0,4.69826,1.02567v.01678a9.91717,9.91717,0,0,0,4.46763-.91274,8.6494,8.6494,0,0,0,3.01205-2.46436,10.2136,10.2136,0,0,0,1.64054-3.46848,17.57708,17.57708,0,0,0,.64132-3.97041q.048-.68935.048-1.506,0-.82152-.048-1.50605A17.32514,17.32514,0,0,0,192.87366,39.95584Zm-2.09214,6.69181a16.21219,16.21219,0,0,1-.50438,3.1946,7.53552,7.53552,0,0,1-1.22985,2.69022,5.88278,5.88278,0,0,1-2.19055,1.82548,7.19539,7.19539,0,0,1-3.33154.68456,7.27162,7.27162,0,0,1-3.28347-.68456,7.4681,7.4681,0,0,1-2.30586-1.82548,8.17146,8.17146,0,0,1-1.36912-2.46442,10.82849,10.82849,0,0,1-.48038-2.78625q-.048-.68455-.048-1.77747t.048-1.77742v-.00722a12.4894,12.4894,0,0,1,.48038-2.82949,8.539,8.539,0,0,1,1.321-2.55328,7.24438,7.24438,0,0,1,2.30593-1.9168,7.00078,7.00078,0,0,1,3.33148-.73018,6.82667,6.82667,0,0,1,3.33154.73018,5.69076,5.69076,0,0,1,2.19055,1.87357,6.99275,6.99275,0,0,1,1.22985,2.64692,15.09556,15.09556,0,0,1,.50438,3.15136Q190.82951,45.36739,190.78152,46.64765Z"/><path class="cls-2" d="M288.213,54.58733H272.47062V26.38842a.88743.88743,0,0,0-1.004-1.004h-.86473a.8874.8874,0,0,0-1.004,1.004V56.29756a.8874.8874,0,0,0,1.004,1.004H288.213a.89711.89711,0,0,0,1.02567-1.004V55.613A.90658.90658,0,0,0,288.213,54.58733Z"/><path class="cls-2" d="M27.308,64.36929H72.413a7.46478,7.46478,0,0,1-.00857-3.55488H27.31814A7.46449,7.46449,0,0,1,27.308,64.36929Z"/><path class="cls-2" d="M72.5112,26.10333a7.47482,7.47482,0,0,1,1.75289-3.08995L57.01775,13.05647a7.44223,7.44223,0,0,1-1.79315,3.06588Z"/><path class="cls-2" d="M27.2305,64.65686a7.47041,7.47041,0,0,1-1.769,3.08022l17.23614,9.951a7.4561,7.4561,0,0,1,1.79111-3.06915Z"/><path class="cls-2" d="M44.50726,16.1322a7.47712,7.47712,0,0,1-1.80515-3.05854L25.45956,23.00983A7.481,7.481,0,0,1,27.2132,26.098Z"/><path class="cls-2" d="M21.83521,55.33078V35.38944a7.45977,7.45977,0,0,1-3.54527.016V55.32623A7.46435,7.46435,0,0,1,21.83521,55.33078Z"/><path class="cls-2" d="M74.49909,57.1812A7.4571,7.4571,0,0,1,77.58694,55.407L55.02077,16.32333a7.46947,7.46947,0,0,1-3.07742,1.77654Z"/><path class="cls-2" d="M77.88057,35.386l.01089,19.94057a7.46376,7.46376,0,0,1,3.53863-.0039V35.40681A7.4672,7.4672,0,0,1,77.88057,35.386Z"/><path class="cls-2" d="M55.36264,74.77134a7.45263,7.45263,0,0,1,1.57609,2.67611L74.08,67.5435A7.45538,7.45538,0,0,1,72.549,64.84134Z"/><path class="cls-2" d="M72.5112,26.10333A7.44524,7.44524,0,0,0,77.88057,35.386l-.00338-6.18433Z"/><path class="cls-2" d="M21.83521,55.33078v.60781l.30411-.52676Q21.98794,55.368,21.83521,55.33078Z"/><path class="cls-2" d="M55.14069,16.21489c.0296-.02955.05483-.06253.08391-.09254l-.47985-.27707.276.478C55.05987,16.286,55.10235,16.25317,55.14069,16.21489Z"/><path class="cls-2" d="M84.1227,60.81441v3.55488H82.76163l.68374,1.18417-3.07451,1.80148-1.26843-2.19777h-.89235L74.08,67.5435a7.46364,7.46364,0,0,0,12.05552-1.22862l.00244.00239a7.46369,7.46369,0,0,0-4.70788-10.99465v5.49179Z"/><path class="cls-2" d="M26.5118,31.87808v.00239a7.46705,7.46705,0,0,0,.7014-5.78244l-5.378,3.0991v6.19231A7.4566,7.4566,0,0,0,26.5118,31.87808Z"/><path class="cls-2" d="M72.549,64.84134l.81707-.472H72.413C72.45223,64.52849,72.49932,64.68506,72.549,64.84134Z"/><polygon class="cls-2" points="49.859 87.272 49.856 87.272 49.854 87.272 49.859 87.272"/><path class="cls-2" d="M44.48873,74.6189,50.06029,77.835l5.30235-3.06361a7.44312,7.44312,0,0,0-10.87391-.15244Z"/><path class="cls-2" d="M26.7323,64.36929l.4982.28757c.02768-.09545.05356-.19107.07745-.28757Z"/><path class="cls-2" d="M77.89181,55.93492l-.00035-.6084c-.10209.02494-.20353.05134-.30452.08047Z"/><path class="cls-2" d="M49.8564,18.40066a7.476,7.476,0,0,0,2.087-.30079L49.8638,14.49673l-2.07943,3.60151a7.44188,7.44188,0,0,0,2.06964.29764Z"/><path class="cls-2" d="M16.93522,27.92206l1.35472-.78064V25.5609H21.0326l4.427-2.55107a7.4713,7.4713,0,1,0-7.16962,12.39564V30.26528Z"/><path class="cls-2" d="M72.40439,60.81441H76.596L74.49909,57.1812a7.38317,7.38317,0,0,0-2.0947,3.63321Z"/><path class="cls-2" d="M20.61334,65.15717,19.3444,67.35494l-3.07451-1.77747.69755-1.20818H15.57088V60.81441H18.082l.208-.35971V55.32623a7.474,7.474,0,1,0,7.17154,12.41085l-4.46874-2.57991Z"/><path class="cls-2" d="M81.43009,25.5609v1.58966l1.35712.78351-1.35712,2.3361v5.13664a7.47429,7.47429,0,1,0-7.166-12.39343l4.41256,2.54752Z"/><path class="cls-2" d="M51.21835,82.60733l-8.52073-4.91928a7.46794,7.46794,0,1,0,14.24111-.2406l-4.11731,2.37894Z"/><path class="cls-2" d="M25.21908,57.18021l-2.09831,3.6342h4.19737a7.31035,7.31035,0,0,0-2.09906-3.6342Z"/><path class="cls-2" d="M47.3442,10.13107,46.095,7.96657l3.07451-1.77742.6951,1.20386.68124-1.17985,3.07451,1.77747L52.3918,10.11837l.232.40136,4.39392,2.53674a7.47341,7.47341,0,1,0-14.31564.01719l4.41012-2.54134Z"/><path class="cls-2" d="M44.974,15.86322l-.46674.269c.0648.06649.13239.12977.19958.19381Z"/><path class="cls-2" d="M47.78437,18.09824l2.07943-3.60151-.62856-1.08907L44.974,15.86322l-.26716.46279A7.45466,7.45466,0,0,0,47.78437,18.09824Z"/><path class="cls-2" d="M23.12077,60.81441l2.09831-3.6342a7.47129,7.47129,0,0,0-3.07976-1.76838l-.30411.52676v4.87582Z"/><polygon class="cls-2" points="51.252 8.147 52.392 10.118 53.62 7.991 50.546 6.213 49.865 7.393 50.537 8.558 51.252 8.147"/><polygon class="cls-2" points="18.29 64.369 16.967 64.369 16.27 65.577 19.344 67.355 20.613 65.157 18.29 65.157 18.29 64.369"/><path class="cls-2" d="M76.596,60.81441H72.40439a7.46478,7.46478,0,0,0,.00857,3.55488H73.366l3.96085-2.28856Z"/><path class="cls-2" d="M27.31814,60.81441H23.12077l-.63666,1.1027,4.24819,2.45218H27.308A7.46449,7.46449,0,0,0,27.31814,60.81441Z"/><polygon class="cls-2" points="16.928 62.81 18.082 60.814 15.571 60.814 15.571 64.369 16.967 64.369 17.633 63.217 16.928 62.81"/><polygon class="cls-2" points="82.762 64.369 84.123 64.369 84.123 60.814 81.43 60.814 81.43 62.063 82.762 64.369"/><polygon class="cls-2" points="21.835 61.543 22.484 61.917 23.121 60.814 21.835 60.814 21.835 61.543"/><polygon class="cls-2" points="18.29 63.597 17.633 63.217 16.967 64.369 18.29 64.369 18.29 63.597"/><polygon class="cls-2" points="18.29 60.455 18.082 60.814 18.29 60.814 18.29 60.455"/><polygon class="cls-2" points="47.344 10.131 47.112 10.532 47.46 10.332 47.344 10.131"/><path class="cls-2" d="M53.02939,11.22125l-.7162.41273,2.43156,4.2113.47985.27707a7.44223,7.44223,0,0,0,1.79315-3.06588l-4.39392-2.53674Z"/><path class="cls-2" d="M52.82142,79.82639l-2.21077,1.27734L49.059,78.41351l1.00131-.57856L44.48873,74.6189a7.4561,7.4561,0,0,0-1.79111,3.06915l8.52073,4.91928Z"/><path class="cls-2" d="M77.87719,29.20162l-.002-3.64072h.80144l-4.41256-2.54752a7.47482,7.47482,0,0,0-1.75289,3.08995Z"/><polygon class="cls-2" points="82.787 27.934 81.43 27.151 81.43 30.27 82.787 27.934"/><path class="cls-2" d="M26.7323,64.36929H21.83521v.78788h-.84247l4.46874,2.57991a7.47041,7.47041,0,0,0,1.769-3.08022Z"/><polygon class="cls-2" points="17.633 63.217 18.29 62.079 18.29 60.814 18.082 60.814 16.928 62.81 17.633 63.217"/><polygon class="cls-2" points="21.835 63.041 21.835 64.369 26.732 64.369 22.484 61.917 21.835 63.041"/><polygon class="cls-2" points="17.633 63.217 18.29 63.597 18.29 62.079 17.633 63.217"/><polygon class="cls-2" points="21.835 63.041 22.484 61.917 21.835 61.543 21.835 63.041"/><polygon class="cls-2" points="16.935 27.922 18.29 30.265 18.29 27.141 16.935 27.922"/><path class="cls-2" d="M21.83521,25.5609v3.63623l5.378-3.0991a7.481,7.481,0,0,0-1.75364-3.0882l-4.427,2.55107Z"/><path class="cls-2" d="M44.974,15.86322l2.45067-4.24439-.70518-.4072.39274-.67931-4.41012,2.54134a7.47712,7.47712,0,0,0,1.80515,3.05854Z"/><polygon class="cls-2" points="52.624 10.52 52.392 10.118 52.276 10.319 52.624 10.52"/><polygon class="cls-2" points="48.592 12.293 47.425 11.619 44.974 15.863 49.235 13.408 48.592 12.293"/><polygon class="cls-2" points="50.537 8.558 51.193 9.694 52.276 10.319 52.392 10.118 51.252 8.147 50.537 8.558"/><polygon class="cls-2" points="47.46 10.332 47.112 10.532 46.719 11.212 47.425 11.619 47.814 10.945 47.46 10.332"/><polygon class="cls-2" points="51.915 10.944 52.313 11.634 53.029 11.221 52.624 10.52 52.276 10.319 51.915 10.944"/><polygon class="cls-2" points="47.814 10.945 47.425 11.619 48.592 12.293 47.814 10.945"/><polygon class="cls-2" points="52.276 10.319 51.193 9.694 51.915 10.944 52.276 10.319"/><path class="cls-2" d="M49.8638,14.49673l2.07955,3.60314a7.46947,7.46947,0,0,0,3.07742-1.77654l-.276-.478-4.24458-2.45073Z"/><polygon class="cls-2" points="49.2 8.543 49.865 7.393 49.169 6.189 46.095 7.967 47.344 10.131 48.497 8.137 49.2 8.543"/><path class="cls-2" d="M18.70546,59.73594l.70292.40574,2.42683-4.20309v-.60781a7.46435,7.46435,0,0,0-3.54527-.00455V60.4547Z"/><path class="cls-2" d="M21.83521,35.38944V29.19713l-3.12252,1.79938-.42275-.73123v5.14019A7.45977,7.45977,0,0,0,21.83521,35.38944Z"/><path class="cls-2" d="M74.49909,57.1812,76.596,60.81441h1.29844l-.00263-4.87949-.30487-.52793A7.4571,7.4571,0,0,0,74.49909,57.1812Z"/><polygon class="cls-2" points="81.43 65.157 79.102 65.157 80.371 67.355 83.445 65.553 82.762 64.369 81.43 64.369 81.43 65.157"/><polygon class="cls-2" points="81.43 64.369 79.574 64.369 78.879 64.771 79.102 65.157 81.43 65.157 81.43 64.369"/><path class="cls-2" d="M77.89146,55.32652l.00035.6084,2.81731,4.87949h.721V55.32262A7.46376,7.46376,0,0,0,77.89146,55.32652Z"/><polygon class="cls-2" points="78.21 65.157 79.102 65.157 78.879 64.771 78.21 65.157"/><path class="cls-2" d="M81.00257,31.00613l-3.12538-1.80451.00338,6.18433a7.4672,7.4672,0,0,0,3.54952.02086V30.27017Z"/><polygon class="cls-2" points="18.29 25.561 18.29 27.141 21.033 25.561 18.29 25.561"/><polygon class="cls-2" points="20.613 65.157 20.993 65.157 20.708 64.993 20.613 65.157"/><polygon class="cls-2" points="80.709 60.814 77.892 55.935 77.894 60.814 80.709 60.814"/><polygon class="cls-2" points="81.43 25.561 78.677 25.561 81.43 27.151 81.43 25.561"/><polygon class="cls-2" points="21.835 60.814 21.835 55.939 19.408 60.142 20.574 60.814 21.835 60.814"/><polygon class="cls-2" points="49.88 13.036 49.235 13.408 49.864 14.497 50.5 13.395 49.88 13.036"/><polygon class="cls-2" points="49.882 8.936 50.537 8.558 49.865 7.393 49.2 8.543 49.882 8.936"/><polygon class="cls-2" points="19.628 64.369 18.29 64.369 18.29 65.157 20.613 65.157 20.708 64.993 19.628 64.369"/><polygon class="cls-2" points="77.895 61.753 77.894 60.814 76.596 60.814 77.327 62.081 77.895 61.753"/><polygon class="cls-2" points="81.43 60.814 80.709 60.814 81.43 62.063 81.43 60.814"/><polygon class="cls-2" points="81.43 64.369 82.762 64.369 81.43 62.063 81.43 64.369"/><polygon class="cls-2" points="77.895 61.753 78.858 61.196 80.409 63.887 79.574 64.369 81.43 64.369 81.43 62.063 80.709 60.814 77.894 60.814 77.895 61.753"/><polygon class="cls-2" points="18.29 64.369 19.628 64.369 18.29 63.597 18.29 64.369"/><polygon class="cls-2" points="21.835 60.814 20.574 60.814 21.835 61.543 21.835 60.814"/><polygon class="cls-2" points="20.708 64.993 20.993 65.157 21.835 65.157 21.835 64.369 21.068 64.369 20.708 64.993"/><polygon class="cls-2" points="50.5 13.395 54.745 15.845 52.313 11.634 51.12 12.322 50.5 13.395"/><polygon class="cls-2" points="48.521 9.721 49.2 8.543 48.497 8.137 47.344 10.131 47.46 10.332 48.521 9.721"/><polygon class="cls-2" points="81.43 30.27 81.43 27.151 78.677 25.561 77.875 25.561 77.877 29.202 81.003 31.006 81.43 30.27"/><polygon class="cls-2" points="19.02 60.814 19.408 60.142 18.705 59.736 18.29 60.455 18.29 60.814 19.02 60.814"/><polygon class="cls-2" points="20.708 64.993 21.068 64.369 19.628 64.369 20.708 64.993"/><polygon class="cls-2" points="50.5 13.395 51.12 12.322 49.88 13.036 50.5 13.395"/><polygon class="cls-2" points="20.574 60.814 19.408 60.142 19.02 60.814 20.574 60.814"/><polygon class="cls-2" points="49.2 8.543 48.521 9.721 49.882 8.936 49.2 8.543"/><polygon class="cls-2" points="18.29 60.814 18.29 62.079 19.02 60.814 18.29 60.814"/><polygon class="cls-2" points="21.068 64.369 21.835 64.369 21.835 63.041 21.068 64.369"/><polygon class="cls-2" points="20.574 60.814 19.02 60.814 18.29 62.079 18.29 63.597 19.628 64.369 21.068 64.369 21.835 63.041 21.835 61.543 20.574 60.814"/><polygon class="cls-2" points="21.033 25.561 18.29 27.141 18.29 30.265 18.713 30.997 21.835 29.197 21.835 25.561 21.033 25.561"/><polygon class="cls-2" points="50.537 8.558 49.882 8.936 51.193 9.694 50.537 8.558"/><polygon class="cls-2" points="48.592 12.293 49.235 13.408 49.88 13.036 48.592 12.293"/><polygon class="cls-2" points="51.12 12.322 52.313 11.634 51.915 10.944 51.12 12.322"/><polygon class="cls-2" points="47.46 10.332 47.814 10.945 48.521 9.721 47.46 10.332"/><polygon class="cls-2" points="51.12 12.322 51.915 10.944 51.193 9.694 49.882 8.936 48.521 9.721 47.814 10.945 48.592 12.293 49.88 13.036 51.12 12.322"/><path class="cls-2" d="M77.89682,65.15717l-.0004-.78788H73.366l-.81707.472A7.45538,7.45538,0,0,0,74.08,67.5435l4.13007-2.38633Z"/><path class="cls-2" d="M50.06029,77.835l2.93309,1.6931-.172.29834,4.11731-2.37894a7.45263,7.45263,0,0,0-1.57609-2.67611Z"/><polygon class="cls-2" points="77.327 62.081 73.366 64.369 77.896 64.369 77.896 63.066 77.327 62.081"/><polygon class="cls-2" points="50.611 81.104 52.821 79.826 52.993 79.528 50.06 77.835 49.059 78.414 50.611 81.104"/><polygon class="cls-2" points="78.648 64.369 77.896 64.369 77.897 65.157 78.21 65.157 78.879 64.771 78.648 64.369"/><polygon class="cls-2" points="78.879 64.771 79.574 64.369 78.648 64.369 78.879 64.771"/><polygon class="cls-2" points="77.896 63.066 77.895 61.753 77.327 62.081 77.896 63.066"/><polygon class="cls-2" points="77.896 63.066 77.896 64.369 78.648 64.369 77.896 63.066"/><polygon class="cls-2" points="78.648 64.369 79.574 64.369 80.409 63.887 78.858 61.196 77.895 61.753 77.896 63.066 78.648 64.369"/><path class="cls-2" d="M229.22608,33.503h-.73024a.91341.91341,0,0,0-.73018.31944.93865.93865,0,0,0-.27381.73018V56.2279a.8874.8874,0,0,0,1.004,1.004h.73024a.98685.98685,0,0,0,.73019-.27381.8709.8709,0,0,0,.31943-.73019V42.08515l-.00239-5.43078h.00239V34.55262a.91345.91345,0,0,0-.31943-.73018A.87088.87088,0,0,0,229.22608,33.503Z"/><circle class="cls-2" cx="228.69009" cy="27.27778" r="1.5195"/></svg>