<?xml version="1.0" encoding="UTF-8"?>
<!DOCTYPE svg PUBLIC "-//W3C//DTD SVG 1.1//EN" "http://www.w3.org/Graphics/SVG/1.1/DTD/svg11.dtd">
<svg version="1.1" xmlns="http://www.w3.org/2000/svg" xmlns:xlink="http://www.w3.org/1999/xlink" x="0" y="0" width="1600" height="500" viewBox="0, 0, 1600, 500">
  <g id="Layer_1">
    <g>
      <g id="GraphQL-mark">
        <path d="M137.239,352.66 L122.863,344.36 L283.013,66.98 L297.389,75.28 z" fill="#E434AA"/>
        <path d="M119.571,322.2 L439.871,322.2 L439.871,338.8 L119.571,338.8 z" fill="#E434AA"/>
        <path d="M286.119,424.026 L125.909,331.526 L134.209,317.15 L294.419,409.65 z" fill="#E434AA"/>
        <path d="M425.293,182.947 L265.083,90.447 L273.384,76.071 L433.594,168.571 z" fill="#E434AA"/>
        <path d="M134.253,182.883 L125.953,168.508 L286.163,76.008 L294.464,90.383 z" fill="#E434AA"/>
        <path d="M422.339,352.663 L262.189,75.283 L276.565,66.983 L436.715,344.363 z" fill="#E434AA"/>
        <path d="M132.271,157.5 L148.871,157.5 L148.871,342.5 L132.271,342.5 z" fill="#E434AA"/>
        <path d="M410.671,157.5 L427.271,157.5 L427.271,342.5 L410.671,342.5 z" fill="#E434AA"/>
        <path d="M283.293,416.999 L276.043,404.442 L415.382,323.992 L422.632,336.549 z" fill="#E434AA"/>
        <path d="M449.272,347.9 C439.672,364.6 418.272,370.3 401.572,360.7 C384.871,351.1 379.172,329.7 388.772,313 C398.371,296.3 419.772,290.6 436.471,300.2 C453.272,309.9 458.971,331.2 449.272,347.9" fill="#E434AA"/>
        <path d="M170.671,187 C161.071,203.7 139.671,209.4 122.971,199.8 C106.271,190.2 100.571,168.8 110.171,152.1 C119.771,135.4 141.171,129.7 157.871,139.3 C174.571,149 180.271,170.3 170.671,187" fill="#E434AA"/>
        <path d="M110.271,347.9 C100.671,331.2 106.371,309.9 123.071,300.2 C139.771,290.6 161.071,296.3 170.771,313 C180.371,329.7 174.671,351 157.971,360.7 C141.171,370.3 119.871,364.6 110.271,347.9" fill="#E434AA"/>
        <path d="M388.871,187 C379.271,170.3 384.971,149 401.671,139.3 C418.371,129.7 439.671,135.4 449.371,152.1 C458.971,168.8 453.271,190.1 436.571,199.8 C419.871,209.4 398.471,203.7 388.871,187" fill="#E434AA"/>
        <path d="M279.771,445.8 C260.471,445.8 244.871,430.2 244.871,410.9 C244.871,391.6 260.471,376 279.771,376 C299.072,376 314.671,391.6 314.671,410.9 C314.671,430.1 299.072,445.8 279.771,445.8" fill="#E434AA"/>
        <path d="M279.771,124 C260.471,124 244.871,108.4 244.871,89.1 C244.871,69.8 260.471,54.2 279.771,54.2 C299.072,54.2 314.671,69.8 314.671,89.1 C314.671,108.4 299.072,124 279.771,124" fill="#E434AA"/>
      </g>
      <g id="GraphQL-text">
        <path d="M1395.102,332.35 Q1392.672,332.35 1391.214,330.892 Q1389.756,329.434 1389.756,327.004 L1389.756,167.596 Q1389.756,165.166 1391.214,163.708 Q1392.672,162.25 1395.102,162.25 L1399.719,162.25 Q1402.149,162.25 1403.607,163.708 Q1405.065,165.166 1405.065,167.596 L1405.065,317.77 L1488.9,317.77 Q1491.573,317.77 1493.031,319.228 Q1494.489,320.686 1494.489,323.359 L1494.489,327.004 Q1494.489,329.434 1493.031,330.892 Q1491.573,332.35 1488.9,332.35 z" fill="#E434AA"/>
        <path d="M1338.969,348.145 Q1336.296,348.145 1334.351,346.079 Q1332.407,344.014 1331.193,342.556 L1320.5,327.733 Q1305.921,334.78 1286.48,334.78 Q1266.312,334.78 1252.218,327.611 Q1238.124,320.443 1230.59,305.498 Q1223.057,290.554 1222.328,267.712 Q1222.085,256.777 1222.085,247.3 Q1222.085,237.823 1222.328,226.888 Q1223.057,204.289 1231.077,189.344 Q1239.095,174.4 1253.311,167.11 Q1267.526,159.82 1286.48,159.82 Q1305.434,159.82 1319.65,167.11 Q1333.865,174.4 1342.006,189.344 Q1350.146,204.289 1350.632,226.888 Q1351.119,237.823 1351.119,247.3 Q1351.119,256.777 1350.632,267.712 Q1349.417,302.461 1332.893,318.742 L1348.445,340.612 Q1348.688,340.855 1348.932,341.462 Q1349.174,342.07 1349.174,343.285 Q1349.174,345.229 1347.716,346.687 Q1346.259,348.145 1344.314,348.145 z M1286.48,320.2 Q1307.379,320.2 1320.865,307.564 Q1334.351,294.928 1335.323,266.497 Q1335.809,255.562 1335.809,247.3 Q1335.809,239.038 1335.323,228.103 Q1334.838,209.149 1328.398,197.242 Q1321.958,185.335 1311.145,179.867 Q1300.332,174.4 1286.48,174.4 Q1272.872,174.4 1262.059,179.867 Q1251.245,185.335 1244.806,197.242 Q1238.366,209.149 1237.637,228.103 Q1237.395,239.038 1237.395,247.3 Q1237.395,255.562 1237.637,266.497 Q1238.609,294.928 1252.218,307.564 Q1265.825,320.2 1286.48,320.2 z" fill="#E434AA"/>
        <path d="M1087.707,332.35 Q1085.277,332.35 1083.819,330.892 Q1082.361,329.434 1082.361,327.004 L1082.361,165.166 Q1082.361,162.736 1083.819,161.278 Q1085.277,159.82 1087.707,159.82 L1091.838,159.82 Q1094.268,159.82 1095.726,161.278 Q1097.184,162.736 1097.184,165.166 L1097.184,222.757 Q1103.745,214.252 1113.1,208.906 Q1122.456,203.56 1138.008,203.56 Q1154.532,203.56 1165.588,210.728 Q1176.645,217.897 1182.112,230.168 Q1187.58,242.44 1187.58,257.992 L1187.58,327.004 Q1187.58,329.434 1186.122,330.892 Q1184.664,332.35 1182.234,332.35 L1178.103,332.35 Q1175.673,332.35 1174.215,330.892 Q1172.757,329.434 1172.757,327.004 L1172.757,259.207 Q1172.757,239.767 1163.28,228.71 Q1153.803,217.654 1135.578,217.654 Q1118.325,217.654 1107.754,228.71 Q1097.184,239.767 1097.184,259.207 L1097.184,327.004 Q1097.184,329.434 1095.726,330.892 Q1094.268,332.35 1091.838,332.35 z" fill="#E434AA"/>
        <path d="M946.524,378.52 Q944.094,378.52 942.636,377.062 Q941.178,375.604 941.178,373.174 L941.178,211.336 Q941.178,208.906 942.636,207.448 Q944.094,205.99 946.524,205.99 L950.655,205.99 Q953.085,205.99 954.543,207.448 Q956.001,208.906 956.001,211.336 L956.001,222.757 Q962.076,214.495 971.917,209.027 Q981.759,203.56 996.825,203.56 Q1011.162,203.56 1020.882,208.541 Q1030.602,213.523 1036.677,221.785 Q1042.752,230.047 1045.668,240.253 Q1048.584,250.459 1048.827,261.151 Q1049.07,264.796 1049.07,269.17 Q1049.07,273.544 1048.827,277.189 Q1048.584,287.881 1045.668,298.087 Q1042.752,308.293 1036.677,316.555 Q1030.602,324.817 1020.882,329.798 Q1011.162,334.78 996.825,334.78 Q981.759,334.78 971.917,329.191 Q962.076,323.602 956.001,315.583 L956.001,373.174 Q956.001,375.604 954.543,377.062 Q953.085,378.52 950.655,378.52 z M995.367,320.686 Q1009.704,320.686 1017.966,314.368 Q1026.228,308.05 1029.873,297.844 Q1033.518,287.638 1034.004,275.974 Q1034.247,269.17 1034.004,262.366 Q1033.518,250.702 1029.873,240.496 Q1026.228,230.29 1017.966,223.972 Q1009.704,217.654 995.367,217.654 Q981.516,217.654 973.011,224.215 Q964.506,230.776 960.496,240.617 Q956.487,250.459 956.001,260.422 Q955.758,264.067 955.758,269.899 Q955.758,275.731 956.001,279.376 Q956.244,289.096 960.496,298.573 Q964.749,308.05 973.375,314.368 Q982.002,320.686 995.367,320.686 z" fill="#E434AA"/>
        <path d="M844.707,334.78 Q833.043,334.78 823.201,329.92 Q813.36,325.06 807.285,316.919 Q801.21,308.779 801.21,298.573 Q801.21,282.049 814.575,272.086 Q827.94,262.123 849.324,259.207 L887.718,253.861 L887.718,245.356 Q887.718,232.477 879.82,225.065 Q871.923,217.654 854.67,217.654 Q842.034,217.654 834.258,222.635 Q826.482,227.617 823.566,235.636 Q822.351,239.281 818.949,239.281 L815.061,239.281 Q812.145,239.281 810.93,237.701 Q809.715,236.122 809.715,233.935 Q809.715,230.533 812.266,225.43 Q814.818,220.327 820.164,215.345 Q825.51,210.364 834.015,206.962 Q842.52,203.56 854.67,203.56 Q869.007,203.56 878.362,207.448 Q887.718,211.336 892.942,217.532 Q898.167,223.729 900.354,231.262 Q902.541,238.795 902.541,246.085 L902.541,327.004 Q902.541,329.434 901.083,330.892 Q899.625,332.35 897.195,332.35 L893.064,332.35 Q890.634,332.35 889.176,330.892 Q887.718,329.434 887.718,327.004 L887.718,315.583 Q884.802,319.957 879.456,324.331 Q874.11,328.705 865.726,331.742 Q857.343,334.78 844.707,334.78 z M847.137,320.686 Q858.315,320.686 867.549,315.826 Q876.783,310.966 882.25,300.882 Q887.718,290.797 887.718,275.488 L887.718,267.226 L856.371,271.6 Q836.445,274.273 826.239,280.834 Q816.033,287.395 816.033,297.358 Q816.033,305.377 820.65,310.48 Q825.267,315.583 832.435,318.134 Q839.604,320.686 847.137,320.686 z" fill="#E434AA"/>
        <path d="M733.413,332.35 Q730.983,332.35 729.525,330.892 Q728.067,329.434 728.067,327.004 L728.067,211.579 Q728.067,209.149 729.525,207.569 Q730.983,205.99 733.413,205.99 L737.301,205.99 Q739.731,205.99 741.31,207.569 Q742.89,209.149 742.89,211.579 L742.89,222.757 Q747.264,214.252 755.526,210.121 Q763.788,205.99 775.938,205.99 L784.929,205.99 Q787.359,205.99 788.817,207.448 Q790.275,208.906 790.275,211.336 L790.275,214.738 Q790.275,217.168 788.817,218.626 Q787.359,220.084 784.929,220.084 L774.48,220.084 Q759.9,220.084 751.395,228.589 Q742.89,237.094 742.89,251.674 L742.89,327.004 Q742.89,329.434 741.31,330.892 Q739.731,332.35 737.301,332.35 z" fill="#E434AA"/>
        <path d="M628.194,334.78 Q607.296,334.78 593.08,326.639 Q578.865,318.499 571.453,303.919 Q564.042,289.339 563.312,270.385 Q563.07,259.45 563.07,247.3 Q563.07,235.15 563.312,224.215 Q564.042,205.018 571.453,190.559 Q578.865,176.101 593.202,167.96 Q607.539,159.82 628.194,159.82 Q644.961,159.82 656.867,164.801 Q668.775,169.783 676.307,177.194 Q683.841,184.606 687.486,192.139 Q691.13,199.672 691.374,204.775 Q691.617,206.962 690.159,208.298 Q688.701,209.635 686.271,209.635 L680.924,209.635 Q678.737,209.635 677.766,208.541 Q676.794,207.448 675.822,204.775 Q673.392,197.242 667.681,190.316 Q661.971,183.391 652.372,178.895 Q642.773,174.4 628.194,174.4 Q606.567,174.4 593.08,186.185 Q579.594,197.971 578.622,225.43 Q577.893,247.3 578.622,269.17 Q579.594,296.386 593.08,308.293 Q606.567,320.2 628.194,320.2 Q642.531,320.2 653.952,314.732 Q665.372,309.265 671.934,297.965 Q678.495,286.666 678.495,269.17 L678.495,256.777 L636.213,256.777 Q633.783,256.777 632.325,255.197 Q630.867,253.618 630.867,251.188 L630.867,247.786 Q630.867,245.113 632.325,243.655 Q633.783,242.197 636.213,242.197 L688.215,242.197 Q690.888,242.197 692.346,243.655 Q693.804,245.113 693.804,247.786 L693.804,269.17 Q693.804,288.61 686.149,303.433 Q678.495,318.256 663.793,326.518 Q649.091,334.78 628.194,334.78 z" fill="#E434AA"/>
      </g>
    </g>
  </g>
</svg>
