<?xml version="1.0" encoding="UTF-8" standalone="no"?>
<svg
   version="1.1"
   x="0"
   y="0"
   width="1600"
   height="500"
   viewBox="0, 0, 1600, 500"
   id="svg873"
   sodipodi:docname="graphiql.svg"
   inkscape:version="1.1 (c4e8f9e, 2021-05-24)"
   xmlns:inkscape="http://www.inkscape.org/namespaces/inkscape"
   xmlns:sodipodi="http://sodipodi.sourceforge.net/DTD/sodipodi-0.dtd"
   xmlns="http://www.w3.org/2000/svg"
   xmlns:svg="http://www.w3.org/2000/svg">
  <defs
     id="defs877" />
  <sodipodi:namedview
     id="namedview875"
     pagecolor="#ffffff"
     bordercolor="#666666"
     borderopacity="1.0"
     inkscape:pageshadow="2"
     inkscape:pageopacity="0.0"
     inkscape:pagecheckerboard="0"
     showgrid="false"
     inkscape:zoom="0.35355339"
     inkscape:cx="724.07734"
     inkscape:cy="-592.55548"
     inkscape:window-width="2203"
     inkscape:window-height="1081"
     inkscape:window-x="0"
     inkscape:window-y="25"
     inkscape:window-maximized="0"
     inkscape:current-layer="svg873" />
  <g
     id="g5311"
     transform="translate(-26.959467)">
    <path
       d="m 628.31493,334.65368 q -20.89628,0 -35.2321,-8.01834 -14.09284,-8.26132 -21.62522,-22.84012 -7.2894,-14.5788 -8.01834,-33.53124 -0.24298,-10.9341 -0.24298,-23.0831 0,-12.149 0.24298,-23.0831 0.72894,-19.19542 8.01834,-33.53124 7.53238,-14.5788 21.8682,-22.59714 14.33582,-8.26132 34.98912,-8.26132 16.76562,0 28.67164,5.10258 11.90601,4.8596 19.43839,12.39198 7.53238,7.2894 11.17708,14.82178 3.6447,7.53238 3.88768,12.63496 0.24298,2.18682 -1.2149,3.6447 -1.45788,1.2149 -3.88768,1.2149 h -5.34556 q -2.18682,0 -3.15874,-0.97192 -0.97192,-1.2149 -1.94384,-3.88768 -2.4298,-7.53238 -8.26132,-14.33582 -5.58854,-7.04642 -15.30773,-11.42006 -9.47622,-4.61662 -24.05502,-4.61662 -21.62522,0 -35.2321,11.90602 -13.3639,11.66304 -14.33582,39.11978 -0.72894,21.8682 0,43.7364 0.97192,27.21376 14.33582,39.11978 13.60688,11.90602 35.2321,11.90602 14.33582,0 25.75588,-5.34556 11.42005,-5.58854 17.98051,-16.76562 6.56046,-11.42006 6.56046,-28.91462 V 256.6571 h -42.27851 q -2.4298,0 -3.88768,-1.45788 -1.45788,-1.70086 -1.45788,-4.13066 v -3.40172 q 0,-2.67278 1.45788,-4.13066 1.45788,-1.45788 3.88768,-1.45788 h 51.99771 q 2.67278,0 4.13066,1.45788 1.45788,1.45788 1.45788,4.13066 v 21.38224 q 0,19.4384 -7.77536,34.26018 -7.53238,14.82178 -22.35416,23.0831 -14.57879,8.26132 -35.47507,8.26132 z"
       id="path5244"
       style="font-size:242.98px;line-height:1.25;font-family:Rubik;-inkscape-font-specification:Rubik;fill:#e434aa;stroke-width:6.0745" />
    <path
       d="m 733.54044,332.22388 q -2.4298,0 -3.88768,-1.45788 -1.45788,-1.45788 -1.45788,-3.88768 v -115.4155 q 0,-2.4298 1.45788,-3.88768 1.45788,-1.70086 3.88768,-1.70086 h 3.88768 q 2.4298,0 3.88768,1.70086 1.70086,1.45788 1.70086,3.88768 v 11.17708 q 4.37364,-8.5043 12.63496,-12.63496 8.26132,-4.13066 20.41032,-4.13066 h 8.99026 q 2.4298,0 3.88768,1.45788 1.45788,1.45788 1.45788,3.88768 v 3.40172 q 0,2.4298 -1.45788,3.88768 -1.45788,1.45788 -3.88768,1.45788 h -10.44814 q -14.5788,0 -23.0831,8.5043 -8.5043,8.5043 -8.5043,23.0831 v 75.3238 q 0,2.4298 -1.70086,3.88768 -1.45788,1.45788 -3.88768,1.45788 z"
       id="path5246"
       style="font-size:242.98px;line-height:1.25;font-family:Rubik;-inkscape-font-specification:Rubik;fill:#e434aa;stroke-width:6.0745" />
    <path
       d="m 844.78732,334.65368 q -11.66304,0 -21.62522,-4.8596 -9.7192,-4.8596 -15.7937,-12.87794 -6.0745,-8.26132 -6.0745,-18.46648 0,-16.52264 13.3639,-26.48482 13.3639,-9.96218 34.74614,-12.87794 l 38.39084,-5.34556 v -8.5043 q 0,-12.87794 -8.01834,-20.16734 -7.77536,-7.53238 -25.02694,-7.53238 -12.63496,0 -20.41032,5.10258 -7.77536,4.8596 -10.69112,12.87794 -1.2149,3.6447 -4.61662,3.6447 h -3.88768 q -2.91576,0 -4.13066,-1.45788 -1.2149,-1.70086 -1.2149,-3.88768 0,-3.40172 2.4298,-8.5043 2.67278,-5.10258 8.01834,-9.96218 5.34556,-5.10258 13.84986,-8.5043 8.5043,-3.40172 20.6533,-3.40172 14.33582,0 23.56906,3.88768 9.47622,3.88768 14.5788,10.20516 5.34556,6.0745 7.53238,13.60688 2.18682,7.53238 2.18682,14.82178 v 80.91234 q 0,2.4298 -1.45788,3.88768 -1.45788,1.45788 -3.88768,1.45788 h -4.13066 q -2.4298,0 -3.88768,-1.45788 -1.45788,-1.45788 -1.45788,-3.88768 v -11.42006 q -2.91576,4.37364 -8.26132,8.74728 -5.34556,4.37364 -13.84986,7.53238 -8.26132,2.91576 -20.89628,2.91576 z m 2.4298,-14.09284 q 11.17708,0 20.41032,-4.8596 9.23324,-4.8596 14.5788,-14.82178 5.58854,-10.20516 5.58854,-25.5129 v -8.26132 l -31.34442,4.37364 q -19.92436,2.67278 -30.12952,9.23324 -10.20516,6.56046 -10.20516,16.52264 0,8.01834 4.61662,13.12092 4.61662,5.10258 11.66304,7.77536 7.2894,2.4298 14.82178,2.4298 z"
       id="path5248"
       style="font-size:242.98px;line-height:1.25;font-family:Rubik;-inkscape-font-specification:Rubik;fill:#e434aa;stroke-width:6.0745" />
    <path
       d="m 946.39092,378.39008 q -2.4298,0 -3.88768,-1.45788 -1.45788,-1.45788 -1.45788,-3.88768 V 211.21984 q 0,-2.4298 1.45788,-3.88768 1.45788,-1.45788 3.88768,-1.45788 h 4.13066 q 2.4298,0 3.88768,1.45788 1.45788,1.45788 1.45788,3.88768 v 11.42006 q 6.0745,-8.26132 15.7937,-13.60688 9.96218,-5.58854 25.02694,-5.58854 14.33582,0 24.05502,5.10258 9.7192,4.8596 15.7937,13.12092 6.0745,8.26132 8.9903,18.46648 2.9157,10.20516 3.1587,20.89628 0.243,3.6447 0.243,8.01834 0,4.37364 -0.243,8.01834 -0.243,10.69112 -3.1587,20.89628 -2.9158,10.20516 -8.9903,18.46648 -6.0745,8.26132 -15.7937,13.3639 -9.7192,4.8596 -24.05502,4.8596 -15.06476,0 -25.02694,-5.58854 -9.7192,-5.58854 -15.7937,-13.60688 v 57.58626 q 0,2.4298 -1.45788,3.88768 -1.45788,1.45788 -3.88768,1.45788 z m 48.83898,-57.82924 q 14.3358,0 22.5971,-6.31748 8.2614,-6.31748 11.9061,-16.52264 3.6447,-10.20516 4.1306,-21.8682 0.243,-6.80344 0,-13.60688 -0.4859,-11.66304 -4.1306,-21.8682 -3.6447,-10.20516 -11.9061,-16.52264 -8.2613,-6.31748 -22.5971,-6.31748 -13.84986,0 -22.35416,6.56046 -8.5043,6.56046 -12.63496,16.52264 -3.88768,9.7192 -4.37364,19.68138 -0.24298,3.6447 -0.24298,9.47622 0,5.83152 0.24298,9.47622 0.24298,9.7192 4.37364,19.19542 4.37364,9.47622 12.87794,15.7937 8.74728,6.31748 22.11118,6.31748 z"
       id="path5250"
       style="font-size:242.98px;line-height:1.25;font-family:Rubik;-inkscape-font-specification:Rubik;fill:#e434aa;stroke-width:6.0745" />
    <path
       d="m 1087.3383,332.22388 q -2.4298,0 -3.8877,-1.45788 -1.4579,-1.45788 -1.4579,-3.88768 V 165.05364 q 0,-2.4298 1.4579,-3.88768 1.4579,-1.45788 3.8877,-1.45788 h 4.1306 q 2.4298,0 3.8877,1.45788 1.4579,1.45788 1.4579,3.88768 v 57.58626 q 6.5605,-8.5043 15.7937,-13.84986 9.4762,-5.34556 25.0269,-5.34556 16.5227,0 27.4568,7.2894 11.1771,7.04642 16.5226,19.4384 5.5886,12.149 5.5886,27.69972 v 69.00632 q 0,2.4298 -1.4579,3.88768 -1.4579,1.45788 -3.8877,1.45788 h -4.1307 q -2.4298,0 -3.8876,-1.45788 -1.4579,-1.45788 -1.4579,-3.88768 V 259.0869 q 0,-19.4384 -9.4762,-30.3725 -9.4763,-11.17708 -27.6998,-11.17708 -17.2515,0 -27.9427,11.17708 -10.4481,10.9341 -10.4481,30.3725 v 67.79142 q 0,2.4298 -1.4579,3.88768 -1.4579,1.45788 -3.8877,1.45788 z"
       id="path5252"
       style="font-size:242.98px;line-height:1.25;font-family:Rubik;-inkscape-font-specification:Rubik;fill:#e434aa;stroke-width:6.0745" />
    <path
       d="m 1230.8901,332.22388 q -2.4298,0 -3.8877,-1.45788 -1.4579,-1.45788 -1.4579,-3.88768 V 211.21984 q 0,-2.4298 1.4579,-3.88768 1.4579,-1.45788 3.8877,-1.45788 h 4.1307 q 2.4298,0 3.8876,1.45788 1.4579,1.45788 1.4579,3.88768 v 115.65848 q 0,2.4298 -1.4579,3.88768 -1.4578,1.45788 -3.8876,1.45788 z m -2.6728,-152.34846 q -2.4298,0 -3.8877,-1.45788 -1.4578,-1.45788 -1.4578,-3.88768 v -9.23324 q 0,-2.4298 1.4578,-3.88768 1.4579,-1.70086 3.8877,-1.70086 h 9.2333 q 2.4298,0 3.8876,1.70086 1.7009,1.45788 1.7009,3.88768 v 9.23324 q 0,2.4298 -1.7009,3.88768 -1.4578,1.45788 -3.8876,1.45788 z"
       id="path5254"
       style="font-size:242.98px;line-height:1.25;font-family:Rubik;-inkscape-font-specification:Rubik;fill:#e434aa;stroke-width:6.0745" />
    <path
       d="m 1392.8742,348.01758 q -2.6727,0 -4.6166,-2.18682 -1.9438,-1.94384 -3.1587,-3.40172 l -10.6911,-14.82178 q -14.5788,7.04642 -34.0172,7.04642 -20.1674,0 -34.2602,-7.04642 -14.0929,-7.2894 -21.6252,-22.11118 -7.5324,-15.06476 -8.2614,-37.90488 -0.2429,-10.9341 -0.2429,-20.41032 0,-9.47622 0.2429,-20.41032 0.729,-22.59714 8.7473,-37.41892 8.0184,-15.06476 22.1112,-22.35416 14.3358,-7.2894 33.2883,-7.2894 18.9524,0 33.0452,7.2894 14.3359,7.2894 22.3542,22.35416 8.2613,14.82178 8.7473,37.41892 0.4859,10.9341 0.4859,20.41032 0,9.47622 -0.4859,20.41032 -1.2149,34.74614 -17.7376,51.0258 l 15.5507,21.8682 q 0.243,0.24298 0.486,0.72894 0.243,0.72894 0.243,1.94384 0,1.94384 -1.4579,3.40172 -1.4579,1.45788 -3.4017,1.45788 z m -52.4836,-27.9427 q 20.8962,0 34.2601,-12.63496 13.6069,-12.63496 14.5788,-41.06362 0.486,-10.9341 0.486,-19.19542 0,-8.26132 -0.486,-19.19542 -0.4859,-18.95244 -7.0464,-30.85846 -6.3175,-11.90602 -17.2516,-17.25158 -10.6911,-5.58854 -24.5409,-5.58854 -13.6069,0 -24.541,5.58854 -10.6911,5.34556 -17.2516,17.25158 -6.3175,11.90602 -7.0464,30.85846 -0.243,10.9341 -0.243,19.19542 0,8.26132 0.243,19.19542 0.9719,28.42866 14.5788,41.06362 13.6069,12.63496 34.2602,12.63496 z"
       id="path5256"
       style="font-size:242.98px;line-height:1.25;font-family:Rubik;-inkscape-font-specification:Rubik;fill:#e434aa;stroke-width:6.0745" />
    <path
       d="m 1449.0292,332.22388 q -2.4298,0 -3.8877,-1.45788 -1.4579,-1.45788 -1.4579,-3.88768 V 167.48344 q 0,-2.4298 1.4579,-3.88768 1.4579,-1.45788 3.8877,-1.45788 h 4.6166 q 2.4298,0 3.8877,1.45788 1.4579,1.45788 1.4579,3.88768 v 150.16164 h 83.8281 q 2.6727,0 4.1306,1.45788 1.4579,1.45788 1.4579,4.13066 v 3.6447 q 0,2.4298 -1.4579,3.88768 -1.4579,1.45788 -4.1306,1.45788 z"
       id="path5258"
       style="font-size:242.98px;line-height:1.25;font-family:Rubik;-inkscape-font-specification:Rubik;fill:#e434aa;stroke-width:6.0745" />
    <g
       id="GraphQL-mark">
      <path
         d="m 137.239,352.66 -14.376,-8.3 160.15,-277.38 14.376,8.3 z"
         fill="#e434aa"
         id="path824" />
      <path
         d="m 119.571,322.2 h 320.3 v 16.6 h -320.3 z"
         fill="#e434aa"
         id="path826" />
      <path
         d="m 286.119,424.026 -160.21,-92.5 8.3,-14.376 160.21,92.5 z"
         fill="#e434aa"
         id="path828" />
      <path
         d="m 425.293,182.947 -160.21,-92.5 8.301,-14.376 160.21,92.5 z"
         fill="#e434aa"
         id="path830" />
      <path
         d="m 134.253,182.883 -8.3,-14.375 160.21,-92.5 8.301,14.375 z"
         fill="#e434aa"
         id="path832" />
      <path
         d="m 422.339,352.663 -160.15,-277.38 14.376,-8.3 160.15,277.38 z"
         fill="#e434aa"
         id="path834" />
      <path
         d="m 132.271,157.5 h 16.6 v 185 h -16.6 z"
         fill="#e434aa"
         id="path836" />
      <path
         d="m 410.671,157.5 h 16.6 v 185 h -16.6 z"
         fill="#e434aa"
         id="path838" />
      <path
         d="m 283.293,416.999 -7.25,-12.557 139.339,-80.45 7.25,12.557 z"
         fill="#e434aa"
         id="path840" />
      <path
         d="m 449.272,347.9 c -9.6,16.7 -31,22.4 -47.7,12.8 -16.701,-9.6 -22.4,-31 -12.8,-47.7 9.599,-16.7 31,-22.4 47.699,-12.8 16.801,9.7 22.5,31 12.801,47.7"
         fill="#e434aa"
         id="path842" />
      <path
         d="m 170.671,187 c -9.6,16.7 -31,22.4 -47.7,12.8 -16.7,-9.6 -22.4,-31 -12.8,-47.7 9.6,-16.7 31,-22.4 47.7,-12.8 16.7,9.7 22.4,31 12.8,47.7"
         fill="#e434aa"
         id="path844" />
      <path
         d="m 110.271,347.9 c -9.6,-16.7 -3.9,-38 12.8,-47.7 16.7,-9.6 38,-3.9 47.7,12.8 9.6,16.7 3.9,38 -12.8,47.7 -16.8,9.6 -38.1,3.9 -47.7,-12.8"
         fill="#e434aa"
         id="path846" />
      <path
         d="m 388.871,187 c -9.6,-16.7 -3.9,-38 12.8,-47.7 16.7,-9.6 38,-3.9 47.7,12.8 9.6,16.7 3.9,38 -12.8,47.7 -16.7,9.6 -38.1,3.9 -47.7,-12.8"
         fill="#e434aa"
         id="path848" />
      <path
         d="m 279.771,445.8 c -19.3,0 -34.9,-15.6 -34.9,-34.9 0,-19.3 15.6,-34.9 34.9,-34.9 19.301,0 34.9,15.6 34.9,34.9 0,19.2 -15.599,34.9 -34.9,34.9"
         fill="#e434aa"
         id="path850" />
      <path
         d="m 279.771,124 c -19.3,0 -34.9,-15.6 -34.9,-34.9 0,-19.3 15.6,-34.9 34.9,-34.9 19.301,0 34.9,15.6 34.9,34.9 0,19.3 -15.599,34.9 -34.9,34.9"
         fill="#e434aa"
         id="path852" />
    </g>
  </g>
</svg>
