<svg width="522" height="153" viewBox="0 0 522 153" fill="none" xmlns="http://www.w3.org/2000/svg">
<path d="M149.769 51.9612C154.266 38.2744 151.561 10.9695 142.847 0.889032C141.705 -0.433282 139.58 -0.24438 138.631 1.21532L127.898 17.6841C125.245 20.9813 120.467 21.7369 116.865 19.4358C105.218 11.9827 91.3052 7.65515 76.3556 7.65515C61.4059 7.65515 47.4927 11.9827 35.8457 19.4358C32.262 21.7369 27.4837 20.9642 24.8135 17.6841L14.08 1.21532C13.1314 -0.24438 11.0057 -0.416109 9.86388 0.889032C1.15057 10.9867 -1.55477 38.2916 2.94242 51.9612C4.43563 56.5121 4.83968 61.3205 3.96132 65.9915C3.08296 70.6282 2.2046 76.2266 2.2046 80.1248C2.2046 120.155 35.4065 152.594 76.338 152.594C117.287 152.594 150.471 120.138 150.471 80.1248C150.471 76.2266 149.593 70.6282 148.715 65.9915C147.854 61.3205 148.275 56.5121 149.769 51.9612ZM76.338 136.418C44.682 136.418 18.9461 111.242 18.9461 80.2965C18.9461 79.2833 18.9812 78.2873 19.0339 77.2913C20.1758 56.2029 33.2809 38.1886 51.8142 29.6021C59.2452 26.1332 67.572 24.2098 76.3556 24.2098C85.1391 24.2098 93.4484 26.1332 100.897 29.6193C119.43 38.2057 132.535 56.2373 133.677 77.3084C133.73 78.3045 133.765 79.3177 133.765 80.3137C133.747 111.242 107.994 136.418 76.338 136.418Z" fill="#1EB4D4"/>
<path d="M101.212 101.9L86.5435 77.0333L73.9655 56.3056C73.6668 55.8076 73.1222 55.5156 72.5425 55.5156H60.5266C59.9293 55.5156 59.3847 55.8247 59.0861 56.3399C58.7875 56.8379 58.805 57.4562 59.1037 57.9542L71.1372 77.7202L54.993 101.797C54.6592 102.295 54.6416 102.93 54.9227 103.445C55.2038 103.96 55.7659 104.287 56.3808 104.287H68.4845C69.0467 104.287 69.5737 104.012 69.8723 103.548L78.6032 90.2221L86.4381 103.497C86.7368 103.995 87.2813 104.304 87.8611 104.304H99.7891C100.386 104.304 100.931 103.995 101.212 103.497C101.511 103.016 101.511 102.398 101.212 101.9Z" fill="#1EB4D4"/>
<path d="M218.844 38.6357H234.145V120.654H218.844V85.7067H201.558V120.671H186.257V38.6357H201.558V74.2523H218.844V38.6357Z" fill="#111B29"/>
<path d="M281.348 120.67L278.151 103.635H259.794L256.86 120.67H241.559L258.441 38.6523H279.047L296.737 120.67H281.348ZM261.796 92.3177H276.026L268.718 53.0604L261.796 92.3177Z" fill="#111B29"/>
<path d="M330.819 105.713V88.1618C330.819 86.7708 330.556 85.8435 330.029 85.3626C329.502 84.8818 328.518 84.6414 327.095 84.6414H316.326C307.191 84.6414 302.624 80.3138 302.624 71.6415V51.5148C302.624 42.9284 307.402 38.6523 316.976 38.6523H331.61C341.184 38.6523 345.962 42.9456 345.962 51.5148V62.952H330.538V53.5928C330.538 52.2018 330.275 51.2744 329.748 50.7936C329.221 50.3127 328.237 50.0723 326.814 50.0723H321.755C320.244 50.0723 319.225 50.3127 318.698 50.7936C318.171 51.2744 317.907 52.2018 317.907 53.5928V70.0959C317.907 71.4869 318.171 72.4143 318.698 72.8951C319.225 73.3759 320.244 73.6164 321.755 73.6164H332.26C341.57 73.6164 346.226 77.8581 346.226 86.3587V107.808C346.226 116.394 341.395 120.67 331.733 120.67H317.363C307.701 120.67 302.87 116.377 302.87 107.808V96.4907H318.153V105.713C318.153 107.104 318.417 108.031 318.944 108.512C319.471 108.993 320.49 109.233 322.001 109.233H327.06C328.483 109.233 329.449 108.993 329.994 108.512C330.538 108.031 330.819 107.104 330.819 105.713Z" fill="#111B29"/>
<path d="M387.05 38.6357H402.333V107.791C402.333 116.377 397.502 120.654 387.84 120.654H371.626C361.964 120.654 357.133 116.36 357.133 107.791V38.6357H372.434V105.713C372.434 107.104 372.697 108.031 373.224 108.512C373.751 108.993 374.735 109.234 376.158 109.234H383.202C384.713 109.234 385.732 108.993 386.259 108.512C386.786 108.031 387.05 107.104 387.05 105.713V38.6357V38.6357Z" fill="#111B29"/>
<path d="M430.264 88.6948V120.671H414.98V38.6357H445.828C455.49 38.6357 460.321 42.929 460.321 51.4982V75.8151C460.321 82.9247 457.089 87.0805 450.607 88.2998L464.573 120.671H448.077L435.306 88.6948H430.264ZM430.264 50.0729V77.6354H441.296C442.719 77.6354 443.685 77.395 444.23 76.9141C444.757 76.4333 445.02 75.506 445.02 74.115V53.5933C445.02 52.2023 444.757 51.275 444.23 50.7942C443.703 50.3133 442.719 50.0729 441.296 50.0729H430.264Z" fill="#111B29"/>
<path d="M506.594 120.67L503.396 103.635H485.039L482.105 120.67H466.822L483.704 38.6523H504.31L522 120.67H506.594ZM487.059 92.3177H501.288L493.98 53.0604L487.059 92.3177Z" fill="#111B29"/>
</svg>
