<svg id="svg" version="1.1" xmlns="http://www.w3.org/2000/svg" xmlns:xlink="http://www.w3.org/1999/xlink" width="400" height="172" viewBox="0, 0, 400,172"><g id="svgg"><path id="path0" d="M179.441 8.747 C 178.589 8.849,178.469 8.915,178.237 9.416 C 178.063 9.789,177.856 9.972,177.605 9.975 C 176.899 9.982,176.688 10.165,176.688 10.771 C 176.688 11.320,176.653 11.355,176.104 11.355 C 175.490 11.355,175.312 11.568,175.312 12.304 C 175.312 12.636,175.210 12.719,174.753 12.763 L 174.194 12.817 174.078 14.108 C 173.897 16.123,174.339 17.720,175.077 17.720 C 175.203 17.720,175.352 17.933,175.409 18.194 C 175.594 19.040,175.641 19.102,176.168 19.208 C 176.566 19.287,176.688 19.405,176.688 19.708 C 176.688 20.223,177.120 20.645,177.647 20.645 C 178.007 20.645,178.065 20.726,178.065 21.229 C 178.065 21.823,178.281 22.022,178.931 22.022 C 179.163 22.022,179.285 22.190,179.365 22.619 C 179.461 23.131,179.562 23.233,180.061 23.327 C 180.567 23.421,180.645 23.504,180.645 23.939 C 180.645 25.587,181.341 25.978,184.273 25.978 C 186.728 25.978,187.183 25.845,187.183 25.123 C 187.183 24.631,187.221 24.602,187.861 24.602 C 188.520 24.602,188.540 24.584,188.592 23.957 C 188.641 23.364,188.694 23.305,189.247 23.226 L 189.849 23.140 189.900 21.892 C 189.948 20.707,189.971 20.645,190.361 20.645 C 191.260 20.645,191.346 20.329,191.283 17.257 C 191.222 14.249,191.181 14.116,190.323 14.110 C 189.968 14.108,189.935 14.028,189.935 13.150 C 189.935 11.965,189.751 11.602,189.081 11.468 C 188.685 11.389,188.559 11.269,188.557 10.972 C 188.552 10.365,188.365 10.208,187.488 10.079 C 186.844 9.983,186.572 9.833,186.176 9.353 L 185.676 8.746 183.032 8.690 C 181.577 8.659,179.961 8.685,179.441 8.747 M28.731 31.474 C 27.703 31.574,27.550 31.644,26.839 32.342 L 26.065 33.100 26.065 83.395 C 26.065 127.914,26.094 133.709,26.323 133.853 C 26.465 133.943,26.785 134.017,27.035 134.019 C 27.377 134.021,27.517 134.130,27.599 134.458 C 27.777 135.168,28.272 135.226,34.123 135.226 C 40.058 135.226,40.430 135.174,40.430 134.352 C 40.430 134.113,40.582 133.982,40.942 133.910 C 41.951 133.709,41.889 135.180,41.938 110.253 L 41.983 87.226 60.648 87.226 L 79.312 87.226 79.312 110.352 C 79.312 133.053,79.328 134.022,79.709 134.022 C 79.813 134.022,80.157 134.273,80.474 134.581 L 81.051 135.140 86.997 135.189 C 93.358 135.242,93.763 135.194,93.763 134.381 C 93.763 134.149,93.934 134.028,94.373 133.945 C 95.363 133.760,95.317 136.410,95.270 83.040 L 95.226 33.118 94.366 32.258 L 93.505 31.398 87.312 31.398 C 80.413 31.398,80.399 31.400,79.673 32.575 L 79.312 33.159 79.312 52.967 L 79.312 72.774 60.648 72.774 L 41.984 72.774 41.938 53.102 C 41.889 32.148,41.923 32.954,41.084 32.828 C 40.854 32.793,40.664 32.564,40.538 32.172 C 40.346 31.576,40.332 31.569,39.140 31.462 C 37.593 31.324,30.193 31.333,28.731 31.474 M128.602 31.460 C 127.238 31.590,126.812 31.780,126.347 32.466 C 126.011 32.962,125.712 125.349,126.026 131.527 L 126.140 133.763 126.933 134.452 L 127.727 135.140 133.626 135.189 C 139.874 135.242,140.096 135.217,140.392 134.437 C 140.498 134.160,140.735 133.978,141.079 133.909 C 141.976 133.730,141.940 135.995,141.893 83.130 L 141.849 33.079 141.012 32.253 L 140.174 31.428 134.990 31.386 C 132.139 31.363,129.265 31.396,128.602 31.460 M220.803 31.428 C 219.812 31.495,219.713 31.544,218.911 32.358 L 218.065 33.217 218.065 71.713 C 218.065 114.003,217.996 111.140,219.015 111.140 C 219.341 111.140,219.355 111.267,219.355 114.310 C 219.355 117.750,219.425 118.022,220.313 118.022 C 220.719 118.022,220.731 118.060,220.731 119.312 C 220.731 120.269,220.790 120.602,220.959 120.602 C 221.411 120.602,221.903 121.378,222.049 122.323 C 222.187 123.219,222.223 123.272,222.730 123.321 C 223.250 123.372,223.268 123.402,223.374 124.422 C 223.499 125.610,223.693 125.935,224.279 125.935 C 224.612 125.935,224.688 126.025,224.688 126.417 C 224.688 127.029,224.971 127.312,225.583 127.312 C 226.016 127.312,226.065 127.371,226.065 127.896 C 226.065 128.510,226.278 128.688,227.014 128.688 C 227.344 128.688,227.429 128.790,227.473 129.242 C 227.520 129.725,227.610 129.815,228.172 129.947 C 228.527 130.030,228.817 130.192,228.817 130.307 C 228.817 130.834,229.295 131.138,230.291 131.245 C 231.268 131.350,231.314 131.377,231.370 131.870 C 231.447 132.550,231.626 132.639,232.908 132.643 C 233.971 132.645,233.989 132.653,234.092 133.167 C 234.231 133.865,234.587 134.022,236.040 134.022 C 237.236 134.022,237.279 134.037,237.856 134.667 L 238.447 135.312 241.213 135.373 C 243.886 135.432,243.994 135.449,244.441 135.865 C 245.209 136.581,245.448 136.602,252.785 136.601 C 260.253 136.600,260.971 136.537,261.430 135.836 C 261.688 135.442,261.770 135.430,264.654 135.368 C 267.820 135.301,268.272 135.192,268.457 134.456 C 268.561 134.041,268.624 134.021,269.896 134.001 C 271.890 133.971,272.228 133.864,272.423 133.204 C 272.586 132.651,272.599 132.645,273.658 132.645 C 274.844 132.645,275.269 132.392,275.269 131.687 C 275.269 131.314,275.343 131.269,275.951 131.269 C 276.508 131.269,276.750 131.152,277.267 130.635 C 277.673 130.229,278.123 129.966,278.520 129.902 C 279.068 129.814,279.146 129.738,279.194 129.245 C 279.238 128.790,279.322 128.688,279.653 128.688 C 280.385 128.688,280.602 128.509,280.602 127.906 C 280.602 127.368,280.642 127.329,281.247 127.279 C 281.855 127.229,281.896 127.189,281.945 126.591 C 281.993 126.016,282.050 125.951,282.547 125.903 C 283.018 125.857,283.119 125.761,283.248 125.238 C 283.345 124.844,283.571 124.527,283.882 124.349 C 284.276 124.123,284.401 123.882,284.570 123.025 C 284.731 122.209,284.844 121.978,285.085 121.978 C 285.773 121.978,285.935 121.533,285.935 119.644 C 285.935 117.869,285.940 117.849,286.345 117.849 C 287.282 117.849,287.222 120.603,287.277 75.457 C 287.331 31.433,287.337 31.954,286.740 31.613 C 286.306 31.365,274.965 31.298,273.836 31.537 C 272.596 31.800,272.688 28.632,272.688 70.855 L 272.688 108.860 272.194 108.959 C 271.531 109.092,271.466 109.320,271.356 111.871 C 271.267 113.956,271.244 114.065,270.900 114.067 C 270.287 114.072,270.158 114.281,270.032 115.467 C 269.913 116.603,269.907 116.612,269.321 116.722 C 268.784 116.823,268.731 116.886,268.731 117.427 C 268.731 117.941,268.675 118.022,268.315 118.022 C 267.568 118.022,267.355 118.197,267.355 118.814 C 267.355 119.368,267.323 119.398,266.747 119.398 C 265.835 119.398,264.984 119.811,264.917 120.286 C 264.866 120.645,264.759 120.693,263.914 120.733 C 262.456 120.801,262.233 120.889,262.112 121.441 L 262.004 121.935 257.668 122.086 C 252.754 122.257,253.184 122.257,248.314 122.071 L 244.671 121.931 244.558 121.483 C 244.404 120.868,244.206 120.780,242.968 120.777 C 242.166 120.775,241.892 120.713,241.892 120.535 C 241.892 119.959,241.298 119.554,240.301 119.452 C 239.320 119.351,239.312 119.345,239.312 118.790 C 239.312 118.199,239.090 118.022,238.352 118.022 C 237.993 118.022,237.935 117.940,237.935 117.439 C 237.935 116.910,237.880 116.845,237.343 116.744 C 236.790 116.641,236.743 116.580,236.636 115.822 C 236.496 114.826,236.146 114.237,235.695 114.237 C 235.394 114.237,235.353 114.113,235.342 113.161 C 235.318 111.126,235.163 110.568,234.541 110.280 L 233.986 110.022 233.982 71.537 C 233.978 28.415,234.091 32.264,232.816 31.658 C 232.344 31.433,223.277 31.259,220.803 31.428 M319.496 31.434 C 318.513 31.494,318.330 31.564,317.861 32.061 C 317.571 32.368,317.198 32.671,317.032 32.734 C 316.536 32.924,316.567 133.578,317.064 133.843 C 317.247 133.941,317.559 134.022,317.756 134.022 C 317.979 134.022,318.177 134.181,318.276 134.441 C 318.561 135.192,318.834 135.226,324.623 135.226 C 330.411 135.226,330.901 135.169,331.075 134.478 C 331.152 134.170,331.340 134.015,331.742 133.928 C 332.049 133.861,332.358 133.719,332.427 133.613 C 332.497 133.506,332.555 113.735,332.557 89.677 L 332.559 45.935 342.710 45.935 C 352.461 45.935,352.860 45.948,352.860 46.253 C 352.860 46.937,353.471 47.207,355.193 47.282 L 356.817 47.353 356.817 47.838 C 356.817 48.455,356.910 48.506,358.273 48.633 L 359.398 48.738 359.398 49.300 C 359.398 49.820,359.448 49.871,360.076 49.977 C 360.683 50.079,360.760 50.149,360.807 50.637 C 360.854 51.114,360.931 51.190,361.419 51.237 C 361.877 51.281,361.978 51.364,361.978 51.696 C 361.978 52.432,362.157 52.645,362.771 52.645 L 363.355 52.645 363.357 53.720 C 363.361 54.997,363.451 55.176,364.130 55.253 L 364.645 55.312 364.731 57.825 L 364.817 60.338 365.376 60.808 L 365.935 61.278 365.935 63.988 L 365.935 66.697 365.333 67.245 L 364.731 67.793 364.731 69.678 C 364.731 71.513,364.720 71.566,364.327 71.665 C 363.837 71.788,363.355 72.725,363.355 73.554 C 363.355 74.015,363.284 74.151,363.044 74.151 C 362.420 74.151,362.155 74.549,362.041 75.656 L 361.929 76.731 361.367 76.731 C 360.845 76.731,360.796 76.781,360.688 77.419 C 360.579 78.065,360.536 78.108,359.985 78.108 C 359.434 78.108,359.398 78.143,359.398 78.680 L 359.398 79.253 358.151 79.412 C 356.944 79.565,356.901 79.587,356.816 80.086 C 356.729 80.602,356.729 80.602,355.268 80.704 C 353.339 80.839,353.041 80.948,352.918 81.562 L 352.817 82.065 347.032 82.067 C 340.495 82.070,340.853 81.997,340.719 83.364 C 340.565 84.931,340.795 85.720,341.460 85.910 C 341.901 86.037,342.013 86.167,342.055 86.603 C 342.100 87.065,342.198 87.162,342.753 87.299 C 343.337 87.443,343.398 87.513,343.398 88.030 C 343.398 88.565,343.436 88.602,343.978 88.602 C 344.522 88.602,344.565 88.645,344.668 89.290 C 344.732 89.688,344.874 89.978,345.004 89.978 C 345.390 89.978,345.945 90.721,346.071 91.406 C 346.209 92.154,346.544 92.559,347.023 92.559 C 347.244 92.559,347.355 92.678,347.355 92.915 C 347.355 93.554,347.679 93.935,348.221 93.935 C 348.665 93.935,348.731 93.998,348.731 94.417 C 348.731 95.285,348.861 95.313,352.766 95.291 C 357.120 95.267,357.337 95.232,357.677 94.498 L 357.935 93.943 360.226 93.939 C 362.709 93.935,363.183 93.810,363.183 93.155 C 363.183 92.761,363.245 92.730,364.086 92.714 C 365.522 92.687,365.841 92.545,365.903 91.907 C 365.956 91.368,365.978 91.355,366.795 91.355 C 368.056 91.355,368.516 91.126,368.516 90.499 C 368.516 90.006,368.553 89.978,369.204 89.978 C 369.817 89.978,369.892 89.933,369.892 89.562 C 369.892 88.813,370.068 88.602,370.691 88.602 C 371.162 88.602,371.430 88.450,372.011 87.852 C 372.412 87.439,372.898 87.051,373.090 86.990 C 373.283 86.929,373.581 86.551,373.754 86.149 C 374.113 85.314,374.665 84.645,374.996 84.645 C 375.126 84.645,375.268 84.355,375.332 83.957 C 375.435 83.312,375.478 83.269,376.022 83.269 C 376.584 83.269,376.602 83.247,376.602 82.581 C 376.602 81.933,376.632 81.892,377.112 81.892 C 377.768 81.892,377.978 81.498,377.978 80.269 C 377.978 79.323,377.984 79.312,378.489 79.312 C 379.155 79.312,379.355 78.917,379.355 77.603 C 379.355 76.563,379.356 76.559,379.861 76.559 C 380.527 76.559,380.526 76.562,380.663 74.437 C 380.767 72.836,380.821 72.602,381.088 72.602 C 381.947 72.602,381.935 72.739,381.935 62.772 C 381.935 53.056,381.917 52.817,381.179 52.817 C 380.795 52.817,380.773 52.746,380.656 51.147 C 380.517 49.253,380.370 48.860,379.804 48.860 C 379.437 48.860,379.396 48.767,379.298 47.722 C 379.180 46.455,378.986 46.108,378.398 46.108 C 378.061 46.108,377.991 46.007,377.946 45.462 C 377.895 44.852,377.857 44.814,377.247 44.764 L 376.602 44.710 376.600 43.904 C 376.596 42.837,376.288 42.251,375.695 42.182 C 375.308 42.137,375.226 42.043,375.226 41.644 C 375.226 41.089,374.979 40.833,374.366 40.748 C 374.057 40.705,373.920 40.567,373.880 40.258 C 373.815 39.747,373.413 39.398,372.889 39.398 C 372.630 39.398,372.477 39.264,372.404 38.973 C 372.273 38.453,371.819 38.194,370.775 38.046 C 370.049 37.943,369.973 37.887,369.920 37.419 C 369.852 36.822,369.646 36.651,368.989 36.648 C 368.638 36.646,368.516 36.560,368.516 36.313 C 368.516 35.719,368.044 35.441,367.033 35.441 C 366.138 35.441,366.080 35.414,365.908 34.921 C 365.653 34.190,365.310 34.065,363.552 34.065 L 362.006 34.065 361.890 33.538 C 361.720 32.762,361.323 32.688,357.341 32.688 L 353.758 32.688 353.654 32.275 C 353.436 31.407,353.605 31.416,336.516 31.390 C 327.763 31.377,320.104 31.397,319.496 31.434 M174.164 39.607 C 174.086 39.729,174.001 62.072,173.976 89.259 L 173.931 138.690 173.374 139.198 C 172.820 139.704,172.817 139.715,172.759 141.595 C 172.703 143.397,172.684 143.484,172.329 143.487 C 171.658 143.491,171.494 143.744,171.399 144.925 C 171.310 146.039,171.297 146.065,170.821 146.065 C 170.307 146.065,169.978 146.458,169.978 147.075 C 169.978 147.337,169.846 147.432,169.419 147.473 C 168.925 147.521,168.850 147.597,168.774 148.129 C 168.698 148.664,168.621 148.741,168.086 148.817 C 167.554 148.893,167.478 148.968,167.430 149.462 C 167.386 149.920,167.302 150.022,166.971 150.022 C 166.235 150.022,166.022 150.200,166.022 150.814 C 166.022 151.395,166.018 151.398,165.204 151.400 C 164.128 151.404,163.542 151.710,163.472 152.305 C 163.422 152.741,163.361 152.774,162.612 152.777 C 161.369 152.780,161.049 152.919,160.893 153.526 C 160.808 153.857,160.577 154.151,160.293 154.288 C 159.315 154.762,159.250 156.091,160.189 156.419 C 160.616 156.567,160.689 156.684,160.693 157.221 C 160.697 157.766,160.788 157.906,161.381 158.271 C 161.908 158.596,162.065 158.800,162.065 159.163 C 162.065 159.998,162.350 160.487,162.873 160.547 C 163.276 160.593,163.369 160.699,163.441 161.194 C 163.513 161.689,163.619 161.809,164.086 161.930 C 164.469 162.029,164.645 162.177,164.645 162.399 C 164.645 163.052,164.843 163.269,165.438 163.269 C 165.913 163.269,166.022 163.335,166.022 163.624 C 166.022 164.506,166.275 164.645,167.877 164.643 C 169.555 164.640,169.731 164.577,169.894 163.925 C 170.002 163.496,170.089 163.460,171.284 163.348 L 172.559 163.228 172.559 162.646 L 172.559 162.065 173.603 162.065 C 174.902 162.065,175.312 161.862,175.312 161.222 C 175.312 160.746,175.337 160.733,176.452 160.644 C 177.634 160.549,177.885 160.386,177.890 159.709 C 177.892 159.399,178.006 159.323,178.538 159.279 C 179.131 159.230,179.190 159.177,179.269 158.624 C 179.348 158.070,179.407 158.017,180.000 157.968 C 180.610 157.918,180.645 157.883,180.645 157.323 C 180.645 156.790,180.693 156.731,181.127 156.731 C 181.738 156.731,182.022 156.448,182.022 155.837 C 182.022 155.415,182.087 155.355,182.543 155.355 C 183.069 155.355,183.115 155.301,183.298 154.462 C 183.379 154.093,183.511 153.989,183.958 153.946 C 184.469 153.897,184.521 153.837,184.570 153.236 C 184.611 152.742,184.792 152.413,185.301 151.903 C 185.854 151.350,185.978 151.105,185.978 150.565 C 185.978 150.030,186.059 149.868,186.404 149.711 C 187.002 149.438,187.355 148.466,187.355 147.087 L 187.355 145.914 187.914 145.860 L 188.473 145.806 188.581 144.602 C 188.640 143.940,188.698 142.054,188.710 140.412 C 188.730 137.523,188.745 137.410,189.146 136.933 C 189.951 135.976,189.935 136.805,189.935 94.884 C 189.935 53.489,189.948 54.194,189.188 54.194 C 188.840 54.194,188.763 54.090,188.687 53.526 C 188.562 52.591,188.203 51.918,187.699 51.668 C 187.411 51.525,187.240 51.269,187.183 50.895 C 187.113 50.441,186.991 50.304,186.538 50.175 C 186.117 50.054,185.978 49.918,185.978 49.622 C 185.978 49.110,185.546 48.688,185.020 48.688 C 184.658 48.688,184.602 48.608,184.602 48.094 C 184.602 47.552,184.550 47.490,184.004 47.387 C 183.493 47.291,183.391 47.191,183.297 46.691 C 183.198 46.164,183.131 46.108,182.605 46.108 C 182.074 46.108,182.022 46.062,182.022 45.601 C 182.022 44.971,181.419 43.921,180.977 43.781 C 180.795 43.723,180.601 43.468,180.545 43.214 C 180.363 42.381,180.315 42.317,179.789 42.212 C 179.392 42.132,179.269 42.014,179.269 41.713 C 179.269 40.992,179.087 40.774,178.487 40.774 C 177.948 40.774,177.910 40.735,177.860 40.129 L 177.806 39.484 176.057 39.435 C 174.777 39.399,174.269 39.445,174.164 39.607 " stroke="none" fill="#040404" fill-rule="evenodd"></path><path id="path1" d="" stroke="none" fill="#080404" fill-rule="evenodd"></path><path id="path2" d="" stroke="none" fill="#080404" fill-rule="evenodd"></path><path id="path3" d="" stroke="none" fill="#080404" fill-rule="evenodd"></path><path id="path4" d="" stroke="none" fill="#080404" fill-rule="evenodd"></path></g></svg>