<svg xmlns="http://www.w3.org/2000/svg" height="55" viewBox="0 0 960 550"><path fill="none" d="M0 0H960V550H0z"></path><path fill="#000" d="m 3045,1507 c -1,-910 -2,-1008 -18,-1064 -29,-108 -101,-196 -208,-253 -33,-17 -59,-34 -59,-37 0,-13 113,-143 125,-143 31,0 179,86 231,133 97,88 157,208 170,338 4,42 8,1408 4,1689 0,55 -1,55 -101,175 -55,66 -110,130 -122,142 l -22,23 0,-1003 z m 2950,1143 c -2,-3 -3,-461 -3,-1018 l -1,-1012 32,-1 c 98,-2 199,0 204,5 3,2 6,414 7,913 l 1,908 180,1 c 205,0 311,-14 385,-51 141,-72 198,-189 188,-393 -4,-84 -9,-109 -35,-163 -72,-152 -174,-207 -383,-210 -83,-1 -90,-3 -78,-18 7,-9 44,-54 83,-100 l 69,-84 78,7 c 107,9 194,38 275,92 121,82 214,214 248,356 30,119 23,311 -14,403 -20,50 -45,99 -56,112 -5,7 -26,33 -45,57 -40,49 -122,110 -195,144 -103,49 -162,55 -563,56 -205,1 -375,-1 -377,-4 z m -2029,0 c -1,-3 -2,-365 -1,-805 2,-573 5,-814 14,-849 13,-56 61,-157 97,-203 62,-81 165,-146 279,-177 200,-53 527,-35 679,38 147,72 238,179 267,316 9,39 13,289 15,850 2,437 1,804 -1,816 -4,19 -11,20 -117,18 -62,-1 -115,-2 -118,-3 -3,0 -5,-344 -6,-763 0,-860 1,-850 -68,-951 -71,-104 -190,-147 -391,-141 -123,3 -196,23 -267,73 -97,67 -123,131 -134,321 -3,58 -6,411 -7,785 l -2,680 -118,0 c -65,1 -120,-2 -121,-5 z m -1897,0 c -1,-3 -2,-461 -3,-1017 -1,-896 1,-1013 14,-1014 18,-1 176,-1 205,0 20,1 20,6 20,1018 l 0,1018 -117,0 c -65,1 -119,-2 -119,-5 z M 6,2650 C 4,2645 6,651 9,628 c 1,-11 107,-15 221,-9 13,1 15,60 15,491 l 0,490 75,0 c 90,1 762,1 773,0 4,0 7,-220 7,-490 0,-460 1,-490 18,-491 20,-1 178,-1 207,0 20,1 20,4 19,1014 -1,556 -2,1014 -3,1017 0,3 -55,6 -121,6 l -120,-1 0,-425 0,-425 -427,0 -428,0 -1,420 c -1,231 -2,422 -3,425 -1,7 -232,7 -235,0 z m 3103,457 c -18,-12 -40,-34 -48,-49 -14,-25 -13,-28 63,-119 83,-99 93,-104 143,-72 35,23 65,88 60,129 -15,109 -132,169 -218,111 z" transform="matrix(.1 0 0 -.1 116.6 432)"></path></svg>