<?xml version="1.0" encoding="utf-8"?>
<!-- Generator: Adobe Illustrator 15.1.0, SVG Export Plug-In . SVG Version: 6.00 Build 0)  -->
<!DOCTYPE svg PUBLIC "-//W3C//DTD SVG 1.1//EN" "http://www.w3.org/Graphics/SVG/1.1/DTD/svg11.dtd">
<svg version="1.1" id="Layer_2" xmlns="http://www.w3.org/2000/svg" xmlns:xlink="http://www.w3.org/1999/xlink" x="0px" y="0px"
	 width="198px" height="50px" viewBox="0 0 198 50" enable-background="new 0 0 198 50" xml:space="preserve">
<g>
	<g>
		<g id="HomeAway_xAE__3_">
			<path id="H_3_" fill="#2A6EBB" d="M3.57,10.69v11.56h13.37V10.69h3.62v27.63h-3.62V25.36H3.57v12.96H0V10.69H3.57z"/>
			<path id="o_3_" fill="#2A6EBB" d="M43.6,28.23c0,7.34-5.09,10.54-9.88,10.54c-5.37,0-9.51-3.94-9.51-10.21
				c0-6.63,4.35-10.54,9.84-10.54C39.75,18.03,43.6,22.16,43.6,28.23z M27.87,28.43c0,4.36,2.5,7.63,6.03,7.63
				c3.44,0,6.03-3.24,6.03-7.71c0-3.37-1.68-7.63-5.94-7.63C29.71,20.73,27.87,24.67,27.87,28.43z"/>
			<path id="m_3_" fill="#2A6EBB" d="M47.19,23.85c0-2.05-0.04-3.73-0.16-5.37h3.16l0.16,3.19h0.12c1.11-1.88,2.95-3.65,6.24-3.65
				c2.7,0,4.75,1.63,5.62,3.97h0.09c0.62-1.1,1.4-1.97,2.22-2.59c1.19-0.89,2.5-1.39,4.38-1.39c2.62,0,6.52,1.72,6.52,8.62v11.69H72
				V27.09c0-3.81-1.4-6.1-4.31-6.1c-2.05,0-3.65,1.51-4.26,3.28c-0.16,0.49-0.28,1.15-0.28,1.81v12.25h-3.53V26.44
				c0-3.16-1.39-5.46-4.15-5.46c-2.25,0-3.89,1.81-4.47,3.6c-0.21,0.53-0.28,1.15-0.28,1.76v11.98h-3.53V23.85L47.19,23.85z"/>
			<path id="e_3_" fill="#2A6EBB" d="M82.54,28.86c0.09,4.98,3.26,7.03,6.95,7.03c2.64,0,4.22-0.46,5.61-1.05l0.62,2.64
				c-1.3,0.58-3.52,1.29-6.73,1.29c-6.23,0-9.95-4.13-9.95-10.25c0-6.12,3.6-10.92,9.5-10.92c6.61,0,8.37,5.81,8.37,9.53
				c0,0.76-0.09,1.34-0.12,1.71H82.54V28.86z M93.32,26.24c0.05-2.34-0.95-5.98-5.1-5.98c-3.73,0-5.35,3.43-5.64,5.98H93.32z"/>
			<path id="A_3_" fill="#2A6EBB" d="M105.16,29.46l-2.93,8.87h-3.76l9.58-28.19h4.39l9.62,28.19h-3.89l-3.01-8.87H105.16z
				 M114.4,26.61l-2.76-8.11c-0.63-1.84-1.04-3.52-1.46-5.15h-0.09c-0.42,1.67-0.88,3.39-1.42,5.1l-2.76,8.16H114.4L114.4,26.61z"/>
			<path id="w_3_" fill="#2A6EBB" d="M125.69,18.08l2.67,10.29c0.58,2.27,1.13,4.34,1.51,6.45H130c0.46-2.06,1.12-4.22,1.79-6.45
				l3.3-10.29h3.1l3.13,10.13c0.75,2.43,1.34,4.56,1.79,6.61h0.12c0.33-2.06,0.88-4.18,1.55-6.58l2.88-10.16h3.64l-6.51,20.24h-3.36
				l-3.09-9.66c-0.71-2.25-1.3-4.27-1.8-6.65h-0.09c-0.51,2.43-1.13,4.52-1.85,6.7l-3.26,9.61H128l-6.1-20.24H125.69L125.69,18.08z"
				/>
			<path id="a_3_" fill="#2A6EBB" d="M168.08,33.47c0,1.76,0.09,3.47,0.33,4.85h-3.34l-0.3-2.55h-0.12
				c-1.14,1.58-3.31,3.01-6.19,3.01c-4.11,0-6.19-2.88-6.19-5.82c0-4.89,4.35-7.56,12.17-7.53v-0.42c0-1.67-0.46-4.68-4.59-4.68
				c-1.88,0-3.85,0.58-5.27,1.51l-0.83-2.43c1.67-1.09,4.1-1.8,6.65-1.8c6.19,0,7.7,4.22,7.7,8.28L168.08,33.47L168.08,33.47z
				 M164.52,27.98c-4.01-0.09-8.57,0.63-8.57,4.56c0,2.38,1.59,3.52,3.47,3.52c2.64,0,4.31-1.67,4.89-3.39
				c0.12-0.38,0.21-0.79,0.21-1.18V27.98L164.52,27.98z"/>
			<path id="y_3_" fill="#2A6EBB" d="M174.05,18.08l4.43,11.96c0.46,1.34,0.97,2.92,1.3,4.14h0.09c0.37-1.21,0.79-2.76,1.3-4.22
				l4.01-11.89h3.89l-5.52,14.42c-2.32,6.08-4.16,9.71-6.95,12.12c-1.79,1.58-3.59,2.21-4.52,2.39l-0.91-3.09
				c0.91-0.3,2.13-0.88,3.22-1.8c1-0.79,2.25-2.22,3.1-4.1c0.16-0.38,0.3-0.67,0.3-0.88s-0.09-0.5-0.26-0.95l-7.48-18.1H174.05
				L174.05,18.08L174.05,18.08z"/>
			<g id="_xAE__3_">
				<path fill="#2A6EBB" d="M197.63,20.26c0,1.48-1.2,2.67-2.72,2.67s-2.74-1.19-2.74-2.67c0-1.49,1.21-2.65,2.75-2.65
					C196.43,17.61,197.63,18.77,197.63,20.26z M192.86,20.26c0,1.19,0.89,2.12,2.07,2.12c1.15,0.03,2.02-0.93,2.02-2.09
					c0-1.18-0.88-2.13-2.05-2.13C193.76,18.14,192.86,19.09,192.86,20.26z M194.5,21.63h-0.62v-2.65c0.25-0.04,0.58-0.09,1.02-0.09
					c0.51,0,0.73,0.09,0.9,0.21c0.16,0.11,0.27,0.31,0.27,0.57c0,0.32-0.25,0.53-0.54,0.63v0.04c0.26,0.09,0.38,0.29,0.47,0.64
					c0.09,0.4,0.15,0.54,0.2,0.64h-0.64c-0.09-0.1-0.12-0.32-0.21-0.64c-0.05-0.27-0.21-0.41-0.56-0.41h-0.3L194.5,21.63
					L194.5,21.63z M194.51,20.15h0.3c0.33,0,0.61-0.11,0.61-0.38c0-0.25-0.17-0.41-0.57-0.41c-0.16,0-0.27,0.01-0.33,0.04
					L194.51,20.15L194.51,20.15z"/>
			</g>
		</g>
	</g>
</g>
</svg>
