<svg width="1372" height="283" viewBox="0 0 1372 283" fill="none" xmlns="http://www.w3.org/2000/svg">
<path d="M113.05 167.83C151.57 167.83 183.14 196.58 183.05 237.83H43.0502C42.9802 196.6 74.5402 167.83 113.05 167.83Z" fill="#FF7009"/>
<path d="M170.79 70.27C161.94 70.27 155.64 74.12 149.79 82.49L133.03 106.57V37.83H93.03V106.57L76.27 82.49C70.45 74.12 64.15 70.27 55.27 70.27C41.93 70.27 33.04 80.12 33 92.27C33 102.67 37.87 109.44 48.19 116.09L113 157.84L177.81 116.09C188.13 109.44 193.04 102.67 193 92.27C193.01 80.12 184.13 70.27 170.79 70.27Z" fill="#0AAD0A"/>
<path d="M264.92 81.57C250.03 81.57 240.57 72.35 240.57 58.16C240.57 43.97 250.26 35 264.92 35C279.81 35 289.27 44.21 289.27 58.4C289.27 72.59 279.58 81.57 264.92 81.57ZM286.67 90.57V237.83H243.17V90.55L286.67 90.57Z" fill="#003D29"/>
<path d="M351.2 90.55V117.98H353.33C361.61 98.59 376.03 87.71 399.2 87.71C430.64 87.71 450.02 106.39 450.02 142.56V237.83H406.52V150.6C406.52 130.27 397.78 121.05 380.52 121.05C362.52 121.05 352.39 130.98 352.39 151.78V237.83H308.89V90.55H351.2Z" fill="#003D29"/>
<path d="M505.33 191.26C506.99 204.03 514.79 210.65 528.74 210.65C544.1 210.65 550.49 204.74 550.49 196.46C550.49 188.46 546.49 183.69 533.23 182.28L514.32 180.15C480.51 176.37 466.56 161.24 466.56 136.15C466.56 108.25 487.56 87.68 528.26 87.68C567.98 87.68 586.66 106.6 589.02 135.2H548.83C547.89 124.09 541.27 117.71 527.32 117.71C512.9 117.71 506.52 123.62 506.52 131.89C506.52 138.98 511.01 143 522.12 144.42L543.39 147.29C576.73 151.78 590.91 165.29 590.91 191.5C590.91 220.34 568.45 240.67 528.5 240.67C487.13 240.67 466.32 220.81 463.5 191.26H505.33Z" fill="#003D29"/>
<path d="M616.01 194.57V125.07H597.33V96.23C621.45 94.57 630.9 85.59 631.85 63.36H659.51V90.55H692.39V125.07H659.51V187.24C659.51 201.9 665.66 206.39 677.71 206.39C681.366 206.348 685.01 205.953 688.59 205.21V238.07C681.562 239.879 674.326 240.753 667.07 240.67C631.39 240.67 616.01 224.59 616.01 194.57Z" fill="#003D29"/>
<path d="M790.24 213.25H788.39C781.53 230.5 768.53 240.67 746.07 240.67C716.75 240.67 700.92 222.47 700.92 199.06C700.92 177.31 713.21 162.18 746.54 156.06L771.6 151.56C784.37 149.2 788.86 144.71 788.86 137.14C788.86 126.98 781.77 121.07 768.06 121.07C752.93 121.07 745.36 127.92 743.94 139.74H702.53C707.02 108.06 730.19 87.74 769.67 87.74C812.22 87.74 832.32 109.26 832.32 142.35V237.86H790.24V213.25ZM788.82 169.98C785.04 172.82 780.07 174.98 773.22 176.6L760.22 179.68C748.88 182.28 744.62 187.48 744.62 195.52C744.62 205.92 751.95 211.83 764.24 211.83C778.9 211.83 788.83 203.83 788.83 184.88L788.82 169.98Z" fill="#003D29"/>
<path d="M926.87 87.71C972.74 87.71 998.27 112.77 1001.58 152.96H958.58C956.46 134.76 946.58 123.17 926.67 123.17C904.44 123.17 891.92 137.12 891.92 163.37C891.92 191.26 905.39 205.21 927.14 205.21C945.58 205.21 957.14 194.33 959.29 174.71H1002.55C998.55 215.85 970.88 240.71 925.72 240.71C876.08 240.71 847.94 210.92 847.94 164.82C847.91 118.21 879.12 87.71 926.87 87.71Z" fill="#003D29"/>
<path d="M1102.6 213.25H1100.71C1093.86 230.5 1080.86 240.67 1058.4 240.67C1029.08 240.67 1013.24 222.47 1013.24 199.06C1013.24 177.31 1025.54 162.18 1058.87 156.06L1083.93 151.56C1096.7 149.2 1101.19 144.71 1101.19 137.14C1101.19 126.98 1094.09 121.07 1080.38 121.07C1065.25 121.07 1057.69 127.92 1056.27 139.74H1014.9C1019.39 108.06 1042.56 87.74 1082.04 87.74C1124.59 87.74 1144.69 109.26 1144.69 142.35V237.86H1102.6V213.25ZM1101.19 169.98C1097.41 172.82 1092.44 174.98 1085.58 176.6L1072.58 179.68C1061.23 182.28 1056.98 187.48 1056.98 195.52C1056.98 205.92 1064.31 211.83 1076.6 211.83C1091.26 211.83 1101.19 203.83 1101.19 184.88V169.98Z" fill="#003D29"/>
<path d="M1206.85 90.55V126.25H1208.98C1216.31 96.25 1226.98 87.95 1241.13 87.95C1244.11 87.9391 1247.06 88.4189 1249.88 89.37V130.27C1245.97 129.677 1242.02 129.359 1238.06 129.32C1217.49 129.32 1209.22 137.6 1209.22 160.76V237.83H1165.72V90.55H1206.85Z" fill="#003D29"/>
<path d="M1262.97 92.21C1274.32 87.71 1279.04 78.49 1279.75 63.36H1306.47V90.55H1339.33V125.07H1306.47V187.24C1306.47 201.9 1312.61 206.39 1324.67 206.39C1328.32 206.349 1331.96 205.954 1335.54 205.21V238.07C1328.52 239.879 1321.28 240.753 1314.03 240.67C1278.33 240.67 1262.97 224.59 1262.97 194.57V92.21Z" fill="#003D29"/>
</svg>
