<?xml version="1.0" encoding="UTF-8" standalone="no"?>
<svg
   xmlns:dc="http://purl.org/dc/elements/1.1/"
   xmlns:cc="http://creativecommons.org/ns#"
   xmlns:rdf="http://www.w3.org/1999/02/22-rdf-syntax-ns#"
   xmlns:svg="http://www.w3.org/2000/svg"
   xmlns="http://www.w3.org/2000/svg"
   xmlns:sodipodi="http://sodipodi.sourceforge.net/DTD/sodipodi-0.dtd"
   xmlns:inkscape="http://www.inkscape.org/namespaces/inkscape"
   width="91.876366"
   height="30.030474"
   viewBox="0 0 91.876366 30.030474"
   version="1.1"
   id="svg35"
   sodipodi:docname="loggi-logo.svg"
   inkscape:version="0.92.2 (5c3e80d, 2017-08-06)">
  <metadata
     id="metadata39">
    <rdf:RDF>
      <cc:Work
         rdf:about="">
        <dc:format>image/svg+xml</dc:format>
        <dc:type
           rdf:resource="http://purl.org/dc/dcmitype/StillImage" />
        <dc:title></dc:title>
      </cc:Work>
    </rdf:RDF>
  </metadata>
  <sodipodi:namedview
     pagecolor="#ffffff"
     bordercolor="#666666"
     borderopacity="1"
     objecttolerance="10"
     gridtolerance="10"
     guidetolerance="10"
     inkscape:pageopacity="0"
     inkscape:pageshadow="2"
     inkscape:window-width="1600"
     inkscape:window-height="837"
     id="namedview37"
     showgrid="false"
     inkscape:zoom="9.7457761"
     inkscape:cx="42.86596"
     inkscape:cy="14.826315"
     inkscape:window-x="-8"
     inkscape:window-y="-8"
     inkscape:window-maximized="1"
     inkscape:current-layer="svg35"
     fit-margin-top="0"
     fit-margin-left="0"
     fit-margin-right="0"
     fit-margin-bottom="0" />
  <defs
     id="defs5">
    <polygon
       id="path-1"
       points="39.029513,25.04336 39.029513,4.6054358 25.485068,4.6054358 25.485068,25.04336 " />
    <polygon
       id="path-3"
       points="53.2115,25.04336 53.2115,4.6054233 39.667055,4.6054233 39.667055,25.04336 " />
    <polygon
       id="path-5"
       points="57.876336,25.04336 57.876336,-4.9871599 -34,-4.9871599 -34,25.04336 " />
  </defs>
  <g
     id="Page-3"
     style="fill:#00baff;fill-opacity:1;fill-rule:evenodd;stroke:none;stroke-width:1"
     transform="translate(3.8376158e-6,-0.01292434)"
     inkscape:export-filename="G:\Users\suitedoalex\sites\loggi-logo-7.png"
     inkscape:export-xdpi="52.244122"
     inkscape:export-ydpi="52.244122">
    <g
       id="d-landing-motoboy"
       transform="translate(-161,-17)"
       style="fill:#00baff;fill-opacity:1">
      <g
         id="navbar"
         style="fill:#00baff;fill-opacity:1">
        <g
           id="logo"
           transform="translate(195,22)"
           style="fill:#00baff;fill-opacity:1">
          <g
             class="letters"
             id="g25"
             style="fill:#00baff;fill-opacity:1">
            <polygon
               id="Fill-1"
               points="0,18 11,18 11,14.696979 3.4591868,14.696979 3.4591868,0 0,0 "
               style="fill:#00baff;fill-opacity:1" />
            <path
               d="m 18.050758,14.902343 c -2.056163,-0.01471 -3.511209,-1.555025 -3.488521,-3.69309 0.02244,-2.1279674 1.466515,-3.6029592 3.52542,-3.6009647 2.077605,0.00199 3.508716,1.4989269 3.498868,3.6599297 -0.0098,2.151404 -1.466889,3.648959 -3.535767,3.634125 z m 0.03466,-10.2869219 c -3.841561,-0.013588 -6.782943,2.8615989 -6.78232,6.6297349 6.23e-4,3.775116 2.926547,6.646189 6.770352,6.643447 3.866493,-0.0026 6.774715,-2.849382 6.773968,-6.630732 -6.24e-4,-3.7976802 -2.882667,-6.6288618 -6.762,-6.6424499 z"
               id="Fill-2"
               style="fill:#00baff;fill-opacity:1"
               inkscape:connector-curvature="0" />
            <g
               id="Clip-5"
               style="fill:#00baff;fill-opacity:1" />
            <path
               d="m 35.765009,11.306601 c -0.02743,2.129962 -1.476239,3.610564 -3.532277,3.595729 -2.056162,-0.01471 -3.511208,-1.555024 -3.48852,-3.692965 0.02256,-2.1280918 1.466515,-3.6030837 3.52542,-3.6010891 2.063019,0.00212 3.485154,1.4796043 3.495377,3.6161731 0,0.02743 -1.25e-4,0.05473 0,0.08215 m -0.0029,-5.7885202 c -1.00639,-0.5698266 -2.192043,-0.8981843 -3.494753,-0.9026721 -3.841561,-0.013588 -6.782943,2.8615989 -6.78232,6.6297343 6.24e-4,3.775117 2.926548,6.64619 6.770477,6.643572 1.306824,-9.97e-4 2.499583,-0.333095 3.512331,-0.910152 3.74e-4,0.878862 7.48e-4,1.433604 7.48e-4,1.433604 -0.0098,2.151778 -1.466889,3.644846 -3.535892,3.644846 -2.65678,0 -3.825105,-2.574504 -3.825105,-2.574504 l -2.433762,1.47761 c 0,0 1.398201,4.083279 6.28168,4.083279 3.866369,-0.0027 6.774591,-2.849507 6.773968,-6.630857 V 4.6054358 h -3.267746 c 0,0 1.25e-4,0.3399512 3.74e-4,0.912645"
               id="Fill-4"
               mask="url(#mask-2)"
               style="fill:#00baff;fill-opacity:1"
               inkscape:connector-curvature="0" />
            <g
               id="Clip-8"
               style="fill:#00baff;fill-opacity:1" />
            <path
               d="m 49.946996,11.307337 c -0.0278,2.129588 -1.476488,3.609815 -3.532277,3.594981 -2.056162,-0.01471 -3.511208,-1.555025 -3.48852,-3.692965 0.02256,-2.1280923 1.466515,-3.6030842 3.52542,-3.6009649 2.06277,0.00199 3.484656,1.4792303 3.495377,3.6153009 0,0.02792 -1.25e-4,0.05572 0,0.08365 m -0.0029,-5.7892687 C 48.937738,4.9482417 47.752085,4.619884 46.4495,4.6153962 c -3.841561,-0.013588 -6.783068,2.8615989 -6.782445,6.6297348 6.24e-4,3.775116 2.926548,6.646189 6.770477,6.643571 1.306824,-9.97e-4 2.499708,-0.33297 3.512331,-0.910027 3.74e-4,0.878862 7.48e-4,1.43348 7.48e-4,1.43348 -0.0098,2.151778 -1.466889,3.644845 -3.535892,3.644845 -2.65678,0 -3.825105,-2.574504 -3.825105,-2.574504 l -2.433762,1.47761 c 0,0 1.398201,4.083279 6.28168,4.083279 3.866369,-0.0027 6.774591,-2.849506 6.773968,-6.630856 V 4.6054233 h -3.267746 c 0,0 1.25e-4,0.3400759 3.74e-4,0.912645"
               id="Fill-7"
               mask="url(#mask-4)"
               style="fill:#00baff;fill-opacity:1"
               inkscape:connector-curvature="0" />
            <g
               id="Clip-11"
               style="fill:#00baff;fill-opacity:1" />
            <polygon
               id="Fill-10"
               mask="url(#mask-6)"
               points="57.876336,4.6053984 54.530802,4.6053984 54.530802,17.697696 57.876336,17.697696 "
               style="fill:#00baff;fill-opacity:1" />
            <path
               d="m 56.203532,3.3417323 c 0.923864,0 1.672829,-0.7489648 1.672829,-1.6728293 0,-0.92386452 -0.748965,-1.67270463 -1.672829,-1.67270463 -0.923865,0 -1.67283,0.74884011 -1.67283,1.67270463 0,0.9238645 0.748965,1.6728293 1.67283,1.6728293"
               id="Fill-12"
               mask="url(#mask-6)"
               style="fill:#00baff;fill-opacity:1"
               inkscape:connector-curvature="0" />
          </g>
          <g
             class="rabbit"
             id="g29"
             style="fill:#00baff;fill-opacity:1">
            <path
               d="M -6.4293951,2.5194417 C -7.1773626,2.1263848 -8.0557258,1.7819458 -8.3843328,1.6572845 -8.4974005,1.5758808 -8.5694547,1.5221518 -8.5694547,1.5221518 c 0,0 -4.4300863,-3.1690136 -6.3832793,-3.9909052 -1.953317,-0.8220163 -5.350087,-2.6114038 -8.799214,-2.514542 -2.72335,0.076417 -4.403908,0.5820434 -4.991436,0.7230352 -0.696358,0.1670461 -1.161968,0.3635122 -0.399041,0.7229106 0.255431,0.1202981 1.344347,0.7686612 2.666504,1.5233604 1.931377,1.10250411 4.360277,2.43189164 5.415783,2.67348514 1.010629,0.23124661 2.675231,0.57082386 4.802076,0.52569646 2.427155,-0.05136 3.607697,0.9842006 3.846423,1.3621734 -0.434569,-0.6168238 -2.088575,-1.1127262 -4.29458,-0.9763468 -2.12323,0.1312683 -3.829967,-0.011095 -4.823767,-0.3066667 -1.947458,-0.57917615 -4.034412,-1.448813 -5.789143,-2.2699566 -0.721664,0.21977774 -1.166705,0.40440105 -1.436472,0.51871541 -0.612211,0.25942005 -1.185155,0.72527913 -0.326488,0.96737128 0.613957,0.17315447 6.354981,2.22682381 8.026315,2.32667751 0.950043,0.056846 2.508433,0.1129431 4.427468,-0.2490732 2.17135,-0.4097615 3.302152,0.4818157 3.567556,0.827252 -0.678033,1.0300759 -1.121827,2.2276965 -0.994922,3.5588293 -7.938178,-1.3996965 -10.471918,-2.1243523 -12.264422,-2.4325149 -3.133735,-0.5386612 -7.114542,2.1161247 -7.602716,5.4039404 -0.277496,1.8682985 0.199084,3.6134305 1.334125,5.2281685 1.256585,1.787517 2.909967,3.329203 3.150439,3.656563 0.153583,0.279366 0.103593,1.017236 0.11419,1.513637 0.01184,0.55761 0.713187,1.058623 1.121577,1.095648 0.243339,0.02206 4.943317,1.490574 4.943317,1.490574 l 6.962954,2.143176 c 0,0 0.105713,-0.480943 0.12678,-0.683517 0.05335,-0.514851 -0.33858,-1.786022 -1.970146,-2.260857 -2.401973,-0.722661 -2.874065,-0.859913 -3.385176,-1.01362 -0.275127,-0.08278 -0.08215,-0.08689 0.34419,-0.423599 0.727398,-0.617198 1.350829,-1.44981 1.669338,-2.12697 1.421014,-3.021415 -0.367376,-5.711979 -0.367376,-5.711979 0,0 1.116216,1.17219 1.535577,3.221746 0.523951,2.560168 -1.211583,4.591523 -1.211583,4.591523 l 1.035686,0.300309 c 0,0 6.689821,-6.737941 7.343295,-7.465339 0.551626,-0.614206 1.5112685,-1.001653 1.999068,-1.160098 1.7844011,-0.517718 4.0157127,-1.517501 4.5831707,-1.87665 0.567458,-0.359149 1.2626938,-1.627328 1.4372195,-1.9407263 0.1744011,-0.3133984 0.4032792,-0.7264011 0.4477832,-1.1930082 0.015583,-0.1639295 -0.9382005,-1.4362222 -0.9382005,-1.4362222 0,0 -1.5254797,-2.5799892 -2.782813,-3.3449106"
               id="Fill-13"
               mask="url(#mask-6)"
               style="fill:#00baff;fill-opacity:1"
               inkscape:connector-curvature="0" />
            <path
               d="m -25.8995,23.280725 c -0.395799,0.235361 -0.533051,0.860163 0.04313,1.197371 0.511361,0.269144 2.229068,-0.672173 2.229068,-0.672173 l -1.722569,-0.543024 c 0,0 -0.270266,-0.113691 -0.549632,0.01783"
               id="Fill-14"
               mask="url(#mask-6)"
               style="fill:#00baff;fill-opacity:1"
               inkscape:connector-curvature="0" />
          </g>
        </g>
      </g>
    </g>
  </g>
</svg>
