<?xml version="1.0" encoding="utf-8"?>
<!-- Generator: Adobe Illustrator 18.0.0, SVG Export Plug-In . SVG Version: 6.00 Build 0)  -->
<!DOCTYPE svg PUBLIC "-//W3C//DTD SVG 1.1//EN" "http://www.w3.org/Graphics/SVG/1.1/DTD/svg11.dtd">
<svg version="1.1" id="Layer_1" xmlns="http://www.w3.org/2000/svg" xmlns:xlink="http://www.w3.org/1999/xlink" x="0px" y="0px"
	 viewBox="0 0 388.9 305.4" enable-background="new 0 0 388.9 305.4" xml:space="preserve">
<polygon points="75.8,268.7 81.8,268.7 92,285.6 102.1,268.7 108.1,268.7 109.7,304.5 103.5,304.5 102.3,279.7 93.4,294.3 
	90.3,294.3 81.3,280 80.2,304.5 74.2,304.5 "/>
<path d="M143.3,289.8l-4.5-13.9l-4.6,13.9H143.3z M135.6,268.7h6.6l12.9,35.8h-7.2l-3-9.1h-12.7l-3,9.1h-6.7L135.6,268.7z"/>
<path d="M181.7,284.8c1.6,0,2.9-0.5,3.8-1.5c0.9-1,1.4-2.2,1.4-3.7c0-1.5-0.5-2.8-1.4-3.8c-1-1-2.2-1.4-3.7-1.4h-6.8v10.4H181.7z
	 M168.7,268.7h12.9c2.1,0,4,0.3,5.5,1c1.5,0.7,2.7,1.5,3.6,2.6c0.9,1.1,1.6,2.2,2,3.5c0.4,1.3,0.6,2.5,0.6,3.6c0,2.2-0.5,4.3-1.4,6
	c-0.9,1.7-2.4,3.1-4.3,4.2l7.9,15h-7.3l-6.9-14.1h-6.5v14.1h-6.2V268.7z"/>
<path d="M223,284.8c1.6,0,2.9-0.5,3.8-1.5c0.9-1,1.4-2.2,1.4-3.7c0-1.5-0.5-2.8-1.4-3.8c-1-1-2.2-1.4-3.7-1.4h-6.8v10.4H223z
	 M210.1,268.7H223c2.1,0,4,0.3,5.5,1c1.5,0.7,2.7,1.5,3.6,2.6c0.9,1.1,1.6,2.2,2,3.5c0.4,1.3,0.6,2.5,0.6,3.6c0,2.2-0.5,4.3-1.4,6
	c-0.9,1.7-2.4,3.1-4.3,4.2l7.9,15h-7.3l-6.9-14.1h-6.4v14.1h-6.2V268.7z"/>
<rect x="253" y="268.7" width="6.4" height="35.8"/>
<path d="M292.7,299.1c1.7,0,3.2-0.3,4.6-1c1.4-0.7,2.5-1.6,3.5-2.8c1-1.2,1.7-2.5,2.2-4.1c0.5-1.5,0.8-3.1,0.8-4.8
	c0-1.7-0.3-3.3-0.8-4.9c-0.5-1.5-1.2-2.9-2.2-4c-1-1.2-2.1-2.1-3.5-2.7c-1.4-0.7-2.9-1-4.6-1c-1.7,0-3.2,0.3-4.6,1
	c-1.3,0.7-2.5,1.6-3.4,2.7c-1,1.1-1.7,2.5-2.2,4c-0.5,1.5-0.8,3.1-0.8,4.9c0,1.7,0.3,3.3,0.8,4.8c0.5,1.5,1.2,2.9,2.2,4.1
	c1,1.2,2.1,2.1,3.4,2.8C289.5,298.7,291,299.1,292.7,299.1 M292.7,305.4c-2.5,0-4.8-0.5-7-1.5c-2.1-1-4-2.3-5.6-4
	c-1.6-1.7-2.9-3.7-3.8-6c-0.9-2.3-1.4-4.7-1.4-7.4c0-2.6,0.5-5.1,1.4-7.4c0.9-2.3,2.2-4.3,3.8-6c1.6-1.7,3.4-3,5.6-4
	c2.2-1,4.5-1.5,7-1.5c2.5,0,4.8,0.5,7,1.5c2.1,1,4,2.3,5.6,4c1.6,1.7,2.9,3.7,3.8,6c0.9,2.3,1.4,4.7,1.4,7.4c0,2.6-0.5,5.1-1.4,7.4
	c-0.9,2.3-2.2,4.3-3.8,6c-1.6,1.7-3.5,3.1-5.6,4C297.5,304.9,295.2,305.4,292.7,305.4"/>
<polygon points="330.4,274.6 318.9,274.6 318.9,268.7 348.4,268.7 348.4,274.6 336.9,274.6 336.9,304.5 330.4,304.5 "/>
<polygon points="370.9,274.6 359.3,274.6 359.3,268.7 388.9,268.7 388.9,274.6 377.3,274.6 377.3,304.5 370.9,304.5 "/>
<path fill="#A11D2B" d="M248.4,232.9h57.5L209.7,3.7l-48.3,23.4l33.6,79.8L179.4,144L119.2,0L70.4,22.3l39.2,92l-0.2,0.4
	c-24.2,58.1-53.8,74-56.7,75.1c-6.9,2.8-14.3,4.4-22.1,4.4c-2.4,0-4.7-0.1-7-0.4L0,244.4c7.8,4.5,16.6,7.1,25.9,7.1
	c11.8,0,22.6-4.1,31.6-10.9l-0.1,0.2c0,0,22.3-11.3,46.2-73.2c0-0.1,8.8-19.8,13.5-32.4l0.5-1.4l42,99.2H217l-29.6-69.8l15.7-37.1
	L248.4,232.9z"/>
</svg>
