<?xml version="1.0" encoding="UTF-8" standalone="no"?>
<svg xmlns:dc="http://purl.org/dc/elements/1.1/" xmlns:cc="http://creativecommons.org/ns#" xmlns:rdf="http://www.w3.org/1999/02/22-rdf-syntax-ns#" xmlns:svg="http://www.w3.org/2000/svg" xmlns="http://www.w3.org/2000/svg" xmlns:xlink="http://www.w3.org/1999/xlink" width="127.98058mm" height="21.317123mm" viewBox="0 0 127.98058 21.317123" version="1.1" id="svg4778">
  <defs id="defs4772">
    <linearGradient gradientTransform="scale(0.75851332,1.3183684)" y2="78.885384" x2="71.191895" y1="23.513912" x1="71.191895" gradientUnits="userSpaceOnUse" id="linearGradient1342" xlink:href="#grad-1208-skin-front"></linearGradient>
    <linearGradient gradientUnits="objectBoundingBox" y2="1" x2="0" y1="0" x1="0" id="grad-1208-skin-front">
      <stop id="stop2506" stop-color="#f4caa2" offset="0"></stop>
      <stop id="stop2508" stop-color="#deb58c" offset="1"></stop>
    </linearGradient>
    <linearGradient gradientUnits="userSpaceOnUse" gradientTransform="scale(2.153381,0.464386)" y2="232.8943" x2="40.0965" y1="176.39851" x1="40.0965" id="grad-1208-bottom-back-0">
      <stop id="stop1244" stop-color="#464b53" offset="0"></stop>
      <stop id="stop1246" stop-color="#2c3138" offset="1"></stop>
    </linearGradient>
    <linearGradient gradientTransform="scale(0.78025394,1.281634)" y2="186.53117" x2="153.79608" y1="0" x1="153.79608" gradientUnits="userSpaceOnUse" id="linearGradient1344" xlink:href="#grad-1208-skin-back"></linearGradient>
    <linearGradient gradientUnits="objectBoundingBox" y2="1" x2="0" y1="0" x1="0" id="grad-1208-skin-back">
      <stop id="stop2511" stop-color="#d9b693" offset="0"></stop>
      <stop id="stop2513" stop-color="#be9b78" offset="1"></stop>
    </linearGradient>
    <linearGradient gradientTransform="scale(0.94631053,1.0567356)" y2="176.74332" x2="0.78825057" y1="0" x1="0.78825057" gradientUnits="userSpaceOnUse" id="linearGradient1346" xlink:href="#grad-1208-skin-front"></linearGradient>
    <linearGradient gradientUnits="userSpaceOnUse" gradientTransform="scale(1.0871505,0.91983589)" y2="106.64474" x2="79.421425" y1="-5.2596927" x1="79.421425" id="grad-1208-bottom-front-0">
      <stop id="stop1254" stop-color="#525861" offset="0"></stop>
      <stop id="stop1256" stop-color="#373e47" offset="1"></stop>
    </linearGradient>
    <linearGradient gradientTransform="scale(1.1863577,0.8429161)" y2="134.2894" x2="152.61453" y1="82.058136" x1="152.61453" gradientUnits="userSpaceOnUse" id="linearGradient1348" xlink:href="#grad-1208-skin-back"></linearGradient>
    <linearGradient gradientTransform="scale(1.2376324,0.80799436)" y2="22.849861" x2="154.69556" y1="-26.267523" x1="154.69556" gradientUnits="userSpaceOnUse" id="linearGradient1350" xlink:href="#grad-1208-skin-front"></linearGradient>
    <linearGradient gradientUnits="userSpaceOnUse" gradientTransform="scale(1.1912099,0.83948265)" y2="111.98995" x2="95.276398" y1="18.642342" x1="95.276398" id="grad-1208-top-back-8">
      <stop id="stop1259" stop-color="#44ab36" offset="0"></stop>
      <stop id="stop1261" stop-color="#2a901b" offset="1"></stop>
    </linearGradient>
    <linearGradient gradientUnits="userSpaceOnUse" gradientTransform="scale(1.0015717,0.99843076)" y2="138.82382" x2="79.804253" y1="-9.0141459" x1="79.804253" id="grad-1208-top-front-6">
      <stop id="stop1264" stop-color="#4fd03d" offset="0"></stop>
      <stop id="stop1266" stop-color="#35b523" offset="1"></stop>
    </linearGradient>
    <linearGradient gradientTransform="scale(0.75851332,1.3183684)" y2="78.885384" x2="71.191895" y1="23.513912" x1="71.191895" gradientUnits="userSpaceOnUse" id="linearGradient1534" xlink:href="#grad-7158-skin-front"></linearGradient>
    <linearGradient gradientUnits="objectBoundingBox" y2="1" x2="0" y1="0" x1="0" id="grad-7158-skin-front">
      <stop id="stop26" stop-color="#7f6e5b" offset="0"></stop>
      <stop id="stop28" stop-color="#695945" offset="1"></stop>
    </linearGradient>
    <linearGradient gradientUnits="userSpaceOnUse" gradientTransform="scale(0.67602779,1.4792291)" y2="149.40215" x2="189.34132" y1="0" x1="189.34132" id="grad-7158-bottom-back-2">
      <stop id="stop1451" stop-color="#a84027" offset="0"></stop>
      <stop id="stop1453" stop-color="#8e250d" offset="1"></stop>
    </linearGradient>
    <linearGradient gradientUnits="userSpaceOnUse" gradientTransform="scale(0.87848684,1.138321)" y2="161.64159" x2="44.39452" y1="0" x1="44.39452" id="grad-7158-bottom-front-3">
      <stop id="stop1456" stop-color="#cc4a2b" offset="0"></stop>
      <stop id="stop1458" stop-color="#b22f11" offset="1"></stop>
    </linearGradient>
    <linearGradient gradientUnits="userSpaceOnUse" gradientTransform="scale(1.0710086,0.93369936)" y2="60.466618" x2="148.12024" y1="7.8056741" x1="148.12024" id="grad-7158-skin-back-8">
      <stop id="stop1461" stop-color="#756655" offset="0"></stop>
      <stop id="stop1463" stop-color="#5a4c3b" offset="1"></stop>
    </linearGradient>
    <linearGradient gradientTransform="scale(1.0981553,0.91061802)" y2="81.307655" x2="193.96164" y1="41.7299" x1="193.96164" gradientUnits="userSpaceOnUse" id="linearGradient1536" xlink:href="#grad-7158-skin-front"></linearGradient>
    <linearGradient gradientUnits="userSpaceOnUse" gradientTransform="scale(1.3631502,0.7335949)" y2="80.575768" x2="100.76154" y1="38.694584" x1="100.76154" id="grad-7158-top-back-5">
      <stop id="stop1466" stop-color="#aeb37f" offset="0"></stop>
      <stop id="stop1468" stop-color="#949964" offset="1"></stop>
    </linearGradient>
    <linearGradient gradientUnits="userSpaceOnUse" gradientTransform="scale(1.0389078,0.9625493)" y2="150.46825" x2="74.331779" y1="0" x1="74.331779" id="grad-7158-top-front-0">
      <stop id="stop1471" stop-color="#d4da98" offset="0"></stop>
      <stop id="stop1473" stop-color="#babf7e" offset="1"></stop>
    </linearGradient>
    <linearGradient gradientTransform="matrix(0.75851332,0,0,1.3183684,667.80892,145.76357)" y2="78.885384" x2="71.191895" y1="23.513912" x1="71.191895" gradientUnits="userSpaceOnUse" id="linearGradient1715" xlink:href="#grad-30265-skin-front"></linearGradient>
    <linearGradient gradientUnits="objectBoundingBox" y2="1" x2="0" y1="0" x1="0" id="grad-30265-skin-front">
      <stop id="stop2792" stop-color="#e9d1a5" offset="0"></stop>
      <stop id="stop2794" stop-color="#d4bb90" offset="1"></stop>
    </linearGradient>
    <linearGradient gradientUnits="userSpaceOnUse" gradientTransform="matrix(0.60913112,0,0,1.6416827,587.80892,340.76357)" y2="134.61798" x2="210.13538" y1="0" x1="210.13538" id="grad-30265-bottom-back-5">
      <stop id="stop1635" stop-color="#5b628d" offset="0"></stop>
      <stop id="stop1637" stop-color="#404873" offset="1"></stop>
    </linearGradient>
    <linearGradient gradientUnits="userSpaceOnUse" gradientTransform="matrix(0.69975315,0,0,1.4290754,587.80892,340.76357)" y2="154.64545" x2="105.44627" y1="0" x1="105.44627" id="grad-30265-bottom-front-9">
      <stop id="stop1640" stop-color="#6c75aa" offset="0"></stop>
      <stop id="stop1642" stop-color="#515a90" offset="1"></stop>
    </linearGradient>
    <linearGradient gradientUnits="userSpaceOnUse" gradientTransform="matrix(1.3673201,0,0,0.73135762,607.80892,235.76357)" y2="145.94255" x2="93.001434" y1="51.960789" x1="93.001434" id="grad-30265-skin-back-2">
      <stop id="stop1645" stop-color="#d1bb96" offset="0"></stop>
      <stop id="stop1647" stop-color="#b6a17c" offset="1"></stop>
    </linearGradient>
    <linearGradient gradientTransform="matrix(0.86731894,0,0,1.1529784,607.80892,235.76357)" y2="144.84225" x2="2.3059568" y1="38.818092" x1="2.3059568" gradientUnits="userSpaceOnUse" id="linearGradient1717" xlink:href="#grad-30265-skin-front"></linearGradient>
    <linearGradient gradientUnits="userSpaceOnUse" gradientTransform="matrix(0.85439466,0.07474985,-0.10162059,1.1615286,613.55364,220.51143)" y2="49.925732" x2="144.12947" y1="9.0285463" x1="144.12947" id="grad-30265-top-back-6">
      <stop id="stop1650" stop-color="#a85021" offset="0"></stop>
      <stop id="stop1652" stop-color="#8e3607" offset="1"></stop>
    </linearGradient>
    <linearGradient gradientUnits="userSpaceOnUse" gradientTransform="matrix(0.91367132,0,0,1.0944855,607.80892,235.76357)" y2="127.44444" x2="57.352592" y1="0" x1="57.352592" id="grad-30265-top-front-8">
      <stop id="stop1655" stop-color="#cc5d24" offset="0"></stop>
      <stop id="stop1657" stop-color="#b24309" offset="1"></stop>
    </linearGradient>
    <linearGradient gradientTransform="matrix(-0.75851332,0,0,1.3183684,1214.4771,145.76357)" y2="78.885384" x2="71.191895" y1="23.513912" x1="71.191895" gradientUnits="userSpaceOnUse" id="linearGradient1941" xlink:href="#grad-9289-skin-front"></linearGradient>
    <linearGradient gradientUnits="objectBoundingBox" y2="1" x2="0" y1="0" x1="0" id="grad-9289-skin-front">
      <stop id="stop3048" stop-color="#e3c697" offset="0"></stop>
      <stop id="stop3050" stop-color="#ceb181" offset="1"></stop>
    </linearGradient>
    <linearGradient gradientUnits="userSpaceOnUse" gradientTransform="matrix(-0.60913112,0,0,1.6416827,1294.4771,340.76357)" y2="134.61798" x2="210.13538" y1="0" x1="210.13538" id="grad-9289-bottom-back-5">
      <stop id="stop1869" stop-color="#788a67" offset="0"></stop>
      <stop id="stop1871" stop-color="#5e6f4d" offset="1"></stop>
    </linearGradient>
    <linearGradient gradientUnits="userSpaceOnUse" gradientTransform="matrix(-0.69975315,0,0,1.4290754,1294.4771,340.76357)" y2="154.64545" x2="105.44627" y1="0" x1="105.44627" id="grad-9289-bottom-front-2">
      <stop id="stop1874" stop-color="#91a57b" offset="0"></stop>
      <stop id="stop1876" stop-color="#768b61" offset="1"></stop>
    </linearGradient>
    <linearGradient gradientTransform="matrix(-1.6460974,0,0,0.60749747,1274.4771,235.76357)" y2="272.32932" x2="2.7726448" y1="127.63167" x1="2.7726448" gradientUnits="userSpaceOnUse" id="linearGradient1943" xlink:href="#grad-9289-skin-front"></linearGradient>
    <linearGradient gradientUnits="userSpaceOnUse" gradientTransform="matrix(-0.90531127,0.07920447,0.09590523,1.0962018,1268.4907,221.20176)" y2="107.15476" x2="135.32504" y1="4.2152648" x1="135.32504" id="grad-9289-top-back-8">
      <stop id="stop1879" stop-color="#7f9d99" offset="0"></stop>
      <stop id="stop1881" stop-color="#64837e" offset="1"></stop>
    </linearGradient>
    <linearGradient gradientUnits="userSpaceOnUse" gradientTransform="matrix(-0.75867277,0,0,1.3180913,1274.4771,235.76357)" y2="163.57439" x2="37.951305" y1="-0.39350551" x1="37.951305" id="grad-9289-top-front-3">
      <stop id="stop1884" stop-color="#99bfb9" offset="0"></stop>
      <stop id="stop1886" stop-color="#7ea49f" offset="1"></stop>
    </linearGradient>
    <linearGradient gradientTransform="matrix(0.56741535,0,0,1.7623774,3203.6073,378.79599)" y2="125.39879" x2="225.5843" y1="0" x1="225.5843" gradientUnits="userSpaceOnUse" id="linearGradient2136-1" xlink:href="#grad-3213-skin-back"></linearGradient>
    <linearGradient gradientUnits="objectBoundingBox" y2="1" x2="0" y1="0" x1="0" id="grad-3213-skin-back">
      <stop id="stop3315" stop-color="#938162" offset="0"></stop>
      <stop id="stop3317" stop-color="#786748" offset="1"></stop>
    </linearGradient>
    <linearGradient gradientTransform="matrix(0.63057271,0,0,1.5858599,3203.6073,378.79599)" y2="140.61771" x2="137.27788" y1="0" x1="137.27788" gradientUnits="userSpaceOnUse" id="linearGradient2138-1" xlink:href="#grad-3213-skin-front"></linearGradient>
    <linearGradient gradientUnits="objectBoundingBox" y2="1" x2="0" y1="0" x1="0" id="grad-3213-skin-front">
      <stop id="stop3310" stop-color="#a28d6a" offset="0"></stop>
      <stop id="stop3312" stop-color="#8c7854" offset="1"></stop>
    </linearGradient>
    <linearGradient gradientUnits="userSpaceOnUse" gradientTransform="matrix(0.6004912,0,0,1.6653033,3203.6073,378.79599)" y2="124.90217" x2="211.8493" y1="0" x1="211.8493" id="grad-3213-bottom-back-6-1">
      <stop id="stop2053-8" stop-color="#91945b" offset="0"></stop>
      <stop id="stop2055-1" stop-color="#767a40" offset="1"></stop>
    </linearGradient>
    <linearGradient gradientUnits="userSpaceOnUse" gradientTransform="matrix(0.66262444,0,0,1.5091505,3203.6073,378.79599)" y2="138.5024" x2="131.79488" y1="0" x1="131.79488" id="grad-3213-bottom-front-7-0">
      <stop id="stop2058-9" stop-color="#afb46b" offset="0"></stop>
      <stop id="stop2060-7" stop-color="#959951" offset="1"></stop>
    </linearGradient>
    <linearGradient gradientTransform="matrix(0.75851332,0,0,1.3183684,3283.6073,183.79599)" y2="78.885384" x2="71.191895" y1="23.513912" x1="71.191895" gradientUnits="userSpaceOnUse" id="linearGradient2134-3" xlink:href="#grad-3213-skin-front"></linearGradient>
    <linearGradient gradientTransform="matrix(1.4142136,0,0,0.70710677,3223.6073,273.79599)" y2="117.37973" x2="135.7645" y1="72.124893" x1="135.7645" gradientUnits="userSpaceOnUse" id="linearGradient2140-9" xlink:href="#grad-3213-skin-back"></linearGradient>
    <linearGradient gradientTransform="matrix(0.81974047,0,0,1.2198983,3223.6073,273.79599)" y2="148.50153" x2="22.156717" y1="61.029419" x1="22.156717" gradientUnits="userSpaceOnUse" id="linearGradient2142-1" xlink:href="#grad-3213-skin-front"></linearGradient>
    <linearGradient gradientUnits="userSpaceOnUse" gradientTransform="matrix(1.0592072,0.09266862,-0.08197083,0.93693083,3229.3957,258.40208)" y2="114.69326" x2="116.1281" y1="9.9018717" x1="116.1281" id="grad-3213-top-back-8-2">
      <stop id="stop2063-6" stop-color="#a85021" offset="0"></stop>
      <stop id="stop2065-2" stop-color="#8e3607" offset="1"></stop>
    </linearGradient>
    <linearGradient gradientUnits="userSpaceOnUse" gradientTransform="matrix(0.92065624,0,0,1.0861817,3223.6073,273.79599)" y2="135.33647" x2="46.055882" y1="0" x1="46.055882" id="grad-3213-top-front-7-6">
      <stop id="stop2068-6" stop-color="#cc5d24" offset="0"></stop>
      <stop id="stop2070-5" stop-color="#b24309" offset="1"></stop>
    </linearGradient>
    <linearGradient gradientTransform="scale(0.75851332,1.3183684)" y2="78.885384" x2="71.191895" y1="23.513912" x1="71.191895" gradientUnits="userSpaceOnUse" id="linearGradient2333" xlink:href="#grad-3213-skin-front"></linearGradient>
    <linearGradient gradientTransform="scale(0.6437346,1.5534352)" y2="147.57634" x2="208.16032" y1="0" x1="208.16032" gradientUnits="userSpaceOnUse" id="linearGradient2335" xlink:href="#grad-3213-skin-back"></linearGradient>
    <linearGradient gradientTransform="scale(0.87963538,1.1368347)" y2="161.79903" x2="34.873375" y1="0" x1="34.873375" gradientUnits="userSpaceOnUse" id="linearGradient2337" xlink:href="#grad-3213-skin-front"></linearGradient>
    <linearGradient gradientUnits="userSpaceOnUse" gradientTransform="scale(0.68052836,1.4694465)" y2="148.64978" x2="187.56613" y1="0" x1="187.56613" id="grad-22546-bottom-back-2">
      <stop id="stop2252" stop-color="#7e6a94" offset="0"></stop>
      <stop id="stop2254" stop-color="#63507a" offset="1"></stop>
    </linearGradient>
    <linearGradient gradientUnits="userSpaceOnUse" gradientTransform="scale(0.80581525,1.2409792)" y2="166.71185" x2="53.932907" y1="0" x1="53.932907" id="grad-22546-bottom-front-6">
      <stop id="stop2257" stop-color="#977fb3" offset="0"></stop>
      <stop id="stop2259" stop-color="#7d6499" offset="1"></stop>
    </linearGradient>
    <linearGradient gradientTransform="scale(1.0974324,0.91121789)" y2="155.25706" x2="173.2083" y1="101.46896" x1="173.2083" gradientUnits="userSpaceOnUse" id="linearGradient2339" xlink:href="#grad-3213-skin-back"></linearGradient>
    <linearGradient gradientTransform="scale(0.75424697,1.3258257)" y2="131.35721" x2="29.383953" y1="50.873718" x1="29.383953" gradientUnits="userSpaceOnUse" id="linearGradient2341" xlink:href="#grad-3213-skin-front"></linearGradient>
    <linearGradient gradientUnits="userSpaceOnUse" gradientTransform="scale(0.96562051,1.0356035)" y2="116.26425" x2="127.13925" y1="7.2255588" x1="127.13925" id="grad-22546-top-back-6">
      <stop id="stop2262" stop-color="#55779d" offset="0"></stop>
      <stop id="stop2264" stop-color="#3b5c83" offset="1"></stop>
    </linearGradient>
    <linearGradient gradientUnits="userSpaceOnUse" gradientTransform="scale(0.92256121,1.0839389)" y2="137.50153" x2="43.575226" y1="-4.3645291" x1="43.575226" id="grad-22546-top-front-2">
      <stop id="stop2267" stop-color="#658ebf" offset="0"></stop>
      <stop id="stop2269" stop-color="#4a74a4" offset="1"></stop>
    </linearGradient>
    <linearGradient gradientTransform="scale(0.75851332,1.3183684)" y2="78.885384" x2="71.191895" y1="23.513912" x1="71.191895" gradientUnits="userSpaceOnUse" id="linearGradient2532" xlink:href="#grad-32244-skin-front"></linearGradient>
    <linearGradient gradientUnits="objectBoundingBox" y2="1" x2="0" y1="0" x1="0" id="grad-32244-skin-front">
      <stop id="stop3856" stop-color="#f6dda9" offset="0"></stop>
      <stop id="stop3858" stop-color="#e1c794" offset="1"></stop>
    </linearGradient>
    <linearGradient gradientTransform="scale(0.6437346,1.5534352)" y2="147.57634" x2="208.16032" y1="0" x1="208.16032" gradientUnits="userSpaceOnUse" id="linearGradient2534" xlink:href="#grad-32244-skin-back"></linearGradient>
    <linearGradient gradientUnits="objectBoundingBox" y2="1" x2="0" y1="0" x1="0" id="grad-32244-skin-back">
      <stop id="stop3861" stop-color="#dbc599" offset="0"></stop>
      <stop id="stop3863" stop-color="#c1ab7e" offset="1"></stop>
    </linearGradient>
    <linearGradient gradientTransform="scale(0.87963538,1.1368347)" y2="161.79903" x2="34.873375" y1="0" x1="34.873375" gradientUnits="userSpaceOnUse" id="linearGradient2536" xlink:href="#grad-32244-skin-front"></linearGradient>
    <linearGradient gradientUnits="userSpaceOnUse" gradientTransform="scale(0.68052836,1.4694465)" y2="148.64978" x2="187.56613" y1="0" x1="187.56613" id="grad-32244-bottom-back-9">
      <stop id="stop2451" stop-color="#915e3e" offset="0"></stop>
      <stop id="stop2453" stop-color="#764424" offset="1"></stop>
    </linearGradient>
    <linearGradient gradientUnits="userSpaceOnUse" gradientTransform="scale(0.80581525,1.2409792)" y2="166.71185" x2="53.932907" y1="0" x1="53.932907" id="grad-32244-bottom-front-7">
      <stop id="stop2456" stop-color="#af6f48" offset="0"></stop>
      <stop id="stop2458" stop-color="#95552d" offset="1"></stop>
    </linearGradient>
    <linearGradient gradientTransform="scale(1.1265325,0.88767965)" y2="216.78912" x2="220.14455" y1="165.60028" x1="220.14455" gradientUnits="userSpaceOnUse" id="linearGradient2538" xlink:href="#grad-32244-skin-back"></linearGradient>
    <linearGradient gradientTransform="scale(0.90748521,1.1019463)" y2="242.29855" x2="57.301208" y1="165.16231" x1="57.301208" gradientUnits="userSpaceOnUse" id="linearGradient2540" xlink:href="#grad-32244-skin-front"></linearGradient>
    <linearGradient gradientUnits="userSpaceOnUse" gradientTransform="scale(0.95438041,1.0478002)" y2="197.82999" x2="189.60239" y1="95.881897" x1="189.60239" id="grad-32244-top-back-0">
      <stop id="stop2461" stop-color="#55779d" offset="0"></stop>
      <stop id="stop2463" stop-color="#3b5c83" offset="1"></stop>
    </linearGradient>
    <linearGradient gradientUnits="userSpaceOnUse" gradientTransform="scale(0.90592462,1.1038446)" y2="221.95152" x2="84.996033" y1="90.592461" x1="84.996033" id="grad-32244-top-front-3">
      <stop id="stop2466" stop-color="#658ebf" offset="0"></stop>
      <stop id="stop2468" stop-color="#4a74a4" offset="1"></stop>
    </linearGradient>
    <linearGradient gradientTransform="scale(0.75851332,1.3183684)" y2="78.885384" x2="71.191895" y1="23.513912" x1="71.191895" gradientUnits="userSpaceOnUse" id="linearGradient2741" xlink:href="#grad-3342-skin-front"></linearGradient>
    <linearGradient gradientUnits="objectBoundingBox" y2="1" x2="0" y1="0" x1="0" id="grad-3342-skin-front">
      <stop id="stop4134" stop-color="#dfc09f" offset="0"></stop>
      <stop id="stop4136" stop-color="#caab8a" offset="1"></stop>
    </linearGradient>
    <linearGradient gradientTransform="scale(0.67073312,1.4909059)" y2="160.30688" x2="190.83595" y1="0" x1="190.83595" gradientUnits="userSpaceOnUse" id="linearGradient2743" xlink:href="#grad-3342-skin-back"></linearGradient>
    <linearGradient gradientUnits="objectBoundingBox" y2="1" x2="0" y1="0" x1="0" id="grad-3342-skin-back">
      <stop id="stop4139" stop-color="#c8ad91" offset="0"></stop>
      <stop id="stop4141" stop-color="#ad9276" offset="1"></stop>
    </linearGradient>
    <linearGradient gradientTransform="scale(0.59649189,1.6764687)" y2="142.59532" x2="144.47047" y1="0" x1="144.47047" gradientUnits="userSpaceOnUse" id="linearGradient2745" xlink:href="#grad-3342-skin-front"></linearGradient>
    <linearGradient gradientUnits="userSpaceOnUse" gradientTransform="scale(1.0173261,0.98296898)" y2="63.765511" x2="120.90518" y1="0" x1="120.90518" id="grad-3342-bottom-back-7">
      <stop id="stop2654" stop-color="#9d3a21" offset="0"></stop>
      <stop id="stop2656" stop-color="#832007" offset="1"></stop>
    </linearGradient>
    <linearGradient gradientUnits="userSpaceOnUse" gradientTransform="scale(1.0219226,0.9785477)" y2="64.053619" x2="106.78471" y1="0" x1="106.78471" id="grad-3342-bottom-front-2">
      <stop id="stop2659" stop-color="#bf4224" offset="0"></stop>
      <stop id="stop2661" stop-color="#a42809" offset="1"></stop>
    </linearGradient>
    <linearGradient gradientTransform="scale(1.1863576,0.84291615)" y2="280.26282" x2="197.0146" y1="228.03156" x1="197.0146" gradientUnits="userSpaceOnUse" id="linearGradient2747" xlink:href="#grad-3342-skin-back"></linearGradient>
    <linearGradient gradientTransform="scale(0.79026085,1.265405)" y2="222.18719" x2="106.49997" y1="152.53606" x1="106.49997" gradientUnits="userSpaceOnUse" id="linearGradient2749" xlink:href="#grad-3342-skin-front"></linearGradient>
    <linearGradient gradientUnits="userSpaceOnUse" gradientTransform="scale(0.87851983,1.1382782)" y2="197.44524" x2="202.18118" y1="91.233284" x1="202.18118" id="grad-3342-top-back-3">
      <stop id="stop2664" stop-color="#b5ae4c" offset="0"></stop>
      <stop id="stop2666" stop-color="#9a9432" offset="1"></stop>
    </linearGradient>
    <linearGradient gradientUnits="userSpaceOnUse" gradientTransform="scale(0.755858,1.3229998)" y2="193.49965" x2="138.73859" y1="72.930283" x1="138.73859" id="grad-3342-top-front-5">
      <stop id="stop2669" stop-color="#dbd459" offset="0"></stop>
      <stop id="stop2671" stop-color="#c1ba3f" offset="1"></stop>
    </linearGradient>
  </defs>
  <metadata id="metadata4775"></metadata>
  <g id="layer1" transform="translate(-51.283601,-144.58555)">
    <g id="g3971" transform="matrix(1.9124128,0,0,1.9124128,-70.638681,-190.50039)">
      <g transform="matrix(0.02645833,0,0,0.02645833,62.967998,174.61383)" id="g1340">
        <path id="path1271" d="m 95.762012,45.290167 c 3.447021,12.70215 3.786177,35.474968 -5.282327,45.732299 H 70.117269 c -0.003,-0.05145 -0.0059,-0.102775 -0.0087,-0.153967 C 59.359906,89.678999 51,80.56578 51,69.5 v -21 C 51,36.625878 60.625878,27 72.5,27 h 2 c 10.783298,0 19.71245,7.938538 21.262012,18.290167 z" transform="translate(110,10)" fill-rule="evenodd" fill="#100926"></path>
        <path style="fill:url(#linearGradient1342)" id="path1273" d="m 62.262274,65.490127 c -4.60791,-5.408751 -7.726639,-12.03725 -7.205498,-19.464673 1.501554,-21.400475 31.291755,-16.692643 37.086565,-5.891521 5.794811,10.801122 5.106237,38.199063 -2.38304,40.129525 -2.986713,0.769865 -9.3493,-1.115997 -15.824929,-5.019152 L 78,104 H 54 Z" transform="translate(110,10)" fill-rule="evenodd" fill="url(#grad-1208-skin-front)"></path>
        <path id="path1275" d="M 67.869094,90.537127 H 47.987812 C 41.208841,73.960007 40.414704,54.000688 43.680238,46.464837 49.096683,33.965346 56.910551,26.400059 72.417476,26.10219 c 11.597009,-0.222764 20.583605,5.706103 23.344536,19.187977 -1.327671,0.254787 -2.93831,1.071642 -2.93831,1.071642 l -3.355034,-5.283209 0.74346,5.935752 -4.084033,1.390101 -3.437636,-5.250417 0.08599,6.117601 c -4.018223,1.346487 -9.479208,0.923024 -9.479208,0.923024 0,0 -0.403325,-2.80396 -1.167543,-5.050583 -3.567359,4.06165 -3.059011,8.940018 -3.525718,12.351173 -2.925849,11.461307 -4.770718,22.2491 -0.734886,33.041876 z" transform="translate(110,10)" fill-rule="evenodd" fill="#100926"></path>
        <path style="fill:url(#grad-1208-bottom-back-0)" id="path1277" d="m 86.343041,89.801483 c 23.989349,6.709846 55.751419,18.351367 73.156639,18.351367 17.40522,0 33.57199,-5.16653 48.50032,-15.499576 -23.47576,-6.887051 -42.80909,-10.330576 -58,-10.330576 -15.19091,0 -43.78641,-3.031466 -63.656959,7.478785 z" transform="translate(30,205)" fill="url(#grad-1208-bottom-back)"></path>
        <path style="fill:url(#linearGradient1344)" id="path1279" d="m 120,0 c 5.11688,16.725534 56.47896,108.20939 59.68555,116.68945 0.15494,0.40976 0.35072,0.78703 0.58203,1.13477 2.03499,9.36017 6.18766,25.88363 11.28906,44.25 5.18008,18.64957 21.2359,52.53528 22.01973,60.98481 0.15931,6.35823 -0.97168,3.88976 -2.01496,8.18372 -0.86445,3.55789 -0.38026,3.47288 0.59184,7.54805 l 53.0203,0.27389 c 1.46569,-4.84549 -1.70944,-5.87935 -4.86728,-6.26571 -3.15783,-0.38635 -5.4049,0.056 -8.85385,-1.8217 -11.98986,-4.69651 -20.88847,-6.36763 -23.85866,-10.19405 C 218.94517,193.32982 211.93042,142.85335 201.69141,108.44141 199.22711,92.519516 181.71661,12.716659 177.82617,0 Z" transform="translate(30,205)" fill="url(#grad-1208-skin-back)"></path>
        <path id="path1281" d="m 209.11069,222.29761 c 1.40725,4.17068 0.0812,7.09902 0.0812,8.5817 0,1.80328 0.30042,4.43473 0.90124,7.89433 h 56.40181 c 1.46569,-4.8455 -0.1442,-6.48758 -3.30204,-6.87394 -3.15784,-0.38636 -5.48841,-0.3714 -7.57711,-0.68274 -6.70511,-1.10388 -28.02206,-10.43373 -28.4649,-13.23958 -2.0992,-13.30054 0.74655,-22.92102 -0.26252,-34.54143 -14.58915,2.14238 -24.44651,9.8097 -24.44651,9.8097 3.37718,16.35337 3.25201,18.92562 6.6688,29.05196 z" transform="translate(30,205)" fill="#c66f58"></path>
        <path style="fill:url(#linearGradient1346)" id="path1283" d="m 116.83398,0 c -2.49193,14.293546 1.31089,80.474061 2.14258,108.05078 -9.81726,1.56108 -24.440233,4.22718 -40.464841,7.49414 -18.961114,3.86563 -49.429191,13.01261 -62.626953,17.60547 -4.881134,0.49949 -3.017883,-1.1655 -9.2703533,-0.93418 -3.3174259,0.12273 -3.6897909,0.76494 -5.86848288,2.86238 0.36326128,2.06015 2.74283298,16.61324 8.90895298,51.58305 5.0263922,0.602 5.3222542,-1.33506 5.1543912,-4.51202 -0.167865,-3.17695 -0.301915,-5.38292 0.116544,-7.45283 1.86501,-9.2253 1.942163,-26.88339 6.343717,-28.03677 17.340127,-2.90291 90.301495,-12.26083 111.687495,-17.66602 3.95186,-0.11169 7.50772,-1.69169 8.69922,-5.26562 C 145.41076,113.71768 165.6104,13.706549 168,0 Z" transform="translate(30,205)" fill="url(#grad-1208-skin-front)"></path>
        <path id="path1285" d="m 16.66253,129.82075 c -4.376759,-0.46789 -7.918155,0.11883 -9.3775335,0.38066 -1.7749401,0.31844 -4.3119833,1.07883 -7.61111344,2.28115 l 9.96007454,55.51541 c 5.0281774,0.58698 6.3601584,-1.28759 6.1827994,-4.46403 -0.17736,-3.17644 -0.603643,-5.46774 -0.666043,-7.57859 -0.09753,-6.79467 5.4052,-28.3324 8.160034,-29.02507 13.267689,-3.33602 22.318215,-1.05499 33.577809,-4.10027 -6.778337,-13.64035 -8.038497,-18.27969 -9.176951,-25.03002 -10.584474,3.0511 -17.621725,11.06306 -31.049076,12.02076 z" transform="translate(30,205)" fill="#c66f58"></path>
        <path style="fill:url(#grad-1208-bottom-front-0)" id="path1287" d="m 117,0 c 22.54684,-6.4507391 43.88017,-6.4507391 64,0 7,31.937468 15.79081,45.22671 27,93.578926 C 174,110.47272 121.34304,73.326629 86.343041,89.801483 97.006824,66.088944 101,19.464518 117,0 Z" transform="translate(30,205)" fill="url(#grad-1208-bottom-front)"></path>
        <path style="fill:url(#linearGradient1348)" id="path1289" d="m 188.10685,69.168125 31.89828,23.423599 c 8.65146,2.334478 15.87949,5.238963 21.68406,8.713456 1.37114,1.2494 3.0283,3.77966 -2.65816,3.34237 -5.68646,-0.43729 -11.68742,-0.64152 -12.47204,1.29804 -0.78462,1.93957 2.65651,4.25907 1.07045,6.87605 -1.05737,1.74465 -6.05282,-2.63 -14.98636,-13.12395 L 181.05542,86.599087 Z" transform="translate(50,100)" fill="url(#grad-1208-skin-back)"></path>
        <path style="fill:url(#linearGradient1350)" id="path1291" d="m 191.45624,2.3408227 37.90378,-11.3784184 c 7.07098,-5.5044453 13.74054,-9.5290373 20.00867,-12.0737763 1.82299,-0.343131 4.84104,-0.143849 1.06961,4.134388 -3.77143,4.278237 -7.546,8.9479162 -6.46919,10.7417995 1.0768,1.7938833 5.00017,0.4415829 6.13566,3.2832025 0.757,1.894413 -5.74309,3.25123133 -19.50026,4.0704549 L 201.13357,18.46256 Z" transform="translate(50,100)" fill="url(#grad-1208-skin-front)"></path>
        <path style="fill:url(#grad-1208-top-back-8)" id="path1293" d="m 126.98494,15.649923 c 25.16186,26.790029 55.85087,44.271704 97.70583,59.777838 L 215.39606,94.01362 C 172.21136,89.941921 149.12405,86.690012 131.02487,59.858662 126.48234,53.124537 118.36003,29.953677 113.49418,17.921014 Z" transform="rotate(15,-185.69524,294.72562)" fill="url(#grad-1208-top-back)"></path>
        <path id="path1295" d="m 90,114 h 77 C 149.55821,60.805381 140.64828,24.295902 140.27022,4.4715615 140.25094,3.4608975 138.38438,1.6799647 137.55857,1.9131937 131.51952,3.6187722 125.05727,2.981041 118.1718,0 99.917485,29.358407 93.604826,65.50455 90,114 Z" transform="translate(50,100)" fill="#d78131"></path>
        <path style="fill:url(#grad-1208-top-front-6)" id="path1297" d="M 124.7425,0.04739537 C 146.81424,0.22813024 182.624,4.2586563 223.92267,-9 L 228,11.37348 c -31.21315,20.074749 -62.81908,35.625586 -90.51375,33.417274 12.02619,51.586345 11.47173,93.815216 -15.07878,93.815216 -12.67919,0 -26.364634,0 -41.056343,0 C 74.830431,94.783947 91.968095,34.023615 107.85595,3.3765943 108.46267,2.2062769 109.75441,0 112.797,0 c 2.65106,0 6.62765,0 11.92976,0 0.005,0.01579847 0.0105,0.03159693 0.0157,0.04739537 z" transform="translate(50,100)" fill="url(#grad-1208-top-front)"></path>
        <path id="path1299" d="m 199.33562,65.599815 c 0,4.484575 -1.80395,8.120041 -4.02924,8.120041 -2.22529,0 -4.02924,-3.635466 -4.02924,-8.120041 0,-4.484575 1.80395,-8.120041 4.02924,-8.120041 2.22529,0 4.02924,3.635466 4.02924,8.120041 z" fill="#9b3c26"></path>
        <path id="path1301" d="m 211.18424,64.595413 c 0,4.497844 -1.76092,8.144068 -3.93313,8.144068 -2.17221,0 -3.93313,-3.646224 -3.93313,-8.144068 0,-4.497844 1.76092,-8.144068 3.93313,-8.144068 2.17221,0 3.93313,3.646224 3.93313,8.144068 z" fill="#9b3c26"></path>
        <path id="path1303" d="m 206.73047,55.677734 c -0.98675,0.03721 -1.7792,0.602204 -2.35352,1.296875 -0.57431,0.694672 -0.98829,1.54162 -1.33593,2.359375 -0.77178,1.815412 -0.85429,4.049193 -0.8711,4.792969 l -2.1875,0.449219 c -0.044,-0.886937 -0.16476,-2.498545 -0.73242,-4.150391 l -0.006,-0.01367 -0.004,-0.01367 c -0.36511,-0.93677 -0.8044,-1.817943 -1.41015,-2.517579 -0.60576,-0.699636 -1.43029,-1.220156 -2.41797,-1.259765 -0.83897,-0.03365 -1.59266,0.324483 -2.16211,0.871094 -0.56945,0.54661 -0.99985,1.268769 -1.37695,2.083984 -0.68756,1.486358 -0.98745,3.043613 -1.1211,4.80664 -2.84736,-1.64392 -4.93694,-2.851111 -5.75976,-3.326171 -0.47827,-0.276126 -0.71832,-0.413389 -0.83789,-0.482422 -0.0598,-0.03451 -0.0886,-0.05192 -0.10352,-0.06055 -0.007,-0.0043 -0.0118,-0.0067 -0.0137,-0.0078 0,0 -0.002,0 -0.002,0 0,0 -0.34961,0.605469 -0.34961,0.605469 v -0.701172 c 0,0 -0.0588,0.379973 0,0.820313 v 0.580078 c 0,0 -0.35107,-0.09327 0.60547,0.458984 0.91073,0.525815 2.90629,1.675913 6.37695,3.679688 0.0402,1.87292 0.24731,3.269911 0.96875,4.992187 0.38458,0.918088 0.81122,1.742803 1.38867,2.382813 0.57745,0.640009 1.36326,1.091557 2.27539,1.089843 0.99468,-0.0019 1.85591,-0.476001 2.48438,-1.18164 0.62846,-0.705639 1.07891,-1.629442 1.46875,-2.681641 0.3354,-0.905266 0.50754,-2.137326 0.62304,-3.1875 0.0823,-0.748609 0.0941,-1.046427 0.11328,-1.357422 l 0.88672,-0.183593 1.35157,-0.277344 c 0.0357,0.394017 0.0442,0.640828 0.16601,1.43164 0.18907,1.22776 0.47634,2.681494 1.02539,3.751954 0.49047,0.956244 0.95557,1.656057 1.5332,2.144531 0.57764,0.488474 1.28572,0.716171 2.01172,0.703125 0.90763,-0.01631 1.6606,-0.587386 2.27735,-1.337891 0.61675,-0.750505 1.12467,-1.732723 1.48242,-2.822265 0.70339,-2.142182 0.81289,-4.157768 0.73047,-5.714844 -0.0801,-1.512209 -0.22783,-3.262569 -1.0293,-4.882813 -0.43784,-0.88514 -0.87884,-1.64736 -1.46094,-2.224609 -0.58209,-0.577249 -1.36072,-0.948961 -2.23437,-0.916016 z m 0.0527,1.400391 c 0.49211,-0.01856 0.80998,0.127639 1.19532,0.509766 0.38533,0.382126 0.78366,1.021371 1.19336,1.849609 0.65095,1.315965 0.80682,2.865611 0.88476,4.337891 0.0756,1.427411 -0.0267,3.267971 -0.66211,5.203125 -0.31165,0.949126 -0.76309,1.797605 -1.23437,2.371093 -0.47128,0.573489 -0.93669,0.821103 -1.21875,0.826172 -0.46369,0.0083 -0.74079,-0.08118 -1.08594,-0.373047 -0.34515,-0.29187 -0.7399,-0.836424 -1.18945,-1.71289 -0.39097,-0.762251 -0.70719,-2.16032 -0.88672,-3.326172 -0.17671,-1.147466 -0.24016,-2.043248 -0.24219,-2.072266 0.001,-0.04449 0.10473,-3.191638 0.79297,-4.810547 0.32437,-0.762998 0.70255,-1.502691 1.125,-2.013671 0.42245,-0.510981 0.83017,-0.770285 1.32812,-0.789063 z m -11.42578,0.941406 c 0.55193,0.02213 0.97801,0.273706 1.41406,0.777344 0.43369,0.500903 0.8261,1.250302 1.15821,2.099609 0.62911,1.843666 0.70389,4.472957 0.70508,4.515625 -9.6e-4,0.01895 -0.0392,0.805359 -0.14844,1.798829 -0.11058,1.005343 -0.30844,2.215226 -0.54492,2.853515 -0.35756,0.965077 -0.76441,1.743733 -1.20313,2.236328 -0.43872,0.492596 -0.85355,0.711779 -1.43945,0.712891 -0.4827,9.07e-4 -0.83621,-0.185647 -1.23438,-0.626953 -0.39817,-0.441306 -0.78234,-1.140347 -1.13672,-1.986328 -0.71762,-1.713182 -0.87801,-2.83117 -0.89062,-4.863282 0.0475,-2.181534 0.35631,-3.749288 1.10742,-5.373047 0.33596,-0.726264 0.70401,-1.306747 1.07422,-1.662109 0.37021,-0.355362 0.69771,-0.500106 1.13867,-0.482422 z" fill="#426ae0"></path>
      </g>
      <g transform="matrix(0.02645833,0,0,0.02645833,70.405948,174.61554)" id="g1532">
        <path id="path1478" d="m 61,77.706859 c 11.428938,0 15.585497,-13.682775 22.078619,-21.191511 C 87.724314,51.143002 95.65308,52.744944 98,45.223776 103.90154,26.311124 88.106109,13 67.5,13 46.893891,13 33,24.674252 30,42.223776 27,59.7733 40.393891,77.706859 61,77.706859 Z" transform="translate(110,10)" fill="#0c0d15"></path>
        <path style="fill:url(#linearGradient1534)" id="path1480" d="m 62.262274,65.490127 c -4.60791,-5.408751 -7.726639,-12.03725 -7.205498,-19.464673 1.501554,-21.400475 31.291755,-16.692643 37.086565,-5.891521 5.794811,10.801122 5.106237,38.199063 -2.38304,40.129525 -2.986713,0.769865 -9.3493,-1.115997 -15.824929,-5.019152 L 78,104 H 54 Z" transform="translate(110,10)" fill="url(#grad-7158-skin-front)"></path>
        <path id="path1482" d="M 72.379769,51.723368 C 71.507774,51.26203 70.50862,51 69.446668,51 c -3.400209,0 -6.156624,2.686292 -6.156624,6 0,1.352489 0.459181,2.600459 1.233901,3.603923 -1.458755,2.40446 -2.454362,4.930758 -2.780706,7.52785 C 56.687035,68.131773 38.23358,49 56.61679,31 75,13 101.56601,38.69596 93.583161,40.194527 88.993429,41.056126 79.749848,45.437908 72.379772,51.723366 Z" transform="translate(110,10)" fill="#0c0d15"></path>
        <path style="fill:url(#grad-7158-bottom-back-2)" id="path1484" d="M 176.08164,127.22691 209.78333,221 H 229 L 182.67369,0 H 128 Z" transform="translate(30,205)" fill="url(#grad-7158-bottom-back)"></path>
        <path style="fill:url(#grad-7158-bottom-front-3)" id="path1486" d="m 116.11663,0 c -0.52265,43.654189 -0.1448,102.42747 -1.36256,105.14865 C 113.94223,106.96277 88.690872,127.63231 39,167.15726 L 48.90498,184 c 58.9945,-38.0442 89.99982,-59.60066 93.01596,-64.66937 C 146.44514,111.72756 169.1744,41.763137 181,0 Z" transform="translate(30,205)" fill="url(#grad-7158-bottom-front)"></path>
        <path id="path1488" d="m 21.574091,178.49139 16.729721,-12.73249 13.498539,16.08693 c 1.038313,12.12748 5.053633,25.72852 12.045962,40.80312 l -3.064178,2.57115 -24.425929,-29.10968 -6.82415,-11.24416 -1.532089,1.28558 z" transform="translate(30,205)" fill="#d5280e"></path>
        <path id="path1490" d="m 208,239 1,-21 h 21 c 9.9576,7 22.9576,12.66667 39,17 v 4 h -38 l -13,-2 v 2 z" transform="translate(30,205)" fill="#d5280e"></path>
        <path style="fill:url(#grad-7158-skin-back-8)" id="path1492" d="m 158.63804,42.700233 34.70978,-19.010411 c 5.77202,-6.8543 11.45908,-12.177624 17.06116,-15.9699721 1.71181,-0.7146548 4.70534,-1.1472149 1.90582,3.8216571 -2.79952,4.968872 -5.52073,10.321284 -4.09448,11.852086 1.42624,1.530802 4.98272,-0.607661 6.6842,1.93578 1.13433,1.695627 -4.94162,4.37424 -18.22784,8.035839 l -25.22089,23.09243 z" transform="translate(50,100)" fill="url(#grad-7158-skin-back)"></path>
        <path style="fill:url(#linearGradient1536)" id="path1494" d="m 213,58.73984 15.24652,-8.375633 c 2.13931,-8.140296 4.69658,-12.235954 7.67183,-12.286975 2.28561,-1.063471 -1.69476,9.222553 2.63803,8.330551 4.33279,-0.892003 14.90791,-8.757094 16.73005,-7.160183 2.69575,2.362526 0.29205,9.616852 -2.54007,13.225491 -5.29323,6.744541 -9.67579,9.05097 -20.50798,12.071254 -5.66363,1.57916 -11.78702,4.74445 -18.37016,9.495871 z" transform="translate(50,100)" fill="url(#grad-7158-skin-front)"></path>
        <path style="fill:url(#grad-7158-top-back-5)" id="path1496" d="m 142.85799,34.750302 c 12.02801,1.775014 28.4423,1.775014 47.24557,-6.364152 l 4.33989,16.026157 c -13.63764,9.829249 -31.73074,16.814209 -46.15576,14.112389 -11.36771,-2.129183 -15.01597,-16.865151 -5.4297,-23.774394 z" transform="rotate(-9,826.20852,-223.90706)" fill="url(#grad-7158-top-back)"></path>
        <path style="fill:url(#grad-7158-top-front-0)" id="path1498" d="m 158.10427,62.761234 c 12.90679,3.218871 34.55068,-0.577067 64.93166,-11.387813 7.53574,15.590098 11.01933,26.704642 10.45075,33.343633 -26.06241,13.613995 -48.40014,19.683776 -66.80345,20.084476 0.58483,10.91984 -0.74431,21.31032 -5.2093,30.80444 -9.17925,19.51829 -62.928872,1.44217 -81.001142,5 C 69.155401,103.85132 91.037911,88.914381 91.055518,65.396616 91.074799,39.642157 111.75441,0 114.797,0 h 27.74675 c 1.53095,19.669019 9.23665,41.345983 15.56052,62.761234 z" transform="translate(50,100)" fill="url(#grad-7158-top-front)"></path>
      </g>
      <g id="g6874" transform="matrix(0.02645833,0,0,0.02645833,63.753118,171.02346)">
        <path style="fill:url(#linearGradient1715)" id="path1662-8" d="m 730.07119,211.2537 c -4.60791,-5.40875 -7.72664,-12.03725 -7.20549,-19.46468 1.50155,-21.40047 31.29175,-16.69264 37.08656,-5.89152 5.79481,10.80112 5.10624,38.19907 -2.38304,40.12953 -2.98671,0.76986 -9.3493,-1.116 -15.82493,-5.01915 l 4.06463,28.75569 h -24 z" fill-rule="evenodd" fill="url(#grad-30265-skin-front)"></path>
        <path id="path1664-3" d="m 770.58462,170.92401 c -0.49699,-1.74694 -1.83377,-3.24269 -3.6353,-3.68643 -0.43687,-0.10764 -0.88804,-0.15111 -1.33757,-0.13299 -0.16125,0.006 -0.20647,0.0529 -0.28182,-0.0598 -0.0559,-0.0836 -0.0571,-0.28784 -0.0802,-0.38608 -0.0716,-0.30551 -0.16111,-0.6072 -0.2716,-0.90109 -0.37694,-1.00235 -1.01039,-1.88944 -1.77404,-2.63672 -1.42835,-1.39803 -3.3583,-2.36288 -5.3634,-2.53744 -1.09741,-0.0955 -2.18685,0.0828 -3.22433,0.43981 -0.53714,0.1848 -1.058,0.41491 -1.56527,0.66933 -0.15274,0.0766 -0.64828,0.45162 -0.80155,0.42733 -0.16929,-0.0268 -0.50952,-0.44749 -0.64716,-0.55309 -1.7014,-1.30536 -3.80242,-1.81859 -5.92163,-1.8029 -2.392,0.0177 -4.69534,0.13719 -6.69028,1.59537 -0.4223,0.30873 -0.8245,0.64674 -1.20744,1.00262 -0.20166,0.18736 -0.39699,0.38175 -0.58328,0.58421 -0.1124,0.12215 -0.22183,0.24706 -0.32718,0.37532 -0.17878,0.2177 -0.1501,0.28922 -0.40035,0.13732 -0.96009,-0.5833 -2.07267,-0.8561 -3.19329,-0.71839 -0.66542,0.0818 -1.31284,0.2816 -1.92757,0.54455 -0.20931,0.0895 -0.69377,0.44657 -0.91685,0.45005 -0.22131,0.003 -0.69898,-0.32757 -0.92694,-0.41169 -1.23124,-0.45452 -2.55832,-0.56655 -3.85245,-0.35654 -1.33493,0.21672 -2.64626,0.74932 -3.7773,1.48531 -0.54399,0.35403 -1.01863,0.74629 -1.39986,1.27272 -0.16461,0.22729 -0.3134,0.46771 -0.49996,0.67845 -0.10923,0.1234 -0.32552,0.25002 -0.38413,0.40619 0.0351,-0.0935 -1.45992,-0.66986 -1.601,-0.7067 -0.75158,-0.19629 -1.51687,-0.1565 -2.25283,0.0857 -1.38392,0.45544 -2.57408,1.47677 -3.55224,2.5239 -0.5024,0.53786 -0.94203,1.13239 -1.31522,1.76579 -0.17885,0.30341 -0.3424,0.61548 -0.49205,0.93418 -0.0725,0.1544 -0.12057,0.34754 -0.21609,0.48663 -0.12315,0.17922 -0.20588,0.18264 -0.42889,0.26079 -1.13262,0.39679 -2.1651,1.06841 -2.95136,1.97593 -0.79529,0.91816 -1.31133,2.04884 -1.52769,3.23953 -0.0127,0.0701 -0.0203,0.3608 -0.0614,0.39876 -0.0563,0.0523 -0.28406,0.0292 -0.37022,0.0393 -0.29836,0.035 -0.59462,0.0871 -0.88692,0.1563 -0.53885,0.12754 -1.06333,0.31523 -1.55946,0.56071 -1.93404,0.95691 -3.3171,2.75087 -3.99399,4.76949 -0.71025,2.11844 -0.69766,4.54548 0.15123,6.62439 0.13712,0.33578 0.30027,0.66171 0.49191,0.97004 0.11767,0.18927 0.15564,0.18973 0.0792,0.38832 -0.0852,0.22092 -0.24075,0.4356 -0.34187,0.65146 -0.32995,0.70447 -0.56061,1.45162 -0.7063,2.21472 -0.23903,1.25178 -0.3575,2.56725 -0.12169,3.82855 0.1095,0.58566 0.30028,1.15819 0.59132,1.67982 0.1484,0.26597 0.32204,0.51822 0.51809,0.75155 0.10178,0.12116 0.2099,0.23688 0.32295,0.34773 0.0647,0.0633 0.14945,0.11874 0.20443,0.18946 0.13422,0.17246 0.16243,0.0307 0.0932,0.2839 -0.0968,0.35404 -0.31616,0.70335 -0.45051,1.04787 -0.13844,0.35502 -0.26356,0.7149 -0.378,1.07833 -0.23179,0.73592 -0.42778,1.48517 -0.55033,2.24729 -0.23534,1.46324 -0.19401,3.02235 0.49812,4.36528 0.29592,0.57443 0.72046,1.07833 1.23538,1.47033 0.25203,0.19176 0.52501,0.35706 0.81138,0.4928 0.14714,0.0699 0.33502,0.0998 0.40213,0.24213 0.0722,0.15302 -0.035,0.45688 -0.0595,0.62796 -0.2128,1.48825 -0.31953,3.05085 0.12288,4.50929 0.40746,1.34332 1.3046,2.52936 2.46939,3.3146 2.25963,1.52326 5.30551,1.43736 7.67978,0.2179 0.61888,-0.31792 1.19788,-0.71261 1.71438,-1.17816 1.31522,1.77052 4.02168,1.7145 5.94391,1.21001 2.39484,-0.62848 4.31648,-2.29373 5.42365,-4.48165 1.51391,1.84295 4.69112,1.24501 5.74093,-0.75431 0.25697,-0.48932 0.40938,-1.02862 0.4844,-1.57435 0.0395,-0.28699 0.0143,-0.57647 0.044,-0.86116 0.0378,-0.36277 0.28017,-0.7153 0.41947,-1.06625 0.27127,-0.68298 0.4397,-1.3885 0.44695,-2.12521 0.004,-0.38464 -0.045,-0.75949 -0.0815,-1.14105 -0.0329,-0.34346 0.0624,-0.66348 0.11649,-1.00248 -0.6142,0.10114 -1.36249,-0.0645 -1.94116,-0.24259 -0.56785,-0.17475 -1.09972,-0.63505 -1.50053,-1.05541 -0.93063,-0.97615 -1.49914,-2.25577 -1.88795,-3.52934 -0.8535,-2.79526 -0.50365,-6.14893 2.30788,-7.68303 1.30975,-0.71464 5.23359,-0.7123 6.79356,-0.35909 1.64024,0.37137 3.49972,3.99062 3.59122,4.3308 0.0566,0.21054 0.0281,0.47113 0.22157,0.6114 0.42507,0.30847 1.12609,-0.22683 1.43961,-0.49102 0.54103,-0.45596 0.92694,-1.06264 1.26117,-1.67759 0.72825,-1.33971 1.31535,-2.77642 1.73007,-4.24307 0.31973,-1.13074 0.52415,-2.29674 0.94203,-3.39865 0.41584,-1.09646 1.07138,-2.07648 2.09061,-2.6976 1.10875,-0.6757 2.37967,-1.03158 3.59687,-1.45621 1.20651,-0.42083 2.39219,-0.93517 3.32744,-1.82811 0.20561,-0.19636 0.40535,-0.405 0.57089,-0.63617 0.13065,-0.1825 0.2598,-0.53187 0.45888,-0.64759 0.30951,-0.18 0.76121,0.2881 1.02886,0.45806 1.32043,0.83863 2.42206,2.00825 3.31056,3.28596 0.88356,1.27076 1.60856,2.4935 2.19771,3.91247 0.43701,1.0524 0.70974,2.40018 1.47833,3.26265 0.34313,0.3851 2.89367,0.61808 3.71982,0.28187 0.82614,-0.33622 1.75202,-1.20922 2.02929,-1.75634 0.28386,-0.55998 0.35169,-1.17513 0.2304,-1.78818 -0.0713,-0.36067 -0.21702,-0.69756 -0.29672,-1.0518 -0.0671,-0.29756 -0.12802,-0.57883 -0.27285,-0.85143 -0.27451,-0.51658 -0.74348,-0.88789 -1.30903,-1.04314 0.58856,-0.54264 1.07625,-1.19181 1.41371,-1.91749 0.35064,-0.75391 0.64782,-1.67075 0.73214,-2.49822 0.0686,-0.67209 -0.0373,-1.36841 -0.40516,-1.94599 -0.38598,-0.60589 -1.06973,-1.00117 -1.66132,-1.37911 0.90367,-0.70703 1.67707,-1.56687 2.31289,-2.51885 1.23652,-1.85129 2.00135,-4.18488 1.37337,-6.39198 z" fill-rule="evenodd" fill="#ada363"></path>
        <path style="fill:url(#grad-30265-bottom-back-5)" id="path1666" d="m 797.80892,561.76357 -28.10903,-221 h -53.89097 l 36.25496,127.22691 26.452,93.77309 z" fill="url(#grad-30265-bottom-back)"></path>
        <path style="fill:url(#grad-30265-bottom-front-9)" id="path1668" d="m 706.11326,340.76357 c -0.83857,65.57422 -3.69809,101.34019 -4.57856,107.29789 -0.88047,5.95771 -14.19361,43.85841 -39.93942,113.70211 h 19.98629 c 32.77638,-67.0031 51.073,-104.9038 54.88985,-113.70211 3.81685,-8.79831 15.59601,-44.56427 33.3375,-107.29789 z" fill="url(#grad-30265-bottom-front)"></path>
        <path id="path1670" d="m 659.80892,579.76357 1,-21 h 21 c 9.9576,7 22.9576,12.66667 39,17 v 4 h -38 l -13,-2 v 2 z" fill="#a7a0a0"></path>
        <path id="path1672" d="m 775.80892,579.76357 1,-21 h 21 c 9.9576,7 22.9576,12.66667 39,17 v 4 h -38 l -13,-2 v 2 z" fill="#a7a0a0"></path>
        <path style="fill:url(#grad-30265-skin-back-2)" id="path1674-1" d="m 781.30773,316.36737 c 3.90196,2.04342 60.73576,-18.89963 60.73576,-18.89963 6.34745,-6.32515 12.47682,-11.13256 18.3881,-14.42222 1.76759,-0.56274 4.78743,-0.73275 1.5655,3.97322 -3.22194,4.70597 -6.39928,9.80084 -5.11188,11.45013 1.2874,1.64928 5.01672,-0.17108 6.49005,2.51098 0.98223,1.78803 -5.30405,3.9269 -18.85885,6.4166 0,0 -63.52738,37.64844 -70.55935,34.96655 -9.10152,-3.47119 -38.98541,-61.49937 -38.98541,-61.49937 l 24.98983,-7.09814 c 0,0 18.15158,40.92886 21.34625,42.60188 z" fill="url(#grad-30265-skin-back)"></path>
        <path style="fill:url(#linearGradient1717)" id="path1676-8" d="m 678.92129,280.51999 22.8444,11.05366 c -20.60792,38.40522 -53.61634,89.01576 -55.11174,91.32012 -3.36464,5.18481 -0.22536,14.68704 0.93427,19.69098 -7.2749,1.69344 -4.4059,-9.25617 -13.61214,-6.97 -8.40304,2.08672 -15.5278,7.44199 -23.36328,0.21956 -0.96333,-0.88796 -1.66853,-3.66345 1.61594,-5.08699 8.18281,-3.54656 20.27222,-10.18741 22.23252,-12.76565 2.67322,-3.5159 30.56263,-60.83218 44.46003,-97.46168 z" fill="url(#grad-30265-skin-front)"></path>
        <path style="fill:url(#grad-30265-top-back-6)" id="path1678-9" d="m 734.30883,263.15639 9.72779,-20.662 c 12.02654,14.57909 18.16808,25.59287 23.29542,41.08147 l -29.83689,6.21309 c -6.62721,-22.40777 -3.49721,-19.46315 -3.18632,-26.63256 z" fill="url(#grad-30265-top-back)"></path>
        <path style="fill:url(#grad-30265-top-front-8)" id="path1680-6" d="m 724.55697,235.76357 c -49.50144,30.5044 -50.6498,24.53884 -64.34663,81.41886 l 24.80409,8.65143 c 1.8424,-2.43061 3.23901,-2.06807 5.16363,-5.83787 -4.78536,16.94804 -8.27951,34.33103 -9.36914,50.76758 17.29436,11.74125 94.02549,-0.17681 95.84375,-28.5957 -9.69601,-28.85467 -26.06855,-70.84063 -32.61606,-99.67348 -7.23569,12.5763 -14.36344,8.73051 -19.47964,-6.73082 z" fill="url(#grad-30265-top-front)"></path>
        <path fill="#6ec2f1" style="fill:#dec66b;stroke-width:0.128482" d="m 808.60566,412.74603 c -1.57388,0.0216 -3.11436,0.25105 -4.5625,0.82031 -19.31497,7.59275 -34.60348,38.11212 -44.95117,43.08008 -5.54139,2.66044 -110.02344,1.73437 -110.02344,1.73437 L 595.383,417.51947 c 0,0 3.47169,10.8393 6.37305,15.67773 3.39754,5.66588 7.99764,10.57151 12.67969,15.23242 7.37128,7.33801 24.07226,19.85547 24.07226,19.85547 0,0 -4.95302,15.08126 -7.9707,22.41406 -7.8896,19.17127 -26.44336,48.46311 -26.44336,56.29102 0,8.12775 15.94531,32.69726 15.94531,32.69726 l 14.85547,-0.0527 -13.33203,-28.18359 c 0,0 9.29696,-11.28083 14.375,-16.52735 2.97492,-2.9904 6.11209,-5.82022 9.27153,-8.61133 l -1.83007,21.06641 13.86328,28.68945 16.7207,0.13086 -16.30469,-28.35156 c 0,0 9.22376,-16.68918 12.97656,-24.58203 2.27513,-4.78507 5.18517,-8.03847 8.83985,-10.11328 0.001,-7.2e-4 0.003,-0.001 0.004,-0.002 l 5.70507,-2.1914 c 22.62679,-5.31467 69.32422,7.48633 69.32422,7.48633 0.66142,22.80941 1.30078,61.31836 1.30078,61.31836 l 18.64453,-0.125 -1.39453,-46.58203 c 0,-10e-6 5.80095,-6.56081 9.125,-9.39258 0.002,0.005 6.32004,21.00057 11.2793,30.71289 3.1983,6.26357 11.7793,17.5039 11.7793,17.5039 l 20.23242,1.64844 -14.86524,-22 c -6.7868,-10.04396 -9.26056,-22.81344 -10.23046,-34.89648 -0.23776,-2.96162 -0.30888,-5.95555 -0.23633,-8.95313 3.47102,-7.00465 1.52165,-16.7596 4.52539,-25.19726 3.36858,-9.46255 8.23517,-19.14981 15.98047,-25.54493 3.41353,-2.81847 8.09642,-3.7023 12.38867,-4.78515 5.09317,-1.28491 11.49629,1.26065 15.63476,-1.97461 2.5031,-1.95681 3.44141,-8.88867 3.44141,-8.88867 0,0 -6.92434,-3.64557 -10.13672,-5.86328 -2.94892,-2.03584 -6.00054,-4.07177 -8.33203,-6.79297 -2.65376,-3.09734 -3.08711,-7.90416 -6.18555,-10.55664 -2.98536,-2.55568 -7.11349,-3.56013 -10.96875,-4.32227 -2.54411,-0.50294 -5.26163,-1.04389 -7.88476,-1.00781 z" class="color1" id="path6387"></path>
        <path fill="#000000" style="fill-opacity:0.232889;stroke-width:0.128482" d="m 645.20823,526.31302 -1.8301,21.06641 13.8652,28.68945 16.7207,0.13086 -16.3066,-28.35156 c 0,0 9.02683,-16.78685 12.9785,-24.58203 2.62229,-5.17281 6.22398,-9.10955 8.83892,-10.11387 z" id="path6389"></path>
        <path fill="#000000" style="fill-opacity:0.227578;stroke-width:0.128482" d="m 782.18473,523.66263 c 0,0 6.09632,19.86069 11.2774,30.71485 3.0296,6.34688 11.7793,17.5039 11.7793,17.5039 l 20.2343,1.64844 -14.8671,-22 c -6.7868,-10.04396 -9.2606,-22.81344 -10.2305,-34.89648 -0.2662,-3.31597 -0.2129,-10.0293 -0.2129,-10.0293 0,0 -7.70311,10.42386 -17.9805,17.05859 z" id="path6391"></path>
        <path fill="#d9e7f1" style="fill:#3b0132;stroke-width:0.128482px" d="m 697.47127,390.2955 50.77858,54.1986 -1.08411,73.09465 7.3418,0.85655 0.74456,-66.5738 46.88735,50.23588 1.1334,-8.94637 -100.97661,-107.54944 z" class="color2" id="path6393"></path>
      </g>
      <g id="g2200" transform="matrix(0.02645833,0,0,0.02645833,63.753118,171.02346)">
        <path style="fill:url(#linearGradient1941)" id="path1891" d="m 1152.2148,211.2537 c 4.6079,-5.40875 7.7267,-12.03725 7.2055,-19.46468 -1.5015,-21.40047 -31.2917,-16.69264 -37.0865,-5.89152 -5.7949,10.80112 -5.1063,38.19907 2.383,40.12953 2.9867,0.76986 9.3493,-1.116 15.8249,-5.01915 l -4.0646,28.75569 h 24 z" fill="url(#grad-9289-skin-front)"></path>
        <path id="path1893" d="m 1139.3418,194.1525 c -0.9187,12.79717 -3.3489,19.19576 -7.2905,19.19576 -5.9128,0 -10.9294,-3.75365 -13.5238,-3.75365 -1.8912,0 -1.469,2.3667 -0.2154,4.12144 1.0343,1.44771 6.0711,2.84314 6.0711,5.08758 0,2.24444 -3.9795,0.50804 -3.9795,1.83918 0,2.20186 -0.6994,6.34175 3.1222,6.34175 3.8675,0 14.9564,-1.40941 16.8568,-7.14952 1.2264,-3.7045 2.0194,-11.38092 2.3789,-23.02925 0.2346,-0.0279 0.4734,-0.0422 0.7155,-0.0422 3.3137,0 6,2.68629 6,6 0,1.68222 -0.6923,3.20274 -1.8075,4.29221 1.3883,1.95961 2.9442,4.00667 4.7271,6.11898 6.698,-4.01852 11.6683,-15.78222 5.1199,-27.08291 -1.81,-5.53604 -5.9075,-8.49304 -10.7469,-9.86607 -3.92,-1.63979 -7.9895,-1.82468 -11.4247,-0.84164 -6.7339,0.57759 -12.7469,2.63094 -14.4511,3.85038 0,6.37522 1.2353,8.26673 11.7864,8.1 2.5926,1.36919 4.5856,3.72692 6.6615,6.81798 z" fill="#100926"></path>
        <path style="fill:url(#grad-9289-bottom-back-5)" id="path1895" d="m 1084.4771,561.76357 28.109,-221 h 53.891 l -36.255,127.22691 -26.452,93.77309 z" fill="url(#grad-9289-bottom-back)"></path>
        <path style="fill:url(#grad-9289-bottom-front-2)" id="path1897" d="m 1176.1728,340.76357 c 0.8385,65.57422 3.6981,101.34019 4.5785,107.29789 0.8805,5.95771 14.1936,43.85841 39.9394,113.70211 h -19.9862 c -32.7764,-67.0031 -51.073,-104.9038 -54.8899,-113.70211 -3.8168,-8.79831 -15.596,-44.56427 -33.3375,-107.29789 z" fill="url(#grad-9289-bottom-front)"></path>
        <path id="path1899" d="m 1222.4771,579.76357 -1,-21 h -21 c -9.9576,7 -22.9576,12.66667 -39,17 v 4 h 38 l 13,-2 v 2 z" fill="#141313"></path>
        <path id="path1901" d="m 1106.4771,579.76357 -1,-21 h -21 c -9.9576,7 -22.9576,12.66667 -39,17 v 4 h 38 l 13,-2 v 2 z" fill="#141313"></path>
        <path style="fill:url(#linearGradient1943)" id="path1903" d="m 1084.1182,324.37359 -30.1866,25.59165 c -8.4675,2.93229 -15.4753,6.3339 -21.0234,10.20484 -1.2807,1.342 -2.7573,3.98169 2.8848,3.1488 5.6421,-0.8329 11.6142,-1.45523 12.5322,0.42488 0.918,1.8801 -2.3529,4.434 -0.5882,6.93396 1.1765,1.66664 5.8547,-3.04581 14.0344,-14.13737 l 30.597,-15.27014 z m 136.6918,-11.0741 -17.7118,2.57222 c 19.012,41.24952 29.2046,63.06466 30.5777,65.44541 3.0895,5.35669 -0.544,14.68677 -1.9644,19.62589 7.1784,2.0729 4.8859,-9.01792 13.9625,-6.25165 8.2847,2.52491 15.1214,8.24877 23.3267,1.44247 1.0087,-0.83679 1.8585,-3.57309 -1.3479,-5.16741 -7.9883,-3.97202 -19.7169,-11.24032 -21.5401,-13.91907 -2.4862,-3.65296 -10.9205,-24.90224 -25.3027,-63.74786 z" fill="url(#grad-9289-skin-front)"></path>
        <path style="fill:url(#grad-9289-top-back-8)" id="path1905" d="m 1146.7822,241.0956 -10.975,-3.62939 c -14.8875,37.19023 -37.0906,73.17369 -74.1872,103.56756 l 9.1735,15.82658 c 32.6027,-19.20513 63.4651,-34.124 75.9887,-62.94209 4.2032,-9.67209 0.3429,-41.25772 0,-52.82266 z" fill="url(#grad-9289-top-back)"></path>
        <path id="path1907" d="m 1184.4771,345.76357 c -31.4383,3.33333 -56.1837,3.33333 -74.2362,0 -2.2366,-0.41298 -2.5895,-4.15761 -1.5522,-6.69903 16.1521,-39.57657 27.2281,-74.10934 27.2281,-101.59833 2.9637,1.49415 8.1505,1.71807 15.5603,0.67175 19.9138,28.32829 29.0675,60.83175 33,107.62561 z" fill="#8c5e4f"></path>
        <path style="fill:url(#grad-9289-top-front-3)" id="path1909" d="m 1156.4277,235.76357 h -8.299 c -1.9324,11.36487 -8.0271,165.26259 -26.8422,215.60597 h 101.8053 c -2.2071,-46.11873 -19.6176,-101.51858 -37.2545,-147.87766 15.5954,14.27118 29.188,38.45264 40.7779,72.54438 l 19.0693,-4.89504 c -14.1786,-61.09657 -43.3298,-106.00277 -87.4537,-134.71861 -0.096,-0.22073 -0.1906,-0.44041 -0.2853,-0.65904 h -0.7344 c -0.2703,-0.17349 -0.5412,-0.34639 -0.8126,-0.51868 z" fill="url(#grad-9289-top-front)"></path>
        <g transform="rotate(-20.04036,2100.4394,5803.4197)" id="g1139">
          <rect style="fill:#ffffff;stroke:#000000;stroke-width:2;stroke-linecap:round;stroke-linejoin:round" id="rect1114" width="5.8942871" height="248.46935" x="1822.7231" y="-2603.8652" ry="0" transform="rotate(62.711382)"></rect>
          <rect transform="rotate(62.711382)" y="-2549.3809" x="1822.7231" height="31.643023" width="5.9415369" id="rect1116" style="fill:#ff0000;stroke:#ff0101;stroke-width:2;stroke-linecap:round"></rect>
          <rect style="fill:#ff0000;stroke:#ff0101;stroke-width:2;stroke-linecap:round" id="rect1118" width="5.8942871" height="34.0396" x="1822.7231" y="-2456.3318" transform="rotate(62.711382)"></rect>
        </g>
      </g>
      <g id="g5281" transform="matrix(0.02633275,0,0,0.02633275,13.214018,170.09477)">
        <path style="fill:url(#linearGradient2136-1);fill-rule:evenodd" id="path2079-0" d="m 3385.4675,599.79599 h 17.293 l -17.2622,-221 h -53.891 l 36.6308,126.22691 z"></path>
        <path style="fill:url(#linearGradient2138-1);fill-rule:evenodd" id="path2081-5" d="m 3315.145,378.79599 c 2.556,65.57422 1.548,101.34019 0.9759,107.29789 -0.572,5.95771 -3.8197,45.85841 -25.9499,115.70211 h 17.9863 c 29.3078,-67.0031 39.5389,-106.9038 42.9003,-115.70211 3.3614,-8.79831 13.2891,-44.56427 27.7831,-107.29789 z"></path>
        <path style="fill:url(#grad-3213-bottom-back-6-1);fill-rule:evenodd" id="path2083-4" d="m 3330.8209,378.79599 c 9.5283,43.43503 26.0081,112.76836 49.4394,208 h 25.2931 c 1.8681,-97.74617 -6.079,-162.0795 -19.8415,-208 z"></path>
        <path style="fill:url(#grad-3213-bottom-front-7-0);fill-rule:evenodd" id="path2085-3" d="m 3315.0172,378.79599 c 2.5033,65.57422 -3.9841,130.17726 -24.0794,209.02096 h 26.9863 c 29.3617,-66.0031 50.4063,-130.28734 64.7888,-209.02096 z"></path>
        <path style="fill:#a7a0a0;fill-rule:evenodd" id="path2087-1" d="m 3287.6073,614.79599 0.9924,-16 c 5.8105,1.69942 13.0883,1.03276 21.8333,-2 9.4031,6.66062 21.2402,11.20867 35.5116,13.64416 v 3e-5 c 1.0888,0.18581 1.8208,1.2191 1.635,2.30791 -0.012,0.0705 -0.028,0.14033 -0.047,0.20914 l -1.3721,4.83876 h -35.7272 -20.8409 z"></path>
        <path style="fill:#a7a0a0;fill-rule:evenodd" id="path2089-9" d="m 3381.6073,614.79599 0.9924,-16 c 5.8105,1.69942 13.0883,1.03276 21.8333,-2 9.4031,6.66062 21.2402,11.20867 35.5116,13.64416 v 3e-5 c 1.0888,0.18581 1.8208,1.2191 1.635,2.30791 -0.012,0.0705 -0.028,0.14033 -0.047,0.20914 l -1.3721,4.83876 h -35.7272 -20.8408 z"></path>
        <g id="g4069" transform="rotate(17.075536,3341.0443,372.00209)">
          <path d="m 3345.8696,249.28612 c -4.6079,-5.40875 -7.7267,-12.03725 -7.2055,-19.46468 1.5015,-21.40047 31.2917,-16.69264 37.0865,-5.89152 5.7949,10.80112 5.1063,38.19907 -2.383,40.12953 -2.9867,0.76986 -9.3493,-1.116 -15.8249,-5.01915 l 4.0646,28.75569 h -24 z" id="path2075-8" style="fill:url(#linearGradient2134-3);fill-rule:evenodd"></path>
          <path d="m 3366.2708,212.16597 c -3.2794,-1 -8.04,-1.33914 -10.0427,-1.10972 1.1392,-2.72942 1.5913,-5.77032 1.2227,-8.73117 -0.3582,-2.87702 -1.6437,-5.32672 -2.8327,-7.89371 -0.548,-1.18321 -1.1691,-2.35998 -2.0951,-3.265 -0.9433,-0.92204 -2.1374,-1.53065 -3.3895,-1.82101 -1.2813,-0.29722 -2.6212,-0.27247 -3.9045,-0.003 -0.5677,0.11931 -1.0771,0.37888 -1.6339,0.52317 -0.5702,0.14784 -0.8468,-0.20902 -1.2606,-0.56766 -0.9974,-0.86416 -2.4595,-1.29075 -3.7212,-1.44343 -1.4156,-0.17122 -2.8845,0.0423 -4.2346,0.50769 -1.3142,0.45304 -2.5766,1.1887 -3.5267,2.26042 -0.4231,0.47706 -0.807,1.02006 -1.0566,1.61957 -0.1024,0.24602 -0.1193,0.39177 -0.3648,0.48189 -0.227,0.0834 -0.4926,0.0859 -0.7269,0.16526 -2.2659,0.76742 -4.2031,2.51813 -5.258,4.76598 -0.6154,1.31139 -0.9069,3.62027 -0.8271,6.20816 0.08,2.58788 2.4166,9.3404 4.6021,11.8034 1.9509,2.19844 4.8183,3.6492 7.5857,4.28426 -1.8369,2.09952 -3.0596,4.7231 -3.9638,7.39133 -0.9821,2.89838 -1.5899,5.90994 -1.8144,8.97842 -0.2132,2.91539 -0.2329,5.99845 0.4506,8.85161 0.6393,2.66815 2.0067,4.85699 4.2893,6.2456 1.0455,0.63611 2.1705,1.11397 3.3019,1.55073 1.1151,0.43038 2.2336,0.84883 3.4016,1.09035 2.2107,0.4569 4.7578,0.37847 6.4607,-1.38112 0.6137,-0.63433 1.2887,-1.43142 1.7365,-2.20633 0.1609,-0.27868 0.258,-0.46094 0.062,-0.73332 -0.2343,-0.32624 -0.6133,-0.57621 -0.9143,-0.83143 -1.7166,-1.45512 -2.7792,-3.39769 -3.047,-5.70624 -0.2718,-2.34232 0.3574,-5.36565 2.6347,-6.38788 2.8112,-1.26189 5.907,0.18653 8.4055,1.53669 1.0619,-3.74778 3.2422,-7.12226 6.6606,-8.84137 3.7818,-1.90187 8.1214,-2.12444 12.0078,-3.75625 1.0127,-0.42523 2.0442,-0.90793 2.7898,-1.77434 0.3116,-0.3621 0.6771,-0.83183 0.8015,-1.31074 0.1635,-0.62909 -0.2422,-1.15653 -0.5557,-1.64697 -1.6618,-2.60044 -7.9639,-7.85409 -11.2433,-8.85409 z" id="path2077-7" style="fill:#acb4be;fill-rule:evenodd"></path>
          <path d="m 3415.6073,339.10678 39.4829,-5.38563 c 7.8982,-4.39313 15.1641,-7.36721 21.7978,-8.92223 1.8668,-0.0545 4.8365,0.62412 0.4125,4.31227 -4.4241,3.68814 -8.9129,7.768 -8.1247,9.73629 0.7883,1.9683 4.9026,1.23596 5.5841,4.26337 0.4544,2.01828 -6.2228,2.34622 -20.0318,0.98385 l -32.0369,12.70129 z" id="path2091-7" style="fill:url(#linearGradient2140-9)"></path>
          <path d="m 3291.5771,348.24567 21.8974,0.0822 c -24.0111,54.03381 -36.5309,82.32505 -37.5593,84.87374 -2.3139,5.73453 2.5827,14.46813 4.6767,19.1615 -6.8201,3.05177 -6.0934,-8.25017 -14.6967,-4.24761 -7.8527,3.65336 -13.8262,10.27299 -22.8989,4.67488 -1.1154,-0.68825 -2.3377,-3.27966 0.6156,-5.3047 7.3577,-5.04512 17.9607,-13.875 19.3933,-16.78142 1.9537,-3.96342 11.4776,-31.44961 28.5719,-82.45857 z" id="path2093-6" style="fill:url(#linearGradient2142-1)"></path>
          <path d="m 3351.5567,278.79599 17.1449,1.14216 c 4.2225,38.20121 27.2221,62.33063 78.7167,54.16185 l 6.8413,49.19465 c -48.1295,6.22018 -90.3393,-13.04885 -98.9899,-65.22021 -2.2394,-13.50551 -4.0076,-27.56063 -3.713,-39.27845 z" id="path2095-8" style="fill:url(#grad-3213-top-back-8-2)"></path>
          <path d="m 3343.0981,273.81193 25.9768,5.94934 c 0,44.67915 14.2324,73.18518 21.5324,106.03472 h -70.1563 c -0.9883,11.3509 -1.5952,23.01756 -1.9115,35 h -52.5306 c 11.9038,-63.33604 37.0285,-112.33604 75.3743,-147 h 1.7013 z" id="path2097-7" style="fill:url(#grad-3213-top-front-7-6)"></path>
          <path d="m 3331.5198,322.05524 c -1.808,27.84128 -0.7447,49.0882 3.19,63.74075 h -14.2588 c 1.9577,-22.4861 5.4122,-43.73301 11.0688,-63.74074 z" id="path2099-3" style="fill-opacity:0.1"></path>
        </g>
      </g>
      <g transform="matrix(0.02645833,0,0,0.02645833,105.02074,174.61554)" id="g2331">
        <path style="fill:url(#linearGradient2333)" id="path2274" d="m 62.262274,65.490127 c -4.60791,-5.408751 -7.726639,-12.03725 -7.205498,-19.464673 1.501554,-21.400475 31.291755,-16.692643 37.086565,-5.891521 5.794811,10.801122 5.106237,38.199063 -2.38304,40.129525 -2.986713,0.769865 -9.3493,-1.115997 -15.824929,-5.019152 L 78,104 H 54 Z" transform="translate(110,10)" fill="url(#grad-22546-skin-front)"></path>
        <path id="path2276" d="M 90.576162,35.945695 C 90.365891,34.640588 90.78219,34.000035 85.534691,30.323222 80.287192,26.64641 71.814873,22.309916 63.281641,24.197181 52.207493,26.64641 47.809044,33.95123 43.538634,37.502525 c -3.84966,3.201501 -7.71224,3.57486 -10.001331,7.547399 -2.28909,3.97254 -3.506972,15.401348 -1.5165,19.945084 2.745753,6.267847 8.160413,7.955831 12.113076,9.76161 6.778881,3.096939 16.360676,-0.173841 16.592789,-0.715652 C 62.522156,69.849823 72.186894,58.026861 78,53.059627 82.274662,49.406976 91.563056,42.071156 90.576162,35.945695 Z" transform="translate(110,10)" fill="#8991dc"></path>
        <path id="path2278" d="M 43.457024,35 C 45.25711,46.379689 49.982623,56.787366 57.633562,66.223031 48.712291,59.300975 42.834437,49.622133 40,37.186504 Z m -4.458615,4.342143 C 41.95124,51.568106 49.618437,63.120725 62,74 47.673342,65.352238 38.673342,54.19258 35,40.521028 Z" transform="translate(110,10)" fill-opacity="0.2"></path>
        <path style="fill:url(#linearGradient2335)" id="path2280" d="M 229,229.25029 178.67369,0 H 134 l 49.08164,124.22691 32.91926,105.02338 z" transform="translate(30,205)" fill="url(#grad-22546-skin-back)"></path>
        <path style="fill:url(#linearGradient2337)" id="path2282" d="m 124.11663,0 c -0.52265,43.654189 -8.1448,102.42747 -9.36256,105.14865 -0.81184,1.81412 -28.837913,24.88381 -84.078215,69.20909 l 8.953216,9.581 C 104.80751,145.93538 138.9048,124.39934 141.92094,119.33063 146.44514,111.72756 161.1744,41.763137 173,0 Z" transform="translate(30,205)" fill="url(#grad-22546-skin-front)"></path>
        <path id="path2284" d="m 29.478334,171.1595 c -3.006904,1.06266 -5.078254,2.07051 -6.214051,3.02356 -1.381397,1.15913 -3.204097,3.08072 -5.468099,5.76477 1.344672,1.60252 13.429467,16.00461 36.254386,43.20629 4.653986,-1.99184 6.114053,-4.32146 4.380202,-6.98885 -1.733852,-2.66739 -3.152821,-4.90117 -4.25691,-6.70133 l -7.898092,-27.594 c -0.151976,-0.53096 -0.705572,-0.83822 -1.23657,-0.68622 -0.009,0.003 -0.01815,0.005 -0.02714,0.008 l -4.214425,1.33661 c -2.923934,-1.36267 -4.973308,-2.74405 -6.148125,-4.14414 -0.95451,-1.13754 -1.81328,-3.09399 -2.576311,-5.86935 h 1.3e-5 c -0.292817,-1.06506 -1.393595,-1.69108 -2.45865,-1.39827 -0.04591,0.0126 -0.09135,0.0269 -0.136233,0.0427 z" transform="translate(30,205)" fill="#456ea5"></path>
        <path id="path2286" d="M 210.67813,224.40192 C 209.55938,227.38841 209,229.62299 209,231.10567 c 0,1.80329 0.30041,4.43473 0.90124,7.89433 2.09194,0 20.89255,0 56.40181,0 1.46569,-4.84549 0.61961,-7.46142 -2.53823,-7.84778 -3.15784,-0.38636 -5.7811,-0.73521 -7.86981,-1.04655 l -26.21502,-11.68679 c -0.50443,-0.22487 -1.09565,0.002 -1.32052,0.50618 -0.004,0.009 -0.008,0.0173 -0.0112,0.026 l -1.68509,4.08759 c -2.92333,1.36395 -5.29884,2.04593 -7.12653,2.04593 -1.48495,0 -3.53569,-0.59972 -6.1522,-1.79917 l 1e-5,-2e-5 c -1.00411,-0.46029 -2.19123,-0.0195 -2.65153,0.98465 -0.0198,0.0433 -0.0381,0.0872 -0.0548,0.13184 z" transform="translate(30,205)" fill="#456ea5"></path>
        <path style="fill:url(#grad-22546-bottom-back-2)" id="path2288" d="M 228.80446,211.72533 183,0 H 127.64407 L 167,218.43289 Z" transform="translate(30,205)" fill="url(#grad-22546-bottom-back)"></path>
        <path style="fill:url(#grad-22546-bottom-front-6)" id="path2290" d="M 43.459958,158.90048 84,206.88596 c 42.69995,-46.636 67.59414,-77.066 74.68255,-91.28999 C 165.77097,101.37197 172.14309,62.839981 177.79892,0 h -62.32077 c -3.08951,55.283874 -5.17205,84.212126 -6.24762,86.784755 -1.07558,2.572629 -22.999105,26.611205 -65.770572,72.115725 z" transform="translate(30,205)" fill="url(#grad-22546-bottom-front)"></path>
        <path style="fill:url(#linearGradient2339)" id="path2292" d="m 199.49312,92.460334 28.32791,27.635026 c 8.24237,3.51581 14.99583,7.39797 20.26036,11.64649 1.18391,1.42807 2.47279,4.16433 -3.09746,2.9399 -5.57026,-1.22444 -11.4844,-2.26185 -12.53132,-0.45036 -1.04692,1.81149 2.03791,4.58733 0.10308,6.9581 -1.28989,1.58052 -5.6279,-3.44679 -13.01402,-15.08192 L 190.0844,108.74029 Z" transform="translate(50,100)" fill="url(#grad-22546-skin-back)"></path>
        <path style="fill:url(#linearGradient2341)" id="path2294" d="m 60.969792,67.449683 21.897392,0.08218 C 66.189433,121.56567 57.336347,149.85691 56.307928,152.4056 c -2.313943,5.73453 2.582672,14.46813 4.676659,19.1615 -6.820046,3.05177 -6.093363,-8.25017 -14.696668,-4.24761 -7.852698,3.65336 -13.826226,10.27299 -22.898884,4.67488 -1.11543,-0.68825 -2.337759,-3.27966 0.615543,-5.3047 7.357754,-5.04512 17.960724,-13.875 19.393352,-16.78142 1.953644,-3.96342 7.810931,-31.44961 17.571862,-82.458567 z" transform="translate(50,100)" fill="url(#grad-22546-skin-front)"></path>
        <path style="fill:url(#grad-22546-top-back-6)" id="path2296" d="m 122.76827,9.7139848 8.48495,-2.2311707 c 17.76672,46.7814089 90.34968,73.3788289 96.19868,90.9362489 2.14498,6.438767 -2.29699,10.177107 0.32299,11.966237 l -10.4797,9.17609 c -2.08962,-2.04633 -5.78181,2.35433 -14.47926,0.26295 -8.69746,-2.09137 -75.0784,-53.311449 -80.04766,-110.1103552 z" transform="rotate(5,-944.77501,686.53738)" fill="url(#grad-22546-top-back)"></path>
        <path style="fill:url(#grad-22546-top-front-2)" id="path2298" d="m 142.24071,11.73366 c -0.99695,63.749414 35.85512,80.0109 27.64655,105.58459 -6.7785,21.11832 -71.659929,43.82044 -82.88726,23.11949 -4.54468,-8.37948 -6.60662,-18.51387 -6.840573,-29.53213 -2.869471,8.46493 -5.138903,15.75221 -6.8083,21.86187 -2.879943,10.54001 -14.044867,12.21539 -14.044867,16.27578 L 44.59663,144.98287 C 45.594349,139.46666 38.659874,136.7806 40.519188,124.45691 48.850005,69.239525 71.233408,29.214182 107.6694,4.3808747 l 0.37695,-5.3906185 c 0.1541,-2.2037577 2.06552,-3.865332 4.26928,-3.7112303 l 26.93423,1.8834248 c 2.20376,0.1541017 3.86533,2.06552443 3.71123,4.2692821 z" transform="translate(50,100)" fill="url(#grad-22546-top-front)"></path>
      </g>
      <g transform="matrix(0.02645833,0,0,0.02645833,115.61369,174.61554)" id="g2530">
        <path style="fill:url(#linearGradient2532)" id="path2473" d="m 62.262274,65.490127 c -4.60791,-5.408751 -7.726639,-12.03725 -7.205498,-19.464673 1.501554,-21.400475 31.291755,-16.692643 37.086565,-5.891521 5.794811,10.801122 5.106237,38.199063 -2.38304,40.129525 -2.986713,0.769865 -9.3493,-1.115997 -15.824929,-5.019152 L 78,104 H 54 Z" transform="matrix(-1,0,0,1,270,10)" fill-rule="evenodd" fill="url(#grad-32244-skin-front)"></path>
        <path id="path2475" d="M 69.729818,53.867026 C 68.944956,53.327629 68.00726,53 67,53 c -2.761424,0 -5,2.462434 -5,5 0,2.639874 1.246606,4.681035 3.026826,5.546971 C 64.076022,65.405895 63.119976,66.754972 62,67 57.678139,66.562809 52,55.82052 52,47 c 0,-9.654491 7.681983,-18 22,-18 12.869071,0 17.748569,5.306217 18,10 -5.514647,1.515605 -15.15075,2.099216 -29,2 v 1 l 12,1 2,6 c -3.181928,-0.237539 -5.45572,1.944974 -7.270182,4.867026 z" transform="matrix(-1,0,0,1,270,10)" fill-rule="evenodd" fill="#8abd75"></path>
        <path style="fill:url(#linearGradient2534)" id="path2477" d="M 229,229.25029 178.67369,0 H 134 l 49.08164,124.22691 32.91926,105.02338 z" transform="matrix(-1,0,0,1,350,205)" fill="url(#grad-32244-skin-back)"></path>
        <path style="fill:url(#linearGradient2536)" id="path2479" d="m 124.11663,0 c -0.52265,43.654189 -8.1448,102.42747 -9.36256,105.14865 -0.81184,1.81412 -28.837913,24.88381 -84.078215,69.20909 l 8.953216,9.581 C 104.80751,145.93538 138.9048,124.39934 141.92094,119.33063 146.44514,111.72756 161.1744,41.763137 173,0 Z" transform="matrix(-1,0,0,1,350,205)" fill="url(#grad-32244-skin-front)"></path>
        <path id="path2481" d="m 29.478334,171.1595 c -3.006904,1.06266 -5.078254,2.07051 -6.214051,3.02356 -1.381397,1.15913 -3.204097,3.08072 -5.468099,5.76477 1.344672,1.60252 13.429467,16.00461 36.254386,43.20629 4.653986,-1.99184 6.114053,-4.32146 4.380202,-6.98885 -1.733852,-2.66739 -3.152821,-4.90117 -4.25691,-6.70133 l -7.898092,-27.594 c -0.151976,-0.53096 -0.705572,-0.83822 -1.23657,-0.68622 -0.009,0.003 -0.01815,0.005 -0.02714,0.008 l -4.214425,1.33661 c -2.923934,-1.36267 -4.973308,-2.74405 -6.148125,-4.14414 -0.95451,-1.13754 -1.81328,-3.09399 -2.576311,-5.86935 h 1.3e-5 c -0.292817,-1.06506 -1.393595,-1.69108 -2.45865,-1.39827 -0.04591,0.0126 -0.09135,0.0269 -0.136233,0.0427 z" transform="matrix(-1,0,0,1,350,205)" fill="#62453a"></path>
        <path id="path2483" d="M 210.67813,224.40192 C 209.55938,227.38841 209,229.62299 209,231.10567 c 0,1.80329 0.30041,4.43473 0.90124,7.89433 2.09194,0 20.89255,0 56.40181,0 1.46569,-4.84549 0.61961,-7.46142 -2.53823,-7.84778 -3.15784,-0.38636 -5.7811,-0.73521 -7.86981,-1.04655 l -26.21502,-11.68679 c -0.50443,-0.22487 -1.09565,0.002 -1.32052,0.50618 -0.004,0.009 -0.008,0.0173 -0.0112,0.026 l -1.68509,4.08759 c -2.92333,1.36395 -5.29884,2.04593 -7.12653,2.04593 -1.48495,0 -3.53569,-0.59972 -6.1522,-1.79917 l 1e-5,-2e-5 c -1.00411,-0.46029 -2.19123,-0.0195 -2.65153,0.98465 -0.0198,0.0433 -0.0381,0.0872 -0.0548,0.13184 z" transform="matrix(-1,0,0,1,350,205)" fill="#62453a"></path>
        <path style="fill:url(#grad-32244-bottom-back-9)" id="path2485" d="M 228.80446,211.72533 183,0 H 127.64407 L 167,218.43289 Z" transform="matrix(-1,0,0,1,350,205)" fill="url(#grad-32244-bottom-back)"></path>
        <path style="fill:url(#grad-32244-bottom-front-7)" id="path2487" d="M 43.459958,158.90048 84,206.88596 c 42.69995,-46.636 67.59414,-77.066 74.68255,-91.28999 C 165.77097,101.37197 172.14309,62.839981 177.79892,0 h -62.32077 c -3.08951,55.283874 -5.17205,84.212126 -6.24762,86.784755 -1.07558,2.572629 -22.999105,26.611205 -65.770572,72.115725 z" transform="matrix(-1,0,0,1,350,205)" fill="url(#grad-32244-bottom-front)"></path>
        <path style="fill:url(#linearGradient2538)" id="path2489" d="m 248,177.61709 36.23457,-15.91292 c 6.34745,-6.32515 12.47682,-11.13256 18.3881,-14.42222 1.76759,-0.56274 4.78743,-0.73275 1.5655,3.97322 -3.22194,4.70597 -6.39928,9.80084 -5.11188,11.45013 1.2874,1.64928 5.01672,-0.17108 6.49005,2.51098 0.98223,1.78803 -5.30405,3.9269 -18.85885,6.4166 l -27.13755,20.80641 z" transform="matrix(-1,0,0,1,380,0)" fill="url(#grad-32244-skin-back)"></path>
        <path style="fill:url(#linearGradient2540)" id="path2491" d="M 101.50828,182 122,186.06584 c -20.60792,38.40522 -31.659574,58.76 -33.154968,61.06436 -3.364638,5.18481 -0.225363,14.68704 0.934272,19.69098 -7.2749,1.69344 -4.405903,-9.25617 -13.612148,-6.97 -8.403034,2.08672 -15.527793,7.44199 -23.363278,0.21956 -0.963326,-0.88796 -1.668527,-3.66345 1.615942,-5.08699 8.18281,-3.54656 20.272223,-10.18741 22.232522,-12.76565 C 79.325561,238.7022 87.610874,218.6295 101.50828,182 Z" transform="matrix(-1,0,0,1,380,0)" fill="url(#grad-32244-skin-front)"></path>
        <path style="fill:url(#grad-32244-top-back-0)" id="path2493" d="m 182.48908,101.18895 8.74348,-0.72388 c 17.17024,19.84209 21.00134,64.23843 32.99889,71.12031 11.34319,6.50653 28.56498,2.67729 49.11067,-2.73011 l 4.90794,14.16374 c -19.81248,17.99771 -59.81837,31.16736 -74.62153,20.35583 -23.66718,-17.28539 -24.71758,-71.72016 -21.13945,-102.18589 z" transform="matrix(-1,0,0,1,380,0)" fill="url(#grad-32244-top-back)"></path>
        <path id="path2495" d="m 140,214 c 34.67176,0 60.17557,0 76.51145,0 3.49618,0 2.83739,-5.04836 2.332,-7.59579 -5.83286,-29.40044 -28.60215,-61.0927 -28.60215,-102.94348 L 168.1718,100 C 149.91748,129.35841 143.60483,165.50455 140,214 Z" transform="matrix(-1,0,0,1,380,0)" fill="#1f140a"></path>
        <path style="fill:url(#grad-32244-top-front-3)" id="path2497" d="M 132.36875,184.23317 C 116.77138,212.36783 103.66094,232.62344 93.037445,245 L 77,241.85882 C 87.330593,177.79067 117.24661,130.5044 166.74805,100 H 167 h 8.4864 c 19.81252,67.53695 25.27448,112.53695 16.38588,135 H 123 c 1.08963,-16.43655 4.5834,-33.8188 9.36876,-50.76683 z" transform="matrix(-1,0,0,1,380,0)" fill="url(#grad-32244-top-front)"></path>
      </g>
      <g transform="matrix(0.02645833,0,0,0.02645833,122.84676,174.61404)" id="g2739">
        <path style="fill:url(#linearGradient2741)" id="path2676" d="m 62.262274,65.490127 c -4.60791,-5.408751 -7.726639,-12.03725 -7.205498,-19.464673 1.501554,-21.400475 31.291755,-16.692643 37.086565,-5.891521 5.794811,10.801122 5.106237,38.199063 -2.38304,40.129525 -2.986713,0.769865 -9.3493,-1.115997 -15.824929,-5.019152 L 78,104 H 54 Z" transform="matrix(-1,0,0,1,270,10)" fill="url(#grad-3342-skin-front)"></path>
        <path id="path2678" d="m 94.409096,44.983633 c -0.237732,-1.40005 -0.818733,-2.95479 -1.287532,-4.279369 -0.604403,-1.707556 -1.519065,-3.247134 -2.525628,-4.698122 -1.895034,-2.731784 -4.168362,-5.198652 -6.678337,-7.246084 -4.58478,-3.739826 -10.420983,-5.896973 -16.160172,-5.196437 -2.897723,0.353675 -5.710674,1.458996 -8.104883,3.298755 -2.163141,1.662239 -4.243835,4.109175 -7.044853,4.28499 -3.047738,0.191148 -5.841472,-2.498896 -8.285738,-4.160284 -2.75592,-1.87298 -5.687737,-3.237764 -8.908738,-3.768277 -5.395919,-0.888447 -10.464996,0.934616 -14.183776,5.36169 -3.957286,4.71107 -6.833932,11.619833 -4.235156,17.861963 0.483057,1.160348 1.104506,2.138577 1.996387,2.949338 0.817958,0.743468 2.067212,1.534467 2.398858,2.722414 0.352258,1.262736 -0.700022,2.891755 -1.108071,4.031148 -0.584566,1.632426 -1.064523,3.345945 -0.893896,5.120284 0.28035,2.913903 2.111535,5.695603 4.045158,7.610833 1.967717,1.948962 4.389511,3.066548 6.976199,3.581728 1.727196,0.343965 3.492361,0.53375 5.247763,0.404615 0.871425,-0.06406 1.640411,-0.306144 2.484714,-0.498655 0.821058,-0.18723 1.279939,0.03083 1.976551,0.481107 3.236033,2.092068 6.715532,2.901466 10.452134,2.590382 3.153586,-0.262701 6.788369,-1.026953 9.360954,-3.187677 2.856964,-2.399745 2.800089,-5.708891 2.127807,-9.244452 0.712265,0.352994 2.682772,0.571571 1.505272,-0.835464 -0.466475,-0.55726 -1.347817,-0.784014 -1.946331,-1.111794 -0.696922,-0.381615 -1.404538,-0.874818 -1.945711,-1.497327 -2.185147,-2.513548 0.02185,-7.628891 2.768319,-8.471852 4.080491,-1.252344 4.994069,4.518389 7.906979,6.011117 1.674814,0.858293 3.426807,-0.314832 4.681639,-1.51266 1.680859,-1.604657 2.826434,-3.730457 3.815485,-5.893736 0.814703,-1.781494 1.572841,-3.588032 2.403197,-5.360668 0.387747,-0.827797 1.730141,-3.167915 1.055999,-4.103893 2.922674,-0.582815 6.177923,0.631709 8.695027,2.22444 1.040347,0.658456 1.83351,1.384376 2.388475,2.546768 0.118866,0.249072 0.377674,0.989473 0.702657,1.019798 0.605022,0.05656 0.378913,-0.682818 0.319248,-1.034619" transform="matrix(-1,0,0,1,270,10)" fill="#9b3a0a"></path>
        <path style="fill:url(#linearGradient2743)" id="path2680" d="m 128,0 37.63086,123.02344 c 0,0 12.82367,72.31716 17.45117,100.1582 0.77979,4.69154 -2.15312,5.31624 -2.41354,8.49815 0,1.80328 -0.20553,4.1525 1.19398,7.14052 l 53.09846,0.18219 c 1.46569,-4.84549 -0.0479,-6.47755 -3.22284,-6.68047 -3.79553,-0.24259 -6.22947,-0.50526 -9.43773,-1.81086 -9.40476,-3.60772 -24.35166,-6.5632 -24.72613,-9.68499 C 193.74997,175.64833 178.89062,0 178.89062,0 Z" transform="matrix(-1,0,0,1,350,205)" fill="url(#grad-3342-skin-back)"></path>
        <path id="path2682" d="M 180.67813,224.40192 C 179.55938,227.38841 179,229.62299 179,231.10567 c 0,1.80328 0.30042,4.43473 0.90124,7.89433 h 56.40181 c 1.46569,-4.8455 -0.1442,-6.48758 -3.30204,-6.87394 -3.15784,-0.38636 -5.48841,-0.3714 -7.57711,-0.68274 -2.60366,2.90477 -6.43022,3.55799 -15.68979,2.24918 -12.7965,-1.80874 -19.32497,-4.795 -26.34966,-10.4071 v -1e-5 c -1.0041,-0.46029 -2.19123,-0.0195 -2.65152,0.98465 -0.0198,0.0433 -0.0381,0.0873 -0.0548,0.13183 z" transform="matrix(-1,0,0,1,350,205)" fill="#d5280e"></path>
        <path style="fill:url(#linearGradient2745)" id="path2684" d="m 114.53711,0 c 2.55598,67.546882 -0.45138,102.38846 -1.02344,108.52539 -0.5544,5.94745 -8.54867,44.64721 -24.745806,114.84318 -0.338911,1.46879 -2.154917,3.6561 -2.570214,8.21513 -0.159461,2.73084 0.572697,3.90098 1.173526,7.36058 l 53.275504,0.11232 c 1.46569,-4.84549 1.13239,-6.42806 -2.04384,-6.60913 -3.6796,-0.20977 -6.54057,-0.68645 -8.62928,-0.99779 -14.55285,-5.64536 -27.03488,-6.85705 -25.60292,-10.63596 11.70224,-30.88198 27.45831,-74.40245 40.08055,-110.28829 C 147.81256,101.4624 156.73844,64.620825 171.23242,0 Z" transform="matrix(-1,0,0,1,350,205)" fill="url(#grad-3342-skin-front)"></path>
        <path id="path2686" d="m 86.148066,224.3462 c -1.11875,2.98649 -1.67813,5.22107 -1.67813,6.70375 0,1.80328 0.30042,4.43473 0.90124,7.89433 h 56.401814 c 1.46569,-4.8455 -0.1442,-6.48758 -3.30204,-6.87394 -3.15784,-0.38636 -5.48841,-0.3714 -7.57711,-0.68274 -2.60366,2.90477 -6.43022,3.55799 -15.68979,2.24918 -12.7965,-1.80874 -19.324974,-4.795 -26.349664,-10.4071 v -1e-5 c -1.0041,-0.46029 -2.19123,-0.0195 -2.65152,0.98465 -0.0198,0.0433 -0.0381,0.0873 -0.0548,0.13183 z" transform="matrix(-1,0,0,1,350,205)" fill="#d5280e"></path>
        <path style="fill:url(#grad-3342-bottom-back-7)" id="path2688" d="M 180.58355,0 H 123 l 16,62.67952 h 48.87032 z" transform="matrix(-1,0,0,1,350,205)" fill="url(#grad-3342-bottom-back)"></path>
        <path style="fill:url(#grad-3342-bottom-front-2)" id="path2690" d="m 114,0 c -5.26456,15.780546 -6.26456,36.673719 -3,62.67952 h 49.87032 L 174.58355,0 Z" transform="matrix(-1,0,0,1,350,205)" fill="url(#grad-3342-bottom-front)"></path>
        <path style="fill:url(#linearGradient2747)" id="path2692" d="m 240.7812,192.21148 31.89828,23.4236 c 8.65146,2.33448 15.87948,5.23897 21.68406,8.71346 1.37114,1.2494 3.0283,3.77966 -2.65816,3.34237 -5.68646,-0.4373 -11.68742,-0.64152 -12.47204,1.29804 -0.78462,1.93957 2.65651,4.25907 1.07045,6.87605 -1.05737,1.74465 -6.05282,-2.63 -14.98636,-13.12395 l -31.58766,-13.0986 z" transform="matrix(-1,0,0,1,380,0)" fill="url(#grad-3342-skin-back)"></path>
        <path style="fill:url(#linearGradient2749)" id="path2694" d="m 118.30793,193.01989 20.89739,0.0822 c -12.90318,41.65367 -19.86897,63.75484 -20.89739,66.30353 -2.31394,5.73453 2.58267,14.46813 4.67666,19.1615 -6.82005,3.05177 -6.09337,-8.25017 -14.69667,-4.24761 -7.8527,3.65336 -13.826227,10.27299 -22.898885,4.67488 -1.11543,-0.68825 -2.337759,-3.27966 0.615543,-5.3047 7.357754,-5.04512 17.960722,-13.875 19.393352,-16.78142 1.95364,-3.96342 6.25698,-25.25954 12.91,-63.88836 z" transform="matrix(-1,0,0,1,380,0)" fill="url(#grad-3342-skin-front)"></path>
        <path style="fill:url(#grad-3342-top-back-3)" id="path2696" d="m 177.69499,105.33203 8.64712,-1.48317 c 32.08335,27.71541 45.26113,80.96005 84.58739,109.16591 l -9.4655,11.73285 C 193.24012,216.30047 176.33023,151.3548 177.69499,105.33203 Z" transform="matrix(-1,0,0,1,380,0)" fill="url(#grad-3342-top-back)"></path>
        <path id="path2698" d="m 140,214 c 34.67176,0 60.17557,0 76.51145,0 3.49618,0 2.83739,-5.04836 2.332,-7.59579 -5.83286,-29.40044 -28.60215,-61.0927 -28.60215,-102.94348 L 168.1718,100 C 149.91748,129.35841 143.60483,165.50455 140,214 Z" transform="matrix(-1,0,0,1,380,0)" fill="#607c6b"></path>
        <path style="fill:url(#grad-3342-top-front-5)" id="path2700" d="m 140.61484,128.85796 c -3.20532,-0.92137 -5.7436,-3.07029 -7.61484,-6.44677 -8.06644,-14.55511 -5.15327,-22.568783 3.4672,-25.202921 C 145.08767,94.574131 152.77532,100 166.51003,100 c 0.74706,0 1.43127,0.0468 2.05265,0.1405 l 6.90891,0.39424 C 195.29399,167.71519 200.76088,212.53695 191.87228,235 h -60.22047 c -3.56799,8.31987 -6.98227,15.31987 -10.24282,21 H 105 c -1.54432,-49.93291 10.3273,-92.31359 35.61484,-127.14204 z" transform="matrix(-1,0,0,1,380,0)" fill="url(#grad-3342-top-front)"></path>
        <path id="path2702" d="M 144.76523,200.49763 C 146.65915,216.34402 149.73741,227.84481 154,235 h -22.34819 c 4.16197,-9.7049 8.53311,-21.20569 13.11342,-34.50237 z" transform="matrix(-1,0,0,1,380,0)" fill-opacity="0.1"></path>
        <path id="path2704" d="m 206.73047,55.677734 c -0.98675,0.03721 -1.7792,0.602204 -2.35352,1.296875 -0.57431,0.694672 -0.98829,1.54162 -1.33593,2.359375 -0.77178,1.815412 -0.85429,4.049193 -0.8711,4.792969 l -2.1875,0.449219 c -0.044,-0.886937 -0.16476,-2.498545 -0.73242,-4.150391 l -0.006,-0.01367 -0.004,-0.01367 c -0.36511,-0.93677 -0.8044,-1.817943 -1.41015,-2.517579 -0.60576,-0.699636 -1.43029,-1.220156 -2.41797,-1.259765 -0.83897,-0.03365 -1.59266,0.324483 -2.16211,0.871094 -0.56945,0.54661 -0.99985,1.268769 -1.37695,2.083984 -0.68756,1.486358 -0.98745,3.043613 -1.1211,4.80664 -2.84736,-1.64392 -4.93694,-2.851111 -5.75976,-3.326171 -0.47827,-0.276126 -0.71832,-0.413389 -0.83789,-0.482422 -0.0598,-0.03451 -0.0886,-0.05192 -0.10352,-0.06055 -0.007,-0.0043 -0.0118,-0.0067 -0.0137,-0.0078 0,0 -0.002,0 -0.002,0 0,0 -0.34961,0.605469 -0.34961,0.605469 v -0.701172 c 0,0 -0.0588,0.379973 0,0.820313 v 0.580078 c 0,0 -0.35107,-0.09327 0.60547,0.458984 0.91073,0.525815 2.90629,1.675913 6.37695,3.679688 0.0402,1.87292 0.24731,3.269911 0.96875,4.992187 0.38458,0.918088 0.81122,1.742803 1.38867,2.382813 0.57745,0.640009 1.36326,1.091557 2.27539,1.089843 0.99468,-0.0019 1.85591,-0.476001 2.48438,-1.18164 0.62846,-0.705639 1.07891,-1.629442 1.46875,-2.681641 0.3354,-0.905266 0.50754,-2.137326 0.62304,-3.1875 0.0823,-0.748609 0.0941,-1.046427 0.11328,-1.357422 l 0.88672,-0.183593 1.35157,-0.277344 c 0.0357,0.394017 0.0442,0.640828 0.16601,1.43164 0.18907,1.22776 0.47634,2.681494 1.02539,3.751954 0.49047,0.956244 0.95557,1.656057 1.5332,2.144531 0.57764,0.488474 1.28572,0.716171 2.01172,0.703125 0.90763,-0.01631 1.6606,-0.587386 2.27735,-1.337891 0.61675,-0.750505 1.12467,-1.732723 1.48242,-2.822265 0.70339,-2.142182 0.81289,-4.157768 0.73047,-5.714844 -0.0801,-1.512209 -0.22783,-3.262569 -1.0293,-4.882813 -0.43784,-0.88514 -0.87884,-1.64736 -1.46094,-2.224609 -0.58209,-0.577249 -1.36072,-0.948961 -2.23437,-0.916016 z m 0.0527,1.400391 c 0.49211,-0.01856 0.80998,0.127639 1.19532,0.509766 0.38533,0.382126 0.78366,1.021371 1.19336,1.849609 0.65095,1.315965 0.80682,2.865611 0.88476,4.337891 0.0756,1.427411 -0.0267,3.267971 -0.66211,5.203125 -0.31165,0.949126 -0.76309,1.797605 -1.23437,2.371093 -0.47128,0.573489 -0.93669,0.821103 -1.21875,0.826172 -0.46369,0.0083 -0.74079,-0.08118 -1.08594,-0.373047 -0.34515,-0.29187 -0.7399,-0.836424 -1.18945,-1.71289 -0.39097,-0.762251 -0.70719,-2.16032 -0.88672,-3.326172 -0.17671,-1.147466 -0.24016,-2.043248 -0.24219,-2.072266 0.001,-0.04449 0.10473,-3.191638 0.79297,-4.810547 0.32437,-0.762998 0.70255,-1.502691 1.125,-2.013671 0.42245,-0.510981 0.83017,-0.770285 1.32812,-0.789063 z m -11.42578,0.941406 c 0.55193,0.02213 0.97801,0.273706 1.41406,0.777344 0.43369,0.500903 0.8261,1.250302 1.15821,2.099609 0.62911,1.843666 0.70389,4.472957 0.70508,4.515625 -9.6e-4,0.01895 -0.0392,0.805359 -0.14844,1.798829 -0.11058,1.005343 -0.30844,2.215226 -0.54492,2.853515 -0.35756,0.965077 -0.76441,1.743733 -1.20313,2.236328 -0.43872,0.492596 -0.85355,0.711779 -1.43945,0.712891 -0.4827,9.07e-4 -0.83621,-0.185647 -1.23438,-0.626953 -0.39817,-0.441306 -0.78234,-1.140347 -1.13672,-1.986328 -0.71762,-1.713182 -0.87801,-2.83117 -0.89062,-4.863282 0.0475,-2.181534 0.35631,-3.749288 1.10742,-5.373047 0.33596,-0.726264 0.70401,-1.306747 1.07422,-1.662109 0.37021,-0.355362 0.69771,-0.500106 1.13867,-0.482422 z" transform="matrix(-1,0,0,1,380,0)" fill="#491e14"></path>
      </g>
    </g>
  </g>
</svg>
