<?xml version="1.0" encoding="UTF-8" standalone="no"?>
<!-- Generator: Adobe Illustrator 16.0.0, SVG Export Plug-In . SVG Version: 6.00 Build 0)  -->

<svg
   xmlns:dc="http://purl.org/dc/elements/1.1/"
   xmlns:cc="http://creativecommons.org/ns#"
   xmlns:rdf="http://www.w3.org/1999/02/22-rdf-syntax-ns#"
   xmlns:svg="http://www.w3.org/2000/svg"
   xmlns="http://www.w3.org/2000/svg"
   xmlns:sodipodi="http://sodipodi.sourceforge.net/DTD/sodipodi-0.dtd"
   xmlns:inkscape="http://www.inkscape.org/namespaces/inkscape"
   version="1.1"
   id="svg3100"
   sodipodi:docname="NBC_1986_Hop.svg"
   inkscape:version="0.91 r13725"
   x="0px"
   y="0px"
   width="567.188px"
   height="559px"
   viewBox="0 0 567.188 559"
   enable-background="new 0 0 567.188 559"
   xml:space="preserve"><metadata
     id="metadata18"><rdf:RDF><cc:Work
         rdf:about=""><dc:format>image/svg+xml</dc:format><dc:type
           rdf:resource="http://purl.org/dc/dcmitype/StillImage" /></cc:Work></rdf:RDF></metadata><defs
     id="defs16" /><sodipodi:namedview
     inkscape:cx="-82.504685"
     inkscape:cy="352.39744"
     showgrid="false"
     inkscape:zoom="0.70710678"
     gridtolerance="10"
     bordercolor="#666666"
     guidetolerance="10"
     objecttolerance="10"
     pagecolor="#ffffff"
     id="namedview3102"
     borderopacity="1"
     inkscape:window-height="709"
     inkscape:pageopacity="0"
     inkscape:window-width="1366"
     inkscape:window-y="-8"
     inkscape:window-maximized="1"
     inkscape:current-layer="svg3100"
     inkscape:pageshadow="2"
     inkscape:window-x="-8" /><g
     id="g4"><path
       id="path3113"
       inkscape:connector-curvature="0"
       fill="#FFFFFF"
       d="M283.575,43.267c-8.844-22.077-30.385-45.92-70.727-42.645   c-51.391,5.587-67.406,54.837-59.641,84.219c-20.467-13.86-55.272-19.955-85.651,6.067c-39.223,39.319-18.243,92.492,3.319,105.247   c-23.764-2.201-61.321,13.857-69.63,55.861c-8.839,52.152,30.918,82.555,69.63,82.555h429.281c44.766,0,69.605-38.727,66.818-75.25   c-4.393-47.667-48.012-65.956-71.805-62.038c19.879-11.09,46.43-63.189,6.059-104.146c-32.045-30.48-72.898-19.391-87.262-6.096   c7.744-25.463-4.953-78.098-56.93-86.424C353.446,0.215,349.987,0,346.69,0C307.012,0.004,289.173,29.007,283.575,43.267" /><path
       id="path3115"
       inkscape:connector-curvature="0"
       fill="#0082C7"
       d="M74.707,99.207c-22.665,20.517-30.914,67.005,9.943,94.181   l162.993,111.825l-79.031-181.059C152.052,81.428,106.748,72.111,74.707,99.207"
       style="fill:#f37021;fill-opacity:1" /><path
       id="path3117"
       inkscape:connector-curvature="0"
       fill="#22B14C"
       d="M215.012,11.176c-26.494,0.539-66.277,32.09-48.572,80.268   l81.736,192.771l28.723-202.758C283.546,31.076,245.419,7.819,215.012,11.176"
       style="fill:#cc004c;fill-opacity:1" /><path
       id="path3119"
       inkscape:connector-curvature="0"
       fill="#00A240"
       d="M289.657,73.725h15.455c0,0,8.254,0,9.377,3.893   c-6.082,4.967-22.639,5.589-20.441,32.121l25.984,174.45l81.18-193.278c16.605-43.155-18.25-79.196-49.168-80.298   c-1.443-0.104-2.893-0.188-4.391-0.188C319.901,10.424,288.1,30.592,289.657,73.725"
       style="fill:#6460aa;fill-opacity:1" /><path
       id="path3121"
       inkscape:connector-curvature="0"
       fill="#F07800"
       d="M397.944,125.795l-76.785,178.886l162.947-112.415   c37.561-26.642,31.502-69.236,10.477-90.289c-8.814-9.909-24.998-17.564-42.143-17.564   C432.186,84.41,410.509,95.153,397.944,125.795"
       style="fill:#0089d0;fill-opacity:1" /><path
       id="path3123"
       inkscape:connector-curvature="0"
       fill="#E96813"
       d="M465.862,217.72L312.835,324.607h188.418   c38.656,0,63.498-39.859,52.455-76.434c-7.396-22.989-29.279-41.036-54.678-41.062C488.339,207.116,477.001,210.336,465.862,217.72   "
       style="fill:#0db14b;fill-opacity:1" /><path
       id="path3125"
       inkscape:connector-curvature="0"
       fill="#4D6DF3"
       d="M70.316,324.607h185.638L102.89,217.72   c-35.36-22.72-75.123-9.426-89.477,28.276C1.246,289.156,31.625,324.607,70.316,324.607"
       style="fill:#fcb711;fill-opacity:1" /><path
       id="path3127"
       inkscape:connector-curvature="0"
       d="M275.901,470.85h34.438c7.916,0.498,21.949,7.41,21.949,23.779   c0,17.121-14.564,24.029-22.455,24.809h-33.932V470.85 M275.376,394.629h28.346c9.689,0.523,21.146,7.683,21.146,20.976   c0,13.039-8.662,21.729-19.869,23.278h-29.623V394.629 M236.622,362.91v188.215h91.324c21.676,0,47.443-21.725,47.443-50.113   c0-29.66-19.377-44.227-31.637-50.113c0,0,22.449-13.04,21.451-41.178c-1.021-37.85-35.986-46.811-47.973-46.811H236.622" /><polygon
       id="polygon3129"
       points="96.549,551.125 96.549,442.719 214.919,558.285 214.919,362.91 175.143,362.91 175.143,468.543    56.745,355.256 56.745,551.125  " /><path
       id="path3131"
       inkscape:connector-curvature="0"
       d="M381.784,454.979C382.782,514.5,425.548,559,480.526,559   c13.035,0,26.768-2.467,40.803-7.875v-38.35c-11.123,6.797-23.5,10.074-35.627,10.074c-33.27,0-64.662-24.619-63.363-69.398   c2.242-36.324,31.979-61.406,64.027-61.406c11.736,0,23.807,3.381,34.963,10.767V365.49c-13.008-5.273-25.938-7.631-38.393-7.631   C428.096,357.858,382.837,404.117,381.784,454.979" /></g></svg>