<?xml version="1.0" encoding="UTF-8"?> <!-- Generator: Adobe Illustrator 23.0.2, SVG Export Plug-In . SVG Version: 6.00 Build 0) --> <svg xmlns="http://www.w3.org/2000/svg" xmlns:xlink="http://www.w3.org/1999/xlink" id="Layer_1" x="0px" y="0px" viewBox="0 0 400 245" style="enable-background:new 0 0 400 245;" xml:space="preserve"> <style type="text/css"> .st0{fill:#008CC1;} .st1{fill:#FFFFFF;} .st2{fill:#64B145;stroke:#FFFFFF;stroke-width:1.9939;stroke-miterlimit:10;} .st3{fill:#101010;} </style> <g> <g> <path class="st0" d="M118.2,116c0,32.5-26.3,58.8-58.8,58.8c-32.5,0-58.8-26.3-58.8-58.8c0-32.5,26.3-58.8,58.8-58.8 C91.8,57.2,118.2,83.6,118.2,116"></path> <path class="st1" d="M26.7,96.8c0,2.6-2.1,4.7-4.7,4.7c-2.6,0-4.7-2.1-4.7-4.7c0-2.6,2.1-4.7,4.7-4.7 C24.6,92.1,26.7,94.2,26.7,96.8"></path> <path class="st1" d="M27.4,109.7c0,2.6-2.1,4.7-4.7,4.7c-2.6,0-4.7-2.1-4.7-4.7c0-2.6,2.1-4.7,4.7-4.7 C25.3,105,27.4,107.1,27.4,109.7"></path> <path class="st1" d="M30.3,123.3c0,2.6-2.1,4.7-4.7,4.7c-2.6,0-4.7-2.1-4.7-4.7c0-2.6,2.1-4.7,4.7-4.7 C28.2,118.6,30.3,120.7,30.3,123.3"></path> <path class="st1" d="M36.8,135.6c0,2.6-2.1,4.7-4.7,4.7c-2.6,0-4.7-2.1-4.7-4.7c0-2.6,2.1-4.7,4.7-4.7 C34.7,130.9,36.8,133,36.8,135.6"></path> <path class="st1" d="M87.1,152.7c0,2.6-2.1,4.7-4.7,4.7c-2.6,0-4.7-2.1-4.7-4.7c0-2.6,2.1-4.7,4.7-4.7 C85,148,87.1,150.1,87.1,152.7"></path> <path class="st1" d="M95.6,142.6c0,2.6-2.1,4.7-4.7,4.7c-2.6,0-4.7-2.1-4.7-4.7c0-2.6,2.1-4.7,4.7-4.7 C93.5,137.9,95.6,140,95.6,142.6"></path> <path class="st1" d="M70.8,71.1c0,2.6-2.1,4.7-4.7,4.7c-2.6,0-4.7-2.1-4.7-4.7c0-2.6,2.1-4.7,4.7-4.7 C68.7,66.4,70.8,68.5,70.8,71.1"></path> <path class="st1" d="M58.5,66.8c0,2.6-2.1,4.7-4.7,4.7c-2.6,0-4.7-2.1-4.7-4.7c0-2.6,2.1-4.7,4.7-4.7 C56.4,62.1,58.5,64.2,58.5,66.8"></path> <circle class="st2" cx="91.8" cy="102" r="31.3"></circle> <circle class="st2" cx="48.9" cy="165.9" r="25.6"></circle> <circle class="st2" cx="27.8" cy="70.5" r="17.1"></circle> </g> <g> <path class="st3" d="M137.6,81.6h5.7v11.1c2.7-6.7,8.4-12,20.1-12c13.2,0,22.1,8.9,22.1,22.9V139h-5.7v-34.3 c0-11.5-7.1-18.7-17.7-18.7c-11.5,0-18.8,8.9-18.8,22.1V139h-5.7V81.6z"></path> <path class="st3" d="M195.6,110.4c0-17.9,12.2-30.2,28-30.2c15.6,0,26.7,12.9,26.7,28.6c0,0,0,1.7-0.1,2.8h-49 c0.3,13.8,9.6,23.6,22.7,23.6c10.7,0,18.1-4.6,21.5-8.9v6.7c-5.4,4.8-11.8,7.5-21.5,7.5c-16.5,0-28.3-12.1-28.3-29.9V110.4z M244.2,106.5c-0.1-11.7-9.2-21-20.6-21c-12,0-21.8,9.2-22.2,21H244.2z"></path> <path class="st3" d="M289.4,80.1c16.9,0,30.2,12.9,30.2,30.2c0,17.3-13.3,30.2-30.2,30.2c-16.9,0-30.2-12.9-30.2-30.2 C259.2,93,272.5,80.1,289.4,80.1z M289.4,135.1c14,0,24.5-10.7,24.5-24.8s-10.5-24.8-24.5-24.8s-24.5,10.7-24.5,24.8 S275.4,135.1,289.4,135.1z"></path> <path class="st3" d="M349.6,81.6h6.4l-24.4,52h35.4v-18.8h5.9V161h-5.9v-22h-44.4L349.6,81.6z"></path> <path class="st3" d="M392.5,81.6h5.7V147c0,12.9-7.4,15.5-14.6,15.5c-1.4,0-2.8-0.1-3.8-0.3v-5.4c1.4,0.2,3,0.3,4.3,0.3 c5.8,0,8.3-2.8,8.3-10.1V81.6z M391.2,66.2c0-2.4,1.9-4.1,4.1-4.1s4.1,1.7,4.1,4.1c0,2.3-1.9,4-4.1,4S391.2,68.5,391.2,66.2z"></path> </g> </g> </svg> 