<svg id="Layer_1" data-name="Layer 1" xmlns="http://www.w3.org/2000/svg" viewBox="0 0 900 169.11594"><defs><style>.cls-1{fill:#2ac3d3;}.cls-2{fill:#1a758e;}.cls-3{fill:#1e869e;}.cls-4{fill:#0c4463;}.cls-5{fill:#0f506d;}.cls-6{fill:#24a0b5;}.cls-7{fill:#30373e;}</style></defs><title>novvum</title><polygon class="cls-1" points="65.434 73.878 93.109 101.143 93.109 44.957 65.434 73.878"/><polygon class="cls-2" points="65.627 73.878 35.666 45.227 35.86 101.801 65.627 73.878"/><polygon class="cls-2" points="36.767 46.366 7.194 17.328 7 74.482 36.767 46.366"/><polygon class="cls-3" points="35.86 101.554 65.434 129.817 65.434 74.019 35.86 101.554"/><polygon class="cls-4" points="35.965 101.905 6.198 130.556 6.973 74.37 35.965 101.905"/><polygon class="cls-5" points="6.973 74.577 35.965 45.926 35.965 102.112 6.973 74.577"/><polygon class="cls-6" points="65.24 129.624 65.415 73.631 93.147 99.67 93.147 154.74 65.24 129.624"/><path class="cls-7" d="M145.366,29.31352h13.16824l65.86033,67.64634-.34859-67.259,27.1154-.44049V144.47758H238.90621L170.56656,77.61107v66.86651H145.55972Z"/><path class="cls-7" d="M270.42544,87.22465v-.3291c0-32.73975,25.82959-59.55664,61.36573-59.55664,35.53662,0,61.03711,26.48779,61.03711,59.22754v.3291c0,32.73926-25.82959,59.55664-61.36573,59.55664C295.92593,146.45219,270.42544,119.96391,270.42544,87.22465Zm95.915,0v-.3291c0-19.74268-14.47754-36.19434-34.87793-36.19434-20.40088,0-34.54931,16.123-34.54931,35.86524v.3291c0,19.74219,14.47754,36.19433,34.87793,36.19433C352.192,123.08988,366.34048,106.96684,366.34048,87.22465Z"/><path class="cls-7" d="M398.08853,29.31352h27.96826l30.10693,81.1084,30.10743-81.1084h27.31054L467.02212,145.29985H444.64761Z"/><path class="cls-7" d="M519.82974,29.31352h27.96875l30.10742,81.1084,30.10645-81.1084H635.3229L588.76431,145.29985h-22.375Z"/><path class="cls-7" d="M651.278,95.12162V29.31352h25.33594v65.1499c0,18.75537,9.37793,28.4624,24.84277,28.4624s24.84278-9.37793,24.84278-27.63965V29.31352H751.6354V94.29887c0,34.87793-19.57812,51.98828-50.50781,51.98828S651.278,129.01274,651.278,95.12162Z"/><path class="cls-7" d="M775.5238,29.31352h10.6538l48.16305,54.09579,47.852-54.09579h12.08318V144.47758H869.15418L868.0379,82.44827l-34.93207,36.03517h-.65723l-32.082-36.40727-.19368,62.40141H775.5238Z"/></svg>