<svg height="64" width="64" xmlns="http://www.w3.org/2000/svg" xmlns:xlink="http://www.w3.org/1999/xlink"><clipPath id="a"><path d="m2 61.8-.7-50.8h374l.7 50.8z"/></clipPath><path clip-path="url(#a)" d="m13 39.2v-13.7l-4.5 1.8s-1.1 2.3-.9 5.7c.1 2.7 1.7 5.8 2.9 7.2zm12.1-28.2c1 .1 2.7.6 3.9 1.6 1.3 1.2 1.6 3.1 1.2 4.8-.4 1.5-.9 2.3-2.5 3.4s-2.8 1.2-2.8 1.2v6.6l3.1 2.4-3.1 2.8v9s2.6-2.1 4.6-6.2c0 0 .1-.2.3-.7.2 1.1.1 3.4-1.2 6.2-1 2.2-2.7 4.2-5 5.4-3.9 2.1-6.9 2.3-10 1.7-3.7-.7-7.1-2.7-9.3-6.2-1.6-2.5-2.3-5.3-2.3-8.4.1-6.1 4.8-11.3 10.2-13.3.7-.2.9-.4 1.8-.5-.4.3-.9.6-1.5 1-1.7 1.1-3.2 3.3-3.9 5l10.4-4.5v14.1l-8.3 4.1c1 1.3 3.9 3.2 6.4 3.5 4.2.5 7-1.1 7-1.1v-9.2l-3.1-2.7 3.1-2.4v-6.6c-1.8-.2-4.3-1-5.5-1.3-1.9-.4-8.1-2.1-9.1-2.3-1-.1-2.2-.1-2.9.5s-1.2 1.8-.9 2.8c.2.6.6.9.9 1.2 0 0-.4 0-1-.4-1.2-.7-2.1-2-2.2-3.7a6.2 6.2 0 0 1 2.6-5.4c1.6-1 3.4-1.6 5.5-1.3 3.1.4 7.2 2.1 10.9 3 1.4.3 2.5.4 3.5-.1.5-.3 1.3-1.2.6-2.3-.8-1.3-2.3-1.3-3.6-1.5 1.2-.2 1.4-.2 2.2-.2" fill="#251802" transform="matrix(1.662571 0 0 1.662571 5.095437 -18.288283)"/></svg>