<?xml version="1.0" encoding="utf-8"?>
<!-- Generator: Adobe Illustrator 23.0.2, SVG Export Plug-In . SVG Version: 6.00 Build 0)  -->
<svg version="1.1" id="Layer_1" xmlns="http://www.w3.org/2000/svg" xmlns:xlink="http://www.w3.org/1999/xlink" x="0px" y="0px"
	 viewBox="0 0 400 245" style="enable-background:new 0 0 400 245;" xml:space="preserve">
<style type="text/css">
	.st0{fill:#1E65F3;}
	.st1{fill:#121112;}
	.st2{fill:#7BB1DB;}
	.st3{fill:#958437;}
	.st4{fill:#739833;}
	.st5{fill:#C9D200;}
	.st6{fill:#F9B500;}
	.st7{fill:url(#SVGID_1_);}
	.st8{fill:url(#SVGID_2_);}
	.st9{fill:url(#SVGID_3_);}
	.st10{fill:url(#SVGID_4_);}
	.st11{fill:#808184;}
	.st12{clip-path:url(#SVGID_6_);fill-rule:evenodd;clip-rule:evenodd;}
	.st13{fill:none;}
	.st14{fill:#020202;}
	.st15{fill:#E7E015;}
	.st16{fill:#323644;}
	.st17{fill:#F26F21;}
	.st18{fill-rule:evenodd;clip-rule:evenodd;fill:#58595B;}
	.st19{fill:#58595B;}
	.st20{fill:url(#SVGID_7_);}
	.st21{fill:url(#SVGID_8_);}
	.st22{fill:url(#SVGID_9_);}
	.st23{fill:url(#SVGID_10_);}
	.st24{fill:url(#SVGID_11_);}
	.st25{fill:url(#SVGID_12_);}
	.st26{fill:url(#SVGID_13_);}
	.st27{fill:url(#SVGID_14_);}
	.st28{fill:url(#SVGID_15_);}
	.st29{fill:url(#SVGID_16_);}
	.st30{fill:url(#SVGID_17_);}
	.st31{fill:url(#SVGID_18_);}
	.st32{fill:#670000;}
	.st33{fill-rule:evenodd;clip-rule:evenodd;fill:#F8A03A;}
	.st34{fill-rule:evenodd;clip-rule:evenodd;fill:#FFFFFF;}
	.st35{fill:#919195;}
	.st36{fill:#EE3124;}
	.st37{fill:#455560;}
	.st38{fill-rule:evenodd;clip-rule:evenodd;fill:#D0D2D3;}
	.st39{fill-rule:evenodd;clip-rule:evenodd;fill:#EF3E42;}
	.st40{fill-rule:evenodd;clip-rule:evenodd;fill:#231F20;}
	.st41{fill-rule:evenodd;clip-rule:evenodd;fill:#231F20;stroke:#231F20;stroke-width:0.2642;stroke-miterlimit:10;}
	.st42{fill:#1F88A0;}
	.st43{fill:#231F20;}
	.st44{fill:#009DDC;}
	.st45{fill:#1D3586;}
	.st46{fill:#211D70;}
	.st47{fill:#72C5E7;}
	.st48{fill:#F48C45;}
	.st49{fill:#238BC2;}
	.st50{fill:#EC6025;}
	.st51{fill:#1090D3;}
	.st52{fill:#F48C46;}
	.st53{fill:#F18041;}
	.st54{fill:#6DB9E4;}
	.st55{fill:#6BB3E1;}
	.st56{fill:#76BDE6;}
	.st57{fill:#A6CEEE;}
	.st58{fill:#F49357;}
	.st59{fill:#77BBE3;}
	.st60{fill:#85C1E7;}
	.st61{fill:#F17C3E;}
	.st62{fill:#88C3EA;}
	.st63{fill:#9DC4EB;}
	.st64{fill:#F9BD95;}
	.st65{fill:#F6985C;}
	.st66{fill:#FAB182;}
	.st67{fill:#F49056;}
	.st68{fill:#6EBCE5;}
	.st69{fill:#F69E67;}
	.st70{fill:#ACD1EF;}
	.st71{fill:#F8B07F;}
	.st72{fill:#8DC7EC;}
	.st73{fill:#F9C29D;}
	.st74{fill:#B7DBF3;}
	.st75{fill:#F3955D;}
	.st76{fill:#FFFFFF;}
	.st77{fill:#B7274C;}
	.st78{fill:#00ABE8;}
	.st79{fill:#008CCC;}
	.st80{fill:#007BB6;}
	.st81{fill:#68CEF2;}
	.st82{fill:#595959;}
	.st83{fill:#8EC341;}
</style>
<g>
	<g>
		<g>
			<path class="st44" d="M242.94,178.46h-19.11c-1.31,0-2.42,0.95-2.62,2.24l-7.73,49c-0.15,0.97,0.59,1.84,1.57,1.84h9.8
				c0.91,0,1.69-0.67,1.84-1.57l2.19-13.89c0.2-1.29,1.32-2.24,2.62-2.24h6.05c12.59,0,19.85-6.09,21.75-18.16
				c0.85-5.28,0.03-9.43-2.44-12.33C254.15,180.15,249.33,178.46,242.94,178.46z M245.14,196.36c-1.04,6.86-6.28,6.86-11.35,6.86
				h-2.88l2.02-12.81c0.12-0.77,0.79-1.34,1.57-1.34h1.32c3.45,0,6.71,0,8.39,1.96C245.22,192.21,245.52,193.95,245.14,196.36z"/>
			<path class="st45" d="M106.65,178.46H87.54c-1.31,0-2.42,0.95-2.62,2.24l-7.73,49c-0.15,0.97,0.59,1.84,1.57,1.84h9.12
				c1.31,0,2.42-0.95,2.62-2.24l2.09-13.22c0.2-1.29,1.32-2.24,2.62-2.24h6.05c12.59,0,19.85-6.09,21.75-18.16
				c0.85-5.28,0.03-9.43-2.44-12.33C117.86,180.15,113.04,178.46,106.65,178.46z M108.85,196.36c-1.04,6.86-6.28,6.86-11.35,6.86
				h-2.88l2.02-12.81c0.12-0.77,0.79-1.34,1.57-1.34h1.32c3.45,0,6.71,0,8.39,1.96C108.93,192.21,109.23,193.95,108.85,196.36z"/>
			<path class="st45" d="M163.76,196.14h-9.15c-0.78,0-1.45,0.57-1.57,1.34l-0.4,2.56l-0.64-0.93c-1.98-2.88-6.4-3.84-10.81-3.84
				c-10.11,0-18.74,7.66-20.42,18.4c-0.87,5.36,0.37,10.48,3.41,14.06c2.79,3.28,6.78,4.65,11.52,4.65c8.15,0,12.67-5.23,12.67-5.23
				l-0.41,2.54c-0.15,0.97,0.59,1.84,1.57,1.84h8.24c1.31,0,2.42-0.95,2.62-2.24l4.95-31.32
				C165.49,197.01,164.74,196.14,163.76,196.14z M151.01,213.95c-0.88,5.23-5.03,8.74-10.33,8.74c-2.65,0-4.78-0.85-6.14-2.47
				c-1.35-1.6-1.86-3.88-1.43-6.43c0.82-5.18,5.04-8.8,10.25-8.8c2.6,0,4.71,0.86,6.1,2.49
				C150.86,209.12,151.41,211.42,151.01,213.95z"/>
			<path class="st44" d="M300.05,196.14h-9.15c-0.78,0-1.45,0.57-1.57,1.34l-0.4,2.56l-0.64-0.93c-1.98-2.88-6.4-3.84-10.81-3.84
				c-10.11,0-18.74,7.66-20.42,18.4c-0.87,5.36,0.37,10.48,3.41,14.06c2.79,3.28,6.78,4.65,11.52,4.65c8.15,0,12.67-5.23,12.67-5.23
				l-0.41,2.54c-0.15,0.97,0.59,1.84,1.57,1.84h8.24c1.31,0,2.42-0.95,2.62-2.24l4.95-31.32
				C301.78,197.01,301.03,196.14,300.05,196.14z M287.3,213.95c-0.88,5.23-5.03,8.74-10.33,8.74c-2.65,0-4.78-0.85-6.14-2.47
				c-1.35-1.6-1.86-3.88-1.43-6.43c0.82-5.18,5.04-8.8,10.25-8.8c2.6,0,4.71,0.86,6.1,2.49C287.15,209.12,287.7,211.42,287.3,213.95
				z"/>
			<path class="st45" d="M212.5,196.14h-9.2c-0.88,0-1.7,0.44-2.2,1.16l-12.69,18.68l-5.38-17.95c-0.34-1.12-1.37-1.89-2.54-1.89
				h-9.04c-1.09,0-1.86,1.07-1.51,2.11l10.13,29.72l-9.52,13.44c-0.75,1.05,0.01,2.51,1.3,2.51h9.19c0.87,0,1.69-0.43,2.18-1.14
				l30.59-44.14C214.54,197.58,213.78,196.14,212.5,196.14z"/>
			<path class="st44" d="M310.84,179.81l-7.84,49.89c-0.15,0.97,0.6,1.84,1.57,1.84h7.89c1.31,0,2.42-0.95,2.62-2.24l7.73-49
				c0.15-0.97-0.59-1.84-1.57-1.84h-8.83C311.62,178.46,310.96,179.03,310.84,179.81z"/>
		</g>
	</g>
	<g>
		<path class="st44" d="M260.78,41.92c1.94-12.39-0.01-20.82-6.72-28.46c-7.38-8.41-20.71-12.01-37.77-12.01h-49.51
			c-3.49,0-6.45,2.54-7,5.98l-20.62,130.73c-0.41,2.58,1.59,4.91,4.2,4.91h30.56l-2.11,13.38c-0.36,2.26,1.39,4.3,3.67,4.3h25.76
			c3.05,0,5.65-2.22,6.12-5.23l0.25-1.31l4.85-30.77l0.31-1.7c0.48-3.01,3.07-5.23,6.12-5.23h3.85c24.96,0,44.5-10.14,50.21-39.46
			c2.39-12.25,1.15-22.48-5.16-29.67C265.93,45.19,263.55,43.39,260.78,41.92L260.78,41.92"/>
		<path class="st46" d="M260.78,41.92c1.94-12.39-0.01-20.82-6.72-28.46c-7.38-8.41-20.71-12.01-37.77-12.01h-49.51
			c-3.49,0-6.45,2.54-7,5.98l-20.62,130.73c-0.41,2.58,1.59,4.91,4.2,4.91h30.56l7.68-48.68l-0.24,1.53
			c0.54-3.44,3.49-5.98,6.97-5.98h14.53c28.53,0,50.87-11.59,57.4-45.11C260.47,43.83,260.63,42.87,260.78,41.92"/>
		<path class="st45" d="M189.87,42.09c0.33-2.07,1.66-3.77,3.45-4.62c0.81-0.39,1.72-0.61,2.68-0.61h38.81c4.6,0,8.88,0.3,12.8,0.93
			c1.12,0.18,2.21,0.39,3.27,0.62c1.06,0.23,2.09,0.5,3.08,0.79c0.5,0.15,0.99,0.3,1.47,0.46c1.92,0.64,3.72,1.39,5.36,2.27
			c1.94-12.39-0.01-20.82-6.72-28.46c-7.38-8.41-20.71-12.01-37.77-12.01h-49.51c-3.49,0-6.45,2.54-7,5.98l-20.62,130.73
			c-0.41,2.58,1.59,4.91,4.2,4.91h30.56l7.68-48.68L189.87,42.09z"/>
	</g>
</g>
</svg>
