<?xml version="1.0" encoding="utf-8"?>
<!-- Generator: Adobe Illustrator 19.0.0, SVG Export Plug-In . SVG Version: 6.00 Build 0)  -->
<svg version="1.1" id="Layer_1" xmlns="http://www.w3.org/2000/svg" xmlns:xlink="http://www.w3.org/1999/xlink" x="0px" y="0px"
	 viewBox="0 0 500 500" style="enable-background:new 0 0 500 500;" xml:space="preserve">
<style type="text/css">
	.st0{fill:#029AFF;}
	.st1{fill:#303030;}
</style>
<g id="XMLID_1_">
	<path id="XMLID_2_" class="st0" d="M283.8,200.7c-13.1,13.2-20.3,30.7-20.3,49.3c0,18.6,7.2,36.1,20.3,49.3
		c13.1,13.2,30.5,20.4,49.1,20.4c18.6,0,36-7.2,49.1-20.4c13.1-13.2,20.3-30.7,20.3-49.3c0-18.6-7.2-36.1-20.3-49.3
		c-13.1-13.2-30.6-20.4-49.1-20.4C314.3,180.4,296.9,187.6,283.8,200.7z"/>
	<path id="XMLID_3_" class="st1" d="M167,150.2c-54.8,0-99.5,44.8-99.5,99.8c0,55,44.6,99.8,99.5,99.8H333
		c26.6,0,51.6-10.4,70.3-29.2c18.8-18.8,29.1-43.9,29.1-70.6c0-26.7-10.3-51.7-29.1-70.6c-18.8-18.8-43.8-29.2-70.3-29.2H167z
		 M285.9,297.2c-12.6-12.6-19.5-29.4-19.5-47.3c0-17.8,6.9-34.6,19.5-47.3c12.6-12.6,29.3-19.6,47.1-19.6c17.8,0,34.5,6.9,47.1,19.6
		c12.6,12.6,19.5,29.4,19.5,47.3c0,17.8-6.9,34.6-19.5,47.3c-12.6,12.6-29.3,19.6-47.1,19.6C315.2,316.8,298.5,309.9,285.9,297.2
		L285.9,297.2z M100.4,250c0-36.8,29.9-66.8,66.6-66.8h92.4c-34.2,37.9-34.2,95.8,0,133.7H167C130.2,316.8,100.4,286.8,100.4,250
		L100.4,250z"/>
</g>
</svg>
