<svg xmlns="http://www.w3.org/2000/svg" viewBox="0 0 97 34"><path d="m90.521 20.885-6.814-11.77a.314.314 0 0 0 -.272-.157h-4.463c-.044 0-.08.017-.118.033-.013-.002-.025-.01-.039-.01l-2.46-.001c.001-.023.002-.64.004-.663.177-3.148 2.939-3.946 3.88-4.114a.31.31 0 0 0 .256-.308l-.005-3.28a.312.312 0 0 0 -.332-.312c-1.788.115-7.98 1.507-8.305 8.014l-.004.663h-1.893a.273.273 0 0 0 -.273.273v3.18c0 .151.122.274.273.274h1.597c.15 0 .273.122.273.272v13.824c0 .17.137.307.306.307h3.887a.303.303 0 0 0 .228-.106.305.305 0 0 0 .11-.232v-13.782c0-.083.034-.158.088-.213a.3.3 0 0 1 .187-.07l3.752-.05a.314.314 0 0 1 .276.157l4.673 8.071a.315.315 0 0 1 .004.308l-6.197 11.497a.314.314 0 0 0 .276.464h4.471a.314.314 0 0 0 .276-.165l6.362-11.796a.315.315 0 0 0 -.004-.308m6.429-11.493-4.881 9.057a.314.314 0 0 1 -.547.01l-2.34-3.988a.313.313 0 0 1 -.005-.308l2.735-5.051a.31.31 0 0 1 .271-.165c.72-.007 3.373-.03 4.497-.018a.313.313 0 0 1 .27.463m-32.85 6.673h-8.716a.305.305 0 0 1 -.275-.443c.461-.908 1.794-2.888 4.637-2.888 2.793 0 4.15 1.977 4.627 2.885a.306.306 0 0 1 -.273.446m-4.336-7.8c-5.275 0-9.551 4.287-9.551 9.576s4.276 9.576 9.551 9.576c2.848 0 6.528-1.399 8.561-5.356a.308.308 0 0 0 -.276-.445h-4.675c-.078 0-.15.03-.207.084-.324.31-.717.593-1.182.82h.001c-.61.294-1.347.485-2.24.485-2.811 0-4.168-1.84-4.55-2.817a.304.304 0 0 1 .289-.41l13.355.002c.15 0 .284-.122.304-.27.047-.373.11-.75.13-1.135.307-5.829-4.328-10.11-9.51-10.11m-19.709 14.736a5.261 5.261 0 0 1 -6.313-6.313 5.14 5.14 0 0 1 3.914-3.913 5.26 5.26 0 0 1 6.313 6.312 5.141 5.141 0 0 1 -3.914 3.914m2.932-13.838c-4.283-1.867-7.907-.012-9.06.731-.604.39-.578-.885-1.155-.885h-3.393a.306.306 0 0 0 -.306.306v23.585c0 .168.137.306.306.306h3.852a.306.306 0 0 0 .306-.306v-6.72c0-.237.257-.386.46-.264.85.513 2.803 1.502 5.203 1.502 5.579 0 10.054-4.82 9.48-10.514-.343-3.4-2.562-6.375-5.693-7.741m-32.005 13.838a5.261 5.261 0 0 1 -6.313-6.313 5.14 5.14 0 0 1 3.914-3.913 5.26 5.26 0 0 1 6.313 6.312 5.14 5.14 0 0 1 -3.914 3.914m2.932-13.838c-4.282-1.867-7.906-.012-9.06.731-.604.39-.578-.885-1.155-.885h-3.393a.306.306 0 0 0 -.306.306v23.585c0 .168.137.306.306.306h3.852a.306.306 0 0 0 .306-.306v-6.72c0-.237.256-.386.46-.264.85.513 2.803 1.502 5.203 1.502 5.58 0 10.054-4.82 9.48-10.514-.343-3.4-2.561-6.375-5.693-7.741m12.08-.153h-3.86a.305.305 0 0 0 -.306.304v17.584c0 .169.138.306.307.306h3.86a.307.307 0 0 0 .306-.306v-17.582a.307.307 0 0 0 -.307-.307" fill-rule="evenodd"/></svg>