<?xml version="1.0" encoding="UTF-8"?>
<svg xmlns="http://www.w3.org/2000/svg" version="1.1" viewBox="0 0 1128 309.5">
  <defs>
    <style>
      .cls-1 {
        stroke: #00050b;
      }

      .cls-1, .cls-2 {
        fill: none;
        stroke-linecap: round;
        stroke-linejoin: round;
        stroke-width: 16.3px;
      }

      .cls-2 {
        stroke: #00fe84;
      }

      .cls-3 {
        fill: #00050b;
      }
    </style>
  </defs>
  <!-- Generator: Adobe Illustrator 28.7.1, SVG Export Plug-In . SVG Version: 1.2.0 Build 142)  -->
  <g>
    <g id="Layer_1">
      <g id="Layer_1-2" data-name="Layer_1">
        <line class="cls-2" x1="89.2" y1="188" x2="89.2" y2="260.3"/>
        <polyline class="cls-2" points="117.6 173.8 175.4 207.2 261.5 157.4 261.5 57.9 175.4 8.1 89.2 57.9 89.2 144.3"/>
        <polyline class="cls-2" points="117.6 205.4 117.6 173.8 145.9 156.6"/>
        <polyline class="cls-1" points="406.1 130.5 441.1 151.2 441.1 171.8 406.1 192.5"/>
        <g>
          <polyline class="cls-1" points="47.3 81.5 8.1 104.1 8.1 204.9 46.5 227"/>
          <polyline class="cls-1" points="117.6 247.3 117.6 269.7 175 301.4 219.1 275.7 218.7 228.9"/>
        </g>
        <polyline class="cls-1" points="262.1 202.6 262.1 227.2 303.3 251.4 363.7 215.4 363.7 117.2 304.3 83.1"/>
        <g>
          <path class="cls-3" d="M475.6,200.6v-79.4h31.3c6,0,11.2,1.1,15.4,3.4s7.5,5.5,9.7,9.5,3.4,8.7,3.4,14-1.1,9.9-3.4,14c-2.3,4-5.6,7.2-9.9,9.4-4.3,2.2-9.5,3.4-15.6,3.4h-20v-13.5h17.3c3.2,0,5.9-.6,8-1.7,2.1-1.1,3.7-2.7,4.7-4.7s1.6-4.3,1.6-6.9-.5-4.9-1.6-6.9c-1-2-2.6-3.5-4.8-4.6-2.1-1.1-4.8-1.6-8.1-1.6h-11.3v65.7h-16.8.1Z"/>
          <rect class="cls-3" x="546.1" y="121.1" width="16.5" height="79.4"/>
          <path class="cls-3" d="M592.8,201.7c-3.8,0-7.2-.7-10.2-2s-5.3-3.3-7-5.9c-1.7-2.6-2.6-5.9-2.6-9.8s.6-6.1,1.8-8.3,2.9-4.1,5-5.4c2.1-1.4,4.5-2.4,7.2-3.1,2.7-.7,5.5-1.2,8.4-1.5,3.5-.4,6.3-.7,8.4-1,2.1-.3,3.7-.8,4.6-1.5,1-.6,1.4-1.6,1.4-2.9v-.2c0-2.5-.8-4.4-2.3-5.7s-3.7-2-6.5-2-5.3.7-7.1,2-2.9,2.9-3.5,4.9l-15.3-1.2c.8-3.6,2.3-6.8,4.6-9.4,2.3-2.6,5.2-4.7,8.8-6.1,3.6-1.4,7.8-2.2,12.5-2.2s6.5.4,9.5,1.2,5.7,2,8.1,3.6c2.4,1.6,4.2,3.7,5.6,6.3,1.4,2.5,2.1,5.6,2.1,9.1v40.2h-15.7v-8.3h-.5c-1,1.9-2.2,3.5-3.8,4.9s-3.5,2.5-5.8,3.3c-2.2.8-4.8,1.2-7.8,1.2M597.5,190.3c2.4,0,4.6-.5,6.4-1.5,1.9-1,3.3-2.3,4.4-3.9,1.1-1.7,1.6-3.5,1.6-5.6v-6.3c-.5.3-1.2.6-2.1.9-.9.3-1.9.5-3,.7s-2.2.4-3.3.6c-1.1.2-2.1.3-3,.4-1.9.3-3.6.7-5.1,1.4-1.4.6-2.6,1.5-3.4,2.5-.8,1-1.2,2.3-1.2,3.9s.8,4,2.5,5.1c1.6,1.2,3.7,1.8,6.3,1.8"/>
          <path class="cls-3" d="M670.8,153.4h-35.9v-12.4h35.9v12.4ZM643.1,126.7h16.5v55.5c0,1.5.2,2.7.7,3.5s1.1,1.4,2,1.8c.8.3,1.8.5,2.9.5s1.6,0,2.3-.2c.8-.1,1.4-.3,1.8-.3l2.6,12.3c-.8.3-2,.6-3.5.9-1.5.3-3.3.6-5.5.6-4,.2-7.5-.4-10.5-1.6-3-1.2-5.3-3.1-7-5.7-1.7-2.6-2.5-5.8-2.4-9.7v-57.7h.1Z"/>
          <path class="cls-3" d="M713.6,153.4h-36.8v-12.4h36.8v12.4ZM685.2,200.6v-63.9c0-4.3.8-7.9,2.5-10.7s4-5,7-6.4c2.9-1.4,6.3-2.1,10-2.1s4.9.2,7,.6,3.7.7,4.7,1l-2.9,12.4c-.6-.2-1.4-.4-2.4-.6-.9-.2-1.9-.3-2.9-.3-2.4,0-4.1.6-5.1,1.7-1,1.1-1.4,2.7-1.4,4.7v63.6h-16.5,0Z"/>
          <path class="cls-3" d="M750.6,201.7c-6,0-11.2-1.3-15.6-3.9-4.4-2.6-7.8-6.2-10.1-10.8-2.4-4.6-3.6-10-3.6-16.1s1.2-11.5,3.6-16.2c2.4-4.6,5.8-8.2,10.1-10.8,4.4-2.6,9.6-3.9,15.6-3.9s11.2,1.3,15.6,3.9c4.4,2.6,7.8,6.2,10.1,10.8,2.4,4.6,3.6,10,3.6,16.2s-1.2,11.5-3.6,16.1c-2.4,4.6-5.8,8.2-10.1,10.8-4.4,2.6-9.6,3.9-15.6,3.9M750.7,188.9c2.7,0,5-.8,6.9-2.3,1.8-1.6,3.2-3.7,4.2-6.4.9-2.7,1.4-5.8,1.4-9.3s-.5-6.6-1.4-9.3-2.3-4.9-4.2-6.4-4.1-2.4-6.9-2.4-5.1.8-7,2.4c-1.9,1.6-3.3,3.7-4.2,6.4s-1.4,5.8-1.4,9.3.5,6.6,1.4,9.3,2.4,4.9,4.2,6.4c1.9,1.6,4.2,2.3,7,2.3"/>
          <path class="cls-3" d="M790.7,200.6v-59.6h16v10.4h.6c1.1-3.7,2.9-6.5,5.5-8.4s5.5-2.9,8.8-2.9,1.7,0,2.7.2c1,.1,1.8.2,2.5.4v14.7c-.8-.2-1.8-.4-3.2-.6-1.4-.2-2.6-.3-3.8-.3-2.4,0-4.6.5-6.5,1.6-1.9,1-3.4,2.5-4.5,4.4s-1.6,4-1.6,6.4v33.7h-16.5Z"/>
          <path class="cls-3" d="M835.3,200.6v-59.6h15.7v10.5h.7c1.2-3.5,3.3-6.2,6.2-8.3,2.9-2,6.4-3,10.4-3s7.6,1,10.4,3c2.9,2,4.8,4.8,5.7,8.2h.6c1.2-3.4,3.4-6.1,6.6-8.2,3.2-2.1,7-3.1,11.3-3.1s10.1,1.8,13.6,5.3,5.2,8.5,5.2,15v40.1h-16.5v-36.8c0-3.3-.9-5.8-2.6-7.4-1.8-1.7-4-2.5-6.6-2.5s-5.3.9-7,2.9c-1.7,1.9-2.5,4.4-2.5,7.5v36.4h-16v-37.2c0-2.9-.8-5.2-2.5-7-1.7-1.7-3.9-2.6-6.6-2.6s-3.5.5-4.9,1.4c-1.5.9-2.6,2.2-3.5,3.8s-1.3,3.6-1.3,5.8v35.8h-16.5,0Z"/>
          <path class="cls-3" d="M951.9,201.7c-3.8,0-7.2-.7-10.2-2s-5.3-3.3-7-5.9c-1.7-2.6-2.6-5.9-2.6-9.8s.6-6.1,1.8-8.3,2.9-4.1,5-5.4c2.1-1.4,4.5-2.4,7.2-3.1,2.7-.7,5.5-1.2,8.4-1.5,3.5-.4,6.3-.7,8.4-1,2.1-.3,3.7-.8,4.6-1.5,1-.6,1.4-1.6,1.4-2.9v-.2c0-2.5-.8-4.4-2.3-5.7s-3.7-2-6.5-2-5.3.7-7.1,2-2.9,2.9-3.5,4.9l-15.3-1.2c.8-3.6,2.3-6.8,4.6-9.4,2.3-2.6,5.2-4.7,8.8-6.1,3.6-1.4,7.8-2.2,12.5-2.2s6.5.4,9.5,1.2,5.7,2,8.1,3.6c2.4,1.6,4.2,3.7,5.6,6.3,1.4,2.5,2.1,5.6,2.1,9.1v40.2h-15.7v-8.3h-.5c-1,1.9-2.2,3.5-3.8,4.9s-3.5,2.5-5.8,3.3c-2.2.8-4.8,1.2-7.8,1.2M956.6,190.3c2.4,0,4.6-.5,6.4-1.5,1.9-1,3.3-2.3,4.4-3.9,1.1-1.7,1.6-3.5,1.6-5.6v-6.3c-.5.3-1.2.6-2.1.9-.9.3-1.9.5-3,.7s-2.2.4-3.3.6c-1.1.2-2.1.3-3,.4-1.9.3-3.6.7-5.1,1.4-1.4.6-2.6,1.5-3.4,2.5-.8,1-1.2,2.3-1.2,3.9s.8,4,2.5,5.1c1.6,1.2,3.7,1.8,6.3,1.8"/>
          <path class="cls-3" d="M1030,153.4h-35.9v-12.4h35.9v12.4ZM1002.2,126.7h16.5v55.5c0,1.5.2,2.7.7,3.5s1.1,1.4,2,1.8c.8.3,1.8.5,2.9.5s1.6,0,2.3-.2c.8-.1,1.4-.3,1.8-.3l2.6,12.3c-.8.3-2,.6-3.5.9-1.5.3-3.3.6-5.5.6-4,.2-7.5-.4-10.5-1.6-3-1.2-5.3-3.1-7-5.7-1.7-2.6-2.5-5.8-2.4-9.7v-57.7h0Z"/>
          <path class="cls-3" d="M1049,133.3c-2.5,0-4.6-.8-6.3-2.4-1.7-1.6-2.6-3.6-2.6-5.9s.9-4.3,2.6-5.9c1.8-1.6,3.9-2.5,6.3-2.5s4.6.8,6.3,2.4c1.7,1.6,2.6,3.6,2.6,5.9s-.9,4.3-2.6,5.9-3.8,2.5-6.3,2.5M1040.7,141h16.5v59.6h-16.5v-59.6Z"/>
          <path class="cls-3" d="M1097.3,201.7c-6.1,0-11.3-1.3-15.7-3.9-4.4-2.6-7.7-6.2-10.1-10.8-2.3-4.6-3.5-10-3.5-16s1.2-11.5,3.5-16.1c2.4-4.6,5.7-8.2,10.1-10.8s9.6-3.9,15.6-3.9,9.7.9,13.7,2.8c3.9,1.9,7,4.5,9.3,7.9s3.5,7.4,3.8,12h-15.6c-.4-3-1.6-5.4-3.5-7.2s-4.3-2.7-7.3-2.7-4.8.7-6.7,2.1c-1.9,1.4-3.4,3.4-4.4,6-1.1,2.6-1.6,5.8-1.6,9.6s.5,7,1.6,9.7c1,2.7,2.5,4.7,4.4,6.1,1.9,1.4,4.2,2.1,6.7,2.1s3.6-.4,5.1-1.2,2.8-1.9,3.8-3.4,1.6-3.3,2-5.4h15.6c-.3,4.6-1.5,8.6-3.7,12-2.2,3.5-5.3,6.1-9.1,8.1-3.9,1.9-8.5,2.9-13.8,2.9"/>
        </g>
      </g>
    </g>
  </g>
</svg>