<svg width="198" height="43" xmlns="http://www.w3.org/2000/svg" xmlns:xlink="http://www.w3.org/1999/xlink"><defs><path d="M.742 21.441c0 11.38 9.172 20.618 20.531 20.715h.368C33 42.06 42.176 32.82 42.176 21.441 42.176 10 32.898.723 21.457.723S.742 10 .742 21.44" id="a"/><linearGradient x1="49.997%" y1=".003%" x2="49.997%" y2="100.002%" id="b"><stop stop-color="#F05A28" offset="0%"/><stop stop-color="#F05A28" offset="1.563%"/><stop stop-color="#F05A28" offset="2.344%"/><stop stop-color="#F05929" offset="3.125%"/><stop stop-color="#F0582A" offset="3.906%"/><stop stop-color="#F0582B" offset="4.688%"/><stop stop-color="#F0572C" offset="5.469%"/><stop stop-color="#F0562C" offset="6.25%"/><stop stop-color="#F0552D" offset="7.031%"/><stop stop-color="#F0552E" offset="7.813%"/><stop stop-color="#F0542F" offset="8.594%"/><stop stop-color="#F0532F" offset="9.375%"/><stop stop-color="#F05330" offset="10.156%"/><stop stop-color="#F05231" offset="10.938%"/><stop stop-color="#F05132" offset="11.719%"/><stop stop-color="#EF5033" offset="12.5%"/><stop stop-color="#EF5033" offset="13.281%"/><stop stop-color="#EF4F34" offset="14.063%"/><stop stop-color="#EF4E35" offset="14.844%"/><stop stop-color="#EF4E36" offset="15.625%"/><stop stop-color="#EF4D36" offset="16.406%"/><stop stop-color="#EF4C37" offset="17.188%"/><stop stop-color="#EF4B38" offset="17.969%"/><stop stop-color="#EF4B39" offset="18.75%"/><stop stop-color="#EF4A3A" offset="19.531%"/><stop stop-color="#EF493A" offset="20.313%"/><stop stop-color="#EF493B" offset="21.094%"/><stop stop-color="#EF483C" offset="21.875%"/><stop stop-color="#EF473D" offset="22.656%"/><stop stop-color="#EF463D" offset="23.438%"/><stop stop-color="#EF463E" offset="24.219%"/><stop stop-color="#EF453F" offset="25%"/><stop stop-color="#EF4440" offset="25.781%"/><stop stop-color="#EF4441" offset="26.563%"/><stop stop-color="#EF4341" offset="27.344%"/><stop stop-color="#EF4242" offset="28.125%"/><stop stop-color="#EF4143" offset="28.906%"/><stop stop-color="#EF4144" offset="29.688%"/><stop stop-color="#EF4045" offset="30.469%"/><stop stop-color="#EF3F45" offset="31.25%"/><stop stop-color="#EE3F46" offset="32.031%"/><stop stop-color="#EE3E47" offset="32.813%"/><stop stop-color="#EE3D48" offset="33.594%"/><stop stop-color="#EE3C48" offset="34.375%"/><stop stop-color="#EE3C49" offset="35.156%"/><stop stop-color="#EE3B4A" offset="35.938%"/><stop stop-color="#EE3A4B" offset="36.719%"/><stop stop-color="#EE3A4C" offset="37.5%"/><stop stop-color="#EE394C" offset="38.281%"/><stop stop-color="#EE384D" offset="39.063%"/><stop stop-color="#EE384E" offset="39.844%"/><stop stop-color="#EE374F" offset="40.625%"/><stop stop-color="#EE364F" offset="41.406%"/><stop stop-color="#EE3550" offset="42.188%"/><stop stop-color="#EE3551" offset="42.969%"/><stop stop-color="#EE3452" offset="43.75%"/><stop stop-color="#EE3353" offset="44.531%"/><stop stop-color="#EE3353" offset="45.313%"/><stop stop-color="#EE3254" offset="46.094%"/><stop stop-color="#EE3155" offset="46.875%"/><stop stop-color="#EE3056" offset="47.656%"/><stop stop-color="#EE3057" offset="48.438%"/><stop stop-color="#EE2F57" offset="49.219%"/><stop stop-color="#EE2E58" offset="50%"/><stop stop-color="#EE2E59" offset="50.781%"/><stop stop-color="#ED2D5A" offset="51.563%"/><stop stop-color="#ED2C5A" offset="52.344%"/><stop stop-color="#ED2B5B" offset="53.125%"/><stop stop-color="#ED2B5C" offset="53.906%"/><stop stop-color="#ED2A5D" offset="54.688%"/><stop stop-color="#ED295E" offset="55.469%"/><stop stop-color="#ED295E" offset="56.25%"/><stop stop-color="#ED285F" offset="57.031%"/><stop stop-color="#ED2760" offset="57.813%"/><stop stop-color="#ED2661" offset="58.594%"/><stop stop-color="#ED2661" offset="59.375%"/><stop stop-color="#ED2562" offset="60.156%"/><stop stop-color="#ED2463" offset="60.938%"/><stop stop-color="#ED2464" offset="61.719%"/><stop stop-color="#ED2365" offset="62.5%"/><stop stop-color="#ED2265" offset="63.281%"/><stop stop-color="#ED2166" offset="64.063%"/><stop stop-color="#ED2167" offset="64.844%"/><stop stop-color="#ED2068" offset="65.625%"/><stop stop-color="#ED1F69" offset="66.406%"/><stop stop-color="#ED1F69" offset="67.188%"/><stop stop-color="#ED1E6A" offset="67.969%"/><stop stop-color="#ED1D6B" offset="68.75%"/><stop stop-color="#ED1C6C" offset="69.531%"/><stop stop-color="#ED1C6C" offset="70.313%"/><stop stop-color="#ED1B6D" offset="71.094%"/><stop stop-color="#EC1A6E" offset="71.875%"/><stop stop-color="#EC1A6F" offset="72.656%"/><stop stop-color="#EC1970" offset="73.438%"/><stop stop-color="#EC1870" offset="74.219%"/><stop stop-color="#EC1871" offset="75%"/><stop stop-color="#EC1772" offset="75.781%"/><stop stop-color="#EC1673" offset="76.563%"/><stop stop-color="#EC1573" offset="77.344%"/><stop stop-color="#EC1574" offset="78.125%"/><stop stop-color="#EC1475" offset="78.906%"/><stop stop-color="#EC1376" offset="79.688%"/><stop stop-color="#EC1377" offset="80.469%"/><stop stop-color="#EC1277" offset="81.25%"/><stop stop-color="#EC1178" offset="82.031%"/><stop stop-color="#EC1079" offset="82.813%"/><stop stop-color="#EC107A" offset="83.594%"/><stop stop-color="#EC0F7B" offset="84.375%"/><stop stop-color="#EC0E7B" offset="85.156%"/><stop stop-color="#EC0E7C" offset="85.938%"/><stop stop-color="#EC0D7D" offset="86.719%"/><stop stop-color="#EC0C7E" offset="87.5%"/><stop stop-color="#EC0B7E" offset="88.281%"/><stop stop-color="#EC0B7F" offset="89.063%"/><stop stop-color="#EC0A80" offset="89.844%"/><stop stop-color="#EC0981" offset="90.625%"/><stop stop-color="#EB0982" offset="91.406%"/><stop stop-color="#EB0882" offset="92.188%"/><stop stop-color="#EB0783" offset="92.969%"/><stop stop-color="#EB0684" offset="93.75%"/><stop stop-color="#EB0685" offset="94.531%"/><stop stop-color="#EB0585" offset="95.313%"/><stop stop-color="#EB0486" offset="96.094%"/><stop stop-color="#EB0487" offset="96.875%"/><stop stop-color="#EB0388" offset="97.656%"/><stop stop-color="#EB0289" offset="98.438%"/><stop stop-color="#EB0189" offset="99.219%"/><stop stop-color="#EB018A" offset="100%"/></linearGradient><path id="d" d="M0 0h9.262v13H0z"/></defs><g fill="none" fill-rule="evenodd"><mask id="c" fill="#fff"><use xlink:href="#a"/></mask><path fill="url(#b)" fill-rule="nonzero" mask="url(#c)" d="M42.176.723H.742v41.433h41.434z"/><path d="M16.133 10.676v21.531l18.644-10.766-18.644-10.765zm1.785 3.09l13.289 7.675-13.289 7.672V13.766z" fill="#FFF" fill-rule="nonzero"/><path d="M11.844 13.027l14.574 8.414-14.574 8.414V13.027zm1.785 3.09v10.649l9.223-5.325-9.223-5.324z" fill="#FFF" fill-rule="nonzero"/><path d="M53.402 15.828h4.426c2.613 0 4.266 1.492 4.266 3.754v.031c0 2.516-2.02 3.832-4.489 3.832h-2.23v3.61h-1.973V15.828zm4.266 5.836c1.492 0 2.422-.832 2.422-2.004v-.031c0-1.313-.945-2.004-2.422-2.004h-2.293v4.04h2.293v-.001zm9.324-5.836h1.973v9.43h5.906v1.797h-7.879zM79.3 22.293v-6.465h1.973v6.383c0 2.086 1.075 3.207 2.84 3.207 1.75 0 2.825-1.059 2.825-3.125v-6.465h1.972v6.367c0 3.352-1.894 5.035-4.828 5.035-2.922 0-4.781-1.683-4.781-4.937H79.3zm15.196-6.465H99.5c1.414 0 2.52.418 3.242 1.121.594.61.93 1.446.93 2.422v.035c0 1.844-1.106 2.95-2.68 3.399l3.031 4.25H101.7l-2.758-3.914H96.47v3.914h-1.973V15.828h-.001zm4.86 5.567c1.414 0 2.312-.739 2.312-1.88v-.03c0-1.204-.867-1.86-2.324-1.86h-2.875v3.77h2.887zm13.594-5.649h1.827l4.938 11.309h-2.082l-1.14-2.711h-5.31l-1.152 2.71h-2.023l4.941-11.308h.001zm2.82 6.848l-1.938-4.489-1.926 4.489h3.864zm8.75-6.766h1.968v9.43h5.907v1.797h-7.875zm12.05 9.59l1.188-1.41c1.074.93 2.148 1.457 3.543 1.457 1.219 0 1.988-.559 1.988-1.41v-.032c0-.804-.45-1.234-2.531-1.714-2.39-.579-3.738-1.286-3.738-3.352v-.035c0-1.926 1.605-3.254 3.832-3.254 1.636 0 2.933.496 4.074 1.41l-1.059 1.492c-1.008-.754-2.02-1.152-3.047-1.152-1.156 0-1.828.59-1.828 1.328v.031c0 .868.512 1.254 2.664 1.766 2.371.578 3.606 1.426 3.606 3.289v.031c0 2.102-1.653 3.352-4.008 3.352-1.715 0-3.336-.594-4.684-1.797zm14.012-9.59h1.973v11.227h-1.973zm7.356 5.645v-.032c0-3.144 2.406-5.804 5.789-5.804 1.957 0 3.16.543 4.316 1.523l-1.254 1.488c-.863-.734-1.715-1.203-3.144-1.203-2.067 0-3.641 1.817-3.641 3.965v.031c0 2.309 1.523 4.012 3.816 4.012 1.063 0 2.024-.34 2.711-.851V22.5h-2.87v-1.719h4.78V25.5c-1.105.945-2.695 1.746-4.683 1.746-3.512 0-5.82-2.5-5.82-5.773zm15.945-5.645h1.976v4.668h5.356v-4.668h1.972v11.227h-1.972v-4.73h-5.356v4.73h-1.976z" fill="#000" fill-rule="nonzero"/><g transform="translate(188 15)"><mask id="e" fill="#fff"><use xlink:href="#d"/></mask><path fill="#000" fill-rule="nonzero" mask="url(#e)" d="M.148.828v1.828h3.563v9.399h1.988V2.656h3.559V.828z"/></g></g></svg>