<?xml version="1.0" encoding="utf-8"?>
<!-- Generator: Adobe Illustrator 23.0.3, SVG Export Plug-In . SVG Version: 6.00 Build 0)  -->
<svg version="1.1" id="Layer_1" xmlns="http://www.w3.org/2000/svg" xmlns:xlink="http://www.w3.org/1999/xlink" x="0px" y="0px"
	 viewBox="0 0 659.2 200" style="enable-background:new 0 0 659.2 200;" xml:space="preserve">
<style type="text/css">
	.st0{fill:#FF6C37;}
	.st1{fill:#FFFFFF;}
</style>
<title>pm-logo-horiz</title>
<g>
	<g>
		<path class="st0" d="M232.5,128.6V70.7c0-0.7,0.3-1.3,0.8-1.8c0.6-0.5,1.3-0.8,2.1-0.7h16.3c4.8-0.2,9.6,1.4,13.3,4.5
			c3.3,3,5,7.7,5,14.1v0.8c0,6.4-1.7,11.2-5.1,14.2c-3.8,3.1-8.6,4.8-13.5,4.5h-11.6v22.3c0,0.8-0.4,1.5-1.1,1.9
			c-1.6,0.9-3.5,0.9-5.1,0C232.9,130.1,232.5,129.4,232.5,128.6z M239.7,100.3h11.7c3.1,0.2,6.2-0.9,8.4-3.1c2.2-2.5,3.3-5.8,3-9.2
			v-1c0.3-3.3-0.8-6.6-3-9.2c-2.3-2.1-5.3-3.2-8.4-3h-11.6L239.7,100.3z"/>
		<path class="st0" d="M295.2,112.9V87c0-6.5,1.7-11.2,5-14.2c8-6,19-6,27,0c3.4,3,5.1,7.8,5.1,14.2v25.9c0,6.5-1.7,11.2-5.1,14.2
			c-8,6.1-19,6.1-27,0C296.9,124.1,295.2,119.4,295.2,112.9z M302.5,112.9c0,8.1,3.7,12.2,11.3,12.2c3.1,0.2,6.1-0.9,8.4-3
			c2.2-2.5,3.2-5.8,3-9.2v-26c0.3-3.3-0.8-6.6-3-9.2c-2.3-2.1-5.3-3.2-8.4-3c-7.5,0-11.2,4-11.2,12.2L302.5,112.9z"/>
		<path class="st0" d="M357.9,122.3c0-1,0.4-1.9,1-2.7c0.5-0.7,1.2-1.2,2.1-1.3c0.8,0.1,1.5,0.5,2,1.1c0.8,0.7,1.6,1.5,2.5,2.4
			c1.2,1.1,2.6,1.9,4.1,2.4c2,0.8,4.2,1.1,6.3,1.1c3.2,0.2,6.3-0.8,8.8-2.7c2.2-2,3.4-5,3.2-8c0.1-2.9-0.9-5.6-2.9-7.7
			c-2-2-4.4-3.5-7.1-4.5c-2.8-1-5.5-2.1-8.4-3.3c-2.8-1.2-5.2-3-7.1-5.4c-2-2.7-3.1-6-2.9-9.4c-0.1-2.7,0.5-5.4,1.7-7.9
			c1-2.1,2.6-3.8,4.6-5c1.9-1.1,3.9-1.9,6-2.5c2.2-0.5,4.4-0.8,6.6-0.8c3.5,0,6.9,0.5,10.2,1.5c3.2,1.1,4.9,2.5,4.9,4.2
			c0,0.9-0.3,1.8-0.9,2.6c-0.4,0.8-1.3,1.4-2.2,1.4c-1.3-0.4-2.6-0.9-3.9-1.5c-2.5-1.1-5.2-1.7-8-1.6c-2.9-0.1-5.9,0.6-8.4,2.1
			c-2.2,1.5-3.4,4.1-3.2,6.8c-0.1,2.5,0.9,4.9,2.8,6.5c2.1,1.7,4.5,3.1,7.1,3.9c2.8,1,5.6,2.1,8.4,3.4c2.8,1.4,5.2,3.5,7,6.1
			c2,3.2,3,6.9,2.9,10.7c0,5.9-1.7,10.4-5.2,13.4c-3.8,3.2-8.7,4.8-13.7,4.5c-4.5,0.1-9-1-12.9-3.2
			C359.7,126.5,357.9,124.4,357.9,122.3z"/>
		<path class="st0" d="M416.6,71.4c0-0.8,0.2-1.6,0.7-2.2c0.4-0.7,1.1-1,1.9-1h35c0.8,0,1.5,0.3,1.9,1c0.5,0.6,0.7,1.4,0.7,2.2
			c0,0.8-0.2,1.7-0.7,2.4c-0.4,0.7-1.1,1-1.9,1h-13.7v53.8c0,0.8-0.4,1.5-1.1,1.9c-1.6,0.9-3.5,0.9-5.1,0c-0.7-0.4-1.1-1.1-1.1-1.9
			V74.8h-13.9c-0.8,0-1.5-0.3-1.9-1C416.9,73.1,416.6,72.3,416.6,71.4z"/>
		<path class="st0" d="M481.4,128.6V71.9c-0.3-1.7,0.9-3.3,2.6-3.6c0.4-0.1,0.8-0.1,1.1,0c2.3,0,4.2,1.5,5.8,4.6l13.5,25.9L518,72.9
			c1.7-3,3.6-4.6,5.8-4.6c1.7-0.3,3.3,0.9,3.6,2.6l0,0l0,0c0.1,0.3,0.1,0.6,0,0.9v56.7c0,0.8-0.4,1.5-1.1,1.9
			c-1.6,0.9-3.5,0.9-5.1,0c-0.7-0.4-1.1-1.1-1.1-1.9V83.4l-13,24.4c-0.4,1.2-1.5,2.1-2.8,2.1c-1.2-0.1-2.3-0.9-2.7-2.1l-13-24.9
			v45.6c0,0.8-0.4,1.5-1.1,1.9c-0.7,0.5-1.6,0.8-2.4,0.8c-0.9,0-1.8-0.2-2.5-0.7C481.8,130.2,481.3,129.4,481.4,128.6z"/>
		<path class="st0" d="M552.1,128.2c0-0.2,0.1-0.5,0.2-0.7l17.6-56.7c0.5-1.7,2-2.5,4.4-2.5s3.9,0.8,4.4,2.5l17.7,57
			c0,0.1,0,0.2,0,0.3s0,0.2,0,0.2c0,0.9-0.6,1.7-1.4,2.1c-0.9,0.6-2,0.9-3.2,0.8c-1.1,0.1-2.2-0.5-2.6-1.6l-3.8-12.6h-22.6
			l-3.8,12.6c-0.3,1.1-1.5,1.8-2.6,1.7c-1,0-2-0.3-2.9-0.9C552.6,130,552.1,129.2,552.1,128.2z M564.6,111h19.3l-9.6-32.2L564.6,111
			z"/>
		<path class="st0" d="M621.3,128.6V70.7c0-1.7,1.2-2.5,3.6-2.5c1.1,0,2.2,0.4,3.1,1.1c1,1,1.9,2.2,2.4,3.5l21.5,42V70.7
			c0-0.8,0.4-1.5,1.1-1.8c1.6-0.9,3.5-0.9,5.1,0c0.7,0.4,1.1,1.1,1.1,1.8v57.9c0,0.8-0.4,1.5-1.1,1.9c-0.8,0.5-1.6,0.7-2.5,0.7
			c-2-0.1-3.8-1.4-4.5-3.3l-22.6-43.3v44c0,0.8-0.4,1.5-1,1.9c-1.6,0.9-3.5,0.9-5.1,0C621.7,130.1,621.3,129.4,621.3,128.6z"/>
	</g>
	<path class="st0" d="M199.2,112.7c7-54.8-31.7-104.9-86.4-111.9S7.8,32.5,0.8,87.2s31.7,104.9,86.4,112l0,0
		C142,206.2,192.1,167.5,199.2,112.7z"/>
	<path class="st1" d="M136.1,64.2l-42.2,42.2L82,94.5C123.5,53,127.6,56.6,136.1,64.2z"/>
	<path class="st0" d="M93.9,107.4L93.9,107.4c-0.3,0-0.5-0.1-0.7-0.3l-12-11.9c-0.4-0.4-0.4-1,0-1.4l0,0
		c42.2-42.2,46.6-38.2,55.5-30.2c0.2,0.2,0.3,0.4,0.3,0.7c0,0.3-0.1,0.5-0.3,0.7l-42.2,42.1C94.4,107.3,94.1,107.4,93.9,107.4z
		 M83.4,94.5L93.9,105l40.7-40.7C127.2,57.7,122.2,55.7,83.4,94.5z"/>
	<path class="st1" d="M106,118.5L94.5,107l42.2-42.2C148,76.2,131.1,94.7,106,118.5z"/>
	<path class="st0" d="M106,119.5L106,119.5c-0.3,0-0.5-0.1-0.7-0.3l-11.5-11.5c-0.2-0.2-0.2-0.4-0.2-0.7s0.1-0.5,0.3-0.7l42.2-42.2
		c0.4-0.4,1-0.4,1.4,0c2.6,2.4,4,5.8,3.9,9.3c-0.2,11.1-12.8,25.2-34.6,45.8C106.5,119.4,106.2,119.5,106,119.5z M95.9,107
		c6.4,6.5,9.1,9.1,10.1,10.1c16.8-16,33.1-32.4,33.2-43.7c0.1-2.6-0.9-5.2-2.6-7.2L95.9,107z"/>
	<path class="st1" d="M82.2,94.8l8.5,8.5c0.2,0.2,0.2,0.4,0,0.6c-0.1,0.1-0.1,0.1-0.2,0.1l-17.6,3.8c-0.9,0.1-1.7-0.5-1.9-1.4
		c-0.1-0.5,0.1-1,0.4-1.3l10.2-10.2C81.8,94.7,82.1,94.6,82.2,94.8z"/>
	<path class="st0" d="M72.6,108.8c-1.5,0-2.6-1.2-2.6-2.7c0-0.7,0.3-1.4,0.8-1.9L81,94c0.6-0.5,1.4-0.5,2,0l8.5,8.5
		c0.6,0.5,0.6,1.4,0,2c-0.2,0.2-0.4,0.3-0.7,0.4l-17.6,3.8C73,108.7,72.8,108.8,72.6,108.8z M81.9,95.9l-9.8,9.8
		c-0.2,0.2-0.3,0.5-0.1,0.8c0.1,0.3,0.4,0.4,0.7,0.3l16.5-3.6L81.9,95.9z"/>
	<path class="st1" d="M158.4,40.8c-6.4-6.2-16.7-6-22.9,0.5s-6,16.7,0.5,22.9c5.3,5.1,13.3,6,19.6,2.2L144.2,55L158.4,40.8z"/>
	<path class="st0" d="M147.2,69.7c-9.5,0-17.2-7.7-17.2-17.2s7.7-17.2,17.2-17.2c4.4,0,8.7,1.7,11.9,4.8c0.2,0.2,0.3,0.4,0.3,0.7
		c0,0.3-0.1,0.5-0.3,0.7L145.6,55l10.6,10.6c0.4,0.4,0.4,1,0,1.4c-0.1,0.1-0.1,0.1-0.2,0.2C153.4,68.8,150.3,69.7,147.2,69.7z
		 M147.2,37.4c-8.4,0-15.2,6.8-15.1,15.2c0,8.4,6.8,15.2,15.2,15.1c2.3,0,4.6-0.5,6.7-1.6l-10.5-10.4c-0.2-0.2-0.3-0.4-0.3-0.7
		c0-0.3,0.1-0.5,0.3-0.7l13.4-13.4C154.2,38.6,150.8,37.4,147.2,37.4L147.2,37.4z"/>
	<path class="st1" d="M158.7,41.1l-0.2-0.2L144.2,55l11.3,11.3c1.1-0.7,2.2-1.5,3.1-2.4C165,57.6,165,47.4,158.7,41.1z"/>
	<path class="st0" d="M155.6,67.4c-0.3,0-0.5-0.1-0.7-0.3l-11.4-11.4c-0.2-0.2-0.3-0.4-0.3-0.7c0-0.3,0.1-0.5,0.3-0.7l14.2-14.2
		c0.4-0.4,1-0.4,1.4,0l0.3,0.2c6.7,6.7,6.7,17.5,0.1,24.3c-1,1-2.1,1.9-3.3,2.6C155.9,67.3,155.7,67.4,155.6,67.4z M145.6,55
		l10.1,10.1c0.8-0.5,1.6-1.2,2.2-1.8c5.7-5.7,6-15,0.5-21L145.6,55z"/>
	<path class="st1" d="M137.8,66L137.8,66c-2.4-2.4-6.3-2.4-8.7,0l-37.7,37.7l6.3,6.3l39.9-35c2.6-2.2,2.8-6.1,0.6-8.7
		C138,66.2,137.9,66.1,137.8,66z"/>
	<path class="st0" d="M97.6,111c-0.3,0-0.5-0.1-0.7-0.3l-6.3-6.3c-0.4-0.4-0.4-1,0-1.4l0,0l37.7-37.7c2.8-2.8,7.3-2.8,10.1,0l0,0
		c2.8,2.8,2.8,7.3,0,10.1c-0.1,0.1-0.2,0.2-0.3,0.3l-39.9,35C98.1,110.9,97.9,111,97.6,111z M92.8,103.7l4.9,4.9l39.2-34.4
		c2.2-1.8,2.4-5.1,0.6-7.3s-5.1-2.4-7.3-0.6c-0.1,0.1-0.2,0.2-0.4,0.3L92.8,103.7z"/>
	<path class="st1" d="M62.5,146.6c-0.4,0.2-0.6,0.6-0.5,1l1.7,7.2c0.4,1-0.2,2.2-1.3,2.5c-0.8,0.3-1.7,0-2.2-0.6l-11-10.9l35.9-35.9
		l12.4,0.2l8.4,8.4C103.9,120.2,91.8,131.9,62.5,146.6z"/>
	<path class="st0" d="M61.7,158.3c-0.8,0-1.6-0.3-2.1-0.9l-10.9-10.9c-0.2-0.2-0.3-0.4-0.3-0.7s0.1-0.5,0.3-0.7l35.9-35.9
		c0.2-0.2,0.5-0.3,0.7-0.3l12.4,0.2c0.3,0,0.5,0.1,0.7,0.3l8.4,8.4c0.2,0.2,0.3,0.5,0.3,0.8s-0.1,0.5-0.4,0.7l-0.7,0.6
		c-10.6,9.3-25,18.6-42.9,27.5l1.7,7.1c0.3,1.3-0.3,2.7-1.5,3.4C62.7,158.2,62.2,158.3,61.7,158.3z M50.7,145.8L61,156
		c0.3,0.5,0.9,0.7,1.4,0.4s0.7-0.9,0.4-1.4l-1.7-7.2c-0.2-0.9,0.2-1.7,1-2.1l0,0c17.7-8.9,32-18.1,42.5-27.2l-7.4-7.4l-11.5-0.2
		L50.7,145.8z"/>
	<path class="st1" d="M40.7,154.4l8.6-8.6l12.8,12.8l-20.4-1.4c-0.9-0.1-1.5-0.9-1.4-1.8C40.3,155,40.4,154.6,40.7,154.4z"/>
	<path class="st0" d="M62.1,159.5L62.1,159.5l-20.5-1.4c-1.5-0.1-2.5-1.4-2.4-2.9c0.1-0.6,0.3-1.2,0.8-1.6l8.6-8.6
		c0.4-0.4,1-0.4,1.4,0l0,0l12.8,12.8c0.3,0.3,0.4,0.7,0.2,1.1C62.8,159.3,62.5,159.5,62.1,159.5z M49.3,147.2l-7.9,7.9
		c-0.3,0.2-0.3,0.7,0,0.9c0.1,0.1,0.2,0.2,0.4,0.2l17.7,1.2L49.3,147.2z"/>
	<path class="st0" d="M81.6,114.5c-0.6,0-1-0.5-1-1c0-0.3,0.1-0.5,0.3-0.7l9.7-9.7c0.4-0.4,1-0.4,1.4,0l6.3,6.3
		c0.3,0.3,0.4,0.6,0.3,1c-0.1,0.3-0.4,0.6-0.8,0.7l-16,3.4C81.7,114.5,81.6,114.5,81.6,114.5z M91.3,105.2l-6.6,6.6l10.8-2.3
		L91.3,105.2z"/>
	<path class="st1" d="M97.5,110.1l-11,2.4c-0.8,0.2-1.6-0.3-1.8-1.1c-0.1-0.5,0-1,0.4-1.4l6.1-6.1L97.5,110.1z"/>
	<path class="st0" d="M86.3,113.5c-1.4,0-2.5-1.1-2.5-2.5c0-0.7,0.3-1.3,0.7-1.8l6.1-6.1c0.4-0.4,1-0.4,1.4,0l6.3,6.3
		c0.3,0.3,0.4,0.6,0.3,1c-0.1,0.3-0.4,0.6-0.8,0.7l-11,2.4C86.6,113.5,86.4,113.5,86.3,113.5z M91.3,105.2l-5.4,5.4
		c-0.2,0.2-0.2,0.4-0.1,0.6c0.1,0.2,0.3,0.3,0.6,0.3l9.2-2L91.3,105.2z"/>
	<path class="st0" d="M158.8,50.7c-0.2-0.6-0.9-0.9-1.5-0.7c-0.6,0.2-0.9,0.9-0.7,1.5c0,0.1,0.1,0.2,0.1,0.3
		c0.6,1.2,0.4,2.7-0.4,3.8c-0.4,0.5-0.3,1.2,0.1,1.6c0.5,0.4,1.2,0.3,1.6-0.2C159.5,55.1,159.8,52.7,158.8,50.7z"/>
</g>
</svg>
