<?xml version="1.0" encoding="UTF-8"?> <!-- Generator: Adobe Illustrator 22.1.0, SVG Export Plug-In . SVG Version: 6.00 Build 0) --> <svg xmlns="http://www.w3.org/2000/svg" xmlns:xlink="http://www.w3.org/1999/xlink" id="layer" x="0px" y="0px" viewBox="0 0 400 300" style="enable-background:new 0 0 400 300;" xml:space="preserve"> <style type="text/css"> .st0{fill:#00CCBB;} </style> <path id="Page-1" class="st0" d="M113.8,151.8c0.7-4.1,3.2-8.4,8.3-8.4c4.4,0,6.4,4,6.4,7.7c0,0.6-0.1,0.8-0.8,0.8L113.8,151.8 L113.8,151.8z M122.4,138.6c-9.3,0-16,8.2-16,19.4c0,11.4,6.1,18.2,16.3,18.2c5.5,0,9.9-2.4,11.2-4.8l0.1-0.3l-0.4-3.1l-1,0.5 c-2.4,1.2-5.4,1.9-8.7,1.9c-7.8,0-10.6-6.8-10.6-13.1c0-0.4,0-0.8,0-1.2h22.1l0.1-0.7c0.1-1,0.1-1.7,0.1-2.7 C135.8,146,131.6,138.6,122.4,138.6L122.4,138.6L122.4,138.6z M354.7,131.2h-3.6l-0.1,0.6c-1,3.9-2.4,6.5-6.7,8.8l-0.4,0.2v3.5h4.2 v22.8c0,6.4,2.5,9.1,8.3,9.1c3.5,0,7.1-1.4,8.2-3.3l0.1-0.3l-0.5-2.6l-0.9,0.3c-0.9,0.3-2.9,0.8-4.8,0.8c-2.5,0-3.8-0.9-3.8-5.2 v-21.6h9.9v-4.9h-9.9L354.7,131.2L354.7,131.2z M156.4,159.7c-0.1,2-0.2,6-0.2,8.2c-1.2,1.3-3.4,2.6-6.3,2.6c-3,0-4.8-1.8-4.8-4.8 c0-4.1,3.2-6.1,9.4-6.1h0.1C155.2,159.7,155.9,159.7,156.4,159.7 M163,167.8c0-3.3,0.1-6.3,0.1-9.2c0.1-2.7,0.1-5.4,0.1-8 c0-7.7-4.5-12-12.4-12c-4.1,0-8.2,2.2-10,4.3l-0.3,0.3l0.6,3.5l1-0.5c2.2-1.2,4.6-1.8,7.5-1.8c4.8,0,6.9,2.3,6.9,7.5v3.3 c-1-0.1-2.2-0.1-2.9-0.1c-9.3,0-15.3,4.6-15.3,11.6c0,5.6,4.1,9.5,9.8,9.5c3.7,0,6.9-1.9,8.7-3.8c0.7,2.4,2.7,3.8,5.6,3.8 c2.2,0,4.4-0.5,5.7-1.4l0.3-0.3v-3.2h-0.8C163.6,171.4,163,170.6,163,167.8 M191.4,138.6c-2.4,0-5.6,1.6-7.8,3.7v-4.4l-1.1,0.5 c-3.3,1.5-5.8,2.3-9.4,3.3l-0.6,0.2v2.9l0.7,0.1c3.9,0.8,3.9,1,3.9,4.6v17.2c0,4.6-0.5,4.6-1.6,4.8l-2.9,0.5v3.5h0.9 c0.5,0,1.1-0.1,1.8-0.1c1.5-0.1,3.3-0.2,5.2-0.2c2,0,4.6,0.1,6.5,0.2l2.4,0.1V172l-3.9-0.5c-1-0.1-1.6-0.2-1.6-4.8v-19.6 c1.8-1.4,4.3-2.3,6.5-2.3c1.3,0,2.8,0.3,3.4,0.5l1,0.5l0.8-6.7l-0.7-0.2C193.7,138.8,192.7,138.6,191.4,138.6 M222.4,168.5 c-1.9,1.3-4.6,2-7.5,2c-7,0-11.4-5-11.4-13.2c0-8.3,4.1-14.1,9.9-14.1c3.9,0,5.7,1.8,5.9,6l0.1,0.8h4.2v-0.8c0-2.4,0.1-5.7,0.3-8 l0.1-0.6l-0.6-0.2c-2.2-0.8-5.5-1.8-9.4-1.8c-9.5,0-17.3,8.7-17.3,19.4c0,11.2,6.3,18.2,16.5,18.2c5.2,0,9.4-2.5,10.9-4.9l0.1-0.3 l-0.7-3.3L222.4,168.5L222.4,168.5z M329.5,159.7c-0.1,2-0.2,6-0.2,8.2c-1.2,1.3-3.4,2.6-6.3,2.6c-3,0-4.8-1.8-4.8-4.8 c0-4.1,3.2-6.1,9.4-6.1h0.1C328.2,159.7,328.9,159.7,329.5,159.7 M336,167.8c0-3.3,0.1-6.3,0.1-9.2c0.1-2.7,0.1-5.4,0.1-8 c0-7.7-4.5-12-12.4-12c-4.1,0-8.2,2.2-10,4.3l-0.3,0.3l0.6,3.5l1-0.5c2.2-1.2,4.6-1.8,7.5-1.8c4.8,0,6.9,2.3,6.9,7.5v3.3 c-1-0.1-2.2-0.1-2.9-0.1c-9.3,0-15.3,4.6-15.3,11.6c0,5.6,4.1,9.5,9.8,9.5c3.7,0,6.9-1.9,8.7-3.8c0.7,2.4,2.7,3.8,5.6,3.8 c2.2,0,4.4-0.5,5.7-1.4l0.3-0.3v-3.2h-0.8C336.7,171.4,336,170.6,336,167.8 M259.6,166.7v-15.2c0-5.5-1.2-12.8-11.2-12.8 c-3.3,0-6.7,1.8-9,3.6v-18.8l-1.2,0.6c-3.3,1.7-5.8,2.7-9.4,3.7l-0.6,0.2v2.9l0.7,0.1c3.9,0.8,3.9,1,3.9,4.6v31.1 c0,4.6-0.5,4.6-1.6,4.8l-2.9,0.5v3.5l2-0.1c1.6-0.1,3.7-0.1,5.9-0.1s4.4,0.1,6.1,0.2l1.8,0.1V172l-2.9-0.5c-1-0.2-1.6-0.3-1.6-4.8 v-19.9c1.2-0.8,4.1-2.4,7.2-2.4c4.7,0,6.4,2,6.4,7.8v14.5c0,4.6-0.5,4.6-1.6,4.8l-2.9,0.5v3.5l2-0.1c1.6-0.1,3.7-0.1,5.9-0.1 s4.4,0.1,6.1,0.2l1.8,0.1V172l-2.9-0.5C260.2,171.3,259.6,171.3,259.6,166.7 M374.2,151.8c0.7-4.1,3.2-8.4,8.3-8.4 c4.4,0,6.4,4,6.4,7.7c0,0.6-0.1,0.8-0.8,0.8L374.2,151.8L374.2,151.8z M382.8,138.6c-9.3,0-16,8.2-16,19.4 c0,11.4,6.1,18.2,16.3,18.2c5.5,0,9.9-2.4,11.2-4.8l0.1-0.3l-0.4-3.1l-1,0.5c-2.4,1.2-5.4,1.9-8.7,1.9c-7.8,0-10.6-6.8-10.6-13.1 c0-0.4,0-0.8,0-1.2H396l0.1-0.7c0.1-1,0.1-1.7,0.1-2.7C396.2,146,392,138.6,382.8,138.6L382.8,138.6L382.8,138.6z M300.5,154.3 c-3.4,0-6-0.1-7.7-0.2l-1.4-0.1v3.5l3.3,0.6c1.1,0.2,2.2,0.5,2.2,4.8v7.5c-2.2,1.1-5.5,1.3-7.4,1.3c-8.7,0-14.3-7.5-14.3-19 c0-11.4,5.8-19,14.4-19c5.6,0,8.8,3,9.2,8.4l0.1,0.7h4.3L303,142c-0.3-3.8-0.3-7-0.4-10v-0.5l-0.5-0.2c-2.6-0.9-6.6-2.2-12.4-2.2 c-12.8,0-22.1,10.1-22.1,24.2c0,14.1,8.3,23.2,21.1,23.2c6.1,0,12.2-1.4,14.5-2.5l0.5-0.2v-10.8c0-4.2,0.7-4.5,1.9-4.8l2.7-0.5v-3.5 l-1.9,0.1C305,154.3,303,154.3,300.5,154.3 M51.5,151.8c0.7-4.1,3.2-8.4,8.3-8.4c4.4,0,6.4,4,6.4,7.7c0,0.6-0.1,0.8-0.8,0.8 L51.5,151.8L51.5,151.8z M60.1,138.6c-9.3,0-16,8.2-16,19.4c0,11.4,6.1,18.2,16.3,18.2c5.5,0,9.9-2.4,11.2-4.8l0.1-0.3l-0.4-3.1 l-1,0.5c-2.4,1.2-5.4,1.9-8.7,1.9c-7.8,0-10.6-6.8-10.6-13.1c0-0.4,0-0.8,0-1.2h22.1l0.1-0.7c0.1-1,0.1-1.7,0.1-2.7 C73.5,146,69.3,138.6,60.1,138.6L60.1,138.6L60.1,138.6z M90.9,153.5c-4.2-1.6-6.7-2.8-6.7-5.8c0-4.1,3.8-4.6,6-4.6 c4.1,0,5.9,1.8,6.2,6.1l0.1,0.7h4.1l-0.1-0.9c-0.2-3-0.3-4.8-0.1-7.8v-0.6l-0.5-0.2c-2.2-0.9-5.9-1.9-9.4-1.9 c-7.3,0-12.4,4.1-12.4,10.1c0,7.5,5.8,9.6,10.3,11.3c4.3,1.6,6.9,2.7,6.9,6c0,3.4-2.6,5.6-6.5,5.6c-5.3,0-6.5-2.3-7.1-7.1l-0.1-0.7 h-4.1l0.1,0.9c0.2,3.3,0.3,5.9,0.2,9.2v0.6l0.6,0.2c3.4,1.1,6.7,1.6,10.5,1.6c7.1,0,12.7-4.9,12.7-11.1 C101.5,157.6,95.6,155.3,90.9,153.5 M29.3,142.5c0,5.2-3.5,8.5-9,8.5c-1.9,0-2.9-0.1-4.1-0.1v-16.2c1.4-0.1,3.2-0.1,4.8-0.1 C26.4,134.5,29.3,137.3,29.3,142.5 M37.3,168.6c-3.4-3.8-7.1-9-9.9-13.9c5.3-1.8,9.3-7.1,9.3-12.6c0-7.7-5.4-12.4-14.6-12.4 c-2.2,0-4.1,0.1-6,0.1c-1.6,0.1-3,0.1-4.4,0.1c-2.7,0-5.5,0-7.2-0.1l-0.9-0.1v3.5l3.3,0.6c1.1,0.2,2.2,0.5,2.2,4.8v27.7 c0,4.4-1,4.6-2.2,4.8l-3.3,0.6v3.5l1.6-0.1c1.9-0.1,4.7-0.2,7.5-0.2c3.1,0,7.2,0.1,8.8,0.2h0.9v-3.5l-4.3-0.6 c-1.1-0.2-2.2-0.3-2.2-4.8v-10.7c1.2,0.1,2.4,0.1,4.1,0.1c4.3,7.7,8.2,13.3,10.3,15.8c2.4,2.9,5.8,4.4,9.8,4.4 c1.3,0,2.7-0.3,3.5-0.7l0.5-0.2V172h-0.8C41.5,172,39.3,170.7,37.3,168.6"></path> </svg> 