<?xml version="1.0" encoding="UTF-8"?>
<svg width="800px" height="240px" viewBox="0 0 800 240" version="1.1" xmlns="http://www.w3.org/2000/svg" xmlns:xlink="http://www.w3.org/1999/xlink">
    <!-- Generator: Sketch 61.2 (89653) - https://sketch.com -->
    <title>Typed out Milo Copy 2</title>
    <desc>Created with Sketch.</desc>
    <g id="Typed-out-Milo-Copy-2" stroke="none" stroke-width="1" fill="none" fill-rule="evenodd">
        <path d="M167.4,153.8 C169.1,153.8 170.9,153.5 172,153 L172,150.4 C168.4,150.4 164.8,147.9 162.2,145.1 C157.8,140.3 151.9,132.6 147,123.9 C155.1,122 161.1,114.4 161.1,106.8 C161.1,95.6 152.4,90.4 141,90.4 C135.1,90.4 130.4,90.7 126,90.7 L123.920934,90.699474 C120.654064,90.6969754 117.565217,90.6826087 115.5,90.6 L115.5,93.5 L119.3,94.2 C121.9,94.7 123.4,95.9 123.4,102.1 L123.4,141.5 C123.4,147.7 121.9,148.9 119.3,149.4 L115.5,150.1 L115.5,153 C118.2,152.9 122.9,152.7 127.6,152.7 C132.1,152.7 137.9,152.9 140.4,153 L140.4,150.1 L135.2,149.4 C132.5,149 131.1,147.7 131.1,141.5 L131.1,124.8 C133.5,125 135.6,125 138.8,125 C144.9,135.9 150.7,144.1 154,147.9 C157,151.5 161.6,153.8 167.4,153.8 Z M138.3,120.5 C134.9,120.5 133.4,120.4 131.1,120.2 L131.1,95.1 C133.4,94.9 136.5,94.9 139.2,94.9 C147.6,94.9 152.6,99.3 152.6,107.3 C152.6,115.2 147.2,120.5 138.3,120.5 Z M198,154.2 C205.2,154.2 211.5,151.1 213.4,148 L213.1,145.5 C209.9,147.1 205.6,148.3 199.9,148.3 C188.7,148.3 183.3,139.3 183.3,128.5 C183.3,127.6 183.3,126.6 183.4,125.6 L215.7,125.6 C215.9,124.3 215.9,123.3 215.9,122 C215.9,112.3 209.9,103 197.5,103 C184.5,103 175.4,114.2 175.4,129.4 C175.4,144.7 183.3,154.2 198,154.2 Z M205.3,121.6 L183.7,121.6 C184.5,114.8 188.7,107.4 197.1,107.4 C204.1,107.4 207.6,113.5 207.6,119.4 C207.6,120.8 207,121.6 205.3,121.6 Z M239.4,154.2 C249.4,154.2 256.7,147.5 256.7,139.5 C256.7,121.6 231.5,126.4 231.5,114.8 C231.5,109.7 235.4,107.1 241.4,107.1 C248.1,107.1 251.1,110.4 251.6,116.8 L255.3,116.8 C255,112.5 254.9,109.9 255.1,105.6 C252.1,104.4 246.9,103 241.8,103 C232.1,103 224.9,108.2 224.9,116.2 C224.9,134.3 250,128.2 250,140.7 C250,146.3 245.6,149.8 239.3,149.8 C230.8,149.8 228.7,145.9 227.8,138.8 L224.1,138.8 C224.4,143.5 224.6,147.2 224.4,151.9 C228.4,153.2 233.2,154.2 239.4,154.2 Z M288.7,154.2 C295.9,154.2 302.2,151.1 304.1,148 L303.8,145.5 C300.6,147.1 296.3,148.3 290.6,148.3 C279.4,148.3 274,139.3 274,128.5 C274,127.6 274,126.6 274.1,125.6 L306.4,125.6 C306.6,124.3 306.6,123.3 306.6,122 C306.6,112.3 300.6,103 288.2,103 C275.2,103 266.1,114.2 266.1,129.4 C266.1,144.7 274,154.2 288.7,154.2 Z M296,121.6 L274.4,121.6 C275.2,114.8 279.4,107.4 287.8,107.4 C294.8,107.4 298.3,113.5 298.3,119.4 C298.3,120.8 297.7,121.6 296,121.6 Z M347.3,154.2 C350.2,154.2 353.2,153.5 354.9,152.4 L354.9,149.6 C348.8,149.6 347,148.2 347,143.3 C347,134.3 347.4,126.7 347.4,118.9 C347.4,109.2 341.8,103 330.5,103 C325,103 319.2,105.9 316.8,108.7 L317.3,111.6 C320.4,109.9 324.1,108.9 328.7,108.9 C336.5,108.9 339.9,113 339.9,120.7 L339.9,126.5 C338.4,126.4 335.9,126.4 334.5,126.4 C321.7,126.4 313.4,132.4 313.4,141.8 C313.4,149.1 318.8,154.2 326.5,154.2 C332.6,154.2 338,150.4 339.8,147.4 L340,147.4 C340,151.5 342.7,154.2 347.3,154.2 Z M329.2,148.4 C324.3,148.4 321,145.4 321,140.5 C321,134.4 325.6,130.7 335.9,130.7 C337,130.7 338.7,130.7 339.8,130.8 C339.7,132.9 339.5,140.4 339.5,144 C337.5,146.3 333.8,148.4 329.2,148.4 Z M384.8,153 L384.8,150.2 L380.2,149.7 C378.037931,149.405172 376.938258,148.724019 376.900981,142.056481 L376.9,113.4 C380,110.9 384,109.6 387.5,109.6 C389.3,109.6 391.8,109.9 393,110.5 L393.8,103.6 C392.6,103.3 391.3,103 389.5,103 C385.4,103 379.4,106.5 376.9,110 L376.9,102.5 C371.9,104.7 368.2,105.8 363,107.3 L363,109.7 C369.5,111 369.5,112.2 369.5,117.3 L369.5,141.7 C369.5,148.7 368.5,149.3 366.2,149.7 L362.9,150.2 L362.9,153 C365.4,152.9 369.2,152.6 373.1,152.6 C376.9,152.6 382.3,152.9 384.8,153 Z M421,154.2 C428.4,154.2 434,150.8 435.8,147.8 L435.3,145.2 C432.3,147.2 428.2,148.3 423.7,148.3 C413.3,148.3 406,141.2 406,128.4 C406,115.1 413.1,107.3 421.6,107.3 C428.7,107.3 431,111.1 431.3,116.8 L435.1,116.8 C435.1,113.5 435.2,108.7 435.5,105.4 C432.2,104.2 427.5,103 422.2,103 C409.1,103 398.2,114.5 398.2,129.4 C398.2,144.6 406.7,154.2 421,154.2 Z M494.2,153 L494.2,150.2 L490.9,149.7 C488.737931,149.306897 487.638258,148.72063 487.600981,142.056393 L487.6,120.1 C487.6,110 484.2,103 472.4,103 C467.1,103 461.4,106.4 458.1,109.5 L458.1,82.2 C453.1,84.7 449.4,86.1 444.2,87.6 L444.2,90 C450.7,91.3 450.7,92.5 450.7,97.6 L450.7,141.7 C450.7,148.7 449.7,149.3 447.4,149.7 L444.1,150.2 L444.1,153 C446.6,152.9 450.4,152.7 454.3,152.7 C458.1,152.7 462.2,152.9 464.7,153 L464.7,150.2 L461.4,149.7 C459.2,149.3 458.1,148.7 458.1,141.7 L458.1,112.8 C460.7,111.1 465.2,108.9 469.7,108.9 C478.2,108.9 480.2,113.6 480.2,121.2 L480.2,141.7 C480.2,148.7 479.2,149.3 476.9,149.7 L473.6,150.2 L473.6,153 C476.1,152.9 479.9,152.7 483.8,152.7 C487.6,152.7 491.7,152.9 494.2,153 Z M531.1,154.4 C539.4,154.4 548.2,152.5 551.8,151 L551.8,136.4 C551.8,130.7 552.7,129.1 555.5,128.5 L558.6,127.9 L558.6,125 C556.1,125.1 552.8,125.3 548.3,125.3 C542.7,125.3 538.7,125.1 536.2,125 L536.2,127.9 L540,128.6 C542.6,129.1 544.1,130.3 544.1,136.5 L544.1,147.8 C541.1,149.6 536.2,150.1 532.2,150.1 C518.7,150.1 510.2,138.6 510.2,121.9 C510.2,105.3 518.8,93.7 532.3,93.7 C541.5,93.7 546.3,99 546.9,106.7 L550.8,106.7 C550.4,101.4 550.3,97 550.2,92.4 C545.7,90.8 540.1,89.4 532.5,89.4 C514.2,89.4 501.5,103.9 501.5,122.6 C501.5,141.6 512.7,154.4 531.1,154.4 Z M598.3,154.2 C601.2,154.2 604.2,153.5 605.9,152.4 L605.9,149.6 C599.8,149.6 598,148.2 598,143.3 C598,134.3 598.4,126.7 598.4,118.9 C598.4,109.2 592.8,103 581.5,103 C576,103 570.2,105.9 567.8,108.7 L568.3,111.6 C571.4,109.9 575.1,108.9 579.7,108.9 C587.5,108.9 590.9,113 590.9,120.7 L590.9,126.5 C589.4,126.4 586.9,126.4 585.5,126.4 C572.7,126.4 564.4,132.4 564.4,141.8 C564.4,149.1 569.8,154.2 577.5,154.2 C583.6,154.2 589,150.4 590.8,147.4 L591,147.4 C591,151.5 593.7,154.2 598.3,154.2 Z M580.2,148.4 C575.3,148.4 572,145.4 572,140.5 C572,134.4 576.6,130.7 586.9,130.7 C588,130.7 589.7,130.7 590.8,130.8 C590.7,132.9 590.5,140.4 590.5,144 C588.5,146.3 584.8,148.4 580.2,148.4 Z M628.7,154.2 C633.3,154.2 638.2,152.3 639.6,150 L639.2,148 C637.8,148.5 634.7,149.2 631.9,149.2 C627,149.2 625.2,146.7 625.2,140.7 L625.2,108.9 L639.7,108.9 L639.7,104.2 L625.2,104.2 L625.2,92.5 L622,92.5 C620.3,98.6 618,102.3 611.7,105.7 L611.7,108.9 L617.8,108.9 L617.8,142.4 C617.8,150.6 620.6,154.2 628.7,154.2 Z M667.7,154.2 C674.9,154.2 681.2,151.1 683.1,148 L682.8,145.5 C679.6,147.1 675.3,148.3 669.6,148.3 C658.4,148.3 653,139.3 653,128.5 C653,127.6 653,126.6 653.1,125.6 L685.4,125.6 C685.6,124.3 685.6,123.3 685.6,122 C685.6,112.3 679.6,103 667.2,103 C654.2,103 645.1,114.2 645.1,129.4 C645.1,144.7 653,154.2 667.7,154.2 Z M675,121.6 L653.4,121.6 C654.2,114.8 658.4,107.4 666.8,107.4 C673.8,107.4 677.3,113.5 677.3,119.4 C677.3,120.8 676.7,121.6 675,121.6 Z" id="ResearchGate" fill="#00A39E" fill-rule="nonzero"></path>
    </g>
</svg>