<svg xmlns="http://www.w3.org/2000/svg" role="img" viewBox="31.13 49.63 330.98 126.73"><path fill="#28234A" fill-rule="evenodd" d="M85.7148 170.169c20.2542 0 25.3462-8.235 25.3462-19.516 0-13.875-12.3837-16.47-22.6843-18.162-7.8702-1.354-11.4581-2.03-11.4581-6.881 0-3.609 3.1247-4.964 8.2176-4.964 6.2499 0 7.9856 1.805 8.5647 7.107l16.4351-2.482c-1.39-11.393-7.755-17.146-24.5371-17.146-18.4018 0-24.8832 7.446-24.8832 19.29-.1153 15.342 14.2359 16.921 24.8832 18.726 6.5965 1.241 9.1438 2.368 9.1438 6.768 0 3.61-2.1989 5.189-8.7966 5.189-7.2912 0-9.4901-1.24-10.416-7.219l-15.9715 2.369c1.5044 12.07 8.5643 16.921 26.1562 16.921m55.7622-12.411c-7.755 0-10.532-1.692-10.532-7.333 0-5.076 2.777-7.106 11.111-7.106h8.333v5.866c0 5.64-2.778 8.573-8.912 8.573m-7.175 12.41c9.027 0 13.078-2.933 15.972-7.22v6.43h16.318v-40.836c0-13.649-5.208-20.531-23.263-20.531-17.476 0-23.61 4.963-26.041 17.147l16.204 2.481c1.041-5.188 2.546-6.768 9.259-6.768 6.481 0 7.523 2.707 7.523 7.22v4.174h-7.639c-20.717 0-27.777 6.317-27.777 19.177 0 12.634 6.366 18.726 19.444 18.726m40.11-.789h16.666V82.3447l-16.666 16.637v70.3973zM213.94 132.6v-3.046c0-5.301 2.431-8.912 9.722-8.912 7.06 0 9.376 3.046 9.376 8.912v3.046H213.94zm9.722 37.679c19.213 0 24.305-9.025 25.462-18.049l-15.855-2.369c-.695 5.415-1.736 8.235-9.607 8.235-7.985 0-9.722-3.948-9.722-9.137v-4.964h35.184v-10.829c0-15.117-5.902-25.156-25.462-25.156-19.327 0-25.925 10.153-25.925 23.013v16.244c0 12.521 6.713 23.012 25.925 23.012zm57.646.002c19.097 0 26.966-9.814 26.966-23.013v-16.243c0-13.424-7.869-23.014-26.966-23.014s-26.735 9.59-26.735 23.014v16.243c0 13.199 7.523 23.013 26.735 23.013m-.003-13.088c-6.713 0-10.069-3.496-10.069-9.137v-17.372c0-5.753 3.356-9.25 10.069-9.25 6.712 0 10.3 3.497 10.3 9.25v17.372c0 5.641-3.588 9.137-10.3 9.137m58.412-31.967h-8.933v43.798h-16.666v-43.798l16.283-16.636H356l-16.283 16.636z" clip-rule="evenodd"/><path fill="#036DFF" fill-rule="evenodd" d="M107.196 56.189L84.8445 79.5729h55.2145L162.41 56.189h-55.214z" clip-rule="evenodd" opacity=".7"/><path fill="#28234A" fill-rule="evenodd" d="M59.3052 64.1664c.4514-.452 1.064-.706 1.7028-.706h72.619c.973 0 1.851.5861 2.223 1.485.373.899.168 1.9339-.52 2.6224l-20.939 20.9649c-.452.4519-1.064.7059-1.703.7059H40.0686c-.9732 0-1.8505-.5861-2.2232-1.485-.3727-.8989-.1673-1.9338.5204-2.6224l20.9394-20.9648zm2.7005 4.1073l-16.132 16.1516H111.69l16.132-16.1516H62.0057z" clip-rule="evenodd"/></svg>