<?xml version="1.0" encoding="UTF-8" standalone="no"?><!DOCTYPE svg PUBLIC "-//W3C//DTD SVG 1.1//EN" "http://www.w3.org/Graphics/SVG/1.1/DTD/svg11.dtd"><svg width="100%" height="100%" viewBox="0 0 306 72" version="1.1" xmlns="http://www.w3.org/2000/svg" xmlns:xlink="http://www.w3.org/1999/xlink" xml:space="preserve" xmlns:serif="http://www.serif.com/" style="fill-rule:evenodd;clip-rule:evenodd;stroke-linejoin:round;stroke-miterlimit:2;"><g><path d="M90.2,49.9l0.5,0c3.1,0.7 5.9,1.1 8.7,1.1c4.1,0 7.1,-1 7.1,-4.5c0,-6.5 -16.2,-3.9 -16.2,-14.7c0,-5.9 5.5,-9 12.3,-9c2.7,0 5.5,0.4 8,1.2l0,4.9l-0.5,0c-2.9,-0.9 -5.3,-1.3 -7.5,-1.3c-3.3,0 -6.7,0.7 -6.7,4.2c0,6.2 16.2,3.7 16.2,14.2c0,7.6 -6.1,9.9 -12.9,9.9c-3.3,0 -6.7,-0.5 -9,-1l0,-5Z" style="fill:#f64c43;fill-rule:nonzero;"/><path d="M166.6,54.6c-1.9,0.7 -4,1.2 -6.7,1.2c-3.3,0 -8.4,-0.7 -8.4,-8.3l0,-19.1l-4.1,0l0,-4.7l4.1,0l0,-7.5l4.7,-1l0.5,0l0,8.5l10.3,0l0,4.7l-10.3,0l0,19.1c0,3.4 2.9,3.7 4.2,3.7c1.3,0 3.5,-0.5 5.1,-1l0.6,4.4Z" style="fill:#f64c43;fill-rule:nonzero;"/><path d="M186.1,49.9l0.5,0c3.1,0.7 5.9,1.1 8.7,1.1c4.1,0 7.1,-1 7.1,-4.5c0,-6.5 -16.2,-3.9 -16.2,-14.7c0,-5.9 5.5,-9 12.3,-9c2.7,0 5.5,0.4 8,1.2l0,4.9l-0.5,0c-2.9,-0.9 -5.3,-1.3 -7.5,-1.3c-3.3,0 -6.7,0.7 -6.7,4.2c0,6.2 16.2,3.7 16.2,14.2c0,7.6 -6.1,9.9 -12.9,9.9c-3.3,0 -6.7,-0.5 -9,-1l0,-5Z" style="fill:#f64c43;fill-rule:nonzero;"/><path d="M215.1,23.8l4.7,-1l0.7,0l0,4.1c3.1,-2.3 6.5,-4.1 11.1,-4.1c6.9,0 12.2,4.9 12.2,15.3c0,10.2 -5.3,17.8 -16.5,17.8c-2.6,0 -4.7,-0.3 -6.9,-0.8l0,15.5l-4.7,1l-0.7,0l0,-47.8l0.1,0Zm5.4,26.6c2.1,0.3 4.3,0.7 7.1,0.7c6.5,0 10.7,-4.1 10.7,-12.2c0,-7.5 -2.5,-11.3 -7.8,-11.3c-3.1,0 -6.6,1.3 -9.9,4.3l0,18.5l-0.1,0Z" style="fill:#f64c43;fill-rule:nonzero;"/><path d="M288,54.6l-10.7,-30.9l6.1,0l7.5,24.3l0.5,0l8.3,-24.3l6.1,0l-11.8,32.4c-2.8,8 -6.3,11.9 -12,15.5l-3,-3.9c5.8,-4.1 7.3,-6.5 9.5,-11.9" style="fill:#f64c43;fill-rule:nonzero;"/><path d="M272.6,54.8l-4.3,0.9l-0.7,0l0,-4.4l-0.2,0c-2.8,2.1 -6.2,4.3 -10.8,4.3c-4.1,0 -8.3,-2.9 -8.3,-8.7c0,-7.7 6.9,-8.8 10.7,-9.3l8.3,-1.1l0,-2.1c0,-5.3 -2.5,-6.8 -7.1,-6.8c-1.7,0 -6.1,0.5 -9.6,2.1l-0.6,-4.9c2.9,-1.1 7.5,-2 11.2,-2c6.6,0 11.5,2.7 11.5,11.6l0,20.4l-0.1,0Zm-5.3,-14.3l-8.6,1.3c-2.3,0.3 -4.8,1.3 -4.8,4.9c0,2.6 1.8,4.4 4.5,4.4c2.9,0 6.3,-1.9 8.9,-3.7l0,-6.9Z" style="fill:#f64c43;fill-rule:nonzero;"/><path d="M141.3,34.4c0,-8.9 -4.9,-11.6 -11.5,-11.6c-3.7,0 -8.3,0.9 -11.2,2l0.6,4.9c3.5,-1.6 7.9,-2.1 9.6,-2.1c4.6,0 7.1,1.5 7.1,6.8l0,2.1l-8.3,1.1c-3.7,0.5 -10.7,1.6 -10.7,9.3c0,5.7 4.3,8.7 8.3,8.7c4.6,0 8,-2.2 10.8,-4.3l0.1,0l0,4.4l0.7,0l4.3,-0.9l0,-20.4l0.2,0Zm-5.3,12.9c-2.6,1.9 -5.9,3.7 -8.9,3.7c-2.7,0 -4.5,-1.8 -4.5,-4.4c0,-3.6 2.5,-4.5 4.8,-4.9l8.6,-1.3l0,6.9Z" style="fill:#f64c43;fill-rule:nonzero;"/><path d="M173.1,55.7l0.1,0l-0.1,0Z" style="fill:#f64c43;fill-rule:nonzero;"/><path d="M177.8,22.8l-4.7,1l0,31.9l0.7,0l4.7,-1l0,-1.6l0,-30.3l-0.7,0Z" style="fill:#f64c43;fill-rule:nonzero;"/><path d="M177.8,12l-4.7,1l0,5.6l0.7,0l4.7,-1l0,-1.5l0,-4.1l-0.7,0Z" style="fill:#f64c43;fill-rule:nonzero;"/><path d="M220.5,37c0,1.5 -1.2,2.7 -2.7,2.7c-1.5,0 -2.7,-1.2 -2.7,-2.7c0,-1.5 1.2,-2.7 2.7,-2.7c1.5,0 2.7,1.2 2.7,2.7" style="fill:#f64c43;fill-rule:nonzero;"/><path d="M57.5,1.9c0.7,-0.7 0.2,-1.9 -0.8,-1.9l-16.7,0l9.7,9.7l7.8,-7.8Z" style="fill:#f64c43;fill-rule:nonzero;"/><path d="M34.1,25.2l-11.9,-11.9l-10.8,10.7l-11.1,11.2c-0.4,0.4 -0.4,1.2 0,1.6l21.8,21.8l11.9,-11.9l-10,-10l-0.6,-0.7l0.8,-0.8l9.9,-10Z" style="fill:#f64c43;fill-rule:nonzero;"/><path d="M49.7,62.3l-9.7,9.7l16.6,0c1,0 1.5,-1.2 0.8,-1.9l-7.7,-7.8Z" style="fill:#f64c43;fill-rule:nonzero;"/><path d="M71.6,35.2l-11.2,-11.2l-12.5,-12.5l-11.2,-11.2c-0.2,-0.2 -0.5,-0.3 -0.8,-0.3l-20.7,0c-1,0 -1.5,1.2 -0.8,1.9l34.1,34.1l-0.8,0.8l-11.8,11.7l-11.9,12l-9.6,9.5c-0.7,0.7 -0.2,1.9 0.8,1.9l20.7,0c0.3,0 0.6,-0.1 0.8,-0.3l11.2,-11.1l12.5,-12.6l11.1,-11.1c0.5,-0.5 0.5,-1.2 0.1,-1.6" style="fill:#f64c43;fill-rule:nonzero;"/></g></svg>