<svg enable-background="new 0 0 164.5 75.6" viewBox="0 0 164.5 75.6" xmlns="http://www.w3.org/2000/svg"><path d="m91.7 37.8-7.8-5c3.4-2.2 5.6-6.4 5.6-10.7 0-6.8-5.6-12.3-12.5-12.3-4.9 0-9.2 2.9-11.2 7-.7-.1-1.4-.2-2.1-.2-5.8 0-10.6 5-10.6 10.8 0 3.2 1.4 6 3.7 8 1.7 1.6 3.9 2.5 6.3 2.5z" fill="#eabe00"/><path d="m100.4 16.3-.1-14.2c0-1.1-.9-2.1-2.1-2.1l-33.6 0c-.6 0-1.1.2-1.5.6s-.6.9-.6 1.5l.2 23.9c0 1.2 1 2.1 2.1 2.1h6.3l2-4.2h-6.3v-19.7h29.4" fill="#3d4146"/><path d="m63.8 26.5c.6.9 1.3 1.6 2.4 1.6h8.1l1.8-3.8v-.4-.1h-9.5z" fill="#3d4146"/><path d="m96.1 3.6v12.3l4.2 1.1-.1-13.6c0-.4-.1-.7-.2-1.1z" fill="#3d4146"/><path d="m104.5 23.2c-.7-5.2-5.2-9.2-10.6-9.2-4.2 0-7.9 2.4-9.6 6-.5-.1-1.1-.2-1.6-.2-5 0-9.1 4-9.1 9 0 .5 0 8.7-9.2 8.9v.1h11.4 4.8 23.4c4.1 0 7.4-3.3 7.4-7.3 0-3.9-3-7.1-6.9-7.3z" fill="#ffd000"/><g fill="#35343c"><path d="m12.9 58.5c-.1.2-.2.4-.4.4-.1.1-.3.1-.5.1s-.4-.1-.7-.2c-.2-.1-.5-.3-.9-.5-.3-.2-.7-.3-1.2-.5-.4-.1-1-.2-1.6-.2-.5 0-1 .1-1.4.2s-.7.3-1 .5-.5.5-.6.8-.2.7-.2 1c0 .5.1.9.4 1.2s.6.6 1.1.8 1 .4 1.6.6 1.2.4 1.8.6 1.2.4 1.8.7 1.1.6 1.6 1 .8.9 1.1 1.5.4 1.3.4 2.2-.2 1.8-.5 2.6-.8 1.5-1.4 2.1-1.4 1.1-2.3 1.4-1.9.5-3.1.5c-.7 0-1.3-.1-2-.2s-1.3-.3-1.9-.5-1.2-.5-1.7-.9c-.5-.3-1-.7-1.4-1.1l1.1-1.8c.1-.1.2-.2.4-.3s.3-.1.5-.1.5.1.8.3.6.4 1 .6.8.5 1.4.6c.5.2 1.1.3 1.9.3 1.1 0 2-.3 2.6-.8s.9-1.3.9-2.2c0-.5-.1-1-.4-1.3s-.6-.6-1.1-.9c-.5-.2-1-.4-1.6-.6s-1.2-.3-1.8-.5-1.2-.4-1.8-.7-1.1-.6-1.6-1-.8-1-1.1-1.6-.4-1.4-.4-2.4c0-.8.2-1.5.5-2.2s.8-1.3 1.3-1.9c.6-.6 1.3-1 2.2-1.3s1.8-.5 2.9-.5c1.2 0 2.4.2 3.5.6s1.9.9 2.7 1.6z"/><path d="m27.6 63.8c-.1.1-.2.2-.3.3s-.3.1-.4.1c-.2 0-.4-.1-.5-.2-.2-.1-.4-.2-.6-.4-.2-.1-.5-.3-.9-.4-.3-.1-.8-.2-1.2-.2-.6 0-1.2.1-1.7.3s-.9.5-1.2 1c-.3.4-.6.9-.7 1.5-.2.6-.2 1.3-.2 2 0 .8.1 1.5.3 2.1s.4 1.1.7 1.5.7.7 1.2.9 1 .3 1.6.3 1-.1 1.4-.2.7-.3.9-.5.5-.3.6-.5c.2-.1.4-.2.6-.2.3 0 .5.1.7.3l1 1.3c-.4.5-.8.8-1.3 1.1s-1 .6-1.5.7c-.5.2-1 .3-1.6.4-.5.1-1.1.1-1.6.1-.9 0-1.8-.2-2.6-.5s-1.5-.8-2.1-1.5c-.6-.6-1.1-1.4-1.4-2.4-.4-.9-.5-2-.5-3.2 0-1.1.2-2.1.5-3s.8-1.7 1.4-2.4 1.4-1.2 2.3-1.6 2-.6 3.1-.6 2.1.2 2.9.5c.8.4 1.6.9 2.3 1.5z"/><path d="m31.1 75.6v-15.1h2.1c.4 0 .6.1.8.2.1.1.2.4.3.7l.2 2c.5-.9 1.2-1.6 1.9-2.1s1.5-.8 2.4-.8c.7 0 1.4.2 1.8.5l-.5 2.6c0 .2-.1.3-.2.4s-.2.1-.4.1c-.1 0-.3 0-.6-.1s-.6-.1-1-.1c-.8 0-1.4.2-1.9.6s-1 1-1.4 1.8v9.3z"/><path d="m49.2 60.5c.9 0 1.8.1 2.6.4s1.5.7 2.1 1.3 1 1.3 1.3 2.1.5 1.8.5 2.8v.7c0 .2-.1.3-.1.4-.1.1-.1.2-.3.2-.1 0-.2.1-.4.1h-9.3c.1 1.5.5 2.6 1.2 3.3s1.7 1.1 2.9 1.1c.6 0 1.1-.1 1.5-.2s.8-.3 1.1-.4c.3-.2.6-.3.8-.4s.5-.2.7-.2c.1 0 .3 0 .4.1s.2.1.3.2l1.1 1.3c-.4.5-.8.8-1.3 1.1s-1 .6-1.6.7c-.5.2-1.1.3-1.7.4s-1.1.1-1.6.1c-1 0-2-.2-2.9-.5s-1.7-.8-2.3-1.5c-.7-.7-1.2-1.5-1.6-2.5s-.6-2.1-.6-3.4c0-1 .2-1.9.5-2.8s.8-1.6 1.4-2.3 1.4-1.2 2.3-1.5c.9-.4 1.9-.6 3-.6zm.1 2.5c-1.1 0-1.9.3-2.5.9s-1 1.4-1.1 2.5h6.8c0-.5-.1-.9-.2-1.3s-.3-.8-.6-1.1-.6-.5-1-.7-.9-.3-1.4-.3z"/><path d="m64.8 60.5c.9 0 1.8.1 2.6.4s1.5.7 2.1 1.3 1 1.3 1.3 2.1.5 1.8.5 2.8v.7c0 .2-.1.3-.1.4-.1.1-.1.2-.3.2-.1 0-.2.1-.4.1h-9.3c.1 1.5.5 2.6 1.2 3.3s1.7 1.1 2.9 1.1c.6 0 1.1-.1 1.5-.2s.8-.3 1.1-.4c.3-.2.6-.3.8-.4s.5-.2.7-.2c.1 0 .3 0 .4.1s.2.1.3.2l1.1 1.3c-.4.5-.8.8-1.3 1.1s-1 .6-1.6.7c-.5.2-1.1.3-1.7.4s-1.1.1-1.6.1c-1 0-2-.2-2.9-.5s-1.7-.8-2.3-1.5c-.7-.7-1.2-1.5-1.6-2.5s-.6-2.1-.6-3.4c0-1 .2-1.9.5-2.8s.8-1.6 1.4-2.3 1.4-1.2 2.3-1.5c.9-.4 1.9-.6 3-.6zm.1 2.5c-1.1 0-1.9.3-2.5.9s-1 1.4-1.1 2.5h6.8c0-.5-.1-.9-.2-1.3s-.3-.8-.6-1.1-.6-.5-1-.7-.9-.3-1.4-.3z"/><path d="m105.6 70.4c.2 0 .4.1.6.2l1.6 1.7c-.9 1-1.9 1.9-3.2 2.4-1.3.6-2.8.8-4.5.8-1.6 0-3-.3-4.2-.8-1.3-.5-2.3-1.3-3.2-2.2s-1.6-2.1-2-3.4-.7-2.7-.7-4.3.3-3 .8-4.3 1.3-2.4 2.2-3.4c1-.9 2.1-1.7 3.4-2.2s2.8-.8 4.4-.8 2.9.2 4.1.7 2.2 1.2 3 2l-1.3 1.8c-.1.1-.2.2-.3.3s-.3.1-.5.1-.5-.1-.7-.3-.5-.4-.9-.6-.8-.4-1.4-.6-1.3-.3-2.1-.3c-1 0-1.9.2-2.7.5s-1.6.8-2.1 1.5c-.6.6-1.1 1.4-1.4 2.3s-.5 1.9-.5 3.1.2 2.2.5 3.1.8 1.7 1.4 2.3 1.3 1.1 2 1.4c.8.3 1.6.5 2.5.5.5 0 1 0 1.5-.1.4-.1.8-.1 1.2-.3.4-.1.7-.3 1-.5s.6-.4 1-.7c.1-.1.2-.2.3-.2 0 .4.1.3.2.3z"/><path d="m114.4 54.2v21.4h-3.6v-21.4z"/><path d="m124.8 60.5c1.1 0 2.1.2 3 .5.9.4 1.7.9 2.3 1.5s1.1 1.4 1.5 2.4c.4.9.5 2 .5 3.1 0 1.2-.2 2.2-.5 3.1-.4.9-.8 1.7-1.5 2.4-.6.7-1.4 1.2-2.3 1.5-.9.4-1.9.5-3 .5s-2.1-.2-3.1-.5c-.9-.4-1.7-.9-2.3-1.5-.6-.7-1.2-1.4-1.5-2.4-.4-.9-.5-2-.5-3.1 0-1.2.2-2.2.5-3.1.4-.9.9-1.7 1.5-2.4.6-.6 1.4-1.1 2.3-1.5 1-.3 2-.5 3.1-.5zm0 12.4c1.2 0 2.2-.4 2.8-1.2s.9-2 .9-3.6-.3-2.8-.9-3.6-1.5-1.2-2.8-1.2-2.2.4-2.8 1.2-.9 2-.9 3.6.3 2.8.9 3.6 1.6 1.2 2.8 1.2z"/><path d="m138.4 60.5v9.5c0 .9.2 1.6.6 2.1s1.1.7 1.9.7c.6 0 1.2-.1 1.8-.4.5-.3 1.1-.6 1.6-1.1v-10.8h3.6v15.1h-2.2c-.5 0-.8-.2-.9-.6l-.2-1.4c-.3.3-.6.6-1 .8-.3.3-.7.5-1.1.6-.4.2-.8.3-1.2.4s-.9.1-1.4.1c-.8 0-1.5-.1-2.2-.4s-1.2-.7-1.6-1.1c-.4-.5-.8-1.1-1-1.8s-.3-1.4-.3-2.2v-9.5z"/><path d="m162.3 75.6c-.5 0-.8-.2-.9-.6l-.3-1.6c-.3.3-.6.7-1 .9s-.7.5-1.1.7-.8.4-1.3.5-.9.2-1.5.2c-.8 0-1.6-.2-2.3-.5s-1.3-.8-1.8-1.4-.9-1.4-1.1-2.3c-.3-.9-.4-2-.4-3.2 0-1.1.2-2.1.5-3s.7-1.7 1.3-2.4 1.2-1.2 2-1.6 1.7-.6 2.7-.6c.8 0 1.6.1 2.1.4.6.3 1.1.6 1.6 1v-7.6h3.6v21.3h-2.1zm-4.9-2.8c.8 0 1.4-.2 1.9-.5s1-.7 1.5-1.3v-6.6c-.4-.5-.9-.8-1.3-1-.5-.2-1-.3-1.6-.3-.5 0-1 .1-1.5.3-.4.2-.8.5-1.1.9s-.5.9-.7 1.5-.2 1.4-.2 2.2c0 .9.1 1.6.2 2.2s.3 1.1.6 1.5.6.6 1 .8c.3.2.8.3 1.2.3z"/><path d="m74.3 75.6v-15h2.2c.5 0 .8.2.9.6l.2 1.4c.3-.3.6-.6 1-.8.3-.2.7-.5 1.1-.6.4-.2.8-.3 1.2-.4s.9-.1 1.4-.1c.8 0 1.5.1 2.2.4.6.3 1.2.7 1.6 1.1s.7 1.1 1 1.8c.2.7.3 1.4.3 2.2v9.5h-3.6v-9.5c0-.9-.2-1.6-.6-2.1s-1.1-.7-1.9-.7c-.6 0-1.2.1-1.8.4-.5.3-1.1.7-1.6 1.1v10.8h-3.6z"/></g></svg>