<?xml version="1.0" encoding="UTF-8"?>
<svg width="215px" height="105px" viewBox="0 0 215 105" version="1.1" xmlns="http://www.w3.org/2000/svg" xmlns:xlink="http://www.w3.org/1999/xlink">
    <title>GraphQL Tools/ sofa</title>
    <g id="GraphQL-Tools/-sofa" stroke="none" stroke-width="1" fill="none" fill-rule="evenodd">
        <rect id="Rectangle" fill="#FFFFFF" x="0" y="0" width="215" height="105"></rect>
        <g id="Libraries-Logos-/-Sofa" transform="translate(6.000000, 20.000000)" fill="#E873FF">
            <path d="M36.0400049,60.3145407 C36.0400049,60.5683309 36.0151531,60.8160963 35.9767457,61.0593432 C35.9722272,61.0902198 35.9684617,61.1203432 35.9631901,61.1504667 C35.5655605,63.4345778 33.5736469,65.1772198 31.178079,65.1772198 C29.0415728,65.1772198 27.2273877,63.7900346 26.5759679,61.8711704 L6.34580741,50.1923062 C4.33958519,49.0340593 3.10452346,46.8930346 3.10452346,44.5780469 L3.10452346,24.9066765 C3.85384444,25.1604667 4.65286914,25.3043062 5.48804198,25.3043062 C6.23736296,25.3043062 6.96032593,25.1905901 7.64262222,24.9842444 L7.64262222,44.5780469 C7.64262222,45.2701333 8.01464691,45.9147753 8.61560988,46.2611951 L27.4872025,57.1568494 C28.3796099,56.1153309 29.7012765,55.4518617 31.178079,55.4518617 C32.7844123,55.4518617 34.2062395,56.2373309 35.0926222,57.441516 C35.108437,57.4633556 35.1250049,57.484442 35.1408198,57.5062815 C35.2025728,57.5943926 35.2613136,57.6840099 35.3177951,57.7766395 C35.3396346,57.8120346 35.3614741,57.8466765 35.3825605,57.8828247 C35.4322642,57.9679235 35.4782025,58.0552815 35.5226346,58.1433926 C35.5467333,58.190837 35.5693259,58.2382815 35.5911654,58.286479 C35.6295728,58.3685654 35.6649679,58.4514049 35.6988568,58.5357506 C35.7229556,58.5959975 35.744042,58.6562444 35.7658815,58.7172444 C35.7929926,58.7940593 35.8193506,58.8716272 35.8419432,58.9499481 C35.8645358,59.0252568 35.8811037,59.1005654 35.8999309,59.175121 C35.9172519,59.2459111 35.9353259,59.3159481 35.9488815,59.3874914 C35.9677086,59.4816272 35.979758,59.576516 35.9933136,59.672158 C36.0000914,59.7301457 36.0113877,59.785121 36.0166593,59.8423556 C36.0309679,59.9982444 36.0400049,60.1548864 36.0400049,60.3145407 L36.0400049,60.3145407 Z M60.919721,17.8487506 C60.919721,19.307479 60.2720667,20.614837 59.2508815,21.5064914 L59.2508815,44.5780469 C59.2508815,46.8930346 58.0165728,49.0340593 56.0095975,50.1923062 L38.629116,60.2264296 C38.6095358,58.5847012 38.0545111,57.0732568 37.1342395,55.8487383 L53.7405481,46.2611951 C54.340758,45.9147753 54.7127827,45.2701333 54.7127827,44.5780469 L54.7127827,22.5178864 C52.684721,21.9334914 51.195116,20.0635778 51.195116,17.8487506 C51.195116,16.7703309 51.5528321,15.7762568 52.1492765,14.9697012 C52.1575605,14.9568988 52.1673506,14.9440963 52.1771407,14.9312938 C52.2893506,14.7821827 52.4098444,14.6383432 52.5386222,14.5027877 L52.5559432,14.4839605 C52.8225358,14.2060716 53.120758,13.9620716 53.4460914,13.7534667 C53.4799802,13.7316272 53.5153753,13.7120469 53.5500173,13.6902074 C53.6787951,13.6133926 53.8105852,13.5403432 53.9461407,13.4748247 C53.9860543,13.4559975 54.0259679,13.4356642 54.0666346,13.4175901 C54.236079,13.3407753 54.4107951,13.2699852 54.5907827,13.2142568 C54.5915358,13.2142568 54.5915358,13.2142568 54.5915358,13.2135037 C55.054684,13.0666519 55.5464494,12.9860716 56.0577951,12.9860716 C58.7395358,12.9860716 60.919721,15.1670099 60.919721,17.8487506 L60.919721,17.8487506 Z M3.10452346,22.0826025 C1.6269679,21.2474296 0.625362963,19.6636889 0.625362963,17.8487506 C0.625362963,15.1670099 2.80630123,12.9860716 5.48804198,12.9860716 C6.18314074,12.9860716 6.84284444,13.1359358 7.44154815,13.399516 L27.936042,1.56702222 C28.9384,0.987898765 30.0589926,0.69871358 31.1773259,0.69871358 C32.2971654,0.69871358 33.4170049,0.987898765 34.419363,1.56702222 L51.9022642,11.6613926 C50.6159926,12.5289481 49.6196593,13.7896148 49.0729185,15.2664173 L32.1503136,5.49738025 C31.8551037,5.32642963 31.5184741,5.23681235 31.1773259,5.23681235 C30.8369309,5.23681235 30.5010543,5.32642963 30.2050914,5.49738025 L10.2724,17.0060469 C10.3205975,17.2801704 10.3499679,17.5603185 10.3499679,17.8487506 C10.3499679,19.9408247 9.0192642,21.7233802 7.16215309,22.4079358 C7.14784444,22.4132074 7.13278272,22.4192321 7.11922716,22.4237506 C6.97086914,22.4757136 6.82251111,22.5216519 6.66963457,22.5600593 C6.63875802,22.5675901 6.60863457,22.5766272 6.57775802,22.5826519 C6.43768395,22.6150346 6.29459753,22.6406395 6.15075802,22.6609728 C6.11159753,22.6662444 6.07319012,22.6737753 6.03327654,22.6782938 C5.85404198,22.6986272 5.67254815,22.7114296 5.48804198,22.7114296 C5.28998025,22.7114296 5.09493086,22.6956148 4.90214074,22.6722691 C4.85093086,22.6662444 4.80047407,22.6572074 4.74851111,22.6489235 C4.60090617,22.6263309 4.45631358,22.5977136 4.31247407,22.5615654 C4.26879506,22.5502691 4.22436296,22.540479 4.17993086,22.5276765 C3.8011284,22.4207383 3.4404,22.2723802 3.10452346,22.0826025 L3.10452346,22.0826025 Z" id="Fill-2"></path>
            <path d="M44.3413461,40.8887655 L16.5273827,40.8887655 L16.5273827,28.5436844 C16.5273827,27.1297258 17.6777515,25.9784841 19.0917102,25.9784841 C20.5065417,25.9784841 21.6577833,27.1297258 21.6577833,28.5436844 L21.6577833,35.4520072 C21.6577833,36.0525032 22.1439407,36.5395334 22.7453095,36.5395334 L38.1242921,36.5395334 C38.7239153,36.5395334 39.2109455,36.0525032 39.2109455,35.4520072 L39.2109455,28.5436844 C39.2109455,27.1297258 40.3613143,25.9784841 41.7761458,25.9784841 C43.1909773,25.9784841 44.3413461,27.1297258 44.3413461,28.5436844 L44.3413461,40.8887655 Z M22.9486752,20.1157925 L37.462699,20.1157925 C38.9307722,20.1157925 40.1239089,21.3089293 40.1239089,22.7770024 L40.1239089,24.1071709 C38.3241665,24.7801105 37.0367658,26.5126463 37.0367658,28.5436844 L37.0367658,34.3653537 L23.831963,34.3653537 L23.831963,28.5436844 C23.831963,26.3441932 22.3228676,24.4947003 20.2874653,23.9631566 L20.2874653,22.7770024 C20.2874653,21.3089293 21.4814749,20.1157925 22.9486752,20.1157925 L22.9486752,20.1157925 Z M42.2980886,23.8348529 L42.2980886,22.7770024 C42.2980886,20.1105556 40.1291458,17.9407401 37.462699,17.9407401 L22.9486752,17.9407401 C20.2831013,17.9407401 18.1132857,20.1105556 18.1132857,22.7770024 L18.1132857,23.9072965 C15.9679089,24.3594141 14.353203,26.2665127 14.353203,28.5436844 L14.353203,41.9762917 C14.353203,42.5767878 14.8393604,43.0629452 15.4407293,43.0629452 L18.4414638,43.0629452 L18.2354797,45.9877448 L20.4035496,46.1413601 L20.6208803,43.0629452 L39.7913668,43.0629452 L40.0078246,46.1413601 L42.1767674,45.9877448 L41.9707833,43.0629452 L45.4288723,43.0629452 C46.0302412,43.0629452 46.5163986,42.5767878 46.5163986,41.9762917 L46.5163986,28.5436844 C46.5155258,26.1067878 44.6669057,24.0958243 42.2980886,23.8348529 L42.2980886,23.8348529 Z" id="Fill-1" stroke="#E873FF" stroke-width="0.5"></path>
        </g>
        <path d="M74.493,64.022 L74.493,64.175 C74.493,66.776 76.941,68.255 80.12,68.255 C83.146,68.255 85.39,66.895 85.39,64.311 C85.39,61.4870571 82.4381894,60.3796563 80.5864324,59.726486 L79.980413,59.514433 C78.72872,59.06905 78.233,58.8013 78.233,58.327 C78.233,57.885 78.692,57.426 79.848,57.426 C81.225,57.426 81.888,58.191 81.888,58.837 L81.888,58.956 L85.203,58.956 L85.203,58.769 C85.203,56.134 82.874,54.485 79.78,54.485 C76.754,54.485 74.595,56.066 74.595,58.599 C74.595,61.175 77.0495882,62.2300588 79.0958166,62.9263633 L79.474,63.053 C81.072,63.597 81.735,63.937 81.735,64.498 C81.735,64.889 81.327,65.314 80.052,65.314 C78.505,65.314 77.808,64.617 77.808,64.107 L77.808,64.022 L74.493,64.022 Z M87.435428,61.37 C87.435428,65.161 90.648428,68.255 94.473428,68.255 C98.349428,68.255 101.511428,65.161 101.511428,61.37 C101.511428,57.579 98.349428,54.485 94.473428,54.485 C90.648428,54.485 87.435428,57.579 87.435428,61.37 Z M90.869428,61.37 C90.869428,59.364 92.484428,57.766 94.473428,57.766 C96.513428,57.766 98.077428,59.364 98.077428,61.37 C98.077428,63.376 96.513428,64.974 94.473428,64.974 C92.484428,64.974 90.869428,63.376 90.869428,61.37 Z M104.083856,68 L107.466856,68 L107.466856,63.461 L112.889856,63.461 L112.889856,60.384 L107.466856,60.384 L107.466856,58.038 L113.926856,58.038 L113.926856,54.74 L104.083856,54.74 L104.083856,68 Z M119.491284,54.74 L114.119284,68 L117.825284,68 L118.556284,66.062 L123.775284,66.062 L124.506284,68 L128.212284,68 L122.857284,54.74 L119.491284,54.74 Z M122.619284,62.985 L119.712284,62.985 L121.174284,59.092 L122.619284,62.985 Z" id="Sofa" fill="#050713" fill-rule="nonzero"></path>
        <path d="M78.565,41.821 L80.644,41.821 L80.644,42.063 C80.237,42.657 79.577,43.042 78.807,43.042 C77.509,43.042 76.475,42.008 76.475,40.71 C76.475,39.412 77.509,38.378 78.807,38.378 C79.555,38.378 80.215,38.719 80.644,39.258 L82.437,38.048 C81.612,36.97 80.281,36.255 78.807,36.255 C76.321,36.255 74.253,38.257 74.253,40.71 C74.253,43.163 76.321,45.165 78.807,45.165 C79.687,45.165 80.556,44.835 80.974,44.197 L80.974,45 L82.701,45 L82.701,39.995 L78.565,39.995 L78.565,41.821 Z M86.3105714,36.42 L86.3105714,45 L88.4995714,45 L88.4995714,42.701 L89.6215714,42.701 L91.2495714,45 L93.8785714,45 L92.0195714,42.404 C93.1745714,41.876 93.7135714,40.754 93.7135714,39.555 C93.7135714,37.85 92.7015714,36.42 90.5015714,36.42 L86.3105714,36.42 Z M90.3805714,38.422 C91.2605714,38.422 91.5905714,38.917 91.5905714,39.577 C91.5905714,40.171 91.2605714,40.71 90.3805714,40.71 L88.4995714,40.71 L88.4995714,38.422 L90.3805714,38.422 Z M99.8861429,36.42 L96.4101429,45 L98.8081429,45 L99.2811429,43.746 L102.658143,43.746 L103.131143,45 L105.529143,45 L102.064143,36.42 L99.8861429,36.42 Z M101.910143,41.755 L100.029143,41.755 L100.975143,39.236 L101.910143,41.755 Z M108.687714,45 L110.887714,45 L110.887714,43.053 L112.471714,43.053 C114.748714,43.053 115.837714,41.524 115.837714,39.709 C115.837714,37.982 114.748714,36.42 112.471714,36.42 L108.687714,36.42 L108.687714,45 Z M112.350714,38.422 C113.274714,38.422 113.615714,39.038 113.615714,39.72 C113.615714,40.479 113.274714,41.051 112.350714,41.051 L110.887714,41.051 L110.887714,38.422 L112.350714,38.422 Z M124.870286,36.42 L124.870286,39.753 L121.372286,39.753 L121.372286,36.42 L119.183286,36.42 L119.183286,45 L121.372286,45 L121.372286,41.81 L124.870286,41.81 L124.870286,45 L127.070286,45 L127.070286,36.42 L124.870286,36.42 Z M130.481857,40.71 C130.481857,42.91 132.153857,44.758 134.287857,45.099 C135.772857,45.594 136.773857,47.134 138.500857,47.134 C139.281857,47.134 140.282857,46.815 140.898857,45.968 L139.237857,44.626 C139.006857,44.978 138.610857,45.011 138.489857,45.011 C138.115857,45.011 137.763857,44.813 137.367857,44.538 C138.698857,43.757 139.589857,42.338 139.589857,40.71 C139.589857,38.257 137.543857,36.255 135.035857,36.255 C132.560857,36.255 130.481857,38.257 130.481857,40.71 Z M132.703857,40.71 C132.703857,39.412 133.748857,38.378 135.035857,38.378 C136.355857,38.378 137.367857,39.412 137.367857,40.71 C137.367857,42.008 136.355857,43.042 135.035857,43.042 C133.748857,43.042 132.703857,42.008 132.703857,40.71 Z M143.012429,45 L143.012429,36.42 L145.201429,36.42 L145.201429,42.877 L149.315429,42.877 L149.315429,45 L143.012429,45 Z" id="GraphQL" fill="#6D7A99" fill-rule="nonzero"></path>
    </g>
</svg>