<svg xmlns="http://www.w3.org/2000/svg" role="img" xmlns:xlink="http://www.w3.org/1999/xlink" viewBox="-7.48 79.52 415.22 76.97"><style>svg {enable-background:new 0 0 400 245}</style><defs><path id="a" d="M.6 87.6H400v61H.6z"/></defs><defs><path id="c" d="M.6 92c0-2.4 2-4.3 4.4-4.3h56.5c2.4 0 4.4 1.9 4.4 4.3v52.3c0 2.4-2 4.3-4.4 4.3H5c-2.4 0-4.4-1.9-4.4-4.3V92z"/></defs><defs><path id="e" d="M.7-240.9H400v389.5H.7z"/></defs><clipPath id="b"><use overflow="visible" xlink:href="#a"/></clipPath><clipPath id="d" clip-path="url(#b)"><use overflow="visible" xlink:href="#c"/></clipPath><clipPath id="f" clip-path="url(#d)"><use overflow="visible" xlink:href="#e"/></clipPath><path fill="#008ff9" d="M-4.3 82.7h75v70.8h-75z" clip-path="url(#f)"/><defs><path id="g" d="M.6 87.6H400v61H.6z"/></defs><defs><path id="i" d="M52.8 104.2l7.6 13.6-8 13.8-15.6.3-7.6-13.6 8-13.9 15.6-.2z"/></defs><clipPath id="h"><use overflow="visible" xlink:href="#g"/></clipPath><clipPath id="j" clip-path="url(#h)"><use overflow="visible" xlink:href="#i"/></clipPath><path fill="#008ff9" d="M23.9 99.8h41.8v36.6H23.9z" clip-path="url(#j)" transform="rotate(-60 44.778 118.04)"/><defs><path id="k" d="M.7 87.6H400v61H.7z"/></defs><clipPath id="l"><use overflow="visible" xlink:href="#k"/></clipPath><path fill="none" stroke="#fff" stroke-miterlimit="10" stroke-width="4.346" d="M52.8 104.2l7.6 13.6-8 13.8-15.6.3-7.6-13.6 8-13.9 15.6-.2z" clip-path="url(#l)"/><defs><path id="m" d="M45.2 92.9h19.7v52.3H45.2z"/></defs><clipPath id="n"><use overflow="visible" xlink:href="#m"/></clipPath><path fill="#008ff9" d="M40.3 88h29.6v62.1H40.3z" clip-path="url(#n)"/><defs><path id="o" d="M.6 87.6H400v61H.6z"/></defs><defs><path id="q" d="M49.7 108.7c2.5 0 4.5-2.1 4.5-4.6 0-2.5-2-4.6-4.5-4.6s-4.5 2.1-4.5 4.6c0 2.5 2 4.6 4.5 4.6z"/></defs><clipPath id="p"><use overflow="visible" xlink:href="#o"/></clipPath><clipPath id="r" clip-path="url(#p)"><use overflow="visible" xlink:href="#q"/></clipPath><path fill="#008ff9" d="M41.1 95.4h17v17.3h-17z" clip-path="url(#r)"/><defs><path id="s" d="M.6 87.6H400v61H.6z"/></defs><defs><path id="u" d="M33.3 87.6h32.8v33H33.3v-33zm16.4 20.2c2 0 3.6-1.7 3.6-3.7 0-2.1-1.6-3.7-3.6-3.7s-3.6 1.7-3.6 3.7 1.6 3.7 3.6 3.7z"/></defs><clipPath id="t"><use overflow="visible" xlink:href="#s"/></clipPath><clipPath id="v" clip-path="url(#t)"><use overflow="visible" xlink:href="#u"/></clipPath><path fill="none" stroke="#fff" stroke-miterlimit="10" stroke-width="6.953" d="M49.7 107.8c2 0 3.6-1.7 3.6-3.7s-1.6-3.7-3.6-3.7-3.6 1.7-3.6 3.7 1.6 3.7 3.6 3.7h0z" clip-path="url(#v)"/><g><defs><path id="w" d="M.6 87.6H400v61H.6z"/></defs><defs><path id="y" d="M49.7 137.1c2.5 0 4.5-2.1 4.5-4.6s-2-4.6-4.5-4.6-4.5 2.1-4.5 4.6 2 4.6 4.5 4.6z"/></defs><clipPath id="x"><use overflow="visible" xlink:href="#w"/></clipPath><clipPath id="z" clip-path="url(#x)"><use overflow="visible" xlink:href="#y"/></clipPath><path fill="#008ff9" d="M41.1 123.8h17v17.3h-17z" clip-path="url(#z)"/></g><g><defs><path id="A" d="M.6 87.6H400v61H.6z"/></defs><defs><path id="C" d="M33.3 116h32.8v33H33.3v-33zm16.4 20.2c2 0 3.6-1.7 3.6-3.7s-1.6-3.7-3.6-3.7-3.6 1.7-3.6 3.7 1.6 3.7 3.6 3.7z"/></defs><defs><path id="E" d="M.7-240.9H400v389.5H.7z"/></defs><clipPath id="B"><use overflow="visible" xlink:href="#A"/></clipPath><clipPath id="D" clip-path="url(#B)"><use overflow="visible" xlink:href="#C"/></clipPath><clipPath id="F" clip-path="url(#D)"><use overflow="visible" xlink:href="#E"/></clipPath><path fill="none" stroke="#fff" stroke-miterlimit="10" stroke-width="6.953" d="M49.7 136.2c2 0 3.6-1.7 3.6-3.7s-1.6-3.7-3.6-3.7-3.6 1.7-3.6 3.7 1.6 3.7 3.6 3.7h0z" clip-path="url(#F)"/></g><g><defs><path id="G" d="M.6 87.6H400v61H.6z"/></defs><defs><path id="I" d="M16.4 123.9c2.5 0 4.5-2.1 4.5-4.6 0-2.5-2-4.6-4.5-4.6s-4.5 2.1-4.5 4.6c0 2.5 2 4.6 4.5 4.6z"/></defs><clipPath id="H"><use overflow="visible" xlink:href="#G"/></clipPath><clipPath id="J" clip-path="url(#H)"><use overflow="visible" xlink:href="#I"/></clipPath><path fill="#008ff9" d="M7.9 110.6h17v17.3h-17z" clip-path="url(#J)"/></g><g><defs><path id="K" d="M.6 87.6H400v61H.6z"/></defs><defs><path id="M" d="M0 102.7h32.8v33H0v-33zM16.4 123c2 0 3.6-1.7 3.6-3.7 0-2.1-1.6-3.7-3.6-3.7s-3.6 1.7-3.6 3.7 1.6 3.7 3.6 3.7z"/></defs><defs><path id="O" d="M.7-240.9H400v389.5H.7z"/></defs><clipPath id="L"><use overflow="visible" xlink:href="#K"/></clipPath><clipPath id="N" clip-path="url(#L)"><use overflow="visible" xlink:href="#M"/></clipPath><clipPath id="P" clip-path="url(#N)"><use overflow="visible" xlink:href="#O"/></clipPath><path fill="none" stroke="#fff" stroke-miterlimit="10" stroke-width="6.953" d="M16.4 123c2 0 3.6-1.7 3.6-3.7 0-2.1-1.6-3.7-3.6-3.7s-3.6 1.7-3.6 3.7 1.6 3.7 3.6 3.7h0z" clip-path="url(#P)"/></g><g><defs><path id="Q" d="M20.1 116.5h9.6v4.3h-9.6z"/></defs><clipPath id="R"><use overflow="visible" xlink:href="#Q"/></clipPath><path fill="#fff" d="M15.2 111.6h19.4v14.1H15.2z" clip-path="url(#R)"/></g><g><defs><path id="S" d="M.6 87.6H400v61H.6z"/></defs><defs><path id="U" d="M109.2 130c0 3.6-1.3 6.4-3.8 8.2-2.5 1.9-6.2 2.8-11.2 2.8-2.6 0-4.7-.2-6.5-.5-1.8-.3-3.5-.9-5.1-1.5v-7.9c1.8.8 3.8 1.5 6 2.1 2.2.6 4.2.8 5.9.8 3.5 0 5.2-1 5.2-3 0-.8-.2-1.4-.7-1.8-.5-.5-1.3-1-2.4-1.6-1.1-.6-2.6-1.3-4.5-2.1-2.7-1.1-4.7-2.2-6-3.1s-2.2-2.1-2.8-3.3c-.6-1.2-.9-2.8-.9-4.6 0-3.1 1.2-5.5 3.6-7.3 2.4-1.7 5.8-2.6 10.3-2.6 4.2 0 8.3.9 12.3 2.8l-2.9 6.9c-1.8-.8-3.4-1.4-4.9-1.9-1.5-.5-3.1-.7-4.7-.7-2.8 0-4.2.8-4.2 2.3 0 .9.5 1.6 1.4 2.2.9.6 2.9 1.6 6 2.8 2.7 1.1 4.8 2.2 6 3.1 1.3 1 2.2 2.1 2.8 3.3.8 1.3 1.1 2.8 1.1 4.6zm19.2 3.4c1.7 0 3.7-.4 6-1.1v7.1c-2.4 1.1-5.3 1.6-8.8 1.6-3.8 0-6.6-1-8.4-2.9-1.7-1.9-2.6-4.9-2.6-8.7v-17H110v-4.1l5.3-3.2 2.8-7.4h6.1v7.5h9.8v7.2h-9.8v17c0 1.4.4 2.4 1.1 3 .8.7 1.8 1 3.1 1zm33.3 7l-1.9-4.8h-.3c-1.6 2-3.3 3.4-5 4.2-1.7.8-3.9 1.2-6.7 1.2-3.4 0-6-1-8-2.9-1.9-1.9-2.9-4.7-2.9-8.2 0-3.7 1.3-6.5 3.9-8.3 2.6-1.8 6.5-2.8 11.8-2.9l6.1-.2V117c0-3.6-1.8-5.4-5.5-5.4-2.8 0-6.1.8-9.9 2.5l-3.2-6.5c4-2.1 8.5-3.2 13.4-3.2 4.7 0 8.3 1 10.8 3.1s3.8 5.2 3.8 9.4v23.5h-6.4zm-2.9-16.3l-3.7.1c-2.8.1-4.9.6-6.2 1.5-1.4.9-2 2.3-2 4.2 0 2.7 1.5 4.1 4.6 4.1 2.2 0 4-.6 5.3-1.9 1.3-1.3 2-3 2-5.1v-2.9zm28.8 17c-10.9 0-16.4-6-16.4-18 0-6 1.5-10.6 4.5-13.7 3-3.2 7.2-4.7 12.8-4.7 4.1 0 7.7.8 10.9 2.4l-2.8 7.4c-1.5-.6-2.9-1.1-4.2-1.5-1.3-.4-2.6-.6-3.9-.6-5 0-7.5 3.5-7.5 10.6 0 6.9 2.5 10.3 7.5 10.3 1.8 0 3.5-.2 5.1-.7 1.6-.5 3.1-1.3 4.7-2.3v8.2c-1.5 1-3.1 1.7-4.7 2-1.6.4-3.6.6-6 .6zm25-19.8l4.2-5.4 9.8-10.7h10.8l-13.9 15.3 14.8 19.9h-11.1l-10.1-14.3-4.1 3.3v11h-9.6V94.5h9.1l.1 26.8h-.1.1zm54.1 8.7c0 3.6-1.3 6.4-3.8 8.2-2.5 1.9-6.2 2.8-11.2 2.8-2.6 0-4.7-.2-6.5-.5-1.8-.3-3.5-.9-5.1-1.5v-7.9c1.8.8 3.8 1.5 6 2.1 2.2.6 4.2.8 5.9.8 3.5 0 5.2-1 5.2-3 0-.8-.2-1.4-.7-1.8-.5-.5-1.3-1-2.4-1.6-1.1-.6-2.6-1.3-4.5-2.1-2.7-1.1-4.7-2.2-6-3.1-1.3-1-2.2-2.1-2.8-3.3-.6-1.2-.9-2.8-.9-4.6 0-3.1 1.2-5.5 3.6-7.3 2.4-1.7 5.8-2.6 10.3-2.6 4.2 0 8.3.9 12.3 2.8l-2.9 6.9c-1.8-.8-3.4-1.4-4.9-1.9-1.5-.5-3.1-.7-4.7-.7-2.8 0-4.2.8-4.2 2.3 0 .9.5 1.6 1.4 2.2.9.6 2.9 1.6 6 2.8 2.7 1.1 4.8 2.2 6 3.1 1.3 1 2.2 2.1 2.8 3.3s1.1 2.8 1.1 4.6zm36.8 10.4H294v-20.6c0-5.1-1.9-7.6-5.7-7.6-2.7 0-4.6.9-5.8 2.7-1.2 1.8-1.8 4.8-1.8 8.9v16.6h-9.6V94.5h9.6l-.1 6.9c0 .8-.1 2.6-.2 5.5l-.2 2.8h.5c2.1-3.4 5.5-5.2 10.2-5.2 4.1 0 7.3 1.1 9.4 3.3 2.1 2.2 3.2 5.4 3.2 9.6v23zm28.3 0l-1.9-4.8h-.3c-1.6 2-3.3 3.4-5 4.2-1.7.8-3.9 1.2-6.7 1.2-3.4 0-6-1-8-2.9-1.9-1.9-2.9-4.7-2.9-8.2 0-3.7 1.3-6.5 3.9-8.3 2.6-1.8 6.5-2.8 11.8-2.9l6.1-.2V117c0-3.6-1.8-5.4-5.5-5.4-2.8 0-6.1.8-9.9 2.5l-3.2-6.5c4-2.1 8.5-3.2 13.4-3.2 4.7 0 8.3 1 10.8 3.1s3.8 5.2 3.8 9.4v23.5h-6.4zm-2.8-16.3l-3.7.1c-2.8.1-4.9.6-6.2 1.5-1.4.9-2 2.3-2 4.2 0 2.7 1.5 4.1 4.6 4.1 2.2 0 4-.6 5.3-1.9 1.3-1.3 2-3 2-5.1v-2.9zm34.1-19.5c1.3 0 2.4.1 3.2.3l-.7 9c-.8-.2-1.7-.3-2.8-.3-3.1 0-5.4.8-7.1 2.4-1.7 1.6-2.6 3.8-2.6 6.6v17.9h-9.6v-35.2h7.3l1.4 5.9h.5c1.1-2 2.6-3.6 4.4-4.8 1.8-1.2 3.8-1.8 6-1.8zm21.1 6.8c-2 0-3.6.6-4.8 1.9-1.2 1.3-1.8 3.1-2 5.5h13.4c0-2.4-.7-4.2-1.9-5.5-1.1-1.2-2.7-1.9-4.7-1.9zm-11.9 25c-3.2-3.1-4.8-7.6-4.8-13.3 0-5.9 1.5-10.5 4.4-13.7 2.9-3.2 7-4.8 12.2-4.8 5 0 8.8 1.4 11.6 4.2 2.8 2.8 4.1 6.7 4.1 11.7v4.7h-22.6c.1 2.7.9 4.9 2.4 6.4s3.6 2.3 6.3 2.3c2.1 0 4.1-.2 6-.7 1.9-.4 3.9-1.1 5.9-2.1v7.4c-1.7.8-3.5 1.5-5.4 1.9-1.9.4-4.2.6-7 .6-5.5.1-9.9-1.5-13.1-4.6z"/></defs><clipPath id="T"><use overflow="visible" xlink:href="#S"/></clipPath><clipPath id="V" clip-path="url(#T)"><use overflow="visible" xlink:href="#U"/></clipPath><path d="M77.6 89.6h327.1V146H77.6z" clip-path="url(#V)"/></g><g><defs><path id="W" d="M277 94.5h3.9v17.7H277z"/></defs><clipPath id="X"><use overflow="visible" xlink:href="#W"/></clipPath><path d="M272.1 89.6h13.8v27.5h-13.8z" clip-path="url(#X)"/></g></svg>