<svg xmlns="http://www.w3.org/2000/svg" viewBox="0 0 1252.7 145.1">
  <path d="M406.8 70.2c-7.6-6.8-19.1-11.5-34-14l-7.4-1.2c-21.2-3.5-22.9-6.9-22.9-10.3 0-6.6 7.9-10.8 20.2-10.8 11.8 0 23.4 3.5 34.5 10.4.8.5 1.7.7 2.6.7 1.7 0 3.4-.9 4.2-2.4l12.3-21.3c1.3-2.3.6-5.3-1.7-6.6C397.7 4.5 381.5 0 362.1 0c-15.3 0-29.3 4.1-39.4 11.4-11.5 8.4-17.6 20.5-17.6 34.9 0 12.6 4.4 22.7 13 30 7.3 6.2 17.5 10.2 31 12.3l8.3 1.3c19.8 3.1 23.6 6.2 23.6 10.5 0 7.5-10.8 10.9-20.8 10.9-16.5 0-30.8-6.7-38.6-13-.9-.7-1.9-1.1-3-1.1-1.7 0-3.2.8-4.1 2.2l-13.6 21c-1.4 2.1-.9 4.9 1 6.4 14.1 11.4 35.9 18.2 58.2 18.2 15.6 0 29.9-4 40.2-11.4 12-8.5 18.3-21 18.3-36.1 0-11.1-4-20.3-11.8-27.3zM571.5.8h-26.2c-2.7 0-4.9 2.2-4.9 4.9v78.8c0 17.3-8.5 26.1-25.3 26.1s-25.3-8.8-25.3-26.1V5.6c0-2.7-2.2-4.9-4.9-4.9h-26.2c-2.7 0-4.9 2.2-4.9 4.9v80.1c0 18.7 6 34 17.3 44.4 10.7 9.8 25.9 15 44 15s33.3-5.2 44-15c11.3-10.4 17.3-25.7 17.3-44.4V5.6c-.1-2.7-2.2-4.8-4.9-4.8zm136.2 12C698.5 4.8 685.2.5 669.1.5h-53.3c-2.7 0-4.9 2.2-4.9 4.9V140c0 2.7 2.2 4.9 4.9 4.9h26.1c2.7 0 4.9-2.2 4.9-4.9V94.2c0-.5.4-.9.9-.9h21.7c16 0 29.3-4.2 38.4-12.2 9.2-8.1 14.1-19.8 14.1-34-.1-14.3-4.9-26.2-14.2-34.3zm-60.9 22.4c0-.5.4-.9.9-.9h21.1c11.7 0 16.7 3.8 16.7 12.7s-5 12.7-16.7 12.7h-21.1c-.5 0-.9-.4-.9-.9V35.2zm206-22.4C843.6 4.8 830.3.5 814.2.5H761c-2.7 0-4.9 2.2-4.9 4.9V140c0 2.7 2.2 4.9 4.9 4.9h26c2.7 0 4.9-2.2 4.9-4.9V94.2c0-.5.4-.9.9-.9h21.7c16 0 29.3-4.2 38.4-12.2 9.2-8.1 14.1-19.8 14.1-34-.1-14.3-4.9-26.2-14.2-34.3zm-60.9 22.4c0-.5.4-.9.9-.9h21.1c11.7 0 16.7 3.8 16.7 12.7s-5 12.7-16.7 12.7h-21.1c-.5 0-.9-.4-.9-.9V35.2zm209.3 75.5h-63.4c-.5 0-.9-.4-.9-.9V5.4c0-2.7-2.2-4.9-4.9-4.9h-26c-2.7 0-4.9 2.2-4.9 4.9V140c0 2.7 2.2 4.9 4.9 4.9h95.2c2.7 0 4.9-2.2 4.9-4.9v-24.4c0-2.7-2.2-4.9-4.9-4.9zM1141.6 3.1c-.9-1.6-2.5-2.5-4.3-2.5h-29.8c-1.7 0-3.3.9-4.2 2.4l-28 47.2c-.2.4-.6.4-.7.4s-.5-.1-.7-.4l-28-47.2c-.9-1.5-2.5-2.4-4.2-2.4H1011c-1.8 0-3.4 1-4.3 2.5-.9 1.6-.8 3.5.2 5l49.6 77.8c.1.1.1.3.1.5V140c0 2.7 2.2 4.9 4.9 4.9h26.1c2.7 0 4.9-2.2 4.9-4.9V86.4c0-.2 0-.3.1-.5L1141.5 8c.9-1.5 1-3.4.1-4.9zm-6.9 137.9c0 2.1-1.8 3.8-3.8 3.8-2.1 0-3.8-1.8-3.8-3.8 0-2.1 1.8-3.8 3.8-3.8 2.1 0 3.8 1.8 3.8 3.8zm36.2-17.8l-2.7 1.6c-.5.3-1.2.2-1.6-.3-1.6-1.9-3.8-2.9-6.5-2.9-5 0-8.7 3.7-8.7 9 0 5.5 3.8 9 8.7 9 2.7 0 4.9-1 6.5-2.9.4-.5 1.1-.6 1.7-.2l2.5 1.8c.6.4.7 1.3.2 1.8-2.5 3-6.3 4.8-10.8 4.8-8.5 0-14.5-6-14.5-14.3s6-14.3 14.5-14.3c4.6 0 8.7 1.9 11.1 5.1.4.5.2 1.4-.4 1.8zm40.5 7.4c0 8.2-6 14.3-14.5 14.3s-14.5-6.1-14.5-14.3c0-8.2 6-14.3 14.5-14.3s14.5 6.1 14.5 14.3zm-23.3 0c0 5.4 3.7 9 8.8 9 5.1 0 8.8-3.7 8.8-9s-3.7-9-8.8-9c-5.1 0-8.8 3.6-8.8 9zm63.4 13.8h-3c-.7 0-1.2-.6-1.2-1.2v-19.6l-6.5 17.4c-.2.5-.6.8-1.2.8h-4.1c-.5 0-1-.3-1.2-.8l-6.5-17.2v19.4c0 .7-.6 1.2-1.2 1.2h-3c-.7 0-1.2-.6-1.2-1.2V118c0-.7.6-1.2 1.2-1.2h6c.5 0 1 .3 1.2.8l6.9 17.8 6.9-17.8c.2-.5.6-.8 1.2-.8h6c.7 0 1.2.6 1.2 1.2v25.1c-.3.7-.8 1.3-1.5 1.3z" fill="#222"/>
  <path fill="#228848" d="M238.6 145.1h22.9c2.2 0 4-1.8 4-4V78.3c0-1.4-.8-2.7-2-3.4L135.9 1.6c-1-.6-2.1-.8-3.2-.8s-2.2.3-3.2.8L2 74.8c-1.2.7-2 2-2 3.4v62.9c0 2.2 1.8 4 4 4h22.9c2.2 0 4-1.8 4-4V91.8c0-1.4.8-2.7 2-3.4l97.9-56.5c.6-.4 1.3-.5 2-.5s1.4.2 2 .5l97.9 56.5c1.2.7 2 2 2 3.4v49.4c-.1 2.2 1.7 3.9 3.9 3.9z"/>
  <path fill="#228848" d="M136.4 66.4c-1.1-.6-2.4-.9-3.7-.9-1.3 0-2.6.3-3.7.9l-65.4 35.4c-1.3.7-2.1 2-2.1 3.5v35.9c0 2.2 1.8 4 4 4h134.4c2.2 0 4-1.8 4-4v-35.9c0-1.5-.8-2.8-2.1-3.5l-65.4-35.4z"/>
</svg>
