<?xml version="1.0" encoding="UTF-8"?>
<svg width="280px" height="67px" viewBox="0 0 280 67" version="1.1" xmlns="http://www.w3.org/2000/svg" xmlns:xlink="http://www.w3.org/1999/xlink">
    <title>Swapcard logo</title>
    <g id="Digital" stroke="none" stroke-width="1" fill="none" fill-rule="evenodd">
        <g id="logo-300-FINAL" transform="translate(-10.000000, -16.000000)">
            <g id="Logo" transform="translate(10.000000, 16.000000)">
                <path d="M272.817067,18.8785333 L272.817067,20.2496 C272.205733,19.7362667 271.572933,19.2892 270.921467,18.8785333 C268.468667,17.3394667 265.692,16.4948 262.622267,16.3884 C262.4048,16.3790667 262.188267,16.3753333 261.9736,16.3753333 C260.945067,16.3753333 259.942667,16.4705333 258.975733,16.6450667 C256.9644,17.0090667 255.0828,17.7604 253.342133,18.8785333 C252.2464,19.5804 251.203867,20.4110667 250.221067,21.4050667 C246.782667,24.8453333 245.0392,29.0397333 245.0392,33.8744 C245.0392,38.5354667 246.648267,42.5945333 249.817867,45.9368 C252.392,48.6481333 255.467333,50.3048 258.975733,50.918 C259.829733,51.0636 260.704267,51.1728 261.616133,51.1952 C261.8336,51.2064 262.0576,51.2092 262.283467,51.2092 C266.7224,51.2092 270.704933,49.5404 274.1144,46.2382667 C277.6396,42.7709333 279.3644,38.5868 279.251467,33.8156 L279.251467,18.8785333 L279.251467,1.18066667 C279.251467,0.5292 278.7232,0 278.0708,0 L273.997733,0 C273.346267,0 272.817067,0.528266667 272.817067,1.18066667 L272.817067,18.8785333 L272.817067,18.8785333 Z M269.5476,41.6061333 C267.544667,43.7462667 265.192667,44.7869333 262.341333,44.7869333 C262.157467,44.7869333 261.9624,44.7813333 261.7468,44.7701333 C260.764,44.7337333 259.846533,44.5769333 258.975733,44.2997333 C257.292933,43.7752 255.8024,42.7998667 254.484533,41.3466667 C252.466667,39.1412 251.474533,36.5213333 251.527733,33.5664 C251.576267,30.5442667 252.619733,28.0541333 254.709467,25.9578667 C255.9872,24.6801333 257.4124,23.7981333 258.975733,23.2978667 C259.966933,22.9824 261.006667,22.82 262.100533,22.82 L262.3068,22.8218667 C265.189867,22.8218667 267.554933,23.8410667 269.5588,25.9354667 C271.628933,28.112 272.663067,30.5890667 272.709733,33.5374667 C272.808667,36.6445333 271.7792,39.2746667 269.5476,41.6061333 L269.5476,41.6061333 Z" id="Shape" fill="#00CC88"></path>
                <path d="M249.41,19.0624 C249.5444,18.942 249.612533,18.7646667 249.593867,18.5845333 C249.5752,18.4044 249.472533,18.2457333 249.316667,18.1542667 C247.400533,17.038 245.174533,16.3958667 242.802,16.3958667 C240.3212,16.3958667 238,17.0968 236.026,18.3092 L236.026,17.5765333 C236.026,16.9250667 235.497733,16.3958667 234.845333,16.3958667 L230.995333,16.3958667 C230.343867,16.3958667 229.814667,16.9241333 229.814667,17.5765333 L229.814667,29.3813333 L229.814667,49.938 C229.814667,50.5894667 230.342933,51.1186667 230.995333,51.1186667 L234.845333,51.1186667 C235.4968,51.1186667 236.026,50.5904 236.026,49.938 L236.026,29.3813333 C236.026,25.6452 239.065867,22.6062667 242.802,22.6062667 C243.713867,22.6062667 244.581867,22.7873333 245.376133,23.1149333 C245.6244,23.2176 245.908133,23.1317333 246.0584,22.9086667 C246.790133,21.826 247.639467,20.7928 248.6148,19.8174667 C248.871467,19.558 249.1384,19.3069333 249.41,19.0624 L249.41,19.0624 Z" id="Shape" fill="#00CC88"></path>
                <path d="M225.964667,33.8184 C226.141067,29.2152 224.570267,25.1654667 221.296133,21.7746667 C218.090133,18.3913333 214.088,16.5862667 209.4092,16.4117333 C204.541867,16.2278667 200.367067,17.9069333 196.9604,21.3714667 C193.526667,24.808 191.7776,28.9996 191.7776,33.8305333 C191.7776,38.4430667 193.403467,42.5012 196.612267,45.8892 C199.789333,49.2333333 203.7336,51.0150667 208.348,51.1942667 C208.561733,51.2008 208.7652,51.2054667 208.9752,51.2054667 C212.996933,51.2054667 216.555733,49.8913333 219.5956,47.3004 L219.5956,50.0248 C219.5956,50.6762667 220.123867,51.2054667 220.776267,51.2054667 L224.784933,51.2054667 C225.4364,51.2054667 225.9656,50.6772 225.9656,50.0248 L225.9656,33.992 L225.9656,33.8184 L225.964667,33.8184 Z M216.261733,41.5930667 C214.209333,43.7350667 211.849867,44.7776 209.0284,44.7776 C208.8492,44.7776 208.659733,44.7645333 208.475867,44.7561333 C205.572267,44.6105333 203.185733,43.4765333 201.194933,41.2869333 C199.196667,39.0917333 198.244667,36.5456 198.296,33.516 C198.344533,30.492 199.387067,27.9981333 201.4852,25.9074667 C203.592667,23.8018667 206.075333,22.7742667 209.072267,22.7742667 C211.946933,22.7742667 214.316667,23.7953333 216.313067,25.8897333 C218.3888,28.0606667 219.414533,30.5377333 219.468667,33.46 C219.5172,36.6296 218.4672,39.2821333 216.261733,41.5930667 L216.261733,41.5930667 Z" id="Shape" fill="#00CC88"></path>
                <g id="Group" transform="translate(116.666667, 15.866667)">
                    <path d="M1.11906667,28.8586667 C0.981866667,28.6524 0.723333333,28.5618667 0.4844,28.6328 C0.245466667,28.7037333 0.0830666667,28.9230667 0.0830666667,29.1704 L0.0830666667,49.7914667 C0.0830666667,50.4401333 0.611333333,50.9656 1.26466667,50.9656 L5.68493333,50.9656 C6.33733333,50.9656 6.86653333,50.4410667 6.86653333,49.7914667 L6.86653333,35.1334667 C6.86653333,34.7489333 6.67706667,34.3877333 6.3588,34.1674667 C4.29333333,32.7450667 2.5116,30.94 1.11906667,28.8586667 L1.11906667,28.8586667 Z" id="Shape" fill="#262F3D"></path>
                    <path d="M63.8241333,12.4908 C61.9378667,9.40986667 58.5274667,7.34813333 54.6401333,7.34813333 C51.9932,7.34813333 49.4517333,8.3104 47.4814667,10.0622667 C47.1128,10.3889333 46.7628,10.7454667 46.4426667,11.1216 L31.5289333,28.5870667 C30.8634667,29.4494667 30.1177333,30.2549333 29.2898667,30.9913333 C26.0754667,33.8482667 21.9258667,35.4209333 17.6092,35.4209333 C7.94546667,35.4209333 0.084,27.6136 0.084,18.0161333 C0.084,8.41866667 7.94546667,0.611333333 17.6092,0.611333333 C22.7752,0.611333333 27.6537333,2.8588 30.9932,6.77786667 L34.5128,10.9106667 C34.6910667,11.1206667 34.6910667,11.4268 34.5128,11.6358667 L30.8056,15.9777333 C30.6992,16.1037333 30.5405333,16.1765333 30.3744,16.1746667 C30.2082667,16.1746667 30.0496,16.1037333 29.9422667,15.9758667 L25.8178667,11.1356 L25.8132,11.13 C23.7645333,8.72573333 20.7750667,7.3472 17.6082667,7.3472 C11.6853333,7.3472 6.8656,12.1324 6.8656,18.0152 C6.8656,23.898 11.6853333,28.6832 17.6082667,28.6832 C20.2542667,28.6832 22.7966667,27.7190667 24.7650667,25.9690667 C24.9676,25.7908 42.3584,5.572 42.9576,5.04 C46.1729333,2.18306667 50.3216,0.6104 54.6392,0.6104 C61.9593333,0.6104 68.2425333,5.0932 70.8614667,11.4370667 C71.0098667,11.8001333 70.9678667,12.2117333 70.7485333,12.5365333 C70.5301333,12.8613333 70.1614667,13.0564 69.7676,13.0564 L64.834,13.0564 C64.4205333,13.0554667 64.0369333,12.8417333 63.8241333,12.4908 Z" id="Shape" fill="#332F3D"></path>
                    <path d="M54.6401333,35.4209333 C49.4741333,35.4209333 44.5956,33.1716 41.2561333,29.2525333 L41.2561333,29.2525333 L41.2561333,29.2525333 L37.7178667,25.102 C37.5405333,24.892 37.5405333,24.5858667 37.7188,24.3768 L41.426,20.0349333 C41.5333333,19.9089333 41.6910667,19.8361333 41.8581333,19.838 C42.0242667,19.838 42.182,19.9089333 42.2884,20.0368 L46.4352,24.9022667 C48.482,27.3046667 51.4733333,28.6850667 54.6401333,28.6850667 C58.5274667,28.6850667 61.9369333,26.6214667 63.8241333,23.5405333 C64.0378667,23.1905333 64.4224,22.9758667 64.834,22.9758667 L69.7685333,22.9758667 C70.1624,22.9758667 70.5301333,23.1709333 70.7494667,23.4957333 C70.9697333,23.8224 71.0108,24.234 70.8624,24.5952 C68.2434667,30.9381333 61.9602667,35.4209333 54.6401333,35.4209333 L54.6401333,35.4209333 Z" id="Shape" fill="#00CC88"></path>
                </g>
                <path d="M113.095733,33.8184 C113.2712,29.2152 111.6976,25.1654667 108.4272,21.7746667 C105.2156,18.3876 101.2144,16.5844 96.5346667,16.4117333 C91.6822667,16.2278667 87.4962667,17.9069333 84.0896,21.3714667 C80.6530667,24.808 78.9105333,28.9996 78.9105333,33.8305333 C78.9105333,38.4430667 80.5364,42.5012 83.7414667,45.8892 C86.9148,49.2333333 90.8609333,51.0150667 95.4753333,51.1942667 C95.6872,51.2008 95.8962667,51.2054667 96.1062667,51.2054667 C100.123333,51.2054667 103.683067,49.8913333 106.722933,47.3004 L106.722933,50.0248 C106.722933,50.6762667 107.2512,51.2054667 107.9036,51.2054667 L111.917867,51.2054667 C112.569333,51.2054667 113.098533,50.6772 113.098533,50.0248 L113.098533,33.992 L113.095733,33.8184 L113.095733,33.8184 Z M96.2173333,22.7808 C99.0957333,22.7808 101.465467,23.8018667 103.460933,25.8962667 C105.532933,28.0690667 106.566133,30.5442667 106.611867,33.4665333 C106.665067,36.6361333 105.616933,39.2886667 103.407733,41.5986667 C101.361867,43.7425333 98.9968,44.7850667 96.1809333,44.7850667 C95.9989333,44.7850667 95.8113333,44.7794667 95.6284,44.7654667 C92.7192,44.6198667 90.3345333,43.4821333 88.3428,41.2944 C86.3398667,39.0992 85.3925333,36.5530667 85.4457333,33.5234667 C85.4942667,30.4994667 86.5377333,28.0093333 88.6312,25.9149333 C90.7396,23.8093333 93.2241333,22.7808 96.2173333,22.7808 L96.2173333,22.7808 Z" id="Shape" fill="#262F3D"></path>
                <path d="M70.1372,16.3968 C69.4857333,16.3968 68.9565333,16.9250667 68.9565333,17.5774667 L68.9565333,38.1341333 C68.9565333,41.8693333 65.9176,44.9092 62.1814667,44.9092 C58.4453333,44.9092 55.4064,41.8693333 55.4064,38.1341333 L55.4064,17.5774667 C55.4064,16.926 54.8781333,16.3968 54.2257333,16.3968 L50.3757333,16.3968 C49.7242667,16.3968 49.1950667,16.9250667 49.1950667,17.5774667 L49.1950667,38.1341333 C49.1950667,41.8693333 46.1552,44.9092 42.4190667,44.9092 C38.6838667,44.9092 35.6430667,41.8693333 35.6430667,38.1341333 L35.6430667,17.5774667 C35.6430667,16.926 35.1148,16.3968 34.4624,16.3968 L30.6133333,16.3968 C29.9618667,16.3968 29.4326667,16.9250667 29.4326667,17.5774667 L29.4326667,38.1341333 C29.4326667,45.2946667 35.2576,51.1196 42.4181333,51.1196 C46.3708,51.1196 49.9146667,49.3425333 52.2984,46.5472 C54.6830667,49.3425333 58.2269333,51.1196 62.1796,51.1196 C69.3401333,51.1196 75.1650667,45.2946667 75.1650667,38.1341333 L75.1650667,17.5774667 C75.1650667,16.926 74.6368,16.3968 73.9844,16.3968 L70.1372,16.3968 L70.1372,16.3968 Z" id="Shape" fill="#262F3D"></path>
                <path d="M20.3690667,32.6704 C16.7328,30.786 14.1446667,30.7169333 11.0506667,29.8676 C7.7868,28.9716 6.15813333,27.9337333 6.51653333,25.4370667 C6.90293333,22.7444 9.16813333,21.602 12.418,21.6244 C17.4916,21.6589333 18.732,24.3721333 19.0316,25.8570667 C19.1417333,26.4077333 19.6252,26.8044 20.1861333,26.8044 L24.7930667,26.8053333 C25.0254667,26.8053333 25.2466667,26.7054667 25.4006667,26.53 C25.5537333,26.3545333 25.6237333,26.1221333 25.5938667,25.8906667 C25.2616,23.3538667 23.3622667,16.4098667 12.5514667,16.4192 C1.59506667,16.4285333 -0.0457333333,23.1392 0.000933333333,26.4870667 C0.0728,31.7650667 5.22666667,34.0582667 6.8712,34.6686667 C8.41493333,35.238 13.8152,36.4793333 14.966,36.8853333 C18.9998667,38.3077333 19.2117333,40.1902667 19.1753333,41.3224 C19.1958667,43.9777333 16.8494667,45.822 12.8454667,45.6073333 C8.28613333,45.3609333 7.05133333,41.6257333 6.72,39.816 C6.61826667,39.256 6.13013333,38.8490667 5.56173333,38.8481333 L1.34026667,38.8462667 C0.998666667,38.8462667 0.672933333,38.9946667 0.448933333,39.2532 C0.224,39.5117333 0.121333333,39.8561333 0.169866667,40.1949333 C0.395733333,41.7638667 0.994,44.3893333 2.56666667,46.3568 C4.91306667,49.2902667 7.168,51.1102667 13.5912,51.1102667 C21.1512,51.1102667 24.892,47.1193333 25.5845333,42.6104 C26.1044,39.2196 25.1272,35.1362667 20.3690667,32.6704 L20.3690667,32.6704 Z" id="Shape" fill="#262F3D"></path>
            </g>
        </g>
    </g>
</svg>