<svg width="180" height="90" viewBox="0 0 180 90" fill="none" xmlns="http://www.w3.org/2000/svg">
<path d="M46.1241 27C60.6264 37.0476 55.9358 48.112 55.9358 48.112C55.9358 48.112 60.0593 52.8468 58.4001 57C58.4001 57 56.6954 54.1028 53.8496 54.1028C51.1017 54.1028 49.4881 57 43.9434 57C31.6219 57 25.7937 46.5171 25.7937 46.5171C36.89 53.9707 44.4649 48.6901 44.4649 48.6901C39.4593 45.725 28.8251 31.5885 28.8251 31.5885C38.0942 39.6237 42.0952 41.7324 42.0952 41.7324C39.7009 39.7236 32.9941 29.8972 32.9941 29.8972C38.3602 35.4313 49.012 43.1346 49.012 43.1346C52.0539 34.6177 46.1241 27 46.1241 27Z" fill="url(#paint0_linear_653_2905)"/>
<path fill-rule="evenodd" clip-rule="evenodd" d="M18.7937 25.675C19.5216 25.675 20.2132 25.8306 20.837 26.1103L39.9376 15.125C40.8376 14.625 41.9376 14.325 42.9376 14.325C44.0376 14.325 45.0376 14.625 45.9376 15.125L62.3376 24.625C61.1376 25.425 60.2376 26.6249 59.6376 28.0249L43.7375 18.825C43.4376 18.625 43.1377 18.625 42.8378 18.625H42.8376C42.5376 18.625 42.2376 18.725 41.9376 18.825L23.6162 29.35C23.7319 29.772 23.7937 30.2163 23.7937 30.675C23.7937 33.4365 21.5551 35.675 18.7937 35.675C16.0323 35.675 13.7937 33.4365 13.7937 30.675C13.7937 27.9136 16.0323 25.675 18.7937 25.675ZM65.0375 35.3578C63.1424 34.6468 61.7937 32.8184 61.7937 30.675C61.7937 27.9135 64.0323 25.675 66.7937 25.675C69.5551 25.675 71.7937 27.9135 71.7937 30.675C71.7937 32.5075 70.8079 34.1098 69.3376 34.9804V55.5249C69.3376 57.7249 68.1376 59.725 66.3376 60.825L49.9376 70.225C49.9376 68.725 49.4375 67.225 48.5375 66.125L64.1376 57.125C64.7376 56.825 65.0375 56.2249 65.0375 55.5249V35.3578ZM47.6376 69.4305C47.7395 69.8284 47.7937 70.2454 47.7937 70.675C47.7937 73.4365 45.5551 75.675 42.7937 75.675C40.3039 75.675 38.2391 73.8552 37.857 71.473L19.6376 60.9249C17.7376 59.8249 16.6376 57.825 16.6376 55.625V37.125C17.3376 37.325 18.1376 37.5249 18.8376 37.5249C19.5376 37.5249 20.2376 37.425 20.8376 37.225V55.625C20.8376 56.325 21.2375 56.925 21.7375 57.225L39.12 67.2833C40.0335 66.2943 41.3413 65.675 42.7937 65.675C45.1228 65.675 47.0799 67.2675 47.6357 69.423L47.6373 69.4247L47.6376 69.4249V69.4305Z" fill="url(#paint1_linear_653_2905)"/>
<path d="M84.7938 41.1381V41.3451C84.7938 44.8641 88.1058 46.8651 92.4068 46.8651C96.5008 46.8651 99.5368 45.0251 99.5368 41.5291C99.5368 37.5961 95.3048 36.1241 92.8208 35.2501C90.6818 34.5141 89.8538 34.1461 89.8538 33.4331C89.8538 32.8351 90.4748 32.2141 92.0388 32.2141C93.9018 32.2141 94.7988 33.2491 94.7988 34.1231V34.2841H99.2838V34.0311C99.2838 30.4661 96.1328 28.2351 91.9468 28.2351C87.8528 28.2351 84.9318 30.3741 84.9318 33.8011C84.9318 37.5041 88.6808 38.8841 91.5328 39.8271C93.6948 40.5631 94.5918 41.0231 94.5918 41.7821C94.5918 42.3111 94.0398 42.8861 92.3148 42.8861C90.2218 42.8861 89.2788 41.9431 89.2788 41.2531V41.1381H84.7938Z" fill="#0B0D11"/>
<path d="M110.038 46.5201L113.442 36.1011L116.869 46.5201H121.63L126.667 28.5801H121.745L118.847 39.2521L115.489 28.5801H111.395L108.037 39.2751L105.139 28.5801H100.24L105.277 46.5201H110.038Z" fill="#0B0D11"/>
<path d="M128.312 28.5801V46.5201H132.912V28.5801H128.312Z" fill="#0B0D11"/>
<path d="M135.958 46.5201H140.535V40.3791H147.872V36.2161H140.535V33.0421H149.275V28.5801H135.958V46.5201Z" fill="#0B0D11"/>
<path d="M150.428 33.0421H156.017V46.5201H160.617V33.0421H166.206V28.5801H150.428V33.0421Z" fill="#0B0D11"/>
<path fill-rule="evenodd" clip-rule="evenodd" d="M133.094 51.865C135.394 51.865 137.194 53.665 137.194 55.865C137.194 57.365 136.394 58.565 135.194 59.365C135.277 59.4067 135.356 59.4485 135.432 59.4884C135.719 59.6398 135.956 59.765 136.194 59.765H136.194C136.294 59.765 136.694 59.765 136.894 59.4651L138.394 60.665C137.794 61.465 136.894 61.765 136.194 61.765C135.24 61.765 134.535 61.2672 133.845 60.7805C133.378 60.451 132.919 60.1266 132.394 59.9651C130.494 59.6651 128.994 57.9651 128.994 55.9651C128.994 53.6651 130.794 51.865 133.094 51.865ZM133.094 57.9651C134.294 57.9651 135.194 57.065 135.194 55.865C135.194 54.665 134.294 53.765 133.094 53.765C131.894 53.765 130.994 54.665 130.994 55.865C130.994 57.065 131.894 57.9651 133.094 57.9651ZM88.7938 55.265H92.4938V59.765H90.8938V59.0651C90.4938 59.6651 89.6938 59.9651 88.8938 59.9651C86.6938 59.9651 84.7938 58.1651 84.7938 55.9651C84.7938 53.7651 86.6938 51.9651 88.8938 51.9651C90.1938 51.9651 91.3938 52.5651 92.1938 53.5651L90.5938 54.665C90.1938 54.165 89.5938 53.865 88.8938 53.865C87.6938 53.865 86.7938 54.7651 86.7938 55.9651C86.7938 57.1651 87.6938 58.0651 88.8938 58.0651C89.5938 58.0651 90.1938 57.765 90.5938 57.165V56.9651H88.7938V55.265ZM98.194 52.0652C100.194 52.0652 101.094 53.3651 101.094 54.8651C101.094 55.9651 100.594 56.9652 99.5939 57.4652L101.294 59.7651H98.8939L97.3939 57.6652H96.3939V59.7651H94.3939V52.0652H98.194ZM96.3939 53.9652V55.9652H98.0939C98.8939 55.9652 99.194 55.4652 99.194 54.9652C99.194 54.3652 98.8939 53.9652 98.0939 53.9652H96.3939ZM110.494 59.7651L107.394 52.0652H105.394L102.294 59.7651H104.494L104.894 58.6652H107.894L108.294 59.7651H110.494ZM105.494 56.8651L106.394 54.5652L107.194 56.8651H105.494ZM111.994 52.0652H115.394C117.494 52.0652 118.394 53.4652 118.394 55.0652C118.394 56.6652 117.394 58.0652 115.394 58.0652H113.994V59.8651H111.994V52.0652ZM113.994 53.8651V56.2651H115.294C116.094 56.2651 116.394 55.7652 116.394 55.0652C116.394 54.4652 116.094 53.8651 115.294 53.8651H113.994ZM127.294 59.7651V52.0652H125.294V55.0652H122.094V52.0652H120.094V59.7651H122.094V56.8651H125.294V59.7651H127.294ZM140.894 52.0652H138.894V59.7651H144.594V57.8651H140.894V52.0652Z" fill="#7F818C"/>
<defs>
<linearGradient id="paint0_linear_653_2905" x1="38.7937" y1="39.5" x2="60.2937" y2="57" gradientUnits="userSpaceOnUse">
<stop stop-color="#F25C40"/>
<stop offset="1" stop-color="#FF9E57"/>
</linearGradient>
<linearGradient id="paint1_linear_653_2905" x1="36.6422" y1="39.8875" x2="78.8231" y2="69.3952" gradientUnits="userSpaceOnUse">
<stop stop-color="#F25C40"/>
<stop offset="1" stop-color="#FF9E57"/>
</linearGradient>
</defs>
</svg>
