<svg width="513" height="512" viewBox="0 0 513 512" fill="none" xmlns="http://www.w3.org/2000/svg">
<g clip-path="url(#clip0_1657_92674)">
<rect width="512" height="512" transform="translate(0.5)" fill="#FDEA2E"/>
<g clip-path="url(#clip1_1657_92674)">
<path d="M468.111 -13.3252V818.469" stroke="#D1C710" stroke-width="0.5" stroke-linecap="round" stroke-linejoin="round"/>
<path d="M415.111 -13.3252V818.469" stroke="#D1C710" stroke-width="0.5" stroke-linecap="round" stroke-linejoin="round"/>
<path d="M362.111 -13.3252V818.469" stroke="#D1C710" stroke-width="0.5" stroke-linecap="round" stroke-linejoin="round"/>
<path d="M309.111 -13.3252V818.469" stroke="#D1C710" stroke-width="0.5" stroke-linecap="round" stroke-linejoin="round"/>
<path d="M256.111 -13.3252V818.469" stroke="#D1C710" stroke-width="0.5" stroke-linecap="round" stroke-linejoin="round"/>
<path d="M203.111 -13.3252V818.469" stroke="#D1C710" stroke-width="0.5" stroke-linecap="round" stroke-linejoin="round"/>
<path d="M150.111 -13.3252V818.469" stroke="#D1C710" stroke-width="0.5" stroke-linecap="round" stroke-linejoin="round"/>
<path d="M97.1113 -13.3252V818.469" stroke="#D1C710" stroke-width="0.5" stroke-linecap="round" stroke-linejoin="round"/>
<path d="M44.1113 -13.3252V818.469" stroke="#D1C710" stroke-width="0.5" stroke-linecap="round" stroke-linejoin="round"/>
<path d="M-606.451 51.6953H1120.1" stroke="#D1C710" stroke-width="0.5" stroke-linecap="round" stroke-linejoin="round"/>
<path d="M-606.451 105.509H1120.1" stroke="#D1C710" stroke-width="0.5" stroke-linecap="round" stroke-linejoin="round"/>
<path d="M-606.451 159.325H1120.1" stroke="#D1C710" stroke-width="0.5" stroke-linecap="round" stroke-linejoin="round"/>
<path d="M-606.451 213.138H1120.1" stroke="#D1C710" stroke-width="0.5" stroke-linecap="round" stroke-linejoin="round"/>
<path d="M-606.451 266.954H1120.1" stroke="#D1C710" stroke-width="0.5" stroke-linecap="round" stroke-linejoin="round"/>
<path d="M-606.451 320.767H1120.1" stroke="#D1C710" stroke-width="0.5" stroke-linecap="round" stroke-linejoin="round"/>
<path d="M-606.451 374.583H1120.1" stroke="#D1C710" stroke-width="0.5" stroke-linecap="round" stroke-linejoin="round"/>
<path d="M-606.451 428.396H1120.1" stroke="#D1C710" stroke-width="0.5" stroke-linecap="round" stroke-linejoin="round"/>
<path d="M-606.451 482.212H1120.1" stroke="#D1C710" stroke-width="0.5" stroke-linecap="round" stroke-linejoin="round"/>
</g>
<path fill-rule="evenodd" clip-rule="evenodd" d="M351.737 148.75H161.263C137.88 148.75 121.973 148.785 110.061 150.415C98.6156 151.981 93.3144 154.743 89.7064 158.415C86.0984 162.088 83.3853 167.484 81.8465 179.134C80.245 191.258 80.2105 207.449 80.2105 231.25V280.75C80.2105 304.551 80.245 320.742 81.8465 332.866C83.3853 344.516 86.0984 349.912 89.7064 353.585C93.3144 357.257 98.6156 360.019 110.061 361.585C121.973 363.215 137.88 363.25 161.263 363.25H351.737C375.12 363.25 391.027 363.215 402.939 361.585C414.384 360.019 419.686 357.257 423.294 353.585C426.902 349.912 429.615 344.516 431.154 332.866C432.755 320.742 432.789 304.551 432.789 280.75V231.25C432.789 207.449 432.755 191.258 431.154 179.134C429.615 167.484 426.902 162.088 423.294 158.415C419.686 154.743 414.384 151.981 402.939 150.415C391.027 148.785 375.12 148.75 351.737 148.75ZM78.2439 146.748C64 161.246 64 184.581 64 231.25V280.75C64 327.419 64 350.754 78.2439 365.252C92.4877 379.75 115.413 379.75 161.263 379.75H351.737C397.587 379.75 420.512 379.75 434.756 365.252C449 350.754 449 327.419 449 280.75V231.25C449 184.581 449 161.246 434.756 146.748C420.512 132.25 397.587 132.25 351.737 132.25H161.263C115.413 132.25 92.4877 132.25 78.2439 146.748Z" fill="#121315"/>
<path fill-rule="evenodd" clip-rule="evenodd" d="M162.515 197.461C166.3 193.608 172.437 193.608 176.222 197.461L226.88 249.024C230.665 252.877 230.665 259.123 226.88 262.976L176.222 314.539C172.437 318.392 166.3 318.392 162.515 314.539C158.729 310.686 158.729 304.439 162.515 300.586L206.319 256L162.515 211.414C158.729 207.561 158.729 201.314 162.515 197.461Z" fill="#121315"/>
<path d="M254.972 307.856C254.972 302.387 259.328 297.952 264.702 297.952H347.958C353.362 297.952 357.744 302.412 357.744 307.914C357.744 313.415 353.362 317.875 347.958 317.875H306.358L264.676 317.76C259.312 317.745 254.972 313.316 254.972 307.856Z" fill="#121315"/>
</g>
<defs>
<clipPath id="clip0_1657_92674">
<rect width="512" height="512" fill="white" transform="translate(0.5)"/>
</clipPath>
<clipPath id="clip1_1657_92674">
<rect width="1728" height="540" fill="white" transform="translate(-607.5 -14)"/>
</clipPath>
</defs>
</svg>
