<svg width="256" height="257" viewBox="0 0 256 257" fill="none" xmlns="http://www.w3.org/2000/svg">
<path fill-rule="evenodd" clip-rule="evenodd" d="M83.7333 100.306H33.6C27.4454 100.306 23.2587 100.315 20.1234 100.737C17.1109 101.142 15.7157 101.856 14.766 102.806C13.8164 103.755 13.1023 105.15 12.6972 108.163C12.2757 111.298 12.2667 115.485 12.2667 121.639V134.439C12.2667 140.594 12.2757 144.781 12.6972 147.916C13.1023 150.929 13.8164 152.324 14.766 153.273C15.7157 154.223 17.1109 154.937 20.1234 155.342C23.2587 155.764 27.4454 155.773 33.6 155.773H83.7333C89.8879 155.773 94.0746 155.764 97.2098 155.342C100.222 154.937 101.618 154.223 102.567 153.273C103.517 152.324 104.231 150.929 104.636 147.916C105.058 144.781 105.067 140.594 105.067 134.439V121.639C105.067 115.485 105.058 111.298 104.636 108.163C104.231 105.15 103.517 103.755 102.567 102.806C101.618 101.856 100.222 101.142 97.2098 100.737C94.0746 100.315 89.8879 100.306 83.7333 100.306ZM11.749 99.7885C8 103.538 8 109.572 8 121.639V134.439C8 146.507 8 152.541 11.749 156.29C15.4981 160.039 21.532 160.039 33.6 160.039H83.7333C95.8012 160.039 101.835 160.039 105.584 156.29C109.333 152.541 109.333 146.507 109.333 134.439V121.639C109.333 109.572 109.333 103.538 105.584 99.7885C101.835 96.0395 95.8012 96.0395 83.7333 96.0395H33.6C21.532 96.0395 15.4981 96.0395 11.749 99.7885Z" fill="#121315"/>
<path fill-rule="evenodd" clip-rule="evenodd" d="M33.9294 112.902C34.9257 111.906 36.541 111.906 37.5373 112.902L50.8706 126.236C51.8669 127.232 51.8669 128.847 50.8706 129.843L37.5373 143.177C36.541 144.173 34.9257 144.173 33.9294 143.177C32.9331 142.18 32.9331 140.565 33.9294 139.569L45.4587 128.039L33.9294 116.51C32.9331 115.514 32.9331 113.898 33.9294 112.902Z" fill="#121315"/>
<path d="M58.2644 141.449C58.2644 140.034 59.411 138.888 60.8254 138.888H82.7386C84.1612 138.888 85.3144 140.041 85.3144 141.464C85.3144 142.886 84.1612 144.039 82.7386 144.039H71.7894L60.8185 144.01C59.4068 144.006 58.2644 142.861 58.2644 141.449Z" fill="#121315"/>
<path d="M128.35 143.719C126.886 143.719 125.692 143.271 124.766 142.375C123.87 141.45 123.422 140.225 123.422 138.702V126.158H117.867V121.499H123.422V114.599H129.067V121.499H135.159V126.158H129.067V137.716C129.067 138.612 129.485 139.06 130.321 139.06H134.622V143.719H128.35Z" fill="#121315"/>
<path d="M145.376 144.347C143.793 144.347 142.375 144.078 141.12 143.54C139.866 142.973 138.865 142.166 138.119 141.121C137.402 140.046 137.043 138.747 137.043 137.223C137.043 135.7 137.402 134.431 138.119 133.415C138.865 132.37 139.881 131.594 141.165 131.086C142.479 130.548 143.973 130.279 145.645 130.279H151.738V129.025C151.738 127.98 151.409 127.129 150.752 126.471C150.095 125.785 149.05 125.441 147.616 125.441C146.213 125.441 145.167 125.77 144.48 126.427C143.793 127.054 143.345 127.875 143.136 128.891L137.939 127.143C138.298 126.009 138.865 124.978 139.642 124.052C140.448 123.097 141.509 122.335 142.823 121.767C144.167 121.17 145.794 120.871 147.706 120.871C150.633 120.871 152.947 121.603 154.65 123.067C156.352 124.53 157.203 126.651 157.203 129.428V137.716C157.203 138.612 157.622 139.06 158.458 139.06H160.25V143.719H156.487C155.382 143.719 154.471 143.451 153.754 142.913C153.037 142.375 152.679 141.659 152.679 140.763V140.718H151.827C151.708 141.076 151.439 141.554 151.021 142.151C150.603 142.719 149.946 143.227 149.05 143.675C148.154 144.123 146.929 144.347 145.376 144.347ZM146.362 139.777C147.945 139.777 149.229 139.344 150.215 138.478C151.23 137.582 151.738 136.402 151.738 134.939V134.491H146.048C145.003 134.491 144.182 134.715 143.584 135.163C142.987 135.611 142.688 136.238 142.688 137.044C142.688 137.851 143.002 138.508 143.629 139.015C144.256 139.523 145.167 139.777 146.362 139.777Z" fill="#121315"/>
<path d="M162.585 143.719V121.499H168.23V143.719H162.585ZM165.407 118.9C164.392 118.9 163.526 118.572 162.809 117.915C162.122 117.258 161.779 116.391 161.779 115.316C161.779 114.241 162.122 113.375 162.809 112.718C163.526 112.061 164.392 111.732 165.407 111.732C166.453 111.732 167.319 112.061 168.006 112.718C168.693 113.375 169.036 114.241 169.036 115.316C169.036 116.391 168.693 117.258 168.006 117.915C167.319 118.572 166.453 118.9 165.407 118.9Z" fill="#121315"/>
<path d="M172.693 143.719V112.359H178.338V143.719H172.693Z" fill="#121315"/>
<path d="M193.239 144.347C191.089 144.347 189.133 143.899 187.371 143.003C185.638 142.107 184.264 140.807 183.249 139.105C182.234 137.403 181.726 135.342 181.726 132.923V132.295C181.726 129.876 182.234 127.815 183.249 126.113C184.264 124.411 185.638 123.111 187.371 122.215C189.133 121.319 191.089 120.871 193.239 120.871C195.36 120.871 197.182 121.245 198.705 121.991C200.228 122.738 201.453 123.769 202.379 125.083C203.334 126.367 203.962 127.83 204.26 129.473L198.795 130.638C198.675 129.742 198.406 128.935 197.988 128.219C197.57 127.502 196.973 126.934 196.196 126.516C195.45 126.098 194.509 125.889 193.374 125.889C192.239 125.889 191.208 126.143 190.283 126.651C189.387 127.129 188.67 127.86 188.132 128.846C187.624 129.802 187.371 130.981 187.371 132.385V132.833C187.371 134.237 187.624 135.431 188.132 136.417C188.67 137.373 189.387 138.105 190.283 138.612C191.208 139.09 192.239 139.329 193.374 139.329C195.076 139.329 196.36 138.896 197.227 138.03C198.123 137.134 198.69 135.969 198.929 134.535L204.395 135.835C204.006 137.418 203.334 138.866 202.379 140.18C201.453 141.465 200.228 142.48 198.705 143.227C197.182 143.973 195.36 144.347 193.239 144.347Z" fill="#121315"/>
<path d="M214.158 144.347C212.575 144.347 211.157 144.078 209.902 143.54C208.648 142.973 207.647 142.166 206.901 141.121C206.184 140.046 205.825 138.747 205.825 137.223C205.825 135.7 206.184 134.431 206.901 133.415C207.647 132.37 208.663 131.594 209.947 131.086C211.261 130.548 212.754 130.279 214.427 130.279H220.52V129.025C220.52 127.98 220.191 127.129 219.534 126.471C218.877 125.785 217.832 125.441 216.398 125.441C214.994 125.441 213.949 125.77 213.262 126.427C212.575 127.054 212.127 127.875 211.918 128.891L206.721 127.143C207.08 126.009 207.647 124.978 208.424 124.052C209.23 123.097 210.29 122.335 211.605 121.767C212.949 121.17 214.576 120.871 216.488 120.871C219.415 120.871 221.729 121.603 223.432 123.067C225.134 124.53 225.985 126.651 225.985 129.428V137.716C225.985 138.612 226.404 139.06 227.24 139.06H229.032V143.719H225.269C224.164 143.719 223.253 143.451 222.536 142.913C221.819 142.375 221.461 141.659 221.461 140.763V140.718H220.609C220.49 141.076 220.221 141.554 219.803 142.151C219.385 142.719 218.728 143.227 217.832 143.675C216.936 144.123 215.711 144.347 214.158 144.347ZM215.144 139.777C216.727 139.777 218.011 139.344 218.997 138.478C220.012 137.582 220.52 136.402 220.52 134.939V134.491H214.83C213.785 134.491 212.964 134.715 212.366 135.163C211.769 135.611 211.47 136.238 211.47 137.044C211.47 137.851 211.784 138.508 212.411 139.015C213.038 139.523 213.949 139.777 215.144 139.777Z" fill="#121315"/>
<path d="M231.367 143.719V112.359H237.012V143.719H231.367Z" fill="#121315"/>
<path d="M241.475 143.719V112.359H247.12V143.719H241.475Z" fill="#121315"/>
</svg>
