<?xml version="1.0" encoding="UTF-8"?>
<svg width="104px" height="104px" viewBox="0 0 104 104" version="1.1" xmlns="http://www.w3.org/2000/svg" xmlns:xlink="http://www.w3.org/1999/xlink">
    <!-- Generator: Sketch 52.6 (67491) - http://www.bohemiancoding.com/sketch -->
    <title>logos/Tartiflette</title>
    <desc>Created with Sketch.</desc>
    <g id="logos/Tartiflette" stroke="none" stroke-width="1" fill="none" fill-rule="evenodd">
        <g id="tartiflette" transform="translate(7.000000, 4.000000)" fill-rule="nonzero">
            <g id="Group-2">
                <g id="Group" fill="#252223">
                    <path d="M11.2,73.06 L11.2,32.74 L0,32.74 L0,21.54 L11.2,21.54 L11.2,0.68 L24.5,0.68 L24.5,21.54 L46.06,21.54 L46.06,32.74 L24.5,32.74 L24.5,71.1 C24.5,79.64 29.12,83.7 36.68,83.7 C39.9,83.7 42.84,83.28 46.06,82.3 L46.06,93.36 C42.56,94.48 38.36,95.18 33.46,95.18 C19.18,95.18 11.2,88.459 11.2,73.06 Z" id="Shape"></path>
                </g>
                <polygon id="Rectangle-path" fill="#FEDD2F" points="54 62 87.889 62 87.889 95.889 54 95.889"></polygon>
            </g>
        </g>
    </g>
</svg>