<svg xmlns="http://www.w3.org/2000/svg" xmlns:xlink="http://www.w3.org/1999/xlink" width="2369.692" height="1021.775" viewBox="0 0 2369.692 1021.775"><defs><path id="a" d="M0 29.602h1077.542v962.57H0z"/></defs><clipPath id="b"><use xlink:href="#a" overflow="visible"/></clipPath><path clip-path="url(#b)" fill="#DF1797" d="M1031.22 690.52V211.8c32.19-7.434 52.26-39.555 44.826-71.743-7.436-32.194-39.557-52.262-71.75-44.825-27.155 6.268-46.38 30.46-46.357 58.332 0 1.657 0 3.276.23 4.898l-83.038 26.572V147.66c32.162-7.45 52.193-39.57 44.742-71.734-7.45-32.162-39.566-52.198-71.732-44.742-23.176 5.367-40.96 23.97-45.29 47.362-107.454 8.408-207.462 40.228-264.08 151.037-56.62-110.81-156.59-142.706-264.044-151.037-5.98-32.49-37.176-53.982-69.668-48-32.49 5.986-53.98 37.177-47.994 69.668 4.316 23.437 22.13 42.074 45.345 47.447v37.374l-82.846-26.572c0-1.622.27-3.24.27-4.898.05-33.062-26.706-59.903-59.762-59.958C27.01 93.554.17 120.313.117 153.37c-.047 27.925 19.223 52.172 46.438 58.432v478.756c-32.164 7.466-52.19 39.586-44.73 71.752 7.46 32.16 39.58 52.182 71.744 44.725 15.383-3.57 28.728-13.078 37.125-26.457l368.22 143.248c-.447 2.818-.68 5.673-.694 8.52 1.68 33.018 29.804 58.427 62.823 56.747 30.665-1.56 55.18-26.07 56.74-56.746-.025-2.576-.222-5.152-.58-7.714l370.034-143.858c17.57 27.955 54.48 36.362 82.43 18.795 27.952-17.574 36.362-54.48 18.792-82.427-8.4-13.363-21.745-22.87-37.12-26.426l-.12-.197zM488.4 898.793L119.333 755.085c.23-2.087.35-4.18.35-6.282-.014-27.82-19.19-51.97-46.284-58.283V211.84c15.85-3.698 29.52-13.68 37.873-27.653l91.216 29.196v414.35c-32.182 7.472-52.21 39.623-44.734 71.804 7.48 32.182 39.627 52.204 71.81 44.73 20.553-4.768 37.067-20.02 43.466-40.128 96.423 15.427 198.785 69.92 249.196 170.435-13.78 3.736-25.776 12.27-33.827 24.067v.15zm42.656-608.58v545.483C472.28 743.13 370.65 692.14 275.114 677.254c-3.618-24.324-21.75-43.947-45.705-49.484V147.662c21.224-4.93 38.094-21 44.045-41.963 57.393 4.82 102.248 15.735 138.657 33.478 52.492 25.648 89.828 67.534 114.124 128.05l4.82 11.993v10.993zm15.43 28.35V279.22l4.82-11.994c24.297-60.515 61.71-102.4 114.163-128.05 36.37-17.74 81.265-28.656 138.618-33.478 5.947 20.963 22.817 37.034 44.046 41.963v480.07c-23.92 5.568-42.012 25.19-45.628 49.485-95.537 14.886-197.203 65.567-256.02 158.442V318.562zm457.736 371.994c-27.1 6.283-46.283 30.426-46.283 58.246 0 2.116 0 4.195.31 6.282L587.675 899.222c-7.695-11.556-19.16-20.09-32.438-24.15 50.14-100.86 152.928-155.467 249.426-170.895 10.034 31.473 43.688 48.86 75.165 38.825s48.858-43.684 38.82-75.164c-6.403-20.106-22.927-35.346-43.48-40.106v-414.35l91.255-29.195c8.332 13.964 21.992 23.936 37.835 27.614l-.038 478.757z"/><g><g fill="#202230"><path d="M1276.126 112.63h-59.46V79.425h162.164v33.205h-59.46v198.46h-43.244V112.63zM1491.572 311.09V204.91c0-23.94-6.95-32.433-22.008-32.433-15.06 0-27.414 15.058-29.73 30.502v108.11h-42.473V79.424l42.474-5.02v91.508c9.652-15.444 29.344-25.483 45.175-25.483 35.52 0 49.034 24.71 49.034 57.917V311.09h-42.472zM1629.794 314.95c-41.7 0-69.886-29.73-69.886-88.032 0-54.827 30.503-86.488 67.184-86.488 34.75 0 57.916 23.94 57.916 69.5 0 6.563-.772 18.147-1.93 22.394h-81.855c0 32.047 10.81 52.897 42.085 52.897 13.128 0 23.94-5.79 33.978-14.67l10.426 20.85c-13.516 13.512-30.89 23.55-57.918 23.55zm-1.93-147.88c-13.515 0-22.395 11.97-26.256 41.314h47.877c1.16-27.027-5.018-41.313-21.622-41.313zM1320.914 614.565c-55.6 0-96.14-41.314-96.14-119.308 0-77.993 43.243-118.92 99.615-118.92 28.57 0 50.192 7.72 64.865 17.76v36.68c-13.128-8.88-30.89-18.532-56.372-18.532-40.928 0-62.55 29.344-62.55 84.172 0 53.668 18.533 84.17 56.372 84.17 11.583 0 22.008-1.93 28.572-6.95v-49.42h-28.187v-30.89h69.886v100.39c-11.58 8.106-40.154 20.848-76.062 20.848zM1475.354 508.385V611.09h-42.473V445.835l39.385-4.633 1.544 27.027c7.335-15.445 23.938-27.8 46.72-27.8v40.54c-24.327-6.563-43.633 5.407-45.176 27.415zM1643.305 614.178c-16.216 0-26.64-6.178-30.116-21.236-16.218 16.217-28.96 22.01-46.334 22.01-21.236 0-37.066-16.217-37.066-40.543 0-38.997 36.294-61.392 82.24-66.025V492.17c0-13.9-7.335-21.237-23.552-21.237-13.514 0-35.52 7.722-49.422 16.603V455.49c11.197-6.18 35.522-15.445 57.53-15.445 30.89 0 56.758 11.197 56.758 47.877v97.685c0 6.178 2.316 9.268 6.95 9.268 1.93 0 4.247-.773 6.178-1.932v15.445c-3.09 2.702-14.286 5.79-23.167 5.79zm-31.275-82.24c-28.958 3.475-45.947 17.76-45.947 36.293 0 11.585 5.02 20.08 16.217 20.08 8.494 0 17.76-5.02 29.73-17.76v-38.612zM1774.195 614.952c-14.286 0-30.117-6.564-40.155-20.078v91.508h-42.472V445.835l39.383-4.633 1.16 22.008c11.196-16.603 27.8-22.78 42.085-22.78 35.52 0 60.232 30.116 60.232 87.26 0 57.144-24.71 87.262-60.232 87.262zm-10.81-144.792c-14.673 0-23.94 10.425-29.345 21.622v71.816c5.405 11.197 14.672 21.623 29.344 21.623 18.147 0 28.572-16.603 28.572-57.53s-10.425-57.53-28.572-57.53zM1954.89 611.09V504.91c0-23.938-6.95-32.434-22.008-32.434-15.06 0-27.414 15.06-29.73 30.503v108.11h-42.472V379.425l42.472-5.02v91.508c9.652-15.444 29.344-25.483 45.175-25.483 35.52 0 49.035 24.71 49.035 57.917V611.09h-42.472zM1320.914 945.827c-55.6 0-96.14-41.312-96.14-119.307s43.243-118.922 99.615-118.922c28.57 0 50.192 7.723 64.865 17.762v36.68c-13.128-8.88-30.89-18.533-56.372-18.533-40.928 0-62.55 29.344-62.55 84.172 0 53.67 18.533 84.17 56.372 84.17 11.583 0 22.008-1.93 28.572-6.948V855.48h-28.187v-30.89h69.886v100.387c-11.58 8.11-40.154 20.85-76.062 20.85zM1559.14 945.442c-17.762 0-29.73-7.336-32.048-25.484-10.04 16.604-28.958 26.256-46.333 26.256-35.137 0-48.265-24.71-48.265-57.916V775.553h42.472v106.18c0 23.94 6.564 32.434 21.622 32.434 16.216 0 27.413-15.06 30.116-30.502V775.553h42.472V916.87c0 6.178 2.316 9.266 6.563 9.266 2.704 0 4.635-.77 6.565-1.93v15.443c-3.088 2.702-14.285 5.792-23.166 5.792zM1628.25 751.23c-11.97 0-22.008-10.04-22.008-22.01 0-12.354 10.04-22.394 22.01-22.394 12.354 0 22.393 10.04 22.393 22.395 0 11.97-10.04 22.01-22.394 22.01zM1607.4 942.35V776.327l42.473-5.02v171.045H1607.4zM1808.945 945.442c-17.375 0-27.8-6.564-30.89-21.236-10.424 15.83-27.412 22.008-42.085 22.008-35.136 0-60.232-30.117-60.232-87.26 0-57.145 25.097-87.262 60.232-87.262 14.673 0 30.117 6.564 40.156 20.078v-81.082l42.472-5.02V916.87c0 6.178 2.316 9.266 6.95 9.266 2.316 0 4.633-.77 6.563-1.93v15.443c-3.087 2.702-14.284 5.792-23.165 5.792zm-32.818-122.397c-5.406-11.197-14.286-21.623-28.96-21.623-18.145 0-28.957 16.604-28.957 57.53s10.812 57.53 28.958 57.53c14.673 0 23.553-10.424 28.96-21.62v-71.817zM1919.758 946.213c-41.7 0-69.886-29.73-69.886-88.033 0-54.826 30.503-86.488 67.184-86.488 34.75 0 57.916 23.94 57.916 69.5 0 6.564-.772 18.146-1.93 22.395h-81.856c0 32.047 10.812 52.896 42.086 52.896 13.128 0 23.94-5.79 33.978-14.672l10.425 20.85c-13.515 13.514-30.89 23.553-57.917 23.553zm-1.93-147.88c-13.515 0-22.395 11.97-26.256 41.313h47.877c1.157-27.026-5.02-41.312-21.623-41.312z"/></g><path fill="#202230" d="M2112.342 647.444c-17.375.018-27.405 7.363-38.208 16.64l-16.23-14.655c5.01-9.272 21.207-29.368 37.414-39.423-40.94-12.314-68.392-51.672-68.454-116.152-.075-77.607 39.653-120.118 95.64-120.172 55.985-.054 95.795 42.38 95.87 119.986.07 72.202-33.868 113.163-83.67 119.774-8.88 1.168-17.37 4.65-25.086 10.836 53.662-7.773 75.71 33.518 107.757 33.486 14.672-.014 22-9.287 25.458-25.508l21.622-.02c.412 26.255-13.84 61.405-51.68 61.442-44.79.043-64.138-46.27-100.433-46.236zm60.47-153.73c-.056-57.144-17.072-86.086-50.278-86.054-33.205.032-50.165 29.007-50.11 86.15.057 57.145 17.072 86.086 50.277 86.053 33.207-.03 50.168-29.005 50.112-86.15z"/><path fill="#202230" d="M2246.91 377.933h43.245v198.46h77.607v33.205H2246.91V377.933z"/></g></svg>