<svg width="249" height="34" viewBox="0 0 249 34" fill="none" xmlns="http://www.w3.org/2000/svg">
<path fill-rule="evenodd" clip-rule="evenodd" d="M44.4027 8.35401V13.0259H51.8661V33.2818H57.3389V13.0259H64.7622V8.35401H44.4027ZM64.7622 33.2818V15.2303H69.6239V17.6587C70.9632 16.0889 73.2185 14.7807 75.517 14.7807V19.4165C75.0761 19.3311 74.627 19.2933 74.1776 19.3037C72.5689 19.3037 70.4259 20.2029 69.6239 21.3593V33.2834H64.7622V33.2818ZM90.4791 27.4521V21.0976C89.6755 19.9022 87.9159 19.0045 86.3086 19.0045C83.5145 19.0045 81.601 21.1352 81.601 24.2373C81.601 27.3784 83.5145 29.5061 86.3086 29.5061C87.9159 29.5061 89.6755 28.649 90.4791 27.4521ZM90.4791 33.2834V30.9662C89.0258 32.7586 87.0353 33.7314 84.7769 33.7314C80.1477 33.7314 76.5869 30.291 76.5869 24.2373C76.5869 18.37 80.0707 14.7807 84.7769 14.7807C86.9583 14.7807 88.9858 15.6784 90.4791 17.5474V15.2303H95.3761V33.2834H90.4791ZM104.601 33.2818L97.1773 15.2303H102.381L107.202 27.7889L112.062 15.2303H117.266L109.843 33.2818H104.601ZM131.006 27.4521V21.0976C130.202 19.9022 128.442 19.0045 126.835 19.0045C124.043 19.0045 122.128 21.1352 122.128 24.2373C122.128 27.3784 124.043 29.5061 126.835 29.5061C128.442 29.5061 130.202 28.649 131.007 27.4521H131.006ZM131.006 33.2834V30.9662C129.552 32.7586 127.562 33.7314 125.305 33.7314C120.674 33.7314 117.115 30.291 117.115 24.2373C117.115 18.37 120.597 14.7807 125.305 14.7807C127.485 14.7807 129.512 15.6784 131.006 17.5474V15.2303H135.904V33.2834H131.006ZM151.672 33.2818V31.0023C150.409 32.3481 148.189 33.7314 145.166 33.7314C141.109 33.7314 139.196 31.5616 139.196 28.0506V15.2303H144.056V26.1815C144.056 28.6851 145.395 29.5061 147.461 29.5061C149.336 29.5061 150.829 28.4987 151.672 27.4521V15.2303H156.532V33.2818H151.672ZM172.033 33.2818L167.822 27.1905L163.573 33.2818H158.179L164.76 24.0147L158.562 15.2303H163.995L167.822 20.7608L171.609 15.2303H177.044L170.883 24.0147L177.465 33.2818H172.033ZM180.738 31.8879C180.738 31.0324 181.54 30.288 182.456 30.288C183.369 30.288 184.131 31.0324 184.131 31.8894C184.131 32.7826 183.369 33.5254 182.456 33.5254C181.54 33.5254 180.74 32.7826 180.74 31.8894L180.738 31.8879ZM185.722 24.1816C185.722 18.9338 189.232 14.7596 194.644 14.7596C197.846 14.7596 199.677 15.9866 201.166 17.8121L199.791 19.006C198.456 17.2181 196.78 16.5099 194.76 16.5099C190.451 16.5099 187.82 19.8601 187.82 24.1816C187.82 28.5002 190.452 31.8894 194.76 31.8894C196.78 31.8894 198.456 31.1451 199.791 29.3573L201.166 30.5497C199.677 32.4097 197.846 33.6412 194.644 33.6412C189.232 33.6412 185.722 29.4325 185.722 24.1816ZM218.591 24.1816C218.591 20.1969 216.189 16.5084 211.843 16.5084C207.573 16.5084 205.133 20.1969 205.133 24.1816C205.133 28.2009 207.573 31.8894 211.843 31.8894C216.191 31.8894 218.591 28.2009 218.591 24.1816ZM203.036 24.1816C203.036 18.9338 206.469 14.7596 211.842 14.7596C217.296 14.7596 220.726 18.9323 220.726 24.1816C220.726 29.4325 217.296 33.6412 211.843 33.6412C206.469 33.6412 203.036 29.4325 203.036 24.1816ZM246.24 33.1916V20.6059C246.24 18.0722 245.136 16.5084 242.542 16.5084C240.559 16.5084 238.31 17.9264 237.281 19.5639V33.1916H235.26V20.6059C235.26 18.0722 234.19 16.5084 231.599 16.5084C229.618 16.5084 227.406 17.961 226.299 19.6V33.1931H224.318V15.2032H226.299V17.9249C227.062 16.767 229.58 14.7581 232.247 14.7581C235.106 14.7581 236.632 16.3971 237.089 18.1474C238.12 16.4708 240.598 14.7581 243.19 14.7581C246.581 14.7581 248.224 16.6212 248.224 20.2315V33.1901H246.24V33.1916Z" fill="black"/>
<path fill-rule="evenodd" clip-rule="evenodd" d="M1.33321 33H32.4875C33.2231 33 33.8176 32.4191 34 31.7041V8.26983C33.8176 7.55483 33.2215 7.2867 32.489 6.97538L17.8344 0.215618C17.0728 -0.0718727 16.7127 -0.0718727 15.9127 0.215618L1.33321 6.97389C0.527156 7.33437 0 7.55334 0 8.26834V31.7055C0 32.4205 0.597647 33 1.33321 33Z" fill="#E73B1D"/>
<path fill-rule="evenodd" clip-rule="evenodd" d="M12.9765 28.0188V25.6161H15.1112V13.0216H10.4403L10.4648 15.8816H7.83826V10.6204H26.163V15.8816H23.5349V13.0216H18.8043V25.6161H20.9114V28.0188H12.9765Z" fill="white"/>
</svg>
