<svg id="Layer_1" data-name="Layer 1" xmlns="http://www.w3.org/2000/svg" viewBox="0 0 365.27 59.77"><g id="Logo"><rect x="-0.82" y="27.62" width="59.52" height="4.69" transform="translate(-12.71 29.24) rotate(-45)"/><rect x="24.39" y="38.85" width="31.57" height="4.69" transform="translate(40.9 -16.34) rotate(45)"/><circle cx="49.98" cy="8.92" r="7.89"/><circle cx="7.89" cy="51" r="7.89"/><circle cx="49.98" cy="51" r="7.89"/><circle cx="28.93" cy="29.96" r="7.89"/></g><path d="M76.3,10.94V.8h47.78V10.94H106.27V59H94.11v-48Z"/><path d="M132,59V.8h23A25,25,0,0,1,166.2,3.14a16.58,16.58,0,0,1,7.13,6.62,19.79,19.79,0,0,1,2.46,10,19.08,19.08,0,0,1-2.5,10,16.28,16.28,0,0,1-7.23,6.38,27,27,0,0,1-11.44,2.21H139.25V28.47h13.38a15.41,15.41,0,0,0,5.85-1A7,7,0,0,0,162,24.6a9.22,9.22,0,0,0,1.16-4.8A9.62,9.62,0,0,0,162,14.91a7.28,7.28,0,0,0-3.49-3,14.62,14.62,0,0,0-5.89-1h-8.3V59ZM163.4,32.5,177.86,59H164.28L150.13,32.5Z"/><path d="M196.78.8V59h-12.3V.8Z"/><path d="M227.55,59H206.92V.8h20.8a30.92,30.92,0,0,1,15.11,3.48,23.73,23.73,0,0,1,9.76,10A33.07,33.07,0,0,1,256,29.83a33.26,33.26,0,0,1-3.42,15.62,23.71,23.71,0,0,1-9.8,10A31.26,31.26,0,0,1,227.55,59Zm-8.33-10.54H227a19.73,19.73,0,0,0,9.19-1.95,12.43,12.43,0,0,0,5.62-6.05,25.52,25.52,0,0,0,1.89-10.61,25.26,25.26,0,0,0-1.89-10.54,12.39,12.39,0,0,0-5.61-6,19.73,19.73,0,0,0-9.18-1.94h-7.84Z"/><path d="M303.68,19.6A13,13,0,0,0,302,15.92a10.64,10.64,0,0,0-2.63-2.72,11.72,11.72,0,0,0-3.53-1.72,14.87,14.87,0,0,0-4.36-.6,13.87,13.87,0,0,0-7.82,2.22,14.43,14.43,0,0,0-5.24,6.43,25.31,25.31,0,0,0-1.88,10.3,26,26,0,0,0,1.85,10.34,14.33,14.33,0,0,0,5.22,6.49,14.17,14.17,0,0,0,8,2.23,15.68,15.68,0,0,0,7.14-1.49,10.57,10.57,0,0,0,4.55-4.22,12.68,12.68,0,0,0,1.57-6.45l2.5.37h-15V27.84h24.35v7.33a25.51,25.51,0,0,1-3.24,13.17,22,22,0,0,1-8.92,8.46,27.66,27.66,0,0,1-13,3,28,28,0,0,1-14.37-3.62,24.8,24.8,0,0,1-9.65-10.31,34.28,34.28,0,0,1-3.45-15.9,36.29,36.29,0,0,1,2.06-12.63,26.72,26.72,0,0,1,5.78-9.41A24.89,24.89,0,0,1,280.59,2,27.94,27.94,0,0,1,291.3,0a28.84,28.84,0,0,1,9.2,1.43,25.12,25.12,0,0,1,7.57,4.05,22,22,0,0,1,5.41,6.21,21.35,21.35,0,0,1,2.7,7.91Z"/><path d="M326,59V.8h39.21V10.94h-26.9V24.8h24.88V34.94H338.26v13.9h27V59Z"/></svg>