<?xml version="1.0" encoding="UTF-8"?><svg xmlns="http://www.w3.org/2000/svg" viewBox="0 0 1080 563.12"><defs><style>.cls-1{fill:#337985;}.cls-2{fill:#5fcec1;}.cls-3{fill:#222;}</style></defs><g id="Viaduct"><path class="cls-3" d="M208.9,559.94l-57.18-150.36h34.52l40.45,115.42,40.24-115.42h33.25l-57.18,150.36h-34.09Z"/><path class="cls-3" d="M342.95,417.84c0,3.25-.74,6.14-2.22,8.68-1.48,2.54-3.53,4.55-6.14,6.03-2.61,1.48-5.47,2.22-8.58,2.22s-5.97-.74-8.58-2.22c-2.61-1.48-4.66-3.49-6.14-6.03-1.48-2.54-2.22-5.43-2.22-8.68s.74-6.14,2.22-8.68c1.48-2.54,3.53-4.55,6.14-6.03,2.61-1.48,5.47-2.22,8.58-2.22s5.96.74,8.58,2.22c2.61,1.48,4.66,3.5,6.14,6.03,1.48,2.54,2.22,5.44,2.22,8.68ZM311.18,559.94v-111.81h29.65v111.81h-29.65Z"/><path class="cls-3" d="M396.95,563.12c-5.79,0-11.08-.85-15.88-2.54-4.8-1.7-9-4.13-12.6-7.31-3.6-3.18-6.39-6.88-8.37-11.12-1.98-4.23-2.96-8.89-2.96-13.98,0-7.06,1.9-13.27,5.72-18.63,3.81-5.36,9.18-9.56,16.1-12.6,6.91-3.04,14.96-4.55,24.14-4.55,4.66,0,9.07.42,13.24,1.27,4.16.85,8.22,2.05,12.18,3.6v-6.57c0-6.35-1.8-11.5-5.4-15.46-3.6-3.95-8.51-5.93-14.72-5.93-4.66,0-8.89,1.16-12.71,3.49-3.81,2.33-6.49,5.61-8.05,9.85l-26.47-5.29c1.55-6.49,4.62-12.18,9.21-17.05,4.59-4.87,10.2-8.65,16.84-11.33,6.63-2.68,13.83-4.02,21.6-4.02,7.2,0,13.76,1.13,19.69,3.39,5.93,2.26,11.04,5.51,15.35,9.74,4.3,4.24,7.62,9.21,9.95,14.93,2.33,5.72,3.5,12.11,3.5,19.16v67.77h-26.47l-.85-13.13c-2.97,4.8-7.27,8.72-12.92,11.75-5.65,3.04-12.36,4.55-20.12,4.55ZM386.36,526.69c0,3.95,1.62,7.2,4.87,9.74,3.25,2.54,7.55,3.81,12.92,3.81,4.66,0,8.82-.99,12.49-2.96,3.67-1.98,6.57-4.69,8.68-8.15,2.12-3.46,3.18-7.31,3.18-11.54v-1.06c-3.11-1.27-6.43-2.29-9.95-3.07-3.53-.77-7.06-1.16-10.59-1.16-6.64,0-11.89,1.31-15.78,3.92-3.89,2.62-5.82,6.11-5.82,10.48Z"/><path class="cls-3" d="M525.92,563.12c-7.2,0-13.91-1.48-20.12-4.45-6.21-2.96-11.65-7.09-16.31-12.39-4.66-5.29-8.3-11.47-10.91-18.53-2.61-7.06-3.92-14.75-3.92-23.08s1.34-16.31,4.02-23.51c2.68-7.2,6.42-13.52,11.22-18.95,4.8-5.43,10.41-9.67,16.84-12.71,6.42-3.03,13.37-4.55,20.86-4.55,6.91,0,13.24,1.38,18.95,4.13,5.72,2.75,10.48,6.6,14.3,11.54v-58.66h29.65v157.98h-27.32l-.85-16.31c-3.95,6.07-9.07,10.84-15.35,14.3-6.28,3.46-13.31,5.19-21.07,5.19ZM533.12,536.44c5.36,0,10.17-1.41,14.4-4.23,4.23-2.82,7.59-6.67,10.06-11.54,2.47-4.87,3.7-10.41,3.7-16.62s-1.24-11.75-3.7-16.62c-2.47-4.87-5.83-8.72-10.06-11.54-4.23-2.82-9.04-4.23-14.4-4.23s-10.17,1.41-14.4,4.23c-4.23,2.83-7.59,6.67-10.06,11.54-2.47,4.87-3.71,10.41-3.71,16.62s1.23,11.75,3.71,16.62c2.47,4.87,5.82,8.72,10.06,11.54,4.23,2.83,9.03,4.23,14.4,4.23Z"/><path class="cls-3" d="M662.51,563.12c-10.16,0-19.03-2.16-26.58-6.46-7.55-4.31-13.41-10.45-17.58-18.42-4.17-7.97-6.25-17.4-6.25-28.27v-61.84h29.65v62.47c0,8.05,1.91,14.37,5.72,18.95,3.81,4.59,8.97,6.88,15.46,6.88s11.65-2.29,15.46-6.88c3.81-4.59,5.72-10.91,5.72-18.95v-62.47h29.65v61.84c0,8.05-1.2,15.32-3.6,21.81-2.4,6.49-5.86,12.07-10.38,16.73-4.52,4.66-9.92,8.26-16.2,10.8-6.28,2.54-13.31,3.81-21.07,3.81Z"/><path class="cls-3" d="M787.24,563.12c-8.05,0-15.5-1.45-22.34-4.34-6.85-2.89-12.78-6.95-17.79-12.18-5.01-5.22-8.93-11.4-11.75-18.53-2.82-7.13-4.23-14.86-4.23-23.19s1.45-16.34,4.34-23.61c2.89-7.27,6.92-13.62,12.07-19.06,5.15-5.43,11.19-9.67,18.11-12.71,6.91-3.03,14.4-4.55,22.45-4.55s15.46,1.52,22.24,4.55c6.78,3.04,12.53,7.31,17.26,12.81,4.73,5.51,8.01,11.93,9.85,19.27l-28.16,5.51c-2.12-4.8-5.08-8.58-8.89-11.33-3.81-2.75-8.12-4.13-12.92-4.13-5.08,0-9.57,1.41-13.45,4.23-3.89,2.83-6.96,6.75-9.21,11.75-2.26,5.01-3.39,10.62-3.39,16.84s1.09,11.72,3.28,16.52c2.19,4.8,5.26,8.58,9.21,11.33,3.95,2.75,8.47,4.13,13.55,4.13s9.67-1.34,13.76-4.02c4.09-2.68,7.13-6.49,9.11-11.44l28.16,5.51c-1.84,7.48-5.26,13.98-10.27,19.48-5.01,5.51-11.05,9.74-18.11,12.71-7.06,2.96-14.68,4.45-22.87,4.45Z"/><path class="cls-3" d="M901.38,563.12c-7.77,0-14.44-1.52-20.01-4.55-5.58-3.03-9.89-7.44-12.92-13.23-3.04-5.79-4.55-12.85-4.55-21.18v-52.09h-19.06v-23.93h19.06v-38.12h29.65v38.12h30.5v23.93h-30.5v48.49c0,5.37,1.13,9.5,3.39,12.39,2.26,2.9,5.72,4.34,10.38,4.34,2.4,0,4.98-.35,7.73-1.06,2.75-.7,5.4-1.62,7.94-2.75l5.29,22.24c-3.67,2.26-7.77,4.06-12.28,5.4-4.52,1.34-9.39,2.01-14.61,2.01Z"/></g><g id="Line"><path class="cls-1" d="M94.31,97.99c-.94,0-1.88-.36-2.6-1.08L17.43,22.63c-1.44-1.44-1.44-3.77,0-5.21s3.77-1.44,5.21,0l74.28,74.28c1.44,1.44,1.44,3.77,0,5.21-.72.72-1.66,1.08-2.6,1.08Z"/><path class="cls-1" d="M94.31,97.99c-.94,0-1.88-.36-2.6-1.08-1.44-1.44-1.44-3.77,0-5.21L165.99,17.43c1.44-1.44,3.77-1.44,5.21,0s1.44,3.77,0,5.21l-74.28,74.28c-.72.72-1.66,1.08-2.6,1.08Z"/><path class="cls-1" d="M317.16,172.27c-.94,0-1.88-.36-2.6-1.08L165.99,22.63c-1.44-1.44-1.44-3.77,0-5.21s3.77-1.44,5.21,0l148.56,148.56c1.44,1.44,1.44,3.77,0,5.21-.72.72-1.66,1.08-2.6,1.08Z"/><path class="cls-1" d="M168.59,172.27c-.94,0-1.88-.36-2.6-1.08-1.44-1.44-1.44-3.77,0-5.21L314.55,17.43c1.44-1.44,3.77-1.44,5.21,0s1.44,3.77,0,5.21l-148.56,148.56c-.72.72-1.66,1.08-2.6,1.08Z"/><path class="cls-1" d="M317.16,320.84c-.94,0-1.88-.36-2.6-1.08l-148.56-148.56c-1.44-1.44-1.44-3.77,0-5.21s3.77-1.44,5.21,0l148.56,148.56c1.44,1.44,1.44,3.77,0,5.21-.72.72-1.66,1.08-2.6,1.08Z"/><path class="cls-1" d="M168.59,320.84c-.94,0-1.88-.36-2.6-1.08-1.44-1.44-1.44-3.77,0-5.21l148.56-148.56c1.44-1.44,3.77-1.44,5.21,0s1.44,3.77,0,5.21l-148.56,148.56c-.72.72-1.66,1.08-2.6,1.08Z"/><path class="cls-1" d="M391.44,97.99c-.94,0-1.88-.36-2.6-1.08l-74.28-74.28c-1.44-1.44-1.44-3.77,0-5.21s3.77-1.44,5.21,0l74.28,74.28c1.44,1.44,1.44,3.77,0,5.21-.72.72-1.66,1.08-2.6,1.08Z"/><path class="cls-1" d="M391.44,97.99c-.94,0-1.88-.36-2.6-1.08-1.44-1.44-1.44-3.77,0-5.21l74.28-74.28c1.44-1.44,3.77-1.44,5.21,0s1.44,3.77,0,5.21l-74.28,74.28c-.72.72-1.66,1.08-2.6,1.08Z"/><path class="cls-1" d="M614.28,172.27c-.94,0-1.88-.36-2.6-1.08L463.12,22.63c-1.44-1.44-1.44-3.77,0-5.21s3.77-1.44,5.21,0l148.56,148.56c1.44,1.44,1.44,3.77,0,5.21-.72.72-1.66,1.08-2.6,1.08Z"/><path class="cls-1" d="M465.72,172.27c-.94,0-1.88-.36-2.6-1.08-1.44-1.44-1.44-3.77,0-5.21L611.68,17.43c1.44-1.44,3.77-1.44,5.21,0s1.44,3.77,0,5.21l-148.56,148.56c-.72.72-1.66,1.08-2.6,1.08Z"/><path class="cls-1" d="M614.28,320.84c-.94,0-1.88-.36-2.6-1.08l-148.56-148.56c-1.44-1.44-1.44-3.77,0-5.21s3.77-1.44,5.21,0l148.56,148.56c1.44,1.44,1.44,3.77,0,5.21-.72.72-1.66,1.08-2.6,1.08Z"/><path class="cls-1" d="M465.72,320.84c-.94,0-1.88-.36-2.6-1.08-1.44-1.44-1.44-3.77,0-5.21l148.56-148.56c1.44-1.44,3.77-1.44,5.21,0s1.44,3.77,0,5.21l-148.56,148.56c-.72.72-1.66,1.08-2.6,1.08Z"/><path class="cls-1" d="M688.56,97.99c-.94,0-1.88-.36-2.6-1.08l-74.28-74.28c-1.44-1.44-1.44-3.77,0-5.21s3.77-1.44,5.21,0l74.28,74.28c1.44,1.44,1.44,3.77,0,5.21-.72.72-1.66,1.08-2.6,1.08Z"/><path class="cls-1" d="M688.56,97.99c-.94,0-1.88-.36-2.6-1.08-1.44-1.44-1.44-3.77,0-5.21l74.28-74.28c1.44-1.44,3.77-1.44,5.21,0,1.44,1.44,1.44,3.77,0,5.21l-74.28,74.28c-.72.72-1.66,1.08-2.6,1.08Z"/><path class="cls-1" d="M911.41,172.27c-.94,0-1.88-.36-2.6-1.08L760.24,22.63c-1.44-1.44-1.44-3.77,0-5.21s3.77-1.44,5.21,0l148.56,148.56c1.44,1.44,1.44,3.77,0,5.21-.72.72-1.66,1.08-2.6,1.08Z"/><path class="cls-1" d="M762.84,172.27c-.94,0-1.88-.36-2.6-1.08-1.44-1.44-1.44-3.77,0-5.21L908.8,17.43c1.44-1.44,3.77-1.44,5.21,0s1.44,3.77,0,5.21l-148.56,148.56c-.72.72-1.66,1.08-2.6,1.08Z"/><path class="cls-1" d="M911.41,320.84c-.94,0-1.88-.36-2.6-1.08l-148.56-148.56c-1.44-1.44-1.44-3.77,0-5.21s3.77-1.44,5.21,0l148.56,148.56c1.44,1.44,1.44,3.77,0,5.21-.72.72-1.66,1.08-2.6,1.08Z"/><path class="cls-1" d="M762.84,320.84c-.94,0-1.88-.36-2.6-1.08-1.44-1.44-1.44-3.77,0-5.21l148.56-148.56c1.44-1.44,3.77-1.44,5.21,0s1.44,3.77,0,5.21l-148.56,148.56c-.72.72-1.66,1.08-2.6,1.08Z"/><path class="cls-1" d="M985.69,97.99c-.94,0-1.88-.36-2.6-1.08l-74.28-74.28c-1.44-1.44-1.44-3.77,0-5.21s3.77-1.44,5.21,0l74.28,74.28c1.44,1.44,1.44,3.77,0,5.21-.72.72-1.66,1.08-2.6,1.08Z"/><path class="cls-1" d="M985.69,97.99c-.94,0-1.88-.36-2.6-1.08-1.44-1.44-1.44-3.77,0-5.21l74.28-74.28c1.44-1.44,3.77-1.44,5.21,0s1.44,3.77,0,5.21l-74.28,74.28c-.72.72-1.66,1.08-2.6,1.08Z"/></g><g id="Container"><path class="cls-1" d="M911.41,320.84c-2.03,0-3.68-1.65-3.68-3.68v-148.56c0-2.03,1.65-3.68,3.68-3.68s3.68,1.65,3.68,3.68v148.56c0,2.03-1.65,3.68-3.68,3.68Z"/><path class="cls-1" d="M911.41,320.84h-148.56c-2.03,0-3.68-1.65-3.68-3.68s1.65-3.68,3.68-3.68h148.56c2.03,0,3.68,1.65,3.68,3.68s-1.65,3.68-3.68,3.68Z"/><path class="cls-1" d="M762.84,320.84c-2.03,0-3.68-1.65-3.68-3.68v-148.56c0-38.93-31.67-70.6-70.6-70.6s-70.6,31.67-70.6,70.6v148.56c0,2.03-1.65,3.68-3.68,3.68s-3.68-1.65-3.68-3.68v-148.56c0-42.99,34.97-77.96,77.96-77.96s77.96,34.97,77.96,77.96v148.56c0,2.03-1.65,3.68-3.68,3.68Z"/><path class="cls-1" d="M614.28,320.84h-148.56c-2.03,0-3.68-1.65-3.68-3.68s1.65-3.68,3.68-3.68h148.56c2.03,0,3.68,1.65,3.68,3.68s-1.65,3.68-3.68,3.68Z"/><path class="cls-1" d="M465.72,320.84c-2.03,0-3.68-1.65-3.68-3.68v-148.56c0-38.93-31.67-70.6-70.6-70.6s-70.6,31.67-70.6,70.6v148.56c0,2.03-1.65,3.68-3.68,3.68s-3.68-1.65-3.68-3.68v-148.56c0-42.99,34.97-77.96,77.96-77.96s77.96,34.97,77.96,77.96v148.56c0,2.03-1.65,3.68-3.68,3.68Z"/><path class="cls-1" d="M317.16,320.84h-148.56c-2.03,0-3.68-1.65-3.68-3.68s1.65-3.68,3.68-3.68h148.56c2.03,0,3.68,1.65,3.68,3.68s-1.65,3.68-3.68,3.68Z"/><path class="cls-1" d="M168.59,320.84c-2.03,0-3.68-1.65-3.68-3.68v-148.56c0-38.93-31.67-70.6-70.6-70.6H20.03c-2.03,0-3.68-1.65-3.68-3.68s1.65-3.68,3.68-3.68h74.28c42.99,0,77.96,34.97,77.96,77.96v148.56c0,2.03-1.65,3.68-3.68,3.68Z"/><path class="cls-1" d="M20.03,97.99c-2.03,0-3.68-1.65-3.68-3.68V20.03c0-2.03,1.65-3.68,3.68-3.68s3.68,1.65,3.68,3.68v74.28c0,2.03-1.65,3.68-3.68,3.68Z"/><path class="cls-1" d="M1059.97,23.71H20.03c-2.03,0-3.68-1.65-3.68-3.68s1.65-3.68,3.68-3.68h1039.94c2.03,0,3.68,1.65,3.68,3.68s-1.65,3.68-3.68,3.68Z"/><path class="cls-1" d="M1059.97,97.99c-2.03,0-3.68-1.65-3.68-3.68V20.03c0-2.03,1.65-3.68,3.68-3.68s3.68,1.65,3.68,3.68v74.28c0,2.03-1.65,3.68-3.68,3.68Z"/><path class="cls-1" d="M911.41,320.84c-2.03,0-3.68-1.65-3.68-3.68v-148.56c0-42.99,34.97-77.96,77.96-77.96h74.28c2.03,0,3.68,1.65,3.68,3.68s-1.65,3.68-3.68,3.68h-74.28c-38.93,0-70.6,31.67-70.6,70.6v148.56c0,2.03-1.65,3.68-3.68,3.68Z"/></g><g id="Dot"><circle class="cls-2" cx="20.03" cy="20.03" r="20.03"/><circle class="cls-2" cx="94.31" cy="94.31" r="20.03"/><circle class="cls-2" cx="168.59" cy="20.03" r="20.03"/><circle class="cls-2" cx="168.59" cy="168.59" r="20.03"/><circle class="cls-2" cx="168.59" cy="317.16" r="20.03"/><circle class="cls-2" cx="242.87" cy="94.31" r="20.03"/><circle class="cls-2" cx="242.87" cy="242.87" r="20.03"/><circle class="cls-2" cx="317.16" cy="20.03" r="20.03"/><circle class="cls-2" cx="317.16" cy="168.59" r="20.03"/><circle class="cls-2" cx="317.16" cy="317.16" r="20.03"/><circle class="cls-2" cx="391.44" cy="94.31" r="20.03"/><circle class="cls-2" cx="465.72" cy="20.03" r="20.03"/><circle class="cls-2" cx="465.72" cy="168.59" r="20.03"/><circle class="cls-2" cx="465.72" cy="316.79" r="20.03"/><circle class="cls-2" cx="540" cy="94.31" r="20.03"/><circle class="cls-2" cx="540" cy="242.87" r="20.03"/><circle class="cls-2" cx="614.28" cy="20.4" r="20.03"/><circle class="cls-2" cx="614.28" cy="168.59" r="20.03"/><circle class="cls-2" cx="614.28" cy="316.79" r="20.03"/><circle class="cls-2" cx="688.56" cy="94.31" r="20.03"/><circle class="cls-2" cx="762.84" cy="20.03" r="20.03"/><circle class="cls-2" cx="762.84" cy="168.59" r="20.03"/><circle class="cls-2" cx="762.84" cy="316.79" r="20.03"/><circle class="cls-2" cx="837.13" cy="94.31" r="20.03"/><circle class="cls-2" cx="837.13" cy="242.87" r="20.03"/><circle class="cls-2" cx="911.41" cy="20.03" r="20.03"/><circle class="cls-2" cx="911.41" cy="168.59" r="20.03"/><circle class="cls-2" cx="911.41" cy="317.16" r="20.03"/><circle class="cls-2" cx="985.69" cy="94.31" r="20.03"/><circle class="cls-2" cx="1059.97" cy="20.03" r="20.03"/></g></svg>