<?xml version="1.0" encoding="utf-8"?>
<!-- Generator: Adobe Illustrator 22.1.0, SVG Export Plug-In . SVG Version: 6.00 Build 0)  -->
<svg version="1.1" id="Layer_1" xmlns="http://www.w3.org/2000/svg" xmlns:xlink="http://www.w3.org/1999/xlink" x="0px" y="0px"
	 width="600px" height="180px" viewBox="0 0 600 180" style="enable-background:new 0 0 600 180;" xml:space="preserve">
<style type="text/css">
	.st0{fill:#792E80;}
	.st1{fill:#792D80;}
	.st2{fill:#782C7E;}
	.st3{fill:#7A2E81;}
	.st4{fill:#B983B8;}
	.st5{fill:#86C771;}
	.st6{fill:#F6CF1D;}
	.st7{fill:#C5D635;}
	.st8{fill:#7A2F81;}
</style>
<g>
	<path class="st0" d="M381.3,90.5c0,5.9,0,11.9,0,17.8c0,2.3,0,2.3,2.4,2.4c4.5,0.1,4.5,0.1,4.5,4.5c0,4.6,0,4.6-4.7,4.6
		c-6.4,0-12.9,0-19.3,0c-0.4,0-0.9,0.1-1.3,0c-0.8-0.3-1.9-0.5-2.3-1.1c-0.3-0.4,0.2-1.6,0.6-2.2c1.2-1.7,2.4-3.3,3.8-4.8
		c0.9-1,1.2-2.1,1.2-3.5c0-11.9,0-23.9,0-35.8c0-2.5,0-2.5-2.6-2.5c-1.4,0-2.7,0.1-4.1,0c-1.6-0.1-2.4,0.5-3,2
		c-3.7,8.3-7.4,16.5-11.1,24.7c-5.7,12.6-11.4,25.3-17.1,37.9c-1.3,2.8-3,5.3-5.4,7.3c-6.5,5.4-16.6,5-23.5-1.9c-1-1-1-1.9-0.2-2.9
		c1.2-1.4,2.6-2.7,3.9-4c0.8-0.9,1.7-0.9,2.7-0.2c0.7,0.6,1.4,1.2,2.2,1.7c3.2,2,6.3,1.6,9-1.1c0.9-0.9,1.7-1.9,2.3-3
		c1.9-3.6,3.6-7.3,5.5-10.9c0.6-1.3,0.1-2.3-0.4-3.3c-4.7-10-9.4-20-14.1-30.1c-2.2-4.7-4.5-9.5-6.6-14.3c-0.6-1.4-1.4-2.1-2.8-1.8
		c-3.2,0.6-5.1-0.8-6.1-3.8c-0.4-1-1.1-1.9-1.5-2.9c-0.5-1.2,0-2.1,1.4-2.3c0.4-0.1,0.8,0,1.3,0c9.1,0,18.3,0,27.4,0
		c2.6,0,2.9,0.3,2.9,2.9c0,1.3,0.1,2.5,0,3.8c-0.1,1.8-0.5,2.2-2.3,2.3c-0.8,0-1.5,0-2.3,0c-1.8,0.1-2.1,0.5-1.3,2.2
		c1.5,3.6,3.1,7.1,4.6,10.7c2.1,4.7,4.1,9.5,6.2,14.2c0.3,0.6,0.9,1,1.4,1.6c0.5-0.5,1.1-1,1.4-1.6c3.6-8.1,7.1-16.3,10.6-24.4
		c0.9-2,0.8-2.3-1.4-2.6c-1.4-0.2-1.9-0.9-1.9-2.2c0-1.3,0-2.5,0-3.8c0-2.9,0.1-3.1,3-3.1c6.3,0,12.5,0,18.8,0c0.5,0,1,0,1.5,0
		c1.5,0.1,2-0.7,2.1-2.2c0.2-3.2,0.1-6.5,0.9-9.6c2.3-9.7,9.7-15.3,20.6-14.3c3.1,0.3,6.2,0.7,9,2.2c4.5,2.4,7.5,8,7,12.9
		c-0.1,1.2-0.7,1.9-1.9,1.9c-2.1,0-4.2,0-6.4,0c-1.3,0-2-0.6-2.2-1.9c-0.1-0.8-0.2-1.7-0.4-2.5c-0.7-2.8-2.2-4.2-4.6-4.4
		c-2.8-0.3-5,0.7-6.3,3.2c-0.5,1-0.9,2-1,3.1c-0.2,3.3-0.1,6.6-0.2,9.9c0,1.4,0.8,1.7,2,1.7c3.3,0,6.6,0,9.9,0c1,0,2.3-0.4,2.6,0.9
		c0.1,0.8-0.4,1.8-0.9,2.7c-2.2,4.4-5.7,6.2-10.7,5.5c-2.7-0.4-2.7,0-2.7,2.8C381.3,78.6,381.3,84.6,381.3,90.5z"/>
	<path class="st1" d="M162.8,60.8c3.7,0,7.5,0,11.2,0c2.2,0,2.4,0.3,2.5,2.5c0,1.4-0.1,2.9,0,4.3c0.1,1.5-0.6,2.1-2.1,2.2
		c-3.8,0.3-3.8,0.3-2.7,3.9c2.2,6.9,4.5,13.8,6.8,20.7c0.2,0.5,0.3,1,0.5,1.4c0.5,0.8,1.2,0.9,1.8,0c0.4-0.7,0.7-1.5,1-2.3
		c3.9-10,7.7-20,11.6-30c1.1-2.7,1.1-2.7,4-2.7c1.4,0,2.7,0,4.1,0c2.4,0,2.4,0.1,3.3,2.3c3.7,10.2,7.4,20.5,11.2,30.7
		c0.3,0.9,1,2.4,1.6,2.5c1.4,0.1,1.2-1.5,1.6-2.5c2.3-6.8,4.6-13.6,6.9-20.4c0.2-0.6,0.4-1.3,0.6-1.9c0.3-1-0.1-1.7-1.2-1.7
		c-0.9,0-1.9,0-2.8,0c-1.2,0-1.9-0.7-1.9-1.9c0-1.7,0-3.4,0-5.1c0-1.3,0.6-2,2-2c7.1,0,14.2,0,21.3,0c1.7,0,2.3,0.8,1.8,2.5
		c-0.5,1.7-1.1,3.4-1.7,5c-0.3,1-1.1,1.5-2.1,1.5c-0.5,0-1,0.1-1.5,0c-1.7-0.2-2.6,0.5-3.1,2.1c-4.9,14.7-9.9,29.3-14.9,43.9
		c-0.2,0.7-0.5,1.4-0.7,2.2c-0.4,1.2-1.1,1.8-2.4,1.7c-2.3-0.1-4.6-0.1-6.9,0c-1.8,0.1-2.6-0.7-3.1-2.3c-3.4-9.5-6.8-18.9-10.2-28.4
		c-0.5-1.5-1-3-1.6-4.5c-0.2-0.6-0.8-1-1.2-1.5c-0.5,0.5-1.2,0.9-1.5,1.5c-1.7,4.1-3.3,8.3-4.9,12.5c-2.6,6.7-5.2,13.4-7.8,20.1
		c-1,2.5-1.1,2.6-3.7,2.6c-1.5,0-3,0-4.6,0c-2.4,0-2.5-0.1-3.3-2.3c-2.6-7.8-5.2-15.6-7.8-23.3c-2.4-7.2-4.8-14.4-7.2-21.7
		c-0.9-2.6-0.9-2.6-3.5-2.6c-0.6,0-1.2,0-1.8,0c-1.1-0.1-1.7-0.7-1.7-1.8c0-1.6,0-3.2,0-4.8c0-2,0.4-2.3,2.4-2.3
		C155.2,60.7,159,60.8,162.8,60.8z"/>
	<path class="st1" d="M292.4,91c0,4.2,0,8.5,0,12.7c0,1.1,0.1,2.2,0.3,3.3c0.4,2.7,1.2,3.4,3.9,3.8c2.5,0.3,2.9,1.3,1.6,3.3
		c-0.5,0.7-1,1.4-1.5,2.1c-4.3,5.5-11.9,5.4-15.9-0.4c-1.5-2.1-1.5-2.1-3.6-0.5c-4.8,3.6-10,5.9-16.1,5.7
		c-9.7-0.3-16.8-7.6-16.3-17.3c0.4-8.8,4.3-14.6,13.1-17.1c1.2-0.3,2.4-0.7,3.7-0.8c4.7-0.4,9.4-0.8,14.1-1c1.5-0.1,2.1-0.3,2-2
		c-0.2-2.3,0-4.6-0.5-6.8c-0.8-4.2-3.5-6.3-7.9-6.5c-4.8-0.2-8.1,1.8-9.4,5.7c-0.4,1.2-0.5,2.9-1.3,3.4c-1.1,0.7-2.7,0.4-4.2,0.5
		c-1.4,0.1-2.9,0.1-4.3,0c-2-0.1-2.5-0.7-2.3-2.7c0.8-6.4,4-11.1,10-13.6c7-3,14.2-3.6,21.5-1.3c8.1,2.6,13.5,9.7,13.1,18.2
		C292.3,83.4,292.4,87.2,292.4,91z M277.6,99.8c0-1.9-0.1-3.7,0-5.6c0.1-1.2-0.3-1.7-1.6-1.6c-1.9,0.1-3.7,0.1-5.6,0.3
		c-2.7,0.3-5.3,0.9-7.6,2.5c-3.1,2.1-4.3,6-3.2,9.9c1.1,3.7,3.9,5.7,7.9,5.9c3.4,0.2,6-1.3,8.6-3.2c1-0.8,1.6-1.6,1.5-3
		C277.5,103.4,277.6,101.6,277.6,99.8z"/>
	<path class="st1" d="M443.4,91.5c0,4.4,0,8.8,0,13.2c0,0.8,0,1.7,0.2,2.5c0.5,2.5,1.4,3.2,3.9,3.5c2.6,0.3,3,1.3,1.5,3.5
		c-0.4,0.6-0.9,1.2-1.3,1.8c-3.9,6.2-13.2,4.5-16-0.2c-1.3-2.2-1.5-2.2-3.6-0.5c-4.7,3.6-9.8,5.8-15.9,5.7
		c-10.6-0.2-18-8.8-16.5-19.3c1.3-9.2,6.3-14.2,16.2-15.8c4.8-0.8,9.7-0.9,14.6-1.1c1.5-0.1,2.1-0.4,2-2c-0.2-2.3-0.1-4.7-0.5-7.1
		c-0.5-3-2.4-5-5.4-5.8c-4.8-1.4-11-0.2-12.3,7c-0.3,1.8-1.2,2.2-2.8,2.2c-2.1-0.1-4.2,0-6.3,0c-2.3,0-2.8-0.7-2.5-3
		c1-7,5-11.8,11.6-14.1c5.9-2.1,12.1-2.6,18.2-1.1c9.1,2.2,15.1,9.6,14.8,18.7C443.3,83.5,443.4,87.5,443.4,91.5z M428.5,100.1
		c0-0.9,0-1.9,0-2.8c-0.1-1.5,0.3-3.4-0.5-4.3c-0.6-0.7-2.7-0.2-4.1-0.2c-3.2,0-6.4,0.6-9.3,2.1c-5.5,2.9-5.4,10.3-2.2,13.8
		c1.3,1.4,2.9,2.3,4.8,2.5c4.1,0.6,7.5-1,10.4-3.6c0.5-0.5,0.8-1.4,0.9-2.2C428.6,103.6,428.5,101.9,428.5,100.1z"/>
	<path class="st1" d="M505.9,108.2c0,0,0.1,2.5,2.4,2.5c4.7-0.1,4.2,0.5,4.2,4.2c0,4.7,0.5,4.9-4.8,4.9c-6.3-0.1-12.5,0-18.8,0
		c-0.5,0-1,0-1.5,0c-2.1-0.1-2.7-1.3-1.5-3c1.2-1.7,2.6-3.4,3.9-5c0.9-1,1.3-2.1,1.3-3.4c-0.1-11.9,0-23.9,0-35.8
		c0-2.3,0-2.3-2.2-2.7c-1.9-0.4-2.4-1.5-1.2-3.1c1.3-1.7,2.6-3.4,4-4.9c0.4-0.5,1.3-0.9,1.9-1c3.5-0.1,6.9,0,10.4-0.1
		c1.4,0,2,0.6,2,2c0,1.4-0.1,2.9,0,4.3c0,0.5,0.4,1.2,0.8,1.3c0.4,0.1,1.1-0.3,1.4-0.7c1.3-1.4,2.4-3,3.9-4.3
		c3.9-3.6,8.7-3.6,13.6-2.9c1.3,0.2,2,1.1,2,2.5c-0.1,2.4,0,4.7,0,7.1c0,2.4-0.6,2.7-2.9,2.4c-2.4-0.4-4.9-0.8-7.2-0.6
		c-3.2,0.3-5.9,2-8.2,4.2c-2.2,2-3.4,7.5-3.4,7.5L505.9,108.2z"/>
	<path class="st2" d="M83.5,90.2c0,0,0-0.2,0-0.2c7.4-7.4,14.9-14.8,22.3-22.3c0.8,0.6,1.7,1.1,2.4,1.8c6.8,6.8,13.7,13.6,20.5,20.4
		c-0.2,0.3-0.3,0.6-0.6,0.8c-6.9,6.9-13.7,13.7-20.6,20.6c-0.5,0.5-1.1,0.7-1.6,1.1c-0.8-0.8-1.6-1.5-2.4-2.3
		C96.8,103.4,90.1,96.8,83.5,90.2z"/>
	<path class="st3" d="M474.8,86.1c0,7.4,0,14.7,0,22.1c0,2.4,0,2.3,2.4,2.4c1.3,0.1,2.9-0.6,3.7,0.9c0.9,1.7-0.9,2.5-1.5,3.7
		c-2,3.8-5.1,5-9.4,4.6c-4.3-0.4-8.6-0.1-12.9-0.1c-1.1,0-2.5,0.3-2.8-1c-0.2-0.8,0.3-2,0.9-2.6c3.9-3.7,4.9-8.1,4.7-13.5
		c-0.4-10-0.1-20-0.1-30c0-2.4,0-2.4-2.3-2.8c-1.7-0.3-2.2-1.4-1.3-2.7c1.4-1.9,2.8-3.8,4.4-5.5c0.5-0.5,1.5-0.7,2.3-0.7
		c3-0.1,6.1,0,9.1,0c2.5,0,2.8,0.2,2.8,2.8C474.8,71.1,474.8,78.6,474.8,86.1z"/>
	<path class="st4" d="M105.9,112.4c0.6-0.4,1.2-0.6,1.6-1.1c6.9-6.8,13.7-13.7,20.6-20.6c0.2-0.2,0.4-0.5,0.6-0.8l0.2,0l0.2,0
		c0.5,0.7,0.9,1.4,1.5,2c2.7,2.7,5.3,5.4,8.1,8.1c1.2,1.1,1.4,2.4,1,3.9c-1.2,4.4-2.4,8.8-3.5,13.2c-0.4,1.7-1.3,2.6-3.2,3.1
		c-4.5,1-9,2.3-13.4,3.6c-1.5,0.4-2.5,0.1-3.6-1c-2.6-2.7-5.4-5.4-8.1-8.1c-0.6-0.6-1.3-1-2-1.5
		C105.9,112.8,105.9,112.6,105.9,112.4z"/>
	<path class="st5" d="M129.1,89.9l-0.2,0l-0.2,0c-6.8-6.8-13.6-13.6-20.5-20.4c-0.7-0.7-1.6-1.2-2.4-1.8c0-0.2,0-0.4,0.1-0.6
		c0.7-0.5,1.4-0.9,2-1.5c2.8-2.7,5.5-5.5,8.2-8.3c1-1,2-1.3,3.4-0.9c4.6,1.3,9.2,2.6,13.9,3.7c1.4,0.3,2.2,0.9,2.6,2.4
		c1.2,4.8,2.5,9.6,3.8,14.4c0.4,1.3-0.1,2.2-1,3.1C135.5,83.4,132.3,86.6,129.1,89.9z"/>
	<path class="st6" d="M105.9,112.4c0,0.2,0.1,0.4,0.1,0.6c-3.2,3.2-6.5,6.4-9.7,9.7c-1,1-2,1.4-3.4,1c-4.7-1.3-9.4-2.6-14.2-3.8
		c-1.4-0.3-2-1.1-2.3-2.3c-1.2-4.7-2.4-9.5-3.8-14.2c-0.4-1.5-0.1-2.4,0.9-3.4c3.3-3.2,6.6-6.5,9.9-9.8c6.7,6.6,13.4,13.3,20,19.9
		C104.3,110.9,105.1,111.6,105.9,112.4z"/>
	<path class="st7" d="M105.8,67.1c0,0.2,0,0.4-0.1,0.6C98.3,75.1,90.9,82.6,83.5,90c-3.4-3.3-6.7-6.7-10.1-10
		c-0.9-0.8-1.2-1.7-0.9-2.9c1.4-4.9,2.6-9.8,3.9-14.7c0.3-1.1,0.9-1.8,2-2c5-1.3,9.9-2.6,14.9-4c1.3-0.3,2.1,0.2,2.9,1
		C99.4,60.7,102.6,63.9,105.8,67.1z"/>
	<path class="st8" d="M467.3,54.5c-4.6,0-8.4-3.7-8.5-8.3c-0.1-4.7,3.7-8.7,8.4-8.7c4.5,0,8.4,3.7,8.5,8.3
		C475.8,50.6,472,54.5,467.3,54.5z"/>
</g>
</svg>
