<svg width="184" height="34" viewBox="0 0 184 34" fill="none" xmlns="http://www.w3.org/2000/svg">
<path fill-rule="evenodd" clip-rule="evenodd" d="M183.606 27.7482V24.4494C183.606 24.2662 183.514 24.2356 183.361 24.2051C182.873 24.2051 182.384 24.2356 181.895 24.2356C181.804 24.2356 181.04 24.2356 180.734 23.6858C180.582 23.4109 180.612 23.0139 180.612 22.3419V14.828H183.483C183.697 14.828 183.881 14.6142 183.911 14.4309V12.2012C183.911 12.018 183.697 11.8041 183.483 11.8041H180.643V6.94762C180.643 6.76435 180.46 6.55054 180.276 6.55054H176.153C175.97 6.58109 175.786 6.76435 175.786 6.94762V11.7736H173.74C173.526 11.8041 173.343 11.9874 173.343 12.1707V14.3699C173.343 14.5837 173.557 14.7975 173.77 14.7975H175.786V22.8611C175.786 24.3883 175.725 26.0988 177.008 27.229C178.138 28.2675 179.604 28.2369 180.063 28.2674C180.368 28.298 180.734 28.298 181.101 28.298C181.987 28.298 182.873 28.1758 183.361 28.1147C183.483 28.0536 183.606 27.9315 183.606 27.7482Z" fill="#0099CC"/>
<path fill-rule="evenodd" clip-rule="evenodd" d="M169.677 12.7205C168.089 11.4682 166.379 11.01 164.424 10.9184C160.178 10.674 157.887 12.3845 156.727 13.759C154.833 16.0498 154.772 18.7682 154.772 19.7151C154.772 23.2277 156.177 25.2741 157.185 26.221C159.506 28.4813 162.897 28.634 163.752 28.634C166.898 28.634 168.853 27.4733 169.83 26.6792C170.991 25.7017 172.793 23.5331 172.793 19.7456C172.762 17.0883 171.754 14.4309 169.677 12.7205ZM163.782 24.7243C161.919 24.7243 160.942 23.6553 160.575 23.0749C160.239 22.5557 159.72 21.3339 159.72 19.7151C159.72 17.241 160.789 15.8054 161.675 15.2862C162.377 14.8586 163.324 14.7975 163.538 14.7975C164.851 14.7975 165.523 15.1335 165.982 15.4389C166.959 16.1109 167.753 17.3937 167.753 19.9289C167.753 22.4335 166.531 24.7243 163.782 24.7243Z" fill="#0099CC"/>
<path fill-rule="evenodd" clip-rule="evenodd" d="M145.639 11.01C143.593 11.01 142.279 11.7736 141.668 12.2929C141.302 12.5372 141.21 12.7205 140.966 13.026L140.935 11.7126C140.905 11.5293 140.752 11.3766 140.599 11.3766H136.934C136.72 11.3766 136.507 11.5904 136.507 11.7736V32.452C136.507 32.6353 136.72 32.8186 136.904 32.8491H141.088C141.302 32.8491 141.485 32.6353 141.485 32.4215V27.0152C142.921 27.901 143.837 28.4202 145.578 28.4202C147.166 28.4202 148.144 28.0537 148.694 27.8093C149.243 27.565 150.404 26.8014 151.32 25.3963C151.931 24.4189 152.817 22.5252 152.848 19.6846C152.848 17.3327 152.298 14.8586 150.618 13.087C148.846 11.1628 146.586 11.01 145.639 11.01ZM148.174 19.6846C148.174 21.4867 147.747 22.4641 147.38 23.1972C147.105 23.7164 146.403 24.9382 144.723 24.9382C143.959 24.9382 143.379 24.6633 143.135 24.48C142.738 24.2662 142.432 23.9302 142.157 23.5942C141.241 22.2198 141.302 20.2038 141.302 19.8373C141.302 16.2025 143.012 14.5532 144.845 14.5532C144.967 14.5532 145.242 14.5532 145.548 14.6448C146.128 14.7975 146.647 15.164 147.014 15.5917C148.235 17.0272 148.174 19.1959 148.174 19.6846Z" fill="#0099CC"/>
<path fill-rule="evenodd" clip-rule="evenodd" d="M129.634 17.6992L127.435 17.2105C126.885 17.0884 125.663 16.9356 125.175 16.5996C124.93 16.4164 124.716 16.1109 124.716 15.8055C124.716 15.5306 124.869 15.103 125.48 14.7975C125.694 14.7059 126.335 14.5226 127.038 14.5226C128.107 14.5226 129.451 15.0113 130.337 15.5611C130.55 15.6833 130.734 15.8055 130.917 15.9582C131.07 16.0804 131.375 16.0499 131.528 15.9277L133.941 13.6979C134.093 13.5452 134.093 13.3009 133.971 13.1787C133.635 12.9343 133.269 12.7205 132.902 12.5067C130.367 11.0712 127.893 10.8879 126.824 10.8879C123.098 10.8879 121.204 12.6289 120.44 14.0034C119.829 15.0724 119.738 16.0499 119.738 16.508C119.738 16.9051 119.799 17.6992 120.257 18.585C121.112 20.2649 122.731 21.0591 126.213 21.6394C128.015 21.9143 129.481 22.0671 129.512 23.2277C129.512 24.1441 128.504 24.5717 127.771 24.7244C127.221 24.8466 126.763 24.8771 126.549 24.8771C125.175 24.8771 123.647 24.2357 122.578 23.3805C122.365 23.2277 122.151 23.0445 121.967 22.8612C121.815 22.7085 121.509 22.739 121.357 22.8917L118.821 25.152C118.669 25.3047 118.669 25.5491 118.821 25.6713C119.188 26.0073 119.768 26.5265 120.532 26.9847C122.975 28.4813 125.755 28.6646 126.671 28.6646C129.206 28.6646 132.291 27.8094 133.757 25.5796C134.032 25.152 134.552 24.1746 134.552 22.8001C134.613 19.6235 132.322 18.2796 129.634 17.6992Z" fill="#0099CC"/>
<path fill-rule="evenodd" clip-rule="evenodd" d="M118.699 27.7483L112.804 17.5159L118.333 11.8042C118.485 11.6209 118.394 11.4071 118.241 11.4071H113.201C113.018 11.4071 112.774 11.4377 112.407 11.8347L107.215 17.1494V5.84807C107.184 5.6648 107.031 5.51208 106.848 5.48154H102.755C102.572 5.51208 102.358 5.69535 102.358 5.87861V27.7177C102.358 27.901 102.572 28.1148 102.786 28.1148H106.756C106.97 28.1148 107.184 27.901 107.184 27.6872V22.8917L109.292 20.8758L113.293 27.7177C113.415 27.901 113.69 28.1148 113.965 28.1148H118.516C118.73 28.1453 118.882 27.9926 118.699 27.7483Z" fill="#0099CC"/>
<path fill-rule="evenodd" clip-rule="evenodd" d="M100.464 15.2862V11.4681C100.464 11.3154 100.342 11.2238 100.19 11.2238C99.5787 11.2849 98.7234 11.407 97.5627 11.8652C96.4631 12.3234 96.0355 12.751 95.6079 13.1175V11.7125C95.5774 11.5598 95.4246 11.407 95.2719 11.407H91.2706C91.0568 11.407 90.843 11.6209 90.843 11.8347V27.7482C90.843 27.962 91.0568 28.1758 91.2706 28.1758H95.333C95.5468 28.1758 95.7606 27.962 95.7606 27.7482V18.7071C95.7606 17.4548 95.9744 16.6301 97.2878 16.1719C97.8987 15.9581 98.6623 15.8665 98.8151 15.8054L100.128 15.5916C100.342 15.5916 100.464 15.4694 100.464 15.2862Z" fill="#0099CC"/>
<path fill-rule="evenodd" clip-rule="evenodd" d="M88.2773 24.3273C88.4911 24.0218 88.3078 23.8997 88.1551 23.8386L84.7342 22.8612C84.5815 22.8306 84.3982 22.8306 84.2149 23.075C84.1844 23.1055 84.1844 23.1361 84.1538 23.1361C83.7262 23.7164 83.1153 24.3578 82.2296 24.6633C81.5576 24.9076 80.9162 24.9382 80.6107 24.9382C78.6253 24.9382 77.2509 23.7164 76.8538 21.7616C76.7621 21.3034 76.7927 20.9369 76.7927 20.7536H88.3689C88.5217 20.7536 88.766 20.7536 88.766 20.2955C88.7355 19.0431 88.5522 16.1415 86.9028 13.8812C84.8258 10.9489 81.4659 10.8268 80.3664 10.8268C76.7011 10.8268 74.9295 12.3234 73.9215 13.4841C71.8445 15.8971 71.7834 19.0126 71.7834 20.0206C71.7834 23.808 73.5245 27.0763 77.2509 28.2369C78.5643 28.6646 79.7555 28.6951 80.2747 28.6951C81.527 28.6951 84.7342 28.4813 87.2082 25.7323C87.4526 25.4269 87.758 25.0604 88.2773 24.3273ZM77.1898 16.4469C77.4341 15.8666 78.3504 14.431 80.3053 14.431C80.5802 14.431 81.13 14.431 81.8019 14.767C83.4819 15.5 83.5735 17.2105 83.6346 17.7603H76.7927C76.9149 17.0883 77.0676 16.7218 77.1898 16.4469Z" fill="#0099CC"/>
<path fill-rule="evenodd" clip-rule="evenodd" d="M66.5298 28.1453C66.6825 28.1453 66.8658 28.0842 66.9574 27.7482L72.4859 5.87859C72.5775 5.45097 72.3026 5.45097 72.1499 5.45097H67.385C67.2323 5.45097 66.9574 5.45097 66.8658 5.8175L63.6281 21.059L59.5046 5.87859C59.413 5.45097 59.1381 5.45097 58.9854 5.45097H54.7703C54.6175 5.45097 54.3732 5.45097 54.2816 5.75642L50.2497 21.0285L47.012 5.87859C46.9204 5.48152 46.6761 5.51206 46.4928 5.51206H41.6974C41.5141 5.51206 41.2392 5.51206 41.3614 5.93968L46.8899 27.7788C46.9815 28.1453 47.1648 28.1758 47.348 28.2064H52.4489C52.6322 28.2064 52.846 28.2064 52.9682 27.8093L56.9694 13.6979L60.9402 27.8399C61.0624 28.1453 61.2762 28.1453 61.4289 28.1453H66.5298Z" fill="#0099CC"/>
<path d="M17 34C26.3888 34 34 26.3888 34 17C34 7.61116 26.3888 0 17 0C7.61116 0 0 7.61116 0 17C0 26.3888 7.61116 34 17 34Z" fill="#0099CC"/>
<path fill-rule="evenodd" clip-rule="evenodd" d="M16.7484 5.97675H16.8194L27.5815 19.8464H6.03259L16.7484 5.97675Z" fill="#E8E8E9"/>
<path d="M16.7806 16.7225L27.5827 19.8379C27.6701 19.4885 27.6701 19.1391 27.6118 18.848L25.894 11.1613C25.7484 10.579 25.1952 9.85105 24.6711 9.589L17.7997 6.18241C17.5376 6.03682 17.1591 5.97859 16.8097 5.97859V16.7225H16.7806Z" fill="#F6F8F8"/>
<path d="M16.7807 16.7225V5.97859C16.4313 5.97859 16.0528 6.03682 15.7908 6.18241L8.91934 9.589C8.36613 9.85105 7.81292 10.5498 7.69646 11.1613L6.00772 18.848C5.94948 19.1391 5.94948 19.4885 6.03683 19.8379L16.7807 16.7225Z" fill="#DEE3E9"/>
<path d="M16.7807 16.7224L6.00769 19.8379C6.09504 20.1873 6.24062 20.5367 6.41532 20.7987L11.1904 26.9422C11.5689 27.4081 12.355 27.8157 12.9665 27.8157H15.2084L14.0438 22.2545H19.4885L18.353 27.8157H20.5949C21.2064 27.8157 21.9925 27.4372 22.371 26.9422L27.1461 20.7987C27.3208 20.5658 27.4664 20.2164 27.5537 19.8379L16.7807 16.7224Z" fill="#C2CDD6"/>
</svg>
