<?xml version="1.0" encoding="UTF-8"?>
<svg id="Layer_1" data-name="Layer 1" xmlns="http://www.w3.org/2000/svg" viewBox="0 0 1176.51 763.3">
  <defs>
    <style>
      .cls-1 {
        fill: #005ea4;
        stroke-width: 0px;
      }
    </style>
  </defs>
  <g>
    <path class="cls-1" d="M359.87,382.1c-14.59,0-25.84,10.42-25.84,27.09s11.25,27.09,25.84,27.09,25.64-10.42,25.64-27.09-11.25-27.09-25.64-27.09Z"/>
    <path class="cls-1" d="M364.68,19.45C164.64,19.45,2.48,181.61,2.48,381.65s162.16,362.2,362.2,362.2,362.2-162.16,362.2-362.2S564.72,19.45,364.68,19.45ZM22.34,376.96C22.34,191.68,172.56,41.48,357.84,41.48c62.56,0,121.16,17.13,171.3,46.98-44.62-21.98-94.87-34.32-147.97-34.32-185.29,0-335.51,150.2-335.51,335.51,0,122.56,65.72,229.76,163.85,288.3C98.62,623.22,22.34,509,22.34,376.96ZM270.06,460.25h-24.8c-1.88,0-3.54-.83-3.96-2.5l-30.84-105.87-31.05,105.87c-.42,1.67-2.09,2.5-3.96,2.5h-24.8c-1.88,0-3.55-.83-3.96-2.5l-41.68-139.84c-.62-2.08.2-3.54,2.5-3.54h24.38c1.67,0,3.34.63,3.55,2.5l28.76,102.95,31.25-102.95c.62-1.88,1.67-2.5,3.55-2.5h22.71c1.88,0,2.91.63,3.54,2.5l31.26,102.95,28.76-102.95c.41-1.88,1.88-2.5,3.54-2.5h24.39c2.29,0,3.12,1.46,2.5,3.54l-41.68,139.84c-.42,1.67-2.09,2.5-3.96,2.5ZM359.87,462.75c-30.84,0-53.55-23.34-53.55-53.56s22.71-53.56,53.55-53.56,53.35,23.34,53.35,53.56-22.71,53.56-53.35,53.56ZM489.7,380.64c0,2.5-1.46,3.13-4.16,2.5-2.3-.63-4.59-1.04-7.51-1.04-14.17,0-21.67,9.38-21.67,23.97v51.06c0,1.73-1.4,3.13-3.13,3.13h-22.51c-1.73,0-3.12-1.4-3.12-3.13v-86.11c0-1.02.49-1.99,1.33-2.57,5.9-4.01,12.67-6.94,20.12-8.36,1.4-.27,2.79-.42,4.18-.52,1.14-.09,2.19.74,2.29,1.87,0,0,0,.02,0,.03l.84,13.13c3.54-10.84,10-18.97,22.09-18.97,4.79,0,7.71,1.25,9.38,2.5,1.46,1.04,1.88,2.29,1.88,4.16v18.34ZM532.21,457.12c0,1.73-1.4,3.13-3.13,3.13h-22.37c-1.92,0-3.47-1.55-3.47-3.47v-132.49c0-1.13.54-2.21,1.48-2.85,5.87-3.97,12.59-6.87,20-8.27,1.69-.32,3.37-.51,5.04-.62,1.27-.09,2.44.86,2.45,2.13v142.44ZM652.46,460.25h-20.21c-1.88,0-3.13-1.25-3.13-3.13l-.41-11.26c-7.09,10.42-18.13,16.88-33.34,16.88-28.76,0-48.56-23.13-48.56-53.56s19.8-53.56,48.56-53.56c14.17,0,24.59,5.21,31.46,14.38v-45.78c0-1.09.52-2.12,1.42-2.73,5.89-3.99,12.64-6.91,20.07-8.31,1.81-.34,3.61-.54,5.4-.65,1.07-.07,2.07.73,2.08,1.81v142.57c0,1.84-1.49,3.33-3.33,3.33Z"/>
    <path class="cls-1" d="M601.4,381.89c-15.21,0-26.46,11.04-26.46,27.3s11.25,27.3,26.46,27.3,25.84-10.84,25.84-27.3-10.63-27.3-25.84-27.3Z"/>
  </g>
  <g>
    <g>
      <path class="cls-1" d="M772.64,457.14v-139.63c0-1.88,1.25-3.13,3.13-3.13h73.15c1.88,0,3.34,1.25,3.34,3.13v20.21c0,1.88-1.46,3.13-3.34,3.13h-46.47v31.26h43.76c1.88,0,3.34,1.25,3.34,3.13v20.21c0,1.88-1.46,3.13-3.34,3.13h-43.76v58.56c0,1.88-1.25,3.13-3.13,3.13h-23.55c-1.88,0-3.13-1.25-3.13-3.13Z"/>
      <path class="cls-1" d="M977.5,408.8c0-30.01,21.04-53.14,52.51-53.14s48.97,22.92,48.97,48.77c0,10-2.29,15.63-11.25,15.63h-62.1c3.13,12.92,13.75,20.01,30.22,20.01,7.92,0,15.42-1.46,23.75-6.25,1.46-.83,2.5-.63,3.55.84l7.7,10.63c1.05,1.46.84,2.92-1.04,4.59-8.75,8.75-21.89,12.92-36.26,12.92-33.55,0-56.05-23.13-56.05-53.97ZM1053.36,399.83c-1.67-13.54-10.84-20.42-23.13-20.42s-22.51,6.88-25.02,20.42h48.15Z"/>
    </g>
    <path class="cls-1" d="M1120.25,312.56c-1.78.11-3.58.3-5.38.65-7.44,1.41-14.19,4.32-20.07,8.32-.9.61-1.42,1.65-1.42,2.74v132.89c0,1.73,1.4,3.13,3.13,3.13h22.71c1.73,0,3.13-1.4,3.13-3.13v-142.75s0-.02,0-.02c0-1.08-1.01-1.88-2.08-1.81Z"/>
    <path class="cls-1" d="M955.84,360.1c-7.43,1.41-14.18,4.32-20.06,8.31-.9.61-1.42,1.65-1.42,2.74v43.07c0,14.38-7.92,22.09-20,22.09s-18.96-7.71-18.96-22.09v-52.93s0-.02,0-.02c0-1.07-1-1.86-2.07-1.8-1.72.11-3.44.3-5.18.63-7.44,1.41-14.2,4.33-20.09,8.33-.9.61-1.42,1.65-1.42,2.74v49.52c0,26.67,15.42,42.09,36.89,42.09,15.21,0,25.01-7.5,30.84-17.92l.84,12.09c.21,2.5,1.25,3.33,3.13,3.33h21.46c1.84,0,3.34-1.49,3.34-3.34v-95.65s0-.02,0-.02c0-1.07-1.01-1.86-2.08-1.79-1.72.11-3.45.3-5.19.63Z"/>
  </g>
  <path class="cls-1" d="M1144.39,294.47v-15.11h-5.65v-3.17h14.85v3.17h-5.49v15.11h-3.7ZM1155.79,294.47v-18.28h5.78l3.33,12.59,3.35-12.59h5.78v18.28h-3.53v-14.58l-3.95,14.58h-3.35l-3.93-14.58v14.58h-3.48,0Z"/>
</svg>