<?xml version="1.0" standalone="no"?>
<!DOCTYPE svg PUBLIC "-//W3C//DTD SVG 20010904//EN"
 "http://www.w3.org/TR/2001/REC-SVG-20010904/DTD/svg10.dtd">
<svg version="1.0" xmlns="http://www.w3.org/2000/svg"
 width="1148.000000pt" height="545.000000pt" viewBox="0 0 1148.000000 545.000000"
 preserveAspectRatio="xMidYMid meet">
<metadata>
Created by potrace 1.16, written by Peter Selinger 2001-2019
</metadata>
<g transform="translate(0.000000,545.000000) scale(0.100000,-0.100000)"
fill="#000000" stroke="none">
<path d="M8500 5434 c-1081 -138 -1981 -961 -2240 -2049 -57 -238 -73 -385
-73 -660 0 -207 3 -275 22 -395 27 -181 59 -319 113 -482 l41 -128 78 0 79 0
0 45 0 45 90 0 90 0 0 660 0 660 -90 0 -90 0 0 40 0 40 470 0 470 0 0 35 0 35
55 0 55 0 0 -175 0 -175 -55 0 -55 0 0 80 0 80 -240 0 -240 0 0 -275 0 -275
185 0 185 0 0 80 0 80 55 0 55 0 -2 -218 -3 -217 -52 -3 -53 -3 0 80 0 81
-185 0 -185 0 0 -305 0 -305 75 0 75 0 0 -45 0 -45 433 0 432 0 -43 36 c-23
20 -53 55 -65 78 -21 40 -22 51 -25 413 l-3 373 -79 0 -80 0 0 29 c0 20 6 31
18 35 135 41 321 86 352 86 l39 0 3 -418 c3 -381 5 -420 21 -450 34 -62 132
-79 219 -38 20 10 67 45 103 78 l65 60 0 309 0 309 -60 0 -60 0 0 34 0 33 158
42 c87 22 171 41 185 41 l27 0 0 -455 0 -455 80 0 80 0 0 -34 0 -34 -112 -27
c-62 -15 -117 -32 -122 -36 -6 -5 140 -9 337 -9 191 0 347 2 347 5 0 2 -26 17
-57 32 -295 143 -354 638 -104 876 66 64 136 101 223 122 115 27 264 13 356
-34 133 -68 212 -216 212 -398 l0 -43 -340 0 -340 0 0 -42 c0 -68 27 -178 60
-245 56 -114 152 -173 281 -173 68 0 136 23 230 78 l66 39 21 -43 c16 -32 18
-45 9 -52 -7 -6 -59 -33 -116 -61 -58 -28 -107 -53 -109 -56 -3 -3 88 -5 201
-5 l207 0 0 45 0 45 70 0 70 0 0 715 0 715 -75 0 -75 0 0 29 c0 27 5 31 53 45
160 45 287 76 315 76 l32 0 0 -790 0 -790 70 0 70 0 0 -45 0 -45 94 0 94 0 31
86 c135 371 180 817 125 1219 -138 1004 -860 1830 -1810 2071 -225 57 -331 69
-594 69 -178 0 -262 -5 -345 -18 -228 -38 -420 -95 -630 -188 -145 -64 -106
-35 70 51 230 113 481 190 740 226 144 20 446 23 585 5 628 -80 1184 -384
1592 -871 594 -707 757 -1710 421 -2580 -197 -510 -540 -928 -1033 -1257 -246
-164 -567 -300 -851 -362 -357 -77 -726 -75 -1085 5 -354 78 -727 256 -1007
481 -38 30 -71 53 -73 50 -7 -7 109 -110 211 -187 357 -269 784 -443 1240
-505 163 -23 633 -17 775 9 272 51 472 116 716 236 282 138 512 307 741 543
400 414 649 930 741 1530 25 163 24 626 -1 787 -81 517 -271 956 -584 1350
-86 108 -293 316 -403 404 -385 309 -826 497 -1317 561 -142 19 -505 18 -653
-1z"/>
<path d="M4323 3352 l-163 -45 0 -39 0 -38 75 0 75 0 0 -705 0 -705 -65 0 -65
0 0 -50 0 -50 270 0 270 0 0 50 0 50 -65 0 -65 0 0 790 0 790 -52 -1 c-29 -1
-126 -22 -215 -47z"/>
<path d="M5575 3365 c-66 -18 -139 -38 -162 -44 -41 -11 -43 -13 -43 -51 l0
-40 75 0 75 0 0 -236 0 -236 -22 7 c-13 4 -61 9 -108 12 -263 15 -488 -151
-557 -410 -26 -98 -21 -253 11 -352 14 -44 38 -100 54 -125 41 -64 123 -137
190 -168 50 -24 69 -27 162 -27 118 0 155 13 230 82 l40 35 0 -56 0 -56 64 0
c44 0 114 13 215 40 82 22 152 40 155 40 4 0 6 20 6 45 l0 45 -80 0 -80 0 0
765 0 765 -52 -1 c-29 0 -107 -15 -173 -34z m-119 -710 c61 -25 64 -44 64
-394 l0 -309 -37 -32 c-176 -155 -368 14 -367 325 0 167 58 306 156 373 72 50
128 61 184 37z"/>
<path d="M0 3185 l0 -54 66 -3 66 -3 277 -710 277 -710 80 -3 79 -3 159 408
c87 224 161 411 165 415 3 4 79 -178 167 -405 l161 -412 80 -3 79 -3 279 716
280 715 57 0 58 0 0 55 0 55 -225 0 -225 0 0 -55 0 -55 76 0 c68 0 75 -2 70
-17 -88 -238 -392 -1001 -397 -995 -7 7 -388 963 -396 995 -5 15 3 17 61 17
l66 0 0 55 0 55 -275 0 -275 0 0 -55 0 -55 64 0 65 0 71 -182 72 -183 -108
-275 c-124 -317 -143 -364 -148 -359 -7 6 -386 981 -386 990 0 5 25 9 55 9
l55 0 0 55 0 55 -275 0 -275 0 0 -55z"/>
<path d="M2516 2764 c-127 -31 -250 -123 -315 -237 -99 -174 -92 -441 15 -605
98 -150 254 -232 439 -232 248 0 440 145 511 386 21 72 24 225 5 304 -46 191
-188 336 -377 385 -72 18 -199 18 -278 -1z m191 -115 c68 -25 127 -111 159
-230 35 -132 18 -364 -35 -468 -48 -92 -129 -149 -196 -137 -82 16 -158 115
-190 247 -22 94 -20 268 5 364 45 176 147 266 257 224z"/>
<path d="M3505 2745 c-66 -18 -139 -38 -162 -44 -41 -11 -43 -13 -43 -51 l0
-40 75 0 75 0 0 -395 0 -395 -65 0 -65 0 0 -50 0 -50 285 0 285 0 0 50 0 50
-80 0 -80 0 0 314 0 313 54 52 c65 60 84 63 150 20 26 -17 49 -30 51 -28 8 9
145 200 145 204 0 2 -23 22 -51 44 -43 34 -59 41 -96 41 -65 0 -107 -22 -184
-96 l-69 -67 0 81 0 82 -52 -1 c-29 0 -107 -15 -173 -34z"/>
<path d="M9478 2660 c-68 -36 -123 -126 -142 -232 l-7 -38 207 0 207 0 -6 68
c-11 113 -42 178 -97 207 -40 21 -117 18 -162 -5z"/>
<path d="M8450 1845 c-30 -31 -76 -70 -102 -87 -27 -16 -48 -32 -48 -34 0 -2
50 -4 110 -4 l110 0 0 90 c0 50 -4 90 -8 90 -4 0 -32 -25 -62 -55z"/>
<path d="M7380 1393 c0 -5 -33 -7 -72 -5 -121 5 -178 -40 -186 -145 -5 -77 18
-111 128 -186 127 -85 144 -114 95 -162 -29 -30 -80 -33 -131 -9 -29 14 -34
21 -34 50 0 31 -3 34 -30 34 l-30 0 0 -80 0 -80 29 0 c16 0 31 5 33 11 3 9 10
9 27 0 37 -20 145 -16 183 6 53 31 78 77 78 142 0 82 -22 117 -115 178 -103
69 -125 91 -125 123 0 51 52 77 110 54 34 -14 40 -21 40 -45 0 -26 4 -29 30
-29 l30 0 0 75 0 75 -30 0 c-16 0 -30 -3 -30 -7z"/>
<path d="M11185 1221 c-110 -29 -176 -113 -177 -226 -1 -142 95 -235 241 -235
92 0 155 33 202 108 25 40 29 56 29 118 0 40 -4 84 -9 97 -15 39 -70 96 -114
118 -44 23 -126 32 -172 20z m134 -71 c76 -38 113 -119 92 -199 -36 -138 -184
-181 -282 -82 -138 138 18 369 190 281z"/>
<path d="M11188 1113 l-38 -4 0 -120 0 -119 35 0 c35 0 35 0 35 45 0 37 3 45
19 45 24 0 37 -17 46 -57 6 -30 10 -33 42 -33 34 0 34 1 28 33 -4 17 -13 44
-21 58 -12 23 -11 29 1 39 24 20 19 77 -7 94 -27 16 -87 25 -140 19z"/>
<path d="M7655 1202 c-147 -69 -155 -305 -13 -378 49 -25 146 -21 212 9 60 28
61 29 46 57 -10 18 -12 18 -66 -7 -51 -23 -58 -24 -91 -12 -46 18 -73 54 -80
107 l-6 42 128 0 128 0 -6 52 c-11 90 -64 140 -154 145 -42 3 -69 -2 -98 -15z"/>
<path d="M8028 1202 c-43 -12 -58 -21 -58 -34 0 -13 8 -18 30 -18 l30 0 0
-145 0 -145 -25 0 c-18 0 -25 -5 -25 -20 0 -19 7 -20 110 -20 103 0 110 1 110
20 0 16 -7 20 -30 20 l-30 0 0 115 c0 103 2 117 21 136 19 19 22 19 44 5 23
-15 25 -14 55 27 l31 42 -22 18 c-30 24 -62 21 -98 -9 l-31 -26 0 26 c0 22 -4
26 -27 25 -16 -1 -54 -9 -85 -17z"/>
<path d="M8838 1202 c-43 -12 -58 -21 -58 -34 0 -13 8 -18 30 -18 l30 0 0
-145 0 -145 -25 0 c-18 0 -25 -5 -25 -20 0 -19 7 -20 105 -20 98 0 105 1 105
20 0 15 -7 20 -25 20 l-25 0 0 180 0 180 -27 -1 c-16 -1 -54 -9 -85 -17z"/>
<path d="M9197 1210 c-46 -14 -94 -57 -116 -103 -23 -48 -28 -137 -10 -184 13
-35 55 -80 94 -101 43 -22 130 -20 188 6 51 23 52 24 37 52 -10 18 -11 18 -57
-2 -45 -20 -48 -20 -78 -3 -46 24 -79 88 -79 152 0 56 17 90 67 126 l26 20 35
-26 c19 -15 39 -27 44 -27 12 0 52 44 52 57 0 29 -144 53 -203 33z"/>
<path d="M9575 1201 c-147 -66 -155 -304 -13 -377 49 -25 146 -21 212 9 60 28
61 29 46 57 -10 18 -12 18 -66 -7 -51 -23 -58 -24 -91 -12 -46 18 -73 54 -80
107 l-6 42 127 0 126 0 0 37 c0 20 -9 56 -21 79 -36 76 -144 106 -234 65z"/>
<path d="M9974 1206 c-44 -20 -64 -52 -64 -107 0 -64 29 -96 124 -138 60 -26
78 -39 83 -59 8 -34 -20 -55 -66 -48 -48 7 -81 32 -81 61 0 21 -5 25 -30 25
l-30 0 0 -65 c0 -63 1 -65 25 -65 14 0 25 5 25 10 0 7 7 7 20 0 27 -14 127
-15 162 -2 40 16 62 56 62 115 0 45 -4 53 -36 81 -20 17 -60 40 -89 50 -51 19
-89 46 -89 65 0 19 32 41 59 41 39 0 81 -34 74 -60 -4 -17 0 -20 24 -20 29 0
30 2 39 65 l10 65 -27 0 c-15 0 -29 -5 -31 -11 -2 -7 -12 -7 -31 0 -38 15 -95
13 -133 -3z"/>
<path d="M8340 1185 c0 -14 6 -25 13 -25 8 0 42 -73 84 -177 95 -238 92 -238
181 -1 52 137 71 178 85 178 11 0 17 8 17 25 0 24 -2 25 -70 25 -67 0 -70 -1
-70 -24 0 -18 6 -25 24 -28 l24 -3 -31 -82 c-17 -46 -34 -83 -38 -83 -7 0 -69
147 -69 163 0 4 7 7 15 7 9 0 15 9 15 25 0 25 -1 25 -90 25 -89 0 -90 0 -90
-25z"/>
</g>
</svg>
