<?xml version="1.0" encoding="UTF-8"?>
<svg id="Layer_1" data-name="Layer 1" xmlns="http://www.w3.org/2000/svg" viewBox="0 0 1397.46 763.3">
  <defs>
    <style>
      .cls-1 {
        fill: #005ea4;
        stroke-width: 0px;
      }
    </style>
  </defs>
  <g>
    <path class="cls-1" d="M358.29,382.1c-14.6,0-25.86,10.43-25.86,27.12s11.26,27.11,25.86,27.11,25.66-10.43,25.66-27.11-11.26-27.12-25.66-27.12Z"/>
    <path class="cls-1" d="M600.01,381.89c-15.23,0-26.49,11.05-26.49,27.32s11.26,27.32,26.49,27.32,25.86-10.85,25.86-27.32-10.64-27.32-25.86-27.32Z"/>
    <path class="cls-1" d="M363.09,19.15C162.89,19.15.6,181.45.6,381.64c0,199.68,162.83,362.51,362.51,362.51,200.2,0,362.49-162.3,362.49-362.49,0-199.68-162.83-362.51-362.51-362.51ZM20.48,376.96C20.48,191.52,170.82,41.2,356.26,41.2c62.62,0,121.26,17.14,171.44,47.01-44.66-22-94.94-34.35-148.1-34.35-185.44,0-335.78,150.33-335.78,335.79,0,122.66,65.77,229.95,163.99,288.53C96.82,623.42,20.48,509.1,20.48,376.96ZM268.4,460.31h-24.82c-1.88,0-3.54-.83-3.96-2.5l-30.86-105.95-31.08,105.95c-.42,1.67-2.09,2.5-3.96,2.5h-24.82c-1.88,0-3.55-.83-3.96-2.5l-41.71-139.95c-.63-2.08.2-3.55,2.5-3.55h24.4c1.67,0,3.34.63,3.55,2.5l28.78,103.03,31.28-103.03c.63-1.88,1.67-2.5,3.55-2.5h22.73c1.88,0,2.92.63,3.54,2.5l31.29,103.03,28.78-103.03c.41-1.88,1.88-2.5,3.54-2.5h24.41c2.29,0,3.13,1.46,2.5,3.55l-41.71,139.95c-.42,1.67-2.09,2.5-3.96,2.5ZM358.29,462.81c-30.86,0-53.6-23.36-53.6-53.6s22.73-53.6,53.6-53.6,53.39,23.36,53.39,53.6-22.73,53.6-53.39,53.6ZM488.22,380.64c0,2.5-1.46,3.13-4.17,2.5-2.3-.63-4.59-1.04-7.51-1.04-14.18,0-21.68,9.39-21.68,23.99v51.1c0,1.73-1.4,3.13-3.13,3.13h-22.53c-1.73,0-3.13-1.4-3.13-3.13v-86.18c0-1.02.49-1.99,1.34-2.57,5.9-4.02,12.68-6.95,20.14-8.36,1.43-.27,2.85-.42,4.27-.53,1.12-.08,2.1.76,2.2,1.88v.03s.84,13.14.84,13.14c3.54-10.85,10.01-18.98,22.11-18.98,4.79,0,7.72,1.25,9.38,2.51,1.46,1.04,1.88,2.29,1.88,4.17v18.36ZM530.77,457.18c0,1.73-1.4,3.13-3.13,3.13h-22.39c-1.92,0-3.47-1.55-3.47-3.47v-132.59c0-1.13.54-2.21,1.48-2.85,5.87-3.97,12.6-6.87,20.01-8.27,1.75-.33,3.48-.52,5.21-.63,1.25-.08,2.28.88,2.28,2.14v.03s0,142.53,0,142.53ZM651.32,460.31h-20.43c-1.88,0-3.14-1.25-3.14-3.13l-.41-11.26c-7.09,10.43-18.14,16.89-33.37,16.89-28.78,0-48.6-23.15-48.6-53.6s19.82-53.6,48.6-53.6c14.18,0,24.61,5.22,31.49,14.39v-45.93c0-1.02.49-1.99,1.33-2.57,5.91-4.02,12.7-6.97,20.17-8.38,1.81-.34,3.61-.54,5.4-.65,1.08-.07,2.07.73,2.08,1.81,0,0,0,.02,0,.02v142.87c0,1.73-1.4,3.13-3.13,3.13Z"/>
  </g>
  <g>
    <g>
      <path class="cls-1" d="M775.28,457.29v-139.74c0-1.73,1.4-3.13,3.13-3.13h23.57c1.73,0,3.13,1.4,3.13,3.13v64.45l48.39-65.91c1.03-1.25,2.28-1.67,3.75-1.67h28.57c2.71,0,3.13,1.88,1.67,3.76l-48.39,61.32,54.23,77.17c1.45,2.08.63,3.75-1.88,3.75h-27.32c-1.67,0-2.71-.42-3.75-1.88l-39.43-55.69-15.84,19.82v34.62c0,1.73-1.4,3.13-3.13,3.13h-23.57c-1.73,0-3.13-1.4-3.13-3.13Z"/>
      <path class="cls-1" d="M1067.68,408.9c0-30.03,21.06-53.19,52.56-53.19s49.01,22.94,49.01,48.81c0,10.01-2.3,15.64-11.26,15.64h-62.15c3.13,12.93,13.76,20.02,30.24,20.02,7.92,0,15.43-1.46,23.78-6.26,1.45-.83,2.5-.63,3.54.84l7.72,10.64c1.04,1.46.83,2.92-1.05,4.59-8.76,8.76-21.9,12.93-36.28,12.93-33.58,0-56.11-23.15-56.11-54.02ZM1143.6,399.93c-1.67-13.56-10.85-20.44-23.15-20.44s-22.53,6.88-25.03,20.44h48.19Z"/>
      <path class="cls-1" d="M1178.43,408.9c0-30.24,22.73-53.19,53.39-53.19,16.89,0,30.87,7.09,39.63,18.36,1.25,1.46.83,3.13-.42,4.38l-12.51,12.3c-1.67,1.67-3.96,1.46-5.43,0-5.63-5.63-11.68-8.55-20.02-8.55-16.27,0-26.91,11.68-26.91,26.7s10.64,27.53,27.53,27.53c7.93,0,13.97-2.92,19.6-8.55,1.46-1.46,3.75-1.67,5.42,0l12.52,12.31c1.25,1.25,1.67,2.92.41,4.38-8.76,11.26-22.73,18.35-39.21,18.35-31.08,0-54.02-23.36-54.02-54.02Z"/>
    </g>
    <g>
      <path class="cls-1" d="M922.32,340.07c9.17,0,15.84-7.09,15.84-16.06s-6.67-15.85-15.84-15.85-16.06,7.09-16.06,15.85,6.88,16.06,16.06,16.06Z"/>
      <path class="cls-1" d="M934.66,359.54c-1.8.11-3.61.3-5.43.65-7.48,1.42-14.27,4.36-20.18,8.38-.84.58-1.33,1.55-1.33,2.57v86.15c0,1.73,1.4,3.13,3.13,3.13h22.74c1.73,0,3.13-1.4,3.13-3.13v-95.94s0-.02,0-.02c0-1.06-.99-1.85-2.05-1.78Z"/>
    </g>
    <path class="cls-1" d="M1016.38,355.71c-15.23,0-25.03,7.51-30.87,17.94l-.83-12.1s0-.02,0-.03c0-1.11-1-1.95-2.1-1.87-1.44.11-2.89.26-4.35.54-7.47,1.41-14.25,4.35-20.16,8.38-.84.57-1.33,1.55-1.33,2.57v86.15c0,1.73,1.4,3.13,3.13,3.13h22.52c1.73,0,3.13-1.4,3.13-3.13v-52.98c0-14.39,7.93-22.11,20.03-22.11s18.98,7.72,18.98,22.11v52.98c0,1.73,1.4,3.13,3.13,3.13h22.32c1.84,0,3.33-1.49,3.33-3.33v-59.24c0-26.7-15.64-42.13-36.91-42.13Z"/>
    <path class="cls-1" d="M1340.7,380.53c1.73,0,3.13-1.4,3.13-3.13v-16.06c0-1.73-1.4-3.13-3.13-3.13h-16.06v-23.99s0-.02,0-.02c0-1.06-.99-1.85-2.05-1.78-1.8.11-3.62.3-5.44.65-7.47,1.41-14.26,4.35-20.17,8.38-.84.57-1.33,1.55-1.33,2.57v14.2h-12.93c-1.73,0-3.13,1.4-3.13,3.13v16.06c0,1.73,1.4,3.13,3.13,3.13h12.93v51.31c0,22.32,14.59,29.82,30.86,29.82,6.89,0,17.31-1.25,17.31-6.05v-15.23c0-2.08-1.46-3.13-3.75-2.92-2.5.21-4.59.21-6.47.21-5.43,0-8.97-2.92-8.97-8.97v-48.18h16.06Z"/>
  </g>
  <path class="cls-1" d="M1366.09,312.58v-15.11h-5.65v-3.17h14.85v3.17h-5.49v15.11h-3.7ZM1377.49,312.58v-18.28h5.78l3.33,12.59,3.35-12.59h5.78v18.28h-3.53v-14.58l-3.95,14.58h-3.35l-3.93-14.58v14.58h-3.48,0Z"/>
</svg>