<!DOCTYPE svg PUBLIC "-//W3C//DTD SVG 20010904//EN" "http://www.w3.org/TR/2001/REC-SVG-20010904/DTD/svg10.dtd">
<svg version="1.0" xmlns="http://www.w3.org/2000/svg" width="1148px" height="545px" viewBox="0 0 11480 5450" preserveAspectRatio="xMidYMid meet">
<g id="layer101" fill="#0055a5" stroke="none">
 <path d="M8450 5430 c-354 -55 -664 -164 -955 -337 -125 -74 -324 -218 -410 -298 -60 -55 -43 -49 40 16 270 210 647 388 981 463 349 79 754 81 1094 6 372 -83 693 -235 1025 -486 559 -422 900 -997 1006 -1699 26 -166 31 -508 10 -670 -94 -736 -467 -1370 -1052 -1787 -312 -223 -682 -369 -1074 -424 -146 -21 -456 -23 -600 -5 -255 32 -515 107 -732 211 -117 56 -283 147 -283 155 0 2 60 -25 133 -60 211 -102 409 -165 653 -207 174 -30 541 -32 709 -5 641 106 1188 434 1573 946 508 674 644 1544 370 2359 l-41 122 -93 0 -94 0 0 -45 0 -44 -67 -3 -68 -3 -3 -787 -2 -788 -38 0 c-20 0 -109 20 -197 43 l-160 44 -3 31 -3 31 73 3 73 3 0 710 0 710 -67 3 -68 3 0 44 0 45 -207 0 -208 0 123 -61 c67 -33 122 -64 122 -69 0 -4 -10 -26 -23 -49 -21 -37 -25 -39 -43 -27 -11 8 -57 33 -104 56 -66 34 -98 44 -151 48 -195 14 -332 -134 -355 -381 l-7 -77 342 0 341 0 0 -47 c0 -71 -18 -166 -40 -218 -27 -62 -104 -142 -170 -175 -188 -94 -445 -55 -590 90 -158 158 -196 461 -84 681 35 69 115 151 183 188 34 18 61 34 61 37 0 2 -154 4 -342 4 -188 0 -339 -3 -336 -6 4 -3 42 -15 85 -25 167 -43 153 -36 153 -74 l0 -35 -80 0 -80 0 0 -455 0 -455 -32 0 c-17 0 -83 14 -147 31 -64 17 -133 35 -153 40 -35 9 -38 13 -38 44 l0 34 58 3 57 3 3 300 2 299 -57 59 c-84 85 -134 112 -210 112 -54 0 -65 -3 -91 -28 -17 -17 -35 -48 -41 -72 -7 -28 -11 -185 -11 -434 l0 -391 -42 0 c-24 0 -115 20 -203 43 l-160 44 -3 31 -3 31 78 3 78 3 5 370 c5 336 7 373 24 408 18 36 47 69 91 101 18 14 -27 15 -412 16 l-433 0 0 -45 0 -45 -75 0 -75 0 0 -305 0 -305 185 0 185 0 0 80 0 80 55 0 55 0 0 -220 0 -220 -55 0 -54 0 -3 78 -3 77 -182 3 -183 2 0 -275 0 -275 240 0 240 0 0 80 0 80 55 0 55 0 0 -175 0 -175 -54 0 c-54 0 -55 0 -58 33 l-3 32 -467 3 -468 2 0 40 0 39 88 3 87 3 0 655 0 655 -87 3 -88 3 0 45 0 45 -77 -3 -78 -3 -28 -80 c-295 -841 -160 -1802 357 -2530 124 -175 337 -403 496 -532 360 -290 760 -471 1227 -554 168 -30 547 -38 723 -15 605 80 1121 335 1541 763 136 138 165 170 246 278 278 368 457 802 531 1288 24 162 24 616 -1 777 -129 819 -552 1484 -1222 1923 -288 188 -593 308 -965 379 -159 31 -643 35 -820 8z"/>
 <path d="M8310 3723 c0 -5 17 -18 38 -29 20 -12 67 -50 105 -84 l67 -62 0 91 0 91 -105 0 c-58 0 -105 -3 -105 -7z"/>
 <path d="M9337 3028 c20 -108 90 -215 160 -244 18 -8 53 -14 79 -14 42 0 51 5 89 43 48 47 65 95 68 185 l2 57 -202 3 -203 2 7 -32z"/>
 </g>
<g id="layer102" fill="#6a747c" stroke="none">
 <path d="M11164 4679 c-46 -13 -119 -83 -139 -131 -20 -52 -21 -133 -2 -180 45 -107 175 -168 289 -134 107 31 168 113 168 225 0 96 -55 179 -142 215 -40 17 -124 20 -174 5z m171 -68 c37 -21 72 -72 81 -117 19 -100 -52 -200 -149 -211 -88 -10 -164 41 -187 127 -42 155 118 280 255 201z"/>
 <path d="M11150 4462 l0 -119 51 -5 c64 -6 119 5 136 28 19 26 16 61 -8 83 -14 13 -17 21 -9 26 12 7 23 32 34 78 6 25 4 27 -24 27 -24 0 -33 -6 -41 -27 -20 -50 -26 -58 -47 -61 -18 -3 -21 3 -24 40 -3 40 -5 43 -35 46 l-33 3 0 -119z m128 -46 c4 -20 -13 -36 -40 -36 -13 0 -18 8 -18 31 0 27 3 30 27 27 18 -2 29 -10 31 -22z"/>
 <path d="M7691 4638 c-82 -14 -134 -75 -147 -172 -23 -164 134 -285 276 -213 52 25 93 92 88 142 l-3 30 -122 3 -123 3 0 30 c0 16 6 42 14 57 36 70 95 87 168 48 l48 -25 11 21 c12 23 8 29 -51 55 -49 22 -107 30 -159 21z m99 -297 c0 -70 -82 -85 -115 -20 -24 45 -20 49 50 49 l65 0 0 -29z"/>
 <path d="M8512 4638 c-5 -7 -40 -88 -77 -180 -37 -92 -73 -169 -81 -172 -8 -3 -14 -15 -14 -26 0 -20 5 -21 87 -18 76 3 88 6 91 21 2 12 -3 20 -16 24 -19 4 -18 9 16 94 20 49 38 89 41 89 3 0 19 -35 35 -78 16 -42 31 -82 33 -89 3 -6 -6 -13 -19 -15 -15 -2 -23 -10 -23 -23 0 -18 8 -20 68 -23 66 -3 67 -3 67 23 0 17 -5 25 -18 25 -14 0 -32 36 -81 168 -62 163 -76 192 -91 192 -4 0 -12 -6 -18 -12z"/>
 <path d="M9197 4635 c-84 -21 -137 -95 -137 -190 0 -160 169 -263 311 -189 l31 16 -28 29 c-26 27 -29 28 -48 14 -50 -36 -63 -39 -94 -16 -87 62 -73 234 23 280 26 12 35 12 79 -3 40 -15 50 -15 57 -4 15 22 10 28 -33 47 -62 26 -106 30 -161 16z"/>
 <path d="M9619 4640 c-114 -19 -179 -134 -149 -260 29 -119 155 -182 265 -131 52 24 71 46 86 102 21 77 17 79 -121 79 l-120 0 0 30 c0 17 6 43 14 58 36 70 95 87 168 48 l48 -25 11 21 c12 23 8 29 -51 55 -46 21 -106 30 -151 23z m91 -296 c0 -54 -34 -77 -85 -58 -16 6 -45 54 -45 74 0 6 26 10 65 10 63 0 65 -1 65 -26z"/>
 <path d="M10030 4639 c-19 -3 -43 -10 -52 -14 -11 -4 -18 -3 -18 4 0 6 -11 11 -25 11 -24 0 -25 -2 -25 -65 l0 -65 30 0 c25 0 30 4 30 23 0 31 29 56 72 64 49 7 80 -11 76 -45 -3 -23 -16 -33 -87 -67 -100 -49 -121 -71 -121 -132 0 -85 90 -141 185 -115 24 6 41 7 43 1 2 -5 15 -9 29 -9 25 0 25 1 18 58 -9 70 -10 72 -41 72 -21 0 -24 -4 -19 -19 10 -33 -28 -63 -77 -59 -44 3 -66 24 -55 52 4 9 45 34 91 56 94 43 118 69 120 129 2 88 -73 139 -174 120z"/>
 <path d="M7124 4626 c-3 -7 -4 -42 -2 -77 3 -62 4 -64 31 -67 25 -3 27 -1 27 32 0 29 5 38 30 51 43 22 115 20 140 -5 47 -47 18 -92 -121 -186 -82 -56 -109 -95 -109 -159 0 -56 27 -102 77 -131 38 -23 52 -26 113 -22 39 2 70 0 70 -4 0 -4 14 -8 30 -8 l30 0 0 75 0 75 -29 0 c-26 0 -30 -4 -33 -32 -3 -28 -8 -35 -42 -46 -70 -23 -129 22 -107 82 5 13 46 48 93 78 123 82 148 116 148 202 0 51 -29 99 -79 133 -38 26 -127 32 -178 12 -19 -7 -29 -7 -31 0 -5 16 -52 13 -58 -3z"/>
 <path d="M7980 4610 c0 -15 7 -20 25 -20 l25 0 0 -145 0 -145 -31 0 c-23 0 -30 -4 -27 -17 2 -11 26 -23 71 -35 76 -21 97 -19 97 11 0 20 2 19 36 -4 44 -30 65 -31 89 -5 17 19 17 21 -6 55 -26 38 -31 40 -60 24 -16 -8 -25 -7 -40 7 -17 15 -19 32 -19 135 l0 118 27 3 c17 2 29 10 31 21 3 15 -7 17 -107 17 -104 0 -111 -1 -111 -20z"/>
 <path d="M8790 4610 c0 -15 7 -20 25 -20 l25 0 0 -145 0 -145 -31 0 c-23 0 -30 -4 -27 -16 3 -18 131 -59 155 -50 10 4 13 44 13 180 0 173 0 175 22 178 13 2 24 11 26 21 3 15 -7 17 -102 17 -99 0 -106 -1 -106 -20z"/>
 <path d="M8845 4135 c-30 -29 -31 -45 -4 -79 38 -48 109 -24 109 37 0 26 -40 67 -67 67 -8 0 -25 -11 -38 -25z"/>
 <path d="M2527 3745 c-96 -24 -167 -65 -238 -135 -114 -114 -167 -260 -156 -434 9 -140 51 -245 137 -339 95 -104 204 -154 355 -164 315 -20 556 212 558 537 1 157 -46 283 -144 385 -105 110 -204 154 -359 161 -63 2 -114 -1 -153 -11z m200 -126 c172 -83 218 -540 75 -744 -56 -80 -151 -107 -224 -62 -97 59 -147 195 -148 398 0 182 33 293 110 370 63 63 114 73 187 38z"/>
 <path d="M5156 3749 c-65 -15 -155 -70 -203 -123 -91 -102 -136 -230 -135 -391 1 -274 163 -486 422 -551 64 -16 201 -15 258 2 l22 6 0 -236 0 -236 -75 0 -75 0 0 -38 0 -39 173 -47 c108 -30 189 -46 213 -44 l39 3 3 762 2 762 78 3 77 3 3 40 3 40 -159 43 c-105 27 -181 42 -221 42 l-61 0 0 -56 0 -55 -59 46 c-32 25 -80 53 -107 61 -52 16 -138 17 -198 3z m267 -175 c18 -9 47 -27 65 -41 l32 -24 0 -322 c0 -304 -1 -324 -20 -355 -25 -41 -62 -55 -120 -47 -61 9 -110 36 -154 86 -121 133 -150 387 -65 568 33 72 58 104 104 132 38 24 114 25 158 3z"/>
 <path d="M616 3558 c-41 -106 -167 -427 -279 -713 l-203 -520 -67 -3 -67 -3 0 -54 0 -55 275 0 275 0 0 55 0 54 -59 3 -58 3 196 502 c108 276 199 499 202 495 10 -10 249 -623 249 -637 0 -7 -31 -91 -69 -186 l-68 -174 -64 -5 -64 -5 -3 -52 -3 -53 276 0 276 0 -3 53 -3 52 -66 5 -66 5 202 507 c111 280 203 510 206 512 4 4 399 -1002 399 -1016 0 -5 -34 -8 -75 -8 l-75 0 0 -55 0 -55 226 0 225 0 -3 53 -3 52 -56 3 -57 3 -59 152 c-33 84 -159 405 -279 714 l-219 563 -76 0 -77 0 -72 -182 c-39 -101 -112 -288 -162 -415 -50 -128 -94 -233 -97 -233 -3 0 -78 186 -166 413 l-160 412 -77 3 -76 3 -76 -193z"/>
 <path d="M3320 3680 l0 -50 65 0 65 0 0 -395 0 -395 -75 0 -75 0 0 -38 0 -39 173 -47 c108 -30 189 -46 213 -44 l39 3 3 83 3 83 67 -69 c73 -75 120 -102 177 -102 44 0 80 18 119 59 33 35 37 26 -61 158 l-53 73 -37 -25 c-72 -49 -118 -42 -178 28 l-35 41 0 313 0 313 80 0 80 0 0 50 0 50 -285 0 -285 0 0 -50z"/>
 <path d="M4180 3680 l0 -50 65 0 65 0 0 -705 0 -705 -75 0 -75 0 0 -34 c0 -19 4 -37 8 -40 28 -17 349 -97 380 -94 l37 3 3 788 2 787 65 0 65 0 0 50 0 50 -270 0 -270 0 0 -50z"/>
 </g>

</svg>