<svg width="2075" height="976" viewBox="0 0 2075 976" fill="none" xmlns="http://www.w3.org/2000/svg">
<path d="M824 87L896.865 216.443L988.384 377.182L1041.39 285.387L1094.47 377.339L1148 283H1263.5" stroke="black" stroke-width="41"/>
<circle cx="802" cy="49" r="49" fill="black"/>
<circle cx="1185" cy="136" r="49" fill="black"/>
<path d="M1149.99 111.93C1118.63 91.7402 1081.54 80 1041.75 80C975.386 80 914.707 112.553 877.875 163.071C865.898 180.913 860.141 191.35 851.64 210.477C842.171 234.313 839 260.284 839 287.411C839 344.689 861.847 396.631 898.506 434.164C935.165 471.608 985.81 495 1041.84 495C1146 495 1231.74 414.597 1243.03 310.98C1244.43 300.938 1244.93 291.083 1245 287.411V262.5" stroke="black" stroke-width="41"/>
<path d="M68.0753 904L5.64631 685.818H56.0369L92.152 837.416H93.9631L133.807 685.818H176.953L216.69 837.736H218.608L254.723 685.818H305.114L242.685 904H197.727L156.179 761.351H154.474L113.033 904H68.0753ZM433.887 834.327V740.364H479.27V904H435.698V874.277H433.993C430.3 883.865 424.157 891.571 415.563 897.395C407.04 903.219 396.635 906.131 384.348 906.131C373.411 906.131 363.787 903.645 355.478 898.673C347.168 893.702 340.669 886.635 335.982 877.473C331.365 868.311 329.022 857.338 328.951 844.554V740.364H374.334V836.457C374.405 846.116 376.998 853.751 382.111 859.362C387.225 864.973 394.078 867.778 402.672 867.778C408.141 867.778 413.255 866.536 418.013 864.05C422.772 861.493 426.607 857.729 429.519 852.757C432.502 847.786 433.958 841.642 433.887 834.327ZM560.955 809.398V904H515.572V740.364H558.825V769.234H560.742C564.364 759.717 570.437 752.189 578.96 746.649C587.482 741.038 597.816 738.233 609.961 738.233C621.325 738.233 631.232 740.719 639.684 745.69C648.136 750.662 654.705 757.764 659.393 766.997C664.08 776.159 666.424 787.097 666.424 799.81V904H621.04V807.906C621.112 797.892 618.555 790.08 613.37 784.469C608.185 778.787 601.048 775.946 591.957 775.946C585.849 775.946 580.451 777.26 575.763 779.888C571.147 782.516 567.525 786.351 564.897 791.393C562.34 796.365 561.026 802.366 560.955 809.398ZM762.491 906.663C750.062 906.663 738.805 903.467 728.72 897.075C718.706 890.612 710.751 881.131 704.856 868.631C699.032 856.06 696.12 840.648 696.12 822.395C696.12 803.645 699.139 788.055 705.176 775.626C711.213 763.126 719.238 753.787 729.252 747.608C739.338 741.358 750.382 738.233 762.385 738.233C771.547 738.233 779.181 739.795 785.289 742.92C791.468 745.974 796.44 749.81 800.204 754.426C804.039 758.972 806.951 763.446 808.94 767.849H810.325V685.818H855.602V904H810.858V877.793H808.94C806.809 882.338 803.791 886.848 799.885 891.322C796.049 895.726 791.042 899.384 784.863 902.295C778.755 905.207 771.298 906.663 762.491 906.663ZM776.873 870.548C784.189 870.548 790.368 868.56 795.41 864.582C800.524 860.534 804.43 854.888 807.129 847.643C809.899 840.399 811.284 831.912 811.284 822.182C811.284 812.452 809.934 804 807.235 796.827C804.537 789.653 800.63 784.114 795.517 780.207C790.403 776.301 784.189 774.348 776.873 774.348C769.416 774.348 763.13 776.372 758.017 780.42C752.903 784.469 749.032 790.08 746.404 797.253C743.777 804.426 742.463 812.736 742.463 822.182C742.463 831.699 743.777 840.115 746.404 847.43C749.103 854.675 752.974 860.357 758.017 864.476C763.13 868.524 769.416 870.548 776.873 870.548ZM967.489 907.196C950.657 907.196 936.168 903.787 924.023 896.969C911.95 890.08 902.646 880.349 896.112 867.778C889.577 855.136 886.31 840.186 886.31 822.928C886.31 806.095 889.577 791.322 896.112 778.609C902.646 765.896 911.843 755.989 923.704 748.886C935.636 741.784 949.627 738.233 965.678 738.233C976.474 738.233 986.523 739.973 995.827 743.453C1005.2 746.862 1013.37 752.011 1020.33 758.901C1027.36 765.79 1032.83 774.455 1036.74 784.895C1040.64 795.264 1042.6 807.409 1042.6 821.33V833.794H904.421V805.669H999.876C999.876 799.135 998.455 793.347 995.614 788.304C992.773 783.261 988.832 779.32 983.789 776.479C978.817 773.567 973.029 772.111 966.424 772.111C959.535 772.111 953.427 773.709 948.1 776.905C942.844 780.03 938.725 784.256 935.742 789.582C932.759 794.838 931.232 800.697 931.161 807.161V833.901C931.161 841.997 932.653 848.993 935.636 854.888C938.69 860.783 942.987 865.328 948.526 868.524C954.066 871.72 960.636 873.318 968.235 873.318C973.278 873.318 977.894 872.608 982.085 871.188C986.275 869.767 989.862 867.636 992.844 864.795C995.827 861.955 998.1 858.474 999.663 854.355L1041.64 857.125C1039.51 867.21 1035.14 876.017 1028.53 883.545C1022 891.003 1013.55 896.827 1003.18 901.017C992.88 905.136 980.984 907.196 967.489 907.196ZM1072.21 904V740.364H1116.21V768.915H1117.92C1120.9 758.759 1125.91 751.088 1132.94 745.903C1139.97 740.648 1148.06 738.02 1157.23 738.02C1159.5 738.02 1161.95 738.162 1164.58 738.446C1167.21 738.73 1169.51 739.121 1171.5 739.618V779.888C1169.37 779.249 1166.42 778.68 1162.66 778.183C1158.9 777.686 1155.45 777.438 1152.33 777.438C1145.65 777.438 1139.68 778.893 1134.43 781.805C1129.24 784.646 1125.12 788.624 1122.07 793.737C1119.09 798.851 1117.6 804.746 1117.6 811.422V904H1072.21ZM1340.49 756.344C1339 751.159 1336.91 746.578 1334.21 742.601C1331.51 738.553 1328.2 735.143 1324.3 732.374C1320.46 729.533 1316.06 727.366 1311.09 725.875C1306.19 724.384 1300.75 723.638 1294.79 723.638C1283.64 723.638 1273.84 726.408 1265.39 731.947C1257 737.487 1250.47 745.548 1245.78 756.131C1241.1 766.642 1238.75 779.497 1238.75 794.696C1238.75 809.895 1241.06 822.821 1245.68 833.474C1250.29 844.128 1256.83 852.26 1265.28 857.871C1273.73 863.411 1283.71 866.18 1295.21 866.18C1305.66 866.18 1314.57 864.334 1321.95 860.641C1329.41 856.876 1335.09 851.585 1339 844.767C1342.98 837.949 1344.97 829.888 1344.97 820.584L1354.34 821.969H1298.09V787.239H1389.39V814.724C1389.39 833.901 1385.34 850.378 1377.25 864.156C1369.15 877.864 1358 888.446 1343.79 895.903C1329.59 903.29 1313.33 906.983 1295 906.983C1274.55 906.983 1256.58 902.473 1241.1 893.453C1225.61 884.362 1213.54 871.472 1204.87 854.781C1196.28 838.02 1191.98 818.134 1191.98 795.122C1191.98 777.437 1194.54 761.67 1199.65 747.821C1204.84 733.901 1212.08 722.111 1221.39 712.452C1230.69 702.793 1241.52 695.442 1253.88 690.399C1266.24 685.357 1279.63 682.835 1294.04 682.835C1306.4 682.835 1317.91 684.646 1328.56 688.268C1339.21 691.82 1348.66 696.862 1356.9 703.396C1365.21 709.93 1371.99 717.707 1377.25 726.727C1382.5 735.676 1385.88 745.548 1387.37 756.344H1340.49ZM1423.19 904V740.364H1467.19V768.915H1468.89C1471.88 758.759 1476.88 751.088 1483.91 745.903C1490.94 740.648 1499.04 738.02 1508.2 738.02C1510.48 738.02 1512.93 738.162 1515.55 738.446C1518.18 738.73 1520.49 739.121 1522.48 739.618V779.888C1520.35 779.249 1517.4 778.68 1513.64 778.183C1509.87 777.686 1506.43 777.438 1503.3 777.438C1496.63 777.438 1490.66 778.893 1485.4 781.805C1480.22 784.646 1476.1 788.624 1473.05 793.737C1470.06 798.851 1468.57 804.746 1468.57 811.422V904H1423.19ZM1587.92 907.089C1577.48 907.089 1568.17 905.278 1560.01 901.656C1551.84 897.963 1545.37 892.53 1540.62 885.357C1535.93 878.112 1533.58 869.092 1533.58 858.297C1533.58 849.206 1535.25 841.571 1538.59 835.392C1541.93 829.213 1546.48 824.241 1552.23 820.477C1557.98 816.713 1564.52 813.872 1571.83 811.955C1579.22 810.037 1586.96 808.688 1595.06 807.906C1604.57 806.912 1612.24 805.989 1618.07 805.136C1623.89 804.213 1628.12 802.864 1630.74 801.088C1633.37 799.312 1634.69 796.685 1634.69 793.205V792.565C1634.69 785.818 1632.56 780.598 1628.29 776.905C1624.1 773.212 1618.14 771.365 1610.4 771.365C1602.23 771.365 1595.73 773.176 1590.9 776.798C1586.07 780.349 1582.87 784.824 1581.31 790.222L1539.34 786.812C1541.47 776.869 1545.66 768.276 1551.91 761.031C1558.16 753.716 1566.22 748.105 1576.09 744.199C1586.04 740.222 1597.54 738.233 1610.61 738.233C1619.7 738.233 1628.4 739.298 1636.71 741.429C1645.09 743.56 1652.51 746.862 1658.98 751.337C1665.51 755.811 1670.66 761.564 1674.42 768.595C1678.19 775.555 1680.07 783.901 1680.07 793.631V904H1637.03V881.308H1635.75C1633.12 886.422 1629.61 890.932 1625.2 894.838C1620.8 898.673 1615.51 901.692 1609.33 903.893C1603.15 906.024 1596.01 907.089 1587.92 907.089ZM1600.91 875.768C1607.59 875.768 1613.49 874.455 1618.6 871.827C1623.71 869.128 1627.73 865.506 1630.64 860.96C1633.55 856.415 1635.01 851.266 1635.01 845.513V828.148C1633.58 829.071 1631.63 829.923 1629.15 830.705C1626.73 831.415 1624 832.089 1620.94 832.729C1617.89 833.297 1614.83 833.83 1611.78 834.327C1608.73 834.753 1605.96 835.143 1603.47 835.499C1598.14 836.28 1593.49 837.523 1589.52 839.227C1585.54 840.932 1582.45 843.24 1580.25 846.152C1578.05 848.993 1576.94 852.544 1576.94 856.805C1576.94 862.984 1579.18 867.707 1583.66 870.974C1588.2 874.17 1593.95 875.768 1600.91 875.768ZM1715.28 965.364V740.364H1760.02V767.849H1762.05C1764.04 763.446 1766.91 758.972 1770.68 754.426C1774.51 749.81 1779.48 745.974 1785.59 742.92C1791.77 739.795 1799.44 738.233 1808.6 738.233C1820.53 738.233 1831.54 741.358 1841.63 747.608C1851.71 753.787 1859.77 763.126 1865.81 775.626C1871.85 788.055 1874.87 803.645 1874.87 822.395C1874.87 840.648 1871.92 856.06 1866.02 868.631C1860.2 881.131 1852.25 890.612 1842.16 897.075C1832.15 903.467 1820.93 906.663 1808.5 906.663C1799.69 906.663 1792.2 905.207 1786.02 902.295C1779.91 899.384 1774.9 895.726 1771 891.322C1767.09 886.848 1764.11 882.338 1762.05 877.793H1760.66V965.364H1715.28ZM1759.7 822.182C1759.7 831.912 1761.05 840.399 1763.75 847.643C1766.45 854.888 1770.36 860.534 1775.47 864.582C1780.58 868.56 1786.8 870.548 1794.11 870.548C1801.5 870.548 1807.75 868.524 1812.86 864.476C1817.98 860.357 1821.85 854.675 1824.48 847.43C1827.18 840.115 1828.52 831.699 1828.52 822.182C1828.52 812.736 1827.21 804.426 1824.58 797.253C1821.95 790.08 1818.08 784.469 1812.97 780.42C1807.86 776.372 1801.57 774.348 1794.11 774.348C1786.73 774.348 1780.48 776.301 1775.36 780.207C1770.32 784.114 1766.45 789.653 1763.75 796.827C1761.05 804 1759.7 812.452 1759.7 822.182ZM1950.51 809.398V904H1905.12V685.818H1949.23V769.234H1951.15C1954.84 759.575 1960.8 752.011 1969.04 746.543C1977.28 741.003 1987.62 738.233 2000.04 738.233C2011.41 738.233 2021.32 740.719 2029.77 745.69C2038.29 750.591 2044.9 757.658 2049.58 766.891C2054.34 776.053 2056.69 787.026 2056.61 799.81V904H2011.23V807.906C2011.3 797.821 2008.74 789.973 2003.56 784.362C1998.45 778.751 1991.27 775.946 1982.04 775.946C1975.86 775.946 1970.39 777.26 1965.63 779.888C1960.95 782.516 1957.25 786.351 1954.55 791.393C1951.93 796.365 1950.58 802.366 1950.51 809.398Z" fill="black"/>
</svg>
