<svg width="2075" height="935" viewBox="0 0 2075 935" fill="none" xmlns="http://www.w3.org/2000/svg">
<path d="M1126.3 259.976L1084.6 330.978L1031.31 239.924L978.1 330.822L886.223 171.653C919.209 127.335 971.877 98.7784 1031.31 98.7784C1066.94 98.7784 1100.16 109.078 1128.25 126.789C1127.7 129.754 1127.39 132.719 1127.39 135.84C1127.39 162.68 1149.1 184.371 1175.78 184.371C1202.46 184.371 1224.17 162.602 1224.17 135.84C1224.17 109 1202.46 87.3089 1175.78 87.3089C1168.55 87.3089 1161.62 88.9474 1155.48 91.8343C1119.85 68.271 1077.21 54.4608 1031.31 54.4608C964.019 54.4608 903.727 83.8758 862.495 130.612L831.143 76.1514C836.589 68.271 839.779 58.8301 839.779 48.5309C839.779 21.6907 818.073 0 791.389 0C764.705 0 743 21.7687 743 48.5309C743 75.2932 764.705 97.0619 791.389 97.0619C792.79 97.0619 794.112 96.9838 795.512 96.8278L836.122 167.283C816.751 200.6 805.782 239.534 805.782 280.73C805.782 343.228 830.988 399.795 871.831 440.758C912.674 481.72 969.076 507 1031.39 507C1148.86 507 1245.64 416.726 1255.99 301.407C1256.61 294.541 1257 287.753 1257 280.73V260.054H1126.3V259.976ZM1031.39 462.838C981.212 462.838 935.857 442.318 903.027 409.47C870.197 376.544 849.736 330.978 849.736 280.73C849.736 256.933 854.249 234.15 862.728 213.24L977.711 412.747L1031.39 321.693L1084.68 412.591L1149.87 301.407H1211.57C1201.45 392.305 1124.67 462.838 1031.39 462.838Z" fill="#1E293B"/>
<path d="M68.0753 863L5.64631 644.818H56.0369L92.152 796.416H93.9631L133.807 644.818H176.953L216.69 796.736H218.608L254.723 644.818H305.114L242.685 863H197.727L156.179 720.351H154.474L113.033 863H68.0753ZM433.887 793.327V699.364H479.27V863H435.698V833.277H433.993C430.3 842.865 424.157 850.571 415.563 856.395C407.04 862.219 396.635 865.131 384.348 865.131C373.411 865.131 363.787 862.645 355.478 857.673C347.168 852.702 340.669 845.635 335.982 836.473C331.365 827.311 329.022 816.338 328.951 803.554V699.364H374.334V795.457C374.405 805.116 376.998 812.751 382.111 818.362C387.225 823.973 394.078 826.778 402.672 826.778C408.141 826.778 413.255 825.536 418.013 823.05C422.772 820.493 426.607 816.729 429.519 811.757C432.502 806.786 433.958 800.642 433.887 793.327ZM560.955 768.398V863H515.572V699.364H558.825V728.234H560.742C564.364 718.717 570.437 711.189 578.96 705.649C587.482 700.038 597.816 697.233 609.961 697.233C621.325 697.233 631.232 699.719 639.684 704.69C648.136 709.662 654.705 716.764 659.393 725.997C664.08 735.159 666.424 746.097 666.424 758.81V863H621.04V766.906C621.112 756.892 618.555 749.08 613.37 743.469C608.185 737.787 601.048 734.946 591.957 734.946C585.849 734.946 580.451 736.26 575.763 738.888C571.147 741.516 567.525 745.351 564.897 750.393C562.34 755.365 561.026 761.366 560.955 768.398ZM762.491 865.663C750.062 865.663 738.805 862.467 728.72 856.075C718.706 849.612 710.751 840.131 704.856 827.631C699.032 815.06 696.12 799.648 696.12 781.395C696.12 762.645 699.139 747.055 705.176 734.626C711.213 722.126 719.238 712.787 729.252 706.608C739.338 700.358 750.382 697.233 762.385 697.233C771.547 697.233 779.181 698.795 785.289 701.92C791.468 704.974 796.44 708.81 800.204 713.426C804.039 717.972 806.951 722.446 808.94 726.849H810.325V644.818H855.602V863H810.858V836.793H808.94C806.809 841.338 803.791 845.848 799.885 850.322C796.049 854.726 791.042 858.384 784.863 861.295C778.755 864.207 771.298 865.663 762.491 865.663ZM776.873 829.548C784.189 829.548 790.368 827.56 795.41 823.582C800.524 819.534 804.43 813.888 807.129 806.643C809.899 799.399 811.284 790.912 811.284 781.182C811.284 771.452 809.934 763 807.235 755.827C804.537 748.653 800.63 743.114 795.517 739.207C790.403 735.301 784.189 733.348 776.873 733.348C769.416 733.348 763.13 735.372 758.017 739.42C752.903 743.469 749.032 749.08 746.404 756.253C743.777 763.426 742.463 771.736 742.463 781.182C742.463 790.699 743.777 799.115 746.404 806.43C749.103 813.675 752.974 819.357 758.017 823.476C763.13 827.524 769.416 829.548 776.873 829.548ZM967.489 866.196C950.657 866.196 936.168 862.787 924.023 855.969C911.95 849.08 902.646 839.349 896.112 826.778C889.577 814.136 886.31 799.186 886.31 781.928C886.31 765.095 889.577 750.322 896.112 737.609C902.646 724.896 911.843 714.989 923.704 707.886C935.636 700.784 949.627 697.233 965.678 697.233C976.474 697.233 986.523 698.973 995.827 702.453C1005.2 705.862 1013.37 711.011 1020.33 717.901C1027.36 724.79 1032.83 733.455 1036.74 743.895C1040.64 754.264 1042.6 766.409 1042.6 780.33V792.794H904.421V764.669H999.876C999.876 758.135 998.455 752.347 995.614 747.304C992.773 742.261 988.832 738.32 983.789 735.479C978.817 732.567 973.029 731.111 966.424 731.111C959.535 731.111 953.427 732.709 948.1 735.905C942.844 739.03 938.725 743.256 935.742 748.582C932.759 753.838 931.232 759.697 931.161 766.161V792.901C931.161 800.997 932.653 807.993 935.636 813.888C938.69 819.783 942.987 824.328 948.526 827.524C954.066 830.72 960.636 832.318 968.235 832.318C973.278 832.318 977.894 831.608 982.085 830.188C986.275 828.767 989.862 826.636 992.844 823.795C995.827 820.955 998.1 817.474 999.663 813.355L1041.64 816.125C1039.51 826.21 1035.14 835.017 1028.53 842.545C1022 850.003 1013.55 855.827 1003.18 860.017C992.88 864.136 980.984 866.196 967.489 866.196ZM1072.21 863V699.364H1116.21V727.915H1117.92C1120.9 717.759 1125.91 710.088 1132.94 704.903C1139.97 699.648 1148.06 697.02 1157.23 697.02C1159.5 697.02 1161.95 697.162 1164.58 697.446C1167.21 697.73 1169.51 698.121 1171.5 698.618V738.888C1169.37 738.249 1166.42 737.68 1162.66 737.183C1158.9 736.686 1155.45 736.438 1152.33 736.438C1145.65 736.438 1139.68 737.893 1134.43 740.805C1129.24 743.646 1125.12 747.624 1122.07 752.737C1119.09 757.851 1117.6 763.746 1117.6 770.422V863H1072.21ZM1340.49 715.344C1339 710.159 1336.91 705.578 1334.21 701.601C1331.51 697.553 1328.2 694.143 1324.3 691.374C1320.46 688.533 1316.06 686.366 1311.09 684.875C1306.19 683.384 1300.75 682.638 1294.79 682.638C1283.64 682.638 1273.84 685.408 1265.39 690.947C1257 696.487 1250.47 704.548 1245.78 715.131C1241.1 725.642 1238.75 738.497 1238.75 753.696C1238.75 768.895 1241.06 781.821 1245.68 792.474C1250.29 803.128 1256.83 811.26 1265.28 816.871C1273.73 822.411 1283.71 825.18 1295.21 825.18C1305.66 825.18 1314.57 823.334 1321.95 819.641C1329.41 815.876 1335.09 810.585 1339 803.767C1342.98 796.949 1344.97 788.888 1344.97 779.584L1354.34 780.969H1298.09V746.239H1389.39V773.724C1389.39 792.901 1385.34 809.378 1377.25 823.156C1369.15 836.864 1358 847.446 1343.79 854.903C1329.59 862.29 1313.33 865.983 1295 865.983C1274.55 865.983 1256.58 861.473 1241.1 852.453C1225.61 843.362 1213.54 830.472 1204.87 813.781C1196.28 797.02 1191.98 777.134 1191.98 754.122C1191.98 736.437 1194.54 720.67 1199.65 706.821C1204.84 692.901 1212.08 681.111 1221.39 671.452C1230.69 661.793 1241.52 654.442 1253.88 649.399C1266.24 644.357 1279.63 641.835 1294.04 641.835C1306.4 641.835 1317.91 643.646 1328.56 647.268C1339.21 650.82 1348.66 655.862 1356.9 662.396C1365.21 668.93 1371.99 676.707 1377.25 685.727C1382.5 694.676 1385.88 704.548 1387.37 715.344H1340.49ZM1423.19 863V699.364H1467.19V727.915H1468.89C1471.88 717.759 1476.88 710.088 1483.91 704.903C1490.94 699.648 1499.04 697.02 1508.2 697.02C1510.48 697.02 1512.93 697.162 1515.55 697.446C1518.18 697.73 1520.49 698.121 1522.48 698.618V738.888C1520.35 738.249 1517.4 737.68 1513.64 737.183C1509.87 736.686 1506.43 736.438 1503.3 736.438C1496.63 736.438 1490.66 737.893 1485.4 740.805C1480.22 743.646 1476.1 747.624 1473.05 752.737C1470.06 757.851 1468.57 763.746 1468.57 770.422V863H1423.19ZM1587.92 866.089C1577.48 866.089 1568.17 864.278 1560.01 860.656C1551.84 856.963 1545.37 851.53 1540.62 844.357C1535.93 837.112 1533.58 828.092 1533.58 817.297C1533.58 808.206 1535.25 800.571 1538.59 794.392C1541.93 788.213 1546.48 783.241 1552.23 779.477C1557.98 775.713 1564.52 772.872 1571.83 770.955C1579.22 769.037 1586.96 767.688 1595.06 766.906C1604.57 765.912 1612.24 764.989 1618.07 764.136C1623.89 763.213 1628.12 761.864 1630.74 760.088C1633.37 758.312 1634.69 755.685 1634.69 752.205V751.565C1634.69 744.818 1632.56 739.598 1628.29 735.905C1624.1 732.212 1618.14 730.365 1610.4 730.365C1602.23 730.365 1595.73 732.176 1590.9 735.798C1586.07 739.349 1582.87 743.824 1581.31 749.222L1539.34 745.812C1541.47 735.869 1545.66 727.276 1551.91 720.031C1558.16 712.716 1566.22 707.105 1576.09 703.199C1586.04 699.222 1597.54 697.233 1610.61 697.233C1619.7 697.233 1628.4 698.298 1636.71 700.429C1645.09 702.56 1652.51 705.862 1658.98 710.337C1665.51 714.811 1670.66 720.564 1674.42 727.595C1678.19 734.555 1680.07 742.901 1680.07 752.631V863H1637.03V840.308H1635.75C1633.12 845.422 1629.61 849.932 1625.2 853.838C1620.8 857.673 1615.51 860.692 1609.33 862.893C1603.15 865.024 1596.01 866.089 1587.92 866.089ZM1600.91 834.768C1607.59 834.768 1613.49 833.455 1618.6 830.827C1623.71 828.128 1627.73 824.506 1630.64 819.96C1633.55 815.415 1635.01 810.266 1635.01 804.513V787.148C1633.58 788.071 1631.63 788.923 1629.15 789.705C1626.73 790.415 1624 791.089 1620.94 791.729C1617.89 792.297 1614.83 792.83 1611.78 793.327C1608.73 793.753 1605.96 794.143 1603.47 794.499C1598.14 795.28 1593.49 796.523 1589.52 798.227C1585.54 799.932 1582.45 802.24 1580.25 805.152C1578.05 807.993 1576.94 811.544 1576.94 815.805C1576.94 821.984 1579.18 826.707 1583.66 829.974C1588.2 833.17 1593.95 834.768 1600.91 834.768ZM1715.28 924.364V699.364H1760.02V726.849H1762.05C1764.04 722.446 1766.91 717.972 1770.68 713.426C1774.51 708.81 1779.48 704.974 1785.59 701.92C1791.77 698.795 1799.44 697.233 1808.6 697.233C1820.53 697.233 1831.54 700.358 1841.63 706.608C1851.71 712.787 1859.77 722.126 1865.81 734.626C1871.85 747.055 1874.87 762.645 1874.87 781.395C1874.87 799.648 1871.92 815.06 1866.02 827.631C1860.2 840.131 1852.25 849.612 1842.16 856.075C1832.15 862.467 1820.93 865.663 1808.5 865.663C1799.69 865.663 1792.2 864.207 1786.02 861.295C1779.91 858.384 1774.9 854.726 1771 850.322C1767.09 845.848 1764.11 841.338 1762.05 836.793H1760.66V924.364H1715.28ZM1759.7 781.182C1759.7 790.912 1761.05 799.399 1763.75 806.643C1766.45 813.888 1770.36 819.534 1775.47 823.582C1780.58 827.56 1786.8 829.548 1794.11 829.548C1801.5 829.548 1807.75 827.524 1812.86 823.476C1817.98 819.357 1821.85 813.675 1824.48 806.43C1827.18 799.115 1828.52 790.699 1828.52 781.182C1828.52 771.736 1827.21 763.426 1824.58 756.253C1821.95 749.08 1818.08 743.469 1812.97 739.42C1807.86 735.372 1801.57 733.348 1794.11 733.348C1786.73 733.348 1780.48 735.301 1775.36 739.207C1770.32 743.114 1766.45 748.653 1763.75 755.827C1761.05 763 1759.7 771.452 1759.7 781.182ZM1950.51 768.398V863H1905.12V644.818H1949.23V728.234H1951.15C1954.84 718.575 1960.8 711.011 1969.04 705.543C1977.28 700.003 1987.62 697.233 2000.04 697.233C2011.41 697.233 2021.32 699.719 2029.77 704.69C2038.29 709.591 2044.9 716.658 2049.58 725.891C2054.34 735.053 2056.69 746.026 2056.61 758.81V863H2011.23V766.906C2011.3 756.821 2008.74 748.973 2003.56 743.362C1998.45 737.751 1991.27 734.946 1982.04 734.946C1975.86 734.946 1970.39 736.26 1965.63 738.888C1960.95 741.516 1957.25 745.351 1954.55 750.393C1951.93 755.365 1950.58 761.366 1950.51 768.398Z" fill="#1E293B"/>
</svg>
