<svg xmlns="http://www.w3.org/2000/svg" role="img" viewBox="0.45 37.95 2966.60 819.10"><path d="M483.286 97.735L318.002 652.212q-12.693 43.596-12.682 55.373 0 11.751 9.029 24.24c6 8.303 12.504 13.713 19.502 16.156q10.49 3.68 63.178 6.62l-5.366 17.476H57.823l5.356-17.477q49.767-.972 69.283-8.328a69.67 69.67 0 0 0 31.939-24q12.44-16.653 28.05-70.06l97.182-329.32q22.968-75.082 23.99-79.469a101.718 101.718 0 0 0 3.076-23.885q0-21.793-13.47-34.617-13.463-12.83-38.437-12.84-12.248 0-48.49 3.901l-4.146-18.316L462.61 97.733h20.676zm347.443 222.279L809.086 470.71h-18.322q-3.896-58.09-35.765-91.469-31.875-33.43-68.356-33.413-22.386 0-36.965 13.166-14.601 13.12-14.597 31.656a68.331 68.331 0 0 0 6.336 29.218q6.313 13.688 28.267 37.056 76.983 82.851 93.644 113.9a138.892 138.892 0 0 1 16.608 66.498 144.132 144.132 0 0 1-19.546 72.582q-19.556 34.236-58.392 54.854-38.83 20.663-80.852 20.645-28.319 0-69.835-10.756-27.368-7.531-41.045-7.512-12.225 0-19.062 3.504-6.846 3.533-15.14 14.764H457.75l24.148-162.355h15.812q17.064 59.417 31.953 84.678a113.247 113.247 0 0 0 39.764 40.234q24.89 14.988 47.83 14.965 26.815 0 44.392-16.805 17.56-16.795 17.554-40.199a92.827 92.827 0 0 0-11.472-44.352q-11.463-21.412-52.935-66.754-57.083-61.869-75.201-95.635-12.737-24.474-12.74-55.815 0-52.863 38.362-88.104 38.36-35.244 107.77-35.24 30.297 0 74.285 11.14 22.002 5.573 35.198 5.568 19.036 0 30.772-16.709h17.486v-.006zm314.573-119.054l-40.867 132.37h54.628l-17.078 55.774h-55.416l-88.541 286.641q-8.481 26.727-8.472 40.527c0 3.125 1.454 5.813 4.383 8.078a15.348 15.348 0 0 0 9.734 3.428c5.501 0 11.193-2.295 17.035-6.855q22.407-17.071 52.09-59.572l17.501 10.758q-33.712 58.586-74.247 85.943-40.542 27.345-79.608 27.346-33.2 0-51.518-16.723-18.339-16.755-18.322-42.451 0-28.334 13.651-72.793l82.987-264.326H900.66l9.211-35.977q59.371-22.831 103.271-53.477 43.87-30.615 105.734-98.698h26.425v.006zm532.257-104.89l-165.307 544.7q-15.775 51.095-15.787 61.817a12.783 12.783 0 0 0 3.883 9.3c2.588 2.62 5.338 3.915 8.252 3.915 5.5 0 11.817-2.75 18.931-8.318q17.92-13.731 43.656-51.959l17.495 9.316q-68.752 120.572-151.118 120.551-29.26 0-45.101-15.32-15.833-15.301-15.85-39.145 0-22.866 12.701-65.18l15.374-49.766q-61.143 107.669-106.157 143.15-34.25 26.28-66.527 26.266-36.712 0-61.896-29.717-25.185-29.707-25.18-86.732 0-72.603 32.524-143.27 32.516-70.666 75.163-117.931 42.602-47.26 81.316-67.493 38.68-20.23 76.133-20.231 19.232 0 34.258 7.987 15.012 7.964 34.243 29.903l38.175-120.858q14.58-45.612 14.597-65.429 0-11.916-9.965-20.31-9.966-8.416-26.559-8.419a163.249 163.249 0 0 0-19.368 1.464l4.172-19.15 167.438-29.133h30.504v-.009zm-219.038 308.49q0-29.742-11.908-43.416-11.916-13.651-27.807-13.665-15.918 0-34.258 16.1-35.28 31.213-73.767 125.62-38.484 94.386-38.477 158.76 0 23.444 8.438 34.646 8.424 11.204 18.859 11.21 17.395 0 34.78-15.616 42.192-37.051 83.17-127.54 40.957-90.463 40.97-146.099m392.558-308.504q30.47 0 51.355 21.086 20.895 21.083 20.903 50.942 0 29.873-21.13 50.942-21.175 21.09-51.13 21.072-29.533 0-50.635-21.072-21.153-21.052-21.148-50.942 0-29.872 20.904-50.942 20.875-21.067 50.88-21.086m39.63 223.958l-108.591 343.738q-9.042 29.484-9.02 38.674a15.2 15.2 0 0 0 4.33 10.357c2.904 3.221 5.98 4.811 9.217 4.811 5.486 0 10.948-2.52 16.454-7.564q21.716-18.729 52.2-67.824l16.65 10.113q-74.195 133.07-157.732 133.084-31.94 0-50.86-17.707-18.915-17.72-18.917-44.879 0-18.073 9.139-45.932l74.784-233.429q10.756-33.673 10.762-50.789 0-10.734-9.874-19.046-9.855-8.3-26.99-8.313-7.805 0-18.695.504l6.667-19.152 170.333-26.645h30.143zm340.085-223.95L2144.393 389q36.756-41.485 61.455-55.233a108.414 108.414 0 0 1 53.577-13.747q55.887 0 83.606 42.153 27.691 42.15 27.701 97.215 0 131.58-93.533 234.882-83.024 91.14-188.98 91.133-78.74 0-166.565-47.002l151.08-514.055q10.578-36.62 12-51.273 0-12.534-10.555-19.862-14.739-10.318-44.784-8.87l4.171-19.133 167.203-29.146h30.024v.003zm-190.901 647.21q21.924 14.651 39.639 14.663 24.711 0 41.496-10.254 26.553-16.623 55.704-60.09 29.139-43.473 48.729-105.043 19.548-61.518 19.564-122.612 0-34.668-14.567-52.737-14.551-18.087-33.687-18.097-31.882 0-55.536 34.109-15.934 22.068-34.584 93.749zm733.791-423.26l-21.639 150.696h-18.336q-3.895-58.09-35.745-91.469-31.882-33.43-68.362-33.413-22.37 0-36.975 13.166-14.565 13.12-14.577 31.656a68.324 68.324 0 0 0 6.326 29.218q6.315 13.688 28.268 37.056 76.974 82.851 93.629 113.9a138.838 138.838 0 0 1 16.612 66.498 144.071 144.071 0 0 1-19.526 72.582q-19.562 34.236-58.406 54.854-38.8 20.663-80.832 20.645-28.326 0-69.846-10.756-27.366-7.531-41.045-7.512-12.231 0-19.08 3.504-6.832 3.533-15.119 14.764h-18.327l24.149-162.355h15.825q17.057 59.417 31.949 84.678a113.185 113.185 0 0 0 39.759 40.234q24.89 14.988 47.813 14.965 26.833 0 44.409-16.805 17.538-16.795 17.539-40.199a92.99 92.99 0 0 0-11.467-44.352q-11.476-21.412-52.91-66.754-57.096-61.869-75.226-95.635-12.751-24.474-12.739-55.815 0-52.863 38.361-88.104 38.361-35.244 107.755-35.24 30.32 0 74.3 11.14 21.995 5.573 35.203 5.568 19.03 0 30.759-16.709h17.5zm70.53 348.242a68.816 68.816 0 0 1 33.007 8.673 61.669 61.669 0 0 1 25.088 24.823 67.449 67.449 0 0 1 .133 67.036 62.393 62.393 0 0 1-24.822 24.866 67.46 67.46 0 0 1-66.814 0 62.668 62.668 0 0 1-24.866-24.866 67.155 67.155 0 0 1 .133-67.036 61.93 61.93 0 0 1 25.134-24.823 68.807 68.807 0 0 1 33.007-8.673zm0 11.12a57.156 57.156 0 0 0-27.535 7.25 52.003 52.003 0 0 0-20.953 20.73 55.812 55.812 0 0 0-.133 55.871 52.683 52.683 0 0 0 20.774 20.73 55.906 55.906 0 0 0 55.693 0 52.396 52.396 0 0 0 20.73-20.73 56.088 56.088 0 0 0-.135-55.87 51.66 51.66 0 0 0-20.951-20.73 57.247 57.247 0 0 0-27.49-7.251zm-29.449 93.148v-72.24h24.822q12.722 0 18.416 2.001a17.86 17.86 0 0 1 9.075 6.984 18.54 18.54 0 0 1 3.38 10.587 19.248 19.248 0 0 1-5.649 13.79q-5.651 5.871-14.99 6.583a19.823 19.823 0 0 1 6.139 3.826q4.356 4.27 10.676 14.324l8.806 14.145h-14.234l-6.405-11.387q-7.563-13.433-12.189-16.815-3.202-2.49-9.342-2.491h-6.85v30.693zm11.656-40.657h14.144q10.143 0 13.835-3.025a10.373 10.373 0 0 0 1.913-13.746 10.63 10.63 0 0 0-4.937-3.78q-3.16-1.246-11.7-1.246h-13.255z"/></svg>