<svg xmlns="http://www.w3.org/2000/svg" role="img" viewBox="-2.37 -2.24 129.61 43.48"><g fill="none"><path fill="#2C3339" d="M48.02 16.115c1.284-2.17 3.96-3.311 6.745-3.311 5.316 0 9.678 3.863 9.678 10.007 0 6.108-4.472 10.045-9.75 10.045-2.677 0-5.426-1.178-6.71-3.385v1.287c0 1.03-.806 1.914-1.905 1.914-1.027 0-1.833-.883-1.833-1.914V8.094c0-1.03.806-1.913 1.833-1.913 1.063 0 1.906.883 1.906 1.913v8.021h.037zm6.38 13.098c3.446 0 6.195-2.649 6.195-6.438 0-3.827-2.75-6.292-6.195-6.292-3.08 0-6.378 2.17-6.378 6.292.036 4.12 2.969 6.438 6.378 6.438zm28.738.295c-1.283 2.17-4.07 3.384-6.745 3.384-5.242 0-9.75-3.973-9.75-10.044 0-6.144 4.471-10.007 9.75-10.007 2.676 0 5.462 1.103 6.745 3.31v-1.176c0-1.03.806-1.914 1.833-1.914 1.063 0 1.906.883 1.906 1.914v15.857c0 1.03-.807 1.913-1.906 1.913-1.027 0-1.833-.883-1.833-1.913v-1.324zM76.76 16.483c-3.446 0-6.232 2.465-6.232 6.292 0 3.79 2.786 6.438 6.232 6.438 3.409 0 6.378-2.355 6.378-6.438-.037-4.084-3.3-6.292-6.378-6.292zm20.234 13.098c1.943 0 3.373-1.03 3.373-2.539 0-1.398-1.1-2.097-2.53-2.428l-2.64-.625c-3.225-.883-5.168-2.465-5.168-5.52 0-3.163 2.823-5.628 6.709-5.628 2.492 0 4.912.92 6.048 3.127.147.294.22.625.22.883 0 1.25-1.173 1.692-1.76 1.692-.55 0-.953-.294-1.356-.809-.88-1.14-1.833-1.619-3.042-1.619-1.797 0-3.006 1.067-3.006 2.502 0 1.25 1.173 1.95 2.419 2.208l2.823.699c3.995.993 4.985 3.421 4.985 5.592 0 3.569-3.446 5.776-7.441 5.776-2.97 0-6.012-1.655-6.892-4.599-.037-.22-.073-.404-.073-.588 0-.994.953-1.472 1.796-1.472.66 0 1.32.331 1.613 1.067.476 1.398 1.98 2.281 3.922 2.281zm26.32-5.298H109.2c.44 3.201 2.97 5.225 6.195 5.225 2.31 0 3.556-.59 4.875-2.024.697-.773 1.76-1.03 2.493-.478.733.588.916 1.692.33 2.354-1.833 2.392-4.729 3.532-7.845 3.532-5.462 0-9.824-4.01-9.824-10.08 0-6.108 4.362-9.971 9.824-9.971s9.531 3.863 9.531 9.97c0 .847-.696 1.472-1.466 1.472zm-2.2-2.943c-.44-3.201-2.749-5.151-5.828-5.151-3.153 0-5.609 1.95-6.085 5.15h11.913z"/><ellipse cx="19.391" cy="19.574" fill="#EA4235" rx="19.208" ry="19.279"/><path fill="#FFF" d="M19.355 32.835c-4.526 0-8.505-3.663-8.505-8.28 0-2.82 1.314-5.091 3.796-6.41-1.423-1.392-2.263-2.784-2.263-4.836 0-3.957 3.03-7.034 6.972-7.034 3.942 0 7.008 3.077 7.008 7.034 0 2.052-.876 3.444-2.3 4.836 2.482 1.319 3.796 3.59 3.796 6.41-.036 4.617-3.978 8.28-8.504 8.28zm0-12.2c-2.154 0-3.906 1.76-3.906 3.92a3.917 3.917 0 0 0 3.906 3.92c2.153 0 3.905-1.758 3.905-3.92 0-2.16-1.752-3.92-3.905-3.92zm0-10c-1.497 0-2.665 1.282-2.665 2.747 0 1.466 1.205 2.711 2.665 2.711s2.7-1.245 2.7-2.71c0-1.503-1.204-2.748-2.7-2.748z"/></g></svg>