<svg xmlns="http://www.w3.org/2000/svg" role="img" viewBox="-3.20 -3.20 166.27 44.15"><path fill="#555" fill-rule="evenodd" d="M159.416 14.326c-.275-3.745-3.195-6.013-7.318-6.013-3.849 0-7.388 2.44-7.388 6.22 0 2.233 1.272 4.122 6.082 5.6 2.852.893 3.504 1.443 3.504 2.508 0 .893-.996 1.477-1.992 1.477-1.134 0-1.993-.55-2.165-1.752h-5.669c.412 3.883 3.47 6.322 7.765 6.322 4.33 0 7.765-2.508 7.765-6.494 0-2.783-1.477-4.604-6.013-5.806-2.645-.688-3.573-1.203-3.573-2.234 0-.721.687-1.27 1.65-1.27.927 0 1.717.343 1.751 1.442h5.6zm-33.78 13.74h5.71V17.384c0-2.5 1.08-3.75 3.237-3.75 1.04 0 1.794.317 2.263.956.47.637.705 1.647.705 3.024v10.452h5.71V16.084c0-.766-.032-1.437-.095-2.012a8.138 8.138 0 0 0-.306-1.53 4.895 4.895 0 0 0-.57-1.226 6.003 6.003 0 0 0-.932-1.09c-.609-.613-1.357-1.092-2.246-1.437a7.828 7.828 0 0 0-2.855-.517c-1.218 0-2.227.211-3.027.631-.798.422-1.528 1.104-2.189 2.05v-2.03h-5.405v19.143zm-12.234-3.755c-2.316-.362-2.265-1.288-1.704-1.738 5.262 2.005 11.688-.54 11.728-6.645-.013-2.237-.807-3.663-1.419-4.321.482-.925 1.034-1.388 2.22-1.674l-2.408-4.164c-2.17.187-3.598 1.525-4.25 2.901-1.281-.523-3.908-.585-6.002.164-1.006.358-1.936.871-2.739 1.583a7.133 7.133 0 0 0-1.799 2.422c-.449.974-.643 2.016-.65 3.087.013 1.455.468 3.188 1.317 4.369-2.293 2.272-2.168 5.642.21 7.773-.251.19-.484.406-.699.636-2.146 2.344-1.131 5.602 1.335 7.314 3.118 2.233 8.653 2.365 12.057.854 5.982-2.435 6.2-11.348-.748-12.516-1.934-.325-4.134.317-6.45-.045zm5.536 7.698c-.653.89-1.891 1.202-2.926 1.251-1.217.06-2.874-.22-3.706-1.221-.8-.964-.613-2.304.469-2.964a2.56 2.56 0 0 1 .992-.358h2.838c1.24 0 2.81.351 2.8 1.89a2.484 2.484 0 0 1-.467 1.402zm-3.975-19.41a3.15 3.15 0 0 1 3.141 3.159 3.15 3.15 0 0 1-3.141 3.158 3.15 3.15 0 0 1-3.14-3.158 3.15 3.15 0 0 1 3.14-3.159zm-10.906 15.468H98.35V8.924h5.708v19.143zm-2.855-21.151c1.89 0 3.42-1.541 3.42-3.44 0-1.898-1.53-3.44-3.42-3.44-1.888 0-3.42 1.542-3.42 3.44 0 1.899 1.532 3.44 3.42 3.44zm-4.963 7.41c-.275-3.745-3.196-6.013-7.319-6.013-3.848 0-7.387 2.44-7.387 6.22 0 2.233 1.272 4.122 6.082 5.6 2.852.893 3.504 1.443 3.504 2.508 0 .893-.996 1.477-1.992 1.477-1.134 0-1.993-.55-2.165-1.752h-5.67c.413 3.883 3.471 6.322 7.766 6.322 4.33 0 7.765-2.508 7.765-6.494 0-2.783-1.478-4.604-6.013-5.806-2.645-.688-3.573-1.203-3.573-2.234 0-.721.687-1.27 1.65-1.27.927 0 1.717.343 1.751 1.442h5.6zm-16.482.263c-.508-1.275-1.212-2.38-2.114-3.31a9.876 9.876 0 0 0-3.197-2.203c-1.23-.535-2.557-.803-3.978-.803-1.37 0-2.658.268-3.864.803a9.946 9.946 0 0 0-3.14 2.183c-.889.918-1.592 2.003-2.112 3.255-.52 1.25-.78 2.59-.78 4.02 0 1.428.26 2.762.78 4a10.248 10.248 0 0 0 2.13 3.236 9.856 9.856 0 0 0 3.18 2.163 9.827 9.827 0 0 0 3.92.785c2.031 0 3.857-.588 5.481-1.762 1.555-1.123 2.772-2.654 3.651-4.593H73.78c-.61.587-1.167.981-1.675 1.186-.507.205-1.116.306-1.827.306-1.141 0-2.095-.326-2.855-.976-.762-.651-1.206-1.513-1.331-2.584h14.274c.3-1.932.122-3.867-.61-5.706zm-13.514 1.877c.229-1.073.718-1.896 1.466-2.47.748-.573 1.681-.861 2.798-.861 1.116 0 2.062.307 2.835.92.774.61 1.262 1.415 1.465 2.411h-8.564zM19.377 5.948c.13-.284.275-.565.434-.841C22.613.223 28.822-1.45 33.678 1.37c4.855 2.82 6.518 9.065 3.715 13.948l-7.326 12.763h-6.61l4.415-7.694a10.049 10.049 0 0 1-4.346-1.331 10.146 10.146 0 0 1-4.148-4.578c-.13.284-.275.564-.433.84l-7.326 12.763h-6.61l4.415-7.694a10.049 10.049 0 0 1-4.346-1.331c-4.856-2.82-6.52-9.065-3.716-13.95C4.165.224 10.374-1.45 15.229 1.37a10.141 10.141 0 0 1 4.148 4.578zM53.571.584v9.902c-.788-.77-1.627-1.338-2.518-1.71-.89-.372-1.934-.557-3.13-.557-1.348 0-2.6.257-3.758.769a8.975 8.975 0 0 0-2.997 2.13c-.839.908-1.5 1.99-1.984 3.244-.483 1.253-.725 2.61-.725 4.069 0 1.51.236 2.891.706 4.146.47 1.252 1.133 2.333 1.985 3.242a9.141 9.141 0 0 0 3.034 2.131c1.17.512 2.455.767 3.854.767 1.323 0 2.436-.21 3.34-.633.902-.422 1.736-1.106 2.5-2.054v2.035h5.419V.585H53.57zm-1.069 21.377c-.915.922-2.086 1.383-3.51 1.383a5.05 5.05 0 0 1-1.927-.366 4.367 4.367 0 0 1-1.526-1.017 4.779 4.779 0 0 1-.993-1.553 5.25 5.25 0 0 1-.362-1.977c0-.691.12-1.338.362-1.94a4.427 4.427 0 0 1 1.012-1.535 4.729 4.729 0 0 1 1.545-.997 5.157 5.157 0 0 1 1.965-.365 4.92 4.92 0 0 1 1.91.365 4.684 4.684 0 0 1 2.537 2.533c.241.576.363 1.21.363 1.9 0 1.46-.46 2.65-1.376 3.569zM24.586 7.88a4.623 4.623 0 0 1 6.335-1.707c2.217 1.287 2.976 4.14 1.697 6.37a4.623 4.623 0 0 1-6.335 1.708c-2.217-1.288-2.978-4.141-1.697-6.371zm-18.448 0a4.623 4.623 0 0 1 6.334-1.707c2.218 1.287 2.977 4.14 1.697 6.37a4.623 4.623 0 0 1-6.334 1.708C5.617 12.963 4.857 10.11 6.138 7.88z"/></svg>