<svg xmlns="http://www.w3.org/2000/svg" role="img" viewBox="-7.99 -8.25 415.74 98.99"><title>Adayroi logo</title><g fill-rule="evenodd"><path fill="#d4041c" d="M89 3.484V7h-1.25c-.722 0-1.25.07-1.25.167 0 .091-.187.166-.417.166-.25 0-.416.096-.416.239 0 .131-.169.262-.375.291a.476.476 0 0 0-.429.429c-.029.206-.16.375-.291.375-.181 0-.239.243-.239 1 0 .579-.072 1-.172 1-.114 0-.166 1.026-.153 2.995.01 1.648.069 2.989.131 2.98.061-.008 1.18-.006 2.486.005l2.375.02v2.396c0 1.927-.049 2.437-.25 2.604-.151.125-.25.139-.25.034 0-.095.094-.211.208-.257.115-.047.04-.09-.166-.098-.207-.007-.375-.088-.375-.179 0-.092-.18-.167-.399-.167-.22 0-.442-.113-.495-.25-.059-.155-.313-.25-.664-.25-.313 0-.662-.113-.776-.25-.114-.138-.385-.25-.603-.25-.218 0-.397-.075-.397-.167 0-.091-.417-.166-.926-.166-.585 0-.888-.063-.822-.17.058-.093.186-.119.286-.057.108.066.133.034.062-.081-.069-.11-.541-.192-1.11-.192-.544 0-.99-.07-.99-.155 0-.091-1.559-.163-3.75-.172-2.476-.012-3.75.041-3.75.155 0 .099-.425.172-1.005.172-.74 0-1.03.066-1.101.25-.059.154-.313.25-.661.25-.392 0-.566.077-.566.25 0 .137-.083.25-.184.25-.102 0-.142-.113-.089-.25.053-.138.023-.25-.066-.25a.165.165 0 0 0-.161.166c0 .092-.152.167-.339.167-.186 0-.381.113-.434.25-.063.163-.322.25-.745.25-.465 0-.649.071-.649.25 0 .156-.157.25-.416.25-.229 0-.417.075-.417.167 0 .091-.187.166-.417.166-.259 0-.416.095-.416.25 0 .218-.305.334-.709.27-.068-.011-.125.047-.125.128s-.131.191-.291.245c-.538.18-1.588 1.006-1.452 1.142.034.034-.102.075-.303.09s-.392.106-.423.201c-.032.096-.165.174-.295.174-.129 0-.236.081-.236.179 0 .231-.424.655-.654.655-.099 0-.179.112-.179.25 0 .137-.094.252-.208.255-.364.01-.959.618-.959.98 0 .191-.079.348-.176.348-.097 0-.123-.087-.058-.192.074-.12.046-.148-.073-.074-.106.065-.193.19-.193.277 0 .086-.375.525-.833.973-.476.467-.833.966-.833 1.166 0 .193-.081.35-.179.35-.294 0-.655.452-.655.821 0 .196-.108.346-.25.346a.25.25 0 0 0-.25.25c0 .137-.075.25-.166.25-.092 0-.167.187-.167.416 0 .26-.094.417-.25.417s-.25.157-.25.417c0 .229-.075.416-.167.416-.091 0-.166.18-.166.399 0 .22-.113.442-.25.495-.157.06-.25.315-.25.684 0 .324-.075.589-.167.589-.092 0-.167.254-.167.566 0 .311-.096.602-.214.647-.118.046-.233.372-.255.727a4.01 4.01 0 0 1-.304 1.208c-.178.381-.24.856-.19 1.458.041.492.007.894-.074.894-.082 0-.095-.087-.03-.192.074-.12.046-.148-.074-.074-.135.084-.189 1.068-.18 3.318.007 1.941.068 3.067.155 2.865.175-.408.165-.463.213 1.201.024.817.123 1.452.247 1.575.113.114.206.409.206.656 0 .247.113.492.25.545.138.052.25.182.25.288 0 .132-.09.122-.291-.034-.278-.215-.278-.209 0 .118.16.189.291.506.291.705 0 .199.075.362.167.362.092 0 .167.265.167.589 0 .369.093.624.25.684.137.053.25.276.25.495 0 .22.075.399.166.399.092 0 .167.188.167.417 0 .259.094.416.25.416s.25.158.25.417c0 .229.075.417.167.417.091 0 .166.139.166.31 0 .17.188.45.417.623.229.172.417.447.417.611 0 .165.112.343.25.395.137.053.25.173.25.268 0 .094.187.345.416.557.23.213.417.494.417.627 0 .132.123.287.274.345.239.091.244.067.044-.191-.188-.243-.162-.239.147.026.284.242.324.354.164.456-.167.105-.168.135-.004.137.115.001.208.115.208.252 0 .138.081.25.179.25.234 0 .655.426.655.662 0 .103.093.174.208.159.454-.059.625.026.625.309 0 .376.569.87 1.002.87.182 0 .331.081.331.179 0 .222.421.655.637.655.089 0 .204.112.257.25.053.137.24.25.417.25.176 0 .364.112.416.25.053.137.249.25.435.25s.338.075.338.166c0 .092.15.167.334.167.183 0 .314.092.291.204-.023.113.127.23.334.262.206.031.375.127.375.212 0 .086.262.155.583.155.321 0 .583.08.583.177 0 .097-.086.123-.192.057-.119-.073-.147-.045-.074.074.066.106.34.192.61.192.269 0 .49.075.49.167 0 .092.217.167.482.167.275 0 .523.107.578.25.066.171.334.25.851.25.415 0 .755.075.755.166 0 .092.408.167.907.167.506 0 .96.085 1.026.192.079.128.045.147-.099.058-.145-.089-.178-.07-.1.058.201.324 9.1.268 9.1-.058 0-.188.202-.25.823-.25.453 0 .87-.075.927-.167.056-.091.401-.166.765-.166.434 0 .695-.086.758-.25.054-.143.303-.25.578-.25.265 0 .482-.075.482-.167 0-.092.221-.167.49-.167.27 0 .544-.086.609-.192.074-.119.046-.147-.073-.074-.106.066-.193.04-.193-.057s.255-.177.566-.177c.35 0 .602-.095.662-.251.053-.139.155-.242.226-.23.33.054.44-.038.215-.181-.192-.121-.155-.154.167-.145.567.016 1.164.317 1.164.585 0 .123.075.222.167.222.092 0 .167.113.167.25 0 .138.094.25.21.25.116 0 .351.188.523.417.173.229.453.417.623.417.171 0 .31.075.31.166 0 .092.19.167.422.167.232 0 .465.112.518.25.082.213.711.25 4.245.25h4.149V16.667h1.414c1.435 0 2.225-.298 1.962-.738-.059-.099.004-.089.14.021.199.161.287.136.45-.125.161-.258.16-.326-.007-.33-.116-.003-.079-.081.086-.177.162-.094.252-.241.2-.326-.053-.085.02-.11.163-.056.229.088.258-.355.258-3.918V7h-4.666V5.5c0-.889-.068-1.5-.167-1.5-.092 0-.167-.187-.167-.417 0-.259-.094-.416-.25-.416-.137 0-.25-.148-.25-.328 0-.343-.863-1.339-1.161-1.339a.176.176 0 0 1-.172-.179c0-.274-.443-.654-.761-.654-.157 0-.382-.132-.499-.292-.192-.263-.66-.297-4.726-.349L89-.032v3.516m191.5 7.367c0 3.355.032 3.839.25 3.755.137-.052.25-.023.25.066s-.078.161-.173.161c-.095 0-.02.164.167.365.186.201.339.426.339.5 0 .074.113.135.25.135a.25.25 0 0 1 .25.25c0 .138.113.25.25.25.138 0 .25.075.25.167 0 .108 1.917.167 5.417.167h5.417v-3.75c0-2.389-.061-3.75-.167-3.75-.092 0-.167-.188-.167-.417 0-.259-.094-.417-.25-.417-.137 0-.25-.094-.25-.21 0-.317-.62-.667-.725-.409-.046.114-.087.075-.095-.089-.009-.196-.149-.292-.43-.292-.229 0-.416-.075-.416-.166 0-.108-1.806-.167-5.084-.167H280.5v3.851M130.167 7.583c0 .174-.175.25-.574.25-.54 0-.913.221-.636.375.07.039.02.043-.109.009-.13-.033-.518.242-.862.611-.345.37-.707.672-.806.672a.18.18 0 0 0-.18.179c0 .23-.424.654-.655.654a.18.18 0 0 0-.178.179c0 .231-.424.655-.655.655-.098 0-.179.075-.179.166 0 .092-.3.467-.666.834-.367.366-.667.754-.667.861 0 .107-.046.148-.103.091-.108-.107-.564.273-.564.47 0 .062-.187.261-.416.441-.229.18-.417.472-.417.649 0 .176-.112.321-.25.321a.25.25 0 0 0-.25.25c0 .137-.08.25-.179.25-.294 0-.654.452-.654.821 0 .482 8.054.543 9.004.069.803-.401 1.162-.751 1.165-1.135.002-.28.031-.295.164-.088.126.194.162.148.164-.209.002-.295.092-.458.253-.458.137 0 .25-.075.25-.167 0-.091.131-.165.291-.164.207.002.232.041.085.134-.296.188 1.022 1.53 1.505 1.533.265.002.306.042.146.143-.257.163.096.354.653.354.176 0 .32.075.32.167 0 .107 1.5.167 4.166.167 4.104 0 4.167-.006 4.167-.346 0-.369-.361-.821-.655-.821a.179.179 0 0 1-.178-.179c0-.23-.424-.654-.655-.654-.098 0-.179-.085-.179-.19 0-.104-.187-.363-.416-.575-.229-.212-.417-.453-.417-.535 0-.081-.375-.539-.833-1.017-.459-.478-.834-.94-.834-1.026 0-.087-.08-.157-.178-.157-.231 0-.655-.424-.655-.655a.18.18 0 0 0-.179-.179c-.23 0-.654-.424-.654-.654a.18.18 0 0 0-.179-.179c-.231 0-.655-.424-.655-.655a.176.176 0 0 0-.174-.178c-.096 0-.349-.188-.561-.417-.212-.229-.538-.417-.724-.417-.186 0-.382-.112-.434-.25-.079-.205-.51-.25-2.435-.25-1.967 0-2.338.04-2.338.25m122.062-.004c-.054.14-.277.254-.497.254-.219 0-.399.07-.399.156 0 .085-.165.208-.367.272-.429.136-.799.473-.799.727a.18.18 0 0 1-.179.179c-.231 0-.655.424-.655.654 0 .099-.08.179-.178.179-.302 0-.654.456-.668.863-.007.213-.051.293-.097.179-.121-.3-.279-.258-.529.142-.12.193-.138.301-.04.24s.179-.031.179.066a.202.202 0 0 1-.167.198c-.091.011-.228.03-.303.041-.235.036-.697.57-.697.805 0 .212-.561.799-.763.799-.163 0-.57.469-.57.655 0 .098-.113.179-.25.179-.138 0-.25.08-.25.178 0 .231-.424.655-.655.655a.179.179 0 0 0-.178.179c0 .23-.424.654-.655.654-.098 0-.179.188-.179.417v.417h4.417c2.833 0 4.417-.06 4.417-.167 0-.092.152-.167.338-.167.186 0 .382-.112.435-.25.052-.137.187-.25.3-.25.112 0 .304-.187.427-.416.122-.229.322-.417.444-.417.123 0 .222-.08.222-.179 0-.707.671-.597.908.15.063.199.185.372.27.383.086.012.217.03.293.042.212.032.696.56.696.759 0 .098.229.178.51.178.28 0 .466.071.413.156-.059.095 1.53.162 4.074.172 4.13.015 4.17.012 4.17-.335 0-.373-.359-.826-.655-.826-.098 0-.179-.144-.179-.319 0-.175-.262-.589-.583-.92-.321-.33-.583-.678-.583-.774 0-.095-.076-.127-.168-.07-.092.057-.22-.032-.283-.198-.145-.384-.473-.719-.704-.719a.18.18 0 0 1-.179-.179c0-.23-.424-.654-.654-.654a.18.18 0 0 1-.179-.179c0-.098-.094-.283-.208-.411-.495-.551-.625-.74-.625-.903 0-.249-.331-.216-.345.034-.007.115-.072.059-.146-.125-.182-.453-.042-.64.256-.341.134.134.355.201.489.15.135-.052.246-.007.246.1 0 .111-.09.141-.209.069-.143-.086-.137-.038.019.155.125.154.289.242.364.196.075-.046.19.004.257.111.08.13.047.15-.098.06-.141-.087-.178-.069-.104.051.063.101.225.143.359.091.153-.059.245.007.245.174 0 .147.075.268.167.268.091 0 .166.112.166.25 0 .137.081.25.179.25.231 0 .655.424.655.654 0 .099.08.179.178.179.231 0 .655.424.655.655 0 .098.08.178.178.178.098 0 .425.263.728.584.302.32.635.583.739.583a.19.19 0 0 1 .188.189c0 .258.648.801.889.745.107-.026.138-.014.069.024-.242.135.065.375.479.375.229 0 .375.067.324.15-.105.17.281.35.753.35.176 0 .32.077.32.171 0 .339 6.236.13 6.301-.212.057-.294-.317-.792-.595-.792-.082 0-.25-.187-.373-.417-.123-.229-.323-.416-.445-.416s-.222-.08-.222-.178c0-.231-1.757-1.989-1.989-1.989-.097 0-.178-.169-.18-.375-.002-.303-.033-.327-.164-.125-.13.202-.162.176-.164-.13-.002-.209-.115-.424-.253-.476-.137-.053-.25-.169-.25-.258 0-.301-.967-1.149-1.056-.927-.047.117-.09.073-.097-.101-.007-.169-.29-.582-.628-.916-.338-.335-.562-.52-.497-.412.064.108.041.244-.052.302-.093.057-.17-.013-.17-.155a.256.256 0 0 0-.25-.26.257.257 0 0 1-.25-.262c0-.181-.097-.23-.319-.159-.176.055-.367.024-.425-.071-.066-.105.004-.129.18-.061.194.074.247.047.165-.086-.066-.107-.346-.195-.622-.195-.277 0-.615-.112-.752-.25-.205-.204-.825-.25-3.423-.25h-3.172l.061.636.06.636-.458-.261c-.253-.143-.46-.317-.46-.386-.001-.068-.226-.125-.501-.125-.311 0-.485-.078-.459-.208.069-.342-4.848-.387-4.979-.046m7.604 1.338a.25.25 0 0 1-.25.25.251.251 0 0 1-.25-.25.25.25 0 0 1 .5 0m-239.5 10.08c.234.154-.981.269-1.876.178a.399.399 0 0 0-.393.231c-.072.189-.331.261-.936.261-.674 0-.8.042-.652.22.146.177.084.206-.314.148a1.429 1.429 0 0 0-.906.196c-.226.148-.564.269-.75.269-.191 0-.339.11-.339.25 0 .156-.158.25-.417.25-.229 0-.417.075-.417.167 0 .091-.187.166-.416.166-.26 0-.417.095-.417.25 0 .156-.157.25-.417.25-.229 0-.416.075-.416.167 0 .092-.146.167-.324.167-.387 0-.598.27-.302.389.115.046.003.09-.249.098-.252.007-.459.088-.459.179 0 .092-.139.167-.31.167-.17 0-.45.188-.623.417-.172.229-.407.416-.523.416-.116 0-.21.113-.21.25 0 .138-.108.25-.24.25a.468.468 0 0 0-.36.193c-.078.127-.045.147.1.057.144-.089.178-.069.099.058-.065.106-.265.192-.443.192-.177 0-.323.075-.323.167 0 .092-.107.167-.239.167-.131 0-.288.155-.348.346-.061.19-.15.306-.198.257-.094-.093-.548.302-.548.478 0 .058.086.051.192-.014.119-.074.147-.046.074.074a.47.47 0 0 1-.36.192c-.145 0-.24.165-.24.417 0 .229-.079.416-.176.416-.097 0-.123-.086-.058-.192.074-.119.046-.147-.073-.074a.468.468 0 0 0-.193.36c0 .132-.112.24-.25.24-.137 0-.25.094-.25.21 0 .116-.187.351-.416.523-.23.173-.417.453-.417.623 0 .171-.075.31-.167.31-.091 0-.166.105-.166.233 0 .127-.113.275-.25.328-.138.052-.25.248-.25.434s-.075.339-.167.339c-.092 0-.167.152-.167.338 0 .186-.112.382-.25.435-.137.052-.25.277-.25.5 0 .222-.112.447-.25.5-.137.052-.25.238-.25.411 0 .174-.075.316-.166.316-.092 0-.167.193-.167.428 0 .236-.113.541-.25.679-.138.137-.25.432-.25.655 0 .222-.075.404-.167.404-.091 0-.166.367-.166.816 0 .531-.079.845-.226.902-.483.185-.536 11.345-.056 11.697.195.142.282.446.282.989 0 .479.064.743.166.68.149-.092.244.348.185.852-.013.103.091.281.23.396.139.115.252.387.252.605 0 .218.088.378.196.355.116-.025.211.195.232.536.02.317.12.605.221.639.101.033.184.207.184.386 0 .178.113.368.25.42.138.053.25.201.25.328 0 .128.075.233.167.233.092 0 .167.187.167.416 0 .26.094.417.25.417.144 0 .25.151.25.355 0 .196.262.603.583.906.321.302.583.663.583.801 0 .139.074.297.165.353.095.059.123-.008.066-.156-.055-.143-.017-.259.085-.259.101 0 .184.193.184.429 0 .439.337.904.655.904a.18.18 0 0 1 .179.179c0 .231.424.655.654.655.099 0 .179.096.179.214 0 .117.226.347.503.511.277.163.46.367.407.452-.053.086.021.156.163.156.143 0 .26.075.26.167 0 .091.188.166.417.166.229 0 .417.078.417.174 0 .345.643.871.931.761.241-.093.251-.07.064.154-.12.145-.149.25-.065.234.413-.078.736.036.736.261 0 .137.113.25.25.25.138 0 .25.075.25.166 0 .092.142.167.316.167.173 0 .359.112.411.25.053.137.244.25.425.25s.375.075.432.167c.056.091.286.166.51.166.25 0 .406.096.406.25 0 .229.496.344 1.125.263.115-.015.209.051.209.147 0 .095.142.174.315.174.174 0 .359.112.412.25.067.177.344.25.944.25.523 0 .809.064.745.166-.064.104.249.167.824.167.712 0 .926.058.926.25 0 .216.621.25 4.584.25 3.963 0 4.583-.034 4.583-.25 0-.192.212-.25.907-.25.499 0 .953-.075 1.01-.167.056-.091.356-.166.666-.166.31 0 .61-.074.666-.165.06-.098-.014-.12-.184-.055-.194.074-.248.047-.166-.085.066-.108.421-.195.787-.195.402 0 .626-.066.564-.167-.062-.101.165-.167.573-.167.491 0 .677-.069.677-.25 0-.155.157-.25.417-.25.229 0 .416-.067.416-.148 0-.082.188-.196.417-.253.229-.058.417-.179.417-.269 0-.265.455-.186.564.098.056.145.185.207.294.14.12-.074.148-.046.074.074-.067.109-.005.238.14.294.144.055.261.204.261.332 0 .128.08.232.179.232.209 0 .654.416.656.613.002.211.844.554 1.36.554.341 0 .436.065.365.25-.083.218.447.25 4.172.25H48V45.078c0-19.332-.03-21.933-.25-22.018-.138-.052-.25-.26-.25-.461 0-.507-.374-1.263-.625-1.264-.115-.001-.208-.152-.208-.335 0-.185-.111-.333-.25-.333a.245.245 0 0 1-.25-.239c0-.131-.15-.286-.334-.345-.183-.058-.333-.175-.333-.261 0-.085-.206-.156-.458-.158-.348-.002-.4-.04-.213-.158.205-.129.191-.172-.084-.259a4.539 4.539 0 0 1-.618-.259c-.159-.085-2.203-.155-4.541-.155h-4.253v1.25c0 1.223-.009 1.25-.416 1.25-.229 0-.417-.075-.417-.166 0-.092-.179-.167-.399-.167-.219 0-.442-.113-.495-.25-.063-.165-.324-.25-.767-.25-.449 0-.658-.069-.631-.208.029-.142-.157-.197-.583-.172-.344.02-.625-.04-.625-.135 0-.094.087-.118.192-.052.12.073.148.045.074-.074-.065-.106-.407-.192-.758-.192-.414 0-.673-.088-.735-.25-.072-.188-.372-.25-1.194-.25-.635 0-1.058-.066-1.003-.155.058-.094-1.403-.16-3.698-.168-2.554-.008-3.713.042-3.545.153m104.797.03c-.042.127-.447.182-1.161.159-.803-.026-1.164.033-1.354.223-.142.141-.526.258-.853.258-.327 0-.595.065-.595.145 0 .08-.3.193-.667.252-.367.059-.667.181-.667.271 0 .091-.262.165-.583.165-.407 0-.583.075-.583.25 0 .137-.113.25-.25.25-.138 0-.25.075-.25.167 0 .091-.263.166-.584.166-.407 0-.583.076-.583.25 0 .138-.098.25-.217.25-.382 0-1.114.41-1.115.625-.001.186-.339.291-.722.224-.076-.013-.09.053-.032.147.059.096-.046.171-.237.171-.194 0-.344.109-.344.25 0 .137-.108.25-.24.25a.468.468 0 0 0-.359.192c-.079.128-.045.147.099.058.147-.091.178-.07.095.064-.067.11-.266.154-.442.098-.222-.07-.319-.021-.319.16a.261.261 0 0 1-.26.261c-.143 0-.214.075-.157.167.057.092-.014.167-.157.167a.256.256 0 0 0-.26.25c0 .137-.08.25-.178.25-.231 0-.655.424-.655.654 0 .099-.112.179-.25.179a.25.25 0 0 0-.25.25c0 .137-.08.25-.179.25-.23 0-.654.424-.654.655 0 .098-.086.178-.19.178-.256 0-.632.515-.638.875-.003.161-.118.292-.256.292a.251.251 0 0 0-.25.25c0 .137-.075.25-.166.25-.092 0-.167.188-.167.417 0 .229-.085.416-.19.416-.25 0-.631.512-.638.858a.435.435 0 0 1-.255.369c-.138.053-.25.244-.25.425s-.075.375-.167.432c-.092.056-.167.286-.167.51 0 .25-.096.406-.25.406-.167 0-.25.168-.25.51 0 .306-.068.468-.17.404-.094-.058-.161-.043-.147.032.089.514-.047 1.054-.266 1.054-.18 0-.25.184-.25.653 0 .366-.091.69-.208.737-.167.067-.167.087 0 .097.114.007.208.088.208.18s-.094.148-.208.125c-.128-.025-.229.185-.262.542-.03.32-.123.654-.209.741-.085.087-.154.969-.154 1.959 0 1.089-.066 1.8-.167 1.8a.172.172 0 0 0-.167.176c0 .097.075.13.167.074.092-.057.167.011.167.151 0 .158-.095.218-.25.159-.203-.078-.25.069-.25.773s.047.851.25.773c.171-.066.25.01.25.242 0 .222-.072.298-.209.22-.166-.094-.166-.072 0 .107.139.15.209.799.209 1.941 0 1.034.066 1.717.166 1.717.092 0 .167.256.167.57 0 .696.151 1.126.351 1.003.082-.051.149.214.149.589 0 .452.084.714.25.778.154.059.25.312.25.661 0 .311.075.566.167.566.091 0 .166.142.166.315 0 .174.113.359.25.412.138.052.25.27.25.484 0 .527.369 1.286.625 1.287.115.001.209.189.209.418 0 .23.075.417.166.417.092 0 .167.196.167.434 0 .318.067.409.25.339.17-.065.25.009.25.232 0 .181.075.328.167.328.091 0 .166.101.166.224 0 .124.188.442.417.709.229.266.416.54.416.609.001.069.113.125.251.125.137 0 .25.08.25.179 0 .23.424.654.654.654.099 0 .179.109.179.243 0 .276.761 1.091 1.019 1.091.225 0 .648.427.648.654 0 .099.08.179.178.179.231 0 .655.424.655.655 0 .098.112.178.25.178s.25.075.25.167c0 .092.107.167.238.167s.338.093.459.208c.544.513.875.723.723.458-.079-.137.066-.043.324.209.257.252.645.458.862.458.251 0 .394.097.394.268 0 .203.102.243.417.164.307-.078.416-.039.416.148 0 .159.155.253.417.253.259 0 .417.095.417.25 0 .156.157.25.416.25.23 0 .417.075.417.167 0 .092.254.167.566.167.348 0 .602.095.661.25.06.157.315.25.684.25.324 0 .589.071.589.159 0 .087.506.181 1.125.208.758.033 1.113.114 1.087.248-.029.148 1.061.201 4.375.213 3.854.013 4.413-.018 4.413-.24 0-.2.214-.255 1-.255.556 0 1-.074 1-.167 0-.091.3-.166.667-.166.481 0 .666-.07.666-.25 0-.167.167-.25.503-.25.276 0 .632-.07.791-.155.159-.085.426-.197.592-.249.166-.052.255-.17.198-.262-.061-.099.107-.168.406-.168.281 0 .51-.075.51-.166 0-.092.14-.167.31-.167.171 0 .451-.187.623-.417.404-.538.497-.525.714.098.099.283.331.555.516.603.186.049.337.159.337.245 0 .087-.086.104-.192.038-.117-.072-.147-.045-.078.067.063.101.217.145.342.097a.305.305 0 0 1 .354.117c.08.13.056.161-.067.085-.105-.066-.192-.04-.192.057s.15.177.333.177c.186 0 .334.111.334.25 0 .137.112.25.25.25.137 0 .25.075.25.166 0 .092.179.167.399.167.219 0 .442.115.496.255.084.219.69.252 4.434.239l4.337-.014V45.99c0-13.882-.056-20.99-.166-20.99-.092 0-.167-.117-.167-.26 0-.143.075-.213.167-.157.091.057.166.024.166-.073s-.075-.177-.166-.177c-.092 0-.167-.369-.167-.821 0-.508-.095-.917-.25-1.072-.138-.137-.25-.33-.25-.428 0-.098-.113-.179-.25-.179-.138 0-.25-.079-.25-.176 0-.097.081-.127.179-.066.098.061.08-.047-.04-.24-.121-.193-.276-.351-.346-.351-.069 0-.126-.113-.126-.25 0-.138-.1-.25-.222-.25s-.314-.172-.426-.382c-.113-.21-.368-.394-.567-.409-.199-.015-.447-.143-.55-.285-.104-.141-.312-.257-.462-.257-.15 0-.273-.075-.273-.167 0-.107-1.528-.167-4.25-.167h-4.25v1.5c0 1.223-.047 1.5-.25 1.5a.25.25 0 0 1-.25-.25c0-.155-.158-.25-.417-.25-.229 0-.417-.075-.417-.166 0-.092-.187-.167-.416-.167-.26 0-.417-.094-.417-.25 0-.179-.183-.25-.649-.25-.423 0-.682-.087-.745-.25-.052-.138-.248-.25-.434-.25s-.339-.075-.339-.167c0-.091-.375-.166-.833-.166-.651 0-.833-.058-.833-.266 0-.22-.18-.255-1.072-.21-.589.031-1.132-.012-1.208-.094-.079-.087-.01-.105.163-.042.179.064.26.041.199-.057-.154-.248-7.036-.22-7.119.029m29.402.386c.014.368.105.587.245.587.189 0 .326.681.243 1.208-.011.069.055.125.147.125.091 0 .166.182.166.405 0 .223.113.517.25.655.138.137.25.438.25.669 0 .23.075.465.167.521.092.057.167.283.167.502 0 .219.11.46.244.535.135.075.263.398.285.717.023.319.137.655.255.746.118.092.231.368.251.613.019.246.094.41.167.365.072-.044.131.177.131.492s.112.666.25.78c.137.114.25.38.25.59 0 .21.077.408.17.439.094.032.181.341.194.688.017.452.087.607.247.546.154-.059.222.063.222.395 0 .265.067.506.149.537.081.03.186.39.232.799.046.41.167.772.268.806.102.034.185.243.185.464 0 .222.075.403.166.403.092 0 .167.265.167.589 0 .369.093.624.25.684.154.059.25.313.25.661 0 .312.075.566.167.566.091 0 .166.173.166.385 0 .211.11.53.245.708.135.178.247.449.25.601.003.153.098.309.212.347.128.043.187.301.154.681-.038.438.022.641.21.713.169.065.263.306.263.676 0 .316.068.533.152.481.083-.051.202.207.264.573.062.367.181.709.265.761.084.051.152.274.152.495 0 .289.07.375.25.306.197-.076.25.047.25.575 0 .368.077.696.17.727.094.031.181.337.194.681.015.398.104.623.246.623.127 0 .223.18.223.417 0 .229.075.417.167.417.092 0 .167.079.167.176 0 .097-.094.124-.209.059-.166-.094-.166-.073 0 .107.115.123.209.391.209.596 0 .204.112.484.25.621.137.138.25.406.25.595 0 .19.075.346.166.346.092 0 .167.265.167.588 0 .37.093.625.25.685.158.06.251.319.253.703.001.453.043.544.164.357.118-.183.162-.065.164.446.001.394.111.806.252.947.138.137.25.405.25.595 0 .19.071.345.157.345.086 0 .18.282.208.625.033.391.13.61.26.584.139-.028.209.18.209.625 0 .366.075.666.166.666.092 0 .167.153.167.339 0 .186.112.382.25.434.137.053.25.168.25.255s-.075.112-.167.056c-.091-.057-.166-.024-.166.073s.075.177.166.177c.092 0 .167.187.167.416 0 .26.094.417.25.417.18 0 .25.184.25.653 0 .359.08.679.177.711.097.033.183.298.192.589.008.292.097.515.198.497.101-.018.207.229.237.55.029.321.123.655.208.742.085.087.155.33.155.541 0 .211.089.365.198.342.109-.023.227.09.262.25.04.181-.035.292-.198.292s-.262.145-.262.383c0 .211-.094.484-.209.608-.166.179-.166.201 0 .107.115-.065.209-.045.209.045 0 .089-.077.188-.171.219-.093.031-.187.293-.208.583-.03.418-.084.488-.261.341-.17-.141-.215-.127-.189.056.081.564-.016 1.17-.171 1.074-.101-.062-.167.165-.167.574 0 .49-.069.676-.25.676-.168 0-.25.168-.25.512 0 .282-.119.632-.265.778-.176.175-.234.424-.171.738.055.275.022.472-.078.472-.095 0-.119-.086-.053-.192.073-.119.045-.147-.074-.074-.106.066-.192.34-.192.61 0 .279-.09.491-.209.492-.139.002-.125.057.042.164.214.138.208.162-.042.164-.212.002-.291.139-.291.503 0 .275-.075.5-.167.5-.092 0-.167.254-.167.566 0 .348-.095.602-.25.661-.157.06-.25.315-.25.684 0 .324-.075.589-.166.589-.092 0-.167.181-.167.403 0 .221-.077.428-.17.459-.094.032-.211.279-.26.551-.049.271-.179.604-.288.739-.156.192-.154.218.01.12.114-.069.208-.046.208.051a.172.172 0 0 1-.167.177c-.091 0-.166.188-.166.417 0 .259-.095.416-.25.416-.181 0-.25.186-.25.667 0 .367-.075.667-.167.667-.092 0-.167.308-.167.684 0 .54-.052.664-.25.589-.199-.077-.25.057-.25.663v.76l5.764-.056c5.258-.052 5.782-.083 5.977-.349.117-.16.296-.291.397-.291.102 0 .142-.113.089-.25-.059-.155.001-.25.158-.25.14 0 .292-.094.338-.209.067-.165.087-.165.098.002.017.286.679-.119.679-.417 0-.115.074-.21.164-.21.09 0 .21-.187.268-.416.057-.23.166-.417.242-.417.076 0 .161-.206.19-.458.03-.258.144-.44.261-.417.135.027.209-.164.209-.542 0-.321.075-.583.166-.583.092 0 .167-.3.167-.667 0-.481.069-.666.25-.666.15 0 .25-.154.25-.384 0-.21.094-.484.208-.607.167-.18.167-.201 0-.107-.114.064-.208.038-.208-.059s.075-.177.167-.177c.091 0 .166-.187.166-.416 0-.26.095-.417.25-.417.168 0 .25-.168.25-.512 0-.281.113-.624.25-.762.138-.137.25-.469.25-.738 0-.268.075-.488.167-.488.092 0 .167-.3.167-.667 0-.444.069-.652.208-.625.131.026.212-.158.218-.496.006-.295.074-.595.152-.666.078-.071.088-.036.022.079-.066.115-.041.208.056.208.098 0 .177-.254.177-.565 0-.349.096-.602.25-.662.157-.06.25-.315.25-.684 0-.324.075-.589.167-.589.091 0 .166-.262.166-.583 0-.407.076-.583.25-.583.181 0 .25-.186.25-.667 0-.367.075-.667.167-.667.092 0 .167-.179.167-.399 0-.219.112-.442.25-.494.157-.06.25-.315.25-.685 0-.323.075-.588.166-.588.092 0 .167-.263.167-.584 0-.407.075-.583.25-.583.181 0 .25-.185.25-.667 0-.366.075-.666.167-.666.091 0 .166-.156.166-.346 0-.189.113-.457.25-.595.138-.137.25-.536.25-.887 0-.412.088-.67.25-.733.138-.052.25-.248.25-.434s.075-.339.167-.339c.092 0 .167-.3.167-.666 0-.482.069-.667.25-.667.174 0 .25-.176.25-.583 0-.321.075-.584.166-.584.092 0 .167-.193.167-.428 0-.236.112-.541.25-.679.137-.137.25-.432.25-.655 0-.222.075-.404.167-.404.091 0 .166-.3.166-.667 0-.481.07-.667.25-.667.175 0 .25-.176.25-.583 0-.321.075-.583.167-.583.092 0 .167-.193.167-.429s.112-.541.25-.678c.137-.138.25-.433.25-.655 0-.223.075-.405.166-.405.092 0 .167-.254.167-.566 0-.348.096-.602.25-.661.157-.06.25-.315.25-.684 0-.324.075-.589.167-.589.091 0 .166-.178.166-.396 0-.218.113-.49.25-.604.142-.117.25-.481.25-.836 0-.405.089-.662.25-.724.138-.053.25-.249.25-.435s.063-.338.14-.338c.077 0 .15-.278.163-.617.013-.358.129-.675.277-.758.139-.078.254-.321.254-.54 0-.22.075-.445.166-.502.092-.057.167-.399.167-.76 0-.473.07-.657.25-.657.156 0 .25-.157.25-.416 0-.229.075-.417.167-.417.091 0 .166-.3.166-.667 0-.481.07-.666.25-.666.166 0 .25-.166.25-.49 0-.27.075-.537.167-.594.092-.056.167-.398.167-.76 0-.361.079-.656.176-.656.097 0 .123.086.058.192-.074.119-.046.147.073.074.106-.066.193-.34.193-.61 0-.269.075-.49.166-.49.092 0 .167-.3.167-.666 0-.482.069-.667.25-.667.18 0 .25-.184.25-.653 0-.359.077-.678.17-.709.094-.031.188-.3.209-.597.039-.553.194-.704.344-.333.046.115.09-.115.097-.51.008-.433.079-.677.18-.615.097.06.167-.105.167-.395 0-.273.112-.61.25-.748.137-.137.25-.517.25-.845 0-.418.074-.595.25-.595.137 0 .25-.146.25-.323 0-.178.075-.37.166-.427.092-.057.167-.353.167-.659 0-.34.097-.593.25-.651.145-.056.25-.305.25-.592 0-.272.075-.541.167-.598.091-.057.166-.396.166-.755 0-.51.054-.63.25-.555.202.077.25-.067.25-.756v-.851h-5.406c-3.425 0-5.445.061-5.51.167-.057.092-.251.167-.432.167s-.372.112-.425.25c-.052.137-.275.25-.494.25-.244 0-.399.097-.399.25 0 .137-.117.25-.26.25-.143 0-.214.075-.157.166.057.092-.014.167-.157.167a.256.256 0 0 0-.26.25.25.25 0 0 1-.25.25c-.152 0-.25.155-.25.399 0 .219-.112.442-.25.495-.137.052-.25.243-.25.424s-.075.375-.166.432c-.092.057-.167.249-.167.427 0 .177-.072.323-.159.323-.088 0-.209.263-.269.585-.06.322-.184.631-.275.688-.101.062-.077.158.06.245.167.106.171.144.018.146-.115.002-.208.193-.208.425 0 .232-.113.465-.25.517-.155.06-.25.313-.25.662 0 .311-.075.565-.167.565-.092 0-.167.182-.167.403 0 .222-.076.428-.17.46-.094.031-.211.281-.26.555-.049.275-.16.57-.246.657-.086.087-.157.406-.157.709 0 .377-.078.55-.25.55-.174 0-.25.174-.25.573 0 .316-.075.62-.167.677-.091.056-.166.254-.166.438a.958.958 0 0 1-.25.585c-.138.138-.25.433-.25.655 0 .223-.075.405-.167.405-.092 0-.167.3-.167.667 0 .432-.075.666-.214.666-.123 0-.232.233-.256.542-.022.298-.113.567-.202.597-.088.031-.161.212-.161.404 0 .191-.131.502-.292.691-.277.328-.277.333 0 .118.201-.156.292-.166.292-.034 0 .106-.113.236-.25.289-.138.052-.25.238-.25.411 0 .174-.074.316-.165.316-.09 0-.212.3-.271.666-.059.367-.172.667-.252.667-.08 0-.145.254-.145.566 0 .36-.095.601-.263.666-.163.062-.251.274-.232.559.047.72.008.903-.172.792-.095-.058-.167.082-.167.324 0 .234-.073.426-.163.426-.09 0-.211.188-.268.417-.152.604-.402.511-.402-.149 0-.349-.096-.602-.25-.661-.157-.06-.25-.315-.25-.685 0-.323-.075-.588-.167-.588-.091 0-.166-.182-.166-.405 0-.223-.113-.517-.25-.655-.138-.137-.25-.443-.25-.678 0-.236-.075-.429-.167-.429-.092 0-.167-.227-.167-.505 0-.296-.104-.545-.25-.601-.163-.063-.25-.322-.25-.745 0-.357-.079-.649-.176-.649-.097 0-.123.087-.058.192.074.12.046.148-.073.074-.106-.065-.193-.415-.193-.776 0-.361-.075-.657-.166-.657-.092 0-.167-.225-.167-.5 0-.333-.083-.5-.25-.5-.166 0-.25-.165-.25-.49 0-.269-.075-.536-.167-.593-.091-.057-.166-.363-.166-.682 0-.36-.095-.615-.25-.674-.155-.06-.25-.313-.25-.662 0-.311-.07-.565-.156-.565s-.179-.207-.208-.459c-.03-.257-.144-.44-.261-.416-.139.027-.209-.181-.209-.625 0-.367-.075-.667-.166-.667-.092 0-.167-.265-.167-.589 0-.369-.093-.624-.25-.684-.154-.059-.25-.313-.25-.661 0-.312-.075-.566-.167-.566-.091 0-.166-.187-.166-.417 0-.259-.095-.416-.25-.416-.181 0-.25-.186-.25-.667 0-.367-.075-.667-.167-.667-.092 0-.167-.219-.167-.488 0-.268-.112-.6-.25-.738a.973.973 0 0 1-.25-.595c0-.19-.07-.345-.155-.345-.086 0-.208-.166-.272-.368-.136-.429-.473-.799-.727-.799a.18.18 0 0 1-.179-.179c0-.315-.961-1.154-1.321-1.154-.196 0-.346-.108-.346-.25 0-.156-.157-.25-.416-.25-.229 0-.417-.072-.417-.159 0-.096-2.148-.163-5.495-.17l-5.495-.013.022.588m52.009 21.295c.034 17.393.085 21.867.251 21.834.134-.027.208.163.208.536 0 .47.052.558.277.472.223-.086.257-.032.175.282-.102.391 1.11 1.835 1.54 1.835.096 0 .175.085.175.19 0 .318.553.632 1.125.638.357.003.541.087.541.244 0 .202.664.242 4.167.255l4.167.016V53.833c0-11.559.03-13.189.25-13.273.142-.054.25-.303.25-.578 0-.265.075-.482.166-.482.092 0 .167-.22.167-.488 0-.269.112-.601.25-.738a.978.978 0 0 0 .25-.595c0-.19.085-.346.19-.346.25 0 .631-.511.638-.857a.447.447 0 0 1 .266-.374c.143-.055.214-.175.157-.267-.057-.093-.017-.168.09-.168.106 0 .634-.45 1.172-1 .538-.55 1.056-1 1.15-1 .093 0 .17-.113.17-.25 0-.156.158-.25.417-.25.229 0 .417-.074.417-.164 0-.09.187-.21.416-.268.23-.057.417-.171.417-.253 0-.082.272-.149.604-.149.464 0 .563-.048.431-.208-.133-.161 0-.22.583-.258.415-.027.861-.155.99-.285.13-.13.363-.187.522-.127.236.088.251.064.087-.139-.163-.201-.14-.251.127-.271.35-.026.823-.418.823-.682 0-.088.112-.204.25-.257.157-.06.25-.315.25-.684 0-.324.075-.589.166-.589.108 0 .167-1.777.167-5v-5h-2.069c-1.209 0-2.093.069-2.125.164-.031.091-.43.178-.888.196-.458.017-.932.13-1.054.252-.121.122-.511.222-.866.222s-.691.074-.747.164c-.06.098.014.121.184.055.187-.071.247-.045.173.075-.068.108-.35.145-.691.09-.439-.071-.603-.028-.682.178-.068.177-.301.271-.669.271-.392 0-.566.077-.566.25 0 .156-.157.25-.417.25-.229 0-.416.075-.416.167 0 .091-.188.166-.417.166-.259 0-.417.095-.417.25 0 .154-.156.25-.402.25-.222 0-.441.094-.487.209-.047.114-.09.034-.098-.179-.013-.407-.366-.863-.667-.863-.099 0-.179-.087-.179-.192 0-.283-1.338-1.469-1.783-1.581-.211-.053-.384-.163-.384-.245 0-.082-.079-.149-.176-.149-.097 0-.124.094-.059.209.094.166.073.166-.107 0-.167-.155-1.282-.209-4.358-.209h-4.134l.042 21.875M250.583 19c-.056.092-.519.167-1.027.167-.75 0-.907.046-.83.248.053.136.042.24-.024.23-.371-.055-1.918.062-1.744.132.418.169.194.321-.375.255-.453-.053-.583-.009-.583.2 0 .202-.165.268-.667.268-.481 0-.666.069-.666.25 0 .156-.158.25-.417.25-.229 0-.417.075-.417.167 0 .091-.187.166-.416.166-.26 0-.417.095-.417.25 0 .156-.157.25-.417.25-.229 0-.416.074-.416.164 0 .09-.188.21-.417.268-.229.057-.417.171-.417.253 0 .082-.112.149-.25.149-.137 0-.25.066-.25.147 0 .081-.131.191-.291.245-.612.205-1.375.814-1.375 1.096a.18.18 0 0 1-.179.178c-.221 0-.655.421-.655.636 0 .087-.157.2-.35.25-.193.051-.3.172-.24.27.063.102-.026.178-.21.178-.176 0-.461.195-.635.435a8.17 8.17 0 0 1-.523.655c-.115.12-.208.3-.208.398a.18.18 0 0 1-.179.178c-.262 0-.655.437-.655.729a.48.48 0 0 1-.192.371c-.127.078-.147.045-.058-.1.09-.144.07-.178-.057-.099-.106.065-.193.247-.193.403 0 .156-.187.425-.416.597-.229.172-.417.452-.417.623 0 .17-.075.31-.167.31-.091 0-.166.104-.166.232s-.113.275-.25.328c-.138.053-.25.29-.25.528 0 .245-.072.387-.167.328-.094-.058-.167.076-.167.306 0 .225-.112.452-.25.505-.137.052-.25.242-.25.42 0 .179-.093.363-.208.409-.157.064-.146.129.042.262.169.12.183.177.041.179-.114.002-.208.19-.208.419 0 .26-.094.417-.25.417-.175 0-.25.176-.25.583 0 .321-.072.584-.161.584-.088 0-.211.376-.272.837-.061.46-.176.877-.256.926-.079.049-.147.516-.15 1.038-.003.567-.103 1.078-.249 1.271-.392.519-.343 6.093.054 6.097.223.002.235.033.058.146-.158.1-.17.178-.042.257.106.066.185.605.185 1.271 0 .703.069 1.157.176 1.157.097 0 .13-.075.074-.167-.057-.092-.043-.167.031-.167.075.001.14.427.145.948.005.578.087.973.208 1.014.109.036.199.285.199.552 0 .321.085.486.25.486.181 0 .25.186.25.667 0 .367.075.667.167.667.091 0 .166.187.166.416 0 .26.095.417.25.417.156 0 .25.157.25.417 0 .229.075.416.167.416.092 0 .167.188.167.417 0 .229.08.417.178.417.193 0 .655.41.655.581 0 .058-.075.059-.167.002-.091-.057-.166-.056-.166.002 0 .171.461.581.654.581.099 0 .18.207.182.459.002.357.038.403.164.208.126-.195.162-.149.164.208.001.295.091.459.252.459.138 0 .25.08.25.178 0 .098.094.283.209.411.494.552.625.74.625.904 0 .095.112.173.25.173.137 0 .25.113.25.25 0 .138.117.25.26.25.142 0 .213.075.156.167-.056.092.014.167.157.167s.26.08.26.178c0 .184.517.771.613.697.03-.023.185-.041.345-.039.251.002.256.026.042.169-.273.183.044.468.75.676.183.054.315.185.292.292-.023.106.043.193.147.193s.363.188.576.417c.212.229.494.417.626.417s.283.112.336.25c.053.137.248.25.434.25.187 0 .339.075.339.166 0 .092.104.167.232.167s.276.112.328.25c.053.137.249.25.435.25s.338.083.338.184c0 .102.115.141.255.087.144-.055.377.045.537.232.175.205.491.33.829.33.3 0 .546.075.546.167 0 .092.155.167.345.167.19 0 .458.112.595.25.138.137.545.25.905.25s.655.075.655.166c0 .092.367.167.816.167.571 0 .844.075.911.25.053.138.192.249.309.247.152-.001.143-.047-.031-.157-.135-.085-.185-.215-.112-.289.074-.074.23-.003.347.158.301.411 8.543.45 8.7.041.065-.17.331-.25.828-.25.403 0 .732-.075.732-.167 0-.091.079-.166.177-.166.097 0 .123.093.058.208-.094.167-.072.167.107 0 .124-.115.51-.208.858-.208.452 0 .633-.072.633-.25 0-.175.176-.25.584-.25.32 0 .583-.07.583-.156s.206-.179.458-.208c.258-.03.44-.144.417-.261-.026-.131.149-.209.468-.209.298 0 .467-.069.407-.166-.06-.098.113-.167.417-.167.285 0 .481-.062.435-.137-.047-.075.062-.263.242-.417.364-.312.563-.367.406-.113-.2.324.133.162.515-.25.212-.229.489-.416.616-.416.255 0 1.119-.9 1.119-1.166 0-.092.079-.168.177-.168.097 0 .13.075.073.167-.057.092-.032.167.056.167.087 0 .203-.118.258-.261.055-.143.176-.214.268-.157.092.057.168-.017.168-.166 0-.148.075-.223.167-.166.091.056.166-.014.166-.157s.081-.26.179-.26c.231 0 .655-.424.655-.655 0-.098.08-.178.177-.178.325 0 1.989-1.804 1.989-2.156 0-.195.109-.344.25-.344.138 0 .25-.067.25-.15 0-.082.187-.325.414-.541.228-.216.415-.518.417-.67.001-.153.081-.304.177-.336.095-.032.186-.221.201-.419.015-.199.105-.348.201-.331.095.016.197-.176.226-.428.029-.252.123-.459.209-.459.085 0 .155-.177.155-.393 0-.225.179-.527.417-.706.29-.218.417-.473.417-.839 0-.289.096-.563.213-.608.117-.045.231-.322.254-.617.022-.294.151-.646.287-.781.135-.135.246-.461.246-.724 0-.263.075-.525.166-.582.092-.056.167-.516.167-1.021 0-.595.088-1.007.25-1.169.207-.207.25-.879.25-3.91 0-3.1-.038-3.675-.25-3.756-.186-.071-.25-.368-.25-1.161 0-.587-.065-1.066-.145-1.066-.08 0-.185-.354-.234-.786-.048-.433-.171-.814-.271-.847-.101-.034-.183-.32-.183-.636 0-.357-.095-.611-.25-.671-.138-.052-.25-.275-.25-.494 0-.22-.075-.399-.167-.399-.092 0-.167-.188-.167-.417 0-.259-.094-.417-.25-.417-.155 0-.25-.157-.25-.416 0-.229-.075-.417-.166-.417-.092 0-.167-.187-.167-.417 0-.259-.094-.416-.25-.416s-.25-.158-.25-.417c0-.229-.075-.417-.167-.417-.091 0-.166-.112-.166-.25a.251.251 0 0 0-.25-.25c-.142 0-.25-.149-.25-.345 0-.369-.361-.821-.655-.821-.098 0-.179-.113-.179-.25 0-.138-.089-.232-.198-.209-.109.023-.231-.108-.27-.291-.088-.412-.532-1.068-.532-.787 0 .112-.072.203-.161.203-.089 0-.113-.125-.055-.279.077-.2.038-.252-.137-.185-.162.063-.254-.02-.27-.242-.028-.368-.613-1.001-.776-.839-.055.055-.101-.033-.101-.197 0-.259-.037-.269-.282-.07-.209.17-.248.174-.152.013.168-.279-.184-.701-.586-.701-.172 0-.313-.08-.313-.178 0-.231-.424-.655-.655-.655-.098 0-.178-.121-.178-.268 0-.182-.09-.233-.279-.161-.186.072-.432-.061-.741-.399-.254-.278-.578-.505-.721-.505-.143 0-.259-.075-.259-.167 0-.092-.225-.167-.5-.167-.334 0-.5-.083-.5-.25 0-.155-.158-.25-.417-.25-.229 0-.417-.075-.417-.166 0-.092-.187-.167-.416-.167-.26 0-.417-.094-.417-.25s-.157-.25-.417-.25c-.229 0-.417-.094-.419-.208-.002-.156-.038-.153-.143.014-.114.179-.161.171-.243-.042-.055-.145-.249-.264-.43-.264-.18 0-.375-.075-.431-.167-.057-.091-.474-.166-.927-.166-.621 0-.823-.062-.823-.25 0-.195-.223-.25-1-.25-.556 0-1-.074-1-.167 0-.262-6.874-.222-7.158.042-.18.166-.201.166-.107 0 .139-.246-.168-.286-.319-.042M280.5 40.571c0 19.101.03 21.769.25 21.989.137.137.25.442.25.678 0 .236.075.429.167.429.091 0 .166.12.166.268 0 .294 1.378 1.732 1.659 1.732.096 0 .175.093.176.208.002.255.76.625 1.282.625.23 0 .383.1.383.25 0 .216.574.25 4.167.25h4.167V45.093c0-14.425-.057-21.942-.167-22.01-.092-.056-.167-.283-.167-.504 0-.289-.07-.375-.25-.306-.184.071-.25-.022-.25-.35 0-.455-.332-.923-.654-.923-.099 0-.179-.147-.179-.327 0-.181-.164-.416-.365-.524a4.638 4.638 0 0 1-.79-.589c-.234-.216-.557-.393-.718-.393-.162 0-.294-.075-.294-.167 0-.107-1.583-.167-4.416-.167H280.5v21.738M25.417 31.667c-.063.101.186.166.639.166.505 0 .772.08.838.25.055.144.304.25.587.25.496 0 1.516.477 1.518.709.001.068.189.125.418.125.259 0 .416.094.416.25 0 .137.113.25.25.25.138 0 .251.093.253.208.002.139.056.125.164-.042.108-.166.162-.18.164-.041.002.114.115.208.253.208.137 0 .25.08.25.179 0 .23.424.654.654.654.099 0 .179.113.179.25 0 .138.075.25.167.25.091 0 .166.095.166.21 0 .116.188.413.417.66.229.247.417.527.417.623 0 .096.092.155.204.132.112-.023.233.146.267.375.034.23.133.461.22.515.088.054.171.263.186.463.017.221.111.332.242.282.155-.06.214.126.214.672 0 .461.065.715.167.652.177-.11.198.337.167 3.583-.01 1.054-.089 1.942-.176 1.972-.087.031-.158.312-.158.625s-.084.57-.187.57c-.128 0-.121.08.023.253.174.21.168.238-.035.16-.146-.056-.257.009-.273.163l-.056.5c-.015.133-.09.204-.166.156-.077-.047-.139.034-.139.18a.42.42 0 0 1-.25.361c-.138.052-.25.238-.25.411 0 .174-.075.316-.167.316-.092 0-.167.147-.167.328 0 .223-.08.297-.25.232-.182-.07-.25.021-.25.339 0 .243-.094.434-.215.434-.271 0-1.656 1.397-1.538 1.552.047.063.036.076-.026.03-.18-.136-.888.614-.772.817.058.101.041.126-.037.056-.194-.177-1.578 1.209-1.578 1.58 0 .164-.08.298-.177.298-.097 0-.13-.075-.073-.166.18-.292-.021-.18-.35.195-.174.199-.218.304-.096.233.182-.108.183-.07.001.221-.12.193-.28.351-.355.351-.075 0-.083-.087-.018-.193.075-.12.046-.147-.076-.072-.107.067-.158.181-.113.254.111.179-1.918 2.192-2.097 2.081-.079-.048-.101.02-.05.152.059.155-.084.318-.401.458-.321.142-.465.309-.414.477.044.143-.057.053-.223-.199s-.397-.458-.514-.458c-.116 0-.211-.081-.211-.179 0-.231-.424-.655-.655-.655a.178.178 0 0 1-.178-.178c0-.231-.424-.655-.655-.655a.18.18 0 0 1-.179-.179c0-.234-.92-1.154-1.154-1.154a.18.18 0 0 1-.179-.179c0-.231-.424-.655-.655-.655a.178.178 0 0 1-.178-.178c0-.231-.424-.655-.655-.655a.18.18 0 0 1-.179-.179c0-.23-.424-.654-.654-.654a.18.18 0 0 1-.179-.179c0-.231-.424-.655-.655-.655a.178.178 0 0 1-.178-.178c0-.231-.424-.655-.655-.655-.098 0-.179-.147-.179-.327 0-.335-.538-.746-.728-.556-.058.058-.105.018-.105-.089s.078-.195.173-.195c.096 0-.017-.205-.25-.456-.232-.251-.423-.551-.423-.667 0-.115-.075-.21-.167-.21-.091 0-.166-.113-.166-.25a.25.25 0 0 0-.25-.25c-.156 0-.25-.157-.25-.417 0-.229-.075-.416-.167-.416-.092 0-.167-.3-.167-.667 0-.481-.069-.667-.25-.667-.196 0-.25-.232-.25-1.093 0-.601-.059-1.056-.132-1.011-.072.045-.144-.081-.159-.28-.022-.286.005-.31.129-.114.133.21.158.204.16-.043.001-.161-.088-.292-.198-.292-.155 0-.155-.044 0-.2.11-.11.199-.279.198-.375-.002-.096-.075-.063-.164.075-.14.215-.162.211-.164-.032-.002-.155.072-.328.164-.385.091-.056.166-.54.166-1.075 0-.636.074-1.001.213-1.054.118-.045.232-.331.256-.636.023-.305.107-.595.187-.645.079-.049.172-.277.206-.506.035-.229.139-.403.233-.387.093.017.181-.121.195-.305.014-.185.217-.514.451-.731.234-.217.426-.548.426-.736 0-.188.08-.341.179-.341.23 0 .654-.424.654-.655 0-.098.113-.179.25-.179.138 0 .25-.117.25-.26 0-.142.075-.213.167-.156.092.056.167-.014.167-.157 0-.154.144-.26.356-.26.195 0 .529-.187.742-.417.212-.229.531-.416.709-.416.178 0 .367-.113.42-.25.052-.138.248-.25.434-.25s.339-.075.339-.167c0-.092.123-.167.273-.167.15 0 .375-.131.5-.291.212-.272.221-.269.13.041-.089.307-.079.311.136.052.154-.187.526-.296 1.097-.322.475-.022.864-.101.864-.176 0-.075.642-.137 1.426-.137.909 0 1.389.061 1.324.167m50.152.041c-.094.167-.073.167.107 0 .278-.258 3.991-.297 3.991-.041 0 .091.292.166.649.166.422 0 .682.087.744.25.053.138.28.25.505.25.442 0 1.3.41 1.83.873.182.16.467.334.634.387.168.053.304.166.304.252 0 .085.113.155.25.155.138 0 .25.08.25.179 0 .261.437.654.729.654.138 0 .305.087.371.193.076.123.045.147-.086.066-.15-.093-.146-.033.014.224.121.193.314.351.429.351.116 0 .21.08.21.178 0 .231.424.655.655.655.098 0 .178.146.178.323 0 .178.075.37.167.427.092.057.167.251.167.432s.112.372.25.424c.137.053.25.278.25.5 0 .223.112.448.25.5.169.066.25.331.25.828 0 .403.075.733.166.733.104 0 .167.916.167 2.416s-.063 2.417-.167 2.417c-.091 0-.166.262-.166.583 0 .408-.076.584-.25.584-.138 0-.25.145-.25.323 0 .179-.167.607-.371.952-.203.345-.384.721-.401.836-.016.115-.225.389-.463.61-.237.22-.432.485-.432.589 0 .105-.07.19-.155.19-.086 0-.208.165-.272.367-.15.471-.48.799-.805.799-.141 0-.34.157-.442.348-.103.191-.227.307-.276.258-.116-.116-.55.317-.55.549 0 .098-.206.18-.458.181-.357.002-.403.038-.209.164.196.127.153.162-.196.164-.246.002-.559.115-.697.253-.137.137-.424.251-.636.253-.301.002-.333.036-.145.156.172.108 0 .169-.583.205-.56.036-.812.121-.783.265.034.167-.54.203-2.667.167-2.059-.035-2.699-.096-2.668-.254.027-.135-.162-.209-.531-.209-.316 0-.62-.075-.677-.166-.057-.092-.251-.167-.432-.167s-.372-.113-.424-.25c-.053-.138-.276-.25-.495-.25-.22 0-.399-.075-.399-.167 0-.091-.175-.166-.389-.166-.243 0-.471-.155-.611-.417-.123-.229-.323-.417-.445-.417a.222.222 0 0 1-.222-.222c0-.122-.187-.322-.416-.444-.229-.123-.417-.291-.417-.374 0-.199-.434-.626-.636-.626-.088 0-.299-.27-.47-.6l-.475-.916c-.091-.175-.222-.318-.292-.318-.07 0-.127-.152-.127-.338 0-.186-.113-.382-.25-.435-.154-.059-.25-.312-.25-.661 0-.311-.075-.566-.167-.566-.091 0-.166-.235-.166-.523 0-.296-.127-.627-.292-.762-.16-.132-.198-.192-.083-.134.114.058.208.026.208-.071a.172.172 0 0 0-.167-.176c-.1 0-.166-.695-.166-1.75 0-1.288.055-1.751.208-1.753.156-.002.152-.038-.014-.143-.179-.114-.171-.161.042-.243.172-.066.264-.306.264-.689 0-.324.075-.589.166-.589.092 0 .167-.146.167-.324 0-.178.167-.606.37-.951.204-.346.387-.738.407-.872.019-.135.153-.31.296-.39.143-.081.26-.298.26-.483 0-.32.354-.813.584-.813.173 0 .583-.461.583-.655a.18.18 0 0 1 .179-.179c.23 0 .654-.424.654-.654 0-.099.113-.179.25-.179.138 0 .25-.121.25-.268 0-.167.092-.232.246-.174.134.052.354-.015.488-.148.133-.134.355-.243.492-.243.138 0 .398-.188.578-.417.245-.311.485-.417.949-.417.534 0 .592-.035.414-.25-.179-.216-.103-.25.563-.25.424 0 .77-.075.77-.166 0-.092.08-.167.177-.167.097 0 .123.094.059.208m55.264-.041c0 .091.3.166.667.166.481 0 .667.07.667.25 0 .178.181.251.625.253.465.002.561.044.375.164-.202.13-.177.162.13.164.209.002.423.115.476.253.053.137.233.25.4.25s.579.26.916.577c.336.318.754.623.928.678.174.055.316.17.316.256 0 .085.113.155.25.155.138 0 .25.144.25.319 0 .176.263.59.584.92.32.33.583.671.583.757 0 .086.188.343.417.573.229.229.416.572.416.762 0 .191.113.39.25.442.153.059.25.312.25.652 0 .306.065.596.145.645.08.049.196.541.258 1.093.063.552.185 1.004.272 1.004.087 0 .158.169.156.375-.002.303-.033.327-.164.125-.24-.372-.201-.051.042.341.169.272.165.362-.018.477-.158.098-.17.175-.042.254.102.063.185.189.185.281 0 .092-.067.126-.148.075-.184-.113-.407 1.568-.259 1.953.068.18.011.32-.159.385-.147.057-.268.285-.268.507 0 .222-.112.447-.25.5-.137.053-.25.238-.25.411 0 .174-.075.316-.166.316-.092 0-.167.188-.167.417 0 .259-.094.416-.25.416a.25.25 0 0 0-.25.25c0 .138-.075.25-.167.25-.091 0-.166.14-.166.31 0 .171-.188.451-.417.623-.229.172-.417.408-.417.524 0 .115-.08.21-.178.21-.231 0-.655.424-.655.655 0 .098-.113.178-.25.178-.138 0-.25.075-.25.167 0 .092-.139.167-.31.167-.17 0-.451.187-.623.416-.174.233-.482.417-.695.417-.21 0-.426.112-.478.25-.053.137-.276.25-.495.25-.22 0-.399.075-.399.167 0 .091-.257.166-.571.166-.315 0-.684.113-.822.25-.331.332-4.747.368-5.098.042-.18-.167-.201-.167-.107 0 .065.115.038.208-.059.208s-.176-.112-.176-.25c0-.174-.176-.25-.584-.25-.32 0-.583-.075-.583-.166 0-.092-.187-.167-.417-.167-.259 0-.416-.094-.416-.25s-.158-.25-.417-.25c-.229 0-.417-.075-.417-.167 0-.091-.104-.166-.232-.166s-.275-.113-.328-.25a.42.42 0 0 0-.363-.25c-.304 0-.743-.388-.743-.655 0-.098-.074-.179-.165-.179-.256 0-.828-.543-.734-.696.047-.075 0-.137-.103-.137-.264 0-.599-.364-.738-.799-.064-.202-.186-.368-.272-.368-.085 0-.155-.112-.155-.25 0-.137-.075-.25-.167-.25-.091 0-.166-.152-.166-.338 0-.186-.113-.382-.25-.435-.138-.052-.25-.275-.25-.494 0-.22-.066-.399-.146-.399-.08 0-.193-.3-.252-.667-.058-.367-.18-.667-.271-.667-.091 0-.165-.375-.165-.833 0-.63-.061-.833-.25-.833-.149 0-.248-.151-.244-.375.005-.366.011-.367.25-.052.217.288.244.292.244.037 0-.158-.112-.331-.25-.383-.137-.053-.25-.268-.25-.477 0-.21.113-.425.25-.477.19-.073.25-.38.25-1.268 0-.661.072-1.172.165-1.172.091 0 .213-.3.271-.667.059-.366.172-.666.252-.666.08 0 .146-.188.146-.417 0-.229.093-.417.208-.418.215-.001.625-.733.625-1.115 0-.119.094-.217.21-.217.296 0 .704-.663.416-.677-.115-.006-.039-.079.169-.163.209-.084.429-.285.491-.448.154-.407.414-.647.847-.785.202-.064.367-.186.367-.272 0-.085.08-.155.179-.155.23 0 .654-.424.654-.655 0-.098.188-.178.417-.178.229 0 .417-.07.417-.156 0-.085.151-.203.335-.262.185-.058.298-.167.252-.242-.046-.075.009-.133.123-.129.752.028 1.123-.07 1.123-.295 0-.228.721-.358 1.458-.262.115.015.209-.051.209-.147 0-.112.747-.174 2.083-.174 1.278 0 2.083.064 2.083.167m125.667 0c0 .091.292.166.649.166.423 0 .682.087.745.25.056.146.305.25.601.25.278 0 .505.075.505.167 0 .092.107.167.238.167s.355.117.498.26c.144.143.406.271.584.284.178.014.287.085.241.158-.045.073.046.182.202.243.36.137 2.404 2.171 2.404 2.391 0 .09.08.164.178.164.294 0 .655.452.655.821 0 .196.108.345.25.345.156 0 .25.158.25.417 0 .229.075.417.167.417.091 0 .166.179.166.399 0 .219.113.442.25.494.172.066.25.334.25.851 0 .561.065.756.25.756.211 0 .25.379.25 2.416s-.039 2.417-.25 2.417c-.174 0-.25.176-.25.583 0 .321-.079.584-.176.584-.097 0-.13.075-.074.166.057.092.043.168-.031.168-.153.002-.552.795-.552 1.098 0 .109-.113.242-.25.295-.138.052-.25.243-.25.424s-.075.375-.167.432c-.091.057-.167.267-.169.468-.002.24-.047.295-.133.161-.171-.271-.698.325-.698.79 0 .183-.111.331-.25.331-.137 0-.25.075-.25.167 0 .091-.094.166-.21.166-.115 0-.412.188-.659.417-.247.229-.528.417-.623.417-.096 0-.174.112-.174.25 0 .241-.187.319-.625.262-.115-.015-.209.043-.209.129 0 .086-.187.203-.416.26-.229.058-.417.179-.417.269 0 .089-.181.163-.403.163-.221 0-.428.074-.458.165-.031.091-.316.196-.633.233-.318.036-.605.15-.639.251-.104.312-4.973.249-5.094-.066-.06-.157-.315-.25-.684-.25-.324 0-.589-.075-.589-.166 0-.092-.179-.167-.399-.167-.219 0-.442-.113-.495-.25-.052-.138-.29-.25-.527-.25-.246 0-.388-.072-.329-.167.058-.094-.082-.166-.323-.166-.268 0-.427-.093-.427-.25 0-.138-.08-.25-.179-.25-.23 0-.654-.424-.654-.655 0-.098-.075-.179-.167-.179-.217 0-1.5-1.283-1.5-1.5 0-.091-.113-.166-.25-.166-.138 0-.25-.139-.25-.309 0-.17-.187-.512-.417-.759-.229-.247-.416-.596-.416-.774 0-.179-.075-.325-.167-.325-.092 0-.167-.187-.167-.417 0-.259-.094-.416-.25-.416-.19 0-.25-.21-.25-.884 0-.486-.084-.968-.188-1.071-.282-.283-.241-3.381.047-3.567.185-.12.181-.174-.025-.309-.168-.11-.181-.165-.042-.167.125-.001.208-.228.208-.568 0-.349.096-.602.25-.661.138-.053.25-.244.25-.425s.075-.375.167-.432c.092-.056.167-.248.167-.426s.084-.324.187-.324c.128 0 .12-.08-.024-.253-.176-.213-.166-.237.063-.149.18.069.274.018.274-.149 0-.14.078-.28.174-.312.095-.032.186-.221.201-.419.015-.199.087-.324.16-.279.074.045.184-.048.245-.207.14-.366 1.33-1.565 1.553-1.565.092 0 .167-.113.167-.25 0-.138.075-.25.166-.25.092 0 .167-.116.167-.257 0-.153.119-.238.292-.209.16.027.278-.029.261-.124-.016-.096.205-.192.491-.214.639-.049.774-.162.451-.379-.214-.144-.214-.161.005-.138.492.053.852-.015.771-.144-.045-.073.157-.15.449-.171.291-.021.613-.149.715-.284.111-.148.461-.247.875-.247.38 0 .69-.075.69-.166 0-.102.778-.167 2-.167s2 .065 2 .167M21.759 36.652c-.052.084 0 .185.115.223.115.039-.05.078-.366.088-.673.019-1.341.337-1.341.637 0 .116-.169.234-.375.263a.476.476 0 0 0-.429.429c-.029.206-.127.375-.218.375-.09 0-.111-.087-.046-.193.074-.119.046-.147-.073-.073-.106.065-.193.264-.193.442s-.085.324-.19.324c-.318 0-.632.553-.638 1.125-.003.368-.085.541-.255.541-.208 0-.25.333-.25 1.99 0 1.784.153 2.557.389 1.97.047-.115.091.072.098.415.007.344.088.625.18.625.091 0 .166.188.166.417 0 .259.095.417.25.417.138 0 .25.08.25.178 0 .231.424.655.655.655.098 0 .179.112.179.25 0 .137.112.25.25.25.137 0 .25.075.25.167 0 .091.187.166.416.166.26 0 .417.095.417.25 0 .156.157.25.417.25.229 0 .417.094.419.209.002.139.056.125.164-.042.108-.167.162-.181.164-.042.002.155.498.209 1.919.209C25.25 49.167 26 49.101 26 49c0-.092.188-.167.417-.167.259 0 .416-.094.416-.25 0-.155.158-.25.417-.25.229 0 .417-.075.417-.166 0-.092.112-.167.25-.167.137 0 .25-.08.25-.179 0-.23.424-.654.654-.654.099 0 .179-.113.179-.25 0-.138.075-.25.167-.25.091 0 .166-.188.166-.417 0-.229.097-.417.215-.417s.227-.167.242-.372c.016-.205.107-.399.203-.431.231-.077.238-4.197.007-4.197-.092 0-.167-.152-.167-.338 0-.186-.112-.382-.25-.435-.137-.052-.25-.275-.25-.494 0-.22-.075-.399-.166-.399-.092 0-.167-.113-.167-.25a.25.25 0 0 0-.25-.25.248.248 0 0 1-.25-.245c0-.16-.096-.208-.279-.138-.211.081-.253.04-.172-.172.07-.183.023-.279-.138-.279a.248.248 0 0 1-.244-.25.251.251 0 0 0-.25-.25c-.138 0-.25-.075-.25-.166 0-.092-.308-.167-.685-.167-.54 0-.664-.053-.588-.25.11-.288-3.958-.384-4.135-.098M302.5 59.167c0 .091-.187.166-.417.166-.243 0-.416.096-.416.231 0 .127-.156.271-.346.321a.677.677 0 0 0-.436.436c-.05.19-.152.346-.227.346-.074 0-.183.151-.242.335-.059.185-.176.293-.261.241-.088-.054-.155.271-.155.747 0 .464-.075.843-.167.843-.091 0-.159.207-.15.459l.017.458.133-.417c.095-.296.139-.067.15.792.014.956.069 1.208.267 1.208.137 0 .25.113.25.25 0 .508.194.768.719.967.166.063.255.19.198.282-.059.096.079.168.323.168.235 0 .427.075.427.167 0 .101.773.166 1.985.166h1.986l.601-.583c.33-.321.674-.583.764-.583.09 0 .164-.113.164-.25 0-.138.075-.25.166-.25.092 0 .167-.263.167-.584 0-.321.079-.583.177-.583.097 0 .122.087.057.192-.074.12-.046.148.074.074.312-.193.258-2.766-.058-2.766-.172 0-.25-.173-.25-.553 0-.566-.74-1.614-1.14-1.614-.106 0-.193-.112-.193-.25 0-.177-.182-.25-.625-.252-.465-.002-.561-.044-.375-.164.17-.11-.294-.163-1.459-.164-1.029-.002-1.708.063-1.708.164"/><path fill="#242c54" d="M311.833 7.167c0 .091-.187.166-.416.166-.26 0-.417.095-.417.25 0 .156-.157.25-.417.25-.245 0-.416.096-.416.233 0 .127-.113.275-.25.328a.414.414 0 0 0-.25.358c0 .145-.188.451-.417.68-.343.342-.417.578-.417 1.326 0 .5-.075.909-.166.909-.1 0-.169.656-.172 1.625-.004 1.164-.075 1.716-.25 1.948-.177.234-.245.779-.245 1.959 0 .978-.067 1.634-.167 1.634-.101 0-.166.75-.166 1.917 0 1.593-.043 1.917-.25 1.917-.208 0-.25.322-.25 1.902 0 1.056-.071 1.928-.159 1.959-.087.03-.171.859-.187 1.84-.019 1.225-.086 1.774-.216 1.75-.128-.023-.203.537-.236 1.757-.026 1.009-.117 1.792-.208 1.792-.094 0-.161.794-.161 1.916 0 1.593-.042 1.917-.25 1.917-.207 0-.25.313-.25 1.819 0 1.308-.059 1.839-.208 1.889-.146.048-.226.632-.265 1.931-.031 1.023-.125 1.861-.208 1.861-.084 0-.152.755-.152 1.679 0 1.269-.061 1.739-.25 1.928-.189.189-.25.655-.25 1.895 0 .917-.074 1.691-.167 1.748-.095.058-.167.885-.167 1.909 0 1.451-.049 1.824-.25 1.901-.165.064-.25.325-.25.773s.085.71.25.773c.138.053.25.169.25.257 0 .404.519.637 1.418.637 1.264 0 1.916-.585 1.916-1.719 0-.509.079-.776.25-.841.171-.066.25-.334.25-.851 0-.416.075-.756.166-.756.092 0 .167-.367.167-.815 0-.571.075-.844.25-.912.176-.067.25-.342.25-.934 0-.461.075-.839.167-.839.091 0 .166-.343.166-.762 0-.455.101-.862.25-1.011.155-.155.25-.564.25-1.072 0-.452.075-.821.167-.821.092 0 .167-.367.167-.816 0-.571.075-.844.25-.911.176-.068.25-.343.25-.935 0-.461.075-.838.166-.838.092 0 .167-.375.167-.834 0-.629.061-.833.25-.833s.25-.204.25-.833c0-.459.075-.834.167-.834.092 0 .166-.446.166-1.005 0-.74.066-1.03.25-1.101.174-.067.25-.338.25-.894 0-.555.076-.826.25-.893.172-.066.25-.334.25-.851 0-.416.075-.756.167-.756.092 0 .167-.367.167-.815 0-.571.075-.844.25-.912.17-.065.25-.332.25-.841 0-.41.075-.792.166-.848.092-.057.167-.442.167-.855 0-.447.102-.854.25-1.002.155-.155.25-.564.25-1.072 0-.452.075-.821.167-.821.091 0 .166-.375.166-.834 0-.629.061-.833.25-.833s.25-.204.25-.833c0-.459.075-.834.167-.834.092 0 .167-.377.167-.838 0-.592.073-.867.25-.935.175-.067.25-.34.25-.911 0-.449.075-.816.166-.816.093 0 .167-.444.167-1 0-.777.056-1 .25-1 .189 0 .25-.203.25-.833 0-.458.075-.833.167-.833.091 0 .166-.413.166-.917 0-.704.058-.917.25-.917.189 0 .25-.202.25-.819 0-.508.08-.846.209-.889.151-.05.208-.612.208-2.042 0-1.429-.057-1.991-.208-2.041-.115-.039-.209-.251-.209-.473 0-.246-.096-.402-.25-.402-.137 0-.25-.081-.25-.179 0-.231-.424-.655-.654-.655-.099 0-.179-.112-.179-.25 0-.155-.157-.25-.417-.25-.229 0-.416-.075-.416-.166 0-.1-.667-.167-1.667-.167s-1.667.067-1.667.167m13.417 35.5c-.057.091-.401.166-.765.166-.435 0-.695.086-.758.25-.059.155-.313.25-.661.25-.312 0-.566.075-.566.167 0 .092-.145.167-.321.167a.94.94 0 0 0-.572.25c-.137.137-.357.25-.488.25-.132 0-.38.187-.552.416-.172.23-.407.417-.523.417-.116 0-.211.112-.211.25 0 .137-.131.252-.291.255-.361.007-.875.382-.875.638 0 .105-.113.19-.25.19a.25.25 0 0 0-.25.25c0 .138-.075.25-.167.25-.092 0-.167.15-.167.334 0 .185-.111.333-.25.333-.137 0-.25.078-.25.174 0 .095-.147.331-.327.525-.18.193-.288.415-.24.493.048.078.008.141-.089.141-.098 0-.177.113-.177.25 0 .138-.068.25-.15.25-.185 0-.527.934-.392 1.069.054.054.01.098-.097.098s-.194.193-.194.429c0 .235-.113.541-.25.678-.16.16-.25.572-.25 1.145 0 .492-.075.941-.167.998-.092.057-.167.774-.167 1.593 0 .883.068 1.49.167 1.49.093 0 .167.447.167 1.006 0 .739.066 1.03.25 1.101.154.059.25.312.25.661 0 .311.075.566.166.566.092 0 .167.17.167.379 0 .325.351 1.013.657 1.287.051.046.236.365.411.709.175.343.419.625.542.625.123 0 .223.112.223.25 0 .137.075.25.167.25.092 0 .167.112.167.25 0 .239.563.916.762.916.052 0 .199.094.327.209.552.494.74.625.904.625.095 0 .173.112.173.25 0 .137.113.25.25.25.138 0 .25.075.25.166 0 .092.153.167.339.167.186 0 .382.112.434.25.053.137.276.25.495.25.22 0 .399.075.399.167 0 .091.262.166.583.166.408 0 .584.076.584.25 0 .188.2.25.8.25.44 0 .893.094 1.008.209.145.144.851.208 2.311.208 1.534 0 2.122-.056 2.172-.208.043-.128.378-.209.871-.209.559 0 .831-.075.898-.25.06-.157.315-.25.684-.25.324 0 .589-.075.589-.166 0-.092.188-.167.417-.167.259 0 .416-.094.416-.25 0-.144.151-.25.356-.25.196 0 .53-.187.742-.417.213-.229.502-.416.644-.416.142 0 .258-.075.258-.167 0-.092.113-.167.25-.167a.25.25 0 0 0 .25-.25c0-.137.113-.25.25-.25.341 0 .335-1.083-.008-1.368a4.95 4.95 0 0 1-.458-.441c-2.262-2.546-3.576-3.426-3.89-2.607-.053.137-.168.25-.257.25-.216 0-.637.432-.637.654 0 .099-.187.179-.416.179-.229 0-.417.065-.417.145 0 .08-.3.194-.667.252-.366.059-.666.181-.666.272 0 .217-2.449.215-2.584-.002-.056-.092-.229-.167-.385-.168-.155-.001-.496-.113-.759-.25-.262-.137-.581-.249-.708-.249s-.231-.07-.231-.155c0-.086-.169-.209-.375-.274-.206-.064-.614-.37-.905-.678-.292-.308-.611-.56-.709-.56-.098 0-.178-.112-.178-.25 0-.137-.075-.25-.166-.25-.092 0-.167-.187-.167-.416 0-.26-.094-.417-.25-.417s-.25-.157-.25-.417c0-.229-.075-.416-.167-.416-.091 0-.166-.34-.166-.756 0-.517-.079-.785-.25-.851-.162-.062-.25-.32-.25-.727s.088-.665.25-.727c.171-.065.25-.333.25-.851 0-.415.075-.755.166-.755.092 0 .167-.187.167-.417 0-.259.094-.416.25-.416.138 0 .25-.148.25-.33 0-.395 1.699-2.17 2.078-2.17a.42.42 0 0 0 .362-.25c.052-.138.2-.25.328-.25S325 49.092 325 49c0-.092.262-.167.583-.167.408 0 .584-.075.584-.25 0-.203.277-.25 1.5-.25 1.222 0 1.5.047 1.5.25 0 .181.185.25.666.25.367 0 .667.075.667.167 0 .092.188.167.417.167.229 0 .416.08.416.178 0 .223.421.655.637.655.089 0 .204.112.257.25.056.146.306.25.601.25.338 0 .505-.083.505-.25 0-.138.081-.25.179-.25.231 0 .655-.424.655-.655 0-.098.112-.178.25-.178.137 0 .25-.075.25-.167 0-.092.112-.167.25-.167.137 0 .25-.08.25-.178 0-.231.424-.655.654-.655.099 0 .179-.08.179-.179 0-.23.424-.654.655-.654.098 0 .178-.3.178-.667 0-.367-.073-.667-.163-.667-.09 0-.434-.262-.765-.583-.33-.321-.744-.583-.919-.583-.176 0-.319-.113-.319-.25 0-.153-.156-.25-.399-.25-.22 0-.442-.113-.495-.25-.053-.138-.248-.25-.434-.25-.187 0-.339-.075-.339-.167 0-.092-.181-.167-.403-.167-.221 0-.431-.084-.465-.187-.035-.104-.453-.226-.931-.272-.477-.046-.868-.149-.868-.229 0-.206-4.955-.185-5.083.022m21.25 0c0 .091-.375.166-.833.166-.63 0-.834.061-.834.25 0 .165-.165.25-.486.25-.474 0-1.541.458-1.653.709-.03.068-.165.125-.299.125-.134 0-.418.187-.63.416-.213.23-.472.417-.576.417a.184.184 0 0 0-.189.179c0 .294-.452.654-.821.654-.19 0-.346.105-.346.233 0 .127-.112.275-.25.328-.137.052-.25.248-.25.434s-.08.339-.178.339c-.223 0-.655.42-.655.637 0 .088-.113.204-.25.256-.138.053-.25.249-.25.435s-.075.338-.167.338c-.091 0-.166.188-.166.417 0 .259-.095.417-.25.417-.156 0-.25.157-.25.416 0 .23-.075.417-.167.417-.092 0-.167.3-.167.667 0 .481-.069.666-.25.666-.203 0-.25.278-.25 1.5 0 .889-.068 1.5-.166 1.5-.092 0-.167.221-.167.49 0 .27.075.537.167.594.091.056.166.738.166 1.515 0 1.101.055 1.433.25 1.508.155.059.25.312.25.661 0 .311.075.566.167.566.092 0 .167.187.167.416 0 .26.094.417.25.417.155 0 .25.157.25.417 0 .229.075.416.166.416.092 0 .167.188.167.417 0 .259.094.417.25.417.137 0 .25.086.25.192 0 .106.287.462.639.792.351.329.686.73.744.891.059.16.259.291.445.291s.339.081.339.179c0 .231.424.655.654.655.099 0 .179.112.179.25 0 .148.153.25.377.25.208 0 .518.187.69.416.179.239.481.417.706.417.217 0 .394.075.394.167 0 .091.262.166.583.166.407 0 .583.076.583.25 0 .188.2.25.8.25.44 0 .894.094 1.009.209.144.144.851.208 2.311.208 1.534 0 2.121-.056 2.172-.208.044-.133.399-.209.977-.209.654 0 .935-.07 1.004-.25.055-.142.304-.25.578-.25.266 0 .483-.075.483-.166 0-.092.187-.167.416-.167.26 0 .417-.094.417-.25s.157-.25.417-.25c.229 0 .416-.075.416-.167 0-.091.095-.166.21-.166.116 0 .413-.188.66-.417.247-.229.527-.417.623-.417.096 0 .174-.112.174-.25 0-.137.08-.25.179-.25.23 0 .654-.424.654-.654 0-.099.113-.179.25-.179.138 0 .25-.056.251-.125 0-.069.187-.343.416-.609.229-.267.417-.585.417-.709 0-.123.075-.224.166-.224.092 0 .167-.112.167-.25 0-.137.068-.25.15-.25.185 0 .527-.934.392-1.069-.054-.053-.01-.097.097-.097s.194-.18.194-.399c0-.22.113-.442.25-.495.172-.066.25-.334.25-.851 0-.415.075-.755.167-.755.105 0 .167-1.084.167-2.917 0-1.833-.062-2.917-.167-2.917-.092 0-.167-.3-.167-.666 0-.482-.069-.667-.25-.667-.173 0-.25-.175-.25-.573 0-.316-.075-.62-.166-.677-.092-.057-.167-.251-.167-.432s-.113-.372-.25-.424c-.137-.053-.25-.201-.25-.328 0-.128-.075-.233-.167-.233-.091 0-.166-.11-.166-.244 0-.284-2.211-2.589-2.483-2.589a.182.182 0 0 1-.184-.179c0-.294-.452-.654-.821-.654-.196 0-.346-.109-.346-.25a.25.25 0 0 0-.25-.25c-.137 0-.25-.069-.25-.154 0-.084-.224-.202-.498-.263-.274-.06-.541-.178-.593-.263-.052-.084-.246-.154-.43-.154a.958.958 0 0 1-.586-.25c-.147-.147-.554-.25-.988-.25-.406 0-.738-.075-.738-.166 0-.104-.944-.167-2.5-.167s-2.5.063-2.5.167m17 12.5v12.666h5.833V60c0-6.852.032-7.833.25-7.833.156 0 .25-.158.25-.417 0-.229.075-.417.167-.417.092 0 .167-.187.167-.416 0-.26.094-.417.25-.417.137 0 .25-.08.25-.179 0-.23.424-.654.654-.654.099 0 .179-.113.179-.25 0-.156.157-.25.417-.25.229 0 .416-.075.416-.167 0-.092.188-.167.417-.167.259 0 .417-.094.417-.25 0-.188.201-.25.815-.25.571 0 .844.075.912.25.06.157.315.25.684.25.324 0 .589.075.589.167 0 .092.187.167.416.167.23 0 .417.08.417.178 0 .231.424.655.655.655.098 0 .178.188.178.417 0 .229.075.416.167.416.092 0 .167.113.167.25 0 .138.112.25.25.25.218 0 .25 1.018.25 8.164v8.163l.375.093c.206.051 1.612.071 3.125.045l2.75-.048.043-8.042c.028-5.169.102-8.041.208-8.041.091 0 .165-.188.165-.417 0-.259.095-.417.25-.417.156 0 .25-.157.25-.416 0-.229.081-.417.179-.417.098 0 .283-.094.411-.208.551-.495.74-.625.903-.625A.17.17 0 0 0 387.5 49c0-.092.265-.167.589-.167.369 0 .624-.093.684-.25.067-.175.34-.25.911-.25.614 0 .816.062.816.25 0 .156.157.25.417.25.229 0 .416.075.416.167 0 .092.188.167.417.167.259 0 .417.094.417.25 0 .137.08.25.178.25.231 0 .655.424.655.654 0 .099.113.179.25.179s.25.146.25.323c0 .178.075.37.167.427.091.057.166.286.166.51 0 .25.096.407.25.407.219 0 .25.981.25 7.833v7.833h5.683l-.05-9.097c-.046-8.437-.07-9.112-.341-9.31-.16-.117-.292-.411-.292-.653 0-.242-.075-.44-.166-.44-.092 0-.167-.152-.167-.338 0-.186-.113-.382-.25-.435-.137-.052-.25-.232-.25-.399s-.187-.451-.417-.631c-.229-.18-.416-.411-.416-.512a.183.183 0 0 0-.179-.185c-.231 0-.655-.424-.655-.654 0-.099-.094-.179-.21-.179-.116 0-.351-.187-.523-.417-.173-.229-.453-.416-.623-.416-.171 0-.31-.074-.31-.164 0-.09-.188-.21-.417-.268-.229-.057-.417-.171-.417-.253 0-.082-.168-.151-.375-.154a1.395 1.395 0 0 1-.698-.25c-.178-.135-.53-.245-.782-.245s-.505-.075-.561-.166c-.061-.099-1.058-.167-2.427-.167-1.438 0-2.323.064-2.323.167 0 .091-.3.166-.667.166-.481 0-.667.07-.667.25 0 .169-.169.25-.522.25-.344 0-.655.143-.909.417-.212.229-.54.417-.727.417-.193 0-.342.109-.342.25 0 .137-.08.25-.178.25-.231 0-.655.424-.655.654 0 .247-.806.225-1.089-.029-.552-.495-.74-.625-.904-.625-.096 0-.174-.113-.174-.25 0-.141-.149-.25-.341-.25-.188 0-.513-.186-.723-.412-.219-.237-.601-.429-.897-.452-.284-.021-.502-.117-.485-.213.016-.095-.289-.196-.679-.225-.389-.028-.708-.122-.708-.208 0-.199-4.447-.211-4.57-.012-.049.079-.445.184-.879.233-.435.049-.818.172-.851.272-.134.401-.867.203-.867-.233V42.5H363.5v12.667m-13.167-6.584c0 .181.186.25.667.25.367 0 .667.075.667.167 0 .092.187.167.416.167.23 0 .417.08.417.178 0 .294.452.655.821.655.196 0 .346.108.346.25 0 .137.112.25.25.25.137 0 .25.139.25.309 0 .17.187.511.416.759.23.247.417.553.417.681 0 .127.065.272.145.321.08.049.192.321.248.604.057.283.17.474.251.423.285-.176.234 3.215-.052 3.502-.142.142-.259.44-.259.663 0 .223-.075.405-.166.405-.092 0-.167.187-.167.416 0 .23-.085.417-.19.417-.259 0-.632.516-.638.885-.003.166-.069.262-.147.214-.078-.048-.299.06-.493.24-.193.18-.397.328-.454.328-.169 0-.578.463-.578.654 0 .099-.187.179-.417.179-.229 0-.416.065-.416.145 0 .08-.3.194-.667.252-.367.059-.667.181-.667.272 0 .205-2.445.221-2.571.017-.051-.082-.355-.198-.677-.258-.322-.06-.585-.181-.585-.269 0-.087-.179-.159-.399-.159-.219 0-.442-.113-.495-.25-.052-.138-.248-.25-.434-.25s-.339-.075-.339-.167c0-.091-.112-.166-.25-.166-.137 0-.25-.081-.25-.179 0-.231-.424-.655-.654-.655-.099 0-.179-.112-.179-.25 0-.137-.075-.25-.167-.25-.091 0-.166-.187-.166-.416 0-.26-.095-.417-.25-.417-.156 0-.25-.157-.25-.417 0-.229-.075-.416-.167-.416-.093 0-.167-.445-.167-1 0-.778-.055-1-.25-1-.137 0-.25-.105-.25-.233 0-.127.113-.275.25-.328.184-.07.25-.361.25-1.101 0-.559.074-1.005.167-1.005.092 0 .167-.187.167-.417 0-.259.094-.416.25-.416.141 0 .25-.15.25-.345 0-.189.262-.592.583-.895.321-.302.583-.635.583-.738 0-.104.113-.189.25-.189.138 0 .25-.075.25-.167 0-.091.153-.166.339-.166.186 0 .382-.113.434-.25.053-.138.234-.25.402-.25s.352-.075.409-.167c.056-.092.283-.167.503-.167.22 0 .497-.109.615-.243.314-.356 2.798-.362 2.798-.007"/><path fill="#d81838" d="M84.089 10.216c-.072.164-.083.345-.026.402.169.17.305-.068.228-.397-.07-.291-.079-.291-.202-.005m38.611 6.575c.797.03 2.147.03 3 0 .852-.03.2-.055-1.45-.055-1.65-.001-2.348.024-1.55.055m16.092 0a40.67 40.67 0 0 0 2.75 0c.756-.031.137-.056-1.375-.056-1.513 0-2.132.025-1.375.056m1.044 25.334c.007.365.326.608.328.25.002-.206-.072-.375-.164-.375-.092 0-.166.056-.164.125m-23.003 1.708c0 .189.111.334.256.334.204 0 .22-.068.078-.334-.098-.183-.214-.333-.256-.333-.043 0-.078.15-.078.333m-12.425.015c-.062.1-.029.265.073.367.136.136.186.088.186-.182 0-.402-.087-.464-.259-.185M25.83 56.781c-.961.98-1.634 1.698-1.497 1.597.28-.207 2.849-2.745 3.169-3.13.559-.675-.097-.072-1.672 1.533m115.753 8.218c.056.091.267.251.468.354l.366.188-.368-.354c-.384-.369-.643-.473-.466-.188m108.25 1.636c0 .089.119.208.264.264.163.062.239.025.198-.097-.083-.249-.462-.386-.462-.167M176.5 81.5c0 .092-.113.167-.25.167-.138 0-.25.077-.25.172 0 .117.107.115.333-.006.297-.158.468-.5.25-.5-.046 0-.083.075-.083.167"/><path fill="#d81838" d="M84.089 10.216c-.072.164-.083.345-.026.402.169.17.305-.068.228-.397-.07-.291-.079-.291-.202-.005m38.611 6.575c.797.03 2.147.03 3 0 .852-.03.2-.055-1.45-.055-1.65-.001-2.348.024-1.55.055m16.092 0a40.67 40.67 0 0 0 2.75 0c.756-.031.137-.056-1.375-.056-1.513 0-2.132.025-1.375.056m1.044 25.334c.007.365.326.608.328.25.002-.206-.072-.375-.164-.375-.092 0-.166.056-.164.125m-23.003 1.708c0 .189.111.334.256.334.204 0 .22-.068.078-.334-.098-.183-.214-.333-.256-.333-.043 0-.078.15-.078.333m-12.425.015c-.062.1-.029.265.073.367.136.136.186.088.186-.182 0-.402-.087-.464-.259-.185M25.83 56.781c-.961.98-1.634 1.698-1.497 1.597.28-.207 2.849-2.745 3.169-3.13.559-.675-.097-.072-1.672 1.533m115.753 8.218c.056.091.267.251.468.354l.366.188-.368-.354c-.384-.369-.643-.473-.466-.188m108.25 1.636c0 .089.119.208.264.264.163.062.239.025.198-.097-.083-.249-.462-.386-.462-.167M176.5 81.5c0 .092-.113.167-.25.167-.138 0-.25.077-.25.172 0 .117.107.115.333-.006.297-.158.468-.5.25-.5-.046 0-.083.075-.083.167"/><path fill="#d81838" d="M84.089 10.216c-.072.164-.083.345-.026.402.169.17.305-.068.228-.397-.07-.291-.079-.291-.202-.005m38.611 6.575c.797.03 2.147.03 3 0 .852-.03.2-.055-1.45-.055-1.65-.001-2.348.024-1.55.055m16.092 0a40.67 40.67 0 0 0 2.75 0c.756-.031.137-.056-1.375-.056-1.513 0-2.132.025-1.375.056m1.044 25.334c.007.365.326.608.328.25.002-.206-.072-.375-.164-.375-.092 0-.166.056-.164.125m-23.003 1.708c0 .189.111.334.256.334.204 0 .22-.068.078-.334-.098-.183-.214-.333-.256-.333-.043 0-.078.15-.078.333m-12.425.015c-.062.1-.029.265.073.367.136.136.186.088.186-.182 0-.402-.087-.464-.259-.185M25.83 56.781c-.961.98-1.634 1.698-1.497 1.597.28-.207 2.849-2.745 3.169-3.13.559-.675-.097-.072-1.672 1.533m115.753 8.218c.056.091.267.251.468.354l.366.188-.368-.354c-.384-.369-.643-.473-.466-.188m108.25 1.636c0 .089.119.208.264.264.163.062.239.025.198-.097-.083-.249-.462-.386-.462-.167M176.5 81.5c0 .092-.113.167-.25.167-.138 0-.25.077-.25.172 0 .117.107.115.333-.006.297-.158.468-.5.25-.5-.046 0-.083.075-.083.167"/></g></svg>