<svg xmlns="http://www.w3.org/2000/svg" role="img" viewBox="-29.54 -29.54 1536.08 425.08"><title>AfterShip (adopter) logo</title><g fill="none" fill-rule="evenodd"><path fill="#000" d="M524.20296 247.65803h-.4631c-9.72516 12.91192-27.32307 21.21244-46.7734 21.21244-46.77339 0-74.09646-38.27462-74.09646-75.1658C402.87 158.65802 432.04548 119 478.35578 119c21.30273 0 37.51133 9.2228 45.38408 21.21243h.4631v-17.52331h30.5648V264.7202h-30.5648v-17.06218zm-43.53167-7.90155c24.08135 0 44.92098-20.7513 44.92098-46.114 0-25.36269-20.83963-46.11398-44.92098-46.11398-25.00756 0-45.38409 20.7513-45.38409 46.11399 0 25.3627 20.37653 46.11399 45.38409 46.11399zm109.72984-88.53886h-19.91342v-28.59068h19.91342V98.64767C590.40113 72.36269 606.60973 47 643.65797 47c7.40965 0 17.1348 1.38342 23.61825 3.68912l-12.50378 27.6684c-4.16793-1.84457-7.87275-2.76685-13.42998-2.76685-12.50378 0-19.91343 10.14508-19.91343 20.7513v25.82383h30.5648v28.59068h-30.5648v113.44041h-30.5648V151.21762h-.4631zm95.40464 0h-17.5979v-28.59068h17.5979V80.20207h30.5648v42.42487h21.76583v28.59068h-21.76583v113.44041h-30.5648V151.21762zm204.01544 83.06735c-17.1348 21.67358-40.75305 34.5855-66.22371 34.5855-50.01512 0-78.7275-37.35234-78.7275-75.1658C744.87 155.89118 773.58238 119 823.5975 119c29.63858 0 74.09646 24.44042 74.09646 79.7772v5.53368H779.13962c1.8524 21.67358 22.22894 37.35233 43.53167 37.35233 16.6717 0 30.5648-7.83938 41.21616-22.13471l25.93376 14.75647zm-29.06781-55.39896c-6.48345-21.67357-22.69205-33.20207-42.14237-33.20207s-35.19582 11.98963-40.28995 33.20207h82.43232zm53.5797-57.1969h28.71238v15.67877h.4631C948.60273 125.83938 959.25409 118 971.75787 118c6.94655 0 12.50378 1.84456 16.67171 4.6114l-11.11447 30.43523c-2.77862-2.3057-8.33585-4.15026-11.57757-4.15026-11.11447 0-21.30274 8.30052-21.30274 21.67358v94.07254H913.87V121.68912h.4631zm93.30274 100.5285c11.11447 11.5285 28.71238 20.7513 44.92098 20.7513 17.59791 0 28.24928-10.14508 28.24928-17.98445 0-9.2228-7.40965-14.29534-18.52412-16.60104l-17.59791-3.22798c-40.28995-7.37824-51.40442-20.29015-51.40442-40.58031 0-23.97928 20.37653-46.57513 56.03545-46.57513 19.91343 0 37.04823 5.99482 56.49856 19.82902l-17.59791 21.67357c-14.8193-12.45078-28.24928-15.67876-38.43755-15.67876-13.42998 0-26.39686 6.45596-26.39686 17.98446 0 8.30052 6.94654 12.91192 18.52411 14.75648l31.0279 5.99481c25.47066 4.6114 37.97444 16.60104 37.97444 37.81348 0 20.7513-17.13481 47.95855-60.66648 47.95855-24.08136 0-44.92099-8.30052-64.37131-24.90156l21.76584-21.21243zM1276.87 123h30.56479v142.03109H1276.87V123zm-149-43h30.56479v60.40933h.46311c8.33585-13.37306 24.08135-21.67358 43.53167-21.67358 30.10169 0 55.57235 24.90156 55.57235 60.40933v85.77202h-30.56479v-79.31606c0-25.82384-13.42999-36.43006-33.80652-36.43006-19.91342 0-35.19582 12.45078-35.19582 35.96892v79.7772H1127.87V80zm228.66704 59.68912h.4631c11.11447-13.37306 27.32307-21.21244 46.77339-21.21244 46.7734 0 74.09647 38.27461 74.09647 75.1658 0 35.04664-29.17548 74.70467-75.48578 74.70467-21.30273 0-37.51133-9.2228-45.38408-21.21243h-.4631V314h-30.5648V122.62694h30.5648v17.06218zm43.53167 7.83938c-24.08135 0-44.92098 20.7513-44.92098 46.11399 0 25.3627 20.83963 46.11399 44.92098 46.11399 25.00756 0 45.38409-20.7513 45.38409-46.114 0-25.36269-20.37653-46.11398-45.38409-46.11398zM1292.00481 78c9.26206 0 17.13481 7.83938 17.13481 17.06218 0 9.2228-7.87275 17.06217-17.13481 17.06217-9.26206 0-17.13481-7.83938-17.13481-17.06217 0-9.68394 7.40965-17.06218 17.13481-17.06218z"/><path fill="#FFA622" d="M163.52684 0c89.42711 0 162.65684 71.36443 162.65684 159.93394 0 74.55252-51.84692 136.99424-121.8305 154.83965l-40.82634 52.24698-40.82633-52.24698C52.71198 296.92817.87 234.48646.87 159.93394.87 71.36443 73.45248 0 163.52684 0"/><path fill="#FFF" d="M72.3838 129.59038a5.4305 5.4305 0 0 1 2.05574.40414l65.32582 26.71782c8.04844 3.29176 13.30703 11.12389 13.30703 19.81946v62.8256c0 2.99917-2.43132 5.43049-5.4305 5.43049a5.43048 5.43048 0 0 1-2.05574-.40415l-65.32582-26.71782c-8.04844-3.29175-13.30703-11.12388-13.30703-19.81946v-62.82559c0-2.99918 2.43132-5.4305 5.4305-5.4305zm182.32336 0c2.99917 0 5.43049 2.43131 5.43049 5.4305v62.82558c0 8.69558-5.25859 16.5277-13.30703 19.81946l-65.32582 26.71782a5.4305 5.4305 0 0 1-2.05574.40415c-2.99918 0-5.4305-2.43132-5.4305-5.4305V176.5318c0-8.69557 5.25859-16.5277 13.30703-19.81946l65.32582-26.71782a5.4305 5.4305 0 0 1 2.05575-.40414zm-81.49787-57.34572l72.07371 29.3629c2.5274 1.02967 3.74157 3.91325 2.7119 6.44065a4.94148 4.94148 0 0 1-2.72043 2.71537l-72.10928 29.22074c-6.14948 2.49194-13.02755 2.49194-19.17703 0l-72.10928-29.22074c-2.52932-1.02496-3.74885-3.90627-2.7239-6.43559a4.94147 4.94147 0 0 1 2.71536-2.72043l72.07371-29.3629c6.17534-2.51584 13.0899-2.51584 19.26524 0z"/></g></svg>