<svg xmlns="http://www.w3.org/2000/svg" role="img" viewBox="-3.22 -3.22 167.18 30.05"><g fill="none"><path fill="#EF3E24" d="M23.248 11.857C23.248 5.445 18.054.25 11.642.25S.036 5.48.036 11.857c0 6.412 5.194 11.606 11.606 11.606l7.092-.072.036-12h-.036C18.555 7.737 15.51 4.8 11.785 4.8c-3.833 0-6.95 3.08-6.95 6.913-.035 3.69 2.866 6.735 6.484 6.986h3.475c0-.753.036-1.648-.86-2.078-.537-.25-1.612-.143-2.758-.215-2.364-.215-4.155-2.364-4.048-4.836a4.742 4.742 0 0 1 4.514-4.513c2.686-.108 4.871 2.042 4.871 4.692v9.385l-4.871.036c-5.158 0-9.35-4.227-9.35-9.385 0-5.122 4.192-9.313 9.35-9.313 5.158 0 9.385 4.19 9.385 9.349v9.313c-.072 1.756.322 2.329 2.257 2.257l-.036-11.534z"/><path fill="#92C4E9" d="M40.621 1.182c-.143-.43-.609-.716-1.11-.716-.466 0-.932.286-1.11.716l-7.846 20.92c-.107.286-.107.608.036.895.108.287.358.502.61.609l.07.036h.36c.465 0 .895-.287 1.074-.752l1.898-5.087h9.815l1.899 5.087c.179.43.609.752 1.074.752.072 0 .144 0 .18-.036h.178l.072-.036c.573-.25.86-.931.61-1.504L40.62 1.182zm2.937 14.328h-8.095L39.51 4.764l4.047 10.746zm21.959 5.84H55.093V1.503c0-.608-.538-1.146-1.146-1.146-.61 0-1.147.502-1.147 1.146V22.53c0 .61.502 1.147 1.147 1.147h11.605c.645 0 1.147-.502 1.147-1.147-.036-.68-.538-1.182-1.182-1.182zm18.16-18.7c.646 0 1.147-.5 1.147-1.146 0-.644-.501-1.146-1.146-1.146H72.072c-.61 0-1.146.502-1.146 1.146v21.027c0 .61.43 1.075 1.074 1.147h11.678c.645 0 1.146-.502 1.146-1.147 0-.68-.501-1.146-1.146-1.146H73.254v-8.203h9.098c.61 0 1.147-.501 1.147-1.146 0-.645-.502-1.146-1.147-1.146h-9.098V2.65h10.424zm25.864-1.647c-.072-.143-.18-.215-.287-.322l-.072-.036c-.537-.358-1.253-.215-1.576.286l-7.701 10.71L92.167.932C91.81.43 91.13.322 90.591.645l-.036.036-.107.107a1.09 1.09 0 0 0-.394.86V22.53c0 .61.537 1.147 1.146 1.147.61 0 1.147-.502 1.147-1.147V5.087l6.555 9.062c.215.358.537.538.967.538h.072c.394 0 .752-.18.93-.502l6.592-9.134v17.445c0 .644.501 1.146 1.146 1.146.61 0 1.146-.502 1.146-1.146V1.612c0-.18-.071-.358-.179-.573l-.035-.036zm15.976 9.636c1.182-1.146 1.827-2.65 1.827-4.263A5.993 5.993 0 0 0 121.36.394h-5.014c-.61 0-1.147.502-1.147 1.146v21.027c0 .61.502 1.146 1.147 1.146h6.447a6.803 6.803 0 0 0 6.806-6.806c0-2.758-1.612-5.194-4.083-6.268zm-7.988-.645V2.651h3.868c2.042 0 3.654 1.648 3.654 3.69a3.67 3.67 0 0 1-3.654 3.653h-3.868zm9.779 6.842c-.036 2.543-2.006 4.513-4.514 4.513h-5.265v-9.027h5.265c2.472 0 4.478 2.042 4.514 4.514zM135.403.358c-.609 0-1.146.502-1.146 1.146v21.027c0 .61.501 1.147 1.146 1.147.645 0 1.146-.502 1.146-1.147V1.504c.036-.644-.501-1.146-1.146-1.146zm24.538 18.663c-.323-.072-.681 0-.968.179l-.035.036c-1.612 1.361-3.762 2.113-6.018 2.113-5.41 0-9.78-4.227-9.78-9.456 0-5.266 4.407-9.565 9.78-9.565 2.22 0 4.334.717 6.09 2.114.25.179.572.286.859.215.286-.036.537-.215.716-.43.18-.215.287-.466.251-.752 0-.359-.179-.645-.466-.896a12.375 12.375 0 0 0-7.522-2.543c-6.77.036-12.107 5.23-12.107 11.857 0 6.483 5.408 11.749 12.107 11.749 2.722 0 5.409-.896 7.487-2.508.25-.179.43-.501.465-.86 0-.286-.071-.573-.286-.787-.072-.215-.287-.394-.573-.466z"/></g></svg>