<svg xmlns="http://www.w3.org/2000/svg" role="img" viewBox="76.16 -0.59 446.42 251.92"><title>Allocine (adopter) logo</title><style>svg {enable-background:new 0 0 600 250}</style><style/><path d="M349.27 132.7L330.16 12.04c-.41-2.61-2.87-4.39-5.48-3.98l-20.17 3.19c1.34 8.45-4.43 16.39-12.9 17.73-8.46 1.34-16.41-4.43-17.74-12.88l-20.16 3.19c-2.61.41-4.4 2.87-3.98 5.48l19.11 120.66c.41 2.61 2.87 4.39 5.48 3.98l20.16-3.19c-1.34-8.45 4.43-16.39 12.9-17.73 8.46-1.34 16.41 4.43 17.74 12.88l20.17-3.19c2.61-.42 4.4-2.87 3.98-5.48zm-33.46-76.19l-7.25 10.59c-.52.74-1.68 1.45-2.56 1.67-2.99.74-7.37-5.6-10.45 8.9-3.08 14.5 3.5 10.48 5.93 12.38.72.56 1.49 1.68 1.66 2.57l2.32 12.62c.27 1.49-.61 3.23-2.02 3.8-2.68 1.09-6.88 2.51-9.37 1.99-5.37-1.14-13.83-14.16-9.26-35.64 4.56-21.48 17.58-29.93 22.95-28.79 2.48.53 5.74 3.54 7.75 5.62 1.05 1.09 1.15 3.04.3 4.29zM85.14 239.58l29.71-63.89c.28-.57.95-1.04 1.61-1.04h.95c.66 0 1.33.47 1.61 1.04l29.71 63.89c.57 1.23-.19 2.47-1.61 2.47h-10.54c-1.71 0-2.47-.57-3.32-2.37l-3.42-7.5h-25.82l-3.42 7.6c-.48 1.14-1.52 2.28-3.42 2.28H86.75c-1.42-.01-2.18-1.24-1.61-2.48zm39.01-20.31l-7.21-15.66h-.1l-7.12 15.66h14.43zm29.52-41.86c0-.95.76-1.8 1.8-1.8h11.3c.95 0 1.8.85 1.8 1.8v50.69h22.59c1.04 0 1.8.85 1.8 1.8v10.35c0 .95-.76 1.8-1.8 1.8h-35.69c-1.04 0-1.8-.85-1.8-1.8v-62.84zm45.65 0c0-.95.76-1.8 1.8-1.8h11.3c.95 0 1.8.85 1.8 1.8v50.69h22.59c1.04 0 1.8.85 1.8 1.8v10.35c0 .95-.76 1.8-1.8 1.8h-35.69c-1.04 0-1.8-.85-1.8-1.8v-62.84zm75.89-2.76c18.99 0 34.17 15.28 34.17 34.27 0 18.99-15.19 34.08-34.17 34.08-18.98 0-34.08-15.09-34.08-34.08 0-18.98 15.09-34.27 34.08-34.27zm0 53.16c10.44 0 18.99-8.54 18.99-18.89 0-10.44-8.54-19.08-18.99-19.08-10.35 0-18.89 8.64-18.89 19.08 0 10.35 8.54 18.89 18.89 18.89zm73.61-53.16c9.49 0 16.52 2.94 22.97 8.83.85.76.85 1.9.09 2.66l-7.4 7.69c-.66.66-1.71.66-2.37 0-3.51-3.13-8.16-4.84-12.82-4.84-10.73 0-18.61 8.92-18.61 19.55 0 10.54 7.97 19.27 18.7 19.27 4.46 0 9.3-1.61 12.72-4.56.66-.57 1.9-.57 2.47.1l7.4 7.88c.66.66.57 1.9-.1 2.56-6.45 6.27-14.62 9.21-23.07 9.21-18.98 0-34.27-15.09-34.27-34.08.02-18.98 15.3-34.27 34.29-34.27zm31.6 2.76c0-.95.85-1.8 1.8-1.8h11.39c.95 0 1.8.85 1.8 1.8v62.84c0 .95-.85 1.8-1.8 1.8h-11.39c-.95 0-1.8-.85-1.8-1.8v-62.84zm24.24-.1c0-.95.86-1.71 1.8-1.71h1.95c1.2 0 2.43.97 2.79 1.32s35.51 34.18 35.51 34.18h.1v-33.7c0-.95.76-1.8 1.8-1.8H460c.95 0 1.8.85 1.8 1.8v62.93c0 .95-.85 1.71-1.8 1.71h-1.84c-1.09 0-1.97-.59-3.05-1.69l-35.36-35.52h-.1v35.41c0 .95-.76 1.8-1.8 1.8h-11.3c-.95 0-1.8-.85-1.8-1.8l-.09-62.93zm107.59 12.25c1.04 0 1.8-.85 1.8-1.8v-10.35c0-.95-.76-1.8-1.8-1.8h-13.48l4.69-3.3c.63-.63.98-1.69-.08-2.9l-4.39-4.74c-.65-.73-2-.22-2.47.27l-10.82 10.51c-.04.05-.08.1-.11.16h-12.62c-1.04 0-1.8.85-1.8 1.8v62.84c0 .95.76 1.8 1.8 1.8h39.3c1.04 0 1.8-.85 1.8-1.8V229.9c0-.95-.76-1.8-1.8-1.8h-26.3v-12.82h21.64c.95 0 1.8-.76 1.8-1.8v-10.35c0-.95-.85-1.8-1.8-1.8h-21.64v-11.77h26.28z"/></svg>