<svg xmlns="http://www.w3.org/2000/svg" role="img" viewBox="1.34 147.84 398.06 104.06"><title>AlphaSights logo</title><g fill-rule="evenodd"><path fill="#932c2b" d="M42 156.424c0 .233-.18.312-.4.176-.22-.136-.4.061-.4.438 0 .639.05.641.731.024.664-.6 2.949-.662 24.557-.662h23.825l2.003 1.8c2.318 2.085 3.296 2.461 1.16.446-.789-.744-1.324-1.464-1.189-1.6.136-.135-.133-.246-.597-.246-.463 0-.954-.18-1.09-.4-.354-.573-48.6-.55-48.6.024m-2.998 1.974c-.399.441-.54.802-.313.802.503 0 1.501-1.143 1.232-1.412-.106-.106-.519.168-.919.61m-.822 1.742c-.577.631-1.019 1.861-.667 1.857.282-.003 1.371-2.053 1.183-2.228-.053-.048-.285.119-.516.371m56.922 1.66c.105.55.26 1 .345 1 .084 0 .153-.45.153-1s-.155-1-.345-1c-.189 0-.258.45-.153 1m.984 1.2c-.057.22-.096 7.182-.086 15.471.011 9.852-.124 15.158-.391 15.324-.246.152-.375 1.954-.325 4.529l.085 4.276.13-4.186c.072-2.302.306-4.294.521-4.426.245-.152.349-6.012.28-15.815-.06-8.565-.157-15.393-.214-15.173m-70.309 1.838c-.149.24-.7.355-1.224.255-.524-.1-.953-.048-.953.117 0 .164-.605.586-1.345.937-.74.351-1.57.91-1.845 1.241-.275.332-.662.504-.858.382-.464-.286-1.552.802-1.552 1.552 0 .319-.27.804-.6 1.078-.33.274-.6.746-.6 1.049 0 .303-.18.551-.4.551a.4.4 0 0 0-.4.397c0 .683-1.373 3.603-1.694 3.603-.168 0-.306.439-.306.976 0 .537-.18 1.088-.4 1.224-.22.136-.4.687-.4 1.224 0 .537-.149.976-.331.976-.182 0-.254.519-.161 1.153s-.028 1.274-.27 1.423c-.241.149-.438.97-.438 1.824 0 .854-.18 1.664-.4 1.8-.22.136-.4 1.047-.4 2.024 0 .977-.141 1.776-.313 1.776-.172 0-.241 1.275-.153 2.833.1 1.763-.009 3.002-.287 3.28-.614.614-.637 41.887-.023 41.887.233 0 .31.182.173.405-.304.491 2.836 3.595 3.636 3.595.312 0 .567.163.567.361 0 .199.945.493 2.1.653 3.238.448 43.954.597 43.684.159-.127-.205.409-.373 1.192-.373.783 0 1.424-.18 1.424-.4 0-.22.294-.4.654-.4.36 0 1.071-.45 1.581-1s1.126-1 1.37-1c.243 0 .331-.18.195-.4-.136-.22-.057-.4.176-.4.233 0 .424-.36.424-.8 0-.44.18-.8.4-.8.259 0 .4-5.133.4-14.6 0-9.467-.141-14.6-.4-14.6-.22 0-.4-.248-.4-.552 0-.929-3.045-3.75-4.36-4.039-.682-.15-1.24-.438-1.24-.641 0-.215-4.576-.368-11.024-.368-7.247 0-10.939-.137-10.776-.4.142-.229-.217-.4-.839-.4-.597 0-1.675-.45-2.397-1-.721-.55-1.463-1-1.649-1-.579 0-2.915-2.697-2.915-3.366 0-.348-.18-.634-.4-.634-.22 0-.4-.27-.4-.6 0-.33-.18-.6-.4-.6-.22 0-.4-.439-.4-.976 0-.537-.18-1.088-.4-1.224-.254-.157-.4-5.404-.4-14.424V164.4h-1.976c-1.087 0-2.099.197-2.247.438m11.736 25.953c.109.738.686 1.598 1.517 2.261.738.588 1.248 1.222 1.132 1.409-.115.186.109.339.498.339.524 0 .271-.444-.977-1.715-.953-.972-1.683-2.099-1.683-2.6 0-.487-.149-.885-.331-.885-.182 0-.252.536-.156 1.191M42 195.255c0 .19.414.345.92.345s1.094.174 1.307.387c.453.453 21.391.764 21.112.313-.103-.165-4.845-.3-10.539-.3s-10.451-.159-10.57-.352c-.298-.481-2.23-.821-2.23-.393m25.2 1.937c0 .224.27.408.6.408.33 0 .6.167.6.372s.405.434.9.51c.495.075.855.358.8.627-.055.27.104.491.354.491s.871.45 1.381 1 1.062 1 1.227 1c.165 0-.411-.735-1.281-1.634-1.65-1.705-4.581-3.48-4.581-2.774m27.902 6.608c-.105.55-.036 1 .153 1 .19 0 .345-.45.345-1s-.069-1-.153-1c-.085 0-.24.45-.345 1m-1.665 9.843c-.339 1.036-.478 3.557-.197 3.557.154 0 .356-.855.449-1.9.175-1.951.069-2.642-.252-1.657m-2.224 8.733c-.235.439-.261.871-.06.995.196.121.441-.228.546-.776.228-1.195.074-1.265-.486-.219m-4.414 8.226c-.516.549-.755.998-.531.998.511 0 1.93-1.535 1.664-1.801-.107-.108-.618.253-1.133.803m-2.807 2.008c-.748.901-.314 1.005.578.138.423-.411.581-.748.349-.748-.232 0-.649.274-.927.61M81 233.867a9.91 9.91 0 0 0-1.6.533 9.91 9.91 0 0 1-1.6.533c-.44.096-.125.195.7.221.825.025 1.5-.134 1.5-.354 0-.22.45-.4 1-.4s1-.18 1-.4c0-.22-.045-.379-.1-.354-.055.026-.46.125-.9.221"/><path fill="#eb5b14" d="M42 157c-.274.33-.738.6-1.031.6-.588 0-2.344 1.614-2.412 2.218-.107.933-.681 2.182-1.004 2.182-.197 0-.353 6.081-.353 13.8 0 8.933.141 13.8.4 13.8.22 0 .4.413.4.917 0 1.254 3.064 4.196 4.715 4.526.716.143 1.399.417 1.517.609.118.191 4.874.348 10.568.348 6.47 0 10.445.15 10.6.4.136.22.606.4 1.043.4 1.94 0 6.757 3.784 6.757 5.307 0 .407.18.629.4.493.22-.136.4.04.4.39 0 .351.266 1.044.591 1.54.493.752.596 3.34.619 15.586l.027 14.684h1.958c1.077 0 2.056-.159 2.176-.354.121-.194 1.071-.481 2.113-.638 1.179-.176 2.098-.575 2.435-1.056.298-.425.763-.723 1.035-.663.535.12 2.752-2.254 3.166-3.389.14-.385.441-.7.667-.7.227 0 .413-.36.413-.8 0-.44.18-.8.4-.8.22 0 .4-.272.4-.605 0-.611.116-.9 1.332-3.327.368-.733.668-1.668.668-2.077 0-.409.17-.849.377-.977s.501-1.492.652-3.032c.152-1.54.432-2.896.624-3.014.191-.119.347-.925.347-1.792s.157-1.576.35-1.576c.433 0 .83-5.534.821-11.465-.004-2.682.16-4.569.411-4.724.278-.172.418-5.123.418-14.819 0-17.393-.051-17.692-3.527-20.692l-2.202-1.9H66.384c-20.744 0-23.952.079-24.384.6"/><path fill="#4a4a44" d="M163.792 180.477c-.11.288-.154 8.623-.096 18.523l.104 18 1.904.122 1.904.122-.104-18.522-.104-18.522-1.704-.123c-1.128-.082-1.771.053-1.904.4m41.991.023c-.105.275-.145 8.6-.087 18.5l.104 18 2.3.12 2.3.12.046-7.92c.026-4.356.088-8.1.139-8.32.051-.22.121-.593.154-.829.131-.925 3.942-4.421 5.343-4.902 1.541-.528 4.246.277 3.731 1.111-.118.19.143.252.579.138.602-.157.894.07 1.209.937.229.63.599 1.507.823 1.949.251.493.363 4.085.292 9.316l-.116 8.514 2.4-.117 2.4-.117.2-9.6.2-9.6-.977-1.4c-1.578-2.26-2.916-3.59-3.346-3.324-.22.136-.278.049-.128-.194.151-.243-.114-.649-.588-.903-1.102-.59-7.688-.599-7.884-.01-.079.237-.385.431-.68.431-.294 0-1.087.552-1.762 1.226-1.889 1.89-2.035 1.427-2.035-6.45V180h-2.213c-1.401 0-2.282.183-2.404.5m123.2 0c-.105.275-.145 8.6-.087 18.5l.104 18 2.3.12 2.3.12v-8.791c0-8.834.295-10.656 1.595-9.852.182.112.245-.124.14-.524-.285-1.091 2.975-3.273 4.89-3.273 1.202 0 4.12 2.213 4.633 3.513.235.598.575 1.377.754 1.731.179.355.346 4.207.371 8.562.053 9.214-.139 8.594 2.662 8.594h2.197l-.158-9.1c-.087-5.005-.361-9.957-.609-11.004-.594-2.501-3.516-5.483-5.412-5.522-5.909-.124-7.592.218-9.572 1.948-1.316 1.149-1.536.112-1.411-6.658.095-5.093.007-6.499-.413-6.66-1.071-.41-4.093-.201-4.284.296m-57.583.736c-7.765.509-11.4 3.645-11.4 9.835 0 4.761 2.927 7.692 10.515 10.532 4.455 1.667 6.449 5.423 4.826 9.092-.62 1.399-2.131 2.536-2.153 1.619-.007-.301-.183-.22-.425.194-.227.39-.562.616-.746.503-.183-.114-.426.036-.54.332-.329.858-6.061.717-8.21-.202-2.987-1.277-3.388-1.064-3.755 1.996-.116.972 2.826 2.55 4.015 2.154.275-.092.74.032 1.033.275.949.788 6.247.765 8.04-.035.88-.392 1.996-.717 2.48-.722.484-.005 1.047-.307 1.251-.672.205-.365.712-.689 1.127-.719 1.15-.085 1.733-.577 1.476-1.246-.127-.331.037-.91.364-1.287 1.433-1.651 1.834-7.201.66-9.132-.417-.686-.758-1.498-.758-1.804 0-.306-.36-.781-.8-1.056-.44-.275-.8-.751-.8-1.059 0-.333-.283-.488-.7-.383-.385.097-2.114-.633-3.843-1.623s-3.282-1.761-3.451-1.714c-2.129.592-5.635-4.671-4.748-7.125 1.354-3.744 8.445-5.326 11.713-2.613.864.717 1.79.047 2.303-1.666.513-1.711-.099-2.71-1.661-2.71-.349 0-.99-.225-1.424-.5-.559-.354-1.838-.431-4.389-.264M140.248 182.9c-.313.495-.7 1.524-.86 2.287-.159.763-.437 1.663-.618 2-.313.586-1.488 4.175-1.641 5.013-.04.22-.504 1.57-1.03 3-.527 1.43-1.018 2.87-1.091 3.2-.294 1.315-2.756 8.213-2.999 8.4-.142.11-.573 1.28-.957 2.6-.385 1.32-.868 2.713-1.075 3.095-.208.382-.377 1.048-.377 1.48 0 .432-.248.929-.551 1.105-1.392.808.004 2.12 2.255 2.12h2.131l1.118-3.1c.615-1.705 1.303-3.82 1.529-4.7.719-2.804 1.226-3 7.744-3h5.736l.584 1.3c.321.715.879 2.29 1.24 3.5s.827 2.513 1.035 2.895c.209.382.379 1.035.379 1.451 0 1.223 1.101 1.821 3.135 1.701 2.465-.144 2.73-.487 1.792-2.321-.429-.839-1.094-2.606-1.477-3.926-.383-1.32-.866-2.713-1.073-3.095-.208-.382-.377-1.046-.377-1.476 0-.43-.183-.895-.407-1.033a.47.47 0 0 1-.165-.641c.132-.215.069-.607-.141-.873-.211-.265-.599-1.202-.863-2.082-.264-.88-.636-1.96-.826-2.4-.191-.44-1.103-3.23-2.027-6.2-.924-2.97-2.003-6.03-2.399-6.8a21.338 21.338 0 0 1-1.176-2.9l-.458-1.5h-2.76c-2.426 0-2.828.109-3.33.9m147.152-.594c-2.202 1.618-1.313 5.294 1.279 5.294 3.162 0 4.61-2.7 2.628-4.9-.641-.711-3.133-.963-3.907-.394m74.064 2.546c-.404.235-1.164.346-1.688.246-.523-.101-.857-.028-.74.16.116.188.066.342-.112.342s-.261.906-.184 2.015c.212 3.067-.087 3.796-1.605 3.911-1.614.123-1.566.065-1.706 2.041-.124 1.729-.101 1.749 2.371 2.123.765.115.805.47.909 8.085.059 4.38.265 8.158.456 8.394.191.237.317.881.281 1.431-.037.573.252 1.234.679 1.547.444.326.664.851.547 1.3-.112.427-.029.65.19.515.213-.132 1.231.106 2.262.527 3.891 1.591 6.476.907 6.476-1.713 0-1.788-.69-2.213-2.941-1.81-2.468.443-3.098-1.836-2.968-10.735l.109-7.431 3.3-.116 3.3-.116V191.6h-3.157c-3.653 0-3.643.01-3.643-3.753 0-3.08-.583-3.898-2.136-2.995m-217.325 4.578c.187.864.499 1.878.694 2.254.195.376.248.96.119 1.297-.139.362.035.716.423.865.362.139.62.545.573.903-.047.358.375 1.641.938 2.851.564 1.21 1.152 2.797 1.307 3.527l.282 1.327-4.937-.127c-5.546-.143-5.444-.068-4.295-3.127 1.181-3.144 3.269-9.702 3.364-10.567.123-1.122.123-1.123.693-.936.275.09.653.87.839 1.733m34.661 2.042c-.77.079-1.791.23-2.268.336l-.868.191-.047 16.973c-.055 20.289-.226 19.102 2.731 18.947l2.252-.119.104-5.8c.126-6.984.186-7.23 1.485-6.011 2.435 2.288 8.154 2.7 11.214.809.71-.439 1.545-.798 1.856-.798.31 0 .824-.36 1.141-.8.317-.44.762-.8.988-.8.227 0 .437-.44.468-.977.031-.537.472-1.561.98-2.274.562-.789.971-2.014 1.044-3.123.311-4.727.051-9.157-.562-9.578-.409-.282-1.718-2.978-1.718-3.539 0-2.561-8.736-4.508-12.678-2.825-.923.394-1.836.716-2.028.716-.192 0-.747.457-1.233 1.016-1.144 1.315-1.774.893-1.588-1.063.081-.854.143-1.524.138-1.489-.006.035-.641.129-1.411.208m59.992.259c-3.863 1.575-4.001 1.734-3.145 3.613.467 1.024.514 1.024 3.553-.021 2.56-.88 8-.102 8 1.143 0 .245.281.651.624.902 1.525 1.115.839 3.418-1.084 3.638-1.372.156-4.411.733-6.528 1.238-5.015 1.196-7.681 5.427-6.605 10.482.746 3.505.816 3.707 1.205 3.467.213-.132.388.035.388.371 0 .38.228.523.603.379.332-.127 1.097.095 1.7.493 1.042.688 6.497 1.137 6.497.535 0-.263 2.979-1.763 4.25-2.141.645-.191.904-.05 1.069.582.189.724.474.818 2.15.711L253.4 217l.128-7.8c.24-14.715-1.337-17.423-10.336-17.75-1.874-.068-3.854.058-4.4.281m50.008-.131c-1.21.11-2.155.335-2.1.5.055.165.1 5.889.1 12.72v12.42l2.3-.12 2.3-.12.106-12.325c.12-14.009.258-13.344-2.706-13.075m16.302.364c-.928.311-1.939.816-2.246 1.123-.308.308-.806.464-1.108.349-.311-.12-.548.043-.548.377a.589.589 0 0 1-.587.587c-.334 0-.497.237-.377.548.115.302-.087.846-.451 1.21-2.136 2.136-3.168 11.726-1.514 14.072.453.644.941 1.53 1.083 1.97 1.228 3.786 9.601 6.791 12.6 4.522.525-.397 1.168-.722 1.43-.722s.887-.437 1.389-.971c1.556-1.656 2.967 1.065 1.645 3.171-.138.22-.492 1.12-.785 2-1.354 4.055-6.309 5.673-11.633 3.8-2.99-1.052-3.6-1.022-3.6.176 0 .537-.18 1.088-.4 1.224-.22.136-.4.627-.4 1.09 0 .464.118.725.263.58.145-.145.46-.117.7.061 3.087 2.293 11.549 1.638 16.621-1.286.787-.454 2.767-3.495 2.921-4.487.065-.417.225-.938.356-1.158.424-.713.725-7.372.812-18l.085-10.4-1.868-.217c-2.043-.238-2.29-.016-2.29 2.05 0 1.32-.766 1.583-1.083.371-.114-.437-.353-.705-.53-.596-.177.11-.566-.044-.863-.341-1.618-1.618-6.43-2.17-9.622-1.103m80.007-.54c-.072.072-1.706.166-3.632.208-1.925.043-3.437.141-3.359.219.078.078-.727 1.043-1.788 2.144-4.437 4.603-1.399 10.821 6.17 12.629.605.145 1.1.411 1.1.592 0 .182.341.438.757.57 2.189.695 1.601 5.525-.74 6.082-.559.134-1.197.348-1.417.476-.808.471-1.921.454-2.514-.039-.335-.278-1.076-.521-1.647-.541-.572-.02-1.73-.344-2.575-.721-.845-.376-1.419-.493-1.274-.26.405.657-.177 2.071-.719 1.746-.266-.16-.232.012.078.394.302.372.409.677.238.677-.171 0 .007.351.396.781 1.17 1.293 9.434 2.419 10.143 1.381.151-.22.687-.426 1.192-.458 2.448-.152 6.023-5.514 4.991-7.484-.3-.571-.444-1.201-.322-1.4.571-.923-1.362-3.704-2.918-4.198-.794-.252-1.053-.69-.911-1.539.03-.175-.269-.145-.662.066-1.538.823-6.28-2.268-6.387-4.163-.187-3.322 2.509-4.42 7.431-3.026.958.271 1.776.436 1.819.366.998-1.603.961-3.307-.082-3.738-.994-.411-3.216-.915-3.368-.764m-194.99 3.9c1.201.623 2.312 1.712 2.032 1.992-.116.116.164.33.623.476.937.297 2.026 2.131 2.026 3.412 0 .464.14.757.311.651.17-.105.352.919.402 2.277.209 5.599-5.481 12.086-8.787 10.018-.289-.181-.706-.343-.926-.361-.889-.072-2.449-.958-3.251-1.847-1.787-1.977-1.964-2.803-1.706-7.947l.244-4.849 1.74-1.773c1.055-1.075 2.1-1.773 2.656-1.773.504 0 .917-.151.917-.335 0-.532 2.662-.489 3.719.059m122.613.586c.587.45 1.029.997.981 1.214-.047.218.332.501.843.629 2.126.534 3.205 8.795 1.444 11.047-.43.55-.786 1.231-.791 1.513-.014.788-2.34 2.887-3.199 2.887-.42 0-.874.18-1.01.4-.871 1.41-7.376-1.716-7.413-3.562-.007-.351-.276-.986-.598-1.412-2.359-3.119.867-13.026 4.241-13.026.398 0 .828-.17.956-.377.393-.637 3.414-.18 4.546.687m-64.327 9.3c.471.879.385 4.79-.105 4.79-.165 0-.3.246-.3.546 0 2.377-4.572 4.614-7.48 3.66-1.35-.443-2.988-3.824-2.306-4.758.292-.399.449-.94.348-1.202-.886-2.309 8.658-5.252 9.843-3.036"/><path fill="#3c3c3c" d="M66.183 155.9c15.181.067 24.129.252 24.38.503.218.218.676.391 1.017.384.492-.01.46-.133-.156-.6-.667-.504-4.216-.573-25-.49l-24.224.097 23.983.106M40 157.2c0 .22.27.4.6.4.33 0 .6-.18.6-.4 0-.22-.27-.4-.6-.4-.33 0-.6.18-.6.4m52.284-.151c-.133.134.378.829 1.136 1.544.759.716 1.38 1.505 1.38 1.754 0 .249.18.453.4.453.22 0 .4.576.4 1.28 0 .961.114 1.166.458.822.343-.343.334-.756-.038-1.654-.582-1.406-3.382-4.553-3.736-4.199m-55.022 3.726c-.934 1.923-1.392 29.225-.49 29.225.205 0 .43.405.5.9s.128-6.081.128-14.614c0-12.715.099-15.576.549-15.854.302-.187.465-.585.362-.886-.107-.314-.552.207-1.049 1.229M96.494 178.5c-.06 10.004-.236 15.5-.494 15.5-.247 0-.4 2.067-.4 5.4s-.153 5.4-.4 5.4c-.229 0-.4 1.2-.4 2.8 0 1.657-.168 2.8-.413 2.8-.226 0-.401.585-.386 1.3.042 2.142-.478 5.5-.852 5.5-.192 0-.349.576-.349 1.28 0 3.057.997-.225 1.846-6.08.112-.77.365-1.76.562-2.2.864-1.928 1.615-18.817 1.493-33.6l-.112-13.6-.095 15.5M25.8 164c-.136.22-.604.4-1.04.4-1.603 0-6.043 2.854-5.225 3.36.206.127.6-.04.875-.372.275-.331 1.105-.89 1.845-1.241.74-.351 1.345-.773 1.345-.937 0-.165.429-.217.953-.117.524.1 1.075-.015 1.224-.255.148-.241 1.16-.438 2.247-.438H30v14.176c0 9.02.146 14.267.4 14.424.22.136.4.687.4 1.224 0 .537.18.976.4.976.22 0 .4.27.4.6 0 .33.18.6.4.6.22 0 .4.286.4.634 0 .669 2.336 3.366 2.915 3.366.186 0 .928.45 1.649 1 .722.55 1.8 1 2.397 1 .622 0 .981.171.839.4-.163.263 3.529.4 10.776.4 6.448 0 11.024.153 11.024.368 0 .203.558.491 1.24.641 1.315.289 4.36 3.11 4.36 4.039 0 .304.18.552.4.552.259 0 .4 5.133.4 14.6 0 9.467-.141 14.6-.4 14.6-.22 0-.4.27-.4.6 0 1.051.623.646 1.12-.728.768-2.124.668-27.325-.116-29.2-.786-1.881-4.044-5.06-5.481-5.347-.627-.126-1.237-.385-1.355-.577-.118-.191-4.834-.348-10.478-.348-10.909 0-12.151-.177-15.09-2.148-2.401-1.61-4.6-4.614-4.6-6.284 0-.423-.18-.768-.4-.768-.259 0-.4-5.04-.4-14.32 0-10.604-.125-14.445-.48-14.8-.58-.58-4.172-.643-4.52-.08m-8.923 5.892c-.482.677-.877 1.429-.877 1.67 0 .241-.18.438-.4.438-.22 0-.401.225-.402.5-.001.275-.455 1.393-1.009 2.485-.554 1.092-1.116 2.671-1.25 3.509-.134.838-.4 1.62-.592 1.738-.191.119-.347.734-.347 1.368 0 .634-.156 1.249-.347 1.367-.191.118-.46.984-.599 1.924-.139.94-.42 2.699-.624 3.909-.204 1.21-.385 3.415-.401 4.9-.016 1.514-.205 2.7-.429 2.7-.551 0-.551 41.06 0 41.4.265.164.4-6.703.4-20.296 0-14.603.129-20.673.447-20.991.278-.278.387-1.517.287-3.28-.088-1.558-.019-2.833.153-2.833s.313-.799.313-1.776.18-1.888.4-2.024c.22-.136.4-.946.4-1.8 0-.854.197-1.675.438-1.824.242-.149.363-.789.27-1.423-.093-.634-.021-1.153.161-1.153s.331-.439.331-.976c0-.537.18-1.088.4-1.224.22-.136.4-.687.4-1.224 0-.537.138-.976.306-.976.321 0 1.694-2.92 1.694-3.603a.4.4 0 0 1 .4-.397c.22 0 .4-.211.4-.469 0-.257.288-.787.641-1.176.353-.39.567-.93.477-1.201-.096-.289-.528.018-1.041.738m146.223 8.94c-.89.518-1.102 38.606-.22 39.488.782.782 5.129.616 5.763-.22.952-1.254.787-38.168-.174-39.038-.829-.75-4.227-.895-5.369-.23m42.189.191l-.889.622v19.034c0 21.837-.342 20.087 3.929 20.108 3.731.019 3.596.39 3.743-10.262l.128-9.188 1.323-1.323c1.176-1.175 1.587-1.329 3.683-1.385 2.872-.076 3.259-.368 1.613-1.219-2.038-1.054-7.731 2.3-8.08 4.761-.033.236-.103.609-.154.829-.051.22-.113 3.964-.139 8.32l-.046 7.92-2.3-.12-2.3-.12v-36.8l2.3-.12 2.3-.12v7.196c0 7.898.145 8.36 2.035 6.47.675-.674 1.468-1.226 1.762-1.226.295 0 .6-.19.677-.423.118-.352 3.309-.541 6.812-.404.941.037 3.202 2.089 4.793 4.35l1.321 1.877-.2 9.6-.2 9.6-2.4.117-2.4.117.116-8.514c.071-5.231-.041-8.823-.292-9.316a20.863 20.863 0 0 1-.806-1.904c-.373-1.03-1.166-1.419-1.734-.851-.137.138.193.83.733 1.538.977 1.281.983 1.34.983 10.407 0 8.215.069 9.17.7 9.649.884.671 5.369.728 6.02.077.833-.833.658-19.62-.204-21.907-2.355-6.246-10.48-8.495-15.616-4.321-.396.322-.5-.929-.5-6.02 0-7.454-.108-7.672-3.8-7.672-1.183 0-2.391.258-2.911.623m123.211-.157l-.9.456v19.168c0 22.101-.324 20.413 3.886 20.229 3.712-.163 3.662-.014 3.736-11.234.036-5.354.215-9.085.436-9.085.206 0 .743-.343 1.193-.762 2.085-1.943 7.149-.928 7.149 1.432 0 .291.135.53.3.53.165-.001.248 3.89.185 8.646-.142 10.615-.164 10.554 3.753 10.554 3.922 0 3.762.458 3.762-10.771 0-5.296-.157-9.629-.349-9.629-.192 0-.465-.727-.607-1.615-.142-.889-.524-1.718-.849-1.842-.325-.125-.492-.385-.373-.579.298-.481-1.72-2.37-3.702-3.464-2.331-1.288-6.293-1.257-8.934.07l-1.931.969-.127-6.151c-.087-4.196-.285-6.307-.622-6.643-.659-.658-4.873-.853-6.006-.279m-160.996 19.856l.104 18.522-1.904-.122L163.8 217l-.104-18c-.119-20.469-.265-19.087 2-18.923l1.704.123.104 18.522M267.2 180.4c0 .22-.423.4-.94.4-1.371 0-4.265 2.163-6.155 4.6-1.326 1.709-1.833 7.688-.805 9.485 1.52 2.658 6.285 6.715 7.886 6.715.234 0 .737.16 1.119.356.382.195 1.407.69 2.277 1.1 3.301 1.552 3.917 2.425 3.736 5.284-.116 1.828-.347 2.644-.823 2.911-.963.539-.443 1.656.529 1.136 3.907-2.091 1.714-8.83-3.509-10.784-10.678-3.996-13.958-11.307-7.778-17.341 2.636-2.574 10.423-4.182 13.16-2.717.468.25 1.098.455 1.4.455 1.481 0 2.08 1.031 1.577 2.71-.513 1.713-1.439 2.383-2.303 1.666-3.268-2.713-10.359-1.131-11.713 2.613-.887 2.454 2.619 7.717 4.748 7.125.169-.047 1.722.724 3.451 1.714s3.458 1.72 3.843 1.623c.417-.105.7.05.7.383 0 .308.36.784.8 1.059.44.275.8.75.8 1.056 0 .306.341 1.118.758 1.804 1.174 1.931.773 7.481-.66 9.132-.327.377-.491.956-.364 1.287.257.669-.326 1.161-1.476 1.246-.415.03-.922.354-1.127.719-.204.365-.767.667-1.251.672-.484.005-1.6.33-2.48.722-1.793.8-7.091.823-8.04.035-.293-.243-.758-.367-1.033-.275-1.189.396-4.131-1.182-4.015-2.154.368-3.064.768-3.274 3.773-1.986 2.128.912 7.734.99 8.275.115.181-.294.485-.505.675-.47.19.035.41-.129.488-.366.181-.543-.99-.569-1.323-.03-.136.22-1.576.4-3.2.4s-3.064-.18-3.2-.4c-.136-.22-.687-.4-1.224-.4-.537 0-.976-.141-.976-.312 0-.759-2.534-1.291-3.214-.675-.707.639-1.586 3.138-1.586 4.506 0 2.618 13.853 5.189 16.06 2.981.275-.275.824-.5 1.22-.5s.72-.18.72-.4c0-.22.249-.4.553-.4.74 0 3.53-2.825 4.202-4.256.296-.629.697-1.457.892-1.839.492-.967.451-7.105-.047-7.105-.22 0-.4-.36-.4-.8 0-.44-.139-.8-.309-.8-.17 0-.646-.626-1.059-1.392-.412-.765-1.051-1.487-1.42-1.604-.369-.117-1.018-.526-1.441-.909-.804-.725-1.221-.942-5.171-2.693-4.547-2.015-5.013-2.313-5.265-3.37-.135-.568-.429-1.265-.653-1.549-.281-.356-.264-.661.055-.98.255-.255.463-.777.463-1.16 0-.907 1.498-1.943 2.809-1.943.567 0 1.243-.212 1.503-.472.35-.35.706-.358 1.38-.031.499.242 1.681.548 2.625.679.945.132 2.062.454 2.481.716 1.061.662 2.688-1.258 3.037-3.584.318-2.12-.197-2.828-2.296-3.164-.856-.137-1.653-.405-1.771-.597-.307-.495-8.968-.444-8.968.053m66.067-.196c.42.161.508 1.567.413 6.66-.125 6.77.095 7.807 1.411 6.658 1.98-1.73 3.663-2.072 9.572-1.948 1.896.039 4.818 3.021 5.412 5.522.248 1.047.522 5.999.609 11.004l.158 9.1h-2.197c-2.801 0-2.609.62-2.662-8.594-.025-4.355-.192-8.207-.371-8.562a25.54 25.54 0 0 1-.754-1.731c-1.478-3.747-7.722-4.309-9.461-.851-.221.44-.716 1.114-1.1 1.498-.621.621-.697 1.661-.697 9.489v8.791l-2.3-.12-2.3-.12-.104-18c-.058-9.9-.018-18.225.087-18.5.191-.497 3.213-.706 4.284-.296m-193.567.854c-.275.115-.5.466-.5.781 0 .314-.17.884-.379 1.266-.208.382-.671 1.685-1.028 2.895-.358 1.21-.808 2.56-1.001 3-.688 1.567-1.592 4.641-1.592 5.414 0 .432-.18.786-.4.786-.22 0-.4.439-.4.976 0 .537-.17 1.082-.377 1.21-.207.128-.498 1.038-.645 2.023-.148.985-.428 1.791-.623 1.791s-.355.45-.355 1-.16 1-.355 1c-.324 0-.776 1.572-.947 3.3-.038.385-.211.7-.384.7-.173 0-.314.349-.314.776 0 .427-.18.888-.4 1.024-.22.136-.4.676-.4 1.2 0 .524-.164 1.054-.365 1.178-.201.125-.487.944-.635 1.822-.148.878-.434 1.697-.635 1.822-.201.124-.365.767-.365 1.43 0 3.675 6.602 3.383 7.602-.336.284-1.054.669-2.087.857-2.296.188-.209.341-.783.341-1.276s.17-1.002.377-1.13c.207-.128.498-1.038.645-2.023l.269-1.791h11.129l.242 1.208c.133.665.398 1.306.59 1.424.191.118.348.655.348 1.192 0 .537.18.976.4.976.22 0 .399.315.398.7-.003.975 1.301 4.594 1.873 5.2.678.719 5.623.663 6.358-.071.667-.668.737-1.91.171-3.034-.22-.437-.558-1.117-.751-1.51-.192-.394-.478-1.473-.634-2.398-.157-.926-.449-1.784-.65-1.909-.201-.124-.365-.665-.365-1.202 0-.537-.18-.976-.4-.976-.22 0-.4-.322-.4-.715 0-.806-1.326-4.744-1.735-5.153-.146-.146-.265-.685-.265-1.199 0-.513-.157-.933-.349-.933-.192 0-.465-.728-.607-1.617-.143-.89-.415-1.925-.605-2.3a20.065 20.065 0 0 1-1.641-4.395c-.239-.942-.568-1.63-.73-1.53-.162.1-.289-.299-.281-.888.007-.63-.187-1.031-.473-.975-.279.055-.389-.156-.258-.496.203-.53-.685-3.848-1.446-5.399-.296-.602-6.714-1.042-7.91-.542m146.32.807c-3.435 4.368 2.212 9.423 6.14 5.495 1.817-1.817 1.915-3.402.327-5.26-1.543-1.805-5.129-1.935-6.467-.235M146.796 183.5c.252.825.781 2.13 1.176 2.9.396.77 1.475 3.83 2.399 6.8.924 2.97 1.836 5.76 2.027 6.2.19.44.562 1.52.826 2.4.264.88.652 1.817.863 2.082.21.266.273.658.141.873a.47.47 0 0 0 .165.641c.224.138.407.603.407 1.033 0 .43.169 1.094.377 1.476.207.382.69 1.775 1.073 3.095.383 1.32 1.048 3.087 1.477 3.926.938 1.834.673 2.177-1.792 2.321-2.034.12-3.135-.478-3.135-1.701 0-.416-.17-1.069-.379-1.451-.208-.382-.674-1.685-1.035-2.895-.361-1.21-.919-2.785-1.24-3.5l-.584-1.3h-5.736c-6.518 0-7.025.196-7.744 3-.226.88-.914 2.995-1.529 4.7l-1.118 3.1h-2.131c-2.251 0-3.647-1.312-2.255-2.12.303-.176.551-.673.551-1.105 0-.432.169-1.098.377-1.48.207-.382.69-1.775 1.075-3.095.384-1.32.815-2.49.957-2.6.243-.187 2.705-7.085 2.999-8.4.073-.33.564-1.77 1.091-3.2.526-1.43.99-2.78 1.03-3 .153-.838 1.328-4.427 1.641-5.013.181-.337.459-1.237.618-2 .582-2.779 1.119-3.187 4.19-3.187h2.76l.458 1.5m144.511-.8c1.982 2.2.534 4.9-2.628 4.9-2.592 0-3.481-3.676-1.279-5.294.774-.569 3.266-.317 3.907.394m70.293.9c-.33.213-1.067.391-1.638.394-1.685.01-2.362 1.139-2.362 3.937v2.469h-1.32c-1.826 0-2.28.618-2.28 3.109 0 2.473.58 3.291 2.336 3.291h1.194l.151 8.3c.168 9.217.29 9.747 2.816 12.185 1.756 1.695 3.183 2.079 6.855 1.846 3.185-.203 3.848-.793 3.848-3.422 0-2.489-.458-2.908-3.18-2.912-3.089-.004-3.22-.373-3.22-9.077v-6.92h2.92c3.535 0 3.88-.285 3.88-3.2s-.345-3.2-3.88-3.2h-2.92v-3.12c0-3.834-1.065-5.059-3.2-3.68m1.52 1.28c.27.27.48 1.566.48 2.967 0 3.763-.01 3.753 3.643 3.753h3.157v3.968l-3.3.116-3.3.116-.109 7.431c-.13 8.899.5 11.178 2.968 10.735 2.251-.403 2.941.022 2.941 1.81 0 .977-.183 1.89-.407 2.028-.223.138-.279.464-.123.724.21.35.134.36-.293.039-.317-.238-1.297-.404-2.177-.369-.88.035-2.444-.282-3.476-.706-1.031-.423-2.049-.662-2.262-.53-.219.135-.302-.088-.19-.515.117-.449-.103-.974-.547-1.3-.427-.313-.716-.974-.679-1.547.036-.55-.09-1.194-.281-1.431-.191-.236-.397-4.014-.456-8.394-.104-7.615-.144-7.97-.909-8.085-2.472-.374-2.495-.394-2.371-2.123.14-1.976.092-1.918 1.706-2.041 1.518-.115 1.817-.844 1.605-3.911-.081-1.168.028-2.018.26-2.021.22-.004.13-.183-.2-.4-.43-.281-.242-.324.66-.151.694.132 1.594.048 2-.189.952-.553 1.083-.551 1.66.026m-220.371 2.787c-.028.073-.092.508-.142.966-.095.865-2.183 7.423-3.364 10.567-1.149 3.059-1.251 2.984 4.295 3.127l4.937.127-.282-1.327c-.155-.73-.743-2.317-1.307-3.527-.563-1.21-.985-2.493-.938-2.851.047-.358-.211-.764-.573-.903-.388-.149-.562-.503-.423-.865.129-.337.076-.921-.119-1.297-.195-.376-.507-1.39-.694-2.254-.272-1.261-1.154-2.379-1.39-1.763m42.051 2.849c-.55.254-1.09.561-1.2.682-.956 1.053-2.4 1.589-2.4.891 0-1.257-.869-1.689-3.4-1.689-3.649 0-3.4-1.423-3.4 19.418 0 21.298-.297 19.782 3.87 19.782 3.574 0 3.73-.281 3.73-6.719 0-5.315.377-6.279 1.685-4.31.747 1.123 11.115.211 11.115-.978 0-.116.612-.54 1.359-.943.748-.403 1.688-1.343 2.091-2.091.403-.747.827-1.359.943-1.359.785 0 2.167-5.633 2.159-8.8-.007-2.629-.892-7.2-1.395-7.2-.196 0-.357-.268-.357-.595 0-.328-.315-.981-.7-1.452-1.409-1.724-2.5-2.863-2.5-2.611 0 .142-.356-.098-.791-.533-1.869-1.869-8.124-2.733-10.809-1.493m53.8-.02c-4.883 1.672-5.871 3.527-3.439 6.458.562.676 2.439.903 2.439.294 0-1.634 8.593-1.043 9.231.635.578 1.519.462 1.717-1.007 1.717-.757 0-1.488.18-1.624.4-.136.22-.946.4-1.8.4-.854 0-1.664.18-1.8.4-.136.22-.614.4-1.062.4-2.475 0-7.138 4.398-7.138 6.733 0 .336-.225 1.237-.5 2.004-.4 1.115-.4 1.427 0 1.562.275.092.5.783.5 1.534 0 .752.18 1.367.4 1.367.22 0 .4.306.4.68 0 .496.12.56.441.239.321-.321.323-.997.007-2.471-1.114-5.192 1.487-9.394 6.564-10.604 2.117-.505 5.156-1.082 6.528-1.238 1.923-.22 2.609-2.523 1.084-3.638-.343-.251-.624-.657-.624-.902 0-1.245-5.44-2.023-8-1.143-3.039 1.045-3.086 1.045-3.553.021-.85-1.866-.644-2.124 2.753-3.458.905-.355 2.603-.508 4.8-.433 8.98.307 10.568 3.037 10.328 17.747l-.128 7.8-1.931.123c-1.676.107-1.961.013-2.15-.711-.165-.632-.424-.773-1.069-.582-1.271.378-4.25 1.878-4.25 2.141 0 .582-5.469.166-6.402-.487-1.169-.819-1.998-.882-1.998-.152 0 2.237 10.085 2.307 11.677.081.16-.223.604-.011 1.047.5.934 1.076 4.93 1.29 5.905.316.698-.699.864-19.829.171-19.829-.22 0-.4-.422-.4-.939 0-5.226-8.824-9.217-15.4-6.965m66.6-.119c-.33.182-1.105.567-1.722.856-1.702.798-4.899 4.184-5.938 6.292-1.126 2.281-1.686 11.923-.674 11.587.384-.127.564-1.234.64-3.945.116-4.117.912-7.404 2.136-8.815.431-.498.694-1.141.584-1.429-.111-.287.063-.523.387-.523a.589.589 0 0 0 .587-.587c0-.334.237-.497.548-.377.302.115.802-.043 1.111-.353 2.128-2.127 9.744-2.137 11.865-.016.297.297.686.451.863.341.177-.109.416.159.53.596.317 1.212 1.083.949 1.083-.371 0-2.066.247-2.288 2.29-2.05l1.868.217-.085 10.4c-.087 10.628-.388 17.287-.812 18-.131.22-.294.758-.362 1.196-.068.438-.585 1.462-1.149 2.277-.565.814-.91 1.669-.767 1.899.157.255.01.323-.377.175-.35-.134-.969.057-1.376.426-2.114 1.913-10.675 3.074-13.711 1.86-1.885-.754-2.527-.958-2.819-.897-.45.096-.361-1.451.1-1.736.22-.136.4-.687.4-1.224 0-1.198.61-1.228 3.6-.176 5.324 1.873 10.279.255 11.633-3.8.293-.88.647-1.78.785-2 1.322-2.106-.089-4.827-1.645-3.171-.502.534-1.127.971-1.389.971s-.905.325-1.43.722c-2.999 2.269-11.372-.736-12.6-4.522-.443-1.369-1.832-3.082-2.2-2.714-.383.383.428 2.914.934 2.914.171 0 .312.232.312.517 0 3.928 12.273 7.775 14.8 4.639 1.035-1.285 2.072-.763 1.795.904-.159.957-.448 1.8-.642 1.873-.194.074-.353.345-.353.604s-.367.7-.816.98c-.448.28-.724.657-.612.838.112.181-.241.244-.784.141-.574-.11-.988-.002-.988.257 0 .283-.952.447-2.6.447-1.467 0-2.6-.174-2.6-.4 0-.22-.422-.4-.939-.4-.516 0-1.533-.297-2.26-.66-1.376-.686-2.28-.465-2.812.687a48.63 48.63 0 0 1-.727 1.468c-1.011 1.957.221 3.862 2.836 4.385.615.123 1.216.38 1.334.572.307.497 10.168.447 10.168-.052 0-.22.366-.4.814-.4 3.385 0 7.986-6.217 7.986-10.791 0-1.017.183-2.032.406-2.255.609-.609.343-24.354-.273-24.354-.256 0-.616-.164-.8-.364-.193-.212-.123-.244.167-.077.275.159.5.089.5-.154 0-.939-5.327-.31-5.823.687-.423.852-.477.861-1.21.197-1.717-1.556-7.831-2.377-9.767-1.312m73.372.453c-2.121 1.03-4.572 3.36-4.572 4.346 0 .427-.18.888-.4 1.024-1.651 1.02.579 7.524 3.033 8.846.752.405 1.367.831 1.367.947 0 .24 1.707.997 3.2 1.418 2.91.821 4.289 3.044 2.97 4.789-.716.947-6.574 1.188-6.876.283-.088-.266-.491-.483-.894-.483s-.814-.225-.912-.5c-.122-.343-.511-.195-1.233.47-1.059.973-1.376 2.184-.684 2.612.461.285.977-1.218.619-1.799-.145-.233.429-.116 1.274.26.845.377 2.003.701 2.575.721.571.02 1.312.263 1.647.541.593.493 1.706.51 2.514.039.22-.128.858-.342 1.417-.476 2.341-.557 2.929-5.387.74-6.082-.416-.132-.757-.388-.757-.57 0-.181-.495-.447-1.1-.592-7.769-1.856-10.658-8.118-5.926-12.85l2.174-2.174 3.326-.046c7.051-.098 8.613.955 6.485 4.372-.043.07-.861-.095-1.819-.366-4.922-1.394-7.618-.296-7.431 3.026.107 1.9 4.849 4.986 6.392 4.16.831-.445.572-1.145-.425-1.148-.372-.002-1.204-.278-1.85-.615-.645-.337-1.42-.518-1.72-.402-.301.115-.437.031-.301-.188.135-.219-.036-.507-.38-.639-1.048-.402-.83-2.895.275-3.13 1.649-.352 4.7-.434 4.7-.127 0 .167.345.303.767.303.421 0 .848.225.948.5.218.599 1.476-.016 1.896-.927.146-.315.473-.976.727-1.468 1.972-3.817-6.357-6.701-11.766-4.075m-92.472.168c-.705.801-.724 26.618-.02 27.322.695.695 5.433.624 6.149-.091.77-.771.856-26.584.091-27.349-.694-.694-5.587-.601-6.22.118m-106.027 1.755c-.186 1.956.444 2.378 1.588 1.063.486-.559 1.041-1.016 1.233-1.016.192 0 1.105-.322 2.028-.716 3.942-1.683 12.678.264 12.678 2.825 0 .561 1.309 3.257 1.718 3.539.613.421.873 4.851.562 9.578-.073 1.109-.482 2.334-1.044 3.123-.508.713-.949 1.737-.98 2.274-.031.537-.241.977-.468.977-.226 0-.671.36-.988.8-.317.44-.831.8-1.141.8-.311 0-1.146.359-1.856.798-3.06 1.891-8.779 1.479-11.214-.809-1.299-1.219-1.359-.973-1.485 6.011l-.104 5.8-2.252.119c-2.957.155-2.786 1.342-2.731-18.947l.047-16.973.868-.191c.477-.106 1.498-.257 2.268-.336.77-.079 1.405-.173 1.411-.208.005-.035-.057.635-.138 1.489m111.433 11.922L291.4 217l-2.3.12-2.3.12v-12.42c0-6.831-.045-12.555-.1-12.72-.177-.53 4.27-.747 4.606-.225.168.261.258 6.021.2 12.8M143.998 192.3c-.002.748 1.067 4.243 1.65 5.395.194.382.352.967.352 1.3 0 .333.18.605.4.605.22 0 .4.36.4.8 0 .745-.256.798-3.7.768-2.035-.017-3.475-.122-3.2-.233.275-.111.5-.601.5-1.088 0-.488.143-1.058.318-1.267.175-.209.646-1.46 1.046-2.78 1.161-3.822 2.24-5.513 2.234-3.5M38 192.584c0 .353 1.753 1.816 2.175 1.816.234-.001-.098-.451-.737-1-1.167-1.004-1.438-1.158-1.438-.816m2.803 2.516c.012 1.185 2.382 1.475 12.997 1.594 10.218.115 11.268.22 13.495 1.353.892.454 1.105.445 1.105-.047 0-.22-.255-.4-.567-.4-.311 0-.641-.225-.733-.5-.126-.38-2.846-.53-11.333-.626-6.193-.07-11.336-.293-11.547-.5-.209-.206-.794-.374-1.3-.374s-.92-.18-.92-.4c0-.22-.27-.4-.6-.4-.33 0-.599.135-.597.3m145.597.165c0 .184-.413.335-.917.335-.556 0-1.601.698-2.656 1.773l-1.74 1.773-.244 4.849c-.258 5.144-.081 5.97 1.706 7.947.802.889 2.362 1.775 3.251 1.847.22.018.637.18.926.361 4.019 2.515 10.233-6.433 8.418-12.122-1.004-3.146-1.296-3.683-2.299-4.228-.575-.312-.897-.575-.716-.584.478-.023-.889-1.31-2.01-1.892-1.057-.548-3.719-.591-3.719-.059m121.786-.042c-.128.207-.558.377-.956.377-3.374 0-6.6 9.907-4.241 13.026.322.426.591 1.061.598 1.412.037 1.846 6.542 4.972 7.413 3.562.136-.22.59-.4 1.01-.4.859 0 3.185-2.099 3.199-2.887.005-.282.361-.963.791-1.513 1.761-2.252.682-10.513-1.444-11.047-.511-.128-.89-.411-.843-.629.269-1.229-4.853-2.991-5.527-1.901m-116.863 2.385c1.306 1.135 2.277 2.949 2.277 4.253 0 .517.18.939.4.939.545 0 .51 3.485-.038 3.824-.242.149-.364.778-.273 1.399.097.662-.011 1.097-.262 1.053-.235-.042-.413.328-.395.822.017.494-.055.813-.16.708-.105-.106-.479.122-.831.504-2.699 2.93-7.751 2.201-9.592-1.384-.661-1.286-.578-8.719.113-10.046 1.706-3.281 6.16-4.334 8.761-2.072m122.337.391l1.34 1.339v4.862c0 5.156-1.002 7.683-3.081 7.771-.375.016-1.145.24-1.711.498-.788.359-1.14.359-1.499 0-.258-.258-.772-.469-1.142-.469-.889 0-3.167-2.356-3.167-3.276 0-.398-.18-.724-.4-.724-.237 0-.4-1.467-.4-3.6 0-1.98.16-3.6.357-3.6.196 0 .461-.405.589-.9.934-3.605 6.293-4.723 9.114-1.901M71.273 200.7c.563.605 1.341 1.601 1.729 2.212.836 1.318 1.29 1.18.526-.159-.644-1.129-2.552-3.153-2.972-3.153-.168 0 .155.495.717 1.1m314.947 2.068c-.252.408.816 1.632 1.425 1.632.991 0 3.032 3.228 2.542 4.02-.122.199.022.829.322 1.4 1.032 1.97-2.543 7.332-4.991 7.484-.505.032-1.041.238-1.192.458-.709 1.038-8.973-.088-10.143-1.381-.389-.43-.567-.781-.396-.781.171 0 .089-.268-.183-.596-.636-.766-1.204-.409-1.204.758 0 4.333 13.542 4.554 17.281.282 2.319-2.649 2.95-7.895 1.177-9.783-.472-.502-.858-1.098-.858-1.324 0-.226-.63-.75-1.4-1.165-.77-.415-1.4-.893-1.4-1.063 0-.43-.704-.388-.98.059M74.319 219.221c.069 8.787.276 15.134.5 15.358.241.241.381-4.995.381-14.299 0-8.746-.15-14.68-.371-14.68-.204 0-.429-.305-.5-.678-.071-.373-.076 6.061-.01 14.299M242.2 205.069c-1.832.658-3.908 2.472-3.638 3.177.101.262-.056.803-.348 1.202-.682.934.956 4.315 2.306 4.758 2.908.954 7.48-1.283 7.48-3.66 0-.3.135-.546.3-.546.49 0 .576-3.911.105-4.79-.528-.987-3.654-1.059-6.205-.141m5 2.889c0 3.844-3.094 6.211-6.355 4.861-1.995-.827-2.025-4.985-.04-5.504.437-.115.795-.367.795-.562 0-.194.439-.353.976-.353.537 0 1.088-.18 1.224-.4.136-.22.957-.4 1.824-.4h1.576v2.358m-13.168 7.893c-.018.248.238.675.568.949.493.409.6.378.6-.175 0-.37-.165-.57-.366-.446-.201.124-.457 0-.568-.277-.126-.313-.215-.332-.234-.051M92 220.824c0 .453.18.712.4.576.22-.136.4-.507.4-.824 0-.317-.18-.576-.4-.576-.22 0-.4.371-.4.824m-1.2 3.376c0 .596.172.941.4.8.22-.136.4-.496.4-.8 0-.304-.18-.664-.4-.8-.228-.141-.4.204-.4.8m-.8 1.487c0 .356-.112.977-.249 1.38-.177.521-.048.462.446-.201.512-.687.578-1.051.249-1.38-.328-.328-.446-.275-.446.201m-1.529 2.942c-.291.329-.462.797-.382 1.039.081.243.458-.033.838-.613.739-1.127.423-1.421-.456-.426M82 234c0 .22-.45.4-1 .4s-1 .192-1 .427c0 .259.354.317.9.147 2.72-.848 3.448-1.374 1.9-1.374-.44 0-.8.18-.8.4m-6.034 1.23c-.374.236.169.36 1.601.364 1.191.003 2.091-.059 2-.137-.437-.376-3.101-.544-3.601-.227M10.8 239.971c0 .586 1.553 1.951 3.6 3.163l1.8 1.066 22.186.119c12.202.066 22.078.011 21.946-.121-.132-.132-9.486-.297-20.786-.368-20.029-.125-24.746-.328-24.746-1.069 0-.198-.264-.361-.587-.361-.322 0-1.222-.636-2-1.413-.777-.778-1.413-1.235-1.413-1.016m54.667 1.296c-.404.44-.63.904-.503 1.031.27.269 1.836-1.062 1.836-1.56 0-.546-.546-.33-1.333.529M63.2 242.8c0 .22-.641.4-1.424.4-.847 0-1.323.162-1.176.4.336.543 1.419.503 2.717-.1 1.182-.549 1.424-1.1.483-1.1-.33 0-.6.18-.6.4"/></g></svg>