<svg xmlns="http://www.w3.org/2000/svg" role="img" viewBox="1.74 1.74 611.52 127.52"><defs><linearGradient id="a" x1="48.656" x2="48.656" y1="117.821" y2="19.697" gradientUnits="userSpaceOnUse"><stop offset="0" stop-color="#a52423"/><stop offset=".018" stop-color="#a52524"/><stop offset="1" stop-color="#c0645f"/></linearGradient><linearGradient id="b" x1="57.779" x2="103.747" y1="91.329" y2="11.711" gradientUnits="userSpaceOnUse"><stop offset="0" stop-color="#f57e1f"/><stop offset="1" stop-color="#f78e1d"/></linearGradient></defs><path fill="url(#a)" d="M48.703 117.818q-12.42-.001-24.838-.005a9.716 9.716 0 0 1-9.73-7.302 11.091 11.091 0 0 1-.221-3.252c.01-11.963-.079-23.928.06-35.89a145.893 145.893 0 0 1 2.504-25.755 58.957 58.957 0 0 1 4.85-15.39 23.29 23.29 0 0 1 5.604-7.607 11.214 11.214 0 0 1 7.685-2.918c.858.016 1.093.298 1.092 1.163q-.035 21.337.003 42.674a6.491 6.491 0 0 0 4.091 6.292 5.692 5.692 0 0 0 2.455.423q15.483-.008 30.966 0a9.771 9.771 0 0 1 10.168 10.118q.048 13.678.006 27.355a9.764 9.764 0 0 1-10.185 10.093q-12.255.006-24.51 0z"/><path fill="url(#b)" d="M92.077 88.725c0-6.892-.075-13.786.027-20.677a7.016 7.016 0 0 0-7.21-7.195c-10.208.142-20.421-.034-30.631.08a9.76 9.76 0 0 1-9.87-9.706q-.079-14.057-.005-28.116a9.738 9.738 0 0 1 7.303-9.406 7.08 7.08 0 0 1 1.955-.164q25.437-.003 50.873-.003a9.441 9.441 0 0 1 9.297 9.156c.035 12.472.143 24.946-.071 37.415a138.273 138.273 0 0 1-3.002 27.884 51.255 51.255 0 0 1-5.505 15.145c-2.06 3.486-4.596 6.479-8.587 7.889a10.333 10.333 0 0 1-3.78.407.72.72 0 0 1-.786-.829c.002-.328-.007-.656-.007-.984l-.001-20.896z"/><path fill="#474747" d="M475.058 58.094c.1-1.802.234-3.392.257-4.983.013-.91.277-1.332 1.261-1.296a82.6 82.6 0 0 0 4.923.004c.817-.019 1.198.218 1.162 1.112-.527 12.976-.102 25.96-.307 38.938a41.81 41.81 0 0 1-.97 8.343c-1.71 7.768-6.47 12.556-14.123 14.256a31.803 31.803 0 0 1-20.443-1.847c-.364-.165-.7-.389-1.06-.566a.908.908 0 0 1-.474-1.272c.515-1.518 1.05-3.033 1.496-4.572.269-.926.705-.93 1.434-.522a24.022 24.022 0 0 0 8.04 2.712c4.389.697 8.64.452 12.517-2.085a11.226 11.226 0 0 0 4.104-5.264c1.615-3.8 1.381-7.813 1.329-12.148a15.747 15.747 0 0 1-3.92 4.153 16.438 16.438 0 0 1-8.471 2.897 18.292 18.292 0 0 1-10.825-2.369 18.57 18.57 0 0 1-8.297-10.627c-2.266-7.199-2.055-14.39 1.44-21.157 3.537-6.85 9.115-10.79 17.12-10.872 4.751-.05 8.819 1.333 12.04 4.9.58.644 1.072 1.368 1.767 2.265zm-.842 15.675c0-1.473.03-2.532-.006-3.588a14.185 14.185 0 0 0-1.58-6.727 11.29 11.29 0 0 0-11.52-5.873c-5.383.771-8.5 4.176-10.224 9.038a21.803 21.803 0 0 0-.609 12.285c1.497 6.612 6.035 10.957 12.923 10.637a11.788 11.788 0 0 0 10.82-10.508 46.942 46.942 0 0 0 .196-5.264zm-234.914-14.81c1.182-1.269 2.006-2.559 3.14-3.594a16.105 16.105 0 0 1 9.379-4.302c4.186-.424 8.295-.173 12.044 2.143a19.273 19.273 0 0 1 8.418 10.93 30.963 30.963 0 0 1-.599 20.687 18.94 18.94 0 0 1-17.65 12.247 17.29 17.29 0 0 1-9.994-2.588 15.245 15.245 0 0 1-3.901-3.796c-.335.313-.203.66-.204.963-.007 7.292-.018 14.584.018 21.876.003.752-.16.871-.896.844-2.112-.078-4.23-.054-6.343-.015-.723.013-1.005-.25-.962-.947.022-.364.002-.73.001-1.094q-.021-26.69-.052-53.378c-.004-2.039-.109-4.08-.224-6.115-.044-.785.236-1.018.991-1.002q2.788.057 5.578-.004c.777-.017 1.02.276.985 1.028-.093 1.969.162 3.925.27 6.117zm26.15 14.931a21.44 21.44 0 0 0-2.825-10.599 11.913 11.913 0 0 0-12.395-5.488c-4.866.967-8.983 5.453-9.93 10.634a45.55 45.55 0 0 0-.314 9.593 12.775 12.775 0 0 0 3.479 8.725 12.163 12.163 0 0 0 19.114-1.954c2.067-3.392 2.65-7.12 2.87-10.91zm-89.471-39.353c1.386 0 2.773.018 4.158-.008a1.067 1.067 0 0 1 1.168.878q5.019 14.81 10.08 29.604 5.083 14.907 10.162 29.815c.466 1.368.46 1.356-.97 1.347-2.153-.012-4.306-.037-6.457.016a1.17 1.17 0 0 1-1.355-.92c-1.922-5.776-3.893-11.537-5.799-17.319a1.315 1.315 0 0 0-1.459-1.1q-9.574.039-19.149-.006a1.555 1.555 0 0 0-1.692 1.306c-1.822 5.58-3.7 11.14-5.502 16.725a1.622 1.622 0 0 1-1.884 1.315c-2.076-.073-4.158-.036-6.236.008-.742.016-.9-.193-.66-.89q2.833-8.276 5.632-16.564 2.724-8.02 5.45-16.038 3.72-10.922 7.449-21.842c.611-1.793 1.27-3.573 1.816-5.386a1.176 1.176 0 0 1 1.42-.965c1.273.063 2.552.017 3.828.017zm-.026 8.062l-.268.027c-.108.342-.234.68-.32 1.026-1.2 4.808-2.674 9.53-4.316 14.206-1.34 3.813-2.57 7.664-3.866 11.493-.25.74-.117 1.09.74 1.087q8.033-.022 16.066 0c.645.002.853-.161.604-.83-.458-1.227-.842-2.481-1.262-3.723-1.738-5.137-3.497-10.267-5.21-15.413-.859-2.583-1.524-5.226-2.168-7.873zm115.847 16.018a16.902 16.902 0 0 1 4.12-4.455c5.597-4.164 13.39-4.286 18.482-.764 4.03 2.787 5.884 6.824 6.684 11.48a23.596 23.596 0 0 1 .266 4.033c-.007 8.755-.015 17.51.02 26.264.003.836-.205 1.04-1.029 1.017-2.187-.063-4.377-.038-6.565-.003-.58.01-.694-.11-.691-.722.038-8.499.073-16.999.011-25.497a17.358 17.358 0 0 0-1.567-6.993c-2.106-4.719-7.63-5.98-11.587-4.641a11.79 11.79 0 0 0-7.76 8.25 13.024 13.024 0 0 0-.383 3.794q-.006 12.092-.003 24.185c0 1.599-.004 1.6-1.645 1.602-1.86.004-3.722-.032-5.58.027-.785.025-1.06-.24-1.001-.994.04-.508.012-1.02.012-1.531q0-30.533-.028-61.065c-.002-1.155.347-1.422 1.423-1.373 1.82.083 3.648.075 5.47.004 1.056-.042 1.374.324 1.369 1.372-.035 8.025-.018 16.05-.018 24.076v1.934zm211.874-.392a18.974 18.974 0 0 1 5.42-4.898c5.745-3.27 11.53-3.496 17.174.11 4.127 2.636 5.896 6.799 6.695 11.455a23.67 23.67 0 0 1 .262 4.034c-.006 8.755-.016 17.51.022 26.264.004.86-.246 1.022-1.045 1q-3.226-.087-6.455.004c-.723.02-.781-.184-.779-.85.036-8.5.068-17-.002-25.498a17.094 17.094 0 0 0-1.567-6.883c-2.084-4.652-7.515-5.962-11.491-4.656a11.764 11.764 0 0 0-7.854 8.293 13.094 13.094 0 0 0-.38 3.794q-.004 12.148-.003 24.295c0 1.469-.007 1.473-1.44 1.477-1.933.007-3.867-.032-5.799.029-.803.025-1.04-.275-.986-1.01.038-.508.012-1.02.012-1.531q0-30.532-.023-61.065c-.001-1.037.24-1.41 1.323-1.36 1.856.088 3.721.078 5.579.005 1.074-.042 1.359.357 1.354 1.388-.033 7.988-.017 15.977-.017 23.966v1.637zM396.895 33.676a29.157 29.157 0 0 1 12.248 2.2c.941.377 1.226.821.847 1.807-.601 1.564-1.104 3.166-1.607 4.766-.217.693-.46.972-1.233.583a23.348 23.348 0 0 0-10.52-2.574c-3.34-.01-6.514.574-9.076 3.03a8.69 8.69 0 0 0 .605 12.94 30.528 30.528 0 0 0 8.259 4.404 37.363 37.363 0 0 1 10.703 5.821 14.31 14.31 0 0 1 5.349 9.471c.5 4.202.185 8.294-2.1 12.043a17.24 17.24 0 0 1-10.979 7.915 33.173 33.173 0 0 1-22.514-2.075c-1.709-.794-1.687-.813-1.123-2.64.441-1.427.865-2.861 1.253-4.304.222-.824.534-.928 1.3-.495a26.567 26.567 0 0 0 14.131 3.563 13.04 13.04 0 0 0 8.923-3.274 9.985 9.985 0 0 0 .363-13.742c-2.38-2.509-5.433-3.893-8.58-5.082a44.456 44.456 0 0 1-9.946-4.969 15.712 15.712 0 0 1 .816-26.208 22.073 22.073 0 0 1 12.881-3.18zM357.889 91.08c-.473.01-.576.38-.787.604a16.502 16.502 0 0 1-12.033 5.38 15.29 15.29 0 0 1-8.144-1.658 11.782 11.782 0 0 1-6.27-10.01c-.517-7.643 3.719-12.528 10.348-15.106a37.527 37.527 0 0 1 11.09-2.27c1.345-.095 2.687-.217 4.037-.192.672.012.998-.266 1.01-.97.1-5.351-2.894-9.429-8.696-9.688a21.384 21.384 0 0 0-11.846 2.814c-.597.343-.979.362-1.223-.4a116.874 116.874 0 0 0-1.4-4.029c-.22-.61.037-.937.55-1.231a25.466 25.466 0 0 1 8.626-3.028 30.489 30.489 0 0 1 9.48-.103c6.929 1.048 10.849 5.402 12.229 11.83a26.049 26.049 0 0 1 .495 5.652c-.032 5.179-.079 10.36.011 15.537a64.753 64.753 0 0 0 .751 11.216c.122.633-.11.764-.675.758-2.005-.023-4.012-.046-6.017-.005-.792.016-.953-.315-1.008-1.031a23.864 23.864 0 0 0-.528-4.07zm-.53-12.762c0-1.304-.034-2.472.011-3.636.032-.818-.298-1.1-1.093-1.066a36.535 36.535 0 0 0-10.35 1.438c-3.789 1.294-6.6 3.474-6.971 7.885a7.071 7.071 0 0 0 5.58 7.755 11.016 11.016 0 0 0 12.285-6.893 16.892 16.892 0 0 0 .538-5.483zm228.082 18.62a23.44 23.44 0 0 1-11.864-2.383 1.145 1.145 0 0 1-.687-1.723c.5-1.251.897-2.544 1.325-3.823.493-1.475.496-1.495 1.915-.74a19.835 19.835 0 0 0 9.953 2.517 9.024 9.024 0 0 0 5.35-1.646c3.653-2.754 3.06-7.975-1.105-10.476-2.43-1.458-5.162-2.18-7.695-3.379-3.235-1.53-6.185-3.494-7.686-6.834a12.014 12.014 0 0 1 5.933-15.72c6.275-2.923 12.539-2.292 18.72.435a.938.938 0 0 1 .589 1.385c-.509 1.326-.95 2.678-1.426 4.017-.406 1.142-.586 1.205-1.649.644a16.265 16.265 0 0 0-8.62-1.995 6.89 6.89 0 0 0-5.642 2.854 5.227 5.227 0 0 0 .713 6.679c1.876 1.713 4.218 2.563 6.523 3.464 3.105 1.214 6.126 2.554 8.529 4.969a11.659 11.659 0 0 1 3.23 9.94c-.59 5.684-3.894 9.167-9.2 10.896a19.853 19.853 0 0 1-3.603.886 28.72 28.72 0 0 1-3.603.033zm-37.897-24.532c0-4.338-.024-8.677.018-13.015.01-.994-.295-1.37-1.312-1.324-1.565.073-3.135.005-4.702.045-.667.018-1.009-.106-.978-.89a69.8 69.8 0 0 0 .012-4.483c-.019-.813.326-1.105 1.108-1.09 1.495.028 2.992-.043 4.484.025 1.025.047 1.433-.266 1.392-1.35-.076-1.965-.01-3.936-.03-5.904-.006-.532.093-.891.676-1.066 2.163-.652 4.317-1.337 6.47-2.02.668-.212.933-.032.922.704-.044 2.77-.013 5.541-.078 8.31-.024 1.017.366 1.336 1.346 1.323 2.989-.04 5.98.01 8.968-.028.94-.012 1.317.305 1.275 1.266-.058 1.347-.06 2.7 0 4.046.041.931-.326 1.165-1.214 1.15-2.989-.05-5.98.011-8.968-.037-1.012-.017-1.415.263-1.41 1.351.04 7.51.017 15.02.025 22.53a17.73 17.73 0 0 0 .391 3.472c.624 3.106 2.452 4.638 5.627 4.724a14.12 14.12 0 0 0 3.795-.382c.603-.15.885-.01.916.652.077 1.637.186 3.272.3 4.906a.697.697 0 0 1-.552.818c-4.988 1.284-9.925 1.92-14.411-1.495-2.349-1.789-3.31-4.362-3.807-7.16a36.19 36.19 0 0 1-.26-6.218c-.011-2.953-.002-5.907-.003-8.86zm-337.501-8.699c0-10.39.012-20.78-.021-31.17-.004-.982.22-1.35 1.262-1.306 1.965.08 3.936.048 5.904.014.809-.015 1.086.301 1.079 1.094-.027 3.062-.01 6.124-.01 9.186V94.35c0 1.817 0 1.817-1.864 1.819-1.714 0-3.43-.062-5.14.028-.98.051-1.242-.25-1.235-1.21.04-5.98.024-11.958.025-17.937V63.707zM431.23 73.953c0 6.968-.022 13.935.023 20.902.007 1.05-.265 1.388-1.332 1.338-1.893-.087-3.794-.057-5.69-.012-.87.02-1.235-.238-1.233-1.17q.032-21.012.004-42.024c0-.823.23-1.188 1.113-1.17 2.115.04 4.232.024 6.347-.01.619-.01.802.165.8.807-.026 7.113-.016 14.226-.016 21.34zm-9.105-34.423c.048-3.362 1.934-5.04 5.604-4.99 2.788.039 4.607 2.142 4.568 5.283-.037 3.011-2.13 4.915-5.373 4.885-2.934-.027-4.843-2.087-4.799-5.177z"/></svg>