<svg xmlns="http://www.w3.org/2000/svg" role="img" viewBox="-18.70 -17.70 1804.40 669.40"><defs><style>.cls-6{fill:#979797}</style></defs><path fill="#9dcb3b" d="M226.112 491.764c-.069 30.8-.097 61.6-.26 92.399a53.488 53.488 0 0 1-1.255 10.874c-3.047 14.171-12.8 21.793-29.523 22.388-13.972.497-27.97.301-41.957.317q-47.209.052-94.418 0c-6.986-.004-13.927-.152-20.79-1.98-11.684-3.114-17.898-10.897-19.865-22.425a81.944 81.944 0 0 1-1.173-13.907q.081-67.18.004-134.359a81.405 81.405 0 0 1 1.18-13.906c2.387-13.878 11.172-21.82 25.808-23.57a137.87 137.87 0 0 1 16.433-.944q42.21.008 84.42-.127c.23.202.46.404.694.604 1.318 2.306.99 4.853.996 7.326.035 16.817-.023 33.634.03 50.451.052 16.567 8.281 24.92 24.876 25.075 15.32.143 30.643.017 45.964.047 2.487.004 5.004-.236 7.44.558a2.92 2.92 0 0 1 1.396 1.18z"/><path fill="#fbc244" d="M144.716 406.524c.044-19.114 0-38.229.158-57.342.148-17.96 8.825-26.485 26.827-26.578q28.172-.145 56.346-.198l.022.17c1.556 2.018 1.3 4.405 1.306 6.711.035 11.637.063 23.275-.006 34.911a85.282 85.282 0 0 0 1.58 15.855c2.862 15.645 13.007 23.603 30.239 25.054 14.452 1.218 28.898.77 43.35.974 2.452.035 5.03-.432 7.206 1.268l.093-.102c-.051 16.615-.045 33.231-.19 49.846a131.75 131.75 0 0 1-.849 14.41c-1.49 12.511-10.386 19.872-24.356 20.013-20.109.203-40.22.176-60.33.248l-.38-.272c-1.741-2.148-1.35-4.724-1.357-7.18-.043-14.128-.018-28.256-.022-42.384a48.916 48.916 0 0 0-.414-7.459c-2.508-16.297-10.07-23.448-26.453-25.425-14.925-1.8-29.89-.513-44.83-.958-2.62-.078-5.362.466-7.72-1.261z"/><path fill="#dbb150" d="M311.744 407.349c-19.04.11-38.124 1.366-57.053-1.772-15.495-2.57-24.636-13.61-25.937-29.3-1.485-17.915-.587-35.802-.686-53.702 18.616-.012 37.232-.15 55.846-.003 19.049.15 27.288 8.184 27.652 27.447.361 19.104.143 38.22.178 57.33z"/><path fill="#e9b91f" d="M144.936 406.825c18.277-.165 36.655-1.699 54.785.952 18.44 2.697 24.806 11.353 25.9 29.293 1.104 18.076.16 36.277.112 54.423-18.97.018-37.94.183-56.906.01-14.57-.134-23.906-9.761-23.93-24.29-.033-20.13.022-40.259.04-60.388z"/><path fill="#0daad6" d="M562.578 234.771c13.452 10.91 27.054 21.636 40.614 32.413 7.145 5.68 7.009 5.538 12.961-1.106 2.318-2.588 1.787-3.697-.646-5.692-13.778-11.305-27.915-22.253-40.875-34.443-7.482-7.037-14.584-7.847-24.083-5.99-27.58 5.394-55.37 9.705-83.022 14.746-4.96.904-5.768-.597-5.56-5.031.295-6.313.085-12.66-.139-18.985-.744-21.056-9.442-30.975-30.165-34.331-10.587-1.715-21.285-.68-31.932-.883-2.454-.047-3.925.076-3.327-3.443 5.457-32.136 10.627-64.322 16.055-96.463.688-4.072.249-7.124-2.628-10.415-12.384-14.172-24.463-28.61-36.632-42.97-5.567-6.568-5.413-6.423-11.981-1.143-2.906 2.337-2.899 3.709-.535 6.56 12.115 14.618 23.932 29.481 35.939 44.188 1.688 2.069 2.545 3.99 2.05 6.767-5.385 30.289-10.743 60.583-15.877 90.915-.763 4.507-2.13 6.159-7.134 6.12-34.99-.269-69.984-.106-104.977-.121a73.458 73.458 0 0 0-19.29 2.23c-11.867 3.201-19.249 10.662-21.634 22.896a80.703 80.703 0 0 0-1.717 15.358q-.056 53.229.004 106.458a2.93 2.93 0 0 0 1.4 1.152c2.265.742 4.608.552 6.925.556q23.18.034 46.358 0a47.575 47.575 0 0 1 10.875 1.144c8.975 2.076 14.024 7.775 15.526 16.729a80.939 80.939 0 0 1 1.242 13.876c-.08 14.453-.047 28.906-.014 43.36.006 2.471-.3 5.002.863 7.346.207.224.411.45.615.676 17.163-.003 34.327.11 51.489-.04 21.82-.19 43.657.787 65.461-.649 17.783-1.17 28.198-9.22 31.629-24.473a53.303 53.303 0 0 0 1.392-11.37q.243-57.975.184-115.952c-.004-3.466.598-5.286 4.494-5.978 29.475-5.23 58.913-10.671 88.35-16.114a8.736 8.736 0 0 1 7.742 2.102zm1188.611 195.582c.292-19.791-9.384-32.65-27.287-39.923-15.07-6.121-30.944-7.741-46.989-7.798-40.656-.144-81.313-.032-121.97-.076-9.179-.01-18.325-.522-27.003-3.962-5.677-2.25-8.795-6.144-8.443-12.637.306-5.648.06-11.325.063-16.99.007-9.458 2.35-12.732 11.424-15.475 8.048-2.433 16.354-2.89 24.705-2.89q87.729.01 175.458-.014c7.569-.004 6.405 1.01 6.48-6.708.065-6.664-.326-13.351.13-19.984.316-4.608-1.297-5.397-5.546-5.386q-84.73.216-169.46.082c-9.498-.005-18.994-.035-28.447 1.036-12.631 1.432-25.024 3.822-36.237 10.216-10.89 6.21-17.821 15.268-19.594 27.94-1.276 9.128-.537 18.295-.586 27.44-.12 21.993 8.866 34.784 29.479 42.387 14.742 5.437 30.127 6.879 45.665 6.92 40.324.106 80.647.044 120.971.056 8.52.002 16.999.534 25.15 3.233 8.12 2.688 10.577 6.26 10.586 14.741q.017 15.494.002 30.987c-.003 9.109-2.426 12.408-11.287 15.08-8.053 2.43-16.358 2.916-24.705 2.918q-74.732.014-149.464.012c-11.498 0-22.997.135-34.49-.081-3.527-.066-4.545.99-4.428 4.468.252 7.488.332 15.003-.023 22.483-.198 4.196 1.062 5.237 5.224 5.213 32.325-.18 64.65-.1 96.976-.1v-.064c31.16 0 62.32.237 93.476-.099 15.863-.17 31.588-2.156 46.21-9.008 15.636-7.328 24.045-19.424 23.924-37.033-.084-12.328-.146-24.659.036-36.984zm-595.254 79.118q-.14-103.471.011-206.943c.006-3.54-1.325-4.024-4.336-3.979-9.997.151-20.005.297-29.992-.054-4.336-.152-5.116 1.284-5.105 5.308q.208 76.728.05 153.458c-.001 1.692.764 3.611-.947 5.383-1.637-1.201-3.243-2.353-4.82-3.542q-95.357-71.889-190.716-143.775c-7.436-5.604-14.26-13.23-22.66-16.009-8.42-2.786-18.46-.676-27.79-.712a3.228 3.228 0 0 1-.5-.003c-3.249-.528-4.219.776-4.214 4.087q.136 103.472.007 206.944c-.004 3.021.742 4.042 3.884 3.978 9.662-.195 19.331-.02 28.996-.087 7.701-.053 6.724 1.088 6.729-6.487q.048-75.23.016-150.46v-6.394c2.574 1.876 4.182 3.022 5.763 4.205q95.422 71.383 190.845 142.764c7.33 5.482 14.043 13.008 22.306 15.682 8.456 2.737 18.467.67 27.798.706a3.245 3.245 0 0 1 .5.004c3.24.525 4.18-.78 4.175-4.074zm-359.327.06c1.328 2.025 2.209 4.154 5.512 4.101 13.654-.217 27.313-.091 41.895-.091-.902-1.494-1.358-2.329-1.888-3.114q-70.52-104.493-140.988-209.02c-1.545-2.295-3.202-2.89-5.737-2.846-7.328.128-14.665.223-21.986-.034-3.396-.12-5.365 1.03-7.27 3.844Q595.858 406.123 525.41 509.766c-.703 1.037-1.931 1.887-1.63 3.776 12.774 0 25.56-.167 38.338.102 3.81.08 5.896-1.166 7.979-4.305Q625.3 426.162 680.77 343.162c1.034-1.55 1.6-3.612 3.767-4.4 1.157 1.735 2.272 3.385 3.364 5.05l108.707 165.719zm387.161-183.739c-.205 4.044 1.146 4.915 4.99 4.9 34.812-.146 69.627.034 104.44-.219 5.016-.036 5.868 1.467 5.854 6.092-.162 57.29-.059 114.582-.203 171.872-.01 4.169 1.081 5.324 5.22 5.203 10.32-.3 20.66-.336 30.977.01 4.542.154 5.751-1.087 5.737-5.693-.169-56.79-.11-113.582-.11-170.374 0-6.976.002-6.977 7.215-6.977 33.315 0 66.63-.064 99.944.087 3.872.018 5.163-.908 4.97-4.918a222.92 222.92 0 0 1-.003-21.475c.213-4.388-.836-5.839-5.595-5.816-42.975.209-85.951.122-128.927.122-42.81 0-85.62.115-128.427-.146-5.297-.033-6.369 1.543-6.088 6.359a192.98 192.98 0 0 1 .006 20.973z"/><path d="M1139.41 553.714c-2.748-1.341-9.746.292-11.667 2.869q-15.97 21.421-31.918 42.86c-4.15 5.575-4.148 5.585-8.424-.147q-15.526-20.813-31.045-41.632c-2.696-3.616-9.332-5.951-13.054-3.9-3.225 1.778-1.121 5.385-1.406 8.138a97.472 97.472 0 0 0-.08 9.985c0 12.492-.062 24.985.022 37.477.054 8.101-1.33 6.86 7.095 7.223 3.66.157 4.92-.8 4.831-4.663-.258-11.32-.119-22.65-.047-33.976.007-1.135-.775-2.62.95-3.59q14.382 19.279 28.698 38.461c4.1 5.486 11.473 5.43 15.627-.145 5.868-7.875 11.674-15.796 17.53-23.68 3.717-5.003 7.478-9.973 11.218-14.959l.94.351c0 12.575.118 25.152-.077 37.723-.055 3.506.982 4.91 4.49 4.432a17.992 17.992 0 0 1 3.993-.01c2.516.225 3.553-.678 3.541-3.358-.083-18.82-.038-37.642-.062-56.464-.002-1.094.258-2.305-1.155-2.995zm109.855-.051c-3.052-1.279-9.593.333-11.613 3.04-11.148 14.946-22.345 29.855-33.375 44.887-2.063 2.811-3.067 2.937-5.21.012-10.328-14.1-21.224-27.797-31.168-42.156-3.65-5.271-7.672-6.483-13.329-5.972-2.23.201-2.788 1.048-2.783 3.068.04 18.988.017 37.976.042 56.964.002 1.081-.355 2.714 1.26 2.807 3.142.182 6.545.728 9.388-.225 2.519-.844 1.098-4.144 1.123-6.306.132-11.733.063-23.467.063-36.398 1.884 2.363 3.027 3.72 4.087 5.137q12.557 16.8 25.093 33.614c4.831 6.452 11.759 6.45 16.53.026q14.12-19.017 28.22-38.052l1.076.333c0 11.605-.07 23.21.025 34.814.066 8.143-1.5 7.142 7.529 7.255.5.007 1.003-.041 1.499.001 2.198.187 2.878-.91 2.873-2.983-.04-18.988-.018-37.976-.037-56.964-.002-1.107.19-2.28-1.293-2.902zm487.122 1.507a44.925 44.925 0 0 0-10.29-1.557c-18.474-.151-36.95-.01-55.425-.134-3.027-.02-4 .8-3.976 3.916.137 18.304.172 36.611-.02 54.915-.038 3.75 1.408 4.332 4.654 4.266 8.984-.184 17.974-.064 26.963-.064 4.327 0 8.655.032 12.982-.006 8.952-.08 17.963.664 26.74-1.929 8.143-2.406 11.832-7.12 11.912-15.623.082-8.82.054-17.64.009-26.46-.054-10.327-3.514-14.838-13.549-17.324zm1.404 41.578c-.02 7.343-2.398 10.083-10.056 10.585-5.973.392-11.986.15-17.982.186-1.666.01-3.331.001-4.997 0-7.33 0-14.663-.133-21.988.064-3.11.083-3.974-.991-3.94-4.009.143-12.323.17-24.65-.012-36.973-.05-3.393 1.152-4.168 4.329-4.134 13.991.152 27.986 0 41.979.088 9.98.064 12.667 2.854 12.672 12.707.004 7.162.015 14.324-.005 21.486zm-981.947-42.434c-9.116-1.44-18.257-.325-27.193-.854-9.797.458-19.443-.597-29.04.975-8.9 1.458-12.906 5.754-12.951 14.62q-.08 15.724-.006 31.448c.035 9.21 3.457 13.358 12.48 14.973a56.084 56.084 0 0 0 9.373.99c13.313.108 26.627.07 39.94.033a38.322 38.322 0 0 0 12.697-2.084c6.28-2.216 8.657-5.653 8.7-12.393.068-10.649.05-21.298.027-31.947-.022-10.125-3.809-14.147-14.027-15.76zm1.955 15.644c-.332 9.808-.09 19.635-.1 29.455-.006 6.285-1.46 7.913-7.873 8.06-7.154.165-14.315.038-21.473.042-6.824.005-13.65.049-20.474-.007-7.68-.063-9.038-1.439-9.04-8.894q-.002-13.98.002-27.96c.004-6.28 1.46-7.972 7.829-8.071 10.318-.161 20.64-.06 30.96-.046 4.494.006 8.996-.1 13.477.151 4.4.246 6.864 2.183 6.692 7.27zM665.01 587.82c12.366-4.16 13.192-5.426 13.028-18.515-.11-8.798-3.18-12.686-11.779-14.58a40.472 40.472 0 0 0-8.357-1.131c-16.81-.104-33.623.005-50.434-.107-2.852-.02-3.712.905-3.668 3.708.145 9.151.054 18.306.054 27.459s.153 18.31-.079 27.457c-.088 3.487.921 4.96 4.448 4.42a8.294 8.294 0 0 1 2.49 0c4.017.624 5.614-.745 5.354-5.075-.378-6.302.033-12.646-.153-18.965-.088-2.983.767-4.104 3.91-4.035q12.977.281 25.963-.01c2.802-.065 4.142 1.03 5.336 3.366 2.95 5.769 6.75 11.173 9.098 17.16 2.597 6.62 6.829 8.345 13.395 7.67 3.579-.368 3.33-1.32 1.932-3.794-3.924-6.948-7.702-13.979-11.572-20.958-.962-1.735-1.835-3.106 1.033-4.07zm-7.274-8.335c-12.782.132-25.567-.012-38.35.084-2.584.019-3.347-.856-3.47-3.435-.65-13.605-.723-13.602 12.69-13.602l10.46.002c6.142.002 12.287-.089 18.428.026 6.778.126 8.336 1.726 8.348 8.1.013 7.043-1.388 8.755-8.106 8.825zm265.142 8.357c12.746-4.553 13.359-5.516 13.135-18.925-.14-8.42-2.597-11.702-10.74-13.8a39.153 39.153 0 0 0-9.282-1.506c-16.81-.145-33.623.013-50.433-.14-3.275-.03-3.82 1.273-3.777 4.112.137 9.151.05 18.306.05 27.459 0 8.487.266 16.986-.106 25.457-.203 4.628.815 6.988 5.863 6.03a6.007 6.007 0 0 1 1.992-.003c3.55.545 4.572-1.004 4.44-4.456-.249-6.481.031-12.98-.119-19.468-.065-2.827.495-4.228 3.79-4.151 8.817.204 17.643.146 26.463.018a4.507 4.507 0 0 1 4.648 2.81c3.059 5.9 6.89 11.469 9.343 17.597 2.61 6.52 6.73 8.517 13.337 7.752 3.166-.367 3.76-.829 2.113-3.691-3.98-6.916-7.73-13.963-11.579-20.954-.896-1.629-2.073-3.093.862-4.14zm-6.691-8.382c-12.947.184-25.9.008-38.848.11-2.615.02-3.326-.908-3.444-3.46-.627-13.581-.698-13.578 12.714-13.578q5.23 0 10.46.004c6.308.004 12.62-.125 18.925.04 6.154.163 7.796 1.903 7.826 7.61.04 7.398-1.207 9.182-7.633 9.274zm-71.2 3c-3.496-.114-4.213 1.293-4.074 4.374.202 4.486-.284 9.02.14 13.474.47 4.941-2.145 6.944-6.264 7.015q-18.97.322-37.95-.01c-4.256-.079-6.293-2.508-6.116-7.243.349-9.31.102-18.642.103-27.965 0-8.417 1.14-9.556 9.876-9.57 15.819-.027 31.64-.12 47.455.074 3.663.044 4.04-1.613 3.966-4.508-.068-2.694.06-4.783-3.83-4.646-8.149.287-16.315.087-24.474.086-5.994 0-11.991.098-17.983-.031a79.146 79.146 0 0 0-14.878 1.04c-8.344 1.402-12.252 5.882-12.301 14.18-.062 10.323-.041 20.645-.017 30.967.024 10.496 3.71 14.742 14.168 16.028 13.923 1.71 27.914.577 41.871.65a33.71 33.71 0 0 0 10.68-2.197c5.028-1.703 7.908-5.257 7.732-10.912-.134-4.324.054-8.658-.033-12.984-.176-8.68 1.738-7.5-8.071-7.822zm-248.943-13.971c-.043-7.68-2.997-11.647-10.492-13.506a42.72 42.72 0 0 0-9.816-1.378c-16.3-.138-32.602.036-48.901-.143-3.5-.038-4.087 1.318-4.032 4.368.161 8.978.057 17.96.057 26.94 0 8.648.329 17.313-.126 25.937-.263 4.991 1.397 6.629 6.085 5.82a6.552 6.552 0 0 1 1.991-.002c3.243.455 4.385-.85 4.232-4.152-.245-5.31.092-10.647-.124-15.96-.125-3.087.955-3.99 3.985-3.953 11.975.145 23.952.083 35.928.046a37.095 37.095 0 0 0 13.185-2.226c5.092-1.943 8.217-5.475 8.046-11.315-.101-3.489.002-6.984-.018-10.476zm-25.206 15.038c-10.656 0-21.314-.102-31.968.062-3.094.048-4.087-.965-3.94-4.001.216-4.484.203-8.993.004-13.48-.13-2.938 1.065-3.69 3.8-3.624 6.323.154 12.652.05 18.98.05 5.994.001 11.99-.095 17.981.027 6.82.138 8.185 1.586 8.2 8.153.029 12.813.029 12.813-13.057 12.813zm893.447-20.963c7.83-.137 15.663-.031 23.495-.034s15.668-.145 23.495.064c3.309.088 4.701-.61 4.673-4.316-.027-3.591-.777-4.893-4.681-4.834-15.494.234-30.994.073-46.49.112a37.53 37.53 0 0 0-11.742 1.911c-6.716 2.228-9.409 5.946-9.442 12.94-.05 10.662-.03 21.325-.012 31.988.015 8.712 3.199 12.914 11.584 14.867a43.088 43.088 0 0 0 9.36 1.196c15.663.119 31.329-.057 46.99.137 3.634.045 4.417-1.211 4.412-4.57-.004-3.342-.739-4.783-4.403-4.576-5.316.3-10.661.077-15.993.077-10.332-.001-20.664.078-30.995-.03-7.189-.076-8.802-1.807-8.81-8.845q-.014-13.746.001-27.49c.01-6.756 1.608-8.475 8.558-8.597z" class="cls-6"/><path fill="#989898" d="M981.85 556.517q-19.309 28.191-38.547 56.43c-.671.987-2.044 1.81-1.368 3.566a33.17 33.17 0 0 1 4.942.038c5.03.763 8.199-1.165 10.87-5.584 4.984-8.245 10.592-16.114 15.977-24.114 4.77-7.086 9.593-14.137 14.688-21.64 1.698 2.486 3.028 4.375 4.3 6.303q13.728 20.824 27.467 41.641c.945 1.425 1.514 3.42 3.904 3.363 3.432-.082 6.868-.02 11.469-.02-14.296-21.041-27.794-41.004-41.421-60.878-2.486-3.624-9.63-2.977-12.282.895zm314.972.001q-19.308 28.191-38.546 56.43c-.671.987-2.045 1.809-1.436 3.385 11.687.611 11.683.609 17.978-8.76 9.356-13.927 18.719-27.85 28.494-42.391 1.567 2.254 2.73 3.855 3.82 5.506q13.187 19.985 26.356 39.983c4.136 6.262 8.557 7.58 16.324 4.778-13.582-19.99-27.08-39.953-40.708-59.827-2.481-3.618-9.634-2.969-12.282.896zm323.447-.66c-2.68-3.921-9.713-3.353-12.575.828q-15.078 22.022-30.118 44.07c-3.433 5.026-6.857 10.06-10.346 15.179 8.345 2.017 13.766.075 18.338-7.561 8.776-14.656 18.863-28.527 28.41-42.729 2.11 1.228 2.854 3.175 3.937 4.805 8.278 12.467 17.074 24.643 24.508 37.598 4.27 7.441 9.471 9.792 17.278 8.346.163-.03.323-.08.923-.233a8.23 8.23 0 0 0-.577-1.694q-19.857-29.327-39.778-58.61z"/><path d="M1406.955 553.448c-11.818.264-23.647.093-35.471.093-11.325 0-22.65.056-33.974-.035-3.35-.027-5.895-.35-5.873 4.649.021 4.807 2.477 4.428 5.614 4.398 7.993-.078 15.996.192 23.978-.12 3.888-.152 4.692 1.194 4.64 4.813-.2 13.984-.15 27.973-.055 41.96.057 8.338-1.483 6.999 7.43 7.384 3.752.162 4.801-.98 4.748-4.73-.211-14.984.02-29.973-.164-44.957-.044-3.55 1.076-4.545 4.529-4.449 8.154.226 16.322-.064 24.478.139 3.287.081 4.373-.965 4.228-4.251-.13-2.933-.028-4.986-4.108-4.894zm24.945 32.112v-23.916c0-8.534 0-8.534-8.659-8.102a3.5 3.5 0 0 1-.498.002c-2.052-.192-2.99.573-2.984 2.797q.082 28.65 0 57.3c-.006 2.154.78 3.036 2.915 2.883a18.654 18.654 0 0 1 3.98.018c4.016.583 5.522-.765 5.35-5.077-.347-8.622-.103-17.269-.103-25.905z" class="cls-6"/></svg>