<svg xmlns="http://www.w3.org/2000/svg" role="img" viewBox="-0.65 -10.15 839.80 344.30"><defs><style>.cls-1{fill:#333}</style></defs><path d="M146.677 73.324h-24.311L87.265 164.42h21.989l5.737-15.432h33.166l-6.004-17.074h-21.84l14.207-39.198 25.27 71.704h21.988zm369.302 91.097V73.324h19.528v74.024h38.517v17.072h-58.045zm112.564 0V73.324h19.53v74.024h38.517v17.072h-58.047zM407.812 89.649a29.292 29.292 0 1 1-29.292 29.292 29.326 29.326 0 0 1 29.292-29.292m0-17.825a47.118 47.118 0 1 0 47.12 47.117 47.119 47.119 0 0 0-47.12-47.117zm368.563 17.825a29.292 29.292 0 1 1-29.291 29.292 29.326 29.326 0 0 1 29.29-29.292m0-17.825a47.118 47.118 0 1 0 47.122 47.117 47.12 47.12 0 0 0-47.121-47.117zm-495.297 1.5h-42.478v91.099h19.396V133.07h23.082c16.189 0 29.314-13.685 29.314-29.874 0-16.191-13.125-29.872-29.314-29.872zm0 41.918h-23.082v-24.09h23.082c6.336 0 11.486 5.712 11.486 12.046 0 6.335-5.15 12.044-11.486 12.044z" class="cls-1"/><path d="M221.852 192.068a5.002 5.002 0 0 0-4.088 2.118s-4.375 4.99-6.732 7.354a108.718 108.718 0 1 1-8.492-161.274 12.249 12.249 0 1 0 6.856-7.341 118.668 118.668 0 1 0 16.007 167.705 5.017 5.017 0 0 0-3.551-8.562zm114.861 50.288q9.922-10.141 25.246-10.14 20.505 0 29.987 13.594a29.63 29.63 0 0 1 5.622 15.322h-17.161a23.39 23.39 0 0 0-4.204-8.915q-4.585-5.348-13.59-5.348a16.747 16.747 0 0 0-14.466 7.55q-5.294 7.55-5.294 21.368 0 13.818 5.587 20.698a17.507 17.507 0 0 0 14.197 6.882q8.829 0 13.463-5.906 2.561-3.176 4.25-9.529h17.05q-2.205 13.43-11.272 21.842-9.068 8.414-23.233 8.413-17.529 0-27.561-11.366-10.032-11.422-10.032-31.314 0-21.507 11.41-33.151zm83.12-8.581h17.16v67.362h41.01v14.766h-58.17zm93.918 82.128h-17.05v-82.128h17.05z" class="cls-1"/></svg>