<svg xmlns="http://www.w3.org/2000/svg" role="img" viewBox="3.13 17.13 175.24 71.24"><title>Apollo Angular logo</title><g fill="none" fill-rule="evenodd"><path fill="#FFF" d="M0 0h215v105H0z"/><g fill="#FF1035"><path d="M42.04 80.31454c0 .2538-.02485.50156-.06325.7448-.00452.03088-.00829.061-.01356.09113-.39763 2.2841-2.38954 4.02675-4.78511 4.02675-2.1365 0-3.9507-1.38719-4.60211-3.30605L12.3458 70.19231c-2.00622-1.15825-3.24129-3.29928-3.24129-5.61426V44.90668c.74932.25379 1.54835.39763 2.38352.39763.74932 0 1.47229-.11372 2.15458-.32007v19.5938c0 .6921.37203 1.33674.97299 1.68316l18.8716 10.89565c.8924-1.04152 2.21407-1.70499 3.69087-1.70499 1.60633 0 3.02816.78547 3.91454 1.98966.01582.02184.03238.04292.0482.06476a5.05618 5.05618 0 0 1 .17698.27036c.02183.0354.04367.07004.06476.10618.0497.0851.09564.17246.14007.26057.0241.04745.0467.0949.06854.14309.0384.08209.0738.16492.10769.24927.0241.06025.04518.1205.06702.1815.02711.0768.05347.15438.07606.2327.0226.0753.03916.15062.058.22517.01731.0708.03539.14083.04894.21237.01883.09414.03088.18903.04443.28467.00678.05799.01808.11296.02335.1702.0143.15588.02334.31253.02334.47218zm24.87972-42.46579c0 1.45873-.64765 2.76609-1.66884 3.65774v23.07156c0 2.31498-1.2343 4.456-3.24128 5.61426L44.62912 80.22643c-.01958-1.64173-.5746-3.15317-1.49488-4.3777l16.6063-9.58753c.60022-.34642.97224-.99107.97224-1.68315V42.51789c-2.02806-.5844-3.51766-2.45431-3.51766-4.66914 0-1.07842.35771-2.0725.95416-2.87905.00828-.0128.01807-.0256.02786-.0384.11221-.14912.2327-.29296.36148-.42851l.01732-.01883c.2666-.27789.56482-.52189.89015-.7305.03389-.02183.06929-.04141.10393-.06325.12878-.07682.26057-.14987.39612-.21539.03991-.01882.07983-.03916.1205-.05723.16944-.07681.34416-.1476.52414-.20333.00076 0 .00076 0 .00076-.00076.46314-.14685.9549-.22743 1.46626-.22743 2.68174 0 4.86192 2.18094 4.86192 4.86268zM9.10452 42.0826c-1.47755-.83517-2.47916-2.41891-2.47916-4.23385 0-2.68174 2.18094-4.86268 4.86268-4.86268.6951 0 1.3548.14987 1.9535.41345l20.4945-11.8325c1.00236-.57912 2.12295-.8683 3.24129-.8683 1.11984 0 2.23967.28918 3.24203.8683l17.4829 10.09437c-1.28627.86756-2.2826 2.12822-2.82934 3.60503l-16.9226-9.76904c-.29522-.17095-.63185-.26057-.973-.26057-.34039 0-.67627.08962-.97223.26057L16.2724 37.00605c.0482.27412.07757.55427.07757.8427 0 2.09207-1.3307 3.87463-3.18782 4.55919-.0143.00527-.02937.0113-.04292.01581-.14836.05196-.29672.0979-.4496.1363-.03087.00754-.061.01658-.09187.0226-.14008.03238-.28316.05799-.427.07832-.03916.00527-.07757.0128-.11748.01732-.17924.02034-.36073.03314-.54524.03314-.19806 0-.3931-.01582-.5859-.03916-.0512-.00603-.10167-.01506-.15363-.02335-.1476-.02259-.2922-.0512-.43604-.08735-.04367-.0113-.0881-.0211-.13254-.0339-.3788-.10693-.73953-.25529-1.0754-.44507z"/><path d="M36.83867 35.54902l-16.48573 5.90246 2.50249 21.69653 13.98324 7.77829L50.82275 63.148l2.50249-21.69653-16.48657-5.90246zM25.19291 61.58719L23.0646 43.13564 36.83867 38.204l13.77408 4.93164-2.12748 18.45155-11.6466 6.4783-11.64576-6.4783zm2.17332.17667h3.54581l1.90749-4.76164h8.05328l1.9075 4.76164h3.5383l-9.47994-21.28404-9.47244 21.28404zm9.47244-14.36658l2.77415 6.66996h-5.5483l2.77415-6.66996z"/></g><path fill="#050713" fill-rule="nonzero" d="M79.372 54.74L74 68h3.706l.731-1.938h5.219L84.387 68h3.706l-5.355-13.26h-3.366zm3.128 8.245h-2.907l1.462-3.893 1.445 3.893zM93.67443 68v-7.395l5.916 7.395h2.873V54.74h-3.383v7.412l-5.916-7.412h-2.89V68h3.4zm18.02543-4.913h3.213v.374c-.629.918-1.649 1.513-2.839 1.513-2.006 0-3.604-1.598-3.604-3.604 0-2.006 1.598-3.604 3.604-3.604 1.156 0 2.176.527 2.839 1.36l2.771-1.87c-1.275-1.666-3.332-2.771-5.61-2.771-3.842 0-7.038 3.094-7.038 6.885s3.196 6.885 7.038 6.885c1.36 0 2.703-.51 3.349-1.496V68h2.669v-7.735h-6.392v2.822zm17.88942-8.347v7.259c0 1.921-.935 2.975-2.72 2.975-1.768 0-2.686-1.054-2.686-2.975V54.74h-3.4v7.463c0 3.417 2.108 6.052 6.086 6.052 3.961 0 6.103-2.635 6.103-6.052V54.74h-3.383zM135.98671 68h9.741v-3.281h-6.358V54.74h-3.383V68zm16.49543-13.26l-5.372 13.26h3.706l.731-1.938h5.219l.731 1.938h3.706l-5.355-13.26h-3.366zm3.128 8.245h-2.907l1.462-3.893 1.445 3.893zm7.77443-8.245V68h3.383v-3.553h1.734l2.516 3.553h4.063l-2.873-4.012c1.785-.816 2.618-2.55 2.618-4.403 0-2.635-1.564-4.845-4.964-4.845h-6.477zm6.29 3.094c1.36 0 1.87.765 1.87 1.785 0 .918-.51 1.751-1.87 1.751h-2.907v-3.536h2.907z"/><path fill="#6D7A99" fill-rule="nonzero" d="M77.476 36.42L74 45h2.398l.473-1.254h3.377L80.721 45h2.398l-3.465-8.58h-2.178zm2.024 5.335h-1.881l.946-2.519.935 2.519zM86.27757 45h2.2v-1.947h1.584c2.277 0 3.366-1.529 3.366-3.344 0-1.727-1.089-3.289-3.366-3.289h-3.784V45zm3.663-6.578c.924 0 1.265.616 1.265 1.298 0 .759-.341 1.331-1.265 1.331h-1.463v-2.629h1.463zm6.42557 2.288c0 2.453 2.079 4.455 4.554 4.455 2.508 0 4.554-2.002 4.554-4.455 0-2.453-2.046-4.455-4.554-4.455-2.475 0-4.554 2.002-4.554 4.455zm2.222 0c0-1.298 1.045-2.332 2.332-2.332 1.32 0 2.332 1.034 2.332 2.332 0 1.298-1.012 2.332-2.332 2.332-1.287 0-2.332-1.034-2.332-2.332zM108.88571 45h6.303v-2.123h-4.114V36.42h-2.189V45zm9.60458 0h6.303v-2.123h-4.114V36.42h-2.189V45zm8.98857-4.29c0 2.453 2.079 4.455 4.554 4.455 2.508 0 4.554-2.002 4.554-4.455 0-2.453-2.046-4.455-4.554-4.455-2.475 0-4.554 2.002-4.554 4.455zm2.222 0c0-1.298 1.045-2.332 2.332-2.332 1.32 0 2.332 1.034 2.332 2.332 0 1.298-1.012 2.332-2.332 2.332-1.287 0-2.332-1.034-2.332-2.332z"/></g></svg>