<svg xmlns="http://www.w3.org/2000/svg" role="img" viewBox="3.26 17.26 175.11 71.48"><g fill="none" fill-rule="evenodd"><g fill="#FF1035"><path d="M42.04 80.512c0 .255-.025.503-.063.748l-.014.091c-.397 2.292-2.39 4.04-4.785 4.04-2.136 0-3.95-1.392-4.602-3.317l-20.23-11.717a6.509 6.509 0 0 1-3.241-5.633V44.988c.749.255 1.548.4 2.383.4.75 0 1.472-.115 2.155-.322v19.658c0 .695.372 1.341.973 1.689l18.871 10.931a4.843 4.843 0 0 1 3.691-1.71 4.85 4.85 0 0 1 3.915 1.996c.015.022.032.043.048.065.062.088.12.178.177.271l.065.107a4.828 4.828 0 0 1 .316.655c.024.06.045.12.067.182.027.077.053.155.076.233.023.076.04.151.058.226.017.071.035.141.049.213.019.095.03.19.044.286.007.058.018.113.024.17.014.157.023.314.023.474zm24.88-42.605a4.867 4.867 0 0 1-1.67 3.67v23.147a6.507 6.507 0 0 1-3.24 5.633L44.63 80.424a7.449 7.449 0 0 0-1.496-4.392l16.607-9.62c.6-.347.972-.993.972-1.688V42.592a4.88 4.88 0 0 1-3.518-4.685 4.853 4.853 0 0 1 .982-2.927 4.91 4.91 0 0 1 .362-.43l.017-.019c.267-.278.565-.523.89-.732l.104-.064c.129-.077.26-.15.396-.216.04-.019.08-.04.12-.057.17-.077.345-.149.525-.204v-.001a4.826 4.826 0 0 1 1.467-.228c2.682 0 4.862 2.188 4.862 4.878zM9.105 42.155a4.883 4.883 0 0 1-2.48-4.248c0-2.69 2.181-4.878 4.863-4.878.695 0 1.355.15 1.954.414l20.494-11.87a6.462 6.462 0 0 1 6.483 0L57.902 31.7a7.508 7.508 0 0 0-2.83 3.616l-16.922-9.8a1.939 1.939 0 0 0-1.945 0L16.272 37.061c.049.275.078.556.078.845a4.882 4.882 0 0 1-3.188 4.574l-.043.016a5.14 5.14 0 0 1-.45.137c-.03.008-.06.017-.091.023a5 5 0 0 1-.427.078c-.04.006-.078.013-.118.018-.179.02-.36.033-.545.033a4.85 4.85 0 0 1-.586-.04c-.051-.005-.102-.015-.153-.023a4.687 4.687 0 0 1-.437-.087l-.132-.034a4.866 4.866 0 0 1-1.075-.447z"/><path d="M36.839 35.6l-16.486 5.922 2.502 21.767 13.984 7.804 13.984-7.804 2.502-21.767L36.84 35.6zM25.193 61.724L23.065 43.21l13.774-4.947 13.774 4.947-2.128 18.513-11.646 6.5-11.646-6.5zm2.173.177h3.546l1.908-4.777h8.053L42.78 61.9h3.539l-9.48-21.354L27.366 61.9zm9.473-14.414l2.774 6.692h-5.548l2.774-6.692z"/></g><path fill="#050713" fill-rule="nonzero" d="M79.372 54.74L74 68h3.706l.731-1.938h5.219L84.387 68h3.706l-5.355-13.26h-3.366zm3.128 8.245h-2.907l1.462-3.893 1.445 3.893zM93.674 68v-7.395L99.59 68h2.873V54.74H99.08v7.412l-5.916-7.412h-2.89V68h3.4zm18.026-4.913h3.213v.374c-.63.918-1.65 1.513-2.84 1.513a3.584 3.584 0 0 1-3.603-3.604 3.584 3.584 0 0 1 3.604-3.604c1.156 0 2.176.527 2.839 1.36l2.77-1.87a7.095 7.095 0 0 0-5.61-2.771c-3.841 0-7.037 3.094-7.037 6.885s3.196 6.885 7.038 6.885c1.36 0 2.703-.51 3.349-1.496V68h2.669v-7.735H111.7v2.822zm17.89-8.347v7.259c0 1.921-.936 2.975-2.72 2.975-1.769 0-2.687-1.054-2.687-2.975V54.74h-3.4v7.463c0 3.417 2.108 6.052 6.086 6.052 3.961 0 6.103-2.635 6.103-6.052V54.74h-3.383zM135.986 68h9.74v-3.281h-6.357V54.74h-3.383V68zm16.495-13.26L147.11 68h3.706l.731-1.938h5.22l.73 1.938h3.706l-5.355-13.26h-3.366zm3.128 8.245h-2.907l1.462-3.893 1.445 3.893zm7.775-8.245V68h3.383v-3.553h1.734L171.018 68h4.063l-2.873-4.012c1.785-.816 2.618-2.55 2.618-4.403 0-2.635-1.564-4.845-4.964-4.845h-6.477zm6.29 3.094c1.36 0 1.87.765 1.87 1.785 0 .918-.51 1.751-1.87 1.751h-2.907v-3.536h2.907z"/><path fill="#6D7A99" fill-rule="nonzero" d="M77.476 36.42L74 45h2.398l.473-1.254h3.377L80.721 45h2.398l-3.465-8.58h-2.178zm2.024 5.335h-1.881l.946-2.519.935 2.519zM86.278 45h2.2v-1.947h1.584c2.277 0 3.366-1.529 3.366-3.344 0-1.727-1.09-3.289-3.366-3.289h-3.784V45zm3.663-6.578c.924 0 1.265.616 1.265 1.298 0 .759-.341 1.331-1.265 1.331h-1.463v-2.629h1.463zm6.425 2.288c0 2.453 2.08 4.455 4.554 4.455 2.508 0 4.554-2.002 4.554-4.455 0-2.453-2.046-4.455-4.554-4.455-2.475 0-4.554 2.002-4.554 4.455zm2.222 0a2.326 2.326 0 0 1 2.332-2.332 2.306 2.306 0 0 1 2.332 2.332 2.306 2.306 0 0 1-2.332 2.332 2.326 2.326 0 0 1-2.332-2.332zM108.886 45h6.303v-2.123h-4.114V36.42h-2.19V45zm9.604 0h6.303v-2.123h-4.114V36.42h-2.189V45zm8.989-4.29c0 2.453 2.079 4.455 4.554 4.455 2.508 0 4.554-2.002 4.554-4.455 0-2.453-2.046-4.455-4.554-4.455-2.475 0-4.554 2.002-4.554 4.455zm2.222 0a2.326 2.326 0 0 1 2.332-2.332 2.306 2.306 0 0 1 2.332 2.332 2.306 2.306 0 0 1-2.332 2.332 2.326 2.326 0 0 1-2.332-2.332z"/></g></svg>