<svg xmlns="http://www.w3.org/2000/svg" role="img" viewBox="2.24 -3.01 442.52 190.27"><path d="M186.7 63.9c-2.6-3.1-5.5-5.4-8.9-6.8-3.3-1.4-6.9-2.1-10.6-2.1-4 0-7.5.7-10.3 2-2.8 1.4-5.2 3-7 5V49.8h-23.6v68.1c-1.3.7-2.9 1.1-4 1.1-3.1 0-5.5-.8-7.1-2.4-1.6-1.6-2.8-3.7-3.6-6.1-.8-2.4-1.3-4.9-1.4-7.6-.2-2.7-.3-5-.3-7.1V5.6H84V16s-6-4.7-10.7-6.5C68.6 7.6 64 6.6 59.5 6.6c-8.6 0-16 2.3-22.2 7-6.2 4.6-11.3 10.6-15.1 17.7-3.9 7.1-6.7 15.1-8.5 23.8-1.8 8.7-2.7 17.1-2.7 25.2 0 10.5 1.3 19.5 4 26.9 2.7 7.4 6.1 13.4 10.2 18.1 4.1 4.6 8.8 8 14.1 10.2 5.2 2.1 10.5 3.2 15.6 3.2 8.3 0 15.3-2.4 21.2-7.1 5.9-4.7 10.1-10.5 12.7-17.2 1.6 8.8 4.5 15 8.8 18.7 4.3 3.7 9.1 5.5 14.5 5.5 5 0 9.5-1.5 13.4-4.4.3-.2.6-.5.9-.7v45.3l23.6-5.9V133c1.2 1.5 3 2.9 5.4 4 2.4 1.1 5.7 1.7 9.8 1.7 5.8 0 10.6-1.3 14.5-3.9 3.9-2.6 7-5.9 9.3-10.1 2.3-4.1 3.9-8.8 4.8-14.1.9-5.3 1.4-10.5 1.4-15.7 0-7.3-.8-13.5-2.3-18.7-1.6-5-3.7-9.1-6.2-12.3zM84 90.8c0 3.8-.6 7.4-1.8 10.7-1.2 3.4-2.9 6.4-5 8.9-2.2 2.6-4.7 4.7-7.6 6.2-2.9 1.5-6 2.3-9.3 2.3-6.2 0-11.5-3.1-15.7-9.3-4.3-6.2-6.5-16.3-6.5-30.3 0-6.4.6-13.1 1.7-20.1 1.1-7 2.9-13.3 5.3-19 2.4-5.7 5.5-10.4 9.3-14.1 3.8-3.7 8.4-5.6 14-5.6 4.5 0 7.9 1.1 10.3 3.4 2.4 2.2 4.2 4.8 5.4 7.8v59.1zm87.6 13.1c-.5 3.8-1.3 7.2-2.5 10.3-1.1 3.1-2.7 5.5-4.7 7.5-2 1.9-4.4 2.9-7.2 2.9-2 0-3.6-.4-4.8-1.2-1.2-.8-2.1-1.7-2.6-2.5V75c.9-2.7 2.2-4.8 4.1-6.1 1.8-1.4 3.8-2.1 5.7-2.1.8 0 1.8.2 3.2.7 1.4.4 2.8 1.5 4.2 3.2 1.4 1.7 2.7 4.3 3.7 7.8s1.6 8.3 1.6 14.3c0 3.6-.2 7.4-.7 11.1zm89.9-40c-2.6-3.1-5.5-5.4-8.8-6.8-3.3-1.4-6.9-2.1-10.6-2.1-4.1 0-7.5.7-10.3 2-2.8 1.4-5.2 3-7.1 5V49.8h-23.6v129l23.6-5.9V133c1.2 1.5 3 2.9 5.4 4 2.4 1.1 5.7 1.7 9.8 1.7 5.8 0 10.6-1.3 14.5-3.9 3.9-2.6 7-5.9 9.3-10.1 2.3-4.1 3.9-8.8 4.8-14.1.9-5.3 1.4-10.5 1.4-15.7 0-7.3-.8-13.5-2.3-18.7-1.4-5-3.5-9.1-6.1-12.3zm-15 40c-.5 3.8-1.3 7.2-2.5 10.3-1.2 3.1-2.7 5.5-4.7 7.5-2 1.9-4.4 2.9-7.2 2.9-2 0-3.6-.4-4.8-1.2-1.2-.8-2.1-1.7-2.6-2.5V75c.9-2.7 2.2-4.8 4.1-6.1 1.9-1.4 3.8-2.1 5.7-2.1.8 0 1.8.2 3.2.7 1.4.4 2.8 1.5 4.2 3.2 1.4 1.7 2.7 4.3 3.7 7.8s1.6 8.3 1.6 14.3c0 3.6-.3 7.4-.7 11.1zm188.9-39.5c-.7-1.7-1.7-3.3-2.9-4.7-1.3-1.4-2.7-2.6-4.4-3.4-1.7-.9-3.6-1.3-5.7-1.3-3.5 0-6.7 1.1-9.7 3.4-3 2.2-5.6 4.8-8 7.6V55.8h-23.6V110c-1.2 1.7-2.4 3.4-3.7 5-1.6 2-3.4 3.8-5.4 5.3-2 1.5-4.2 2.6-6.7 3.5-2.5.9-5.4 1.3-8.7 1.3-5.9 0-10-1.6-12.4-4.7-2.4-3.1-3.6-8.3-3.7-15.7 4.1-.2 8-1 11.9-2.4 3.9-1.4 7.3-3.3 10.3-5.9 3-2.6 5.4-5.7 7.2-9.4 1.8-3.7 2.7-8 2.7-13 0-.9-.1-2.3-.4-4.4-.3-2.1-1.1-4.2-2.5-6.4s-3.5-4.1-6.3-5.7c-2.8-1.6-6.9-2.5-12.1-2.5-6.9 0-12.6 1.5-17.1 4.6-4.5 3.1-8 6.9-10.7 11.5-2.6 4.6-4.5 9.6-5.5 15s-1.6 10.5-1.6 15.2c0 6.2.7 11.5 2 16-.3.5-.6 1-1 1.5-2.1 2.7-4.8 4.1-7.9 4.1-3.2 0-5.4-.7-6.6-2.2-1.3-1.5-1.9-4.5-1.9-9.1V55.8h-23.6v57.5c0 7.7 1.7 13.8 5.1 18.4 3.4 4.6 9.3 7 17.7 7 2.2 0 4.7-.3 7.5-1s5.6-2.1 8.4-4.2c2.3-1.8 4.5-4.3 6.4-7.5.9 1.4 1.9 2.7 3 3.9 2.9 3 6.3 5.2 10.2 6.6 3.9 1.4 8.3 2.1 13 2.1 5.6 0 10.4-.9 14.6-2.6 4.2-1.8 7.8-4 10.9-6.9 2.6-2.4 4.8-5 6.7-7.9v24.5l23.6-13.5V75.5c1.7-1.9 3.4-3.4 5-4.7 1.6-1.3 3.2-1.9 4.8-1.9 1.5 0 2.6.5 3.2 1.6.6 1.1 1.2 2.3 1.7 3.5.6 1.3 1.3 2.4 2.3 3.5 1 1.1 2.7 1.6 5.2 1.6 3.4 0 5.8-1 7.3-3s2.2-4.2 2.2-6.6c.3-1.7-.1-3.4-.8-5.1zm-93.5 19.8c.7-4 1.6-7.5 2.8-10.5 1.1-3 2.5-5.4 4-7.2 1.5-1.8 3.2-2.7 5.1-2.7 1.5 0 3 .8 4.3 2.4 1.3 1.6 2 4.3 2 8.1 0 3-.5 5.9-1.5 8.5-1 2.6-2.3 4.9-4.1 6.9-1.8 2-3.8 3.6-6.2 4.9-2.4 1.3-5 2-7.7 2.2.1-4.3.6-8.5 1.3-12.6zM289 46c4.1 0 7.6-1.4 10.5-4.3 2.9-2.8 4.4-6.3 4.4-10.4 0-4.1-1.5-7.6-4.4-10.5-2.9-2.9-6.4-4.4-10.5-4.4s-7.6 1.5-10.4 4.4c-2.9 2.9-4.3 6.4-4.3 10.5s1.4 7.6 4.3 10.4c2.8 2.9 6.3 4.3 10.4 4.3z"/></svg>