<svg xmlns="http://www.w3.org/2000/svg" role="img" viewBox="-4.44 -4.19 217.62 37.37"><title>Arangodb logo</title><path fill="#dde072" d="M195.95 16.175h4.805c1.233 0 2.135.314 2.708.942.572.616.858 1.513.858 2.69 0 1.09-.336 1.916-1.007 2.477-.672.55-1.645.826-2.923.826h-4.442v-6.935zm0-9.692h3.302c1.388 0 2.428.264 3.122.792.704.528 1.057 1.348 1.057 2.46 0 1.013-.348 1.784-1.042 2.311-.693.529-1.683.793-2.972.793h-3.468V6.483zm-22.287 0h3.187c1.729 0 3.083.583 4.063 1.75.98 1.166 1.468 2.68 1.468 4.54v4.013c0 1.883-.489 3.407-1.469 4.574-.98 1.167-2.333 1.75-4.062 1.75h-3.188V6.485zm14.912-3.715v2.906l2.559.495v17.25l-2.559.496v2.89h11.822c2.785 0 4.938-.59 6.457-1.767 1.518-1.189 2.277-2.933 2.277-5.235 0-1.332-.363-2.505-1.09-3.517-.715-1.013-1.793-1.674-3.235-1.981 1.122-.44 1.976-1.096 2.558-1.965.595-.881.892-1.878.892-2.99 0-2.19-.792-3.835-2.377-4.937-1.585-1.1-3.793-1.651-6.621-1.651h-10.683zm-22.287 0v2.906l2.558.495v17.25l-2.559.496v2.89h10.815c2.94 0 5.362-.931 7.265-2.792 1.906-1.871 2.857-4.281 2.857-7.231v-3.98c0-2.939-.953-5.345-2.856-7.216-1.905-1.883-4.327-2.824-7.265-2.824h-10.815z"/><path fill="#fff" d="M95.325 18.925h2.46v2.95c-.33.473-.793.87-1.388 1.189a4.24 4.24 0 0 1-1.98.462c-.694 0-1.24-.171-1.636-.512-.385-.342-.578-.814-.578-1.42 0-.672.264-1.469.792-1.943.528-.484 1.305-.726 2.329-.726m40.312-6.626c.716 0 1.327.148 1.833.445.517.297.93.716 1.238 1.255v7.76c-.308.518-.72.914-1.238 1.189-.506.264-1.129.396-1.866.396-1.19 0-2.048-.445-2.577-1.336-.528-.903-.792-2.136-.792-3.699v-.347c0-1.683.27-3.05.81-4.095.55-1.045 1.414-1.568 2.592-1.568m19.762-.034c1.255 0 2.174.5 2.758 1.503.583 1.001.875 2.296.875 3.88v.347c0 1.619-.292 2.922-.875 3.914-.573.99-1.482 1.486-2.725 1.486-1.278 0-2.202-.49-2.774-1.47-.573-.991-.859-2.301-.859-3.93v-.346c0-1.585.286-2.88.859-3.881.572-1.002 1.486-1.503 2.741-1.503m0-3.715c-2.631 0-4.695.854-6.192 2.56-1.487 1.695-2.23 3.875-2.23 6.539v.346c0 2.686.744 4.877 2.23 6.572 1.497 1.685 3.572 2.527 6.225 2.527 2.62 0 4.673-.843 6.158-2.527 1.498-1.695 2.245-3.886 2.245-6.572v-.346c0-2.675-.748-4.86-2.245-6.555-1.486-1.695-3.55-2.544-6.192-2.544m-37.75 0c-1.079 0-2.054.254-2.923.76-.87.506-1.6 1.217-2.195 2.13l-.214-2.56h-7.05v2.906l2.558.496v11.079l-2.311.496v2.89h9.081v-2.89l-1.947-.496v-9.578a3.454 3.454 0 0 1 1.271-1.089c.506-.264 1.079-.396 1.717-.396.98 0 1.712.253 2.195.759.485.495.727 1.344.727 2.544v7.76l-2.064.496v2.89h9.214v-2.89l-2.311-.496v-7.777c0-2.42-.507-4.2-1.519-5.333-1.013-1.134-2.421-1.702-4.228-1.702m-22.487 0c-1.168 0-2.256.164-3.274.471a9.904 9.904 0 0 0-1.482.51c-1.895.84-2.562 1.545-2.562 1.545l2.284 3.02s.728-.786 2.794-1.667c.605-.256 1.352-.359 1.924-.361.968 0 1.701.236 2.196.71.495.473.743 1.139.743 1.997V16.3h-2.46c-2.597 0-4.567.682-5.911 1.596-1.343.914-2.015 2.208-2.015 3.88 0 1.64.512 2.94 1.536 3.897 1.035.947 2.428 1.42 4.178 1.42 1.056 0 1.992-.204 2.806-.611a6.598 6.598 0 0 0 2.096-1.603 7.583 7.583 0 0 0 .579 1.866h5.564v-2.89l-1.47-.198a6.752 6.752 0 0 1-.065-.694v-8.157c0-2.004-.694-3.545-2.081-4.624-1.377-1.09-3.17-1.635-5.383-1.635m-10.585 0c-.87 0-1.635.26-2.295.777-.66.517-1.2 1.238-1.619 2.162l-.215-2.609h-7.05v2.907l2.56.496v11.078l-2.312.496v2.89h9.445v-2.89l-2.311-.496v-8.685a2.67 2.67 0 0 1 1.056-1.173c.463-.275 1.046-.412 1.752-.412l1.98.05.512-4.393a4.352 4.352 0 0 0-.71-.132 5.022 5.022 0 0 0-.792-.066m54.825-.06l-.402 2.636c-.539-.825-1.189-1.458-1.948-1.898-.76-.452-1.64-.677-2.642-.677-2.212 0-3.935.864-5.167 2.592-1.222 1.729-1.834 4.001-1.834 6.82v.347c0 2.631.612 4.755 1.834 6.374 1.233 1.607 2.945 2.411 5.135 2.411.925 0 1.745-.176 2.46-.528a5.38 5.38 0 0 0 1.865-1.537v1.172c0 1.278-.291 2.274-.874 2.99-.584.715-1.464 1.073-2.643 1.073-.859 0-1.674-.1-2.444-.298a14.594 14.594 0 0 1-2.31-.776l-.893 3.385c.859.43 1.795.765 2.808 1.007 1.012.253 1.97.38 2.872.38 2.586 0 4.619-.704 6.094-2.113 1.486-1.398 2.229-3.275 2.229-5.632v-3.086l.003.012V11.888l2.56-.495V8.486H139.4zm-79.362-.254h.1l2.203 6.893h-4.51l2.206-6.893zm-2.394-5.531l-7.315 20.9-1.718.248v2.89h8.19v-2.89l-1.667-.297 1.561-4.88h6.753l1.593 4.88-1.667.297v2.89h8.19v-2.89l-1.718-.248-7.265-20.9h-4.937z"/><path fill="#577138" d="M41.621 14.73c-.392-1.301-.587-1.952-.871-2.645-.548-1.338-1.244-2.427-2.287-3.776-2.441-3.151-3.661-4.73-5.652-5.988C28.49-.41 23.943.073 23.425.136c-1.552.187-4.965.868-7.89 3.69-1.658 1.601-2.699 3.897-3.186 5.068-.54 9.34 8.623 13.082 10.78 14.646.694.33 2.288 1.032 3.582 1.7 2.988 1.543 5.06 1.862 6.128 2.049 2.329.408 5.95-.514 7.67-2.441 1.647-1.847 2.126-4.338 1.734-6.558-.12-.683-.121-1.897-.623-3.564z"/><path fill="#a3b34f" d="M40.304 13.727c-.624-1.665-1.356-2.77-2.224-4.08-1.063-1.604-2.013-2.698-2.776-3.57-1.627-1.857-2.441-2.786-3.547-3.46-1.908-1.165-3.753-1.375-4.802-1.484-2.474-.257-4.366.268-5.286.532-.946.272-2.82.83-4.778 2.368-1.774 1.392-2.865 3.49-3.458 4.618-.545 1.018 2.807 9.185 10.551 14.013.397.205 1.5.708 2.181 1.053.222.112.426.213.616.305.308.141.595.276.865.405.87.393 1.408.592 2.121.965 2.47 1.292 5.077.924 5.464.863.512-.078 4.077-.63 5.552-3.466.778-1.496.643-2.986.458-5.025a15.676 15.676 0 0 0-.94-4.04"/><path fill="#dde072" d="M28.346 23.726c2.595.994 3.45 1.513 4.56 1.648.366.044 3.851.263 5.894-1.667 1.521-1.436 1.594-2.888 1.682-3.572.303-2.358-.367-5.38-1.15-6.865-1.028-1.95-1.294-2.36-4.052-6.014-2.042-2.702-3.065-3.203-4.13-3.905-1.833-1.197-3.952-1.225-5.39-1.284-1.058-.043-3.04.345-4.94 1.01-2.967 1.044-4.7 2.793-5.918 5.27-1.352 2.855 5.483 12.161 10.236 14.064"/><path fill="#a3b34f" d="M29.234 18.14c1.655-.29 2.757-1.988 3.094-3.364.473-1.946-.506-3.57-1.158-4.653-.616-1.019-1.698-2.445-3.659-3.24-1.804-.734-3.206.156-3.859.52-2.88 4.257-.649 8.578 3.587 10.735.535.053 1.574.075 1.994.002"/><path fill="#577138" d="M24.44 22.15c.727-.867 2.124-2.666 2.689-3.784a6.85 6.85 0 0 0 .11-.23c.61-1.325 1.214-3.616 1.272-5.421.052-1.616-.501-2.709-.501-2.709-.564-1.47-2.186-1.973-2.897-2.245a7.006 7.006 0 0 0-1.638-.38c-1.045-.094-2.495.017-5.002.385a76.944 76.944 0 0 0-7.245 1.372c-2.769.675-4.295 1.046-6.054 1.897-2.032.983-3.951 1.911-4.782 3.951-.508 1.25-.464 2.508-.337 3.344 0 0 .548 5.47 4.311 8.257 3.152 2.337 7.799 3.2 11.263 2.253 2.732-.52 5.337-3.08 7.503-5.32.443-.448.976-.974 1.31-1.371z"/><path fill="#a3b34f" d="M21.011 21.234c-2.546 1.495-6.283 3.524-10.958 3.472-.15-.002-.303-.005-.455-.012-1.568-.063-5.733-.23-7.876-3.016-.591-.77-.94-1.62-1.13-2.199l-.005-.012a5.542 5.542 0 0 1-.24-1.017l-.003-.01v-.005l-.001-.002c-.12-.8-.162-1.997.32-3.18.788-1.935 2.572-2.798 4.638-3.797 1.731-.837 3.246-1.206 5.994-1.876a77.726 77.726 0 0 1 2.082-.476 63.151 63.151 0 0 1 1.95-.382l.002-.002a99.876 99.876 0 0 1 3.186-.506c2.483-.364 3.914-.476 4.934-.384a5.44 5.44 0 0 1 1.559.362c.728.278 2.083.797 2.738 2.102a3.422 3.422 0 0 1 .355 1.437c.04 1.176-.444 2.332-.705 2.953-1.463 3.484-4.183 5.255-6.386 6.55"/><path fill="#dde072" d="M19.407 21.406c2.425-1.248 4.392-2.68 5.406-3.797 1.685-1.854 2.372-3.738 2.52-5.271.167-1.718-.913-2.36-1.28-2.672-1.363-1.164-3.217-1.146-4.902-1.152-.765-.002-1.864.056-5.231.79-2.678.61-3.226.743-6.464 1.628-2.158.6-3.375 1.005-4.369 1.63-1.39.872-3.12 1.959-3.558 4.054-.545 2.599 1.378 4.764 1.769 5.174 1.881 1.963 4.475 2.198 6.262 2.204a31.81 31.81 0 0 0 1.954-.067c3.633-.2 6.134-1.618 7.893-2.52"/><path fill="#5e3108" d="M9.992 10.948c-.278.21-.73.656-.964.895l-.646.723c-1.147 1.44-1.966 4.217-1.344 4.965.318.384.485.426.6.503 1.592.77 3.045 1.827 5.42 1.966l1.975-.002c.16-.007.395-.016.564-.03.44-.039.248-.042.552-.075 2.733-.448 6.372-2.382 6.231-5.088-.053-1.011-1.208-2.668-1.992-3.415-.834-.795-2.392-1.568-2.8-1.714-.192-.059-.42-.137-.801-.204a9.833 9.833 0 0 0-.877-.12c-.095-.009-.189-.014-.283-.02-1.984-.123-3.764.394-5.137 1.268a7.459 7.459 0 0 0-.334.225c-.056.04-.11.08-.164.122"/></svg>