<svg xmlns="http://www.w3.org/2000/svg" role="img" viewBox="-5.11 -3.61 759.72 280.72"><path d="M26.959 28.074h696.085v217.627H428.423v-35.864h-16.519v35.864H26.96zM9.863 262.778h730.274V11H9.863z"/><path d="M157.977 92.105h-18.719l-32.546 83.72h18.709l8.544-23.216h29.42l8.427 23.217h18.719zm-18.975 45.17l9.61-26.237 9.509 26.236zm181.505-45.17v16.626h29.309v67.095h17.629v-67.095h29.426V92.105h-76.364zm299.968 0l-21.187 35.7-21.064-35.7h-20.488l32.805 52.987v30.734h17.622v-30.734l32.8-52.987h-20.488zm-97.834 39.632c-5.452-3.98-12.915-5.807-19.5-7.424-1.37-.337-2.707-.658-4.004-1l-.81-.208c-5.365-1.35-12.72-3.2-12.72-9.606 0-6.855 7.986-8.679 12.7-8.679 5.346 0 12.06 1.602 13.708 9.243l.047.256h16.607l-.01-.332c-.56-15.45-11.398-24.313-29.73-24.313-13.655 0-29.596 6.373-29.596 24.324 0 18.687 16.639 22.683 31.31 26.215 1.348.329 2.67.644 3.962.972 7.477 1.953 11.273 5.422 11.273 10.316 0 10.525-13.801 11.056-16.573 11.056-9.7 0-14.965-3.615-16.584-11.373l-.047-.252h-16.86l.016.326c.124 6.64.93 10.684 5.205 15.704 8.102 9.445 20.948 10.856 27.891 10.856 16.007 0 33.23-8.314 33.23-26.572a24.343 24.343 0 0 0-9.514-19.51m-241.544 8.481c6.4-4.67 10.374-12.933 10.374-21.56a26.28 26.28 0 0 0-12.54-22.602c-6.554-3.952-13.18-3.952-19.592-3.952h-37.76v83.721h17.743v-41.386l32.933 41.386h21.493l-25.074-30.72c4.49-.773 8.225-1.822 12.423-4.887m-41.775-9.566v-22.769l19.94-.005c3.963 0 7.471.166 10.308 2.216a11.247 11.247 0 0 1 4.27 9.173c0 7.554-5.393 11.383-16.03 11.383h-18.488z"/></svg>