<svg xmlns="http://www.w3.org/2000/svg" role="img" viewBox="84.85 -4.90 230.04 254.54"><title>Atlassian Inc (member) logo</title><path fill="none" d="M0 0h400v245H0z" pointer-events="none"/><defs><linearGradient x1="341.85" x2="309.48" y1="30.59" y2="108.21" gradientUnits="userSpaceOnUse"><stop offset="0" stop-color="#1cce28"/><stop offset=".21" stop-color="#20c52b"/><stop offset=".56" stop-color="#2aad33"/><stop offset="1" stop-color="#3b8640"/></linearGradient><linearGradient id="a" x1="91.017" x2="43.843" y1="97.946" y2="179.654" gradientUnits="userSpaceOnUse"><stop offset="0" stop-color="#0052cc"/><stop offset=".923" stop-color="#2684ff"/></linearGradient></defs><g data-name="Layer 2"><path fill="url(#a)" d="M66.519 84.151c-2.725-2.911-6.971-2.746-8.823.958l-44.687 89.376a5.342 5.342 0 0 0 4.778 7.732H80.02a5.151 5.151 0 0 0 4.779-2.954c13.419-27.745 5.289-69.93-18.28-95.112z" class="cls-1" transform="translate(89.867) scale(1.10133)"/><path fill="#2681ff" d="M199.23678 3.152c-27.52664 43.61267-25.71055 91.9148-7.57935 128.1783l33.0487 66.09742a5.8833 5.8833 0 0 0 5.26216 3.25223h68.53797a5.8833 5.8833 0 0 0 5.26215-8.51549S211.56397 7.72913 209.24456 3.11456c-2.0738-4.13109-7.34146-4.18726-10.00778.03745z" class="cls-2"/><path fill="#0052cc" d="M190.35896 225.34423c0 3.95598 1.83481 7.09587 9.01328 8.48024 4.28197.89759 5.17625 1.59032 5.17625 3.01765 0 1.38657-.89758 2.28416-3.91523 2.28416a22.09488 22.09488 0 0 1-10.39985-2.8139v6.44388a21.2755 21.2755 0 0 0 10.31836 2.2434c7.50446 0 10.48135-3.34363 10.48135-8.31944m0 0c0-4.68946-2.4879-6.89212-9.50227-8.40094-3.87448-.85684-4.81281-1.71257-4.81281-2.93615 0-1.54957 1.38657-2.20266 3.95597-2.20266a22.28541 22.28541 0 0 1 9.05404 2.24341v-6.15864a20.46271 20.46271 0 0 0-8.85029-1.83481c-6.93838 0-10.5221 3.01764-10.5221 7.9527m96.40932-7.5441v26.79425h5.7093V224.1614l2.4064 5.42405 8.07495 15.00783h7.17737v-26.79426h-5.7093V235.091l-2.1619-5.01656-6.48464-12.27542h-9.01218zm-42.55429 0h6.24014v26.79425h-6.24014v-26.79426zm-7.1994 18.87679c0-4.68947-2.4879-6.89213-9.50227-8.40095-3.87448-.85683-4.81281-1.71257-4.81281-2.93614 0-1.54958 1.38657-2.20266 3.95598-2.20266a22.28541 22.28541 0 0 1 9.05403 2.2434v-6.15863a20.46271 20.46271 0 0 0-8.85029-1.83482c-6.93838 0-10.5221 3.01765-10.5221 7.9527 0 3.95598 1.83481 7.09588 9.01328 8.48025 4.28197.89758 5.17625 1.59032 5.17625 3.01764 0 1.38658-.89758 2.28416-3.91523 2.28416a22.09488 22.09488 0 0 1-10.39986-2.8139v6.44388a21.2755 21.2755 0 0 0 10.31836 2.24341c7.50447 0 10.48136-3.34364 10.48136-8.31944m-95.12187-18.8757v26.79426h12.82609l2.01874-5.7908H148.167v-21.00346h-6.28088zm-25.3383 0v5.7908h6.93287v21.00346h6.28089V223.5898h7.42186v-5.79079h-20.63562zm-9.1069 0h-8.23024L89.867 244.59328h7.13662l1.3216-4.51545a17.73141 17.73141 0 0 0 9.99346 0l1.3216 4.51545h7.13662zm-4.11567 17.45168a12.18622 12.18622 0 0 1-3.43394-.4934l3.43394-11.69723 3.43395 11.69723a12.18622 12.18622 0 0 1-3.43395.4934zm73.49726-17.45168h-8.23134l-9.34038 26.79426h7.13662l1.3216-4.51545a17.73141 17.73141 0 0 0 9.99346 0l1.3216 4.51545h7.13662zm-4.11567 17.45168a12.18622 12.18622 0 0 1-3.43395-.4934l3.43395-11.69723 3.43395 11.69723a12.18622 12.18622 0 0 1-3.43395.4934zm100.22874-17.45168h-8.23024l-9.34368 26.79426h7.13661l1.3216-4.51545a17.73141 17.73141 0 0 0 9.99347 0l1.3216 4.51545h7.13661zm-4.11567 17.45168a12.18622 12.18622 0 0 1-3.43395-.4934l3.43395-11.69723 3.43395 11.69723a12.18622 12.18622 0 0 1-3.43395.4934z" class="cls-3"/></g></svg>