<svg xmlns="http://www.w3.org/2000/svg" role="img" viewBox="-2.58 -2.83 147.03 41.03"><title>Attendify (adopter) logo</title><path fill="#666" d="M.3 22.4c0-4.5 4.2-6.5 12.8-6.6h.5v-.4c0-3-1.7-4.6-4.7-4.6-2.9 0-4.6 1.6-5.5 3.4 0 0-2.4 0-2.4-1.9s2.8-4.7 8.2-4.7 8.3 2.9 8.3 7.8v12c0 .2-.7.5-1.4.5-1.4 0-2.4-.8-2.4-3.1-1.5 2.1-4 3.4-6.9 3.4-4.1-.3-6.5-2.5-6.5-5.8zm13.3-2.6v-1.5h-1.1c-5.6.2-8.4 1.3-8.4 3.9 0 1.8 1.3 2.9 3.6 2.9 3.5 0 5.9-2.3 5.9-5.3zm28.3-2c0-5.9 4.1-10.4 9.8-10.4 5.5 0 9.2 4 9.2 9.8v.3c0 .8-.3 1.2-1.2 1.2H45.6c.3 3.6 2.9 6.1 6.5 6.1 3.3 0 5-1.5 6-3.2.1-.1 2.1.3 2.1 2S57.3 28 52.1 28c-6.2 0-10.2-4.1-10.2-10.2zm3.7-1.7H57c-.2-3.4-2.2-5.6-5.4-5.6-3.1 0-5.5 2.3-6 5.6zm20.9-5.2c1.3-2 3.4-3.5 6.4-3.5 5.1 0 7.4 3.5 7.4 8.4v9.9c0 1.4-.7 1.9-1.7 1.9h-.4c-1 0-1.7-.5-1.7-1.9v-9.4c0-3.3-1.6-5.3-4.4-5.3-2.5 0-4.4 1.4-5.4 3.4v11.3c0 1.4-.7 1.9-1.7 1.9h-.4c-1 0-1.7-.5-1.7-1.9V8.2c0-.1.6-.5 1.4-.5.9 0 2.1.6 2.2 3.2zm15.4 6.8c0-6.2 3.8-10.3 9.1-10.3 3.1 0 5.4 1.4 6.5 3.2V.6c0-.1.7-.5 1.4-.5 1.2 0 2.5.6 2.5 3.5v22.2c0 1.4-.7 1.9-1.7 1.9h-.4c-1 0-1.7-.5-1.7-1.9v-1.5C96 26.6 93.8 28 90.8 28c-5.1 0-8.9-4.1-8.9-10.3zM97.5 19v-4.2c-1-2.5-2.9-4-5.9-4-3.6 0-6 2.8-6 7 0 4.1 2.5 7 5.9 7 3.2-.1 6-2.5 6-5.8zM103 2.9c0-1.8 1.1-2.8 2.9-2.8 1.8 0 2.8 1 2.8 2.8s-1 2.7-2.8 2.7c-1.8 0-2.9-1-2.9-2.7zm.9 22.8v-16c0-1.4.7-1.9 1.8-1.9h.4c1 0 1.7.5 1.7 1.9v16.1c0 1.4-.7 1.9-1.7 1.9h-.4c-1.1-.1-1.8-.5-1.8-2zm5.5-15.1v-.3c0-1 .5-1.4 1.7-1.4h2.2V7.4c0-4.9 2.3-7.2 6.1-7.2 2.9 0 4.3 1.3 4.3 2.6 0 1.1-.9 1.8-1 1.8-.6-.6-1.7-1.1-2.9-1.1-1.9 0-2.8 1.2-2.8 4v1.4h3.2c1.3 0 1.7.5 1.7 1.5v.3c0 1-.5 1.5-1.7 1.5h-3.1v13.6c0 1.4-.7 1.9-1.7 1.9h-.4c-1 0-1.8-.5-1.8-1.9V12.1H111c-1.1 0-1.6-.5-1.6-1.5zM128 34.3l3.2-7.9c-.9-.1-1.3-.3-1.7-1.1L122.7 9c-.1-.2.8-1.2 2.1-1.2 1.1 0 1.9.5 2.5 2.3l5.2 13.5 4.6-13.4c.6-1.8 1.4-2.4 2.5-2.4s2.2.9 2.1 1.1l-9 24.4c-.6 1.8-1.5 2.2-2.4 2.2-1.4-.1-2.4-1-2.3-1.2z"/><path fill="#399EE6" d="M29.8 11.1c.1 0 .1 0 0 0 .1.1 0 .1 0 0 0 .1 0 0 0 0zm-2 .1H25v9.7c0 2.4.7 3.5 2.5 3.5 1.2 0 2.1-.6 2.7-1.3.1-.1 1.1.4 1.1 1.7 0 1.5-1.6 2.9-4.5 2.9-4 0-5.8-2.2-5.8-6.3V11.3h-1.4c-1.2 0-1.7-.5-1.7-1.5v-.3c0-1 .5-1.5 1.7-1.5h8.2c-.6.2-1 .8-1 1.6.1.8.4 1.4 1 1.6zM29.6 8h.4-.2c-.1.1-.2 0-.2 0z"/><path fill="#399EE6" d="M29.4 8h10.7c1.2 0 1.7.4 1.7 1.4v.3c0 1-.5 1.5-1.7 1.5h-4.3v9.7c0 2.4.7 3.5 2.5 3.5 1.2 0 2.1-.6 2.7-1.3.1-.1 1.1.4 1.1 1.7 0 1.5-1.6 2.9-4.5 2.9-4 0-5.8-2.2-5.8-6.3V11.2h-2.3c.6-.3.9-.8.9-1.6.1-.8-.3-1.4-1-1.6zm1.9-3.4c0-1.8 1.1-2.7 2.9-2.7 1.8 0 2.8 1 2.8 2.7s-1 2.7-2.8 2.7c-1.8 0-2.9-1-2.9-2.7zM20 4.6c0-1.8 1.1-2.7 2.9-2.7 1.8 0 2.8 1 2.8 2.7s-1 2.7-2.8 2.7-2.9-1-2.9-2.7z"/><path fill="#3981E6" d="M27.6 9.6c0-.7.4-1.1 1.1-1.1.7 0 1.1.4 1.1 1.1s-.4 1.1-1.1 1.1c-.7 0-1.1-.4-1.1-1.1z"/></svg>