<svg xmlns="http://www.w3.org/2000/svg" role="img" xmlns:xlink="http://www.w3.org/1999/xlink" viewBox="-0.98 4.52 297.70 179.45"><title>Audi (adopter) logo</title><style>svg {shape-rendering:geometricPrecision;text-rendering:geometricPrecision;image-rendering:optimizeQuality;fill-rule:evenodd;clip-rule:evenodd}</style><defs><style>.str0{stroke:#000;stroke-width:.0762}.char{fill:#ff0024}</style><linearGradient id="id0" x1="0" x2="1" y1="0" y2="1" gradientUnits="objectBoundingBox"><stop offset="0" stop-color="#101010"/><stop offset=".9" stop-color="#fff"/><stop offset="1" stop-color="#fff"/></linearGradient><linearGradient id="id1" x1="0" x2="1" y1="0" y2="1" gradientUnits="objectBoundingBox"><stop offset="0" stop-color="#fff"/><stop offset=".1" stop-color="#fff"/><stop offset="1" stop-color="#101010"/></linearGradient><clipPath id="RingClip"><path d="M4 10h82v19H49v63h37v20H4zm82 19h30v63H86z"/></clipPath><g id="AudiRing"><path id="InnerRing" fill="url(#id0)" fill-rule="evenodd" d="M5 60.5a50 50 0 1 1 0 .01m11 0a39 39 0 1 1 0 .01" class="str0"/><path id="OuterRing" fill="url(#id1)" fill-rule="evenodd" d="M5 60.5a50 50 0 1 1 0 .01m6 0a44 44 0 1 1 0 .01" class="str0"/><path id="RingFront" fill="#fff" fill-rule="evenodd" stroke="#fff" stroke-width=".1" d="M10 60.5a45 45 0 1 1 0 .01m1.1 0a43.9 43.9 0 1 1 0 .01"/></g></defs><use transform="translate(186)" xlink:href="#AudiRing"/><use clip-path="url(#RingClip)" transform="translate(124)" xlink:href="#AudiRing"/><use clip-path="url(#RingClip)" transform="translate(62)" xlink:href="#AudiRing"/><use clip-path="url(#RingClip)" xlink:href="#AudiRing"/><path id="A" d="M50 177H33l30-45-6-7h20l35 52H94l-5-8H55l-5 8zm33-18l-11-18-11 18h22z" class="char"/><path id="U" d="M143 160v-20.5h15.5v23c-.045 12.975-12.557 16-24.5 16s-24.462-5.158-24.5-16v-23H125V160c0 5.5 2.87 8.5 9 8.5s9-2.62 9-8.5z" class="char"/><path id="D" fill-rule="evenodd" d="M183 125h18.5l12.5 16c4.293 5.495 7.462 10.522 7.5 17 .086 14.5-14 20.5-29.5 20.5-17.5 0-30-7.5-30-20.5 0-12 12-19.5 27-19.5 3.5 0 5.5.5 8 1.5l-14-15zm9 23c8.007 0 14.5 4.59 14.5 10.25s-6.493 10.25-14.5 10.25-14.5-4.59-14.5-10.25S183.993 148 192 148z" class="char"/><path id="I" d="M225.5 139.5h16V177h-16z" class="char"/></svg>