<svg xmlns="http://www.w3.org/2000/svg" role="img" viewBox="1.58 -1.42 102.72 119.47"><defs><linearGradient id="a" x1="3.876" x2="102.134" y1="46.063" y2="46.063" gradientUnits="userSpaceOnUse"><stop offset="0" stop-color="#b0084d"/><stop offset="1" stop-color="#ff4f8b"/></linearGradient></defs><path fill="url(#a)" d="M53.224 91.213a44.876 44.876 0 0 1-21.663-5.585l1.988-3.478a41.12 41.12 0 0 0 54.753-57.635l-1.987 9.937-3.975-.775 2.882-14.468a1.987 1.987 0 0 1 2.325-1.57l14.587 2.881-.775 3.975-9.738-1.987a45.154 45.154 0 0 1-38.397 68.705zm-34.442-17.33a2.126 2.126 0 0 1-.497 0L3.876 70.266l.974-3.856 9.262 2.325A45.095 45.095 0 0 1 74.708 6.45l-1.987 3.478a41.12 41.12 0 0 0-54.833 57.318L20.47 56.97l3.856.954-3.617 14.408a1.987 1.987 0 0 1-1.928 1.55zm50.163-8.566a7.95 7.95 0 0 1-7.692-5.962H44.857a7.95 7.95 0 1 1-7.711-9.937 8.347 8.347 0 0 1 2.146.278l8.308-14.39A7.95 7.95 0 1 1 58.838 35q-.15.158-.308.308l8.308 14.389a8.288 8.288 0 0 1 2.107-.278 7.95 7.95 0 1 1 0 15.899zm0-11.925a3.975 3.975 0 1 0 3.974 3.975 3.975 3.975 0 0 0-3.974-3.975zm-31.8 0a3.975 3.975 0 1 0 3.976 3.975 3.975 3.975 0 0 0-3.975-3.975zm7.712 1.988h16.396a7.95 7.95 0 0 1 2.147-3.717l-8.348-14.448a7.95 7.95 0 0 1-3.974 0L42.75 51.683a7.95 7.95 0 0 1 2.107 3.717zm8.188-29.812a3.975 3.975 0 1 0 3.975 3.975 3.975 3.975 0 0 0-3.975-3.975z" data-name="Icon Test"/><path d="M13.904 111.508l-.628-2.69H9.941l-.646 2.69H7.143l3.156-12.696h2.744l3.102 12.696zm-2.242-10.67h-.071l-1.381 6.294h2.797zm15.655 10.67h-2.474l-1.758-9.54h-.036l-1.757 9.54h-2.475l-2.42-12.696h2.187l1.632 9.863h.071l1.704-9.863h2.26l1.757 9.863h.036l1.632-9.863h2.08zm8.931-10.239a2.188 2.188 0 0 0-1.757-.843 1.788 1.788 0 0 0-.592.099 1.452 1.452 0 0 0-.52.313 1.491 1.491 0 0 0-.368.556 2.201 2.201 0 0 0-.134.807 1.599 1.599 0 0 0 .484 1.247 5.67 5.67 0 0 0 1.273.834 10.896 10.896 0 0 1 .95.538 4.31 4.31 0 0 1 .88.734 3.432 3.432 0 0 1 .896 2.421 4.301 4.301 0 0 1-.296 1.65 3.653 3.653 0 0 1-.79 1.21 3.224 3.224 0 0 1-1.156.744 3.907 3.907 0 0 1-1.398.252 4.613 4.613 0 0 1-1.955-.413 4.1 4.1 0 0 1-1.435-1.04l1.166-1.578a2.97 2.97 0 0 0 .995.79 2.67 2.67 0 0 0 1.192.286 1.502 1.502 0 0 0 1.13-.465 1.813 1.813 0 0 0 .449-1.31 1.676 1.676 0 0 0-.538-1.31 6.164 6.164 0 0 0-1.363-.896 8.082 8.082 0 0 1-.977-.556 3.715 3.715 0 0 1-.807-.726 3.3 3.3 0 0 1-.557-.987 3.958 3.958 0 0 1-.206-1.353 4.157 4.157 0 0 1 .314-1.694 3.45 3.45 0 0 1 .825-1.175 3.32 3.32 0 0 1 1.157-.69 3.968 3.968 0 0 1 1.309-.225 4.516 4.516 0 0 1 1.73.314 3.316 3.316 0 0 1 1.283.923zm11.746 10.239l-.628-2.69H44.03l-.646 2.69h-2.152l3.156-12.696h2.744l3.102 12.696zm-2.242-10.67h-.072l-1.38 6.294h2.798zm12.731 6.079a9.422 9.422 0 0 1-.187 1.946 5.414 5.414 0 0 1-.566 1.551 2.948 2.948 0 0 1-.932 1.032 2.252 2.252 0 0 1-1.273.367 1.924 1.924 0 0 1-1.3-.44 2.284 2.284 0 0 1-.708-1.066h-.036v5.505h-1.99v-13.45h1.954v1.292h.036a2.865 2.865 0 0 1 .699-1.139 1.842 1.842 0 0 1 1.345-.457 2.213 2.213 0 0 1 1.264.367 3.016 3.016 0 0 1 .924 1.023 5.43 5.43 0 0 1 .573 1.542 8.863 8.863 0 0 1 .197 1.927zm-2.026 0a7.81 7.81 0 0 0-.09-1.22 4.1 4.1 0 0 0-.268-.986 1.757 1.757 0 0 0-.466-.654 1.026 1.026 0 0 0-.682-.242 1.002 1.002 0 0 0-.664.242 1.83 1.83 0 0 0-.474.654 4.004 4.004 0 0 0-.287.987 7.591 7.591 0 0 0 0 2.439 4.144 4.144 0 0 0 .287.995 1.807 1.807 0 0 0 .474.663.997.997 0 0 0 .664.242 1.02 1.02 0 0 0 .682-.242 1.738 1.738 0 0 0 .466-.663 4.242 4.242 0 0 0 .268-.995 7.81 7.81 0 0 0 .09-1.22zm10.921 0a9.422 9.422 0 0 1-.188 1.946 5.414 5.414 0 0 1-.565 1.551 2.948 2.948 0 0 1-.933 1.032 2.254 2.254 0 0 1-1.273.367 1.924 1.924 0 0 1-1.3-.44 2.284 2.284 0 0 1-.708-1.066h-.036v5.505h-1.99v-13.45h1.954v1.292h.036a2.865 2.865 0 0 1 .699-1.139 1.842 1.842 0 0 1 1.345-.457 2.214 2.214 0 0 1 1.264.367 3.016 3.016 0 0 1 .924 1.023 5.431 5.431 0 0 1 .573 1.542 8.863 8.863 0 0 1 .198 1.927zm-2.027 0a7.81 7.81 0 0 0-.09-1.22 4.076 4.076 0 0 0-.268-.986 1.757 1.757 0 0 0-.466-.654 1.026 1.026 0 0 0-.681-.242 1.002 1.002 0 0 0-.665.242 1.83 1.83 0 0 0-.474.654 4.003 4.003 0 0 0-.287.987 7.59 7.59 0 0 0 0 2.439 4.144 4.144 0 0 0 .287.995 1.807 1.807 0 0 0 .474.663.997.997 0 0 0 .665.242 1.02 1.02 0 0 0 .681-.242 1.738 1.738 0 0 0 .466-.663 4.218 4.218 0 0 0 .269-.995 7.81 7.81 0 0 0 .09-1.22zm8.985-5.648a2.187 2.187 0 0 0-1.757-.843 1.784 1.784 0 0 0-.592.099 1.454 1.454 0 0 0-.52.313 1.479 1.479 0 0 0-.368.556 2.19 2.19 0 0 0-.134.807 1.597 1.597 0 0 0 .484 1.247 5.673 5.673 0 0 0 1.272.834 10.837 10.837 0 0 1 .952.538 4.305 4.305 0 0 1 .878.734 3.427 3.427 0 0 1 .897 2.421 4.301 4.301 0 0 1-.296 1.65 3.66 3.66 0 0 1-.789 1.21 3.23 3.23 0 0 1-1.157.744 3.905 3.905 0 0 1-1.399.252 4.614 4.614 0 0 1-1.955-.413 4.114 4.114 0 0 1-1.434-1.04l1.166-1.578a2.965 2.965 0 0 0 .995.79 2.671 2.671 0 0 0 1.192.286 1.502 1.502 0 0 0 1.13-.465 1.813 1.813 0 0 0 .448-1.31 1.673 1.673 0 0 0-.538-1.31 6.144 6.144 0 0 0-1.362-.896 8.015 8.015 0 0 1-.978-.556 3.712 3.712 0 0 1-.806-.726 3.29 3.29 0 0 1-.557-.987 3.946 3.946 0 0 1-.206-1.353 4.165 4.165 0 0 1 .314-1.694 3.452 3.452 0 0 1 .825-1.175 3.317 3.317 0 0 1 1.157-.69 3.96 3.96 0 0 1 1.309-.225 4.514 4.514 0 0 1 1.73.314 3.32 3.32 0 0 1 1.282.923zm6.294 11.513a8.814 8.814 0 0 1-.421 1.243 3.5 3.5 0 0 1-.6.962 2.444 2.444 0 0 1-.852.612 2.909 2.909 0 0 1-1.157.213 5.24 5.24 0 0 1-.69-.044 3.207 3.207 0 0 1-.548-.115l.252-1.814a2.4 2.4 0 0 0 .35.099 1.863 1.863 0 0 0 .403.045.912.912 0 0 0 .735-.296 1.949 1.949 0 0 0 .376-.816l.27-1.13-2.672-9.36h2.134l1.595 6.886h.054l1.453-6.887h2.062zm6.17-10.419v1.452h.035a2.862 2.862 0 0 1 .834-1.246 2.117 2.117 0 0 1 3.362.636 3.898 3.898 0 0 1 .34 1.193 10.4 10.4 0 0 1 .09 1.372v5.738h-2.026v-5.738a6.624 6.624 0 0 0-.036-.69 2.279 2.279 0 0 0-.152-.637 1.054 1.054 0 0 0-.341-.457.932.932 0 0 0-.582-.171 1.22 1.22 0 0 0-1.085.681 3.33 3.33 0 0 0-.404 1.722v5.29h-2.027v-9.145zm11.153 9.227a3.142 3.142 0 0 1-1.219.223 3.031 3.031 0 0 1-1.492-.359 3.074 3.074 0 0 1-1.083-1.013 4.84 4.84 0 0 1-.651-1.551 8.39 8.39 0 0 1-.217-1.973 8.077 8.077 0 0 1 .225-1.972 4.76 4.76 0 0 1 .67-1.542 3.109 3.109 0 0 1 1.083-.995 3.035 3.035 0 0 1 1.483-.35 2.922 2.922 0 0 1 1.264.25 2.976 2.976 0 0 1 .833.557l-.914 1.524a1.798 1.798 0 0 0-.457-.358 1.303 1.303 0 0 0-.636-.144 1.225 1.225 0 0 0-1.139.834 5.27 5.27 0 0 0-.386 2.196 5.102 5.102 0 0 0 .395 2.188 1.273 1.273 0 0 0 1.2.825 1.352 1.352 0 0 0 .646-.144 1.462 1.462 0 0 0 .467-.394l.843 1.578a2.647 2.647 0 0 1-.915.62z"/></svg>