<svg xmlns="http://www.w3.org/2000/svg" role="img" viewBox="-2.18 -2.18 113.23 36.23"><title>Bazinga! (adopter) logo</title><path fill="#F86960" fill-rule="evenodd" d="M0 17.59c0-1.22.18-2.64.54-4.26l2.23-9.56H.85L1.6.45C4.3.45 6.32.33 7.68.08L5.88 8.3l.17-.16a5.9 5.9 0 0 1 2.97-.82c1.39 0 2.53.58 3.42 1.74a7.08 7.08 0 0 1 1.35 4.46 9.9 9.9 0 0 1-2 5.9c-.7.97-1.6 1.75-2.7 2.33a7.6 7.6 0 0 1-3.58.88c-1.8 0-3.16-.45-4.1-1.34A4.87 4.87 0 0 1 0 17.59zm3.92-.52c0 1.56.57 2.35 1.73 2.35.65 0 1.27-.31 1.87-.93a7.74 7.74 0 0 0 1.96-5.08 3.8 3.8 0 0 0-.5-2.09c-.33-.52-.8-.77-1.38-.77-.69 0-1.32.33-1.9 1a6.83 6.83 0 0 0-1.33 2.5c-.3 1-.45 2-.45 3.02zm11.04-.48c0-2.13.64-4.14 1.91-6.04a7.43 7.43 0 0 1 2.46-2.36 6.06 6.06 0 0 1 3.12-.87c1.34 0 2.38.46 3.14 1.4l.1.15.27-.95h4.02l-2.02 9.18a4 4 0 0 0-.11.83c0 .4.09.67.27.8.18.14.54.2 1.1.2l-.75 3.26h-.8a8 8 0 0 1-.8.03c-.94 0-1.62-.17-2.05-.51-.4-.33-.65-.58-.72-.74l-.06-.14-.2.22a5.33 5.33 0 0 1-3.73 1.45c-1.56 0-2.8-.54-3.74-1.61a6.3 6.3 0 0 1-1.4-4.3zm4.12-.04c0 .87.16 1.55.48 2.04.33.5.77.74 1.34.74.66 0 1.28-.3 1.86-.92a6.39 6.39 0 0 0 1.36-2.32 8.5 8.5 0 0 0 .5-2.82c0-1.8-.63-2.7-1.86-2.7-.66 0-1.28.3-1.86.92a6.32 6.32 0 0 0-1.34 2.29 8.35 8.35 0 0 0-.48 2.77zm11.03 5.67l.7-3.25c.1-.11 1.42-1.43 3.97-3.95l3.91-3.87h-6.67l.7-3.23h11.7l-.68 3-3.57 3.72a477.72 477.72 0 0 1-3.9 4.1h6.91c-.54 2.32-1.43 3.48-2.66 3.48H30.11zm14.55-2.92c0-.49.1-1.12.3-1.88l2.13-9.5h4l-1.88 8.46c-.16.81-.24 1.31-.24 1.5 0 .64.38.96 1.14.96l2.95.03 1.77-7.72h-1.69l.71-3.23c2.58 0 4.46-.14 5.66-.4l-.28 1.38.23-.16a6.7 6.7 0 0 1 3.97-1.34c1.04 0 1.88.3 2.5.91.63.6.95 1.4.95 2.39 0 .45-.1 1.13-.31 2.05l-1.06 4.47c-.06.28-.08.54-.08.77 0 .7.57 1.03 1.71.98l-.74 3.25h-1.74a4.08 4.08 0 0 1-2.56-.72 2.4 2.4 0 0 1-.93-2c0-.55.09-1.2.25-1.94l.9-4.18c.14-.76.22-1.26.22-1.48 0-.4-.12-.74-.37-1-.25-.28-.56-.41-.94-.41a2.4 2.4 0 0 0-1.84.84 5 5 0 0 0-1.1 2.32l-1.91 8.57h-8.5c-1.04 0-1.83-.25-2.39-.76a2.78 2.78 0 0 1-.83-2.16zm2.78-16.65c0-.71.25-1.33.75-1.86S49.32 0 50.06 0c.76 0 1.41.26 1.94.78.54.52.8 1.15.8 1.87a2.5 2.5 0 0 1-.8 1.87 2.7 2.7 0 0 1-1.94.77 2.4 2.4 0 0 1-1.88-.8 2.58 2.58 0 0 1-.74-1.84zm20.63 19.11c0-1.5.74-2.65 2.2-3.43l.1-.06-.06-.08a5.82 5.82 0 0 1-1.18-3.64 7.5 7.5 0 0 1 3.65-6.3c1.11-.65 2.3-.99 3.55-.99a5.7 5.7 0 0 1 2.83.72l.35-.26c1.58-1.23 3.13-1.19 4.64.12.05.02.21.18.49.46l-.63.5-1.17.95a40.59 40.59 0 0 0-1.11.92c.4.87.6 1.73.6 2.6a6.8 6.8 0 0 1-2 4.84c-.63.6-1.4 1.1-2.31 1.45-.91.36-1.9.54-2.97.54-.33 0-.92-.06-1.77-.17-.38 0-.67.08-.88.26a.9.9 0 0 0-.32.72c0 .2.03.35.09.45.06.09.22.19.48.29.28.11.69.17 1.23.17h3.1c1.93 0 3.38.37 4.36 1.13a3.89 3.89 0 0 1 1.47 3.28c0 1.78-.81 3.19-2.45 4.22-1.64 1.03-3.87 1.55-6.7 1.55l.79-3.48a7.53 7.53 0 0 0 2.94-.54c.68-.32 1.03-.7 1.06-1.12 0-.26-.05-.48-.14-.67-.1-.19-.2-.33-.34-.42a1.5 1.5 0 0 0-.56-.22 4.3 4.3 0 0 0-.66-.09l-.78-.01h-3.38a4.87 4.87 0 0 1-3.32-1.05c-.8-.7-1.2-1.58-1.2-2.64zm5.26-7.37c0 .68.17 1.21.51 1.61.34.4.8.6 1.37.6.83 0 1.53-.33 2.1-.98.59-.64.87-1.46.87-2.43 0-.7-.19-1.26-.54-1.67a1.74 1.74 0 0 0-1.4-.63c-.8 0-1.48.34-2.05 1.02-.57.68-.86 1.5-.86 2.48zm10.52 2.16c0-2.02.64-4.02 1.93-6a7.43 7.43 0 0 1 2.46-2.36 6.06 6.06 0 0 1 3.12-.87c1.34 0 2.39.46 3.14 1.4l.11.15.22-.95h4.03l-2.05 9.15c-.05.32-.08.6-.08.84 0 .4.09.66.27.8.18.13.55.2 1.1.19l-.72 3.27-1.68.05c-.81 0-1.46-.17-1.94-.51-.37-.26-.63-.51-.78-.77l-.06-.14-.2.22a5.2 5.2 0 0 1-3.7 1.45 4.74 4.74 0 0 1-3.77-1.6 6.34 6.34 0 0 1-1.4-4.32zm4.08-.03c0 .86.17 1.54.5 2.04.34.5.8.74 1.38.74.73 0 1.4-.34 2-1.03.57-.64 1-1.41 1.27-2.3.28-.9.41-1.8.41-2.7 0-1.8-.61-2.7-1.85-2.7-.66 0-1.28.3-1.86.91a6.28 6.28 0 0 0-1.36 2.28 8.18 8.18 0 0 0-.49 2.76zm11.64 3.5c0-.74.25-1.36.76-1.87.5-.5 1.14-.76 1.9-.76.75 0 1.39.26 1.92.77s.8 1.13.8 1.86c0 .72-.27 1.34-.8 1.86s-1.17.78-1.91.78c-.77 0-1.41-.26-1.91-.77a2.57 2.57 0 0 1-.76-1.87zm1.38-4.6l.26-1.27 1.46-7.35.63-3.16.62-3.2H109c-1.32 4.84-2.34 8.7-3.05 11.6-.58 2.27-1.99 3.4-4.23 3.4-.21 0-.36 0-.43-.02h-.34z"/></svg>