<svg xmlns="http://www.w3.org/2000/svg" role="img" xmlns:xlink="http://www.w3.org/1999/xlink" viewBox="96.64 151.64 1110.72 574.72"><style>svg {enable-background:new 0 0 1280 1024}</style><defs><path id="a" d="M632.8 183.2c13.2-13.2 34.6-13.2 47.8 0l3.8 3.8c9.8 13.2 8.7 32-3.3 43.9l-24.2 24.2-24.1-24.1c-13.2-13.2-13.2-34.6 0-47.8zm24.1 198.4l-52.7 52.3c-10.2 10.2-26.9 10.2-37.2 0-10.3-10.1-10.3-26.7 0-36.9l55.8-55.4-55.8-55.4c-10.3-10.1-10.3-26.7 0-36.9 10.2-10.2 26.9-10.2 37.2 0l52.6 52.3 52.7-52.3c10.2-10.2 26.9-10.2 37.2 0 10.3 10.1 10.3 26.7 0 36.9l-55.8 55.4 55.8 55.4c10.3 10.1 10.3 26.7 0 36.9-10.2 10.2-26.9 10.2-37.2 0l-52.6-52.3z"/></defs><clipPath id="b"><use overflow="visible" xlink:href="#a"/></clipPath><path fill="#2a4e82" d="M522.9 136.8H791V478H522.9z" clip-path="url(#b)"/><defs><path id="c" d="M201.3 673.5c21.3 0 34.4-8.5 34.4-24.4v-.5c0-15.1-12-23.9-36.6-23.9h-49.6v48.9h51.8zm-9.1-75.5c20.1 0 33.5-8 33.5-24.3v-.5c0-14.1-11.2-22.7-31.3-22.7h-45v47.3h42.8v.2zm-73.7-59.4c0-9 6.9-15.8 15.7-15.8h64.2c20.3 0 36.4 5.6 46.6 15.8 8 8 12 17.6 12 29.5v.5c0 21.4-12.2 32.9-25.4 39.7 20.8 7.1 35.4 19.2 35.4 43.3v.5c0 31.9-26.2 48.9-65.9 48.9h-66.7c-9 0-15.7-7-15.7-15.8l-.2-146.6z"/></defs><clipPath id="d"><use overflow="visible" xlink:href="#c"/></clipPath><path fill="#2a4f82" d="M81.4 485.7h222.7v252.4H81.4z" clip-path="url(#d)"/><defs><path id="e" d="M389.8 626.6c-2.1-19.6-13.9-35-34.5-35-19.1 0-32.5 14.4-35.4 35h69.9zm-30.9 78.8c-39.5 0-69.9-28-69.9-69v-.5c0-38 27.7-69.2 66.7-69.2 43.3 0 64.8 34.7 64.8 65.5 0 8.5-6.7 14.6-14.8 14.6h-85.4c3.4 21.6 19.1 33.7 39.2 33.7 13.2 0 23.5-4.5 32.3-11.6 2.4-1.8 4.5-2.8 8.1-2.8 7 0 12.4 5.4 12.4 12.4 0 3.9-1.9 7-4.1 9.4-12.8 10.6-28.2 17.5-49.3 17.5z"/></defs><clipPath id="f"><use overflow="visible" xlink:href="#e"/></clipPath><path fill="#2a4f82" d="M252.4 530.1h204.4v211.7H252.4z" clip-path="url(#f)"/><defs><path id="g" d="M453.4 665.9v-71h-5.1c-7.5 0-13.3-5.9-13.3-13.3 0-7.3 6-13.3 13.3-13.3h5.1v-22.9c0-8.5 7-15.3 15.7-15.3 8.5 0 15.4 7 15.4 15.3v22.9h24.4c7.5 0 13.7 5.9 13.7 13.3 0 7.3-6.1 13.3-13.7 13.3h-24.4V661c0 12.1 6.1 16.8 16.7 16.8 3.6 0 6.7-.8 7.7-.8 7 0 13.2 5.6 13.2 12.7 0 5.6-3.9 10.2-8.2 12.1-6.7 2.4-13.2 3.6-21.3 3.6-23 .1-39.2-9.7-39.2-39.5z"/></defs><clipPath id="h"><use overflow="visible" xlink:href="#g"/></clipPath><path fill="#2a4f82" d="M398.5 493.6h160.6v248.2H398.5z" clip-path="url(#h)"/><defs><path id="i" d="M555.6 665.9v-71h-5.1c-7.5 0-13.3-5.9-13.3-13.3 0-7.3 6-13.3 13.3-13.3h5.1v-22.9c0-8.5 7-15.3 15.7-15.3 8.5 0 15.4 7 15.4 15.3v22.9h24.4c7.5 0 13.7 5.9 13.7 13.3 0 7.3-6.1 13.3-13.7 13.3h-24.4V661c0 12.1 6.1 16.8 16.7 16.8 3.6 0 6.7-.8 7.7-.8 7 0 13.2 5.6 13.2 12.7 0 5.6-3.9 10.2-8.2 12.1-6.7 2.4-13.2 3.6-21.3 3.6-23 .1-39.2-9.7-39.2-39.5z"/></defs><clipPath id="j"><use overflow="visible" xlink:href="#i"/></clipPath><path fill="#2a4f82" d="M500.7 493.6h160.6v248.2H500.7z" clip-path="url(#j)"/><g><defs><path id="k" d="M733.1 626.6c-2.1-19.6-13.9-35-34.5-35-19.1 0-32.5 14.4-35.4 35h69.9zM702 705.4c-39.5 0-69.9-28-69.9-69v-.5c0-38 27.7-69.2 66.7-69.2 43.3 0 64.8 34.7 64.8 65.5 0 8.5-6.7 14.6-14.8 14.6h-85.4c3.4 21.6 19.1 33.7 39.2 33.7 13.2 0 23.5-4.5 32.3-11.6 2.4-1.8 4.5-2.8 8.1-2.8 7 0 12.4 5.4 12.4 12.4 0 3.9-1.9 7-4.1 9.4-12.5 10.6-28 17.5-49.3 17.5z"/></defs><clipPath id="l"><use overflow="visible" xlink:href="#k"/></clipPath><path fill="#2a4f82" d="M595.6 530.1H800v211.7H595.6z" clip-path="url(#l)"/></g><g><defs><path id="m" d="M785.4 582.5c0-8.7 6.6-15.7 15.3-15.7 8.7 0 15.7 7 15.7 15.7v13.9c7.1-16.9 20.4-29.8 34-29.8 9.7 0 15.3 6.5 15.3 15.4 0 8.2-5.4 13.7-12.3 14.9-22 3.9-37.1 20.9-37.1 53v40c0 8.6-7 15.4-15.7 15.4-8.5 0-15.3-6.7-15.3-15.4V582.5z"/></defs><clipPath id="n"><use overflow="visible" xlink:href="#m"/></clipPath><path fill="#2a4f82" d="M748.9 530.1h153.3v211.7H748.9z" clip-path="url(#n)"/></g><g><defs><path id="o" d="M955.7 617c23.8 0 38.6-13.4 38.6-32.4v-.5c0-21.2-15.1-32.4-38.6-32.4h-36.6V617h36.6zm-68.1-78.2c0-9.1 7-16 15.8-16h54.8c41.9 0 68.1 24.1 68.1 60.6v.5c0 40.6-32.2 61.8-71.7 61.8H919v43.7c0 8.8-7 15.8-15.7 15.8-9 0-15.8-7.1-15.8-15.8V538.8z"/></defs><clipPath id="p"><use overflow="visible" xlink:href="#o"/></clipPath><path fill="#2a4f82" d="M851.1 486.3h211.7v255.5H851.1z" clip-path="url(#p)"/></g><g><defs><path id="q" d="M1098.3 552.4h-42.9c-8.1 0-14.5-6.7-14.5-14.8 0-8.1 6.4-14.8 14.5-14.8h117.5c7.9 0 14.1 6.7 14.1 14.8 0 8.1-6.4 14.8-14.1 14.8h-43.2v137.1c0 8.8-7.1 15.8-15.6 15.8s-15.6-7.1-15.6-15.8V552.4h-.2z"/></defs><clipPath id="r"><use overflow="visible" xlink:href="#q"/></clipPath><path fill="#2a4f82" d="M1004.5 486.3h219v255.5h-219z" clip-path="url(#r)"/></g></svg>