<svg xmlns="http://www.w3.org/2000/svg" role="img" viewBox="-3.11 -3.11 174.59 29.21"><path d="M5.749 19.443h3.932c3.036 0 4.554-1 4.554-2.932 0-1.897-1.622-2.932-4.795-2.932H5.749zm0-14.142v5.45h3.45c2.587 0 3.932-.966 3.932-2.725 0-1.794-1.38-2.725-3.967-2.725zM.265 22.375v-2.932h2.31V5.301H.266V2.368H9.51c4.243 0 6.83 1.967 6.83 5.382 0 2.242-1.311 3.622-2.967 4.277 2.38.655 4.07 2.346 4.07 4.656 0 3.657-2.828 5.692-7.45 5.692H.265m33.942-10.417c-.345-1.173-1.207-1.863-2.345-1.863-2.656 0-5.174 1.966-5.174 5.554v3.794h5.105v2.932H20.41v-2.932h3.242v-8.83H21.1V7.68h5.553v2.484c.932-1.725 2.829-2.966 5.347-2.966 2.828 0 4.587 1.621 5.105 3.932l-2.898.828m15.523 4.484c-.966-.345-2.414-.62-3.76-.62-1.931 0-3.794.62-3.794 2.38 0 1.31 1.173 1.931 2.794 1.931 2.242 0 4.76-1.207 4.76-3.277zm0-2.621v-.828c0-2.07-1.656-2.932-3.45-2.932-1.69 0-3.138.69-4.311 1.759l-2-2.173c1.38-1.277 3.345-2.45 6.312-2.45 3.69 0 6.554 1.967 6.554 5.692v6.554h2.138v2.932H49.73v-1.552c-.793 1.276-2.932 2.035-5.036 2.035-3.036 0-5.657-1.552-5.657-4.622 0-3.622 3.553-5.002 6.795-5.002 1.587 0 2.898.31 3.898.587m18.007-9.072h-3.415V.265h3.415zm5.657 14.694v2.932H58.561v-2.932h6.14v-8.83h-4.69V7.68h7.726v11.763h5.657m3.657 0h2.242v-8.83H77.19V7.68h5.105v1.898c.897-1.449 2.76-2.38 5.036-2.38 3.277 0 5.623 2.07 5.623 5.415v6.83h2.242v2.932h-7.623v-2.932h2.345v-6.002c0-2.552-1.552-3.277-2.966-3.277-2.312 0-4.622 1.725-4.622 4.38v4.899h2.345v2.932h-7.623v-2.932m22.318-8.83h-3.83V7.68h3.83V2.368h3.035V7.68h7.14v2.933h-7.14v6.174c0 2.277 1.586 3.208 3.415 3.208 1.724 0 3.173-.966 4.242-2.035l2.036 2.104c-1.346 1.449-3.415 2.794-6.278 2.794-3.691 0-6.45-2.035-6.45-5.967v-6.278m29.285 1.345c-.345-1.173-1.207-1.863-2.345-1.863-2.656 0-5.175 1.966-5.175 5.554v3.794h5.106v2.932h-11.383v-2.932h3.242v-8.83h-2.552V7.68h5.553v2.484c.932-1.725 2.829-2.966 5.347-2.966 2.828 0 4.587 1.621 5.105 3.932l-2.898.828m8.176 1.552h9.037c-.448-2.104-2.31-3.518-4.38-3.518-2.346 0-4.14 1.448-4.657 3.518zm12.245 6.623c-1.517 1.587-4.208 2.725-7.209 2.725-4.932 0-8.382-3.312-8.382-7.83 0-4.519 3.346-7.83 8.003-7.83 4.622 0 7.864 3.553 7.864 8.382v.517h-12.659c.517 2.45 2.553 3.932 5.209 3.932 2.207 0 4.104-.896 5.14-2.035l2.034 2.14m6.624-6.624h9.037c-.448-2.104-2.31-3.518-4.38-3.518-2.346 0-4.14 1.448-4.657 3.518zm12.245 6.623c-1.518 1.587-4.208 2.725-7.209 2.725-4.932 0-8.382-3.312-8.382-7.83 0-4.519 3.346-7.83 8.003-7.83 4.622 0 7.864 3.553 7.864 8.382v.517h-12.66c.518 2.45 2.554 3.932 5.21 3.932 2.207 0 4.104-.896 5.14-2.035l2.034 2.14"/></svg>