<svg xmlns="http://www.w3.org/2000/svg" role="img" viewBox="6.06 8.81 386.62 96.12"><path fill="#04acfc" fill-rule="evenodd" d="M35.167 16.5c0 .092-.375.167-.834.167-.458 0-.833.075-.833.166 0 .092-.3.167-.667.167-.366 0-.666.075-.666.167 0 .091-.225.166-.5.166s-.5.075-.5.167c0 .092-.225.167-.5.167s-.5.075-.5.166c0 .092-.225.167-.5.167s-.5.075-.5.167c0 .091-.15.166-.334.166-.183 0-.333.075-.333.167 0 .092-.15.167-.333.167-.184 0-.334.075-.334.166 0 .092-.15.167-.333.167-.183 0-.333.075-.333.167 0 .091-.098.166-.217.166-.307 0-1.114.392-1.115.542-.001.069-.114.125-.252.125-.137 0-.25.075-.25.167 0 .091-.098.166-.218.166s-.38.15-.577.334c-.196.183-.426.333-.511.333-.084 0-.463.3-.84.667-.378.366-.749.666-.824.666-.179 0-2.696 2.518-2.696 2.696 0 .076-.3.446-.667.824-.367.378-.667.791-.667.917 0 .127-.075.23-.166.23-.092 0-.167.113-.167.25s-.075.25-.167.25c-.091 0-.166.133-.166.297 0 .163-.15.404-.334.536-.183.132-.333.374-.333.537 0 .163-.075.297-.167.297-.091 0-.166.15-.166.333 0 .183-.075.333-.167.333-.092 0-.167.15-.167.334 0 .183-.075.333-.166.333-.092 0-.167.15-.167.333 0 .184-.075.334-.167.334-.091 0-.166.15-.166.333 0 .183-.075.333-.167.333-.092 0-.167.225-.167.5s-.075.5-.166.5c-.092 0-.167.225-.167.5s-.075.5-.167.5c-.091 0-.166.225-.166.5s-.075.5-.167.5c-.092 0-.167.3-.167.667 0 .367-.075.667-.166.667-.092 0-.167.375-.167.833 0 .458-.075.833-.167.833-.106 0-.166 1.5-.166 4.167s.06 4.167.166 4.167c.092 0 .167.37.167.823 0 .453.075.87.167.927.091.056.166.398.166.76 0 .361.075.656.167.656.092 0 .167.225.167.5s.075.5.166.5c.092 0 .167.225.167.5s.075.5.167.5c.091 0 .166.225.166.5s.075.5.167.5c.092 0 .167.15.167.334 0 .183.075.333.166.333.092 0 .167.15.167.333 0 .184.075.334.167.334.091 0 .166.15.166.333 0 .183.075.333.167.333.092 0 .167.15.167.334 0 .183.075.333.166.333.092 0 .167.133.167.297 0 .163.15.404.333.536.184.132.334.357.334.5 0 .143.15.368.333.5.183.132.333.344.333.47 0 .127.225.44.5.697.275.257.5.554.5.661 0 .107 1.482 1.651 3.292 3.431 1.81 1.78 3.346 3.294 3.411 3.364 3.116 3.314 15.709 15.711 15.959 15.711.384 0 1.543-1.109 9.842-9.417 6.806-6.812 9.855-9.862 18.246-18.248 3.392-3.389 7.497-7.495 9.122-9.124 6.153-6.166 9.637-9.545 9.842-9.545.117 0 .321-.15.453-.333.132-.183.374-.333.537-.333.163 0 .296-.075.296-.167 0-.092.15-.167.334-.167.183 0 .333-.075.333-.166 0-.092.15-.167.333-.167.184 0 .334-.075.334-.167 0-.091.3-.166.666-.166.367 0 .667-.075.667-.167 0-.1.663-.167 1.657-.167.925 0 1.702.074 1.76.167.056.092.356.167.666.167.31 0 .61.075.667.166.057.092.286.167.51.167.224 0 .407.075.407.167 0 .091.136.166.302.166.166 0 .462.15.659.334.197.183.457.333.578.333.121 0 .329.15.461.333.132.184.338.334.459.334.284 0 1.374 1.09 1.374 1.374 0 .12.15.327.333.459.184.132.334.357.334.5 0 .143.15.368.333.5.196.141.333.431.333.703 0 .255.075.464.167.464.092 0 .167.15.167.333 0 .183.075.333.166.333.092 0 .167.3.167.667 0 .367.075.667.167.667.098 0 .166.611.166 1.5s-.068 1.5-.166 1.5c-.092 0-.167.295-.167.656 0 .362-.075.704-.167.76-.091.057-.166.324-.166.594 0 .269-.075.49-.167.49-.092 0-.167.15-.167.333 0 .183-.075.333-.166.333-.092 0-.167.134-.167.297 0 .163-.15.405-.333.537-.184.132-.338.355-.344.495-.005.14-.722.93-1.591 1.755-.87.825-4.653 4.575-8.406 8.333-10.358 10.371-10.689 10.701-16.452 16.417-2.956 2.933-5.487 5.333-5.625 5.333-.137 0-.25.056-.25.125-.002.15-.809.542-1.116.542-.119 0-.216.075-.216.166 0 .221-3.28.221-3.417 0-.057-.091-.249-.166-.427-.166-.177 0-.323-.075-.323-.167 0-.092-.15-.167-.333-.167-.184 0-.334-.075-.334-.166 0-.092-.115-.167-.256-.167-.141 0-.926-.675-1.744-1.5-1.953-1.97-1.587-2.093-5.461 1.831-6.186 6.266-7.539 7.672-7.539 7.839 0 .229 3.785 3.997 4.015 3.997.102 0 .395.225.652.5s.57.5.697.5c.126 0 .338.15.47.333.132.183.373.333.536.333.164 0 .297.075.297.167 0 .092.15.167.333.167.184 0 .334.075.334.166 0 .092.15.167.333.167.183 0 .333.075.333.167 0 .091.15.166.334.166.183 0 .333.075.333.167 0 .092.15.167.333.167.184 0 .334.075.334.166 0 .092.15.167.333.167.183 0 .333.075.333.167 0 .091.225.166.5.166s.5.075.5.167c0 .092.3.167.667.167.367 0 .667.075.667.166 0 .092.295.167.656.167.362 0 .704.075.76.167.057.091.699.166 1.427.166.771 0 1.323.07 1.323.167 0 .1.667.167 1.667.167s1.667-.067 1.667-.167c0-.097.555-.167 1.333-.167.778 0 1.333-.069 1.333-.166 0-.092.3-.167.667-.167.367 0 .667-.075.667-.167 0-.091.3-.166.666-.166.367 0 .667-.075.667-.167 0-.092.225-.167.5-.167s.5-.075.5-.166c0-.092.15-.167.333-.167.184 0 .334-.075.334-.167 0-.091.15-.166.333-.166.183 0 .333-.075.333-.167 0-.092.15-.167.334-.167.183 0 .333-.075.333-.166 0-.092.15-.167.333-.167.184 0 .334-.075.334-.167 0-.091.133-.166.296-.166.163 0 .405-.15.537-.334.132-.183.357-.333.5-.333.143 0 .368-.15.5-.333.132-.184.336-.334.453-.334.116 0 .595-.375 1.063-.833.468-.458.937-.833 1.043-.834.245 0 7.441-7.238 7.441-7.485 0-.102 2.324-2.49 5.165-5.308 13.525-13.414 21.002-20.98 21.002-21.254 0-.116.15-.32.333-.452.183-.132.333-.357.333-.5 0-.143.15-.368.334-.5.183-.132.333-.374.333-.537 0-.163.075-.297.167-.297.091 0 .166-.15.166-.333 0-.183.075-.333.167-.333.092 0 .167-.15.167-.334 0-.183.068-.333.152-.333.19 0 1.348-2.319 1.348-2.7 0-.154.075-.327.166-.383.092-.057.167-.282.167-.5 0-.219.075-.444.167-.5.091-.057.166-.324.166-.594 0-.269.075-.49.167-.49.092 0 .167-.375.167-.833 0-.458.075-.833.166-.833.093 0 .167-.445.167-1 0-.556.074-1 .167-1 .105 0 .166-1.167.166-3.167 0-2-.061-3.167-.166-3.167-.094 0-.167-.469-.167-1.073 0-.591-.075-1.12-.167-1.177-.091-.056-.166-.398-.166-.76 0-.361-.075-.656-.167-.656-.092 0-.167-.225-.167-.5s-.075-.5-.166-.5c-.092 0-.167-.225-.167-.5s-.075-.5-.167-.5c-.091 0-.166-.183-.166-.407 0-.224-.075-.453-.167-.51-.092-.057-.167-.249-.167-.427 0-.177-.075-.323-.166-.323-.092 0-.167-.15-.167-.333 0-.184-.075-.334-.167-.334-.091 0-.166-.15-.166-.333 0-.185-.111-.333-.25-.333s-.25-.148-.25-.334c0-.183-.075-.333-.167-.333-.092 0-.167-.15-.167-.333 0-.184-.075-.334-.166-.334-.092 0-.167-.15-.167-.333 0-.183-.075-.333-.167-.333-.091 0-.166-.113-.166-.25 0-.138-.075-.25-.167-.25-.092 0-.167-.113-.167-.25 0-.138-.075-.25-.166-.25-.092 0-.167-.096-.167-.214 0-.117-.15-.321-.333-.453-.184-.132-.334-.337-.334-.455 0-.28-4.431-4.712-4.711-4.712-.118 0-.323-.15-.455-.333-.132-.183-.357-.333-.5-.333-.143 0-.368-.15-.5-.334-.132-.183-.357-.333-.5-.333-.143 0-.368-.15-.5-.333-.132-.184-.374-.334-.537-.334-.163 0-.297-.075-.297-.166 0-.092-.15-.167-.333-.167-.183 0-.333-.075-.333-.167 0-.091-.15-.166-.334-.166-.183 0-.333-.075-.333-.167 0-.092-.225-.167-.5-.167s-.5-.075-.5-.166c0-.092-.15-.167-.333-.167-.184 0-.334-.075-.334-.167 0-.091-.225-.166-.5-.166s-.5-.075-.5-.167c0-.092-.225-.167-.5-.167s-.5-.075-.5-.166c0-.092-.3-.167-.666-.167-.367 0-.667-.075-.667-.167 0-.091-.413-.166-.917-.166s-.916-.075-.916-.167c0-.107-1.5-.167-4.167-.167s-4.167.06-4.167.167c0 .093-.444.167-1 .167-.555 0-1 .074-1 .166 0 .092-.3.167-.666.167-.367 0-.667.075-.667.167 0 .091-.225.166-.5.166s-.5.075-.5.167c0 .092-.225.167-.5.167s-.5.075-.5.166c0 .092-.15.167-.333.167-.184 0-.334.075-.334.167 0 .091-.15.166-.333.166-.183 0-.333.075-.333.167 0 .092-.209.167-.464.167-.272 0-.562.137-.703.333-.132.183-.374.333-.537.333-.163 0-.296.075-.296.167 0 .092-.15.167-.334.167-.183 0-.333.075-.333.166 0 .092-.15.167-.333.167-.184 0-.334.062-.334.139 0 .076-.205.244-.456.375a5.684 5.684 0 0 0-1.3.944c-.121.115-.299.209-.396.209-.096 0-1.47 1.317-3.053 2.928-3.014 3.067-10.178 10.242-16.909 16.936a3493.145 3493.145 0 0 0-9.086 9.083c-2.814 2.825-5.796 5.792-6.626 6.594l-1.509 1.458-5.083-5.083c-2.795-2.795-5.082-5.178-5.082-5.296 0-.117-.15-.322-.333-.454-.183-.132-.333-.373-.333-.536 0-.164-.075-.297-.167-.297-.092 0-.167-.225-.167-.5s-.075-.5-.166-.5c-.092 0-.167-.221-.167-.49 0-.27-.075-.537-.167-.593-.097-.06-.166-1.002-.166-2.26 0-1.327.064-2.157.166-2.157.092 0 .167-.225.167-.5s.075-.5.167-.5c.091 0 .166-.105.166-.234 0-.278.695-1.658.875-1.738.069-.031.125-.163.125-.295 0-.298 2.082-2.4 2.377-2.4.119 0 .325-.15.457-.333.132-.183.373-.333.536-.333.164 0 .297-.075.297-.167 0-.092.15-.167.333-.167.184 0 .334-.075.334-.166 0-.092.225-.167.5-.167s.5-.075.5-.167c0-.091.225-.166.5-.166s.5-.075.5-.167c0-.1.663-.167 1.656-.167.925 0 1.703.074 1.76.167.057.092.357.167.667.167.31 0 .61.075.667.166.056.092.246.167.421.167s.586.15.912.333c.326.184.674.334.772.334.097 0 .388.225.645.5s.553.5.658.5c.105 0 .709.525 1.342 1.166 1.665 1.689 1.621 1.701 4.451-1.139 5.591-5.609 8.215-8.389 8.215-8.702 0-.346-4.346-4.825-4.681-4.825-.102 0-.395-.225-.652-.5s-.57-.5-.697-.5c-.126 0-.338-.15-.47-.334-.132-.183-.373-.333-.536-.333-.164 0-.297-.075-.297-.167 0-.091-.15-.166-.333-.166-.184 0-.334-.075-.334-.167 0-.092-.133-.167-.296-.167-.163 0-.405-.15-.537-.333-.141-.196-.431-.333-.703-.333-.255 0-.464-.075-.464-.167 0-.092-.15-.167-.333-.167-.183 0-.333-.075-.333-.166 0-.092-.146-.167-.324-.167-.178 0-.37-.075-.426-.167-.057-.091-.286-.166-.51-.166-.224 0-.407-.075-.407-.167 0-.092-.263-.167-.583-.167-.321 0-.584-.075-.584-.166 0-.092-.3-.167-.666-.167-.367 0-.667-.075-.667-.167 0-.092-.444-.166-1-.166s-1-.074-1-.167c0-.107-1.5-.167-4.167-.167-2.666 0-4.166.06-4.166.167m113.666 25.657c0 16.813.057 25.525.167 25.593.092.057.167.432.167.833 0 .402.075.777.166.834.092.056.167.323.167.593 0 .269.075.49.167.49.091 0 .166.15.166.333 0 .184.075.334.167.334.092 0 .167.173.167.385 0 .212.15.546.333.743.183.197.333.473.333.615 0 .141.075.257.167.257.092 0 .167.101.167.225s.225.461.5.748c.275.288.5.581.5.65.002.287 1.877 2.043 2.181 2.043.102 0 .395.225.652.5s.587.5.734.5c.146 0 .266.075.266.167 0 .092.15.167.333.167.184 0 .334.075.334.166 0 .092.15.167.333.167.183 0 .333.075.333.167 0 .091.15.166.334.166.183 0 .333.075.333.167 0 .092.225.167.5.167s.5.075.5.166c0 .092.3.167.667.167.366 0 .666.075.666.167 0 .091.375.166.834.166.458 0 .833.075.833.167 0 .107 1.611.167 4.5.167 2.889 0 4.5-.06 4.5-.167 0-.092.375-.167.833-.167.459 0 .834-.075.834-.166 0-.092.22-.167.49-.167.269 0 .536-.075.593-.167.057-.091.249-.166.427-.166.177 0 .323-.075.323-.167 0-.092.15-.167.333-.167.184 0 .334-.075.334-.166 0-.092.15-.167.333-.167.183 0 .333-.075.333-.167 0-.091.15-.166.334-.166.183 0 .333-.075.333-.167 0-.092.15-.167.333-.167.184 0 .334-.075.334-.166 0-.092.12-.167.266-.167.147 0 .477-.225.734-.5s.55-.5.653-.5c.26 0 2.68-2.447 2.68-2.711 0-.118.15-.324.333-.456.184-.132.334-.373.334-.536 0-.164.075-.297.166-.297.092 0 .167-.133.167-.297 0-.163.15-.404.333-.536.196-.141.334-.432.334-.704 0-.255.075-.463.166-.463.092 0 .167-.15.167-.333 0-.184.075-.334.167-.334.091 0 .166-.145.166-.323 0-.178.075-.37.167-.427.092-.056.167-.286.167-.51 0-.223.075-.406.166-.406.092 0 .167-.221.167-.49 0-.27.075-.537.167-.594.091-.056.166-.398.166-.76 0-.361.075-.656.167-.656.092 0 .167-.3.167-.667 0-.367.075-.667.166-.667.093 0 .167-.444.167-1 0-.555.074-1 .167-1 .101 0 .166-.722.166-1.833s.066-1.833.167-1.833c.103 0 .167-.889.167-2.334 0-1.444-.064-2.333-.167-2.333-.101 0-.167-.722-.167-1.833s-.065-1.834-.166-1.834c-.092 0-.167-.375-.167-.833 0-.458-.075-.833-.167-.833-.091 0-.166-.375-.166-.834 0-.458-.075-.833-.167-.833-.092 0-.167-.221-.167-.49 0-.27-.075-.537-.166-.593-.092-.057-.167-.324-.167-.594 0-.269-.075-.49-.167-.49-.091 0-.166-.183-.166-.406 0-.224-.075-.454-.167-.51-.092-.057-.167-.249-.167-.427s-.075-.323-.166-.323c-.092 0-.167-.15-.167-.334 0-.183-.075-.333-.167-.333-.091 0-.166-.133-.166-.297 0-.163-.15-.404-.334-.536-.183-.132-.333-.357-.333-.5 0-.143-.15-.368-.333-.5-.184-.132-.334-.337-.334-.456 0-.28-3.43-3.711-3.711-3.711-.118 0-.323-.15-.455-.333-.132-.184-.374-.334-.537-.334-.163 0-.297-.075-.297-.166 0-.092-.15-.167-.333-.167-.183 0-.333-.075-.333-.167 0-.091-.15-.166-.334-.166-.183 0-.333-.075-.333-.167 0-.092-.225-.167-.5-.167s-.5-.075-.5-.166c0-.092-.187-.167-.417-.167-.229 0-.416-.075-.416-.167 0-.091-.3-.166-.667-.166-.367 0-.667-.075-.667-.167 0-.092-.375-.167-.833-.167-.458 0-.833-.075-.833-.166 0-.107-1.667-.167-4.667-.167s-4.667.06-4.667.167c0 .091-.375.166-.833.166h-.833V16.667h-10.834v25.49m153.5-16.907v8.583h-.823c-.453 0-.87-.075-.927-.166-.064-.105-1.835-.167-4.76-.167-2.993 0-4.656.06-4.656.167 0 .091-.375.166-.834.166-.458 0-.833.075-.833.167 0 .092-.3.167-.667.167-.366 0-.666.075-.666.166 0 .092-.225.167-.5.167s-.5.075-.5.167c0 .091-.15.166-.334.166-.183 0-.333.075-.333.167 0 .092-.15.167-.333.167-.184 0-.334.075-.334.166 0 .092-.15.167-.333.167-.183 0-.333.075-.333.167 0 .091-.134.166-.297.166-.163 0-.405.15-.537.334-.132.183-.337.333-.456.333-.198 0-.837.581-3.335 3.032-.482.473-.875.958-.875 1.08 0 .122-.065.221-.143.221-.187 0-1.86 3.331-1.859 3.699.001.155-.073.328-.165.385-.092.056-.167.281-.167.5 0 .218-.075.443-.166.5-.092.056-.167.323-.167.593 0 .269-.075.49-.167.49-.091 0-.166.3-.166.667 0 .366-.075.666-.167.666-.093 0-.167.445-.167 1 0 .556-.074 1-.166 1-.101 0-.167.723-.167 1.834 0 1.111-.066 1.833-.167 1.833-.103 0-.166.889-.166 2.333 0 1.445.063 2.334.166 2.334.101 0 .167.722.167 1.833s.066 1.833.167 1.833c.092 0 .166.445.166 1 0 .556.074 1 .167 1 .092 0 .167.375.167.834 0 .458.075.833.166.833.092 0 .167.221.167.49 0 .27.075.537.167.593.091.057.166.282.166.5 0 .219.075.444.167.5.092.057.167.282.167.5 0 .219.075.444.166.5.092.057.167.249.167.427s.075.323.167.323c.091 0 .166.14.166.31 0 .38 1.002 2.357 1.195 2.357.076 0 .139.115.139.256 0 .299.296.653 2.038 2.43.708.723 1.372 1.314 1.475 1.314.102 0 .396.225.653.5s.587.5.734.5c.146 0 .266.075.266.167 0 .091.15.166.334.166.183 0 .333.075.333.167 0 .092.15.167.333.167.184 0 .334.075.334.166 0 .092.15.167.333.167.183 0 .333.075.333.167 0 .091.15.166.334.166.183 0 .333.075.333.167 0 .092.15.167.333.167.184 0 .334.075.334.166 0 .092.225.167.5.167s.5.075.5.167c0 .091.3.166.666.166.367 0 .667.075.667.167 0 .107 1.667.167 4.667.167s4.666-.06 4.666-.167c0-.092.413-.167.917-.167s.917-.075.917-.166c0-.092.258-.167.573-.167.316 0 .62-.075.677-.167.056-.091.323-.166.593-.166.269 0 .49-.075.49-.167 0-.092.15-.167.333-.167.184 0 .334-.075.334-.166 0-.092.15-.167.333-.167.183 0 .333-.075.333-.167 0-.091.15-.166.334-.166.183 0 .333-.075.333-.167 0-.092.12-.167.266-.167.147 0 .477-.225.734-.5s.551-.5.654-.5c.243 0 2.013-1.769 2.013-2.013 0-.102.225-.396.5-.653s.5-.571.5-.697.15-.338.333-.47c.183-.132.333-.374.333-.537 0-.163.075-.296.167-.296.092 0 .167-.15.167-.334 0-.183.075-.333.166-.333.092 0 .167-.225.167-.5s.075-.5.167-.5c.091 0 .166-.225.166-.5s.075-.5.167-.5c.092 0 .167-.3.167-.667 0-.366.075-.666.166-.666.111 0 .167-8.695.167-25.75v-25.75h-10.667v8.583m33.25 8.083c-.056.092-.698.167-1.426.167-.771 0-1.324.07-1.324.167 0 .091-.3.166-.666.166-.367 0-.667.075-.667.167 0 .092-.225.167-.5.167s-.5.075-.5.166c0 .092-.225.167-.5.167s-.5.075-.5.167c0 .091-.15.166-.333.166-.184 0-.334.075-.334.167 0 .092-.15.167-.333.167-.183 0-.333.075-.333.166 0 .092-.134.167-.297.167-.163 0-.405.15-.537.333-.132.184-.337.334-.455.334-.281 0-3.378 3.096-3.378 3.377 0 .119-.15.324-.333.456-.184.132-.334.374-.334.537 0 .163-.075.296-.166.296-.092 0-.167.134-.167.297 0 .163-.15.405-.333.537-.184.132-.334.373-.334.536 0 .164-.075.297-.166.297-.092 0-.167.225-.167.5s-.075.5-.167.5c-.091 0-.166.15-.166.333 0 .184-.075.334-.167.334-.092 0-.167.225-.167.5s-.075.5-.166.5c-.092 0-.167.22-.167.49 0 .269-.075.536-.167.593-.091.057-.166.324-.166.593 0 .27-.075.49-.167.49-.092 0-.167.375-.167.834 0 .458-.075.833-.166.833-.092 0-.167.375-.167.833 0 .459-.075.834-.167.834-.1 0-.166.666-.166 1.666 0 1-.067 1.667-.167 1.667-.105 0-.167 1.167-.167 3.167 0 2 .062 3.166.167 3.166.1 0 .167.667.167 1.667s.066 1.667.166 1.667c.092 0 .167.375.167.833 0 .458.075.833.167.833.091 0 .166.338.166.75 0 .413.075.75.167.75.092 0 .167.3.167.667 0 .367.075.667.166.667.092 0 .167.225.167.5s.075.5.167.5c.091 0 .166.15.166.333 0 .183.075.333.167.333.092 0 .167.225.167.5s.075.5.166.5c.092 0 .167.15.167.334 0 .183.075.333.167.333.091 0 .166.133.166.297 0 .163.15.404.334.536.183.132.333.357.333.5 0 .143.15.368.333.5.184.132.334.338.334.456 0 .264 2.42 2.711 2.68 2.711.102 0 .396.225.653.5s.587.5.734.5c.146 0 .266.075.266.167 0 .091.15.166.333.166.184 0 .334.075.334.167 0 .092.15.167.333.167.183 0 .333.075.333.166 0 .092.15.167.334.167.183 0 .333.075.333.167 0 .091.15.166.333.166.184 0 .334.075.334.167 0 .092.15.167.333.167.183 0 .333.075.333.166 0 .092.3.167.667.167.367 0 .667.075.667.167 0 .091.375.166.833.166.458 0 .833.075.833.167 0 .107 1.75.167 4.917.167s4.917-.06 4.917-.167c0-.093.444-.167 1-.167.555 0 1-.074 1-.166 0-.092.3-.167.666-.167.367 0 .667-.075.667-.167 0-.091.3-.166.667-.166.366 0 .666-.075.666-.167 0-.092.225-.167.5-.167s.5-.075.5-.166c0-.092.225-.167.5-.167s.5-.075.5-.167c0-.091.225-.166.5-.166s.5-.075.5-.167c0-.092.15-.167.334-.167.183 0 .333-.075.333-.166 0-.092.15-.167.333-.167.184 0 .334-.075.334-.167 0-.091.15-.166.333-.166.183 0 .333-.075.333-.167 0-.092.15-.167.334-.167.183 0 .333-.075.333-.166 0-.092.15-.167.333-.167.326 0 .334-.111.334-4.667v-4.666H354c-.367 0-.667.075-.667.166 0 .092-.15.167-.333.167-.183 0-.333.075-.333.167 0 .091-.225.166-.5.166s-.5.075-.5.167c0 .092-.15.167-.334.167-.183 0-.333.075-.333.166 0 .092-.225.167-.5.167s-.5.075-.5.167c0 .091-.225.166-.5.166s-.5.075-.5.167c0 .092-.225.167-.5.167s-.5.075-.5.166c0 .092-.3.167-.667.167-.366 0-.666.075-.666.167 0 .091-.375.166-.834.166-.458 0-.833.075-.833.167 0 .097-.556.167-1.333.167-.778 0-1.334.069-1.334.166 0 .102-.777.167-2 .167-1.222 0-2-.065-2-.167 0-.094-.472-.166-1.083-.166s-1.083-.073-1.083-.167c0-.092-.225-.167-.5-.167s-.5-.075-.5-.166c0-.092-.15-.167-.334-.167-.183 0-.333-.075-.333-.167 0-.091-.15-.166-.333-.166-.184 0-.334-.075-.334-.167 0-.092-.133-.167-.296-.167-.163 0-.405-.15-.537-.333-.132-.183-.34-.333-.461-.333-.304 0-1.039-.761-1.039-1.076 0-.142-.075-.258-.167-.258-.091 0-.166-.15-.166-.333 0-.183-.075-.333-.167-.333-.092 0-.167-.15-.167-.334 0-.183-.075-.333-.166-.333-.092 0-.167-.187-.167-.417 0-.229-.075-.416-.167-.416-.091 0-.166-.3-.166-.667 0-.367-.075-.667-.167-.667-.093 0-.167-.444-.167-.999v-.999l13.625-.042 13.625-.043.045-4.822c.028-3.102-.017-4.883-.125-4.992-.093-.093-.17-.604-.17-1.136 0-.533-.074-.967-.166-.967-.092 0-.167-.375-.167-.833 0-.458-.075-.833-.167-.833-.091 0-.166-.225-.166-.5s-.075-.5-.167-.5c-.092 0-.167-.21-.167-.467s-.062-.538-.137-.625c-.076-.087-.238-.478-.361-.869s-.323-.794-.446-.895c-.122-.102-.222-.288-.222-.415 0-.126-.075-.229-.167-.229-.092 0-.167-.15-.167-.334 0-.183-.075-.333-.166-.333-.092 0-.167-.15-.167-.333 0-.184-.075-.334-.167-.334-.091 0-.166-.133-.166-.296 0-.163-.15-.405-.334-.537-.183-.132-.333-.357-.333-.5 0-.143-.15-.368-.333-.5-.184-.132-.334-.337-.334-.456 0-.281-2.763-3.044-3.044-3.044-.118 0-.324-.15-.456-.333-.132-.184-.357-.334-.5-.334-.143 0-.368-.15-.5-.333-.132-.183-.373-.333-.536-.333-.164 0-.297-.075-.297-.167 0-.092-.225-.167-.5-.167s-.5-.075-.5-.166c0-.092-.15-.167-.333-.167-.184 0-.334-.075-.334-.167 0-.091-.225-.166-.5-.166s-.5-.075-.5-.167c0-.092-.3-.167-.666-.167-.367 0-.667-.075-.667-.166 0-.098-.556-.167-1.333-.167-.778 0-1.334-.069-1.334-.167 0-.103-.885-.166-2.323-.166-1.369 0-2.366.068-2.427.166m-89.75.334c0 .096-.527.166-1.25.166-.722 0-1.25.071-1.25.167 0 .092-.375.167-.833.167-.458 0-.833.075-.833.166 0 .092-.3.167-.667.167-.367 0-.667.075-.667.167 0 .091-.225.166-.5.166s-.5.075-.5.167c0 .092-.225.167-.5.167s-.5.075-.5.166c0 .092-.225.167-.5.167s-.5.075-.5.167c0 .091-.225.166-.5.166s-.5.075-.5.167c0 .092-.15.167-.333.167-.183 0-.333.075-.333.166 0 .092-.225.167-.5.167s-.5.075-.5.167c0 .091-.15.166-.334.166-.183 0-.333.075-.333.167 0 .092-.15.167-.333.167-.184 0-.334.075-.334.166 0 .092-.15.167-.333.167-.183 0-.333.075-.333.167 0 .091-.15.166-.334.166-.183 0-.333.075-.333.167 0 .092-.15.167-.333.167-.332 0-.334.111-.334 20.666V79.5h11V44.167H243c.367 0 .667-.075.667-.167 0-.097.555-.167 1.333-.167.778 0 1.333-.069 1.333-.166 0-.106 1.195-.167 3.25-.167 2.056 0 3.25.061 3.25.167 0 .091.375.166.834.166.458 0 .833.075.833.167 0 .092.225.167.5.167s.5.075.5.166c0 .092.15.167.333.167.184 0 .334.075.334.167 0 .091.115.166.255.166.312 0 1.411 1.071 1.411 1.375 0 .12.15.327.334.459.183.132.333.369.333.527 0 .157.075.333.167.389.091.057.166.282.166.5 0 .219.075.444.167.5.092.057.167.624.167 1.26 0 .66.071 1.157.166 1.157.11 0 .167 4.861.167 14.25V79.5h10.833V64.75c0-9.722-.056-14.75-.166-14.75-.098 0-.167-.556-.167-1.333 0-.778-.069-1.334-.167-1.334-.091 0-.166-.295-.166-.656 0-.362-.075-.704-.167-.76-.092-.057-.167-.357-.167-.667 0-.31-.075-.61-.166-.667-.092-.056-.167-.281-.167-.5 0-.218-.075-.443-.167-.5-.091-.056-.166-.248-.166-.426s-.075-.324-.167-.324c-.092 0-.167-.15-.167-.333 0-.183-.075-.333-.166-.333-.092 0-.167-.15-.167-.334 0-.183-.075-.333-.167-.333-.091 0-.166-.098-.166-.219 0-.12-.15-.379-.334-.576-.183-.197-.333-.431-.333-.52 0-.349-3.179-3.352-3.548-3.352-.117 0-.32-.15-.452-.333-.132-.183-.357-.333-.5-.333-.143 0-.368-.15-.5-.334-.132-.183-.374-.333-.537-.333-.163 0-.296-.075-.296-.167 0-.091-.15-.166-.334-.166-.183 0-.333-.075-.333-.167 0-.092-.225-.167-.5-.167s-.5-.075-.5-.166c0-.092-.225-.167-.5-.167s-.5-.075-.5-.167c0-.091-.225-.166-.5-.166s-.5-.075-.5-.167c0-.092-.375-.167-.833-.167-.459 0-.834-.075-.834-.166 0-.108-1.777-.167-5-.167-3.222 0-5 .059-5 .167m134.167 0c0 .095-.5.166-1.167.166-.666 0-1.166.072-1.166.167 0 .093-.445.167-1 .167-.556 0-1 .074-1 .166 0 .092-.3.167-.667.167-.367 0-.667.075-.667.167 0 .091-.3.166-.666.166-.367 0-.667.075-.667.167 0 .092-.296.167-.657.167-.361 0-.703.075-.76.166-.056.092-.398.167-.76.167-.361 0-.656.075-.656.167 0 .091-.258.166-.574.166-.315 0-.62.075-.676.167-.057.092-.324.167-.594.167-.269 0-.49.075-.49.166 0 .092-.225.167-.5.167s-.5.075-.5.167c0 .091-.15.166-.333.166-.183 0-.333.075-.333.167 0 .092-.225.167-.5.167s-.5.075-.5.166c0 .092-.15.167-.334.167-.183 0-.333.075-.333.167 0 .091-.15.166-.333.166-.332 0-.334.111-.334 20.834V79.5h10.834v-35h.666c.367 0 .667-.075.667-.167 0-.091.3-.166.667-.166.366 0 .666-.075.666-.167 0-.093.445-.167 1-.167.556 0 1-.074 1-.166 0-.099.611-.167 1.5-.167s1.5-.068 1.5-.167c0-.098.611-.166 1.5-.166h1.5V33.5h-2.666c-1.667 0-2.667.063-2.667.167M186.5 34.74c0 .316.075.62.167.677.091.056.166.281.166.5 0 .218.075.443.167.5.092.056.167.248.167.426s.075.324.166.324c.092 0 .167.225.167.5s.075.5.167.5c.091 0 .166.225.166.5s.075.5.167.5c.092 0 .167.225.167.5s.075.5.166.5c.092 0 .167.183.167.406 0 .224.075.454.167.51.091.057.166.249.166.427s.075.323.167.323c.092 0 .167.225.167.5s.075.5.166.5c.092 0 .167.225.167.5s.075.5.167.5c.091 0 .166.173.166.384 0 .211.062.454.138.541.076.087.24.485.366.885.125.399.326.763.446.809.119.046.217.338.217.649s.075.566.167.566c.091 0 .166.225.166.5s.075.5.167.5c.092 0 .167.225.167.5s.075.5.166.5c.092 0 .167.225.167.5s.075.5.167.5c.091 0 .166.225.166.5s.075.5.167.5c.092 0 .167.15.167.333 0 .183.075.333.166.333.092 0 .167.225.167.5s.075.5.167.5c.091 0 .166.225.166.5s.075.5.167.5c.092 0 .167.225.167.5s.075.5.166.5c.092 0 .167.225.167.5s.075.5.167.5c.091 0 .166.15.166.334 0 .183.075.333.167.333.092 0 .167.225.167.5s.075.5.166.5c.092 0 .167.225.167.5s.075.5.167.5c.091 0 .166.225.166.5s.075.5.167.5c.092 0 .167.225.167.5s.075.5.166.5c.092 0 .167.15.167.333 0 .184.075.334.167.334.091 0 .166.225.166.5s.075.5.167.5c.092 0 .167.225.167.5s.075.5.166.5c.092 0 .167.225.167.5s.075.5.167.5c.091 0 .166.225.166.5s.075.5.167.5c.092 0 .167.225.167.5s.075.5.166.5c.092 0 .167.187.167.416 0 .23.075.417.167.417.091 0 .166.225.166.5s.075.5.167.5c.092 0 .167.225.167.5s.075.5.166.5c.092 0 .167.225.167.5s.075.5.167.5c.091 0 .166.225.166.5s.075.5.167.5c.092 0 .167.15.167.333 0 .184.075.334.166.334.092 0 .167.225.167.5s.075.5.167.5c.091 0 .166.225.166.5s.075.5.167.5c.092 0 .167.225.167.5s.075.5.166.5c.092 0 .167.225.167.5s.075.5.167.5c.091 0 .166.375.166.833 0 .458-.075.833-.166.833-.092 0-.167.15-.167.334 0 .183-.075.333-.167.333-.091 0-.166.225-.166.5s-.075.5-.167.5c-.092 0-.167.15-.167.333 0 .184-.075.334-.166.334-.092 0-.166.093-.166.208.002.264-1.371 3.023-1.541 3.097-.07.031-.127.162-.127.292 0 .13-.075.236-.166.236-.092 0-.167.12-.167.266 0 .147-.225.477-.5.734s-.5.587-.5.734c0 .146-.12.266-.266.266-.147 0-.477.225-.734.5s-.587.5-.734.5c-.146 0-.266.075-.266.167 0 .1-.663.166-1.657.166-.925 0-1.702-.073-1.76-.166-.056-.092-.323-.167-.593-.167-.269 0-.49-.075-.49-.167 0-.091-.225-.166-.5-.166s-.5-.075-.5-.167c0-.092-.225-.167-.5-.167h-.5v4.762c0 5.159.014 5.238.905 5.238.235 0 .428.075.428.167 0 .092.263.167.584.167.32 0 .583.075.583.166 0 .092.375.167.833.167.459 0 .834.075.834.167 0 .103.944.166 2.5.166 1.555 0 2.5-.063 2.5-.166 0-.092.3-.167.666-.167.367 0 .667-.075.667-.167 0-.091.225-.166.5-.166s.5-.075.5-.167c0-.092.15-.167.333-.167.184 0 .334-.075.334-.166 0-.092.15-.167.333-.167.183 0 .333-.075.333-.167 0-.091.134-.166.297-.166.163 0 .405-.15.537-.334.132-.183.337-.333.455-.333.281 0 3.378-3.097 3.378-3.378 0-.118.15-.323.333-.455.184-.132.334-.357.334-.5 0-.143.15-.368.333-.5.183-.132.333-.374.333-.537 0-.163.075-.297.167-.297.092 0 .167-.15.167-.333 0-.183.075-.333.166-.333.092 0 .167-.15.167-.334 0-.183.075-.333.167-.333.091 0 .166-.15.166-.333 0-.184.075-.334.167-.334.092 0 .167-.15.167-.333 0-.183.075-.333.166-.333.092 0 .167-.15.167-.334 0-.183.061-.333.135-.333.168 0 .698-1.182.698-1.556 0-.153.075-.277.167-.277.092 0 .167-.15.167-.334 0-.183.075-.333.166-.333.092 0 .167-.225.167-.5s.075-.5.167-.5c.091 0 .166-.146.166-.323 0-.178.075-.37.167-.427.092-.057.167-.286.167-.51 0-.224.075-.407.166-.407.092 0 .167-.225.167-.5s.075-.5.167-.5c.091 0 .166-.225.166-.5s.075-.5.167-.5c.092 0 .167-.225.167-.5s.075-.5.166-.5c.092 0 .167-.225.167-.5s.075-.5.167-.5c.091 0 .166-.225.166-.5s.075-.5.167-.5c.092 0 .167-.225.167-.5s.075-.5.166-.5c.092 0 .167-.225.167-.5s.075-.5.167-.5c.091 0 .166-.225.166-.5s.075-.5.167-.5c.092 0 .167-.225.167-.5s.075-.5.166-.5c.092 0 .167-.225.167-.5s.075-.5.167-.5c.091 0 .166-.225.166-.5s.075-.5.167-.5c.092 0 .167-.22.167-.49 0-.269.075-.536.166-.593.092-.057.167-.282.167-.5 0-.218.075-.443.167-.5.091-.057.166-.282.166-.5 0-.218.075-.443.167-.5.092-.057.167-.324.167-.593 0-.27.075-.49.166-.49.092 0 .167-.225.167-.5s.075-.5.167-.5c.091 0 .166-.225.166-.5s.075-.5.167-.5c.092 0 .167-.225.167-.5s.075-.5.166-.5c.092 0 .167-.225.167-.5s.075-.5.167-.5c.091 0 .166-.225.166-.5s.075-.5.167-.5c.092 0 .167-.225.167-.5s.075-.5.166-.5c.092 0 .167-.225.167-.5s.075-.5.167-.5c.091 0 .166-.225.166-.5s.075-.5.167-.5c.092 0 .167-.225.167-.5s.075-.5.166-.5c.092 0 .167-.225.167-.5s.075-.5.167-.5c.091 0 .166-.225.166-.5s.075-.5.167-.5c.092 0 .167-.225.167-.5s.075-.5.166-.5c.092 0 .167-.225.167-.5s.075-.5.167-.5c.091 0 .166-.225.166-.5s.075-.5.167-.5c.092 0 .167-.225.167-.5s.075-.5.166-.5c.092 0 .167-.225.167-.5s.075-.5.167-.5c.091 0 .166-.225.166-.5s.075-.5.167-.5c.092 0 .167-.221.167-.49 0-.27.075-.537.166-.594.092-.056.167-.323.167-.593 0-.269.075-.49.167-.49.091 0 .166-.225.166-.5s.075-.5.167-.5c.092 0 .167-.225.167-.5s.075-.5.166-.5c.092 0 .167-.225.167-.5s.075-.5.167-.5c.091 0 .166-.225.166-.5s.075-.5.167-.5c.092 0 .167-.225.167-.5s.075-.5.166-.5c.092 0 .167-.225.167-.5s.075-.5.167-.5c.091 0 .166-.225.166-.5s.075-.5.167-.5c.092 0 .167-.225.167-.5s.075-.5.166-.5c.092 0 .167-.15.167-.333 0-.184.075-.334.167-.334.091 0 .166-.225.166-.5s.075-.5.167-.5c.092 0 .167-.225.167-.5s.075-.5.166-.5c.092 0 .167-.375.167-.833v-.833h-5.333c-5.223 0-5.334.007-5.334.333 0 .183-.075.333-.166.333-.092 0-.167.3-.167.667 0 .367-.075.667-.167.667-.091 0-.166.225-.166.5s-.075.5-.167.5c-.092 0-.167.3-.167.666 0 .367-.075.667-.166.667-.092 0-.167.225-.167.5s-.075.5-.167.5c-.091 0-.166.225-.166.5s-.075.5-.167.5c-.092 0-.167.3-.167.667 0 .366-.075.666-.166.666-.092 0-.167.225-.167.5s-.075.5-.167.5c-.091 0-.166.225-.166.5s-.075.5-.167.5c-.092 0-.167.3-.167.667 0 .367-.075.667-.166.667-.092 0-.167.22-.167.49 0 .269-.075.536-.167.593-.091.057-.166.399-.166.76s-.075.657-.167.657c-.092 0-.167.225-.167.5s-.075.5-.166.5c-.092 0-.167.225-.167.5s-.075.5-.167.5c-.091 0-.166.3-.166.666 0 .367-.075.667-.167.667-.092 0-.167.225-.167.5s-.075.5-.166.5c-.092 0-.167.225-.167.5s-.075.5-.167.5c-.091 0-.166.3-.166.667 0 .366-.075.666-.167.666-.092 0-.167.225-.167.5s-.075.5-.166.5c-.092 0-.167.3-.167.667 0 .367-.075.667-.167.667-.091 0-.166.225-.166.5s-.058.5-.128.5c-.162 0-.706 1.517-.706 1.971 0 .188-.075.389-.166.445-.092.057-.167.282-.167.5 0 .219-.075.444-.167.5-.091.057-.166.357-.166.667 0 .31-.075.61-.167.667-.092.056-.169.267-.172.468-.006.417-.39.997-.553.835-.059-.06-.108-.321-.108-.581 0-.26-.075-.472-.167-.472-.092 0-.167-.225-.167-.5s-.075-.5-.166-.5c-.092 0-.167-.3-.167-.667 0-.367-.075-.667-.167-.667-.091 0-.166-.225-.166-.5s-.075-.5-.167-.5c-.092 0-.167-.225-.167-.5s-.075-.5-.166-.5c-.092 0-.167-.225-.167-.5s-.075-.5-.167-.5c-.091 0-.166-.3-.166-.666 0-.367-.075-.667-.167-.667-.092 0-.167-.225-.167-.5s-.075-.5-.166-.5c-.092 0-.167-.225-.167-.5s-.075-.5-.167-.5c-.091 0-.166-.3-.166-.667 0-.366-.075-.666-.167-.666-.092 0-.167-.225-.167-.5s-.075-.5-.166-.5c-.092 0-.167-.225-.167-.5s-.075-.5-.167-.5c-.091 0-.166-.3-.166-.667 0-.367-.075-.667-.167-.667-.092 0-.167-.225-.167-.5s-.075-.5-.166-.5c-.092 0-.167-.225-.167-.5s-.075-.5-.167-.5c-.091 0-.166-.3-.166-.666 0-.367-.075-.667-.167-.667-.092 0-.167-.263-.167-.583 0-.321-.075-.584-.166-.584-.092 0-.167-.225-.167-.5s-.075-.5-.167-.5c-.091 0-.166-.258-.166-.573 0-.316-.075-.62-.167-.677-.092-.056-.167-.323-.167-.593 0-.269-.075-.49-.166-.49-.092 0-.167-.225-.167-.5s-.075-.5-.167-.5c-.091 0-.166-.3-.166-.667 0-.366-.075-.666-.167-.666-.092 0-.167-.225-.167-.5s-.075-.5-.166-.5c-.092 0-.167-.225-.167-.5s-.075-.5-.167-.5c-.091 0-.166-.3-.166-.667 0-.367-.075-.667-.167-.667-.092 0-.167-.225-.167-.5s-.075-.5-.166-.5c-.092 0-.167-.15-.167-.333 0-.327-.111-.333-5.75-.333h-5.75v.573m-18.167 7.927c0 .091.225.166.5.166s.5.075.5.167c0 .092.098.167.217.167.307 0 1.114.392 1.115.541.001.069.118.125.259.125.142 0 .433.169.648.375.214.207.659.6.989.875.329.275.6.615.602.755.002.14.154.363.337.495.183.132.333.37.333.527 0 .158.075.333.167.39.092.057.167.324.167.593 0 .27.075.49.166.49.092 0 .167.225.167.5s.075.5.167.5c.091 0 .166.375.166.834 0 .458.075.833.167.833.108 0 .167 1.833.167 5.167 0 3.333-.059 5.166-.167 5.166-.093 0-.167.445-.167 1 0 .556-.074 1-.166 1-.092 0-.167.3-.167.667 0 .367-.075.667-.167.667-.091 0-.166.262-.166.583 0 .321-.075.583-.167.583-.092 0-.167.15-.167.334 0 .183-.075.333-.166.333-.092 0-.167.133-.167.297 0 .163-.15.404-.333.536-.184.132-.334.374-.334.537 0 .163-.064.297-.142.297-.078 0-.377.225-.665.5-.288.275-.636.5-.774.5-.139 0-.253.056-.253.125-.002.149-.809.541-1.116.541-.119 0-.216.075-.216.167 0 .092-.3.167-.667.167-.367 0-.667.075-.667.166 0 .1-.666.167-1.666.167-1 0-1.667-.067-1.667-.167 0-.091-.375-.166-.833-.166-.459 0-.834-.075-.834-.167 0-.092-.225-.167-.5-.167s-.5-.075-.5-.166c0-.092-.114-.167-.253-.167-.437 0-2.08-1.775-2.08-2.246 0-.232-.075-.421-.167-.421-.109 0-.166-4.055-.166-11.833 0-11.722.003-11.833.333-11.833.183 0 .333-.075.333-.167 0-.092.375-.167.834-.167.458 0 .833-.075.833-.166 0-.106 1.167-.167 3.167-.167 2 0 3.166.061 3.166.167m131.667 0c0 .091.375.166.833.166.459 0 .834.075.834.167 0 .092.15.167.333.167.33 0 .333.111.333 12 0 7.889-.057 12-.166 12-.092 0-.167.15-.167.333 0 .183-.075.333-.167.333-.091 0-.166.118-.166.262 0 .321-.396.738-.702.738-.123 0-.333.15-.465.334-.132.183-.374.333-.537.333-.163 0-.296.075-.296.167 0 .091-.221.166-.49.166-.27 0-.537.075-.594.167-.056.092-.473.167-.926.167-.453 0-.824.075-.824.166 0 .1-.666.167-1.666.167-1 0-1.667-.067-1.667-.167 0-.091-.3-.166-.667-.166-.366 0-.666-.075-.666-.167 0-.092-.15-.167-.334-.167-.183 0-.333-.075-.333-.166 0-.092-.15-.167-.333-.167-.184 0-.334-.075-.334-.167 0-.091-.115-.166-.255-.166-.312 0-1.411-1.071-1.411-1.375 0-.12-.15-.327-.334-.459-.183-.132-.333-.373-.333-.536 0-.164-.075-.297-.167-.297-.091 0-.166-.15-.166-.333 0-.184-.075-.334-.167-.334-.092 0-.167-.22-.167-.49 0-.269-.075-.536-.166-.593-.092-.057-.167-.399-.167-.76s-.075-.657-.167-.657c-.092 0-.166-.444-.166-1 0-.555-.074-1-.167-1-.104 0-.167-.995-.167-2.652 0-1.96-.054-2.679-.208-2.75-.167-.078-.167-.117 0-.195.152-.071.208-.724.208-2.417 0-1.435.064-2.319.167-2.319.092 0 .167-.375.167-.833 0-.459.075-.834.166-.834.092 0 .167-.22.167-.49 0-.269.075-.536.167-.593.091-.057.166-.324.166-.593 0-.27.075-.49.167-.49.092 0 .167-.15.167-.334 0-.183.075-.333.166-.333.092 0 .167-.114.167-.253 0-.33 2.084-2.414 2.414-2.414.139 0 .253-.075.253-.166 0-.092.15-.167.333-.167.183 0 .333-.075.333-.167 0-.091.15-.166.334-.166.183 0 .333-.075.333-.167 0-.092.225-.167.5-.167s.5-.075.5-.166c0-.106 1.194-.167 3.25-.167s3.25.061 3.25.167m39.667.333c0 .092.15.167.333.167.183 0 .333.075.333.166 0 .092.15.167.334.167.183 0 .333.075.333.167 0 .091.114.166.254.166.308 0 2.079 1.74 2.079 2.043 0 .12.15.325.334.457.183.132.333.374.333.537 0 .163.075.297.167.297.091 0 .166.145.166.323 0 .178.075.37.167.427.092.056.167.248.167.426s.075.324.166.324c.092 0 .167.225.167.5s.075.5.167.5c.091 0 .166.3.166.666 0 .367.075.667.167.667.092 0 .167.375.167.833 0 .459.075.834.166.834.092 0 .167.075.167.166 0 .109-2.806.167-8.083.167h-8.084v-1.167c0-.666.072-1.166.167-1.166.092 0 .167-.3.167-.667 0-.367.075-.667.166-.667.092 0 .167-.262.167-.583 0-.321.075-.583.167-.583.091 0 .166-.225.166-.5s.075-.5.167-.5c.092 0 .167-.15.167-.334 0-.183.075-.333.166-.333.092 0 .167-.114.167-.253 0-.33 2.084-2.414 2.414-2.414.139 0 .253-.075.253-.166 0-.092.15-.167.333-.167.183 0 .333-.075.333-.167 0-.091.225-.166.5-.166s.5-.075.5-.167c0-.101.75-.167 1.917-.167s1.917.066 1.917.167"/></svg>