<svg xmlns="http://www.w3.org/2000/svg" role="img" viewBox="-5.60 -6.10 330.20 122.20"><defs><clipPath id="a" clipPathUnits="userSpaceOnUse"><path d="M183.602 198.871c0 38.125 9.437 74.238 28.035 105.047l1.351 1.715c.371.64.825 1.39 1.481 2.469.851 1.394 1.199 1.988 2.211 3.746 2.836 4.187 5.82 8.183 8.953 11.98-3.438-1.453-6.805-3.101-10.082-4.945l-4.668-2.754c-4.121-2.43-9.235-2.43-13.352 0l-4.625 2.726c-30.453 17.809-69.269 17.809-100.2849-.308-13.8164-7.195-25.1602-17.543-33.2617-30.293l-1.875-2.32c-.2774-.27-.4375-.524-1.2383-2.098l-1.8711-2.555C40.1211 257 32.4609 228.465 32.4609 199.789c0-92.473 76.8401-167.7812 170.8121-167.7812h2.332c1.051 0 1.051 0 1.891-.0078 17.715.6016 34.125 3.2656 49.145 8.0234-46.442 40.4454-73.899 98.0786-73.039 158.8476zm26.265-.187c-.844-59.676 29.719-116.0668 80.321-151.6137 8.167-5.7383 7.203-18.125-1.754-22.5312-23.621-11.6172-50.469-17.78519-80.493-18.79691h-4.668C94.9102 5.74219 6.19531 92.6953 6.19531 199.789c0 33.719 9.10549 67.242 26.12889 95.801l1.2774 1.629c1.3593 2.547 2.5429 4.344 4.332 6.277 10.5391 16.141 25.0703 29.238 41.9922 38.031 37.9882 22.215 85.9412 22.594 124.3122 1.106 20.719 11.215 43.84 16.402 66.848 15.371 13.156-.586 17.355-18.012 5.914-24.527-15.344-8.739-28.039-20.817-37.742-34.95-.606-1.191-1.113-2.05-2.363-4.101-.852-1.391-1.2-1.985-1.372-2.324l-1.91-2.61c-15.711-26.398-23.742-57.504-23.746-90.808z"/></clipPath><clipPath id="b" clipPathUnits="userSpaceOnUse"><path d="M0 0h2390v830H0z"/></clipPath><clipPath id="c" clipPathUnits="userSpaceOnUse"><path d="M587.91 199.789c0 27.09-7.351 55.324-19.863 78.18-.449.82-.809 1.679-1.07 2.566l-.633.817c-3.563 6.132-6.871 10.914-10.668 15.398-31.145 35.602-84.215 45.023-125.367 21.215l-4.668-2.754c-4.121-2.43-9.235-2.43-13.352 0l-4.668 2.754c-15.871 9.363-34.664 13.726-54.953 12.871-1.953 0-3.879-.148-6.191-.457-1.68-.227-3.368-.5-7.372-1.176-3.558-.68-5.277-1.015-6.914-1.379-2.324-.519-4.128-1.035-5.234-1.469-4.785-2.015-6.883-2.917-9.449-4.089-3.281-1.5-6.137-2.926-8.684-4.36-14.41-8.336-25.777-18.906-33.773-31.488l-1.875-2.32c-.278-.274-.438-.524-1.238-2.098l-1.719-2.348c-13.66-24.738-21.133-53.414-21.133-81.699 0-27.457 6.609-53.894 18.953-77.312 14.203-26.1918 34.938-48.4691 59.473-63.2191 1.695-.6602 3.351-1.4844 5.082-2.4766 1.242-.7109 2.203-1.3086 3.871-2.3984 3.89-1.711 9.984-4.9336 8.961-4.4531 22.109-10.4063 47.265-16.086 72.605-16.086h4.485C515.148 34.6523 587.91 108.617 587.91 199.789zm26.266 0c0-105.5234-84.246-191.09369-191.477-194.04681h-4.668c-29.297 0-58.34 6.57421-84.23 18.79691-.219.1093-6.953 3.6757-6.926 3.6875l-.707.2109-3.109 1.4961c-1.879 1.2344-2.672 1.7383-3.536 2.2305-.828.4765-1.414.75-1.757.8632l-2.586 1.1719c-29.2 17.2305-53.617 43.2891-70.301 74.0588-14.399 27.308-22.059 57.949-22.059 89.695 0 33.172 8.832 66.641 25.024 95.5l1.398 1.836c1.383 2.598 2.574 4.414 4.383 6.371 10.289 15.754 24.523 28.844 42.188 39.063 3.378 1.898 6.875 3.648 10.785 5.433 2.879 1.313 5.136 2.285 10.449 4.52 2.848 1.121 5.875 1.988 9.414 2.777 2.09.469 4.273.895 7.758 1.555l.418.078c4.054.684 6.203 1.035 8.351 1.324 3.399.453 6.465.688 9.121.676 23.852 1.023 46.934-4.121 66.871-15.356 51.942 28.833 117.622 16.711 156.598-27.843 4.652-5.489 8.59-11.098 12.582-17.817 2.309-2.437 3.606-5.672 3.606-9.039 0 2.375-.524 4.215-1.348 5.715 1.113-1.426 1.742-2.93 2.055-4.754 13.761-26.191 21.703-57.676 21.703-88.203z"/></clipPath><clipPath id="d" clipPathUnits="userSpaceOnUse"><path d="M0 0h2390v830H0z"/></clipPath><clipPath id="e" clipPathUnits="userSpaceOnUse"><path d="M454.445 291.348c-7.254 0-13.132 5.879-13.132 13.132 0 7.25 5.878 13.129 13.132 13.129 40.914 0 78.336-21.683 99.172-56.203 9.754-17.051 14.805-35.879 14.805-56.109 0-20.227-5.051-39.055-14.805-56.109-3.601-6.293-11.625-8.481-17.922-4.879-6.297 3.601-8.48 11.621-4.879 17.918 7.493 13.101 11.34 27.437 11.34 43.07 0 15.637-3.847 29.973-11.183 42.805-15.981 26.472-44.93 43.246-76.528 43.246z"/></clipPath><clipPath id="f" clipPathUnits="userSpaceOnUse"><path d="M0 0h2390v830H0z"/></clipPath><clipPath id="g" clipPathUnits="userSpaceOnUse"><path d="M355.723 446.035c11.582-17.754 24-33.808 36.406-47.855 7.387-8.367 13.066-14.153 16.184-17.059 5.304-4.945 5.593-13.254.648-18.558-4.949-5.305-13.258-5.594-18.563-.649-.992.926-2.73 2.613-5.109 5.039-3.894 3.965-8.211 8.59-12.851 13.844-13.208 14.957-26.395 32.004-38.715 50.887-20.621 31.605-36.41 64.402-46.051 97.988-19.598-30.981-34.832-60.801-46.176-89.211-7.851-19.672-13.211-37.188-16.543-52.297-1.949-8.836-2.785-14.766-2.976-17.543-.493-7.234-6.762-12.699-13.997-12.203-7.238.492-12.703 6.758-12.207 13.996.278 4.055 1.297 11.277 3.532 21.402 3.633 16.493 9.414 35.375 17.797 56.383 14.589 36.551 35.214 75.141 62.726 115.289-3.492 23.192-3.922 46.684-.879 70.352 7.637 59.308 27.035 105.73 54.715 140.64 22.336 28.172 45.016 43.657 60.883 49.899 2.805 1.101 5.902 1.207 8.777.297 5.043-1.598 11.672-5.133 18.203-11.442 34.157-32.984 21.192-94.421-61.754-189.695-19.593-22.504-36.949-44.59-52.207-66.172 7.481-38.683 24.278-76.738 48.157-113.332zm-15.762 196.75c74.953 86.086 84.809 132.805 63.32 153.559-1.386 1.34-2.758 2.414-3.984 3.242-2.637-1.434-5.969-3.441-9.848-6.09-11.926-8.141-23.933-19.117-35.203-33.332-24.691-31.141-42.215-73.078-49.242-127.676-1.488-11.554-2.043-23.101-1.723-34.613 11.285 14.793 23.5 29.77 36.68 44.91z"/></clipPath><clipPath id="h" clipPathUnits="userSpaceOnUse"><path d="M0 0h2390v830H0z"/></clipPath><clipPath id="i" clipPathUnits="userSpaceOnUse"><path d="M1006.91 51.6055c-26.269 0-49.765 5.7265-70.48 17.1758-20.715 11.4531-36.969 27.5351-48.758 48.2497-11.789 20.711-17.684 44.035-17.684 69.973 0 25.934 5.895 49.172 17.684 69.719 11.789 20.547 28.043 36.543 48.758 47.996 20.715 11.453 44.211 17.176 70.48 17.176 22.91 0 43.37-4.461 61.39-13.387 18.02-8.926 32.25-21.977 42.7-39.156l-26.78-18.188c-8.76 13.137-19.87 22.988-33.35 29.555-13.47 6.57-28.12 9.851-43.96 9.851-19.195 0-36.457-4.293-51.785-12.882-15.328-8.586-27.285-20.797-35.875-36.625-8.59-15.833-12.883-33.852-12.883-54.059 0-20.547 4.293-38.649 12.883-54.313 8.59-15.66 20.547-27.785 35.875-36.3746 15.328-8.5898 32.59-12.8828 51.785-12.8828 15.84 0 30.49 3.1992 43.96 9.5977 13.48 6.3984 24.59 16.1677 33.35 29.3047l26.78-18.188c-10.45-17.1792-24.76-30.23-42.95-39.1558-18.19-8.9258-38.57-13.3867-61.14-13.3867zm293.06 270.2895c33.35 0 59.87-9.684 79.58-29.051 19.7-19.364 29.56-47.574 29.56-84.621V54.1289h-35.88V204.684c0 27.621-6.91 48.671-20.71 63.152-13.82 14.484-33.52 21.727-59.12 21.727-28.63 0-51.29-8.504-67.96-25.516-16.67-17.008-25.01-40.5-25.01-70.477V54.1289h-35.88V429h35.88V273.395c9.77 15.492 23.24 27.449 40.42 35.871 17.18 8.422 36.88 12.629 59.12 12.629zm426.44-146.008h-222.32c2.02-27.617 12.64-49.93 31.84-66.942 19.2-17.0075 43.45-25.5114 72.75-25.5114 16.51 0 31.67 2.9453 45.48 8.8398 13.81 5.8946 25.77 14.5666 35.87 26.0196l20.21-23.2383c-11.79-14.1484-26.53-24.9258-44.21-32.3359-17.68-7.4102-37.14-11.1133-58.36-11.1133-27.28 0-51.45 5.8086-72.5 17.4297-21.06 11.6211-37.47 27.7031-49.27 48.2458-11.79 20.547-17.68 43.785-17.68 69.723 0 25.934 5.64 49.172 16.92 69.719 11.29 20.547 26.79 36.543 46.49 47.996 19.71 11.453 41.85 17.176 66.44 17.176 24.59 0 46.66-5.723 66.19-17.176 19.54-11.453 34.87-27.367 45.98-47.742 11.12-20.379 16.67-43.704 16.67-69.973zm-128.34 115.191c-25.6 0-47.07-8.168-64.42-24.504-17.35-16.336-27.2-37.636-29.56-63.91h188.46c-2.35 26.274-12.2 47.574-29.55 63.91s-38.99 24.504-64.93 24.504zm223.83-23.242c8.42 17.852 20.97 31.324 37.65 40.418 16.67 9.094 37.3 13.641 61.89 13.641v-34.86l-8.59.504c-27.96 0-49.85-8.586-65.68-25.766-15.83-17.175-23.75-41.257-23.75-72.246V54.1289h-35.87V319.875h34.35zm185.94 0c8.42 17.852 20.97 31.324 37.64 40.418 16.68 9.094 37.31 13.641 61.9 13.641v-34.86l-8.59.504c-27.96 0-49.86-8.586-65.68-25.766-15.84-17.175-23.75-41.257-23.75-72.246V54.1289h-35.88V319.875h34.36zm380.46-91.949h-222.31c2.02-27.617 12.63-49.93 31.83-66.942 19.2-17.0075 43.45-25.5114 72.76-25.5114 16.5 0 31.66 2.9453 45.47 8.8398 13.81 5.8946 25.77 14.5666 35.88 26.0196l20.21-23.2383c-11.79-14.1484-26.53-24.9258-44.21-32.3359-17.69-7.4102-37.14-11.1133-58.36-11.1133-27.29 0-51.46 5.8086-72.51 17.4297-21.05 11.6211-37.47 27.7031-49.26 48.2458-11.79 20.547-17.69 43.785-17.69 69.723 0 25.934 5.65 49.172 16.93 69.719 11.28 20.547 26.78 36.543 46.48 47.996 19.71 11.453 41.86 17.176 66.45 17.176 24.59 0 46.65-5.723 66.19-17.176s34.86-27.367 45.98-47.742c11.11-20.379 16.67-43.704 16.67-69.973zm-128.33 115.191c-25.6 0-47.08-8.168-64.42-24.504-17.35-16.336-27.2-37.636-29.56-63.91h188.46c-2.36 26.274-12.21 47.574-29.56 63.91-17.34 16.336-38.99 24.504-64.92 24.504z"/></clipPath><clipPath id="j" clipPathUnits="userSpaceOnUse"><path d="M0 0h2390v830H0z"/></clipPath></defs><g clip-path="url(#a)" transform="matrix(.13333 0 0 -.13333 0 110.667)"><g clip-path="url(#b)"><path fill="#b30949" d="M0 0h345.773v408.473H0z"/></g></g><g clip-path="url(#c)" transform="matrix(.13333 0 0 -.13333 0 110.667)"><g clip-path="url(#d)"><path fill="#b30949" d="M172.82 0h491.355v407.348H172.82z"/></g></g><g clip-path="url(#e)" transform="matrix(.13333 0 0 -.13333 0 110.667)"><g clip-path="url(#f)"><path fill="#b30949" d="M391.313 92.5742h227.109v275.035H391.313z"/></g></g><g clip-path="url(#g)" transform="matrix(.13333 0 0 -.13333 0 110.667)"><g clip-path="url(#h)"><path fill="#b30949" d="M145.742 308.387h343.391v568.902H145.742z"/></g></g><g clip-path="url(#i)" transform="matrix(.13333 0 0 -.13333 0 110.667)"><g clip-path="url(#j)"><path fill="#b30949" d="M819.988 1.60547h1618.82v477.395H819.988z"/></g></g></svg>