<svg xmlns="http://www.w3.org/2000/svg" role="img" viewBox="-58.20 -55.70 2896.40 841.40"><path fill="none" stroke="#3498DB" stroke-width="98.988" d="M583.972 595.78a316.762 316.762 0 0 1-443.232-7.076 316.762 316.762 0 0 1-2.14-443.284 316.762 316.762 0 0 1 443.143-11.355"/><path fill="#4d4d4d" d="M224.137 242.055h74.26v84.095h81.144v-84.095h74.587v240.319h-74.587v-97.21h-81.144v97.21h-74.26V242.055zm280.645 0h110.324q32.622 0 52.62 8.852 20.164 8.852 33.278 25.41 13.115 16.556 19.016 38.522 5.901 21.967 5.901 46.556 0 38.523-8.852 59.834-8.688 21.146-24.261 35.572-15.573 14.262-33.441 19.016-24.426 6.557-44.261 6.557H504.782V242.055zm74.26 54.424v131.307h18.196q23.278 0 33.113-5.082 9.836-5.246 15.41-18.032 5.573-12.95 5.573-41.802 0-38.195-12.458-52.293-12.459-14.098-41.31-14.098h-18.524zm503.865-95.809v46.802q-22.412-20.874-47.9-31.201-25.269-10.328-53.833-10.328-56.25 0-86.133 34.498-29.883 34.277-29.883 99.316 0 64.82 29.883 99.316 29.883 34.278 86.133 34.278 28.564 0 53.833-10.327 25.488-10.328 47.9-31.202v46.363q-23.29 15.82-49.438 23.73-25.928 7.91-54.932 7.91-74.487 0-117.334-45.483-42.846-45.703-42.846-124.585 0-79.102 42.846-124.585 42.847-45.703 117.334-45.703 29.444 0 55.371 7.91 26.148 7.69 49 23.291zm67.237 56.69h40.43v246.093h-40.43V257.36zm0-95.801h40.43v51.196h-40.43v-51.196zm267.406 133.593q-6.81-3.955-14.94-5.712-7.91-1.978-17.579-1.978-34.277 0-52.734 22.412-18.237 22.193-18.237 63.94v129.64h-40.65V257.358h40.65v38.233q12.744-22.412 33.178-33.179 20.435-10.986 49.659-10.986 4.174 0 9.228.66 5.054.438 11.206 1.537l.22 41.529zm210.719-28.344V304.6q-17.139-9.449-34.497-14.063-17.139-4.834-34.717-4.834-39.331 0-61.084 25.049-21.753 24.83-21.753 69.873 0 45.044 21.753 70.093 21.753 24.829 61.084 24.829 17.578 0 34.717-4.614 17.358-4.834 34.497-14.283v37.354q-16.92 7.91-35.157 11.865-18.017 3.955-38.452 3.955-55.59 0-88.33-34.936-32.74-34.937-32.74-94.263 0-60.205 32.96-94.702 33.179-34.497 90.747-34.497 18.677 0 36.475 3.955 17.797 3.735 34.497 11.426zm70.312-105.249h40.43v341.894h-40.43V161.56zm335.303 208.74v19.775h-185.889q2.637 41.748 25.05 63.721 22.63 21.753 62.841 21.753 23.29 0 45.044-5.713 21.972-5.713 43.505-17.139v38.233q-21.753 9.228-44.604 14.062t-46.362 4.834q-58.887 0-93.384-34.277-34.277-34.277-34.277-92.725 0-60.424 32.52-95.8 32.738-35.596 88.11-35.596 49.658 0 78.442 32.08 29.004 31.86 29.004 86.792zm-40.43-11.865q-.443-33.18-18.677-52.954-18.017-19.776-47.9-19.776-33.838 0-54.272 19.116-20.215 19.117-23.291 53.833l144.14-.22z"/><path d="M2098.263 175.401h84.596v125.025h124.804V175.4h84.595v328.052h-84.595V364.366h-124.804v139.087h-84.596V175.401zm460.767 63.941v200.17h30.323q51.855 0 79.101-25.707 27.466-25.708 27.466-74.707 0-48.78-27.246-74.268t-79.321-25.488h-30.323zm-84.594-63.94h89.208q74.708 0 111.182 10.766 36.695 10.547 62.842 36.035 23.072 22.193 34.277 51.196 11.207 29.004 11.207 65.699 0 37.134-11.207 66.357-11.205 29.004-34.277 51.196-26.367 25.489-63.282 36.255-36.914 10.547-110.742 10.547h-89.208V175.401z"/></svg>