<svg xmlns="http://www.w3.org/2000/svg" role="img" viewBox="10.72 3.97 378.56 97.81"><title>Cloverleaf logo</title><g fill-rule="evenodd"><path fill="#f6faf8" d="M139.988 36.333c-6.828 1.087-9.324 6.012-9.105 17.965.203 11.075 3.354 15.279 11.45 15.275 6.71-.003 10.38-3.326 11.075-10.026.134-1.291.282-1.241-3.48-1.178l-2.821.048-.271 1.583c-.539 3.149-1.639 4.228-4.322 4.241-4.352.021-5.097-1.599-5.097-11.074 0-9.34.69-11.173 4.369-11.609 3.219-.381 5.214 1.705 5.214 5.453v.656h6.539l-.116-1.125c-.765-7.414-6.001-11.393-13.435-10.209m47.027.022c-4.695.779-7.791 4.167-9.046 9.895-.356 1.628-.306 12.284.066 13.918 1.421 6.243 5.248 9.405 11.382 9.405 5.737 0 9.422-2.73 10.991-8.142 1.101-3.801 1.012-13.851-.154-17.35-1.955-5.864-6.938-8.772-13.239-7.726m-29.348 16.562v16.25h18v-5.329l-5.709-.044-5.708-.044-.043-13.542-.042-13.541h-6.498v16.25M203.5 36.972c0 .171.29 1.316.645 2.545.354 1.228.684 2.383.733 2.566.208.786 2.626 9.212 2.773 9.667.176.545 2.311 8.021 2.522 8.833.072.275.557 1.963 1.08 3.75.522 1.788 1.04 3.588 1.15 4l.202.75 3.447.045c1.897.025 3.448.016 3.448-.02 0-.035.219-.806.487-1.711.605-2.046 2.121-7.284 4.43-15.314.976-3.391 2.176-7.554 2.667-9.25l1.322-4.56c.235-.812.427-1.506.427-1.542 0-.129-7.149-.061-7.229.069-.081.132-1.385 5.622-2.086 8.783-.35 1.578-2.447 10.609-2.96 12.75-.371 1.544-.383 1.576-.554 1.403-.083-.084-.652-2.328-1.265-4.986L213.414 49a429.968 429.968 0 0 1-.928-4.083c-.079-.367-.54-2.354-1.024-4.417l-.88-3.75-3.541-.045c-3.363-.043-3.541-.029-3.541.267M232 52.917v16.25h18.667v-5.334h-12.006l.045-4.375.044-4.375 5.042-.044 5.041-.044v-5.162h-10.166V42h12v-5.333H232v16.25m22.667.003v16.254l3.208-.045 3.208-.046.044-5.88.044-5.881 1.69.047 1.691.048.545 1.333a5591.28 5591.28 0 0 0 3.843 9.375l.431 1.042h3.453c1.9 0 3.495-.041 3.544-.091.08-.079-.938-2.617-1.869-4.662-.729-1.599-3.666-8.608-3.666-8.748 0-.082.321-.37.712-.64 4.635-3.188 5.357-11.591 1.346-15.653-2.345-2.375-3.788-2.7-12.016-2.703l-6.208-.003V52.92m25.41-16.045c-.044.115-.06 7.408-.037 16.208l.043 16 9.046.043 9.046.044-.046-2.627-.046-2.626-5.689-.044-5.69-.044-.1-.373c-.054-.205-.1-6.316-.102-13.581l-.002-13.208h-3.172c-2.384 0-3.192.051-3.251.208m22.09 16.043v16.251l9.291-.043 9.292-.043v-5.166l-5.917-.043c-5.325-.038-5.937-.07-6.125-.323-.266-.359-.298-7.739-.035-8.229.164-.307.399-.322 5.166-.322h4.994v-5.167h-5.065c-4.465 0-5.078-.031-5.167-.263-.176-.46-.113-6.903.072-7.248.165-.309.41-.322 6.083-.322h5.911v-5.333h-18.5v16.251m29.917-14.297a128.096 128.096 0 0 1-.838 2.629c-.126.367-.538 1.679-.915 2.917-.376 1.237-.75 2.437-.831 2.666-.081.23-.458 1.429-.838 2.667-.38 1.237-1.091 3.525-1.58 5.083-.488 1.559-1.2 3.846-1.581 5.084-.381 1.237-.796 2.55-.922 2.916-.126.367-.538 1.679-.915 2.917a339.906 339.906 0 0 1-.841 2.733c-.317.981-.448.944 3.205.895l3.361-.045.208-.666c.114-.367.49-1.755.835-3.084.345-1.329.699-2.511.787-2.627.123-.163 1.167-.201 4.583-.167l4.422.044.639 2.417c.351 1.329.737 2.792.856 3.25l.218.833 3.448.045c1.897.025 3.448-.013 3.448-.085 0-.072-.342-1.218-.761-2.545-.418-1.328-.936-2.977-1.151-3.665-.413-1.323-1.997-6.372-2.681-8.541-.224-.711-.588-1.873-.809-2.584-.222-.71-.641-2.041-.931-2.958-.29-.917-.709-2.248-.931-2.958l-.805-2.584c-.222-.71-.64-2.041-.93-2.958-.29-.917-.655-2.079-.812-2.583l-.285-.917-3.022-.045-3.022-.046-.609 1.962m19.993-1.747c-.044.115-.06 7.409-.037 16.209l.043 16h6.5l.084-6.583.083-6.583 5.042-.044 5.041-.045V50.5h-10.166v-8.496l5.708-.043 5.708-.044V36.75l-8.963-.043c-7.081-.034-8.979.001-9.043.167m-160.746 5.154c1.219.524 1.971 1.402 2.546 2.972 1.091 2.977 1.023 13.673-.102 16.333-1.662 3.927-6.982 3.966-8.707.064-1.245-2.815-1.299-13.358-.085-16.573 1.054-2.791 3.675-3.945 6.348-2.796m74.919.156c1.981.541 2.995 2.853 2.574 5.865-.412 2.947-1.589 3.784-5.319 3.784h-2.338v-4.805c0-2.643.05-4.856.111-4.917.183-.183 4.253-.123 4.972.073m69.649 3.941c.048.16.273 1.004.5 1.875.658 2.527 1.427 5.457 1.874 7.146.227.859.374 1.665.325 1.791-.105.276-5.676.342-5.844.07-.086-.14.802-3.797 1.987-8.174.211-.779.477-1.773.593-2.208.218-.824.415-.998.565-.5"/><path fill="#04b95b" d="M58.505 11.292c-.501.034-.989.124-1.083.202-.095.077-.679.194-1.299.259-.62.066-1.169.186-1.218.267-.05.081-.256.147-.457.148-.2 0-.579.113-.842.25s-.619.249-.792.249c-.173 0-.314.068-.314.152 0 .083-.3.202-.667.264-.366.062-.666.181-.666.265 0 .084-.133.152-.295.152-.162 0-.556.177-.875.393-.319.216-.749.446-.955.511-.207.065-.375.182-.375.261 0 .078-.225.191-.5.252-.275.06-.5.179-.5.263 0 .084-.078.153-.174.153-.164 0-.352.131-.904.625-.127.115-.279.209-.337.209-.141 0-1.412.991-1.869 1.458-.202.206-.45.375-.552.375-.101 0-.138.075-.081.167.057.091.03.166-.058.166-.168 0-1.692 1.421-1.692 1.577 0 .05-.297.387-.661.751a9.14 9.14 0 0 0-1.101 1.375c-.243.393-.528.789-.635.881-.292.25-1.27 1.834-1.27 2.056 0 .106-.075.194-.166.194-.092 0-.167.15-.167.333 0 .183-.069.333-.153.333-.085 0-.203.225-.264.5-.06.275-.178.5-.261.5-.083 0-.199.299-.258.664-.058.365-.171.623-.251.573-.081-.049-.146.052-.146.226 0 .173-.053.367-.116.431-.122.122-.171.288-.327 1.105-.052.276-.156.501-.231.501-.075 0-.187.414-.25.919-.064.506-.182.96-.262 1.01-.081.05-.148.334-.148.631s-.091.631-.202.743c-.146.146-.209 1.344-.228 4.325l-.026 4.122-.397.198c-.218.108-.659.317-.98.463-.622.283-.887.42-1.417.735a4.035 4.035 0 0 1-.625.295c-.16.054-.291.147-.291.208 0 .06-.263.25-.584.423-.321.173-.583.369-.583.437 0 .067-.188.169-.417.226-.229.058-.416.179-.416.269 0 .089-.082.163-.182.163-.37 0-4.318 3.644-4.318 3.986 0 .08-.113.188-.25.241-.138.053-.25.177-.25.276 0 .099-.169.345-.375.548a4.31 4.31 0 0 0-.905 1.282c-.062.138-.211.31-.333.384-.121.073-.221.203-.221.288 0 .085-.252.55-.56 1.033-.308.483-.613 1.047-.678 1.254-.064.206-.187.375-.273.375-.085 0-.155.135-.155.301 0 .166-.11.447-.245.625s-.247.455-.25.615c-.003.161-.072.292-.153.292-.082 0-.2.272-.262.604-.109.582-.169.747-.544 1.486-.094.187-.227.674-.295 1.083-.068.409-.169.819-.224.91a1.354 1.354 0 0 0-.139.417l-.245 1.583c-.237 1.525-.365 7.584-.16 7.584.108 0 .333 1.495.394 2.625.006.114.074.208.15.208.077 0 .124.056.106.125-.072.271.229 1.706.376 1.798.087.053.157.313.157.577 0 .264.07.523.154.575.085.053.204.321.264.597.061.276.404 1.081.762 1.79.359.708.653 1.386.653 1.506 0 .12.076.172.167.115.092-.056.167.017.167.163 0 .24.432 1.046.672 1.254.052.046.277.383.498.75.221.367.574.853.783 1.082.209.228.38.47.38.538 0 .236 3.226 3.629 3.452 3.631.072.001.408.264.746.584.337.32.696.582.796.582.101 0 .223.103.271.229.049.126.346.368.662.538.315.169.573.366.573.437 0 .071.113.129.25.129.138 0 .25.079.25.177 0 .097.069.134.153.082.084-.052.177-.038.208.032.14.315 3.703 2.042 4.214 2.042.142 0 .259.075.259.167 0 .092.206.169.458.172.252.003.604.115.782.25.178.135.492.245.698.245.207 0 .417.067.468.149.051.083.636.204 1.301.27.665.066 1.263.205 1.328.309.167.264 8.83.257 9.152-.008.126-.103.737-.241 1.357-.307s1.164-.179 1.209-.252c.045-.073.381-.183.747-.245.365-.061.707-.18.759-.264.051-.084.231-.152.398-.152.168 0 .519-.112.782-.249s.609-.25.769-.25c.16-.001.292-.076.292-.168 0-.092.087-.167.195-.167.256 0 2.332-1.01 2.582-1.256.107-.105.426-.287.708-.404.283-.118.515-.279.515-.36 0-.08.079-.146.176-.146.097 0 .518-.261.936-.58.831-.634.915-.627 2.002.184.291.218.615.396.718.396.103 0 .152.057.109.126-.043.07.234.275.615.457.382.182.793.425.914.54.121.116.327.21.458.21s.239.056.24.125c.002.12.461.348 1.915.953 1.576.656 2.398.943 3 1.045.275.047.575.144.667.215.091.072.616.184 1.166.25.55.066 1.106.204 1.234.308.329.263 8.873.262 9.199-.002.233-.189 1.877-.49 2.276-.417.114.02.208-.041.208-.136 0-.096.206-.175.458-.175.252-.001.673-.113.936-.25s.582-.249.711-.249c.128 0 .363-.073.522-.161.522-.29 1.851-.839 2.031-.839a.172.172 0 0 0 .175-.167c0-.092.15-.167.334-.167.183 0 .333-.06.333-.134 0-.074.319-.273.708-.443.709-.307 1.917-1.086 2.522-1.625.176-.157.37-.255.432-.217.061.037.216-.078.344-.256.129-.179.302-.325.386-.325.083 0 .554-.412 1.046-.916.493-.505.895-.879.895-.833 0 .046.282-.234.625-.622a26.92 26.92 0 0 1 1.167-1.229c.298-.287.542-.593.542-.68 0-.086.225-.373.5-.636.275-.264.5-.578.5-.698 0-.121.07-.219.155-.219.086 0 .208-.165.272-.367.064-.202.2-.462.303-.578.504-.568.603-.727.603-.965 0-.141.075-.257.167-.257.091 0 .166-.107.166-.238s.097-.337.215-.458c.289-.297.785-1.373.785-1.704 0-.146.069-.266.154-.266.084 0 .206-.242.271-.537.112-.509.175-.67.581-1.471.095-.187.216-.656.268-1.041.053-.386.165-.786.249-.89.084-.105.199-.686.256-1.292.057-.607.156-1.103.221-1.103s.132-.502.149-1.115c.017-.614.089-1.195.16-1.292.148-.2.149-3.588.002-3.843-.053-.091-.113-.691-.133-1.331-.02-.641-.112-1.212-.205-1.269-.092-.057-.155-.17-.139-.252.072-.362-.208-2.237-.347-2.322-.084-.053-.153-.276-.153-.497 0-.35-.249-1.066-.666-1.917-.069-.141-.178-.497-.243-.792-.065-.295-.187-.536-.271-.536-.085 0-.154-.158-.154-.35 0-.359-.422-1.222-.791-1.618-.115-.122-.209-.33-.209-.461s-.069-.238-.153-.238c-.084 0-.203-.225-.263-.5-.061-.275-.167-.5-.237-.5-.07 0-.269-.263-.442-.583-.172-.321-.372-.584-.443-.584-.07 0-.128-.112-.128-.25 0-.137-.07-.25-.156-.25-.085 0-.198-.131-.25-.291-.052-.161-.376-.588-.72-.95-.343-.362-.624-.704-.624-.759 0-.173-2.499-2.553-3.325-3.166-.432-.321-.908-.715-1.059-.875-.151-.161-.37-.292-.487-.292-.117 0-.213-.065-.213-.145 0-.08-.487-.395-1.083-.701-.596-.306-1.083-.615-1.083-.688 0-.073-.146-.133-.324-.133-.178 0-.368-.073-.423-.162-.12-.194-1.539-.838-1.847-.838-.119 0-.262-.141-.317-.315-.113-.354-.051-1.684.077-1.684.243-.001-.094-5.615-.426-7.112a27.385 27.385 0 0 1-.194-.972c-.048-.275-.145-.575-.215-.667-.069-.091-.178-.429-.242-.75-.151-.756-.944-3.058-1.091-3.166-.063-.046-.168-.304-.234-.574a3.225 3.225 0 0 0-.424-.916c-.167-.235-.311-.502-.321-.594-.009-.091-.13-.298-.268-.46-.138-.161-.251-.364-.251-.45 0-.195-1.022-1.736-1.202-1.812a.242.242 0 0 1-.132-.208c0-.084-.131-.298-.291-.474-.482-.531-.709-.826-.709-.923 0-.105-.805-1.045-1.133-1.323a5.75 5.75 0 0 1-.416-.398c-.964-1.032-2.436-2.368-2.611-2.368-.095 0-.173-.069-.173-.153 0-.085-.281-.325-.625-.535-.344-.21-.7-.469-.792-.575-.091-.106-.41-.297-.708-.423s-.542-.28-.542-.343-.543-.384-1.208-.713a40.842 40.842 0 0 1-1.458-.748c-.495-.295-1.473-.677-1.734-.677-.146 0-.266-.075-.266-.167 0-.091-.142-.166-.315-.166-.172 0-.529-.112-.791-.249-.263-.137-.642-.25-.843-.25-.201-.001-.405-.066-.454-.146-.05-.08-.635-.199-1.301-.264-.666-.066-1.262-.202-1.324-.302-.112-.181-6.09-.301-8.134-.164m60.828 41.625V81.5h131.07c72.088 0 131.188-.046 131.333-.101.405-.155.405-56.809 0-56.965-.145-.055-59.245-.101-131.333-.101h-131.07v28.584m25.25-16.839c2.765.439 4.633 1.317 5.858 2.753l.785.912c1.208 1.394 2.441 4.982 2.441 7.101v.989h-6.81l-.106-.958c-.299-2.695-1.186-4.708-2.073-4.708-.052 0-.608-.108-1.235-.239-1.027-.215-1.252-.21-2.262.046-2.996.761-3.514 2.39-3.514 11.043-.001 8.628.527 10.268 3.497 10.874 3.311.675 5.463-1.12 5.497-4.586.011-1.192-.159-1.138 3.607-1.138h3.399l-.003 1.041c-.004 1.864-1.235 5.899-1.969 6.457-.061.047-.394.436-.738.865-1.931 2.404-6.39 3.836-10.32 3.314-8.115-1.077-11.227-7.919-9.973-21.927.161-1.793.242-2.21.792-4.084 1.685-5.738 6.801-8.761 13.127-7.755m46.917-.006c4.882.803 8.237 4.109 9.347 9.209.412 1.891.462 2.739.462 7.802 0 5.071-.048 5.881-.465 7.834-1.29 6.043-6.608 9.707-12.957 8.926-5.545-.682-8.906-3.948-10.128-9.843-.374-1.807-.375-12.022 0-13.833 1.54-7.452 6.712-11.251 13.741-10.095m-27.207 13.754c.023 7.375.106 13.473.184 13.551.078.078 2.458.135 5.291.128 2.832-.007 5.394.036 5.694.096l.546.109-.046 2.853-.045 2.854h-18.5l-.043-16.334c-.024-8.983-.007-16.428.037-16.545.063-.164.848-.201 3.46-.166l3.379.045.043 13.409M210.882 37c.08.321.243.958.364 1.417.12.458.418 1.733.663 2.833.244 1.1.55 2.45.68 3 .13.55.429 1.862.665 2.917.236 1.054.499 2.179.585 2.5.145.544.256 1.031.935 4.083.143.642.357 1.542.476 2 .12.458.35 1.432.512 2.164l.295 1.33.305-1.33c.168-.732.376-1.593.461-1.914.181-.679.376-1.506.842-3.583.186-.825.405-1.763.487-2.084.083-.321.266-1.108.408-1.75.616-2.784.788-3.534.937-4.083a81.13 81.13 0 0 0 .517-2.167c.197-.871.465-2.033.595-2.583.13-.55.302-1.338.383-1.75.08-.413.226-.956.323-1.208l.177-.459h3.744c3.982 0 4.088.023 3.793.802a22.34 22.34 0 0 0-.427 1.365 128.84 128.84 0 0 1-.613 2.083 71.196 71.196 0 0 0-.596 2.084 67.344 67.344 0 0 1-.389 1.416l-.394 1.334a325.278 325.278 0 0 0-1.445 5c-.172.664-1.613 5.667-2.016 7-.083.275-.45 1.55-.816 2.833a241.867 241.867 0 0 1-.896 3.083 66.727 66.727 0 0 0-.438 1.5c-.787 2.859-1.21 4.215-1.388 4.459-.113.155-1.036.208-3.611.208h-3.46l-.163-.458c-.188-.527-.672-2.178-1.455-4.959a49.888 49.888 0 0 0-.418-1.416 41.773 41.773 0 0 1-.4-1.376c-.543-1.973-.801-2.886-.932-3.291a42.251 42.251 0 0 1-.422-1.5 42.251 42.251 0 0 0-.422-1.5 52.52 52.52 0 0 1-.415-1.417 47.38 47.38 0 0 0-.417-1.416 50.18 50.18 0 0 1-.418-1.417c-.154-.55-.377-1.337-.495-1.75-.117-.413-.338-1.2-.49-1.75a281.69 281.69 0 0 0-1.349-4.644c-.134-.446-.244-.916-.244-1.044a1.4 1.4 0 0 0-.151-.523c-.083-.159-.281-.777-.44-1.372a49.69 49.69 0 0 0-.516-1.798c-.124-.393-.226-.9-.226-1.128v-.414l3.785.045 3.786.045.144.583m40.081 2.166c.059 3.548.785 3.183-6.294 3.161l-5.752-.019-.045 3.596-.045 3.596h4.97c3.643 0 5.023.053 5.17.2.279.28.279 5.154 0 5.433-.147.147-1.527.2-5.17.2h-4.969l.044 4.097.045 4.096 5.613-.019c3.088-.011 5.808.03 6.046.089l.432.109-.046 2.856-.045 2.856h-19l-.043-16.334c-.024-8.983-.007-16.427.037-16.543.063-.166 2.061-.2 9.543-.166l9.463.043.046 2.749m16.326-2.666c5.992.779 9.087 5.245 8.257 11.917-.114.916-.274 1.816-.357 2-.082.183-.286.67-.454 1.083-.612 1.506-1.516 2.63-2.935 3.648l-.762.548.652 1.527c.359.84.721 1.677.804 1.86.855 1.882 1.173 2.631 1.173 2.764 0 .087.071.288.159.447.761 1.383 2.884 6.685 2.783 6.949-.132.344-7.136.39-7.39.049-.085-.115-.477-.996-.87-1.959a149.85 149.85 0 0 0-1.243-3c-.137-.321-.487-1.183-.778-1.916a60.93 60.93 0 0 0-.793-1.917 48.633 48.633 0 0 1-.72-1.75l-.457-1.167h-2.941l-.084 5.917-.083 5.917h-6.833l-.043-16.334c-.024-8.983-.008-16.427.036-16.541.098-.256 10.961-.291 12.879-.042m19.544 13.472l.084 13.555 5.348-.02c3.255-.012 5.521.047 5.791.149l.444.169v2.638c0 1.829-.061 2.698-.2 2.837-.394.394-18.248.276-18.461-.122-.241-.451-.239-32.075.002-32.526.165-.309.346-.323 3.542-.28l3.367.045.083 13.555m34.13-10.806c.059 3.539.759 3.177-6.125 3.167-3.074-.004-5.682-.006-5.796-.004-.16.003-.209.834-.209 3.585v3.581l5.042.044 5.042.044v5.667l-5.042.044-5.042.044v4.081c0 3.151.048 4.082.209 4.085.114.003 2.662.001 5.662-.004s5.646.04 5.879.098l.425.107-.046 2.856-.045 2.856h-19l-.043-16.334c-.024-8.983-.007-16.427.037-16.543.063-.166 2.061-.2 9.543-.166l9.463.043.046 2.749m17.793-2.705c.096.067.312.572.482 1.122.17.55.368 1.15.441 1.334.072.183.315.933.539 1.666 1.248 4.08 1.514 4.938 1.864 6 .366 1.11.888 2.769 1.861 5.917.241.779.608 1.942.814 2.583a327.01 327.01 0 0 1 1.824 5.834c.247.825.51 1.65.585 1.833.074.183.378 1.121.674 2.083.296.963.721 2.299.946 2.969.606 1.811.81 1.712-3.407 1.66l-3.629-.045-.195-.75c-.107-.413-.433-1.65-.725-2.75s-.582-2.225-.645-2.5l-.115-.5-4.349-.045-4.35-.044-.361 1.378a184.879 184.879 0 0 1-1.131 4.127l-.305 1.084-3.62.045c-4.178.051-3.869.224-3.224-1.8.219-.685.637-2.033.93-2.995.293-.963.702-2.275.91-2.917.207-.642.584-1.842.836-2.667.253-.825.559-1.8.679-2.166.235-.712.713-2.257 1.574-5.084.294-.962.707-2.275.919-2.916.212-.642.624-1.955.916-2.917.292-.962.596-1.937.675-2.167.154-.445 1.277-4.093 1.77-5.75.552-1.855.33-1.75 3.705-1.747 1.617.001 3.017.058 3.112.125m31.54 2.822l.045 2.867-.545.099c-.3.055-2.851.078-5.669.05-4.148-.04-5.14-.007-5.209.173-.046.122-.085 1.94-.085 4.039v3.818l5.125.044 5.125.044.046 2.737c.035 2.079-.005 2.77-.166 2.873-.117.074-2.443.136-5.169.137l-4.957.003-.043 6.625-.044 6.625h-6.833l-.043-16.334c-.024-8.983-.007-16.427.037-16.543.063-.166 1.994-.2 9.209-.166l9.13.043.046 2.866m-182.202 2.728c-2.755.687-3.761 3.656-3.761 11.102 0 7.209.906 9.853 3.655 10.662 2.311.68 4.362-.196 5.393-2.302 1.403-2.866 1.381-13.819-.033-17.076-.842-1.94-3.04-2.938-5.254-2.386m75.156.322l-1.833.084-.045 4.625-.044 4.625h2.156c3.96 0 5.077-1.062 5.089-4.834.011-3.71-1.147-4.689-5.323-4.5m-199.46 5.26c4.106 3.779 6.895 8.823 8.116 14.679.317 1.522-.074 1.76-4.656 2.833-1.65.386-8.637.445-9.917.083a21.864 21.864 0 0 0-1.5-.355c-3.815-.731-4.128-1.221-3.046-4.75 1.536-5.009 3.669-8.576 7.251-12.125 2.013-1.994 1.984-1.991 3.752-.365m271.157 1.377a489.09 489.09 0 0 0-.862 3.363c-.124.504-.419 1.667-.656 2.583-.236.917-.429 1.723-.429 1.792 0 .069 1.2.125 2.667.125 2.117 0 2.666-.046 2.666-.223 0-.215-.245-1.197-1.004-4.027-.55-2.05-.99-3.734-1.263-4.832-.371-1.496-.429-1.432-1.119 1.219"/><path fill="#04743c" d="M60.038 47.958c-3.582 3.549-5.715 7.116-7.251 12.125-1.082 3.529-.769 4.019 3.046 4.75.413.079 1.088.239 1.5.355 1.28.362 8.267.303 9.917-.083 4.582-1.073 4.973-1.311 4.656-2.833-1.221-5.856-4.01-10.9-8.116-14.679-1.768-1.626-1.739-1.629-3.752.365"/><path fill="#5ad197" d="M139.92 36.166c-2.271.412-4.251 1.492-5.797 3.162-.936 1.011-2.137 2.873-2.115 3.279.004.078.202-.232.44-.69 2.547-4.909 8.001-6.885 14.219-5.151.229.064.368.063.309-.002-.468-.514-5.274-.921-7.056-.598m47.111.005c-.487.071-.936.179-.997.24-.061.061.3.05.802-.025 1.611-.24 4.814-.144 5.89.177.537.159 1.014.253 1.059.208.104-.104-1.042-.415-2.265-.616-1.086-.177-3.213-.17-4.489.016M157.5 52.917v16.416h9.149c8.189 0 9.159-.027 9.25-.263.131-.341.127-4.538-.004-5.028l-.101-.375h-11.461V36.5H157.5v16.417m26.557-15.759c-2.745 1.374-5.294 4.611-5.784 7.344-.059.33.065.113.287-.502 1.385-3.838 3.245-5.797 6.94-7.307.26-.106.314-.175.144-.182-.15-.006-.864.285-1.587.647m19.122-.45c.007.115.116.471.242.792l.229.583-.097-.711-.097-.712 3.562.045 3.561.045.445 1.833c.245 1.009.452 1.708.46 1.555.016-.273-.576-2.917-.76-3.395-.128-.333-7.565-.367-7.545-.035m18.265-.097c-.061.061-.106.267-.1.458.01.334.016.333.161-.027.21-.522 7.419-.605 7.264-.084-.048.161-.129.517-.182.792-.128.676.156.048.321-.708l.118-.542h-3.735c-2.054 0-3.785.05-3.847.111m19.848.014l9.375.044V42h-6c-3.3 0-6 .056-6 .125s2.718.087 6.041.042l6.042-.084.046-2.791.045-2.792-9.462.04-9.462.041 9.375.044M254.5 52.911V69.34l3.375-.045 3.375-.045.083-5.958c.046-3.278.028-5.959-.039-5.959-.068 0-.143 2.644-.167 5.875l-.044 5.875-3.208.046-3.208.045V36.646l6.708.064c3.69.035 6.896.117 7.125.182l.417.117-.417-.21c-.31-.157-2.153-.225-7.208-.264l-6.792-.052v16.428m25.41-16.203c-.044.115-.06 7.484-.036 16.375l.043 16.167h18.333v-5.5l-5.792-.083c-3.185-.046-5.791-.028-5.791.039 0 .068 2.568.143 5.708.167l5.708.044.046 2.626.046 2.627-9.046-.044-9.046-.043V36.75l3.208-.045 3.207-.046.044 13.379.043 13.379.041-13.459.041-13.458h-3.339c-2.517 0-3.358.051-3.418.208m22.024.056c-.132.344-.132 31.961 0 32.306.109.283 18.899.421 18.899.138 0-.068-4.2-.105-9.333-.08l-9.333.044V36.667h18.5V42h-5.911c-5.673 0-5.918.013-6.083.322-.185.345-.248 6.788-.072 7.248.089.232.702.263 5.167.263h5.065V55h-4.994c-4.767 0-5.002.015-5.166.322-.263.49-.231 7.87.035 8.227.222.297 12.126.535 12.125.243 0-.069-2.7-.125-6-.125h-6v-8.5h10.175l-.046-2.709-.045-2.708-5.042-.044-5.042-.044v-7.495h12V36.5h-9.399c-8.416 0-9.409.028-9.5.264m30.333.667c-.161.513-.257.968-.212 1.013.044.044.203-.339.352-.852l.271-.933 3.031.046 3.031.045.314 1.052c.173.578.352 1.015.397.969.046-.046-.081-.575-.281-1.177l-.364-1.094h-6.245l-.294.931M352 36.625c0 .069 4.087.125 9.083.125s9.084-.056 9.084-.125-4.088-.125-9.084-.125c-4.996 0-9.083.056-9.083.125M164.207 50.208l.043 13.542 5.708.044 5.709.044v5.329h-18v-32.5h6.498l.042 13.541m-16.124-12.845c.61.313 1.476.996 2.218 1.748.669.679 1.145 1.1 1.057.936-.53-.988-3.437-3.244-4.131-3.206-.079.005.306.24.856.522m47.209.262c2.037 1.249 3.581 3.036 4.432 5.13.733 1.802.782 1.9.665 1.328-.467-2.288-2.753-5.322-4.972-6.6-1.219-.702-1.318-.59-.125.142m74.213-.385c1.986.732 4.072 2.416 4.725 3.815.164.351.336.601.382.555.708-.707-4.038-4.681-5.49-4.598-.113.006.059.109.383.228m-48.663 1.841c-.202.876-.341 1.672-.308 1.77.032.098.231-.585.442-1.518.21-.934.349-1.73.308-1.771-.04-.04-.239.643-.442 1.519m-17.152-.748c0 .138.065.4.143.584.091.21.144.241.144.083 0-.138-.065-.4-.144-.583-.09-.21-.143-.241-.143-.084m24.492.682c-.113.376-.174.715-.137.752.038.038.16-.239.273-.615.113-.377.174-.715.137-.753-.038-.037-.16.24-.273.616m103.327.827c-.2.656-.329 1.227-.288 1.268.041.041.238-.463.437-1.119.199-.656.329-1.226.288-1.267-.041-.041-.238.462-.437 1.118m8.007-.783c-.026.227.853 2.961.928 2.886.037-.037-.153-.734-.422-1.548-.269-.814-.497-1.416-.506-1.338m-135.426.691c.123.723.711 2.546.725 2.25.007-.138-.173-.812-.399-1.5-.226-.687-.373-1.025-.326-.75m23.175 2.431c-.346 1.197-.598 2.208-.561 2.246.038.037.352-.911.698-2.108s.598-2.208.56-2.246c-.037-.037-.351.911-.697 2.108m-75.145-.396c.346.75.653 1.297.682 1.217.057-.161-.893-2.153-1.151-2.416-.089-.09.122.45.469 1.199m59.425-.952c.567 2.558.844 3.667.901 3.61.089-.089-.75-3.806-.888-3.931-.058-.052-.063.092-.013.321M220.167 42c-.113.468-.166.89-.119.937.047.047.17-.305.273-.783.242-1.132.112-1.262-.154-.154m110.509.533c-.541 1.819-.559 1.892-.446 1.786.143-.134.952-2.859.872-2.939-.035-.036-.227.483-.426 1.153m-189.477-.891c-.211.059.351.11 1.25.112.903.002 1.411-.045 1.134-.105-.648-.142-1.894-.145-2.384-.007m47.468.018c-.419.079-.215.114.717.124.716.007 1.278-.006 1.25-.029-.155-.127-1.467-.19-1.967-.095m-48.885.523c-.587.309-1.625 1.637-1.609 2.058.004.097.125-.049.27-.324.375-.712 1.046-1.397 1.724-1.758.32-.171.508-.311.416-.311-.091 0-.452.151-.801.335m4.721-.128c1.018.472 1.54 1.101 1.919 2.316.122.392.227.562.232.379.03-1.038-1.495-2.947-2.318-2.903-.145.008-.074.096.167.208m42.383.242A4.66 4.66 0 0 0 184.933 45c-.06.229.108-.033.373-.583.539-1.119 1.139-1.753 2.117-2.241.363-.181.548-.332.41-.335-.137-.004-.563.202-.947.456m87.807-.38c-.001.091.1.429.224.75.123.32.227.47.229.333.003-.138-.097-.475-.223-.75s-.23-.425-.23-.333m89.682.041c-5.297.043-5.707.067-5.695.336.008.174.046.206.097.081.065-.161 1.371-.208 5.737-.208 3.657 0 5.653-.059 5.653-.167 0-.092-.019-.149-.042-.127-.023.021-2.61.06-5.75.085m-103.097.153c-.061.061-.111 2.274-.111 4.917v4.805h2.338c3.592 0 4.991-.921 5.248-3.457l.081-.793-.218.917c-.611 2.576-1.548 3.167-5.027 3.167h-2.256v-9.491l2.292-.051 2.292-.052-2.264-.036c-1.245-.021-2.314.013-2.375.074m-69.069.576c.343.31.848.976 1.122 1.48.273.504.498.84.499.747.01-.563-1.232-2.261-1.913-2.616-.184-.096-.052.079.292.389m74.29-.27c1.181.542 1.877 1.548 2.161 3.119l.16.881-.05-.851c-.093-1.599-1.128-3.055-2.353-3.311-.48-.101-.477-.094.082.162m74.024-.084c0 .138.065.4.144.584.09.21.143.241.143.083 0-.138-.065-.4-.143-.583-.091-.21-.144-.241-.144-.084m-135.584.417c.175.793.414 1.269.293.583-.057-.321-.171-.696-.253-.833-.098-.163-.112-.077-.04.25m-73.427 1.168c-.19.614-.341 1.24-.336 1.391.005.151.186-.326.403-1.059.216-.733.368-1.359.336-1.391-.032-.032-.214.445-.403 1.059m88.178.189c-.104.522-.159.98-.121 1.017.038.038.157-.355.264-.874.108-.519.163-.976.122-1.017-.041-.041-.16.353-.265.874m-66.836-.69c-.008.091.09.541.218 1 .127.458.232.683.234.5.002-.355-.428-1.782-.452-1.5m122.339.166c-.004.184.055.634.131 1l.138.667.002-.583c.002-.321-.057-.771-.131-1-.108-.337-.134-.353-.14-.084m65.753.167c.054.275.162.612.238.75.25.449.164-.187-.101-.75l-.236-.5.099.5m-135.613.347c0 .299 1.229 4.397 1.298 4.328.068-.069-1.108-4.274-1.234-4.411-.035-.038-.064-.001-.064.083m-67.39.682c-.47 1.642-.526 2.569-.512 8.471.009 4.027.078 6.34.197 6.667.152.415.164.331.069-.5-.257-2.262-.117-12.431.188-13.65.25-.996.299-1.827.058-.988m191.741.905c-.208.647-.343 1.212-.3 1.255.043.043.241-.458.441-1.114.199-.657.334-1.221.3-1.255-.034-.035-.232.467-.441 1.114m-129.156-.767c.003.183.065.521.139.75l.133.416.005-.416a2.218 2.218 0 0 0-.138-.75l-.144-.334.005.334m12 .083c-.002.229.06.567.139.75l.143.333-.005-.333a3.204 3.204 0 0 0-.138-.75l-.134-.417-.005.417m13.153 2.681c-.481 1.658-.843 3.046-.804 3.084.038.039.463-1.286.946-2.942.482-1.657.844-3.045.804-3.085-.04-.04-.466 1.284-.946 2.943m115.665-2.79c-.024.268.711 2.521.767 2.353.031-.094-.126-.693-.349-1.332-.223-.639-.411-1.099-.418-1.021m-194.562 1.442c.051.688.125 1.307.164 1.375.039.069 1.532.125 3.317.125 3.725 0 3.548.084 3.27-1.552l-.176-1.031.087 1.208.088 1.209H147l-.02-.792c-.011-.435-.08-1.017-.154-1.292-.082-.305-.098-.013-.042.75m31.164-.829c-.06.227-.104.6-.096.829.011.3.058.232.168-.238.17-.722.105-1.251-.072-.591m15.971.075c.058.273.19.91.292 1.417.205 1.021.275 9.701.093 11.587-.1 1.033-.091 1.09.074.5.504-1.803.177-12.825-.408-13.75-.11-.174-.125-.099-.051.246m25.34.347c-.062.334-.076.646-.03.691.045.046.134-.19.197-.524.063-.335.077-.646.031-.692-.046-.046-.135.19-.198.525m-34.685.148c-.063.335-.077.646-.031.692.046.045.135-.191.198-.525.062-.335.076-.646.03-.692-.045-.046-.134.191-.197.525m-53.685.537c-.216 1.509-.144 12.541.085 13.139l.191.5-.093-.5c-.206-1.106-.275-10.533-.09-12.234.203-1.862.136-2.51-.093-.905m204.616-.653c.003.069.116.271.25.449.25.33.326.165.144-.31-.102-.265-.404-.372-.394-.139m-59.966.542c0 .321.034.452.076.292a1.37 1.37 0 0 0 0-.584c-.042-.16-.076-.029-.076.292m-74.563 1c.059.779.107 3.292.107 5.583 0 2.292-.048 4.804-.107 5.584-.09 1.197-.079 1.313.076.75.247-.899.245-11.755-.002-12.667-.152-.558-.164-.437-.074.75m11.966-.667c.108.804.365 1.599.378 1.167.004-.138-.102-.625-.236-1.083l-.242-.834.1.75m122.308 0c-.063.288-.078.562-.032.608.046.045.135-.153.199-.441.063-.288.077-.561.031-.607-.045-.046-.135.152-.198.44m-157.642.875c-.139 1.155-.115 9.998.029 10.959.062.412.113-2.082.113-5.542s-.008-6.292-.018-6.292c-.011 0-.066.394-.124.875m41.225.042c-.107.519-.162.976-.121 1.017.04.041.159-.353.264-.874.105-.522.16-.98.122-1.017-.038-.038-.157.355-.265.874m117.177-.833c-.028.282 1.205 4.923 1.287 4.842.042-.042-.164-.999-.458-2.126-.594-2.275-.805-2.965-.829-2.716m-151.638.583c0 .321.034.452.076.292a1.37 1.37 0 0 0 0-.584c-.042-.16-.076-.029-.076.292m144.479.851c-.209.647-.344 1.212-.301 1.255.044.043.242-.459.441-1.115.2-.656.335-1.221.301-1.255-.034-.034-.233.468-.441 1.115m13.332-.792c-.026.227.853 2.961.928 2.886.037-.037-.153-.734-.423-1.548-.269-.814-.496-1.416-.505-1.338m-66.897 1.024c-.349 2.77-1.705 5.012-4.041 6.682-.437.313-.466.389-.287.75l.2.402-.076-.417c-.064-.352.07-.521.862-1.083 1.962-1.395 3.759-4.882 3.526-6.842-.041-.342-.097-.187-.184.508m59.561-.152c-.107.427-.164.807-.126.846.038.038.158-.28.265-.708.108-.427.164-.807.126-.846-.038-.038-.157.28-.265.708m-150.606 4.652c-.001 2.75.022 3.899.05 2.552.028-1.346.028-3.596 0-5-.028-1.403-.05-.302-.05 2.448m29.2-4.083c.056.413.166.9.244 1.083.173.404-.003-.794-.208-1.416-.09-.275-.102-.161-.036.333m-6.684.083c.123.723.71 2.546.725 2.25.006-.137-.173-.812-.399-1.5-.226-.687-.373-1.025-.326-.75m11.419 1.498c-.203.876-.342 1.672-.309 1.77.033.098.232-.585.442-1.518.21-.934.349-1.73.309-1.771-.041-.04-.24.643-.442 1.519m20.491-.873c0 .069 2.287.125 5.083.125h5.083V55h-4.99c-2.744 0-5.025.056-5.067.125-.043.069 2.221.087 5.031.042l5.11-.084V49.75l-5.125-.083c-2.819-.046-5.126-.027-5.125.041m95.256 2.215c-.346 1.335-.595 2.46-.554 2.502.042.041.354-1.021.694-2.362.34-1.34.589-2.466.554-2.501-.035-.035-.347 1.027-.694 2.361m-5.741-1.408c-.113.376-.174.715-.137.752.038.038.16-.239.273-.615.113-.377.174-.715.137-.753-.038-.037-.16.24-.273.616m30.485-.14c0 .069 2.287.125 5.083.125h5.083v5.328l-5.028.045c-4.302.037-5.037.08-5.096.294-.049.182-.028.194.078.044.109-.154 1.409-.217 5.138-.25l4.992-.044v-5.5l-5.125-.084c-2.819-.045-5.126-.027-5.125.042m-144.8.375c0 .183.06.521.133.75.106.33.133.347.133.083 0-.183-.06-.52-.133-.75-.106-.33-.133-.347-.133-.083m129.312-.026c-.024.269.711 2.522.768 2.353.031-.093-.127-.693-.35-1.332-.223-.639-.411-1.098-.418-1.021m-118.584.705c-.061.244-.079.476-.04.515.039.039.122-.128.183-.373.061-.244.079-.476.04-.515-.039-.039-.121.128-.183.373m102.914 1.246c-.2.657-.335 1.221-.301 1.255.034.035.233-.467.441-1.114.209-.647.344-1.212.301-1.255-.044-.043-.242.458-.441 1.114m-119.903-.592c.175.793.414 1.27.292.584-.056-.321-.17-.696-.253-.834-.098-.163-.111-.076-.039.25m6.606.25c.98 4.405 1.205 5.333 1.255 5.183.067-.202-1.112-5.388-1.254-5.516-.051-.046-.052.104-.001.333m123.121-.271c0 .324.722 2.938.793 2.868.044-.045-.086-.704-.29-1.464-.337-1.257-.503-1.719-.503-1.404M223.76 54.343c-.342 1.201-.593 2.213-.557 2.249.036.036.348-.914.694-2.112.346-1.197.596-2.209.557-2.249-.04-.039-.352.911-.694 2.112m-6.426-.063l-.456 2.053c-.05.23-.049.379.003.332.137-.123.982-3.858.893-3.947-.041-.041-.239.662-.44 1.562M208 53.43c0 .295 1.228 4.398 1.296 4.33.037-.038-.208-1.03-.545-2.206-.57-1.99-.751-2.501-.751-2.124m136.012-.039c-.023.268.712 2.521.768 2.353.031-.094-.126-.693-.349-1.332-.224-.639-.412-1.099-.419-1.021m-17.418 2.203c-.247.792-.419 1.47-.383 1.506.037.037.268-.582.514-1.375.245-.793.418-1.471.382-1.506-.035-.036-.266.583-.513 1.375m6.42-.163c-.108.427-.164.807-.126.846.038.038.157-.28.265-.708.107-.427.164-.807.126-.846-.038-.038-.158.28-.265.708m5.248.13c.048.263.131.694.184.958l.096.481H335.7c-2.397 0-2.855-.04-2.921-.253-.055-.177-.07-.165-.052.041.025.268.292.3 2.904.341 3.273.052 3.227.072 2.802-1.242-.142-.442-.22-.589-.171-.326m6.632.731c.354 1.248.676 2.194.729 2.14.081-.081-.628-2.432-.734-2.432-.043 0-.041.131.005.292m-73.722.228c-.003.057.678 1.707 1.513 3.667a351.193 351.193 0 0 1 1.671 3.961c.084.219.187.365.227.324.041-.04-.634-1.74-1.499-3.778-1.497-3.525-1.901-4.407-1.912-4.174m-54.579.906c-.063.334-.077.646-.031.691.046.046.135-.19.197-.524.063-.335.077-.646.031-.692-.046-.046-.135.19-.197.525m6.169.336c-.061.244-.074.481-.028.527.046.046.133-.116.195-.36.061-.245.074-.482.028-.528-.046-.046-.134.117-.195.361m41.819.155c.153.366.47 1.138.703 1.715.233.577.455 1.017.494.979.091-.091-1.092-2.975-1.31-3.194-.091-.092-.04.133.113.5m61.103.601c-.208.647-.343 1.211-.3 1.255.043.043.241-.459.441-1.115.199-.656.334-1.221.3-1.255-.034-.034-.232.467-.441 1.115m-110.065-.101c.219 1.541.588 1.781.768.5l.093-.667-.209.651-.209.651-.269-.901c-.229-.766-.255-.801-.174-.234m-6.195 0c.123.722.71 2.545.724 2.25.007-.138-.173-.813-.399-1.5-.226-.688-.372-1.025-.325-.75m-62.675.927c-.065.555-.072 1.055-.017 1.111.056.055.106-.043.111-.219.006-.176.069-.676.141-1.111.071-.435.074-.792.006-.792-.068 0-.177.455-.241 1.011m6.546-.899c.153.061.189.392.13 1.195-.067.925-.055.999.071.443.256-1.127.213-1.752-.121-1.737-.179.009-.21.046-.08.099m68.636 2.236c-.346 1.197-.598 2.208-.56 2.246.038.037.352-.911.698-2.108s.598-2.208.56-2.246c-.038-.037-.352.911-.698 2.108m123.915-1.457c-.024.269.711 2.522.767 2.353.031-.093-.126-.693-.349-1.332-.223-.639-.411-1.098-.418-1.021m-161.249.672c.406 2.824 3.245 5.001 5.625 4.314.351-.101.155-.136-.755-.136-2.506 0-3.847-1.154-4.735-4.074-.227-.744-.228-.745-.135-.104m-6.73-.063c0 .23.06.605.133.834l.133.416v-.416c0-.229-.06-.604-.133-.834l-.133-.416v.416m16.054.5c-.321 1.454-1.342 2.829-2.487 3.349-.376.171-.587.312-.469.314 1.179.02 3.525-2.975 3.159-4.034-.041-.116-.132.05-.203.371m130.921.842c-.199.657-.329 1.227-.288 1.268.041.041.238-.462.437-1.118.2-.657.329-1.227.288-1.268-.041-.041-.238.462-.437 1.118m-124.401.152c-.905 3.523-3.351 6.383-6.492 7.593-.568.218-.905.401-.75.405.501.015 2.693-1.092 3.586-1.811 1.897-1.526 4.286-5.768 4.017-7.131-.029-.144-.191.281-.361.944m-69.246-.66c-.003.229.06.566.138.75l.144.333-.005-.333a3.15 3.15 0 0 0-.139-.75l-.133-.417-.005.417m6.653.083c-.026 1.171 1.714 3.273 2.685 3.243.12-.003-.045-.12-.365-.258-1.049-.455-1.644-1.206-2.102-2.652-.115-.366-.214-.516-.218-.333m8.672.083a6.966 6.966 0 0 1-.117.667c-.08.36-.067.376.096.12.105-.163.157-.463.118-.666-.039-.204-.083-.258-.097-.121m6.588.584c-.566 3.036-2.413 5.674-4.863 6.944-.582.302-1.03.576-.996.61.194.195 2.323-1.209 3.252-2.145 1.49-1.501 3.03-4.683 2.796-5.776-.037-.169-.119-.008-.189.367m57.164 0c.176.793.414 1.269.293.583-.057-.321-.171-.696-.253-.833-.098-.164-.112-.077-.04.25m55.99.583c.06.229.175.488.257.575.238.255.165-.111-.115-.575l-.251-.417.109.417m-134.664.25c.143.574.717 1.917.819 1.917.078 0-.737-2.208-.861-2.333-.046-.046-.027.142.042.416m215.069-.318c0 .262.714 2.41.779 2.344.082-.082-.605-2.443-.712-2.443-.037 0-.067.045-.067.099M145.5 63.056c-.409.465-.478.609-.232.478.329-.175.992-1.015.87-1.103-.03-.022-.317.259-.638.625m185.711-.348c-.192.246-.591 1.801-.488 1.903.039.04.177-.363.306-.895l.236-.966h8.789l.221.583.222.584-.101-.584c-.056-.321-.135-.639-.175-.708-.136-.23-8.827-.15-9.01.083m-152.539.047c-.035 1.137 2.901 4.672 4.62 5.562.657.341.402.064-.345-.374-1.114-.653-2.782-2.536-3.569-4.029-.385-.732-.703-1.254-.706-1.159m32.099.412c.114.661.391 1.271.378.833-.004-.138-.114-.513-.244-.833l-.235-.584.101.584m55.896-.272c0 .228 1.715 4.279 1.783 4.211.062-.063-1.565-4.1-1.717-4.259-.036-.038-.066-.016-.066.048m-45.652.953c-.113.377-.167.722-.121.768.046.047.169-.231.273-.616.245-.912.115-1.042-.152-.152m102.845.512c-.198.657-.331 1.225-.296 1.26.036.035.228-.473.427-1.129.2-.656.332-1.223.295-1.26-.037-.037-.229.471-.426 1.129m-85.193-.652c0 .069 2.7.125 6 .125h6v5.331l-9.375.044-9.375.045 9.44.04c8.479.036 9.451.013 9.542-.223.148-.387.118-4.951-.034-5.191-.146-.23-12.199-.398-12.198-.171m-94.917.238c-.514.147-1.249.209-1.917.162-.849-.06-.975-.042-.583.083.641.205 2.382.063 3.107-.253.698-.305.477-.302-.607.008m196.773.304c0 .183.065.483.144.667l.143.333v-.333c0-.184-.065-.484-.143-.667l-.144-.333v.333m-208.023.149c0 .191 1.065 1.768 1.194 1.768.064 0-.148-.394-.471-.875-.664-.99-.723-1.062-.723-.893m78.685.101c-.007.137.173.813.399 1.5.226.688.373 1.025.326.75-.123-.723-.711-2.546-.725-2.25m136.375.292c.354 1.248.677 2.194.73 2.14.081-.081-.629-2.432-.734-2.432-.043 0-.041.131.004.292m-72.882-.042c0 .092.108.354.239.583.131.23.238.342.238.25 0-.091-.107-.354-.238-.583-.131-.229-.239-.342-.239-.25m-54.299 1.296l-.629 2.169-.277.964-3.487-.048c-1.917-.026-3.486.009-3.486.077 0 .303 6.981.14 7.139-.166.235-.456 1.249-4.043 1.166-4.126-.041-.041-.232.468-.426 1.13m109.807.218a60.232 60.232 0 0 1-.588 2.153l-.209.666-3.361.045c-3.742.051-3.514.138-3.109-1.197.136-.451.216-.852.176-.892-.124-.123-.721 2.036-.601 2.173.062.07 1.68.108 3.595.083l3.482-.045.547-2.083c.3-1.146.524-2.152.497-2.236-.028-.084-.221.516-.429 1.333m10.751-.431c.059.321.172.734.252.917.1.229.113.15.04-.25a5.209 5.209 0 0 0-.251-.917c-.101-.228-.113-.15-.041.25m-17.675.429c-.061.244-.079.476-.04.515.039.04.121-.128.183-.372.061-.244.079-.476.04-.516-.039-.039-.122.129-.183.373m-189.095.473c.925 1.039 3.583 2.612 4.381 2.594.111-.003-.286-.201-.881-.441-1.211-.488-1.673-.775-3-1.867-.523-.429-.738-.552-.5-.286m141.346.057c.007.068.231.575.499 1.125.525 1.078.498.691-.036-.515-.295-.668-.496-.933-.463-.61m65.922.875c.049.32.164.827.257 1.125l.167.541h7.178l-.117-.625c-.064-.343-.19-.737-.279-.875-.164-.253-.123.056.127.959l.104.375h-3.441c-2.606 0-3.458-.051-3.509-.209a71.979 71.979 0 0 1-.322-1.041c-.18-.592-.228-.665-.165-.25m-129.34.166c.061.321.18.696.265.834.103.166.118.054.045-.334-.061-.321-.18-.696-.265-.833-.103-.166-.118-.054-.045.333m56.749.384c-.006.073.104.354.244.625l.254.491h3.579c1.968 0 3.579-.056 3.579-.125 0-.068-1.597-.103-3.55-.077l-3.55.048-.273-.548c-.15-.301-.277-.488-.283-.414m-85.011.364c0 .109 1.124.573 1.657.685.235.049-.023-.103-.573-.338-1.096-.467-1.084-.463-1.084-.347m-37.583.586l-.333.143.333.009c.183.005.446-.063.583-.152.332-.214-.085-.214-.583 0m205.75.041c0 .069 1.5.125 3.333.125 1.834 0 3.334-.056 3.334-.125 0-.068-1.5-.125-3.334-.125-1.833 0-3.333.057-3.333.125m-212.833.33c.558.261 5.762.258 6.333-.004.344-.158.257-.17-.5-.071-.504.066-1.704.12-2.667.12-.962 0-2.162-.054-2.666-.12-.768-.101-.849-.088-.5.075m47.166-.005c.57.261 5.611.264 6.167.004.348-.162.266-.174-.5-.074-.504.066-1.667.12-2.583.12-.917 0-2.079-.054-2.584-.12-.755-.099-.843-.087-.5.07"/><path fill="#3ccc84" d="M141.788 35.954c.296.036.821.037 1.167.001.345-.036.103-.066-.538-.067-.642-.001-.925.029-.629.066m47 0c.296.036.821.037 1.167.001.345-.036.103-.066-.538-.067-.642-.001-.925.029-.629.066m-31.378.588c-.044.114-.06 7.558-.036 16.541l.043 16.334h9.236c7.352 0 9.245-.044 9.279-.213.024-.117.005-.135-.042-.042-.056.114-3.153.171-9.237.171H157.5V36.507l3.375-.049 3.375-.049-3.38-.038c-2.579-.029-3.399.012-3.46.171m49.416-.085c2.723.036 3.781.105 3.887.255.106.149.127.136.078-.045-.058-.213-.637-.251-3.888-.255l-3.82-.005 3.743.05m14.616.001c-.042.069 1.65.104 3.76.078l3.837-.048-.105.464c-.088.386-.074.414.078.163.446-.736.227-.782-3.747-.782-2.06 0-3.78.057-3.823.125m10.469.082c-.044.116-.061 7.56-.037 16.543l.043 16.334h9.486c7.554 0 9.495-.044 9.529-.213.024-.117.005-.135-.042-.042-.056.114-3.232.171-9.487.171H232V36.5h18.849l-.05 2.825c-.027 1.554.009 2.767.08 2.696.071-.071.109-1.361.084-2.867l-.046-2.737-9.463-.043c-7.482-.034-9.48 0-9.543.166m22.499.002c-.044.114-.06 7.558-.036 16.541l.043 16.334 3.321.045c1.827.025 3.379-.013 3.45-.083.071-.071-1.405-.107-3.279-.081l-3.409.048V36.504l6.042-.046 6.041-.046-6.047-.039c-4.713-.031-6.064.006-6.126.169m25.534-.087c-.043.071 1.451.107 3.322.08l3.401-.048v13.497c0 7.423.056 13.531.125 13.574.068.042.087-6.047.041-13.532l-.083-13.609-3.363-.045c-1.85-.025-3.399.012-3.443.083m21.967.055c-.061.098-.066.224-.011.279.055.055.1.012.1-.095 0-.145 2.352-.194 9.413-.194h9.412l.052 2.792.053 2.791-.007-2.833-.006-2.833-9.448-.043c-6.6-.03-9.481.011-9.558.136m32.214-.052c.848.03 2.235.03 3.083 0 .848-.031.154-.055-1.541-.055-1.696 0-2.39.024-1.542.055m17.786.082c-.044.116-.061 7.56-.037 16.543l.043 16.334h6.833l.003-6.584.003-6.583-.047 6.542-.046 6.541H352V36.5h18.159l.051 2.833.052 2.834-.006-2.875-.006-2.875-9.13-.043c-7.215-.034-9.146 0-9.209.166m-205.244.016c0 .043.242.162.538.266.295.103.464.118.375.035-.19-.178-.913-.416-.913-.301m-57.295.777c0 .321.034.452.076.292.042-.16.042-.423 0-.583-.042-.161-.076-.03-.076.291m190.375 15.584c0 8.891.02 12.504.045 8.029.024-4.476.024-11.751 0-16.167-.025-4.416-.045-.754-.045 8.138m-58.652-15.488c-.061.244-.079.476-.04.515.039.039.122-.128.183-.373.061-.244.079-.476.04-.515-.039-.039-.121.128-.183.373m-86.928 1.654c-.405.413-.699.75-.653.75.046 0 .414-.337.819-.75.405-.412.699-.75.653-.75-.046 0-.414.338-.819.75m47 0c-.405.413-.699.75-.653.75.046 0 .414-.337.819-.75.405-.412.699-.75.653-.75-.046 0-.414.338-.819.75M197 38.552c0 .029.244.273.542.542l.541.489-.489-.541c-.456-.505-.594-.619-.594-.49m6.69.281c0 .138.065.4.143.584.091.21.144.241.144.083 0-.138-.065-.4-.144-.583-.09-.21-.143-.241-.143-.084M89.372 39.5c0 .321.034.452.076.292a1.37 1.37 0 0 0 0-.584c-.042-.16-.076-.029-.076.292m138.723.262c-.061.244-.079.476-.04.515.039.04.122-.128.183-.372s.079-.476.04-.516c-.039-.039-.121.129-.183.373m-16.572.405c0 .137.065.4.144.583.09.21.143.241.143.083 0-.137-.065-.4-.143-.583-.091-.21-.144-.241-.144-.083m8.739.928c-.061.244-.079.476-.04.516.039.039.121-.129.183-.373.061-.244.079-.476.04-.515-.039-.04-.122.128-.183.372m-79.762.913c-.183.123-.115.139.25.057.613-.137.746-.233.319-.229a1.207 1.207 0 0 0-.569.172m3.014-.115c.038.033.294.11.569.172.365.082.433.066.25-.057-.225-.153-.986-.259-.819-.115m46.5 0c.038.032.332.107.653.166.41.075.509.059.333-.057-.226-.148-1.151-.251-.986-.109m48.727.486c-.045.117-.061 1.786-.036 3.709l.045 3.495 5.083.084 5.084.083v5.333l-5.084.084-5.083.083-.045 4.072c-.024 2.24.013 4.13.084 4.2.07.071.106-1.743.08-4.03l-.047-4.159h4.972c3.646 0 5.026-.053 5.173-.2.138-.138.2-.981.2-2.716 0-1.736-.062-2.579-.2-2.717-.147-.147-1.528-.2-5.173-.2h-4.973l.048-3.667c.047-3.6.036-3.881-.128-3.454m3.29-.088c1.53.028 4.08.028 5.667 0 1.587-.027.335-.049-2.781-.05-3.117 0-4.416.023-2.886.05m19.302.001c0 .068.581.104 1.292.079 2.283-.079 2.508-.148.583-.176-1.031-.016-1.875.028-1.875.097m3.848-.064c.038.034.369.107.736.163.464.07.565.055.333-.05-.32-.145-1.213-.239-1.069-.113m46.85.063c1.53.028 4.08.028 5.667 0 1.587-.027.335-.049-2.781-.05-3.117 0-4.416.023-2.886.05m46.74.132c-.058.149-.088 1.971-.069 4.049l.036 3.778.089-4c.097-4.308.098-4.229-.056-3.827m3.021-.132c1.489.028 3.927.028 5.416 0 1.49-.027.271-.05-2.708-.05s-4.198.023-2.708.05M205.023 43.5c0 .137.065.4.144.583.09.21.143.241.143.084 0-.138-.065-.4-.143-.584-.091-.21-.144-.241-.144-.083m14.414 1.09a1.603 1.603 0 0 0-.089.549c.008.153.08.056.161-.214.157-.526.101-.786-.072-.335m56.105.827c.002.366.036.497.076.289a1.83 1.83 0 0 0-.003-.666c-.042-.16-.075.01-.073.377m-144.605.173a1.888 1.888 0 0 0-.087.632c.011.228.068.147.154-.221.146-.619.106-.862-.067-.411m70.004.743c.132.719.227.855.223.32-.001-.222-.076-.516-.166-.653-.116-.176-.132-.077-.057.333m134.564-.144c-.003.059.107.321.244.584.137.262.249.36.25.217.001-.244-.482-1.028-.494-.801m-116.576.573c-.062.244-.08.476-.04.515.039.04.121-.128.182-.372.062-.244.08-.476.04-.516-.039-.039-.121.129-.182.373m49.783.238c0 .413.033.581.072.375.04-.206.04-.544 0-.75-.039-.206-.072-.038-.072.375m-84.173.333c0 .321.034.452.076.292.042-.16.042-.423 0-.583-.042-.161-.076-.03-.076.291m-53.834.167c0 .321.035.452.077.292a1.402 1.402 0 0 0 0-.584c-.042-.16-.077-.029-.077.292m46.834 0c0 .321.034.452.076.292a1.37 1.37 0 0 0 0-.584c-.042-.16-.076-.029-.076.292m98.003.083c.002.367.036.497.076.29.04-.207.038-.507-.003-.667-.042-.159-.075.011-.073.377m-74.328.667c.002.458.034.626.072.373a2.94 2.94 0 0 0-.002-.834c-.04-.205-.071.003-.07.461m-16.842.25c0 .321.034.452.076.292a1.37 1.37 0 0 0 0-.584c-.042-.16-.076-.029-.076.292m21.985-.333c0 .137.064.4.143.583.09.21.143.241.143.083 0-.137-.064-.4-.143-.583-.09-.21-.143-.241-.143-.083M137.573 53c0 2.612.023 3.681.052 2.375.028-1.306.028-3.444 0-4.75-.029-1.306-.052-.238-.052 2.375m80.856-4.071c-.062.244-.08.476-.04.515.039.039.121-.128.182-.373.062-.244.08-.476.04-.515-.039-.039-.121.128-.182.373m-87.857 3.988c0 2.2.024 3.077.053 1.948a93.545 93.545 0 0 0-.001-4c-.029-1.071-.052-.148-.052 2.052m63.832.166c0 2.017.025 2.819.054 1.783a77.281 77.281 0 0 0 0-3.667c-.03-.98-.054-.132-.054 1.884m19.364-3.166c.137.612.233.746.229.319a1.203 1.203 0 0 0-.171-.569c-.124-.183-.139-.115-.058.25m96.732-.299c4.375.118 8.462.121 8.391.007-.042-.069-2.342-.109-5.109-.09-2.768.02-4.245.057-3.282.083m-42.989.927c-.475.585-.493.634-.11.288.399-.359.872-1.006.73-.997-.026.002-.305.321-.62.709m75.515-.628c0 .091.1.429.224.75.124.32.227.47.23.333.003-.138-.098-.475-.224-.75s-.229-.425-.23-.333m25.891 3.224v2.776l-5.084.087-5.083.087 4.945.038c2.719.021 5.063-.008 5.208-.063.282-.109.414-5.453.139-5.624-.069-.042-.125 1.172-.125 2.699M214.19 51.667c0 .137.065.4.143.583.091.21.144.241.144.083 0-.137-.065-.4-.144-.583-.09-.21-.143-.241-.143-.083m3.405.928c-.061.244-.079.476-.04.516.039.039.122-.129.183-.373s.079-.476.04-.515c-.039-.04-.121.128-.183.372m56.071.613c-.245.336-.285.452-.105.306.273-.222.686-.847.56-.847-.032 0-.237.243-.455.541m37.626 2.083c1.398.028 3.685.028 5.083 0 1.398-.028.254-.05-2.542-.05s-3.939.022-2.541.05m-94.521.799a1.58 1.58 0 0 0-.09.549c.008.153.08.056.161-.214.157-.526.102-.786-.071-.335m116.167.118c-.216.807-.267.792 2.729.792 2.833 0 2.833 0 2.814-.375-.015-.282-.039-.303-.096-.083-.068.262-.343.291-2.744.291h-2.667l.109-.5c.127-.578.005-.684-.145-.125m-7.009 1.054c-.062.244-.08.476-.04.515.039.04.121-.128.182-.372.062-.244.08-.476.04-.516-.039-.039-.121.129-.182.373m-141.557.405c0 .32.034.452.076.291.042-.16.042-.423 0-.583-.042-.16-.076-.029-.076.292m16.84.333c0 .413.033.581.072.375.04-.206.04-.544 0-.75-.039-.206-.072-.038-.072.375m14.311-.5c0 .137.065.4.144.583.09.21.143.241.143.084 0-.138-.065-.4-.143-.584-.091-.21-.144-.241-.144-.083m45.919-.042c-.042.069.621.125 1.475.125.853 0 1.516-.056 1.474-.125-.043-.068-.706-.125-1.474-.125-.769 0-1.432.057-1.475.125m-130.733.959c.002.366.036.497.076.289a1.83 1.83 0 0 0-.004-.666c-.042-.16-.074.01-.072.377m85.553-.155c-.061.244-.079.476-.04.515.039.04.121-.128.183-.372.061-.244.079-.476.04-.516-.039-.039-.122.129-.183.373m-67.711.029c.99.03 2.565.03 3.5 0 .934-.03.124-.054-1.801-.054-1.925 0-2.69.025-1.699.054m28.988.376c0 .32.034.452.076.291.042-.16.042-.423 0-.583-.042-.16-.076-.029-.076.292m7 .166c0 .321.034.452.076.292.042-.16.042-.423 0-.583-.042-.161-.076-.03-.076.291m161.154-.416c-.001.091.1.429.224.75.123.32.227.47.229.333.003-.138-.097-.475-.223-.75s-.23-.425-.23-.333m-144.67 1.028a3.423 3.423 0 0 1-.119.666c-.091.289-.086.29.094.009.105-.163.158-.463.119-.666-.072-.37-.072-.37-.094-.009m-70.161.305c-.003.183.059.483.138.667.183.424.183-.014 0-.584-.107-.335-.134-.351-.138-.083m142.316 1.167c0 .091.108.354.239.583.131.229.238.342.238.25 0-.092-.107-.354-.238-.583-.131-.229-.239-.342-.239-.25m-127.293 1.43c-.197.361-.29.614-.204.561.184-.114.701-1.081.621-1.162-.031-.031-.219.239-.417.601m-7.248.07c.181.363.8.962 1.196 1.156.138.067.063-.029-.166-.215a7.212 7.212 0 0 1-.806-.806c-.223-.268-.319-.325-.224-.135m192.587.507c-.054.141-.052.304.005.361.058.057.104-.024.104-.179 0-.261.353-.28 4.401-.236 2.421.026 4.366-.01 4.324-.078-.17-.274-8.727-.146-8.834.132m-139.391.424c-.276.227-.304.283-.083.169.544-.281.845-.512.667-.511-.092.001-.354.155-.584.342m-24.364.277c1.495.027 3.895.027 5.333 0 1.438-.028.215-.051-2.719-.051-2.933 0-4.11.023-2.614.051m74.562 0c1.53.027 4.08.027 5.667 0 1.587-.028.335-.05-2.781-.05-3.117 0-4.416.022-2.886.05m47.938 0c1.495.027 3.895.027 5.333 0 1.438-.028.215-.051-2.719-.051-2.933 0-4.11.023-2.614.051m22.062 0c1.53.027 4.08.027 5.667 0 1.587-.028.335-.05-2.781-.05-3.117 0-4.416.022-2.886.05m-13.781 2.849v2.776h-9.192c-5.056 0-9.158.056-9.116.125.14.225 18.131.152 18.358-.075.224-.224.294-5.389.075-5.524-.069-.043-.125 1.171-.125 2.698m22.621-.016l-.038 2.875h-9.402c-6.256 0-9.432-.057-9.488-.171-.047-.093-.065-.075-.042.042.064.316 18.904.398 19.025.083.045-.119.06-1.451.032-2.96l-.05-2.744-.037 2.875m-131.744-2.34c.207.04.507.038.667-.003.159-.042-.011-.075-.377-.073-.367.002-.497.036-.29.076m9.363 1.59c-.602.763-.781 1.142-.256.542.423-.484.827-1.083.73-1.083-.026 0-.24.243-.474.541m-18.039.37c.164.226.368.414.453.417.085.003-.022-.182-.237-.412-.5-.532-.602-.534-.216-.005m-46.784.195c0 .089.281.42.625.736l.625.574-.584-.664a16.726 16.726 0 0 1-.625-.737c-.023-.039-.041.002-.041.091m-27.45 1.06c0 .504.031.711.069.459a3.702 3.702 0 0 0 0-.917c-.038-.252-.069-.046-.069.458m44.189-.291l-.489.541.541-.489c.298-.269.542-.513.542-.542 0-.129-.138-.015-.594.49m190.617-.375c0 .137.065.4.144.583.09.21.143.241.143.083 0-.137-.065-.4-.143-.583-.091-.21-.144-.241-.144-.083m7.406.5c.061.229.181.529.266.666.107.174.12.123.043-.166a3.09 3.09 0 0 0-.266-.667c-.107-.174-.121-.123-.043.167m.518 1.625l.095.541h-3.591c-2.285 0-3.621-.062-3.675-.171-.046-.093-.065-.075-.041.042.032.163.89.223 3.658.258 3.916.048 4.058.015 3.638-.846-.156-.318-.167-.295-.084.176m-72.434.166l-.013.375h-3.575c-3.229 0-3.592-.028-3.745-.291-.093-.161-.172-.213-.175-.117-.015.511.428.575 3.95.575 3.691 0 3.922-.044 3.657-.703-.047-.117-.092-.045-.099.161m-56.903.115c-.082.214-.651.261-3.645.302l-3.548.049 3.521.038c3.433.037 4.322-.091 3.856-.557-.047-.047-.13.028-.184.168m102.723.302c0 .069 1.608.125 3.574.125 1.965 0 3.608-.056 3.651-.125.042-.069-1.566-.125-3.574-.125s-3.651.056-3.651.125m-180.712.579c.296.036.821.037 1.167.001.346-.036.104-.066-.538-.067-.642-.001-.925.029-.629.066m47.337 0c.298.037.786.037 1.084 0 .298-.037.054-.067-.542-.067-.596 0-.84.03-.542.067"/></g></svg>