<svg xmlns="http://www.w3.org/2000/svg" role="img" viewBox="-3.91 7.09 619.32 159.32"><defs><style>.cls-1{fill:#00b75f}.cls-3{fill:#fbfdfc}.cls-4{fill:#f8fcfa}</style></defs><path d="M388.893 132.965q-106.416 0-212.831.036c-1.543.001-1.958-.313-1.955-1.921q.086-44.329.006-88.658c-.002-1.455.396-1.759 1.792-1.758q212.988.049 425.976 0c1.39 0 1.804.293 1.802 1.759q-.072 44.406 0 88.813c.002 1.466-.412 1.76-1.802 1.76q-106.494-.053-212.988-.031zm6.518-46.144c0 8.471.025 16.942-.03 25.413-.007 1.192.324 1.51 1.49 1.473 2.665-.085 5.335-.065 8.001-.008 1.023.022 1.483-.173 1.467-1.351-.065-4.81-.027-9.621-.027-14.432 0-3.887 0-3.846 3.877-3.894a1.723 1.723 0 0 1 1.941 1.28c2.307 5.76 4.728 11.475 7.047 17.23a1.526 1.526 0 0 0 1.697 1.171c2.928-.063 5.858-.021 8.786-.024 1.886-.001 1.95-.09 1.22-1.796-2.775-6.474-5.54-12.952-8.354-19.409-.405-.928-.36-1.422.587-1.977a11.905 11.905 0 0 0 3.89-3.808c2.311-3.516 2.87-7.444 2.696-11.541-.385-9.086-5.825-14.58-14.933-15.04-5.904-.298-11.816-.021-17.722-.158-1.288-.03-1.674.289-1.664 1.616.06 8.418.03 16.837.03 25.255zm-87.481-.216a92.208 92.208 0 0 0-.343-9.713c-1.642-12.796-11.685-19.98-24.16-17.016-7.483 1.778-11.653 7.063-13.14 14.248a63.706 63.706 0 0 0-.068 25.532c1.779 8.878 7.762 13.843 16.779 14.69 9.84.925 17.473-4.482 19.978-14.039 1.131-4.319.938-8.701.954-13.702zm236.365 27.075c1.517 0 3.036-.053 4.548.018 1.049.05 1.372-.174 1.02-1.284q-8.125-25.644-16.17-51.312c-.27-.857-.632-1.162-1.523-1.142-2.456.055-4.918.094-7.37-.013-1.199-.053-1.594.446-1.908 1.485-1.386 4.592-2.855 9.159-4.286 13.737q-5.787 18.513-11.592 37.02c-.4 1.265-.177 1.561 1.134 1.519 2.82-.09 5.649-.094 8.469.002 1.245.043 1.684-.394 1.949-1.576.613-2.746 1.446-5.443 2.103-8.18.22-.915.564-1.294 1.56-1.28q6.116.08 12.234-.004c.997-.016 1.351.367 1.57 1.253.714 2.885 1.54 5.743 2.218 8.637a1.233 1.233 0 0 0 1.496 1.136c1.514-.057 3.032-.016 4.548-.016zM473.14 86.832q0 12.71-.008 25.42c-.002.856-.016 1.464 1.194 1.458q14.282-.07 28.565-.012c.875.003 1.19-.25 1.163-1.155-.06-2.038-.116-4.085.014-6.117.094-1.472-.272-1.956-1.847-1.926-5.596.106-11.196.014-16.793.064-1.099.01-1.424-.317-1.405-1.412a296 296 0 0 0-.004-11.14c-.026-1.224.303-1.602 1.559-1.582 4.603.074 9.208 0 13.81.051 1.092.013 1.613-.157 1.539-1.429a54.248 54.248 0 0 1-.003-5.96c.062-1.187-.303-1.506-1.48-1.489-4.55.067-9.103-.016-13.653.055-1.297.02-1.85-.194-1.785-1.683.134-3.08.11-6.172.008-9.255-.045-1.343.396-1.646 1.672-1.63 5.65.065 11.3.004 16.95.049 1.032.008 1.366-.296 1.33-1.33-.07-2.09-.089-4.187.005-6.275.055-1.22-.29-1.596-1.557-1.588q-13.81.082-27.623-.009c-1.474-.012-1.687.492-1.679 1.79.054 8.368.028 16.737.028 25.105zm-114.722-.002q0 12.707-.003 25.414c0 .798-.15 1.479 1.139 1.47 9.519-.057 19.039-.041 28.558-.013.902.002 1.17-.287 1.147-1.168-.054-2.09-.1-4.187.013-6.273.072-1.34-.252-1.781-1.692-1.757-5.595.094-11.193 0-16.789.068-1.21.015-1.476-.36-1.454-1.5.07-3.659.082-7.322-.005-10.98-.03-1.273.265-1.692 1.612-1.666 4.549.09 9.101-.015 13.65.065 1.278.023 1.592-.389 1.534-1.589a58.888 58.888 0 0 1 0-5.802c.06-1.164-.268-1.517-1.466-1.498-4.55.073-9.101-.015-13.65.058-1.247.02-1.734-.214-1.684-1.593.111-3.134.09-6.276.006-9.41-.032-1.22.296-1.584 1.547-1.568 5.648.069 11.298 0 16.947.055 1.101.01 1.43-.298 1.386-1.397a77.09 77.09 0 0 1 .002-6.43c.05-1.143-.36-1.367-1.418-1.363q-13.966.058-27.931-.004c-1.162-.006-1.487.273-1.479 1.467.057 8.47.03 16.942.03 25.414zm-25.934 11.1l-.311.033c-2.827-12.188-5.679-24.37-8.442-36.573-.276-1.217-.773-1.456-1.878-1.434q-4.626.094-9.255 0c-1.09-.02-1.295.206-.979 1.3q7.405 25.627 14.707 51.284c.249.875.6 1.172 1.493 1.157 2.98-.048 5.963-.066 8.942.01.994.024 1.335-.356 1.588-1.237q7.342-25.564 14.752-51.109c.305-1.05.272-1.448-1-1.412q-4.704.132-9.413-.003c-1.154-.035-1.519.415-1.75 1.433q-2.682 11.83-5.44 23.641-1.495 6.458-3.014 12.91zM192.67 86.81c0 2.768-.132 5.544.031 8.303a23.775 23.775 0 0 0 3.533 11.72c3.965 6.143 9.953 7.902 16.834 7.508 4.15-.237 8.03-1.313 11.2-4.223 3.969-3.646 5.197-8.42 5.611-13.537.067-.825-.376-.93-1.053-.924a378.3 378.3 0 0 1-8.786-.008c-.842-.013-1.025.3-1.082 1.084a17.37 17.37 0 0 1-.916 4.91 5.007 5.007 0 0 1-3.218 3.177c-5.691 1.934-9.991-.582-10.857-6.471-.84-5.712-.601-11.467-.495-17.21a28.946 28.946 0 0 1 .7-6.525c1.342-5.37 5.27-7.54 10.567-5.837a5.005 5.005 0 0 1 3.306 3.09 13.555 13.555 0 0 1 .909 4.905c.003 1.334.488 1.632 1.74 1.567 2.137-.112 4.286-.03 6.43-.03 2.926 0 2.926 0 2.575-2.852-1.207-9.808-6.693-15.234-16.317-16.136-9.492-.89-16.614 3.825-19.502 12.893-1.518 4.767-1.386 9.687-1.21 14.596zm362.404-.016c0 8.472.022 16.945-.026 25.418-.007 1.166.292 1.54 1.485 1.5a118.9 118.9 0 0 1 8.002.001c1.194.041 1.484-.326 1.473-1.492-.058-6.328.008-12.657-.058-18.985-.013-1.213.352-1.473 1.5-1.457 4.655.065 9.311-.001 13.967.049 1.046.01 1.49-.202 1.44-1.362a82.244 82.244 0 0 1-.004-6.43c.036-1.027-.269-1.325-1.306-1.313-4.76.055-9.52-.006-14.28.048-1.033.012-1.327-.278-1.31-1.308.06-3.607.083-7.218-.008-10.825-.033-1.286.403-1.558 1.596-1.544 5.179.058 10.359-.017 15.537.054 1.302.018 1.88-.198 1.77-1.677a47.2 47.2 0 0 1-.008-5.958c.065-1.242-.323-1.572-1.558-1.565q-13.34.079-26.68-.001c-1.264-.008-1.566.367-1.559 1.585.05 8.42.027 16.841.027 25.262zm-318.632.042q0 12.705-.007 25.41c-.001.847-.033 1.471 1.186 1.465q13.806-.072 27.613-.005c1.036.004 1.201-.404 1.18-1.3-.054-2.195-.082-4.394.009-6.587.045-1.094-.37-1.301-1.349-1.294-5.281.037-10.565-.04-15.845.053-1.482.026-1.927-.31-1.919-1.866.067-13.75.025-27.502.063-41.253.003-1.132-.223-1.559-1.45-1.513-2.61.098-5.23.098-7.842.001-1.288-.047-1.68.306-1.67 1.636.061 8.417.031 16.835.031 25.253zm200.597-.119q0 12.784-.012 25.568c-.002.898.064 1.43 1.228 1.425q13.807-.069 27.614-.01c.902.003 1.163-.298 1.141-1.175-.054-2.143-.087-4.29.01-6.43.054-1.216-.277-1.601-1.544-1.583-5.177.073-10.355.03-15.532.03-1.998 0-1.998-.001-1.998-2.025 0-13.646-.019-27.293.029-40.939.004-1.307-.343-1.686-1.65-1.633-2.61.106-5.23.096-7.842.003-1.215-.043-1.475.372-1.47 1.516.047 8.417.026 16.835.026 25.253zM123.874 69.582c14.507 6.06 23.58 16.802 26.921 32.096a43.866 43.866 0 0 1-29.403 50.742c-14.204 4.517-27.53 2.382-39.77-6.201-.38-.267-.714-.597-1.07-.897.016-.713.565-1.083.99-1.531 1.865-1.964 3.914-3.743 5.598-5.89a43.271 43.271 0 0 0 9.444-25.115 38.513 38.513 0 0 0-.319-8.413q.02-.14.03-.282a32.22 32.22 0 0 0 9.446-5.053 44.083 44.083 0 0 0 15.379-19.613 63.182 63.182 0 0 0 2.754-9.843zm-44.216 75.597a40.593 40.593 0 0 1-20.992 9.034c-14.592 1.86-27.356-2.291-37.718-12.785-21.98-22.26-14.177-59.862 14.768-71.727.192-.078.398-.122.598-.182a13.017 13.017 0 0 0 .518 3.225 44.502 44.502 0 0 0 9.607 19.08 42.314 42.314 0 0 0 15.794 11.707 1.905 1.905 0 0 1 1.43 2.227c-.125.96-.027 1.97-.118 2.899a35.676 35.676 0 0 0 .382 8.754c1.563 10.558 6.642 19.178 14.413 26.34.47.433 1.317.554 1.318 1.428zM36.369 69.257a42.119 42.119 0 0 1 3.464-24.45 44.12 44.12 0 0 1 83.825 11.982 39.074 39.074 0 0 1-.034 12.47 7.075 7.075 0 0 1-.746-.206 42.915 42.915 0 0 0-19.496-2.558 41.084 41.084 0 0 0-19.15 6.531c-1.405.907-3.057 1.535-3.96 3.098l-.612.018c-.01-.477-.334-.695-.68-.966a39.17 39.17 0 0 0-8.178-4.84 43.637 43.637 0 0 0-16.86-3.946 47.781 47.781 0 0 0-17.573 2.867z" class="cls-1"/><path fill="#009d52" d="M36.369 69.257a47.781 47.781 0 0 1 17.573-2.867 43.637 43.637 0 0 1 16.86 3.945 39.17 39.17 0 0 1 8.179 4.841c.345.271.669.49.679.966a73.59 73.59 0 0 0-6.218 6.347 44.253 44.253 0 0 0-9.446 20.262c-.153.747-.2 1.545.827 1.917a45.47 45.47 0 0 0 22.417 2.082c3.106-.453 6.016-1.59 9.025-2.378a38.497 38.497 0 0 1 .32 8.414 43.271 43.271 0 0 1-9.445 25.116c-1.684 2.146-3.733 3.925-5.597 5.889-.426.448-.975.818-.991 1.53l-.894-.142c0-.874-.848-.995-1.318-1.427-7.77-7.163-12.85-15.783-14.413-26.341a35.676 35.676 0 0 1-.382-8.754c.091-.93-.007-1.94.118-2.899a1.905 1.905 0 0 0-1.43-2.227 42.314 42.314 0 0 1-15.794-11.708 44.502 44.502 0 0 1-9.607-19.079 13.017 13.017 0 0 1-.518-3.225.528.528 0 0 1 .055-.262zm43.903 6.867c.903-1.563 2.555-2.19 3.96-3.098a41.084 41.084 0 0 1 19.15-6.53 42.915 42.915 0 0 1 19.496 2.557 7.075 7.075 0 0 0 .746.207l.25.322a63.19 63.19 0 0 1-2.754 9.843 44.083 44.083 0 0 1-15.379 19.613 32.22 32.22 0 0 1-9.445 5.053c-.103-.403-.231-.8-.303-1.208-1.912-10.876-7.378-19.662-15.721-26.76z"/><path d="M395.41 86.821c0-8.418.03-16.837-.03-25.255-.01-1.327.376-1.646 1.664-1.616 5.906.137 11.818-.14 17.722.158 9.108.46 14.548 5.954 14.933 15.04.174 4.097-.385 8.025-2.695 11.54a11.905 11.905 0 0 1-3.891 3.809c-.946.555-.992 1.049-.587 1.977 2.814 6.457 5.579 12.935 8.354 19.41.73 1.704.666 1.794-1.22 1.795-2.928.003-5.858-.04-8.786.024a1.526 1.526 0 0 1-1.697-1.172c-2.32-5.754-4.74-11.468-7.047-17.228a1.723 1.723 0 0 0-1.94-1.28c-3.878.047-3.878.006-3.878 3.893 0 4.81-.038 9.622.027 14.432.016 1.178-.444 1.373-1.467 1.351-2.666-.057-5.336-.077-8 .008-1.167.038-1.498-.28-1.49-1.473.054-8.47.029-16.942.029-25.413zm14.663-1.844c.783 0 1.567.025 2.35-.004 3.337-.124 5.18-1.58 6.032-4.832a12.583 12.583 0 0 0-.197-7.1 5.04 5.04 0 0 0-4.794-3.84c-1.978-.103-3.966-.02-5.946-.104-.986-.043-1.235.33-1.224 1.262.044 3.601.018 7.204.018 10.806 0 3.83 0 3.83 3.761 3.812zM307.93 86.605c-.016 5 .177 9.383-.954 13.702-2.505 9.557-10.138 14.964-19.978 14.039-9.017-.848-15-5.812-16.78-14.69a63.706 63.706 0 0 1 .068-25.532c1.488-7.185 5.658-12.47 13.14-14.248 12.475-2.964 22.518 4.22 24.161 17.016a92.208 92.208 0 0 1 .343 9.713zm-10.897.985c0-2.085.028-3.757-.007-5.427a24.773 24.773 0 0 0-1.359-8.764c-1.309-3.304-3.672-5-7.006-5.03-3.35-.032-5.852 1.737-7.15 5.07a14.349 14.349 0 0 0-.945 3.623c-.674 6.094-.373 12.203-.218 18.306a14.398 14.398 0 0 0 1.01 4.725 7.658 7.658 0 0 0 10.424 4.613c3.202-1.298 4.185-4.168 4.782-7.221.666-3.409.423-6.867.469-9.895zm247.262 26.09c-1.516 0-3.034-.041-4.548.016a1.233 1.233 0 0 1-1.496-1.136c-.678-2.894-1.504-5.752-2.217-8.637-.22-.887-.574-1.269-1.57-1.253q-6.117.093-12.235.003c-.996-.013-1.34.365-1.56 1.281-.657 2.737-1.49 5.434-2.103 8.18-.265 1.182-.704 1.619-1.95 1.576a127.67 127.67 0 0 0-8.468-.002c-1.31.042-1.534-.254-1.134-1.518q5.845-18.495 11.592-37.02c1.431-4.58 2.9-9.146 4.286-13.738.314-1.039.71-1.538 1.908-1.485 2.452.107 4.914.068 7.37.013.89-.02 1.253.285 1.522 1.142q8.043 25.669 16.17 51.312c.353 1.11.03 1.333-1.019 1.284-1.512-.07-3.031-.018-4.548-.018zm-15.844-38.442c-.197.22-.304.287-.327.375-1.495 5.645-2.97 11.296-4.482 16.937-.265.986.229 1.023.96 1.017 2.458-.02 4.917-.057 7.373.015 1.1.032 1.215-.385.973-1.295-1.503-5.644-2.982-11.294-4.497-17.049z" class="cls-3"/><path d="M473.14 86.832c0-8.368.026-16.737-.028-25.106-.008-1.297.205-1.801 1.68-1.789q13.81.114 27.622.009c1.267-.008 1.612.368 1.557 1.588-.094 2.088-.076 4.185-.005 6.275.036 1.034-.298 1.338-1.33 1.33-5.65-.045-11.3.016-16.95-.05-1.276-.015-1.717.288-1.672 1.631.103 3.083.126 6.175-.008 9.255-.065 1.49.488 1.703 1.784 1.683 4.551-.07 9.104.012 13.654-.055 1.177-.017 1.542.302 1.48 1.49a54.248 54.248 0 0 0 .003 5.96c.074 1.27-.447 1.44-1.538 1.428-4.603-.052-9.209.023-13.811-.051-1.256-.02-1.585.358-1.56 1.582a296 296 0 0 1 .005 11.14c-.019 1.095.306 1.422 1.404 1.412 5.598-.05 11.197.042 16.793-.064 1.576-.03 1.942.454 1.848 1.926-.13 2.032-.074 4.079-.014 6.117.027.905-.288 1.158-1.163 1.155q-14.282-.035-28.565.012c-1.21.006-1.196-.602-1.194-1.458q.02-12.71.008-25.42zm-114.722-.002c0-8.472.027-16.943-.03-25.414-.008-1.194.318-1.473 1.479-1.467q13.965.071 27.93.004c1.059-.004 1.47.22 1.42 1.364a77.09 77.09 0 0 0-.003 6.43c.044 1.097-.285 1.406-1.386 1.396-5.649-.054-11.299.014-16.947-.055-1.251-.016-1.58.348-1.546 1.567.084 3.135.104 6.277-.007 9.41-.05 1.38.437 1.614 1.683 1.594 4.55-.073 9.102.015 13.651-.058 1.198-.019 1.525.334 1.467 1.498a58.87 58.87 0 0 0-.001 5.802c.058 1.2-.256 1.612-1.533 1.59-4.55-.08-9.102.023-13.65-.066-1.348-.026-1.643.393-1.613 1.666.087 3.658.075 7.32.005 10.98-.022 1.14.244 1.515 1.454 1.5 5.596-.068 11.194.026 16.79-.068 1.44-.025 1.763.417 1.69 1.757-.112 2.086-.066 4.183-.012 6.273.023.881-.245 1.17-1.147 1.168-9.52-.028-19.04-.044-28.558.014-1.288.008-1.14-.673-1.139-1.471q.008-12.707.003-25.414z" class="cls-4"/><path d="M332.484 97.931q1.508-6.454 3.014-12.91 2.736-11.817 5.44-23.641c.231-1.018.596-1.468 1.75-1.433q4.703.141 9.412.003c1.273-.036 1.306.362 1 1.412q-7.413 25.544-14.751 51.109c-.253.881-.594 1.261-1.588 1.236-2.979-.075-5.961-.057-8.942-.009-.894.015-1.244-.282-1.493-1.157q-7.305-25.656-14.707-51.285c-.316-1.093-.111-1.32.979-1.298q4.626.09 9.255 0c1.105-.023 1.602.216 1.878 1.433 2.763 12.202 5.615 24.385 8.442 36.573zM192.67 86.809c-.176-4.91-.308-9.829 1.21-14.596 2.887-9.068 10.01-13.782 19.502-12.893 9.624.902 15.11 6.328 16.317 16.136.35 2.851.35 2.851-2.575 2.851-2.144 0-4.293-.08-6.43.031-1.252.065-1.737-.233-1.74-1.567a13.555 13.555 0 0 0-.909-4.904 5.005 5.005 0 0 0-3.306-3.091c-5.297-1.703-9.225.467-10.567 5.837a28.946 28.946 0 0 0-.7 6.526c-.106 5.742-.345 11.497.495 17.209.866 5.889 5.166 8.405 10.857 6.47a5.007 5.007 0 0 0 3.218-3.175 17.37 17.37 0 0 0 .916-4.91c.057-.784.24-1.098 1.082-1.085 2.928.046 5.857.03 8.785.008.678-.005 1.12.1 1.054.924-.414 5.118-1.642 9.891-5.611 13.537-3.17 2.91-7.05 3.986-11.2 4.223-6.881.394-12.87-1.365-16.834-7.509a23.775 23.775 0 0 1-3.533-11.72c-.163-2.758-.03-5.534-.03-8.302z" class="cls-3"/><path d="M555.074 86.793c0-8.421.024-16.842-.027-25.262-.007-1.218.295-1.593 1.56-1.585q13.339.083 26.679.001c1.235-.007 1.623.323 1.558 1.565a47.2 47.2 0 0 0 .008 5.958c.11 1.48-.468 1.694-1.77 1.677-5.178-.07-10.358.004-15.537-.054-1.193-.014-1.629.258-1.596 1.544.09 3.607.068 7.218.008 10.825-.017 1.03.277 1.32 1.31 1.308 4.76-.054 9.52.007 14.28-.048 1.037-.012 1.342.286 1.306 1.312a82.239 82.239 0 0 0 .004 6.431c.05 1.16-.394 1.373-1.44 1.362-4.656-.05-9.312.016-13.967-.049-1.148-.016-1.513.244-1.5 1.457.065 6.328 0 12.657.058 18.985.01 1.166-.279 1.533-1.473 1.492a118.9 118.9 0 0 0-8.002 0c-1.193.039-1.492-.336-1.485-1.501.048-8.473.026-16.946.026-25.418zm-318.632.042c0-8.418.03-16.836-.031-25.253-.01-1.33.382-1.683 1.67-1.636 2.611.097 5.231.097 7.842 0 1.227-.047 1.453.38 1.45 1.512-.038 13.751.004 27.502-.063 41.253-.008 1.555.437 1.893 1.919 1.866 5.28-.092 10.564-.016 15.845-.053.978-.007 1.394.2 1.349 1.294-.09 2.193-.063 4.392-.01 6.587.022.896-.142 1.304-1.18 1.3q-13.806-.055-27.612.005c-1.22.006-1.187-.618-1.186-1.464q.018-12.706.007-25.41zm200.597-.119c0-8.418.02-16.836-.025-25.253-.006-1.144.254-1.56 1.469-1.516 2.611.093 5.231.103 7.842-.003 1.307-.053 1.654.326 1.65 1.633-.048 13.646-.03 27.293-.03 40.939 0 2.024.001 2.025 1.999 2.025 5.177 0 10.355.043 15.532-.03 1.267-.018 1.598.367 1.544 1.583-.097 2.14-.064 4.287-.01 6.43.022.877-.24 1.178-1.141 1.176q-13.807-.04-27.614.009c-1.164.006-1.23-.527-1.228-1.425q.03-12.784.012-25.568z" class="cls-4"/><path fill="#00713a" d="M80.272 76.124c8.343 7.097 13.81 15.883 15.721 26.759.072.407.2.805.303 1.208q-.012.141-.03.282c-3.01.787-5.92 1.924-9.026 2.377a45.47 45.47 0 0 1-22.417-2.082c-1.028-.372-.98-1.17-.828-1.917a44.253 44.253 0 0 1 9.446-20.262 73.59 73.59 0 0 1 6.219-6.347l.612-.018z"/><path d="M410.073 84.977c-3.761.018-3.761.018-3.761-3.812 0-3.602.026-7.205-.018-10.806-.011-.933.238-1.305 1.224-1.262 1.98.084 3.968 0 5.946.104a5.04 5.04 0 0 1 4.794 3.84 12.583 12.583 0 0 1 .197 7.1c-.852 3.252-2.695 4.709-6.033 4.832-.782.029-1.566.004-2.349.004zm-113.04 2.613c-.046 3.028.197 6.486-.47 9.895-.596 3.053-1.579 5.923-4.78 7.221a7.658 7.658 0 0 1-10.425-4.613 14.398 14.398 0 0 1-1.01-4.725c-.155-6.103-.456-12.212.218-18.306a14.349 14.349 0 0 1 .944-3.623c1.3-3.333 3.8-5.102 7.15-5.07 3.335.03 5.698 1.726 7.007 5.03a24.773 24.773 0 0 1 1.36 8.764c.034 1.67.006 3.342.006 5.427zM528.45 75.238c1.516 5.755 2.995 11.405 4.498 17.049.242.91.127 1.327-.973 1.295-2.456-.072-4.915-.035-7.373-.015-.731.006-1.225-.031-.96-1.017 1.513-5.64 2.987-11.292 4.482-16.937.023-.088.13-.154.327-.375z" class="cls-1"/></svg>