<svg xmlns="http://www.w3.org/2000/svg" role="img" viewBox="-14.56 -14.06 731.12 157.12"><style>svg {enable-background:new 0 0 703 129.5}</style><path fill="#dcb47b" d="M703 100.1l-13.4-13.4-13.4 13.4 13.4 13.4z"/><path fill="#034694" d="M697.6 3.9c-.9-3.2-8 1.4-23.5 15.2 6.1 6.7 9.2 2.9 14.1 1.1 3.9 7.5 5.5 41.3-20.2 51.5.7-34.1 1-70.5 1-70.5 0-.7-.6-1.3-1.4-1.2h-.1c-7.1 1-19.6 13.4-29.3 23.9 5.3 8.8 12.1.9 17.5-1.3 0 1.4-1.2 26.6-.7 52.1-26.5 2-22.3-52.1-20.7-59 .6-5.6-17.1 6.7-25.9 14.9 2.8 5 6.6 4 11.5 2.1-1.8 24.3 15.3 46.3 35.2 45.8.7 25 3.3 49.2 10.6 51 1 .2 1.8-25.4 2.3-53.8C715.8 61 697.6 3.9 697.6 3.9zM113.5 91.7V20.5H94.8v71.9c0 15.4 7.5 23.9 26 23.9h11.8v-13.7H125c-8.3-.1-11.5-2.4-11.5-10.9zm283.6-70.2l-27.8 72.4-27.7-72.4h-27.1v94.7h18.8V59.7c0-3.6-.1-9.9-.5-13.8h.6l27.1 70.4h17.4L405 45.9h.6c-.4 4-.5 10.2-.5 13.8v56.5h18.8V21.5h-26.8zm-227.9 95.7c23.6 0 35.4-8.3 35.4-30.6V43.9h-18.8v42.7c0 12.9-7.9 17.7-16.6 17.7s-16.6-4.7-16.6-17.7V43.9h-18.8v42.7c0 22.3 11.8 30.6 35.4 30.6zM289 73.9v11.5c0 22.4-13.5 31.8-37.1 31.8s-37.1-8.3-37.1-30.6v-66h18.8v27c6.6-3.1 13.9-4.6 21.2-4.6 24.1-.1 34.2 13.2 34.2 30.9zm-55.5 12.6c0 12.9 10.2 17.7 18.9 17.7s18.9-4.7 18.9-17.7v-13c0-12.9-10.2-17.7-18.9-17.7s-18.9 4.7-18.9 17.7v13zM549 42.9c7.3 0 14.6 1.5 21.2 4.6v-27H589v66c0 22.4-13.5 30.6-37.1 30.6s-37.1-9.4-37.1-31.8V73.9c-.1-17.7 10.1-31 34.2-31zm21.2 30.6c0-12.9-10.2-17.7-18.9-17.7s-18.9 4.7-18.9 17.7v13c0 12.9 10.2 17.7 18.9 17.7s18.9-4.8 18.9-17.7v-13zM493.7 97c-7.9 5.2-13.8 7.2-22.8 7.2-11.1 0-20.1-6.1-20.1-17.7v-1.6h56.1v-5.8c0-22.4-13.5-36.2-37.1-36.2s-37.1 13.9-37.1 36.2V82c0 21.6 12.9 35.1 38.2 35.1 12.7 0 23.7-2.7 34.5-11.2L493.7 97zm-42.9-23.2c0-13.2 10.2-18.3 18.9-18.3s18.9 5.1 18.9 18.3h-37.8zM44.9 117.2C15.6 117.2 0 101.7 0 76.5v-13c0-26.2 16.2-43 44.9-43 24.9 0 40 12.5 43.5 29.4h-20C65 38.6 56.6 33.4 44.9 33.4c-16.2 0-25.3 9.7-25.3 30.4v9.4c0 18.8 6.8 31.1 25.3 31.1 11.8 0 20.1-5.1 23.5-16.5h20c-3.5 16.9-18.6 29.4-43.5 29.4z"/></svg>