<svg xmlns="http://www.w3.org/2000/svg" role="img" viewBox="-21.30 -18.80 2537.60 675.10"><defs><style>.cls-2{fill:#79a340}.cls-5{fill:#79a341}</style></defs><path fill="#482b2c" d="M718.483 30.533q211.232 0 422.464.015c6.992 0 6.12-.975 6.087 5.976q-.293 63.64-.649 127.282a21.388 21.388 0 0 0 .006 2.382c.233 2.174-.496 3.345-2.883 3.118-1.102-.105-2.223-.015-3.336-.014l-317.086.054q-252 .055-504 .082c-37.912-.01-71.528 11.66-100.225 36.433-29.081 25.104-46.266 56.909-51.12 95.099-10.253 80.677 45.602 152.867 122.672 166.447a177.312 177.312 0 0 0 30.833 2.473q93.219.018 186.437.054 317.087.072 634.173.138c5.674.002 5.697.003 5.62 5.431q-.908 63.396-1.832 126.791c-.011.795-.061 1.59-.03 2.383.055 1.438-.672 1.967-2.028 1.91-.952-.041-1.907-.002-2.86 0l-482.536 1.085q-170.46.383-340.922.779c-45.912.113-89.63-9.693-130.349-30.796Q70.332 517.232 36.41 389.963a273.98 273.98 0 0 1-8.472-83.121A288.953 288.953 0 0 1 176.52 66.855a285.661 285.661 0 0 1 92.09-32.25 301.759 301.759 0 0 1 50.296-4.027q199.788.022 399.577.008z"/><path d="M639.53 300.06q140.41 0 280.82-.013 76.517-.038 153.036-.285c.953-.001 1.907-.003 2.86 0 5.186.024 5.199.025 5.227 5.173q.095 16.921.167 33.843c.023 5.297.52 5.033-5.244 5.038q-26.938.019-53.875.041-409.068.183-818.137.344c-8.014.002-6.243 1.223-7.618-6.8a108.042 108.042 0 0 1-.248-33.226c.518-3.735.457-3.792 4.385-3.798q25.745-.037 51.49-.024 193.57-.002 387.138-.001z" class="cls-2"/><path fill="#0f80c3" d="M215.806 254.478c-.267-2.08.809-2.94 1.502-3.937a122.196 122.196 0 0 1 44.424-38.817 17.01 17.01 0 0 1 8.247-1.727q153.295.044 306.59.024 248.896 0 497.791.012c7.278.001 6.267-.887 6.362 6.31q.22 16.683.345 33.367c.036 4.326.003 4.357-4.481 4.362q-36.238.043-72.475.058-248.18.126-496.36.245-143.042.065-286.086.103h-5.86z"/><path fill="#f16026" d="M219.037 389.98h5.12l431.512-.126q210.033-.067 420.067-.139c7.151-.002 6.37-.825 6.44 6.306q.168 16.922.206 33.846c.01 3.62-.062 3.626-3.707 3.71-1.112.024-2.225.003-3.337.003q-396.466 0-792.932.054a31.788 31.788 0 0 1-12.899-2.598 121.81 121.81 0 0 1-48.544-37.395c-.741-.948-1.787-1.785-1.926-3.662z"/><path d="M2319.817 494.436c1.437-19.563 10.667-33.92 28.11-42.892a84.243 84.243 0 0 1 31.97-8.706c17.004-1.394 33.975-1.104 50.597 3.514a64.191 64.191 0 0 1 10.249 3.82c15.491 7.319 23.32 19.626 23.482 36.663.168 17.635.038 35.272.047 52.908.006 11.599-.028 23.198.057 34.796.074 10.04.923 19.98 4.561 29.482.095.248-.08.6-.135.943-1.322.673-2.763.344-4.148.347q-17.164.047-34.327.016c-4.908-.003-4.952-.003-6.143-4.992-.735-3.08-1.31-6.198-1.98-9.406-.389.121-.926.13-1.212.402-9.387 8.936-20.687 13.98-33.28 16.392-12.63 2.42-25.295 2.768-37.8-.47-26.496-6.86-36.904-27.032-34.815-51.132 1.596-18.398 11.607-30.38 28.789-36.624a103.06 103.06 0 0 1 5.41-1.812c10.542-3.187 21.455-4.262 32.313-5.655 7.869-1.01 15.79-1.685 23.497-3.733a30.468 30.468 0 0 0 8.795-3.553 13.581 13.581 0 0 0 6.678-11.897c.19-12.248-5.994-19.367-18.12-20.916a65.395 65.395 0 0 0-18.038-.015c-10.87 1.616-17.783 7.906-20.22 18.653a16.08 16.08 0 0 0-.526 2.32c-.137 1.883-1.252 2.363-2.902 2.248-.632-.044-1.27-.002-1.906-.002q-17.402.001-34.804-.012c-1.243-.003-2.541.273-4.199-.687zm100.76 33.506c-7.352 4.49-15.013 5.577-22.631 6.797-4.69.751-9.426 1.252-14.091 2.132-6.249 1.178-12.38 2.806-17.622 6.683-7.12 5.265-8.592 12.687-7.41 20.796 1.126 7.715 6.045 12.367 13.425 14.39a49.289 49.289 0 0 0 24.453.33c12.887-2.971 20.132-11.309 22.794-23.939 1.845-8.75.79-17.605 1.083-27.189z" class="cls-2"/><path d="M1776.572 556.02a6.279 6.279 0 0 1 .067 1.795c-7.014 20.363-18.828 36.597-39.238 45.38a74.512 74.512 0 0 1-22.047 5.649c-16.671 1.689-33.018.46-48.537-6.417-16.31-7.229-28.766-18.774-36.1-35.053-12.195-27.067-12.712-54.57.11-81.505 11.524-24.21 31.29-38.199 57.731-42.553a83.058 83.058 0 0 1 39.1 2.415c21.17 6.727 35.467 21.027 44.309 41.07 6.325 14.337 8.584 29.479 8.369 45.047-.065 4.654-.151 4.685-4.89 4.687q-51.707.014-103.414.005c-6.711 0-6.684-.002-6.004 6.445a49.943 49.943 0 0 0 2.065 9.76c3.85 12.246 11.928 19.945 24.56 22.7 10.053 2.191 19.902 1.694 29.341-2.633 6.941-3.182 12.79-7.67 16.142-14.817.472-1.007.864-1.995 2.31-1.992q18.042.046 36.126.018zm-76.006-47.146h19.991c4.284-.001 8.569-.06 12.851.013 2.17.037 2.816-.904 2.397-2.92a70.157 70.157 0 0 0-3.028-10.49c-4.5-11.952-12.97-18.916-25.755-20.25-22.644-2.362-37.92 9.714-41.122 29.565-.644 3.996-.66 4.056 3.25 4.07 10.472.035 20.944.012 31.416.012z" class="cls-5"/><path d="M1459.7 442.23a84.661 84.661 0 0 1 30.073 5.042c23.782 8.644 39.22 25.382 46.397 49.444a98.779 98.779 0 0 1-.571 60.041c-8.641 26.39-26.716 43.007-53.615 49.822a95.26 95.26 0 0 1-51.734-1.016c-23.606-7.13-40.107-22.23-48.488-45.439-8.275-22.914-8.312-46.217.225-69.029 10.257-27.41 30.837-42.648 59.353-47.687a103.243 103.243 0 0 1 18.36-1.179zm36.82 83.227a71.422 71.422 0 0 0-1.105-14.803 77.248 77.248 0 0 0-1.933-8.338c-2.357-7.726-5.976-14.726-12.437-19.884-18.46-14.735-46.762-7.748-56.156 13.838a52.27 52.27 0 0 0-2.917 8.55 90.259 90.259 0 0 0-.592 39.677 46.684 46.684 0 0 0 10.357 21.67c12.786 14.804 48.18 16.725 59.675-10.995 3.898-9.401 5.296-19.232 5.108-29.715zm432.37-23.081c-6.037 0-12.074-.066-18.11.034-2.119.035-3.372-.56-3.415-2.839a4.063 4.063 0 0 0-.183-.933c-3.933-14.961-13.987-23.07-29.487-23.636-13.996-.51-24.516 5.325-31.433 17.547a58.874 58.874 0 0 0-7.045 22.578c-1.548 13.57-.898 26.97 4.48 39.775a38.307 38.307 0 0 0 11.1 15.244c13.383 10.901 42.157 9.622 51.454-13.884a49.474 49.474 0 0 0 2.681-9.12c.33-1.764.898-2.77 3.01-2.755 12.232.087 24.464.013 36.696.063 2.686.011 2.93.364 2.462 3.163-6.016 36.034-29.54 56.41-61.492 60.845-13.528 1.878-26.946 1.485-40.08-2.474-25.274-7.62-42.34-24.077-50.266-49.14-7.825-24.743-6.058-49.32 5.099-72.801 9.608-20.22 25.614-33.304 47.372-38.82 21.263-5.39 42.258-4.314 62.4 4.766 20.314 9.158 32.446 24.866 35.958 47.017.025.157.053.313.075.47.654 4.693.515 4.878-4.12 4.896-5.718.022-11.437.005-17.156.004zm-595.204-.001c-6.037 0-12.076-.063-18.112.035-2.077.034-3.42-.447-3.473-2.766a2.328 2.328 0 0 0-.123-.458c-3.392-14.114-12.165-22.305-26.69-23.92-14.449-1.609-25.852 3.46-33.588 15.998a56.769 56.769 0 0 0-7.539 21.914c-1.812 12.4-1.413 24.7 2.404 36.736a57.4 57.4 0 0 0 2.998 7.505c9.407 19.55 28.64 22.674 44.227 16.517 10.237-4.044 15.792-12.294 18.827-22.565.66-2.232.099-5.263 2.189-6.545 1.953-1.199 4.658-.374 7.028-.384q15.49-.06 30.982 0c3.346.013 3.32.088 2.796 3.5a78.626 78.626 0 0 1-8.035 24.793 63.823 63.823 0 0 1-36.584 31.626c-19.961 6.947-40.254 7.28-60.294.464-23.353-7.944-39.15-24.03-46.58-47.436-8.005-25.22-6.382-50.292 5.327-74.131 11.24-22.887 30.247-35.834 55.27-39.835 17.069-2.729 33.928-1.566 50.13 4.835 20.395 8.058 34.043 22.258 39.008 44.042.528 2.317.82 4.687 1.235 7.03.402 2.263-.46 3.129-2.815 3.084-6.194-.118-12.392-.04-18.588-.04zm969.126 42.559c-2.894 26.915-18.805 54.39-54.763 62.317-16.894 3.724-33.816 3.37-50.277-2.342-23.654-8.209-39.599-24.437-46.96-48.281-7.546-24.437-6.007-48.746 4.853-71.972 10.207-21.832 27.606-35.322 51.184-40.29 20.914-4.405 41.441-2.938 60.881 6.568 19.915 9.74 31.269 25.812 34.197 47.8.442 3.321.264 3.613-3.031 3.625-12.076.043-24.152-.036-36.226.063-2.334.019-3.62-.67-3.792-3.06a5.175 5.175 0 0 0-.252-.916c-3.96-14.872-13.746-22.802-29.099-23.442-14.209-.593-24.843 5.319-31.768 17.775a60.369 60.369 0 0 0-6.545 19.786 80.807 80.807 0 0 0 2.367 37.657 45.106 45.106 0 0 0 6.221 12.8c7.526 10.602 17.99 14.737 30.652 13.43 18.44-1.9 26.506-13.955 29.764-27.714 1.015-4.285.972-4.308 5.526-4.31q16.207-.012 32.414.015c1.555.005 3.182-.376 4.654.49z" class="cls-2"/><path d="M2056.575 571.841a2.344 2.344 0 0 1 .653 1.905c.006 9.529-.064 19.059.061 28.586.031 2.36-.71 3.538-3.064 3.734-15.538 1.289-31.09 2.293-46.427-1.553-16.957-4.252-25.874-15.369-25.997-32.937-.21-30.015-.065-60.032-.099-90.049-.007-6.48.767-5.837-5.841-5.866-5.878-.026-11.756-.072-17.632.024-2.214.037-3.112-.688-3.083-2.996q.144-11.671-.001-23.345c-.028-2.235.676-3.105 2.991-3.06 6.034.118 12.072.057 18.108.032 6.082-.025 5.448.572 5.46-5.256.026-12.705-.004-25.41.015-38.116.007-4.215.045-4.26 4.068-4.268q17.871-.035 35.742.002c3.799.009 3.853.065 3.862 4.03.027 12.706-.01 25.411.019 38.117.014 6.254-.595 5.452 5.71 5.487 7.624.041 15.25.09 22.873-.034 2.464-.04 3.328.754 3.288 3.246q-.182 11.432-.003 22.869c.036 2.444-.755 3.342-3.266 3.305-8.258-.119-16.52-.07-24.78-.03-3.715.018-3.806.076-3.808 3.608q-.022 38.592.036 77.185a39.407 39.407 0 0 0 .285 4.753c.832 6.76 4.275 10.148 11.073 10.971a69.152 69.152 0 0 0 13.796.105c2.032-.16 4.064-.306 5.96-.449zm-455.35-75.951v102.432c0 .953.011 1.906-.002 2.859-.057 4.106-.06 4.147-4.232 4.155q-17.87.033-35.74-.005c-3.658-.01-3.663-.078-3.751-3.674-.024-.953-.004-1.906-.004-2.859q0-103.385.01-206.77c.003-6.713-.855-6.045 6.126-6.064q16.44-.043 32.88-.002c4.677.006 4.707.03 4.708 4.638q.014 50.977.005 101.955zm521.788 30.474v73.812c0 5.58.345 5.162-5.13 5.165q-16.671.006-33.342 0c-5.563 0-5.248.391-5.246-5.061q.005-24.049 0-48.097l.001-99.05c0-1.112-.027-2.224.006-3.334.1-3.358.108-3.436 3.471-3.451 9.367-.043 18.735-.015 28.102-.016 2.54 0 5.081-.012 7.621.003 4.467.026 4.493.033 4.51 4.312.026 5.874.008 11.747.008 17.62v58.097zM2101.11 385.96c6.195 0 12.392.067 18.586-.034 2.351-.039 3.399.587 3.365 3.194-.128 9.846-.099 19.695-.016 29.542.02 2.225-.68 3.095-2.987 3.082q-18.825-.113-37.65.008c-2.618.02-3.166-1.123-3.146-3.444.085-9.688.1-19.378-.008-29.065-.027-2.468.779-3.372 3.27-3.323 6.193.12 12.39.04 18.586.04z" class="cls-5"/></svg>