<svg xmlns="http://www.w3.org/2000/svg" role="img" viewBox="305.80 215.80 4378.40 768.40"><style>svg {enable-background:new 0 0 4998.1 1194.1}</style><style>.st0{fill:#2a3e48}</style><g id="XMLID_6_"><path id="XMLID_436_" d="M1199.4 725.8c23.2 0 36.6-1.5 66-7.7l7.2 49.5c-22.7 6.2-48 9.3-73.2 9.3-112.9 0-145.4-70.6-145.4-153.1 1-80.4 49.5-148.5 144.9-148.5 25.3 0 46.9 3.1 73.2 9.8l-9.8 49c-27.8-6.2-44.3-7.2-61.9-7.2-59.8 1-89.2 45.4-90.2 96.9 0 51 19.1 102 89.2 102z" class="st0"/><path id="XMLID_433_" d="M1430.3 475.2c92.8.5 134.1 69.6 134.1 150.6 0 78.9-35.6 149.5-134.6 150-96.9-1-134.1-71.2-134.1-150 0-80.9 41.8-149.5 134.6-150.6zm0 251.1c59.3-.5 78.4-48.5 78.4-100.5-.5-47.4-20.6-101.1-78.9-101.1-56.7.5-78.9 53.1-78.9 101.1 0 54.1 23.7 100.5 79.4 100.5z" class="st0"/><path id="XMLID_431_" d="M1948.5 770.7V585.1c0-46.9-17.5-59.8-46.9-59.8-20.1 0-42.8 11.3-63.4 28.4 1 6.2 1.5 18.6 1.5 22.2v194.9h-57.8V583c0-46.9-13.9-58.3-43.3-58.3-18.6 0-44.3 12.4-66.5 28.9v217.1h-57.2V480.4h57.2v24.7c17.5-13.9 45.4-29.9 75.8-30.4 40.2-.5 63.4 13.4 76.3 35.1 23.7-22.2 58.8-34.5 85.6-35.1 94.4-1.5 95.9 74.2 95.9 106.2v189.7h-57.2z" class="st0"/><path id="XMLID_429_" d="M2402.1 770.7V585.1c0-46.9-17.5-59.8-46.9-59.8-20.1 0-42.8 11.3-63.4 28.4 1 6.2 1.5 18.6 1.5 22.2v194.9h-57.7V583c0-46.9-13.9-58.3-43.3-58.3-18.6 0-44.3 12.4-66.5 28.9v217.1h-57.2V480.4h57.2v24.7c17.5-13.9 45.4-29.9 75.8-30.4 40.2-.5 63.4 13.4 76.3 35.1 23.7-22.2 58.8-34.5 85.6-35.1 94.4-1.5 95.9 74.2 95.9 106.2v189.7h-57.3z" class="st0"/><path id="XMLID_426_" d="M2726.4 717.6l8.8 46.9c-25.8 8.8-61.4 12.9-89.2 12.9-114.5 0-142.3-76.8-142.3-153.7 0-76.8 34-148 129.9-148 59.3 0 108.8 36.6 109.3 129.9l-.5 30.4h-182.5c1 56.7 31.5 91.3 88.7 91.3 22.6.1 46.3-2.5 77.8-9.7zm-164-125.8h127.4c-2.1-58.8-31.4-70.6-58.8-70.6-43.3-.6-63.4 28.8-68.6 70.6z" class="st0"/><path id="XMLID_424_" d="M2953.2 533.5c-15-3.6-27.9-4.1-37.1-4.1-35.6-.5-54.1 17-67.5 30.9v210.4h-57.2V480.4h57.2v25.8c15-15.5 37.6-28.9 67-29.4 11.9-.5 31.4 1.5 47.9 7.7l-10.3 49z" class="st0"/><path id="XMLID_422_" d="M3120.8 725.8c23.2 0 36.6-1.5 66-7.7l7.2 49.5c-22.7 6.2-48 9.3-73.2 9.3-112.9 0-145.4-70.6-145.4-153.1 1-80.4 49.5-148.5 144.9-148.5 25.3 0 46.9 3.1 73.2 9.8l-9.8 49c-27.8-6.2-44.3-7.2-61.9-7.2-59.8 1-89.2 45.4-90.2 96.9 0 51 19 102 89.2 102z" class="st0"/><path id="XMLID_419_" d="M3439.9 717.6l8.8 46.9c-25.8 8.8-61.4 12.9-89.2 12.9-114.5 0-142.3-76.8-142.3-153.7 0-76.8 34-148 129.9-148 59.3 0 108.8 36.6 109.3 129.9l-.5 30.4h-182.5c1 56.7 31.5 91.3 88.7 91.3 22.6.1 46.3-2.5 77.8-9.7zm-164-125.8h127.4c-2.1-58.8-31.4-70.6-58.8-70.6-43.3-.6-63.4 28.8-68.6 70.6z" class="st0"/><path id="XMLID_417_" d="M3650.2 527.8h-78.9v140.8c0 29.4 3.6 50 33.5 54.1 16.5 1.5 33.5 0 50-2.1l3.6 49.5c-17 3.1-41.2 3.6-51 3.6-67.5-2.6-92.8-37.1-92.8-91.3V527.8h-41.8v-39.7l41.8-4.6V416h56.7v64.5h78.9v47.3z" class="st0"/><path id="XMLID_414_" d="M3816.7 475.2c92.8.5 134.1 69.6 134.1 150.6 0 78.9-35.6 149.5-134.6 150-96.9-1-134.1-71.2-134.1-150 .1-80.9 41.8-149.5 134.6-150.6zm0 251.1c59.3-.5 78.4-48.5 78.4-100.5-.5-47.4-20.6-101.1-78.9-101.1-56.7.5-78.9 53.1-78.9 101.1 0 54.1 23.8 100.5 79.4 100.5z" class="st0"/><path id="XMLID_411_" d="M4125 475.2c92.8.5 134.1 69.6 134.1 150.6 0 78.9-35.6 149.5-134.6 150-96.9-1-134.1-71.2-134.1-150 .1-80.9 41.8-149.5 134.6-150.6zm0 251.1c59.3-.5 78.4-48.5 78.4-100.5-.5-47.4-20.6-101.1-78.9-101.1-56.7.5-78.9 53.1-78.9 101.1 0 54.1 23.7 100.5 79.4 100.5z" class="st0"/><path id="XMLID_409_" d="M4304.4 770.7V376.8h55.2v393.9h-55.2z" class="st0"/><path id="XMLID_407_" d="M4417.8 714.5c32.5 8.2 62.9 12.4 82 12.4 22.7 0 45.9-4.6 47.4-32 1.5-28.9-28.4-37.6-62.4-52.1-38.7-16-80.4-37.6-79.4-91.3 1-26.8 17-79.4 102.6-76.8 25.8.5 56.7 4.6 82.5 11.3l-9.8 47.4c-30.4-7.2-53.1-10.3-75.3-10.8-24.8 0-43.8 7.7-44.9 30.9-.5 19.6 15 29.9 53.1 45.4 38.7 16 93.3 36.6 90.7 97.5-1.5 38.7-26.8 81-104.7 79.9-24.8-.5-64.5-3.6-93.8-13.9l12-47.9z" class="st0"/></g><g id="XMLID_1_"><path id="XMLID_75_" fill="#f27923" d="M398.8 764.3c-4.5 2.1-7.3 6.6-7.3 11.5s2.8 9.4 7.3 11.5l245.7 115.1c3.3 1.6 6.8 2.3 10.4 2.4V647.9c-3.7 0-7.3.8-10.7 2.4l-245.4 114z"/><path id="XMLID_74_" fill="#f5a730" d="M654.9 647.9v256.8c3.8.1 7.6-.7 11.1-2.4l245-114.7c4.5-2.1 7.3-6.6 7.3-11.5s-2.8-9.4-7.3-11.5L665.6 650.3c-3.4-1.6-7-2.4-10.7-2.4z"/><path id="XMLID_73_" fill="#20ad92" d="M391.5 428.3c0 5 2.8 9.4 7.3 11.5l245.7 115.1c3.3 1.6 6.8 2.3 10.4 2.4 3.1 0 6.2-.5 9.2-1.6 2.3-1.1 1.9-.9 6.9-3.2 25.4-11.8 8.6-3.9 240.1-112.3 4.5-2.1 7.3-6.6 7.3-11.5s-2.8-9.4-7.3-11.5L665.6 302.7c-6.8-3.2-14.6-3.2-21.4 0L398.8 416.8c-4.4 2-7.3 6.5-7.3 11.5z"/><path id="XMLID_72_" fill="#d0d1d1" d="M654.9 571.6v76.3c-3.7 0-7.3.8-10.7 2.4l-245.4 114c-4.5 2.1-7.3 6.6-7.3 11.5V428.2c0 4.9 2.8 9.4 7.3 11.5l245.8 115c3.3 1.6 6.8 2.3 10.4 2.4 3.1 0 6.2-.5 9.2-1.6l-.4.2c-7.7 3.6-8.9 7.2-8.9 15.9z"/></g></svg>