<svg xmlns="http://www.w3.org/2000/svg" role="img" viewBox="-3.20 -3.20 166.53 40.41"><path fill="#2839CC" d="M77.844 8.871c-1.308-1.431-3.058-2.147-5.25-2.147-2.519 0-4.415.92-5.689 2.759-1.119-1.837-2.85-2.757-5.194-2.759-2.39 0-4.158.856-5.305 2.568a2.028 2.028 0 0 0-2.024-2.033h-2.903v19.167h4.927v-10.77c0-1.406.324-2.484.973-3.235a3.304 3.304 0 0 1 2.616-1.112c1.016 0 1.807.32 2.367.959.56.638.84 1.55.84 2.697v11.47h4.925V15.656c0-1.406.312-2.484.934-3.235a3.24 3.24 0 0 1 2.62-1.112 2.98 2.98 0 0 1 2.364.959c.56.64.84 1.533.84 2.682v11.47h4.928v-11.8c0-2.401-.657-4.318-1.969-5.749z"/><path fill="#2839CC" fill-rule="evenodd" d="M93.152 6.725a8.689 8.689 0 0 1 6.592 2.938c1.824 1.954 2.736 4.345 2.736 7.174 0 2.829-.911 5.223-2.733 7.182a8.697 8.697 0 0 1-6.592 2.939c-2.676 0-4.74-.932-6.19-2.795v9.91H82.03V7.258h2.674a2.26 2.26 0 0 1 2.258 2.26c1.45-1.863 3.514-2.794 6.19-2.794zm-.926 15.522a5.155 5.155 0 0 0 3.811-1.514 5.275 5.275 0 0 0 1.528-3.887 5.27 5.27 0 0 0-1.51-3.888 5.155 5.155 0 0 0-3.812-1.514 5.09 5.09 0 0 0-3.788 1.514 5.296 5.296 0 0 0-1.49 3.888 5.296 5.296 0 0 0 1.478 3.887 5.09 5.09 0 0 0 3.783 1.514zm27.498-12.733a2.256 2.256 0 0 1 2.255-2.256h2.675v19.133h-4.93v-2.253c-1.48 1.86-3.557 2.79-6.232 2.79-2.547-.005-4.732-.982-6.554-2.934-1.823-1.951-2.734-4.34-2.734-7.168-.005-2.824.906-5.213 2.734-7.169 1.828-1.955 4.013-2.933 6.554-2.933 2.677 0 4.754.93 6.232 2.79zm-5.323 12.694a5.165 5.165 0 0 0 3.813-1.51 5.258 5.258 0 0 0 1.51-3.881 5.253 5.253 0 0 0-1.51-3.88 5.165 5.165 0 0 0-3.813-1.511 5.103 5.103 0 0 0-3.786 1.51 5.303 5.303 0 0 0-1.49 3.881 5.303 5.303 0 0 0 1.49 3.88 5.103 5.103 0 0 0 3.786 1.511zm41.453-14.289a2.254 2.254 0 0 1 1.594-.661h2.685v19.133h-4.939v-2.253c-1.479 1.86-3.555 2.79-6.228 2.79-2.546-.005-4.73-.982-6.551-2.934-1.821-1.951-2.732-4.34-2.732-7.168-.006-2.824.905-5.213 2.732-7.169 1.827-1.955 4.01-2.933 6.551-2.933 2.673 0 4.749.93 6.228 2.79 0-.599.238-1.172.66-1.595zm-5.98 14.29a5.162 5.162 0 0 0 3.811-1.511 5.261 5.261 0 0 0 1.509-3.881 5.256 5.256 0 0 0-1.509-3.88 5.162 5.162 0 0 0-3.811-1.511 5.082 5.082 0 0 0-3.784 1.51 5.285 5.285 0 0 0-1.492 3.881 5.282 5.282 0 0 0 1.495 3.88 5.082 5.082 0 0 0 3.781 1.511z" clip-rule="evenodd"/><path fill="#2839CC" d="M39.157 6.831c-4.755-.026-8.17 2.73-9.62 6.269A15.496 15.496 0 0 0 37 12.057l.056-.027c1.309-.564 2.77-.537 4.08.027l.058.026c1.525.685 2.735 2.157 2.875 4.408 0 .162.018.324.018.491 0 .168 0 .315-.018.468v.135a.079.079 0 0 0 0 .026c-.207 2.13-1.42 3.527-2.928 4.162l-.223.09a5.222 5.222 0 0 1-4.448-.387l-.105-.065a4.894 4.894 0 0 1-.474-.347A15.409 15.409 0 0 0 28.82 18a9.806 9.806 0 0 0 2.929 6.04c6.287 6.215 17.664 2.115 17.71-7.104.021-5.775-4.623-10.083-10.302-10.104zM24.662 17.967c.477-.056.984-.091 1.535-.106-2.198 6.574-9.003 10.407-15.74 8.864C3.72 25.183-.755 18.767.106 11.887.966 5.007 6.883-.1 13.79.077c6.907.177 12.557 5.578 13.067 12.494a17.407 17.407 0 0 1-.963-.294l-.061-.02-.135-.05h-.018a13.312 13.312 0 0 1-4.606-2.836l-.252-.247v-.015l-.07-.073a4.929 4.929 0 0 1-.173-.18l-.085-.09-.208-.23-.064-.076c-.035-.039-.07-.077-.103-.118l-.123-.15C15.121 2.223 5.563 5.46 5.063 12.965a8.485 8.485 0 0 0 2.225 6.343 8.423 8.423 0 0 0 6.132 2.715h.375a7.652 7.652 0 0 0 2.44-.465l.06-.023a11.46 11.46 0 0 0 1.945-1.003c.825-.539 1.68-1.03 2.563-1.469 1.207-.567 2.355-.932 3.681-1.073l.178-.023z"/><path fill="#4168FF" d="M34.127 16.903c0 1.887.675 3.268 1.732 4.138A15.326 15.326 0 0 0 28.82 18a10.171 10.171 0 0 1 .715-4.9 15.642 15.642 0 0 0 7.496-1.054c-1.61.744-2.893 2.342-2.904 4.858z" opacity=".6"/><path fill="#fff" d="M16.308 21.526a11.46 11.46 0 0 0 1.944-1.002 8.402 8.402 0 0 1-1.944 1.002zm9.373-9.331a13.311 13.311 0 0 1-4.354-2.604 13.698 13.698 0 0 0 4.354 2.604z" opacity=".6"/><path fill="#2839CC" d="M132.182 9.1l-.4.366a2.017 2.017 0 0 0-2.017-2.003h-2.894v18.972h4.911v-9.07a4.772 4.772 0 0 1 1.752-3.906c2.169-1.86 4.545-.675 4.904-.538l2.231-3.624c-1.113-1.048-2.534-1.415-3.796-1.522-1.713-.16-3.407.186-4.691 1.324z"/></svg>