<svg xmlns="http://www.w3.org/2000/svg" role="img" xmlns:xlink="http://www.w3.org/1999/xlink" viewBox="-2.35 4.65 616.20 166.20"><defs><linearGradient id="a" x1="11.023" x2="66.727" y1="172.32" y2="19.137" gradientUnits="userSpaceOnUse"><stop offset="0" stop-color="#6c2986"/><stop offset="1" stop-color="#783dc0"/></linearGradient><linearGradient id="c" x1="21.987" x2="77.69" y1="176.307" y2="23.124" xlink:href="#a"/><linearGradient id="d" x1="53.379" x2="109.082" y1="187.723" y2="34.539" xlink:href="#a"/><linearGradient id="e" x1="77.185" x2="132.888" y1="196.379" y2="43.196" xlink:href="#a"/><linearGradient id="f" x1="65.803" x2="121.506" y1="192.24" y2="39.057" xlink:href="#a"/><linearGradient id="g" x1="34.573" x2="90.276" y1="180.884" y2="27.7" xlink:href="#a"/><linearGradient id="b" x1="208.256" x2="280.882" y1="87.874" y2="87.874" gradientUnits="userSpaceOnUse"><stop offset="0" stop-color="#71319d"/><stop offset="1" stop-color="#7538b2"/></linearGradient><linearGradient id="h" x1="281.298" x2="340.887" y1="99.809" y2="99.809" xlink:href="#b"/><linearGradient id="i" x1="348.649" x2="401.284" y1="99.383" y2="99.383" xlink:href="#b"/><linearGradient id="j" x1="408.584" x2="464.07" y1="87.161" y2="87.161" xlink:href="#b"/><linearGradient id="k" x1="474.449" x2="527.087" y1="100.295" y2="100.295" xlink:href="#b"/><linearGradient id="l" x1="538.55" x2="553.867" y1="99.839" y2="99.839" xlink:href="#b"/><linearGradient id="m" x1="536.499" x2="555.918" y1="53.204" y2="53.204" xlink:href="#b"/><linearGradient id="n" x1="560.027" x2="602.169" y1="91.151" y2="91.151" xlink:href="#b"/></defs><path fill="url(#a)" d="M82.369 59.775L68.143 45.699 21.756 59.152 9.677 106.731l12.884 14.226 11.455-47.493 48.353-13.689z"/><path fill="url(#c)" d="M104.915 74.723l4.619-18.302-35.31-33.668-47.401 13.784-4.518 18.239 46.173-14.075 36.437 34.022z"/><path fill="url(#d)" d="M102.767 104.408l18.211-5.234 11.985-48.637-35.288-33.982-19.181 4.755 35.207 33.038-10.934 50.06z"/><path fill="url(#e)" d="M135.195 55.232l-11.183 47.762-47.547 13.424 14.227 14.075 45.044-13.187 13.149-46.775-13.69-15.299z"/><path fill="url(#f)" d="M53.336 100.321l-4.95 18.214 34.694 34.304 47.643-12.922 4.848-18.155-46.421 13.235-35.814-34.676z"/><path fill="url(#g)" d="M56.312 71.587l-18.769 5.155-11.652 47.243 35.139 35.208 18.128-4.945-34.794-33.457 11.948-49.204z"/><path fill="url(#b)" d="M268.35 110.501a25.777 25.777 0 0 1-3.785 2.905 21.657 21.657 0 0 1-4.022 1.942 22.71 22.71 0 0 1-4.671 1.119 44.03 44.03 0 0 1-5.914.356 25.064 25.064 0 0 1-9.828-1.93 22.663 22.663 0 0 1-7.903-5.58 26.624 26.624 0 0 1-5.327-9.056 36.432 36.432 0 0 1-1.962-12.384 37.477 37.477 0 0 1 1.88-12.315 26.467 26.467 0 0 1 5.193-9.052 21.827 21.827 0 0 1 7.885-5.593 26.2 26.2 0 0 1 10.175-1.933 25.765 25.765 0 0 1 13.344 3.191 39.677 39.677 0 0 1 3.56 2.243c2.43 1.77 4.708 1.617 6.106.597a6.487 6.487 0 0 0 1.432-1.437l5.15-7.292-.955-.913a40.511 40.511 0 0 0-12.286-7.965 41.734 41.734 0 0 0-16.294-3 44.159 44.159 0 0 0-16.967 3.194 38.787 38.787 0 0 0-13.283 8.988 40.617 40.617 0 0 0-8.589 13.792 49.075 49.075 0 0 0-3.033 17.495 51.459 51.459 0 0 0 2.854 17.44 40.123 40.123 0 0 0 8.208 13.77 37.434 37.434 0 0 0 12.915 9.03 42.688 42.688 0 0 0 16.871 3.23 44.036 44.036 0 0 0 18.063-3.41 35.49 35.49 0 0 0 12.859-9.737l.856-1.032-6.216-6.75c-1.647-1.756-4.208-1.807-6.316.087z"/><path fill="url(#h)" d="M332.801 76.904a26.617 26.617 0 0 0-9.423-6.348 34.93 34.93 0 0 0-24.51 0 26.876 26.876 0 0 0-9.451 6.344 28.012 28.012 0 0 0-6.034 9.94 38.114 38.114 0 0 0-2.085 12.941 38.11 38.11 0 0 0 2.085 12.942 28.28 28.28 0 0 0 6.028 9.965 26.67 26.67 0 0 0 9.456 6.377 34.952 34.952 0 0 0 24.51 0 26.412 26.412 0 0 0 9.427-6.38 28.474 28.474 0 0 0 5.999-9.962 38.11 38.11 0 0 0 2.084-12.942 38.114 38.114 0 0 0-2.084-12.94 28.176 28.176 0 0 0-6.002-9.937zm-7.63 22.934c0 6.172-1.194 10.937-3.551 14.169-2.276 3.121-5.702 4.64-10.469 4.64-4.845 0-8.319-1.52-10.619-4.646-2.371-3.227-3.575-7.993-3.575-14.163 0-6.172 1.204-10.957 3.581-14.226 2.3-3.159 5.77-4.695 10.613-4.695 4.764 0 8.187 1.535 10.466 4.69 2.36 3.27 3.554 8.06 3.554 14.23z"/><path fill="url(#i)" d="M395.932 74.97a18.407 18.407 0 0 0-6.645-4.908 22.28 22.28 0 0 0-9.022-1.727 25.203 25.203 0 0 0-5.95.671 24.655 24.655 0 0 0-5.163 1.884 27.544 27.544 0 0 0-4.558 2.867c-.643.5-1.284 1.032-1.913 1.592l-.431-2.665a4.527 4.527 0 0 0-4.663-3.437h-8.938v61.183h15.314V87.183a24.332 24.332 0 0 1 5.773-4.397 14.403 14.403 0 0 1 6.882-1.698c3.237 0 5.542.882 7.055 2.696 1.56 1.87 2.35 4.607 2.35 8.135v38.511h15.26V91.92a32.1 32.1 0 0 0-1.323-9.425 20.99 20.99 0 0 0-4.028-7.524z"/><path fill="url(#j)" d="M448.753 72.465a22.426 22.426 0 0 0-4.273-2.541 22.666 22.666 0 0 0-9.35-1.76 24.252 24.252 0 0 0-19.488 9.267 30.988 30.988 0 0 0-5.25 10.096 41.558 41.558 0 0 0-1.808 12.483 48.732 48.732 0 0 0 1.623 13.15 29.335 29.335 0 0 0 4.672 9.826 20.69 20.69 0 0 0 7.381 6.174 21.39 21.39 0 0 0 9.565 2.124 23.195 23.195 0 0 0 11.55-2.818 31.515 31.515 0 0 0 6.552-4.932l.599 3.458a4.482 4.482 0 0 0 4.602 3.438h8.942V43.038h-15.317zm-4.71 9.412a12.622 12.622 0 0 1 4.71 3.741v25.99a21.476 21.476 0 0 1-5.546 4.947 14.03 14.03 0 0 1-7.28 1.806 12.07 12.07 0 0 1-4.908-.953 8.5 8.5 0 0 1-3.53-2.964 16.245 16.245 0 0 1-2.378-5.65 38.35 38.35 0 0 1-.868-8.784c0-6.498 1.254-11.427 3.728-14.65a11.799 11.799 0 0 1 10.008-4.67 15.392 15.392 0 0 1 6.063 1.187z"/><path fill="url(#k)" d="M511.77 112.551a23.815 23.815 0 0 1-5.765 4.365 14.472 14.472 0 0 1-6.833 1.674c-3.237 0-5.543-.882-7.055-2.697-1.56-1.87-2.351-4.607-2.351-8.135v-38.51H474.45v38.51a32.068 32.068 0 0 0 1.324 9.424 20.98 20.98 0 0 0 4.03 7.526 18.303 18.303 0 0 0 6.675 4.908 22.428 22.428 0 0 0 9.05 1.727 25.19 25.19 0 0 0 5.917-.67 24.607 24.607 0 0 0 5.192-1.887 26.574 26.574 0 0 0 4.567-2.902q.957-.754 1.877-1.59l.462 2.698a4.482 4.482 0 0 0 4.602 3.438h8.942V69.247H511.77z"/><path fill="url(#l)" d="M538.55 69.247h15.317v61.183H538.55z"/><path fill="url(#m)" d="M553.002 46.351a10.282 10.282 0 0 0-3.109-2.077 9.51 9.51 0 0 0-7.56.01 9.811 9.811 0 0 0-3.007 2.095 10.251 10.251 0 0 0-2.04 3.041 9.32 9.32 0 0 0-.787 3.811 9.194 9.194 0 0 0 .784 3.75 10.278 10.278 0 0 0 2.046 3.048 9.726 9.726 0 0 0 3 2.091 9.005 9.005 0 0 0 3.737.792 9.582 9.582 0 0 0 3.827-.781 10.287 10.287 0 0 0 3.109-2.076 9.83 9.83 0 0 0 2.132-3.073 9.256 9.256 0 0 0 .784-3.751 9.394 9.394 0 0 0-.787-3.812A9.798 9.798 0 0 0 553 46.35z"/><path fill="url(#n)" d="M597.869 117.868a3.253 3.253 0 0 0-4.893-1.262c-.336.229-.734.473-1.186.736a9.611 9.611 0 0 1-1.521.683 5.774 5.774 0 0 1-1.929.279 3.833 3.833 0 0 1-2.98-1.164 5.36 5.36 0 0 1-1.128-3.741V81.943h16.125V70.045h-16.125V50.958h-7.801a4.163 4.163 0 0 0-2.836.98 4.879 4.879 0 0 0-1.47 2.477l-2.5 15.695-9.598 1.395v6.284a3.958 3.958 0 0 0 1.258 3.113 4.13 4.13 0 0 0 2.781 1.04h4.849v32.312c0 5.322 1.458 9.542 4.33 12.54 2.89 3.02 7.007 4.55 12.244 4.55a25.906 25.906 0 0 0 8.478-1.426 21.429 21.429 0 0 0 7.235-4.144l.967-.848z"/></svg>