<svg xmlns="http://www.w3.org/2000/svg" role="img" viewBox="-5.31 1.69 510.12 296.62"><style>svg {enable-background:new 0 0 500 300}</style><path fill="#333" d="M33.4 253.2c-1.3-6.1-4.6-8.8-10.1-8.8-6.7 0-10.3 4.4-10.3 15.2v6.4c0 10.7 3.6 15.2 10.3 15.2 5.7 0 8.8-2.8 10.1-8.8h8c-1.7 11.2-8.2 16.2-18.1 16.2-11.2 0-18.7-6.7-18.7-22.5v-6.4c0-15.7 7.5-22.5 18.7-22.5 9.9 0 16.5 5.3 18.2 16.2h-8.1zm32.5 35.2c-11.2 0-18.7-6.7-18.7-22.5v-6.4c0-15.7 7.5-22.5 18.7-22.5s18.8 6.7 18.8 22.5v6.4c0 15.7-7.6 22.5-18.8 22.5zm-10.3-22.5c0 10.8 3.6 15.2 10.3 15.2 6.7 0 10.4-4.4 10.4-15.2v-6.4c0-10.8-3.7-15.2-10.4-15.2s-10.3 4.4-10.3 15.2v6.4zm72.2-28.2v50h-7.5l-20.4-34v34h-8.1v-50h7.3l20.6 34.4v-34.4h8.1zm39.9 0v7.3h-22.3v14.4h20.1v7.3h-20.1v21.1H137v-50h30.7zm14.7 50H174v-50h8.4v50zm45-25.6v3.8c0 15.7-7.2 22.5-18.4 22.5s-18.7-6.7-18.7-22.5v-6c0-16.1 7.5-22.8 18.7-22.8 10.2 0 16.6 5.7 18.2 16.2h-8.1c-1.2-5.8-4.4-8.8-10.1-8.8-6.7 0-10.3 4.4-10.3 15.2v6.4c0 10.8 3.6 15.2 10.3 15.2 6.4 0 9.6-3.8 10.2-11.7h-9.9v-7.3h18.1zm44.6-24.4v29.7c0 14.8-7.6 21-18.7 21s-18.7-6.2-18.7-20.9v-29.8h8.4v29.8c0 9.6 3.4 13.6 10.3 13.6s10.3-4 10.3-13.6v-29.8h8.4zm37 50l-9.6-20.3h-9.7v20.3h-8.4v-50h17c11.5 0 18.4 5 18.4 14.9 0 6.9-3.3 11.3-9.1 13.4l10.7 21.7H309zm-11.3-27.5c7.1 0 10.6-1.9 10.6-7.5 0-5.7-3.5-7.6-10.6-7.6h-8.1v15.2h8.1zm56.7-22.5v7.3h-22.3v13.2h20.1v7.3h-20.1v15h22.3v7.3h-30.7v-50h30.7zm39.2 50.7c-11.2 0-18.7-6.7-18.7-22.5v-6.4c0-15.7 7.5-22.5 18.7-22.5s18.8 6.7 18.8 22.5v6.4c0 15.7-7.6 22.5-18.8 22.5zm-10.3-22.5c0 10.8 3.6 15.2 10.3 15.2 6.7 0 10.4-4.4 10.4-15.2v-6.4c0-10.8-3.7-15.2-10.4-15.2s-10.3 4.4-10.3 15.2v6.4zm72.2-28.2v50H448l-20.4-34v34h-8.1v-50h7.3l20.6 34.4v-34.4h8.1zm39.9 0v7.3h-22.3v13.2h20.1v7.3h-20.1v15h22.3v7.3h-30.7v-50h30.7z"/><path fill="#39c6f3" d="M328.4 139.8c-7.9 0-15.1 3.1-20.4 8.1l-20.3-15.2c3.9-6.6 6.2-14.3 6.2-22.5 0-5.5-1-10.7-2.8-15.6l27-13.3c2.7 2.6 6.3 4.2 10.3 4.2 8.2 0 14.8-6.6 14.8-14.8 0-8.2-6.6-14.8-14.8-14.8-8.2 0-14.8 6.6-14.8 14.8 0 .6 0 1.2.1 1.7l-27.1 13.4c-7.9-12-21.6-20-37.1-20-8.2 0-15.9 2.2-22.5 6.2l-21.3-28.4c2.7-3.4 4.3-7.6 4.3-12.3 0-10.9-8.8-19.7-19.7-19.7-10.9 0-19.7 8.8-19.7 19.7 0 10.9 8.8 19.7 19.7 19.7 2.7 0 5.2-.5 7.5-1.5l21.3 28.4c-8.6 8.1-14 19.6-14 32.3 0 7.3 1.8 14.2 5 20.3l-15.4 10.3c-1.3-.7-2.8-1-4.4-1-5.4 0-9.9 4.4-9.9 9.9 0 5.4 4.4 9.9 9.9 9.9 5.4 0 9.9-4.4 9.9-9.9v-.6l15.4-10.3c8.1 9.7 20.3 15.8 33.9 15.8 12.7 0 24.2-5.4 32.3-14l20.3 15.2c-2.1 4.1-3.3 8.7-3.3 13.6 0 16.3 13.2 29.6 29.6 29.6s29.6-13.2 29.6-29.6-13.3-29.6-29.6-29.6zm-78.9 4.9c-19 0-34.5-15.5-34.5-34.5s15.5-34.5 34.5-34.5S284 91.2 284 110.2s-15.5 34.5-34.5 34.5z"/></svg>