<svg xmlns="http://www.w3.org/2000/svg" role="img" viewBox="-2.16 -1.28 112.19 19.44"><path fill="#4a89dc" d="M54.281 5.773c.066-1.269.521-2.306 1.232-3.115V1.58h-.945c-1.91 0-3.527.732-4.467 2.386h-.055V1.762h-4.899v13.441h4.9V9.777c0-2.303.674-4.059 3.393-4.059.296.002.573.019.841.055zm37.099-.049a7.984 7.984 0 0 1 1.925-3.095v-1.05h-.943c-1.911 0-3.526.732-4.471 2.385h-.053V1.762h-4.902v13.441h4.902V9.777c0-2.303.676-4.059 3.395-4.059l.147.006zM64.232 5.22c-.756-.393-1.808-.655-2.645-.655-.562 0-1.533.234-1.533.917 0 .918 1.533 1.048 2.211 1.182 2.284.444 4.012 1.493 4.012 3.979 0 3.536-3.313 5.008-6.52 5.008-1.967 0-3.902-.551-5.574-1.547l1.777-3.33c.995.684 2.665 1.363 3.877 1.363.62 0 1.535-.287 1.535-1.021 0-1.048-1.535-1.103-3.072-1.495-1.533-.393-3.066-1.125-3.066-3.536 0-3.302 3.066-4.767 6.088-4.767 1.562 0 3.125.235 4.549.864L64.232 5.22zM108 15.203h-4.9v-1.495h-.054c-.862 1.336-2.562 1.938-4.175 1.938-4.096 0-6.975-3.328-6.975-7.18 0-3.848 2.828-7.151 6.92-7.151 1.588 0 3.26.576 4.283 1.754V1.762h4.899L108 15.203zM96.959 8.495c0 1.702 1.16 3.012 3.15 3.012 1.992 0 3.147-1.308 3.147-3.012 0-1.651-1.155-3.039-3.147-3.039-1.99.001-3.15 1.388-3.15 3.039zm-14.796.788H71.846c0 1.937 1.053 2.984 3.072 2.984 1.05 0 1.803-.339 2.343-1.231h4.714c-.781 3.171-3.879 4.612-7.029 4.612-4.575 0-7.995-2.517-7.995-7.152 0-4.48 3.147-7.178 7.644-7.178 4.793 0 7.57 2.883 7.57 7.466l-.002.499zM77.611 6.53c-.243-1.284-1.455-2.122-2.773-2.122-1.429 0-2.609.731-2.91 2.122h5.683zm-48.05 1.731a9.766 9.766 0 0 0-.022-.344v-.004a7.388 7.388 0 0 0-1.221-3.468 7.582 7.582 0 0 0-3.087-2.672c-1.145-.547-2.41-.823-3.76-.823a9.076 9.076 0 0 0-3.136.547c-.869.314-1.626.729-2.245 1.227-.126.1-.263.223-.41.358l-.106.104-.145.154h.002l-.068.067-.033.036-.173.182c-.128.144-.25.288-.364.429l-.001-.002-.004-.004a7.412 7.412 0 0 0-.617.854c-.109.172-.216.349-.318.526L12.44 8.285l.002.002-.074.145-.156.316c-.31.627-.642 1.252-1.013 1.768-.827.907-1.762 1.351-2.964 1.351-.084 0-.17-.004-.258-.009-.724-.029-1.345-.2-1.896-.526a3.164 3.164 0 0 1-1.224-1.27 3.278 3.278 0 0 1-.402-1.686l.002-.043c.039-.936.396-1.664 1.115-2.293a3.864 3.864 0 0 1 .63-.438c.534-.291 1.142-.436 1.839-.436l.217.006c1.107.042 1.961.388 2.642 1.063L13.036 2.4a8.417 8.417 0 0 0-1.724-.875c-.024-.009-.049-.019-.074-.027-.076-.027-.151-.055-.229-.08A9.136 9.136 0 0 0 8.894.99L8.838.983C8.726.976 8.612.962 8.5.957a11.234 11.234 0 0 0-.365-.008h-.069c-1.343.005-2.591.28-3.732.825a7.605 7.605 0 0 0-3.082 2.669A7.398 7.398 0 0 0 0 8.609c-.001 1.926.701 3.62 2.097 5.042 1.457 1.492 3.352 2.296 5.627 2.391.146.006.29.01.434.01 1.287 0 2.478-.229 3.546-.687.267-.114.526-.248.791-.397.144-.083.28-.171.415-.265l.1-.067.168-.115c.202-.145.391-.302.575-.469l.064-.061c.108-.103.216-.207.318-.314l.383-.433.146-.183.068-.1.068-.098c.569-.956 2.421-4.435 2.421-4.435v-.007l.11-.212.092-.166c.273-.497.47-.85.731-1.221l.007-.011c.609-.883 1.656-1.512 2.89-1.618 2.07-.178 3.884 1.182 4.051 3.038.166 1.856-1.378 3.505-3.448 3.684-.431.037-.85.008-1.245-.079l-.01.004c-1.519-.316-2.486-1.424-2.963-1.919l-1.992 3.663s.619.624 1.043.936c.425.311.974.617 1.412.807a8.794 8.794 0 0 0 3.496.726c.148 0 .118 0 .272-.006 2.273-.095 4.299-.966 5.76-2.458 1.384-1.417 2.135-3.035 2.142-4.95v-.057a11.654 11.654 0 0 0-.008-.321zm7.62 7.396c-1.033 0-1.97-.12-2.811-.36s-1.559-.619-2.154-1.139c-.597-.52-1.057-1.182-1.381-1.985s-.486-1.771-.486-2.899V1.759h4.727v7.455c0 .845.202 1.457.605 1.839.404.383.917.574 1.539.574.636 0 1.152-.178 1.55-.535.396-.357.596-.949.596-1.781V1.759h4.727v7.416c0 1.168-.166 2.161-.497 2.978-.331.818-.798 1.486-1.399 2.006-.604.52-1.331.898-2.186 1.139-.855.239-1.798.359-2.83.359z"/></svg>