<svg xmlns="http://www.w3.org/2000/svg" role="img" viewBox="-8.23 -8.23 427.96 116.21"><title>Craft CMS (adopter) logo</title><style>svg {enable-background:new 0 0 412 100}</style><path fill="#e5422b" d="M142.6 60.9c-6.8 0-10.5-4.3-9.6-10.5 1.1-6.3 6.2-10.5 12.9-10.5 3.5 0 6.7 1.6 8.5 4.1l6.5-5.4c-3.5-4-8.5-6-13.9-6-11 0-20.6 7.4-22.2 17.8-1.6 10.5 5.4 17.8 16.5 17.8 5.6 0 11.2-2.3 16.1-6.2l-4.7-5.4c-3.3 3-6.9 4.3-10.1 4.3zm42.5-20.7c.2 0 1.4-7.3 1.4-7.3s-1.4-.2-1.5-.2c-1.5-.2-3.2-.1-4.7 0-1.4.1-2.8.4-4.2.8-1.2.4-2.5.8-3.5 1.5l.2-1.6h-8l-5.4 33.9h8l3.2-19.8c.1-1.2.6-2.2 1.2-3.2s1.4-1.8 2.3-2.3c.9-.7 1.9-1.2 2.9-1.5 1.1-.4 2.1-.6 3.3-.7 1.5-.1 3.2 0 4.7.4h.1zM89.6 0H10.5C4.7 0 0 4.7 0 10.5v78.9C0 95.3 4.7 100 10.5 100h79c5.7 0 10.5-4.7 10.5-10.5v-79C100.1 4.7 95.4 0 89.6 0zM49.8 60.9c3.3 0 6.8-1.3 10.2-4.3l4.7 5.4c-4.9 4-10.5 6.2-16.1 6.2-11.1 0-18.1-7.4-16.5-17.8C33.7 40 43.2 32.6 54.4 32.6c5.4 0 10.4 2.1 13.9 6L61.7 44c-1.9-2.5-5-4.1-8.5-4.1-6.7 0-11.8 4.3-12.9 10.5-1 6.2 2.7 10.5 9.5 10.5zm313-28.3c-5 0-10.1 2-13.3 5.4-2.1-3.4-6.1-5.4-11-5.4h-.7c-3.9.1-6.9.8-9.6 2.5l.2-1.6h-8L315 67.4h8l3.2-19.8c.7-4.7 5.8-7.5 10.3-7.7 4.3.1 7 2.9 6.3 7.5l-3.2 20h8l3.2-19.8c.7-4.8 5.5-7.7 10.3-7.7 4.6 0 7.1 2.8 6.3 7.5l-3.2 20h8l3.2-20.6c1.3-8.4-3.9-14.2-12.6-14.2zm-64.4 28.3c-6.8 0-10.5-4.3-9.6-10.5 1.1-6.2 6.2-10.5 12.9-10.5 3.5 0 6.7 1.6 8.5 4.1l6.5-5.4c-3.5-3.9-8.5-6-13.9-6-11.1 0-20.6 7.4-22.2 17.8-1.6 10.5 5.4 17.8 16.5 17.8 5.6 0 11.2-2.2 16.1-6.2l-4.7-5.4c-3.4 3-6.9 4.3-10.1 4.3zm96.5-14.2c-5.6-.9-6.9-1.5-6.7-3 .4-2.2 3.2-3.6 8-3.6 4.1 0 7.7 1.3 10.5 3l4.9-6.1c-3.6-2.5-9-4.2-14.2-4.2-7.3 0-16 2.5-17.4 11-.9 6.8 3.6 8.7 12.6 10.2 4.3.7 8.2 1.4 7.8 3.5-.5 2.7-4.4 3.5-8.4 3.5-4.3 0-9.5-1.6-12.2-3.7l-4.9 6.1c3.7 3 10.5 4.9 15.8 5 9.5 0 16.7-4 17.8-11.1 1.3-7.9-5.5-9.2-13.6-10.6zM260.5 23.9l-9.1 6.5-.5 3.2h-10.3l1.1-6.4c.6-3 3.9-2.9 3.9-2.9h3.9l1.2-7H245c-10.9 0-11.2 8.4-11.2 8.4l-.7 4-.6 4h-.7l-8.9 7h8.4L226 74.9h8.2l5.4-34.4h10.3l-4.2 26.9h8.1l4.2-26.9h10l1.2-7H259l1.5-9.6zm-46.1 11.7c-2.2-1.9-5.6-2.9-9.6-2.9-9.9 0-18.9 7.1-20.7 17.7-1.6 10.5 5.3 17.7 14.9 17.7 4.3 0 8-.6 11-2.7l-.2 1.9h7.3l5.3-33.7h-7.5l-.5 2zm-1.7 14.7c-1.1 6.4-5.8 10.9-12 10.9-6.3 0-9.9-4.7-8.9-11s6.1-10.8 12.3-10.8c6.2.1 9.6 4.5 8.6 10.9z"/></svg>