<svg xmlns="http://www.w3.org/2000/svg" role="img" viewBox="-8.26 -8.01 416.26 415.76"><title>Credit Karma logo</title><g fill-rule="evenodd"><path fill="#fbfbfb" d="M213.6 184v124h31.992l.104-18.287.104-18.287 7.46-5.613c8.746-6.58 16.055-12.545 23.497-19.174 4.804-4.281 5.408-4.702 5.858-4.086.277.378 7.316 12.212 15.644 26.298 8.328 14.085 16.289 27.141 17.693 29.013 8.381 11.177 23.006 16.127 37.041 12.538 3.109-.795 6.34-2.239 6.081-2.717-.085-.157-12.161-20.31-26.836-44.786l-26.68-44.501 2.723-3.099c15.958-18.159 29.6-38.729 40.727-61.41 4.63-9.437 9.926-21.687 9.686-22.406-.104-.312-28.73-11.063-29.494-11.077-.11-.002-.81 1.571-1.556 3.495-13.328 34.401-34.782 66.287-61.872 91.958-9.255 8.771-19.465 17.514-19.92 17.059-.139-.138-.252-39.101-.252-86.585V60h-32v124m-91.8-54.555c-14.137 2.04-21.261 4.085-30.8 8.844-30.893 15.411-47.599 48.521-45.055 89.297 2.536 40.668 21.825 68.941 54.284 79.57 22.99 7.527 57.614 4.665 82.671-6.835l2.7-1.239v-15.941c0-8.768-.094-15.941-.208-15.941-.114 0-.894.433-1.733.963-8.999 5.681-26.06 11.672-38.659 13.575-42.478 6.416-69.663-23.528-64.974-71.569 3.327-34.08 21.996-51.987 54.174-51.961 16.789.014 30.305 3.485 43.143 11.079l1.543.913 1.396-1.6c1.65-1.892 3.78-5.965 4.647-8.887 4.482-15.092-6.893-25.432-32.329-29.387-4.988-.776-27.138-1.409-30.8-.881"/><path fill="#3cdc94" d="M75.039.456C36.124 5.449 5.246 36.54.419 75.59c-.584 4.723-.584 244.097 0 248.82 4.859 39.31 35.861 70.312 75.171 75.171 4.723.584 244.097.584 248.82 0 39.31-4.859 70.312-35.861 75.171-75.171.584-4.723.584-244.097 0-248.82C394.722 36.28 363.72 5.278 324.41.419 320.168-.105 79.135-.07 75.039.456M246 146.22c0 74.274.08 86.574.562 86.3 3.698-2.105 25.76-22.895 33.45-31.52 20.244-22.708 35.712-47.735 47.005-76.052l1.935-4.853 2.024.71c7.648 2.684 27.681 10.113 27.939 10.361.575.555-7.718 19.574-12.399 28.434-10.475 19.825-21.085 35.58-35.596 52.858-2.706 3.222-4.92 5.952-4.92 6.068 0 .116 12.052 20.295 26.782 44.843l26.781 44.633-1.486.759c-9.599 4.897-25.81 3.294-34.928-3.453-6.204-4.592-6.947-5.674-25.745-37.508a28054.538 28054.538 0 0 0-15.171-25.677c-.029-.042-2.299 1.918-5.043 4.356-8.156 7.245-14.512 12.439-23.081 18.859l-8.09 6.062-.01 18.3L246 308h-32.8V59.6H246v86.62m-102.4-17.009c22.007 1.668 36.352 7.747 41.034 17.389 2.528 5.205 1.345 13.975-2.701 20.024-2.802 4.189-2.608 4.118-5.948 2.167-17.496-10.218-44.199-13.672-61.385-7.941-22.677 7.564-34.754 28.219-34.703 59.35.085 51.762 36.067 74.526 87.503 55.357 4.602-1.715 13.587-5.932 16.5-7.745l1.7-1.057v32.758l-4.9 2.003c-22.508 9.203-50.866 12.516-71.131 8.31C69.582 301.527 45.6 268.076 45.6 220.6c0-59.804 38.691-95.884 98-91.389"/><path fill="#90ecc4" d="M221.5 59.9c4.455.064 11.745.064 16.2 0 4.455-.065.81-.118-8.1-.118s-12.555.053-8.1.118m-83.4 69.176c.385.1 1.015.1 1.4 0 .385-.101.07-.183-.7-.183s-1.085.082-.7.183M79.693 215.6c0 .77.082 1.085.183.7.1-.385.1-1.015 0-1.4-.101-.385-.183-.07-.183.7"/><path fill="#a4f0cc" d="M213.397 184c0 68.31.047 96.255.103 62.1.056-34.155.056-90.045 0-124.2s-.103-6.21-.103 62.1m32.301-37.724c-.054 47.562.037 86.56.202 86.662.271.168.27-58.777-.003-141.938-.056-17.16-.146 7.714-.199 55.276m-115.581-17.179c1.494.077 3.834.077 5.2-.001 1.365-.078.143-.141-2.717-.141-2.86.001-3.978.065-2.483.142M274.975 206.5l-1.175 1.3 1.3-1.175c.715-.646 1.3-1.231 1.3-1.3 0-.309-.33-.037-1.425 1.175m-229.282 7.9c0 .77.082 1.085.183.7.1-.385.1-1.015 0-1.4-.101-.385-.183-.07-.183.7m0 12c0 .77.082 1.085.183.7.1-.385.1-1.015 0-1.4-.101-.385-.183-.07-.183.7m200.091 63.4c0 10.12.052 14.203.116 9.073.063-5.131.063-13.411 0-18.4-.064-4.99-.116-.793-.116 9.327M131.9 282.693c.935.084 2.465.084 3.4 0s.17-.153-1.7-.153c-1.87 0-2.635.069-1.7.153"/><path fill="#7ee6b6" d="M270.192 211.3L266.6 215l3.7-3.592c2.035-1.975 3.7-3.64 3.7-3.7 0-.29-.472.156-3.808 3.592"/></g></svg>