<svg xmlns="http://www.w3.org/2000/svg" role="img" viewBox="-13.15 -13.15 735.80 130.80"><style>.st0{fill:#3ddb93}</style><style/><style/><style/><style/><style/><style/><style/><style/><style/><path fill="#3ddb93" d="M442 30.5c-16.8 0-23.3 4.5-23.3 9.7 0 3.9 2.3 6.4 2.9 7 2.2-1.4 8.5-5 18.5-5 12.7 0 17.2 6 17.2 12.5v1.9c-29.4 3.1-44.4 8.6-44.4 26.2 0 12 9 21 21.6 21 12.7 0 19.9-6.6 23.1-9.5v8.1h12.8V54.2c.1-15.6-11.2-23.7-28.4-23.7zM457.3 83c-5.9 6.1-11.9 9.1-19.6 9.1-7.4 0-11.4-4.8-11.4-9.8 0-7.2 5.8-13.3 30.9-15.7V83zm215.3-52.5c-16.8 0-23.3 4.5-23.3 9.7 0 3.9 2.3 6.4 2.9 7 2.2-1.4 8.5-5 18.5-5 12.7 0 17.2 6 17.2 12.5v1.9c-29.4 3.1-44.4 8.6-44.4 26.2 0 12 9 21 21.6 21 12.7 0 19.9-6.6 23.1-9.5v8.1H701V54.2c0-15.6-11.3-23.7-28.4-23.7zM687.9 83c-5.9 6.1-11.9 9.1-19.6 9.1-7.4 0-11.4-4.8-11.4-9.8 0-7.2 5.8-13.3 30.9-15.7V83zM258.5 17.8c-4.6 0-8.4-3.7-8.4-8.3 0-4.6 3.8-8.4 8.4-8.4 4.6 0 8.3 3.8 8.3 8.4-.1 4.6-3.7 8.3-8.3 8.3zm-6.7 84.6V32H265v70.4h-13.2zM120.4 72.9c19.6 0 45.4-3 45.4-23.6 0-10.3-8.6-18.8-23.1-18.8-24.4 0-36.1 17.1-36.1 37.8 0 19.8 12.8 35.6 35.6 35.6 12.7 0 22.2-3.5 22.2-10.7 0-3.4-2.2-6.1-2.7-6.5-1.3.8-8.1 5.5-18.7 5.5-14.9-.1-21.1-9.7-22.6-19.3zm-.1-10.2c.6-10.4 7.3-21 21.8-21 6.5 0 10.4 3.7 10.4 8.2 0 10.1-18.3 12.8-32.2 12.8zm115.5 37.6c-2.7.7-11.2 3.6-23.6 3.6-27.1 0-37.6-15.1-37.6-35.4 0-25.7 14.6-38 31.1-38 9.2 0 15.3 2.9 17 3.7V2.8h13v97.5zm-13-54.2c-1.6-1-7.3-3.9-14.6-3.9-12.1 0-20.5 8.4-20.5 25.8 0 15.5 7.8 24.1 24.5 24.1 3.9 0 7.5-.6 10.6-1.5V46.1zm-208.1 21c0-16.4 8.5-24.9 21.5-24.9 9.8 0 16.2 3.7 18.3 5 1.6-1.5 2.9-4.2 2.9-7 0-4.7-5.5-9.7-21.7-9.7C16.8 30.5 1 43.2 1 67.3c0 23.5 14.3 36.6 33.2 36.6 11.3 0 20.4-3.6 23-5V85.8c-2.9 2-12.2 6.3-20.8 6.3-12.4 0-21.7-8.4-21.7-25zm371.7-.6c8.5-9.6 16.1-21 21.5-35L395.7 27c-7.7 20.3-19.3 34-33.3 45.3V2.8h-13.1v99.6h13.1V87.7c5.1-3.6 9.6-7.3 14.5-11.8l12 20.3c3 5 7 7.7 13 7.7 3.4 0 5.3-1.1 6.1-1.5l-21.6-35.9zM81.5 40.9c0-6.9-3.9-10.4-9.1-10.4-1.2 0-2.5.2-3.8.7v71.2h13.1V60.8c3.7-8.8 12.6-17 24.2-17V30.5c-12.5 0-19.6 6-24.4 15v-4.6zm418.1 0c0-6.9-3.9-10.4-9.1-10.4-1.2 0-2.5.2-3.8.7v71.2h13.1V60.8c3.7-8.8 12.6-17 24.2-17V30.5c-12.5 0-19.6 6-24.4 15v-4.6zm45.9.3v-.3c0-6.9-3.7-10.4-8.9-10.4-1.2 0-2.5.2-3.8.7v71.2h13.1V53.7c3.9-5.3 11.8-11.5 18.8-11.5 7.7 0 11.5 5 11.5 12.2v48h13.1V53.7c4.5-6.1 11.8-11.5 18.8-11.5 7.7 0 11.5 5 11.5 12.2v48h13.1V53.7c0-13.3-6-23.2-22.2-23.2-9.9 0-17.2 5.3-23.1 11.8-2-4.7-6.5-11.8-20.3-11.8-9.5 0-16.3 5-21.6 10.7zM281.2 15v68.2c0 13.5 8.4 20.7 20.8 20.7 5.9 0 11.2-1.5 12.4-1.9V90.7c-1.1.3-4.7 1.4-9.5 1.4-7.3 0-10.6-4.5-10.6-10.5V43h18.2V32h-18.2v-7.2c0-6.9-4.1-10.4-9.4-10.4-1.2-.1-2.5.1-3.7.6zm410.6 2.1h6.5v1.3h-2.4v7.4h-1.7v-7.4h-2.4v-1.3zm15.3 8.8c0-2.2-.2-4.9-.7-7.1-1.1 1.6-1.8 3.5-2.1 5.3h-1c-.3-1.8-1.1-3.7-2.1-5.3-.5 2.2-.7 4.9-.7 7.1h-1.7c0-2.8.3-6 1-8.7h1.5c.9 1.1 1.9 2.8 2.4 4.4.6-1.6 1.5-3.4 2.4-4.4h1.5c.7 2.7 1 6 1 8.7h-1.5z"/></svg>