<svg xmlns="http://www.w3.org/2000/svg" role="img" viewBox="-0.13 2.24 84.76 27.26"><title>Cube logo</title><g clip-path="url(#clip0_906_1416)"><path fill="#FF6492" d="M22.44 10.0324L12.0234 4v4.17391L22.44 14.1804v-4.148z"/><path fill="#141446" d="M22.44 14.1804L19.315 16l-7.2936-4.2162-4.16741 2.4-3.12557-1.6865 7.29498-4.32338L22.44 14.1804z"/><path fill="#A14474" d="M7.85399 14.1838l-3.12557-1.6865V16l3.12557-1.8162z"/><path fill="#141446" d="M1.60287 21.9676L12.0215 16 22.44 21.9676 12.0215 28 1.60287 21.9676z"/><path fill="#FF6492" d="M22.44 17.8261l-10.4185-6.1072V16L22.44 21.9676v-4.1415z"/><path fill="#7A77FF" d="M4.72845 16v-3.5027l7.29495-4.32339V4L1.60287 10.0324v11.9352L12.0215 16v-4.2811L4.72845 16z"/><path fill="#141446" d="M28.903 16.5382c0-3.608 2.8668-6.4154 6.4799-6.4154 2.3181 0 4.1116 1.1278 5.159 2.8561l-1.8437 1.4533c-.7981-1.1278-1.8196-1.8797-3.2894-1.8797-2.2436 0-3.8381 1.7544-3.8381 3.984 0 2.28 1.5945 4.0083 3.8381 4.0083 1.4456 0 2.467-.7258 3.2894-1.8536l1.8437 1.4289c-1.0716 1.7283-2.8669 2.8561-5.159 2.8561-3.6131.0018-6.4799-2.8056-6.4799-6.438zm13.9068 1.0025v-7.1411h2.5916v7.3413c0 1.7283 1.2205 2.8056 2.7665 2.8056 1.4958 0 2.692-1.0773 2.692-2.8056v-7.3413h2.6176v7.1411c0 3.3331-2.3181 5.4373-5.3079 5.4373-3.0417 0-5.3598-2.1042-5.3598-5.4373zm26.5446-.9782c0 3.6584-2.5171 6.4154-5.9813 6.4154-1.7953 0-3.3655-.7258-4.2865-1.979v1.704h-2.4427V3.90918h2.6176v7.99402c.9227-1.1278 2.3925-1.7788 4.0874-1.7788 3.4884-.0017 6.0055 2.7796 6.0055 6.4381zm-2.692-.0244c0-2.381-1.6446-4.0083-3.7394-4.0083-1.8437 0-3.6892 1.2531-3.6892 4.0344 0 2.8056 1.8697 4.0083 3.6892 4.0083 2.119 0 3.7394-1.6534 3.7394-4.0344zm16.225.8773h-9.1218c.3497 2.0294 1.894 3.2321 3.987 3.2321 1.4214 0 2.5414-.5518 3.5646-1.4533l1.2465 1.8049c-1.2967 1.227-2.9414 1.9789-4.8855 1.9789-3.7879 0-6.5804-2.7813-6.5804-6.4154 0-3.608 2.7665-6.4398 6.3311-6.4398 3.2651 0 5.6576 2.4053 5.6576 5.6374 0 .6771-.1246 1.3297-.1991 1.6552zm-9.0716-2.0555h6.6548c-.0502-1.9302-1.4698-3.0075-3.1404-3.0075-1.7208.0017-3.1162 1.1783-3.5144 3.0075z"/></g><defs><clipPath id="clip0_906_1416"><path fill="#fff" d="M0 0h84v32H0z"/></clipPath></defs></svg>