<svg xmlns="http://www.w3.org/2000/svg" role="img" viewBox="21.27 22.02 388.70 142.95"><path d="M233.9 92.4l-5.2.5c-.9-8.4-7.4-13.5-15.8-13.5-10.1 0-17.6 7.2-17.6 20.2s7.7 20.2 17.7 20.2c8.7 0 14.6-4.7 15.8-12.4l5.2.4c-1.8 10.3-9.7 16.7-21 16.7-13.2 0-23.1-9-23.1-24.8s9.9-24.8 23-24.8c11.1-.1 19.7 6.6 21 17.5zm45.7 31.2v-8.1c-1.8 4.1-6.7 9-15.3 9-10.7 0-17.5-7.8-17.5-19V75.6h5.2v29.1c0 8.8 4.9 14.7 13.3 14.7 8.8 0 14-7.1 14-15V75.6h5.3v47.9h-5zm42-43.5c-8.9 0-14.4 6.5-14.4 14.3v29.2h-5.3v-48h5.1v7.9c1.6-4.2 6.4-8.5 14.6-8.5v5.1zm20.1-22.7c0 2.1-1.8 3.9-4 3.9s-3.9-1.8-3.9-3.9c0-2.2 1.8-4 3.9-4 2.2.1 4 1.9 4 4zm-6.7 66.2v-48h5.3v47.9H335zm67.7-24c0 15.3-10.7 24.8-24.3 24.8s-24.2-9.5-24.2-24.8 10.6-24.8 24.2-24.8 24.3 9.5 24.3 24.8zm-43.1 0c0 12.7 8.2 20.2 18.9 20.2 10.5 0 18.9-7.5 18.9-20.2s-8.3-20.1-18.9-20.1c-10.6 0-18.9 7.4-18.9 20.1zM67.2 57.7c8.9 4.7 19.1 21.9 23.5 30 2.9-9.8 7.2-27.8 4.7-35.8-2.7-8.8-17.5-18.8-23.1-22.3-2.3 5.1-7.5 17.9-7.1 27.3.7.2 1.4.5 2 .8zM59 113.4c4.8-9 19.6-15.9 27.2-19-6.8-2.9-21.5-8.5-30.1-5.9-9.2 2.8-22.4 18.4-27.4 24.6 7.1 2.1 19.3 5.2 28.4 5.6.5-1.9 1.1-3.8 1.9-5.3zm77.2-13.7c-2.3 1.5-4.5 2.7-6.6 3.3-2 .6-4.2.9-6.5.9-8.8 0-19.2-3.7-25.4-6.3 5 9.1 14.4 24.1 21.5 27.9 8.2 4.3 25.7.9 32.1-.5-2-5.6-7.8-19.4-15.1-25.3zm-12.3-58.2c0-.6-.1-1.2-.1-1.8 0-.2 0-.5-.1-.7 0-.5-.1-.9-.1-1.4v-.2c-.1-.9-.2-1.8-.3-2.5-6.4 3.4-16.7 9.6-23.5 15.6v.1c3 9.9-2.3 30.1-4.8 38.5 4.5-1.8 13.5-5.6 20-10.6l.1-.1c.6-.4 1.1-.9 1.6-1.3.2-.1.3-.3.5-.4.3-.3.7-.6 1-1l.8-.8c.2-.2.3-.3.4-.5.8-.9 1.5-1.8 2-2.8 1.4-2.6 2.1-6.4 2.5-10.5v-.3c.1-.7.1-1.4.2-2.1 0-.4 0-.8.1-1.3v-.5c.2-5.2 0-10.8-.3-15.4z" class="st0"/><path d="M48.2 87.5c2.3-1.5 4.5-2.7 6.6-3.3 9.4-2.9 24 2.2 31.8 5.4-5-9.1-14.4-24.1-21.5-27.9-7.5-4-24-1.4-32.1.5 2 5.6 7.8 19.4 15.2 25.3zm79.1-19.1c-.5 2.1-1.1 3.9-2 5.4-5 9.2-19.5 16-27.1 19 6.8 2.9 21.5 8.5 30.1 5.9 9.2-2.8 22.4-18.4 27.4-24.6-7.2-2.2-19.3-5.3-28.4-5.7zm-42.8 68.2c-3-9.8 2.3-30 4.8-38.5-6.5 2.5-21.9 9.2-26.2 17.4-4.5 8.5-2.8 28.9-2 36.8 6.4-3.4 16.7-9.6 23.5-15.6-.1 0-.1 0-.1-.1zm32.7-7.1c-8.9-4.7-19.1-21.9-23.5-30-2.9 9.8-7.2 27.9-4.7 35.8 2.7 8.8 17.5 18.8 23.1 22.3 2.3-5.1 7.6-18 7.1-27.4-.8-.2-1.4-.4-2-.7z" class="st0"/></svg>