<svg xmlns="http://www.w3.org/2000/svg" role="img" viewBox="9.17 26.92 246.16 342.16"><title>Directlyrics logo</title><g fill-rule="evenodd"><path fill="#fb6424" d="M165.867 39.467c-.147.146-.267 29.362-.267 64.923 0 51.099-.105 64.799-.5 65.332-.449.606-.746.438-2.9-1.641-2.785-2.687-6.534-5.837-7.4-6.217-.33-.145-1.41-.89-2.4-1.655s-2.34-1.672-3-2.014a57.472 57.472 0 0 1-2.8-1.601c-.88-.538-1.87-1.094-2.2-1.236-.33-.141-1.694-.775-3.032-1.408-1.337-.632-2.604-1.15-2.815-1.15-.211 0-1.09-.36-1.953-.8-.863-.44-1.976-.8-2.472-.8-.497 0-1.584-.345-2.416-.766-.831-.422-2.484-.892-3.673-1.046-1.189-.154-2.776-.537-3.528-.851-4.405-1.84-31.35-1.845-35.711-.005-.77.324-2.48.719-3.8.877-1.32.158-3.155.626-4.078 1.039-.923.414-2.003.758-2.4.765-.397.006-1.622.455-2.722.996-1.1.541-2.196.985-2.436.987-.593.005-5.299 2.375-5.562 2.801-.116.188-.73.456-1.365.595-.635.139-1.471.603-1.858 1.031-.386.427-.908.777-1.16.777-.251 0-.808.272-1.238.605-.429.332-1.681 1.177-2.781 1.878-2.635 1.678-7.465 5.732-11.339 9.516-2.117 2.068-8.508 9.988-9.661 11.972-.55.947-1.31 2.056-1.69 2.465-.379.409-.8 1.185-.936 1.724-.135.54-.59 1.292-1.01 1.673-.42.38-.764.988-.764 1.351s-.45 1.271-1 2.016c-.55.745-1 1.6-1 1.898 0 .299-.36 1.254-.8 2.123-.44.868-1.145 2.264-1.567 3.101-.422.838-.9 2.231-1.063 3.096-.162.866-.623 2.296-1.024 3.178-.401.882-.736 2.144-.746 2.804-.01.66-.353 1.938-.763 2.841-.409.902-.875 2.792-1.035 4.2-.16 1.407-.537 3.157-.838 3.888-.301.731-.747 3.326-.991 5.767-.244 2.441-.623 4.903-.842 5.471-1.34 3.479-1.289 32.614.069 39.633.404 2.09.834 5.161.956 6.823.121 1.663.476 3.643.788 4.4.312.758.698 2.529.858 3.936.16 1.408.626 3.298 1.035 4.2.41.903.753 2.181.763 2.841.01.66.345 1.922.746 2.804.401.882.862 2.322 1.025 3.2.163.878.619 2.136 1.014 2.796.395.66.834 1.857.977 2.66.143.803.524 1.68.849 1.949.324.269.589.777.589 1.128 0 .621 3.317 7.406 5.603 11.463.62 1.1 1.385 2.54 1.7 3.2.315.66.871 1.447 1.235 1.749.364.302.662.775.662 1.051 0 .276.289.742.642 1.035.353.292.807.9 1.01 1.349 1.412 3.128 11.926 14.461 15.591 16.805.673.431 2.657 1.805 5.357 3.712.88.621 2.185 1.37 2.9 1.663.715.293 1.3.691 1.3.885 0 .193.225.352.5.353.275 0 1.58.54 2.9 1.198 1.32.658 2.67 1.199 3 1.201.33.002 1.14.362 1.8.799.66.437 1.653.796 2.206.797.553.002 1.633.338 2.4.747.767.409 2.474.874 3.794 1.032 1.32.159 3.75.622 5.4 1.028 5.846 1.441 28.497 1.37 32.012-.1.777-.324 2.487-.723 3.8-.886 1.314-.163 3.016-.557 3.785-.877.768-.319 2.205-.762 3.193-.984.988-.221 2.07-.637 2.404-.925.333-.287 1.224-.639 1.98-.782.755-.143 1.655-.505 2-.804.344-.3 1.287-.757 2.094-1.016.807-.259 1.684-.732 1.949-1.05.265-.319.791-.58 1.17-.58.379 0 1-.344 1.38-.763.38-.42 1.218-.982 1.862-1.249.644-.267 1.171-.649 1.171-.849 0-.201.344-.494.763-.652 2.345-.882 19.637-17.951 19.637-19.384 0-.588 1.918-.295 2.157.33.134.348.243 6.3.243 13.226 0 7.916.154 12.881.414 13.367.405.756 1.224.774 35.741.774h35.327l.264-3.75c.482-6.864.283-309.133-.204-309.72-.472-.569-76.71-.828-77.275-.263m-39 178.022c.323.268 1.565.694 2.76.945 1.195.251 2.443.683 2.773.96.33.278 1.275.722 2.1.986.825.265 1.5.63 1.5.812 0 .181.495.53 1.1.774 2.769 1.118 8.855 6.778 11.166 10.384a165.019 165.019 0 0 0 2.188 3.334c.41.596.746 1.337.746 1.646 0 .309.337.991.748 1.516s.938 1.764 1.17 2.754c.232.99.72 2.61 1.085 3.6 1.069 2.9.961 14.587-.164 17.786-.461 1.313-.839 2.623-.839 2.912 0 .459-1.542 3.771-3.493 7.502-2.128 4.07-10.697 12.118-14.03 13.175-.442.141-1.023.519-1.29.84-.267.322-.778.587-1.136.589-.358.002-1.551.446-2.651.987-1.1.541-2.489.99-3.086.996-.597.007-1.857.265-2.8.574-4.763 1.558-14.692.665-19.74-1.775-.895-.432-2.009-.786-2.477-.786-.467 0-.972-.198-1.122-.441-.15-.242-.836-.694-1.524-1.003-3.741-1.684-13.051-10.295-13.051-12.073 0-.197-.35-.676-.777-1.062-.428-.387-.889-1.213-1.026-1.835-.137-.622-.495-1.336-.797-1.586-.302-.25-.668-1.028-.814-1.728-.145-.699-.523-1.68-.839-2.178-.539-.852-1.259-4.001-2.163-9.463-.401-2.426-.026-7.021.803-9.828.227-.769.413-1.872.413-2.452 0-1.427 2.795-7.837 4.6-10.549 1.255-1.886 4.663-5.854 6.173-7.189a71.227 71.227 0 0 0 2-1.827c.345-.337 1.437-1.13 2.427-1.762.99-.632 2.288-1.481 2.884-1.887.596-.405 1.279-.737 1.518-.737.239 0 1.28-.45 2.313-1 1.033-.55 2.213-1 2.621-1 .409 0 1.31-.254 2.004-.564.693-.31 1.53-.663 1.86-.784 1.245-.455 16.261-.067 16.867.437"/><path fill="#fafafa" d="M0 200v200h400V0H0v200M238.258 34.447c.408.356 1.543.768 2.522.917 3.179.484 6.004 3.396 6.646 6.85.162.872.583 2.028.934 2.568.584.896.64 14.245.64 151.6V347l-.9 1.594c-.495.877-.9 1.853-.9 2.169 0 .316-.247.858-.548 1.206-.301.347-.72 1.171-.93 1.831-.288.901-.774 1.33-1.95 1.721-.861.287-1.927.849-2.369 1.248-.442.399-1.696.841-2.787.982-1.091.141-2.162.435-2.38.653-.536.536-55.929.543-56.464.008-.214-.214-1.705-.576-3.313-.804-4.582-.649-8.869-4.381-9.433-8.211-.162-1.098-.624-2.357-1.028-2.797-.404-.44-.793-1.34-.866-2-.176-1.599-3.264-1.983-4.995-.622-.574.452-1.287.822-1.582.822-.296 0-1.998 1.26-3.783 2.8-1.785 1.54-3.552 2.8-3.928 2.8-.375 0-1.36.695-2.19 1.545-.83.85-2.195 1.75-3.034 2.002-.839.251-1.748.726-2.022 1.055-.273.329-.81.598-1.193.598s-1.126.334-1.651.742c-.525.408-1.674.87-2.554 1.026-.88.156-2.259.621-3.065 1.033-.806.412-2.156.871-3 1.019-.844.148-1.916.508-2.383.8-.466.291-2.446.651-4.4.8-2.213.168-3.929.517-4.552.925-1.497.98-29.976.99-31.8.011-.66-.354-2.337-.758-3.728-.897-1.39-.139-2.915-.524-3.389-.856-.473-.332-1.323-.603-1.887-.603-.565 0-1.74-.369-2.611-.82-.872-.45-2.454-.988-3.516-1.195-1.062-.207-2.392-.738-2.954-1.181-.563-.442-1.286-.804-1.607-.804-.322 0-1.062-.336-1.646-.748-.584-.411-1.512-.885-2.062-1.055-.55-.169-1.429-.642-1.954-1.052-.525-.41-1.245-.747-1.6-.748-.355-.002-1.317-.64-2.137-1.417-.82-.777-2.142-1.685-2.938-2.018-1.954-.816-15.683-14.316-16.077-15.809-.161-.613-1.033-1.889-1.936-2.835-.902-.946-1.783-2.169-1.957-2.719-.174-.549-.898-1.719-1.609-2.599-.712-.88-1.431-2.05-1.598-2.6-.167-.55-.729-1.509-1.249-2.131-.52-.622-.945-1.452-.945-1.846 0-.393-.335-1.144-.745-1.669-.41-.525-.884-1.404-1.055-1.954-.171-.55-.645-1.429-1.055-1.954-.41-.525-.745-1.25-.745-1.611s-.246-1.012-.546-1.446c-.3-.434-.685-1.239-.855-1.789-.17-.55-.635-1.418-1.034-1.928-.398-.511-.844-1.729-.991-2.707-.147-.978-.606-2.443-1.02-3.256-.415-.813-.755-1.935-.757-2.494-.001-.558-.36-1.555-.797-2.215-.437-.66-.796-1.835-.797-2.611-.002-.776-.25-1.766-.551-2.2-.693-.997-1.452-4.509-1.452-6.72 0-.93-.254-2.054-.564-2.497-.347-.494-.753-2.958-1.051-6.38-.288-3.3-.713-5.921-1.042-6.423-1.281-1.955-1.072-37.167.229-38.736.247-.297.645-2.675.883-5.282.249-2.723.67-5.08.989-5.535.306-.437.556-1.555.556-2.485 0-2.211.759-5.723 1.452-6.72.301-.434.548-1.429.548-2.211 0-.782.302-1.853.671-2.379.368-.527.811-1.85.983-2.94.173-1.09.562-2.275.865-2.632.303-.357.77-1.67 1.038-2.918.268-1.248.735-2.476 1.039-2.728.304-.252.666-.973.804-1.603s.509-1.358.823-1.619c.314-.261.749-1.128.967-1.928.218-.799 1.029-2.161 1.803-3.026.774-.865 1.407-1.878 1.407-2.251s.289-.918.642-1.211c.353-.293 1.051-1.44 1.55-2.549.556-1.235 2.089-3.211 3.958-5.1 1.677-1.696 3.05-3.366 3.05-3.711 0-.843 7.545-8.411 8.771-8.798.534-.168 2.064-1.36 3.4-2.648 1.336-1.288 2.969-2.559 3.629-2.823.66-.265 1.758-.959 2.439-1.543.682-.584 3.382-2.096 6-3.36 2.619-1.265 5.031-2.468 5.361-2.674 1.286-.804 3.212-1.559 3.975-1.559.44 0 1.481-.348 2.313-.774.831-.426 2.232-.899 3.112-1.051.88-.152 1.906-.544 2.281-.87.387-.338 1.853-.687 3.4-.81 1.495-.118 3.083-.452 3.528-.741 2.581-1.68 32.854-1.655 35.547.029.464.29 1.993.649 3.398.798 1.404.149 2.934.509 3.4.8.465.291 1.566.655 2.446.808.88.153 2.14.602 2.8.997.66.396 2.051.841 3.091.99 1.04.149 1.992.435 2.117.637.22.357 5.92 3.187 6.418 3.187.136 0 .705.36 1.265.8.559.44 1.308.804 1.663.809.355.005 1.096.361 1.646.791 1.644 1.286 4.377 1.086 5.825-.426l1.175-1.226.2-52.513c.148-38.894.32-52.658.663-53.074.254-.308.59-1.461.746-2.561.174-1.224.641-2.388 1.204-3 .505-.55.979-1.45 1.053-2 .097-.721.607-1.227 1.828-1.814.931-.447 1.912-1.032 2.18-1.3.267-.267.86-.486 1.317-.486.457 0 1.198-.257 1.647-.571 1.734-1.215 66.237-1.388 67.62-.182m119.118.166c.428.323 1.616.587 2.641.587 4.206 0 6.564 2.735 2.883 3.343-1.958.324-67.842.324-69.8 0-2.949-.487-1.756-3.343 1.397-3.343.743 0 1.699-.264 2.127-.587 1.168-.884 59.584-.884 60.752 0m-68.908 8.692c.892 2.746.924 300.949.033 305.648-.743 3.918-2.179 4.028-2.632.202-.133-1.122-.473-2.318-.755-2.659-.924-1.113-.739-300.778.186-302.085.385-.544.7-1.363.7-1.82 0-.925.763-1.87 1.352-1.674.211.071.713 1.145 1.116 2.388m81.028-2.005c.216.275.51 1.393.653 2.484.142 1.091.437 2.162.655 2.38.561.561.546 299.926-.015 300.487-.225.225-.52 1.34-.655 2.477-.244 2.059-1.065 3.337-1.693 2.635-1.715-1.914-1.641 5.076-1.635-155.438.006-157.36-.053-150.843 1.396-155.025.095-.275.337-.5.536-.5.2 0 .541.225.758.5M113.4 222.8c-.66.201-2.793.721-4.739 1.156-1.946.435-3.836 1.051-4.2 1.37-.364.319-1.073.705-1.577.859-1.619.494-12.071 10.582-12.08 11.66-.002.244-.683 1.774-1.513 3.4-2.876 5.633-3.501 18.994-1.028 21.994.254.308.594 1.461.756 2.561.171 1.17.685 2.469 1.237 3.131.519.622.944 1.414.944 1.761 0 .842 8.817 9.685 9.669 9.698.368.005 1.178.433 1.8.95.622.517 1.941 1.066 2.931 1.22.99.154 2.161.516 2.602.805 2.77 1.812 17.689 1.791 19.829-.028.348-.295.784-.537.969-.537.868 0 5.798-2.677 7.472-4.057 1.029-.849 2.109-1.545 2.4-1.547.788-.007 3.031-2.47 3.329-3.657.143-.57.966-1.726 1.829-2.569.864-.843 1.571-1.811 1.573-2.151.001-.341.36-1.159.797-1.819.437-.66.796-1.743.797-2.406.002-.663.39-1.923.863-2.8 1.195-2.213 1.37-12.965.24-14.695-.385-.589-.7-1.571-.7-2.181 0-1.108-2.537-6.708-3.233-7.138-.202-.125-.367-.576-.367-1.002 0-2.982-13.281-12.778-17.325-12.778-.607 0-1.567-.304-2.135-.676-1.191-.781-9.078-1.152-11.14-.524m250.9 131.427c1.958.296 2.179.814.6 1.404-.605.226-1.91.806-2.9 1.29-1.793.876-1.908.88-29.613 1.011-33.785.161-39.541-.101-41.325-1.885-.671-.672-1.109-1.334-.971-1.471.83-.83 68.917-1.15 74.209-.349"/><path fill="#ccb2a8" d="M174 37.692c-2.31.16-4.65.358-5.2.44-.55.081 15.56.151 35.8.154 23.482.004 35.497-.121 33.2-.344-4.49-.437-58.084-.647-63.8-.25m-8.851 1.369c-.459.553-.57 10.495-.677 60.41l-.128 59.748-.918.99c-.505.545-1.245.991-1.646.991-.401 0-1.155.4-1.675.89-.621.583-1.043.739-1.226.453-.153-.239-1.044-.823-1.979-1.297s-1.7-1.026-1.7-1.227c0-.201-.391-.489-.869-.641-.478-.152-1.232-.614-1.676-1.027-.443-.413-1.014-.751-1.269-.751-.255 0-.879-.36-1.386-.8-.507-.44-1.13-.8-1.383-.8-.254 0-1.072-.45-1.817-1-.745-.55-1.658-1-2.029-1-.37 0-.896-.269-1.169-.597-.272-.329-1.239-.795-2.149-1.037-.909-.242-1.946-.701-2.303-1.02-.358-.319-1.348-.693-2.2-.831-.853-.138-2.09-.579-2.75-.981-.66-.402-1.833-.732-2.606-.733-.773 0-2.061-.352-2.861-.781-.886-.475-2.681-.88-4.594-1.036-1.726-.142-3.949-.556-4.939-.921-2.679-.987-23.119-.986-25.2.002-.77.365-3.005.782-4.968.926-2.293.168-4.109.538-5.084 1.035-.834.426-2.055.774-2.713.774-1.267 0-3.235.736-3.235 1.21 0 .155-.825.394-1.833.532-1.008.139-2.292.613-2.854 1.055-.561.442-1.402.807-1.867.812-.465.005-1.296.361-1.846.791-.55.43-1.287.786-1.638.791-.351.005-.955.359-1.341.786-.387.428-1.224.892-1.86 1.032-.636.139-1.292.49-1.459.779-.166.289-.977.806-1.802 1.149-.825.342-1.5.811-1.5 1.043 0 .231-.245.42-.545.42-.573 0-3.068 1.758-4.497 3.169-.463.457-.972.831-1.132.831-.159 0-1.068.765-2.019 1.7-.951.935-2.373 2.24-3.16 2.9-.786.66-1.434 1.425-1.438 1.7-.005.275-.285.5-.622.5-.336 0-.731.315-.875.7-.145.385-.994 1.449-1.888 2.364-2.618 2.682-5.424 6.375-5.424 7.139 0 .222-.36.629-.8.904-.44.275-.8.697-.8.939 0 .241-.45.973-1 1.627s-1 1.417-1 1.696c0 .279-.36.833-.8 1.231-.44.398-.8.942-.8 1.208s-.349.928-.775 1.47c-.427.542-.904 1.511-1.061 2.154-.157.642-.619 1.597-1.025 2.122-.406.525-.74 1.245-.742 1.6-.001.355-.36 1.186-.797 1.846-.437.66-.802 1.56-.81 2-.008.44-.458 1.7-.999 2.8-.541 1.1-.985 2.472-.987 3.049-.002.577-.344 1.837-.761 2.8-.416.963-.883 2.818-1.037 4.123-.155 1.304-.538 2.763-.852 3.242-.313.478-.682 2.381-.818 4.228-.136 1.847-.51 3.879-.832 4.516-.33.653-.756 3.353-.979 6.2a529.346 529.346 0 0 1-.646 7.642c-.325 3.353-.295 21.249.039 23.6.141.99.42 4.42.619 7.623.23 3.692.58 6.254.957 7 .327.647.706 2.688.842 4.535.137 1.857.508 3.755.83 4.246.32.489.708 2.003.862 3.364.154 1.361.616 3.133 1.026 3.938.41.805.748 2.01.75 2.679.002.668.446 2.115.987 3.215.541 1.1.99 2.471.996 3.046.007.575.345 1.475.751 2 .406.525.858 1.572 1.005 2.328.146.755.518 1.655.825 2 .306.344.761 1.391 1.01 2.326s.619 1.7.822 1.7c.203 0 .561.712.795 1.583.235.871.597 1.688.804 1.817.208.128.749.991 1.202 1.917 1.477 3.016 2.111 4.078 2.615 4.378.272.162.619.792.772 1.4.152.608.622 1.427 1.044 1.821.423.393.768.978.768 1.3 0 .321.147.584.326.584.18 0 .731.72 1.226 1.6.495.88 1.073 1.6 1.286 1.6.213 0 .518.351.677.781.723 1.956 12.059 13.619 13.237 13.619.221 0 .638.315.925.7.651.872 4.101 3.3 4.688 3.3.239 0 .435.184.435.41 0 .225.474.59 1.052.81.579.22 1.552.755 2.162 1.19.61.434 1.375.79 1.699.79.324 0 .812.269 1.085.597.272.329 1.239.795 2.149 1.037.909.242 1.946.701 2.303 1.02.358.319 1.348.687 2.2.817.853.131 1.844.491 2.203.802.359.311 1.88.756 3.381.99 1.5.234 3.13.688 3.621 1.01.5.328 2.267.67 4.019.779 1.719.107 4.116.499 5.326.871 2.798.861 19.596.975 21.104.144.496-.275 2.917-.676 5.378-.892 2.858-.25 4.705-.601 5.113-.97.351-.318 1.711-.695 3.022-.838 1.311-.143 2.978-.599 3.706-1.014.727-.414 1.762-.753 2.3-.753.537 0 1.312-.335 1.722-.745.41-.41 1.445-.876 2.3-1.035.855-.16 1.877-.635 2.271-1.055.393-.421 1.13-.765 1.638-.765.507 0 1.248-.36 1.646-.8.398-.44.952-.8 1.231-.8.279 0 1.042-.45 1.696-1 .654-.55 1.381-1 1.617-1 .235 0 .621-.36.856-.8.235-.44.623-.8.861-.8.47 0 2.411-1.546 4.939-3.933.88-.832 1.915-1.631 2.3-1.777.385-.146.7-.541.7-.877 0-.337.201-.613.447-.613s1.128-.702 1.961-1.561c.833-.858 1.892-1.68 2.354-1.827.509-.162.838-.604.838-1.128v-.862l.623.889c.411.587 1.035.889 1.837.889.872 0 1.273.222 1.421.787.113.432.519.886.902 1.008.622.197.721 1.086.921 8.262.186 6.688.333 8.151.874 8.692.591.591 3.924.652 36.336.659l35.686.009-35.68-.209c-22.976-.134-35.821-.35-36.075-.608-.23-.233-.515-5.588-.682-12.8-.158-6.82-.424-12.85-.591-13.4-.167-.55-.319-.717-.338-.371-.041.763-14.943 15.518-16.75 16.585-.706.417-1.284.904-1.284 1.082 0 .178-.405.5-.9.715-.495.216-1.71 1.018-2.7 1.782-.99.764-2.34 1.66-3 1.99-.66.331-1.47.773-1.8.983-.561.357-3.278 1.611-7 3.23-2.861 1.245-5.543 2.076-8.505 2.634-1.598.301-3.264.739-3.702.974-.438.234-2.911.603-5.495.819-2.584.216-6.138.57-7.898.785-4.048.497-8.778.502-11.269.013-1.062-.209-4.024-.569-6.583-.801-2.558-.232-5.416-.691-6.35-1.021-.934-.329-2.171-.607-2.748-.617-.578-.009-1.77-.291-2.65-.625-.88-.335-2.41-.853-3.4-1.152-2.254-.681-6.17-2.322-6.871-2.88-.291-.231-1.204-.638-2.029-.904s-1.5-.637-1.5-.825c0-.188-.405-.463-.9-.611-4.294-1.283-18.389-13.65-22.25-19.522-.357-.544-1.642-2.491-2.854-4.326-2.575-3.901-2.671-4.056-4.783-7.786-.887-1.567-1.613-3.052-1.613-3.3 0-.248-.166-.451-.369-.451-.203 0-.586-.675-.851-1.5-.264-.825-.712-1.77-.993-2.1-.282-.33-.714-1.357-.961-2.283-.246-.926-.61-1.783-.808-1.906-.198-.122-.566-.895-.819-1.717a27.631 27.631 0 0 0-1.003-2.694c-.762-1.682-1.766-4.777-2.464-7.6-.326-1.32-.78-2.745-1.008-3.166-.227-.422-.644-2.042-.926-3.6-.282-1.559-.802-3.907-1.156-5.218-.353-1.311-.642-2.873-.642-3.471 0-.597-.344-2.854-.763-5.016-1.911-9.833-1.938-42.13-.039-47.123.183-.482.542-2.625.797-4.763.255-2.137.697-4.461.983-5.165.285-.703.644-2.266.797-3.473.153-1.208.516-2.738.808-3.4.291-.663.803-2.285 1.136-3.605 1.218-4.817 1.816-6.328 5.356-13.528 3.351-6.814 3.802-7.636 4.394-7.992.292-.176.531-.556.531-.845 0-.501 1.697-2.923 2.991-4.269.335-.348.609-.774.609-.945 0-1.841 13.267-14.56 19.2-18.407 1.65-1.07 3.64-2.366 4.422-2.88.781-.514 1.612-.934 1.846-.934.233 0 .868-.349 1.41-.775.542-.427 1.459-.894 2.037-1.039.579-.146 1.252-.505 1.496-.8.244-.294 1.017-.657 1.717-.806.699-.15 1.469-.43 1.709-.623.632-.507 5.964-2.3 8.769-2.949 1.323-.306 2.881-.737 3.463-.958.581-.221 2.198-.517 3.594-.657 1.395-.14 4.068-.522 5.94-.848 6.464-1.126 21.645-.435 29.197 1.328 7.512 1.754 9.676 2.402 12.6 3.777.88.414 1.797.752 2.038.751.63-.001 8.622 4.162 11.511 5.997 2.588 1.644 2.665 1.7 6.484 4.694 1.339 1.049 2.946 2.268 3.572 2.708.626.44 1.575 1.216 2.109 1.724.534.509 1.087.809 1.228.667.142-.142.348-29.266.458-64.72l.2-64.463 1.2-.257c1.156-.247 1.161-.258.149-.304-.578-.026-1.298.251-1.6.614m77.651-.143l1 .506.101 156.746c.074 115.546-.018 156.889-.349 157.288-.324.39-.326.542-.009.542 1.355 0 1.381-3.004 1.395-158.2.013-163.053.094-157.41-2.262-157.394-.838.006-.832.028.124.512M112.605 217.497c-.877.089-1.784.32-2.016.512-.232.193-1.314.541-2.405.774-1.977.421-5.084 1.597-6.984 2.642-.55.303-1.45.779-2 1.058s-1.239.736-1.531 1.015c-.292.279-.922.711-1.4.96-1.029.536-1.385.84-4.269 3.642-2.193 2.132-2.637 2.67-4.696 5.7-1.308 1.925-3.304 5.749-3.304 6.33 0 .23-.349 1.149-.775 2.044-1.489 3.123-2.089 12.271-1.209 18.426.528 3.692 2.867 9.72 4.966 12.8 8.653 12.693 21.662 18.466 36.818 16.339 2.42-.34 4.763-.847 5.206-1.126.443-.279 1.433-.645 2.2-.813.767-.167 1.823-.641 2.348-1.052.525-.411 1.155-.751 1.4-.755.438-.007 3.132-1.668 4.99-3.077 1.756-1.331 6.823-6.493 7.469-7.608.353-.609 1.073-1.828 1.6-2.708 1.831-3.058 3.355-6.649 3.767-8.873.227-1.23.598-2.459.823-2.731.596-.718.926-8.79.474-11.596-.524-3.249-1.657-7.865-2.111-8.6-.204-.33-.487-.87-.628-1.2-1.382-3.234-2.776-5.767-3.505-6.373-.348-.289-.633-.731-.633-.984 0-.682-7.122-7.519-9.2-8.831-.99-.626-2.288-1.469-2.884-1.875-.596-.405-1.296-.737-1.556-.737s-1.212-.345-2.116-.766c-1.485-.693-3.857-1.376-8.444-2.431-1.58-.364-7.296-.422-10.395-.106m9.287.716c.807.337 2.646.781 4.087.988 1.442.206 3.334.74 4.206 1.187.871.447 2.08.812 2.686.812.691 0 1.26.297 1.529.8.235.44.75.8 1.144.8.394 0 1.139.45 1.656 1 .517.55 1.225 1 1.574 1 .348 0 .858.36 1.133.8.275.44.768.8 1.096.8.329 0 .597.186.597.413 0 .538 2.649 3.187 3.187 3.187.227 0 .413.268.413.597 0 .328.36.821.8 1.096.44.275.8.794.8 1.154 0 .36.295.9.655 1.198.36.299.975 1.291 1.367 2.205.391.914.907 1.782 1.145 1.93.238.147.433.682.433 1.19 0 .507.346 1.361.768 1.898.473.601.934 2.169 1.199 4.08.238 1.706.653 3.496.922 3.977.76 1.356.658 8.163-.148 9.875-.363.77-.784 2.517-.937 3.882-.153 1.365-.527 2.688-.831 2.94-.303.252-.67 1.115-.816 1.918-.145.803-.599 1.782-1.01 2.176-.411.393-.747.923-.747 1.178 0 1.093-5.458 8.078-7.164 9.169-.57.364-1.744 1.309-2.609 2.1-.865.79-1.736 1.437-1.937 1.437-.2 0-.821.36-1.381.8-.559.44-1.325.8-1.701.8-.376 0-.988.336-1.361.748-.372.411-1.463.855-2.425.987-.962.132-2.476.619-3.366 1.083-2.176 1.134-16.736 1.065-18.456-.088-.55-.369-1.72-.8-2.6-.958-.88-.159-2.029-.622-2.554-1.03-.525-.408-1.262-.742-1.638-.742-.376 0-1.001-.35-1.387-.777-.387-.428-1.227-.892-1.866-1.033-.639-.14-1.346-.6-1.572-1.023-.226-.422-.668-.767-.983-.767-.315 0-.765-.36-1-.8-.235-.44-.68-.8-.987-.8-.308 0-.67-.351-.807-.78-.136-.428-.598-.89-1.026-1.026-.429-.137-.78-.499-.78-.807 0-.307-.36-.752-.8-.987-.44-.235-.8-.685-.8-1 0-.315-.345-.757-.767-.983-.423-.226-.889-.96-1.036-1.633-.148-.672-.613-1.437-1.033-1.699-.42-.263-.764-.86-.764-1.327 0-.468-.354-1.3-.787-1.85-.432-.55-.911-1.79-1.063-2.754-.152-.965-.627-2.43-1.055-3.257-1.062-2.049-.935-16.91.154-18.155.357-.408.777-1.452.933-2.321.156-.868.629-2.017 1.051-2.554.422-.536.767-1.289.767-1.672s.263-.915.585-1.182c.321-.267.705-.874.854-1.349.274-.878 3.496-4.845 5.412-6.664 2.098-1.991 4.033-3.6 4.329-3.6.167 0 .789-.45 1.382-1 .594-.55 1.428-1 1.855-1 .427 0 1.001-.36 1.276-.8.285-.456.933-.8 1.506-.8.554 0 1.816-.424 2.804-.943 1.036-.544 2.887-1.053 4.373-1.202 1.417-.142 2.947-.518 3.4-.836 1.136-.796 6.217-.8 8.116-.006"/><path fill="#d69a86" d="M166.6 38.748l-1.2.26-.2 64.463c-.11 35.454-.316 64.578-.458 64.72-.141.142-.694-.158-1.228-.667a22.327 22.327 0 0 0-2.109-1.724c-.626-.44-2.233-1.659-3.572-2.708-3.819-2.994-3.896-3.05-6.484-4.694-2.889-1.835-10.881-5.998-11.511-5.997-.241.001-1.158-.337-2.038-.751-2.924-1.375-5.088-2.023-12.6-3.777-7.552-1.763-22.733-2.454-29.197-1.328-1.872.326-4.545.708-5.94.848-1.396.14-3.013.436-3.594.657-.582.221-2.14.652-3.463.958-2.805.649-8.137 2.442-8.769 2.949-.24.193-1.01.473-1.709.623-.7.149-1.473.512-1.717.806-.244.295-.917.654-1.496.8-.578.145-1.495.612-2.037 1.039-.542.426-1.177.775-1.41.775-.234 0-1.065.42-1.846.934-.782.514-2.772 1.81-4.422 2.88-5.933 3.847-19.2 16.566-19.2 18.407 0 .171-.274.597-.609.945-1.294 1.346-2.991 3.768-2.991 4.269 0 .289-.239.669-.531.845-.592.356-1.043 1.178-4.394 7.992-3.54 7.2-4.138 8.711-5.356 13.528-.333 1.32-.845 2.942-1.136 3.605-.292.662-.655 2.192-.808 3.4-.153 1.207-.512 2.77-.797 3.473-.286.704-.728 3.028-.983 5.165-.255 2.138-.614 4.281-.797 4.763-1.899 4.993-1.872 37.29.039 47.123.419 2.162.763 4.419.763 5.016 0 .598.289 2.16.642 3.471.354 1.311.874 3.659 1.156 5.218.282 1.558.699 3.178.926 3.6.228.421.682 1.846 1.008 3.166.698 2.823 1.702 5.918 2.464 7.6.299.66.75 1.872 1.003 2.694.253.822.621 1.595.819 1.717.198.123.562.98.808 1.906.247.926.679 1.953.961 2.283.281.33.729 1.275.993 2.1.265.825.648 1.5.851 1.5.203 0 .369.203.369.451s.726 1.733 1.613 3.3c2.112 3.73 2.208 3.885 4.783 7.786 1.212 1.835 2.497 3.782 2.854 4.326 3.861 5.872 17.956 18.239 22.25 19.522.495.148.9.423.9.611s.675.559 1.5.825c.825.266 1.738.673 2.029.904.701.558 4.617 2.199 6.871 2.88.99.299 2.52.817 3.4 1.152.88.334 2.072.616 2.65.625.577.01 1.814.288 2.748.617.934.33 3.792.789 6.35 1.021 2.559.232 5.521.592 6.583.801 2.491.489 7.221.484 11.269-.013 1.76-.215 5.314-.569 7.898-.785 2.584-.216 5.057-.585 5.495-.819.438-.235 2.104-.673 3.702-.974 2.962-.558 5.644-1.389 8.505-2.634 3.722-1.619 6.439-2.873 7-3.23.33-.21 1.14-.652 1.8-.983.66-.33 2.01-1.226 3-1.99.99-.764 2.205-1.566 2.7-1.782.495-.215.9-.537.9-.715 0-.178.578-.665 1.284-1.082 1.807-1.067 16.709-15.822 16.75-16.585.019-.346.171-.179.338.371s.433 6.58.591 13.4c.167 7.213.452 12.567.682 12.8.595.603 71.484.757 72.206.157.922-.765.81-313.642-.112-314.408-.704-.584-74.117-.968-76.739-.401m76.542.982c.487.587.686 302.856.204 309.72l-.264 3.75h-35.327c-34.517 0-35.336-.018-35.741-.774-.26-.486-.414-5.451-.414-13.367 0-6.926-.109-12.878-.243-13.226-.239-.625-2.157-.918-2.157-.33 0 1.433-17.292 18.502-19.637 19.384-.419.158-.763.451-.763.652 0 .2-.527.582-1.171.849s-1.482.829-1.862 1.249c-.38.419-1.001.763-1.38.763s-.905.261-1.17.58c-.265.318-1.142.791-1.949 1.05-.807.259-1.75.716-2.094 1.016-.345.299-1.245.661-2 .804-.756.143-1.647.495-1.98.782-.334.288-1.416.704-2.404.925-.988.222-2.425.665-3.193.984-.769.32-2.471.714-3.785.877-1.313.163-3.023.562-3.8.886-3.515 1.47-26.166 1.541-32.012.1-1.65-.406-4.08-.869-5.4-1.028-1.32-.158-3.027-.623-3.794-1.032-.767-.409-1.847-.745-2.4-.747-.553-.001-1.546-.36-2.206-.797-.66-.437-1.47-.797-1.8-.799-.33-.002-1.68-.543-3-1.201s-2.625-1.198-2.9-1.198c-.275-.001-.5-.16-.5-.353 0-.194-.585-.592-1.3-.885-.715-.293-2.02-1.042-2.9-1.663-2.7-1.907-4.684-3.281-5.357-3.712-3.665-2.344-14.179-13.677-15.591-16.805-.203-.449-.657-1.057-1.01-1.349-.353-.293-.642-.759-.642-1.035 0-.276-.298-.749-.662-1.051-.364-.302-.92-1.089-1.235-1.749-.315-.66-1.08-2.1-1.7-3.2C35.317 313.743 32 306.958 32 306.337c0-.351-.265-.859-.589-1.128-.325-.269-.706-1.146-.849-1.949-.143-.803-.582-2-.977-2.66-.395-.66-.851-1.918-1.014-2.796-.163-.878-.624-2.318-1.025-3.2-.401-.882-.736-2.144-.746-2.804-.01-.66-.353-1.938-.763-2.841-.409-.902-.875-2.792-1.035-4.2-.16-1.407-.546-3.178-.858-3.936-.312-.757-.667-2.737-.788-4.4-.122-1.662-.552-4.733-.956-6.823-1.358-7.019-1.409-36.154-.069-39.633.219-.568.598-3.03.842-5.471.244-2.441.69-5.036.991-5.767.301-.731.678-2.481.838-3.888.16-1.408.626-3.298 1.035-4.2.41-.903.753-2.181.763-2.841.01-.66.345-1.922.746-2.804.401-.882.862-2.312 1.024-3.178.163-.865.641-2.258 1.063-3.096.422-.837 1.127-2.233 1.567-3.101.44-.869.8-1.824.8-2.123 0-.298.45-1.153 1-1.898.55-.745 1-1.653 1-2.016s.344-.971.764-1.351c.42-.381.875-1.133 1.01-1.673.136-.539.557-1.315.936-1.724.38-.409 1.14-1.518 1.69-2.465 1.153-1.984 7.544-9.904 9.661-11.972 3.874-3.784 8.704-7.838 11.339-9.516 1.1-.701 2.352-1.546 2.781-1.878.43-.333.987-.605 1.238-.605.252 0 .774-.35 1.16-.777.387-.428 1.223-.892 1.858-1.031.635-.139 1.249-.407 1.365-.595.263-.426 4.969-2.796 5.562-2.801.24-.002 1.336-.446 2.436-.987 1.1-.541 2.325-.99 2.722-.996.397-.007 1.477-.351 2.4-.765.923-.413 2.758-.881 4.078-1.039 1.32-.158 3.03-.553 3.8-.877 4.361-1.84 31.306-1.835 35.711.005.752.314 2.339.697 3.528.851 1.189.154 2.842.624 3.673 1.046.832.421 1.919.766 2.416.766.496 0 1.609.36 2.472.8.863.44 1.742.8 1.953.8.211 0 1.478.518 2.815 1.15 1.338.633 2.702 1.267 3.032 1.408.33.142 1.32.698 2.2 1.236.88.538 2.14 1.258 2.8 1.601.66.342 2.01 1.249 3 2.014.99.765 2.07 1.51 2.4 1.655.866.38 4.615 3.53 7.4 6.217 2.154 2.079 2.451 2.247 2.9 1.641.395-.533.5-14.233.5-65.332 0-35.561.12-64.777.267-64.923.565-.565 76.803-.306 77.275.263M110 217.052c-.33.121-1.167.474-1.86.784-.694.31-1.595.564-2.004.564-.408 0-1.588.45-2.621 1s-2.074 1-2.313 1c-.239 0-.922.332-1.518.737-.596.406-1.894 1.255-2.884 1.887-.99.632-2.082 1.425-2.427 1.762a71.227 71.227 0 0 1-2 1.827c-1.51 1.335-4.918 5.303-6.173 7.189-1.805 2.712-4.6 9.122-4.6 10.549 0 .58-.186 1.683-.413 2.452-.829 2.807-1.204 7.402-.803 9.828.904 5.462 1.624 8.611 2.163 9.463.316.498.694 1.479.839 2.178.146.7.512 1.478.814 1.728.302.25.66.964.797 1.586.137.622.598 1.448 1.026 1.835.427.386.777.865.777 1.062 0 1.778 9.31 10.389 13.051 12.073.688.309 1.374.761 1.524 1.003.15.243.655.441 1.122.441.468 0 1.582.354 2.477.786 5.048 2.44 14.977 3.333 19.74 1.775.943-.309 2.203-.567 2.8-.574.597-.006 1.986-.455 3.086-.996 1.1-.541 2.293-.985 2.651-.987.358-.002.869-.267 1.136-.589.267-.321.848-.699 1.29-.84 3.333-1.057 11.902-9.105 14.03-13.175 1.951-3.731 3.493-7.043 3.493-7.502 0-.289.378-1.599.839-2.912 1.125-3.199 1.233-14.886.164-17.786-.365-.99-.853-2.61-1.085-3.6-.232-.99-.759-2.229-1.17-2.754-.411-.525-.748-1.207-.748-1.516 0-.309-.336-1.05-.746-1.646-.41-.596-1.395-2.097-2.188-3.334-2.311-3.606-8.397-9.266-11.166-10.384-.605-.244-1.1-.593-1.1-.774 0-.182-.675-.547-1.5-.812-.825-.264-1.77-.708-2.1-.986-.33-.277-1.578-.709-2.773-.96s-2.437-.677-2.76-.945c-.606-.504-15.622-.892-16.867-.437m13 .551c4.587 1.055 6.959 1.738 8.444 2.431.904.421 1.856.766 2.116.766s.96.332 1.556.737c.596.406 1.894 1.249 2.884 1.875 2.078 1.312 9.2 8.149 9.2 8.831 0 .253.285.695.633.984.729.606 2.123 3.139 3.505 6.373.141.33.424.87.628 1.2.454.735 1.587 5.351 2.111 8.6.452 2.806.122 10.878-.474 11.596-.225.272-.596 1.501-.823 2.731-.412 2.224-1.936 5.815-3.767 8.873-.527.88-1.247 2.099-1.6 2.708-.646 1.115-5.713 6.277-7.469 7.608-1.858 1.409-4.552 3.07-4.99 3.077-.245.004-.875.344-1.4.755-.525.411-1.581.885-2.348 1.052-.767.168-1.757.534-2.2.813-2.359 1.487-13.761 1.939-19.57.775-13.085-2.622-25.55-15.709-27.42-28.788-.88-6.155-.28-15.303 1.209-18.426.426-.895.775-1.814.775-2.044 0-.581 1.996-4.405 3.304-6.33 2.059-3.03 2.503-3.568 4.696-5.7 2.884-2.802 3.24-3.106 4.269-3.642.478-.249 1.108-.681 1.4-.96.292-.279.981-.736 1.531-1.015a80.44 80.44 0 0 0 2-1.058c1.9-1.045 5.007-2.221 6.984-2.642 1.091-.233 2.173-.581 2.405-.774.876-.727 9.753-1.018 12.411-.406"/><path fill="#d1d4d4" d="M173.027 33.888c-.865.093-1.94.426-2.389.741-.449.314-1.19.571-1.647.571-.457 0-1.05.219-1.317.486-.268.268-1.249.853-2.18 1.3-1.221.587-1.731 1.093-1.828 1.814-.074.55-.548 1.45-1.053 2-.563.612-1.03 1.776-1.204 3-.156 1.1-.492 2.253-.746 2.561-.343.416-.515 14.18-.663 53.074l-.2 52.513-1.175 1.226c-1.448 1.512-4.181 1.712-5.825.426-.55-.43-1.291-.786-1.646-.791-.355-.005-1.104-.369-1.663-.809-.56-.44-1.129-.8-1.265-.8-.498 0-6.198-2.83-6.418-3.187-.125-.202-1.077-.488-2.117-.637-1.04-.149-2.431-.594-3.091-.99-.66-.395-1.92-.844-2.8-.997-.88-.153-1.981-.517-2.446-.808-.466-.291-1.996-.651-3.4-.8-1.405-.149-2.934-.508-3.398-.798-2.693-1.684-32.966-1.709-35.547-.029-.445.289-2.033.623-3.528.741-1.547.123-3.013.472-3.4.81-.375.326-1.401.718-2.281.87-.88.152-2.281.625-3.112 1.051-.832.426-1.873.774-2.313.774-.763 0-2.689.755-3.975 1.559-.33.206-2.742 1.409-5.361 2.674-2.618 1.264-5.318 2.776-6 3.36-.681.584-1.779 1.278-2.439 1.543-.66.264-2.293 1.535-3.629 2.823-1.336 1.288-2.866 2.48-3.4 2.648-1.226.387-8.771 7.955-8.771 8.798 0 .345-1.373 2.015-3.05 3.711-1.869 1.889-3.402 3.865-3.958 5.1-.499 1.109-1.197 2.256-1.55 2.549-.353.293-.642.838-.642 1.211 0 .373-.633 1.386-1.407 2.251s-1.585 2.227-1.803 3.026c-.218.8-.653 1.667-.967 1.928-.314.261-.685.989-.823 1.619-.138.63-.5 1.351-.804 1.603-.304.252-.771 1.48-1.039 2.728-.268 1.248-.735 2.561-1.038 2.918-.303.357-.692 1.542-.865 2.632-.172 1.09-.615 2.413-.983 2.94-.369.526-.671 1.597-.671 2.379s-.247 1.777-.548 2.211c-.693.997-1.452 4.509-1.452 6.72 0 .93-.25 2.048-.556 2.485-.319.455-.74 2.812-.989 5.535-.238 2.607-.636 4.985-.883 5.282-1.301 1.569-1.51 36.781-.229 38.736.329.502.754 3.123 1.042 6.423.298 3.422.704 5.886 1.051 6.38.31.443.564 1.567.564 2.497 0 2.211.759 5.723 1.452 6.72.301.434.549 1.424.551 2.2.001.776.36 1.951.797 2.611.437.66.796 1.657.797 2.215.002.559.342 1.681.757 2.494.414.813.873 2.278 1.02 3.256.147.978.593 2.196.991 2.707.399.51.864 1.378 1.034 1.928.17.55.555 1.355.855 1.789.3.434.546 1.085.546 1.446s.335 1.086.745 1.611c.41.525.884 1.404 1.055 1.954.171.55.645 1.429 1.055 1.954.41.525.745 1.276.745 1.669 0 .394.425 1.224.945 1.846.52.622 1.082 1.581 1.249 2.131.167.55.886 1.72 1.598 2.6.711.88 1.435 2.05 1.609 2.599.174.55 1.055 1.773 1.957 2.719.903.946 1.775 2.222 1.936 2.835.394 1.493 14.123 14.993 16.077 15.809.796.333 2.118 1.241 2.938 2.018.82.777 1.782 1.415 2.137 1.417.355.001 1.075.338 1.6.748.525.41 1.404.883 1.954 1.052.55.17 1.478.644 2.062 1.055.584.412 1.324.748 1.646.748.321 0 1.044.362 1.607.804.562.443 1.892.974 2.954 1.181 1.062.207 2.644.745 3.516 1.195.871.451 2.046.82 2.611.82.564 0 1.414.271 1.887.603.474.332 1.999.717 3.389.856 1.391.139 3.068.543 3.728.897 1.824.979 30.303.969 31.8-.011.623-.408 2.339-.757 4.552-.925 1.954-.149 3.934-.509 4.4-.8.467-.292 1.539-.652 2.383-.8.844-.148 2.194-.607 3-1.019.806-.412 2.185-.877 3.065-1.033.88-.156 2.029-.618 2.554-1.026.525-.408 1.268-.742 1.651-.742s.92-.269 1.193-.598c.274-.329 1.183-.804 2.022-1.055.839-.252 2.204-1.152 3.034-2.002.83-.85 1.815-1.545 2.19-1.545.376 0 2.143-1.26 3.928-2.8 1.785-1.54 3.487-2.8 3.783-2.8.295 0 1.008-.37 1.582-.822 1.731-1.361 4.819-.977 4.995.622.073.66.462 1.56.866 2 .404.44.866 1.699 1.028 2.797.564 3.83 4.851 7.562 9.433 8.211 1.608.228 3.099.59 3.313.804.535.535 55.928.528 56.464-.008.218-.218 1.289-.512 2.38-.653 1.091-.141 2.345-.583 2.787-.982.442-.399 1.508-.961 2.369-1.248 1.176-.391 1.662-.82 1.95-1.721.21-.66.629-1.484.93-1.831.301-.348.548-.89.548-1.206 0-.316.405-1.292.9-2.169L249 347V196.382c0-137.355-.056-150.704-.64-151.6-.351-.54-.772-1.696-.934-2.568-.642-3.454-3.467-6.366-6.646-6.85-.979-.149-2.114-.561-2.522-.917-.711-.62-59.945-1.128-65.231-.559m123.597.725c-.428.323-1.384.587-2.127.587-3.153 0-4.346 2.856-1.397 3.343 1.958.324 67.842.324 69.8 0 3.681-.608 1.323-3.343-2.883-3.343-1.025 0-2.213-.264-2.641-.587-1.168-.884-59.584-.884-60.752 0m-58.033 3.38c2.635.236 4.969.607 5.185.823 1.101 1.101 1.174 11.006 1.164 156.984-.01 141.469-.116 157.109-1.073 158.067-.713.713-72.17.402-72.889-.318-.541-.541-.688-2.003-.874-8.692-.2-7.176-.299-8.065-.921-8.262-.383-.122-.789-.576-.902-1.008-.148-.565-.549-.787-1.421-.787-.802 0-1.426-.302-1.837-.889l-.623-.889v.862c0 .524-.329.966-.838 1.128-.462.147-1.521.969-2.354 1.827-.833.859-1.715 1.561-1.961 1.561s-.447.276-.447.613c0 .336-.315.731-.7.877-.385.146-1.42.945-2.3 1.777-2.528 2.387-4.469 3.933-4.939 3.933-.238 0-.626.36-.861.8-.235.44-.621.8-.856.8-.236 0-.963.45-1.617 1s-1.417 1-1.696 1c-.279 0-.833.36-1.231.8-.398.44-1.139.8-1.646.8-.508 0-1.245.344-1.638.765-.394.42-1.416.895-2.271 1.055-.855.159-1.89.625-2.3 1.035-.41.41-1.185.745-1.722.745-.538 0-1.573.339-2.3.753-.728.415-2.395.871-3.706 1.014-1.311.143-2.671.52-3.022.838-.408.369-2.255.72-5.113.97-2.461.216-4.882.617-5.378.892-1.508.831-18.306.717-21.104-.144-1.21-.372-3.607-.764-5.326-.871-1.752-.109-3.519-.451-4.019-.779-.491-.322-2.121-.776-3.621-1.01-1.501-.234-3.022-.679-3.381-.99-.359-.311-1.35-.671-2.203-.802-.852-.13-1.842-.498-2.2-.817-.357-.319-1.394-.778-2.303-1.02-.91-.242-1.877-.708-2.149-1.037-.273-.328-.761-.597-1.085-.597-.324 0-1.089-.356-1.699-.79-.61-.435-1.583-.97-2.162-1.19-.578-.22-1.052-.585-1.052-.81 0-.226-.196-.41-.435-.41-.587 0-4.037-2.428-4.688-3.3-.287-.385-.704-.7-.925-.7-1.178 0-12.514-11.663-13.237-13.619-.159-.43-.464-.781-.677-.781-.213 0-.791-.72-1.286-1.6-.495-.88-1.046-1.6-1.226-1.6-.179 0-.326-.263-.326-.584 0-.322-.345-.907-.768-1.3-.422-.394-.892-1.213-1.044-1.821-.153-.608-.5-1.238-.772-1.4-.504-.3-1.138-1.362-2.615-4.378-.453-.926-.994-1.789-1.202-1.917-.207-.129-.569-.946-.804-1.817-.234-.871-.592-1.583-.795-1.583-.203 0-.573-.765-.822-1.7-.249-.935-.704-1.982-1.01-2.326-.307-.345-.679-1.245-.825-2-.147-.756-.599-1.803-1.005-2.328-.406-.525-.744-1.425-.751-2-.006-.575-.455-1.946-.996-3.046-.541-1.1-.985-2.547-.987-3.215-.002-.669-.34-1.874-.75-2.679-.41-.805-.872-2.577-1.026-3.938-.154-1.361-.542-2.875-.862-3.364-.322-.491-.693-2.389-.83-4.246-.136-1.847-.515-3.888-.842-4.535-.377-.746-.727-3.308-.957-7-.199-3.203-.478-6.633-.619-7.623-.334-2.351-.364-20.247-.039-23.6.139-1.43.43-4.869.646-7.642.223-2.847.649-5.547.979-6.2.322-.637.696-2.669.832-4.516s.505-3.75.818-4.228c.314-.479.697-1.938.852-3.242.154-1.305.621-3.16 1.037-4.123.417-.963.759-2.223.761-2.8.002-.577.446-1.949.987-3.049.541-1.1.991-2.36.999-2.8.008-.44.373-1.34.81-2 .437-.66.796-1.491.797-1.846.002-.355.336-1.075.742-1.6.406-.525.868-1.48 1.025-2.122.157-.643.634-1.612 1.061-2.154.426-.542.775-1.204.775-1.47s.36-.81.8-1.208c.44-.398.8-.952.8-1.231 0-.279.45-1.042 1-1.696.55-.654 1-1.386 1-1.627 0-.242.36-.664.8-.939.44-.275.8-.682.8-.904 0-.764 2.806-4.457 5.424-7.139.894-.915 1.743-1.979 1.888-2.364.144-.385.539-.7.875-.7.337 0 .617-.225.622-.5.004-.275.652-1.04 1.438-1.7.787-.66 2.209-1.965 3.16-2.9.951-.935 1.86-1.7 2.019-1.7.16 0 .669-.374 1.132-.831 1.429-1.411 3.924-3.169 4.497-3.169.3 0 .545-.189.545-.42 0-.232.675-.701 1.5-1.043.825-.343 1.636-.86 1.802-1.149.167-.289.823-.64 1.459-.779.636-.14 1.473-.604 1.86-1.032.386-.427.99-.781 1.341-.786.351-.005 1.088-.361 1.638-.791.55-.43 1.381-.786 1.846-.791.465-.005 1.306-.37 1.867-.812.562-.442 1.846-.916 2.854-1.055 1.008-.138 1.833-.377 1.833-.532 0-.474 1.968-1.21 3.235-1.21.658 0 1.879-.348 2.713-.774.975-.497 2.791-.867 5.084-1.035 1.963-.144 4.198-.561 4.968-.926 2.081-.988 22.521-.989 25.2-.002.99.365 3.213.779 4.939.921 1.913.156 3.708.561 4.594 1.036.8.429 2.088.781 2.861.781.773.001 1.946.331 2.606.733.66.402 1.897.843 2.75.981.852.138 1.842.512 2.2.831.357.319 1.394.778 2.303 1.02.91.242 1.877.708 2.149 1.037.273.328.799.597 1.169.597.371 0 1.284.45 2.029 1 .745.55 1.563 1 1.817 1 .253 0 .876.36 1.383.8.507.44 1.131.8 1.386.8.255 0 .826.338 1.269.751.444.413 1.198.875 1.676 1.027.478.152.869.44.869.641s.765.753 1.7 1.227c.935.474 1.826 1.058 1.979 1.297.183.286.605.13 1.226-.453.52-.49 1.274-.89 1.675-.89s1.141-.446 1.646-.991l.918-.99.128-59.795c.112-52.505.201-59.869.728-60.393.541-.539 4.948-1.131 11.4-1.532 4.771-.296 57.894.128 61.991.494m47.894 3.282c-.267.267-.485.859-.485 1.316 0 .457-.315 1.276-.7 1.82-.925 1.307-1.11 300.972-.186 302.085.282.341.622 1.537.755 2.659.453 3.826 1.889 3.716 2.632-.202.891-4.699.859-302.902-.033-305.648-.775-2.39-1.194-2.819-1.983-2.03m81.717.025c-1.449 4.182-1.39-2.335-1.396 155.025-.006 160.514-.08 153.524 1.635 155.438.628.702 1.449-.576 1.693-2.635.135-1.137.43-2.252.655-2.477.561-.561.576-299.926.015-300.487-.218-.218-.513-1.289-.655-2.38-.26-1.988-.731-2.984-1.411-2.984-.199 0-.441.225-.536.5M113.776 218.219c-.453.318-1.983.694-3.4.836-1.486.149-3.337.658-4.373 1.202-.988.519-2.25.943-2.804.943-.573 0-1.221.344-1.506.8-.275.44-.849.8-1.276.8-.427 0-1.261.45-1.855 1-.593.55-1.215 1-1.382 1-.296 0-2.231 1.609-4.329 3.6-1.916 1.819-5.138 5.786-5.412 6.664-.149.475-.533 1.082-.854 1.349-.322.267-.585.799-.585 1.182 0 .383-.345 1.136-.767 1.672-.422.537-.895 1.686-1.051 2.554-.156.869-.576 1.913-.933 2.321-1.089 1.245-1.216 16.106-.154 18.155.428.827.903 2.292 1.055 3.257.152.964.631 2.204 1.063 2.754.433.55.787 1.382.787 1.85 0 .467.344 1.064.764 1.327.42.262.885 1.027 1.033 1.699.147.673.613 1.407 1.036 1.633.422.226.767.668.767.983 0 .315.36.765.8 1 .44.235.8.68.8.987 0 .308.351.67.78.807.428.136.89.598 1.026 1.026.137.429.499.78.807.78.307 0 .752.36.987.8.235.44.685.8 1 .8.315 0 .757.345.983.767.226.423.933.883 1.572 1.023.639.141 1.479.605 1.866 1.033.386.427 1.011.777 1.387.777.376 0 1.113.334 1.638.742.525.408 1.674.871 2.554 1.03.88.158 2.05.589 2.6.958 1.72 1.153 16.28 1.222 18.456.088.89-.464 2.404-.951 3.366-1.083.962-.132 2.053-.576 2.425-.987.373-.412.985-.748 1.361-.748s1.142-.36 1.701-.8c.56-.44 1.181-.8 1.381-.8.201 0 1.072-.647 1.937-1.437.865-.791 2.039-1.736 2.609-2.1 1.706-1.091 7.164-8.076 7.164-9.169 0-.255.336-.785.747-1.178.411-.394.865-1.373 1.01-2.176.146-.803.513-1.666.816-1.918.304-.252.678-1.575.831-2.94.153-1.365.574-3.112.937-3.882.806-1.712.908-8.519.148-9.875-.269-.481-.684-2.271-.922-3.977-.265-1.911-.726-3.479-1.199-4.08-.422-.537-.768-1.391-.768-1.898 0-.508-.195-1.043-.433-1.19-.238-.148-.754-1.016-1.145-1.93-.392-.914-1.007-1.906-1.367-2.205-.36-.298-.655-.838-.655-1.198s-.36-.879-.8-1.154c-.44-.275-.8-.768-.8-1.096 0-.329-.186-.597-.413-.597-.538 0-3.187-2.649-3.187-3.187 0-.227-.268-.413-.597-.413-.328 0-.821-.36-1.096-.8-.275-.44-.785-.8-1.133-.8-.349 0-1.057-.45-1.574-1-.517-.55-1.262-1-1.656-1-.394 0-.909-.36-1.144-.8-.269-.503-.838-.8-1.529-.8-.606 0-1.815-.365-2.686-.812-.872-.447-2.764-.981-4.206-1.187-1.441-.207-3.28-.651-4.087-.988-1.899-.794-6.98-.79-8.116.006m10.764 5.105c.568.372 1.528.676 2.135.676 4.044 0 17.325 9.796 17.325 12.778 0 .426.165.877.367 1.002.696.43 3.233 6.03 3.233 7.138 0 .61.315 1.592.7 2.181 1.13 1.73.955 12.482-.24 14.695-.473.877-.861 2.137-.863 2.8-.001.663-.36 1.746-.797 2.406-.437.66-.796 1.478-.797 1.819-.002.34-.709 1.308-1.573 2.151-.863.843-1.686 1.999-1.829 2.569-.298 1.187-2.541 3.65-3.329 3.657-.291.002-1.371.698-2.4 1.547-1.674 1.38-6.604 4.057-7.472 4.057-.185 0-.621.242-.969.537-2.14 1.819-17.059 1.84-19.829.028-.441-.289-1.612-.651-2.602-.805-.99-.154-2.309-.703-2.931-1.22-.622-.517-1.432-.945-1.8-.95-.852-.013-9.669-8.856-9.669-9.698 0-.347-.425-1.139-.944-1.761-.552-.662-1.066-1.961-1.237-3.131-.162-1.1-.502-2.253-.756-2.561-2.473-3-1.848-16.361 1.028-21.994.83-1.626 1.511-3.156 1.513-3.4.009-1.078 10.461-11.166 12.08-11.66.504-.154 1.213-.54 1.577-.859.364-.319 2.254-.935 4.2-1.37 1.946-.435 4.079-.955 4.739-1.156 2.062-.628 9.949-.257 11.14.524m171.13 130.679c-6.143.372-6.238.414-4.608 2.044 1.784 1.784 7.54 2.046 41.325 1.885 27.705-.131 27.82-.135 29.613-1.011.99-.484 2.295-1.064 2.9-1.29 1.579-.59 1.358-1.108-.6-1.404-2.605-.395-62.582-.59-68.63-.224"/></g></svg>