<svg xmlns="http://www.w3.org/2000/svg" role="img" viewBox="-9.07 -0.33 211.90 198.40"><defs><filter id="Blur7" width="120" height="120" x="-10" y="-10"><feGaussianBlur stdDeviation="7"/></filter><style>.cls-2{fill:#fff}.cls-3{fill:#fc6621}</style></defs><g filter="url(#Blur7)" opacity=".62"><path d="M144.514 19.365h38.929v157.463h-38.929z" class="cls-2"/><path d="M52.973 179.12a46.381 46.381 0 0 1-9.741-.984 36.27 36.27 0 0 1-8.518-2.952 33.752 33.752 0 0 1-7.296-4.917 38.322 38.322 0 0 1-6.074-6.888 58.806 58.806 0 0 1-8.194-17.436 75.959 75.959 0 0 1-2.732-20.828 74.82 74.82 0 0 1 3.018-22.231 43.409 43.409 0 0 1 9.052-16.317 40 40 0 0 1 13.7-10.018 42.256 42.256 0 0 1 16.972-3.34 42.939 42.939 0 0 1 16.458 3.058 37.6 37.6 0 0 1 13.119 9.159V19.367h39.215v157.462H85.604v-14.98c-5.065 6.332-9.752 10.665-13.93 12.881a37.826 37.826 0 0 1-8.874 3.292 43.084 43.084 0 0 1-9.827 1.098zm5.906-70.708a18.492 18.492 0 1 0 7.22 1.455 18.492 18.492 0 0 0-7.22-1.455z" class="cls-3"/><path fill="#999" d="M144.514 19.365h38.929v157.463h-38.929zM52.973 179.12a46.381 46.381 0 0 1-9.741-.984 36.27 36.27 0 0 1-8.518-2.952 33.752 33.752 0 0 1-7.296-4.917 38.322 38.322 0 0 1-6.074-6.888 58.806 58.806 0 0 1-8.194-17.436 75.959 75.959 0 0 1-2.732-20.828 74.82 74.82 0 0 1 3.018-22.231 43.409 43.409 0 0 1 9.052-16.317 40 40 0 0 1 13.7-10.018 42.256 42.256 0 0 1 16.972-3.34 42.939 42.939 0 0 1 16.458 3.058 37.6 37.6 0 0 1 13.119 9.159V19.367h39.215v157.462H85.604v-14.98c-5.065 6.332-9.752 10.665-13.93 12.881a37.826 37.826 0 0 1-8.874 3.292 43.084 43.084 0 0 1-9.827 1.098zm5.906-70.708a18.492 18.492 0 1 0 7.22 1.455 18.492 18.492 0 0 0-7.22-1.455z"/></g><path d="M141.993 20.512h38.929v157.463h-38.93z" class="cls-2"/><path d="M52.973 179.12a46.38 46.38 0 0 1-9.741-.984 36.27 36.27 0 0 1-8.518-2.952 33.752 33.752 0 0 1-7.296-4.917 38.322 38.322 0 0 1-6.074-6.888 58.806 58.806 0 0 1-8.194-17.436 75.959 75.959 0 0 1-2.732-20.828 74.82 74.82 0 0 1 3.018-22.231 43.409 43.409 0 0 1 9.052-16.317 40 40 0 0 1 13.7-10.018 42.256 42.256 0 0 1 16.972-3.34 42.94 42.94 0 0 1 16.458 3.058 37.6 37.6 0 0 1 13.119 9.159V19.367h39.215v157.462H85.604v-14.98c-5.065 6.332-9.752 10.665-13.93 12.881a37.826 37.826 0 0 1-8.874 3.292 43.084 43.084 0 0 1-9.827 1.098zm5.906-70.708a18.492 18.492 0 1 0 7.22 1.455 18.492 18.492 0 0 0-7.22-1.455z" class="cls-3"/></svg>