<svg xmlns="http://www.w3.org/2000/svg" role="img" viewBox="4.58 13.58 123.08 171.21"><title>Directlyrics logo</title><defs><style>.a{fill:#fff}</style><filter id="a" width="56.929" height="175.463" x="135.518" y="10.367" filterUnits="userSpaceOnUse"><feOffset/><feGaussianBlur result="b" stdDeviation="3"/><feFlood flood-opacity=".435"/><feComposite in2="b" operator="in"/><feComposite in="SourceGraphic"/></filter><filter id="c" width="129.539" height="177.753" x="1.418" y="10.367" filterUnits="userSpaceOnUse"><feOffset/><feGaussianBlur result="d" stdDeviation="3"/><feFlood flood-opacity=".506"/><feComposite in2="d" operator="in"/><feComposite in="SourceGraphic"/></filter></defs><path d="M0 0h200v200H0z" class="a"/><g filter="url(#a)" transform="translate(-.002 -.003)"><path d="M144.516 19.368h38.929v157.463h-38.929z" class="a"/></g><g filter="url(#c)" transform="translate(-.002 -.003)"><path fill="#fc6621" d="M52.975 179.123a46.38 46.38 0 0 1-9.741-.984 36.269 36.269 0 0 1-8.518-2.952 33.752 33.752 0 0 1-7.296-4.917 38.322 38.322 0 0 1-6.074-6.888 58.806 58.806 0 0 1-8.194-17.436 75.959 75.959 0 0 1-2.732-20.828 74.819 74.819 0 0 1 3.018-22.231A43.409 43.409 0 0 1 22.49 86.57a40 40 0 0 1 13.7-10.018 42.256 42.256 0 0 1 16.972-3.34A42.939 42.939 0 0 1 69.62 76.27a37.6 37.6 0 0 1 13.119 9.159V19.37h39.215v157.462H85.606v-14.98c-5.065 6.332-9.752 10.665-13.93 12.881a37.826 37.826 0 0 1-8.874 3.292 43.083 43.083 0 0 1-9.827 1.098zm5.906-70.708a18.492 18.492 0 1 0 7.22 1.455 18.435 18.435 0 0 0-7.22-1.455z"/></g></svg>