<svg xmlns="http://www.w3.org/2000/svg" role="img" viewBox="-4.45 -5.95 621.40 173.40"><path fill="#db1d56" d="M82.217 6.425a74.568 74.568 0 0 0-60.694 117.976l17.63-17.704a50.208 50.208 0 1 1 17.608 17.529l-17.632 17.706A74.61 74.61 0 1 0 82.217 6.425z"/><circle cx="82.216" cy="81.055" r="26.193" fill="#ee1555" transform="rotate(-45 82.216 81.055)"/><path stroke="#000" stroke-miterlimit="10" stroke-width="3.567" d="M233.67 31.748h-41.72v96.716h41.72c29.53 0 43.887-20.86 43.887-48.9 0-32.103-18.827-47.816-43.887-47.816zm-1.49 78.836h-18.964V49.629h15.172c21.13 0 27.903 12.462 27.903 31.967 0 21.402-11.784 28.988-24.111 28.988zm104.578-15.442c0 14.222-4.47 20.047-14.9 20.047-8.94 0-12.325-5.689-12.325-17.202V58.433h-19.236v43.076c0 17.338 5.148 28.852 25.602 28.852a24.984 24.984 0 0 0 21.402-11.65h.406v9.753h18.286V58.433h-19.235zm66.24-38.605c-21.266 0-35.76 15.984-35.76 36.978 0 21.674 13.682 36.846 35.76 36.846 15.85 0 27.363-7.044 32.782-23.571h-16.933c-1.219 4.335-7.45 9.077-15.171 9.077-10.7 0-16.66-5.555-17.202-17.745h50.524c1.355-21.538-10.159-41.585-34-41.585zM386.474 85.93c.27-5.419 3.792-14.9 15.983-14.9 9.346 0 13.546 5.147 15.307 14.9zm105.66-54.182h-41.72v96.716h41.72c29.53 0 43.888-20.86 43.888-48.9 0-32.103-18.83-47.816-43.888-47.816zm-1.491 78.836H471.68V49.629h15.171c21.13 0 27.903 12.462 27.903 31.967 0 21.402-11.784 28.988-24.111 28.988zm58.658-52.151h19.235v70.031h-19.235zm0-26.685h19.235v15.848h-19.235zm34.949 0h19.235v96.715H584.25z"/></svg>