<svg xmlns="http://www.w3.org/2000/svg" role="img" viewBox="25.56 52.31 347.88 99.38"><title>Duedil logo</title><g fill-rule="evenodd"><path fill="#1c1c1c" d="M68.941 60.601c-2.621.282-3.577.464-4.118.784-.388.228-1.2.519-1.805.646-.606.127-1.372.393-1.703.592-.332.199-1.176.474-1.877.611-.701.136-1.427.412-1.614.612-.186.2-.668.502-1.071.67-.402.168-1.056.526-1.453.795-.397.27-.991.549-1.319.622-.329.072-.69.304-.804.516-.113.212-.317.385-.453.385s-.685.361-1.219.803c-.535.441-1.049.803-1.144.803-.094 0-.449.248-.788.551a60.09 60.09 0 0 1-1.339 1.155c-1.471 1.223-5.284 5.136-5.284 5.421 0 .162-.18.408-.401.546-.221.138-.401.356-.401.485 0 .13-.273.464-.605.744-.333.28-.79.941-1.016 1.469-.227.528-.478 1.007-.559 1.065-.081.057-.396.533-.699 1.057-.303.525-.63.954-.727.954-.097 0-.286.338-.42.752a12.846 12.846 0 0 1-.718 1.654c-.261.496-.475 1.052-.475 1.234 0 .183-.276.857-.613 1.498-.337.641-.709 1.621-.827 2.178-.118.557-.379 1.337-.579 1.732-.868 1.718-1.485 10.995-1.012 15.237.117 1.048.316 2.9.441 4.114.142 1.371.373 2.493.61 2.96.21.413.439 1.165.508 1.671.069.505.333 1.223.585 1.595.252.372.612 1.223.8 1.892.187.668.411 1.215.497 1.215.085 0 .339.543.564 1.208.224.665.599 1.455.832 1.756.872 1.125 1.418 1.975 1.738 2.706.492 1.121.476 1.132 5.761-4.144 5.112-5.103 5.438-5.514 4.757-5.991-.224-.156-.55-.628-.725-1.048-.176-.42-.491-.999-.701-1.288-.211-.29-.483-1.191-.609-2.013-.125-.819-.406-1.833-.625-2.254-.918-1.762-.905-11.167.018-12.977.231-.453.514-1.482.628-2.286.133-.935.379-1.717.683-2.167.261-.388.54-.93.619-1.206.079-.276.309-.684.512-.906.203-.222.515-.754.694-1.182.291-.696.915-1.592 2.507-3.598 1.265-1.593 4.398-4.422 5.566-5.026.359-.186.653-.43.653-.544 0-.113.488-.422 1.085-.686.597-.264 1.141-.57 1.208-.679.067-.109.636-.347 1.264-.53.627-.182 1.235-.459 1.351-.615.115-.156.797-.456 1.514-.667a39.92 39.92 0 0 0 2.208-.721c1.98-.739 12.091-.609 13.862.178.379.168 1.203.447 1.831.618.628.172 1.27.441 1.427.598.156.157.793.433 1.413.613.621.18 1.182.414 1.247.519.065.106.541.419 1.057.697 1.181.636 2.211 1.373 2.804 2.007.253.27.577.491.721.491.377 0 3.992 3.712 4.279 4.393.132.316.374.625.536.687.163.063.448.435.635.828.186.393.418.715.514.715.095 0 .424.464.729 1.03.306.567.67 1.237.809 1.489.14.252.333.877.428 1.39.096.512.359 1.13.585 1.371.226.242.552 1.053.725 1.803.173.749.472 1.652.665 2.007.531.977.532 11.026.001 11.838-.194.296-.492 1.15-.662 1.898-.169.747-.477 1.594-.685 1.881-.207.288-.477.897-.6 1.353-.273 1.015-1.593 3.667-1.965 3.95-.15.113-.47.528-.713.922-1.1 1.786-1.398 2.174-1.76 2.289-.213.067-.387.223-.387.347 0 .335-2.947 3.16-3.297 3.16-.167 0-.503.27-.747.601-.244.33-.609.652-.81.716-.201.064-.617.327-.923.584-.306.258-.934.57-1.397.695-.462.124-.911.348-.998.498-.366.633-3.536 1.894-5.37 2.137-.991.131-2.013.377-2.271.546-.993.65-8.735.644-9.989-.009-.337-.175-1.376-.422-2.308-.547-1.085-.146-2.133-.44-2.914-.818-.671-.324-1.299-.589-1.396-.589-.096 0-.461-.277-.811-.616-.754-.732-1.968-.694-2.21.069-.073.228-.522.783-1 1.233-1.393 1.315-1.452 1.373-2.485 2.425-1.212 1.234-1.417 1.436-1.891 1.866a8.464 8.464 0 0 0-.602.606c-.929 1.087-1.929 2.015-2.297 2.132a.87.87 0 0 0-.533.577c-.252 1.16-.228 1.222.571 1.489.427.143 1.044.484 1.37.759.326.274.726.498.888.498.162 0 .494.208.737.463.243.254.849.579 1.345.722.497.142 1.175.421 1.506.618.331.198 1.133.511 1.782.697.649.185 1.416.503 1.706.707.289.204 1.15.475 1.913.601.763.126 1.621.35 1.906.498 2.191 1.131 17.252 1.155 19.452.031.295-.151 1.189-.383 1.986-.517.798-.133 1.656-.402 1.907-.598.251-.197.999-.512 1.661-.701.662-.189 1.404-.473 1.649-.63.244-.157.876-.432 1.404-.611.529-.179 1.209-.534 1.512-.789.303-.254.754-.525 1.003-.6.249-.076.636-.305.86-.509.224-.204.766-.498 1.204-.654.439-.155 1.249-.704 1.801-1.22.552-.517 1.274-1.08 1.605-1.253.332-.172 1.099-.833 1.706-1.469.608-.635 1.25-1.235 1.428-1.332.178-.097.705-.629 1.171-1.181.467-.552 1.197-1.41 1.625-1.906 1.621-1.886 1.797-2.114 1.797-2.325 0-.12.271-.46.603-.755.331-.295.602-.662.602-.817 0-.154.316-.658.702-1.121.387-.462.703-1 .703-1.195 0-.195.21-.665.467-1.044a7.12 7.12 0 0 0 .707-1.374c.131-.377.41-.869.62-1.095.209-.225.528-.983.709-1.683.18-.701.497-1.704.704-2.23.208-.527.482-1.534.609-2.239.127-.705.364-1.431.528-1.613 1.094-1.219 1.076-17.808-.021-19.031-.152-.169-.38-.886-.508-1.593a16.205 16.205 0 0 0-.711-2.509 28.071 28.071 0 0 1-.794-2.377c-.173-.635-.393-1.154-.488-1.154-.095 0-.326-.384-.512-.853s-.504-1.033-.706-1.254c-.202-.221-.47-.787-.595-1.257-.125-.471-.494-1.16-.821-1.532-.326-.372-.593-.763-.593-.869 0-.106-.183-.41-.406-.676-.93-1.107-1.819-2.33-2.138-2.942-.187-.358-.44-.652-.562-.652-.229 0-1.359-1.294-1.972-2.258-.193-.303-.461-.553-.597-.554-.306-.003-1.952-1.513-1.952-1.791 0-.112-.293-.355-.652-.539-.662-.341-2.161-1.473-2.819-2.128-.198-.197-.672-.489-1.053-.648-.382-.16-.694-.373-.694-.474 0-.101-.429-.343-.954-.539-.524-.195-1.134-.513-1.354-.706-.221-.194-.597-.411-.836-.483-.238-.073-.755-.387-1.147-.698-.458-.364-1.164-.655-1.974-.813-.694-.135-1.532-.409-1.864-.609-.331-.2-1.144-.47-1.806-.599-.662-.13-1.469-.424-1.792-.655-1.32-.942-11.475-1.393-17.275-.767m67.236 14.232l-.602.133-.048 26.591c-.03 16.537.025 26.705.143 26.893.561.885 31.531.432 33.321-.487.497-.255 1.411-.61 2.031-.789.621-.179 1.233-.452 1.361-.607.128-.154.66-.388 1.18-.519.575-.145 1.196-.489 1.58-.875.954-.96 1.709-1.54 2.004-1.54.146 0 .417-.233.604-.518.187-.285.78-.975 1.319-1.534.539-.56 1.108-1.264 1.264-1.566.156-.301.405-.595.553-.652.148-.057.391-.473.54-.924.149-.452.434-.969.633-1.149.199-.18.511-.775.692-1.322.182-.547.45-1.04.595-1.096.366-.14.446-.406.811-2.703.176-1.106.447-2.316.603-2.689.875-2.094.872-13.034-.004-14.728-.153-.295-.383-1.302-.512-2.236-.339-2.452-.367-2.553-.8-2.957-.217-.202-.52-.725-.675-1.164a8.254 8.254 0 0 0-.799-1.56c-.285-.42-.581-.96-.656-1.2a1.584 1.584 0 0 0-.511-.699c-.205-.144-.372-.391-.372-.547 0-.157-.791-1.053-1.757-1.993-2.451-2.383-2.499-2.426-3.06-2.716-.276-.143-.573-.38-.659-.526-.086-.145-.573-.449-1.083-.674-.509-.226-1.027-.548-1.15-.716-.123-.168-.809-.443-1.525-.61-.716-.167-1.51-.44-1.764-.607-.255-.166-1.339-.475-2.41-.686-1.07-.211-2.353-.544-2.849-.741-.936-.371-26.44-.632-27.998-.287m144.455-.045c-.293.126-.371 53.362-.078 53.823.477.752 31.664.205 32.774-.575.294-.206.971-.482 1.506-.614.534-.131 1.458-.496 2.053-.81.595-.314 1.25-.571 1.455-.571.206 0 .572-.203.814-.451a7.17 7.17 0 0 1 .954-.795c1.035-.694 2.234-1.831 4.371-4.147a7.456 7.456 0 0 0 1.055-1.568c.224-.476.487-.866.585-.866.098 0 .229-.206.292-.458.064-.251.38-.754.705-1.117.428-.48.657-1.026.837-2.001.137-.738.417-1.677.622-2.086.206-.41.473-1.448.593-2.308.12-.86.411-2.106.648-2.768.581-1.628.655-9.046.105-10.537-.33-.893-.627-2.155-.874-3.713-.07-.441-.257-1.004-.415-1.25-.159-.246-.417-1.059-.575-1.806-.337-1.605-.497-2.062-.72-2.062-.091 0-.4-.496-.687-1.103-.287-.608-.596-1.104-.687-1.104-.09 0-.327-.362-.526-.804-.356-.788-.988-1.57-2.469-3.05-1.455-1.455-2.258-2.167-2.443-2.167-.1 0-.599-.362-1.109-.803-.51-.442-1.045-.803-1.189-.803-.144 0-.491-.18-.771-.401-.28-.22-1.067-.543-1.748-.717-.681-.175-1.529-.489-1.884-.698-.355-.21-1.274-.471-2.042-.582-.769-.11-1.94-.405-2.602-.655-1.161-.439-27.603-.84-28.55-.433m55.244.096c-.486.235-.515 7.548-.033 8.28.383.583 10.605.589 11.169.007.328-.338.378-.819.438-4.249l.067-3.868-.703-.195c-.911-.253-10.411-.232-10.938.025m17.87-.034c-.235.379-.117 53.448.119 53.732.362.437 11.525.39 11.693-.048.321-.836.129-53.626-.196-53.751-.528-.203-11.489-.14-11.616.067M162.644 86.49c.869.356 1.944.911 2.388 1.234.445.322.91.585 1.035.585.124 0 .463.248.754.552.63.659.862.894 1.719 1.742.359.355.652.72.652.812 0 .092.231.47.513.84.282.37.652 1.146.822 1.725.171.579.442 1.202.604 1.384 1.142 1.284 1.187 11.466.058 13.323-.203.335-.462 1.018-.574 1.519-.265 1.181-1.386 3.065-2.471 4.15-1.764 1.765-1.971 1.946-2.611 2.288-1.467.783-1.982.968-2.707.968-.417.001-1.572.132-2.565.291-2.755.442-9.453.466-10.283.037-1.104-.57-1.071-.042-1.012-16.197l.056-15.074.591-.509.591-.508 5.43.095 5.43.095 1.58.648m144.531-.004c3.449 1.399 6.22 3.762 7.221 6.158.178.428.496.959.704 1.182.209.222.478.841.598 1.376.12.534.366 1.302.547 1.705.496 1.108.628 7.93.186 9.581-.827 3.078-1.097 3.853-1.595 4.579-.295.429-.536.937-.536 1.129 0 .192-.142.467-.316.611-.173.144-.487.598-.696 1.008-.209.41-.699.943-1.089 1.184s-.709.508-.709.594c0 .816-2.59 1.797-5.854 2.217-4.37.562-10.965.53-11.55-.055-.42-.421-.672-30.062-.264-31.134.328-.865.774-.924 6.429-.853l5.318.066 1.606.652M72.052 88.714c-.962.168-3.21 1.156-3.972 1.747-1.23.954-3.113 2.664-3.402 3.09-.179.263-.579.775-.891 1.137-.311.363-.566.869-.566 1.125 0 .255-.228.893-.506 1.417-1.054 1.982-1.17 7.42-.199 9.339.253.499.575 1.314.716 1.81.297 1.043.369 1.136 2.632 3.412 2.215 2.228 2.919 2.707 4.412 3.001.681.134 1.433.371 1.672.527 1.199.786 6.004.768 7.218-.026.227-.149.819-.335 1.316-.413 1.231-.195 2.015-.547 2.594-1.165.267-.285.574-.519.681-.519.189 0 .433-.205 1.606-1.353.999-.977 1.294-1.347 1.427-1.79.071-.239.397-.771.724-1.182.327-.411.594-.853.594-.982 0-.128.249-.726.552-1.327.76-1.505.858-7.766.137-8.753-.228-.313-.536-1.006-.683-1.54-.148-.535-.394-1.02-.547-1.079-.153-.058-.458-.459-.678-.89-.397-.778-2.692-3.181-3.038-3.181-.099 0-.424-.255-.721-.568-.298-.312-.947-.682-1.444-.822-.497-.14-1.04-.376-1.207-.524-.679-.603-6.003-.913-8.427-.491m180.231.423c-.447.178-3.94.774-4.558.777-.134 0-.405.17-.602.378-.198.207-.873.524-1.501.704-.628.18-1.28.466-1.448.634-.169.168-.603.434-.966.591-.362.156-1.318.875-2.124 1.598-.805.723-1.549 1.314-1.652 1.314-.103 0-.408.429-.676.953-.268.525-.676 1.067-.906 1.206-.231.139-.419.392-.419.561 0 .17-.217.526-.482.791-.291.291-.616 1.013-.818 1.82-.185.736-.514 1.68-.732 2.099-.219.418-.493 1.379-.61 2.134-.117.756-.342 1.626-.5 1.933-.4.779-.573 4.225-.269 5.362.133.497.445 1.851.693 3.011.248 1.159.636 2.423.863 2.809.227.387.475 1.094.552 1.572.084.524.37 1.132.721 1.532.32.364.582.747.582.85 0 .322 3.522 3.959 4.135 4.271.32.162.837.501 1.149.752.312.251.693.456.846.456.153 0 .582.267.953.592.49.431 1.01.647 1.903.79.675.109 1.434.308 1.686.443 2.068 1.107 11.117 1.177 14.179.109.737-.257 1.702-.534 2.143-.616.839-.156 2.098-.847 3.178-1.746.35-.29.975-.67 1.388-.842.414-.173.753-.406.753-.517 0-.111.515-.725 1.145-1.365 1.352-1.374 2.407-2.866 2.794-3.951a9.129 9.129 0 0 1 .685-1.439c.592-.957.471-.983-4.925-1.056-5.684-.077-6.128.002-6.745 1.21-.556 1.091-1.527 1.983-3.16 2.906l-1.334.754-2.843.006c-2.576.005-2.897-.034-3.412-.415a6.31 6.31 0 0 0-1.326-.694c-.417-.15-.893-.48-1.058-.733-.166-.253-.433-.46-.594-.46-.16 0-.449-.249-.642-.552-.194-.304-.465-.624-.604-.711-.139-.087-.402-.672-.584-1.299-.182-.628-.516-1.39-.741-1.695-.308-.417-.413-.877-.424-1.854-.025-2.21-1.522-2.002 15.295-2.118l14.595-.1-.029-1.716c-.016-.993-.168-2.126-.36-2.693-.183-.538-.418-1.651-.522-2.473-.104-.822-.363-1.777-.576-2.123-.213-.346-.536-1.211-.72-1.922-.183-.71-.5-1.505-.705-1.765a3.148 3.148 0 0 1-.504-1.073c-.072-.329-.354-.745-.626-.923-.272-.178-.639-.604-.815-.947-.515-1-3.521-3.731-4.42-4.017-.226-.071-.61-.303-.855-.515-.244-.213-.91-.54-1.479-.729-.568-.188-1.26-.505-1.535-.702-.287-.205-1.192-.452-2.108-.574-.883-.118-2.049-.348-2.591-.511-1.127-.341-4.945-.389-5.738-.072m-61.443.995c-.449.278-.116 30.799.343 31.427.229.313.576 1.065.772 1.672.196.607.528 1.266.738 1.463.211.198.383.467.383.598 0 .257 1.456 1.659 2.059 1.981.203.109.449.41.548.67.143.375.422.523 1.345.712.641.131 1.301.351 1.467.49 1.204 1.007 9.034 1.069 11.209.089a19.036 19.036 0 0 1 1.876-.707c.518-.158 1.241-.564 1.605-.902 1.241-1.15 1.466-1.335 1.908-1.561.242-.125.559-.474.704-.777.204-.428.425-.564.994-.612 1.076-.089 1.377.433 1.235 2.144-.172 2.065-.372 1.994 5.832 2.049 4.55.04 5.215.007 5.37-.271.1-.178.155-8.65.126-19.428l-.051-19.112-5.921.013-5.921.013-.127.568c-.069.313-.137 5.79-.15 12.172-.023 11.308-.068 12.196-.632 12.581-.081.055-.297.543-.481 1.085-.305.904-1.65 2.528-2.093 2.528-.094 0-.408.219-.696.486-.889.824-6.256 1.025-7.395.277-3.259-2.138-3.376-2.766-3.377-17.98-.001-9.012-.055-11.517-.252-11.591-.373-.141-11.197-.213-11.418-.077m145.021.044c-.487.273-.424 38.101.065 38.493.565.454 10.632.291 11.19-.181.401-.34.471-37.868.071-38.267-.19-.19-10.99-.233-11.326-.045m-78.217 6.953c1.983.376 4.441 2.49 4.971 4.275.159.533.473 1.204.698 1.491.709.901.43 2.418-.525 2.853-.654.298-14.813.309-15.666.012-1.026-.358-1.354-1.57-.662-2.45.219-.279.498-.969.619-1.534.226-1.054 2.548-3.833 3.203-3.833.145 0 .416-.138.602-.307.686-.62 4.611-.915 6.76-.507"/><path fill="#fbfbfb" d="M0 100.351v100.351h400V0H0v100.351m81.06-41.148c.925.106 1.887.328 2.138.492.251.164 1.253.398 2.226.519.989.123 2.393.468 3.181.782.775.309 1.754.625 2.174.702.421.078.913.314 1.093.525.181.211.816.485 1.412.609.595.123 1.244.387 1.442.585.198.198.674.463 1.057.59.383.126.901.448 1.152.715.251.267.704.54 1.008.607.303.066.759.342 1.013.612.254.27.56.492.681.492.215 0 1.638 1.064 2.801 2.094.32.283.701.515.848.515.146 0 .406.271.578.602.171.331.397.602.503.602.105 0 .919.745 1.807 1.656.888.91 1.884 1.926 2.211 2.258.328.331.596.705.596.831s.132.28.292.342c.161.061.473.466.694.899.221.434.522.834.668.89.146.056.443.451.661.878.217.427.546.889.731 1.027.185.139.446.59.581 1.004.135.413.458 1.007.718 1.319.26.312.472.678.472.814 0 .135.266.666.591 1.178.325.513.652 1.254.725 1.647.074.393.32.95.547 1.238.226.288.574 1.168.773 1.955.198.788.543 1.944.766 2.57.223.626.461 1.8.528 2.609.066.809.316 2.013.553 2.675.613 1.71.657 10.289.06 11.741-.205.497-.443 1.604-.531 2.46-.201 1.971-.536 3.439-1.021 4.478-.21.448-.382 1.016-.382 1.26 0 .568-.525 1.837-.76 1.837-.099 0-.289.492-.424 1.092-.134.6-.421 1.317-.638 1.593-.217.275-.53.888-.697 1.361-.167.473-.467 1.043-.666 1.267-.199.224-.477.698-.618 1.054a4.51 4.51 0 0 1-.684 1.128 8.567 8.567 0 0 0-.781 1.059c-.838 1.378-1.597 2.351-3.089 3.955-.371.398-.674.803-.674.9 0 .096-.226.278-.502.403-.276.126-.502.361-.502.523 0 .162-.203.431-.451.598-.249.168-.994.809-1.656 1.425-1.78 1.655-4.442 3.686-5.022 3.832-.279.07-.593.287-.698.482-.104.194-.536.492-.959.662-.423.169-.885.446-1.025.615-.14.169-.692.453-1.227.63-.535.178-1.077.449-1.205.602-.127.154-.692.433-1.256.62-.563.187-1.301.501-1.64.698-.339.198-1.248.489-2.021.648-.772.16-1.721.473-2.107.697-.413.239-1.281.463-2.108.544a17.57 17.57 0 0 0-2.809.561c-2.14.646-10.909.648-13.146.003-.828-.238-2.138-.494-2.911-.567-.837-.08-1.688-.299-2.107-.543-.386-.225-1.335-.532-2.107-.681-.773-.15-1.645-.45-1.939-.667-.293-.217-.941-.497-1.438-.622-.498-.125-1.075-.387-1.284-.581-.209-.195-.736-.468-1.171-.608a5.75 5.75 0 0 1-1.406-.712 7.73 7.73 0 0 0-1.355-.768c-.407-.17-.74-.403-.74-.517 0-.115-.293-.333-.652-.485-1.393-.589-1.388-2.756.008-3.292.409-.156 2.049-1.821 2.049-2.079 0-.103.224-.289.498-.414s.551-.395.616-.6c.065-.205.377-.506.692-.67.316-.163.627-.464.692-.669.066-.206.343-.476.617-.6.274-.125.498-.363.498-.528 0-.165.246-.461.548-.657.714-.462 2.061-1.806 2.061-2.054 0-.964 3.147-.758 4.415.29.166.136.753.357 1.305.49.552.133 1.319.427 1.705.653.495.29 1.291.461 2.709.584 1.105.095 2.648.27 3.429.387 1.105.167 2.043.146 4.215-.093l3.898-.429c.607-.066 1.254-.254 1.438-.418.183-.164.987-.467 1.787-.672.799-.206 1.506-.457 1.572-.559.187-.288 1.362-.843 1.786-.843.21 0 .665-.271 1.012-.602.346-.331.712-.602.813-.602.101 0 .562-.316 1.025-.702.462-.387.919-.703 1.015-.703.233 0 3.4-3.17 3.4-3.403 0-.1.176-.238.391-.306a.89.89 0 0 0 .514-.511c.068-.213.428-.752.801-1.199.373-.446.739-1.013.814-1.259a2.83 2.83 0 0 1 .481-.848c.19-.221.465-.718.611-1.104.145-.386.462-.897.705-1.134.255-.251.491-.798.562-1.305.067-.48.34-1.414.608-2.077 1.361-3.367 1.365-12.934.006-15.952-.273-.605-.549-1.486-.613-1.957-.067-.488-.319-1.073-.585-1.361-.257-.277-.575-.864-.707-1.304-.132-.44-.321-.801-.42-.801-.099 0-.407-.497-.685-1.104-.279-.608-.674-1.195-.879-1.305-.205-.109-.436-.401-.515-.647-.078-.246-.377-.689-.666-.984a139.87 139.87 0 0 1-.754-.777c-.293-.305-.874-.902-1.319-1.354-.19-.193-.625-.577-.967-.853a32.255 32.255 0 0 1-1.221-1.049c-.329-.301-1.001-.725-1.491-.942-.491-.217-.893-.483-.893-.59 0-.108-.405-.35-.9-.54-.495-.189-1.002-.466-1.127-.617-.125-.15-.871-.463-1.659-.696-.787-.233-1.567-.541-1.733-.686-.165-.145-1.294-.416-2.508-.604-1.215-.187-2.569-.465-3.011-.617-1.119-.385-5.241-.378-6.171.011-.386.161-1.633.432-2.772.602-1.139.17-2.461.498-2.937.729-.477.231-1.335.543-1.907.694-.572.151-1.114.406-1.204.568-.09.161-.615.443-1.167.626-.551.183-1.115.488-1.253.677-.138.189-.533.521-.878.737-1.671 1.046-2.321 1.597-4.043 3.43-2.418 2.574-2.856 3.075-2.856 3.269 0 .089-.271.502-.602.918-.331.416-.697 1.111-.813 1.543-.117.433-.343.837-.503.898-.16.062-.434.621-.608 1.244-.175.623-.501 1.392-.726 1.709-.268.378-.475 1.137-.602 2.207-.107.898-.379 2.038-.604 2.535-.567 1.249-.648 7.617-.107 8.432.184.278.479 1.406.656 2.508.178 1.102.444 2.139.592 2.305.148.167.459.885.691 1.596.232.712.596 1.48.807 1.706.62.664.644 2.52.039 3.048-.321.28-1.266 1.209-2.503 2.459-.352.356-3.35 3.354-3.836 3.837-.166.165-.667.648-1.113 1.072-.445.425-.906.952-1.023 1.172-.118.219-.5.528-.85.686-.35.158-.802.398-1.004.535-.439.296-1.63-.912-2.439-2.474-.26-.504-.618-1.036-.794-1.182-.177-.147-.42-.661-.542-1.142-.121-.481-.305-.875-.408-.875-.104 0-.369-.429-.591-.953a72.578 72.578 0 0 0-.868-1.957 11.54 11.54 0 0 1-.69-2.065c-.123-.583-.4-1.306-.616-1.605-.243-.338-.475-1.167-.61-2.185-.119-.902-.357-1.918-.527-2.26-.981-1.966-.963-15.272.023-16.795.151-.233.375-1.182.498-2.107.133-.997.373-1.891.59-2.192.201-.28.471-1.001.6-1.603.129-.602.423-1.411.653-1.799.23-.388.545-1.134.702-1.658.156-.524.449-1.111.651-1.305.202-.194.481-.713.619-1.155.138-.441.445-1.028.681-1.304.237-.276.601-.841.811-1.255.209-.414.442-.752.519-.752.076 0 .3-.36.498-.799.198-.439.573-.938.833-1.108.261-.171.474-.409.474-.53 0-.121.277-.548.616-.949l1.354-1.607c1.117-1.327 4.014-4.102 4.614-4.42.291-.154.697-.493.901-.753.204-.259.487-.472.628-.472.142 0 .519-.231.839-.513 1.337-1.181 2.361-1.905 2.86-2.022.292-.068.73-.33.973-.582.244-.252.786-.568 1.205-.702.419-.134.942-.408 1.163-.608.221-.201.853-.478 1.405-.617s1.186-.412 1.41-.607c.223-.195.991-.502 1.706-.681.714-.18 1.48-.44 1.701-.577.563-.351 1.174-.498 2.951-.712.85-.103 1.844-.342 2.208-.532 1.185-.62 9.372-.919 13.181-.481m86.125 15.489c.718.292 1.847.63 2.509.751.662.122 1.439.395 1.727.607.287.213.902.489 1.365.613.464.125 1.017.401 1.229.613.212.213.704.52 1.093.682.389.163.707.388.707.501 0 .113.285.353.632.533 1.197.619 5.59 5.348 5.59 6.017 0 .161.213.477.474.704.26.226.594.79.741 1.253.148.463.471 1.09.719 1.394.248.304.513.982.589 1.505.076.524.342 1.314.59 1.756.249.441.506 1.209.572 1.706.066.496.302 2.122.525 3.612.71 4.754.033 14.405-1.099 15.655-.164.181-.387.799-.496 1.373-.109.574-.47 1.561-.804 2.194-.333.632-.606 1.249-.606 1.371 0 .122-.21.448-.466.724-.256.276-.585.79-.73 1.141-.146.352-.419.748-.608.882-.188.134-.469.481-.624.773-.41.771-1.718 2.128-3.202 3.322-.712.573-1.521 1.261-1.797 1.528-.276.267-.814.59-1.195.718-.382.128-.879.4-1.104.605-.226.205-.771.483-1.213.619-.441.136-1.254.456-1.806.71-.593.273-1.616.518-2.5.597-.823.074-1.736.258-2.028.409-1.593.824-29.738 1.11-30.723.312l-.474-.383-.055-27.364-.055-27.363.442-.363c.42-.344 1.229-.359 15.61-.301l15.167.062 1.304.532m144.305-.075c.607.25 1.781.594 2.609.765.828.171 1.822.52 2.208.775.386.256.967.527 1.291.602.324.075.84.333 1.147.575.307.241 1.029.754 1.606 1.141.576.386 1.279.93 1.563 1.207.283.278.763.664 1.066.858.304.194.552.471.552.617 0 .145.224.366.497.49s.552.452.622.727c.069.276.303.558.519.627.217.068.5.365.631.659.13.294.531.925.891 1.403.359.478.654.961.654 1.075 0 .114.217.465.483.78.265.316.546.961.623 1.434.077.473.31 1.045.516 1.27.341.371 1.32 3.618 1.784 5.912.1.497.184 3.432.187 6.523.005 5.824-.031 6.177-.984 9.835-.23.883-.46 1.802-.511 2.043-.05.24-.235.58-.41.755-.174.175-.405.655-.511 1.068-.296 1.141-.604 1.854-.803 1.854-.098 0-.398.496-.667 1.104-.268.607-.568 1.103-.666 1.103-.098 0-.302.249-.454.552-.153.304-.507.796-.787 1.093-.28.297-.916.997-1.411 1.555-.496.558-.977 1.015-1.068 1.015-.091 0-.46.294-.82.652-.917.913-2.406 1.957-2.792 1.957-.178 0-.491.18-.696.4-.205.219-.863.572-1.463.783-.6.211-1.4.543-1.778.737-.378.194-1.507.457-2.509.585-1.002.128-2.183.407-2.624.62-.766.37-1.456.39-15.161.45l-14.359.062-.393-.435c-.386-.426-.394-.945-.445-27.706l-.053-27.273.415-.415c.414-.413.477-.415 15.406-.352l14.991.063 1.104.455m36.423-.323c.721.329.756.613.677 5.496-.093 5.723.75 5.14-7.321 5.065-7.838-.073-6.98.55-7.061-5.124-.072-5.078-.054-5.196.817-5.448.992-.286 12.256-.277 12.888.011m18.558.309c.576.618.66 52.648.088 54.327-.448 1.315-.504 1.326-6.904 1.326-6.244 0-6.502-.045-6.818-1.186-.448-1.619-.272-54.046.183-54.567l.401-.46 6.319.058c6.222.058 6.325.065 6.731.502M150.534 87.292c-.327.611-.285 29.411.043 29.653.149.109 2.654.131 6.172.054l5.92-.13 1.205-.628c.662-.345 1.315-.629 1.45-.632.135-.002.39-.223.565-.491.176-.268.584-.579.908-.692.324-.113.589-.337.589-.498 0-.161.316-.671.702-1.133.387-.463.703-.961.703-1.108 0-.146.213-.522.474-.834.765-.914 1.732-6.025 1.733-9.16.001-2.185-1.008-7.276-1.523-7.684-.153-.122-.415-.548-.581-.946-.47-1.126-3.387-4.07-4.424-4.466-.48-.183-.915-.446-.969-.586-.351-.916-12.501-1.59-12.967-.719m144.749-.053l-.652.34v14.593c0 13.123.032 14.606.318 14.716.726.278 11.808.125 12.326-.17.885-.505 1.847-.913 2.152-.913.163 0 .552-.248.863-.552a21.56 21.56 0 0 1 1.296-1.133c.401-.319.901-.918 1.111-1.33.21-.412.521-.802.691-.867.171-.066.312-.28.315-.477.002-.196.237-.899.522-1.561 1.401-3.26 1.569-12.446.268-14.652-.195-.331-.474-1.008-.619-1.505-.145-.497-.47-1.068-.722-1.269-.252-.201-.458-.48-.458-.619s-.248-.494-.552-.789a86.83 86.83 0 0 0-1.816-1.739c-.298-.276-.903-.629-1.345-.784-.441-.155-1.028-.443-1.304-.641-1.133-.813-11.078-1.333-12.394-.648m-216.897.254c.608.214 1.589.489 2.18.612.591.123 1.23.394 1.419.604.19.209.584.438.876.508.711.171 3.381 2.416 4.189 3.523.357.488.876 1.157 1.154 1.487.279.329.506.704.506.832 0 .129.271.749.603 1.379.331.629.602 1.383.602 1.676-.001.292.148 1.281.33 2.198.305 1.537.306 1.809.009 3.512a86.525 86.525 0 0 0-.425 2.642c-.057.438-.269 1.025-.472 1.305-.202.279-.49.824-.639 1.21-.15.387-.484.934-.742 1.216-.258.282-.47.602-.47.712 0 .315-2.421 2.685-3.1 3.035-.337.173-.726.476-.864.672-.139.196-.59.466-1.004.601-.413.135-.96.408-1.216.606-1.576 1.225-10.471 1.19-11.708-.047-.206-.206-.713-.492-1.126-.635-1.657-.575-5.438-4.202-5.768-5.535a2.56 2.56 0 0 0-.523-.945c-1.114-1.194-1.984-7.053-1.338-9.012.182-.552.432-1.518.556-2.146.123-.628.389-1.352.591-1.609.203-.256.518-.826.701-1.266.353-.848.417-.926 2.271-2.807 1.636-1.658 2.622-2.456 3.225-2.607.281-.07.757-.335 1.058-.589.321-.27.951-.514 1.526-.59.538-.071 1.159-.256 1.378-.41.902-.631 4.577-.709 6.221-.132m181.624.837c.442.121.938.335 1.104.476.165.141.753.319 1.304.395 3.116.427 8.945 4.821 10.533 7.939.14.276.414.682.608.903.195.221.42.627.501.903.081.276.41 1.052.731 1.725.322.672.641 1.711.711 2.308.069.597.306 1.433.526 1.858.454.876.908 5.697.661 7.014-.285 1.518.497 1.441-15.048 1.485-16.093.046-14.765-.147-14.233 2.068 1.15 4.794 5.545 7.023 11.061 5.609 1.135-.29 3.449-2.256 3.741-3.177.237-.745.91-.826 6.822-.826 6.85 0 6.788-.019 6.381 1.918-.133.638-.406 1.347-.606 1.577-.2.23-.525.777-.724 1.214-.198.438-.533.918-.744 1.065-.211.148-.384.366-.384.483 0 .238-3.077 3.376-3.31 3.376-.081 0-.43.232-.777.516-1.529 1.252-2.242 1.705-3.007 1.912-.451.121-1.031.387-1.29.59-.259.204-.985.471-1.613.594-.628.122-1.729.375-2.446.561-1.835.477-8.587.467-10.336-.015a36.955 36.955 0 0 0-2.346-.55c-.628-.121-1.356-.387-1.617-.592-.261-.206-.803-.435-1.204-.51-.697-.131-1.718-.704-3.824-2.147-1.354-.928-3.584-3.161-4.267-4.272-.203-.332-.528-.76-.721-.952-.194-.193-.434-.645-.533-1.004-.1-.359-.421-1.005-.713-1.434-.292-.43-.531-.892-.531-1.027 0-.136-.287-1.094-.638-2.13l-.638-1.883-.004-4.315c-.004-3.973.031-4.411.442-5.519.246-.663.585-1.746.754-2.409.169-.662.468-1.43.666-1.706.197-.276.475-.855.617-1.287.258-.781 1.14-2.115 2.109-3.187.278-.308.506-.688.506-.845 0-.158.183-.384.407-.504.224-.12.91-.713 1.524-1.318.615-.604 1.464-1.276 1.888-1.492.423-.216.825-.482.892-.591.245-.396 3.443-1.793 4.421-1.932.552-.078 1.209-.276 1.46-.44.97-.633 9.269-.949 11.184-.425m-56.84 1.149c.287.238.327 1.639.382 13.146l.061 12.879.56.863c.309.475.638 1.067.733 1.316.112.294.48.552 1.045.734.48.154 1.234.44 1.676.636 1.701.755 5.536-.161 6.438-1.538.177-.269.483-.541.68-.604.221-.07.455-.477.609-1.061.138-.521.397-1.354.577-1.851.282-.781.339-2.468.426-12.512l.101-11.608.473-.384c.63-.51 12.101-.598 12.785-.098.613.449.611 39.769-.003 40.447-.387.428-.464.433-6.29.373l-5.898-.061-.383-.474c-.283-.35-.384-.796-.386-1.706-.002-.678-.087-1.364-.189-1.525-.216-.342-.233-.329-2.74 2.007-.233.217-.729.497-1.104.622-.374.125-.861.389-1.082.586-.399.356-2.805 1.057-4.917 1.433-2.79.497-8.316-.31-9.865-1.441-.292-.213-.774-.449-1.07-.523-.296-.074-.588-.267-.65-.427-.062-.161-.498-.533-.969-.827-1-.625-2.621-2.627-2.805-3.466-.07-.32-.194-.582-.275-.582-.324 0-.851-1.535-.957-2.787-.062-.73-.283-1.999-.492-2.82-.352-1.389-.379-2.415-.379-14.771 0-14.639-.089-13.592 1.209-14.125.788-.323 12.293-.189 12.699.149m144.992.092c.366.366.693 35.959.356 38.806-.221 1.873.146 1.77-6.555 1.843-6.632.072-7.228-.006-7.574-1-.345-.991-.306-38.91.041-39.384.594-.812 12.948-1.05 13.732-.265m-95.158 8.473c-.21.16-.864.43-1.454.601-.674.196-1.186.488-1.383.787-.171.262-.486.522-.701.578-.214.056-.475.327-.58.603-.105.275-.369.626-.588.779-.41.287-.973 2.583-.729 2.977.175.283 14.399.266 14.683-.018.33-.33-.3-2.599-.87-3.137-.258-.243-.469-.58-.469-.748 0-.168-.26-.44-.578-.604-.317-.164-.629-.433-.692-.597-.063-.164-.503-.4-.977-.525-.475-.125-1.162-.401-1.527-.613-.835-.484-3.532-.538-4.135-.083"/><path fill="#747474" d="M71.952 59.79c-2.593.265-5.81.831-7.025 1.234-.662.22-1.881.618-2.709.884-3.01.967-4.453 1.513-4.981 1.884-.296.208-.945.577-1.442.82-1.629.797-2.498 1.306-3.792 2.222-.702.497-1.468 1.035-1.702 1.196-3.121 2.144-8.45 7.691-9.843 10.244-.27.497-.995 1.669-1.609 2.605-.614.936-1.117 1.804-1.117 1.929 0 .126-.172.447-.382.714-.21.268-.49.888-.622 1.379a11.558 11.558 0 0 1-.697 1.799c-.25.499-.611 1.449-.801 2.111-.19.662-.427 1.303-.526 1.424-.1.121-.362 1.385-.584 2.81a224.643 224.643 0 0 1-.621 3.794c-.402 2.229-.468 7.508-.119 9.572.174 1.027.462 2.907.641 4.176.301 2.14.711 3.579 1.744 6.121.224.552.54 1.365.702 1.807.161.441.558 1.343.88 2.004.322.661.586 1.304.586 1.43 0 .126.131.338.291.471.16.133.589.746.953 1.363 2.018 3.416 1.283 3.66 7.421-2.465 5.172-5.16 5.427-5.516 4.581-6.417-.707-.752-1.634-3.057-2.299-5.719-.18-.717-.466-1.846-.637-2.509-.495-1.92-.306-8.806.287-10.423.241-.656.531-1.71.646-2.344.189-1.043.89-2.67 2.375-5.509.493-.943.877-1.5 2.697-3.901.885-1.169 3.611-3.748 4.763-4.506.494-.325 1.124-.794 1.4-1.043.276-.248.863-.6 1.305-.783.442-.182.938-.446 1.104-.587.165-.141.662-.367 1.104-.504a8.84 8.84 0 0 0 1.505-.653c4.32-2.489 14.919-2.458 20.44.061 3.075 1.402 5.965 3.104 6.314 3.718.088.156.449.429.802.607.63.318 4.155 3.822 4.155 4.129 0 .086.225.406.5.711 1.118 1.241 3.313 5.094 3.313 5.816 0 .15.228.722.506 1.271 2.186 4.312 2.216 14.494.057 18.733a12.52 12.52 0 0 0-.655 1.606c-1.126 3.604-5.897 9.274-10.295 12.233-.558.376-1.311.787-1.673.913-.362.126-.8.357-.972.514-.498.45-3.558 1.676-4.801 1.924-.623.124-1.991.422-3.04.662-2.433.557-6.9.597-8.63.078-.607-.183-1.736-.426-2.509-.541-1.648-.245-4.972-1.479-5.785-2.147-1.182-.971-1.32-.881-6.224 4.05-2.47 2.483-4.586 4.515-4.701 4.515-.228 0-.65 1.049-.65 1.614 0 .209.343.525.853.785 1.329.679 2.686 1.488 3.092 1.843.203.178.837.475 1.408.661.571.186 1.138.458 1.26.605.123.148.637.373 1.144.5.507.128 1.34.444 1.851.702.51.258 1.47.58 2.133.716.662.136 1.438.367 1.724.514 2.644 1.356 17.895 1.338 21.159-.026.382-.16 1.169-.388 1.75-.509.581-.12 1.349-.387 1.706-.592a7.309 7.309 0 0 1 1.435-.585c.997-.268 4.2-1.81 5.643-2.717.607-.381 1.42-.841 1.806-1.021.386-.181 1.018-.594 1.405-.919 1.439-1.207 1.611-1.341 2.253-1.74.725-.45 4.437-4.01 5.072-4.864.221-.296.853-1.088 1.405-1.758 1.91-2.318 2.82-3.661 3.969-5.853 2.338-4.461 2.89-5.776 3.455-8.229.19-.827.515-1.956.722-2.508 1.461-3.903 1.39-15.375-.124-20.171a343.75 343.75 0 0 1-.874-2.81c-.754-2.472-1.286-3.915-1.626-4.415a13.61 13.61 0 0 1-.696-1.204c-1.387-2.742-2.085-3.935-3.228-5.52a237.97 237.97 0 0 1-1.651-2.308c-.191-.276-.664-.821-1.05-1.211a92.002 92.002 0 0 1-1.541-1.606 37.027 37.027 0 0 0-5.221-4.579c-2.751-1.991-2.686-1.95-4.81-3.06-1.087-.568-2.112-1.151-2.278-1.296-.293-.255-2.638-1.128-5.117-1.904a186.87 186.87 0 0 1-2.408-.777c-2.965-.982-10.429-1.632-14.25-1.241m10.953.885c2.144.215 2.849.363 3.311.693.323.231 1.13.525 1.792.655.662.129 1.475.399 1.806.599.332.2 1.17.474 1.864.609.81.158 1.516.449 1.974.813.392.311.909.625 1.147.698.239.072.615.289.836.483.22.193.83.511 1.354.706.525.196.954.438.954.539 0 .101.312.314.694.474.381.159.855.451 1.053.648.658.655 2.157 1.787 2.819 2.128.359.184.652.427.652.539 0 .278 1.646 1.788 1.952 1.791.136.001.404.251.597.554.613.964 1.743 2.258 1.972 2.258.122 0 .375.294.562.652.319.612 1.208 1.835 2.138 2.942.223.266.406.57.406.676 0 .106.267.497.593.869.327.372.696 1.061.821 1.532.125.47.393 1.036.595 1.257.202.221.52.785.706 1.254.186.469.417.853.512.853.095 0 .315.519.488 1.154.173.635.53 1.705.794 2.377.263.673.584 1.802.711 2.509.128.707.356 1.424.508 1.593 1.097 1.223 1.115 17.812.021 19.031-.164.182-.401.908-.528 1.613s-.401 1.712-.609 2.239a23.196 23.196 0 0 0-.704 2.23c-.181.7-.5 1.458-.709 1.683-.21.226-.489.718-.62 1.095a7.12 7.12 0 0 1-.707 1.374c-.257.379-.467.849-.467 1.044 0 .195-.316.733-.703 1.195-.386.463-.702.967-.702 1.121 0 .155-.271.522-.602.817-.332.295-.603.635-.603.755 0 .211-.176.439-1.797 2.325-.428.496-1.158 1.354-1.625 1.906-.466.552-.993 1.084-1.171 1.181-.178.097-.82.697-1.428 1.332-.607.636-1.374 1.297-1.706 1.469-.331.173-1.053.736-1.605 1.253-.552.516-1.362 1.065-1.801 1.22-.438.156-.98.45-1.204.654-.224.204-.611.433-.86.509-.249.075-.7.346-1.003.6-.303.255-.983.61-1.512.789-.528.179-1.16.454-1.404.611-.245.157-.987.441-1.649.63s-1.41.504-1.661.701c-.251.196-1.109.465-1.907.598-.797.134-1.691.366-1.986.517-2.2 1.124-17.261 1.1-19.452-.031-.285-.148-1.143-.372-1.906-.498-.763-.126-1.624-.397-1.913-.601-.29-.204-1.057-.522-1.706-.707-.649-.186-1.451-.499-1.782-.697-.331-.197-1.009-.476-1.506-.618-.496-.143-1.102-.468-1.345-.722-.243-.255-.575-.463-.737-.463-.162 0-.562-.224-.888-.498-.326-.275-.943-.616-1.37-.759-.799-.267-.823-.329-.571-1.489a.87.87 0 0 1 .533-.577c.368-.117 1.368-1.045 2.297-2.132.124-.145.395-.418.602-.606.474-.43.679-.632 1.891-1.866 1.033-1.052 1.092-1.11 2.485-2.425.478-.45.927-1.005 1-1.233.242-.763 1.456-.801 2.21-.069.35.339.715.616.811.616.097 0 .725.265 1.396.589.781.378 1.829.672 2.914.818.932.125 1.971.372 2.308.547 1.254.653 8.996.659 9.989.009.258-.169 1.28-.415 2.271-.546 1.834-.243 5.004-1.504 5.37-2.137.087-.15.536-.374.998-.498.463-.125 1.091-.437 1.397-.695.306-.257.722-.52.923-.584.201-.064.566-.386.81-.716.244-.331.58-.601.747-.601.35 0 3.297-2.825 3.297-3.16 0-.124.174-.28.387-.347.362-.115.66-.503 1.76-2.289.243-.394.563-.809.713-.922.372-.283 1.692-2.935 1.965-3.95.123-.456.393-1.065.6-1.353.208-.287.516-1.134.685-1.881.17-.748.468-1.602.662-1.898.531-.812.53-10.861-.001-11.838-.193-.355-.492-1.258-.665-2.007-.173-.75-.499-1.561-.725-1.803-.226-.241-.489-.859-.585-1.371-.095-.513-.288-1.138-.428-1.39-.139-.252-.503-.922-.809-1.489-.305-.566-.634-1.03-.729-1.03-.096 0-.328-.322-.514-.715-.187-.393-.472-.765-.635-.828-.162-.062-.404-.371-.536-.687-.287-.681-3.902-4.393-4.279-4.393-.144 0-.468-.221-.721-.491-.593-.634-1.623-1.371-2.804-2.007-.516-.278-.992-.591-1.057-.697-.065-.105-.626-.339-1.247-.519-.62-.18-1.257-.456-1.413-.613-.157-.157-.799-.426-1.427-.598-.628-.171-1.452-.45-1.831-.618-1.771-.787-11.882-.917-13.862-.178-.497.186-1.49.51-2.208.721-.717.211-1.399.511-1.514.667-.116.156-.724.433-1.351.615-.628.183-1.197.421-1.264.53-.067.109-.611.415-1.208.679-.597.264-1.085.573-1.085.686 0 .114-.294.358-.653.544-1.168.604-4.301 3.433-5.566 5.026-1.592 2.006-2.216 2.902-2.507 3.598-.179.428-.491.96-.694 1.182-.203.222-.433.63-.512.906-.079.276-.358.818-.619 1.206-.304.45-.55 1.232-.683 2.167-.114.804-.397 1.833-.628 2.286-.923 1.81-.936 11.215-.018 12.977.219.421.5 1.435.625 2.254.126.822.398 1.723.609 2.013.21.289.525.868.701 1.288.175.42.501.892.725 1.048.681.477.355.888-4.757 5.991-5.285 5.276-5.269 5.265-5.761 4.144-.32-.731-.866-1.581-1.738-2.706-.233-.301-.608-1.091-.832-1.756-.225-.665-.479-1.208-.564-1.208-.086 0-.31-.547-.497-1.215-.188-.669-.548-1.52-.8-1.892-.252-.372-.516-1.09-.585-1.595-.069-.506-.298-1.258-.508-1.671-.237-.467-.468-1.589-.61-2.96a585.44 585.44 0 0 0-.441-4.114c-.473-4.242.144-13.519 1.012-15.237.2-.395.461-1.175.579-1.732.118-.557.49-1.537.827-2.178.337-.641.613-1.315.613-1.498 0-.182.214-.738.475-1.234.261-.495.584-1.24.718-1.654.134-.414.323-.752.42-.752.097 0 .424-.429.727-.954.303-.524.618-1 .699-1.057.081-.058.332-.537.559-1.065.226-.528.683-1.189 1.016-1.469.332-.28.605-.614.605-.744 0-.129.18-.347.401-.485.221-.138.401-.384.401-.546 0-.285 3.813-4.198 5.284-5.421.398-.332 1-.851 1.339-1.155.339-.303.694-.551.788-.551.095 0 .609-.362 1.144-.803.534-.442 1.083-.803 1.219-.803.136 0 .34-.173.453-.385.114-.212.475-.444.804-.516.328-.073.922-.352 1.319-.622a10.061 10.061 0 0 1 1.453-.795c.403-.168.885-.47 1.071-.67.187-.2.913-.476 1.614-.612.701-.137 1.545-.412 1.877-.611.331-.199 1.097-.465 1.703-.592.605-.127 1.417-.418 1.805-.646 1.744-1.029 11.215-1.401 18.082-.71m53.071 13.931c-.221.054-.492.171-.602.261-.366.295-.068 54.155.301 54.397 1.407.923 31.954-.12 34.025-1.162.438-.22 1.158-.516 1.6-.656.441-.14 1.164-.459 1.605-.709.442-.249 1.017-.518 1.279-.596 1.537-.46 6.457-5.379 7.563-7.56.186-.368.461-.808.61-.979.149-.171.398-.67.553-1.108a8.329 8.329 0 0 1 .808-1.574c.29-.427.527-.983.527-1.237 0-.253.273-1.518.606-2.812 1.228-4.762 1.226-12.667-.005-17.582-.331-1.319-.601-2.56-.601-2.758 0-.198-.238-.711-.53-1.14-.291-.429-.619-1.038-.729-1.352-.206-.593-1.193-2.337-1.993-3.524-.615-.911-4.127-4.468-4.881-4.942a8.552 8.552 0 0 1-.899-.646c-1.101-.985-4.187-2.41-6.523-3.011-.662-.17-1.791-.475-2.508-.676a27.43 27.43 0 0 0-2.609-.571c-1.304-.205-26.783-.263-27.597-.063m144.336.222c-.475.524-.515 52.795-.041 53.929l.291.696h12.63c14.283 0 18.607-.274 20.845-1.32.572-.267 1.165-.486 1.316-.486.152 0 .917-.316 1.702-.703.784-.386 1.515-.702 1.624-.702.11 0 .578-.316 1.04-.703.462-.386.917-.702 1.01-.702.444 0 4.422-4.316 5.22-5.663.476-.804 1.072-1.746 1.325-2.093.565-.773 1.812-4.44 2.199-6.467.158-.821.433-1.909.613-2.416.68-1.916.573-11.548-.143-12.886-.097-.181-.347-1.086-.557-2.01-.695-3.07-2.044-6.361-3.102-7.566-.163-.185-.478-.698-.7-1.14-.511-1.014-3.699-4.264-5.103-5.201l-2.067-1.377c-1.138-.758-3.305-1.612-5.519-2.176a48.114 48.114 0 0 1-2.408-.679c-1.862-.61-3.882-.694-16.778-.698-12.405-.004-13.082.014-13.397.363m55.201-.052l-.563.311.061 4.082c.083 5.474-.637 4.926 6.465 4.922 3.193-.001 5.769-.085 5.94-.193.435-.274.675-8.582.261-9.036-.421-.461-11.346-.539-12.164-.086m18.075-.099c-.522.304-.548 52.997-.028 54.093l.324.683H365.5l.29-.696c.491-1.174.432-53.643-.06-54.017-.44-.334-11.577-.392-12.142-.063m-189.413.443c.496.197 1.779.53 2.849.741 1.071.211 2.155.52 2.41.686.254.167 1.048.44 1.764.607.716.167 1.402.442 1.525.61.123.168.641.49 1.15.716.51.225.997.529 1.083.674.086.146.383.383.659.526.561.29.609.333 3.06 2.716.966.94 1.757 1.836 1.757 1.993 0 .156.167.403.372.547.205.144.435.459.511.699.075.24.371.78.656 1.2.285.419.644 1.122.799 1.56.155.439.458.962.675 1.164.433.404.461.505.8 2.957.129.934.359 1.941.512 2.236.876 1.694.879 12.634.004 14.728-.156.373-.427 1.583-.603 2.689-.365 2.297-.445 2.563-.811 2.703-.145.056-.413.549-.595 1.096-.181.547-.493 1.142-.692 1.322-.199.18-.484.697-.633 1.149-.149.451-.392.867-.54.924-.148.057-.397.351-.553.652-.156.302-.725 1.006-1.264 1.566-.539.559-1.132 1.249-1.319 1.534-.187.285-.458.518-.604.518-.295 0-1.05.58-2.004 1.54-.384.386-1.005.73-1.58.875-.52.131-1.052.365-1.18.519-.128.155-.74.428-1.361.607-.62.179-1.534.534-2.031.789-1.79.919-32.76 1.372-33.321.487-.118-.188-.173-10.356-.143-26.893l.048-26.591.602-.133c1.558-.345 27.062-.084 27.998.287m145.007.101c.662.25 1.833.545 2.602.655.768.111 1.687.372 2.042.582.355.209 1.203.523 1.884.698.681.174 1.468.497 1.748.717.28.221.627.401.771.401.144 0 .679.361 1.189.803.51.441 1.009.803 1.109.803.185 0 .988.712 2.443 2.167 1.481 1.48 2.113 2.262 2.469 3.05.199.442.436.804.526.804.091 0 .4.496.687 1.104.287.607.596 1.103.687 1.103.223 0 .383.457.72 2.062.158.747.416 1.56.575 1.806.158.246.345.809.415 1.25.247 1.558.544 2.82.874 3.713.55 1.491.476 8.909-.105 10.537-.237.662-.528 1.908-.648 2.768-.12.86-.387 1.898-.593 2.308-.205.409-.485 1.348-.622 2.086-.18.975-.409 1.521-.837 2.001-.325.363-.641.866-.705 1.117-.063.252-.194.458-.292.458-.098 0-.361.39-.585.866a7.456 7.456 0 0 1-1.055 1.568c-2.137 2.316-3.336 3.453-4.371 4.147a7.17 7.17 0 0 0-.954.795c-.242.248-.608.451-.814.451-.205 0-.86.257-1.455.571-.595.314-1.519.679-2.053.81-.535.132-1.212.408-1.506.614-1.11.78-32.297 1.327-32.774.575-.293-.461-.215-53.697.078-53.823.947-.407 27.389-.006 28.55.433m37.632-.362l.703.195-.067 3.868c-.06 3.43-.11 3.911-.438 4.249-.564.582-10.786.576-11.169-.007-.482-.732-.453-8.045.033-8.28.527-.257 10.027-.278 10.938-.025m18.548-.076c.325.125.517 52.915.196 53.751-.168.438-11.331.485-11.693.048-.236-.284-.354-53.353-.119-53.732.127-.207 11.088-.27 11.616-.067M149.613 86.16l-.591.509-.056 15.074c-.059 16.155-.092 15.627 1.012 16.197.83.429 7.528.405 10.283-.037.993-.159 2.148-.29 2.565-.291.725 0 1.24-.185 2.707-.968.64-.342.847-.523 2.611-2.288 1.085-1.085 2.206-2.969 2.471-4.15.112-.501.371-1.184.574-1.519 1.129-1.857 1.084-12.039-.058-13.323-.162-.182-.433-.805-.604-1.384-.17-.579-.54-1.355-.822-1.725-.282-.37-.513-.748-.513-.84 0-.092-.293-.457-.652-.812a68.708 68.708 0 0 1-1.719-1.742c-.291-.304-.63-.552-.754-.552-.125 0-.59-.263-1.035-.585-.444-.323-1.519-.878-2.388-1.234l-1.58-.648-5.43-.095-5.43-.095-.591.508m144.865-.264c-.846.362-.86.644-.804 16.378.051 14.201.076 15.145.412 15.481.585.585 7.18.617 11.55.055 3.264-.42 5.854-1.401 5.854-2.217 0-.086.319-.353.709-.594.39-.241.88-.774 1.089-1.184.209-.41.523-.864.696-1.008.174-.144.316-.419.316-.611s.241-.7.536-1.129c.498-.726.768-1.501 1.595-4.579.442-1.651.31-8.473-.186-9.581-.181-.403-.427-1.171-.547-1.705-.12-.535-.389-1.154-.598-1.376-.208-.223-.526-.754-.704-1.182-1.001-2.396-3.772-4.759-7.221-6.158l-1.606-.652-5.318-.066c-3.148-.039-5.504.013-5.773.128m-132.611.79c.883.242 1.834.603 2.113.804.279.2.866.548 1.305.772 1.67.856 4.463 4.237 5.01 6.068.082.276.36 1.008.618 1.627.955 2.297 1.058 9.462.17 11.874a73.45 73.45 0 0 0-.676 1.953c-.552 1.679-2.298 4.547-2.921 4.798-.11.044-.48.374-.822.734-1.742 1.832-4.977 2.491-12.247 2.494-3.579.002-3.872-.026-4.365-.414l-.529-.416v-14.85c0-14.899.022-15.414.683-15.885.527-.377 9.979-.019 11.661.441M304.9 86.39c3.021.592 4.105 1.103 6.462 3.049 1.095.905 2.938 3.239 2.938 3.723 0 .095.217.51.483.922 1.935 3 1.888 13.71-.072 16.495-.197.28-.421.711-.497.956-.827 2.666-4.509 5.459-7.799 5.918-3.083.43-11.761.333-12.104-.136-.518-.707-.317-30.547.208-30.931.554-.405 8.309-.402 10.381.004M71.78 88.436c-4.372.938-8.987 5.607-9.929 10.044-2.53 11.92 7.834 20.871 19.25 16.627 1.004-.373 1.929-.802 2.058-.954.128-.152.73-.65 1.337-1.106 1.031-.775 2.609-2.457 2.609-2.78 0-.079.217-.428.482-.776 2.029-2.661 2.872-9.87 1.413-12.096-.175-.266-.445-.845-.6-1.286-.156-.441-.47-1.044-.699-1.341l-1.224-1.59c-.896-1.166-3.458-3.336-4.208-3.564-.266-.081-.79-.333-1.166-.56-1.469-.891-6.498-1.224-9.323-.618m7.094.288c.716.116 1.438.332 1.605.481.167.148.71.384 1.207.524.497.14 1.146.51 1.444.822.297.313.622.568.721.568.346 0 2.641 2.403 3.038 3.181.22.431.525.832.678.89.153.059.399.544.547 1.079.147.534.455 1.227.683 1.54.721.987.623 7.248-.137 8.753-.303.601-.552 1.199-.552 1.327 0 .129-.267.571-.594.982-.327.411-.653.943-.724 1.182-.133.443-.428.813-1.427 1.79-1.173 1.148-1.417 1.353-1.606 1.353-.107 0-.414.234-.681.519-.579.618-1.363.97-2.594 1.165-.497.078-1.089.264-1.316.413-1.214.794-6.019.812-7.218.026-.239-.156-.991-.393-1.672-.527-1.493-.294-2.197-.773-4.412-3.001-2.263-2.276-2.335-2.369-2.632-3.412a12.272 12.272 0 0 0-.716-1.81c-.971-1.919-.855-7.357.199-9.339.278-.524.506-1.162.506-1.417 0-.256.255-.762.566-1.125.312-.362.712-.874.891-1.137.289-.426 2.172-2.136 3.402-3.09 2.177-1.687 6.656-2.408 10.794-1.737m173.71-.024c-.773.081-1.895.297-2.495.48-.6.183-1.3.333-1.557.333-2.062 0-9.054 4.434-10.076 6.389a8.384 8.384 0 0 1-.803 1.171c-1.012 1.23-1.331 1.781-1.898 3.275-.551 1.454-1.564 4.862-1.939 6.526-.278 1.233-.223 5.076.092 6.423.155.662.423 1.815.595 2.562.173.747.483 1.695.69 2.107.207.412.532 1.225.722 1.806.19.581.454 1.168.586 1.304.133.137.458.565.723.951 1.441 2.096 5.114 5.419 5.992 5.419.086 0 .52.267.964.593.443.327 1.238.69 1.766.809.527.118 1.214.346 1.525.507 3.873 2.003 15.795.921 19.713-1.789.654-.452 1.451-.968 1.771-1.147.543-.302 3.164-3.056 4.123-4.33.493-.656 1.884-3.607 1.884-3.997 0-.581-.834-.681-5.681-.681-6.111 0-6.025-.016-6.863 1.284-2.082 3.229-6.885 4.589-10.424 2.951-.739-.342-1.417-.622-1.506-.622-.583 0-2.837-2.702-3.147-3.773-.183-.629-.5-1.459-.705-1.844-.445-.832-.485-1.982-.089-2.524.276-.378.695-.391 14.687-.445 10.863-.041 14.474-.114 14.693-.297.419-.347.214-4.19-.329-6.17-.227-.828-.546-2.002-.707-2.609-.351-1.315-1.239-3.752-1.573-4.315-.13-.221-.378-.682-.551-1.025-.719-1.429-4.353-5.245-5.757-6.045-1.583-.901-4.217-2.093-5.093-2.305-.497-.12-1.536-.378-2.308-.574-1.643-.416-5.022-.608-7.025-.398m5.437.509c.542.163 1.708.393 2.591.511.916.122 1.821.369 2.108.574.275.197.967.514 1.535.702.569.189 1.235.516 1.479.729.245.212.629.444.855.515.899.286 3.905 3.017 4.42 4.017.176.343.543.769.815.947.272.178.554.594.626.923.072.33.299.813.504 1.073.205.26.522 1.055.705 1.765.184.711.507 1.576.72 1.922.213.346.472 1.301.576 2.123.104.822.339 1.935.522 2.473.192.567.344 1.7.36 2.693l.029 1.716-14.595.1c-16.817.116-15.32-.092-15.295 2.118.011.977.116 1.437.424 1.854.225.305.559 1.067.741 1.695.182.627.445 1.212.584 1.299.139.087.41.407.604.711.193.303.482.552.642.552.161 0 .428.207.594.46.165.253.641.583 1.058.733a6.31 6.31 0 0 1 1.326.694c.515.381.836.42 3.412.415l2.843-.006 1.334-.754c1.633-.923 2.604-1.815 3.16-2.906.617-1.208 1.061-1.287 6.745-1.21 5.396.073 5.517.099 4.925 1.056a9.129 9.129 0 0 0-.685 1.439c-.387 1.085-1.442 2.577-2.794 3.951-.63.64-1.145 1.254-1.145 1.365 0 .111-.339.344-.753.517a6.602 6.602 0 0 0-1.388.842c-1.08.899-2.339 1.59-3.178 1.746-.441.082-1.406.359-2.143.616-3.062 1.068-12.111.998-14.179-.109-.252-.135-1.011-.334-1.686-.443-.893-.143-1.413-.359-1.903-.79-.371-.325-.8-.592-.953-.592-.153 0-.534-.205-.846-.456a7.982 7.982 0 0 0-1.149-.752c-.613-.312-4.135-3.949-4.135-4.271 0-.103-.262-.486-.582-.85a3.301 3.301 0 0 1-.721-1.532c-.077-.478-.325-1.185-.552-1.572-.227-.386-.615-1.65-.863-2.809a84.555 84.555 0 0 0-.693-3.011c-.304-1.137-.131-4.583.269-5.362.158-.307.383-1.177.5-1.933.117-.755.391-1.716.61-2.134.218-.419.547-1.363.732-2.099.202-.807.527-1.529.818-1.82.265-.265.482-.621.482-.791 0-.169.188-.422.419-.561.23-.139.638-.681.906-1.206.268-.524.573-.953.676-.953.103 0 .847-.591 1.652-1.314.806-.723 1.762-1.442 2.124-1.598.363-.157.797-.423.966-.591.168-.168.82-.454 1.448-.634s1.303-.497 1.501-.704c.197-.208.468-.378.602-.378.618-.003 4.111-.599 4.558-.777.793-.317 4.611-.269 5.738.072m-67.419.754c-.468.344-.421 29.689.051 31.149 2.032 6.295 6.209 9.162 13.361 9.172 5.518.008 8.519-1.151 11.835-4.569.992-1.024 1.512-.629 1.512 1.148 0 1.152.075 1.451.484 1.927l.484.563 5.286.1c4.974.095 5.307.078 5.638-.274.332-.353.35-1.518.301-19.87l-.051-19.495-5.997-.053c-4.257-.038-6.076.013-6.272.175-.227.189-.275 2.233-.279 11.694-.003 6.306-.086 11.782-.186 12.168-1.149 4.478-3.926 6.522-8.339 6.136-1.622-.142-3.387-.923-3.876-1.716a8.792 8.792 0 0 0-.758-1.008c-.787-.884-.886-2.581-.886-15.23 0-9.252-.055-11.876-.251-12.003-.47-.305-11.644-.317-12.057-.014m144.973.006l-.502.259-.051 19.082-.052 19.083.424.539.424.539 5.692-.059c4.887-.051 5.737-.104 6.011-.379.387-.388.466-38.627.08-39.013-.327-.329-11.397-.375-12.026-.051m-133.317.24c.197.074.251 2.579.252 11.591.001 15.214.118 15.842 3.377 17.98 1.139.748 6.506.547 7.395-.277.288-.267.602-.486.696-.486.443 0 1.788-1.624 2.093-2.528.184-.542.4-1.03.481-1.085.564-.385.609-1.273.632-12.581.013-6.382.081-11.859.15-12.172l.127-.568 5.921-.013 5.921-.013.051 19.112c.029 10.778-.026 19.25-.126 19.428-.155.278-.82.311-5.37.271-6.204-.055-6.004.016-5.832-2.049.142-1.711-.159-2.233-1.235-2.144-.569.048-.79.184-.994.612-.145.303-.462.652-.704.777-.442.226-.667.411-1.908 1.561-.364.338-1.087.744-1.605.902-.519.158-1.363.476-1.876.707-2.175.98-10.005.918-11.209-.089-.166-.139-.826-.359-1.467-.49-.923-.189-1.202-.337-1.345-.712-.099-.26-.345-.561-.548-.67-.603-.322-2.059-1.724-2.059-1.981 0-.131-.172-.4-.383-.598-.21-.197-.542-.856-.738-1.463-.196-.607-.543-1.359-.772-1.672-.459-.628-.792-31.149-.343-31.427.221-.136 11.045-.064 11.418.077m144.929.012c.4.399.33 37.927-.071 38.267-.558.472-10.625.635-11.19.181-.489-.392-.552-38.22-.065-38.493.336-.188 11.136-.145 11.326.045m-95.083 6.935c-.484.095-1.033.311-1.22.48-.186.169-.457.307-.602.307-.655 0-2.977 2.779-3.203 3.833-.121.565-.4 1.255-.619 1.534-.692.88-.364 2.092.662 2.45.853.297 15.012.286 15.666-.012.955-.435 1.234-1.952.525-2.853-.225-.287-.539-.958-.698-1.491-1.001-3.371-5.571-5.218-10.511-4.248m6.669.838c1.713.782 3.147 2.301 3.722 3.944.216.617.513 1.424.66 1.792.254.636.239.694-.296 1.154l-.563.485h-7.328c-4.611 0-7.47-.076-7.711-.206-.703-.376-.815-.873-.385-1.716.216-.425.393-.966.393-1.204 0-.513.761-1.695 1.776-2.762 2.193-2.304 6.502-2.962 9.732-1.487"/><path fill="#7c7c7c" d="M74.819 59.556c.583.041 1.486.04 2.007-.001.52-.041.043-.074-1.061-.074-1.104.001-1.53.034-.946.075m-5.777.454c-.828.199-1.325.369-1.104.377.221.008.808-.083 1.304-.203.497-.12 1.626-.285 2.509-.368l1.606-.15-1.405-.009c-.773-.005-2.082.154-2.91.353m10.235-.193l2.309.269c1.001.117 1 .117-.201-.171-.662-.159-1.701-.28-2.308-.269l-1.104.02 1.304.151m-12.995.733c.193.05.509.05.702 0 .194-.051.036-.092-.351-.092-.386 0-.544.041-.351.092m17.764.003c.25.048.611.047.803-.004.192-.05-.012-.089-.454-.087-.441.002-.598.043-.349.091m-20.022.561c-1.451.638-1.046.641.502.004.662-.273 1.069-.495.903-.493-.166.002-.798.222-1.405.489m22.579.004c.662.273 1.295.493 1.405.489.308-.011-1.965-.978-2.308-.982-.166-.002.241.22.903.493m2.007.645c.221.055 1.059.36 1.862.679.803.318 1.571.575 1.706.571.135-.004-.554-.32-1.53-.702-.977-.383-1.925-.685-2.108-.672-.241.017-.222.051.07.124m-27.396.196c-.165.06-.662.267-1.104.459-.441.193-.938.4-1.103.46-.166.061-.195.118-.064.127.13.008.898-.253 1.706-.581 1.195-.485 1.658-.866.565-.465m31.857 1.413c.356.193 1.502.825 2.546 1.405 2.149 1.192 2.799 1.413 1.035.351-.641-.386-1.226-.703-1.299-.703-.073 0-.624-.316-1.224-.702-.599-.386-1.228-.702-1.398-.702-.169 0-.016.158.34.351m-36.072.351c-.374.276-.778.502-.898.502-.121 0-.71.316-1.309.702-.6.387-1.003.701-.897.699.107-.002.592-.273 1.077-.602.486-.329.983-.599 1.104-.599.122-.001.627-.271 1.124-.602.497-.33.808-.6.691-.601-.116 0-.517.225-.892.501m-5.318 3.096c-3.215 2.362-5.765 4.557-7.239 6.229a28.197 28.197 0 0 1-1.291 1.375l-.502.478.528-.38c.29-.209.913-.828 1.384-1.374a23.72 23.72 0 0 1 1.883-1.898c.565-.496 1.206-1.063 1.426-1.26.219-.196.82-.693 1.336-1.104.905-.721 1.324-1.028 3.478-2.548.551-.389.913-.705.803-.703-.11.003-.923.536-1.806 1.185m46.663-.587c.729.601 3.862 2.907 4.215 3.103.473.262.037-.116-1.405-1.218-1.383-1.058-3.66-2.585-2.81-1.885m5.821 4.631c.386.372 1.018.885 1.404 1.139.684.451.682.444-.1-.253-1.23-1.097-2.228-1.775-1.304-.886m2.787 2.745c.474.579.936 1.053 1.025 1.053.089 0 .348.294.575.653.227.358 1.001 1.465 1.721 2.458.719.994 1.677 2.529 2.128 3.412.778 1.524 1.427 2.512 1.054 1.606-.463-1.127-1.818-3.409-2.977-5.018a276.639 276.639 0 0 1-1.65-2.306c-.192-.275-.886-1.043-1.543-1.706l-1.195-1.206.862 1.054m-32.441 1.001c.635.04 1.673.04 2.308 0 .635-.04.115-.072-1.154-.072-1.27 0-1.789.032-1.154.072m60.737.203c-.24.305-.236.321.025.122.166-.126.482-.274.703-.328.381-.094.38-.1-.026-.122-.235-.013-.551.135-.702.328m27.773-.213c.193.05.509.05.702 0 .193-.051.035-.092-.351-.092-.387 0-.545.041-.351.092m144.505 0c.194.05.51.05.703 0 .193-.051.035-.092-.351-.092-.387 0-.545.041-.352.092m27.697.107c-.972.469-.59 9.196.414 9.466.739.198 11.655.132 11.98-.073.249-.158.303-.85.316-4.061l.015-3.871-.116 3.77c-.093 3.045-.173 3.808-.416 3.961-.171.108-2.746.192-5.94.193-7.102.004-6.382.552-6.465-4.922l-.061-4.082.563-.305c.639-.346.401-.409-.29-.076m-264.576.163c-2.376.421-6.895 1.994-5.743 1.999.097.001.458-.166.802-.371.56-.333 3.492-1.129 5.945-1.614 1.12-.222.236-.234-1.004-.014m8.329-.061c1.508.218 5.695 1.312 6.379 1.667 1.009.524 1.226.502.346-.035-.806-.491-5.811-1.794-6.719-1.749l-.608.03.602.087m86.102.137c1.851.523 2.036.555 1.326.227-.374-.173-1.051-.358-1.505-.412-.803-.096-.798-.091.179.185m144.706.041c1.636.485 2.087.528.911.087-.603-.227-1.28-.406-1.505-.398-.225.007.042.147.594.311m43.331-.041c-.06.157-.077.541-.037.853.059.465.09.412.171-.284.101-.877.057-1.066-.134-.569m13.013.72c0 .386.041.544.092.351.05-.193.05-.509 0-.702-.051-.194-.092-.036-.092.351m-231.004 26.191c-.036 21.195.007 26.797.208 27.196l.254.501 13.14.048c10.689.039 13.44-.006 14.746-.24.883-.159 1.245-.239.803-.179-1.557.21-28.288.288-28.6.082-.264-.173-.314-3.49-.403-27.149l-.102-26.952-.046 26.693M41.513 76.52c-.501.58-1.074 1.371-1.273 1.756-.199.385-.516.926-.703 1.202-1.237 1.824-1.805 2.738-1.805 2.908 0 .255 2.097-2.943 2.719-4.148.266-.517.57-.992.675-1.056.226-.14 1.492-1.718 1.378-1.718-.044 0-.489.475-.991 1.056m127.177-.71c.221.054.931.32 1.578.591.646.27 1.21.457 1.252.414.125-.125-2.504-1.152-2.884-1.127-.275.019-.264.044.054.122m145.209.271c.607.222 1.645.596 2.308.831.662.235 1.656.731 2.207 1.101l2.067 1.382c1.467.979 4.6 4.203 5.164 5.314.256.504.605 1.032.775 1.173.171.142-.022-.303-.428-.988-.765-1.288-3.894-4.623-5.112-5.448-2.599-1.759-3.574-2.346-4.276-2.572a31.692 31.692 0 0 1-1.947-.733c-.631-.262-1.308-.473-1.505-.47-.196.004.14.188.747.41M172.411 77.24c1.575.839 2.706 1.525 2.77 1.678.037.09.263.266.501.391l.434.228-.401-.452c-.221-.249-.735-.623-1.142-.831a16.726 16.726 0 0 1-1.483-.881c-.409-.277-.885-.504-1.058-.504-.174 0-.003.167.379.371m-83.701.825c2.552 1.478 2.558 1.48 2.008 1.025-.565-.466-3.307-2.022-3.554-2.016-.087.002.608.448 1.546.991m-25.796-.583c-.072.116-.608.422-1.191.68-.583.258-1.12.567-1.194.687-.075.12-.651.559-1.28.975-1.425.942-4.043 3.414-5.138 4.851-1.645 2.16-2.33 3.131-2.33 3.303 0 .096.384-.366.853-1.028 2.359-3.328 4.542-5.577 6.881-7.09.714-.461 1.298-.907 1.298-.99 0-.083.376-.302.836-.486.878-.351 1.981-1.114 1.611-1.114-.119 0-.275.096-.346.212M178.327 81.6c1.213 1.222 2.431 2.546 2.707 2.942.276.396.535.687.575.648.192-.188-3.97-4.705-5.088-5.521-.219-.16.594.709 1.806 1.931m-84.499.047a64.88 64.88 0 0 1 2.179 2.231c.757.81 1.282 1.298 1.168 1.085-.276-.515-3.751-4.081-3.974-4.077-.097.001.186.343.627.761M37.18 83.43c-.248.381-.445.799-.437.929.007.13.075.102.15-.064a7.89 7.89 0 0 1 .515-.859c.208-.307.344-.59.301-.628-.042-.039-.281.241-.529.622m76.418-.045c0 .21.806 1.512.935 1.512.056 0-.103-.339-.352-.752-.554-.923-.583-.96-.583-.76m-77.054 1.512c-.009.166-.287.874-.618 1.574-.331.699-.6 1.377-.598 1.505.002.128.325-.47.717-1.328.392-.859.669-1.672.614-1.807-.065-.161-.105-.141-.115.056m61.101 1.027c.772.911 1.403 1.891 2.248 3.489.466.883.851 1.536.854 1.451.011-.294-1.566-3.28-1.862-3.526-.163-.136-.4-.494-.525-.797-.126-.303-.429-.673-.674-.823l-.446-.272.405.478m84.251.077c.366.708.928 1.466.938 1.263.006-.136-.902-1.545-1.135-1.76-.063-.058.026.166.197.497m-31.69.254c-.66.44-.683.977-.683 15.875v14.85l.529.416c.502.395.746.414 4.767.37l4.238-.045-4.178-.059c-3.415-.048-4.267-.117-4.667-.379l-.488-.32v-14.738c0-15.444.011-15.652.849-15.989.14-.057.165-.109.054-.116a.822.822 0 0 0-.421.135m5.539.046c4.577.152 7.133.582 8.235 1.384.279.204.868.554 1.309.779 1.055.538 3.177 2.827 4.135 4.461.42.718.766 1.23.768 1.139.022-1-3.377-5.018-4.907-5.802a12.545 12.545 0 0 1-1.305-.772c-1.233-.886-3.446-1.236-8.135-1.286l-4.415-.047 4.315.144m138.786.071c-.535.399-.748 30.224-.221 30.945.271.371.558.396 4.67.415l4.382.02-4.235-.12c-3.174-.091-4.318-.19-4.569-.399-.486-.403-.414-30.427.073-30.735.504-.318 8.573-.239 10.355.102.857.164 1.594.263 1.637.22.563-.562-11.345-1.004-12.092-.448m-179.524.091c-.003.143.129.519.292.834.163.316.473 1.192.688 1.947.216.755.398 1.231.406 1.058.008-.173-.123-.776-.29-1.341-.359-1.208-1.09-2.874-1.096-2.498m211.737-.031c0 .12.167.433.372.696.204.263.517.75.694 1.081.177.331.326.508.33.394.005-.114-.308-.698-.694-1.297-.386-.6-.702-.993-.702-.874m-19.209.78a6.84 6.84 0 0 1 1.336.688c.744.53 1.023.532.35.002-.582-.458-1.8-1.005-2.19-.984-.141.008.085.14.504.294m-124.579.696c.141.542 1.289 2.4 1.289 2.086 0-.105-.15-.404-.332-.665-.183-.261-.502-.8-.71-1.199-.253-.486-.335-.559-.247-.222m-110.394.175c-.327.07.757.127 2.408.126 1.652 0 3.5.062 4.107.139 1.077.136 1.072.133-.201-.141-1.316-.283-5.216-.36-6.314-.124m-21.334.968c-.726 1.113-1.833 3.639-1.947 4.441-.096.68-.083.667.172-.165.369-1.207 1.453-3.531 1.977-4.241.233-.314.384-.607.337-.65-.047-.043-.29.234-.539.615m19.526-.595c-1.654.419-5.131 3.04-6.769 5.102-.692.87-2.062 3.555-1.898 3.719.04.04.366-.582.724-1.383 1.372-3.068 5.142-6.405 8.238-7.291.84-.24.581-.369-.295-.147m239.833.473a21.184 21.184 0 0 1 2.765 2.802c.306.381.237.228-.154-.34-.643-.933-2.348-2.56-3.113-2.971-.165-.089.061.14.502.509m-229.604.06c.442.261 1.029.537 1.305.613.276.076-.03-.139-.681-.477-1.402-.73-1.757-.807-.624-.136m169.995-.267c-.331.094-1.098.303-1.706.464-.607.161-.917.301-.688.31.228.01.905-.133 1.505-.316.6-.183 1.722-.396 2.495-.472l1.405-.139-1.204-.009c-.663-.005-1.475.068-1.807.162m6.423-.021c.883.09 1.86.265 2.171.388.856.339 1.14.252.338-.104-.396-.176-1.448-.342-2.409-.381l-1.706-.068 1.606.165m70.758.511c-.006.111.184.698.421 1.305s.553 1.555.702 2.107l.271 1.004-.103-.854c-.094-.783-1.267-4.021-1.291-3.562m-137.648.614l-.446.312.049 13.787.049 13.787.053-13.739c.035-9.186.122-13.809.262-13.949.129-.13 2.321-.25 5.769-.316l5.559-.107-5.424-.044c-4.634-.037-5.49.002-5.871.269m29.91-.163c1.629.034 4.293.034 5.921 0 1.628-.033.296-.061-2.96-.061-3.257 0-4.589.028-2.961.061m42.299.235c1.807.731 3.568 1.59 3.701 1.804.074.121.233.22.351.22.119 0-.002-.172-.269-.382-.582-.458-4.022-2.031-4.412-2.017-.151.005.132.174.629.375m72.704-.054l-.652.322v38.503l.501.501.501.501 5.838-.059c6.272-.063 6.436-.093 6.393-1.151-.008-.193-.082-.138-.195.142-.306.763-.986.85-6.614.85h-5.392l-.416-.529c-.584-.743-.666-38.351-.084-38.834.256-.213 1.611-.3 5.971-.384l5.639-.107-5.419-.038c-4.618-.033-5.515.009-6.071.283m-300.881.229c-.115.216-.256.789-.312 1.272l-.102.878.216-.903c.119-.497.31-1.019.425-1.159.115-.141.159-.307.097-.369s-.208.065-.324.281m167.765-.179l.502.139.103 12.234.102 12.234.048-12.153c.05-12.801.06-12.658-.845-12.614-.345.017-.33.043.09.16m43.352.421c-2.29.984-3.951 2.137-6.512 4.517-.854.794.219-.02 1.595-1.209a18.336 18.336 0 0 1 5.168-3.193c.745-.308 1.354-.595 1.354-.638 0-.138-.276-.048-1.605.523m101.706-.394l.451.181.049 18.622.05 18.622.052-18.543c.054-19.109.054-19.107-.727-19.076-.221.008-.181.071.125.194M229.7 109.383c0 10.652.024 15.01.054 9.684.03-5.326.03-14.042 0-19.368-.03-5.326-.054-.968-.054 9.684m-12.847-7.527c0 6.403.025 9.051.056 5.885.031-3.165.031-8.404 0-11.64-.031-3.237-.056-.647-.056 5.755M85.612 92.229c.821.832 1.493 1.587 1.493 1.679 0 .091.271.507.602.924.331.417.602.659.602.54 0-.12-.226-.462-.502-.76s-.501-.615-.501-.705c0-.229-2.395-2.767-2.83-3-.196-.104.315.49 1.136 1.322m30.818-1.311c0 .166.17.708.379 1.204.208.497.379.768.379.603 0-.166-.171-.708-.379-1.205-.209-.496-.379-.767-.379-.602m68.023.623c-.004.066.218 1.033.494 2.148.276 1.115.514 2.326.529 2.689.022.529.046.564.119.176.104-.552-.491-3.624-.877-4.532-.141-.331-.26-.548-.265-.481m-83.482.481c0 .11.218.607.484 1.104.266.497.484.813.484.702 0-.11-.218-.607-.484-1.103-.266-.497-.484-.813-.484-.703m166.866.519c.817.671 2.862 2.737 4.09 4.131l.677.769-.577-.787c-.762-1.039-3.991-4.268-4.551-4.551-.243-.123-.08.074.361.438m-234.011.894c-.078.621-.099 1.171-.048 1.222.05.051.156-.416.233-1.037.078-.621.1-1.172.049-1.223-.051-.051-.156.416-.234 1.038m83.431.293c0 .386.041.544.092.351.05-.193.05-.509 0-.702-.051-.193-.092-.035-.092.351m197.493.715c.245.504.477.82.516.703.067-.2-.704-1.619-.879-1.619-.045 0 .118.412.363.916m14.815-.368c-.007.136.118.588.277 1.004.159.416.33.937.379 1.158.07.317.091.295.101-.101.012-.498-.736-2.533-.757-2.061m-227.509.556c.05.331.274 1.492.497 2.579.572 2.776.568 7.224-.009 9.887-.503 2.32-.401 2.72.135.533.632-2.581.53-9.136-.182-11.694-.292-1.049-.491-1.636-.441-1.305M48.62 95.988c-.248.799-.448 1.589-.443 1.754.005.166.231-.376.502-1.204s.47-1.617.443-1.754c-.028-.137-.254.405-.502 1.204m-15.277.45c-.662 3.87-.509 9.144.384 13.246.283 1.304.038-1.032-.344-3.273-.362-2.125-.29-7.594.125-9.411.131-.574.21-1.296.174-1.606-.04-.346-.17.053-.339 1.044m84.115-.904c0 .387.041.545.091.352.051-.194.051-.51 0-.703-.05-.193-.091-.035-.091.351m53.265.301c.073.221.249.808.391 1.305.177.616.261.743.267.401.005-.276-.171-.863-.391-1.304-.22-.442-.34-.622-.267-.402m67.333.352c-.23.358-.741 1.104-1.135 1.655-.671.939-.328.583.774-.802.516-.649 1.009-1.506.867-1.506-.048 0-.276.294-.506.653m77.351-.151c.051.331.238 1.505.415 2.609.308 1.911.305 4.697-.007 7.527-.055.496.039.225.208-.603.418-2.048.261-6.528-.304-8.63-.222-.828-.362-1.234-.312-.903m-226.896.407c-.001.113.148.42.331.68.183.261.399.756.481 1.099.131.547.151.562.163.122.008-.276-.208-.863-.48-1.304-.272-.442-.495-.71-.495-.597m29.26 1.098c.182 1.678.181 7.569-.002 9.132-.132 1.13-.127 1.149.069.301.368-1.584.425-7.532.089-9.232l-.297-1.505.141 1.304m212.632-.2c0 .386.041.544.092.351.05-.193.05-.509 0-.703-.051-.193-.092-.035-.092.352m-75.859-.057c.305.046.756.045 1.003-.003.247-.047-.003-.085-.555-.084-.551.002-.753.041-.448.087m-68.827 1.462c0 .828.036 1.166.079.752a8.795 8.795 0 0 0 0-1.505c-.043-.414-.079-.075-.079.753m65.864-.917c-.552.266-.932.491-.843.499.088.009.424-.12.746-.287a7.082 7.082 0 0 1 1.344-.481c.565-.133.631-.183.258-.197-.276-.009-.954.2-1.505.466m5.82-.208c1.919.607 3.246 1.548 4.218 2.991.384.571.699.939.699.817 0-.255-.6-1.084-1.489-2.055-.664-.727-3.154-2.042-3.824-2.02-.226.008-.05.126.396.267m-195.657.364c-.067.253-.115.64-.105.861.009.221.1.049.201-.382.195-.834.112-1.254-.096-.479m211.015.081c.006.234.788 1.232.794 1.012.002-.093-.176-.398-.397-.679-.221-.281-.399-.43-.397-.333M171.46 99.147c0 .607.038.856.084.552.046-.304.046-.8 0-1.104-.046-.303-.084-.055-.084.552m-123.425.602c0 .828.036 1.167.079.753a8.807 8.807 0 0 0 0-1.506c-.043-.413-.079-.075-.079.753m201.547-.783c-.39.342-.988.997-1.331 1.455l-.622.833.709-.802a19.054 19.054 0 0 1 1.457-1.456c.412-.358.691-.652.622-.652-.07 0-.446.28-.835.622m81.057 2.89c0 1.877.03 2.672.067 1.766.037-.905.037-2.44.001-3.411-.037-.972-.068-.231-.068 1.645M89.56 99.749c0 .386.041.545.092.351.05-.193.05-.509 0-.702-.051-.193-.092-.035-.092.351m184.121 0c.202.812 1.155 3.204 1.241 3.118.074-.074-.75-2.333-1.174-3.218-.164-.341-.174-.326-.067.1m-212.219.402c0 .386.041.544.091.351.051-.193.051-.51 0-.703-.05-.193-.091-.035-.091.352m110.203 1.404c0 .718.036 1.011.081.653a6.467 6.467 0 0 0 0-1.305c-.045-.359-.081-.065-.081.652m14.243.101c.001.552.04.754.086.449a3.581 3.581 0 0 0-.002-1.004c-.048-.247-.086.003-.084.555m49.26-.258c-.362.775-.751 2.137-.732 2.566.007.165.17-.241.362-.903.192-.663.463-1.415.604-1.673.14-.258.215-.51.165-.559-.05-.05-.229.206-.399.569m-173.892.659c.002.663.039.909.084.549a5.442 5.442 0 0 0-.002-1.205c-.046-.301-.083-.006-.082.656m28.502.101c0 .717.037 1.011.081.652a6.324 6.324 0 0 0 0-1.305c-.044-.358-.081-.065-.081.653m173.054 1.103c.659 1.891.594 1.907-8.01 1.907h-7.133l-.563-.488c-.452-.391-.513-.538-.312-.742.138-.14.251-.347.251-.46 0-.113-.14-.006-.31.237-.355.507-.149 1.1.502 1.448.845.453 14.936.262 15.536-.21.599-.472.651-.867.207-1.591-.204-.331-.261-.366-.168-.101m-214.797 1.305c0 .828.036 1.167.079.753a8.807 8.807 0 0 0 0-1.506c-.043-.414-.079-.075-.079.753m123.431-.1c.001.772.037 1.064.08.647a7.472 7.472 0 0 0-.001-1.404c-.045-.357-.08-.016-.079.757m14.255.401c-.001.994.033 1.425.075.959a12.94 12.94 0 0 0 .002-1.806c-.042-.528-.076-.146-.077.847m-124.255-.803c.002.442.043.599.091.349s.046-.611-.004-.803c-.05-.192-.09.013-.087.454m28.098.402c.002.441.043.598.091.349.048-.25.046-.611-.004-.803-.05-.192-.089.012-.087.454m144.383 1.057c-.205.647-.328 1.352-.274 1.565.075.296.104.262.122-.139.013-.29.164-.864.335-1.274.172-.411.285-.878.251-1.038-.033-.161-.229.238-.434.886m41.425-.217c-.005.13.091.492.212.802.121.311.298.972.394 1.469l.175.903-.08-1.004c-.071-.888-.681-2.777-.701-2.17m-186.036.524c-.013.199-.161.628-.33.954-.168.325-.261.592-.205.592.215 0 .732-1.25.647-1.569-.078-.297-.092-.294-.112.023m81.91.743c0 .386.041.544.092.351.05-.193.05-.509 0-.702-.051-.193-.092-.035-.092.351m159.157 0c0 .386.041.544.092.351.05-.193.05-.509 0-.702-.051-.193-.092-.035-.092.351m-268.585-.214c-.002.351.814 2.074.929 1.96.045-.045-.145-.569-.423-1.165-.277-.595-.505-.953-.506-.795m-13.432.944c-.009.125.115.531.276.903.162.371.293.54.292.374-.001-.371-.546-1.594-.568-1.277m137.093.499c-.016.399-.256 1.617-.532 2.705-.57 2.249-.596 2.442-.209 1.551.4-.919.953-3.786.855-4.432-.07-.459-.089-.43-.114.176m129.936.087c-.075.403-.097.772-.048.821.049.049.151-.24.226-.643.076-.403.098-.772.049-.821-.049-.049-.151.24-.227.643m-144.667.345c-.483 1.171-.436 1.455.06.362.221-.488.377-.96.346-1.05-.03-.09-.213.22-.406.688m159.14.543c-.199.671-.321 1.375-.271 1.565.072.274.095.26.114-.07.013-.229.167-.837.342-1.352.175-.515.287-1.032.248-1.149-.039-.117-.234.336-.433 1.006m-96.395 1.208c0 1.269.032 1.789.072 1.154.04-.635.04-1.673 0-2.308-.04-.635-.072-.115-.072 1.154m-116.035-1.405c0 .386.041.544.091.351a1.63 1.63 0 0 0 0-.702c-.05-.193-.091-.035-.091.351m-29.715.649c-.367.547-.635 1.027-.596 1.065.039.039.376-.376.749-.923s.641-1.026.596-1.066c-.045-.039-.383.377-.749.924m188.464 1.083c-.026 1.063-.133 1.707-.306 1.851-.185.154-4.591.237-14.667.275-16.165.063-14.972-.059-14.972 1.519 0 .661.563 2.155.743 1.974.049-.048-.053-.363-.227-.699-.173-.336-.314-.909-.312-1.273.006-1.356-1.089-1.259 14.815-1.32 16.787-.064 15.147.195 15.035-2.379l-.069-1.58-.04 1.632m38.544-.256c-.402.918-.409.977-.06.531.363-.465.71-1.379.572-1.508-.033-.031-.263.409-.512.977m-197.494.33c0 .387.041.545.092.352.05-.194.05-.51 0-.703-.051-.193-.092-.035-.092.351m-15.864.913c-.605 1.245-.538 1.419.085.222.279-.535.472-1.008.43-1.05-.042-.041-.274.331-.515.828m68.008.35c-.372.685-1.032 1.676-1.466 2.201-.434.525-.668.904-.519.843.466-.193 2.939-4.013 2.732-4.221-.038-.038-.374.492-.747 1.177m-135.436-.46c0 .387.042.545.092.351a1.63 1.63 0 0 0 0-.702c-.05-.193-.092-.035-.092.351m30.222-.301c1.108 2.126 6.595 5.381 8.927 5.295.55-.02.512-.047-.259-.181-2.949-.515-5.486-1.94-7.8-4.38-.593-.624-.983-.955-.868-.734m265.162.351c-.003.249-.226 1.079-.497 1.846-.587 1.666-.522 2.026.078.424.449-1.2.756-2.721.549-2.721-.07 0-.128.203-.13.451m-279.965-.05c.007.299.966 2.227.983 1.977.005-.072-.216-.614-.49-1.204-.275-.591-.497-.938-.493-.773m67.382.867a8.376 8.376 0 0 0-.449 1.642c-.122.886-.074.786.521-1.07.469-1.462.425-1.809-.072-.572m-31.869.655a115.42 115.42 0 0 0-1.605 1.329c-.276.237-.909.591-1.405.787-.497.197-.788.362-.646.367.382.014 1.719-.569 1.95-.85.111-.135.715-.635 1.343-1.113 1.01-.768 1.756-1.459 1.542-1.429-.041.005-.572.415-1.179.909m228.3.283c-.886 1.369-2.599 2.786-4.395 3.636-.674.319-1.11.58-.969.58 1.454.001 6.88-4.671 6.207-5.345-.038-.037-.417.471-.843 1.129m-79.549-.099c-.002.331.172 1.099.388 1.706.41 1.156.388.903-.095-1.104-.192-.798-.291-1.001-.293-.602m-199.305.502c-.003.165.167.617.379 1.003.489.894.489.555 0-.501-.205-.442-.375-.668-.379-.502m16.156.401c.066.276.355.728.643 1.004.466.447.48.45.132.032a5.67 5.67 0 0 1-.642-1.004c-.247-.524-.25-.525-.133-.032m49.175 1.352c-1.136 2.13-2.272 3.73-3.723 5.241-.599.624-1.494 1.586-1.989 2.138-.495.552.04.047 1.189-1.121s2.451-2.636 2.892-3.262c.946-1.34 2.769-4.556 2.651-4.674-.045-.045-.504.71-1.02 1.678m116.834-1.045c-.891 2.934-2.678 4.931-4.935 5.517l-.735.191.766-.087c1.257-.142 4.146-2.351 4.153-3.175.001-.134.23-.733.508-1.33.278-.598.473-1.182.434-1.3-.039-.117-.125-.034-.191.184m-32.89.97c-.289.457-.635 1.168-.767 1.581-.133.412-.326.802-.43.866-.104.064-.378.495-.61.956-.232.462-.614 1.065-.85 1.34l-.429.5.473-.4c.26-.22.688-.822.95-1.339.262-.516.561-.992.666-1.056.104-.065.296-.455.427-.867.13-.413.466-1.091.746-1.507.281-.416.474-.789.43-.83-.043-.041-.316.299-.606.756m-67.934.791a48.16 48.16 0 0 1-.568 1.645c-.086.221.018.131.231-.2.363-.564.956-2.479.813-2.623-.036-.036-.25.494-.476 1.178m87.473-.663c0 .387.042.545.092.351a1.63 1.63 0 0 0 0-.702c-.05-.193-.092-.035-.092.351m-36.729.088c-.211.269-1.053.81-1.871 1.202-.817.392-1.371.714-1.23.715.51.005 2.964-1.399 3.316-1.896.46-.651.294-.667-.215-.021m-86.181.12c-.185.108-.862.323-1.505.479-.644.156-1.007.291-.808.3.567.026 2.204-.418 2.643-.717.451-.308.179-.359-.33-.062m154.194.744c-.032.705 1.695 4.775 2.427 5.721 2.245 2.903 4.444 4.88 6.584 5.922.276.134.728.394 1.004.578.356.236.326.181-.101-.192-.331-.289-.774-.583-.984-.655-1.532-.521-4.628-3.291-6.147-5.502-.265-.386-.59-.814-.723-.951-.132-.136-.396-.723-.586-1.304a16.02 16.02 0 0 0-.722-1.806 8.314 8.314 0 0 1-.554-1.505c-.112-.473-.186-.588-.198-.306m-199.111.052c.007.352 1.198 2.809 1.198 2.471 0-.125-.271-.8-.602-1.5-.331-.7-.599-1.137-.596-.971m168.005.126a.955.955 0 0 0 .305.699c.181.15.53.592.776.982.497.787 2.295 1.818 3.113 1.785.397-.016.356-.054-.204-.187-.834-.198-2.608-1.156-2.608-1.408 0-.098-.261-.474-.579-.836-.318-.363-.623-.84-.679-1.061-.096-.382-.102-.38-.124.026m-151.939-.007c-.009.121-2.201 2.402-4.872 5.068-2.671 2.666-4.806 4.848-4.743 4.848.278 0 9.805-9.712 9.723-9.912-.065-.157-.097-.158-.108-.004m23.416.028c.469.042 1.237.042 1.706 0 .469-.043.085-.077-.853-.077s-1.322.034-.853.077m252.694.349c-.188.251-.618.942-.956 1.536-.688 1.208-.358.831.706-.806.714-1.099.873-1.563.25-.73m-165.69.646c.194.05.51.05.703 0 .193-.051.035-.092-.351-.092-.387 0-.545.041-.352.092m104.667.011c1.242.035 3.274.035 4.515 0 1.242-.035.226-.064-2.257-.064-2.484 0-3.5.029-2.258.064m-106.571.193c.25.048.611.046.803-.004.192-.05-.013-.09-.454-.087-.442.002-.599.043-.349.091m102.97.209a4.106 4.106 0 0 0-.455.652c-.084.166.06.06.321-.236.26-.296.654-.579.875-.629.384-.088.384-.092-.019-.115-.232-.013-.557.135-.722.328m11.729-.152c.474.3.444.636-.164 1.835-.283.559-.48 1.052-.437 1.094.043.043.339-.467.658-1.134.593-1.243.561-1.768-.121-1.944-.167-.042-.14.02.064.149m29.707-.055c.305.046.757.045 1.003-.003.247-.047-.002-.085-.554-.084-.552.002-.754.041-.449.087m-56.852.18c0 .502 2.639 3.289 3.115 3.289.077 0-.274-.342-.78-.76a11.046 11.046 0 0 1-1.627-1.756c-.389-.547-.708-.896-.708-.773m-57.14 1.282c0 .607.038.855.084.551.046-.303.046-.8 0-1.103-.046-.304-.084-.056-.084.552m-76.099.639c-.258.448-.369.752-.246.677.249-.154.888-1.316.782-1.422-.037-.038-.279.298-.536.745m147.111.092c-.521.541-1.462 1.194-2.303 1.597-.782.375-1.309.682-1.172.682.922 0 4.455-2.467 4.455-3.111 0-.174-.08-.106-.98.832m-224.696-.33c.141.52 1.085 2.22 1.088 1.96.001-.081-.274-.668-.611-1.305-.338-.636-.552-.931-.477-.655m288.813.571c-.325.629-4.448 4.848-4.738 4.848-.1 0-.488.269-.862.598-.375.329-.898.685-1.161.79-.317.127-.367.196-.148.205.183.007.7-.281 1.15-.64.45-.358 1.325-1.058 1.944-1.555 1.688-1.354 4.717-4.817 4.213-4.817-.057 0-.235.257-.398.571m-116.775-.024c.359.044.946.044 1.305 0 .359-.045.065-.081-.652-.081-.718 0-1.011.036-.653.081m-29.553 2.066c-.773.877-1.459 1.596-1.525 1.598-.065.002-.752.535-1.526 1.185-.775.65-1.624 1.247-1.888 1.326-.264.079-.841.348-1.283.597-.441.25-1.163.571-1.603.713-.906.293-3.028 1.29-2.411 1.132.581-.148 2.817-1.069 4.215-1.735.662-.316 1.296-.604 1.408-.64.78-.252 5.431-4.507 5.94-5.434.313-.571.15-.416-1.327 1.258m-66.233.155c-1.152 2.267-2.265 3.931-4.214 6.296a63.592 63.592 0 0 0-1.405 1.759c-.434.585-4.278 4.369-4.861 4.786-.319.227-.312.234.064.059.976-.453 6.11-5.844 7.371-7.74.293-.442.699-1.029.9-1.305.905-1.238 1.367-1.99 2.192-3.568.487-.93.852-1.722.812-1.762-.04-.04-.426.624-.859 1.475m77.586-1.288c-.015.418.999 2.793 1.135 2.657.047-.047-.072-.388-.264-.757a11.21 11.21 0 0 1-.604-1.473c-.139-.442-.26-.634-.267-.427m83.031.49c-.187.296-.5.765-.696 1.04-.327.46-.328.479-.01.229.394-.311 1.239-1.615 1.123-1.731-.042-.043-.23.165-.417.462m-21.529.245c1.123.543 1.353.58 3.412.551l2.208-.031-2.308-.119c-1.779-.092-2.531-.221-3.279-.565-1.417-.651-1.445-.518-.033.164m-213.912.799c.456.847 1.928 3.015 1.999 2.944.095-.095-1.118-2.011-1.739-2.747-.233-.276-.35-.365-.26-.197m233.173 1.832c-.659.679-.972 1.066-.696.861.509-.379 2.128-2.094 1.977-2.094-.046 0-.622.555-1.281 1.233m-179.434.021l-.59.652.653-.589c.608-.55.744-.715.589-.715-.035 0-.328.293-.652.652m99.862-.309c0 .705 3.858 4.875 4.511 4.875.065 0-.576-.605-1.424-1.345-.849-.74-1.89-1.883-2.315-2.54-.425-.657-.772-1.103-.772-.99m-101.756 1.563c-.374.276-.595.499-.491.495.202-.008 1.472-.994 1.282-.995-.061-.001-.417.224-.791.5m125.909.171c-.645.676-1.092 1.08-2.455 2.219-.475.397-.797.721-.716.721.194 0 2.659-2.107 3.308-2.827.605-.671.967-.537 1.199.443l.16.678.02-.72c.032-1.118-.702-1.367-1.516-.514m-175.572.186c.193.504.75.764 1.104.514.236-.168.224-.185-.06-.094-.212.069-.513-.062-.765-.332-.321-.343-.384-.363-.279-.088m22.166.371c.276.11.683.36.904.556.453.403 3.969 1.831 4.482 1.821.184-.004-.117-.17-.669-.37-2.531-.914-3.453-1.323-3.979-1.761-.312-.259-.719-.466-.903-.459-.217.008-.158.084.165.213m-5.767 4.507c-2.454 2.475-4.411 4.499-4.348 4.499.12 0 7.934-7.803 8.591-8.58.892-1.054-.031-.166-4.243 4.081m211.281-3.734c-1.771 1.287-1.963 1.457-.897.799 1.409-.872 2.4-1.597 2.181-1.597-.102 0-.679.359-1.284.798m-180.727-.09c-.441.271-.712.494-.602.494.243.001 1.505-.753 1.505-.898 0-.149-.02-.14-.903.404m229.518.123c-.6.316-.98.574-.845.574.239 0 1.435-.584 2.035-.993.573-.391-.106-.152-1.19.419m49.388.43c-.016.307-.161.871-.321 1.254l-.29.696h-11.594l-.254-.476a6.36 6.36 0 0 1-.432-1.154l-.177-.678.087.774c.049.425.231.991.405 1.257l.317.484 5.864-.053 5.864-.054.365-.747c.2-.411.327-.998.281-1.304l-.085-.558-.03.559m-148.93.1c-.088 1.96.339 2.087 6.703 2.005l4.816-.062-5.056-.047c-5.691-.052-5.915-.111-6.278-1.655-.115-.487-.171-.56-.185-.241m-132.284.345c-.607.267-1.002.489-.879.494.124.004.711-.213 1.305-.483.594-.269.989-.491.879-.493-.111-.002-.698.215-1.305.482m229.102.205c-1.315.647-.858.644.532-.003.59-.274.938-.497.773-.495-.166.002-.753.226-1.305.498m-50.28 1.004c-1.051.373-2.496.769-3.212.881l-1.3.202 1.271-.091c1.068-.077 5.08-1.26 5.418-1.598.2-.199-.294-.062-2.177.606m-181.782-.368c.193.05.509.05.702 0 .193-.051.035-.092-.351-.092s-.544.041-.351.092m85.298 0c.193.05.51.05.703 0 .193-.051.035-.092-.351-.092-.387 0-.545.041-.352.092m-87.656.357c-.552.148-1.23.311-1.506.361l-.501.092.501.019c.276.01 1.179-.151 2.007-.359.828-.208 1.28-.379 1.004-.38-.276-.001-.954.119-1.505.267m86.051-.157c.193.051.509.051.702 0 .193-.05.035-.091-.351-.091s-.544.041-.351.091m63.516.38c-.27.36-.286.45-.066.366a.838.838 0 0 0 .412-.427c.188-.489.046-.464-.346.061m17.517-.097c.607.224 1.33.447 1.606.496.276.048.366.036.201-.029-.166-.064-.725-.29-1.242-.502-.517-.212-1.104-.383-1.304-.379-.201.003.132.189.739.414m33.518-.283c0 .659.465.679 14.178.597 8.468-.05 13.998-.161 14.622-.293l1.004-.212-1.004.103c-3.275.335-28.294.283-28.545-.06-.14-.192-.255-.253-.255-.135m-208.731.374c.497.157 1.129.278 1.405.271.28-.008.013-.136-.602-.29-1.437-.358-1.962-.346-.803.019m126.529.175c.545.271 1.583.583 2.308.694 1.732.263 4.115.445 3.973.304-.061-.062-1.072-.196-2.247-.298-1.174-.102-2.604-.351-3.178-.555-1.808-.64-1.868-.65-.856-.145m12.257-.074c-.442.209-.984.389-1.204.401-.221.012-.29.066-.153.122.298.12 1.598-.28 2.154-.663.554-.381.157-.311-.797.14m-135.618.338c.583.041 1.486.04 2.007-.001.521-.041.043-.074-1.061-.074-1.103.001-1.529.034-.946.075m174.755.243c.619.168 2.039.27 1.89.136-.046-.042-.626-.126-1.288-.188-.792-.073-.998-.056-.602.052m-41.796.149c.193.05.509.05.702 0 .193-.051.035-.092-.351-.092-.387 0-.545.041-.351.092m-2.514.207c.357.044.989.045 1.405.001.417-.043.125-.079-.648-.08-.772-.001-1.113.034-.757.079m47.276.003c.528.041 1.341.041 1.807-.001.465-.043.034-.076-.96-.076-.993.001-1.374.035-.847.077m3.256.048c-.332.081.255.103 1.304.049 1.049-.055 1.944-.132 1.99-.172.154-.134-2.683-.028-3.294.123m-203.991 5.443c-.332.952-.276 1.346.227 1.59.436.211.438.208.06-.095-.351-.281-.368-.404-.166-1.163.272-1.018.193-1.234-.121-.332m49.643-.127c-.327.272-1.001.828-1.498 1.235-.497.407-.794.704-.661.659.266-.088 1.094-.73 2.233-1.731.86-.756.8-.889-.074-.163m-47.853 2.598l1.787 1.12c.48.303.606.335.414.104-.151-.183-.642-.518-1.091-.746-.449-.228-1.031-.583-1.295-.788-.263-.206-.576-.374-.695-.374-.12 0 .276.308.88.684m44.526-.31c-.264.205-.84.571-1.282.813-1.328.727-2.418 1.415-2.248 1.419.205.004 1.296-.559 1.947-1.005a69.44 69.44 0 0 1 1.49-.972c.543-.346.894-.629.779-.629-.114 0-.423.168-.686.374m-41.305 2.1c.367.288 1.788.898 1.679.721-.077-.124-.441-.352-.811-.506-.621-.26-1.066-.37-.868-.215m36.511.541c-.386.214-1.193.537-1.792.719-1.048.317-2.541 1.08-2.116 1.082.113 0 .384-.119.602-.265.218-.145.998-.459 1.735-.696.737-.236 1.64-.613 2.007-.837.849-.518.498-.52-.436-.003m-32.815 1.116c1.763.745 1.966.775.602.089-.662-.334-1.339-.604-1.505-.602-.166.002.241.233.903.513m4.416 1.489c.441.213 1.028.381 1.304.374.455-.013.445-.028-.1-.159-.331-.08-.8-.252-1.041-.381-.241-.13-.557-.233-.702-.229-.145.004.097.181.539.395m21.575-.164a9.647 9.647 0 0 1-1.104.368c-.552.143-.561.157-.1.171.276.009.863-.156 1.304-.364.844-.4.763-.54-.1-.175m-19.418.703c.193.051.509.051.703 0 .193-.05.035-.091-.352-.091-.386 0-.544.041-.351.091m16.658 0c.194.051.51.051.703 0 .193-.05.035-.091-.351-.091-.387 0-.545.041-.352.091m-15.15.205c.249.048.611.046.803-.004.191-.051-.013-.09-.454-.088-.442.003-.599.044-.349.092m13.745-.004c.194.05.51.05.703 0 .193-.05.035-.092-.351-.092-.387 0-.545.042-.352.092m-11.389.284c1.21.137 9.005.208 8.63.079-.111-.038-2.368-.102-5.018-.142-2.649-.04-4.275-.011-3.612.063m9.684-.08c.248.048.654.048.903 0 .248-.048.045-.087-.452-.087s-.7.039-.451.087"/><path fill="#a4a4a4" d="M69.844 59.201c-.717.075-1.602.293-1.965.483-.364.19-1.358.429-2.208.532-1.777.214-2.388.361-2.951.712-.221.137-.987.397-1.701.577-.715.179-1.483.486-1.706.681-.224.195-.858.468-1.41.607-.552.139-1.184.416-1.405.617-.221.2-.744.474-1.163.608-.419.134-.961.45-1.205.702-.243.252-.681.514-.973.582-.499.117-1.523.841-2.86 2.022-.32.282-.697.513-.839.513-.141 0-.424.213-.628.472-.204.26-.61.599-.901.753-.6.318-3.497 3.093-4.614 4.42l-1.354 1.607c-.339.401-.616.828-.616.949s-.213.359-.474.53c-.26.17-.635.669-.833 1.108-.198.439-.422.799-.498.799-.077 0-.31.338-.519.752-.21.414-.574.979-.811 1.255-.236.276-.543.863-.681 1.304-.138.442-.417.961-.619 1.155-.202.194-.495.781-.651 1.305-.157.524-.472 1.27-.702 1.658-.23.388-.524 1.197-.653 1.799-.129.602-.399 1.323-.6 1.603-.217.301-.457 1.195-.59 2.192-.123.925-.347 1.874-.498 2.107-.986 1.523-1.004 14.829-.023 16.795.17.342.408 1.358.527 2.26.135 1.018.367 1.847.61 2.185.216.299.493 1.022.616 1.605.123.584.433 1.513.69 2.065.256.552.647 1.432.868 1.957.222.524.487.953.591.953.103 0 .287.394.408.875.122.481.365.995.542 1.142.176.146.534.678.794 1.182.809 1.562 2 2.77 2.439 2.474a8.385 8.385 0 0 1 1.004-.535c.35-.158.732-.467.85-.686.117-.22.578-.747 1.023-1.172.446-.424.947-.907 1.113-1.072.486-.483 3.484-3.481 3.836-3.837 1.237-1.25 2.182-2.179 2.503-2.459.605-.528.581-2.384-.039-3.048-.211-.226-.575-.994-.807-1.706-.232-.711-.543-1.429-.691-1.596-.148-.166-.414-1.203-.592-2.305-.177-1.102-.472-2.23-.656-2.508-.541-.815-.46-7.183.107-8.432.225-.497.497-1.637.604-2.535.127-1.07.334-1.829.602-2.207.225-.317.551-1.086.726-1.709.174-.623.448-1.182.608-1.244.16-.061.386-.465.503-.898.116-.432.482-1.127.813-1.543.331-.416.602-.829.602-.918 0-.194.438-.695 2.856-3.269 1.722-1.833 2.372-2.384 4.043-3.43.345-.216.74-.548.878-.737.138-.189.702-.494 1.253-.677.552-.183 1.077-.465 1.167-.626.09-.162.632-.417 1.204-.568.572-.151 1.43-.463 1.907-.694.476-.231 1.798-.559 2.937-.729 1.139-.17 2.386-.441 2.772-.602.93-.389 5.052-.396 6.171-.011.442.152 1.796.43 3.011.617 1.214.188 2.343.459 2.508.604.166.145.946.453 1.733.686.788.233 1.534.546 1.659.696.125.151.632.428 1.127.617.495.19.9.432.9.54 0 .107.402.373.893.59.49.217 1.162.641 1.491.942.33.301.879.773 1.221 1.049.342.276.777.66.967.853.445.452 1.026 1.049 1.319 1.354.127.133.466.482.754.777.289.295.588.738.666.984.079.246.31.538.515.647.205.11.6.697.879 1.305.278.607.586 1.104.685 1.104.099 0 .288.361.42.801.132.44.45 1.027.707 1.304.266.288.518.873.585 1.361.064.471.34 1.352.613 1.957 1.359 3.018 1.355 12.585-.006 15.952-.268.663-.541 1.597-.608 2.077-.071.507-.307 1.054-.562 1.305-.243.237-.56.748-.705 1.134-.146.386-.421.883-.611 1.104a2.83 2.83 0 0 0-.481.848c-.075.246-.441.813-.814 1.259-.373.447-.733.986-.801 1.199a.89.89 0 0 1-.514.511c-.215.068-.391.206-.391.306 0 .233-3.167 3.403-3.4 3.403-.096 0-.553.316-1.015.703-.463.386-.924.702-1.025.702-.101 0-.467.271-.813.602-.347.331-.802.602-1.012.602-.424 0-1.599.555-1.786.843-.066.102-.773.353-1.572.559-.8.205-1.604.508-1.787.672-.184.164-.831.352-1.438.418l-3.898.429c-2.172.239-3.11.26-4.215.093a67.886 67.886 0 0 0-3.429-.387c-1.418-.123-2.214-.294-2.709-.584-.386-.226-1.153-.52-1.705-.653s-1.139-.354-1.305-.49c-1.268-1.048-4.415-1.254-4.415-.29 0 .248-1.347 1.592-2.061 2.054-.302.196-.548.492-.548.657 0 .165-.224.403-.498.528-.274.124-.551.394-.617.6-.065.205-.376.506-.692.669-.315.164-.627.465-.692.67-.065.205-.342.475-.616.6-.274.125-.498.311-.498.414 0 .258-1.64 1.923-2.049 2.079-1.396.536-1.401 2.703-.008 3.292.359.152.652.37.652.485 0 .114.333.347.74.517a7.73 7.73 0 0 1 1.355.768 5.75 5.75 0 0 0 1.406.712c.435.14.962.413 1.171.608.209.194.786.456 1.284.581.497.125 1.145.405 1.438.622.294.217 1.166.517 1.939.667.772.149 1.721.456 2.107.681.419.244 1.27.463 2.107.543.773.073 2.083.329 2.911.567 2.237.645 11.006.643 13.146-.003a17.57 17.57 0 0 1 2.809-.561c.827-.081 1.695-.305 2.108-.544.386-.224 1.335-.537 2.107-.697.773-.159 1.682-.45 2.021-.648.339-.197 1.077-.511 1.64-.698.564-.187 1.129-.466 1.256-.62.128-.153.67-.424 1.205-.602.535-.177 1.087-.461 1.227-.63.14-.169.602-.446 1.025-.615.423-.17.855-.468.959-.662.105-.195.419-.412.698-.482.58-.146 3.242-2.177 5.022-3.832.662-.616 1.407-1.257 1.656-1.425.248-.167.451-.436.451-.598 0-.162.226-.397.502-.523.276-.125.502-.307.502-.403 0-.097.303-.502.674-.9 1.492-1.604 2.251-2.577 3.089-3.955.193-.318.544-.795.781-1.059a4.51 4.51 0 0 0 .684-1.128c.141-.356.419-.83.618-1.054.199-.224.499-.794.666-1.267.167-.473.48-1.086.697-1.361.217-.276.504-.993.638-1.593.135-.6.325-1.092.424-1.092.235 0 .76-1.269.76-1.837 0-.244.172-.812.382-1.26.485-1.039.82-2.507 1.021-4.478.088-.856.326-1.963.531-2.46.597-1.452.553-10.031-.06-11.741-.237-.662-.487-1.866-.553-2.675-.067-.809-.305-1.983-.528-2.609a34.088 34.088 0 0 1-.766-2.57c-.199-.787-.547-1.667-.773-1.955-.227-.288-.473-.845-.547-1.238-.073-.393-.4-1.134-.725-1.647-.325-.512-.591-1.043-.591-1.178 0-.136-.212-.502-.472-.814-.26-.312-.583-.906-.718-1.319-.135-.414-.396-.865-.581-1.004-.185-.138-.514-.6-.731-1.027-.218-.427-.515-.822-.661-.878-.146-.056-.447-.456-.668-.89-.221-.433-.533-.838-.694-.899-.16-.062-.292-.216-.292-.342 0-.126-.268-.5-.596-.831a903.394 903.394 0 0 1-2.211-2.258c-.888-.911-1.702-1.656-1.807-1.656-.106 0-.332-.271-.503-.602-.172-.331-.432-.602-.578-.602-.147 0-.528-.232-.848-.515-1.163-1.03-2.586-2.094-2.801-2.094-.121 0-.427-.222-.681-.492-.254-.27-.71-.546-1.013-.612-.304-.067-.757-.34-1.008-.607-.251-.267-.769-.589-1.152-.715-.383-.127-.859-.392-1.057-.59-.198-.198-.847-.462-1.442-.585-.596-.124-1.231-.398-1.412-.609-.18-.211-.672-.447-1.093-.525-.42-.077-1.399-.393-2.174-.702-.788-.314-2.192-.659-3.181-.782-.973-.121-1.975-.355-2.226-.519-.933-.612-9.294-.921-13.354-.494m12.444.832c2.83.509 4.212.832 5.519 1.292.552.194 1.907.664 3.011 1.045 2.401.828 2.808 1.02 5.82 2.748 5.529 3.17 10.447 7.66 13.753 12.554.484.717 1.031 1.485 1.215 1.706 1.075 1.291 4.066 7.917 4.783 10.598.213.794.523 1.941.69 2.548 1.477 5.378 1.393 14.429-.184 19.769a75.916 75.916 0 0 0-.815 3.011c-.188.772-.461 1.591-.607 1.818-.146.227-.395.841-.552 1.364-.158.523-.447 1.195-.642 1.494-.196.298-.77 1.355-1.275 2.348-.85 1.669-1.286 2.387-2.255 3.713-.201.276-.607.863-.9 1.305-1.17 1.759-6.813 7.727-7.306 7.727-.088 0-.568.338-1.067.752-1.767 1.467-2.095 1.706-2.86 2.081-.425.208-1.18.648-1.677.977-1.248.826-4.783 2.534-5.826 2.814-.473.128-1.05.355-1.281.506-.23.15-.871.371-1.423.49-.551.119-1.41.385-1.906.591-3.544 1.467-18.525 1.524-21.611.083-.351-.164-1.254-.461-2.007-.661-1.392-.369-3.328-1.102-4.782-1.81a91.03 91.03 0 0 0-1.706-.804c-.496-.228-1.4-.723-2.007-1.101a46.485 46.485 0 0 0-2.057-1.202c-.603-.326-.953-.65-.953-.883 0-.55.414-1.633.625-1.633.101 0 2.202-2.019 4.668-4.488 4.978-4.982 5.336-5.219 6.477-4.284.885.725 4.087 1.902 6.145 2.258 1.02.177 2.396.449 3.058.605 1.382.326 4.591.366 5.921.074.497-.108 1.897-.375 3.111-.592 2.829-.504 5.845-1.703 8.931-3.549 3.976-2.379 9.343-8.808 10.545-12.632.144-.458.419-1.135.611-1.505.779-1.5 1.476-5.686 1.482-8.902.008-3.676-.627-7.428-1.57-9.275-.237-.465-.431-.966-.431-1.114 0-1.73-4.623-8.191-7.526-10.518a48.9 48.9 0 0 1-1.405-1.173c-1.139-1.001-2.986-2.041-6.531-3.677-3.059-1.412-9.954-2.241-13.607-1.636-2.007.333-5.813 1.319-6.141 1.592-.142.117-.783.394-1.426.615-.642.222-1.31.53-1.483.685-.173.155-.699.435-1.168.622s-.853.408-.853.491c0 .083-.584.529-1.298.99-1.488.962-4.05 3.309-5.062 4.636-1.85 2.425-2.209 2.942-2.704 3.892-1.514 2.904-2.195 4.51-2.464 5.812-.163.79-.445 1.843-.625 2.339-.695 1.907-.761 9.583-.094 10.83.124.231.399 1.207.611 2.17.419 1.902 1.449 4.451 2.168 5.364.797 1.014.583 1.318-4.535 6.432-4.677 4.672-5.558 5.422-6.03 5.131-.67-.414-3.919-6.125-4.352-7.65-.078-.276-.313-.801-.523-1.166-.209-.365-.484-1.087-.611-1.605a9.79 9.79 0 0 0-.593-1.67c-.2-.4-.55-1.89-.778-3.311a392.575 392.575 0 0 0-.712-4.29c-.336-1.934-.388-6.649-.095-8.63.758-5.111 1.244-7.759 1.497-8.145.162-.247.401-.886.532-1.42.131-.535.441-1.379.688-1.876.247-.496.569-1.309.716-1.806.147-.497.473-1.209.725-1.583.252-.374.458-.78.458-.902 0-.192.536-1.063 1.805-2.934.187-.276.5-.809.694-1.185.324-.626 1.498-2.148 3.165-4.102.922-1.08 4.635-4.748 4.807-4.748.078 0 .543-.339 1.034-.753a31.659 31.659 0 0 1 6.69-4.341c.57-.278 1.09-.592 1.157-.7.066-.108.729-.395 1.473-.64.744-.244 1.446-.517 1.56-.606.115-.09.907-.355 1.762-.589.854-.234 1.935-.594 2.401-.799.466-.205 1.58-.473 2.474-.594.894-.122 1.933-.316 2.308-.433 2.118-.656 9.463-.631 13.226.045m52.816 14.366l-.442.363.055 27.363.055 27.364.474.383c.985.798 29.13.512 30.723-.312.292-.151 1.205-.335 2.028-.409.884-.079 1.907-.324 2.5-.597a18.093 18.093 0 0 1 1.806-.71c.442-.136.987-.414 1.213-.619.225-.205.722-.477 1.104-.605.381-.128.919-.451 1.195-.718.276-.267 1.085-.955 1.797-1.528 1.484-1.194 2.792-2.551 3.202-3.322.155-.292.436-.639.624-.773.189-.134.462-.53.608-.882.145-.351.474-.865.73-1.141s.466-.602.466-.724.273-.739.606-1.371c.334-.633.695-1.62.804-2.194.109-.574.332-1.192.496-1.373 1.132-1.25 1.809-10.901 1.099-15.655-.223-1.49-.459-3.116-.525-3.612a5.677 5.677 0 0 0-.572-1.706c-.248-.442-.514-1.232-.59-1.756-.076-.523-.341-1.201-.589-1.505-.248-.304-.571-.931-.719-1.394-.147-.463-.481-1.027-.741-1.253-.261-.227-.474-.543-.474-.704 0-.669-4.393-5.398-5.59-6.017-.347-.18-.632-.42-.632-.533 0-.113-.318-.338-.707-.501-.389-.162-.881-.469-1.093-.682-.212-.212-.765-.488-1.229-.613-.463-.124-1.078-.4-1.365-.613-.288-.212-1.065-.485-1.727-.607-.662-.121-1.791-.459-2.509-.751l-1.304-.532-15.167-.062c-14.381-.058-15.19-.043-15.61.301m144.885.052l-.415.415.053 27.273c.051 26.761.059 27.28.445 27.706l.393.435 14.359-.062c13.705-.06 14.395-.08 15.161-.45.441-.213 1.622-.492 2.624-.62s2.131-.391 2.509-.585c.378-.194 1.178-.526 1.778-.737.6-.211 1.258-.564 1.463-.783.205-.22.518-.4.696-.4.386 0 1.875-1.044 2.792-1.957.36-.358.729-.652.82-.652.091 0 .572-.457 1.068-1.015a89.586 89.586 0 0 1 1.411-1.555c.28-.297.634-.789.787-1.093.152-.303.356-.552.454-.552.098 0 .398-.496.666-1.103.269-.608.569-1.104.667-1.104.199 0 .507-.713.803-1.854.106-.413.337-.893.511-1.068.175-.175.36-.515.41-.755.051-.241.281-1.16.511-2.043.953-3.658.989-4.011.984-9.835-.003-3.091-.087-6.026-.187-6.523-.464-2.294-1.443-5.541-1.784-5.912-.206-.225-.439-.797-.516-1.27-.077-.473-.358-1.118-.623-1.434-.266-.315-.483-.666-.483-.78 0-.114-.295-.597-.654-1.075-.36-.478-.761-1.109-.891-1.403-.131-.294-.414-.591-.631-.659-.216-.069-.45-.351-.519-.627-.07-.275-.349-.603-.622-.727s-.497-.345-.497-.49c0-.146-.248-.423-.552-.617a8.016 8.016 0 0 1-1.066-.858c-.284-.277-.987-.821-1.563-1.207-.577-.387-1.299-.9-1.606-1.141-.307-.242-.823-.5-1.147-.575-.324-.075-.905-.346-1.291-.602-.386-.255-1.38-.604-2.208-.775-.828-.171-2.002-.515-2.609-.765l-1.104-.455-14.991-.063c-14.929-.063-14.992-.061-15.406.352m55.036-.168c-.871.252-.889.37-.817 5.448.081 5.674-.777 5.051 7.061 5.124 8.071.075 7.228.658 7.321-5.065.079-4.883.044-5.167-.677-5.496-.632-.288-11.896-.297-12.888-.011m17.995.22c-.455.521-.631 52.948-.183 54.567.316 1.141.574 1.186 6.818 1.186 6.4 0 6.456-.011 6.904-1.326.572-1.679.488-53.709-.088-54.327-.406-.437-.509-.444-6.731-.502l-6.319-.058-.401.46m-186.975.499c.643.243 1.591.503 2.108.577 1.468.212 4.326 1.39 6.19 2.551 1.601.997 2.426 1.683 4.393 3.647 1.628 1.628 2.125 2.214 2.799 3.299.111.178.43.684.71 1.126.28.441.634 1.119.788 1.505.153.386.454.957.667 1.267.388.562.806 1.945 1.545 5.106 1.069 4.572.788 14.865-.492 17.976-.144.351-.326 1.045-.404 1.542-.078.496-.35 1.219-.604 1.605-.255.387-.528.928-.608 1.204-.144.501-.801 1.645-1.646 2.868l-.929 1.347c-.964 1.4-5.199 5.311-6.048 5.585-.112.036-.746.324-1.408.64-3.379 1.611-3.981 1.78-8.53 2.398-2.938.399-3.83.42-16.05.366l-12.94-.058-.254-.501c-.367-.727-.379-53.99-.011-54.358.517-.516 29.306-.228 30.724.308m144.743.003a30.18 30.18 0 0 0 2.408.726c2.807.691 4.243 1.385 7.684 3.715 3.727 2.524 7.926 9.153 8.664 13.68.099.607.315 1.421.479 1.81.727 1.715.96 10.071.355 12.741-1.21 5.343-2.124 8.186-3.138 9.756-.328.509-.823 1.31-1.099 1.78-.717 1.22-3.173 3.963-4.497 5.022l-1.948 1.555c-.45.359-.922.65-1.05.647-.127-.003-.773.259-1.436.584-2.732 1.337-3.705 1.632-6.723 2.035-.939.126-2.203.315-2.81.422-.657.115-6.386.169-14.144.134l-13.039-.059-.254-.501c-.369-.729-.379-53.99-.011-54.359.507-.506 29.081-.214 30.559.312m36.963-.193c.511.473.388 8.957-.134 9.287-.325.205-11.241.271-11.98.073-1.004-.27-1.386-8.997-.414-9.466.852-.411 12.072-.316 12.528.106m18.085-.183c.425.27.371 53.9-.055 54.55l-.311.475h-11.622l-.309-.471c-.426-.651-.484-54.283-.059-54.552.336-.214 12.02-.215 12.356-.002M150.521 86.27c-.776.261-.797.675-.797 15.955v14.738l.495.325c1.368.896 12.319.243 14.518-.866 2.283-1.152 5.069-4.567 5.555-6.809.08-.37.315-1.057.522-1.526.555-1.253.888-6.026.611-8.75-.453-4.465-3.234-9.393-6.136-10.873a11.399 11.399 0 0 1-1.309-.784c-1.274-.94-11.626-2.025-13.459-1.41m144.11.228c-.487.308-.559 30.332-.074 30.735.449.373 6.832.492 10.396.193 6.507-.544 9.964-4.498 10.963-12.539 1.179-9.478-2.969-16.637-10.547-18.206-1.996-.413-10.154-.552-10.738-.183m-135.675.606c2.729.275 4.433.615 4.545.907.054.14.489.403.969.586 1.037.396 3.954 3.34 4.424 4.466.166.398.428.824.581.946.515.408 1.524 5.499 1.523 7.684-.001 3.135-.968 8.246-1.733 9.16-.261.312-.474.688-.474.834 0 .147-.316.645-.703 1.108-.386.462-.702.972-.702 1.133 0 .161-.265.385-.589.498-.324.113-.732.424-.908.692-.175.268-.43.489-.565.491-.135.003-.788.287-1.45.632l-1.205.628-5.92.13c-3.518.077-6.023.055-6.172-.054-.328-.242-.37-29.042-.043-29.653.242-.451 4.806-.553 8.422-.188m146.714.202c.828.121 1.731.383 2.007.581.276.198.863.486 1.304.641.442.155 1.047.508 1.345.784.528.49.668.624 1.816 1.739.304.295.552.65.552.789s.206.418.458.619.577.772.722 1.269c.145.497.424 1.174.619 1.505 1.301 2.206 1.133 11.392-.268 14.652-.285.662-.52 1.365-.522 1.561-.003.197-.144.411-.315.477-.17.065-.481.455-.691.867-.21.412-.71 1.011-1.111 1.33-.401.32-.984.83-1.296 1.133-.311.304-.7.552-.863.552-.305 0-1.267.408-2.152.913-.518.295-11.6.448-12.326.17-.286-.11-.318-1.593-.318-14.716V87.579l.652-.34c.752-.391 7.562-.347 10.387.067m-232.609-.054a2.75 2.75 0 0 0-.896.373c-.219.154-.84.339-1.378.41-.575.076-1.205.32-1.526.59-.301.254-.777.519-1.058.589-.603.151-1.589.949-3.225 2.607-1.854 1.881-1.918 1.959-2.271 2.807-.183.44-.498 1.01-.701 1.266-.202.257-.468.981-.591 1.609a21.787 21.787 0 0 1-.556 2.146c-.646 1.959.224 7.818 1.338 9.012.216.231.451.657.523.945.33 1.333 4.111 4.96 5.768 5.535.413.143.92.429 1.126.635 1.237 1.237 10.132 1.272 11.708.047.256-.198.803-.471 1.216-.606.414-.135.865-.405 1.004-.601.138-.196.527-.499.864-.672.679-.35 3.1-2.72 3.1-3.035 0-.11.212-.43.47-.712s.592-.829.742-1.216c.149-.386.437-.931.639-1.21.203-.28.415-.867.472-1.305.057-.438.248-1.627.425-2.642.297-1.703.296-1.975-.009-3.512-.182-.917-.331-1.906-.33-2.198 0-.293-.271-1.047-.602-1.676-.332-.63-.603-1.25-.603-1.379 0-.128-.227-.503-.506-.832-.278-.33-.797-.999-1.154-1.487-.808-1.107-3.478-3.352-4.189-3.523-.292-.07-.686-.299-.876-.508-.189-.21-.828-.481-1.419-.604a20.597 20.597 0 0 1-2.18-.612c-1.067-.375-3.918-.504-5.325-.241m5.848.943c1.504.294 3.592 1.223 4.767 2.121 1.326 1.014 3.051 2.701 3.474 3.398.239.394.546.785.681.869.136.083.354.49.485.903.131.413.444 1.112.694 1.554 1.098 1.931 1.089 8.05-.014 10.123-.268.501-.486 1.003-.487 1.114 0 .241-1.226 2.066-2.194 3.269-.379.47-1.188 1.237-1.799 1.704-.61.467-1.266 1.002-1.457 1.19-.191.187-.816.479-1.388.649-.572.17-1.142.389-1.265.486-1.285 1.013-6.995.994-9.828-.034-6.451-2.34-10.13-8.642-9.115-15.617 1.213-8.34 8.771-13.422 17.446-11.729m171.021.108c-.356.085-.853.288-1.104.452-.251.164-.908.362-1.46.44-.978.139-4.176 1.536-4.421 1.932-.067.109-.469.375-.892.591-.424.216-1.273.888-1.888 1.492-.614.605-1.3 1.198-1.524 1.318-.224.12-.407.346-.407.504 0 .157-.228.537-.506.845-.969 1.072-1.851 2.406-2.109 3.187-.142.432-.42 1.011-.617 1.287-.198.276-.497 1.044-.666 1.706a28.916 28.916 0 0 1-.754 2.409c-.411 1.108-.446 1.546-.442 5.519l.004 4.315.638 1.883c.351 1.036.638 1.994.638 2.13 0 .135.239.597.531 1.027.292.429.613 1.075.713 1.434.099.359.339.811.533 1.004.193.192.518.62.721.952.683 1.111 2.913 3.344 4.267 4.272 2.106 1.443 3.127 2.016 3.824 2.147.401.075.943.304 1.204.51.261.205.989.471 1.617.592.628.12 1.683.368 2.346.55 1.749.482 8.501.492 10.336.015a49.374 49.374 0 0 1 2.446-.561c.628-.123 1.354-.39 1.613-.594.259-.203.839-.469 1.29-.59.765-.207 1.478-.66 3.007-1.912.347-.284.696-.516.777-.516.233 0 3.31-3.138 3.31-3.376 0-.117.173-.335.384-.483.211-.147.546-.627.744-1.065.199-.437.524-.984.724-1.214.2-.23.473-.939.606-1.577.407-1.937.469-1.918-6.381-1.918-5.912 0-6.585.081-6.822.826-.292.921-2.606 2.887-3.741 3.177-5.516 1.414-9.911-.815-11.061-5.609-.532-2.215-1.86-2.022 14.233-2.068 15.545-.044 14.763.033 15.048-1.485.247-1.317-.207-6.138-.661-7.014-.22-.425-.457-1.261-.526-1.858-.07-.597-.389-1.636-.711-2.308-.321-.673-.65-1.449-.731-1.725a2.837 2.837 0 0 0-.501-.903 5.245 5.245 0 0 1-.608-.903c-1.588-3.118-7.417-7.512-10.533-7.939-.551-.076-1.139-.254-1.304-.395-.759-.646-9.016-1.018-11.184-.503m9.716.56c.241.137 1.053.379 1.806.538 1.311.277 3.818 1.366 5.641 2.449 2.557 1.52 5.871 5.616 7.059 8.725.354.926.775 2.225.937 2.887.161.662.472 1.791.691 2.509.611 2.007.764 5.809.252 6.267-.358.319-1.486.35-14.785.401-16.02.062-14.875-.052-14.709 1.46.893 8.147 11.402 11.005 15.881 4.319.767-1.145.991-1.186 6.322-1.179 4.722.007 5.99.13 6.29.608.658 1.048-3.569 7.179-5.995 8.696-.353.221-1.173.757-1.823 1.193-5.274 3.532-18.948 3.739-23.254.352-.309-.243-.637-.441-.731-.441-.904 0-4.232-3.019-6.36-5.771-.672-.867-2.448-4.964-2.448-5.645 0-.205-.197-.95-.437-1.654-.591-1.729-.671-7.362-.124-8.807.188-.497.481-1.518.652-2.27.171-.752.537-1.845.813-2.428.276-.583.501-1.192.501-1.353 0-.267.463-1.002 2.286-3.631.727-1.049 3.491-3.602 4.438-4.099.331-.174.738-.434.903-.579.518-.452 3.641-1.695 5.319-2.117a80.404 80.404 0 0 0 2.207-.582c.927-.274 8.14-.148 8.668.152m-69.175.467c-1.298.533-1.209-.514-1.209 14.125 0 12.356.027 13.382.379 14.771.209.821.43 2.09.492 2.82.106 1.252.633 2.787.957 2.787.081 0 .205.262.275.582.184.839 1.805 2.841 2.805 3.466.471.294.907.666.969.827.062.16.354.353.65.427.296.074.778.31 1.07.523 1.549 1.131 7.075 1.938 9.865 1.441 2.112-.376 4.518-1.077 4.917-1.433.221-.197.708-.461 1.082-.586.375-.125.871-.405 1.104-.622 2.507-2.336 2.524-2.349 2.74-2.007.102.161.187.847.189 1.525.002.91.103 1.356.386 1.706l.383.474 5.898.061c5.826.06 5.903.055 6.29-.373.614-.678.616-39.998.003-40.447-.684-.5-12.155-.412-12.785.098l-.473.384-.101 11.608c-.087 10.044-.144 11.731-.426 12.512-.18.497-.439 1.33-.577 1.851-.154.584-.388.991-.609 1.061-.197.063-.503.335-.68.604-.902 1.377-4.737 2.293-6.438 1.538a20.315 20.315 0 0 0-1.676-.636c-.565-.182-.933-.44-1.045-.734-.095-.249-.424-.841-.733-1.316l-.56-.863-.061-12.879c-.055-11.507-.095-12.908-.382-13.146-.406-.338-11.911-.472-12.699-.149m144.913-.021c-1.289.316-1.214-.922-1.214 20.082 0 21.013-.04 20.317 1.172 20.676 1.394.412 12.452.166 12.781-.285.681-.933.718-39.531.039-40.211-.398-.398-11.311-.622-12.778-.262m-132.605.58c.302.251.332 1.363.333 12.243.002 12.756.088 14.214.889 15.078.256.276.559.683.672.903.617 1.202 4.241 2.045 6.609 1.537 1.496-.321 4.272-2.313 4.272-3.065 0-.116.271-.828.603-1.582l.602-1.372v-11.658c0-11.389.009-11.666.401-12.058.552-.553 11.784-.631 12.329-.086.756.756.407 39.81-.357 39.831-2.818.076-10.7-.067-11.052-.201-.512-.194-.97-1.238-.899-2.047.157-1.78-.39-2.514-1.201-1.612-.642.715-3.127 2.85-3.316 2.85-.075 0-.739.282-1.475.626-3.405 1.592-10.079 1.671-13.531.161-.736-.322-1.395-.586-1.466-.586-.27 0-3.042-2.522-3.565-3.245-2.407-3.322-2.56-4.653-2.561-22.183l-.001-13.285.452-.322c.618-.441 11.724-.374 12.262.073m144.908 0c.468.39.514 38.635.046 39.275-.268.368-.612.393-6.121.448l-5.838.059-.501-.501-.501-.501V90.166l.652-.328c.885-.445 11.721-.399 12.263.051m-94.773 7.652c-2.68.633-4.97 2.665-5.561 4.934-.167.641-.41 1.293-.54 1.45-.19.229-.126.381.32.764l.556.479h7.133c8.995 0 8.702.094 7.784-2.491-1.428-4.024-5.428-6.144-9.692-5.136m4.225.586c.365.212 1.052.488 1.527.613.474.125.914.361.977.525.063.164.375.433.692.597.318.164.578.436.578.604 0 .168.211.505.469.748.57.538 1.2 2.807.87 3.137-.284.284-14.508.301-14.683.018-.244-.394.319-2.69.729-2.977.219-.153.483-.504.588-.779.105-.276.366-.547.58-.603.215-.056.53-.316.701-.578.197-.299.709-.591 1.383-.787.59-.171 1.244-.441 1.454-.601.603-.455 3.3-.401 4.135.083"/></g></svg>