<svg xmlns="http://www.w3.org/2000/svg" role="img" viewBox="-6.85 -7.10 356.20 274.70"><title>Easy Carros (adopter) logo</title><path fill="#3ec4e4" d="M32.77 230.59a17.81 17.81 0 0 0-4.44-12.45 14.47 14.47 0 0 0-5.14-3.69 16.6 16.6 0 0 0-6.49-1.22 17 17 0 0 0-6.61 1.25 15.61 15.61 0 0 0-5.37 3.74 17.34 17.34 0 0 0-4.71 12.37 16.92 16.92 0 0 0 5 12.51 17.27 17.27 0 0 0 12.64 5 19.68 19.68 0 0 0 7.93-1.49 14.54 14.54 0 0 0 5.79-4.53l.7-.9L26 238.3l-.45.48a10.35 10.35 0 0 1-3.52 2.52 11 11 0 0 1-4.35.84 10.4 10.4 0 0 1-6.77-2.27 10.39 10.39 0 0 1-3.65-6.1l-.07-.47h25.6v-2.72zM7.13 228a11.31 11.31 0 0 1 3-6.18 8.72 8.72 0 0 1 6.58-2.68 8.77 8.77 0 0 1 6.59 2.69 11.27 11.27 0 0 1 3 6.18H7.13zm56.73-13.97v3a16.44 16.44 0 0 0-4-2.48 17 17 0 0 0-13-.06 15.15 15.15 0 0 0-5.12 3.81 19.24 19.24 0 0 0 0 24.89l.1.11-.1-.11a15.07 15.07 0 0 0 5.2 3.7 17.08 17.08 0 0 0 12.94-.08 16.44 16.44 0 0 0 4-2.48v3h6.78v-33.3h-6.8zm-2.34 25a9.13 9.13 0 0 1-3.2 2.34 10.9 10.9 0 0 1-8.11 0 9.19 9.19 0 0 1-3.21-2.34 13.74 13.74 0 0 1 0-16.77 9.2 9.2 0 0 1 3.19-2.34 10.72 10.72 0 0 1 8.1 0 9.14 9.14 0 0 1 3.2 2.37 12.21 12.21 0 0 1 2.84 8.42 12 12 0 0 1-2.84 8.37zm40.5-5.52a9.36 9.36 0 0 0-3.2-3.26 30.66 30.66 0 0 0-7.28-2.88q-2.16-.65-3.56-1.16a14.31 14.31 0 0 1-2-.84 3.29 3.29 0 0 1-1.07-1.07 2.51 2.51 0 0 1-.35-1.32 3.52 3.52 0 0 1 .29-1.48 2.88 2.88 0 0 1 .86-1.07 6.75 6.75 0 0 1 4.3-1.21 11.58 11.58 0 0 1 8.19 3.52l.73.69 3.94-5-.68-.56a18.6 18.6 0 0 0-12.18-4.57 14.36 14.36 0 0 0-8.82 2.6 8.74 8.74 0 0 0-2.58 3.14 9.24 9.24 0 0 0-.86 4 8 8 0 0 0 1.12 4.2 9.31 9.31 0 0 0 3.28 3.13 16.65 16.65 0 0 0 2.66 1.17q1.8.66 4.58 1.5c1.48.45 2.69.85 3.61 1.19a12.19 12.19 0 0 1 1.85.8 3.07 3.07 0 0 1 1.15 1.14 3.31 3.31 0 0 1 .38 1.63 3.52 3.52 0 0 1-.39 1.66 4.19 4.19 0 0 1-1.21 1.38 7.84 7.84 0 0 1-4.72 1.22 12 12 0 0 1-4.88-1 14.46 14.46 0 0 1-4.38-3.08l-.77-.68-4.08 5 .64.58a19.43 19.43 0 0 0 13.42 5.19 15.16 15.16 0 0 0 9.17-2.64 10 10 0 0 0 2.92-3.36 9.05 9.05 0 0 0 1-4.22 8.67 8.67 0 0 0-1.08-4.34zm29.55-19.48v18.36a11 11 0 0 1-.72 4.1 8.29 8.29 0 0 1-2.12 3.07 9.38 9.38 0 0 1-6.54 2.64 7.84 7.84 0 0 1-3-.53 5.5 5.5 0 0 1-2.13-1.54 8.51 8.51 0 0 1-1.82-5.75v-20.35h-6.78v20.64a15.34 15.34 0 0 0 .93 5.49 11.72 11.72 0 0 0 2.82 4.3 12.71 12.71 0 0 0 9.16 3.62 15.17 15.17 0 0 0 6.44-1.37 15.61 15.61 0 0 0 3.78-2.51v3.19a6.64 6.64 0 0 1-.6 2.85 6.75 6.75 0 0 1-1.82 2.31c-1.6 1.34-3.85 2.06-6.89 2.06a19.47 19.47 0 0 1-10.16-3l-.81-.49-3.12 5.57.73.46a24.25 24.25 0 0 0 13.27 3.73 17.35 17.35 0 0 0 11.59-3.83 12.65 12.65 0 0 0 3.42-4.52 14 14 0 0 0 1.14-5.74v-32.76h-6.78zm52.84 23.47a9 9 0 0 1-3.32 3.53 9.37 9.37 0 0 1-4.79 1.17 9.57 9.57 0 0 1-3.94-.78 8.61 8.61 0 0 1-3.07-2.33 10.62 10.62 0 0 1-2-3.54 17.52 17.52 0 0 1 0-9.7 10.85 10.85 0 0 1 2-3.58 8.63 8.63 0 0 1 3.07-2.36 10.31 10.31 0 0 1 8.73.38 9 9 0 0 1 3.32 3.53l.41.74 6.06-2.77-.54-.88a15.69 15.69 0 0 0-5.87-5.75 18.21 18.21 0 0 0-14.79-.66 15.61 15.61 0 0 0-5.37 3.78 17.5 17.5 0 0 0-4.7 12.42 17.3 17.3 0 0 0 4.71 12.43 15.9 15.9 0 0 0 12 4.94 17 17 0 0 0 8.16-1.89 15.71 15.71 0 0 0 5.89-5.67l.54-.86-6.06-2.9zm43.31-22.56v-.91h-6.78v3a16.43 16.43 0 0 0-4-2.48 17 17 0 0 0-13-.06 15.15 15.15 0 0 0-5.21 3.75 19.24 19.24 0 0 0 0 24.89 15.07 15.07 0 0 0 5.2 3.7 17.08 17.08 0 0 0 12.94-.08 16.44 16.44 0 0 0 4-2.48v3h6.78v-32.33zm-9.12 24.14a9.13 9.13 0 0 1-3.2 2.34 10.9 10.9 0 0 1-8.11 0 9.19 9.19 0 0 1-3.21-2.34 10.49 10.49 0 0 1-2.1-3.57 16.65 16.65 0 0 1 0-9.59 10.64 10.64 0 0 1 2.1-3.6 9.21 9.21 0 0 1 3.21-2.39 10.72 10.72 0 0 1 8.1 0 9.15 9.15 0 0 1 3.2 2.38 12.21 12.21 0 0 1 2.84 8.42 12 12 0 0 1-2.82 8.35zm33.9-24.92v-.86h-1.1a16.63 16.63 0 0 0-6.46 1.21 14.08 14.08 0 0 0-3.49 2.12v-2.55h-6.78v33.22h6.78v-21.36a8.67 8.67 0 0 1 .28-2.28c0-.13.08-.26.13-.38a4.16 4.16 0 0 1 1.29-1.73 7 7 0 0 1 4.48-1.42 11.57 11.57 0 0 1 3.67.55l1.2.4v-6.92zm22.32 0v-.86h-1.1a16.64 16.64 0 0 0-6.46 1.21 14.07 14.07 0 0 0-3.49 2.12v-2.55h-6.78v33.22h6.78v-21.36a8.68 8.68 0 0 1 .28-2.28c0-.13.08-.26.13-.38a4.16 4.16 0 0 1 1.29-1.73 7 7 0 0 1 4.48-1.43 11.57 11.57 0 0 1 3.67.55l1.2.4v-6.92zm35.92 11.31c-.11-.42-.25-.82-.39-1.22v-.07a16.43 16.43 0 0 0-3.66-5.88 16.17 16.17 0 0 0-5.45-3.76 18.1 18.1 0 0 0-13.22 0 15.62 15.62 0 0 0-5.36 3.74 18.81 18.81 0 0 0 0 24.89 15.88 15.88 0 0 0 12 4.94 16.09 16.09 0 0 0 12-4.94 16.36 16.36 0 0 0 4.11-7.2 18.77 18.77 0 0 0 .71-5.23 19 19 0 0 0-.74-5.27zm-9.09 13.62a8.82 8.82 0 0 1-3.1 2.34 10.33 10.33 0 0 1-7.86 0 8.63 8.63 0 0 1-3.06-2.33 10.62 10.62 0 0 1-2-3.54 16.23 16.23 0 0 1-.68-4.84 16 16 0 0 1 .69-4.83 10.72 10.72 0 0 1 2-3.58 8.41 8.41 0 0 1 3-2.37 9.25 9.25 0 0 1 3.9-.79 9.48 9.48 0 0 1 3.93.79 8.84 8.84 0 0 1 3.1 2.37 12.47 12.47 0 0 1 2.76 8.43 12.29 12.29 0 0 1-2.68 8.35zm41.01-1.24a9.64 9.64 0 0 0-1.13-4.34 9.36 9.36 0 0 0-3.2-3.26 30.67 30.67 0 0 0-7.28-2.88q-2.16-.65-3.57-1.16a14.31 14.31 0 0 1-2-.84 3.29 3.29 0 0 1-1.11-1.07 2.41 2.41 0 0 1-.2-.48 3.7 3.7 0 0 1-.1-.84 4.55 4.55 0 0 1 .26-1.5 2.88 2.88 0 0 1 .85-1.06 6.75 6.75 0 0 1 4.3-1.21 11.58 11.58 0 0 1 8.19 3.52l.73.69 3.94-5-.68-.56a18.6 18.6 0 0 0-12.14-4.56 14.37 14.37 0 0 0-8.87 2.65 8.75 8.75 0 0 0-2.58 3.14 9.24 9.24 0 0 0-.86 4 8 8 0 0 0 1.12 4.2 9.31 9.31 0 0 0 3.28 3.13 16.63 16.63 0 0 0 2.66 1.17q1.8.66 4.58 1.5c1.48.45 2.69.85 3.61 1.19a12.19 12.19 0 0 1 1.85.8 3.07 3.07 0 0 1 1.15 1.14 3.31 3.31 0 0 1 .38 1.63 3.52 3.52 0 0 1-.39 1.66 4.19 4.19 0 0 1-1.21 1.38 7.84 7.84 0 0 1-4.72 1.22 12 12 0 0 1-4.88-1 14.45 14.45 0 0 1-4.38-3.08l-.71-.71-4.08 5 .64.58a19.43 19.43 0 0 0 13.42 5.19 15.16 15.16 0 0 0 9.17-2.64 10 10 0 0 0 2.93-3.36 8.55 8.55 0 0 0 .52-1.26 8.36 8.36 0 0 0 .51-2.98zM223.85 83.65a53.23 53.23 0 0 1-28.89 39.39h-.05a53.18 53.18 0 0 1-47.08 0h-.08a53.14 53.14 0 1 1 63.38-82.83l-2.56 1.74-35.08 23.78a9.74 9.74 0 1 0 7.87 10l31.46-28.37 3.49-3.15 2.82-2.48 12.38-10.9.1-.1.06-.05.26-.24q-1-1.32-2.07-2.59h-.09.09a75.42 75.42 0 1 0-110.18 102.51l.14.14 21.87 21.14 26.39 25.66a4.69 4.69 0 0 0 6.49 0l26.4-25.58 21.38-20.71a75.35 75.35 0 0 0 23.81-46z"/></svg>