<svg xmlns="http://www.w3.org/2000/svg" role="img" viewBox="35.30 151.80 322.40 95.90"><title>Ediket logo</title><g fill-rule="evenodd"><path fill="#313131" d="M145.2 170.227v12.227l-.9-.277c-.495-.153-2.05-.795-3.456-1.428-18.269-8.219-35.085 6.21-35.023 30.051.07 26.68 17.487 38.728 36.032 24.924 3.539-2.635 3.347-2.674 3.347.676v2.8h17.2V158h-17.2v12.227m26.4-5.027v7.2h18V158h-18v7.2m28 33.4v40.6h17.2v-19.26l2.235-2.97c1.23-1.633 2.387-2.97 2.571-2.97.185 0 3.724 5.668 7.865 12.595L237 239.19l9.943.005c8.062.004 9.904-.095 9.74-.522-.111-.29-4.72-7.677-10.242-16.417-5.523-8.739-10.041-16.059-10.041-16.266 0-.207 3.015-4.266 6.7-9.02 3.685-4.753 8.01-10.336 9.612-12.406l2.912-3.764-9.912.005-9.912.004-3.8 5.229c-10.093 13.886-11.497 15.825-12.821 17.698-2.497 3.532-2.379 4.605-2.379-21.703V158h-17.2v40.6m117.908-26.5l-.108 8.5-3.5.116-3.5.115V193.2l3.1.006c1.705.003 3.314.142 3.576.309.352.224.508 4.712.6 17.294l.124 16.991 1.326 3.073c3.505 8.122 15.277 11.625 28.774 8.56l3.3-.749v-13.177l-.9.221c-.495.122-1.89.587-3.1 1.034-4.224 1.559-8.426.949-10.508-1.526-1.828-2.171-1.938-3.27-1.811-18.036l.119-13.8 8.1-.108 8.1-.109v-12.366l-8.1-.109-8.1-.108-.108-8.5-.108-8.5h-17.168l-.108 8.5M67.6 179.059c-16.72 2.511-25.384 13.208-25.384 31.341 0 15.306 6.035 24.46 18.984 28.798 9.791 3.279 23.939 2.596 34.9-1.686l2.3-.898v-7.507c0-8.631.103-8.45-3.45-6.091-14.571 9.672-32.413 6.585-34.988-6.053-.84-4.127-2.762-3.763 19.877-3.763h19.865l-.221-6.5c-.704-20.704-12.128-30.608-31.883-27.641m208.2.179c-9.051 1.285-16.731 6.732-20.793 14.748-4.677 9.231-4.564 24.039.252 33.021 7.395 13.789 30.723 18.488 51.04 10.279l1.698-.686.002-7.5.001-7.5h-.938c-.516 0-1.247.342-1.626.76-1.093 1.208-8.585 4.749-11.436 5.405-12.82 2.952-22.125-1.181-24.624-10.938-1.017-3.967-2.882-3.627 19.873-3.627h20.075l-.248-6.1c-.884-21.793-11.776-30.913-33.276-27.862M172 210v29.2h17.2v-58.4H172V210m-94.443-18.276c3.09 2.045 5.708 7.844 4.713 10.438-.276.72-22.403.994-22.842.284-.42-.681 1.351-6.471 2.4-7.848 3.145-4.123 11.527-5.655 15.729-2.874m208.719-.35c3.35 1.56 5.243 4.715 5.43 9.051l.094 2.175h-11.395c-13.141 0-12.217.36-10.827-4.218 2.057-6.772 10.024-10.115 16.698-7.008M143.7 193.358l1.5.653v29.497l-1.1.745c-7.663 5.186-17.297 3.041-19.489-4.341-3.667-12.347.136-24.373 8.589-27.163 1.638-.54 8.816-.125 10.5.609"/><path fill="#fbfbfb" d="M0 200v200h400V0H0v200m162.8-1.2v40.8h-18v-5.56l-2.9 2.197c-1.595 1.208-4.25 2.862-5.9 3.675l-3 1.478-5.4.005-5.4.005-3.16-1.509c-17.866-8.53-18.801-45.815-1.441-57.474 7.286-4.893 21.526-5.321 26.181-.787.917.893 1.02-.277 1.02-11.63v-12h18v40.8m27.2-33.393v7.407l-9.5-.107-9.5-.107-.109-7.3-.109-7.3H190v7.407m27.214 16.293l.015 23.7 1.014-1.2a38.832 38.832 0 0 0 1.886-2.462c.479-.695 2.352-3.305 4.162-5.8l7.205-9.938 3.914-5.4 10.295-.107c5.662-.058 10.295.007 10.295.145 0 .296-1.761 2.652-7.898 10.563-9.936 12.808-11.302 14.598-11.302 14.815 0 .124.692 1.296 1.538 2.604.846 1.309 4.472 7.06 8.058 12.78 6.875 10.967 8.734 13.906 10.265 16.222.516.781.939 1.546.939 1.7 0 .153-4.65.278-10.333.278h-10.332l-1.203-1.9a284.62 284.62 0 0 1-3.334-5.5c-1.173-1.98-2.53-4.23-3.017-5-.754-1.194-2.514-4.141-6.832-11.441l-.851-1.439-2.249 2.819-2.249 2.818v19.658l-9.1-.107-9.1-.108-.102-40.7-.102-40.7H217.2l.014 23.7m117.894-9.8l.108 8.5H351.6v13.2h-16.4l.01 13.5c.011 16.314.252 17.673 3.426 19.295 1.65.844 6.675.753 8.964-.161.99-.396 2.25-.745 2.8-.777l1-.057.11 6.706c.128 7.845.734 7.008-5.826 8.044-12.201 1.927-21.801-.523-25.683-6.554-2.414-3.75-2.56-4.966-2.791-23.196l-.21-16.6-3.5-.116-3.5-.115V180.4h7.2v-8.333c0-4.584.123-8.457.274-8.608.151-.151 4.156-.226 8.9-.167l8.626.108.108 8.5M83.8 179.798c11.347 3.998 16.2 12.652 16.2 28.892v4.91H60l-.004 1.3c-.042 13.415 20.507 17.903 34.937 7.63 1.293-.921 2.287-1.336 3-1.253L99 221.4l.109 7.444c.123 8.429.375 7.761-3.509 9.288-13.692 5.382-31.94 4.54-41.8-1.93-17.244-11.314-16.1-43.468 1.915-53.799 7.127-4.087 20.387-5.317 28.085-2.605m209.209-.098c11.596 4.089 16.538 12.733 16.579 29l.012 4.9h-40.111l.211 2.325c1.175 12.962 20.436 16.596 34.83 6.571 3.589-2.499 3.67-2.351 3.67 6.684v7.78l-2.951 1.127c-15.251 5.82-33.418 4.54-43.538-3.067-16.35-12.291-13.55-44.055 4.689-53.205 7.148-3.586 19.626-4.578 26.609-2.115M189.6 210v29.6h-18v-59.2h18V210M67.576 191.32c-4.318 1.225-6.781 4.343-7.729 9.78l-.227 1.3H82v-1.585c0-7.221-6.76-11.67-14.424-9.495m209.541.041c-4.074 1.096-7.035 4.694-7.688 9.339l-.238 1.7h22.5l-.273-1.82c-1.21-8.07-6.324-11.366-14.301-9.219m-144 1.973c-6.132 1.738-9.286 7.61-9.272 17.266.019 13.872 7.265 19.722 17.912 14.46l3.043-1.504v-29.429l-1.615-.484c-2.519-.755-7.911-.92-10.068-.309"/><path fill="#949494" d="M162.593 198.6c0 22.44.048 31.561.107 20.269.059-11.291.059-29.651 0-40.8-.059-11.148-.107-1.909-.107 20.531M144.8 170.28c-.11 6.645-.062 11.943.106 11.774.169-.168.258-5.605.2-12.08l-.107-11.774-.199 12.08M171.79 210c0 16.17.049 22.785.11 14.7.06-8.085.06-21.315 0-29.4-.061-8.085-.11-1.47-.11 14.7m179.572-23c0 3.52.062 4.906.136 3.081.074-1.825.074-4.705-.001-6.4-.075-1.695-.136-.201-.135 3.319m-206.381 21.8c0 8.03.053 11.315.118 7.3.066-4.015.066-10.585 0-14.6-.065-4.015-.118-.73-.118 7.3m-103.267 1.8c.003 1.1.081 1.503.173.895.092-.609.09-1.509-.005-2-.095-.492-.171.005-.168 1.105m63.587 0c.004.88.086 1.193.182.695.096-.497.092-1.217-.008-1.6-.1-.382-.179.025-.174.905m229.619 7.8c0 1.21.075 1.705.167 1.1a8.899 8.899 0 0 0 0-2.2c-.092-.605-.167-.11-.167 1.1m16.443 13.6c0 3.63.06 5.115.135 3.3a98.136 98.136 0 0 0 0-6.6c-.075-1.815-.135-.33-.135 3.3m-206.432 4.6c.002 1.54.074 2.121.161 1.291.087-.83.085-2.09-.003-2.8-.089-.71-.16-.031-.158 1.509"/><path fill="#8c8c8c" d="M171.366 165.2c0 4.07.059 5.735.132 3.7a125.05 125.05 0 0 0 0-7.4c-.073-2.035-.132-.37-.132 3.7m18.4 0c0 4.07.059 5.735.132 3.7a125.05 125.05 0 0 0 0-7.4c-.073-2.035-.132-.37-.132 3.7m9.631 33.4l.003 40.8 8.6.012 8.6.011-8.498-.119-8.498-.12-.105-40.692-.105-40.692.003 40.8m117.894-26.716l-.091 8.485-3.5.115-3.5.116v12.8l3.2.024 3.2.024-3.1-.14-3.1-.14V180.8h3.413c4.17 0 3.831.848 3.687-9.211l-.118-8.189-.091 8.484m-245.979 6.811c1.052.082 2.672.081 3.6-.003.928-.084.068-.151-1.912-.15-1.98.001-2.74.07-1.688.153m57.988-.004c.825.087 2.175.087 3 0 .825-.086.15-.157-1.5-.157s-2.325.071-1.5.157m151.2.003a29.38 29.38 0 0 0 3.8 0c1.045-.082.19-.15-1.9-.15s-2.945.068-1.9.15m-100 2.002l8.7.12v58.368l-8.6.12-8.6.12 8.7-.012 8.7-.012v-58.8l-8.8-.012-8.8-.013 8.7.121m60 .003c2.805.069 7.395.069 10.2 0 2.805-.069.51-.125-5.1-.125-5.61 0-7.905.056-5.1.125m98.6-.001c2.255.072 5.945.072 8.2 0 2.255-.071.41-.129-4.1-.129s-6.355.058-4.1.129m-247.9 3.427c0 .069.585.654 1.3 1.3l1.3 1.175-1.175-1.3c-1.095-1.212-1.425-1.484-1.425-1.175m168.378 2.975l-1.378 1.5 1.5-1.378c1.396-1.284 1.684-1.622 1.378-1.622-.066 0-.741.675-1.5 1.5m12.4 6.8l-1.378 1.5 1.5-1.378c1.396-1.284 1.684-1.622 1.378-1.622-.066 0-.741.675-1.5 1.5m67.122-.402c2.255.072 5.945.072 8.2 0 2.255-.071.41-.129-4.1-.129s-6.355.058-4.1.129M317.381 207.8c-.001 7.92.053 11.217.118 7.326.066-3.891.066-10.371.001-14.4-.066-4.029-.119-.846-.119 7.074m-189.403-11.9l-1.378 1.5 1.5-1.378c1.396-1.284 1.684-1.622 1.378-1.622-.066 0-.741.675-1.5 1.5m140.983 5.7l.039 1 11.3.01 11.3.009-11.174-.116-11.174-.115-.165-.894c-.141-.767-.159-.751-.126.106m-209.658.4c.14.515 1.771.601 11.53.61l11.367.01-11.18-.117c-8.299-.086-11.271-.243-11.531-.609-.255-.36-.306-.332-.186.106m249.598 1c.004.88.086 1.193.182.695.096-.497.092-1.217-.008-1.6-.1-.382-.179.025-.174.905m-209.218 6.096l-.083 4.097-19.9.107-19.9.108 19.913.096c16.229.078 19.95-.002 20.115-.434.112-.292.144-2.227.071-4.3l-.133-3.77-.083 4.096m23.645 1.304c0 1.43.073 2.015.161 1.3.089-.715.089-1.885 0-2.6-.088-.715-.161-.13-.161 1.3m128 0c0 1.43.073 2.015.161 1.3.089-.715.089-1.885 0-2.6-.088-.715-.161-.13-.161 1.3m17.622 3.387c-.124.323-.133.818-.019 1.1.113.282.22.11.237-.383l.032-.897 20.1-.107 20.1-.108-20.113-.096c-17.368-.083-20.143-.016-20.337.491M98.567 229c0 4.18.059 5.836.131 3.679.073-2.156.072-5.576 0-7.6-.073-2.023-.132-.259-.131 3.921m209.6 0c0 4.18.059 5.836.131 3.679.073-2.156.072-5.576 0-7.6-.073-2.023-.132-.259-.131 3.921M272 222.925c0 .069.585.654 1.3 1.3l1.3 1.175-1.175-1.3c-1.095-1.212-1.425-1.484-1.425-1.175m-138.509 4.164c.71.088 1.97.09 2.8.003.83-.087.249-.159-1.291-.161-1.54-.002-2.219.069-1.509.158m-57.191 1.6c.715.089 1.885.089 2.6 0 .715-.088.13-.161-1.3-.161-1.43 0-2.015.073-1.3.161m209.607.001c.719.089 1.799.087 2.4-.004s.013-.164-1.307-.162c-1.32.002-1.812.077-1.093.166m-26.724 3.81c.981 1.045 1.836 1.9 1.9 1.9.301 0-.017-.359-1.783-2.017l-1.9-1.783 1.783 1.9m-209.583.1c.746.77 1.447 1.4 1.557 1.4.11 0-.411-.63-1.157-1.4-.746-.77-1.447-1.4-1.557-1.4-.11 0 .411.63 1.157 1.4m64.2 3.4c.859.88 1.652 1.6 1.762 1.6.11 0-.503-.72-1.362-1.6-.859-.88-1.652-1.6-1.762-1.6-.11 0 .503.72 1.362 1.6m207-1.475c0 .069.585.654 1.3 1.3l1.3 1.175-1.175-1.3c-1.095-1.212-1.425-1.484-1.425-1.175M247 239.2l-10 .221 10.1.09c6.526.057 10.1-.053 10.1-.311 0-.22-.045-.36-.1-.311-.055.05-4.6.189-10.1.311m-97.722.298c2.353.071 6.313.071 8.8.001 2.487-.07.562-.128-4.278-.129-4.84 0-6.875.058-4.522.128m-75.563 1.998c1.273.08 3.253.079 4.4-.002 1.147-.08.105-.145-2.315-.144-2.42.001-3.358.066-2.085.146m52.176-.007c.71.088 1.97.09 2.8.003.83-.087.249-.159-1.291-.161-1.54-.002-2.219.069-1.509.158m157.424.007c1.273.08 3.253.079 4.4-.002 1.147-.08.105-.145-2.315-.144-2.42.001-3.358.066-2.085.146"/><path fill="#b0b0b0" d="M170.986 165.3l.014 7.3 9.6.011 9.6.012-9.491-.119-9.491-.118-.123-7.194-.123-7.193.014 7.301m27.909 33.176c-.052 22.372.04 40.76.205 40.862.272.168.269-28.594-.006-66.938-.057-8.03-.147 3.704-.199 26.076m18.002-16.776c-.055 13.517.055 23.9.254 23.9.193 0 .598-.315.9-.7.497-.634.483-.648-.148-.154-.66.518-.702-.692-.803-23.2l-.106-23.746-.097 23.9m109.195-18.204l8.692.12.12 8.292.12 8.292-.012-8.4-.012-8.4-8.8-.012-8.8-.013 8.692.121M114.185 185.3l-1.985 2.1 2.1-1.985c1.155-1.092 2.1-2.037 2.1-2.1 0-.298-.371.034-2.215 1.985M70.7 190.682a5.661 5.661 0 0 0 1.8 0c.495-.095.09-.173-.9-.173s-1.395.078-.9.173m209.6 0a5.661 5.661 0 0 0 1.8 0c.495-.095.09-.173-.9-.173s-1.395.078-.9.173m-144 2a5.661 5.661 0 0 0 1.8 0c.495-.095.09-.173-.9-.173s-1.395.078-.9.173M334.976 205.4c0 6.16.056 8.624.123 5.476a307.45 307.45 0 0 0 0-11.2c-.068-3.012-.123-.436-.123 5.724m-25.618 2.8c0 3.08.063 4.287.139 2.682.076-1.604.076-4.124-.001-5.6-.077-1.475-.139-.162-.138 2.918m-58.065-2.6c0 .77.082 1.085.183.7.1-.385.1-1.015 0-1.4-.101-.385-.183-.07-.183.7M105.324 207c.002 1.32.077 1.812.166 1.093.089-.719.087-1.799-.004-2.4s-.164-.013-.162 1.307m-63.631.6c0 .77.082 1.085.183.7.1-.385.1-1.015 0-1.4-.101-.385-.183-.07-.183.7m209.216 2.8c0 .99.078 1.395.173.9a5.661 5.661 0 0 0 0-1.8c-.095-.495-.173-.09-.173.9m-145.585 3.8c.002 1.32.077 1.812.166 1.093.089-.719.087-1.799-.004-2.4s-.164-.013-.162 1.307m145.969 1c0 .77.082 1.085.183.7.1-.385.1-1.015 0-1.4-.101-.385-.183-.07-.183.7m-34.32 14.6c0 5.5.057 7.805.126 5.123.069-2.682.069-7.182 0-10-.069-2.818-.125-.623-.126 4.877m-120.988-7.92c-.467.615-.465.647.014.22.309-.275 1.061-.5 1.672-.5h1.111l.122 7.3.122 7.3-.013-7.4-.013-7.4-1.234-.12c-.825-.081-1.415.118-1.781.6m209.86-.352c-.112.18.328.249.976.154.649-.095 1.179-.242 1.179-.327 0-.305-1.957-.148-2.155.173M317.301 225c.004.88.086 1.193.182.695.096-.497.092-1.217-.008-1.6-.1-.382-.179.025-.174.905m-17.401.029c-1.495.811-1.404 1.149.1.371.66-.341 1.2-.706 1.2-.81 0-.258-.043-.243-1.3.439m42.2 2.447c.385.1 1.015.1 1.4 0 .385-.101.07-.183-.7-.183s-1.085.082-.7.183m-84.1 4.249c0 .069.585.654 1.3 1.3l1.3 1.175-1.175-1.3c-1.095-1.212-1.425-1.484-1.425-1.175M113.6 236.2c.746.77 1.447 1.4 1.557 1.4.11 0-.411-.63-1.157-1.4-.746-.77-1.447-1.4-1.557-1.4-.11 0 .411.63 1.157 1.4m222.316 4.497c1.383.078 3.543.077 4.8-.002 1.256-.079.124-.143-2.516-.142-2.64 0-3.668.065-2.284.144"/></g></svg>