<svg xmlns="http://www.w3.org/2000/svg" role="img" viewBox="0.06 1.56 321.88 92.63"><defs><style>.cls-1{fill:#313131}</style></defs><path d="M39.614 88.169q-16.117 0-24.708-7.704-8.59-7.704-8.59-21.946 0-13.938 8.007-22.25 8.008-8.311 22.402-8.312 13.076 0 19.665 7.045 6.588 7.045 6.59 20.172v6.386H24.104a16.176 16.176 0 0 0 1.673 6.614 11.543 11.543 0 0 0 3.75 4.232 15.121 15.121 0 0 0 5.322 2.256 30.252 30.252 0 0 0 6.64.683 27.194 27.194 0 0 0 6.081-.683 29.24 29.24 0 0 0 5.474-1.8 35.81 35.81 0 0 0 4.03-2.078q1.849-1.113 3.015-1.977h1.876v14.648q-2.18.863-3.979 1.596a36 36 0 0 1-4.942 1.496 51.766 51.766 0 0 1-5.955 1.191 55.08 55.08 0 0 1-7.476.43zm5.88-37.303q-.152-5.626-2.61-8.566-2.46-2.939-7.527-2.939a10.574 10.574 0 0 0-8.084 3.091 12.897 12.897 0 0 0-3.219 8.414zM125 86.648h-17.738v-5.93q-1.724 1.42-3.928 3.041a25.687 25.687 0 0 1-3.878 2.433 21.827 21.827 0 0 1-4.206 1.52 21.257 21.257 0 0 1-4.967.507 17.886 17.886 0 0 1-15.408-8.058q-5.677-8.058-5.676-21.54a38.972 38.972 0 0 1 1.926-12.925 30.386 30.386 0 0 1 5.321-9.528 22.568 22.568 0 0 1 7.502-5.854 20.98 20.98 0 0 1 9.325-2.154 23.995 23.995 0 0 1 7.324.937 45.701 45.701 0 0 1 6.665 2.915V7.785H125zm-17.738-15.712V43.01a14.124 14.124 0 0 0-3.447-1.09 18.875 18.875 0 0 0-3.65-.43q-6.385 0-9.604 4.46-3.219 4.46-3.218 12.468 0 8.414 2.56 12.164 2.559 3.751 8.286 3.75a13.11 13.11 0 0 0 4.714-.912 16.37 16.37 0 0 0 4.359-2.484zm45.039-49.314h-18.753V7.785h18.753zm-.507 65.026h-17.739V29.731h17.74zm67.7 0H198.41l-15.407-24.784-2.737 3.7v21.084h-17.739V7.785h17.739v44.196l16.827-22.25h20.932l-19.918 24.53z" class="cls-1"/><path d="M248.843 88.169q-16.117 0-24.708-7.704-8.59-7.704-8.59-21.946 0-13.938 8.007-22.25 8.007-8.311 22.402-8.312 13.076 0 19.665 7.045 6.589 7.045 6.589 20.172v6.386h-38.873a16.168 16.168 0 0 0 1.672 6.614 11.535 11.535 0 0 0 3.75 4.232 15.119 15.119 0 0 0 5.322 2.256 30.252 30.252 0 0 0 6.64.683 27.194 27.194 0 0 0 6.081-.683 29.252 29.252 0 0 0 5.474-1.8 35.81 35.81 0 0 0 4.03-2.078q1.85-1.113 3.015-1.977h1.875v14.648q-2.18.863-3.979 1.596a35.968 35.968 0 0 1-4.94 1.496 51.766 51.766 0 0 1-5.956 1.191 55.08 55.08 0 0 1-7.476.43zm5.88-37.303q-.153-5.626-2.611-8.566-2.458-2.939-7.526-2.939a10.573 10.573 0 0 0-8.084 3.091 12.894 12.894 0 0 0-3.218 8.414zm47.1 36.897q-10.845 0-15.787-4.46t-4.942-14.596v-26.61h-6.791V29.732h6.79v-16.27h17.74v16.27h17.08v12.367h-17.08V62.27q0 2.991.05 5.22a10.686 10.686 0 0 0 .812 4.005 5.6 5.6 0 0 0 2.51 2.812 10.649 10.649 0 0 0 5.244 1.04 20.898 20.898 0 0 0 6.944-1.723h1.52V86.14a50.12 50.12 0 0 1-6.132 1.192 62.071 62.071 0 0 1-7.958.43z" class="cls-1"/></svg>