<svg xmlns="http://www.w3.org/2000/svg" role="img" viewBox="-17.38 -17.38 903.76 511.26"><title>Elementl (member) logo</title><path fill="#28b7ea" fill-rule="evenodd" d="M379.527 249.195l-38.256 66.261-43.747-75.772-46.128-79.895 46.128-79.894 43.745-75.771 38.258 66.263-24.619 42.64-26.999 46.762 26.999 46.766z"/><path fill="#1a243c" fill-rule="evenodd" d="M541.52 163.913h76.513l-43.747 75.771-46.127 79.895H348.413l38.257-66.262h103.233l27-46.764z"/><path fill="#3090ce" fill-rule="evenodd" d="M528.159 0l46.128 79.895 43.747 75.772H541.52l-24.617-42.64-26.999-46.766H386.668L348.412 0h87.494z"/><path fill="#1a243c" fill-rule="evenodd" d="M386.668 74.51l49.237 85.28-49.237 85.28-49.236-85.28z"/><path fill="#3090ce" fill-rule="evenodd" d="M386.668 245.07l49.237-85.28h98.474l-49.238 85.28z"/><path fill="#28b7ea" fill-rule="evenodd" d="M534.379 159.79l-98.473.001L386.67 74.51l98.472.001z"/><path fill="#1a243c" d="M0 476.915h47.384v-11.898h-35.59v-17.742h35.59V435.48h-35.59v-17.847h35.59v-11.897H0z"/><path fill="#1a243c" d="M122.398 405.736h-11.794v71.18h47.384v-11.898h-35.59z"/><path fill="#1a243c" d="M221.219 476.915h47.384v-11.898h-35.59v-17.742h35.59V435.48h-35.59v-17.847h35.59v-11.897h-47.384z"/><path fill="#1a243c" d="M331.823 405.736v71.18h11.795V434.35l23.794 23.795 23.692-23.795v42.564h12v-71.179l-35.692 35.588z"/><path fill="#1a243c" d="M466.333 476.915h47.384v-11.898h-35.589v-17.742h35.59V435.48h-35.59v-17.847h35.59v-11.897h-47.385z"/><path fill="#1a243c" d="M624.322 448.3l-47.384-42.667v71.18h11.794v-42.565l47.487 42.667v-71.282h-11.897z"/><path fill="#1a243c" d="M699.458 417.633h23.795v59.282h11.897v-59.282h23.692v-11.897h-59.384z"/><path fill="#1a243c" d="M833.857 465.018v-59.282h-11.795v71.179h47.384v-11.897z"/></svg>