<svg xmlns="http://www.w3.org/2000/svg" role="img" viewBox="-6.44 11.06 412.62 222.62"><title>Elementl (member) logo</title><style>svg {enable-background:new 0 0 400 245}</style><path fill="#001b56" d="M1.68 225.96H23.3v-5.42H7.06v-8.1H23.3v-5.38H7.06v-8.14H23.3v-5.43H1.68zm55.84-32.47h-5.38v32.47h21.61v-5.42H57.52zm45.08 32.47h21.62v-5.42h-16.24v-8.1h16.24v-5.38h-16.24v-8.14h16.24v-5.43H102.6zm50.46-32.47v32.47h5.38v-19.42l10.86 10.86 10.8-10.86v19.42h5.47v-32.47l-16.27 16.24zm61.36 32.47h21.62v-5.42H219.8v-8.1h16.24v-5.38H219.8v-8.14h16.24v-5.43h-21.62zm72.08-13.05l-21.62-19.46v32.47h5.38V206.5l21.66 19.46V193.45h-5.42zm34.28-13.99h10.85v27.04h5.43v-27.04h10.8v-5.43h-27.08zm61.31 21.62v-27.05h-5.38v32.47h21.61v-5.42z"/><path fill="#7357e6" fill-rule="evenodd" d="M174.82 132.72l-17.46 30.23-19.95-34.57-21.04-36.45 21.04-36.45 19.95-34.56 17.46 30.22-11.23 19.46-12.32 21.33 12.32 21.34z" clip-rule="evenodd"/><path fill="#403689" fill-rule="evenodd" d="M248.72 93.81h34.91l-19.96 34.57-21.04 36.45h-82l17.45-30.23h47.1l12.31-21.33z" clip-rule="evenodd"/><path fill="#ab9af0" fill-rule="evenodd" d="M242.63 19.04l21.04 36.44 19.96 34.57h-34.91L237.49 70.6l-12.31-21.33h-47.11l-17.45-30.23h39.92z" clip-rule="evenodd"/><path fill="#001b56" fill-rule="evenodd" d="M178.07 53.03l22.47 38.9-22.47 38.91-22.45-38.91z" clip-rule="evenodd"/><path fill="#4569eb" fill-rule="evenodd" d="M178.07 130.84l22.47-38.91h44.92L223 130.84z" clip-rule="evenodd"/><path fill="#738ff0" fill-rule="evenodd" d="M245.46 91.93h-44.92l-22.46-38.9H223z" clip-rule="evenodd"/></svg>