<svg xmlns="http://www.w3.org/2000/svg" role="img" viewBox="5.71 10.21 210.08 69.33"><title>Envelop logo</title><path fill="#FF00E5" d="M15 25.675c.7279 0 1.4195.1556 2.0433.4353L36.1439 15.125c.9-.5 2-.8 3-.8 1.1 0 2.1.3 3 .8l16.4 9.5c-1.2.8-2.1 1.9999-2.7 3.3999L39.9438 18.825c-.2999-.2-.5998-.2-.8997-.2-.3 0-.6002.1-.9002.2L19.8225 29.35c.1157.422.1775.8663.1775 1.325 0 2.7615-2.2386 5-5 5s-5-2.2385-5-5c0-2.7614 2.2386-5 5-5zm46.2438 9.6828C59.3487 34.6468 58 32.8184 58 30.675c0-2.7615 2.2386-5 5-5s5 2.2385 5 5c0 1.8325-.9858 3.4348-2.4561 4.3054v20.5445c0 2.2-1.2 4.2001-3 5.3001l-16.4 9.4c0-1.5-.5001-3-1.4001-4.1l15.6001-9c.6-.3.8999-.9001.8999-1.6001V35.3578zM43.8439 69.4305c.1019.3979.1561.8149.1561 1.2445 0 2.7615-2.2386 5-5 5-2.4898 0-4.5546-1.8198-4.9367-4.202L15.8439 60.9249c-1.9-1.1-3-3.0999-3-5.2999v-18.5c.7.2 1.5.3999 2.2.3999.7 0 1.4-.0999 2-.2999v18.4c0 .7.3999 1.3.8999 1.6l17.3825 10.0583c.9135-.989 2.2213-1.6083 3.6737-1.6083 2.3291 0 4.2862 1.5925 4.8419 3.748l.0017.0017.0003.0058z"/><path fill="#FF00E5" fill-rule="evenodd" d="M49.4971 29.9351c-.3831-.6639-1.3401-.6675-1.7283-.0066l-2.7169 4.6259c-2.2374-.9213-4.8365-.78-6.993.4944l11.8016 7.6925c.1017-.8669.0598-1.7499-.129-2.6101l5.0273-1.8723c.7183-.2675.8809-1.2106.2937-1.7032l-1.3178-1.1055a.99988.99988 0 0 1-.3476-.9055l.0466-.3312c.1656-1.176-.7242-2.2364-1.9111-2.2776l-.3342-.0116a.9996.9996 0 0 1-.8314-.4995l-.8599-1.4897zm-.1418 14.8042l-12.9505-8.4414-5.7849 4.854c-.7351.6169-1.329 1.3397-1.778 2.1274l13.3426 8.6969 4.921-4.1292c1.0312-.8653 1.7844-1.939 2.2498-3.1077zm-8.7329 8.5461l-12.5368-8.1718c-.3305 1.2209-.3644 2.5112-.0916 3.7541L22.9667 50.74c-.7184.2675-.881 1.2106-.2937 1.7032l1.3178 1.1055c.2642.2217.3956.5639.3475.9055l-.0466.3312c-.1655 1.176.7242 2.2364 1.9111 2.2776l.3343.0116c.3447.0119.659.2007.8314.4995l.8598 1.4897c.3832.6639 1.3402.6675 1.7284.0066l2.7168-4.6258c2.5798 1.0622 5.6403.7118 7.9489-1.1592z" clip-rule="evenodd"/><path fill="#0B0D11" d="M82.44 46.55h14.376v-4.632H87.24v-2.4h7.872v-4.344H87.24v-2.688h9.576V27.83H82.44v18.72zm22.219 0V36.11l8.352 10.44h4.056V27.83h-4.776v10.464l-8.352-10.464h-4.0802v18.72h4.8002zm26.889 0l7.584-18.72H133.9l-4.728 12.576-4.704-12.576h-5.232l7.56 18.72h4.752zm9.734 0h14.376v-4.632h-9.576v-2.4h7.872v-4.344h-7.872v-2.688h9.576V27.83h-14.376v18.72zm17.419 0h13.752v-4.632h-8.976V27.83h-4.776v18.72zm14.89-9.36c0 5.352 4.536 9.72 9.936 9.72 5.472 0 9.936-4.368 9.936-9.72s-4.464-9.72-9.936-9.72c-5.4 0-9.936 4.368-9.936 9.72zm4.848 0c0-2.832 2.28-5.088 5.088-5.088 2.88 0 5.088 2.256 5.088 5.088 0 2.832-2.208 5.088-5.088 5.088-2.808 0-5.088-2.256-5.088-5.088zm17.724 9.36h4.8v-4.248h3.456c4.968 0 7.344-3.336 7.344-7.296 0-3.768-2.376-7.176-7.344-7.176h-8.256v18.72zm7.992-14.352c2.016 0 2.76 1.344 2.76 2.832 0 1.656-.744 2.904-2.76 2.904h-3.192v-5.736h3.192z"/><path fill="#7F818C" fill-rule="evenodd" d="M129.3 56.55c2.3 0 4.1 1.8 4.1 4 0 1.5-.8 2.7-2 3.5.083.0418.163.0836.238.1235.287.1514.525.2766.762.2766.1 0 .5 0 .7-.3l1.5 1.2c-.6.8-1.5 1.1-2.2 1.1-.954 0-1.659-.4978-2.349-.9845-.467-.3295-.926-.654-1.451-.8155-1.9-.3-3.4-2-3.4-4 0-2.3 1.8-4.1001 4.1-4.1001zm0 6.1001c1.2 0 2.1-.9001 2.1-2.1001 0-1.2-.9-2.0999-2.1-2.0999-1.2 0-2.1.8999-2.1 2.0999 0 1.2.9 2.1001 2.1 2.1001zm-44.3-2.7h3.7v4.5h-1.6v-.7c-.4.6-1.2.9-2 .9-2.2 0-4.1-1.8-4.1-4s1.9-4 4.1-4c1.3 0 2.5.6 3.3 1.6l-1.6 1.1c-.4-.5-1-.8001-1.7-.8001-1.2 0-2.1.9001-2.1 2.1001 0 1.2.9 2.1 2.1 2.1.7 0 1.3-.3 1.7-.9v-.2H85v-1.7zm9.4001-3.1999c2 0 2.9 1.3 2.9 2.8 0 1.1-.5 2.1001-1.5 2.6001l1.7 2.2999h-2.4l-1.5-2.1h-1v2.1h-2v-7.7h3.8zm-1.8 1.9001v2h1.7c.8 0 1.1-.5 1.1-1 0-.6-.3-1-1.1-1h-1.7zM106.7 64.4502l-3.1-7.7h-2l-3.1 7.7h2.2l.4-1.1h3l.4 1.1h2.2zm-5-2.9l.9-2.3.8 2.3h-1.7zm6.5-4.8h3.4c2.1 0 3 1.4 3 3s-1 3-3 3h-1.4v1.8h-2v-7.8zm2 1.8v2.4h1.3c.8 0 1.1-.5 1.1-1.2 0-.6-.3-1.2-1.1-1.2h-1.3zm13.3 5.9v-7.7h-2v3h-3.2v-3h-2v7.7h2v-2.9h3.2v2.9h2zm13.6-7.7h-2v7.7h5.7v-1.9h-3.7v-5.8z" clip-rule="evenodd"/></svg>