<svg xmlns="http://www.w3.org/2000/svg" role="img" viewBox="216.42 138.42 1486.16 422.16"><title>Escape (member) logo</title><switch><g><path fill="#FFF" d="M0 0h1920v700H0z"/><path d="M818.4 417.6l10-1 .7 20.3c-26.2 3.7-48.6 5.5-67.2 5.5-24.8 0-42.4-7.2-52.7-21.5-10.3-14.4-15.5-36.7-15.5-67.1 0-60.4 24-90.7 72.1-90.7 23.2 0 40.6 6.5 52.1 19.5s17.2 33.4 17.2 61.2l-1.4 19.7H719.8c0 19.1 3.4 33.2 10.3 42.4 6.9 9.2 18.9 13.8 36 13.8 17.2 0 34.6-.7 52.3-2.1zm-9.3-74.8c0-21.1-3.4-36.1-10.2-44.8-6.8-8.7-17.8-13.1-33.1-13.1s-26.8 4.6-34.5 13.8c-7.7 9.2-11.7 23.9-11.9 44.1h89.7zm120.3-56.6c-25.1 0-37.6 8.7-37.6 26.2 0 8 2.9 13.7 8.6 17.1 5.7 3.3 18.8 6.8 39.3 10.3 20.5 3.6 34.9 8.6 43.4 15s12.8 18.5 12.8 36.2c0 17.7-5.7 30.7-17.1 39-11.4 8.3-28 12.4-49.8 12.4-14.3 0-31-1.6-50.3-4.8l-10.3-1.7 1.4-22.4c26.2 3.9 46 5.9 59.3 5.9 13.3 0 23.5-2.1 30.5-6.4 7-4.3 10.5-11.4 10.5-21.4 0-10-3-16.8-9-20.3-6-3.6-19.1-6.9-39.3-10.2-20.2-3.2-34.6-7.9-43.1-14.1-8.5-6.2-12.8-17.7-12.8-34.5s5.9-29.2 17.8-37.2c11.8-8 26.6-12.1 44.3-12.1 14 0 31.6 1.6 52.7 4.8l9.7 1.7-.7 22.1c-25.5-3.7-45.6-5.6-60.3-5.6zm170.7-23.1c7.6 0 20.5 1.4 38.6 4.1l8.3 1-1 21c-18.4-2.1-31.9-3.1-40.7-3.1-19.5 0-32.8 4.7-39.8 14s-10.5 26.5-10.5 51.7c0 25.2 3.3 42.7 9.8 52.6 6.6 9.9 20.2 14.8 40.9 14.8l40.7-3.1 1 21.4c-21.4 3.2-37.4 4.8-47.9 4.8-26.9 0-45.5-6.9-55.7-20.7-10.2-13.8-15.3-37.1-15.3-69.8s5.5-55.7 16.5-68.9c10.9-13.2 29.3-19.8 55.1-19.8zm207.5 55.5v88.3c.7 8.5 7.4 13.6 20 15.2l-1 20.3c-18.2 0-31.8-4.6-41-13.8-20.7 9.2-41.4 13.8-62.1 13.8-15.9 0-27.9-4.5-36.2-13.4-8.3-9-12.4-21.8-12.4-38.6s4.3-29.1 12.8-37.1c8.5-7.9 21.8-12.8 40-14.6l54.1-5.2v-14.8c0-11.7-2.5-20.1-7.6-25.2-5.1-5.1-12-7.6-20.7-7.6-18.4 0-37.5 1.2-57.2 3.4l-10.7 1-1-19.7c25.3-5.1 47.7-7.6 67.2-7.6s33.7 4.5 42.6 13.4c8.8 9.1 13.2 23.2 13.2 42.2zM1201.4 389c0 21.1 8.7 31.7 26.2 31.7 15.6 0 31-2.6 46.2-7.9l7.9-2.8v-56.9l-51 4.8c-10.3.9-17.8 3.9-22.4 9-4.6 5.1-6.9 12.4-6.9 22.1zm157.2 126.5V266.6h25.5V279c17.5-10.6 34.7-15.9 51.7-15.9 21.8 0 37.7 7 47.6 20.9 9.9 13.9 14.8 36.8 14.8 68.8 0 31.9-5.8 54.9-17.4 68.8-11.6 13.9-30.9 20.9-57.7 20.9-14 0-26.9-1.3-38.6-3.8v76.9h-25.9zm73.5-229.3c-6.9 0-14.3 1.2-22.2 3.4-7.9 2.3-14.2 4.6-18.8 6.9l-6.6 3.4v116.2c16.3 2.5 28.7 3.8 37.2 3.8 18.6 0 31.7-5.3 39.1-15.9 7.5-10.6 11.2-27.8 11.2-51.7 0-23.9-3.4-40.9-10.2-51-6.7-10-16.6-15.1-29.7-15.1zm225.4 131.4l10-1 .7 20.3c-26.2 3.7-48.6 5.5-67.2 5.5-24.8 0-42.4-7.2-52.7-21.5-10.3-14.4-15.5-36.7-15.5-67.1 0-60.4 24-90.7 72.1-90.7 23.2 0 40.6 6.5 52.1 19.5s17.2 33.4 17.2 61.2l-1.4 19.7H1559c0 19.1 3.4 33.2 10.3 42.4 6.9 9.2 18.9 13.8 36 13.8s34.5-.7 52.2-2.1zm-9.3-74.8c0-21.1-3.4-36.1-10.2-44.8-6.8-8.7-17.8-13.1-33.1-13.1s-26.8 4.6-34.5 13.8c-7.7 9.2-11.7 23.9-11.9 44.1h89.7z" fill="#050028"/><path fill="#05E2B7" d="M375 376.9c-44.4 0-80.5-36.1-80.5-80.5 0-36.5 25.5-67.5 65.1-78.9 30.9-8.9 160.8-45.1 166.3-46.7 1.4-.4 2.7-.8 4.1-1.2.1 0 .2-.1.3-.1 6.3-1.6 12.8-2.4 19.4-2.4 44.4 0 80.5 36.1 80.5 80.5 0 37-25.2 66.6-67.4 79.3l-162.6 45.9c-2.3.8-4.6 1.4-7 2-.1 0-.1 0-.2.1-5.8 1.3-11.9 2-18 2zm174.8-186c-4.6 0-9.2.6-13.7 1.7-1.2.3-2.2.6-3.3.9-.1 0-.2.1-.4.1-1.3.4-134.9 37.6-166.3 46.6-23.2 6.7-48 25-48 56.2 0 31.3 25.5 56.8 56.8 56.8 4.3 0 8.6-.5 12.8-1.4 1.8-.4 3.5-.9 5.3-1.5.2-.1.4-.1.5-.2l162.7-45.9c15-4.5 50.3-19.1 50.3-56.6.1-31.2-25.4-56.7-56.7-56.7z"/><path fill="#05E2B7" d="M350.7 453.8c-44.4 0-80.5-36.1-80.5-80.5 0-36.5 25.5-67.5 65.1-78.9 30.9-8.9 160.8-45.1 166.3-46.7 1.4-.4 2.7-.8 4.1-1.2.1 0 .2-.1.3-.1 6.3-1.6 12.8-2.4 19.4-2.4 44.4 0 80.5 36.1 80.5 80.5 0 37-25.2 66.6-67.4 79.3l-162.6 45.8c-2.3.8-4.6 1.4-7 2-.1 0-.1 0-.2.1-5.8 1.4-11.9 2.1-18 2.1zm174.8-186c-4.6 0-9.2.6-13.7 1.7-1.2.3-2.2.6-3.3.9-.1 0-.2.1-.4.1-1.3.4-134.9 37.6-166.3 46.6-23.2 6.7-48 25-48 56.2 0 31.3 25.5 56.8 56.8 56.8 4.3 0 8.6-.5 12.8-1.4 1.8-.4 3.5-.9 5.2-1.5.2-.1 163.2-46 163.2-46 15-4.5 50.3-19.1 50.3-56.6.2-31.3-25.3-56.8-56.6-56.8z" opacity=".7"/><path fill="#05E2B7" d="M326.4 532.7c-44.4 0-80.5-36.1-80.5-80.5 0-36.5 25.5-67.5 65.1-78.9 30.9-8.9 160.8-45.1 166.3-46.7 1.4-.4 2.7-.8 4.1-1.2.1 0 .2-.1.3-.1 6.3-1.6 12.8-2.4 19.4-2.4 44.4 0 80.5 36.1 80.5 80.5 0 37-25.2 66.6-67.4 79.3l-162.6 45.9c-2.4.8-4.8 1.5-7.2 2-5.8 1.5-11.9 2.1-18 2.1zm174.8-185.9c-4.6 0-9.2.6-13.7 1.7-1.2.3-2.2.6-3.3.9-.1 0-.2.1-.4.1-1.3.4-134.9 37.6-166.3 46.6-23.2 6.7-48 25-48 56.2 0 31.3 25.5 56.8 56.8 56.8 4.3 0 8.6-.5 12.8-1.4 1.8-.4 3.5-.9 5.3-1.5.2-.1.4-.1.5-.2l162.7-45.9c15-4.5 50.3-19.1 50.3-56.6.1-31.3-25.4-56.7-56.7-56.7z" opacity=".45"/></g></switch></svg>