<svg xmlns="http://www.w3.org/2000/svg" role="img" viewBox="286.31 185.31 763.88 491.38"><defs><clipPath id="a" clipPathUnits="userSpaceOnUse"><path d="M564.709 306.213c-8.091-4.852-14.533-11.362-19.321-19.531-4.788-8.168-7.181-17.008-7.181-26.522 0-9.802 2.37-18.763 7.11-26.883 4.74-8.119 11.18-14.534 19.32-19.242 8.14-4.709 16.998-7.063 26.574-7.063 9.48 0 18.314 2.379 26.502 7.134 8.188 4.757 14.676 11.22 19.464 19.388 4.788 8.168 7.182 17.057 7.182 26.666 0 9.514-2.418 18.354-7.254 26.522-4.835 8.169-11.324 14.679-19.464 19.531-8.139 4.853-16.95 7.279-26.43 7.279-9.576 0-18.411-2.426-26.502-7.279m7.832-80.473c-5.986 3.556-10.702 8.361-14.15 14.414-3.447 6.054-5.17 12.637-5.17 19.747 0 7.207 1.699 13.886 5.099 20.037 3.4 6.149 8.068 11.026 14.005 14.629 5.938 3.604 12.449 5.406 19.536 5.406 7.086 0 13.598-1.778 19.534-5.334 5.938-3.555 10.63-8.407 14.078-14.558 3.447-6.15 5.171-12.828 5.171-20.035 0-7.207-1.7-13.862-5.099-19.964-3.399-6.102-8.044-10.906-13.934-14.414-5.889-3.508-12.377-5.261-19.463-5.261-7.087 0-13.623 1.778-19.607 5.333"/></clipPath><clipPath id="b" clipPathUnits="userSpaceOnUse"><path d="M363.313 261.621c-12.377-12.617-12.377-33.073 0-45.69 12.376-12.617 32.001-12.617 44.377 0v14.212l-7.028-6.597c-6.961-7.097-17.572-8.207-25.673-3.329l34.636 35.311c.404.412 1.135 1.179 2.193 2.301l-3.687 3.792c-6.188 6.308-14.298 9.462-22.409 9.462-8.111 0-16.222-3.154-22.409-9.462m7.47-7.615c6.96 7.097 17.571 8.206 25.673 3.327l-28.937-29.5c-4.786 8.259-3.698 19.077 3.264 26.173"/></clipPath><clipPath id="c" clipPathUnits="userSpaceOnUse"><path d="M235.283 261.621c-12.377-12.617-12.377-33.073 0-45.69 12.375-12.617 32.001-12.617 44.377 0v14.212l-7.029-6.597c-6.962-7.097-17.572-8.207-25.674-3.329l34.637 35.311c.404.412 1.135 1.179 2.194 2.301l-3.687 3.792c-6.189 6.308-14.3 9.462-22.409 9.462-8.111 0-16.222-3.154-22.409-9.462m7.469-7.615c6.961 7.097 17.571 8.206 25.673 3.327l-28.937-29.5c-4.785 8.259-3.698 19.077 3.264 26.173"/></clipPath><clipPath id="d" clipPathUnits="userSpaceOnUse"><path d="M728.495 261.621c-12.377-12.617-12.377-33.073 0-45.69 12.376-12.617 32.001-12.617 44.377 0v14.212l-7.03-6.597c-6.96-7.097-17.57-8.207-25.672-3.329l34.636 35.311c.405.412 1.135 1.179 2.194 2.301l-3.688 3.792c-6.188 6.308-14.298 9.462-22.409 9.462-8.11 0-16.22-3.154-22.408-9.462m7.47-7.615c6.961 7.097 17.571 8.206 25.673 3.327l-28.938-29.5c-4.785 8.259-3.697 19.077 3.265 26.173"/></clipPath><clipPath id="e" clipPathUnits="userSpaceOnUse"><path d="M442.745 266.431c-4.214-2.451-7.374-5.838-9.481-10.162v13.187h-12.927v-61.331h13.359v27.964c0 6.534 1.723 11.915 5.171 16.143 3.447 4.229 7.805 6.342 13.071 6.342 3.639-.096 6.368-1.105 8.188-3.026 1.82-1.922 2.825-4.565 3.016-7.928v-39.495h13.503v44.107c-.096 5.286-1.963 9.585-5.602 12.901-3.639 3.315-8.236 4.972-13.79 4.972-5.458 0-10.294-1.224-14.508-3.674"/></clipPath><clipPath id="f" clipPathUnits="userSpaceOnUse"><path d="M677.103 266.431c-4.214-2.451-7.373-5.838-9.48-10.162v13.187h-12.928v-61.331h13.359v27.964c0 6.534 1.723 11.915 5.171 16.143 3.448 4.229 7.804 6.342 13.072 6.342 3.638-.096 6.368-1.105 8.187-3.026 1.82-1.922 2.825-4.565 3.017-7.928v-39.495h13.503v44.107c-.097 5.286-1.964 9.585-5.603 12.901-3.639 3.315-8.235 4.972-13.79 4.972-5.457 0-10.294-1.224-14.508-3.674"/></clipPath><clipPath id="g" clipPathUnits="userSpaceOnUse"><path d="M425.079 523.601c-35.23-35.197-35.23-92.264 0-127.462 35.231-35.199 92.349-35.199 127.58 0l61.093 61.038a3.757 3.757 0 0 1-2.658 6.411H544.19a3.75 3.75 0 0 1-2.656-1.101 3.75 3.75 0 0 1 0-5.31l10.593-10.584a6.005 6.005 0 0 0 0-8.498l-20.733-20.713c-19.815-19.797-50.017-22.891-73.081-9.283l98.598 98.507a9.007 9.007 0 0 1 0 12.746l-4.252 4.249C535.043 541.2 511.956 550 488.868 550c-23.087 0-46.174-8.8-63.789-26.399m21.263-21.244c19.816 19.799 50.019 22.893 73.082 9.284l-82.374-82.298c-13.621 23.042-10.523 53.217 9.292 73.014"/></clipPath><linearGradient id="h" x1="8.287" x2="175.899" y1="-35.24" y2="110.134" gradientTransform="matrix(1 0 0 -1 398.657 550)" gradientUnits="userSpaceOnUse" spreadMethod="pad"><stop offset="0" stop-color="#163172"/><stop offset="1" stop-color="#088aff"/></linearGradient></defs><g clip-path="url(#a)" transform="matrix(1.33333 0 0 -1.33333 0 933.333)"><path fill="#088aff" d="M533.207 318.492h116.152V201.971H533.207z"/></g><g clip-path="url(#b)" transform="matrix(1.33333 0 0 -1.33333 0 933.333)"><path fill="#163172" d="M349.031 276.083h67.788v-74.615h-67.788z"/></g><g clip-path="url(#c)" transform="matrix(1.33333 0 0 -1.33333 0 933.333)"><path fill="#163172" d="M221 276.083h67.788v-74.615H221z"/></g><g clip-path="url(#d)" transform="matrix(1.33333 0 0 -1.33333 0 933.333)"><path fill="#088aff" d="M714.213 276.083H782v-74.615h-67.787z"/></g><path fill="#163172" d="M450.722 576.267l-22.217 50.739-23.94-50.739h-21.259l44.05 86.29h.957l42.328-86.29z"/><g clip-path="url(#e)" transform="matrix(1.33333 0 0 -1.33333 0 933.333)"><path fill="#163172" d="M415.337 275.105h66.308v-71.98h-66.308z"/></g><path fill="#163172" d="M666.517 541.289v35.17h-21.16v14.222h21.16v65.153h18.004V590.68h19.44v-14.222h-19.44v-35.17z"/><g clip-path="url(#f)" transform="matrix(1.33333 0 0 -1.33333 0 933.333)"><path fill="#088aff" d="M649.695 275.105h66.309v-71.98h-66.309z"/></g><g clip-path="url(#g)" transform="matrix(1.33333 0 0 -1.33333 0 933.333)"><path fill="url(#h)" d="M425.079 523.601c-35.23-35.197-35.23-92.264 0-127.462 35.231-35.199 92.349-35.199 127.58 0l61.093 61.038a3.757 3.757 0 0 1-2.658 6.411H544.19a3.75 3.75 0 0 1-2.656-1.101 3.75 3.75 0 0 1 0-5.31l10.593-10.584a6.005 6.005 0 0 0 0-8.498l-20.733-20.713c-19.815-19.797-50.017-22.891-73.081-9.283l98.598 98.507a9.007 9.007 0 0 1 0 12.746l-4.252 4.249C535.043 541.2 511.956 550 488.868 550c-23.087 0-46.174-8.8-63.789-26.399m21.263-21.244c19.816 19.799 50.019 22.893 73.082 9.284l-82.374-82.298c-13.621 23.042-10.523 53.217 9.292 73.014"/></g></svg>