<svg xmlns="http://www.w3.org/2000/svg" role="img" viewBox="7.12 6.62 669.76 117.76"><title>Expedia Group (member) logo</title><style>svg {enable-background:new 0 0 693.9 123.6}</style><style>.st0{fill:#009}</style><path d="M59.9 63.9c0-5.1-4.7-12.4-13.7-12.4-8.2 0-13.7 7-13.7 14.2 0 8.6 5.9 14.7 16.1 14.7h19.3c-4.6 7.1-12.5 11.7-21.6 11.7-14.4 0-26.1-11.8-26.1-26.2 0-14.4 11.7-26.2 26.1-26.2s26.2 11.8 26.2 26.2c0 2.9-.5 5.6-1.3 8.2H42.1v-2.9l10.3-.3c5.2-.2 7.5-2.9 7.5-7" class="st0"/><path d="M94.2 56l10-14.7h13.7L101 65l18.3 25.5h-14.6L93.8 74.6l-11 15.9H69l18-24.9-17.5-24.3h14.6zm53.4 25.4c7.4 0 13.9-6.5 13.9-15.5s-6.5-15.5-13.9-15.5c-7.3 0-13.9 6.5-13.9 15.5s6.6 15.5 13.9 15.5M134.5 51c3.6-7.6 10.1-11 16.6-11 11.9 0 22.7 10.1 22.7 26S163 92 151.1 92c-6.6 0-13-3.4-16.6-11-.2-.4-.5-.3-.5.1v29.8h-12.7V41.3H134v9.5c-.1.5.2.6.5.2m83 12.9c0-5.1-4.7-12.4-13.7-12.4-8.2 0-13.7 7-13.7 14.2 0 8.6 5.9 14.7 16.1 14.7h19.3c-4.6 7.1-12.5 11.7-21.6 11.7-14.4 0-26.1-11.8-26.1-26.2 0-14.4 11.7-26.2 26.1-26.2s26.2 11.8 26.2 26.2c0 2.9-.5 5.6-1.3 8.2h-29.1v-2.9l10.3-.3c5.2-.2 7.5-2.9 7.5-7m42.9-13.5c-7.4 0-13.9 6.5-13.9 15.5s6.5 15.5 13.9 15.5c7.3 0 13.9-6.5 13.9-15.5s-6.6-15.5-13.9-15.5m13.1 30.4c-3.6 7.6-10.1 11-16.6 11-11.9 0-22.7-10.1-22.7-26s10.8-26 22.7-26c6.6 0 13 3.4 16.6 11 .2.4.5.3.5-.1V20h12.7v70.4H274V81c.1-.5-.2-.6-.5-.2m35.1 9.7h-12.7V41.3h12.7v49.2zM294.8 27c0-4 3.4-7.4 7.4-7.4s7.4 3.4 7.4 7.4-3.4 7.4-7.4 7.4-7.4-3.3-7.4-7.4m46.3 23.4c-7.4 0-13.9 6.5-13.9 15.5s6.5 15.5 13.9 15.5c7.3 0 13.9-6.5 13.9-15.5s-6.6-15.5-13.9-15.5m13.2 30.4c-3.6 7.6-10.1 11-16.6 11-11.9 0-22.7-10.1-22.7-26s10.8-26 22.7-26c6.6 0 13 3.4 16.6 11 .2.4.5.3.5-.1v-9.5h12.7v49.2h-12.7V81c0-.5-.3-.6-.5-.2m63-30.4c-7.3 0-13.7 6.4-13.7 15.3S410 81 417.3 81c7.2 0 13.7-6.4 13.7-15.3s-6.5-15.3-13.7-15.3m13.4 30.1c0-.4-.3-.5-.5-.1-3.6 7.6-10 11-16.4 11-11.8 0-22.5-10-22.5-25.7S402 40 413.8 40c6.5 0 12.8 3.4 16.4 11 .2.4.5.3.5-.1v-9.5h12.7v46.3c0 13.7-9.4 24.3-25.7 24.3-9.1 0-17.1-3.2-22.9-8.6l7.6-8.3c5.1 4 9.1 6.1 15 6.1 9.3 0 13.2-6.6 13.2-14.7v-6zm34.6-39.2V52c0 .2.2.3.3 0 1.7-8.8 5.5-12.1 12.1-12.1h1.2v13.3h-5.7c-5.2 0-7.8 4-7.8 9.7v27.4h-12.7v-49h12.6zm40.5 10c-7.6 0-13.9 6.4-13.9 14.6 0 8.3 6.3 14.6 13.9 14.6 7.6 0 13.9-6.4 13.9-14.6-.1-8.3-6.3-14.6-13.9-14.6m.1-11.6c14.3 0 26.1 11.8 26.1 26.2 0 14.4-11.8 26.2-26.1 26.2-14.5 0-26.3-11.8-26.3-26.2 0-14.4 11.7-26.2 26.3-26.2m52.4 52.4c-12.4 0-20.3-7.5-20.3-18.5V41.3h12.7v31.3c0 4.9 3.2 8.1 7.9 8.1 4.3 0 7.6-3.3 7.6-7.9V41.3H579v32.2c0 11.1-8.6 18.6-20.7 18.6m55.8-10.7c7.4 0 13.9-6.5 13.9-15.5s-6.5-15.5-13.9-15.5c-7.3 0-13.9 6.5-13.9 15.5s6.6 15.5 13.9 15.5M601 51c3.6-7.6 10.1-11 16.6-11 11.9 0 22.7 10.1 22.7 26s-10.8 26-22.7 26c-6.6 0-13-3.4-16.6-11-.2-.4-.5-.3-.5.1v29.8h-12.7V41.3h12.7v9.5c0 .5.3.6.5.2m47.7-9.5v1.2h2.2v6.2h1.4v-6.2h2.2v-1.2h-5.8zm13.5 0l-2 5.2-2-5.2h-2.1v7.4h1.3v-5.8l2.2 5.8h1l2.2-5.8v5.8h1.3v-7.4h-1.9z" class="st0"/></svg>