<svg xmlns="http://www.w3.org/2000/svg" role="img" viewBox="6.17 5.92 88.53 34.66"><style>svg {enable-background:new 0 0 100.9 46.9}</style><path fill="#2d2c34" d="M87 28.4l3.2-4.6c.4-.5.4-.4 0-.9L87 18.3h2.3c.3 0 .7.2.9.5L93 23c.1.2.1.6 0 .8L90.2 28c-.2.2-.6.5-.9.5H87zM7.9 19h7v1.2H9.1v2.9h5.4v1.1H9.1v3.3H15v1.2H7.9zm9.7 9.7H16l3.5-5-3.3-4.7h1.7l2.4 3.7 2.5-3.7h1.5l-3.2 4.7 3.4 5h-1.6l-2.6-4zM26 19h4.4c.9 0 1.6.2 2.1.7.5.5.8 1.2.8 2.1 0 .8-.2 1.4-.7 2-.5.6-1.2.8-2.2.8h-3v4.1H26V19zm5.1 1.3c-.3-.1-.7-.2-1.2-.2h-2.6v3.4h2.6c.6 0 1.1-.1 1.4-.4.4-.3.5-.7.5-1.3.1-.8-.2-1.2-.7-1.5M35 19h7.1v1.2h-5.8v2.9h5.3v1.1h-5.3v3.3h5.9v1.2H35zm9.1 0h4.4c.7 0 1.3.1 1.8.3.9.4 1.3 1.2 1.3 2.3 0 .6-.1 1.1-.4 1.4-.2.4-.6.7-1 .9.4.2.7.4.9.6.2.3.3.7.3 1.2V27c0 .4 0 .6.1.8.1.3.2.5.4.6v.2h-1.6c0-.1-.1-.2-.1-.3 0-.1 0-.4-.1-.8l.1-1.5c0-.6-.3-1.1-.7-1.3-.2-.1-.6-.2-1.2-.2h-2.9v4.2h-1.3V19zm4.3 4.4c.6 0 1.1-.1 1.4-.4.3-.2.5-.7.5-1.3 0-.7-.2-1.2-.7-1.4-.3-.1-.6-.2-1-.2h-3.1v3.3h2.9zM60.6 19v1.1h-3.3v8.6H56v-8.6h-3.3V19z"/><path fill="#f16439" d="M64.4 25.5c0 .4.1.8.2 1 .2.5.7.7 1.3.7.4 0 .7-.1 1-.4.3-.3.4-.7.4-1.2 0-.7-.3-1.1-.8-1.4-.3-.1-.8-.2-1.5-.2v-1.4c.7 0 1.1-.1 1.4-.2.4-.2.7-.6.7-1.2 0-.4-.1-.7-.3-1-.2-.2-.6-.4-1-.4-.5 0-.8.2-1.1.5-.2.3-.3.7-.3 1.2h-1.9c0-.5.1-1 .3-1.5.2-.4.4-.8.8-1.1l.9-.6c.4-.1.8-.2 1.3-.2 1 0 1.8.3 2.4.8.6.5.9 1.2.9 2 0 .6-.2 1.1-.5 1.5-.2.3-.5.4-.7.5.2 0 .4.2.8.5.5.5.8 1.1.8 2 0 .9-.3 1.6-.9 2.3-.6.7-1.5 1-2.7 1-1.5 0-2.5-.5-3-1.4-.3-.5-.5-1.2-.5-2h2zM75.1 21c0-.2-.1-.3-.2-.5-.2-.3-.5-.5-1-.5-.7 0-1.1.4-1.4 1.1-.2.4-.3 1-.3 1.8.3-.3.5-.5.9-.7.3-.1.7-.2 1.1-.2.9 0 1.7.3 2.2.9.6.6.9 1.4.9 2.4s-.3 1.8-.9 2.5c-.5.8-1.4 1.2-2.6 1.2-1.3 0-2.3-.5-2.9-1.6-.5-.8-.7-1.9-.7-3.3 0-.8 0-1.4.1-1.9.1-.9.3-1.6.7-2.2.3-.5.7-.9 1.2-1.2.5-.3 1-.5 1.7-.5 1 0 1.7.2 2.3.7.6.5.9 1.1 1 2h-2.1zm-2.4 5.8c.3.4.7.5 1.1.5.5 0 .8-.2 1.1-.5.3-.3.4-.8.4-1.3 0-.6-.1-1.1-.4-1.4-.3-.3-.7-.5-1.1-.5-.3 0-.7.1-.9.3-.4.3-.6.8-.6 1.5 0 .6.1 1 .4 1.4m11.6-7.1c.5.9.8 2.2.8 3.9s-.3 3-.8 3.9c-.5.9-1.4 1.4-2.8 1.4-1.3 0-2.2-.5-2.8-1.4-.5-.9-.8-2.2-.8-3.9s.3-3 .8-3.9c.5-.9 1.4-1.4 2.8-1.4 1.3 0 2.2.5 2.8 1.4m-4 6.7c.2.6.6.9 1.2.9s1-.3 1.2-.9c.2-.6.3-1.5.3-2.7 0-1.2-.1-2.2-.3-2.8-.2-.6-.6-.9-1.2-.9s-1 .3-1.2.9c-.2.6-.3 1.5-.3 2.8 0 1.1.1 2 .3 2.7m7.7 4.7h-2.2c-.3 0-.7.2-.9.4-2.5 3-6.4 5.1-11.1 5.2h-.1c-4.7 0-8.5-2.2-11.1-5.2-.1-.2-.6-.4-.9-.4h-2.2c2.7 4.4 7.9 7.8 14.1 7.8h.2c6.3 0 11.5-3.4 14.2-7.8zm0-15.6h-2.2c-.3 0-.7-.2-.9-.4-2.5-3-6.4-5.1-11.1-5.2h-.1c-4.7 0-8.5 2.2-11.1 5.2-.1.2-.6.4-.9.4h-2.2c2.7-4.4 7.9-7.8 14.1-7.8h.2c6.3 0 11.5 3.4 14.2 7.8z"/></svg>