<svg xmlns="http://www.w3.org/2000/svg" role="img" viewBox="-0.02 0.73 260.78 37.53"><defs><style>.cls-1{fill:#677b80;fill-rule:evenodd}</style></defs><g id="FB-Microsite"><g id="Group-19"><path id="Fill-11" d="M25.026 6.697v3.498a.359.359 0 0 1-.38.38H9.644v7.146h12.382a.359.359 0 0 1 .38.38V21.6a.359.359 0 0 1-.38.38H9.644v10.567a.358.358 0 0 1-.38.38h-3.76a.359.359 0 0 1-.38-.38V6.697a.359.359 0 0 1 .38-.38h19.142a.36.36 0 0 1 .38.38" class="cls-1"/><path id="Fill-12" d="M47.68 21.674c-1.386-3.839-2.924-7.678-4.5-11.176h-.893a159.117 159.117 0 0 0-4.52 11.176zm7.957 11.252h-4.14a.413.413 0 0 1-.436-.342 102.615 102.615 0 0 0-1.975-6.804H36.382a91.784 91.784 0 0 0-1.957 6.804.413.413 0 0 1-.436.342H30c-.266 0-.418-.152-.342-.418a177.088 177.088 0 0 1 9.723-25.697.726.726 0 0 1 .74-.494h5.393a.726.726 0 0 1 .741.494 174.058 174.058 0 0 1 9.723 25.697c.076.266-.076.418-.342.418z" class="cls-1"/><path id="Fill-13" d="M62.435 19.85c0-8.25 5.43-14.027 13.179-14.027h.57a11.824 11.824 0 0 1 10.615 6.044.336.336 0 0 1-.133.532l-3.342 1.654a.463.463 0 0 1-.665-.171 7.062 7.062 0 0 0-6.627-3.725h-.57c-4.88 0-8.242 3.877-8.242 9.503 0 5.644 3.304 9.427 8.242 9.427h.57a7.794 7.794 0 0 0 6.475-2.737.483.483 0 0 1 .627-.133l3.437 1.673a.315.315 0 0 1 .19.265.502.502 0 0 1-.114.286c-2.108 3.079-5.906 4.98-10.54 4.98h-.57c-7.88 0-13.102-5.418-13.102-13.571" class="cls-1"/><path id="Fill-14" d="M117.05 29.049v3.497a.359.359 0 0 1-.38.38H96.73a.359.359 0 0 1-.38-.38V6.697a.36.36 0 0 1 .38-.38h19.597a.36.36 0 0 1 .38.38v3.498a.359.359 0 0 1-.38.38H100.87v6.918h12.572a.36.36 0 0 1 .38.38v3.46a.36.36 0 0 1-.38.38H100.87v6.956h15.8a.36.36 0 0 1 .38.38" class="cls-1"/><path id="Fill-15" d="M146.748 25.228c0-2.47-1.633-3.592-5.222-3.592h-8.944v7.147h8.944c3.647 0 5.222-1.065 5.222-3.555m-6.494-14.768h-7.672v7.147h7.672c3.437 0 5.013-1.121 5.013-3.573s-1.576-3.574-5.013-3.574m11.128 15.167c0 4.657-3.57 7.3-9.875 7.3h-13.065a.36.36 0 0 1-.38-.38V6.697a.36.36 0 0 1 .38-.38h11.907c6.134 0 9.476 2.433 9.476 6.88 0 2.928-1.481 4.847-4.482 5.74 4.216.894 6.039 3.422 6.039 6.69" class="cls-1"/><path id="Fill-16" d="M173.58 29.087c5.45 0 8.887-3.745 8.887-9.465 0-5.721-3.437-9.466-8.887-9.466h-.57c-5.45 0-8.887 3.745-8.887 9.466 0 5.72 3.437 9.465 8.887 9.465zm-14.242-9.465c0-8.021 5.317-13.8 13.672-13.8h.57c8.356 0 13.673 5.779 13.673 13.8 0 8.02-5.317 13.798-13.673 13.798h-.57c-8.355 0-13.672-5.778-13.672-13.798z" class="cls-1"/><path id="Fill-17" d="M209.205 29.087c5.45 0 8.886-3.745 8.886-9.465 0-5.721-3.437-9.466-8.886-9.466h-.57c-5.45 0-8.887 3.745-8.887 9.466 0 5.72 3.437 9.465 8.886 9.465zm-14.243-9.465c0-8.021 5.317-13.8 13.672-13.8h.57c8.356 0 13.674 5.779 13.674 13.8 0 8.02-5.318 13.798-13.673 13.798h-.57c-8.356 0-13.673-5.778-13.673-13.798z" class="cls-1"/><path id="Fill-18" d="M255.634 32.926h-4.9a.722.722 0 0 1-.665-.323 103.834 103.834 0 0 0-10.957-11.043h-2.202v10.986a.359.359 0 0 1-.38.38h-3.76a.359.359 0 0 1-.38-.38V6.697a.36.36 0 0 1 .38-.38h3.76a.36.36 0 0 1 .38.38V17.19h2.24a81.59 81.59 0 0 0 9.913-10.587.61.61 0 0 1 .57-.285h4.633c.229 0 .342.114.342.266a.472.472 0 0 1-.133.285 94.653 94.653 0 0 1-11.868 12.355 114.608 114.608 0 0 1 13.236 13.228c.208.247.095.475-.21.475" class="cls-1"/></g></g></svg>