<svg xmlns="http://www.w3.org/2000/svg" role="img" viewBox="-10.57 -10.57 549.64 321.64"><defs><style>.cls-1{fill:#0089d0}.cls-2{isolation:isolate}.cls-3{fill:#fff}</style></defs><g id="Layer_1-2" data-name="Layer 1-2"><circle cx="150.5" cy="150.5" r="150.5" class="cls-1"/><g class="cls-2"><g class="cls-2"><path d="M39.95 180.76H28.586v-64.841h34.432v7.255H39.95v21.583h21.144v7.257H39.95z" class="cls-3"/></g><g class="cls-2"><path d="M90.348 180.76v-4.867c-2.507 3.949-6.351 5.877-11.617 5.877-8.607 0-13.455-5.602-13.455-14.328 0-9.551 5.85-13.317 20.475-13.317 1.923 0 3.344.092 4.263.184V149.9c0-3.581-.669-6.061-1.922-7.439-1.421-1.561-3.76-2.296-6.937-2.296a19.974 19.974 0 0 0-11.867 3.674v-5.602c3.343-3.307 9.36-5.236 14.96-5.236 6.017 0 10.279 1.378 12.87 4.226 2.423 2.48 3.593 6.888 3.593 13.225v30.308zm-.334-21.4h-3.176c-8.608 0-11.366 2.48-11.366 7.715 0 5.052 2.34 7.99 6.686 7.99a11.083 11.083 0 0 0 7.856-3.03zm34.348-39.584a6.873 6.873 0 0 1-1.671 4.868 5.649 5.649 0 0 1-4.179 1.745c-3.26 0-5.766-2.48-5.766-6.52 0-4.318 2.841-6.705 5.934-6.705a5.343 5.343 0 0 1 4.094 1.745 6.84 6.84 0 0 1 1.588 4.867zm-.501 60.984h-10.614v-46.472h10.614z" class="cls-3"/></g><g class="cls-2"><path d="M147 180.76h-10.614v-46.472h10.363v6.796c1.588-4.5 5.85-7.99 10.196-7.99a15.684 15.684 0 0 1 4.262.459v9a15.471 15.471 0 0 0-5.85-1.01c-3.594 0-7.271 1.377-8.358 3.214z" class="cls-3"/></g><g class="cls-2"><path d="M181.848 180.76H171.15v-39.584h-6.1v-6.888h6.1v-4.317c0-5.786 1.003-10.103 3.01-12.858 2.59-3.582 6.685-5.419 12.2-5.419 3.594 0 6.101.551 7.522 1.745v6.061a10.78 10.78 0 0 0-5.014-1.102c-2.591 0-4.43.735-5.349 2.205-1.086 1.653-1.671 4.592-1.671 8.725v4.96h8.357v6.888h-8.357z" class="cls-3"/></g><g class="cls-2"><path d="M217.703 180.76v-4.867c-2.508 3.949-6.352 5.877-11.617 5.877-8.608 0-13.455-5.602-13.455-14.328 0-9.551 5.85-13.317 20.475-13.317 1.922 0 3.343.092 4.262.184V149.9c0-3.581-.668-6.061-1.922-7.439-1.42-1.561-3.76-2.296-6.936-2.296a19.974 19.974 0 0 0-11.867 3.674v-5.602c3.342-3.307 9.36-5.236 14.959-5.236 6.017 0 10.28 1.378 12.87 4.226 2.424 2.48 3.593 6.888 3.593 13.225v30.308zm-.335-21.4h-3.176c-8.608 0-11.365 2.48-11.365 7.715 0 5.052 2.34 7.99 6.686 7.99a11.083 11.083 0 0 0 7.855-3.03z" class="cls-3"/></g><g class="cls-2"><path d="M234.672 180.76l14.792-23.42-13.79-23.052h12.87c4.68 7.99 7.69 13.225 8.943 15.612l9.277-15.612h8.941L261.5 155.87l15.126 24.889h-13.037L253.56 163.86c-.836 1.56-4.179 7.163-10.029 16.899z" class="cls-3"/></g></g><g class="cls-2"><path d="M319.17 180.76v-64.841h11.617c8.942 25.991 14.542 42.89 16.882 50.513 2.089-7.439 7.604-24.246 16.38-50.513h11.533v64.84h-8.357c.084-27.093.167-46.38.334-57.676q-4.137 13.776-17.884 54.646h-6.603l-17.968-54.646c0 14.051 0 33.339.083 57.677zm100.622-3.031c-3.76 2.847-8.356 4.224-13.956 4.224-13.455 0-20.14-8.174-20.14-24.521 0-15.522 7.27-24.247 19.053-24.247 11.784 0 16.38 6.888 16.38 21.215 0 1.563 0 2.664-.083 3.49h-27.077c.083 12.215 4.596 18.278 13.706 18.278a21.111 21.111 0 0 0 12.117-3.674zm-6.602-24.706a23.95 23.95 0 0 0 .083-2.663c0-8.266-2.924-12.4-8.858-12.4-5.6 0-10.112 3.95-10.363 15.063zm43.792 27.737v-5.143c-2.674 4.133-6.936 6.153-12.786 6.153-10.112 0-17.049-8.082-17.049-23.604 0-18.919 10.28-24.889 19.138-24.889 4.764 0 8.19 1.102 10.28 3.398v-24.43h8.023v68.515zm-.418-39.676c-1.921-1.562-4.596-2.296-8.106-2.296-8.273 0-13.037 5.05-13.037 19.01 0 11.848 3.928 17.82 11.783 17.82a14.321 14.321 0 0 0 9.36-3.216zm24.906-15.706c-2.675 0-4.764-2.112-4.764-5.418 0-3.582 2.256-5.603 4.847-5.603 2.675 0 4.763 1.93 4.763 5.511 0 3.398-2.255 5.51-4.846 5.51zm4.01 55.382h-7.939v-46.38h7.94zm35.185 0v-5.235c-2.09 3.673-6.686 6.245-12.034 6.245-8.609 0-13.54-5.602-13.54-14.143 0-9.094 5.516-13.135 20.476-13.135 2.256 0 3.844.092 4.931.184v-4.96c0-3.857-.669-6.52-1.923-7.99-1.588-1.745-4.01-2.57-7.353-2.57a20.345 20.345 0 0 0-12.203 3.764v-4.683c3.427-3.399 8.19-5.052 14.124-5.052 5.767 0 9.779 1.378 12.035 4.042 2.257 2.479 3.342 6.612 3.342 12.49v31.043zm-.167-21.767h-3.76c-10.615 0-13.79 2.755-13.79 8.358 0 5.51 2.925 8.817 7.689 8.817a13.842 13.842 0 0 0 9.861-4.041z" class="cls-1"/></g></g></svg>