<svg xmlns="http://www.w3.org/2000/svg" role="img" viewBox="7.88 20.88 1046.24 265.24"><defs><clipPath id="clip-path"><path d="M385.212 99.38L348.332 99.38 348.332 124.813 383.909 124.813 383.749 139.827 348.332 139.827 348.332 190.211 332.359 190.211 332.359 84.369 385.212 84.369 385.212 99.38z" class="cls-1"/></clipPath><clipPath id="clip-path-2"><path d="M385.212,99.38h-36.88v25.43332h35.57735l-.16,15.01334H348.332v50.384H332.35864V84.36936H385.212Z" class="cls-1"/></clipPath><clipPath id="clip-path-3"><path d="M578.17729,149.48935,562.48,113.50534l-16.45069,35.984Zm6.516,15.016H539.37993l-11.792,25.70533h-17.204l52.37467-112.492,50.52132,112.492H595.80123Z" class="cls-1"/></clipPath><clipPath id="clip-path-5"><path d="M733.149 84.369H749.122V190.20999999999998H733.149z" class="cls-1"/></clipPath><clipPath id="clip-path-6"><path d="M749.1226,190.21068H733.14929V84.36936H749.1226Z" class="cls-1"/></clipPath><clipPath id="clip-path-7"><path d="M881.19192,84.36936v105.84h15.97071V146.888h2.87866l30.23063,43.32133h19.53735L917.04527,145.1a28.71108,28.71108,0,0,0,16.99732-10.34666h0a30.073,30.073,0,0,0,6.44-19.32666h0q0-14.396-10.28-23.17733h0q-9.324-7.878-30.29866-7.88h-18.712ZM897.16263,99.38h5.688q22.074,0,22.07333,16.248h0q0,17.348-22.68669,17.34267h-5.07471Z" class="cls-1"/></clipPath><style>.cls-1{fill:none}.cls-2{fill:#989898}.cls-5{fill:#0f72ba}.cls-6{fill:#1071b9}.cls-7{fill:#1070b8}.cls-8{fill:#116fb8}.cls-9{fill:#126eb7}.cls-10{fill:#126db6}.cls-11{fill:#136cb5}.cls-12{fill:#146bb5}.cls-13{fill:#146ab4}.cls-14{fill:#1569b3}.cls-15{fill:#1667b2}.cls-16{fill:#1666b1}.cls-17{fill:#1765b1}.cls-18{fill:#1864b0}.cls-19{fill:#1863af}.cls-20{fill:#1962ae}.cls-21{fill:#1a61ae}.cls-22{fill:#1a60ad}.cls-23{fill:#1b5fac}.cls-24{fill:#1b5eab}.cls-25{fill:#1c5dab}.cls-26{fill:#1c5caa}.cls-27{fill:#1c5ba9}.cls-28{fill:#1c5aa9}.cls-29{fill:#1d59a8}.cls-30{fill:#1d58a7}.cls-31{fill:#1d57a7}.cls-32{fill:#1d56a6}.cls-33{fill:#1e54a5}.cls-34{fill:#1e53a4}.cls-35{fill:#1e52a4}.cls-36{fill:#1e51a3}.cls-37{fill:#1f50a2}.cls-38{fill:#1f4fa2}.cls-39{fill:#1f4ea1}.cls-40{fill:#1f4da0}.cls-41{fill:#204ca0}.cls-42{fill:#204b9f}.cls-43{fill:#214a9e}.cls-44{fill:#21499e}.cls-45{fill:#22489d}.cls-46{fill:#23479c}.cls-47{fill:#24469b}.cls-48{fill:#24459b}.cls-49{fill:#25449a}.cls-50{fill:#264399}.cls-51{fill:#264298}.cls-52{fill:#274198}.cls-53{fill:#283f97}.cls-54{fill:#283e96}.cls-55{fill:#293d95}.cls-56{fill:#2a3c95}.cls-57{fill:#2b3b94}.cls-58{fill:#2b3a93}.cls-59{fill:#2c3992}.cls-60{fill:#2d3892}.cls-61{fill:#2d3791}.cls-62{fill:#2e3690}.cls-63{clip-path:url(#clip-path-3)}.cls-66{clip-path:url(#clip-path-7)}.cls-67{isolation:isolate}.cls-68{fill:#4e4e4e}.cls-69{fill:#4d4f4f}</style></defs><g id="g10"><g id="path12"><path d="M448.80531,68.39469h3.10132v132.032h-3.10132Z" class="cls-2"/></g><g id="path14"><path d="M664.59465,68.39469H667.7v132.032h-3.10534Z" class="cls-2"/></g><g id="path16"><path d="M820.58792,68.39469h3.10531v132.032h-3.10531Z" class="cls-2"/></g><g id="g18"><g clip-path="url(#clip-path)"><g id="g20"><g id="g26"><g id="g28"><g id="path46"><g clip-path="url(#clip-path-2)"><path d="M348.33 190.211L385.212 190.211 385.212 190.211 348.33 190.211zM332.359 169.767L385.212 169.767 385.212 190.211 348.332 190.211 332.359 190.211 332.359 169.767z" class="cls-5"/><path d="M332.359 168.122H385.212V169.76700000000002H332.359z" class="cls-5"/><path d="M332.359 166.477H385.212V168.122H332.359z" class="cls-6"/><path d="M332.359 164.833H385.212V166.478H332.359z" class="cls-7"/><path d="M332.359 163.188H385.212V164.833H332.359z" class="cls-8"/><path d="M332.359 161.543H385.212V163.18800000000002H332.359z" class="cls-9"/><path d="M332.359 159.898H385.212V161.543H332.359z" class="cls-10"/><path d="M332.359 158.253H385.212V159.898H332.359z" class="cls-11"/><path d="M332.359 156.608H385.212V158.25300000000001H332.359z" class="cls-12"/><path d="M332.359 154.964H385.212V156.609H332.359z" class="cls-13"/><path d="M332.359 153.319H385.212V154.964H332.359z" class="cls-14"/><path d="M332.359 151.674H385.212V153.31900000000002H332.359z" class="cls-15"/><path d="M332.359 150.029H385.212V151.674H332.359z" class="cls-16"/><path d="M332.359 148.384H385.212V150.029H332.359z" class="cls-17"/><path d="M332.359 146.74H385.212V148.38500000000002H332.359z" class="cls-18"/><path d="M332.359 145.095H385.212V146.74H332.359z" class="cls-19"/><path d="M332.359 143.45H385.212V145.095H332.359z" class="cls-20"/><path d="M332.359 141.805H385.212V143.45000000000002H332.359z" class="cls-21"/><path d="M332.359 140.16H385.212V141.805H332.359z" class="cls-22"/><path d="M332.359 138.516H385.212V140.161H332.359z" class="cls-23"/><path d="M332.359 134.122H385.212V138.51600000000002H332.359zM332.359 132.902H385.212V134.12199999999999H332.359z" class="cls-23"/><path d="M332.359 131.682H385.212V132.902H332.359z" class="cls-24"/><path d="M332.359 130.462H385.212V131.682H332.359z" class="cls-25"/><path d="M332.359 129.241H385.212V130.461H332.359z" class="cls-26"/><path d="M332.359 128.021H385.212V129.24099999999999H332.359z" class="cls-27"/><path d="M332.359 126.801H385.212V128.02100000000002H332.359z" class="cls-28"/><path d="M332.359 125.581H385.212V126.801H332.359z" class="cls-29"/><path d="M332.359 124.361H385.212V125.581H332.359z" class="cls-30"/><path d="M332.359 123.141H385.212V124.361H332.359z" class="cls-31"/><path d="M332.359 121.921H385.212V123.141H332.359z" class="cls-32"/><path d="M332.359 120.701H385.212V121.92099999999999H332.359z" class="cls-33"/><path d="M332.359 119.481H385.212V120.701H332.359z" class="cls-34"/><path d="M332.359 118.261H385.212V119.481H332.359z" class="cls-35"/><path d="M332.359 117.041H385.212V118.261H332.359z" class="cls-36"/><path d="M332.359 115.821H385.212V117.041H332.359z" class="cls-37"/><path d="M332.359 114.6H385.212V115.82H332.359z" class="cls-38"/><path d="M332.359 113.38H385.212V114.6H332.359z" class="cls-39"/><path d="M332.359 112.16H385.212V113.38H332.359z" class="cls-40"/><path d="M332.359 110.94H385.212V112.16H332.359z" class="cls-41"/><path d="M332.359 109.72H385.212V110.94H332.359zM332.359 109.274H385.212V109.72H332.359zM332.359 108.088H385.212V109.274H332.359z" class="cls-42"/><path d="M332.359 106.902H385.212V108.088H332.359z" class="cls-43"/><path d="M332.359 105.716H385.212V106.90199999999999H332.359z" class="cls-44"/><path d="M332.359 104.53H385.212V105.71600000000001H332.359z" class="cls-45"/><path d="M332.359 103.344H385.212V104.53H332.359z" class="cls-46"/><path d="M332.359 102.158H385.212V103.344H332.359z" class="cls-47"/><path d="M332.359 100.972H385.212V102.15799999999999H332.359z" class="cls-48"/><path d="M332.359 99.786H385.212V100.97200000000001H332.359z" class="cls-49"/><path d="M332.359 98.601H385.212V99.787H332.359z" class="cls-50"/><path d="M332.359 97.415H385.212V98.601H332.359z" class="cls-51"/><path d="M332.359 96.229H385.212V97.41499999999999H332.359z" class="cls-52"/><path d="M332.359 95.043H385.212V96.22900000000001H332.359z" class="cls-53"/><path d="M332.359 93.857H385.212V95.043H332.359z" class="cls-54"/><path d="M332.359 92.671H385.212V93.857H332.359z" class="cls-55"/><path d="M332.359 91.485H385.212V92.67099999999999H332.359z" class="cls-56"/><path d="M332.359 90.299H385.212V91.48500000000001H332.359z" class="cls-57"/><path d="M332.359 89.113H385.212V90.299H332.359z" class="cls-58"/><path d="M332.359 87.927H385.212V89.113H332.359z" class="cls-59"/><path d="M332.359 86.741H385.212V87.92699999999999H332.359z" class="cls-60"/><path d="M332.359 85.555H385.212V86.74100000000001H332.359z" class="cls-61"/><path d="M332.359 84.369L332.359 84.369 385.212 84.369 385.212 85.555 332.359 85.555 332.359 84.369z" class="cls-62"/></g></g></g></g></g></g></g><g id="g48"><g class="cls-63"><g id="g50"><g id="g56"><g id="g58"><g id="path76"><g class="cls-63"><path d="M510.384 168.482H613.28V190.21H510.384zM510.384 166.734H613.28V168.482H510.384z" class="cls-5"/><path d="M510.384 164.986H613.28V166.73399999999998H510.384z" class="cls-6"/><path d="M510.384 163.238H613.28V164.986H510.384z" class="cls-7"/><path d="M510.384 161.49H613.28V163.238H510.384z" class="cls-8"/><path d="M510.384 159.742H613.28V161.48999999999998H510.384z" class="cls-9"/><path d="M510.384 157.993H613.28V159.74099999999999H510.384z" class="cls-10"/><path d="M510.384 156.245H613.28V157.993H510.384z" class="cls-11"/><path d="M510.384 154.497H613.28V156.245H510.384z" class="cls-12"/><path d="M510.384 152.749H613.28V154.49699999999999H510.384z" class="cls-13"/><path d="M510.384 151.001H613.28V152.749H510.384z" class="cls-14"/><path d="M510.384 149.253H613.28V151.00099999999998H510.384z" class="cls-15"/><path d="M510.384 147.504H613.28V149.25199999999998H510.384z" class="cls-16"/><path d="M510.384 145.756H613.28V147.504H510.384z" class="cls-17"/><path d="M510.384 144.008H613.28V145.756H510.384z" class="cls-18"/><path d="M510.384 142.26H613.28V144.00799999999998H510.384z" class="cls-19"/><path d="M510.384 140.512H613.28V142.26H510.384z" class="cls-20"/><path d="M510.384 138.764H613.28V140.512H510.384z" class="cls-21"/><path d="M510.384 137.015H613.28V138.76299999999998H510.384z" class="cls-22"/><path d="M510.384 135.267H613.28V137.015H510.384zM510.384 130.597H613.28V135.267H510.384z" class="cls-23"/><path d="M510.384 129.301H613.28V130.59799999999998H510.384z" class="cls-23"/><path d="M510.384 128.004H613.28V129.301H510.384z" class="cls-24"/><path d="M510.384 126.707H613.28V128.004H510.384z" class="cls-25"/><path d="M510.384 125.41H613.28V126.707H510.384z" class="cls-26"/><path d="M510.384 124.114H613.28V125.411H510.384z" class="cls-27"/><path d="M510.384 122.817H613.28V124.11399999999999H510.384z" class="cls-28"/><path d="M510.384 121.52H613.28V122.817H510.384z" class="cls-29"/><path d="M510.384 120.223H613.28V121.52H510.384z" class="cls-30"/><path d="M510.384 118.927H613.28V120.224H510.384z" class="cls-31"/><path d="M510.384 117.63H613.28V118.92699999999999H510.384z" class="cls-32"/><path d="M510.384 116.333H613.28V117.63H510.384z" class="cls-33"/><path d="M510.384 115.036H613.28V116.333H510.384z" class="cls-34"/><path d="M510.384 113.74H613.28V115.03699999999999H510.384z" class="cls-35"/><path d="M510.384 112.443H613.28V113.74H510.384z" class="cls-36"/><path d="M510.384 111.146H613.28V112.443H510.384z" class="cls-37"/><path d="M510.384 109.849H613.28V111.146H510.384z" class="cls-38"/><path d="M510.384 108.553H613.28V109.85H510.384z" class="cls-39"/><path d="M510.384 107.256H613.28V108.553H510.384z" class="cls-40"/><path d="M510.384 105.959H613.28V107.256H510.384z" class="cls-41"/><path d="M510.384 104.662H613.28V105.959H510.384zM510.384 104.188H613.28V104.662H510.384zM510.384 102.928H613.28V104.188H510.384z" class="cls-42"/><path d="M510.384 101.667H613.28V102.927H510.384z" class="cls-43"/><path d="M510.384 100.407H613.28V101.667H510.384z" class="cls-44"/><path d="M510.384 99.146H613.28V100.406H510.384z" class="cls-45"/><path d="M510.384 97.886H613.28V99.146H510.384z" class="cls-46"/><path d="M510.384 96.625H613.28V97.885H510.384z" class="cls-47"/><path d="M510.384 95.365H613.28V96.625H510.384z" class="cls-48"/><path d="M510.384 94.105H613.28V95.36500000000001H510.384z" class="cls-49"/><path d="M510.384 92.844H613.28V94.104H510.384z" class="cls-50"/><path d="M510.384 91.584H613.28V92.84400000000001H510.384z" class="cls-51"/><path d="M510.384 90.323H613.28V91.583H510.384z" class="cls-52"/><path d="M510.384 89.063H613.28V90.32300000000001H510.384z" class="cls-53"/><path d="M510.384 87.802H613.28V89.06200000000001H510.384z" class="cls-54"/><path d="M510.384 86.542H613.28V87.802H510.384z" class="cls-55"/><path d="M510.384 85.281H613.28V86.54100000000001H510.384z" class="cls-56"/><path d="M510.384 84.021H613.28V85.281H510.384z" class="cls-57"/><path d="M510.384 82.76H613.28V84.02000000000001H510.384z" class="cls-58"/><path d="M510.384 81.5H613.28V82.76H510.384z" class="cls-59"/><path d="M510.384 80.24H613.28V81.5H510.384z" class="cls-60"/><path d="M510.384 78.979H613.28V80.239H510.384z" class="cls-61"/><path d="M510.384 77.719L562.757 77.719 613.28 77.719 613.28 78.979 510.384 78.979 510.384 77.719zM562.757 77.719L510.384 77.719 510.384 77.719 562.757 77.719z" class="cls-62"/><path d="M546.029 149.253H578.177V149.48999999999998H546.029z" class="cls-15"/><path d="M546.029 147.504H578.177V149.25199999999998H546.029z" class="cls-16"/><path d="M546.029 145.756H578.177V147.504H546.029z" class="cls-17"/><path d="M546.029 144.008H578.177V145.756H546.029z" class="cls-18"/><path d="M546.029 142.26H578.177V144.00799999999998H546.029z" class="cls-19"/><path d="M546.029 140.512H578.177V142.26H546.029z" class="cls-20"/><path d="M546.029 138.764H578.177V140.512H546.029z" class="cls-21"/><path d="M546.029 137.015H578.177V138.76299999999998H546.029z" class="cls-22"/><path d="M546.029 135.267H578.177V137.015H546.029zM546.029 130.597H578.177V135.267H546.029z" class="cls-23"/><path d="M546.029 129.301H578.177V130.59799999999998H546.029z" class="cls-23"/><path d="M546.029 128.004H578.177V129.301H546.029z" class="cls-24"/><path d="M546.029 126.707H578.177V128.004H546.029z" class="cls-25"/><path d="M546.029 125.41H578.177V126.707H546.029z" class="cls-26"/><path d="M546.029 124.114H578.177V125.411H546.029z" class="cls-27"/><path d="M546.029 122.817H578.177V124.11399999999999H546.029z" class="cls-28"/><path d="M546.029 121.52H578.177V122.817H546.029z" class="cls-29"/><path d="M546.029 120.223H578.177V121.52H546.029z" class="cls-30"/><path d="M546.029 118.927H578.177V120.224H546.029z" class="cls-31"/><path d="M546.029 117.63H578.177V118.92699999999999H546.029z" class="cls-32"/><path d="M546.029 116.333H578.177V117.63H546.029z" class="cls-33"/><path d="M546.029 115.036H578.177V116.333H546.029z" class="cls-34"/><path d="M546.029 113.74H578.177V115.03699999999999H546.029z" class="cls-35"/><path d="M546.029 113.505H578.177V113.73899999999999H546.029z" class="cls-36"/></g></g></g></g></g></g></g><g id="g78"><g clip-path="url(#clip-path-5)"><g id="g80"><g id="g86"><g id="g88"><g id="path106"><g clip-path="url(#clip-path-6)"><path d="M733.149 169.767H749.122V190.21099999999998H733.149z" class="cls-5"/><path d="M733.149 168.122H749.122V169.76700000000002H733.149z" class="cls-5"/><path d="M733.149 166.477H749.122V168.122H733.149z" class="cls-6"/><path d="M733.149 164.833H749.122V166.478H733.149z" class="cls-7"/><path d="M733.149 163.188H749.122V164.833H733.149z" class="cls-8"/><path d="M733.149 161.543H749.122V163.18800000000002H733.149z" class="cls-9"/><path d="M733.149 159.898H749.122V161.543H733.149z" class="cls-10"/><path d="M733.149 158.253H749.122V159.898H733.149z" class="cls-11"/><path d="M733.149 156.608H749.122V158.25300000000001H733.149z" class="cls-12"/><path d="M733.149 154.964H749.122V156.609H733.149z" class="cls-13"/><path d="M733.149 153.319H749.122V154.964H733.149z" class="cls-14"/><path d="M733.149 151.674H749.122V153.31900000000002H733.149z" class="cls-15"/><path d="M733.149 150.029H749.122V151.674H733.149z" class="cls-16"/><path d="M733.149 148.384H749.122V150.029H733.149z" class="cls-17"/><path d="M733.149 146.74H749.122V148.38500000000002H733.149z" class="cls-18"/><path d="M733.149 145.095H749.122V146.74H733.149z" class="cls-19"/><path d="M733.149 143.45H749.122V145.095H733.149z" class="cls-20"/><path d="M733.149 141.805H749.122V143.45000000000002H733.149z" class="cls-21"/><path d="M733.149 140.16H749.122V141.805H733.149z" class="cls-22"/><path d="M733.149 138.516H749.122V140.161H733.149z" class="cls-23"/><path d="M733.149 134.122H749.122V138.51600000000002H733.149zM733.149 132.902H749.122V134.12199999999999H733.149z" class="cls-23"/><path d="M733.149 131.682H749.122V132.902H733.149z" class="cls-24"/><path d="M733.149 130.462H749.122V131.682H733.149z" class="cls-25"/><path d="M733.149 129.241H749.122V130.461H733.149z" class="cls-26"/><path d="M733.149 128.021H749.122V129.24099999999999H733.149z" class="cls-27"/><path d="M733.149 126.801H749.122V128.02100000000002H733.149z" class="cls-28"/><path d="M733.149 125.581H749.122V126.801H733.149z" class="cls-29"/><path d="M733.149 124.361H749.122V125.581H733.149z" class="cls-30"/><path d="M733.149 123.141H749.122V124.361H733.149z" class="cls-31"/><path d="M733.149 121.921H749.122V123.141H733.149z" class="cls-32"/><path d="M733.149 120.701H749.122V121.92099999999999H733.149z" class="cls-33"/><path d="M733.149 119.481H749.122V120.701H733.149z" class="cls-34"/><path d="M733.149 118.261H749.122V119.481H733.149z" class="cls-35"/><path d="M733.149 117.041H749.122V118.261H733.149z" class="cls-36"/><path d="M733.149 115.821H749.122V117.041H733.149z" class="cls-37"/><path d="M733.149 114.6H749.122V115.82H733.149z" class="cls-38"/><path d="M733.149 113.38H749.122V114.6H733.149z" class="cls-39"/><path d="M733.149 112.16H749.122V113.38H733.149z" class="cls-40"/><path d="M733.149 110.94H749.122V112.16H733.149z" class="cls-41"/><path d="M733.149 109.72H749.122V110.94H733.149zM733.149 109.274H749.122V109.72H733.149zM733.149 108.088H749.122V109.274H733.149z" class="cls-42"/><path d="M733.149 106.902H749.122V108.088H733.149z" class="cls-43"/><path d="M733.149 105.716H749.122V106.90199999999999H733.149z" class="cls-44"/><path d="M733.149 104.53H749.122V105.71600000000001H733.149z" class="cls-45"/><path d="M733.149 103.344H749.122V104.53H733.149z" class="cls-46"/><path d="M733.149 102.158H749.122V103.344H733.149z" class="cls-47"/><path d="M733.149 100.972H749.122V102.15799999999999H733.149z" class="cls-48"/><path d="M733.149 99.786H749.122V100.97200000000001H733.149z" class="cls-49"/><path d="M733.149 98.601H749.122V99.787H733.149z" class="cls-50"/><path d="M733.149 97.415H749.122V98.601H733.149z" class="cls-51"/><path d="M733.149 96.229H749.122V97.41499999999999H733.149z" class="cls-52"/><path d="M733.149 95.043H749.122V96.22900000000001H733.149z" class="cls-53"/><path d="M733.149 93.857H749.122V95.043H733.149z" class="cls-54"/><path d="M733.149 92.671H749.122V93.857H733.149z" class="cls-55"/><path d="M733.149 91.485H749.122V92.67099999999999H733.149z" class="cls-56"/><path d="M733.149 90.299H749.122V91.48500000000001H733.149z" class="cls-57"/><path d="M733.149 89.113H749.122V90.299H733.149z" class="cls-58"/><path d="M733.149 87.927H749.122V89.113H733.149z" class="cls-59"/><path d="M733.149 86.741H749.122V87.92699999999999H733.149z" class="cls-60"/><path d="M733.149 85.555H749.122V86.74100000000001H733.149z" class="cls-61"/><path d="M733.149 84.369H749.122V85.555H733.149z" class="cls-62"/></g></g></g></g></g></g></g><g id="g108"><g class="cls-66"><g id="g110"><g id="g116"><g id="g118"><g id="path136"><g class="cls-66"><path d="M897.163 132.901H924.924V132.971H897.163z" class="cls-23"/><path d="M897.163 131.681H924.924V132.901H897.163z" class="cls-24"/><path d="M897.163 130.461H924.924V131.681H897.163z" class="cls-25"/><path d="M897.163 129.241H924.924V130.461H897.163z" class="cls-26"/><path d="M897.163 128.021H924.924V129.24099999999999H897.163z" class="cls-27"/><path d="M897.163 126.801H924.924V128.02100000000002H897.163z" class="cls-28"/><path d="M897.163 125.581H924.924V126.801H897.163z" class="cls-29"/><path d="M897.163 124.361H924.924V125.581H897.163z" class="cls-30"/><path d="M897.163 123.141H924.924V124.361H897.163z" class="cls-31"/><path d="M897.163 121.921H924.924V123.141H897.163z" class="cls-32"/><path d="M897.163 120.7H924.924V121.92H897.163z" class="cls-33"/><path d="M897.163 119.48H924.924V120.7H897.163z" class="cls-34"/><path d="M897.163 118.26H924.924V119.48H897.163z" class="cls-35"/><path d="M897.163 117.04H924.924V118.26H897.163z" class="cls-36"/><path d="M897.163 115.82H924.924V117.03999999999999H897.163z" class="cls-37"/><path d="M897.163 114.6H924.924V115.82H897.163z" class="cls-38"/><path d="M897.163 113.38H924.924V114.6H897.163z" class="cls-39"/><path d="M897.163 112.16H924.924V113.38H897.163z" class="cls-40"/><path d="M897.163 110.94H924.924V112.16H897.163z" class="cls-41"/><path d="M897.163 109.72H924.924V110.94H897.163zM897.163 109.274H924.924V109.72H897.163zM897.163 108.088H924.924V109.274H897.163z" class="cls-42"/><path d="M897.163 106.902H924.924V108.088H897.163z" class="cls-43"/><path d="M897.163 105.716H924.924V106.90199999999999H897.163z" class="cls-44"/><path d="M897.163 104.53H924.924V105.71600000000001H897.163z" class="cls-45"/><path d="M897.163 103.344H924.924V104.53H897.163z" class="cls-46"/><path d="M897.163 102.158H924.924V103.344H897.163z" class="cls-47"/><path d="M897.163 100.972H924.924V102.15799999999999H897.163z" class="cls-48"/><path d="M897.163 99.786H924.924V100.97200000000001H897.163z" class="cls-49"/><path d="M897.163 99.38H924.924V99.786H897.163z" class="cls-50"/><path d="M897.166 190.209L949.809 190.209 949.809 190.209 897.166 190.209zM881.192 169.766L949.809 169.766 949.809 190.209 897.166 190.209 881.192 190.209 881.192 169.766z" class="cls-5"/><path d="M881.192 168.121H949.809V169.76600000000002H881.192z" class="cls-5"/><path d="M881.192 166.476H949.809V168.121H881.192z" class="cls-6"/><path d="M881.192 164.832H949.809V166.477H881.192z" class="cls-7"/><path d="M881.192 163.187H949.809V164.83200000000002H881.192z" class="cls-8"/><path d="M881.192 161.542H949.809V163.187H881.192z" class="cls-9"/><path d="M881.192 159.897H949.809V161.542H881.192z" class="cls-10"/><path d="M881.192 158.252H949.809V159.89700000000002H881.192z" class="cls-11"/><path d="M881.192 156.608H949.809V158.25300000000001H881.192z" class="cls-12"/><path d="M881.192 154.963H949.809V156.608H881.192z" class="cls-13"/><path d="M881.192 153.318H949.809V154.96300000000002H881.192z" class="cls-14"/><path d="M881.192 151.673H949.809V153.318H881.192z" class="cls-15"/><path d="M881.192 150.028H949.809V151.673H881.192z" class="cls-16"/><path d="M881.192 148.384H949.809V150.029H881.192z" class="cls-17"/><path d="M881.192 146.739H949.809V148.38400000000001H881.192z" class="cls-18"/><path d="M881.192 145.094H949.809V146.739H881.192z" class="cls-19"/><path d="M881.192 143.449H949.809V145.09400000000002H881.192z" class="cls-20"/><path d="M881.192 141.804H949.809V143.449H881.192z" class="cls-21"/><path d="M881.192 140.16H949.809V141.805H881.192z" class="cls-22"/><path d="M881.192 138.515H949.809V140.16H881.192z" class="cls-23"/><path d="M881.192 134.121H949.809V138.51500000000001H881.192zM881.192 132.901H949.809V134.121H881.192z" class="cls-23"/><path d="M881.192 131.681H949.809V132.901H881.192z" class="cls-24"/><path d="M881.192 130.461H949.809V131.681H881.192z" class="cls-25"/><path d="M881.192 129.241H949.809V130.461H881.192z" class="cls-26"/><path d="M881.192 128.021H949.809V129.24099999999999H881.192z" class="cls-27"/><path d="M881.192 126.801H949.809V128.02100000000002H881.192z" class="cls-28"/><path d="M881.192 125.581H949.809V126.801H881.192z" class="cls-29"/><path d="M881.192 124.361H949.809V125.581H881.192z" class="cls-30"/><path d="M881.192 123.141H949.809V124.361H881.192z" class="cls-31"/><path d="M881.192 121.921H949.809V123.141H881.192z" class="cls-32"/><path d="M881.192 120.7H949.809V121.92H881.192z" class="cls-33"/><path d="M881.192 119.48H949.809V120.7H881.192z" class="cls-34"/><path d="M881.192 118.26H949.809V119.48H881.192z" class="cls-35"/><path d="M881.192 117.04H949.809V118.26H881.192z" class="cls-36"/><path d="M881.192 115.82H949.809V117.03999999999999H881.192z" class="cls-37"/><path d="M881.192 114.6H949.809V115.82H881.192z" class="cls-38"/><path d="M881.192 113.38H949.809V114.6H881.192z" class="cls-39"/><path d="M881.192 112.16H949.809V113.38H881.192z" class="cls-40"/><path d="M881.192 110.94H949.809V112.16H881.192z" class="cls-41"/><path d="M881.192 109.72H949.809V110.94H881.192zM881.192 109.274H949.809V109.72H881.192zM881.192 108.088H949.809V109.274H881.192z" class="cls-42"/><path d="M881.192 106.902H949.809V108.088H881.192z" class="cls-43"/><path d="M881.192 105.716H949.809V106.90199999999999H881.192z" class="cls-44"/><path d="M881.192 104.53H949.809V105.71600000000001H881.192z" class="cls-45"/><path d="M881.192 103.344H949.809V104.53H881.192z" class="cls-46"/><path d="M881.192 102.158H949.809V103.344H881.192z" class="cls-47"/><path d="M881.192 100.972H949.809V102.15799999999999H881.192z" class="cls-48"/><path d="M881.192 99.786H949.809V100.97200000000001H881.192z" class="cls-49"/><path d="M881.192 98.6H949.809V99.786H881.192z" class="cls-50"/><path d="M881.192 97.414H949.809V98.6H881.192z" class="cls-51"/><path d="M881.192 96.228H949.809V97.41399999999999H881.192z" class="cls-52"/><path d="M881.192 95.043H949.809V96.22900000000001H881.192z" class="cls-53"/><path d="M881.192 93.857H949.809V95.043H881.192z" class="cls-54"/><path d="M881.192 92.671H949.809V93.857H881.192z" class="cls-55"/><path d="M881.192 91.485H949.809V92.67099999999999H881.192z" class="cls-56"/><path d="M881.192 90.299H949.809V91.48500000000001H881.192z" class="cls-57"/><path d="M881.192 89.113H949.809V90.299H881.192z" class="cls-58"/><path d="M881.192 87.927H949.809V89.113H881.192z" class="cls-59"/><path d="M881.192 86.741H949.809V87.92699999999999H881.192z" class="cls-60"/><path d="M881.192 85.555H949.809V86.74100000000001H881.192z" class="cls-61"/><path d="M881.192 84.369L881.196 84.369 949.809 84.369 949.809 85.555 881.192 85.555 881.192 84.369z" class="cls-62"/></g></g></g></g></g></g></g><g id="text140" class="cls-67"><g class="cls-67"><path d="M354.53125,231.50977v5.15332a12.06542,12.06542,0,0,0-7.80518-3.15528,9.93849,9.93849,0,0,0-7.48828,3.19336,10.76328,10.76328,0,0,0-3.0625,7.76758,10.5076,10.5076,0,0,0,3.0625,7.65625,10.11759,10.11759,0,0,0,7.50684,3.11816,9.2091,9.2091,0,0,0,3.90283-.74707,11.31836,11.31836,0,0,0,1.85791-1.00781,22.02741,22.02741,0,0,0,2.02588-1.53125v5.24609a15.701,15.701,0,0,1-7.84277,2.11133A14.46967,14.46967,0,0,1,336.13818,255a14.29976,14.29976,0,0,1-4.35107-10.49414,14.80607,14.80607,0,0,1,3.6416-9.82227,14.49828,14.49828,0,0,1,11.5957-5.28418A14.71514,14.71514,0,0,1,354.53125,231.50977Z" class="cls-68"/></g><g class="cls-67"><path d="M373.69336,244.24414a14.12284,14.12284,0,0,1,4.46289-10.457A14.69326,14.69326,0,0,1,388.8374,229.418,15.07714,15.07714,0,0,1,403.832,244.41211a14.17679,14.17679,0,0,1-4.44385,10.55078,15.23461,15.23461,0,0,1-20.80224.48633A14.169,14.169,0,0,1,373.69336,244.24414Zm4.38818.05664a10.42194,10.42194,0,0,0,3.21192,7.86133,10.63766,10.63766,0,0,0,15.03222-.05664,11.18981,11.18981,0,0,0,.03711-15.46094,10.7526,10.7526,0,0,0-15.18115,0A10.40084,10.40084,0,0,0,378.08154,244.30078Z" class="cls-68"/></g><g class="cls-67"><path d="M424.61768,258.791v-30.793l21.02587,21.998V229.959h4.35108v30.5879l-21.02588-21.94141V258.791Z" class="cls-68"/></g><g class="cls-67"><path d="M488.49365,234.25391l-3.52929,2.09179a6.06849,6.06849,0,0,0-1.88575-2.24023,4.40188,4.40188,0,0,0-2.40918-.59766,4.44885,4.44885,0,0,0-3.00634,1.02637,3.18364,3.18364,0,0,0-1.19483,2.54q0,2.10938,3.13672,3.39844l2.876,1.17578a12.288,12.288,0,0,1,5.13525,3.46484,7.80728,7.80728,0,0,1,1.62451,5.01367,8.80846,8.80846,0,0,1-2.65185,6.57227,9.09708,9.09708,0,0,1-6.62891,2.61523,8.86832,8.86832,0,0,1-6.19971-2.22265,10.23108,10.23108,0,0,1-3.00634-6.25586l4.40722-.97071a7.48944,7.48944,0,0,0,1.04541,3.51075,4.969,4.969,0,0,0,7.30127.5039,4.71457,4.71457,0,0,0,1.34473-3.4541,4.85857,4.85857,0,0,0-.2334-1.541,3.92518,3.92518,0,0,0-.72852-1.28907,5.87534,5.87534,0,0,0-1.27929-1.10156,12.46127,12.46127,0,0,0-1.86719-.98047l-2.78223-1.15722q-5.91943-2.502-5.91943-7.31934a6.94511,6.94511,0,0,1,2.4834-5.43457,8.97478,8.97478,0,0,1,6.18115-2.20313Q485.69263,229.39941,488.49365,234.25391Z" class="cls-68"/></g><g class="cls-67"><path d="M514.13623,229.959v17.36719q0,3.71484,1.21338,5.4336a6.49322,6.49322,0,0,0,10.21435,0q1.21364-1.66114,1.21387-5.4336V229.959h4.35108v18.56153a10.38593,10.38593,0,0,1-2.83838,7.50683,10.97753,10.97753,0,0,1-15.667,0,10.3839,10.3839,0,0,1-2.83838-7.50683V229.959Z" class="cls-68"/></g><g class="cls-67"><path d="M557.69531,229.959v24.74219h8.47657V258.791H553.34375V229.959Z" class="cls-68"/></g><g class="cls-67"><path d="M591.68164,234.04883V258.791H587.332V234.04883h-6.62891V229.959H598.293v4.08985Z" class="cls-68"/></g><g class="cls-67"><path d="M621.80957,229.959v28.832H617.458V229.959Z" class="cls-68"/></g><g class="cls-67"><path d="M644.03613,258.791v-30.793l21.02637,21.998V229.959h4.35156v30.5879L648.3877,238.60547V258.791Z" class="cls-68"/></g><g class="cls-67"><path d="M706.74707,243.77734h11.91309v.95313a19.66378,19.66378,0,0,1-.76563,5.751,12.22379,12.22379,0,0,1-2.52051,4.332,13.05987,13.05987,0,0,1-10.21386,4.51855,14.04182,14.04182,0,0,1-10.36426-4.36914,15.0496,15.0496,0,0,1,17.06738-24.18164,18.21185,18.21185,0,0,1,5.50879,4.48145l-3.09961,2.96972q-3.54784-4.72558-8.64551-4.72461a10.32827,10.32827,0,0,0-7.6748,3.15528,10.53579,10.53579,0,0,0-3.09961,7.76855,10.83181,10.83181,0,0,0,10.457,10.83008,8.69314,8.69314,0,0,0,5.76953-2.166,7.70955,7.70955,0,0,0,2.85742-5.22851h-7.18945Z" class="cls-68"/></g><g class="cls-67"><path d="M781.35938,243.77734h11.91308v.95313a19.66379,19.66379,0,0,1-.76562,5.751,12.22379,12.22379,0,0,1-2.52051,4.332,13.0599,13.0599,0,0,1-10.21387,4.51855,14.04182,14.04182,0,0,1-10.36426-4.36914,15.0496,15.0496,0,0,1,17.06739-24.18164,18.212,18.212,0,0,1,5.50879,4.48145l-3.09961,2.96972q-3.54786-4.72558-8.64551-4.72461a10.3283,10.3283,0,0,0-7.67481,3.15528,10.53579,10.53579,0,0,0-3.09961,7.76855,10.83183,10.83183,0,0,0,10.457,10.83008,8.69318,8.69318,0,0,0,5.76953-2.166,7.70959,7.70959,0,0,0,2.85742-5.22851h-7.18945Z" class="cls-68"/></g><g class="cls-67"><path d="M823.79688,246.50391l8.92578,12.28711h-5.32227L819.166,246.98926h-.78418V258.791h-4.35157V229.959h5.09864q5.71289,0,8.25293,2.14844a7.89,7.89,0,0,1,2.80175,6.31055,8.19,8.19,0,0,1-1.75586,5.26562A7.81735,7.81735,0,0,1,823.79688,246.50391Zm-5.415-3.30469h1.38183q6.18018,0,6.18067-4.72461,0-4.42676-6.0127-4.42578h-1.5498Z" class="cls-68"/></g><g class="cls-67"><path d="M850.26172,244.24414a14.121,14.121,0,0,1,4.46289-10.457,14.69357,14.69357,0,0,1,10.68164-4.36914,15.078,15.078,0,0,1,14.99414,14.99414,14.17542,14.17542,0,0,1-4.44434,10.55078,15.234,15.234,0,0,1-20.80175.48633A14.169,14.169,0,0,1,850.26172,244.24414Zm4.38867.05664a10.42019,10.42019,0,0,0,3.21191,7.86133,10.6365,10.6365,0,0,0,15.03125-.05664,11.18854,11.18854,0,0,0,.03809-15.46094,10.75319,10.75319,0,0,0-15.18164,0A10.40228,10.40228,0,0,0,854.65039,244.30078Z" class="cls-68"/></g><g class="cls-67"><path d="M905.53711,229.959v17.36719q0,3.71484,1.21387,5.4336a6.49272,6.49272,0,0,0,10.21386,0q1.21435-1.66114,1.21387-5.4336V229.959h4.35059v18.56153a10.38762,10.38762,0,0,1-2.83789,7.50683,10.97754,10.97754,0,0,1-15.667,0,10.38429,10.38429,0,0,1-2.83886-7.50683V229.959Z" class="cls-68"/></g><g class="cls-67"><path d="M949.0957,247.083v11.708h-4.35156V229.959h4.93066a22.24686,22.24686,0,0,1,5.47071.50391,7.34835,7.34835,0,0,1,3.28711,1.90527,8.20665,8.20665,0,0,1,2.4834,6.125,7.90334,7.90334,0,0,1-2.65235,6.27442,10.49452,10.49452,0,0,1-7.15137,2.31543Zm0-4.03418h1.624q5.99413,0,5.99414-4.61133,0-4.46339-6.18067-4.46289h-1.4375Z" class="cls-68"/></g></g><g id="g142"><g id="g144"><g id="g150"><g id="path152"><path d="M1008.89447,65.95a5.01984,5.01984,0,0,1-.02667.53066,1.02091,1.02091,0,0,1-.10533.36.55.55,0,0,1-.17733.19867.41624.41624,0,0,1-.228.06h-5.81067v17.916a.38322.38322,0,0,1-.06533.216.36093.36093,0,0,1-.224.15333,1.99361,1.99361,0,0,1-.416.09867,4.81683,4.81683,0,0,1-.66667.04533,4.62466,4.62466,0,0,1-.65333-.04533,1.94927,1.94927,0,0,1-.43333-.09867.37339.37339,0,0,1-.22267-.15333.363.363,0,0,1-.064-.216v-17.916h-5.81467a.45853.45853,0,0,1-.23066-.06.49369.49369,0,0,1-.16667-.19867,1.94523,1.94523,0,0,1-.10267-.36,3.38044,3.38044,0,0,1-.03866-.53066,3.46558,3.46558,0,0,1,.03866-.52934,2.0871,2.0871,0,0,1,.10267-.37733.43477.43477,0,0,1,.16667-.20667.45124.45124,0,0,1,.23066-.06533h14.37067a.40843.40843,0,0,1,.228.06533.4756.4756,0,0,1,.17733.20667,1.10072,1.10072,0,0,1,.10533.37733,5.151,5.151,0,0,1,.02667.52934" class="cls-69"/></g></g><g id="g154"><g id="path156"><path d="M1034.33978,85.01521a.34525.34525,0,0,1-.068.216.37535.37535,0,0,1-.22666.15333,2.10245,2.10245,0,0,1-.41867.1,4.79841,4.79841,0,0,1-.66533.044,4.87375,4.87375,0,0,1-.64934-.044,2.00407,2.00407,0,0,1-.43066-.1.36.36,0,0,1-.21734-.15333.35283.35283,0,0,1-.06666-.216v-17.988h-.03867l-7.272,18.068a.58779.58779,0,0,1-.14.188.626.626,0,0,1-.25333.13467,1.62831,1.62831,0,0,1-.39734.08133,4.92144,4.92144,0,0,1-.548.02933,5.03149,5.03149,0,0,1-.58-.036,2.26474,2.26474,0,0,1-.39333-.088.66107.66107,0,0,1-.25067-.13866.49266.49266,0,0,1-.12133-.17067l-6.95733-18.068h-.02267v17.988a.35281.35281,0,0,1-.28933.36933,2.14442,2.14442,0,0,1-.432.1,4.87845,4.87845,0,0,1-.66934.044,4.732,4.732,0,0,1-.65733-.044,1.92136,1.92136,0,0,1-.42133-.1.33646.33646,0,0,1-.21067-.15333.34929.34929,0,0,1-.06-.216V66.01655a1.15009,1.15009,0,0,1,.35733-.95467,1.2586,1.2586,0,0,1,.79067-.29067h1.68933a3.74255,3.74255,0,0,1,.912.10267,1.84488,1.84488,0,0,1,.67467.29733,1.81514,1.81514,0,0,1,.488.528,3.89116,3.89116,0,0,1,.33867.74934l5.90933,14.95866h.07333l6.15067-14.91333a4.6361,4.6361,0,0,1,.38933-.81334,2.14782,2.14782,0,0,1,.456-.532,1.59887,1.59887,0,0,1,.56934-.28933,2.82066,2.82066,0,0,1,.712-.088h1.76533a1.43925,1.43925,0,0,1,.464.07334.93746.93746,0,0,1,.36933.22266,1.14649,1.14649,0,0,1,.25334.38667,1.43992,1.43992,0,0,1,.09466.56267Z" class="cls-69"/></g></g><g id="g158"><g id="path160"><path fill="#67a9d7" fill-rule="evenodd" d="M228.35025,228.14281a21.49219,21.49219,0,0,0-5.93467-3.45867c17.92133-19.572,24.95333-48.504,14.56933-72.16933,2.332,30.052-7.75333,52.16266-32.80533,65.44266-25.35733,13.44134-49.244,7.504-71.012-9.06533-2.24666,2.72533-4.36,5.29467-6.39333,7.76533-2.61866,3.17334-5.10132,6.18667-7.56,9.16934,16.62267,20.436,47.38,27.092,73.97333,17.98933a21.50586,21.50586,0,1,0,35.16266-15.67333"/></g></g><g id="g162"><g id="path164"><path fill="#1b5fac" fill-rule="evenodd" d="M112.51426,70.23136A21.59085,21.59085,0,1,0,81.70759,81.64469C54.61026,99.706,41.55426,136.19535,54.16093,164.93535c-2.34134-30.04133,7.75066-52.15466,32.80666-65.43866,25.35333-13.44,49.23733-7.49733,71.00266,9.068,5.136-6.23333,9.59333-11.64133,13.96-16.932-13.65467-16.78133-36.83466-24.28133-59.416-21.40133"/></g></g><g id="g166"><g id="path168"><path fill="#348dc9" fill-rule="evenodd" d="M259.15491,86.51521a21.4757,21.4757,0,0,0-34.528,11.40533c-.284-.50266-.528-1.03333-.828-1.53333-17.36133-28.94666-55.39466-43.27333-85.07865-30.24133,30.04133-2.33734,52.16266,7.74533,65.44266,32.80666,13.44267,25.35333,7.50534,49.23733-9.06133,71.00266,6.22933,5.14267,11.63733,9.59334,16.92266,13.95334,17.79734-14.464,25.15867-39.64667,20.77067-63.476a21.48591,21.48591,0,0,0,26.36-33.91733"/></g></g><g id="g170"><g id="path172"><path fill="#204b9f" fill-rule="evenodd" d="M85.69919,216.1544c-13.444-25.34933-7.50133-49.23466,9.064-70.99332-6.232-5.14267-11.63866-9.60134-16.928-13.96267-18.456,15.01067-25.66933,41.552-20.20533,66.136a21.50688,21.50688,0,1,0,9.23734,33.88666,21.23229,21.23229,0,0,0,3.54266-6.176c18.79067,24.616,53.308,35.95466,80.732,23.92-30.044,2.35333-52.164-7.744-65.44267-32.81067"/></g></g></g></g></g></svg>