<svg xmlns="http://www.w3.org/2000/svg" role="img" viewBox="-9.87 -9.87 513.24 162.24"><path fill="#4249a6" d="M11.6 52.64L0 0l71.48 56.96 12.08-15.813 15.467-3.04 16.84-3.32-16.84 25.88v34.786l-86.04 47.56 23.586-37.746 22.254-13.56-23.16 5.532-19.894-33.6 41.32 11.295m153.53-36.864v.04c-.574 1.173-1.827 3.8-3.52 7.306h-33.574V62.75h25.294c-1.134 2.347-2.267 4.734-3.387 7.08h-21.907v25.933h-7.426l-.014-57.746 44.534.054m196.636-.203c-.003.992-.003 2.193-.003 3.655V79.31l-40.625-42.775v59.202h7.102v-40.97l40.626 42.304V41.523c0-1.49 0-2.685-.003-3.655h-7.097m-76.598.107v32.698c0 12.345-5.729 18.233-16.629 18.233-10.899 0-16.63-5.888-16.63-18.233V37.975h-7.037V71.08c0 16.23 8.328 24.726 23.667 24.726 15.337 0 23.665-8.496 23.665-24.726V37.975h-7.036m-87.262-.539s-28.016 58.328-27.671 58.328h7.944l19.727-42.877 19.726 42.877h7.944c.344 0-27.67-58.328-27.67-58.328m223 0s-28.016 58.328-27.671 58.328h7.944l19.727-42.877 19.726 42.877h7.944c.344 0-27.67-58.328-27.67-58.328"/></svg>