<svg xmlns="http://www.w3.org/2000/svg" role="img" viewBox="-9.87 -9.87 513.24 162.24"><title>Fauna, Inc. (member) logo</title><g fill="#4249a6" fill-opacity="1" fill-rule="nonzero" stroke="none" transform="matrix(1.33333 0 0 -1.33333 0 143.013) scale(.1)"><path d="M87 677.801L0 1072.6l536.098-427.198L626.699 764l116 22.801L869 811.699 742.699 617.602V356.699L97.4023 0 274.301 283.098l166.898 101.699L267.5 343.305 118.301 595.301l309.902-84.703"/><path d="M1579.67 787.07v-.297c-4.3-8.796-13.7-28.5-26.4-54.796h-251.8v-130h189.7c-8.5-17.606-17-35.504-25.4-53.102h-164.3V354.379h-55.7l-.1 433.094 334-.403"/><path d="M3054.44 788.59c-.02-7.442-.02-16.445-.02-27.41V477.773L2749.73 798.59V354.57H2803v307.274l304.69-317.274v416.61c0 11.179 0 20.136-.02 27.41h-53.23"/><path d="M2479.96 787.789V542.555c0-92.59-42.97-136.75-124.72-136.75-81.74 0-124.72 44.16-124.72 136.75v245.234h-52.78V539.5c0-121.727 62.46-185.445 177.5-185.445 115.03 0 177.49 63.718 177.49 185.445v248.289h-52.77"/><path d="M1825.49 791.828s-210.12-437.461-207.53-437.461h59.58l147.95 321.578 147.95-321.578h59.58c2.58 0-207.53 437.461-207.53 437.461"/><path d="M3497.99 791.828s-210.12-437.461-207.53-437.461h59.58l147.95 321.578 147.95-321.578h59.58c2.58 0-207.53 437.461-207.53 437.461"/></g></svg>