<svg xmlns="http://www.w3.org/2000/svg" role="img" viewBox="-8.25 -8.00 416.00 92.00"><title>FileJet logo</title><g fill-rule="evenodd"><path fill="#344f78" d="M97.385 11.305c-.237.237-.262 51.041-.025 51.277.131.132 10.834.113 10.966-.019.05-.05.11-4.641.133-10.202.042-10.097.042-10.111.398-10.406.327-.272.863-.295 6.703-.284 5.958.01 6.354-.007 6.465-.288.191-.485.164-7.697-.031-8.061-.166-.31-.415-.322-6.5-.322-6.105 0-6.339-.012-6.661-.333-.492-.493-.522-11.944-.032-12.387.272-.247 1.602-.277 13.986-.318 7.527-.025 13.748-.108 13.824-.184.25-.25.271-8.437.022-8.529-.584-.217-39.03-.162-39.248.056m54.33-.183l-5.201.049-.097.54c-.118.66-.035 50.727.085 50.847.047.047 2.597.102 5.667.122l5.581.037V11.083l-.417-.005c-.229-.004-2.757.016-5.618.044m20.339.182c-.228.228-.344 50.135-.119 50.976.136.507-1.345.474 19.193.427l18.711-.043-.045-4.29-.044-4.291L196.726 54c-12.511-.08-13.038-.096-13.375-.401l-.351-.317V32.224c0-16.731-.043-21.059-.208-21.063-4.247-.126-10.554-.042-10.738.143m46.761-.126c-.257.159-.198 51.185.059 51.398.144.12 6.664.148 20.876.091l20.667-.084v-8.5L245.528 54c-14.495-.081-14.895-.092-15.125-.407-.285-.39-.352-10.768-.074-11.499l.163-.427h8.327c6.479 0 8.358-.047 8.463-.209.209-.323.269-7.469.067-8.001l-.174-.457h-16.489l-.26-.37c-.275-.394-.373-11.184-.11-12.13l.116-.417L244.889 20c12.608-.073 14.477-.115 14.615-.333.088-.14.159-2.068.16-4.375l.003-4.125-.375-.002c-14.207-.064-40.366-.056-40.477.013m57.649-.044c-.456.088-.459.267-.462 26.243-.002 25.9-.014 26.51-.585 29.059-.302 1.349-2.085 2.264-4.649 2.386-2.361.113-2.39.142-1.924 1.93.166.64.35 1.765.407 2.498.162 2.085.144 2.047 1.013 2.178 1.961.294 10.055-.628 10.779-1.227.114-.095.732-.45 1.374-.79 2.371-1.257 3.932-3.229 4.614-5.828.235-.893.341-56.1.108-56.332-.107-.108-10.15-.218-10.675-.117m26.369.022c-.22.146-.25 3.194-.25 25.761 0 27.251-.032 26.108.722 25.831.122-.045 9.441-.081 20.709-.081H344.5v-4.07c0-2.238-.046-4.188-.101-4.333-.091-.238-1.559-.264-14.896-.264-12.66 0-14.824-.035-14.994-.239-.212-.256-.3-11.591-.093-11.926.067-.11 3.002-.168 8.421-.168 8.053 0 8.323-.011 8.49-.323.185-.345.244-7.312.068-7.969l-.101-.375h-8.293c-6.811 0-8.327-.041-8.483-.228-.135-.163-.176-1.998-.145-6.458l.044-6.231L328.833 20c7.929-.046 14.511-.144 14.625-.218.158-.102.209-1.166.209-4.375v-4.24h-19.813c-10.897 0-20.028-.04-20.291-.088-.264-.049-.592-.014-.73.077m48.354.177c-.145.35-.13 8.019.016 8.375.112.273.701.292 9.032.292h8.913l.259.37c.232.331.26 2.622.26 21.241 0 14.167.055 20.903.172 20.976.341.211 10.89.082 11.028-.135.07-.111.129-9.563.13-21.005.002-14.016.059-20.907.176-21.125.167-.312.442-.322 8.982-.322 8.233 0 8.817-.019 8.929-.292.157-.383.1-8.445-.061-8.503-.606-.218-47.745-.092-47.836.128"/><path fill="#fbfbfb" d="M0 .833c0 .902.242 1.094.506.402.092-.242.383-.515.662-.62C1.965.314 1.793 0 .833 0H0v.833M72.833.25c0 .138.079.25.175.25.095 0 .358.184.583.409l.409.409v71.45l-.55.533-.549.532H1.653l-.511-.375c-.282-.206-.577-.543-.656-.75C.161 71.863 0 72.372 0 74.25v1.917h269.206l-.113-.375c-.062-.207-.18-.863-.262-1.459a21.268 21.268 0 0 0-.323-1.79c-.274-1.103-.3-3.774-.04-4.087.175-.211.665-.275 2.446-.318 2.04-.05 2.26-.086 2.625-.43.22-.206.479-.375.577-.375.097 0 .273-.231.39-.514.117-.283.332-.634.478-.78.241-.24.274-2.888.349-27.658.074-24.107.114-27.412.334-27.551.336-.213 11.347-.213 11.905-.001l.428.163-.01 27.462c-.005 15.105-.074 27.8-.152 28.213-.252 1.334-.657 2.577-.895 2.751-.128.094-.286.413-.351.711-.066.297-.263.617-.439.712-.176.094-.32.259-.32.366 0 .418-2.77 2.782-3.269 2.79-.102.002-.373.15-.602.331-.229.18-.769.406-1.2.503-.431.096-.947.279-1.148.406-.2.128-1.002.28-1.781.339-1.765.135-2.333.241-2.333.437 0 .093 24.443.154 62.25.154H400V20.128l-.375.14c-.206.078-4.322.163-9.146.189l-8.772.049-.103.518c-.057.285-.104 9.799-.104 21.143 0 18.98-.022 20.644-.276 20.854-.474.394-11.61.331-12.01-.069-.281-.281-.302-1.422-.381-21.333l-.083-21.036-8.881-.083c-7.651-.072-8.903-.118-9.039-.333-.27-.427-.209-9.089.065-9.316.17-.14 6.577-.178 24.667-.145L400 10.75V0H236.417C91.12 0 72.833.028 72.833.25m64.134 10.617c.336.336.279 9.03-.062 9.371-.234.234-1.733.262-14 .262h-13.738v11.833l6.208.003c8.278.003 7.458-.534 7.458 4.881 0 5.66.728 5.16-7.416 5.093l-6.167-.05-.083 10.278c-.066 8.118-.129 10.324-.3 10.495-.348.348-10.948.41-11.765.069l-.602-.252V10.989l.375-.15c.609-.245 39.846-.218 40.092.028m21.159 25.949c.03 19.126-.008 26.125-.146 26.291-.35.422-11.384.322-11.813-.107-.466-.466-.534-51.609-.07-52.074.233-.232.961-.258 6.125-.22l5.861.044.043 26.066m25.357-25.858l.354.292.04 21.083.04 21.084 12.984.042c9.255.031 13.048.096 13.208.229.362.3.324 9.022-.04 9.386-.373.373-38.176.321-38.627-.053-.439-.364-.423-51.918.016-52.174.572-.333 11.61-.231 12.025.111m76.511.031c.304.568.227 8.693-.087 9.141l-.259.37h-28.981v11.833h8.213c7.163 0 8.26.033 8.583.26.492.344.591 8.829.108 9.312-.231.231-1.24.262-8.583.262h-8.321v11.125l.521.104c.286.057 6.992.104 14.903.104 7.91 0 14.5.046 14.645.101.488.187.388 9.127-.106 9.473-.331.231-2.598.259-20.99.259-20.545 0-21.338-.02-21.676-.552-.162-.255-.165-51.471-.003-51.714.242-.362.891-.374 21.241-.387 20.222-.013 20.623-.007 20.792.309m83.973-.122c.336.336.279 9.03-.062 9.371-.234.234-1.801.262-14.75.262h-14.488v11.824l8.408.047c6.628.036 8.454.092 8.625.262.403.404.304 8.996-.107 9.297-.269.197-1.719.237-8.627.237h-8.304l.044 5.625.044 5.625 14.901.042c10.672.031 14.964.096 15.125.229.27.224.327 8.891.061 9.312-.228.361-42.294.382-42.728.021-.293-.243-.439-51.518-.148-51.954a.901.901 0 0 1 .372-.279c.543-.206 41.426-.129 41.634.079M14.207 28.291l.043 14.126h10.5l.083-8.517c.068-6.88.128-8.569.312-8.791.208-.25 1.018-.276 8.594-.276 6.428 0 8.43-.048 8.648-.208.26-.19.281-.661.241-5.292l-.045-5.083-14.209-.043-14.209-.042.042 14.126m35.119-14.043c-.144 1.625.023 10.326.201 10.439.284.18 9.984.187 10.267.007.164-.104.201-1.275.167-5.289l-.044-5.155-5.292-.044c-2.91-.024-5.295-.005-5.299.042M32.033 31.867c-.294.294-.284 9.954.012 10.358.229.314 10.088.364 10.4.053.37-.371.258-10.012-.121-10.319-.456-.369-9.929-.454-10.291-.092M14.28 49.275c-.14.141-.152 10.097-.012 10.461.141.369 10.076.403 10.381.036.134-.163.176-1.717.145-5.375l-.044-5.147-5.178-.044c-2.848-.024-5.229.007-5.292.069"/><path fill="#7c8484" d="M97.204 11.093l-.371.259V36.9c0 24.539.012 25.559.305 25.824.355.321 10.454.423 11.268.113l.427-.162V52.537c0-7.662.049-10.186.2-10.337.149-.149 1.834-.2 6.55-.2 4.717 0 6.402-.051 6.55-.2.388-.388.274-8.749-.122-8.961-.206-.11-2.576-.172-6.55-.172-4.622 0-6.279-.052-6.428-.2-.286-.287-.286-11.814 0-12.1.153-.153 3.469-.2 13.911-.2 13.385 0 13.715-.008 13.883-.323.258-.48.233-8.551-.027-8.811-.342-.342-39.106-.284-39.596.06m49.254-.08c-.397.232-.46 51.473-.063 51.802.163.135 1.846.177 5.875.146l5.647-.044.042-25.816c.031-18.941-.008-25.876-.146-26.042-.234-.283-10.874-.326-11.355-.046m25.417.024l-.375.181v25.718c0 25.257.006 25.722.322 25.891.718.385 37.973.224 38.18-.165.303-.565.149-8.632-.169-8.832-.151-.096-5.301-.159-13.091-.161-9.763-.002-12.89-.05-13.042-.202-.153-.154-.2-5.097-.2-21.234V11.199l-.525-.183c-.712-.248-10.581-.23-11.1.021m46.639.088l-.356.292.046 25.555c.045 25.077.052 25.559.37 25.791.532.39 41.623.352 41.947-.039.261-.313.345-8.58.09-8.835-.076-.076-6.864-.177-15.083-.222l-14.945-.084-.043-5.773-.044-5.773.418-.105c.23-.058 4-.099 8.377-.091l7.959.013.206-.385c.293-.55.289-7.721-.005-8.302l-.211-.417-8.328-.083-8.329-.084-.046-5.833c-.026-3.208-.006-6.002.045-6.208l.091-.375h14.38c10.963 0 14.428-.048 14.58-.2.388-.388.274-8.749-.122-8.961-.644-.345-40.573-.229-40.997.119m57.528-.088l-.375.181-.002 25.932c-.001 27.13-.031 28.379-.711 29.516-.879 1.47-1.733 1.834-4.307 1.834-2.362 0-2.573.361-1.9 3.262.139.599.301 1.611.36 2.248.157 1.686.21 1.729 2.168 1.735 1.859.006 6.137-.336 7.142-.571 1.74-.406 2.566-.683 3.346-1.118l1.417-.788c1.189-.657 3.031-2.638 3.244-3.489.062-.247.184-.493.271-.547.926-.572.972-2.034.972-31.168V11.352l-.371-.259c-.458-.321-10.6-.372-11.254-.056m26.5 0l-.375.181v51.395l.424.194c.757.344 41.642.27 41.988-.077.297-.296.326-8.548.032-8.841-.076-.077-6.864-.177-15.083-.222l-14.945-.084-.046-5.5c-.026-3.025-.006-5.668.045-5.875l.091-.375h8.297c6.231 0 8.346-.049 8.497-.2.29-.29.283-8.291-.009-8.684-.19-.257-.943-.285-8.541-.324l-8.334-.042-.043-5.98c-.032-4.275.01-6.045.145-6.208.157-.19 2.609-.228 14.576-.228 11.326 0 14.415-.045 14.521-.209.293-.453.262-8.556-.034-8.853-.337-.337-40.51-.404-41.206-.068m48.464.119c-.223.415-.231 8.001-.01 8.583l.162.428h8.663c6.219 0 8.783.054 9.088.193l.424.194v20.947c0 20.082.013 20.959.305 21.223.426.386 10.766.422 11.288.039.317-.231.325-.667.368-21.193.031-15.063.095-21.02.228-21.18.151-.181 1.821-.223 8.882-.223 6.541 0 8.746-.05 8.896-.2.388-.388.274-8.749-.122-8.961-.696-.372-47.972-.225-48.172.15m-214.373.093c.249.092.228 8.279-.022 8.529-.076.076-6.297.159-13.824.184-12.384.041-13.714.071-13.986.318-.49.443-.46 11.894.032 12.387.322.321.556.333 6.661.333 6.085 0 6.334.012 6.5.322.195.364.222 7.576.031 8.061-.111.281-.507.298-6.465.288-5.84-.011-6.376.012-6.703.284-.356.295-.356.309-.398 10.406-.023 5.561-.083 10.152-.133 10.202-.132.132-10.835.151-10.966.019-.237-.236-.212-51.04.025-51.277.218-.218 38.664-.273 39.248-.056M157.75 36.9v25.817l-5.581-.037c-3.07-.02-5.62-.075-5.667-.122-.12-.12-.203-50.187-.085-50.847l.097-.54 5.201-.049c2.861-.028 5.389-.048 5.618-.044l.417.005V36.9m25.042-25.739c.165.004.208 4.332.208 21.063v21.058l.351.317c.337.305.864.321 13.375.401l13.024.083.044 4.291.045 4.29-18.711.043c-20.538.047-19.057.08-19.193-.427-.225-.841-.109-50.748.119-50.976.184-.185 6.491-.269 10.738-.143m76.5.004l.375.002-.003 4.125c-.001 2.307-.072 4.235-.16 4.375-.138.218-2.007.26-14.615.333l-14.457.083-.116.417c-.263.946-.165 11.736.11 12.13l.26.37h16.489l.174.457c.202.532.142 7.678-.067 8.001-.105.162-1.984.209-8.463.209h-8.327l-.163.427c-.278.731-.211 11.109.074 11.499.23.315.63.326 15.125.407l14.889.083v8.5l-20.667.084c-14.212.057-20.732.029-20.876-.091-.257-.213-.316-51.239-.059-51.398.111-.069 26.27-.077 40.477-.013m27.847.086c.233.232.127 55.439-.108 56.332-.682 2.599-2.243 4.571-4.614 5.828-.642.34-1.26.695-1.374.79-.724.599-8.818 1.521-10.779 1.227-.869-.131-.851-.093-1.013-2.178a17.44 17.44 0 0 0-.407-2.498c-.466-1.788-.437-1.817 1.924-1.93 2.564-.122 4.347-1.037 4.649-2.386.571-2.549.583-3.159.585-29.059.003-25.976.006-26.155.462-26.243.525-.101 10.568.009 10.675.117m36.715-.084h19.813v4.24c0 3.209-.051 4.273-.209 4.375-.114.074-6.696.172-14.625.218l-14.416.083-.044 6.231c-.031 4.46.01 6.295.145 6.458.156.187 1.672.228 8.483.228h8.293l.101.375c.176.657.117 7.624-.068 7.969-.167.312-.437.323-8.49.323-5.419 0-8.354.058-8.421.168-.207.335-.119 11.67.093 11.926.17.204 2.334.239 14.994.239 13.337 0 14.805.026 14.896.264.055.145.101 2.095.101 4.333v4.07h-20.486c-11.268 0-20.587.036-20.709.081-.754.277-.722 1.42-.722-25.831 0-28.096-.078-26.032.98-25.838.263.048 9.394.088 20.291.088m75.169.038c.161.058.218 8.12.061 8.503-.112.273-.696.292-8.929.292-8.54 0-8.815.01-8.982.322-.117.218-.174 7.109-.176 21.125-.001 11.442-.06 20.894-.13 21.005-.138.217-10.687.346-11.028.135-.117-.073-.172-6.809-.172-20.976 0-18.619-.028-20.91-.26-21.241l-.259-.37h-8.913c-8.331 0-8.92-.019-9.032-.292-.146-.356-.161-8.025-.016-8.375.091-.22 47.23-.346 47.836-.128"/><path fill="#a1acc4" d="M1.667.238c0 .131-.126.262-.28.291-.154.03 15.852.035 35.568.011L72.804.497l.515.433.514.433v71.388l-.485.458-.485.458H37.302c-38.534 0-35.894.058-36.594-.807-.114-.141-.208-.177-.208-.078 0 .098.257.375.572.615l.572.436h71.291l.532-.549.533-.55V1.318l-.409-.409C73.366.684 73.103.5 73.008.5c-.096 0-.175-.112-.175-.25 0-.221-4.064-.25-35.583-.25C6.544 0 1.667.033 1.667.238M.7.867c-.11.11-.2.3-.2.422s-.112.265-.25.317c-.38.146-.38 70.642 0 70.788.222.085.25-3.912.251-35.358C.502 6.567.536 1.519.741 1.125 1.005.618.998.569.7.867m96.175 9.972l-.375.15V62.85l.602.252c.817.341 11.417.279 11.765-.069.171-.171.234-2.377.3-10.495l.083-10.278 6.167.05c8.144.067 7.416.567 7.416-5.093 0-5.415.82-4.878-7.458-4.881l-6.208-.003V20.5h13.738c12.267 0 13.766-.028 14-.262.341-.341.398-9.035.062-9.371-.246-.246-39.483-.273-40.092-.028m49.222.087c-.464.465-.396 51.608.07 52.074.429.429 11.463.529 11.813.107.138-.166.176-7.165.146-26.291l-.043-26.066-5.861-.044c-5.164-.038-5.892-.012-6.125.22m25.361-.079c-.439.256-.455 51.81-.016 52.174.451.374 38.254.426 38.627.053.364-.364.402-9.086.04-9.386-.16-.133-3.953-.198-13.208-.229l-12.984-.042-.04-21.084-.04-21.083-.354-.292c-.415-.342-11.453-.444-12.025-.111m46.875-.059a.901.901 0 0 0-.372.279c-.162.243-.159 51.459.003 51.714.338.532 1.131.552 21.676.552 18.392 0 20.659-.028 20.99-.259.494-.346.594-9.286.106-9.473-.145-.055-6.735-.101-14.645-.101-7.911 0-14.617-.047-14.903-.104l-.521-.104V42.167h8.321c7.343 0 8.352-.031 8.583-.262.483-.483.384-8.968-.108-9.312-.323-.227-1.42-.26-8.583-.26h-8.213V20.5h28.981l.259-.37c.314-.448.391-8.573.087-9.141-.17-.317-40.84-.513-41.661-.201m57.334.042c-.22.139-.26 3.444-.334 27.551-.075 24.77-.108 27.418-.349 27.658-.146.146-.361.497-.478.78-.117.283-.293.514-.39.514-.098 0-.357.169-.577.375-.365.344-.585.38-2.625.43-1.781.043-2.271.107-2.446.318-.291.351-.218 3.125.116 4.431.137.535.249 1.202.249 1.482s.087.799.193 1.153l.193.645h3.127c2.133 0 3.146-.059 3.188-.184.034-.105.895-.268 1.989-.377 1.061-.105 2.037-.281 2.168-.39.132-.11.603-.28 1.047-.38.444-.1.995-.328 1.224-.508.229-.181.5-.329.602-.331.499-.008 3.269-2.372 3.269-2.79 0-.107.144-.272.32-.366.176-.095.373-.415.439-.712.065-.298.223-.617.351-.711.238-.174.643-1.417.895-2.751.078-.413.147-13.108.152-28.213l.01-27.462-.428-.163c-.558-.212-11.569-.212-11.905.001m26.666-.042a.901.901 0 0 0-.372.279c-.291.436-.145 51.711.148 51.954.434.361 42.5.34 42.728-.021.266-.421.209-9.088-.061-9.312-.161-.133-4.453-.198-15.125-.229l-14.901-.042-.044-5.625-.044-5.625h8.304c6.908 0 8.358-.04 8.627-.237.411-.301.51-8.893.107-9.297-.171-.17-1.997-.226-8.625-.262l-8.408-.047V20.5h14.488c12.949 0 14.516-.028 14.75-.262.341-.341.398-9.035.062-9.371-.208-.208-41.091-.285-41.634-.079m48.534.079c-.248.247-.282 8.912-.037 9.3.136.215 1.388.261 9.039.333l8.881.083.083 21.036c.079 19.911.1 21.052.381 21.333.4.4 11.536.463 12.01.069.254-.21.276-1.874.276-20.854 0-11.344.047-20.86.104-21.146l.104-.521h8.593c6.268 0 8.742-.054 9.146-.2l.553-.2v-9.225l-.521-.104c-1.059-.212-48.398-.119-48.612.096m-214.067.166c.26.26.285 8.331.027 8.811-.168.315-.498.323-13.883.323-10.442 0-13.758.047-13.911.2-.286.286-.286 11.813 0 12.1.149.148 1.806.2 6.428.2 3.974 0 6.344.062 6.55.172.396.212.51 8.573.122 8.961-.148.149-1.833.2-6.55.2-4.716 0-6.401.051-6.55.2-.151.151-.2 2.675-.2 10.337v10.138l-.427.162c-.814.31-10.913.208-11.268-.113-.293-.265-.305-1.285-.305-25.824V11.352l.371-.259c.49-.344 39.254-.402 39.596-.06m21.013.026c.138.166.177 7.101.146 26.042l-.042 25.816-5.647.044c-4.029.031-5.712-.011-5.875-.146-.397-.329-.334-51.57.063-51.802.481-.28 11.121-.237 11.355.046m25.162-.043l.525.183v21.034c0 16.137.047 21.08.2 21.234.152.152 3.279.2 13.042.202 7.79.002 12.94.065 13.091.161.318.2.472 8.267.169 8.832-.207.389-37.462.55-38.18.165-.316-.169-.322-.634-.322-25.891V11.218l.375-.181c.519-.251 10.388-.269 11.1-.021m76.536-.01c.396.212.51 8.573.122 8.961-.152.152-3.617.2-14.58.2h-14.38l-.091.375c-.051.206-.071 3-.045 6.208l.046 5.833 8.329.084 8.328.083.211.417c.294.581.298 7.752.005 8.302l-.206.385-7.959-.013c-4.377-.008-8.147.033-8.377.091l-.418.105.044 5.773.043 5.773 14.945.084c8.219.045 15.007.146 15.083.222.255.255.171 8.522-.09 8.835-.324.391-41.415.429-41.947.039-.318-.232-.325-.714-.37-25.791l-.046-25.555.356-.292c.424-.348 40.353-.464 40.997-.119m27.785.087l.371.259v26.712c0 29.134-.046 30.596-.972 31.168-.087.054-.209.3-.271.547-.213.851-2.055 2.832-3.244 3.489l-1.417.788c-.78.435-1.606.712-3.346 1.118-1.005.235-5.283.577-7.142.571-1.958-.006-2.011-.049-2.168-1.735a20.34 20.34 0 0 0-.36-2.248c-.673-2.901-.462-3.262 1.9-3.262 2.574 0 3.428-.364 4.307-1.834.68-1.137.71-2.386.711-29.516l.002-25.932.375-.181c.654-.316 10.796-.265 11.254.056m56.452.012c.296.297.327 8.4.034 8.853-.106.164-3.195.209-14.521.209-11.967 0-14.419.038-14.576.228-.135.163-.177 1.933-.145 6.208l.043 5.98 8.334.042c7.598.039 8.351.067 8.541.324.292.393.299 8.394.009 8.684-.151.151-2.266.2-8.497.2h-8.297l-.091.375c-.051.207-.071 2.85-.045 5.875l.046 5.5 14.945.084c8.219.045 15.007.145 15.083.222.294.293.265 8.545-.032 8.841-.346.347-41.231.421-41.988.077l-.424-.194V11.218l.375-.181c.696-.336 40.869-.269 41.206.068m55.43-.099c.396.212.51 8.573.122 8.961-.15.15-2.355.2-8.896.2-7.061 0-8.731.042-8.882.223-.133.16-.197 6.117-.228 21.18-.043 20.526-.051 20.962-.368 21.193-.522.383-10.862.347-11.288-.039-.292-.264-.305-1.141-.305-21.223V20.554l-.424-.194c-.305-.139-2.869-.193-9.088-.193h-8.663l-.162-.428c-.221-.582-.213-8.168.01-8.583.2-.375 47.476-.522 48.172-.15M28.326 14.165l14.242.085.116.417c.097.349.119.361.133.075.037-.761.384-.744-14.559-.702l-14.175.041 14.243.084m20.95-.04c-.043.069 2.334.125 5.282.125h5.359l.044 5.208c.024 2.865.024 5.225 0 5.244-.025.02-2.332.078-5.128.13l-5.083.094 4.921.037c4.225.032 4.974 0 5.292-.222.544-.382.589-10.279.048-10.568-.374-.2-10.613-.246-10.735-.048M14.08 28.25c0 7.7.02 10.826.045 6.946.025-3.88.025-10.18 0-14-.025-3.82-.045-.646-.045 7.054m35.159-8.833c0 2.383.024 3.335.052 2.115.029-1.22.029-3.17 0-4.334-.028-1.163-.052-.165-.052 2.219m-6.553 4.7c-.011.201-.151.443-.311.536-.16.094-.207.172-.104.175.297.008.597-.449.512-.778-.062-.241-.081-.227-.097.067m-17.541.992c-.184.222-.244 1.911-.312 8.791l-.083 8.517h-5.276c-2.902 0-5.241.056-5.198.125.148.239 10.33.149 10.531-.094.124-.149.196-2.891.229-8.653.026-4.639.11-8.497.186-8.573.076-.076 3.901-.178 8.5-.225l8.361-.086-8.354-.039c-7.596-.035-8.376-.014-8.584.237m6.708 6.654c-.534.679-.551 10.039-.02 10.57.319.319.556.334 5.302.334 5.261 0 5.665-.056 5.486-.761-.075-.294-.084-.291-.102.033-.028.528-.314.556-5.555.559-4.562.002-4.794-.013-4.958-.32-.259-.484-.233-10.051.027-10.311.335-.335 9.779-.28 10.263.059.427.299.508.062.095-.281-.216-.179-1.333-.239-5.23-.279l-4.956-.051-.352.448M14.2 49.2c-.261.261-.286 10.16-.027 10.644.254.476 10.235.505 10.595.031.305-.402.335-10.372.032-10.675-.286-.286-10.314-.286-10.6 0m10.594 5.197c.031 3.658-.011 5.212-.145 5.375-.305.367-10.24.333-10.381-.036-.14-.364-.128-10.32.012-10.461.063-.062 2.444-.093 5.292-.069l5.178.044.044 5.147"/><path fill="#749ef4" d="M1.335.649c-.229.063-.509.3-.623.525-.305.602-.308 71.31-.004 71.686.7.865-1.94.807 36.594.807h35.561l.485-.458.485-.458V1.363l-.512-.432L72.808.5 37.279.517C17.738.526 1.563.585 1.335.649m41.251 13.522c.058.094.107 2.476.109 5.292l.003 5.12-.391.206c-.294.155-2.406.207-8.557.211-4.848.003-8.268.069-8.417.163-.215.136-.256 1.314-.297 8.613-.033 5.775-.105 8.523-.229 8.672-.338.408-10.414.309-10.634-.104-.187-.348-.256-27.6-.072-28.08.123-.322 28.287-.413 28.485-.093m17.425.002c.541.289.496 10.186-.048 10.568-.436.305-9.595.391-10.369.096l-.427-.162v-5.226c0-2.875.05-5.277.111-5.338.188-.188 10.376-.13 10.733.062m-17.62 17.472c.459.382.415 10.602-.047 10.849-.684.366-10.128.222-10.511-.161-.531-.531-.514-9.891.02-10.57l.352-.448 4.956.051c3.897.04 5.014.1 5.23.279M24.8 49.2c.303.303.273 10.273-.032 10.675-.36.474-10.341.445-10.595-.031-.259-.484-.234-10.383.027-10.644.286-.286 10.314-.286 10.6 0"/></g></svg>