<svg xmlns="http://www.w3.org/2000/svg" role="img" viewBox="-20.98 -20.98 1142.96 251.96"><title>FileJet (adopter) logo</title><style>svg {enable-background:new 0 0 1102.1 210.3}</style><path fill="#4885ed" d="M199.8.9H4.9C2.8.9 1 2.6 1 4.7v194.9c0 2.1 1.7 3.9 3.8 3.9h194.9c2.1 0 3.9-1.7 3.9-3.8V4.7c0-2.1-1.7-3.8-3.8-3.8zM38.5 166v-30.6h30.6V166H38.5zm79.1-48.5H87V86.9h30.6v30.6zm0-48.5H69.2v48.5H38.6V38.4h79.1V69zm48.5 0h-30.6V38.4h30.6V69z"/><path fill="#23282d" d="M377.2 55.7h-77.6v34.6h37.8v25.5h-37.8v58.3h-32.7v-144h110.3zm25.4-25.6h32.7v144h-32.7zm176.3 144H472.5v-144h32.7v118.4h73.7zm139.6 0H601.4v-144h114.5v25.4h-81v34.7h47.4v25.4h-47.4v32.9h83.7zm32.8 35.4H742l-2.5-19.8h6.9c4.9 0 8.5-1.3 10.4-4s3-6.7 3-12.5V30.1h32.7V179c0 10-3.6 17.6-10.7 22.7s-17.2 7.8-30.5 7.8M950 174.1H832.8v-144h114.6v25.4h-81.1v34.7h47.6v25.4h-47.6v32.9H950zm151-118.6h-50.6V174h-32.8V55.5h-50.7V30.1H1101z"/></svg>