<svg xmlns="http://www.w3.org/2000/svg" role="img" viewBox="-0.01 -5.01 702.52 409.02"><style>svg {enable-background:new 0 0 703 406}</style><style>.st0{fill:#0080c2}.st1{fill:#77787b}</style><path d="M602.97 261.8v68.84h67.35c5.16 0 9.55-2.49 13.15-7.47 3.62-4.97 5.41-10.96 5.41-17.95v-18.54c0-6.78-1.81-12.62-5.46-17.52-3.64-4.91-8.01-7.36-13.1-7.36h-67.35zm18.56 17.5h39.78c2.55 0 4.68.7 6.42 2.12 1.73 1.41 2.6 3.17 2.6 5.29v18.19c0 2.26-.92 4.19-2.76 5.82-1.84 1.62-4.03 2.43-6.58 2.43h-39.46V279.3zm-109.25-17.5v69.05h18.56v-17.5h36.06c1.77 0 3.18 1.42 4.24 4.24 1.06 2.83 1.59 7.25 1.59 13.26h18.56c0-9.05-.5-15.65-1.49-19.78-.99-4.14-3.5-6.45-7.53-6.95 2.76-2.05 4.95-4.07 6.58-6.08s2.44-4.39 2.44-7.15v-11.64c0-4.8-1.82-8.91-5.46-12.33-3.64-3.42-8.01-5.13-13.1-5.13h-60.45zm18.56 17.5h33.62c2.26 0 4.21.74 5.84 2.22 1.62 1.47 2.44 3.27 2.44 5.37 0 2.46-.82 4.57-2.44 6.32-1.63 1.76-3.57 2.63-5.84 2.63h-33.62V279.3zm-91.43-17.5l-33.73 68.84h20.68l6.36-13.05h42.43l6.37 13.05h20.58l-33.51-68.84h-29.18zm14.64 12.41l14.43 29.59h-28.96l14.53-29.59zm-54.41-12.41l-21.74 56.64-15.38-56.64h-24.93l-15.38 56.96-21.96-56.96h-18.78l26.52 68.84h29.07L350 282.59l13.05 48.05H392l26.41-68.84h-18.77zm-203.97 0v69.05h18.56v-17.5h36.06c1.77 0 3.18 1.42 4.24 4.24 1.06 2.83 1.59 7.25 1.59 13.26h18.56c0-9.05-.49-15.65-1.49-19.78-.99-4.14-3.5-6.45-7.53-6.95 2.76-2.05 4.95-4.07 6.58-6.08s2.44-4.39 2.44-7.15v-11.64c0-4.8-1.82-8.91-5.46-12.33-3.64-3.42-8.01-5.13-13.1-5.13h-60.45zm18.56 17.5h33.63c2.26 0 4.2.74 5.83 2.22 1.63 1.47 2.44 3.27 2.44 5.37 0 2.46-.81 4.57-2.44 6.32-1.63 1.76-3.57 2.63-5.83 2.63h-33.63V279.3zM114 261.8c-5.16 0-9.55 1.69-13.15 5.08-3.61 3.39-5.41 7.52-5.41 12.39v33.89c0 4.73 1.84 8.82 5.52 12.29 3.67 3.46 8.02 5.19 13.04 5.19h50.92c5.09 0 9.45-1.75 13.1-5.24 3.64-3.49 5.46-7.68 5.46-12.55v-33.57c0-4.8-1.82-8.91-5.46-12.34-3.64-3.42-8.01-5.13-13.1-5.13H114zm2.28 48.96c-1.52-1.59-2.28-3.44-2.28-5.55v-18.5c0-2.04.76-3.79 2.28-5.23 1.52-1.45 3.41-2.17 5.67-2.17h34.79c2.33 0 4.28.7 5.84 2.12 1.55 1.41 2.33 3.17 2.33 5.29v18.5c0 2.19-.82 4.06-2.44 5.61-1.63 1.55-3.54 2.32-5.73 2.32h-34.79c-2.26-.01-4.15-.8-5.67-2.39zM13.55 261.8v68.84h18.56v-27.89h49v-13.79h-49v-11.24h51.97V261.8H13.55z" class="st0"/><path d="M654.88 350.59c-3.02 0-5.58.78-7.69 2.35-2.11 1.57-3.16 3.46-3.16 5.69v6.24c0 2.88.88 5.22 2.63 7.01 1.76 1.79 4.5 2.69 8.21 2.69l19.52.68c1.07 0 1.98.35 2.73 1.05.74.7 1.11 1.55 1.11 2.54 0 1.08-.52 1.99-1.57 2.76-1.05.77-2.33 1.15-3.81 1.15h-14.88c-.87 0-1.6-.44-2.2-1.33-.6-.89-.9-1.95-.9-3.19l-10.85-.31v4.84c0 2.19 1.06 4.08 3.19 5.67 2.12 1.59 4.68 2.39 7.65 2.39h20.76c4.5 0 7.87-.91 10.1-2.73 2.23-1.82 3.35-5.31 3.35-10.48 0-4.34-.98-7.34-2.95-9.02-1.96-1.67-4.6-2.51-7.91-2.51l-21.07-.68c-1.08 0-1.73-.26-1.95-.78-.23-.52-.34-1.37-.34-2.57 0-.95.29-1.75.87-2.42.58-.66 1.26-.99 2.04-.99h14.87c1.49 0 2.59.35 3.29 1.05.7.7 1.05 1.63 1.05 2.79h10.84v-3.84c0-2.23-.83-4.13-2.48-5.7-1.65-1.57-3.66-2.35-6.01-2.35h-24.44zm-65.64 0l-15.68 14.5h-6.69v-14.5h-10.84v40.22h10.84v-14.88H574l17.35 14.88h16.73l-24.11-20.64 21.2-19.59h-15.93zm-117.5 0v40.35h10.85v-10.23h21.07c1.03 0 1.86.83 2.48 2.48.62 1.65.93 4.23.93 7.75h10.84c0-5.29-.29-9.14-.87-11.56-.58-2.42-2.04-3.77-4.4-4.06 1.61-1.2 2.89-2.38 3.84-3.55.95-1.17 1.43-2.57 1.43-4.17v-6.8c0-2.8-1.06-5.2-3.19-7.2s-4.68-3-7.65-3h-35.33zm10.84 10.22h19.65c1.32 0 2.46.43 3.41 1.29.95.86 1.43 1.91 1.43 3.14 0 1.44-.48 2.67-1.43 3.7-.95 1.03-2.09 1.54-3.41 1.54h-19.65v-9.67zm-89.55-10.22c-3.02 0-5.58.99-7.69 2.97-2.11 1.98-3.16 4.39-3.16 7.24v19.8c0 2.76 1.08 5.16 3.22 7.18 2.15 2.02 4.69 3.03 7.62 3.03h29.75c2.98 0 5.52-1.02 7.65-3.07 2.13-2.04 3.19-4.49 3.19-7.33V360.8c0-2.81-1.06-5.21-3.19-7.21s-4.68-3-7.65-3h-29.74zm1.33 28.6c-.89-.93-1.33-2.01-1.33-3.24v-10.81c0-1.19.44-2.21 1.33-3.06.89-.84 2-1.26 3.32-1.26h20.33c1.36 0 2.5.41 3.41 1.23.91.82 1.36 1.86 1.36 3.09v10.81c0 1.28-.48 2.37-1.42 3.27-.96.9-2.07 1.36-3.35 1.36h-20.33c-1.32 0-2.43-.46-3.32-1.39zm-60.15-28.6l-12.7 33.1-8.99-33.1h-14.57l-8.99 33.28-12.83-33.28h-10.97l15.5 40.22h16.98l7.56-28.08 7.62 28.08h16.92l15.43-40.22h-10.96zm-152.21 0v10.85h16.79v29.38h12.33v-29.38h16.73v-10.85H182zm-78.52 0v40.22h41.22v-9.3h-30.37v-7.01h28.63v-8.06h-28.63v-6.57h30.37v-9.3h-41.22zm-49.09 0v32.47l-22-32.47H13.8v40.22h10.84v-32.35l21.82 32.35h18.78v-40.22H54.39zm337.82-229.35l25.37-11.96-67.43-34.57-.02.02v-.02l-143.06 73.02v24.96l.1-.05-.01.03 31.2 14.84s.1-5.95 2.89-11.71c2.83-5.84 6.67-8.89 6.67-8.89l-15.35-7.23 117.56-60 42.08 21.56z" class="st1"/><path d="M492.58 147.77v-.04l-33.93-17.4-25.35 11.97 33.99 17.42-116.9 55.3-.33.02-59.5-28.28c-.32-3.83-1.58-7.63-3.9-11.03-4.44-6.51-11.64-10.01-18.97-10.01-4.46 0-8.96 1.3-12.91 4-10.46 7.14-13.15 21.42-6.01 31.88 7.15 10.46 21.42 13.15 31.88 6.01.06-.04.11-.09.16-.12l69.29 32.77.03-.04v.05l142.59-67.62v-24.96l-.14.08zm-224.7 54c-.14.01-.28.01-.43.01-7.07 0-12.91-5.62-13.14-12.74-.23-7.26 5.47-13.34 12.73-13.57 7.26-.23 13.34 5.47 13.57 12.73.23 7.26-5.46 13.33-12.73 13.57z" class="st1"/><path d="M452.43 52.54c-6.66-10.46-20.37-13.67-30.96-7.43L350.14 8.56l-.02.02v-.02L207.06 81.58v24.96l.1-.05-.01.03 34.05 16.1 25.44-13.03-34.02-16.03 117.5-59.66 60.03 30.81c-.03 4.27 1.11 8.61 3.57 12.48 6.81 10.69 20.99 13.83 31.67 7.02 10.7-6.8 13.84-20.98 7.04-31.67zm-19.11 25.55c-7.26 0-13.15-5.89-13.15-13.15 0-7.26 5.89-13.15 13.15-13.15 7.26 0 13.15 5.89 13.15 13.15.01 7.26-5.89 13.15-13.15 13.15z" class="st0"/><path d="M492.56 81.63l.02-.04-30.16-15.44s.08 4.86-2.63 10.99c-2.86 6.46-6.74 9.17-6.74 9.17l14.23 7.29-116.16 54.95v-.03l-1.07.4-42.52-20.04-25.43 13.1 67.99 32.16.03-.04v.05l142.59-67.62V81.56l-.15.07z" class="st0"/></svg>