<svg xmlns="http://www.w3.org/2000/svg" role="img" viewBox="-6.95 62.05 413.66 120.66"><title>Gatsby Inc (member) logo</title><style>svg {enable-background:new 0 0 400 245}</style><path fill="#010101" d="M236.9 115h10.5v37.5h-10.5v-4.9c-3.7 5.6-8.6 6-11.6 6-11.6 0-19.1-9-19.1-19.9 0-11.2 7.5-19.9 18.4-19.9 3 0 8.6.4 12 6v-4.9h.3v.1zm-19.5 18.7c0 6 4.1 10.5 10.5 10.5 6 0 10.5-4.5 10.5-10.5s-4.1-10.5-10.5-10.5c-6 .1-10.5 4.5-10.5 10.5zM268 124v28.5h-10.5V124h-4.1v-9h4.1v-12.7H268V115h7.1v9H268zm31.9 0c-2.6-2.2-4.9-2.6-6-2.6-2.6 0-4.1 1.1-4.1 3 0 1.1.4 2.2 3.4 3.4l2.6.7c3 1.1 7.5 2.2 9.4 5.2 1.1 1.5 1.9 3.7 1.9 6.4 0 3.4-1.1 6.7-4.1 9.4-3 2.6-6.7 4.1-11.2 4.1-7.9 0-12-3.7-14.6-6.4l5.6-6.4c2.2 2.2 5.2 4.5 8.2 4.5s5.2-1.5 5.2-4.1c0-2.2-1.9-3.4-3.4-3.7l-2.2-.7c-2.6-1.1-5.6-2.2-7.9-4.5-1.9-1.9-3-4.1-3-7.1 0-3.7 1.9-6.7 3.7-8.6 3-2.2 6.7-2.6 9.7-2.6 2.6 0 7.1.4 12 4.1l-5.2 5.9zm22.9-4.1c3.7-5.2 9-6 12-6 10.9 0 18.4 8.6 18.4 19.9s-7.5 19.9-18.7 19.9c-2.2 0-7.9-.4-12-6v4.9h-10.1v-63h10.5v30.3h-.1zm-1.2 13.8c0 6 4.1 10.5 10.5 10.5 6 0 10.5-4.5 10.5-10.5s-4.1-10.5-10.5-10.5-10.5 4.5-10.5 10.5zm48.8 13.2l-18-31.9h12.4l11.6 21.4 10.5-21.4h12l-30 57.4h-12l13.5-25.5zm-166.8-25.5h-26.2v10.5h13.9c-2.2 7.1-7.5 12-17.2 12-10.9 0-18.7-9-18.7-19.9s7.5-20.2 18.4-20.2c6 0 12 3 15.7 7.9l8.6-5.6c-5.6-7.9-14.6-12.4-24.4-12.4-16.5 0-30 13.5-30 30.4s12.7 30.4 30 30.4 30-13.5 30-30.4c.2-1.2-.1-2-.1-2.7z"/><path fill="#fff" d="M94.9 122.5H68.6v7.5h18c-2.6 11.2-10.9 20.6-21.7 24.4l-43.1-43.1C26.3 98.1 39 88.8 53.6 88.8c11.2 0 21.4 5.6 27.7 14.2l5.6-4.9C79.4 88 67.4 81.2 53.5 81.2c-19.5 0-36 13.9-40.1 32.2L63 163c18-4.5 31.9-21 31.9-40.5zm-82.5.4c0 10.5 4.1 20.6 12 28.5s18.4 12 28.5 12l-40.5-40.5z"/><path fill="#663795" d="M53.6 70C24.7 70 1.1 93.6 1.1 122.5S24.7 175 53.6 175s52.5-23.6 52.5-52.5S82.5 70 53.6 70zm-29.2 81.7c-7.9-7.9-12-18.4-12-28.5l40.8 40.5c-10.4-.3-20.9-4.1-28.8-12zm38.2 10.9l-49.1-49.1c4.1-18.4 20.6-32.2 40.1-32.2 13.9 0 25.9 6.7 33.4 16.9l-5.6 4.9C75 94.4 64.9 88.8 53.6 88.8c-14.6 0-27 9.4-31.9 22.5l43.1 43.1c10.9-3.7 19.1-13.1 21.7-24.4h-18v-7.5h26.2c.2 19.5-13.7 36-32.1 40.1z"/></svg>