<svg xmlns="http://www.w3.org/2000/svg" role="img" viewBox="15.14 13.14 369.46 134.71"><path fill="#040404" fill-rule="evenodd" d="M281.917 20.443c-5.835 1.615-4.686 10.046 1.37 10.055 3.235.005 5.13-1.872 5.13-5.081 0-3.56-3.084-5.919-6.5-4.974m-20.794 5.256c-.151 1.01-.469 2.546-.615 2.968-.079.229-.269.829-.421 1.333-.424 1.4-1.855 4.251-2.664 5.31-1.129 1.476-4.033 4.023-4.587 4.023a.168.168 0 0 0-.169.167c0 .092-.094.169-.209.172-.114.003-.508.151-.875.328-.366.177-.761.325-.877.328-.116.003-.341.076-.5.162-.159.086-.496.2-.748.253-.313.066-.458.201-.458.427 0 .316.12.33 2.824.33h2.824l.068 14.625c.065 14.148.079 14.663.409 15.792.493 1.683 1.209 3.416 1.412 3.416.071 0 .13.109.13.241 0 .412 2.078 2.342 3.02 2.805 4.383 2.152 9.388 1.564 12.397-1.457 2.077-2.086 3.527-5.725 3.846-9.657l.118-1.461-.399.056c-.334.047-.434.207-.611.973-1.085 4.705-3.012 7.388-5.909 8.23-2.782.809-5.182-.351-6.344-3.063l-.535-1.25-.047-14.636-.047-14.635 6.48.052 6.479.052 1.287.654c1.5.762 2.354 1.643 3.142 3.244l.539 1.095.05 11.837c.072 17.27.001 17.67-3.46 19.489-.645.339-1.173.687-1.173.774 0 .097 3.209.157 8.333.157 8.861 0 8.989-.013 7.376-.776-1.115-.528-2.448-1.714-2.868-2.553-.833-1.66-.841-1.857-.841-19.691V39.167h-25.33l-.043-6.959-.044-6.958-.439-.051c-.383-.044-.449.02-.521.5M62.212 37.32c-.57.144-2.329.981-2.656 1.263-.107.092-.444.353-.75.581-1.033.768-2.794 2.707-3.27 3.601-.28.527-.24.542-1.323-.515-.516-.504-.995-.917-1.064-.917-.069 0-.224-.096-.345-.214-.255-.248-1.928-1.286-2.073-1.286-.054 0-.334-.103-.622-.229-4.898-2.142-12.364-1.928-17.062.49-.753.387-1.49.825-1.637.972-.147.147-.321.267-.386.267-.215 0-2.341 2.185-2.445 2.513-.056.176-.157.321-.225.321-.107 0-1.126 1.92-1.548 2.916-.805 1.9-.794 6.859.018 8.667.082.183.343.774.58 1.313.88 2.003 2.874 4.264 4.722 5.356.599.354.556.395-1.043.985-2.329.859-4.539 2.7-5.416 4.513-2.025 4.182.774 8.944 6.067 10.322 1.245.324 1.282.37.402.505-11.228 1.726-13.452 12.069-3.581 16.658 4.798 2.231 14.518 3.163 20.112 1.93 4.633-1.022 8.941-2.601 10-3.666.045-.046.416-.308.822-.583 1.378-.932 4.011-3.89 4.011-4.507 0-.06.105-.345.232-.634 1.753-3.961.945-9.235-1.839-12.007-1.331-1.325-1.405-1.382-2.618-1.996-3.748-1.9-5.143-2.078-16.473-2.094-9.695-.014-10.671-.135-11.949-1.489-1.769-1.874-.807-4.744 2.1-6.264 1.046-.547 1.098-.547 3.047-.035 4.196 1.104 9.044 1.05 12.75-.141 1.047-.337 3.917-1.748 3.917-1.927 0-.073.131-.177.291-.23.612-.203 3.209-2.956 3.209-3.401 0-.105.058-.191.13-.191.13 0 .234-.21.863-1.75 1.169-2.861 1.198-6.894.07-9.716-.333-.833-.79-1.766-.916-1.868-1.47-1.194 3.397-3.978 5.82-3.328 3.359.9 4.377 4.081 2.465 7.704-.205.389-.546 1.27-.757 1.958a38.78 38.78 0 0 1-.514 1.583c-1.166 2.983-.822 11.142.606 14.359.128.288.233.573.233.631 0 .435 1.725 3.588 2.413 4.413 1.632 1.952 2.905 3.175 4.14 3.976.383.248.734.5.78.561.187.245 3.162 1.591 4.25 1.922 4.959 1.511 10.882 1.099 15.036-1.046 3.385-1.748 6.409-5.234 7.286-8.399.064-.229.179-.567.256-.75.165-.394.691-2.623.631-2.674-.36-.301-.766-.204-.869.208-1.54 6.134-9.433 10.774-16.007 9.411-1.454-.302-2.174-.509-2.677-.772-.269-.14-.551-.255-.627-.256-.379-.002-2.66-1.666-3.623-2.642-1.484-1.504-3.656-5.099-3.656-6.052a.667.667 0 0 0-.149-.398c-.363-.386-1.173-4.931-1.179-6.617l-.005-1.292h28.551l-.102-2.125c-.104-2.173-.223-2.956-.806-5.291-.965-3.871-3.094-7.099-5.977-9.067-.971-.663-2.975-1.683-3.307-1.683-.108 0-.327-.071-.487-.157-1.475-.799-8.19-1.088-10.622-.457-2.479.643-4.914 1.751-6.527 2.969l-1.027.776-.171-.969c-.531-3.017-4.022-4.888-7.48-4.009m60.955.955c-1.632.32-3.845 1.222-5.167 2.105-1.486.993-4.5 4.387-4.5 5.066 0 .106-.056.218-.125.248-.136.061-.509.796-1.002 1.973-.173.412-.397.937-.499 1.166-.141.317-.187-.83-.196-4.791l-.011-5.209h-6.25c-6.684 0-7.091.056-5.502.755.412.181.749.385.75.454.001.068.081.125.178.125.679 0 2.309 2.001 2.919 3.583.502 1.301.5 29.54-.002 30.833-.628 1.617-1.344 2.387-3.035 3.263-1.915.992-1.953.987 7.275.987 9.181 0 9.147.005 7.291-.955-2.087-1.079-2.894-2.131-3.364-4.382-.423-2.028-.379-16.933.057-19.527 1.062-6.308 4.185-10.279 8.955-11.385 5.187-1.203 9.484 2.067 10.226 7.781.203 1.562.207 21.172.005 22.725-.252 1.939-1.788 4.41-2.741 4.41-.144 0-.263.056-.263.125s-.338.264-.75.433c-1.776.73-1.337.775 7.584.775 9.157 0 9.208-.006 7.375-.927-1.115-.56-2.447-1.739-2.796-2.476-.779-1.643-.782-1.694-.911-14.347-.073-7.184-.192-12.337-.296-12.839-.677-3.265-2.246-5.999-4.346-7.577a21.148 21.148 0 0 1-.749-.584c-.364-.313-2.359-1.231-3.277-1.508-.909-.274-5.858-.491-6.833-.3m36.583.383c-3.861.729-7.037 2.424-9.833 5.246-1.219 1.231-2.75 3.228-2.75 3.587a.237.237 0 0 1-.14.203c-.454.182-2.009 4.272-2.554 6.723-.364 1.634-.304 8.331.088 9.916 1.984 8.006 6.626 12.918 13.939 14.747 2.369.593 8.401.658 9.479.103.149-.076.551-.19.893-.251 1.3-.235 4.359-1.666 5.098-2.384.121-.118.281-.215.355-.215.176 0 2.842-2.666 2.842-2.841 0-.074.096-.234.214-.355 1.01-1.039 2.284-4.158 2.858-6.998.032-.161-.074-.311-.255-.358-.256-.067-.472.249-1.217 1.777-5.203 10.673-19.4 10.993-24.839.558-1.267-2.429-2.057-5.497-2.21-8.574l-.102-2.042H180l-.001-.708c-.007-3.336-.919-7.9-1.973-9.875-1.184-2.218-1.478-2.638-2.859-4.081-1.175-1.226-2.601-2.256-3.917-2.826a476.11 476.11 0 0 0-1.167-.506c-2.401-1.044-7.205-1.437-10.333-.846m43.992-.005c-4.431 1.075-7.847 4.869-9.988 11.097l-.573 1.667-.007-6.125-.007-6.125h-6.25c-5.228 0-6.25.038-6.25.232 0 .127.2.282.446.343 1.815.456 3.615 2.532 4.29 4.95.388 1.386.398 27.773.012 29.258-.515 1.984-1.467 3.155-3.249 3.998-1.869.884-1.856.885 8.501.885 8.918 0 10.387-.069 9.208-.434a4.058 4.058 0 0 1-.581-.244c-.159-.085-.382-.155-.496-.155-1.835 0-4.77-2.897-5.392-5.322-.389-1.52-.269-15.477.149-17.345.361-1.609.756-3.006.955-3.372.086-.16.157-.371.157-.469 0-.302.815-2.001 1.636-3.409 2.384-4.09 6.409-6.013 9.393-4.488 2.504 1.28 2.511 4.884.012 6.33-.857.496-.294 1.145 1.241 1.428 2.591.479 5.116-.835 6.32-3.29.796-1.622.632-5.559-.266-6.396-.049-.046-.265-.346-.48-.667-1.414-2.11-5.385-3.171-8.781-2.347m21.925.009c-5.227.936-9.032 3.705-10.254 7.461-.418 1.288-.287 4.161.239 5.25 2.028 4.189 9.182 4.102 10.083-.123l.107-.5-1.213-.002c-4.408-.005-4.916-6.663-.712-9.334 2.752-1.749 7.572-1.665 10.445.181 3.059 1.966 4.222 5.171 4.105 11.316l-.05 2.662-1.25.21c-1.663.279-3.208.558-7.584 1.369-.55.102-1.262.256-1.583.341-.321.086-1.258.317-2.083.513-9.288 2.205-13.087 6.19-12.257 12.856.099.795.295 1.732.437 2.083.391.971.766 1.765.925 1.961 6.206 7.671 19.994 5.016 23.263-4.479l.29-.844.194 2.084c.296 3.182.679 4.181 2.231 5.813 2.082 2.19 5.887 2.651 9.375 1.138.489-.213.625-.618.207-.618-.469 0-2.513-2.202-3.07-3.307-1.425-2.829-1.512-3.77-1.392-15.111.117-11.117.088-11.409-1.482-14.526-.601-1.193-1.973-2.786-3.003-3.484-.395-.268-.756-.526-.802-.573-1.866-1.905-10.311-3.207-15.166-2.337m83.916.01c-2.453.439-3.154.644-4.858 1.422-.289.132-.568.239-.619.239-.147 0-2.663 1.544-2.91 1.785-.121.118-.279.215-.35.215-.566 0-3.952 3.912-4.906 5.667-2.784 5.122-3.683 14.244-1.76 17.873.084.159.153.376.153.482 0 .294 1.207 3.054 1.363 3.117.076.031.137.148.137.261 0 .717 2.83 4.175 4.484 5.479.605.477 1.199.962 1.32 1.078.121.115.327.21.458.21s.238.059.238.132c0 .211 2.672 1.5 4 1.93 5.072 1.643 11.081 1.334 15.73-.807.976-.449 2.512-1.338 2.881-1.666.107-.095.444-.354.75-.577 2.589-1.882 5.512-6.163 6.439-9.429.604-2.129.728-2.794.903-4.834.681-7.93-2.445-15.541-7.871-19.165-.412-.275-.786-.543-.832-.597-.082-.095-.373-.25-2.166-1.152-3.481-1.75-8.44-2.406-12.584-1.663m47.917-.064c-.687.13-1.4.306-1.583.393-.184.086-.719.304-1.191.485-.893.342-2.349 1.183-3.05 1.761-1.323 1.09-3.343 3.447-3.343 3.899 0 .088-.057.185-.126.215-.193.085-1.496 2.826-1.848 3.889-.118.354-.17-1.044-.179-4.792l-.013-5.291H340c-6.566 0-6.954.052-5.454.738 2.208 1.01 3.506 2.691 4.014 5.198.41 2.019.412 26.425.003 28.464-.366 1.821-1.704 3.933-2.493 3.933-.115 0-.234.056-.264.125-.031.069-.412.299-.848.512-1.38.674-1.137.696 7.542.696 5.124 0 8.333-.06 8.333-.157 0-.087-.518-.43-1.151-.763-3.265-1.715-3.515-2.701-3.515-13.83 0-8.029.265-11.367 1.014-12.789.084-.159.155-.384.158-.5.003-.116.151-.511.328-.877.177-.367.324-.722.327-.789.008-.17 1.029-1.828 1.292-2.098.118-.121.214-.271.215-.334.003-.466 2.546-2.575 3.749-3.108 1.829-.811 1.962-.838 4.083-.838 4.08 0 6.34 1.641 7.804 5.667.735 2.02 1.086 21.286.453 24.882-.432 2.454-1.887 4.244-4.132 5.082-1.037.387.123.452 8.042.452 8.473 0 8.942-.037 7.708-.606a13.082 13.082 0 0 1-1.375-.782c-.652-.431-.957-.717-1.639-1.537-.08-.096-.321-.659-.537-1.25l-.391-1.075-.118-12c-.065-6.6-.189-12.337-.275-12.75-.377-1.812-.549-2.333-1.327-4-2.276-4.882-7.912-7.38-14.046-6.225M44.468 40.077c.695.253 1.417.655 1.801 1.004.103.093.365.323.584.51.218.188.585.588.814.89.229.301.491.635.583.742.238.277.834 1.565 1.13 2.444.511 1.519.631 2.123.784 3.958.669 8.029-2.643 13.606-8.081 13.606-3.842 0-6.175-2.218-7.692-7.314-.382-1.285-.441-7.169-.085-8.5 1.219-4.549 3.071-6.747 6.444-7.644.597-.159 2.982.036 3.718.304m38.851.014c2.05.428 3.714 1.473 4.934 3.1.447.596 1.253 2.529 1.554 3.726.61 2.423.71 3.142.811 5.791l.1 2.625H80.526c-9.654 0-10.193-.015-10.193-.296 0-8.806 6.508-16.297 12.986-14.946m82.443.499c2.289.924 3.318 1.816 4.372 3.793 1.117 2.091 2.02 6.798 2.031 10.575l.002.709h-20.422l.108-1.292c.615-7.32 4.554-13.01 9.73-14.054.97-.196 3.419-.038 4.179.269m150.155.052c1.358.496 1.916.756 1.916.895 0 .071.086.13.191.13.686 0 3.207 2.878 4.276 4.88 2.503 4.692 3.408 14.145 1.877 19.62-.7 2.505-.987 3.304-1.764 4.916-1.033 2.144-2.18 3.599-3.983 5.053-2.106 1.697-6.374 2.163-8.7.95-.264-.138-.574-.251-.688-.252-.115 0-.209-.076-.209-.167 0-.092-.098-.167-.218-.167-.469 0-2.457-1.861-3.294-3.083-.314-.459-.615-.871-.67-.917-.083-.07-.997-1.939-1.507-3.083-1.702-3.814-2.14-12.941-.865-17.996 1.051-4.164 3.149-7.763 5.448-9.343.262-.181.563-.403.669-.495 1.457-1.262 5.318-1.745 7.521-.941m-77.426 17.9c-.039 5.279-.367 8.611-.99 10.041l-.437 1c-3.297 7.532-13.845 8.159-15.491.92-1.467-6.448 2.595-10.479 12.427-12.33l2.233-.419c.723-.136 1.355-.286 1.402-.334.513-.513.865-.052.856 1.122M52.833 79.233c2.723.874 4.09 2.13 4.948 4.546.33.93.409 4.2.111 4.578-.099.124-.231.442-.294.706-.229.953-2.43 3.77-2.947 3.77-.07 0-.229.094-.354.209-.552.507-2.157 1.287-3.801 1.847-1.224.417-2.002.597-4.163.966-1.398.238-7.191.248-8.166.013-1.978-.475-2.29-.564-2.834-.803-1.161-.51-1.751-.817-1.805-.94-.031-.069-.148-.125-.26-.125-.112 0-.456-.206-.764-.458-2.455-2.006-3.419-3.926-3.412-6.792.009-4.173 2.382-6.803 6.991-7.752 1.411-.29 15.74-.089 16.75.235m20.429 8.806c-.956 4.235-3.553 8.287-6.929 10.812-.596.445-1.158.868-1.251.938-.146.111-1.161.676-1.915 1.066-.946.488-3.314 1.312-3.772 1.312-.132 0-.228.175-.228.416V103h7.816l.066 14.625c.064 14.201.076 14.66.413 15.848 1.502 5.303 5.168 7.823 10.875 7.476 5.459-.333 8.934-4.384 9.82-11.449.09-.72.212-1.502.272-1.738.097-.387.06-.429-.377-.429-.458 0-.495.055-.707 1.042-.253 1.181-.772 2.78-1.113 3.435-.127.242-.23.534-.231.648-.001.115-.058.209-.127.209s-.228.23-.353.512c-1.829 4.132-8.23 4.64-10.138.805-.973-1.956-.945-1.495-1.009-16.867l-.06-14.134 5.552.05 5.551.05 1 .49c.846.415 2.174 1.563 2.834 2.451.201.27.555 1.037.798 1.726.112.318.219 4.509.293 11.5.072 6.803.184 11.254.293 11.667.097.366.259 1.004.36 1.416.168.688.362 1.199.887 2.334 2.062 4.463 6.782 6.788 12.59 6.201 5.776-.583 10.204-4.277 12.327-10.285l.354-1 .007 5.292.007 5.292h9c4.95 0 9-.044 9-.097 0-.053-.297-.39-.659-.748-1.242-1.229-1.012-3.705.532-5.739.07-.091.739-.991 1.488-2 .749-1.008 1.405-1.871 1.458-1.916.054-.046.327-.384.609-.75l1.661-2.167c1.385-1.807 1.297-1.695 1.91-2.417.272-.32.497-.631.498-.69.001-.058.246-.378.544-.709l.542-.604.917 1.377c.504.757.954 1.451 1 1.543.045.092 1.227 1.875 2.625 3.963s2.541 3.869 2.541 3.958c0 .089.059.162.13.162.072 0 .217.207.322.459.105.252.341.72.524 1.041 1.308 2.294 1.338 4.123.078 4.884-.659.398.184.45 7.363.45 6.63 0 7.583-.032 7.583-.25a.25.25 0 0 0-.25-.25c-.137 0-.25-.058-.25-.129 0-.071-.281-.277-.625-.458-2.176-1.148-5.608-4.361-7.208-6.748a6.64 6.64 0 0 0-.418-.561c-.092-.103-.467-.638-.833-1.188-.366-.55-.708-1.037-.759-1.083-.052-.046-.386-.571-.744-1.167-.357-.596-.712-1.158-.787-1.25-.126-.152-1.969-2.974-3.974-6.083-.443-.687-.867-1.325-.942-1.417-.469-.573-1.212-1.981-1.09-2.065.081-.056.327-.364.547-.685.22-.32.444-.621.496-.666.052-.046.505-.609 1.006-1.25.501-.642.986-1.258 1.079-1.37.191-.228.174-.207 1.416-1.797.502-.642.953-1.204 1.003-1.25.05-.046.501-.608 1.002-1.25 2.585-3.309 5.039-5.653 7.706-7.36.802-.513 1.459-.999 1.459-1.078 0-.08-2.438-.145-5.417-.145-2.979 0-5.417.043-5.417.096 0 .053.297.39.659.749.933.924 1.102 2.464.415 3.781-.131.251-.239.512-.239.579-.004.435-3.24 4.946-6.298 8.78-.855 1.073-.888 1.104-.969.916-.089-.208-1.133-1.817-3.289-5.068-3.965-5.98-4.488-7.445-3.195-8.955.32-.375.583-.726.583-.78 0-.054-3.413-.098-7.583-.098-4.171 0-7.584.061-7.584.135 0 .166.926.865 1.146.865.088 0 .185.056.215.125.031.068.656.533 1.389 1.032 2.415 1.644 5.123 4.7 7.491 8.454a610.403 610.403 0 0 0 5.032 7.731c.4.6.727 1.15.727 1.221 0 .103-1.759 2.437-2.717 3.603-.269.328-3.579 4.551-4.116 5.252-1.028 1.341-2.076 2.672-2.165 2.748-.053.046-.394.459-.757.917-2.828 3.562-4.739 4.176-6.934 2.224-1.131-1.005-1.056.209-1.106-17.932l-.046-16.375h-6.163c-3.389 0-6.162.059-6.162.131 0 .072.43.354.956.625 1.222.63 2.749 2.112 3.173 3.077.806 1.838.787 1.579.787 11.083 0 9.236-.066 10.309-.739 12-.073.184-.307.784-.519 1.334-1.092 2.827-3.366 5.472-5.658 6.581-.413.199-.863.42-1 .49-3.008 1.539-7.707.241-9.612-2.655-1.878-2.854-1.888-2.952-1.888-19.041v-13.625H74.333v-14h-.381c-.34 0-.413.144-.69 1.372"/></svg>