<svg xmlns="http://www.w3.org/2000/svg" role="img" viewBox="-1.74 -1.74 90.35 21.35"><path fill="#536E7B" d="M7.45 12.18c.45 0 .85-.038 1.2-.115.348-.077.677-.18.987-.31V9.617H8.243c-.206 0-.367-.055-.483-.164a.548.548 0 0 1-.175-.416v-1.8h5.012v5.95a7.272 7.272 0 0 1-2.375 1.152c-.442.12-.913.212-1.413.27-.5.058-1.038.087-1.612.087-1.032 0-1.986-.182-2.863-.547a6.946 6.946 0 0 1-2.28-1.51 6.936 6.936 0 0 1-1.506-2.281C.182 9.477 0 8.52 0 7.49c0-1.053.174-2.02.522-2.9a6.55 6.55 0 0 1 1.495-2.278 6.816 6.816 0 0 1 2.35-1.49C5.288.468 6.316.29 7.45.29c.587 0 1.138.05 1.654.145.516.097.992.23 1.428.397.435.168.833.368 1.194.6.362.232.684.484.968.755l-.948 1.44c-.09.137-.2.243-.324.32a.767.767 0 0 1-.412.117c-.193 0-.393-.065-.6-.194a8.71 8.71 0 0 0-.73-.4 4.446 4.446 0 0 0-1.456-.432 7.442 7.442 0 0 0-.89-.048c-.613 0-1.164.108-1.655.324-.49.216-.908.52-1.254.914-.345.394-.61.866-.798 1.418a5.705 5.705 0 0 0-.28 1.843c0 .747.103 1.41.31 1.992.206.58.49 1.07.856 1.47.364.4.796.705 1.296.915.5.21 1.047.314 1.64.314zm11.436-7.826c.664 0 1.272.103 1.824.31.55.206 1.025.506 1.422.9.397.393.706.875.93 1.446.222.57.333 1.217.333 1.94 0 .225-.01.41-.03.55a.88.88 0 0 1-.106.34.405.405 0 0 1-.21.174.968.968 0 0 1-.332.048h-5.786c.096.84.35 1.447.764 1.824.413.377.945.566 1.596.566.35 0 .65-.042.9-.126.252-.084.476-.177.673-.28.196-.103.377-.197.542-.28a1.11 1.11 0 0 1 .517-.127c.24 0 .42.086.542.26l.87 1.075c-.31.354-.643.643-1 .865-.36.223-.726.397-1.104.523a5.837 5.837 0 0 1-1.132.26 8.21 8.21 0 0 1-1.078.074 5.645 5.645 0 0 1-1.98-.344 4.584 4.584 0 0 1-1.615-1.02 4.842 4.842 0 0 1-1.093-1.684c-.268-.672-.402-1.452-.402-2.342 0-.67.115-1.307.344-1.906.23-.6.558-1.126.987-1.577.43-.452.948-.81 1.557-1.074.61-.264 1.3-.396 2.066-.396zm.058 2.07c-.574 0-1.022.163-1.345.49-.323.325-.536.794-.64 1.407h3.745c0-.238-.03-.47-.092-.696a1.652 1.652 0 0 0-.3-.605 1.512 1.512 0 0 0-.546-.43c-.226-.11-.5-.166-.823-.166zm9.695 8.273c-.48 0-.9-.07-1.264-.208a2.57 2.57 0 0 1-.92-.59 2.548 2.548 0 0 1-.565-.925 3.61 3.61 0 0 1-.192-1.21V6.58h-.852a.569.569 0 0 1-.397-.15c-.11-.1-.165-.248-.165-.44V4.817l1.596-.31.592-2.447c.077-.31.296-.464.657-.464h1.567v2.932h2.438v2.05h-2.438v4.984c0 .232.056.424.17.576.112.15.275.227.488.227.11 0 .2-.01.276-.034a.902.902 0 0 0 .194-.076 2.82 2.82 0 0 1 .155-.078.396.396 0 0 1 .168-.034c.09 0 .163.02.218.063.055.042.11.108.17.2l.91 1.42a4.14 4.14 0 0 1-1.308.654 5.223 5.223 0 0 1-1.5.217zM34.58.445c.14 0 .26.007.357.02a.908.908 0 0 1 .262.072c.076.035.15.085.22.15.072.064.153.152.243.26l6.695 8.467c-.025-.27-.045-.534-.058-.788-.013-.255-.02-.496-.02-.72V.445h2.884V14.54H43.46c-.25 0-.463-.04-.637-.116-.174-.078-.342-.22-.503-.426L35.673 5.6c.02.245.035.485.048.72.014.236.02.457.02.664v7.556h-2.883V.445h1.722zm16 4.065v10.03h-3V4.51h3zm.35-2.75c0 .24-.05.464-.147.673a1.78 1.78 0 0 1-.396.552c-.17.158-.364.284-.587.377-.222.094-.46.14-.71.14-.246 0-.475-.046-.688-.14-.212-.093-.4-.22-.566-.377a1.741 1.741 0 0 1-.388-.552 1.638 1.638 0 0 1-.14-.672c0-.244.047-.473.14-.686a1.837 1.837 0 0 1 .952-.94c.213-.09.442-.134.687-.134a1.862 1.862 0 0 1 1.297.513c.166.16.3.348.395.56.097.214.146.443.146.688zM53 14.543V4.51h1.857c.186 0 .342.04.468.124.126.084.214.21.266.378l.174.58a7.61 7.61 0 0 1 .6-.503c.207-.156.427-.286.663-.393a4.058 4.058 0 0 1 1.66-.343c.548 0 1.034.095 1.456.285.423.19.78.454 1.07.793.29.338.51.74.657 1.21.15.467.223.975.223 1.523v6.376h-3V8.166c0-.49-.112-.872-.338-1.147-.226-.275-.558-.412-.997-.412-.328 0-.637.07-.927.213-.29.143-.568.333-.833.572v7.15h-3zM67.32 4.51v10.05c0 .472-.06.916-.18 1.332-.12.416-.317.78-.59 1.093-.275.313-.636.56-1.084.74-.45.18-1.005.27-1.67.27a4.957 4.957 0 0 1-1.334-.173l.096-1.577c.013-.136.058-.236.136-.3.077-.065.232-.097.464-.097s.423-.02.57-.058a.7.7 0 0 0 .354-.203.848.848 0 0 0 .184-.392c.035-.164.053-.376.053-.634V4.51h3zm.347-2.75c0 .24-.05.464-.146.673-.097.21-.23.394-.397.552a1.94 1.94 0 0 1-.585.377 1.81 1.81 0 0 1-.71.14c-.247 0-.476-.046-.688-.14a1.932 1.932 0 0 1-.566-.377 1.723 1.723 0 0 1-.387-.552 1.638 1.638 0 0 1-.14-.672c0-.244.047-.473.14-.686a1.83 1.83 0 0 1 .954-.94c.212-.09.44-.134.687-.134a1.835 1.835 0 0 1 1.694 1.073c.096.214.145.443.145.688zm8.958 12.782c-.284 0-.498-.04-.643-.116-.145-.078-.266-.24-.363-.484l-.213-.55c-.253.21-.494.398-.727.56a4.62 4.62 0 0 1-.72.41c-.25.114-.513.198-.794.252-.28.055-.593.083-.934.083-.458 0-.874-.06-1.25-.18a2.612 2.612 0 0 1-.952-.527 2.323 2.323 0 0 1-.604-.866 3.118 3.118 0 0 1-.213-1.194c0-.355.09-.72.27-1.094.18-.374.494-.714.94-1.02.444-.307 1.044-.563 1.8-.77.754-.206 1.705-.322 2.853-.348v-.426c0-.587-.12-1.01-.363-1.272-.242-.26-.585-.392-1.03-.392-.355 0-.645.04-.87.116a3.939 3.939 0 0 0-.606.262c-.176.096-.35.183-.516.26a1.415 1.415 0 0 1-.6.117.904.904 0 0 1-.527-.15c-.146-.1-.26-.224-.344-.373l-.542-.938a6.116 6.116 0 0 1 2.02-1.195 7.093 7.093 0 0 1 2.374-.392c.606 0 1.153.1 1.64.295.487.197.9.47 1.238.823.34.35.598.77.78 1.253.18.483.27 1.012.27 1.586v6.27h-1.374zm-3.444-1.83c.387 0 .725-.066 1.016-.202.29-.135.583-.355.88-.658V10.46a9.78 9.78 0 0 0-1.48.154c-.387.077-.694.174-.92.29-.225.116-.382.248-.47.397a.954.954 0 0 0-.13.484c0 .342.094.583.28.72.188.14.463.21.824.21zm13.08-6.007a.757.757 0 0 1-.246.26.633.633 0 0 1-.334.08c-.142 0-.284-.032-.426-.093-.14-.062-.295-.128-.46-.2a5.202 5.202 0 0 0-.555-.197 2.535 2.535 0 0 0-.707-.092c-.38 0-.672.073-.875.218a.703.703 0 0 0-.304.605c0 .188.066.342.198.465.132.122.308.23.528.324.22.094.467.182.745.266.277.084.56.177.85.28.29.104.575.225.852.363.277.14.525.31.744.513.22.203.395.45.528.74.132.29.198.64.198 1.045 0 .498-.09.956-.27 1.375-.182.42-.45.78-.81 1.084-.357.302-.8.537-1.324.705-.526.168-1.13.252-1.814.252-.342 0-.684-.033-1.026-.097a7.44 7.44 0 0 1-.992-.26 5.457 5.457 0 0 1-.885-.393 3.814 3.814 0 0 1-.698-.49l.697-1.102a.968.968 0 0 1 .3-.304.83.83 0 0 1 .454-.11c.174 0 .33.038.47.115l.45.252c.16.09.35.174.565.25.215.08.487.118.816.118.233 0 .43-.025.59-.073a1.04 1.04 0 0 0 .388-.198.78.78 0 0 0 .28-.6c0-.2-.068-.365-.203-.494a1.726 1.726 0 0 0-.53-.333 6.75 6.75 0 0 0-.75-.262 13.88 13.88 0 0 1-.857-.275 7.078 7.078 0 0 1-.857-.373c-.28-.145-.53-.33-.75-.55a2.534 2.534 0 0 1-.53-.82c-.137-.32-.205-.712-.205-1.17 0-.425.084-.83.248-1.214.165-.384.41-.72.74-1.01.33-.29.742-.522 1.24-.693.495-.17 1.076-.256 1.74-.256a5.58 5.58 0 0 1 2.003.369c.298.116.57.253.814.41a4 4 0 0 1 .648.518l-.677 1.055z"/></svg>