<svg xmlns="http://www.w3.org/2000/svg" role="img" viewBox="-3.34 -2.96 167.05 46.05"><style>svg {enable-background:new 0 0 161 40}</style><style>.st3{fill:#e61f62}</style><g id="Page-1"><g id="Desktop"><g id="Group" transform="translate(201 144)"><linearGradient id="gradient-fill" x1="0%" x2="140%" y1="0%" y2="0%" gradientTransform="rotate(45)"><stop offset="0" stop-color="#ce1198"/><stop offset=".5" stop-color="#ea1f55"/><stop offset="1" stop-color="#f9420d"/></linearGradient><path id="Fill-20" fill="url(#gradient-fill)" d="M-193.3-133.1s-.6 1.6-.7 2.9c0 .8.1 1.8.2 2.6.1.9.2 1.2.1 1.5-.3.9-.3 1.8-.3 2.8v.2c0 9.6 7.8 17.4 17.4 17.4s17.4-7.8 17.4-17.4c0-.9-.1-1.9-.2-2.9-.1-.6 0-1.2.1-1.8.1-.6.2-1.2.1-2-.2-1.3-.9-3.6-.9-3.7v-.3c.1-3.5.1-6.6.1-8.2-3.6 1-5.8 2.9-6.6 3.8-.3.3-.7.3-1.1.1-2.7-1.6-5.8-2.5-8.9-2.5-3.2 0-6.3.9-9 2.5-.3.2-.8.1-1.1-.1-.8-.9-3-2.9-6.7-3.8 0 1.6 0 4.9.1 8.5.1.2.1.3 0 .4m16.7 29.1c-10.5 0-19.1-8.5-19.1-19.1v-.2c0-1.1 0-2.2.3-3.3 0-.2-.1-.5-.1-.8-.1-.8-.3-2-.2-2.9.1-1.3.5-2.7.7-3.2-.2-4.9-.1-9.4-.1-9.4 0-.2.1-.5.3-.6.2-.2.4-.2.7-.2 4.2.8 6.8 2.9 8.1 4.1 2.8-1.6 6.1-2.4 9.3-2.4 3.2 0 6.4.8 9.2 2.4 1.3-1.2 3.9-3.2 8-4 .2 0 .5 0 .7.2.2.2.3.4.3.6 0 0 .1 4.3-.1 9.2.2.5.7 2.5.9 3.8.1 1.1 0 1.9-.1 2.5-.1.5-.2.9-.1 1.2.1 1.1.3 2.1.3 3.1.1 10.5-8.5 19-19 19"/><path id="Fill-21" fill="url(#gradient-fill)" d="M-176.2-118.5c-.2 0-.4-.1-.5-.3l-2.3-3.9c-.2-.3-.1-.7.2-.8.3-.2.7-.1.8.2l1.7 3 1.7-3c.2-.3.5-.4.8-.2.3.2.4.5.2.8l-2.3 3.9c.1.1-.1.3-.3.3"/><path id="Fill-22" fill="url(#gradient-fill)" d="M-185.7-137.7c-4.6 0-8.3 3.7-8.3 8.3 0 4.6 3.7 8.3 8.3 8.3 4.6 0 8.3-3.7 8.3-8.3 0-4.6-3.7-8.3-8.3-8.3m0 18.2c-5.5 0-10-4.5-10-10s4.5-10 10-10 10 4.5 10 10c0 5.6-4.5 10-10 10"/><path id="Fill-23" d="M-185.7-133.2c-.6 0-1.2.2-1.7.4.4.2.7.7.7 1.2 0 .7-.6 1.3-1.3 1.3-.5 0-.9-.2-1.1-.6-.2.4-.3.9-.3 1.4 0 2.1 1.7 3.7 3.7 3.7 2.1 0 3.7-1.7 3.7-3.7.1-2-1.6-3.7-3.7-3.7" class="st3"/><path id="Fill-24" fill="url(#gradient-fill)" d="M-167.4-137.7c-4.6 0-8.3 3.7-8.3 8.3 0 4.6 3.7 8.3 8.3 8.3s8.3-3.7 8.3-8.3c-.1-4.6-3.8-8.3-8.3-8.3m0 18.2c-5.5 0-10-4.5-10-10s4.5-10 10-10 10 4.5 10 10c-.1 5.6-4.5 10-10 10"/><path id="Fill-25" fill="url(#gradient-fill)" d="M-166.4-116.4c-.2 0-.4-.1-.5-.3-.2-.3-.1-.7.2-.8.2-.1 5.1-3.4 13-2.1.3.1.6.4.5.7-.1.3-.4.6-.7.5-7.5-1.2-12.1 1.9-12.1 1.9-.1.1-.2.1-.4.1"/><path id="Fill-26" fill="url(#gradient-fill)" d="M-152.9-114.3h-.2c-3.6-1.5-6.7-1.7-8.7-1.5-2.2.1-3.5.7-3.5.7-.3.1-.7 0-.8-.3-.1-.3 0-.7.3-.8.2-.1 5.7-2.2 13.1.9.3.1.5.5.3.8-.1.1-.3.2-.5.2"/><path id="Fill-27" fill="url(#gradient-fill)" d="M-187-116.4c-.1 0-.2 0-.3-.1 0 0-4.7-3.2-12.1-1.9-.3.1-.6-.2-.7-.5-.1-.3.2-.6.5-.7 7.9-1.3 12.8 2 13 2.1.3.2.3.6.2.8-.2.3-.4.3-.6.3"/><path id="Fill-28" fill="url(#gradient-fill)" d="M-200.4-114.3c-.2 0-.5-.1-.6-.4-.1-.3 0-.7.3-.8 7.4-3.1 12.9-1 13.1-.9.3.1.5.5.3.8-.1.3-.5.5-.8.3-.1 0-5.3-2-12.2.9.1.1 0 .1-.1.1"/><path id="Fill-29" fill="url(#gradient-fill)" d="M-182.6-105.3c-.3 0-.5-.2-.6-.5-1.9-7.5-9.2-7.8-9.3-7.8-.3 0-.6-.3-.6-.6s.3-.6.6-.6c.1 0 8.3.3 10.5 8.8.1.3-.1.6-.4.7h-.2"/><path id="Fill-30" fill="url(#gradient-fill)" d="M-170.8-105.3h-.1c-.3-.1-.5-.4-.4-.7 2.1-8.4 10.4-8.7 10.5-8.8.3 0 .6.3.6.6s-.3.6-.6.6-7.4.3-9.3 7.8c-.2.4-.4.5-.7.5"/><path id="Fill-31" d="M-164-130.8c-.2.4-.6.6-1.1.6-.7 0-1.3-.6-1.3-1.3 0-.5.3-.9.7-1.2-.5-.3-1.1-.4-1.7-.4-2.1 0-3.7 1.7-3.7 3.7 0 2.1 1.7 3.7 3.7 3.7 2.1 0 3.7-1.7 3.7-3.7-.1-.5-.2-1-.3-1.4" class="st3"/><g fill="url(#gradient-fill)"><path id="Fill-32" d="M-127-114.6c-1.5.8-3.1 1.3-4.7 1.7-1.6.3-3.3.5-5 .5-1.8 0-3.5-.3-5-.8-1.5-.6-2.8-1.4-3.9-2.4-1.1-1.1-2-2.3-2.6-3.8-.6-1.5-.9-3.2-.9-5 0-1.8.3-3.5.9-5 .6-1.5 1.5-2.8 2.6-3.8 1.1-1.1 2.4-1.9 3.9-2.4 1.5-.6 3.2-.8 5-.8 1.8 0 3.5.2 5.1.7 1.6.4 2.9 1.2 4.1 2.3l-3.6 3.9c-.7-.7-1.5-1.3-2.3-1.6-.9-.4-2-.6-3.3-.6-1.1 0-2.1.2-2.9.6-.9.4-1.6.9-2.3 1.5-.6.7-1.1 1.4-1.4 2.4-.3.9-.5 1.9-.5 3s.2 2.1.5 3c.3.9.8 1.7 1.4 2.3.6.7 1.4 1.2 2.3 1.5.9.4 1.9.6 2.9.6 1.1 0 2.1-.1 2.9-.4.8-.2 1.4-.5 1.9-.8v-3.7h-4.1v-4.7h9v11.8z"/><path id="Fill-33" d="M-119-120.8c0 1.2.3 2.2 1 2.9.7.7 1.6 1.1 2.9 1.1s2.2-.4 2.9-1.1c.7-.7 1-1.7 1-2.9s-.3-2.2-1-2.9c-.7-.7-1.6-1.1-2.9-1.1s-2.2.4-2.9 1.1c-.7.7-1 1.7-1 2.9m-4.9 0c0-1.3.2-2.4.7-3.4.5-1 1.1-1.9 1.9-2.6.8-.7 1.7-1.3 2.8-1.7 1.1-.4 2.2-.6 3.4-.6s2.4.2 3.4.6c1.1.4 2 .9 2.8 1.7.8.7 1.4 1.6 1.9 2.6s.7 2.2.7 3.4-.2 2.4-.7 3.4c-.5 1-1.1 1.9-1.9 2.6-.8.7-1.7 1.3-2.8 1.7-1.1.4-2.2.6-3.4.6s-2.4-.2-3.4-.6c-1.1-.4-2-.9-2.8-1.7-.8-.7-1.4-1.6-1.9-2.6s-.7-2.2-.7-3.4"/><path id="Fill-34" d="M-94.8-119.9h-1.4c-.6 0-1.1.1-1.6.3-.5.2-.9.4-1.3.7-.4.3-.5.7-.5 1.3 0 .6.2 1 .7 1.3.5.3 1 .4 1.6.4.5 0 .9-.1 1.4-.2.4-.1.8-.3 1.2-.6.3-.2.6-.5.8-.9.2-.4.3-.8.3-1.3v-1h-1.2zm1.2 5c-.6.8-1.3 1.4-2.2 1.8-.9.4-1.8.6-2.8.6-.7 0-1.4-.1-2.1-.3-.7-.2-1.3-.5-1.8-.9s-.9-.9-1.2-1.5c-.3-.6-.5-1.3-.5-2.1 0-.9.2-1.7.5-2.3.3-.6.8-1.1 1.4-1.6.6-.4 1.2-.7 2-1 .7-.2 1.5-.4 2.3-.5.8-.1 1.6-.2 2.4-.2h2.2c0-.9-.3-1.6-.9-2.1-.6-.5-1.3-.8-2.2-.8-.8 0-1.5.2-2.2.5-.7.3-1.2.8-1.8 1.4l-2.6-2.7c.9-.8 2-1.5 3.2-1.9 1.2-.4 2.5-.6 3.8-.6 1.4 0 2.6.2 3.5.5.9.4 1.7.9 2.2 1.6.6.7.9 1.5 1.2 2.5.2 1 .3 2.2.3 3.5v8h-4.5v-1.9z"/><path id="Fill-35" d="M-85.9-112.9h4.8v-24.6h-4.8z"/><path id="Fill-36" d="M-77.4-112.9h4.8v-15.9h-4.8v15.9zm-.4-20.9c0-.8.3-1.5.8-2 .5-.6 1.2-.8 2-.8s1.4.3 2 .8c.5.6.8 1.2.8 2s-.3 1.5-.8 2c-.5.6-1.2.8-2 .8s-1.4-.3-2-.8c-.5-.5-.8-1.2-.8-2z"/><path id="Fill-37" d="M-67.4-124.9h-3.2v-3.9h3.2v-2.8c0-.9.1-1.7.2-2.5.2-.8.4-1.5.9-2 .4-.6 1.1-1.1 1.9-1.4.8-.3 1.9-.5 3.2-.5.5 0 1 0 1.5.1.5 0 .9.1 1.4.2l-.2 4.1c-.3-.1-.5-.2-.8-.2-.2-.1-.5-.1-.8-.1-.8 0-1.4.2-1.7.5-.4.3-.6 1-.6 2.1v2.5h3.6v3.9h-3.6v12h-4.9v-12z"/><path id="Fill-38" d="M-47.8-110.3c-.3.8-.6 1.6-.9 2.3-.3.7-.7 1.2-1.2 1.6-.5.4-1.1.8-1.8 1-.7.2-1.7.3-2.8.3-1.3 0-2.5-.2-3.7-.6l.7-4c.7.3 1.5.5 2.3.5.5 0 1-.1 1.3-.2.3-.1.6-.3.9-.5.2-.2.4-.5.6-.8.2-.3.3-.7.5-1.1l.4-.9-6.9-16h5.3l4.1 10.5h.1l3.5-10.5h5l-7.4 18.4z"/></g></g></g></g></svg>