<svg xmlns="http://www.w3.org/2000/svg" role="img" viewBox="-1.28 -1.28 66.43 66.43"><title>Goldman Sachs (member) logo</title><g fill="none" fill-rule="evenodd"><path fill="#7399C6" d="M0 64h64V0H0z"/><path d="M56.841 14.684H54.59V6.403h2.12v.927c.264-.557.926-1.05 1.787-1.113 1.458-.062 2.45.742 2.45 2.472v5.995H58.63V8.442c0-.741 0-1.36-.53-1.483-.199-.062-.53 0-.795.185-.331.31-.464.68-.464 1.298v6.242zm-39.143-4.141c0 1.545 0 2.781-.265 3.4-.199.308-.398.494-.862.494-.397 0-.662-.186-.794-.495-.331-.618-.331-1.854-.331-3.399 0-1.483 0-2.78.33-3.399.133-.309.398-.494.795-.494.464 0 .663.185.862.494.331.618.265 1.916.265 3.4m.86-3.585c-.53-.433-1.192-.742-1.987-.742-.794 0-1.39.31-1.986.742-.928.742-1.524 2.101-1.524 3.584 0 1.545.596 2.843 1.524 3.585.596.432 1.192.741 1.986.741.795 0 1.458-.309 1.988-.741.993-.742 1.523-2.04 1.523-3.585 0-1.483-.53-2.842-1.523-3.584m23.115 10.877v2.224h-.463c-.265-.927-.663-1.73-1.723-1.792-.662-.061-1.258.31-1.324.865-.066.557.132 1.05 1.324 1.67 1.524.802 2.716 1.173 2.716 2.842 0 1.792-1.656 2.658-3.047 2.658h-2.65v-3.09h.464c.332 1.606.861 2.595 2.12 2.657.795 0 1.39-.433 1.39-1.236 0-.804-.529-1.298-1.787-1.978-1.391-.803-2.252-1.298-2.252-2.41 0-1.483 1.126-2.41 2.914-2.41h2.318zm2.914-3.152V8.689c0-1.73-.993-2.534-2.45-2.472-.994.062-1.59.68-1.855 1.174-.331-.865-1.06-1.236-2.12-1.174-.86.062-1.523.556-1.788 1.113v-.927h-2.053v8.28h2.252v-6.24c0-.618.066-.989.464-1.298.265-.185.53-.247.728-.185.53.123.53.742.53 1.483v6.242h2.252V8.38c0-.557.132-.928.464-1.237.265-.185.53-.247.728-.185.53.123.596.742.596 1.483v6.242h2.252zm-22.983 0h2.318V4.672h-2.318zm7.815-7.601c.464.618.464 2.1.464 3.275 0 1.236.067 2.843-.463 3.522-.199.248-.398.371-.729.371-.463 0-.728-.494-.86-1.298-.067-.741-.067-1.668-.067-2.657 0-1.668.132-3.523.994-3.523.33 0 .463.124.662.31zm2.717 7.601V4.672h-2.319v2.349c-.198-.433-.662-.742-1.324-.742-1.656 0-2.98 1.607-3.047 4.079-.066 1.669.53 4.45 2.848 4.45.927 0 1.457-.495 1.656-.928v.804h2.186zM50.152 9.74l-.729.432c-.728.433-.86.99-.927 1.607-.066.495-.066.927 0 1.669.066.68.53.803.927.68.464-.186.729-.989.729-1.854V9.74zm1.324-3.09c.597.31.994.803.994 1.916v6.118h-2.186v-.927c-.264.68-.993 1.112-1.987 1.112-.794 0-2.185-.37-2.185-2.286 0-1.793 1.258-2.163 2.65-2.72 1.258-.494 1.39-.556 1.39-1.05v-1.36c0-.556-.331-.803-.994-.803-.264.062-.728.185-.728.494-.067.371.397.371.464.927.066.866-.663 1.174-1.325 1.113-.464 0-.994-.247-1.06-.927-.066-1.113 1.258-2.04 3.113-2.04.861 0 1.391.186 1.854.433zm-34.11 14.646l-.728.433c-.729.433-.861.989-.928 1.607-.065.494-.065.989 0 1.668 0 .742.464.866.861.68.53-.185.795-.926.795-1.854v-2.534zm1.325-3.09c.596.371.927.804.927 1.916v6.18H17.5v-.927c-.265.618-.993 1.05-1.987 1.05-.861 0-2.186-.308-2.186-2.224 0-1.792 1.259-2.163 2.583-2.72 1.325-.555 1.457-.617 1.457-1.05v-1.36c0-.617-.331-.864-.993-.803-.265 0-.728.124-.728.433-.067.433.397.433.463.989.066.803-.662 1.112-1.325 1.112-.463-.062-.993-.309-1.06-.989-.066-1.05 1.259-1.978 3.113-1.978.862 0 1.391.124 1.855.372zm16.029 2.102c0-1.73-.994-2.596-2.451-2.472-.728.061-1.325.37-1.656.803v-2.41H28.36v5.686c0 2.1-1.59 4.078-3.18 4.016-1.125 0-1.39-.803-1.523-1.668-.198-1.236-.198-2.657-.066-4.203.133-.988.398-1.792 1.193-1.792.596 0 .662.371.397.618-.265.31-.662.618-.464 1.298.199.742 1.457.865 2.054.31.463-.495.397-1.299.066-1.793-.398-.618-1.06-.865-2.053-.865-1.259 0-3.643 1.05-3.643 4.387 0 3.585 2.45 4.203 3.841 4.203 1.59 0 2.98-1.298 3.378-2.349v2.225h2.252V20.06c0-.617.132-.988.464-1.298.265-.185.596-.247.795-.185.53.124.53.742.53 1.483v6.242h2.318v-5.994zM11.538 4.487V8.01h-.464c-.397-1.73-1.258-3.029-2.45-3.09-.795-.062-1.259.37-1.656.988-.397.742-.596 2.287-.596 4.14 0 1.731.066 3.029.265 3.956.132.433.463 1.112 1.324 1.112.464 0 .795-.123.994-.37.33-.371.397-1.113.397-1.607V11.47c0-.618-.198-.988-.53-1.174-.264-.124-.662-.124-.86-.186v-.432h3.708v8.838h-.463c-.199-.68-.331-1.175-.663-1.731-.33-.556-.927-1.174-1.92-1.174-1.06-.062-1.855.556-1.855 1.483 0 1.236.795 1.545 2.252 2.287 1.391.741 3.18 1.36 3.18 3.522 0 2.101-1.922 3.4-4.107 3.4h-3.51v-4.265h.463c.596 3.214 2.053 3.77 3.047 3.77 1.258 0 1.854-.742 1.854-1.792-.066-1.36-1.06-1.854-2.45-2.534-1.987-1.05-2.914-1.545-2.914-3.275.066-1.484 1.324-2.41 2.715-2.781-2.914-.31-3.775-2.781-3.709-5.439 0-2.657 1.656-5.5 4.901-5.5h3.047z" fill="#FFF"/></g></svg>