<svg xmlns="http://www.w3.org/2000/svg" role="img" viewBox="-20.62 -20.62 1072.24 275.24"><title>GraphCMS (adopter) logo</title><defs><clipPath id="a"><path d="M0 0h1031.41v234.68H0z"/></clipPath></defs><g clip-path="url(#a)" data-name="Logo Black"><path fill-rule="evenodd" d="M109.274 31.29l-27.32 15.645-27.316 15.644-27.32 15.646V172.1l27.32-15.646L81.954 140.8v-31.285L54.638 125.16V93.871l27.316-15.646 27.32-15.646v93.871l-27.32 15.65-27.316 15.64-27.32 15.646L0 219.029l27.318 15.646 27.32-15.646 27.316-15.644 27.32-15.645 27.32-15.64V15.646L109.274 0z"/><path d="M275.693 65.429h23.61v94.044q0 22.918-14.333 34.971a51.927 51.927 0 0 1-34.565 12.051 55.842 55.842 0 0 1-26.649-6.127 41.631 41.631 0 0 1-17.671-17.988l20.53-12.5q7.117 13.887 24.539 13.888 11.424 0 17.983-6.336t6.556-18.023v-10.7q-10.678 15.015-29.972 15.015a42.977 42.977 0 0 1-33.173-14.721 51.452 51.452 0 0 1-13.362-35.862 51.284 51.284 0 0 1 13.456-35.742 42.958 42.958 0 0 1 33.08-14.81q19.294 0 29.972 15.022zm-45.05 67.182a27.088 27.088 0 0 0 37.651 0 26.787 26.787 0 0 0 7.4-19.47 26.535 26.535 0 0 0-7.4-19.273 27.088 27.088 0 0 0-37.651 0 26.524 26.524 0 0 0-7.4 19.273 26.776 26.776 0 0 0 7.4 19.47z"/><path fill-rule="evenodd" d="M339.335 80.824a25.571 25.571 0 0 1 11.274-13.681 34.308 34.308 0 0 1 17.532-4.563v27.326a28.733 28.733 0 0 0-19.993 4.574q-8.81 5.9-8.811 19.605v45.495h-24.389V64.556h24.387z" data-name="Path"/><path d="M450.433 65.304h24.093v94.676h-24.093v-11.129q-10.87 13.857-30.555 13.856a42.151 42.151 0 0 1-32.088-14.494 50.5 50.5 0 0 1-13.377-35.569 50.518 50.518 0 0 1 13.377-35.569 42.158 42.158 0 0 1 32.088-14.495q19.685 0 30.555 13.856zm-44.613 66.612a24.8 24.8 0 0 0 18.558 7.5 25.125 25.125 0 0 0 18.652-7.5 26.275 26.275 0 0 0 7.4-19.272 26.271 26.271 0 0 0-7.4-19.27 25.125 25.125 0 0 0-18.652-7.5 24.807 24.807 0 0 0-18.558 7.5 26.45 26.45 0 0 0-7.312 19.27 26.455 26.455 0 0 0 7.312 19.272z" data-name="Shape"/><path d="M544.632 62.58a42.031 42.031 0 0 1 32.276 14.757 51.975 51.975 0 0 1 13.376 36.216 51.961 51.961 0 0 1-13.376 36.216 42.026 42.026 0 0 1-32.276 14.757q-19.68 0-30.367-14.074v49.8h-24.093V65.354h24.093V76.69q10.683-14.11 30.367-14.11zm-23.06 70.6a24.583 24.583 0 0 0 18.561 7.635 24.881 24.881 0 0 0 18.652-7.635 27.016 27.016 0 0 0 7.407-19.623 27.009 27.009 0 0 0-7.407-19.62 24.883 24.883 0 0 0-18.649-7.637 24.581 24.581 0 0 0-18.564 7.635 27.218 27.218 0 0 0-7.309 19.62 27.224 27.224 0 0 0 7.309 19.625z" data-name="Shape"/><path fill-rule="evenodd" d="M659.983 61.494a34.906 34.906 0 0 1 26.312 10.832q10.391 10.83 10.391 29.93v60.452H671.67v-57.343q0-9.85-5.257-15.073a19.032 19.032 0 0 0-14.027-5.223 20.564 20.564 0 0 0-15.582 6.11q-5.843 6.108-5.842 18.324v53.205h-25.017V25.032h25.016v50.214q9.153-13.751 29.022-13.752z" data-name="Path"/><path fill-rule="evenodd" d="M761.619 162.695a52.41 52.41 0 0 1-37.332-14.307 48.132 48.132 0 0 1-15.075-35.751c.134-17.957 10.213-34.49 26.462-43.4a54.5 54.5 0 0 1 52.417.127 40.845 40.845 0 0 1 17.111 18.233l-10.745 5.926a30.166 30.166 0 0 0-12.835-13.666 39.58 39.58 0 0 0-20-5.067 38.509 38.509 0 0 0-27.864 10.99 35.959 35.959 0 0 0-11.343 26.855 35.964 35.964 0 0 0 11.343 26.858 39.593 39.593 0 0 0 32.779 10.973 38.669 38.669 0 0 0 28.715-18.713l10.95 6.116a44.99 44.99 0 0 1-18.111 18.142 53.294 53.294 0 0 1-26.472 6.684z" data-name="Path"/><path fill-rule="evenodd" d="M917.488 62.609a34.368 34.368 0 0 1 25.924 10.228q9.852 10.225 9.853 27.651v59.092h-12.683v-59.106q0-12.311-6.4-19.038a22.235 22.235 0 0 0-16.89-6.725 25.049 25.049 0 0 0-19.181 7.862q-7.35 7.864-7.347 24.531v52.476h-12.676v-59.106q0-12.5-6.011-19.132a20.935 20.935 0 0 0-16.318-6.63 26.6 26.6 0 0 0-19.471 7.956q-8.016 7.956-8.017 24.436v52.476h-12.683v-94.7h12.682v13.809a32.765 32.765 0 0 1 29.2-16.081q20.651 0 29.065 17.218 10.319-17.217 30.953-17.217z" data-name="Path"/><path fill-rule="evenodd" d="M972.948 89.657a11.485 11.485 0 0 0 6.061 10.171 55.461 55.461 0 0 0 14.7 6.127q8.622 2.356 17.253 4.707a31.346 31.346 0 0 1 14.572 8.5 22.1 22.1 0 0 1 5.929 16.079 23.761 23.761 0 0 1-10.17 19.839q-10.147 7.626-26.215 7.605a46.768 46.768 0 0 1-24.563-6.136 33.149 33.149 0 0 1-14.122-15.854l11.249-6.295a22.647 22.647 0 0 0 10.113 11.764 33.631 33.631 0 0 0 17.338 4.316 33.1 33.1 0 0 0 16.424-3.7 12.344 12.344 0 0 0 6.624-11.535 11.7 11.7 0 0 0-5.985-10.305 53.188 53.188 0 0 0-14.622-6.177l-17.256-4.709a32.259 32.259 0 0 1-14.645-8.384 21.346 21.346 0 0 1-6-15.8 24.046 24.046 0 0 1 9.76-19.464 38.051 38.051 0 0 1 24.613-7.8 42.715 42.715 0 0 1 21.472 5.274 32.844 32.844 0 0 1 13.63 14.233l-11.105 6.1q-5.787-13.38-24.012-13.4a27.506 27.506 0 0 0-14.822 3.842 12.251 12.251 0 0 0-6.221 11.002z" data-name="Path"/></g></svg>