<svg xmlns="http://www.w3.org/2000/svg" role="img" viewBox="7.16 -2.09 277.94 94.69"><defs><style>.cls-2{fill:#e10098}</style></defs><path fill="none" d="M49.856 18.4l-.002-.004a7.442 7.442 0 0 1-2.07-.298L25.22 57.18a7.31 7.31 0 0 1 2.1 3.634h45.085a7.383 7.383 0 0 1 2.095-3.633L51.943 18.1a7.476 7.476 0 0 1-2.087.3zm99.989 32.261a3.677 3.677 0 0 0 .504 1.963 4.93 4.93 0 0 0 1.37 1.369 6.058 6.058 0 0 0 1.873.816 8.612 8.612 0 0 0 2.102.257l-.012-.021a8.394 8.394 0 0 0 2.92-.505 6.961 6.961 0 0 0 2.465-1.597 7.382 7.382 0 0 0 1.64-2.647 10.687 10.687 0 0 0 .596-3.74v-1.549l-5.885.817q-7.573 1.025-7.573 4.837zM73.218 31.878a7.458 7.458 0 0 1-.707-5.775l-17.286-9.98c-.03.03-.055.062-.084.092-.039.038-.081.07-.12.108l22.566 39.084a7.64 7.64 0 0 1 .304-.08l-.01-19.941a7.453 7.453 0 0 1-4.663-3.508zm115.829 6.416a5.69 5.69 0 0 0-2.19-1.874 6.827 6.827 0 0 0-3.332-.73 7 7 0 0 0-3.331.73 7.244 7.244 0 0 0-2.306 1.917 8.539 8.539 0 0 0-1.321 2.553 12.49 12.49 0 0 0-.48 2.83v.007q-.049.684-.049 1.777t.048 1.778a10.828 10.828 0 0 0 .48 2.786 8.171 8.171 0 0 0 1.37 2.464 7.468 7.468 0 0 0 2.306 1.826 7.272 7.272 0 0 0 3.283.685 7.195 7.195 0 0 0 3.332-.685 5.883 5.883 0 0 0 2.19-1.826 7.536 7.536 0 0 0 1.23-2.69 16.212 16.212 0 0 0 .505-3.194q.048-1.28 0-2.556a15.096 15.096 0 0 0-.505-3.151 6.993 6.993 0 0 0-1.23-2.647zM27.308 64.37c-.024.096-.05.191-.077.287l17.258 9.962a7.443 7.443 0 0 1 10.874.152l17.186-9.93a7.477 7.477 0 0 1-.136-.472zm230.619-31.76a8.362 8.362 0 0 0-1.917-3.152 7.252 7.252 0 0 0-2.875-1.777 10.458 10.458 0 0 0-3.552-.592 10.62 10.62 0 0 0-3.553.592 7.26 7.26 0 0 0-2.875 1.777 8.83 8.83 0 0 0-1.962 3.152 15.17 15.17 0 0 0-.776 4.563l-.091 1.917v3.42q.048.865.09 1.874a15.362 15.362 0 0 0 .777 4.612 8.908 8.908 0 0 0 1.916 3.074 7.745 7.745 0 0 0 2.875 1.826 12.145 12.145 0 0 0 7.197 0 7.35 7.35 0 0 0 2.83-1.826 8.44 8.44 0 0 0 1.916-3.074 14.279 14.279 0 0 0 .817-4.612q.048-1.004.048-1.873v-3.42q0-.866-.048-1.918a14.31 14.31 0 0 0-.817-4.563zM44.707 16.326c-.067-.064-.135-.127-.2-.194l-17.294 9.966a7.467 7.467 0 0 1-.701 5.782v-.002a7.457 7.457 0 0 1-4.677 3.511v19.942q.153.037.304.08z"/><path d="M44.707 16.326L22.139 55.412a7.471 7.471 0 0 1 3.08 1.768l22.565-39.082a7.455 7.455 0 0 1-3.077-1.772zm91.44 20.32v-.004l-.003.004h.003zM125.809 40.3h-9.735a.897.897 0 0 0-1.004 1.025v.641a.897.897 0 0 0 1.004 1.026h7.974v2.33a11.513 11.513 0 0 1-.73 4.29 8.188 8.188 0 0 1-2.013 3.014 8.309 8.309 0 0 1-2.966 1.73 12.36 12.36 0 0 1-3.74.545 13.05 13.05 0 0 1-3.74-.505 7.816 7.816 0 0 1-2.875-1.69 8.83 8.83 0 0 1-1.917-3.013 13.684 13.684 0 0 1-.776-4.354q-.144-4.132 0-8.215a13.854 13.854 0 0 1 .776-4.355 8.339 8.339 0 0 1 1.917-2.966 7.107 7.107 0 0 1 2.875-1.691 12.14 12.14 0 0 1 3.74-.545l-.101.048a11.336 11.336 0 0 1 3.586.504 9.167 9.167 0 0 1 2.601 1.321 6.647 6.647 0 0 1 1.73 1.826 9.92 9.92 0 0 1 1.025 2.048 3.43 3.43 0 0 0 .36.73.827.827 0 0 0 .594.18h1.004a1.024 1.024 0 0 0 .73-.256.756.756 0 0 0 .257-.685 6.783 6.783 0 0 0-.73-2.419 9.209 9.209 0 0 0-2.102-2.786 12.308 12.308 0 0 0-3.65-2.306 15.293 15.293 0 0 0-10.54-.048 10.454 10.454 0 0 0-3.788 2.465 11.032 11.032 0 0 0-2.326 3.833 15.33 15.33 0 0 0-.912 4.883q-.092 2.03-.092 4.336 0 2.287.092 4.335a16.63 16.63 0 0 0 .864 4.93 11.14 11.14 0 0 0 2.326 3.785 11.027 11.027 0 0 0 3.787 2.51 14.358 14.358 0 0 0 5.2.864 14.728 14.728 0 0 0 5.2-.864 10.538 10.538 0 0 0 3.885-2.556 10.854 10.854 0 0 0 2.419-3.884 14.805 14.805 0 0 0 .816-5.02v-4.016a.907.907 0 0 0-1.025-1.026zm38.539-4.608a7.126 7.126 0 0 0-2.786-1.916 11.51 11.51 0 0 0-4.427-.73 9.848 9.848 0 0 0-3.884.684 8.758 8.758 0 0 0-2.647 1.55 6.692 6.692 0 0 0-1.46 1.873 3.748 3.748 0 0 0-.48 1.597.942.942 0 0 0 1.003 1.004h.642a1.09 1.09 0 0 0 .64-.18 1.57 1.57 0 0 0 .481-.776 4.224 4.224 0 0 1 1.73-2.102 6.786 6.786 0 0 1 3.97-1.004q3.238 0 4.698 1.37a4.918 4.918 0 0 1 1.506 3.833v1.597l-7.21 1.004a16.718 16.718 0 0 0-3.7.913 9.591 9.591 0 0 0-2.829 1.55 6.982 6.982 0 0 0-1.873 2.144 5.963 5.963 0 0 0-.642 2.787 5.73 5.73 0 0 0 .642 2.69 7.552 7.552 0 0 0 1.777 2.145 9.348 9.348 0 0 0 2.601 1.46 9.885 9.885 0 0 0 3.152.505 11.63 11.63 0 0 0 3.074-.366 9.674 9.674 0 0 0 2.306-.816 6.486 6.486 0 0 0 1.597-1.141 6.664 6.664 0 0 0 1.096-1.28v2.145a.887.887 0 0 0 1.004 1.004l.017-.005h.775a.887.887 0 0 0 1.004-1.004V41.032a10.032 10.032 0 0 0-.408-2.786 6.156 6.156 0 0 0-1.369-2.554zm-1.045 10.864a10.687 10.687 0 0 1-.596 3.74 7.382 7.382 0 0 1-1.64 2.647 6.961 6.961 0 0 1-2.464 1.598 8.394 8.394 0 0 1-2.921.504l.012.022a8.612 8.612 0 0 1-2.102-.257 6.058 6.058 0 0 1-1.873-.817 4.93 4.93 0 0 1-1.37-1.37 3.677 3.677 0 0 1-.504-1.962q0-3.812 7.573-4.837l5.885-.817zm53.857-10.595a7.904 7.904 0 0 0-2.875-2.145 9.843 9.843 0 0 0-4.06-.775 9.358 9.358 0 0 0-4.698 1.004 10.074 10.074 0 0 0-2.966 2.6l.005-.035V25.8a.887.887 0 0 0-1.004-1.004h-.776a.887.887 0 0 0-1.004 1.004v30.423a.887.887 0 0 0 1.004 1.004h.776a.887.887 0 0 0 1.004-1.004v-12.73a7.988 7.988 0 0 1 1.962-5.758 6.933 6.933 0 0 1 5.248-2.048 6.43 6.43 0 0 1 5.2 2.101 8.427 8.427 0 0 1 1.778 5.702v12.73a.887.887 0 0 0 1.004 1.005h.768a.887.887 0 0 0 1.005-1.004V43.263a13.38 13.38 0 0 0-.594-4.059 9.032 9.032 0 0 0-1.777-3.243zm32.389-8.873l.034.001.033-.001z" class="cls-2"/><path d="M261.239 32.004a10.273 10.273 0 0 0-2.464-3.925 9.586 9.586 0 0 0-3.74-2.373 14.406 14.406 0 0 0-4.838-.776l-.033-.021a14.552 14.552 0 0 0-4.884.776 10.073 10.073 0 0 0-3.74 2.373 11.087 11.087 0 0 0-2.464 3.925 17.228 17.228 0 0 0-.96 5.524q-.092 2.056-.092 3.834 0 1.784.091 3.833.185 6.478 3.243 9.536 3.101 3.058 8.806 3.058a14.503 14.503 0 0 0 6.389-1.326l2.013 2.786q.233.281.593.641a1.115 1.115 0 0 0 .865.409h1.033a.936.936 0 0 0 .915-.916.748.748 0 0 0-.048-.319q-.044-.089-.092-.18l-2.92-4.083q3.074-3.058 3.331-9.584.091-2.056.091-3.834 0-1.785-.09-3.833a16.43 16.43 0 0 0-1.005-5.525zm-1.866 9.358v1.73q0 .87-.048 1.873a14.279 14.279 0 0 1-.817 4.612 8.44 8.44 0 0 1-1.917 3.074 7.35 7.35 0 0 1-2.83 1.826 12.145 12.145 0 0 1-7.196 0 7.745 7.745 0 0 1-2.875-1.826 8.908 8.908 0 0 1-1.916-3.074 15.362 15.362 0 0 1-.776-4.612q-.043-1.009-.091-1.873v-3.42q.043-.892.09-1.918a15.17 15.17 0 0 1 .777-4.563 8.83 8.83 0 0 1 1.962-3.152 7.26 7.26 0 0 1 2.875-1.777 10.62 10.62 0 0 1 3.553-.592l-.034-.001h.067l-.033.001a10.458 10.458 0 0 1 3.552.592 7.252 7.252 0 0 1 2.875 1.777 8.362 8.362 0 0 1 1.917 3.152 14.31 14.31 0 0 1 .817 4.563q.048 1.052.048 1.917v1.691zm-115.331-7.867h-1.691q-4.563 0-6.204 3.147v.004h-.003l.003-.004v-2.098a.913.913 0 0 0-.32-.73.87.87 0 0 0-.73-.32h-.73a.913.913 0 0 0-.73.32.939.939 0 0 0-.274.73V56.22a.887.887 0 0 0 1.004 1.005h.73a.987.987 0 0 0 .73-.274.871.871 0 0 0 .32-.73V42.076a5.513 5.513 0 0 1 5.932-5.933h1.963a.887.887 0 0 0 1.004-1.004v-.641a.887.887 0 0 0-1.004-1.004zm48.832 6.461a9.594 9.594 0 0 0-1.64-3.469 8.006 8.006 0 0 0-3.013-2.464 11.072 11.072 0 0 0-9.166.065 9.012 9.012 0 0 0-2.966 2.553v-2.145a.887.887 0 0 0-1.004-1.004h-.776a.887.887 0 0 0-1.004 1.004V64.92a.887.887 0 0 0 1.004 1.004h.776a.887.887 0 0 0 1.004-1.004V54.111a9.346 9.346 0 0 0 2.966 2.555 9.517 9.517 0 0 0 4.698 1.026v.017a9.917 9.917 0 0 0 4.468-.913 8.65 8.65 0 0 0 3.012-2.464 10.214 10.214 0 0 0 1.64-3.469 17.577 17.577 0 0 0 .642-3.97q.048-.69.048-1.506 0-.822-.048-1.506a17.325 17.325 0 0 0-.641-3.925zm-2.092 6.692a16.212 16.212 0 0 1-.505 3.194 7.536 7.536 0 0 1-1.23 2.69 5.883 5.883 0 0 1-2.19 1.826 7.195 7.195 0 0 1-3.332.685 7.272 7.272 0 0 1-3.283-.685 7.468 7.468 0 0 1-2.306-1.826 8.171 8.171 0 0 1-1.37-2.464 10.828 10.828 0 0 1-.48-2.786q-.048-.685-.048-1.778t.048-1.777v-.007a12.49 12.49 0 0 1 .48-2.83 8.539 8.539 0 0 1 1.322-2.553 7.244 7.244 0 0 1 2.306-1.917 7 7 0 0 1 3.331-.73 6.827 6.827 0 0 1 3.332.73 5.69 5.69 0 0 1 2.19 1.874 6.993 6.993 0 0 1 1.23 2.647 15.096 15.096 0 0 1 .504 3.151q.049 1.275 0 2.556zm97.431 7.939h-15.742V26.388a.887.887 0 0 0-1.004-1.004h-.865a.887.887 0 0 0-1.004 1.004v29.91a.887.887 0 0 0 1.004 1.004h17.611a.897.897 0 0 0 1.026-1.004v-.685a.907.907 0 0 0-1.026-1.026zM27.308 64.37h45.105a7.465 7.465 0 0 1-.009-3.556H27.318a7.464 7.464 0 0 1-.01 3.555zm45.203-38.267a7.475 7.475 0 0 1 1.753-3.09l-17.246-9.957a7.442 7.442 0 0 1-1.793 3.066zM27.23 64.657a7.47 7.47 0 0 1-1.769 3.08l17.237 9.951a7.456 7.456 0 0 1 1.79-3.07zm17.277-48.525a7.477 7.477 0 0 1-1.805-3.058L25.46 23.01a7.481 7.481 0 0 1 1.753 3.088zM21.835 55.33V35.39a7.46 7.46 0 0 1-3.545.015v19.921a7.464 7.464 0 0 1 3.545.005zM74.5 57.181a7.457 7.457 0 0 1 3.087-1.774L55.02 16.323a7.47 7.47 0 0 1-3.078 1.777zm3.38-21.795l.011 19.94a7.464 7.464 0 0 1 3.54-.003V35.407a7.467 7.467 0 0 1-3.55-.021zM55.363 74.771a7.453 7.453 0 0 1 1.576 2.676l17.141-9.904a7.455 7.455 0 0 1-1.531-2.702z" class="cls-2"/><path d="M72.511 26.103a7.445 7.445 0 0 0 5.37 9.283l-.004-6.184zM21.835 55.33v.609l.304-.527q-.151-.044-.304-.081zM55.14 16.215c.03-.03.056-.063.085-.093l-.48-.277.276.478c.039-.037.081-.07.12-.108zm28.983 44.599v3.555h-1.361l.683 1.184-3.074 1.802-1.269-2.198h-.892l-4.13 2.386a7.464 7.464 0 0 0 12.056-1.228l.002.002a7.464 7.464 0 0 0-4.708-10.994v5.491zM26.512 31.878v.002a7.467 7.467 0 0 0 .701-5.782l-5.378 3.1v6.191a7.457 7.457 0 0 0 4.677-3.51zm46.037 32.963l.817-.472h-.953c.04.16.086.316.136.472zm-22.69 22.431h-.005.005zm-5.37-12.653l5.571 3.216 5.303-3.064a7.443 7.443 0 0 0-10.874-.152zM26.732 64.37l.498.287a7.2 7.2 0 0 0 .078-.288zm51.16-8.435v-.608a7.635 7.635 0 0 0-.305.08zM49.856 18.4a7.476 7.476 0 0 0 2.087-.3l-2.08-3.603-2.079 3.601a7.442 7.442 0 0 0 2.07.298z" class="cls-2"/><path d="M16.935 27.922l1.355-.78V25.56h2.743l4.427-2.551a7.471 7.471 0 1 0-7.17 12.395v-5.14zm55.469 32.892h4.192l-2.097-3.633a7.383 7.383 0 0 0-2.095 3.633zm-51.791 4.343l-1.269 2.198-3.074-1.778.697-1.208h-1.396v-3.555h2.511l.208-.36v-5.128a7.474 7.474 0 1 0 7.172 12.411l-4.47-2.58zM81.43 25.56v1.59l1.357.784-1.357 2.336v5.137a7.474 7.474 0 1 0-7.166-12.394l4.413 2.548zM51.218 82.607l-8.52-4.919a7.468 7.468 0 1 0 14.24-.24l-4.117 2.378zM25.22 57.18l-2.1 3.634h4.198a7.31 7.31 0 0 0-2.099-3.634zm22.124-47.049l-1.249-2.164 3.075-1.778.695 1.204.68-1.18 3.075 1.778-1.228 2.127.232.402 4.394 2.536a7.473 7.473 0 1 0-14.316.018l4.41-2.542zm-2.37 5.732l-.467.27c.065.066.133.129.2.193z" class="cls-2"/><path d="M47.784 18.098l2.08-3.601-.629-1.09-4.261 2.456-.267.463a7.455 7.455 0 0 0 3.077 1.772zM23.12 60.814l2.1-3.634a7.471 7.471 0 0 0-3.08-1.768l-.305.527v4.875zM51.252 8.147l1.14 1.971 1.228-2.127-3.074-1.778-.681 1.18.672 1.165.715-.411zM18.29 64.369h-1.323l-.697 1.208 3.074 1.778 1.269-2.198H18.29v-.788zm58.306-3.555h-4.192a7.465 7.465 0 0 0 .009 3.555h.953l3.96-2.288zm-49.278 0h-4.197l-.637 1.103 4.248 2.452h.576a7.464 7.464 0 0 0 .01-3.555zm-10.39 1.996l1.154-1.996h-2.511v3.555h1.396l.666-1.152-.705-.407zm65.834 1.559h1.361v-3.555H81.43v1.249l1.332 2.306z" class="cls-2"/><path d="M21.835 61.543l.649.374.637-1.103h-1.286v.729zm-3.545 2.054l-.657-.38-.666 1.152h1.323v-.772zm0-3.142l-.208.359h.208v-.359zm29.054-50.324l-.232.401.348-.2-.116-.201zm5.686 1.09l-.717.413 2.432 4.211.48.277a7.442 7.442 0 0 0 1.793-3.066l-4.394-2.536zm-.209 68.605l-2.21 1.278-1.552-2.69 1.001-.579-5.571-3.216a7.456 7.456 0 0 0-1.791 3.069l8.52 4.92zm25.056-50.624l-.002-3.641h.802l-4.413-2.548a7.475 7.475 0 0 0-1.753 3.09zm4.91-1.268l-1.357-.783v3.119l1.357-2.336zM26.732 64.37h-4.897v.787h-.842l4.468 2.58a7.47 7.47 0 0 0 1.77-3.08zm-9.099-1.153l.657-1.138v-1.265h-.208l-1.154 1.996.705.407zm4.202-.176v1.328h4.897l-4.248-2.452-.649 1.124z" class="cls-2"/><path d="M17.633 63.217l.657.38v-1.518l-.657 1.138zm4.202-.176l.649-1.124-.649-.374v1.498zm-4.9-35.119l1.355 2.343v-3.124l-1.355.781zm4.9-2.362v3.637l5.378-3.099a7.481 7.481 0 0 0-1.753-3.088l-4.427 2.55zm23.139-9.697l2.45-4.244-.705-.407.393-.68-4.41 2.542a7.477 7.477 0 0 0 1.805 3.058zm7.65-5.343l-.232-.402-.116.201.348.201zm-4.032 1.773l-1.167-.674-2.451 4.244 4.261-2.455-.643-1.115zm1.945-3.735l.656 1.136 1.083.625.116-.201-1.14-1.971-.715.411z" class="cls-2"/><path d="M47.46 10.332l-.348.2-.393.68.706.407.389-.674-.354-.613zm4.455.612l.398.69.716-.413-.405-.701-.348-.201-.361.625z" class="cls-2"/><path d="M47.814 10.945l-.389.674 1.167.674-.778-1.348zm4.462-.626l-1.083-.625.722 1.25.361-.625zm-2.412 4.178l2.08 3.603a7.47 7.47 0 0 0 3.077-1.777l-.276-.478-4.245-2.45zM49.2 8.543l.665-1.15-.696-1.204-3.074 1.778 1.249 2.164 1.153-1.994.703.406zM18.705 59.736l.703.406 2.427-4.203v-.608a7.464 7.464 0 0 0-3.545-.005v5.129zm3.13-24.346v-6.193l-3.122 1.8-.423-.732v5.14a7.46 7.46 0 0 0 3.545-.016zM74.5 57.181l2.096 3.633h1.298l-.002-4.88-.305-.527a7.457 7.457 0 0 0-3.088 1.774zm6.93 7.976h-2.328l1.269 2.198 3.074-1.802-.683-1.184H81.43v.788z" class="cls-2"/><path d="M81.43 64.369h-1.856l-.695.402.223.386h2.328v-.788zm-3.539-9.042v.608l2.818 4.88h.721v-5.492a7.464 7.464 0 0 0-3.539.004zm.319 9.83h.892l-.223-.386-.669.386zm2.793-34.151l-3.126-1.804.004 6.184a7.467 7.467 0 0 0 3.55.02V30.27zM18.29 25.561v1.58l2.743-1.58H18.29zm2.323 39.596h.38l-.285-.164-.095.164z" class="cls-2"/><path d="M80.709 60.814l-2.817-4.879.002 4.879h2.815zm.721-35.253h-2.753l2.753 1.59v-1.59zM21.835 60.814v-4.875l-2.427 4.203 1.166.672h1.261zM49.88 13.036l-.645.372.629 1.089.636-1.102-.62-.359zm.002-4.1l.655-.378-.672-1.165-.665 1.15.682.393zM19.628 64.369H18.29v.788h2.323l.095-.164-1.08-.624zm58.267-2.616l-.001-.939h-1.298l.731 1.267.568-.328zm3.535-.939h-.721l.721 1.249v-1.249zm0 3.555h1.332l-1.332-2.306v2.306z" class="cls-2"/><path d="M77.895 61.753l.963-.557 1.551 2.691-.835.482h1.856v-2.306l-.721-1.249h-2.815l.001.939zM18.29 64.369h1.338l-1.338-.772v.772zm3.545-3.555h-1.261l1.261.729v-.729zm-1.127 4.179l.285.164h.842v-.788h-.767l-.36.624zM50.5 13.395l4.245 2.45-2.432-4.211-1.193.688-.62 1.073zm-1.979-3.674l.679-1.178-.703-.406-1.153 1.994.116.201 1.061-.611zM81.43 30.27v-3.119l-2.753-1.59h-.802l.002 3.641 3.126 1.804.427-.736zM19.02 60.814l.388-.672-.703-.406-.415.719v.359h.73z" class="cls-2"/><path d="M20.708 64.993l.36-.624h-1.44l1.08.624zM50.5 13.395l.62-1.073-1.24.714.62.359zM20.574 60.814l-1.166-.672-.388.672h1.554zM49.2 8.543l-.679 1.178 1.361-.785-.682-.393zM18.29 60.814v1.265l.73-1.265h-.73zm2.778 3.555h.767v-1.328l-.767 1.328z" class="cls-2"/><path d="M20.574 60.814H19.02l-.73 1.265v1.518l1.338.772h1.44l.767-1.328v-1.498l-1.261-.729zm.459-35.253l-2.743 1.58v3.124l.423.732 3.122-1.8v-3.636h-.802zM50.537 8.558l-.655.378 1.311.758-.656-1.136zm-1.945 3.735l.643 1.115.645-.372-1.288-.743zm2.528.029l1.193-.688-.398-.69-.795 1.378zm-3.66-1.99l.354.613.707-1.224-1.061.611z" class="cls-2"/><path d="M51.12 12.322l.795-1.378-.722-1.25-1.311-.758-1.361.785-.707 1.224.778 1.348 1.288.743 1.24-.714zm26.777 52.835v-.788h-4.531l-.817.472a7.455 7.455 0 0 0 1.531 2.703l4.13-2.387zM50.06 77.835l2.933 1.693-.172.298 4.118-2.379a7.453 7.453 0 0 0-1.576-2.676zm27.267-15.754l-3.961 2.288h4.53v-1.303l-.569-.985z" class="cls-2"/><path d="M50.611 81.104l2.21-1.278.172-.298-2.933-1.693-1.001.579 1.552 2.69zm28.037-16.735h-.752l.001.788h.313l.669-.386-.231-.402z" class="cls-2"/><path d="M78.879 64.771l.695-.402h-.926l.231.402zm-.983-1.705l-.001-1.313-.568.328.569.985zm0 0v1.303h.752l-.752-1.303z" class="cls-2"/><path d="M78.648 64.369h.926l.835-.482-1.551-2.691-.963.557.001 1.313.752 1.303zm150.578-30.866h-.73a.913.913 0 0 0-.73.32.939.939 0 0 0-.274.73v21.675a.887.887 0 0 0 1.004 1.004h.73a.987.987 0 0 0 .73-.274.87.87 0 0 0 .32-.73V42.085l-.003-5.43h.003v-2.102a.913.913 0 0 0-.32-.73.87.87 0 0 0-.73-.32z" class="cls-2"/><circle cx="228.69" cy="27.278" r="1.52" class="cls-2"/></svg>