<svg xmlns="http://www.w3.org/2000/svg" role="img" viewBox="-8.99 -8.74 454.48 156.23"><title>GraphiQL logo</title><style>svg {enable-background:new 0 0 436.8 138.7}</style><path fill="#e50695" d="M152.4 116.4h4.7V98.9h17v-4.2h-17V81.5h18.7v-4.2h-23.4zm41.2-29.7c-7.9 0-13.3 6-13.3 15.2 0 9.1 5.3 15.1 13.3 15.1s13.3-6 13.3-15.1c0-9.2-5.4-15.2-13.3-15.2zm0 26.2c-6 0-8.8-5.2-8.8-11.1s2.7-11.1 8.8-11.1c6 0 8.8 5.3 8.8 11.1 0 5.9-2.8 11.1-8.8 11.1zm39.2-8.5c0 5.5-4.2 8-7.6 8-3.7 0-6.4-2.7-6.4-7V87.1h-4.5v18.6c0 7.5 4 11.1 9.5 11.1 4.4 0 7.3-2.4 8.7-5.3h.3v5h4.5V87.1h-4.5v17.3zm27.6-17.7c-4.4 0-7.2 2-8.5 5h-.4v-4.6h-4.3v29.3h4.5V98.7c0-5.1 3.2-8 7.5-8 4.2 0 6.7 2.7 6.7 7.3v18.3h4.5V97.7c-.1-7.4-4.1-11-10-11zm39.2 5h-.4c-1-1.5-2.7-5-8.5-5-7.4 0-12.5 5.9-12.5 15.1 0 9.3 5.1 15.2 12.4 15.2 5.6 0 7.6-3.5 8.5-5.1h.5v4.5h4.3V77.3h-4.5v14.4h.2zm-8.3 21.2c-5.6 0-8.5-5-8.5-11.2s2.8-11 8.5-11c5.5 0 8.4 4.4 8.4 11s-3 11.2-8.4 11.2zm33.8-26.2c-4.4 0-9.5 1.5-11.7 6.9l4.3 1.5c1-2.1 3.3-4.4 7.6-4.4 4.2 0 6.2 2.2 6.2 6 0 2.2-2.2 2.1-7.6 2.7-5.4.7-11.4 1.9-11.4 8.6 0 5.7 4.4 9 10 9 5.1 0 7.8-2.7 8.7-4.7h.2v4h4.5V97.1c.1-9.3-7-10.4-10.8-10.4zm6.4 19.1c0 3.7-2.9 7.2-8.2 7.2-3.6 0-6.2-1.6-6.2-4.7 0-3.4 3.1-4.5 6.6-5 1.9-.2 7-.8 7.8-1.7v4.2zm24.7 6.6c-2 0-3.9-.6-3.9-4.4V90.9h6.3v-3.8h-6.3v-7h-4.5v7h-4.4v3.8h4.4v18.3c0 5.1 4.1 7.6 7.9 7.6 1.7 0 2.7-.3 3.4-.5l-.9-4c-.4-.1-1 .1-2 .1zm11-25.3h4.5v29.3h-4.5zm2.3-10.9c-1.8 0-3.2 1.4-3.2 3.1s1.5 3.1 3.2 3.1c1.8 0 3.2-1.4 3.2-3.1 0-1.8-1.4-3.1-3.2-3.1zM393 86.7c-7.9 0-13.3 6-13.3 15.2 0 9.1 5.3 15.1 13.3 15.1s13.3-6 13.3-15.1c-.1-9.2-5.4-15.2-13.3-15.2zm0 26.2c-6 0-8.8-5.2-8.8-11.1s2.7-11.1 8.8-11.1c6 0 8.8 5.3 8.8 11.1-.1 5.9-2.8 11.1-8.8 11.1zm33.9-26.2c-4.4 0-7.2 2-8.5 5h-.4v-4.6h-4.3v29.3h4.5V98.7c0-5.1 3.2-8 7.5-8 4.2 0 6.7 2.7 6.7 7.3v18.3h4.5V97.7c-.1-7.4-4.1-11-10-11zM184.2 37.3h-16.3v6.2h8.2c0 4.9-3.9 7.9-8.8 7.9-6.1 0-10-4.5-10-12.8 0-8 3.8-12.7 9.8-12.7 4.3 0 7.2 2.2 8.4 5.9h8.4c-1.1-7.7-8-13.2-16.8-13.2-10.3 0-18.1 7.4-18.1 20.1 0 12.4 7.4 20 18.3 20 9.9 0 17-6.2 17-16.5l-.1-4.9zm15.9-3.3h-.3v-5.1h-7.9v29.3h8.1V41.6c0-3.6 2.6-6 5.9-6 1.1 0 2 .3 2.8.7l2.4-6.7c-1.1-.6-2.4-1.1-4-1.1-3.3 0-6 1.9-7 5.5zm27.4-5.5c-7.2 0-11.8 3.4-12.9 8.7l7.5.6c.6-1.9 2.3-3.4 5.2-3.4 2.8 0 4.3 1.4 4.3 3.8 0 1.9-2 2.2-7.1 2.7-5.8.5-11 2.5-11 9 0 5.8 4.1 8.7 9.7 8.7 4.3 0 7.1-1.9 8.6-4.6h.2v4.1h7.7V38.4c.1-7-5.9-9.9-12.2-9.9zm4.2 19.2c0 3.1-2.5 5.4-6.1 5.4-2.5 0-4.3-1.2-4.3-3.4 0-2.3 1.9-3.4 4.7-3.8 1.8-.2 4.7-.7 5.6-1.3v3.1h.1zm32.7-19.2c-4.9 0-7.2 2.9-8.3 5.3h-.4v-4.9h-8v40.3h8.1V53.5h.2c1.1 2.4 3.6 5.2 8.3 5.2 6.7 0 11.9-5.3 11.9-15.1.1-10.1-5.4-15.1-11.8-15.1zm-2.6 23.7c-3.9 0-6.1-3.4-6.2-8.7 0-5.2 2.2-8.6 6.2-8.6s6.2 3.5 6.2 8.6c0 5.2-2.2 8.7-6.2 8.7zm38.5-23.7c-4.4 0-7.4 2.1-8.8 5.5h-.3V19.1h-7.9v39.1h8.1v-17c0-3.8 2.3-6 5.6-6s5.2 2.1 5.2 5.7v17.2h8.1V39.5c.1-6.8-3.9-11-10-11zm51.9 32.9l-5.6-7c3.8-3.4 6.2-8.8 6.2-15.7 0-12.8-7.9-20.1-18.3-20.1s-18.3 7.3-18.3 20.1c0 12.7 7.9 20.1 18.3 20.1 2.4 0 4.7-.4 6.8-1.2l3.1 3.9h7.8v-.1zm-10.6-13.1l-2.9-3.7h-7l5 6.6c-.7.1-1.4.2-2.1.2-6 0-9.9-4.5-9.9-12.8s3.9-12.8 9.9-12.8 9.9 4.5 9.9 12.8c0 4.3-1.1 7.6-2.9 9.7zm44 3.1h-16.8V19.1h-8.2v39.1h25zm-269.4.2c5.9-3.4 7.9-11 4.5-16.9s-10.9-7.9-16.7-4.5c-1.1.6-2 1.4-2.8 2.2L72.9 15.9c.3-1.1.5-2.3.5-3.5C73.4 5.5 67.9 0 61.2 0S48.9 5.5 48.9 12.4c0 1.2.2 2.4.5 3.5L21.1 32.4c-.8-.8-1.7-1.6-2.8-2.2-5.8-3.5-13.3-1.4-16.7 4.5S.3 48.2 6.1 51.6c1 .6 2.1 1 3.3 1.3v33c-1.1.3-2.2.7-3.2 1.3-5.9 3.4-7.9 11-4.5 16.9s10.8 7.9 16.7 4.5c1-.6 1.9-1.4 2.7-2.2l28.3 16.5c-.3 1.1-.5 2.3-.5 3.5 0 6.8 5.5 12.4 12.2 12.4s12.2-5.6 12.2-12.4c0-1.4-.2-2.7-.6-3.9l28.1-16.4c.8 1 1.9 1.8 3 2.5 5.9 3.4 13.4 1.4 16.7-4.5 3.4-5.9 1.4-13.5-4.5-16.9-1-.6-2.1-1-3.2-1.3v-33c1.3-.3 2.3-.7 3.4-1.3zM15.7 86c-.2 0-.3-.1-.5-.1v-33c3.1-.8 5.9-2.8 7.7-5.8 1.7-3 2-6.5 1.2-9.6L52.4 21l.3.3-37 64.7zm54.5 32c-2.2-2.5-5.5-4-9-4s-6.6 1.5-8.8 3.8L24 101.3c0-.2.1-.3.1-.5h74c.1.3.1.5.2.8L70.2 118zm29.2-26.3c-.6 1-1 2.1-1.3 3.3H24.2c-.3-1.1-.7-2.2-1.3-3.3-.6-1-1.3-2-2.2-2.8l37-64.7c1.1.3 2.2.5 3.4.5s2.3-.2 3.4-.5l37 64.7c-.7.8-1.5 1.7-2.1 2.8zm7.7-5.8c-.2 0-.3.1-.5.1l-37-64.7.3-.3 28.3 16.5c-.9 3.1-.6 6.5 1.2 9.6 1.7 3 4.5 5 7.7 5.8v33z"/></svg>