<svg xmlns="http://www.w3.org/2000/svg" role="img" viewBox="2.65 16.65 200.46 72.21"><title>GraphQL Code Generator logo</title><g fill="none" fill-rule="evenodd"><path fill="#FFF" d="M0 0h215v105H0z"/><g fill="#FCEB14"><path d="M42.04 80.31454c0 .2538-.02485.50156-.06325.7448-.00452.03088-.00829.061-.01356.09113-.39763 2.2841-2.38954 4.02675-4.78511 4.02675-2.1365 0-3.9507-1.38719-4.60211-3.30605L12.3458 70.19231c-2.00622-1.15825-3.24129-3.29928-3.24129-5.61426V44.90668c.74932.25379 1.54835.39763 2.38352.39763.74932 0 1.47229-.11372 2.15458-.32007v19.5938c0 .6921.37203 1.33674.97299 1.68316l18.8716 10.89565c.8924-1.04152 2.21407-1.70499 3.69087-1.70499 1.60633 0 3.02816.78547 3.91454 1.98966.01582.02184.03238.04292.0482.06476a5.05618 5.05618 0 0 1 .17698.27036c.02183.0354.04367.07004.06476.10618.0497.0851.09564.17246.14007.26057.0241.04745.0467.0949.06854.14309.0384.08209.0738.16492.10769.24927.0241.06025.04518.1205.06702.1815.02711.0768.05347.15438.07606.2327.0226.0753.03916.15062.058.22517.01731.0708.03539.14083.04894.21237.01883.09414.03088.18903.04443.28467.00678.05799.01808.11296.02335.1702.0143.15588.02334.31253.02334.47218zm24.87972-42.46579c0 1.45873-.64765 2.76609-1.66884 3.65774v23.07156c0 2.31498-1.2343 4.456-3.24128 5.61426L44.62912 80.22643c-.01958-1.64173-.5746-3.15317-1.49488-4.3777l16.6063-9.58753c.60022-.34642.97224-.99107.97224-1.68315V42.51789c-2.02806-.5844-3.51766-2.45431-3.51766-4.66914 0-1.07842.35771-2.0725.95416-2.87905.00828-.0128.01807-.0256.02786-.0384.11221-.14912.2327-.29296.36148-.42851l.01732-.01883c.2666-.27789.56482-.52189.89015-.7305.03389-.02183.06929-.04141.10393-.06325.12878-.07682.26057-.14987.39612-.21539.03991-.01882.07983-.03916.1205-.05723.16944-.07681.34416-.1476.52414-.20333.00076 0 .00076 0 .00076-.00076.46314-.14685.9549-.22743 1.46626-.22743 2.68174 0 4.86192 2.18094 4.86192 4.86268zM9.10452 42.0826c-1.47755-.83517-2.47916-2.41891-2.47916-4.23385 0-2.68174 2.18094-4.86268 4.86268-4.86268.6951 0 1.3548.14987 1.9535.41345l20.4945-11.8325c1.00236-.57912 2.12295-.8683 3.24129-.8683 1.11984 0 2.23967.28918 3.24203.8683l17.4829 10.09437c-1.28627.86756-2.2826 2.12822-2.82934 3.60503l-16.9226-9.76904c-.29522-.17095-.63185-.26057-.973-.26057-.34039 0-.67627.08962-.97223.26057L16.2724 37.00605c.0482.27412.07757.55427.07757.8427 0 2.09207-1.3307 3.87463-3.18782 4.55919-.0143.00527-.02937.0113-.04292.01581-.14836.05196-.29672.0979-.4496.1363-.03087.00754-.061.01658-.09187.0226-.14008.03238-.28316.05799-.427.07832-.03916.00527-.07757.0128-.11748.01732-.17924.02034-.36073.03314-.54524.03314-.19806 0-.3931-.01582-.5859-.03916-.0512-.00603-.10167-.01506-.15363-.02335-.1476-.02259-.2922-.0512-.43604-.08735-.04367-.0113-.0881-.0211-.13254-.0339-.3788-.10693-.73953-.25529-1.0754-.44507z"/><path d="M49.0517 59.46866l-15.24775 8.2109V66.2291l4.76252-2.38126c.01205-.00602.02033-.01581.03163-.02184.01205-.00602.0241-.00828.03615-.01506.0369-.02184.06627-.05271.10016-.07756.02861-.02184.0625-.03841.08886-.06251.00829-.00678.0128-.01582.01958-.02335.03916-.0369.0708-.08058.10317-.1235.02335-.03013.05197-.05573.0723-.08811.00452-.00753.00753-.01431.0113-.02184.02786-.0467.04594-.09715.06627-.1476.01581-.03691.03615-.0708.04744-.10996.00226-.00527.00377-.0113.00603-.01732.0143-.05347.01657-.1092.02334-.16568.00528-.03765.01732-.07305.01808-.11146 0-.00451-.0015-.00903-.0015-.01355 0-.00377.0015-.00678.0015-.0113V50.0355l9.86091-5.47795v14.9111zm-16.34951 4.7851l-5.69484-3.1637-4.03278-2.24044 2.93779-1.46927 9.72762 5.40415-2.9378 1.46927zm-1.1575 3.39718l-9.86091-5.4787v-1.45497l9.86091 5.47795v1.45572zm-4.47409-23.0934l9.86092 5.47796v10.8821l-9.86092-5.4787V44.55754zm7.69956-5.53292l.84722 1.9053c.18602.88037 1.15599 1.49037 2.44377 1.49037 1.28778 0 2.25775-.61 2.44376-1.49036l.84723-1.90531 6.5029 3.61256-9.7939 5.44104-9.79463-5.44104 6.50365-3.61256zm3.29099-4.98393c1.50391 0 2.48292.40441 2.81955.66573-.33738.26057-1.31564.66498-2.81955.66498-1.50392 0-2.48293-.40441-2.82031-.66498.33738-.26132 1.31564-.66573 2.8203-.66573zm-1.31564 3.86484l-.1717-.38558c.4669.07155.96319.1107 1.48734.1107.5249 0 1.02118-.03915 1.4881-.1107l-1.1575 2.60418c-.15589.03916-.50456.03916-.66045 0l-.97826-2.20128-.00753-.01732zm14.52553 4.43644c-.00904-.03615-.02862-.06778-.04142-.10242-.0226-.05724-.04142-.11523-.07155-.16794-.02108-.03615-.0512-.06627-.07606-.10016-.03389-.04519-.06326-.09263-.10317-.13255-.02862-.02937-.06552-.05045-.0979-.07681-.04217-.03314-.07983-.0708-.12652-.09866-.00452-.00225-.00979-.003-.0143-.00527-.00377-.00226-.00679-.00602-.0098-.00828l-8.4564-4.69775.36449-.82087c.38106-.41495.59268-.89692.59268-1.42484 0-.03615-.00678-.07079-.00904-.10618.00602-.16041-.02033-.31931-.08133-.46918-.43378-1.3902-2.43549-2.34963-5.07957-2.34963-2.64484 0-4.6488.96019-5.08108 2.35265-.05949.1476-.0851.30274-.07982.46013-.00226.03766-.00904.0738-.00904.11221 0 .52792.21162 1.0114.59343 1.42635l.3645.81936-8.45716 4.69775c-.00377.00226-.00678.00602-.01055.00828-.00452.00226-.00903.00302-.01355.00527-.04745.02787-.0851.06552-.12652.09866-.03238.02636-.06853.04744-.0979.07681-.03992.03992-.0708.08736-.10393.13255-.02485.03389-.05497.064-.0753.10016-.03088.05271-.04971.1107-.0708.16794-.01355.03464-.03238.06627-.04292.10242a1.13422 1.13422 0 0 0-.03916.2952V55.405l-4.76252 2.38201c-.01055.00528-.01958.01507-.03163.0211-.0113.00602-.0241.00828-.03615.01505-.03615.02184-.06477.05272-.09865.07757-.0369.02787-.07531.05272-.10845.08435-.03916.0384-.07154.08208-.10543.125-.02636.0354-.05648.06779-.07908.10544-.02937.0482-.04895.10016-.07003.15212-.01657.03992-.03766.07757-.04895.119-.01657.05647-.02109.11521-.02787.17396-.00452.03765-.01732.07304-.01807.1122 0 .00452.0015.00829.0015.0128 0 .00377-.0015.00754-.0015.0113v4.04031c0 .41043.22216.78848.58138.9873l12.11942 6.73334c.05347.02937.1107.04594.16568.06628.03163.0113.061.02861.09338.0369.09564.0256.1928.03916.28994.03916.09564 0 .19128-.01356.28467-.03766.03012-.00753.05799-.0241.08886-.03464.05422-.01958.1107-.03464.16192-.0625l17.507-9.42714c.366-.1973.59418-.57912.59418-.99483V42.63718c0-.10092-.0143-.20033-.03991-.29521z"/></g><path fill="#050713" fill-rule="nonzero" d="M84.608 45.087c-.595 1.122-1.768 1.887-3.179 1.887-1.989 0-3.604-1.598-3.604-3.604 0-2.006 1.615-3.604 3.604-3.604 1.394 0 2.584.765 3.179 1.887l3.094-1.394c-1.173-2.227-3.536-3.774-6.273-3.774-3.825 0-7.038 3.094-7.038 6.885s3.213 6.885 7.038 6.885c2.737 0 5.134-1.547 6.29-3.808l-3.111-1.36zm4.83343-1.717c0 3.791 3.213 6.885 7.038 6.885 3.876 0 7.038-3.094 7.038-6.885s-3.162-6.885-7.038-6.885c-3.825 0-7.038 3.094-7.038 6.885zm3.434 0c0-2.006 1.615-3.604 3.604-3.604 2.04 0 3.604 1.598 3.604 3.604 0 2.006-1.564 3.604-3.604 3.604-1.989 0-3.604-1.598-3.604-3.604zM106.08986 50h6.154c4.148 0 6.273-3.009 6.273-6.63 0-3.604-2.125-6.63-6.273-6.63h-6.154V50zm5.899-9.962c2.023 0 3.094 1.343 3.094 3.332 0 1.989-1.071 3.349-3.094 3.349h-2.499v-6.681h2.499zM121.15728 50h10.183v-3.281h-6.783v-1.7h5.576v-3.077h-5.576v-1.904h6.783V36.74h-10.183V50zM81.055 65.087h3.213v.374c-.629.918-1.649 1.513-2.839 1.513-2.006 0-3.604-1.598-3.604-3.604 0-2.006 1.598-3.604 3.604-3.604 1.156 0 2.176.527 2.839 1.36l2.771-1.87c-1.275-1.666-3.332-2.771-5.61-2.771-3.842 0-7.038 3.094-7.038 6.885s3.196 6.885 7.038 6.885c1.36 0 2.703-.51 3.349-1.496V70h2.669v-7.735h-6.392v2.822zM90.32543 70h10.183v-3.281h-6.783v-1.7h5.576v-3.077h-5.576v-1.904h6.783V56.74h-10.183V70zm16.39343 0v-7.395l5.916 7.395h2.873V56.74h-3.383v7.412l-5.916-7.412h-2.89V70h3.4zm11.99042 0h10.183v-3.281h-6.783v-1.7h5.576v-3.077h-5.576v-1.904h6.783V56.74h-10.183V70zm12.99343-13.26V70h3.383v-3.553h1.734l2.516 3.553h4.063l-2.873-4.012c1.785-.816 2.618-2.55 2.618-4.403 0-2.635-1.564-4.845-4.964-4.845h-6.477zm6.29 3.094c1.36 0 1.87.765 1.87 1.785 0 .918-.51 1.751-1.87 1.751h-2.907v-3.536h2.907zm11.99043-3.094l-5.372 13.26h3.706l.731-1.938h5.219l.731 1.938h3.706l-5.355-13.26h-3.366zm3.128 8.245h-2.907l1.462-3.893 1.445 3.893zm4.91843-4.947h4.131V70h3.4v-9.962h4.131V56.74h-11.662v3.298zM171.176 63.37c0 3.791 3.213 6.885 7.038 6.885 3.876 0 7.038-3.094 7.038-6.885s-3.162-6.885-7.038-6.885c-3.825 0-7.038 3.094-7.038 6.885zm3.434 0c0-2.006 1.615-3.604 3.604-3.604 2.04 0 3.604 1.598 3.604 3.604 0 2.006-1.564 3.604-3.604 3.604-1.989 0-3.604-1.598-3.604-3.604zm13.21442-6.63V70h3.383v-3.553h1.734l2.516 3.553h4.063l-2.873-4.012c1.785-.816 2.618-2.55 2.618-4.403 0-2.635-1.564-4.845-4.964-4.845h-6.477zm6.29 3.094c1.36 0 1.87.765 1.87 1.785 0 .918-.51 1.751-1.87 1.751h-2.907v-3.536h2.907z"/></g></svg>