<svg xmlns="http://www.w3.org/2000/svg" xmlns:xlink="http://www.w3.org/1999/xlink" width="1031.41" height="234.68" viewBox="0 0 1031.41 234.68">
  <defs>
    <clipPath id="clip-Logo_Black">
      <rect width="1031.41" height="234.68"/>
    </clipPath>
  </defs>
  <g id="Logo_Black" data-name="Logo Black" clip-path="url(#clip-Logo_Black)">
    <g id="Webapp" transform="translate(-0.346)">
      <g id="Artboard-Copy-29" transform="translate(0.346)">
        <g id="gcms1" transform="translate(0)">
          <g id="Group-6" transform="translate(0)">
            <path id="Path" d="M109.62,31.29,82.3,46.935,54.984,62.579,27.664,78.225V172.1l27.32-15.646L82.3,140.8V109.515L54.984,125.16V93.871L82.3,78.225,109.62,62.579V156.45L82.3,172.1,54.984,187.74l-27.32,15.646L.346,219.029l27.318,15.646,27.32-15.646L82.3,203.385,109.62,187.74,136.94,172.1V15.646L109.62,0Z" transform="translate(-0.346)" fill-rule="evenodd"/>
          </g>
          <path id="Shape" d="M140.518,22.849h23.61v94.044q0,22.918-14.333,34.971a51.927,51.927,0,0,1-34.565,12.051,55.842,55.842,0,0,1-26.649-6.127A41.631,41.631,0,0,1,70.91,139.8l20.53-12.5q7.117,13.887,24.539,13.888,11.424,0,17.983-6.336t6.556-18.023v-10.7q-10.678,15.015-29.972,15.015a42.977,42.977,0,0,1-33.173-14.721A51.452,51.452,0,0,1,64.011,70.561,51.284,51.284,0,0,1,77.467,34.819a42.958,42.958,0,0,1,33.08-14.81q19.294,0,29.972,15.022ZM95.468,90.031a27.088,27.088,0,0,0,37.651,0,26.787,26.787,0,0,0,7.4-19.47,26.535,26.535,0,0,0-7.4-19.273,27.088,27.088,0,0,0-37.651,0,26.524,26.524,0,0,0-7.4,19.273A26.776,26.776,0,0,0,95.468,90.031Z" transform="translate(135.175 42.58)"/>
          <path id="Path-2" data-name="Path" d="M125.387,38.244a25.571,25.571,0,0,1,11.274-13.681A34.308,34.308,0,0,1,154.193,20V47.326A28.733,28.733,0,0,0,134.2,51.9q-8.81,5.9-8.811,19.605V117H101V21.976h24.387Z" transform="translate(213.948 42.58)" fill-rule="evenodd"/>
          <path id="Shape-2" data-name="Shape" d="M196.035,22.724h24.093V117.4H196.035V106.271q-10.87,13.857-30.555,13.856a42.151,42.151,0,0,1-32.088-14.494,50.5,50.5,0,0,1-13.377-35.569,50.518,50.518,0,0,1,13.377-35.569A42.158,42.158,0,0,1,165.48,20q19.685,0,30.555,13.856ZM151.422,89.336a24.8,24.8,0,0,0,18.558,7.5,25.125,25.125,0,0,0,18.652-7.5,26.275,26.275,0,0,0,7.4-19.272,26.271,26.271,0,0,0-7.4-19.27,25.125,25.125,0,0,0-18.652-7.5,24.807,24.807,0,0,0-18.558,7.5,26.45,26.45,0,0,0-7.312,19.27A26.455,26.455,0,0,0,151.422,89.336Z" transform="translate(254.398 42.58)"/>
          <path id="Shape-3" data-name="Shape" d="M211.46,20a42.031,42.031,0,0,1,32.276,14.757,51.975,51.975,0,0,1,13.376,36.216,51.961,51.961,0,0,1-13.376,36.216,42.026,42.026,0,0,1-32.276,14.757q-19.68,0-30.367-14.074v49.8H157V22.774h24.093V34.11Q191.776,20,211.46,20ZM188.4,90.6a24.583,24.583,0,0,0,18.561,7.635A24.881,24.881,0,0,0,225.613,90.6a27.016,27.016,0,0,0,7.407-19.623,27.009,27.009,0,0,0-7.407-19.62,24.883,24.883,0,0,0-18.649-7.637A24.581,24.581,0,0,0,188.4,51.355a27.218,27.218,0,0,0-7.309,19.62A27.224,27.224,0,0,0,188.4,90.6Z" transform="translate(333.172 42.58)"/>
          <path id="Path-3" data-name="Path" d="M248.038,44.462A34.906,34.906,0,0,1,274.35,55.294q10.391,10.83,10.391,29.93v60.452H259.725V88.333q0-9.85-5.257-15.073a19.032,19.032,0,0,0-14.027-5.223,20.564,20.564,0,0,0-15.582,6.11q-5.843,6.108-5.842,18.324v53.205H194V8h25.016V58.214Q228.169,44.463,248.038,44.462Z" transform="translate(411.945 17.032)" fill-rule="evenodd"/>
          <path id="Path-4" data-name="Path" d="M279.417,120.115a52.41,52.41,0,0,1-37.332-14.307,48.132,48.132,0,0,1-15.075-35.751c.134-17.957,10.213-34.49,26.462-43.4a54.5,54.5,0,0,1,52.417.127A40.845,40.845,0,0,1,323,45.017l-10.745,5.926a30.166,30.166,0,0,0-12.835-13.666,39.58,39.58,0,0,0-20-5.067A38.509,38.509,0,0,0,251.556,43.2a35.959,35.959,0,0,0-11.343,26.855,35.964,35.964,0,0,0,11.343,26.858,39.593,39.593,0,0,0,32.779,10.973A38.669,38.669,0,0,0,313.05,89.173L324,95.289a44.99,44.99,0,0,1-18.111,18.142A53.294,53.294,0,0,1,279.417,120.115Z" transform="translate(482.202 42.58)" fill-rule="evenodd"/>
          <path id="Path-5" data-name="Path" d="M362.9,20.029a34.368,34.368,0,0,1,25.924,10.228q9.852,10.225,9.853,27.651V117H385.994V57.894q0-12.311-6.4-19.038a22.235,22.235,0,0,0-16.89-6.725,25.049,25.049,0,0,0-19.181,7.862q-7.35,7.864-7.347,24.531V117H323.5V57.894q0-12.5-6.011-19.132a20.935,20.935,0,0,0-16.318-6.63A26.6,26.6,0,0,0,281.7,40.088q-8.016,7.956-8.017,24.436V117H261V22.3h12.682V36.109a32.765,32.765,0,0,1,29.2-16.081q20.651,0,29.065,17.218Q342.266,20.029,362.9,20.029Z" transform="translate(554.588 42.58)" fill-rule="evenodd"/>
          <path id="Path-6" data-name="Path" d="M322.555,47.077a11.485,11.485,0,0,0,6.061,10.171,55.461,55.461,0,0,0,14.7,6.127q8.622,2.356,17.253,4.707a31.346,31.346,0,0,1,14.572,8.5,22.1,22.1,0,0,1,5.929,16.079A23.761,23.761,0,0,1,370.9,112.5q-10.147,7.626-26.215,7.605a46.768,46.768,0,0,1-24.563-6.136A33.149,33.149,0,0,1,306,98.115l11.249-6.295a22.647,22.647,0,0,0,10.113,11.764A33.631,33.631,0,0,0,344.7,107.9a33.1,33.1,0,0,0,16.424-3.7,12.344,12.344,0,0,0,6.624-11.535,11.7,11.7,0,0,0-5.985-10.305,53.188,53.188,0,0,0-14.622-6.177l-17.256-4.709A32.259,32.259,0,0,1,315.24,63.09a21.346,21.346,0,0,1-6-15.8A24.046,24.046,0,0,1,319,27.826a38.051,38.051,0,0,1,24.613-7.8A42.715,42.715,0,0,1,365.085,25.3a32.844,32.844,0,0,1,13.63,14.233l-11.105,6.1q-5.787-13.38-24.012-13.4a27.506,27.506,0,0,0-14.822,3.842A12.251,12.251,0,0,0,322.555,47.077Z" transform="translate(650.393 42.58)" fill-rule="evenodd"/>
        </g>
      </g>
    </g>
  </g>
</svg>
