<svg xmlns="http://www.w3.org/2000/svg" role="img" viewBox="3.65 17.65 148.46 70.21"><title>GraphQL Mesh logo</title><g fill="none" fill-rule="evenodd"><path fill="#FFF" d="M0 0h215v105H0z"/><g fill="#1BCBE2"><path d="M42.04 80.31454c0 .2538-.02485.50156-.06325.7448-.00452.03088-.00829.061-.01356.09113-.39763 2.2841-2.38954 4.02675-4.78511 4.02675-2.1365 0-3.9507-1.38719-4.60211-3.30605L12.3458 70.19231c-2.00622-1.15825-3.24129-3.29928-3.24129-5.61426V44.90668c.74932.25379 1.54835.39763 2.38352.39763.74932 0 1.47229-.11372 2.15458-.32007v19.5938c0 .6921.37203 1.33674.97299 1.68316l18.8716 10.89565c.8924-1.04152 2.21407-1.70499 3.69087-1.70499 1.60633 0 3.02816.78547 3.91454 1.98966.01582.02184.03238.04292.0482.06476a5.05618 5.05618 0 0 1 .17698.27036c.02183.0354.04367.07004.06476.10618.0497.0851.09564.17246.14007.26057.0241.04745.0467.0949.06854.14309.0384.08209.0738.16492.10769.24927.0241.06025.04518.1205.06702.1815.02711.0768.05347.15438.07606.2327.0226.0753.03916.15062.058.22517.01731.0708.03539.14083.04894.21237.01883.09414.03088.18903.04443.28467.00678.05799.01808.11296.02335.1702.0143.15588.02334.31253.02334.47218zm24.87972-42.46579c0 1.45873-.64765 2.76609-1.66884 3.65774v23.07156c0 2.31498-1.2343 4.456-3.24128 5.61426L44.62912 80.22643c-.01958-1.64173-.5746-3.15317-1.49488-4.3777l16.6063-9.58753c.60022-.34642.97224-.99107.97224-1.68315V42.51789c-2.02806-.5844-3.51766-2.45431-3.51766-4.66914 0-1.07842.35771-2.0725.95416-2.87905.00828-.0128.01807-.0256.02786-.0384.11221-.14912.2327-.29296.36148-.42851l.01732-.01883c.2666-.27789.56482-.52189.89015-.7305.03389-.02183.06929-.04141.10393-.06325.12878-.07682.26057-.14987.39612-.21539.03991-.01882.07983-.03916.1205-.05723.16944-.07681.34416-.1476.52414-.20333.00076 0 .00076 0 .00076-.00076.46314-.14685.9549-.22743 1.46626-.22743 2.68174 0 4.86192 2.18094 4.86192 4.86268zM9.10452 42.0826c-1.47755-.83517-2.47916-2.41891-2.47916-4.23385 0-2.68174 2.18094-4.86268 4.86268-4.86268.6951 0 1.3548.14987 1.9535.41345l20.4945-11.8325c1.00236-.57912 2.12295-.8683 3.24129-.8683 1.11984 0 2.23967.28918 3.24203.8683l17.4829 10.09437c-1.28627.86756-2.2826 2.12822-2.82934 3.60503l-16.9226-9.76904c-.29522-.17095-.63185-.26057-.973-.26057-.34039 0-.67627.08962-.97223.26057L16.2724 37.00605c.0482.27412.07757.55427.07757.8427 0 2.09207-1.3307 3.87463-3.18782 4.55919-.0143.00527-.02937.0113-.04292.01581-.14836.05196-.29672.0979-.4496.1363-.03087.00754-.061.01658-.09187.0226-.14008.03238-.28316.05799-.427.07832-.03916.00527-.07757.0128-.11748.01732-.17924.02034-.36073.03314-.54524.03314-.19806 0-.3931-.01582-.5859-.03916-.0512-.00603-.10167-.01506-.15363-.02335-.1476-.02259-.2922-.0512-.43604-.08735-.04367-.0113-.0881-.0211-.13254-.0339-.3788-.10693-.73953-.25529-1.0754-.44507z"/><path d="M37.09804 60.24468c.45155 0 .81904.3677.81904.81925v3.47454c1.22383.35942 2.08824 1.49516 2.08824 2.78955 0 1.60301-1.30427 2.90727-2.90728 2.90727s-2.90728-1.30426-2.90728-2.90727c0-1.29439.8644-2.43013 2.08823-2.78955v-3.47454c0-.45156.3675-.81925.81905-.81925zm0 5.81435c-.6997 0-1.26899.56928-1.26899 1.26899 0 .6997.56928 1.26898 1.26899 1.26898.6997 0 1.26898-.56928 1.26898-1.26898s-.56927-1.26899-1.26898-1.26899zm5.6217-8.143c.31951-.3191.8392-.3193 1.15871-.0002l1.05813 1.05833c.62713-.4064 1.34881-.62008 2.10295-.62008 2.14044 0 3.88174 1.7413 3.88174 3.88155 0 2.14044-1.7413 3.88174-3.88154 3.88174-2.14024 0-3.88154-1.7413-3.88154-3.88174 0-.75434.21368-1.47602.61987-2.10315l-1.05812-1.05813c-.15462-.15441-.2399-.36023-.2399-.57896 0-.21872.08528-.42433.2397-.57935zm-12.40216-.0002c.31992-.3189.83941-.3185 1.15852.0004.31931.31932.31931.839 0 1.15832l-1.05813 1.05813c.4064.62713.62008 1.34881.62008 2.10295 0 2.14044-1.7413 3.88174-3.88154 3.88174-2.14044 0-3.88174-1.7413-3.88174-3.88174 0-2.14025 1.7413-3.88155 3.88174-3.88155.75413 0 1.47581.21368 2.10295.62008zm16.72195 2.07654c-1.23694 0-2.24325 1.00632-2.24325 2.24326 0 1.23713 1.00631 2.24345 2.24325 2.24345 1.23713 0 2.24345-1.00632 2.24345-2.24345 0-1.23694-1.00632-2.24326-2.24345-2.24326zm-19.88302 0c-1.23713 0-2.24345 1.00632-2.24345 2.24326 0 1.23713 1.00632 2.24345 2.24345 2.24345 1.23693 0 2.24325-1.00632 2.24325-2.24345 0-1.23694-1.00632-2.24326-2.24325-2.24326zm9.65397-14.72932a.81654.81654 0 0 1 .57512 0l6.125 2.29667c.3179.11914.53158.42737.53158.76704v3.73197c0 .45155-.36749.81904-.81924.81904-.45156 0-.81905-.3675-.81905-.81904v-2.55007l-4.4867 1.68264v6.18507l4.4867-1.68264v-1.22645c0-.45156.3675-.81925.81905-.81925.45175 0 .81924.3677.81924.81925v1.79412c0 .33967-.21368.6477-.53158.76683l-6.125 2.29708a.82763.82763 0 0 1-.16671.04313v.10987l-6.53341-2.44988c-.3179-.11914-.53158-.42736-.53158-.76703v-3.85816c0-.45176.36749-.81925.81924-.81925.45156 0 .81905.3675.81905.81925v3.29069l4.4867 1.68244V51.1913l-4.4867-1.68264v.47715c0 .45176-.3675.81925-.81905.81925-.45175 0-.81924-.3675-.81924-.81925v-1.65905c0-.33947.21368-.6477.53138-.76704zm15.32146 4.1238c1.60301 0 2.90728 1.30425 2.90728 2.90727 0 1.60301-1.30427 2.90727-2.90728 2.90727-1.29439 0-2.43012-.8644-2.78955-2.08823h-3.47454c-.45156 0-.81925-.36749-.81925-.81904 0-.45156.3677-.81905.81925-.81905h3.47454c.35943-1.22383 1.49516-2.08823 2.78955-2.08823zm-30.06784 0c1.29438 0 2.43012.8644 2.78955 2.08822h3.47454c.45176 0 .81925.3675.81925.81905 0 .45155-.3675.81904-.81925.81904h-3.47454c-.35943 1.22383-1.49517 2.08823-2.78955 2.08823-1.60301 0-2.90728-1.30426-2.90728-2.90727 0-1.60302 1.30427-2.90728 2.90728-2.90728zm30.06784 1.63828c-.6997 0-1.26899.56928-1.26899 1.26899 0 .6997.56928 1.26898 1.26899 1.26898.6997 0 1.26898-.56928 1.26898-1.26898s-.56928-1.26899-1.26898-1.26899zm-30.06784 0c-.6997 0-1.26899.56928-1.26899 1.26899 0 .6997.56928 1.26898 1.26899 1.26898.6997 0 1.26878-.56928 1.26878-1.26898s-.56907-1.26899-1.26878-1.26899zm15.03384-4.12056l-3.79204 1.42219 3.79204 1.42219 3.79224-1.4222-3.79224-1.42218zm9.94163-8.4337c2.14044 0 3.88174 1.7413 3.88174 3.88174 0 2.14024-1.7413 3.88154-3.88174 3.88154-.75414 0-1.47582-.21368-2.10295-.62008l-1.05813 1.05813c-.15502.15462-.36084.23989-.57936.23989-.21872 0-.42413-.08527-.57915-.2401-.31932-.3193-.31932-.839 0-1.1583l1.05812-1.05813c-.4064-.62714-.62008-1.34882-.62008-2.10295 0-2.14044 1.7413-3.88175 3.88155-3.88175zm-19.88302 0c2.14044 0 3.88175 1.7413 3.88175 3.88174 0 .75413-.21369 1.47581-.62028 2.10315l1.05812 1.05812c.15462.15442.23989.36024.23989.57896 0 .21872-.08527.42434-.23969.57936-.15542.15462-.36084.23989-.57936.23989s-.42433-.08527-.57915-.23969l-1.05833-1.05833c-.62714.4064-1.34881.62008-2.10295.62008-2.14044 0-3.88174-1.7413-3.88174-3.88154 0-2.14044 1.7413-3.88175 3.88174-3.88175zm19.88302 1.63829c-1.23694 0-2.24325 1.00631-2.24325 2.24345 0 1.23693 1.00631 2.24325 2.24325 2.24325 1.23713 0 2.24345-1.00632 2.24345-2.24325 0-1.23714-1.00632-2.24345-2.24345-2.24345zm-19.88302 0c-1.23713 0-2.24345 1.00631-2.24345 2.24345 0 1.23693 1.00632 2.24325 2.24345 2.24325 1.23693 0 2.24325-1.00632 2.24325-2.24325 0-1.23714-1.00632-2.24345-2.24325-2.24345zm9.94149-5.75622c1.60301 0 2.90728 1.30426 2.90728 2.90728 0 1.29438-.8644 2.43012-2.08824 2.78955v3.47454c0 .45155-.36749.81925-.81904.81925s-.81905-.3677-.81905-.81925v-3.47454c-1.22383-.35943-2.08823-1.49517-2.08823-2.78955 0-1.60302 1.30427-2.90728 2.90728-2.90728zm0 1.6383c-.6997 0-1.26899.56927-1.26899 1.26898 0 .6997.56928 1.26898 1.26899 1.26898.6997 0 1.26898-.56928 1.26898-1.26898s-.56927-1.26899-1.26898-1.26899z"/></g><path fill="#6D7A99" fill-rule="nonzero" d="M78.565 41.821h2.079v.242c-.407.594-1.067.979-1.837.979-1.298 0-2.332-1.034-2.332-2.332 0-1.298 1.034-2.332 2.332-2.332.748 0 1.408.341 1.837.88l1.793-1.21c-.825-1.078-2.156-1.793-3.63-1.793-2.486 0-4.554 2.002-4.554 4.455 0 2.453 2.068 4.455 4.554 4.455.88 0 1.749-.33 2.167-.968V45h1.727v-5.005h-4.136v1.826zm7.74557-5.401V45h2.189v-2.299h1.122l1.628 2.299h2.629l-1.859-2.596c1.155-.528 1.694-1.65 1.694-2.849 0-1.705-1.012-3.135-3.212-3.135h-4.191zm4.07 2.002c.88 0 1.21.495 1.21 1.155 0 .594-.33 1.133-1.21 1.133h-1.881v-2.288h1.881zm9.50557-2.002l-3.476 8.58h2.398l.473-1.254h3.377l.473 1.254h2.398l-3.465-8.58h-2.178zm2.024 5.335h-1.881l.946-2.519.935 2.519zM108.68771 45h2.2v-1.947h1.584c2.277 0 3.366-1.529 3.366-3.344 0-1.727-1.089-3.289-3.366-3.289h-3.784V45zm3.663-6.578c.924 0 1.265.616 1.265 1.298 0 .759-.341 1.331-1.265 1.331h-1.463v-2.629h1.463zm12.51958-2.002v3.333h-3.498V36.42h-2.189V45h2.189v-3.19h3.498V45h2.2v-8.58h-2.2zm5.61157 4.29c0 2.2 1.672 4.048 3.806 4.389 1.485.495 2.486 2.035 4.213 2.035.781 0 1.782-.319 2.398-1.166l-1.661-1.342c-.231.352-.627.385-.748.385-.374 0-.726-.198-1.122-.473 1.331-.781 2.222-2.2 2.222-3.828 0-2.453-2.046-4.455-4.554-4.455-2.475 0-4.554 2.002-4.554 4.455zm2.222 0c0-1.298 1.045-2.332 2.332-2.332 1.32 0 2.332 1.034 2.332 2.332 0 1.298-1.012 2.332-2.332 2.332-1.287 0-2.332-1.034-2.332-2.332zM143.01243 45v-8.58h2.189v6.457h4.114V45h-6.303z"/><path fill="#000" fill-rule="nonzero" d="M77.56493 65.6469v-6.53763l2.88582 6.00323h2.3336l2.88582-6.00323v6.53764h3.54493V51.7522h-3.58055l-4.0259 8.78216-4.0081-8.78216H74.02v13.8947h3.54493zm28.03146 0v-3.43804h-7.10767v-1.78137h5.8429V57.2032h-5.8429v-1.99513h7.10767V51.7522H94.92597v13.8947h10.67042zm10.64527.26721c3.17085 0 5.52226-1.4251 5.52226-4.13278 0-3.04615-3.27773-4.18622-5.2016-4.86314-1.65668-.57004-2.29798-.85506-2.29798-1.40729 0-.46316.48097-.94413 1.6923-.94413 1.44292 0 2.13765.80162 2.13765 1.47854v.1247h3.47368v-.19595c0-2.76113-2.44048-4.48906-5.68258-4.48906-3.17084 0-5.43319 1.65668-5.43319 4.31092 0 2.86801 2.90364 3.93683 5.11254 4.6672 1.6745.57003 2.36923.9263 2.36923 1.51416 0 .40972-.42753.85506-1.76356.85506-1.62105 0-2.35141-.73036-2.35141-1.26477v-.08907h-3.47368v.16032c0 2.7255 2.56518 4.2753 5.89634 4.2753zm14.22583-.2672v-5.16598h5.66477v5.16598h3.56274V51.7522h-3.56274v5.39755h-5.66477v-5.39755h-3.54493v13.8947h3.54493z"/></g></svg>