<svg xmlns="http://www.w3.org/2000/svg" role="img" viewBox="49.14 25.14 1500.72 448.72"><title>GraphiQL logo</title><g fill="#e434aa"><path d="M601.35493 334.65368q-20.89628 0-35.2321-8.01834-14.09284-8.26132-21.62522-22.84012-7.2894-14.5788-8.01834-33.53124-.24298-10.9341-.24298-23.0831 0-12.149.24298-23.0831.72894-19.19542 8.01834-33.53124 7.53238-14.5788 21.8682-22.59714 14.33582-8.26132 34.98912-8.26132 16.76562 0 28.67164 5.10258 11.90601 4.8596 19.43839 12.39198 7.53238 7.2894 11.17708 14.82178 3.6447 7.53238 3.88768 12.63496.24298 2.18682-1.2149 3.6447-1.45788 1.2149-3.88768 1.2149h-5.34556q-2.18682 0-3.15874-.97192-.97192-1.2149-1.94384-3.88768-2.4298-7.53238-8.26132-14.33582-5.58854-7.04642-15.30773-11.42006-9.47622-4.61662-24.05502-4.61662-21.62522 0-35.2321 11.90602-13.3639 11.66304-14.33582 39.11978-.72894 21.8682 0 43.7364.97192 27.21376 14.33582 39.11978 13.60688 11.90602 35.2321 11.90602 14.33582 0 25.75588-5.34556 11.42005-5.58854 17.98051-16.76562 6.56046-11.42006 6.56046-28.91462V256.6571h-42.27851q-2.4298 0-3.88768-1.45788-1.45788-1.70086-1.45788-4.13066v-3.40172q0-2.67278 1.45788-4.13066 1.45788-1.45788 3.88768-1.45788h51.99771q2.67278 0 4.13066 1.45788 1.45788 1.45788 1.45788 4.13066v21.38224q0 19.4384-7.77536 34.26018-7.53238 14.82178-22.35416 23.0831-14.57879 8.26132-35.47507 8.26132zm105.22551-2.4298q-2.4298 0-3.88768-1.45788-1.45788-1.45788-1.45788-3.88768v-115.4155q0-2.4298 1.45788-3.88768 1.45788-1.70086 3.88768-1.70086h3.88768q2.4298 0 3.88768 1.70086 1.70086 1.45788 1.70086 3.88768v11.17708q4.37364-8.5043 12.63496-12.63496 8.26132-4.13066 20.41032-4.13066h8.99026q2.4298 0 3.88768 1.45788 1.45788 1.45788 1.45788 3.88768v3.40172q0 2.4298-1.45788 3.88768-1.45788 1.45788-3.88768 1.45788h-10.44814q-14.5788 0-23.0831 8.5043-8.5043 8.5043-8.5043 23.0831v75.3238q0 2.4298-1.70086 3.88768-1.45788 1.45788-3.88768 1.45788zm111.24688 2.4298q-11.66304 0-21.62522-4.8596-9.7192-4.8596-15.7937-12.87794-6.0745-8.26132-6.0745-18.46648 0-16.52264 13.3639-26.48482t34.74614-12.87794l38.39084-5.34556v-8.5043q0-12.87794-8.01834-20.16734-7.77536-7.53238-25.02694-7.53238-12.63496 0-20.41032 5.10258-7.77536 4.8596-10.69112 12.87794-1.2149 3.6447-4.61662 3.6447h-3.88768q-2.91576 0-4.13066-1.45788-1.2149-1.70086-1.2149-3.88768 0-3.40172 2.4298-8.5043 2.67278-5.10258 8.01834-9.96218 5.34556-5.10258 13.84986-8.5043 8.5043-3.40172 20.6533-3.40172 14.33582 0 23.56906 3.88768 9.47622 3.88768 14.5788 10.20516 5.34556 6.0745 7.53238 13.60688 2.18682 7.53238 2.18682 14.82178v80.91234q0 2.4298-1.45788 3.88768-1.45788 1.45788-3.88768 1.45788h-4.13066q-2.4298 0-3.88768-1.45788-1.45788-1.45788-1.45788-3.88768v-11.42006q-2.91576 4.37364-8.26132 8.74728-5.34556 4.37364-13.84986 7.53238-8.26132 2.91576-20.89628 2.91576zm2.4298-14.09284q11.17708 0 20.41032-4.8596 9.23324-4.8596 14.5788-14.82178 5.58854-10.20516 5.58854-25.5129v-8.26132l-31.34442 4.37364q-19.92436 2.67278-30.12952 9.23324-10.20516 6.56046-10.20516 16.52264 0 8.01834 4.61662 13.12092t11.66304 7.77536q7.2894 2.4298 14.82178 2.4298zm99.1738 57.82924q-2.4298 0-3.88768-1.45788-1.45788-1.45788-1.45788-3.88768V211.21984q0-2.4298 1.45788-3.88768 1.45788-1.45788 3.88768-1.45788h4.13066q2.4298 0 3.88768 1.45788 1.45788 1.45788 1.45788 3.88768v11.42006q6.0745-8.26132 15.7937-13.60688 9.96218-5.58854 25.02694-5.58854 14.33582 0 24.05502 5.10258 9.7192 4.8596 15.7937 13.12092 6.0745 8.26132 8.9903 18.46648 2.9157 10.20516 3.1587 20.89628.243 3.6447.243 8.01834t-.243 8.01834q-.243 10.69112-3.1587 20.89628-2.9158 10.20516-8.9903 18.46648-6.0745 8.26132-15.7937 13.3639-9.7192 4.8596-24.05502 4.8596-15.06476 0-25.02694-5.58854-9.7192-5.58854-15.7937-13.60688v57.58626q0 2.4298-1.45788 3.88768-1.45788 1.45788-3.88768 1.45788zm48.83898-57.82924q14.3358 0 22.5971-6.31748 8.2614-6.31748 11.9061-16.52264 3.6447-10.20516 4.1306-21.8682.243-6.80344 0-13.60688-.4859-11.66304-4.1306-21.8682-3.6447-10.20516-11.9061-16.52264-8.2613-6.31748-22.5971-6.31748-13.84986 0-22.35416 6.56046t-12.63496 16.52264q-3.88768 9.7192-4.37364 19.68138-.24298 3.6447-.24298 9.47622 0 5.83152.24298 9.47622.24298 9.7192 4.37364 19.19542 4.37364 9.47622 12.87794 15.7937 8.74728 6.31748 22.11118 6.31748zm92.1084 11.66304q-2.4298 0-3.8877-1.45788t-1.4579-3.88768V165.05364q0-2.4298 1.4579-3.88768 1.4579-1.45788 3.8877-1.45788h4.1306q2.4298 0 3.8877 1.45788t1.4579 3.88768v57.58626q6.5605-8.5043 15.7937-13.84986 9.4762-5.34556 25.0269-5.34556 16.5227 0 27.4568 7.2894 11.1771 7.04642 16.5226 19.4384 5.5886 12.149 5.5886 27.69972v69.00632q0 2.4298-1.4579 3.88768-1.4579 1.45788-3.8877 1.45788h-4.1307q-2.4298 0-3.8876-1.45788-1.4579-1.45788-1.4579-3.88768V259.0869q0-19.4384-9.4762-30.3725-9.4763-11.17708-27.6998-11.17708-17.2515 0-27.9427 11.17708-10.4481 10.9341-10.4481 30.3725v67.79142q0 2.4298-1.4579 3.88768-1.4579 1.45788-3.8877 1.45788zm143.5518 0q-2.4298 0-3.8877-1.45788t-1.4579-3.88768V211.21984q0-2.4298 1.4579-3.88768 1.4579-1.45788 3.8877-1.45788h4.1307q2.4298 0 3.8876 1.45788 1.4579 1.45788 1.4579 3.88768v115.65848q0 2.4298-1.4579 3.88768-1.4578 1.45788-3.8876 1.45788zm-2.6728-152.34846q-2.4298 0-3.8877-1.45788-1.4578-1.45788-1.4578-3.88768v-9.23324q0-2.4298 1.4578-3.88768 1.4579-1.70086 3.8877-1.70086h9.2333q2.4298 0 3.8876 1.70086 1.7009 1.45788 1.7009 3.88768v9.23324q0 2.4298-1.7009 3.88768-1.4578 1.45788-3.8876 1.45788zm164.6569 168.14216q-2.6727 0-4.6166-2.18682-1.9438-1.94384-3.1587-3.40172l-10.6911-14.82178q-14.5788 7.04642-34.0172 7.04642-20.1674 0-34.2602-7.04642-14.0929-7.2894-21.6252-22.11118-7.5324-15.06476-8.2614-37.90488-.2429-10.9341-.2429-20.41032 0-9.47622.2429-20.41032.729-22.59714 8.7473-37.41892 8.0184-15.06476 22.1112-22.35416 14.3358-7.2894 33.2883-7.2894 18.9524 0 33.0452 7.2894 14.3359 7.2894 22.3542 22.35416 8.2613 14.82178 8.7473 37.41892.4859 10.9341.4859 20.41032 0 9.47622-.4859 20.41032-1.2149 34.74614-17.7376 51.0258l15.5507 21.8682q.243.24298.486.72894.243.72894.243 1.94384 0 1.94384-1.4579 3.40172t-3.4017 1.45788zm-52.4836-27.9427q20.8962 0 34.2601-12.63496 13.6069-12.63496 14.5788-41.06362.486-10.9341.486-19.19542 0-8.26132-.486-19.19542-.4859-18.95244-7.0464-30.85846-6.3175-11.90602-17.2516-17.25158-10.6911-5.58854-24.5409-5.58854-13.6069 0-24.541 5.58854-10.6911 5.34556-17.2516 17.25158-6.3175 11.90602-7.0464 30.85846-.243 10.9341-.243 19.19542 0 8.26132.243 19.19542.9719 28.42866 14.5788 41.06362t34.2602 12.63496zm108.6386 12.149q-2.4298 0-3.8877-1.45788t-1.4579-3.88768V167.48344q0-2.4298 1.4579-3.88768 1.4579-1.45788 3.8877-1.45788h4.6166q2.4298 0 3.8877 1.45788t1.4579 3.88768v150.16164h83.8281q2.6727 0 4.1306 1.45788 1.4579 1.45788 1.4579 4.13066v3.6447q0 2.4298-1.4579 3.88768-1.4579 1.45788-4.1306 1.45788z"/><path d="M110.279 352.66l-14.376-8.3 160.15-277.38 14.376 8.3z"/><path d="M92.611 322.2h320.3v16.6h-320.3z"/><path d="M259.159 424.026l-160.21-92.5 8.3-14.376 160.21 92.5zm139.174-241.079l-160.21-92.5 8.301-14.376 160.21 92.5z"/><path d="M107.293 182.883l-8.3-14.375 160.21-92.5 8.301 14.375z"/><path d="M395.379 352.663l-160.15-277.38 14.376-8.3 160.15 277.38zM105.311 157.5h16.6v185h-16.6z"/><path d="M383.711 157.5h16.6v185h-16.6z"/><path d="M256.333 416.999l-7.25-12.557 139.339-80.45 7.25 12.557z"/><path d="M422.312 347.9c-9.6 16.7-31 22.4-47.7 12.8-16.701-9.6-22.4-31-12.8-47.7 9.599-16.7 31-22.4 47.699-12.8 16.801 9.7 22.5 31 12.801 47.7M143.711 187c-9.6 16.7-31 22.4-47.7 12.8-16.7-9.6-22.4-31-12.8-47.7 9.6-16.7 31-22.4 47.7-12.8 16.7 9.7 22.4 31 12.8 47.7m-60.4 160.9c-9.6-16.7-3.9-38 12.8-47.7 16.7-9.6 38-3.9 47.7 12.8 9.6 16.7 3.9 38-12.8 47.7-16.8 9.6-38.1 3.9-47.7-12.8m278.6-160.9c-9.6-16.7-3.9-38 12.8-47.7 16.7-9.6 38-3.9 47.7 12.8 9.6 16.7 3.9 38-12.8 47.7-16.7 9.6-38.1 3.9-47.7-12.8m-109.1 258.8c-19.3 0-34.9-15.6-34.9-34.9 0-19.3 15.6-34.9 34.9-34.9 19.301 0 34.9 15.6 34.9 34.9 0 19.2-15.599 34.9-34.9 34.9m0-321.8c-19.3 0-34.9-15.6-34.9-34.9 0-19.3 15.6-34.9 34.9-34.9 19.301 0 34.9 15.6 34.9 34.9 0 19.3-15.599 34.9-34.9 34.9"/></g></svg>