<svg xmlns="http://www.w3.org/2000/svg" role="img" viewBox="2.79 16.79 192.92 71.92"><title>GraphQL Inspector Service logo</title><g fill="none" fill-rule="evenodd"><path fill="#FFF" d="M0 0h215v105H0z"/><g fill="#59F79D"><path d="M42.04 80.31454c0 .2538-.02485.50156-.06325.7448-.00452.03088-.00829.061-.01356.09113-.39763 2.2841-2.38954 4.02675-4.78511 4.02675-2.1365 0-3.9507-1.38719-4.60211-3.30605L12.3458 70.19231c-2.00622-1.15825-3.24129-3.29928-3.24129-5.61426V44.90668c.74932.25379 1.54835.39763 2.38352.39763.74932 0 1.47229-.11372 2.15458-.32007v19.5938c0 .6921.37203 1.33674.97299 1.68316l18.8716 10.89565c.8924-1.04152 2.21407-1.70499 3.69087-1.70499 1.60633 0 3.02816.78547 3.91454 1.98966.01582.02184.03238.04292.0482.06476a5.05618 5.05618 0 0 1 .17698.27036c.02183.0354.04367.07004.06476.10618.0497.0851.09564.17246.14007.26057.0241.04745.0467.0949.06854.14309.0384.08209.0738.16492.10769.24927.0241.06025.04518.1205.06702.1815.02711.0768.05347.15438.07606.2327.0226.0753.03916.15062.058.22517.01731.0708.03539.14083.04894.21237.01883.09414.03088.18903.04443.28467.00678.05799.01808.11296.02335.1702.0143.15588.02334.31253.02334.47218zm24.87972-42.46579c0 1.45873-.64765 2.76609-1.66884 3.65774v23.07156c0 2.31498-1.2343 4.456-3.24128 5.61426L44.62912 80.22643c-.01958-1.64173-.5746-3.15317-1.49488-4.3777l16.6063-9.58753c.60022-.34642.97224-.99107.97224-1.68315V42.51789c-2.02806-.5844-3.51766-2.45431-3.51766-4.66914 0-1.07842.35771-2.0725.95416-2.87905.00828-.0128.01807-.0256.02786-.0384.11221-.14912.2327-.29296.36148-.42851l.01732-.01883c.2666-.27789.56482-.52189.89015-.7305.03389-.02183.06929-.04141.10393-.06325.12878-.07682.26057-.14987.39612-.21539.03991-.01882.07983-.03916.1205-.05723.16944-.07681.34416-.1476.52414-.20333.00076 0 .00076 0 .00076-.00076.46314-.14685.9549-.22743 1.46626-.22743 2.68174 0 4.86192 2.18094 4.86192 4.86268zM9.10452 42.0826c-1.47755-.83517-2.47916-2.41891-2.47916-4.23385 0-2.68174 2.18094-4.86268 4.86268-4.86268.6951 0 1.3548.14987 1.9535.41345l20.4945-11.8325c1.00236-.57912 2.12295-.8683 3.24129-.8683 1.11984 0 2.23967.28918 3.24203.8683l17.4829 10.09437c-1.28627.86756-2.2826 2.12822-2.82934 3.60503l-16.9226-9.76904c-.29522-.17095-.63185-.26057-.973-.26057-.34039 0-.67627.08962-.97223.26057L16.2724 37.00605c.0482.27412.07757.55427.07757.8427 0 2.09207-1.3307 3.87463-3.18782 4.55919-.0143.00527-.02937.0113-.04292.01581-.14836.05196-.29672.0979-.4496.1363-.03087.00754-.061.01658-.09187.0226-.14008.03238-.28316.05799-.427.07832-.03916.00527-.07757.0128-.11748.01732-.17924.02034-.36073.03314-.54524.03314-.19806 0-.3931-.01582-.5859-.03916-.0512-.00603-.10167-.01506-.15363-.02335-.1476-.02259-.2922-.0512-.43604-.08735-.04367-.0113-.0881-.0211-.13254-.0339-.3788-.10693-.73953-.25529-1.0754-.44507z"/><path d="M21.14297 48.71691l3.31863-7.1078 3.31862 7.1078h-6.63725zm7.417 2.27771c-.51708 1.81166-2.17189 3.08373-4.09237 3.08373h-.03377c-1.91748 0-3.55127-1.26982-4.04209-3.08373h8.16823zm4.46761 12.92028v-.02552c0-.6244.5306-1.13323 1.18276-1.13323h5.74268c.65292 0 1.1835.50883 1.1835 1.13323l-8.10894.02552zM35.7143 42.9397c-.20263-.58162-.0135-1.22928.4713-1.61128.26117-.20563.57712-.30995.89458-.30995.27167 0 .5426.0758.78125.2289.51858.33246.77.95836.64316 1.50321-.02852.0698-.05028.14485-.05253.17261-.19663.59063-.74823.98764-1.37038.98839h-.0015c-.6154 0-1.164-.39025-1.36588-.97188zm-5.12878 24.33584c.02777-.60189.5471-1.08294 1.1805-1.08294h10.63131c.63416 0 1.15274.48105 1.18126 1.08294H30.58552zm15.7601-11.30374l3.31787-7.10705 3.31862 7.10705h-6.6365zm7.417 2.27846c-.51784 1.81166-2.17265 3.08297-4.09313 3.08297h-.03377c-1.91673 0-3.55053-1.26981-4.04134-3.08297h8.16823zm1.78388-2.13362l-3.86347-8.27555 1.05442.30245c.2927.0848.60039.04953.86606-.09907.26567-.14709.4578-.3895.54185-.68143.08405-.29269.04878-.60039-.09832-.86606-.14784-.26642-.39025-.4593-.68218-.5426L40.8033 42.3491c-.05103-1.64506-1.1805-3.06872-2.78278-3.48599-1.54374-.40225-3.15652.2244-4.03083 1.53098l-12.56305-3.60455c-.29193-.0833-.60038-.04878-.8653.0983-.26642.14785-.4593.3895-.54335.68295-.1726.60338.17787 1.23529.78125 1.4079l2.11035.60639-4.34303 9.30145c-.36698.19513-.60489.58088-.60564 1.00565-.00075 2.64169 1.57526 5.00045 4.01583 6.00834 2.4413 1.0079 5.22334.45104 7.08303-1.4169 1.23004-1.19927 1.93774-2.87284 1.94074-4.59144 0-.44429-.26266-.84504-.65667-1.03041l-3.85071-8.24853 6.86765 1.97076c.05103 1.58501 1.0852 2.94638 2.5824 3.4267v14.467h-1.73286c-1.90847 0-3.46047 1.53024-3.46047 3.41169v.1531c-1.42366.43753-2.4338 1.77113-2.44431 3.2841v1.0807c.01951.6334.53059 1.13622 1.17 1.14598H44.6938c.63416-.00976 1.14449-.51258 1.16475-1.15724v-1.07244c-.0105-1.50997-1.0214-2.84357-2.44432-3.2811v-.1531c0-1.88145-1.55274-3.41168-3.46121-3.41168H38.2209V46.00993c.7955-.25741 1.48595-.7775 1.952-1.47094l7.94834 2.27996-4.35204 9.32322c-.36773.19437-.60564.58012-.60639 1.00564 0 2.64094 1.57676 4.9997 4.01657 6.0076 2.44057 1.00865 5.2226.45179 7.08229-1.41616 1.23004-1.19926 1.93774-2.87209 1.9415-4.59219-.00076-.44428-.26343-.84504-.65668-1.0304z"/></g><path fill="#050713" fill-rule="nonzero" d="M75.02 54.74V68h3.4V54.74h-3.4zM85.02143 68v-7.395l5.916 7.395h2.873V54.74h-3.383v7.412l-5.916-7.412h-2.89V68h3.4zm11.46343-3.978v.153c0 2.601 2.448 4.08 5.627 4.08 3.026 0 5.27-1.36 5.27-3.944 0-2.82394-2.95181-3.93134-4.80357-4.58451l-.60602-.21206c-1.2517-.44538-1.74741-.71313-1.74741-1.18743 0-.442.459-.901 1.615-.901 1.377 0 2.04.765 2.04 1.411v.119h3.315v-.187c0-2.635-2.329-4.284-5.423-4.284-3.026 0-5.185 1.581-5.185 4.114 0 2.576 2.45458 3.63106 4.50081 4.32736l.37819.12664c1.598.544 2.261.884 2.261 1.445 0 .391-.408.816-1.683.816-1.547 0-2.244-.697-2.244-1.207v-.085h-3.315zM110.05628 68h3.4v-3.009h2.448c3.519 0 5.202-2.363 5.202-5.168 0-2.669-1.683-5.083-5.202-5.083h-5.848V68zm5.661-10.166c1.428 0 1.955.952 1.955 2.006 0 1.173-.527 2.057-1.955 2.057h-2.261v-4.063h2.261zM123.57671 68h10.183v-3.281h-6.783v-1.7h5.576v-3.077h-5.576v-1.904h6.783V54.74h-10.183V68zm22.34343-4.913c-.595 1.122-1.768 1.887-3.179 1.887-1.989 0-3.604-1.598-3.604-3.604 0-2.006 1.615-3.604 3.604-3.604 1.394 0 2.584.765 3.179 1.887l3.094-1.394c-1.173-2.227-3.536-3.774-6.273-3.774-3.825 0-7.038 3.094-7.038 6.885s3.213 6.885 7.038 6.885c2.737 0 5.134-1.547 6.29-3.808l-3.111-1.36zm4.64643-5.049h4.131V68h3.4v-9.962h4.131V54.74h-11.662v3.298zM163.713 61.37c0 3.791 3.213 6.885 7.038 6.885 3.876 0 7.038-3.094 7.038-6.885s-3.162-6.885-7.038-6.885c-3.825 0-7.038 3.094-7.038 6.885zm3.434 0c0-2.006 1.615-3.604 3.604-3.604 2.04 0 3.604 1.598 3.604 3.604 0 2.006-1.564 3.604-3.604 3.604-1.989 0-3.604-1.598-3.604-3.604zm13.21442-6.63V68h3.383v-3.553h1.734l2.516 3.553h4.063l-2.873-4.012c1.785-.816 2.618-2.55 2.618-4.403 0-2.635-1.564-4.845-4.964-4.845h-6.477zm6.29 3.094c1.36 0 1.87.765 1.87 1.785 0 .918-.51 1.751-1.87 1.751h-2.907v-3.536h2.907z"/><path fill="#6D7A99" fill-rule="nonzero" d="M78.565 41.821h2.079v.242c-.407.594-1.067.979-1.837.979-1.298 0-2.332-1.034-2.332-2.332 0-1.298 1.034-2.332 2.332-2.332.748 0 1.408.341 1.837.88l1.793-1.21c-.825-1.078-2.156-1.793-3.63-1.793-2.486 0-4.554 2.002-4.554 4.455 0 2.453 2.068 4.455 4.554 4.455.88 0 1.749-.33 2.167-.968V45h1.727v-5.005h-4.136v1.826zm7.74557-5.401V45h2.189v-2.299h1.122l1.628 2.299h2.629l-1.859-2.596c1.155-.528 1.694-1.65 1.694-2.849 0-1.705-1.012-3.135-3.212-3.135h-4.191zm4.07 2.002c.88 0 1.21.495 1.21 1.155 0 .594-.33 1.133-1.21 1.133h-1.881v-2.288h1.881zm9.50557-2.002l-3.476 8.58h2.398l.473-1.254h3.377l.473 1.254h2.398l-3.465-8.58h-2.178zm2.024 5.335h-1.881l.946-2.519.935 2.519zM108.68771 45h2.2v-1.947h1.584c2.277 0 3.366-1.529 3.366-3.344 0-1.727-1.089-3.289-3.366-3.289h-3.784V45zm3.663-6.578c.924 0 1.265.616 1.265 1.298 0 .759-.341 1.331-1.265 1.331h-1.463v-2.629h1.463zm12.51958-2.002v3.333h-3.498V36.42h-2.189V45h2.189v-3.19h3.498V45h2.2v-8.58h-2.2zm5.61157 4.29c0 2.2 1.672 4.048 3.806 4.389 1.485.495 2.486 2.035 4.213 2.035.781 0 1.782-.319 2.398-1.166l-1.661-1.342c-.231.352-.627.385-.748.385-.374 0-.726-.198-1.122-.473 1.331-.781 2.222-2.2 2.222-3.828 0-2.453-2.046-4.455-4.554-4.455-2.475 0-4.554 2.002-4.554 4.455zm2.222 0c0-1.298 1.045-2.332 2.332-2.332 1.32 0 2.332 1.034 2.332 2.332 0 1.298-1.012 2.332-2.332 2.332-1.287 0-2.332-1.034-2.332-2.332zM143.01243 45v-8.58h2.189v6.457h4.114V45h-6.303z"/></g></svg>