<svg xmlns="http://www.w3.org/2000/svg" role="img" viewBox="2.79 16.79 192.92 72.17"><title>GraphQL Inspector Service logo</title><g fill="none" fill-rule="evenodd"><g fill="#59F79D"><path d="M42.04 80.5123c0 .25462-.02485.5032-.06325.74724-.00452.03098-.00829.0612-.01356.09142-.39763 2.2916-2.38954 4.03996-4.78511 4.03996-2.1365 0-3.9507-1.39174-4.60211-3.3169L12.3458 70.35688c-2.00622-1.16204-3.24129-3.31009-3.24129-5.63267V44.98834c.74932.25462 1.54835.39893 2.38352.39893.74932 0 1.47229-.11409 2.15458-.32111V64.7242c0 .69436.37203 1.34112.97299 1.68867l18.8716 10.93138c.8924-1.04493 2.21407-1.71058 3.69087-1.71058 1.60633 0 3.02816.78805 3.91454 1.99618.01582.02191.03238.04307.0482.06498.06175.0884.1205.1783.17698.27124.02183.03551.04367.07027.06476.10653.0497.08538.09564.17303.14007.26143.0241.0476.0467.0952.06854.14355.0384.08236.0738.16547.10769.2501.0241.06044.04518.12088.06702.18208.02711.07707.05347.15489.07606.23347.0226.07555.03916.1511.058.2259.01731.07103.03539.1413.04894.21307.01883.09445.03088.18965.04443.2856.00678.05818.01808.11334.02335.17076.0143.1564.02334.31356.02334.47373zm24.87972-42.60503c0 1.46351-.64765 2.77516-1.66884 3.66973v23.1472c0 2.32258-1.2343 4.47063-3.24128 5.63267L44.62912 80.4239c-.01958-1.6471-.5746-3.1635-1.49488-4.39204l16.6063-9.61898c.60022-.34755.97224-.99431.97224-1.68867V42.59172c-2.02806-.58632-3.51766-2.46236-3.51766-4.68445 0-1.08195.35771-2.07929.95416-2.88849.00828-.01284.01807-.02569.02786-.03853.11221-.1496.2327-.29391.36148-.42991l.01732-.0189c.2666-.2788.56482-.5236.89015-.73288.03389-.02191.06929-.04156.10393-.06347.12878-.07706.26057-.15035.39612-.21609.03991-.01888.07983-.03928.1205-.05742.16944-.07706.34416-.14809.52414-.204.00076 0 .00076 0 .00076-.00075.46314-.14734.9549-.22818 1.46626-.22818 2.68174 0 4.86192 2.18809 4.86192 4.87862zM9.10452 42.155c-1.47755-.8379-2.47916-2.42684-2.47916-4.24773 0-2.69053 2.18094-4.87862 4.86268-4.87862.6951 0 1.3548.15035 1.9535.4148l20.4945-11.87129c1.00236-.58102 2.12295-.87116 3.24129-.87116 1.11984 0 2.23967.29014 3.24203.87116l17.4829 10.12747c-1.28627.8704-2.2826 2.1352-2.82934 3.61684l-16.9226-9.80107c-.29522-.1715-.63185-.26142-.973-.26142-.34039 0-.67627.08991-.97223.26142L16.2724 37.0618c.0482.27503.07757.5561.07757.84547 0 2.09893-1.3307 3.88733-3.18782 4.57413-.0143.0053-.02937.01134-.04292.01587-.14836.05213-.29672.09822-.4496.13676-.03087.00755-.061.01662-.09187.02266-.14008.0325-.28316.05818-.427.07858-.03916.00529-.07757.01285-.11748.01738-.17924.0204-.36073.03324-.54524.03324-.19806 0-.3931-.01586-.5859-.03929-.0512-.00604-.10167-.0151-.15363-.02342-.1476-.02266-.2922-.05138-.43604-.08764-.04367-.01134-.0881-.02116-.13254-.034-.3788-.1073-.73953-.25614-1.0754-.44654z"/><path d="M21.14297 48.81107l3.31863-7.1311 3.31862 7.1311h-6.63725zm7.417 2.28517c-.51708 1.8176-2.17189 3.09384-4.09237 3.09384h-.03377c-1.91748 0-3.55127-1.27398-4.04209-3.09384h8.16823zm4.46761 12.96264v-.0256c0-.62645.5306-1.13694 1.18276-1.13694h5.74268c.65292 0 1.1835.5105 1.1835 1.13694l-8.10894.0256zm2.68672-21.04395c-.20263-.58353-.0135-1.23332.4713-1.61657a1.44122 1.44122 0 0 1 .89458-.31096c.27167 0 .5426.07604.78125.22964.51858.33356.77.96151.64316 1.50815-.02852.07002-.05028.14531-.05253.17317-.19663.59257-.74823.99087-1.37038.99163h-.0015c-.6154 0-1.164-.39153-1.36588-.97506zm-5.12878 24.41562c.02777-.60386.5471-1.0865 1.1805-1.0865h10.63131c.63416 0 1.15274.48264 1.18126 1.0865H30.58552zm15.7601-11.3408l3.31787-7.13035 3.31862 7.13035h-6.6365zm7.417 2.28593c-.51784 1.8176-2.17265 3.09308-4.09313 3.09308h-.03377c-1.91673 0-3.55053-1.27397-4.04134-3.09308h8.16823zm1.78388-2.14061l-3.86347-8.30268 1.05442.30343c.2927.08508.60039.0497.86606-.09939.26567-.14757.4578-.39077.54185-.68367.08405-.29364.04878-.60235-.09832-.8689-.14784-.26729-.39025-.4608-.68218-.54437L40.8033 42.42236c-.05103-1.65044-1.1805-3.07877-2.78278-3.4974-1.54374-.40359-3.15652.22512-4.03083 1.536l-12.56305-3.61639c-.29193-.08357-.60038-.04894-.8653.09864-.26642.14833-.4593.39078-.54335.68518-.1726.60536.17787 1.23934.78125 1.41251l2.11035.60838-4.34303 9.33195c-.36698.19577-.60489.58278-.60564 1.00894-.00075 2.65036 1.57526 5.01685 4.01583 6.02805 2.4413 1.0112 5.22334.45252 7.08303-1.42155 1.23004-1.2032 1.93774-2.88226 1.94074-4.6065 0-.44574-.26266-.8478-.65667-1.03378l-3.85071-8.27558 6.86765 1.97722c.05103 1.59021 1.0852 2.95605 2.5824 3.43793v14.51445h-1.73286c-1.90847 0-3.46047 1.53525-3.46047 3.42287v.1536c-1.42366.43896-2.4338 1.77694-2.44431 3.29487V68.566c.01951.63548.53059 1.13995 1.17 1.14974H44.6938c.63416-.0098 1.14449-.51426 1.16475-1.16104v-1.07595c-.0105-1.51492-1.0214-2.8529-2.44432-3.29186v-.1536c0-1.88762-1.55274-3.42287-3.46121-3.42287H38.2209V46.0952c.7955-.25826 1.48595-.78005 1.952-1.47577l7.94834 2.28744-4.35204 9.35379c-.36773.19501-.60564.58202-.60639 1.00894 0 2.6496 1.57676 5.0161 4.01657 6.0273 2.44057 1.01195 5.2226.45326 7.08229-1.4208 1.23004-1.2032 1.93774-2.88151 1.9415-4.60725-.00076-.44574-.26343-.84782-.65668-1.0338z"/></g><path fill="#050713" fill-rule="nonzero" d="M75.02 54.74V68h3.4V54.74h-3.4zM85.02143 68v-7.395l5.916 7.395h2.873V54.74h-3.383v7.412l-5.916-7.412h-2.89V68h3.4zm11.46343-3.978v.153c0 2.601 2.448 4.08 5.627 4.08 3.026 0 5.27-1.36 5.27-3.944 0-2.82394-2.95181-3.93134-4.80357-4.58451l-.60602-.21206c-1.2517-.44538-1.74741-.71313-1.74741-1.18743 0-.442.459-.901 1.615-.901 1.377 0 2.04.765 2.04 1.411v.119h3.315v-.187c0-2.635-2.329-4.284-5.423-4.284-3.026 0-5.185 1.581-5.185 4.114 0 2.576 2.45458 3.63106 4.50081 4.32736l.37819.12664c1.598.544 2.261.884 2.261 1.445 0 .391-.408.816-1.683.816-1.547 0-2.244-.697-2.244-1.207v-.085h-3.315zM110.05628 68h3.4v-3.009h2.448c3.519 0 5.202-2.363 5.202-5.168 0-2.669-1.683-5.083-5.202-5.083h-5.848V68zm5.661-10.166c1.428 0 1.955.952 1.955 2.006 0 1.173-.527 2.057-1.955 2.057h-2.261v-4.063h2.261zM123.57671 68h10.183v-3.281h-6.783v-1.7h5.576v-3.077h-5.576v-1.904h6.783V54.74h-10.183V68zm22.34343-4.913c-.595 1.122-1.768 1.887-3.179 1.887-1.989 0-3.604-1.598-3.604-3.604 0-2.006 1.615-3.604 3.604-3.604 1.394 0 2.584.765 3.179 1.887l3.094-1.394c-1.173-2.227-3.536-3.774-6.273-3.774-3.825 0-7.038 3.094-7.038 6.885s3.213 6.885 7.038 6.885c2.737 0 5.134-1.547 6.29-3.808l-3.111-1.36zm4.64643-5.049h4.131V68h3.4v-9.962h4.131V54.74h-11.662v3.298zM163.713 61.37c0 3.791 3.213 6.885 7.038 6.885 3.876 0 7.038-3.094 7.038-6.885s-3.162-6.885-7.038-6.885c-3.825 0-7.038 3.094-7.038 6.885zm3.434 0c0-2.006 1.615-3.604 3.604-3.604 2.04 0 3.604 1.598 3.604 3.604 0 2.006-1.564 3.604-3.604 3.604-1.989 0-3.604-1.598-3.604-3.604zm13.21442-6.63V68h3.383v-3.553h1.734l2.516 3.553h4.063l-2.873-4.012c1.785-.816 2.618-2.55 2.618-4.403 0-2.635-1.564-4.845-4.964-4.845h-6.477zm6.29 3.094c1.36 0 1.87.765 1.87 1.785 0 .918-.51 1.751-1.87 1.751h-2.907v-3.536h2.907z"/><path fill="#6D7A99" fill-rule="nonzero" d="M78.565 41.821h2.079v.242c-.407.594-1.067.979-1.837.979-1.298 0-2.332-1.034-2.332-2.332 0-1.298 1.034-2.332 2.332-2.332.748 0 1.408.341 1.837.88l1.793-1.21c-.825-1.078-2.156-1.793-3.63-1.793-2.486 0-4.554 2.002-4.554 4.455 0 2.453 2.068 4.455 4.554 4.455.88 0 1.749-.33 2.167-.968V45h1.727v-5.005h-4.136v1.826zm7.74557-5.401V45h2.189v-2.299h1.122l1.628 2.299h2.629l-1.859-2.596c1.155-.528 1.694-1.65 1.694-2.849 0-1.705-1.012-3.135-3.212-3.135h-4.191zm4.07 2.002c.88 0 1.21.495 1.21 1.155 0 .594-.33 1.133-1.21 1.133h-1.881v-2.288h1.881zm9.50557-2.002l-3.476 8.58h2.398l.473-1.254h3.377l.473 1.254h2.398l-3.465-8.58h-2.178zm2.024 5.335h-1.881l.946-2.519.935 2.519zM108.68771 45h2.2v-1.947h1.584c2.277 0 3.366-1.529 3.366-3.344 0-1.727-1.089-3.289-3.366-3.289h-3.784V45zm3.663-6.578c.924 0 1.265.616 1.265 1.298 0 .759-.341 1.331-1.265 1.331h-1.463v-2.629h1.463zm12.51958-2.002v3.333h-3.498V36.42h-2.189V45h2.189v-3.19h3.498V45h2.2v-8.58h-2.2zm5.61157 4.29c0 2.2 1.672 4.048 3.806 4.389 1.485.495 2.486 2.035 4.213 2.035.781 0 1.782-.319 2.398-1.166l-1.661-1.342c-.231.352-.627.385-.748.385-.374 0-.726-.198-1.122-.473 1.331-.781 2.222-2.2 2.222-3.828 0-2.453-2.046-4.455-4.554-4.455-2.475 0-4.554 2.002-4.554 4.455zm2.222 0c0-1.298 1.045-2.332 2.332-2.332 1.32 0 2.332 1.034 2.332 2.332 0 1.298-1.012 2.332-2.332 2.332-1.287 0-2.332-1.034-2.332-2.332zM143.01243 45v-8.58h2.189v6.457h4.114V45h-6.303z"/></g></svg>