<svg xmlns="http://www.w3.org/2000/svg" role="img" viewBox="3.27 17.27 174.33 71.45"><g fill="none" fill-rule="evenodd"><path fill="#E535AB" d="M42.04 80.512c0 .255-.025.503-.063.748l-.014.091c-.397 2.292-2.39 4.04-4.785 4.04-2.136 0-3.95-1.392-4.602-3.317l-20.23-11.717a6.509 6.509 0 0 1-3.241-5.633V44.988c.749.255 1.548.4 2.383.4.75 0 1.472-.115 2.155-.322v19.658c0 .695.372 1.341.973 1.689l18.871 10.931a4.843 4.843 0 0 1 3.691-1.71 4.85 4.85 0 0 1 3.915 1.996c.015.022.032.043.048.065.062.088.12.178.177.271l.065.107a4.828 4.828 0 0 1 .316.655c.024.06.045.12.067.182.027.077.053.155.076.233.023.076.04.151.058.226.017.071.035.141.049.213.019.095.03.19.044.286.007.058.018.113.024.17.014.157.023.314.023.474zm24.88-42.605a4.867 4.867 0 0 1-1.67 3.67v23.147a6.507 6.507 0 0 1-3.24 5.633L44.63 80.424a7.449 7.449 0 0 0-1.496-4.392l16.607-9.62c.6-.347.972-.993.972-1.688V42.592a4.88 4.88 0 0 1-3.518-4.685 4.853 4.853 0 0 1 .982-2.927 4.91 4.91 0 0 1 .362-.43l.017-.019c.267-.278.565-.523.89-.732l.104-.064c.129-.077.26-.15.396-.216.04-.019.08-.04.12-.057.17-.077.345-.149.525-.204v-.001a4.826 4.826 0 0 1 1.467-.228c2.682 0 4.862 2.188 4.862 4.878zM9.105 42.155a4.883 4.883 0 0 1-2.48-4.248c0-2.69 2.181-4.878 4.863-4.878.695 0 1.355.15 1.954.414l20.494-11.87a6.462 6.462 0 0 1 6.483 0L57.902 31.7a7.508 7.508 0 0 0-2.83 3.616l-16.922-9.8a1.939 1.939 0 0 0-1.945 0L16.272 37.061c.049.275.078.556.078.845a4.882 4.882 0 0 1-3.188 4.574l-.043.016a5.14 5.14 0 0 1-.45.137c-.03.008-.06.017-.091.023a5 5 0 0 1-.427.078c-.04.006-.078.013-.118.018-.179.02-.36.033-.545.033a4.85 4.85 0 0 1-.586-.04c-.051-.005-.102-.015-.153-.023a4.687 4.687 0 0 1-.437-.087l-.132-.034a4.866 4.866 0 0 1-1.075-.447z"/><path fill="#E535AB" d="M38.347 67.178V51.741l12.506-5.398v14.773l-2.967-1.323a.753.753 0 0 0-.994.384.758.758 0 0 0 .382.998l2.451 1.093-11.378 4.91zm-10.052-7.001a.753.753 0 0 0-.994-.384l-2.969 1.323V46.343l12.508 5.398v15.437l-11.38-4.91 2.453-1.093c.38-.17.55-.616.382-.998zm8.545-19.88v1.875a.755.755 0 1 0 1.507 0v-1.876l11.353 4.9-12.107 5.224-12.107-5.224 11.354-4.9zm19.594 23.306l-4.073-1.816V45.196a.76.76 0 0 0-.463-.697L38.347 38.65V33.1a.755.755 0 1 0-1.507 0v5.55l-13.55 5.848a.759.759 0 0 0-.463.697v16.591l-4.075 1.816a.757.757 0 0 0-.382.999.752.752 0 0 0 .994.383l4.22-1.88 13.71 5.915a.764.764 0 0 0 .597 0l13.71-5.916 4.22 1.88a.753.753 0 0 0 .995-.382.758.758 0 0 0-.382-.999z"/><path stroke="#E535AB" stroke-width=".75" d="M38.347 67.178V51.741l12.506-5.398v14.773l-2.967-1.323a.753.753 0 0 0-.994.384.758.758 0 0 0 .382.998l2.451 1.093-11.378 4.91zm-10.052-7.001a.753.753 0 0 0-.994-.384l-2.969 1.323V46.343l12.508 5.398v15.437l-11.38-4.91 2.453-1.093c.38-.17.55-.616.382-.998zm8.545-19.88v1.875a.755.755 0 1 0 1.507 0v-1.876l11.353 4.9-12.107 5.224-12.107-5.224 11.354-4.9zm19.594 23.306l-4.073-1.816V45.196a.76.76 0 0 0-.463-.697L38.347 38.65V33.1a.755.755 0 1 0-1.507 0v5.55l-13.55 5.848a.759.759 0 0 0-.463.697v16.591l-4.075 1.816a.757.757 0 0 0-.382.999.752.752 0 0 0 .994.383l4.22-1.88 13.71 5.915a.764.764 0 0 0 .597 0l13.71-5.916 4.22 1.88a.753.753 0 0 0 .995-.382.758.758 0 0 0-.382-.999z"/><path fill="#050713" fill-rule="nonzero" d="M78.403 68v-6.239l2.754 5.729h2.227l2.754-5.729V68h3.383V54.74h-3.417l-3.842 8.381-3.825-8.381H75.02V68h3.383zm13.69-6.63c0 3.791 3.213 6.885 7.038 6.885 3.876 0 7.038-3.094 7.038-6.885s-3.162-6.885-7.038-6.885c-3.825 0-7.038 3.094-7.038 6.885zm3.434 0a3.595 3.595 0 0 1 3.604-3.604c2.04 0 3.604 1.598 3.604 3.604 0 2.006-1.564 3.604-3.604 3.604a3.595 3.595 0 0 1-3.604-3.604zM108.742 68h6.154c4.148 0 6.273-3.009 6.273-6.63 0-3.604-2.125-6.63-6.273-6.63h-6.154V68zm5.899-9.962c2.023 0 3.094 1.343 3.094 3.332 0 1.989-1.071 3.349-3.094 3.349h-2.5v-6.681h2.5zm17.787-3.298v7.259c0 1.921-.935 2.975-2.72 2.975-1.768 0-2.686-1.054-2.686-2.975V54.74h-3.4v7.463c0 3.417 2.108 6.052 6.086 6.052 3.961 0 6.103-2.635 6.103-6.052V54.74h-3.383zM138.826 68h9.74v-3.281h-6.357V54.74h-3.383V68zm12.143 0h10.183v-3.281h-6.783v-1.7h5.576v-3.077h-5.576v-1.904h6.783V54.74H150.97V68zm12.467-3.978h3.315v.085c0 .51.697 1.207 2.244 1.207 1.275 0 1.683-.425 1.683-.816 0-.561-.663-.901-2.261-1.445l-.766-.262c-1.956-.699-4.113-1.777-4.113-4.192 0-2.533 2.159-4.114 5.185-4.114 3.094 0 5.423 1.649 5.423 4.284v.187h-3.315v-.119c0-.646-.663-1.411-2.04-1.411-1.156 0-1.615.459-1.615.901 0 .474.495.742 1.747 1.187l.943.333c1.852.669 4.467 1.806 4.467 4.464 0 2.584-2.244 3.944-5.27 3.944-3.18 0-5.627-1.479-5.627-4.08v-.153z"/><path fill="#6D7A99" fill-rule="nonzero" d="M78.565 41.821h2.079v.242a2.208 2.208 0 0 1-1.837.979 2.32 2.32 0 0 1-2.332-2.332 2.32 2.32 0 0 1 2.332-2.332c.748 0 1.408.341 1.837.88l1.793-1.21a4.591 4.591 0 0 0-3.63-1.793c-2.486 0-4.554 2.002-4.554 4.455 0 2.453 2.068 4.455 4.554 4.455.88 0 1.749-.33 2.167-.968V45h1.727v-5.005h-4.136v1.826zm7.746-5.401V45H88.5v-2.299h1.122L91.25 45h2.629l-1.86-2.596c1.156-.528 1.695-1.65 1.695-2.849 0-1.705-1.012-3.135-3.212-3.135H86.31zm4.07 2.002c.88 0 1.21.495 1.21 1.155 0 .594-.33 1.133-1.21 1.133H88.5v-2.288h1.88zm9.505-2.002L96.41 45h2.398l.473-1.254h3.377l.473 1.254h2.398l-3.465-8.58h-2.178zm2.024 5.335h-1.88l.945-2.519.935 2.519zM108.688 45h2.2v-1.947h1.584c2.277 0 3.366-1.529 3.366-3.344 0-1.727-1.09-3.289-3.366-3.289h-3.784V45zm3.663-6.578c.924 0 1.265.616 1.265 1.298 0 .759-.341 1.331-1.265 1.331h-1.463v-2.629h1.463zm12.52-2.002v3.333h-3.499V36.42h-2.189V45h2.19v-3.19h3.497V45h2.2v-8.58h-2.2zm5.61 4.29c0 2.2 1.673 4.048 3.807 4.389 1.485.495 2.486 2.035 4.213 2.035.78 0 1.782-.319 2.398-1.166l-1.661-1.342c-.231.352-.627.385-.748.385-.374 0-.726-.198-1.122-.473 1.33-.781 2.222-2.2 2.222-3.828 0-2.453-2.046-4.455-4.554-4.455-2.475 0-4.554 2.002-4.554 4.455zm2.223 0a2.326 2.326 0 0 1 2.332-2.332 2.306 2.306 0 0 1 2.332 2.332 2.306 2.306 0 0 1-2.332 2.332 2.326 2.326 0 0 1-2.332-2.332zM143.012 45v-8.58h2.19v6.457h4.113V45h-6.303z"/></g></svg>