<svg xmlns="http://www.w3.org/2000/svg" role="img" viewBox="3.58 17.58 152.10 70.35"><title>GraphQL Config logo</title><g fill="none" fill-rule="evenodd"><path fill="#FFF" d="M0 0h215v105H0z"/><g fill="#6D7A99"><path d="M42.04 80.31454c0 .2538-.02485.50156-.06325.7448-.00452.03088-.00829.061-.01356.09113-.39763 2.2841-2.38954 4.02675-4.78511 4.02675-2.1365 0-3.9507-1.38719-4.60211-3.30605L12.3458 70.19231c-2.00622-1.15825-3.24129-3.29928-3.24129-5.61426V44.90668c.74932.25379 1.54835.39763 2.38352.39763.74932 0 1.47229-.11372 2.15458-.32007v19.5938c0 .6921.37203 1.33674.97299 1.68316l18.8716 10.89565c.8924-1.04152 2.21407-1.70499 3.69087-1.70499 1.60633 0 3.02816.78547 3.91454 1.98966.01582.02184.03238.04292.0482.06476a5.05618 5.05618 0 0 1 .17698.27036c.02183.0354.04367.07004.06476.10618.0497.0851.09564.17246.14007.26057.0241.04745.0467.0949.06854.14309.0384.08209.0738.16492.10769.24927.0241.06025.04518.1205.06702.1815.02711.0768.05347.15438.07606.2327.0226.0753.03916.15062.058.22517.01731.0708.03539.14083.04894.21237.01883.09414.03088.18903.04443.28467.00678.05799.01808.11296.02335.1702.0143.15588.02334.31253.02334.47218zm24.87972-42.46579c0 1.45873-.64765 2.76609-1.66884 3.65774v23.07156c0 2.31498-1.2343 4.456-3.24128 5.61426L44.62912 80.22643c-.01958-1.64173-.5746-3.15317-1.49488-4.3777l16.6063-9.58753c.60022-.34642.97224-.99107.97224-1.68315V42.51789c-2.02806-.5844-3.51766-2.45431-3.51766-4.66914 0-1.07842.35771-2.0725.95416-2.87905.00828-.0128.01807-.0256.02786-.0384.11221-.14912.2327-.29296.36148-.42851l.01732-.01883c.2666-.27789.56482-.52189.89015-.7305.03389-.02183.06929-.04141.10393-.06325.12878-.07682.26057-.14987.39612-.21539.03991-.01882.07983-.03916.1205-.05723.16944-.07681.34416-.1476.52414-.20333.00076 0 .00076 0 .00076-.00076.46314-.14685.9549-.22743 1.46626-.22743 2.68174 0 4.86192 2.18094 4.86192 4.86268zM9.10452 42.0826c-1.47755-.83517-2.47916-2.41891-2.47916-4.23385 0-2.68174 2.18094-4.86268 4.86268-4.86268.6951 0 1.3548.14987 1.9535.41345l20.4945-11.8325c1.00236-.57912 2.12295-.8683 3.24129-.8683 1.11984 0 2.23967.28918 3.24203.8683l17.4829 10.09437c-1.28627.86756-2.2826 2.12822-2.82934 3.60503l-16.9226-9.76904c-.29522-.17095-.63185-.26057-.973-.26057-.34039 0-.67627.08962-.97223.26057L16.2724 37.00605c.0482.27412.07757.55427.07757.8427 0 2.09207-1.3307 3.87463-3.18782 4.55919-.0143.00527-.02937.0113-.04292.01581-.14836.05196-.29672.0979-.4496.1363-.03087.00754-.061.01658-.09187.0226-.14008.03238-.28316.05799-.427.07832-.03916.00527-.07757.0128-.11748.01732-.17924.02034-.36073.03314-.54524.03314-.19806 0-.3931-.01582-.5859-.03916-.0512-.00603-.10167-.01506-.15363-.02335-.1476-.02259-.2922-.0512-.43604-.08735-.04367-.0113-.0881-.0211-.13254-.0339-.3788-.10693-.73953-.25529-1.0754-.44507z"/><path d="M32.11895 40.30947c.83504 0 1.06523.29818 2.33517 3.42667l.52219.21011c3.06129-1.38503 3.47378-1.4507 4.07554-.87212l1.83383 1.7929c.62338.62261.51215 1.07991-.808 4.074l.20316.48047c3.1169 1.11467 3.52786 1.35336 3.52479 2.24942v2.52288c0 .84508-.30592 1.07373-3.51166 2.31895l-.20161.47893c1.37963 2.91143 1.51326 3.41353.86516 4.03846l-1.82148 1.78362c-.60715.57318-.98257.51988-4.12497-.80954l-.51987.21088C33.324 65.32428 33.0768 65.658 32.22787 65.658h-2.58313c-.83736 0-1.06755-.29895-2.33517-3.4259l-.52373-.21242c-3.0976 1.40512-3.47379 1.46073-4.07863.86902l-1.8292-1.78826c-.62493-.61874-.5137-1.07759.80877-4.0763l-.20161-.47662c-3.11305-1.11467-3.52477-1.35336-3.52477-2.24634v-2.52983c0-.84585.30512-1.0745 3.50932-2.31508l.20161-.47816c-1.375-2.90138-1.51017-3.40194-.87443-4.03073l1.83075-1.79367c.60252-.57317.97948-.51987 4.12729.80954l.51987-.2101c1.16333-3.10996 1.41052-3.44367 2.26178-3.44367h2.58236zm-.66741 2.3174h-1.22977c-.25105.57936-.63883 1.56425-.95322 2.41165l-.1769.47816-2.3568.95554-.44262-.18848c-.8752-.37156-1.90645-.7887-2.51515-1.01194l-.84972.83272c.24256.58553.6736 1.53799 1.05828 2.34599l.22402.46888-.98567 2.34522-.46116.1769c-.87598.33679-1.89178.74851-2.48503 1.01192v1.14866c.59403.24642 1.599.6257 2.46572.93391l.48047.17072.98644 2.33903-.20239.45807c-.37078.83736-.78714 1.8238-1.01656 2.42169l.85126.83195c.59711-.2356 1.59282-.66819 2.43636-1.05365l.45498-.20702 2.35834.95786.18308.45576c.34452.85666.76706 1.85237 1.03588 2.43018h1.23131c.25183-.58013.6396-1.56425.95477-2.41242l.17767-.47816 2.3568-.95477.4434.18771c.87365.37233 1.90412.78947 2.51206 1.01194l.84894-.83118c-.24333-.58553-.67437-1.53644-1.05983-2.34444l-.22324-.46888.98721-2.34521.45962-.1769c.87752-.33834 1.89486-.75161 2.48812-1.0158v-1.14634c-.59557-.24719-1.60055-.62492-2.46572-.93236l-.48047-.1715-.98799-2.34289.20239-.45884c.37078-.83658.78637-1.82148 1.01657-2.41937l-.85126-.83117c-.59712.23483-1.5936.66664-2.43791 1.05132l-.45267.20625-2.3568-.9509-.18384-.45653c-.34607-.85821-.76938-1.8547-1.03897-2.43327zm-.56854 5.5077c2.71754 0 4.92835 2.1745 4.92835 4.84723 0 2.67428-2.2108 4.84955-4.92835 4.84955-2.71754 0-4.92834-2.17527-4.92834-4.84955 0-2.67274 2.2108-4.84723 4.92834-4.84723zm0 2.3174c-1.4391 0-2.61094 1.13475-2.61094 2.52983 0 1.39662 1.17184 2.53215 2.61094 2.53215 1.43911 0 2.61094-1.13553 2.61094-2.53215 0-1.39508-1.17183-2.52983-2.61094-2.52983zm17.44355-9.32422l.0842.00309c1.00035-1.02043 1.31551-1.28461 1.8462-1.04747l1.1332.50983c.51756.22324.53842.6002.4828 2.07562l.0587.06103c1.46847-.0116 1.84852.02394 2.06713.54072l.45807 1.15948c.20934.53918-.04789.81804-1.1417 1.80603l-.00078.06334c1.066 1.02197 1.31474 1.30933 1.09613 1.83615l-.50673 1.13167c-.24256.52064-.6288.53454-2.11193.46116l-.04558.04171c.03168 1.44606.00078 1.86165-.57008 2.05708l-1.13552.42177c-.10351.03708-.19775.0564-.28968.0564-.38005 0-.72148-.33603-1.5349-1.21124l-.08496-.00309c-1.00498 1.01889-1.32015 1.28539-1.85315 1.03974l-1.12549-.50287c-.51832-.22634-.5384-.6033-.48665-2.07717l-.05948-.0618c-1.46383.0031-1.8462-.02471-2.06403-.53686l-.4604-1.16102c-.20702-.54073.0479-.81959 1.14094-1.80912l.00155-.0587c-1.0521-1.0073-1.32788-1.32324-1.08455-1.86088l.49593-1.10926c.23483-.52219.61874-.53687 2.11115-.45807l.04712-.04403c-.03167-1.44066-.00155-1.8547.56158-2.054l1.1448-.42408c.5191-.20239.80337.05716 1.82611 1.15484zm-1.71488.45112l-.27268.1012c-.00463.29971-.00154.71916.00773 1.08145l.0085.34606-1.03434.96559-.3283-.01777c-.38314-.02086-.82808-.03708-1.13861-.04249l-.10892.24488c.21243.22015.52141.5245.79178.7825l.24641.2356-.02935 1.40513-.24796.22401c-.27732.25028-.59403.54536-.81264.75856l.10583.26728c.30822.00927.75316.01545 1.13012.01081l.33293-.00231.97177 1.01502-.01236.32598c-.0139.3785-.0224.81881-.02163 1.12394l.28736.12823c.2186-.20548.52219-.50442.77942-.76552l.23792-.24255 1.40666.0479.21938.2356c.26496.28658.57935.61488.7995.83426l.27114-.10042c.00463-.3005.00155-.72071-.00772-1.083l-.00773-.34761 1.03279-.95863.32598.017c.38469.0193.83118.03475 1.14094.03861l.10969-.24332c-.21475-.22016-.52296-.5245-.7941-.78328l-.24565-.23484.02859-1.4113.24873-.22324c.27809-.2495.5948-.54459.81264-.75624l-.10583-.26728c-.3059-.01004-.7493-.01313-1.12935-.01235l-.33062.00231-.97562-1.01193.01313-.3283c.0139-.3785.02395-.81881.02317-1.12317l-.28504-.12822c-.21938.20624-.52296.50596-.77942.76937l-.241.24565-1.40667-.05562-.21629-.23406c-.2665-.28581-.58012-.61334-.80028-.83349zm2.69746 2.20385c1.25029.56285 1.84562 1.98283 1.38619 3.22593l-.06295.15516c-.42177.94164-1.35646 1.49936-2.33903 1.49936-.35534 0-.71763-.07339-1.0637-.22788-1.3016-.5809-1.89408-2.0988-1.32014-3.3834.27732-.62184.78715-1.09614 1.43525-1.3356.64037-.2356 1.33868-.2132 1.96438.06643zm-1.06369 1.31706a1.0528 1.0528 0 0 0-.36615.06566c-.25414.09424-.45266.27731-.55926.516-.22634.50751.01545 1.10927.53918 1.34332.52605.2356 1.1363.01314 1.36263-.49128.22479-.50288-.02008-1.10463-.54459-1.341a1.05415 1.05415 0 0 0-.4318-.0927z"/></g><path fill="#050713" fill-rule="nonzero" d="M84.608 63.087c-.595 1.122-1.768 1.887-3.179 1.887-1.989 0-3.604-1.598-3.604-3.604 0-2.006 1.615-3.604 3.604-3.604 1.394 0 2.584.765 3.179 1.887l3.094-1.394c-1.173-2.227-3.536-3.774-6.273-3.774-3.825 0-7.038 3.094-7.038 6.885s3.213 6.885 7.038 6.885c2.737 0 5.134-1.547 6.29-3.808l-3.111-1.36zm4.83343-1.717c0 3.791 3.213 6.885 7.038 6.885 3.876 0 7.038-3.094 7.038-6.885s-3.162-6.885-7.038-6.885c-3.825 0-7.038 3.094-7.038 6.885zm3.434 0c0-2.006 1.615-3.604 3.604-3.604 2.04 0 3.604 1.598 3.604 3.604 0 2.006-1.564 3.604-3.604 3.604-1.989 0-3.604-1.598-3.604-3.604zM109.48986 68v-7.395l5.916 7.395h2.873V54.74h-3.383v7.412l-5.916-7.412h-2.89V68h3.4zm11.99042 0h3.383v-4.539h5.423v-3.077h-5.423v-2.346h6.46V54.74h-9.843V68zm12.46643-13.26V68h3.4V54.74h-3.4zm12.63643 8.347v-2.822h6.392V68h-2.669v-1.241c-.646.986-1.989 1.496-3.349 1.496-3.842 0-7.038-3.094-7.038-6.885s3.196-6.885 7.038-6.885c2.278 0 4.335 1.105 5.61 2.771l-2.771 1.87c-.663-.833-1.683-1.36-2.839-1.36-2.006 0-3.604 1.598-3.604 3.604 0 2.006 1.598 3.604 3.604 3.604 1.19 0 2.21-.595 2.839-1.513v-.374h-3.213z"/><path fill="#6D7A99" fill-rule="nonzero" d="M78.565 41.821h2.079v.242c-.407.594-1.067.979-1.837.979-1.298 0-2.332-1.034-2.332-2.332 0-1.298 1.034-2.332 2.332-2.332.748 0 1.408.341 1.837.88l1.793-1.21c-.825-1.078-2.156-1.793-3.63-1.793-2.486 0-4.554 2.002-4.554 4.455 0 2.453 2.068 4.455 4.554 4.455.88 0 1.749-.33 2.167-.968V45h1.727v-5.005h-4.136v1.826zm7.74557-5.401V45h2.189v-2.299h1.122l1.628 2.299h2.629l-1.859-2.596c1.155-.528 1.694-1.65 1.694-2.849 0-1.705-1.012-3.135-3.212-3.135h-4.191zm4.07 2.002c.88 0 1.21.495 1.21 1.155 0 .594-.33 1.133-1.21 1.133h-1.881v-2.288h1.881zm9.50557-2.002l-3.476 8.58h2.398l.473-1.254h3.377l.473 1.254h2.398l-3.465-8.58h-2.178zm2.024 5.335h-1.881l.946-2.519.935 2.519zM108.68771 45h2.2v-1.947h1.584c2.277 0 3.366-1.529 3.366-3.344 0-1.727-1.089-3.289-3.366-3.289h-3.784V45zm3.663-6.578c.924 0 1.265.616 1.265 1.298 0 .759-.341 1.331-1.265 1.331h-1.463v-2.629h1.463zm12.51958-2.002v3.333h-3.498V36.42h-2.189V45h2.189v-3.19h3.498V45h2.2v-8.58h-2.2zm5.61157 4.29c0 2.2 1.672 4.048 3.806 4.389 1.485.495 2.486 2.035 4.213 2.035.781 0 1.782-.319 2.398-1.166l-1.661-1.342c-.231.352-.627.385-.748.385-.374 0-.726-.198-1.122-.473 1.331-.781 2.222-2.2 2.222-3.828 0-2.453-2.046-4.455-4.554-4.455-2.475 0-4.554 2.002-4.554 4.455zm2.222 0c0-1.298 1.045-2.332 2.332-2.332 1.32 0 2.332 1.034 2.332 2.332 0 1.298-1.012 2.332-2.332 2.332-1.287 0-2.332-1.034-2.332-2.332zM143.01243 45v-8.58h2.189v6.457h4.114V45h-6.303z"/></g></svg>