<svg xmlns="http://www.w3.org/2000/svg" role="img" viewBox="-3.85 -3.60 200.46 74.71"><title>GraphQL Inspector logo</title><defs><style>.cls-1{fill:#59f79d;fill-rule:evenodd}</style></defs><path d="M36.84472 62.4272a4.956 4.956 0 0 1-.0658.77487c-.00471.03213-.00863.06346-.01411.09481a5.05246 5.05246 0 0 1-9.76629.7498L5.95144 51.89622a6.74517 6.74517 0 0 1-3.37218-5.841V25.58953a7.67308 7.67308 0 0 0 4.72135.0807v20.385a2.02594 2.02594 0 0 0 1.01229 1.75114L27.94655 59.142a5.04219 5.04219 0 0 1 7.91252.29617c.01646.02273.03369.04466.05014.06738q.09654.13766.18413.28128c.02271.03683.04543.07286.06737.11046.05171.08854.0995.17943.14573.27109a3.69092 3.69092 0 0 1 .07131.14887c.04.08541.07678.17157.112.25933.02507.06268.047.12537.06972.18883.02821.0799.05563.16062.07913.2421.02352.07834.04075.1567.06035.23426.018.07366.03681.14651.05091.22094.01959.09794.03213.19667.04622.29617.00706.06033.01882.11752.0243.17707.01488.16217.02428.32515.02428.49125zm25.88439-44.18061a5.03982 5.03982 0 0 1-1.73623 3.80541v24.00325a6.74351 6.74351 0 0 1-3.37216 5.841L39.53839 62.33553a7.70783 7.70783 0 0 0-1.55524-4.55447L55.26 47.80637a2.02685 2.02685 0 0 0 1.0115-1.75112v-22.951a5.042 5.042 0 0 1-2.667-7.853c.00862-.01332.0188-.02664.029-.03995a5.09323 5.09323 0 0 1 .37608-.44581l.018-.01959a5.08171 5.08171 0 0 1 .92609-.76c.03526-.02271.07209-.04308.10813-.06581.134-.07992.27109-.15592.41212-.22408.04152-.01959.08305-.04075.12536-.05955a4.67625 4.67625 0 0 1 .5453-.21154l.00079-.00079a5.05525 5.05525 0 0 1 6.58373 4.82242zM2.57927 22.65141a5.05469 5.05469 0 0 1 4.51215-9.03371L28.41351 1.30739a6.74717 6.74717 0 0 1 6.74513 0l18.18887 10.502A7.78993 7.78993 0 0 0 50.40393 15.56L32.798 5.39647a2.024 2.024 0 0 0-2.02378 0L10.0366 17.36987a5.02143 5.02143 0 0 1-3.23585 5.62c-.01488.00548-.03055.01176-.04465.01645-.15435.05406-.3087.10185-.46776.1418-.03211.00785-.06346.01725-.09558.02351-.14573.03369-.29459.06033-.44424.08148-.04074.00549-.0807.01332-.12222.018a5.02205 5.02205 0 0 1-.56726.03448 5.06349 5.06349 0 0 1-.60956-.04074c-.05327-.00628-.10578-.01567-.15984-.0243-.15356-.0235-.304-.05327-.45364-.09087-.04544-.01176-.09166-.02195-.13789-.03527a5.07125 5.07125 0 0 1-1.11884-.463z" class="cls-1"/><path d="M15.10385 29.55363l3.45264-7.39482 3.45263 7.39482zm7.7165 2.36968a4.42072 4.42072 0 0 1-4.25762 3.20826h-.03514a4.33475 4.33475 0 0 1-4.20531-3.20826zm4.648 13.442v-.02655a1.20727 1.20727 0 0 1 1.23052-1.179h5.97457a1.20745 1.20745 0 0 1 1.23129 1.179zm2.79521-21.8222a1.5067 1.5067 0 1 1 2.903-.19676.84319.84319 0 0 0-.05465.17958 1.50307 1.50307 0 0 1-1.42572 1.0283h-.00156a1.50481 1.50481 0 0 1-1.42105-1.0111zm-5.33587 25.31856a1.20956 1.20956 0 0 1 1.22817-1.12667h11.06062a1.2103 1.2103 0 0 1 1.229 1.12666zM41.3242 37.10148l3.45186-7.394 3.45262 7.394H41.3242zm7.71651 2.37046a4.42167 4.42167 0 0 1-4.25842 3.20747h-.03513a4.33469 4.33469 0 0 1-4.20453-3.20747h8.49808zm1.85591-2.21977l-4.01947-8.60973 1.097.31466a1.18463 1.18463 0 0 0 .65275-2.27756l-13.06882-3.75087a3.87282 3.87282 0 0 0-7.08875-2.034L15.399 17.14461a1.18462 1.18462 0 1 0-.65273 2.27756l2.19556.63087-4.51843 9.67706a1.19006 1.19006 0 0 0-.6301 1.04625 6.78328 6.78328 0 0 0 13.56616 0 1.19023 1.19023 0 0 0-.68319-1.072l-4.00621-8.58161 7.145 2.05034a3.86354 3.86354 0 0 0 2.68668 3.56508v15.05117h-1.80286a3.57876 3.57876 0 0 0-3.60021 3.54945v.15929a3.61951 3.61951 0 0 0-2.543 3.41671v1.12435a1.22936 1.22936 0 0 0 1.21725 1.19225h15.83277a1.23092 1.23092 0 0 0 1.21178-1.204v-1.11572a3.61962 3.61962 0 0 0-2.543-3.41359v-.15928a3.5794 3.5794 0 0 0-3.601-3.54944H32.8714v-15.052a3.8975 3.8975 0 0 0 2.03083-1.53035l8.2693 2.372-4.52778 9.6997a1.18744 1.18744 0 0 0-.63088 1.04626 6.78368 6.78368 0 0 0 13.56695-.00079 1.19293 1.19293 0 0 0-.6832-1.072z" class="cls-1"/><path fill="#050713" d="M71.15648 35.81993v13.79546h3.5373V35.81993zm10.40531 13.79546v-7.69362l6.15489 7.69362h2.989V35.81993h-3.5196v7.71131l-6.15489-7.71131h-3.0067v13.79546zm11.92633-4.13864v.15918c0 2.706 2.54685 4.24476 5.85423 4.24476 3.14819 0 5.4828-1.41492 5.4828-4.10327 0-2.938-3.071-4.09009-4.99754-4.76963l-.63049-.22063c-1.30224-.46336-1.818-.74192-1.818-1.23538 0-.45985.47753-.93738 1.68021-.93738 1.4326 0 2.12238.79589 2.12238 1.468v.1238h3.44886v-.19455c0-2.7414-2.42305-4.457-5.642-4.457-3.14819 0-5.39437 1.64484-5.39437 4.28012 0 2.68 2.5537 3.77769 4.68255 4.50211l.39346.13175c1.66253.566 2.35231.9197 2.35231 1.50335 0 .40679-.42447.849-1.751.849-1.60947 0-2.33462-.72515-2.33462-1.25575v-.08843zm14.11945 4.13864h3.5373v-3.13051h2.54685a5.03576 5.03576 0 0 0 5.41206-5.37669 5.039 5.039 0 0 0-5.41206-5.28826h-6.08415zm5.8896-10.57652a1.88637 1.88637 0 0 1 2.034 2.087 1.87362 1.87362 0 0 1-2.034 2.14006h-2.3523v-4.22706zm8.1768 10.57652h10.59421V46.2019h-7.0569v-1.76865h5.80116V41.232h-5.80117v-1.98089h7.05691v-3.43118H121.674zm23.24567-5.1114a3.69858 3.69858 0 0 1-3.30737 1.9632 3.74955 3.74955 0 1 1 3.30737-5.53586l3.21894-1.4503a7.37406 7.37406 0 0 0-6.52631-3.92639 7.16429 7.16429 0 1 0 6.544 10.36428zm4.83405-5.25288h4.29781v10.36428h3.53729V39.25111h4.29781v-3.43118h-12.13292v3.43118zm13.67731 3.46655a7.324 7.324 0 1 0 7.3222-7.163 7.29325 7.29325 0 0 0-7.3222 7.163zm3.57267 0a3.74954 3.74954 0 1 1 3.74954 3.74953 3.74017 3.74017 0 0 1-3.74954-3.74953zm13.748-6.89773v13.79546h3.51961v-3.69648h1.804l2.61761 3.69648H192.92l-2.989-4.174a4.811 4.811 0 0 0 2.72372-4.5808c0-2.7414-1.62716-5.04065-5.16446-5.04065h-6.73856zm6.544 3.21894a1.70365 1.70365 0 0 1 1.94553 1.85713 1.72446 1.72446 0 0 1-1.94551 1.82171h-3.02438v-3.67884z"/><path fill="#6d7a99" d="M74.84464 22.37925h2.16295v.25175a2.29745 2.29745 0 0 1-1.91117 1.01854 2.4262 2.4262 0 1 1 1.91117-3.93681l1.86541-1.25884a4.77642 4.77642 0 0 0-3.77658-1.8654 4.636 4.636 0 1 0 0 9.2698 2.67835 2.67835 0 0 0 2.2545-1.00709v.83542h1.79674v-5.20711h-4.303zm8.05834-5.6191v8.92647h2.2774v-2.39183h1.16731l1.69374 2.39183h2.73516l-1.93407-2.70083a3.113 3.113 0 0 0 1.7624-2.964 3.06519 3.06519 0 0 0-3.3417-3.2616zm4.23435 2.08285a1.10237 1.10237 0 0 1 1.25886 1.20164 1.11583 1.11583 0 0 1-1.25886 1.17875h-1.957V18.843zm9.88942-2.08284l-3.61637 8.92647h2.49484l.4921-1.30464h3.51337l.4921 1.30464h2.49483l-3.60491-8.92647zm2.10573 5.55043h-1.957l.9842-2.62072zm7.05126 3.376h2.28883V23.661h1.648a3.25843 3.25843 0 0 0 3.50192-3.479 3.26056 3.26056 0 0 0-3.50192-3.42182h-3.9368zm3.81092-6.84362a1.22059 1.22059 0 0 1 1.31608 1.35041 1.21234 1.21234 0 0 1-1.31608 1.38475h-1.52208V18.843zm13.02513-2.08285v3.46759h-3.63926v-3.46756h-2.2774v8.92647h2.2774v-3.31881h3.63926v3.31881h2.28883v-8.92647zm5.83816 4.46324a4.68751 4.68751 0 0 0 3.95969 4.56623c1.545.515 2.5864 2.11718 4.38312 2.11718a3.10919 3.10919 0 0 0 2.49483-1.21309l-1.72807-1.39619a.94138.94138 0 0 1-.7782.40055 2.1353 2.1353 0 0 1-1.1673-.4921 4.61706 4.61706 0 0 0 2.31172-3.98258 4.739 4.739 0 0 0-9.47579 0zm2.31173 0a2.42617 2.42617 0 1 1 2.42617 2.42617 2.4201 2.4201 0 0 1-2.42617-2.42614zm10.72485 4.46323v-8.92644h2.27739v6.71774h4.28008v2.20873z"/></svg>