<svg xmlns="http://www.w3.org/2000/svg" role="img" viewBox="-6.25 -6.00 338.00 101.75"><title>GraphCDN (adopter) logo</title><g clip-path="url(#clip0)"><path fill="#3B4C6A" d="M125.774 57.8259V44.9434h-13.055v4.713h7.846v5.7818c-.942.6912-2.009 1.2564-3.327 1.6965-1.255.4396-2.636.6282-4.079.6282-1.57 0-3.013-.3141-4.268-.8167-1.255-.5657-2.385-1.3825-3.264-2.3253-.941-1.0053-1.632-2.1366-2.134-3.5191-.502-1.3193-.753-2.8278-.753-4.3988 0-1.4449.251-2.8909.753-4.2103.502-1.32 1.193-2.4508 2.134-3.4566.879-1.0053 1.946-1.7596 3.138-2.3877 1.193-.5657 2.511-.8168 3.891-.8168 1.005 0 1.883.0625 2.699.2511.753.1255 1.507.3771 2.197.6282.69.3146 1.318.6287 1.946 1.0683.564.3771 1.192.8173 1.757 1.3199l3.452-4.0848c-.816-.6281-1.632-1.2568-2.448-1.7595-.839-.5145-1.721-.9559-2.636-1.3194a20.02216 20.02216 0 0 0-3.076-.7542 21.22116 21.22116 0 0 0-3.64-.3141c-2.322 0-4.456.4396-6.401 1.2563-1.946.8804-3.577 2.0112-5.021 3.4566-1.381 1.4449-2.4476 3.142-3.2638 5.0901-.7533 1.8856-1.1294 3.9593-1.1294 6.0959 0 2.2622.3761 4.3989 1.1294 6.2839.7533 1.9482 1.8198 3.6447 3.2008 5.0276 1.381 1.4449 3.076 2.5133 5.021 3.3306 1.946.8167 4.142 1.1938 6.527 1.1938 1.307.0053 2.611-.121 3.892-.3771 1.192-.1886 2.321-.5657 3.388-1.0053 1.041-.4267 2.048-.9309 3.013-1.5085.942-.6282 1.757-1.1939 2.511-1.8851zm11.736-4.5244c0-1.5085.189-2.8909.565-4.0222.376-1.1939.941-2.1367 1.632-2.8904a6.36 6.36 0 0 1 2.51-1.6971c.942-.3765 2.009-.5657 3.201-.5657h.314v-5.6557c-2.071-.0625-3.766.4402-5.084 1.5085-1.38 1.0053-2.385 2.4507-3.138 4.2103v-5.2786h-5.335v23.1887h5.335v-8.7978zm31.067 8.7978V48.3995c0-3.142-.816-5.5297-2.51-7.2267-1.632-1.7596-4.205-2.5763-7.657-2.5763-1.883 0-3.515.1885-4.833.5026-1.381.3771-2.699.8168-3.954 1.4449l1.444 4.2109c.998-.4106 2.026-.7466 3.075-1.0053 1.067-.3147 2.197-.4402 3.514-.4402 1.883 0 3.264.4402 4.268 1.2569.942.8798 1.444 2.1367 1.444 3.7077v.5657c-.879-.2511-1.821-.5027-2.825-.6918-1.004-.188-2.196-.2511-3.577-.2511-1.318 0-2.573.1261-3.765.4402-1.13.3141-2.134.7537-2.951 1.3824-.815.6282-1.506 1.3824-1.945 2.3253-.502.9428-.691 2.0105-.691 3.3305v.063c0 1.1939.189 2.1992.691 3.0789.439.8798 1.004 1.6341 1.757 2.2622.753.5657 1.632 1.0059 2.637 1.32.941.314 2.008.5026 3.138.5026 1.757 0 3.263-.3141 4.455-1.0053 1.255-.6287 2.26-1.383 3.013-2.3252v2.8279h5.272zm-5.146-8.3581c0 .6917-.126 1.3824-.44 1.9481-.314.6287-.753 1.1313-1.318 1.5709-.502.4402-1.192.7543-1.945 1.0059-.778.2091-1.58.3147-2.385.3141-1.256 0-2.323-.2516-3.201-.8798-.879-.5657-1.318-1.4455-1.318-2.5138v-.1255c0-1.1939.502-2.0742 1.444-2.7654.941-.6282 2.196-.9428 3.891-.9428 1.004 0 2.008.063 2.886.2516.942.1885 1.758.3771 2.386.6918v1.4449zm35.397-3.205c0-1.9482-.314-3.6447-.942-5.1532-.627-1.5079-1.443-2.7648-2.447-3.7701-1.004-1.0683-2.134-1.8226-3.389-2.3877-1.318-.5032-2.636-.7542-4.017-.7542-1.82 0-3.389.3765-4.644 1.2563-1.255.8173-2.322 1.8226-3.139 3.0795v-3.8962h-5.334v30.2268h5.334l-.062-10.6203c.816 1.0684 1.883 2.0112 3.138 2.8279s2.824 1.2569 4.707 1.2569c1.381 0 2.699-.2516 4.017-.8167 1.318-.5032 2.448-1.32 3.452-2.3253a11.3115 11.3115 0 0 0 2.384-3.8337c.628-1.4449.942-3.2044.942-5.09zm-5.335 0c0 1.1313-.188 2.1366-.564 3.0794a5.85915 5.85915 0 0 1-1.444 2.3253c-.565.6912-1.255 1.1308-2.071 1.5079-.816.3771-1.632.5026-2.573.5026-.879 0-1.758-.1255-2.573-.5026-.817-.3771-1.507-.8798-2.134-1.5079-.628-.6918-1.13-1.4455-1.507-2.3253-.334-.9921-.504-2.0324-.502-3.0794 0-1.1309.188-2.1992.502-3.0795.377-.9423.879-1.696 1.507-2.3247.595-.6652 1.322-1.2 2.134-1.571.815-.3146 1.694-.5026 2.573-.5026.941 0 1.757.188 2.573.5021.816.3776 1.506.8803 2.071 1.5085.627.6287 1.129 1.4454 1.444 2.3877.376.8803.564 1.9486.564 3.0795zm16.067-1.508c0-1.7595.502-3.205 1.444-4.2103.941-1.0058 2.197-1.5085 3.766-1.5085s2.761.5027 3.64 1.5085c.816.9428 1.255 2.3252 1.255 4.1473v13.1341H225V47.3312c0-2.7018-.691-4.8385-2.134-6.4725-1.444-1.571-3.452-2.3877-6.088-2.3877-.879 0-1.695.1255-2.385.314-.753.2511-1.381.5021-2.009.9429-.565.3765-1.129.8167-1.569 1.2563-.439.5026-.878 1.0058-1.255 1.571V30.0498h-5.334v32.0495h5.334V49.0282zm49.143 8.1696l-3.453-3.5197c-1.317 1.2569-2.635 2.1997-4.016 2.8909-1.318.7543-2.95 1.1314-4.832 1.1314-1.444 0-2.762-.3146-4.018-.8798-1.255-.5657-2.322-1.3824-3.201-2.3252-.941-1.0053-1.631-2.1997-2.133-3.5191-.502-1.3199-.753-2.7654-.753-4.2733 0-1.5085.251-2.9534.753-4.2734.502-1.3193 1.192-2.4507 2.133-3.456.879-.9428 1.946-1.6971 3.201-2.3252 1.256-.5657 2.574-.8168 4.018-.8168 1.757 0 3.326.3141 4.706 1.0678 1.381.6918 2.699 1.5716 3.892 2.7654l3.451-4.0223c-.69-.6912-1.506-1.3194-2.322-1.9481-.834-.5763-1.716-1.0807-2.636-1.5079-1.004-.3772-2.008-.7543-3.201-.9428-1.129-.2511-2.384-.3766-3.828-.3766-2.322 0-4.456.4396-6.402 1.2563-1.883.8173-3.577 1.9481-4.958 3.3936-1.443 1.4455-2.51 3.1425-3.263 5.0901-.816 1.9481-1.193 3.9592-1.193 6.1589 0 2.2622.377 4.3358 1.193 6.2839.815 1.8857 1.882 3.5822 3.263 4.9646 1.381 1.4454 3.013 2.5763 4.958 3.3936 1.883.8167 3.954 1.1938 6.214 1.1938 1.38 0 2.699-.1255 3.891-.3771 1.192-.1886 2.259-.5657 3.264-1.0683 1.004-.5027 1.945-1.0684 2.761-1.6966.879-.6912 1.694-1.4454 2.511-2.2621zm33.389-10.4948c0-2.1367-.377-4.2103-1.193-6.0329-.816-1.8856-1.883-3.5191-3.326-4.9015-1.444-1.3824-3.201-2.4508-5.209-3.205-2.107-.7931-4.34-1.1976-6.59-1.1939h-11.423v30.7296h11.423c2.385 0 4.581-.3772 6.59-1.1939a16.1784 16.1784 0 0 0 5.209-3.205c1.443-1.3824 2.51-3.0164 3.326-4.9021.816-1.885 1.193-3.9586 1.193-6.0953zm-5.649.063c0 1.571-.251 2.9534-.753 4.2103-.565 1.3194-1.255 2.3877-2.197 3.3305-.878.9429-2.008 1.6341-3.326 2.1367-1.403.5357-2.892.8124-4.393.8167h-6.088v-20.989h6.088c1.569 0 3.075.2511 4.393.7543 1.318.5657 2.448 1.3194 3.326 2.2622.942.8798 1.632 2.0111 2.197 3.3305.502 1.2569.753 2.6393.753 4.1478zm33.515 5.8438l-16.381-21.2401h-4.958v30.7296h5.334V40.2305l16.884 21.8688h4.518V31.3697h-5.397v21.2401z"/><path fill="#4568A5" fill-rule="evenodd" d="M23.1313 39.5631l36.1512-29.0955-14.7493-8.54727c-3.0126-1.6965-6.4019-1.6965-9.3515 0L4.93098 19.4538c-1.41812.7716-2.59217 1.9254-3.38924 3.3306l-.25072.5656L12.2115 36.3581l10.9204 3.205h-.0006z" clip-rule="evenodd"/><path fill="#608BD8" fill-rule="evenodd" d="M38.7814 51.5575l-27.992-21.4286c-4.01657-3.0794-5.33427-7.9809-4.7069-11.3745l-1.12937.6918c-1.41813.7715-2.59219 1.9253-3.38924 3.3305l-.12536.188c-.06296.1255-.12592.1886-.12592.3141C.62228 24.5362.30859 25.9817.30859 27.4902V62.493c0 3.3931 1.69434 6.347 4.64454 8.0435l8.09557 4.6505 25.7327-23.6289v-.0006z" clip-rule="evenodd"/><path fill="#4568A5" fill-rule="evenodd" d="M61.9416 52.8174L16 76.9483l19.2055 11.123c2.9496 1.6971 6.3383 1.6971 9.3509 0l15.1259-8.7977 15.1878-8.7353c1.5066-.9422 2.6989-2.1361 3.5152-3.6446l-1.067-2.5138-8.9754-10.3056-6.4013-1.2569z" clip-rule="evenodd"/><path fill="#608BD8" fill-rule="evenodd" d="M78.4036 66.8711l.1259-.2516c.6274-1.2569.9411-2.6393.9411-4.1472V32.5595c0-2.7649-1.067-5.0901-3.138-6.9757-.3137-.2511-.6903-.5652-1.004-.7537L49.2822 41.8598l12.6783 10.9344 8.0332 7.0387c3.3893 2.8904 4.3933 7.4778 3.201 11.6256l1.6943-.9428c1.5066-.9428 2.6989-2.1366 3.5146-3.6446z" clip-rule="evenodd"/></g><defs><clipPath id="clip0"><path fill="#fff" d="M0 0h325.385v90H0z" transform="translate(.309)"/></clipPath></defs></svg>