<svg xmlns="http://www.w3.org/2000/svg" role="img" xmlns:xlink="http://www.w3.org/1999/xlink" viewBox="-1.44 -1.44 100.62 47.62"><use x=".5" y=".5" xlink:href="#a"/><symbol id="a" overflow="visible"><g fill="#27ae60"><path d="M4.828 39.2h3.265v.368c0 1.983-1.34 3.28-3.374 3.28-2.252 0-3.702-1.786-3.702-4.562 0-2.74 1.42-4.438 3.702-4.438 1.603 0 2.835.903 3.265 2.405h1.034c-.394-2.012-2.1-3.33-4.295-3.33C1.853 32.913 0 35.02 0 38.277c0 3.316 1.873 5.488 4.723 5.488 2.733 0 4.365-1.66 4.365-4.438v-1h-4.26zm14.475-3.03c0-1.873-1.312-3.075-3.367-3.075H12.18V43.6h1v-4.316h2.85l2.42 4.307h1.16l-2.546-4.467c1.407-.365 2.25-1.486 2.25-2.973zm-3.447 2.252H13.17v-4.427h2.65c1.53 0 2.455.823 2.455 2.215s-.893 2.223-2.416 2.223zm9.672-5.327L21.592 43.6h1.056l1.16-3.222h4.412l1.16 3.222h1.045L26.52 33.085zm-1.414 6.435L26 34.315h.044l1.888 5.203zm12.72-6.435h-3.736V43.6h1v-3.966h2.733c2.004 0 3.382-1.326 3.382-3.28s-1.37-3.272-3.37-3.272zm-.232 5.663H34.1v-4.763h2.506c1.625 0 2.588.9 2.588 2.383s-.97 2.4-2.587 2.4zm13.662-.986h-6.15v-4.677h-1V43.6h1v-4.936h6.15V43.6h.998V33.085h-.998zm8.72-3.92c1.632 0 2.973 1.065 3.265 2.58h.998c-.284-2.055-2.04-3.505-4.263-3.505-2.857 0-4.686 2.106-4.686 5.4 0 3.33 1.822 5.456 4.686 5.456 2.28 0 3.9-1.232 4.263-3.28h-.998c-.313 1.457-1.58 2.354-3.258 2.354-2.237 0-3.673-1.757-3.673-4.528 0-2.737 1.436-4.48 3.666-4.48z"/><use xlink:href="#C"/><use x="12.168" xlink:href="#C"/><path d="M91.53 42.685v-9.6h-1V43.6h6.26v-.903zM59 8.537c-1.257-.7-2.84.215-3.1.374l-5.425 3.078a2.13 2.13 0 0 0-2.636.016 2.115 2.115 0 1 0 3.444 1.643 2.14 2.14 0 0 0-.033-.372l5.444-3.088c.356-.227 1.18-.56 1.567-.344.278.15.437.682.448 1.453v6.788a1.78 1.78 0 0 1-.886 1.535l-7.773 4.485a1.78 1.78 0 0 1-1.773 0l-7.774-4.485a1.774 1.774 0 0 1-.886-1.535v-8.98a1.78 1.78 0 0 1 .886-1.535l7.014-4.065A2.116 2.116 0 0 0 51.1 1.392a2.115 2.115 0 0 0-4.103.685L39.73 6.272a3.28 3.28 0 0 0-1.635 2.833v8.98a3.28 3.28 0 0 0 1.635 2.833l7.774 4.485a3.28 3.28 0 0 0 3.271 0l7.774-4.485a3.28 3.28 0 0 0 1.635-2.833v-6.53c.05-1.532-.356-2.547-1.193-3.02z"/></g></symbol><defs><path id="C" d="M70.555 32.917c-2.93 0-4.774 2.1-4.774 5.43s1.844 5.422 4.774 5.422 4.78-2.1 4.78-5.422-1.85-5.43-4.78-5.43zm0 9.926c-2.303 0-3.753-1.74-3.753-4.496s1.45-4.503 3.753-4.503 3.76 1.74 3.76 4.503-1.457 4.496-3.76 4.496z"/></defs></svg>