<svg xmlns="http://www.w3.org/2000/svg" role="img" viewBox="0.15 0.15 148.33 70.33"><title>GraphQL Helix logo</title><style>svg {enable-background:new 0 0 169.9 70.2}</style><style id="style903" type="text/css"/><g id="GraphQL-Tools_x2F_-Scalars"><g id="Libraries-Logos-_x2F_-Scalars" fill="#03a9f4" fill-opacity="1" transform="translate(6 20)"><path id="Fill-2" fill-rule="evenodd" d="M32.4 42.9c0 .3 0 .5-.1.7v.1c-.4 2.3-2.4 4-4.8 4-2.1 0-4-1.4-4.6-3.3L2.7 32.8c-2-1.2-3.2-3.3-3.2-5.6V7.4c.7.3 1.5.4 2.3.4.7 0 1.5-.1 2.2-.3v19.7c0 .7.4 1.3 1 1.7l18.9 10.9c.9-1 2.2-1.7 3.7-1.7 1.6 0 3 .8 3.9 2v.1c.1.1.1.2.2.3 0 0 0 .1.1.1 0 .1.1.2.1.3 0 0 0 .1.1.1 0 .1.1.2.1.3 0 .1 0 .1.1.2 0 .1.1.2.1.2 0 .1 0 .2.1.2v1zM57.3.3c0 1.5-.6 2.8-1.7 3.7v23.1c0 2.3-1.2 4.5-3.2 5.6L35 42.8c0-1.6-.6-3.2-1.5-4.4l16.6-9.6c.6-.3 1-1 1-1.7V5c-2-.6-3.5-2.5-3.5-4.7 0-1.1.4-2.1 1-2.9.1-.1.2-.3.4-.4.3-.3.6-.5.9-.7 0 0 .1 0 .1-.1s.2-.2.3-.3c0 0 .1 0 .1-.1.2-.1.3-.1.5-.2.5-.1 1-.2 1.5-.2 2.7.1 4.9 2.2 4.9 4.9zM-.5 4.6C-2 3.7-3 2.2-3 .3c0-2.7 2.2-4.9 4.9-4.9.7 0 1.4.2 2 .4L24.3-16c1-.6 2.1-.9 3.2-.9s2.2.3 3.2.9L48.3-5.9C47-5 46-3.7 45.4-2.3l-16.9-9.8c-.3-.2-.6-.3-1-.3-.3 0-.7.1-1 .3L6.6-.5c0 .3.1.6.1.8 0 2.1-1.3 3.9-3.2 4.6-.2.1-.3.1-.5.2h-.1c-.1 0-.3.1-.4.1H1.1C1 5.1.8 5.1.7 5.1H.6c-.4-.2-.8-.3-1.1-.5z" clip-rule="evenodd"/><path id="path982" stroke-width=".07" d="M4.61864 13.97987c-.52467.41578-.56922 1.1929-.09405 1.66807l1.59382 1.60372c.40093.40093 1.02955.44547 1.47998.10394.27718-.20789.63851-.46032 1.06419-.72761l15.45807 15.45806c-.26234.42073-.50983.79691-.72267 1.06915-.34153.45042-.30193 1.084.10395 1.47997l1.60371 1.59382c.47518.47517 1.25724.43558 1.66807-.09405 1.64827-2.10364 5.11804-7.65231 4.39538-16.16588-1.48493-.25738-3.0342-.63851-4.64782-1.14339.0792.53458.099 1.02955.1386 1.54432l-6.31588-6.31588c1.9502.1584 4.08849.56428 6.43962 1.35129 12.75055 4.28648 20.91268-.74741 23.5707-2.83126.52467-.41578.56922-1.19289.09405-1.66806L48.84958 9.2974c-.40093-.40093-1.02954-.44548-1.47997-.10395-.27719.2079-.63852.46033-1.0642.72762l-15.463-15.46301c.26728-.42568.51477-.78206.7276-1.0642.34154-.45042.30194-1.08399-.10394-1.47997l-1.60372-1.59382c-.47517-.47517-1.25723-.43558-1.67301.0891-1.86606 2.38083-6.0684 9.16693-3.8707 19.7-10.52812-2.19275-17.31917 2.00464-19.7 3.8707zm24.66954-2.50457c-.56427-1.9205-.89095-3.7024-1.0246-5.34078l6.36043 6.36043c-1.63342-.1287-3.42028-.45043-5.33583-1.01965zm12.607.37123c-.80185.2277-1.67796.41083-2.62336.54448L28.37742 1.4966c.1287-.95035.31184-1.82646.54448-2.62337zM13.07777 14.7075c.80186-.2277 1.67797-.41083 2.62337-.54448l10.85974 10.85975c-.1287.95035-.30688 1.8314-.53457 2.63327z"/></g><path id="GraphQL" fill="#6d7a99" d="M74.9 24.2H77v.2c-.4.6-1.1 1-1.8 1-1.3 0-2.3-1-2.3-2.3s1-2.3 2.3-2.3c.7 0 1.4.3 1.8.9l1.8-1.2c-.8-1.1-2.2-1.8-3.6-1.8-2.5 0-4.6 2-4.6 4.5s2.1 4.5 4.6 4.5c.9 0 1.7-.3 2.2-1v.8h1.7v-5H75v1.7zm7.8-5.4v8.6h2.2v-2.3H86l1.6 2.3h2.6l-1.9-2.6c1.2-.5 1.7-1.6 1.7-2.8 0-1.7-1-3.1-3.2-3.1h-4.1zm4 2c.9 0 1.2.5 1.2 1.2 0 .6-.3 1.1-1.2 1.1h-1.9v-2.3h1.9zm9.5-2l-3.5 8.6h2.4l.5-1.3H99l.5 1.3h2.4l-3.5-8.6h-2.2zm2.1 5.4h-1.9l.9-2.5 1 2.5zm6.7 3.2h2.2v-1.9h1.6c2.3 0 3.4-1.5 3.4-3.3 0-1.7-1.1-3.3-3.4-3.3H105v8.5zm3.7-6.6c.9 0 1.3.6 1.3 1.3 0 .8-.3 1.3-1.3 1.3h-1.5v-2.6h1.5zm12.5-2v3.3h-3.5v-3.3h-2.2v8.6h2.2v-3.2h3.5v3.2h2.2v-8.6h-2.2zm5.6 4.3c0 2.2 1.7 4 3.8 4.4 1.5.5 2.5 2 4.2 2 .8 0 1.8-.3 2.4-1.2l-1.7-1.3c-.2.4-.6.4-.7.4-.4 0-.7-.2-1.1-.5 1.3-.8 2.2-2.2 2.2-3.8 0-2.5-2-4.5-4.6-4.5-2.4.1-4.5 2.1-4.5 4.5zm2.3 0c0-1.3 1-2.3 2.3-2.3 1.3 0 2.3 1 2.3 2.3s-1 2.3-2.3 2.3c-1.3.1-2.3-1-2.3-2.3zm10.3 4.3v-8.6h2.2v6.5h4.1v2.1h-6.3z"/><g id="text847" fill="#000" style="text-align:start" fill-opacity="1" stroke="none" text-anchor="start" writing-mode="lr-tb"><path d="M83.1503 37.3238v13.52h-3.46667v-5.02666h-5.512v5.02667H70.7223v-13.52h3.44933v5.252h5.512v-5.252z" style="text-align:start" id="path399"/><path d="M89.20667 37.3238h10.38267v3.36267h-6.916v1.94134h5.68533v3.13733h-5.68533v1.73333h6.916v3.34534H89.20667z" style="text-align:start" id="path401"/><path d="M105.25355 37.3238h3.44933v10.17467h6.48267v3.34534h-9.932z" style="text-align:start" id="path403"/><path d="M123.92074 37.3238v13.52h-3.46667v-13.52z" style="text-align:start" id="path405"/><path d="M142.23828 37.3238l-4.54133 6.72534 4.64533 6.79467h-4.212l-2.51333-3.70934-2.496 3.70934h-4.212l4.64533-6.79467-4.54133-6.72533h4.09066l2.51334 3.692 2.53066-3.692z" style="text-align:start" id="path407"/></g></g></svg>