<svg xmlns="http://www.w3.org/2000/svg" role="img" viewBox="2.65 16.65 200.46 72.46"><g fill="none" fill-rule="evenodd"><g fill="#FCEB14"><path d="M42.04 80.512c0 .255-.025.503-.063.748l-.014.091c-.397 2.292-2.39 4.04-4.785 4.04-2.136 0-3.95-1.392-4.602-3.317l-20.23-11.717a6.509 6.509 0 0 1-3.241-5.633V44.988c.749.255 1.548.4 2.383.4.75 0 1.472-.115 2.155-.322v19.658c0 .695.372 1.341.973 1.689l18.871 10.931a4.843 4.843 0 0 1 3.691-1.71 4.85 4.85 0 0 1 3.915 1.996c.015.022.032.043.048.065.062.088.12.178.177.271l.065.107a4.828 4.828 0 0 1 .316.655c.024.06.045.12.067.182.027.077.053.155.076.233.023.076.04.151.058.226.017.071.035.141.049.213.019.095.03.19.044.286.007.058.018.113.024.17.014.157.023.314.023.474zm24.88-42.605a4.867 4.867 0 0 1-1.67 3.67v23.147a6.507 6.507 0 0 1-3.24 5.633L44.63 80.424a7.449 7.449 0 0 0-1.496-4.392l16.607-9.62c.6-.347.972-.993.972-1.688V42.592a4.88 4.88 0 0 1-3.518-4.685 4.853 4.853 0 0 1 .982-2.927 4.91 4.91 0 0 1 .362-.43l.017-.019c.267-.278.565-.523.89-.732l.104-.064c.129-.077.26-.15.396-.216.04-.019.08-.04.12-.057.17-.077.345-.149.525-.204v-.001a4.826 4.826 0 0 1 1.467-.228c2.682 0 4.862 2.188 4.862 4.878zM9.105 42.155a4.883 4.883 0 0 1-2.48-4.248c0-2.69 2.181-4.878 4.863-4.878.695 0 1.355.15 1.954.414l20.494-11.87a6.462 6.462 0 0 1 6.483 0L57.902 31.7a7.508 7.508 0 0 0-2.83 3.616l-16.922-9.8a1.939 1.939 0 0 0-1.945 0L16.272 37.061c.049.275.078.556.078.845a4.882 4.882 0 0 1-3.188 4.574l-.043.016a5.14 5.14 0 0 1-.45.137c-.03.008-.06.017-.091.023a5 5 0 0 1-.427.078c-.04.006-.078.013-.118.018-.179.02-.36.033-.545.033a4.85 4.85 0 0 1-.586-.04c-.051-.005-.102-.015-.153-.023a4.687 4.687 0 0 1-.437-.087l-.132-.034a4.866 4.866 0 0 1-1.075-.447z"/><path d="M49.052 59.598l-15.248 8.238V66.38l4.762-2.39c.013-.005.02-.015.032-.021l.036-.015c.037-.022.067-.053.1-.078.029-.022.063-.039.09-.063.008-.007.012-.016.019-.023.039-.037.07-.081.103-.124.023-.03.052-.056.072-.089.005-.007.008-.014.012-.022.027-.046.046-.097.066-.148.016-.037.036-.07.047-.11.003-.005.004-.011.006-.017.015-.054.017-.11.024-.167.005-.037.017-.073.018-.111l-.002-.014.002-.011V50.134l9.86-5.496v14.96zm-16.35 4.8l-5.695-3.173-4.032-2.248 2.937-1.474 9.728 5.422-2.938 1.474zm-1.157 3.41l-9.861-5.497v-1.46l9.86 5.496v1.46zm-4.474-23.17l9.86 5.496v10.918l-9.86-5.497V44.638zm7.7-5.551l.846 1.912c.186.883 1.156 1.495 2.444 1.495s2.258-.612 2.444-1.495l.847-1.912 6.503 3.624-9.794 5.46-9.794-5.46 6.503-3.624zm3.29-5c1.504 0 2.483.405 2.82.668-.338.261-1.316.667-2.82.667-1.504 0-2.483-.406-2.82-.667.337-.263 1.315-.668 2.82-.668zm-1.315 3.877l-.172-.387c.467.072.963.111 1.487.111a9.89 9.89 0 0 0 1.488-.11l-1.157 2.612a1.83 1.83 0 0 1-.66 0l-.979-2.208-.007-.018zm14.525 4.451c-.009-.036-.029-.068-.041-.103-.023-.057-.042-.115-.072-.168-.021-.036-.051-.067-.076-.1-.034-.046-.063-.093-.103-.133-.029-.03-.066-.051-.098-.078-.042-.033-.08-.07-.127-.099l-.014-.005-.01-.008-8.456-4.713.364-.824c.381-.416.593-.9.593-1.43 0-.036-.007-.07-.009-.106.006-.16-.02-.32-.081-.47-.434-1.395-2.436-2.358-5.08-2.358-2.645 0-4.649.963-5.08 2.36a1.13 1.13 0 0 0-.08.462c-.003.038-.01.074-.01.113 0 .53.212 1.014.594 1.43l.364.823-8.457 4.713-.01.008-.014.005c-.048.028-.085.066-.127.1-.032.026-.068.047-.098.077-.04.04-.07.087-.103.132-.025.034-.055.065-.076.101-.03.053-.05.111-.07.168-.014.035-.033.067-.043.103-.026.095-.04.195-.04.296v12.81l-4.762 2.39c-.01.005-.02.015-.032.021-.011.006-.024.008-.036.015-.036.022-.065.053-.099.078-.037.028-.075.053-.108.085-.04.038-.072.082-.105.125-.027.036-.057.068-.08.106-.029.048-.049.1-.07.152-.016.04-.037.078-.049.12-.016.056-.02.115-.027.174-.005.038-.018.074-.018.113l.001.013-.001.011v4.054c0 .411.222.79.58.99l12.12 6.756c.054.03.111.046.166.066.032.011.061.029.093.037a1.117 1.117 0 0 0 .575.002c.03-.008.058-.025.089-.035.054-.02.11-.035.162-.063l17.507-9.458c.366-.198.594-.58.594-.998V42.711c0-.1-.014-.2-.04-.296z"/></g><path fill="#050713" fill-rule="nonzero" d="M84.608 45.087c-.595 1.122-1.768 1.887-3.179 1.887a3.595 3.595 0 0 1-3.604-3.604 3.595 3.595 0 0 1 3.604-3.604c1.394 0 2.584.765 3.179 1.887l3.094-1.394a7.088 7.088 0 0 0-6.273-3.774c-3.825 0-7.038 3.094-7.038 6.885s3.213 6.885 7.038 6.885c2.737 0 5.134-1.547 6.29-3.808l-3.111-1.36zm4.833-1.717c0 3.791 3.213 6.885 7.038 6.885 3.876 0 7.038-3.094 7.038-6.885s-3.162-6.885-7.038-6.885c-3.825 0-7.038 3.094-7.038 6.885zm3.434 0a3.595 3.595 0 0 1 3.604-3.604c2.04 0 3.604 1.598 3.604 3.604 0 2.006-1.564 3.604-3.604 3.604a3.595 3.595 0 0 1-3.604-3.604zM106.09 50h6.154c4.148 0 6.273-3.009 6.273-6.63 0-3.604-2.125-6.63-6.273-6.63h-6.154V50zm5.899-9.962c2.023 0 3.094 1.343 3.094 3.332 0 1.989-1.071 3.349-3.094 3.349h-2.5v-6.681h2.5zM121.157 50h10.183v-3.281h-6.783v-1.7h5.576v-3.077h-5.576v-1.904h6.783V36.74h-10.183V50zM81.055 65.087h3.213v.374c-.629.918-1.649 1.513-2.839 1.513a3.584 3.584 0 0 1-3.604-3.604 3.584 3.584 0 0 1 3.604-3.604c1.156 0 2.176.527 2.839 1.36l2.771-1.87a7.095 7.095 0 0 0-5.61-2.771c-3.842 0-7.038 3.094-7.038 6.885s3.196 6.885 7.038 6.885c1.36 0 2.703-.51 3.349-1.496V70h2.669v-7.735h-6.392v2.822zM90.325 70h10.183v-3.281h-6.783v-1.7h5.576v-3.077h-5.576v-1.904h6.783V56.74H90.325V70zm16.394 0v-7.395L112.635 70h2.873V56.74h-3.383v7.412l-5.916-7.412h-2.89V70h3.4zm11.99 0h10.183v-3.281h-6.783v-1.7h5.576v-3.077h-5.576v-1.904h6.783V56.74H118.71V70zm12.994-13.26V70h3.383v-3.553h1.734L139.336 70h4.063l-2.873-4.012c1.785-.816 2.618-2.55 2.618-4.403 0-2.635-1.564-4.845-4.964-4.845h-6.477zm6.29 3.094c1.36 0 1.87.765 1.87 1.785 0 .918-.51 1.751-1.87 1.751h-2.907v-3.536h2.907zm11.99-3.094L144.611 70h3.706l.731-1.938h5.22l.73 1.938h3.706l-5.355-13.26h-3.366zm3.128 8.245h-2.907l1.462-3.893 1.445 3.893zm4.919-4.947h4.13V70h3.4v-9.962h4.132V56.74H158.03v3.298zm13.146 3.332c0 3.791 3.213 6.885 7.038 6.885 3.876 0 7.038-3.094 7.038-6.885s-3.162-6.885-7.038-6.885c-3.825 0-7.038 3.094-7.038 6.885zm3.434 0a3.595 3.595 0 0 1 3.604-3.604c2.04 0 3.604 1.598 3.604 3.604 0 2.006-1.564 3.604-3.604 3.604a3.595 3.595 0 0 1-3.604-3.604zm13.214-6.63V70h3.383v-3.553h1.734L195.457 70h4.063l-2.873-4.012c1.785-.816 2.618-2.55 2.618-4.403 0-2.635-1.564-4.845-4.964-4.845h-6.477zm6.29 3.094c1.36 0 1.87.765 1.87 1.785 0 .918-.51 1.751-1.87 1.751h-2.907v-3.536h2.907z"/></g></svg>