<svg xmlns="http://www.w3.org/2000/svg" role="img" xmlns:xlink="http://www.w3.org/1999/xlink" viewBox="-1.70 -1.70 114.53 39.28"><defs><style/></defs><use x=".533" y=".533" xlink:href="#A"/><symbol id="A" overflow="visible"><g fill="#e10098"><path d="M42.48 10.035q-.853 0-1.557.227-.683.21-1.197.704-.494.475-.798 1.235-.285.76-.323 1.813-.06 1.7 0 3.42.038 1.063.323 1.813.304.76.798 1.254.512.475 1.197.704.704.21 1.557.21.838 0 1.557-.227.72-.247 1.235-.72.533-.494.838-1.255.304-.76.304-1.786v-.97h-3.32q-.418 0-.418-.427v-.267q0-.427.418-.427h4.053q.427 0 .427.427v1.672q0 1.14-.34 2.09-.34.93-1.007 1.617-.645.683-1.617 1.064-.96.36-2.165.36-1.235 0-2.165-.36-.93-.38-1.577-1.045-.627-.665-.968-1.576-.323-.93-.36-2.052-.038-.853-.038-1.805 0-.96.038-1.805.038-1.12.38-2.033.34-.93.968-1.596.645-.665 1.577-1.026.93-.38 2.146-.38 1.312 0 2.242.4.93.4 1.52.96.59.552.875 1.16.285.608.304 1.007.02.17-.107.285-.114.107-.304.107h-.418q-.17 0-.247-.075-.075-.107-.15-.304-.152-.427-.427-.853-.267-.427-.72-.76-.455-.34-1.083-.55-.627-.21-1.493-.21zm8.97 3.78q.683-1.312 2.584-1.312h.704q.418 0 .418.418v.267q0 .418-.418.418h-.817q-1.14 0-1.805.665t-.665 1.805v5.888q0 .2-.133.304-.114.114-.304.114h-.304q-.418 0-.418-.418V12.94q0-.2.114-.304.114-.133.304-.133h.304q.2 0 .304.133.133.114.133.304v.875zm11.734 8.572q-.418 0-.418-.418v-.893q-.17.267-.456.533-.267.267-.665.475-.4.21-.96.34-.552.152-1.28.152-.683 0-1.312-.21-.608-.227-1.083-.608-.455-.38-.74-.893-.267-.512-.267-1.12 0-.645.267-1.16.285-.512.78-.893.494-.4 1.178-.645.704-.267 1.54-.38l3.002-.418v-.665q0-1.026-.627-1.596-.608-.57-1.956-.57-1.063 0-1.653.418-.57.4-.72.875-.075.227-.2.323-.107.075-.267.075h-.267q-.17 0-.304-.114-.114-.133-.114-.304 0-.267.2-.665.2-.4.608-.78.427-.38 1.102-.645.665-.285 1.617-.285 1.12 0 1.843.304.74.304 1.16.798.418.475.57 1.063.17.59.17 1.16v6.326q0 .418-.418.418h-.323zm-3.6-.912q.645 0 1.216-.21.59-.227 1.026-.665.427-.427.683-1.102.248-.665.248-1.557v-.645l-2.45.34q-3.153.427-3.153 2.014 0 .475.21.817.227.34.57.57.34.227.78.34.427.107.875.107zm11.687 1.102q-1.197 0-1.956-.427-.76-.427-1.235-1.064v4.5q0 .418-.418.418h-.323q-.418 0-.418-.418V12.92q0-.418.418-.418h.323q.418 0 .418.418v.893q.475-.645 1.235-1.063.76-.427 1.956-.427 1.102 0 1.86.4.78.38 1.254 1.026.475.627.683 1.444.227.798.267 1.634.02.285.02.627 0 .34-.02.627-.038.838-.267 1.653-.21.798-.683 1.444-.475.627-1.254 1.026-.76.38-1.86.38zm-3.192-5.814q-.02.285-.02.74t.02.74q.02.57.2 1.16.2.57.57 1.026.38.456.96.76.57.285 1.367.285.838 0 1.387-.285.57-.285.912-.76.36-.494.512-1.12.17-.645.21-1.33.02-.533 0-1.064-.038-.683-.21-1.312-.15-.627-.512-1.102-.34-.494-.912-.78-.55-.304-1.387-.304-.817 0-1.387.304-.57.304-.96.798-.36.475-.55 1.063-.17.59-.2 1.178zm11.022-2.948q.512-.665 1.235-1.083.72-.418 1.956-.418.97 0 1.69.323t1.197.893q.494.57.74 1.35.247.78.247 1.69v5.395q0 .418-.418.418h-.32q-.418 0-.418-.418v-5.3q0-1.52-.74-2.374-.74-.875-2.165-.875-1.367 0-2.185.853-.817.853-.817 2.397v5.3q0 .418-.418.418h-.323q-.418 0-.418-.418V9.3q0-.418.418-.418h.323q.418 0 .418.418v4.5zm14.827-4.92q1.102 0 2.014.323.912.323 1.557.988.665.645 1.026 1.634.38.97.418 2.3.038.853.038 1.596 0 .74-.038 1.596-.107 2.717-1.387 3.99l1.216 1.7.038.075q.02.038.02.133 0 .152-.114.267-.114.114-.267.114h-.43q-.21 0-.36-.17-.15-.15-.247-.267l-.838-1.16q-1.14.552-2.66.552-2.375 0-3.666-1.273-1.273-1.273-1.35-3.97-.038-.853-.038-1.596 0-.74.038-1.596.038-1.33.4-2.3.38-.988 1.026-1.634.665-.665 1.557-.988.912-.323 2.033-.323zm0 1.14q-.798 0-1.493.247-.683.227-1.197.74-.512.512-.817 1.312-.285.798-.323 1.9l-.038.798v1.424q.02.36.038.78.038 1.12.323 1.92.304.78.798 1.28.512.512 1.197.76.683.227 1.498.227.817 0 1.498-.227.683-.247 1.178-.76.512-.512.798-1.28.304-.798.34-1.92.02-.418.02-.78v-1.424q0-.36-.02-.798-.038-1.102-.34-1.9-.285-.798-.798-1.312-.512-.512-1.197-.74-.683-.247-1.493-.247zm9.273 11.207h6.554q.427 0 .427.427v.285q0 .418-.427.418h-7.332q-.418 0-.418-.418V9.502q0-.418.418-.418h.36q.418 0 .418.418v11.74zM2.823 26.6l-1.28-.74 14.27-24.715 1.28.74z"/><path d="M1.252 23.877h28.54v1.48H1.252z"/><path d="M16.093 32.95L1.817 24.708l.74-1.28 14.275 8.24zm12.4-21.483L14.22 3.226l.74-1.28 14.276 8.242z"/><path d="M2.56 11.463l-.74-1.28L16.107 1.95l.74 1.28z"/><path d="M28.23 26.6L13.96 1.875l1.28-.74L29.51 25.85zM2.384 9.2H3.86v16.485H2.384zm24.807 0h1.48v16.485H27.2z"/><path d="M15.84 32.324l-.646-1.12L27.6 24.036l.646 1.12z"/><path d="M30.63 26.167a3.112 3.112 0 1 1-5.39-3.113 3.112 3.112 0 0 1 5.391 3.114M5.807 11.83c-.86 1.487-2.762 1.998-4.25 1.14S-.44 10.21.416 8.72s2.762-1.998 4.25-1.14a3.12 3.12 0 0 1 1.141 4.251M.427 26.167a3.116 3.116 0 0 1 1.14-4.25 3.116 3.116 0 0 1 4.25 1.14 3.116 3.116 0 0 1-1.14 4.25c-1.5.855-3.397.35-4.25-1.14M25.252 11.83a3.116 3.116 0 0 1 1.14-4.25 3.116 3.116 0 0 1 4.25 1.14 3.116 3.116 0 0 1-1.14 4.25 3.114 3.114 0 0 1-4.25-1.14m-9.725 23.062c-1.72 0-3.11-1.4-3.11-3.11a3.11 3.11 0 0 1 3.109-3.109 3.11 3.11 0 0 1 3.109 3.109 3.115 3.115 0 0 1-3.11 3.11m0-28.675c-1.72 0-3.11-1.4-3.11-3.11A3.11 3.11 0 0 1 15.527 0a3.11 3.11 0 0 1 3.109 3.109 3.103 3.103 0 0 1-3.11 3.11"/></g></symbol></svg>