<svg xmlns="http://www.w3.org/2000/svg" role="img" xmlns:xlink="http://www.w3.org/1999/xlink" viewBox="-6.17 -6.17 321.10 115.35"><defs><path id="a" d="M.026 26.261c0-3.676 1.945-7.074 5.105-8.919L32.426 1.41a10.191 10.191 0 0 1 10.268-.01l9.878 5.744a1.035 1.035 0 0 1 0 1.785L16.98 29.637a1.032 1.032 0 0 0-.512.893v8.546c0 .182-.048.36-.138.518-.284.492-.912.66-1.4.374l-6.36-3.714a1.02 1.02 0 0 0-.514-.139c-.566 0-1.025.462-1.025 1.031v21.977c0 .369.196.71.514.894l8.41 4.873c.317.184.513.525.513.893v6.021c0 .182-.048.36-.139.518a1.02 1.02 0 0 1-1.4.374l-9.804-5.731a10.323 10.323 0 0 1-5.1-8.915V26.26zm21.083 49.46V33.245c0-.369.196-.71.514-.894l15.401-8.92a1.02 1.02 0 0 1 1.026.003l15.407 9.011c.315.185.51.524.51.892v42.387c0 .369-.196.709-.513.893l-4.916 2.857a1.021 1.021 0 0 1-1.4-.377 1.036 1.036 0 0 1-.137-.516V57.657c0-.57-.459-1.03-1.025-1.03a1.02 1.02 0 0 0-.515.139l-7.386 4.326a1.02 1.02 0 0 1-1.033-.001l-7.339-4.32a1.021 1.021 0 0 0-1.402.37c-.091.158-.14.338-.14.52v20.93c0 .57-.458 1.032-1.024 1.032a1.02 1.02 0 0 1-.508-.135l-5.003-2.872a1.032 1.032 0 0 1-.517-.895zm53.967-50.014v4.867c0 .365-.193.704-.506.889l-8.382 4.95a1.032 1.032 0 0 0-.506.89v5.731c0 .57.46 1.031 1.025 1.031.18 0 .356-.047.512-.138l6.32-3.666a1.021 1.021 0 0 1 1.4.378c.09.157.137.334.137.515v16.885c0 3.677-1.946 7.075-5.107 8.92l-9.744 5.685a1.021 1.021 0 0 1-1.4-.374 1.036 1.036 0 0 1-.139-.517V65.95c0-.368.196-.709.513-.893l8.354-4.856a1.03 1.03 0 0 0 .512-.892v-5.825a1.027 1.027 0 0 0-1.538-.892l-6.302 3.675a1.021 1.021 0 0 1-1.4-.376 1.036 1.036 0 0 1-.139-.517v-24.78c0-.367-.194-.707-.51-.892l-14.495-8.467a1.035 1.035 0 0 1 0-1.783L58.174 11a1.02 1.02 0 0 1 1.027 0l11.183 6.516a9.476 9.476 0 0 1 4.693 8.19z"/></defs><g fill="none" fill-rule="evenodd"><path fill="#16294E" fill-rule="nonzero" d="M54.065 2.076l31.05 18.073a15.395 15.395 0 0 1 7.638 13.308v36.264c0 5.486-2.91 10.556-7.638 13.308l-31.05 18.074a15.277 15.277 0 0 1-15.377 0L7.638 83.029A15.395 15.395 0 0 1 0 69.721V33.457c0-5.485 2.91-10.556 7.638-13.308l31.05-18.073a15.277 15.277 0 0 1 15.377 0z"/><path fill="#FFF" fill-rule="nonzero" d="M41.109 7.414L11.111 24.9a10.297 10.297 0 0 0-5.1 8.9v35.046c0 3.669 1.943 7.06 5.1 8.9L41.11 95.229a10.19 10.19 0 0 0 10.268 0l29.998-17.484a10.297 10.297 0 0 0 5.1-8.9V33.798c0-3.668-1.943-7.059-5.1-8.899L51.377 7.414a10.19 10.19 0 0 0-10.268 0zM82.915 22.23a13.386 13.386 0 0 1 6.63 11.57v35.046c0 4.77-2.526 9.177-6.63 11.57L52.917 97.898a13.246 13.246 0 0 1-13.348 0L9.57 80.414a13.386 13.386 0 0 1-6.63-11.569V33.798c0-4.769 2.526-9.177 6.63-11.569L39.569 4.745a13.246 13.246 0 0 1 13.348 0l29.998 17.484z"/><g transform="translate(8.82 9.088)"><mask id="b" fill="#fff"><use xlink:href="#a"/></mask><g fill-rule="nonzero" mask="url(#b)"><path fill="#E6E6E6" d="M80.174 17.149v50.71L36.626 93.217l-.093-50.833z"/><path fill="#D2D2D2" d="M37.638 42.093V85.89L.055 64.008V20.243z"/><path fill="#FFF" d="M37.638-1.64L75.71 20.527 37.557 42.695-.434 20.527z"/></g></g><path fill="#16294E" d="M111.878 64.975c-1.345-1.233-2.017-3.083-2.017-5.55V43.753c0-2.466.672-4.317 2.017-5.55 1.345-1.233 3.276-1.85 5.793-1.85h5.857v3.308h-6.291c-1.07 0-1.938.32-2.604.958-.665.639-.998 1.408-.998 2.307v17.326c0 .9.333 1.669.998 2.307.666.639 1.533.958 2.604.958h3.991V54.07h-3.644v-3.264h7.246v16.02h-7.16c-2.516 0-4.447-.617-5.792-1.85zM142.9 54.201h-3.866v12.624h-3.779V36.353h7.775c2.462 0 4.322.544 5.582 1.632 1.26 1.089 1.89 2.808 1.89 5.159v4.179c0 3.28-1.304 5.325-3.91 6.138l6.038 13.364h-4.127L142.9 54.201zm3.35-13.871c-.51-.513-1.321-.77-2.43-.77h-4.555v11.762h4.555c1.109 0 1.92-.264 2.43-.792.511-.528.767-1.364.767-2.51v-5.202c0-1.146-.256-1.976-.767-2.488zm28.449 26.495l-1.648-7.705h-8.456l-1.69 7.705h-3.86l7.328-30.472h4.987l7.198 30.472h-3.86zM168.51 38.76l-3.586 16.572h7.217l-3.63-16.572zm32.204 14.55c-1.266 1.117-3.136 1.676-5.61 1.676h-4.152v11.84h-3.842V36.353h7.906c2.503 0 4.395.544 5.676 1.632 1.28 1.089 1.921 2.808 1.921 5.159v4.963c0 2.35-.633 4.084-1.9 5.202zm-2.61-12.997c-.51-.5-1.32-.751-2.43-.751h-4.555v12.295h4.555c1.11 0 1.92-.258 2.43-.774.512-.516.767-1.334.767-2.454v-5.883c0-1.12-.255-1.931-.766-2.433zm26.704 26.513V52.808h-8.839v14.017h-3.733V36.353h3.733v13.234h8.84V36.353h3.732v30.472h-3.733zm29.127.747c-.233.06-4.944.054-5.294.054-1.662 0-3.106.042-4.331-.415-1.225-.458-2.239-1.304-3.04-2.539-.803-1.235-1.393-2.942-1.773-5.123-.379-2.18-.35-14.743.088-16.832.437-2.089 1.094-3.682 1.969-4.78.875-1.098 1.954-1.732 3.237-2.082 1.284-.351 5.09-.323 5.556-.277 2.004-.005 3.2.005 3.588.03v5.264c-.71 0-4.506.036-5.294.036a3.38 3.38 0 0 0-1.64.433c-.398.232-.824.528-1.116 1.26-.292.732-.51 1.71-.656 3.112-.146 1.403-.153 9.956-.022 11.39.131 1.432.335 2.455.612 3.248.277.793.65 1.319 1.116 1.578.467.26 1.075.389 1.706.389.904 0 4.753.036 5.294.036v5.218zm25.588.055V41.95l-3.759 14.005h-4.545l-3.933-14.005v25.677h-5.332V35.551h9.09l2.579 12.326 2.622-12.326h8.697v32.076h-5.42zM309 58.051c0 2.135-.251 3.85-.753 5.146-.502 1.296-1.19 2.295-2.065 2.996-.875.702-1.922 1.069-3.14 1.282-1.22.214-2.546.14-3.98.14-.459 0-5.567-.016-6.11-.055v-5.082l5.68.01c1.348 0 2.416-.297 3.205-.892.789-.594 1.183-1.624 1.183-3.087 0-.824-.079-1.525-.237-2.104-.157-.58-.394-1.053-.71-1.418a3.411 3.411 0 0 0-1.161-.87 7.232 7.232 0 0 0-1.549-.503c-2.41-.518-4.123-1.51-5.141-2.973-1.018-1.464-1.527-3.537-1.527-6.22 0-1.708.222-3.142.666-4.3.445-1.16 1.105-2.105 1.98-2.836.874-.732 1.95-1.078 3.226-1.398 1.276-.32 2.732-.326 4.367-.3.528.009 5.017-.04 5.335-.036v5.04c-.43 0-5.392.033-5.765.033-1.234 0-2.18.259-2.84.777-.66.519-.99 1.357-.99 2.516 0 .732.05 1.334.151 1.807.1.473.28.854.538 1.143.258.29.602.526 1.033.71.43.182.99.35 1.677.503a10.75 10.75 0 0 1 2.818.983 6.925 6.925 0 0 1 2.195 1.807c.616.762 1.09 1.723 1.42 2.882.33 1.158.494 2.592.494 4.3z"/></g></svg>