<svg xmlns="http://www.w3.org/2000/svg" role="img" viewBox="2.79 16.79 192.92 72.17"><g fill="none" fill-rule="evenodd"><g fill="#59F79D"><path d="M42.04 80.512c0 .255-.025.503-.063.748l-.014.091c-.397 2.292-2.39 4.04-4.785 4.04-2.136 0-3.95-1.392-4.602-3.317l-20.23-11.717a6.509 6.509 0 0 1-3.241-5.633V44.988c.749.255 1.548.4 2.383.4.75 0 1.472-.115 2.155-.322v19.658c0 .695.372 1.341.973 1.689l18.871 10.931a4.843 4.843 0 0 1 3.691-1.71 4.85 4.85 0 0 1 3.915 1.996c.015.022.032.043.048.065.062.088.12.178.177.271l.065.107a4.828 4.828 0 0 1 .316.655c.024.06.045.12.067.182.027.077.053.155.076.233.023.076.04.151.058.226.017.071.035.141.049.213.019.095.03.19.044.286.007.058.018.113.024.17.014.157.023.314.023.474zm24.88-42.605a4.867 4.867 0 0 1-1.67 3.67v23.147a6.507 6.507 0 0 1-3.24 5.633L44.63 80.424a7.449 7.449 0 0 0-1.496-4.392l16.607-9.62c.6-.347.972-.993.972-1.688V42.592a4.88 4.88 0 0 1-3.518-4.685 4.853 4.853 0 0 1 .982-2.927 4.91 4.91 0 0 1 .362-.43l.017-.019c.267-.278.565-.523.89-.732l.104-.064c.129-.077.26-.15.396-.216.04-.019.08-.04.12-.057.17-.077.345-.149.525-.204v-.001a4.826 4.826 0 0 1 1.467-.228c2.682 0 4.862 2.188 4.862 4.878zM9.105 42.155a4.883 4.883 0 0 1-2.48-4.248c0-2.69 2.181-4.878 4.863-4.878.695 0 1.355.15 1.954.414l20.494-11.87a6.462 6.462 0 0 1 6.483 0L57.902 31.7a7.508 7.508 0 0 0-2.83 3.616l-16.922-9.8a1.939 1.939 0 0 0-1.945 0L16.272 37.061c.049.275.078.556.078.845a4.882 4.882 0 0 1-3.188 4.574l-.043.016a5.14 5.14 0 0 1-.45.137c-.03.008-.06.017-.091.023a5 5 0 0 1-.427.078c-.04.006-.078.013-.118.018-.179.02-.36.033-.545.033a4.85 4.85 0 0 1-.586-.04c-.051-.005-.102-.015-.153-.023a4.687 4.687 0 0 1-.437-.087l-.132-.034a4.866 4.866 0 0 1-1.075-.447z"/><path d="M21.143 48.811l3.319-7.131 3.318 7.131h-6.637zm7.417 2.285a4.251 4.251 0 0 1-4.092 3.094h-.034a4.169 4.169 0 0 1-4.042-3.094h8.168zm4.468 12.963v-.026c0-.626.53-1.137 1.182-1.137h5.743c.653 0 1.184.51 1.184 1.137l-8.11.026zm2.686-21.044a1.454 1.454 0 0 1 .472-1.617 1.441 1.441 0 0 1 1.675-.081c.519.334.77.962.644 1.508a.816.816 0 0 0-.053.173 1.445 1.445 0 0 1-1.37.992h-.002a1.447 1.447 0 0 1-1.366-.975zM30.586 67.43c.027-.604.547-1.087 1.18-1.087h10.631c.634 0 1.153.483 1.182 1.087H30.586zm15.76-11.341l3.317-7.13 3.32 7.13h-6.637zm7.417 2.286a4.252 4.252 0 0 1-4.094 3.093h-.033a4.169 4.169 0 0 1-4.042-3.093h8.169zm1.784-2.14l-3.864-8.304 1.054.304c.293.085.6.05.867-.1.265-.147.457-.39.541-.683a1.139 1.139 0 0 0-.78-1.414l-12.562-3.617a3.733 3.733 0 0 0-2.782-3.497 3.715 3.715 0 0 0-4.031 1.536l-12.563-3.616a1.135 1.135 0 0 0-1.409.784 1.144 1.144 0 0 0 .781 1.412l2.11.608-4.342 9.332a1.148 1.148 0 0 0-.606 1.01 6.499 6.499 0 0 0 4.016 6.027 6.462 6.462 0 0 0 7.083-1.421A6.498 6.498 0 0 0 31 49.99c0-.446-.262-.848-.656-1.034l-3.85-8.275 6.867 1.977a3.724 3.724 0 0 0 2.582 3.438V60.61H34.21c-1.908 0-3.46 1.536-3.46 3.423v.154a3.489 3.489 0 0 0-2.444 3.295v1.084c.02.635.53 1.14 1.17 1.15h15.218a1.185 1.185 0 0 0 1.165-1.161v-1.076a3.49 3.49 0 0 0-2.445-3.292v-.154c0-1.887-1.553-3.423-3.461-3.423h-1.732V46.095a3.748 3.748 0 0 0 1.952-1.476l7.948 2.288-4.352 9.354a1.146 1.146 0 0 0-.606 1.009 6.501 6.501 0 0 0 4.016 6.027 6.46 6.46 0 0 0 7.083-1.42 6.5 6.5 0 0 0 1.941-4.608 1.15 1.15 0 0 0-.656-1.034z"/></g><path fill="#050713" fill-rule="nonzero" d="M75.02 54.74V68h3.4V54.74h-3.4zM85.021 68v-7.395L90.937 68h2.873V54.74h-3.383v7.412l-5.916-7.412h-2.89V68h3.4zm11.464-3.978v.153c0 2.601 2.448 4.08 5.627 4.08 3.026 0 5.27-1.36 5.27-3.944 0-2.824-2.952-3.931-4.804-4.585l-.606-.212c-1.251-.445-1.747-.713-1.747-1.187 0-.442.459-.901 1.615-.901 1.377 0 2.04.765 2.04 1.411v.119h3.315v-.187c0-2.635-2.33-4.284-5.423-4.284-3.026 0-5.185 1.581-5.185 4.114 0 2.576 2.454 3.631 4.5 4.327l.379.127c1.598.544 2.26.884 2.26 1.445 0 .391-.407.816-1.682.816-1.547 0-2.244-.697-2.244-1.207v-.085h-3.315zM110.056 68h3.4v-3.009h2.448c3.52 0 5.202-2.363 5.202-5.168 0-2.669-1.683-5.083-5.202-5.083h-5.848V68zm5.661-10.166c1.428 0 1.955.952 1.955 2.006 0 1.173-.527 2.057-1.955 2.057h-2.26v-4.063h2.26zM123.577 68h10.183v-3.281h-6.783v-1.7h5.576v-3.077h-5.576v-1.904h6.783V54.74h-10.183V68zm22.343-4.913c-.595 1.122-1.768 1.887-3.179 1.887a3.595 3.595 0 0 1-3.604-3.604 3.595 3.595 0 0 1 3.604-3.604c1.394 0 2.584.765 3.18 1.887l3.093-1.394a7.088 7.088 0 0 0-6.273-3.774c-3.825 0-7.038 3.094-7.038 6.885s3.213 6.885 7.038 6.885c2.737 0 5.134-1.547 6.29-3.808l-3.11-1.36zm4.647-5.049h4.13V68h3.4v-9.962h4.132V54.74h-11.662v3.298zm13.146 3.332c0 3.791 3.213 6.885 7.038 6.885 3.876 0 7.038-3.094 7.038-6.885s-3.162-6.885-7.038-6.885c-3.825 0-7.038 3.094-7.038 6.885zm3.434 0a3.595 3.595 0 0 1 3.604-3.604c2.04 0 3.604 1.598 3.604 3.604 0 2.006-1.564 3.604-3.604 3.604a3.595 3.595 0 0 1-3.604-3.604zm13.214-6.63V68h3.383v-3.553h1.734L187.994 68h4.063l-2.873-4.012c1.785-.816 2.618-2.55 2.618-4.403 0-2.635-1.564-4.845-4.964-4.845h-6.477zm6.29 3.094c1.36 0 1.87.765 1.87 1.785 0 .918-.51 1.751-1.87 1.751h-2.907v-3.536h2.907z"/><path fill="#6D7A99" fill-rule="nonzero" d="M78.565 41.821h2.079v.242a2.208 2.208 0 0 1-1.837.979 2.32 2.32 0 0 1-2.332-2.332 2.32 2.32 0 0 1 2.332-2.332c.748 0 1.408.341 1.837.88l1.793-1.21a4.591 4.591 0 0 0-3.63-1.793c-2.486 0-4.554 2.002-4.554 4.455 0 2.453 2.068 4.455 4.554 4.455.88 0 1.749-.33 2.167-.968V45h1.727v-5.005h-4.136v1.826zm7.746-5.401V45H88.5v-2.299h1.122L91.25 45h2.629l-1.86-2.596c1.156-.528 1.695-1.65 1.695-2.849 0-1.705-1.012-3.135-3.212-3.135H86.31zm4.07 2.002c.88 0 1.21.495 1.21 1.155 0 .594-.33 1.133-1.21 1.133H88.5v-2.288h1.88zm9.505-2.002L96.41 45h2.398l.473-1.254h3.377l.473 1.254h2.398l-3.465-8.58h-2.178zm2.024 5.335h-1.88l.945-2.519.935 2.519zM108.688 45h2.2v-1.947h1.584c2.277 0 3.366-1.529 3.366-3.344 0-1.727-1.09-3.289-3.366-3.289h-3.784V45zm3.663-6.578c.924 0 1.265.616 1.265 1.298 0 .759-.341 1.331-1.265 1.331h-1.463v-2.629h1.463zm12.52-2.002v3.333h-3.499V36.42h-2.189V45h2.19v-3.19h3.497V45h2.2v-8.58h-2.2zm5.61 4.29c0 2.2 1.673 4.048 3.807 4.389 1.485.495 2.486 2.035 4.213 2.035.78 0 1.782-.319 2.398-1.166l-1.661-1.342c-.231.352-.627.385-.748.385-.374 0-.726-.198-1.122-.473 1.33-.781 2.222-2.2 2.222-3.828 0-2.453-2.046-4.455-4.554-4.455-2.475 0-4.554 2.002-4.554 4.455zm2.223 0a2.326 2.326 0 0 1 2.332-2.332 2.306 2.306 0 0 1 2.332 2.332 2.306 2.306 0 0 1-2.332 2.332 2.326 2.326 0 0 1-2.332-2.332zM143.012 45v-8.58h2.19v6.457h4.113V45h-6.303z"/></g></svg>