<svg xmlns="http://www.w3.org/2000/svg" role="img" viewBox="3.15 17.15 174.46 71.21"><title>GraphQL Modules logo</title><g fill="none" fill-rule="evenodd"><path fill="#FFF" d="M0 0h215v105H0z"/><path fill="#E535AB" d="M42.04 80.31454c0 .2538-.02485.50156-.06325.7448-.00452.03088-.00829.061-.01356.09113-.39763 2.2841-2.38954 4.02675-4.78511 4.02675-2.1365 0-3.9507-1.38719-4.60211-3.30605L12.3458 70.19231c-2.00622-1.15825-3.24129-3.29928-3.24129-5.61426V44.90668c.74932.25379 1.54835.39763 2.38352.39763.74932 0 1.47229-.11372 2.15458-.32007v19.5938c0 .6921.37203 1.33674.97299 1.68316l18.8716 10.89565c.8924-1.04152 2.21407-1.70499 3.69087-1.70499 1.60633 0 3.02816.78547 3.91454 1.98966.01582.02184.03238.04292.0482.06476a5.05618 5.05618 0 0 1 .17698.27036c.02183.0354.04367.07004.06476.10618.0497.0851.09564.17246.14007.26057.0241.04745.0467.0949.06854.14309.0384.08209.0738.16492.10769.24927.0241.06025.04518.1205.06702.1815.02711.0768.05347.15438.07606.2327.0226.0753.03916.15062.058.22517.01731.0708.03539.14083.04894.21237.01883.09414.03088.18903.04443.28467.00678.05799.01808.11296.02335.1702.0143.15588.02334.31253.02334.47218zm24.87972-42.46579c0 1.45873-.64765 2.76609-1.66884 3.65774v23.07156c0 2.31498-1.2343 4.456-3.24128 5.61426L44.62912 80.22643c-.01958-1.64173-.5746-3.15317-1.49488-4.3777l16.6063-9.58753c.60022-.34642.97224-.99107.97224-1.68315V42.51789c-2.02806-.5844-3.51766-2.45431-3.51766-4.66914 0-1.07842.35771-2.0725.95416-2.87905.00828-.0128.01807-.0256.02786-.0384.11221-.14912.2327-.29296.36148-.42851l.01732-.01883c.2666-.27789.56482-.52189.89015-.7305.03389-.02183.06929-.04141.10393-.06325.12878-.07682.26057-.14987.39612-.21539.03991-.01882.07983-.03916.1205-.05723.16944-.07681.34416-.1476.52414-.20333.00076 0 .00076 0 .00076-.00076.46314-.14685.9549-.22743 1.46626-.22743 2.68174 0 4.86192 2.18094 4.86192 4.86268zM9.10452 42.0826c-1.47755-.83517-2.47916-2.41891-2.47916-4.23385 0-2.68174 2.18094-4.86268 4.86268-4.86268.6951 0 1.3548.14987 1.9535.41345l20.4945-11.8325c1.00236-.57912 2.12295-.8683 3.24129-.8683 1.11984 0 2.23967.28918 3.24203.8683l17.4829 10.09437c-1.28627.86756-2.2826 2.12822-2.82934 3.60503l-16.9226-9.76904c-.29522-.17095-.63185-.26057-.973-.26057-.34039 0-.67627.08962-.97223.26057L16.2724 37.00605c.0482.27412.07757.55427.07757.8427 0 2.09207-1.3307 3.87463-3.18782 4.55919-.0143.00527-.02937.0113-.04292.01581-.14836.05196-.29672.0979-.4496.1363-.03087.00754-.061.01658-.09187.0226-.14008.03238-.28316.05799-.427.07832-.03916.00527-.07757.0128-.11748.01732-.17924.02034-.36073.03314-.54524.03314-.19806 0-.3931-.01582-.5859-.03916-.0512-.00603-.10167-.01506-.15363-.02335-.1476-.02259-.2922-.0512-.43604-.08735-.04367-.0113-.0881-.0211-.13254-.0339-.3788-.10693-.73953-.25529-1.0754-.44507z"/><path fill="#E535AB" d="M38.34686 67.02443v-15.3871l12.50667-5.37994v14.72437L47.8859 59.6627c-.38002-.16798-.82613.00275-.99411.38277-.1689.38094.00275.82521.38277.99503l2.45085 1.08957-11.37855 4.89435zm-10.05215-6.97895c-.1689-.38002-.61408-.55075-.9941-.38277l-2.96856 1.31905V46.25739l12.50759 5.37994v15.3871l-11.37946-4.89435 2.45268-1.08957c.38002-.16982.55075-.6141.38185-.99503zm8.54493-19.81515v1.8698c0 .41582.3378.7527.75361.7527.41582 0 .75361-.33688.75361-.7527v-1.8698l11.35285 4.88333-12.10646 5.20737-12.10737-5.20737 11.35376-4.88333zm19.59393 23.23073l-4.07281-1.81014V45.11366c0-.29832-.179-.57461-.46263-.69486L38.34686 38.59v-5.53139c0-.41673-.3378-.75361-.7536-.75361-.41583 0-.75362.33688-.75362.75361v5.5314L23.28929 44.4188c-.26987.11107-.46263.3846-.46263.69486v16.53726l-4.07465 1.81014c-.38002.1689-.55075.6141-.38185.99503.16798.37726.61133.55259.9941.38185l4.21969-1.87439 13.71098 5.89672c.18266.07803.40388.08262.59573 0l13.71098-5.89672 4.21968 1.8744c.3846.17073.82705-.00551.99503-.38186.1689-.38094-.00276-.82613-.38278-.99503z"/><path stroke="#E535AB" stroke-width=".75" d="M38.34686 67.02443v-15.3871l12.50667-5.37994v14.72437L47.8859 59.6627c-.38002-.16798-.82613.00275-.99411.38277-.1689.38094.00275.82521.38277.99503l2.45085 1.08957-11.37855 4.89435zm-10.05215-6.97895c-.1689-.38002-.61408-.55075-.9941-.38277l-2.96856 1.31905V46.25739l12.50759 5.37994v15.3871l-11.37946-4.89435 2.45268-1.08957c.38002-.16982.55075-.6141.38185-.99503zm8.54493-19.81515v1.8698c0 .41582.3378.7527.75361.7527.41582 0 .75361-.33688.75361-.7527v-1.8698l11.35285 4.88333-12.10646 5.20737-12.10737-5.20737 11.35376-4.88333zm19.59393 23.23073l-4.07281-1.81014V45.11366c0-.29832-.179-.57461-.46263-.69486L38.34686 38.59v-5.53139c0-.41673-.3378-.75361-.7536-.75361-.41583 0-.75362.33688-.75362.75361v5.5314L23.28929 44.4188c-.26987.11107-.46263.3846-.46263.69486v16.53726l-4.07465 1.81014c-.38002.1689-.55075.6141-.38185.99503.16798.37726.61133.55259.9941.38185l4.21969-1.87439 13.71098 5.89672c.18266.07803.40388.08262.59573 0l13.71098-5.89672 4.21968 1.8744c.3846.17073.82705-.00551.99503-.38186.1689-.38094-.00276-.82613-.38278-.99503z"/><path fill="#050713" fill-rule="nonzero" d="M78.403 68v-6.239l2.754 5.729h2.227l2.754-5.729V68h3.383V54.74h-3.417l-3.842 8.381-3.825-8.381H75.02V68h3.383zm13.69043-6.63c0 3.791 3.213 6.885 7.038 6.885 3.876 0 7.038-3.094 7.038-6.885s-3.162-6.885-7.038-6.885c-3.825 0-7.038 3.094-7.038 6.885zm3.434 0c0-2.006 1.615-3.604 3.604-3.604 2.04 0 3.604 1.598 3.604 3.604 0 2.006-1.564 3.604-3.604 3.604-1.989 0-3.604-1.598-3.604-3.604zM108.74186 68h6.154c4.148 0 6.273-3.009 6.273-6.63 0-3.604-2.125-6.63-6.273-6.63h-6.154V68zm5.899-9.962c2.023 0 3.094 1.343 3.094 3.332 0 1.989-1.071 3.349-3.094 3.349h-2.499v-6.681h2.499zm17.78742-3.298v7.259c0 1.921-.935 2.975-2.72 2.975-1.768 0-2.686-1.054-2.686-2.975V54.74h-3.4v7.463c0 3.417 2.108 6.052 6.086 6.052 3.961 0 6.103-2.635 6.103-6.052V54.74h-3.383zM138.82571 68h9.741v-3.281h-6.358V54.74h-3.383V68zm12.14343 0h10.183v-3.281h-6.783v-1.7h5.576v-3.077h-5.576v-1.904h6.783V54.74h-10.183V68zm12.46643-3.978h3.315v.085c0 .51.697 1.207 2.244 1.207 1.275 0 1.683-.425 1.683-.816 0-.561-.663-.901-2.261-1.445l-.76594-.26168c-1.9557-.69908-4.11306-1.77732-4.11306-4.19232 0-2.533 2.159-4.114 5.185-4.114 3.094 0 5.423 1.649 5.423 4.284v.187h-3.315v-.119c0-.646-.663-1.411-2.04-1.411-1.156 0-1.615.459-1.615.901 0 .4743.49572.74205 1.74741 1.18743l.9434.3323c1.85144.66915 4.46619 1.80644 4.46619 4.46427 0 2.584-2.244 3.944-5.27 3.944-3.179 0-5.627-1.479-5.627-4.08v-.153z"/><path fill="#6D7A99" fill-rule="nonzero" d="M78.565 41.821h2.079v.242c-.407.594-1.067.979-1.837.979-1.298 0-2.332-1.034-2.332-2.332 0-1.298 1.034-2.332 2.332-2.332.748 0 1.408.341 1.837.88l1.793-1.21c-.825-1.078-2.156-1.793-3.63-1.793-2.486 0-4.554 2.002-4.554 4.455 0 2.453 2.068 4.455 4.554 4.455.88 0 1.749-.33 2.167-.968V45h1.727v-5.005h-4.136v1.826zm7.74557-5.401V45h2.189v-2.299h1.122l1.628 2.299h2.629l-1.859-2.596c1.155-.528 1.694-1.65 1.694-2.849 0-1.705-1.012-3.135-3.212-3.135h-4.191zm4.07 2.002c.88 0 1.21.495 1.21 1.155 0 .594-.33 1.133-1.21 1.133h-1.881v-2.288h1.881zm9.50557-2.002l-3.476 8.58h2.398l.473-1.254h3.377l.473 1.254h2.398l-3.465-8.58h-2.178zm2.024 5.335h-1.881l.946-2.519.935 2.519zM108.68771 45h2.2v-1.947h1.584c2.277 0 3.366-1.529 3.366-3.344 0-1.727-1.089-3.289-3.366-3.289h-3.784V45zm3.663-6.578c.924 0 1.265.616 1.265 1.298 0 .759-.341 1.331-1.265 1.331h-1.463v-2.629h1.463zm12.51958-2.002v3.333h-3.498V36.42h-2.189V45h2.189v-3.19h3.498V45h2.2v-8.58h-2.2zm5.61157 4.29c0 2.2 1.672 4.048 3.806 4.389 1.485.495 2.486 2.035 4.213 2.035.781 0 1.782-.319 2.398-1.166l-1.661-1.342c-.231.352-.627.385-.748.385-.374 0-.726-.198-1.122-.473 1.331-.781 2.222-2.2 2.222-3.828 0-2.453-2.046-4.455-4.554-4.455-2.475 0-4.554 2.002-4.554 4.455zm2.222 0c0-1.298 1.045-2.332 2.332-2.332 1.32 0 2.332 1.034 2.332 2.332 0 1.298-1.012 2.332-2.332 2.332-1.287 0-2.332-1.034-2.332-2.332zM143.01243 45v-8.58h2.189v6.457h4.114V45h-6.303z"/></g></svg>