<svg xmlns="http://www.w3.org/2000/svg" role="img" viewBox="3.70 17.70 152.10 70.60"><g fill="none" fill-rule="evenodd"><g fill="#6D7A99"><path d="M42.04 80.512c0 .255-.025.503-.063.748l-.014.091c-.397 2.292-2.39 4.04-4.785 4.04-2.136 0-3.95-1.392-4.602-3.317l-20.23-11.717a6.509 6.509 0 0 1-3.241-5.633V44.988c.749.255 1.548.4 2.383.4.75 0 1.472-.115 2.155-.322v19.658c0 .695.372 1.341.973 1.689l18.871 10.931a4.843 4.843 0 0 1 3.691-1.71 4.85 4.85 0 0 1 3.915 1.996c.015.022.032.043.048.065.062.088.12.178.177.271l.065.107a4.828 4.828 0 0 1 .316.655c.024.06.045.12.067.182.027.077.053.155.076.233.023.076.04.151.058.226.017.071.035.141.049.213.019.095.03.19.044.286.007.058.018.113.024.17.014.157.023.314.023.474zm24.88-42.605a4.867 4.867 0 0 1-1.67 3.67v23.147a6.507 6.507 0 0 1-3.24 5.633L44.63 80.424a7.449 7.449 0 0 0-1.496-4.392l16.607-9.62c.6-.347.972-.993.972-1.688V42.592a4.88 4.88 0 0 1-3.518-4.685 4.853 4.853 0 0 1 .982-2.927 4.91 4.91 0 0 1 .362-.43l.017-.019c.267-.278.565-.523.89-.732l.104-.064c.129-.077.26-.15.396-.216.04-.019.08-.04.12-.057.17-.077.345-.149.525-.204v-.001a4.826 4.826 0 0 1 1.467-.228c2.682 0 4.862 2.188 4.862 4.878zM9.105 42.155a4.883 4.883 0 0 1-2.48-4.248c0-2.69 2.181-4.878 4.863-4.878.695 0 1.355.15 1.954.414l20.494-11.87a6.462 6.462 0 0 1 6.483 0L57.902 31.7a7.508 7.508 0 0 0-2.83 3.616l-16.922-9.8a1.939 1.939 0 0 0-1.945 0L16.272 37.061c.049.275.078.556.078.845a4.882 4.882 0 0 1-3.188 4.574l-.043.016a5.14 5.14 0 0 1-.45.137c-.03.008-.06.017-.091.023a5 5 0 0 1-.427.078c-.04.006-.078.013-.118.018-.179.02-.36.033-.545.033a4.85 4.85 0 0 1-.586-.04c-.051-.005-.102-.015-.153-.023a4.687 4.687 0 0 1-.437-.087l-.132-.034a4.866 4.866 0 0 1-1.075-.447z"/><path d="M32.119 40.376c.835 0 1.065.3 2.335 3.438l.522.21c3.062-1.389 3.474-1.455 4.076-.874l1.834 1.799c.623.624.512 1.083-.808 4.087l.203.482c3.117 1.118 3.528 1.358 3.525 2.257v2.53c0 .849-.306 1.078-3.512 2.327l-.202.481c1.38 2.92 1.514 3.425.866 4.052l-1.822 1.79c-.607.574-.983.52-4.125-.813l-.52.212c-1.167 3.119-1.414 3.454-2.263 3.454h-2.583c-.838 0-1.068-.3-2.335-3.437l-.524-.214c-3.098 1.41-3.474 1.466-4.079.872l-1.829-1.794c-.625-.62-.514-1.08.809-4.09l-.202-.478c-3.113-1.118-3.525-1.357-3.525-2.253v-2.538c0-.85.306-1.079 3.51-2.323l.201-.48c-1.375-2.91-1.51-3.413-.874-4.044l1.83-1.8c.603-.574.98-.521 4.128.813l.52-.211c1.163-3.12 1.41-3.455 2.262-3.455h2.582zm-.667 2.325h-1.23c-.251.581-.64 1.57-.953 2.42l-.177.48-2.357.958-.443-.19a63.704 63.704 0 0 0-2.515-1.014l-.85.835a58.1 58.1 0 0 0 1.059 2.354l.224.47-.986 2.353-.461.178c-.876.337-1.892.75-2.485 1.015v1.152a59.25 59.25 0 0 0 2.466.937l.48.172.986 2.346-.202.46c-.37.84-.787 1.83-1.017 2.43l.852.834a58.63 58.63 0 0 0 2.436-1.057l.455-.208 2.358.961.183.458a58.5 58.5 0 0 0 1.036 2.438h1.232c.252-.582.64-1.57.954-2.42l.178-.48 2.357-.958.443.188a61.02 61.02 0 0 0 2.512 1.015l.85-.834a58.213 58.213 0 0 0-1.06-2.352l-.224-.47.987-2.353.46-.178a60.544 60.544 0 0 0 2.488-1.019v-1.15a58.93 58.93 0 0 0-2.466-.935l-.48-.172-.988-2.35.202-.461c.371-.84.787-1.828 1.017-2.427l-.851-.834c-.597.235-1.594.668-2.438 1.054l-.453.207-2.357-.954-.183-.458a59.02 59.02 0 0 0-1.04-2.44zm-.569 5.526c2.718 0 4.928 2.181 4.928 4.863 0 2.683-2.21 4.865-4.928 4.865s-4.928-2.182-4.928-4.865c0-2.682 2.21-4.863 4.928-4.863zm0 2.325c-1.44 0-2.61 1.138-2.61 2.538 0 1.401 1.17 2.54 2.61 2.54s2.61-1.139 2.61-2.54c0-1.4-1.17-2.538-2.61-2.538zm17.444-9.355l.084.003c1-1.024 1.315-1.289 1.846-1.05l1.133.51c.518.225.539.603.483 2.083l.059.061c1.468-.011 1.848.024 2.067.543l.458 1.163c.21.541-.048.82-1.142 1.812v.064c1.065 1.025 1.314 1.313 1.096 1.842l-.507 1.135c-.243.523-.629.536-2.112.463l-.046.042c.032 1.45.001 1.867-.57 2.064l-1.135.423a.851.851 0 0 1-.29.056c-.38 0-.722-.337-1.535-1.215l-.085-.003c-1.005 1.022-1.32 1.29-1.853 1.043l-1.126-.504c-.518-.227-.538-.606-.486-2.084l-.06-.062c-1.463.003-1.846-.025-2.064-.539l-.46-1.165c-.207-.542.048-.822 1.14-1.815l.002-.059c-1.052-1.01-1.327-1.327-1.084-1.867l.496-1.113c.235-.524.619-.538 2.11-.46l.048-.043c-.032-1.446-.001-1.861.562-2.061l1.144-.426c.52-.203.804.058 1.827 1.159zm-1.715.453l-.273.101c-.005.3-.002.722.008 1.085l.008.347-1.034.97-.328-.019a35.23 35.23 0 0 0-1.139-.042l-.109.245c.212.221.521.527.792.785l.246.237-.03 1.41-.247.224c-.277.251-.594.547-.813.761l.106.268c.308.01.753.016 1.13.011l.333-.002.972 1.018-.012.327c-.014.38-.023.822-.022 1.128l.287.129c.219-.207.522-.506.78-.768l.238-.244 1.406.048.22.237c.265.287.579.617.8.837l.27-.101a29.18 29.18 0 0 0-.007-1.087l-.008-.348 1.033-.962.326.017c.384.02.83.035 1.14.039l.11-.244a31.712 31.712 0 0 0-.794-.786l-.245-.236.028-1.416.249-.224a28.1 28.1 0 0 0 .812-.759l-.105-.268c-.306-.01-.75-.013-1.13-.012l-.33.002-.976-1.015.013-.33c.014-.38.024-.82.023-1.126l-.285-.129c-.219.207-.523.508-.78.772l-.24.246-1.407-.055-.216-.235c-.267-.287-.58-.616-.8-.836zm2.697 2.21c1.303.589 1.894 2.11 1.323 3.392a2.554 2.554 0 0 1-2.339 1.505c-.355 0-.717-.073-1.063-.228-1.302-.583-1.894-2.106-1.32-3.395a2.51 2.51 0 0 1 1.435-1.34 2.587 2.587 0 0 1 1.964.067zm-1.064 1.322a1.05 1.05 0 0 0-.366.066.976.976 0 0 0-.559.518c-.226.509.015 1.113.54 1.347.525.237 1.136.014 1.362-.493.225-.504-.02-1.108-.545-1.345a1.051 1.051 0 0 0-.432-.093z"/></g><path fill="#050713" fill-rule="nonzero" d="M84.608 63.087c-.595 1.122-1.768 1.887-3.179 1.887a3.595 3.595 0 0 1-3.604-3.604 3.595 3.595 0 0 1 3.604-3.604c1.394 0 2.584.765 3.179 1.887l3.094-1.394a7.088 7.088 0 0 0-6.273-3.774c-3.825 0-7.038 3.094-7.038 6.885s3.213 6.885 7.038 6.885c2.737 0 5.134-1.547 6.29-3.808l-3.111-1.36zm4.833-1.717c0 3.791 3.213 6.885 7.038 6.885 3.876 0 7.038-3.094 7.038-6.885s-3.162-6.885-7.038-6.885c-3.825 0-7.038 3.094-7.038 6.885zm3.434 0a3.595 3.595 0 0 1 3.604-3.604c2.04 0 3.604 1.598 3.604 3.604 0 2.006-1.564 3.604-3.604 3.604a3.595 3.595 0 0 1-3.604-3.604zM109.49 68v-7.395L115.406 68h2.873V54.74h-3.383v7.412l-5.916-7.412h-2.89V68h3.4zm11.99 0h3.383v-4.539h5.423v-3.077h-5.423v-2.346h6.46V54.74h-9.843V68zm12.467-13.26V68h3.4V54.74h-3.4zm12.636 8.347v-2.822h6.392V68h-2.669v-1.241c-.646.986-1.989 1.496-3.349 1.496-3.842 0-7.038-3.094-7.038-6.885s3.196-6.885 7.038-6.885a7.095 7.095 0 0 1 5.61 2.771l-2.77 1.87a3.605 3.605 0 0 0-2.84-1.36 3.584 3.584 0 0 0-3.604 3.604 3.584 3.584 0 0 0 3.604 3.604c1.19 0 2.21-.595 2.84-1.513v-.374h-3.214z"/><path fill="#6D7A99" fill-rule="nonzero" d="M78.565 41.821h2.079v.242a2.208 2.208 0 0 1-1.837.979 2.32 2.32 0 0 1-2.332-2.332 2.32 2.32 0 0 1 2.332-2.332c.748 0 1.408.341 1.837.88l1.793-1.21a4.591 4.591 0 0 0-3.63-1.793c-2.486 0-4.554 2.002-4.554 4.455 0 2.453 2.068 4.455 4.554 4.455.88 0 1.749-.33 2.167-.968V45h1.727v-5.005h-4.136v1.826zm7.746-5.401V45H88.5v-2.299h1.122L91.25 45h2.629l-1.86-2.596c1.156-.528 1.695-1.65 1.695-2.849 0-1.705-1.012-3.135-3.212-3.135H86.31zm4.07 2.002c.88 0 1.21.495 1.21 1.155 0 .594-.33 1.133-1.21 1.133H88.5v-2.288h1.88zm9.505-2.002L96.41 45h2.398l.473-1.254h3.377l.473 1.254h2.398l-3.465-8.58h-2.178zm2.024 5.335h-1.88l.945-2.519.935 2.519zM108.688 45h2.2v-1.947h1.584c2.277 0 3.366-1.529 3.366-3.344 0-1.727-1.09-3.289-3.366-3.289h-3.784V45zm3.663-6.578c.924 0 1.265.616 1.265 1.298 0 .759-.341 1.331-1.265 1.331h-1.463v-2.629h1.463zm12.52-2.002v3.333h-3.499V36.42h-2.189V45h2.19v-3.19h3.497V45h2.2v-8.58h-2.2zm5.61 4.29c0 2.2 1.673 4.048 3.807 4.389 1.485.495 2.486 2.035 4.213 2.035.78 0 1.782-.319 2.398-1.166l-1.661-1.342c-.231.352-.627.385-.748.385-.374 0-.726-.198-1.122-.473 1.33-.781 2.222-2.2 2.222-3.828 0-2.453-2.046-4.455-4.554-4.455-2.475 0-4.554 2.002-4.554 4.455zm2.223 0a2.326 2.326 0 0 1 2.332-2.332 2.306 2.306 0 0 1 2.332 2.332 2.306 2.306 0 0 1-2.332 2.332 2.326 2.326 0 0 1-2.332-2.332zM143.012 45v-8.58h2.19v6.457h4.113V45h-6.303z"/></g></svg>