<svg xmlns="http://www.w3.org/2000/svg" role="img" viewBox="3.58 17.58 151.84 70.34"><title>GraphQL Tools (by The Guild) logo</title><g fill="none" fill-rule="evenodd"><path fill="#FFF" d="M0 0h215v105H0z"/><g fill="#184AE8"><path d="M42.04 80.31454c0 .2538-.02485.50156-.06325.7448-.00452.03088-.00829.061-.01356.09113-.39763 2.2841-2.38954 4.02675-4.78511 4.02675-2.1365 0-3.9507-1.38719-4.60211-3.30605L12.3458 70.19231c-2.00622-1.15825-3.24129-3.29928-3.24129-5.61426V44.90668c.74932.25379 1.54835.39763 2.38352.39763.74932 0 1.47229-.11372 2.15458-.32007v19.5938c0 .6921.37203 1.33674.97299 1.68316l18.8716 10.89565c.8924-1.04152 2.21407-1.70499 3.69087-1.70499 1.60633 0 3.02816.78547 3.91454 1.98966.01582.02184.03238.04292.0482.06476a5.05618 5.05618 0 0 1 .17698.27036c.02183.0354.04367.07004.06476.10618.0497.0851.09564.17246.14007.26057.0241.04745.0467.0949.06854.14309.0384.08209.0738.16492.10769.24927.0241.06025.04518.1205.06702.1815.02711.0768.05347.15438.07606.2327.0226.0753.03916.15062.058.22517.01731.0708.03539.14083.04894.21237.01883.09414.03088.18903.04443.28467.00678.05799.01808.11296.02335.1702.0143.15588.02334.31253.02334.47218zm24.87972-42.46579c0 1.45873-.64765 2.76609-1.66884 3.65774v23.07156c0 2.31498-1.2343 4.456-3.24128 5.61426L44.62912 80.22643c-.01958-1.64173-.5746-3.15317-1.49488-4.3777l16.6063-9.58753c.60022-.34642.97224-.99107.97224-1.68315V42.51789c-2.02806-.5844-3.51766-2.45431-3.51766-4.66914 0-1.07842.35771-2.0725.95416-2.87905.00828-.0128.01807-.0256.02786-.0384.11221-.14912.2327-.29296.36148-.42851l.01732-.01883c.2666-.27789.56482-.52189.89015-.7305.03389-.02183.06929-.04141.10393-.06325.12878-.07682.26057-.14987.39612-.21539.03991-.01882.07983-.03916.1205-.05723.16944-.07681.34416-.1476.52414-.20333.00076 0 .00076 0 .00076-.00076.46314-.14685.9549-.22743 1.46626-.22743 2.68174 0 4.86192 2.18094 4.86192 4.86268zM9.10452 42.0826c-1.47755-.83517-2.47916-2.41891-2.47916-4.23385 0-2.68174 2.18094-4.86268 4.86268-4.86268.6951 0 1.3548.14987 1.9535.41345l20.4945-11.8325c1.00236-.57912 2.12295-.8683 3.24129-.8683 1.11984 0 2.23967.28918 3.24203.8683l17.4829 10.09437c-1.28627.86756-2.2826 2.12822-2.82934 3.60503l-16.9226-9.76904c-.29522-.17095-.63185-.26057-.973-.26057-.34039 0-.67627.08962-.97223.26057L16.2724 37.00605c.0482.27412.07757.55427.07757.8427 0 2.09207-1.3307 3.87463-3.18782 4.55919-.0143.00527-.02937.0113-.04292.01581-.14836.05196-.29672.0979-.4496.1363-.03087.00754-.061.01658-.09187.0226-.14008.03238-.28316.05799-.427.07832-.03916.00527-.07757.0128-.11748.01732-.17924.02034-.36073.03314-.54524.03314-.19806 0-.3931-.01582-.5859-.03916-.0512-.00603-.10167-.01506-.15363-.02335-.1476-.02259-.2922-.0512-.43604-.08735-.04367-.0113-.0881-.0211-.13254-.0339-.3788-.10693-.73953-.25529-1.0754-.44507z"/><path d="M47.49954 35.07066l-.03014 1.90894c-.0043.2196-.15142 4.9367-5.74548 9.86334h6.80042c3.39447 0 6.15598 2.7615 6.15598 6.15598 0 3.39447-2.7615 6.15598-6.15598 6.15598H48.205l-1.77474 1.7776c-.21601.21674-.50522.33012-.82099.31434l-2.17662-.11985-1.53505 1.54079c-.21673.21673-.50235.33083-.82314.31433l-2.17016-.12057-1.53505 1.54007c-.21745.21745-.51455.33012-.82314.31505l-2.16801-.12272-1.53505 1.54007a1.07664 1.07664 0 0 1-.76214.31649c-.01938 0-.0402-.00072-.06029-.00144l-2.65242-.14855c-.59421-.03301-1.04776-.5411-1.01475-1.1346.03301-.59421.5289-1.03844 1.13532-1.01476l2.17016.12129 1.53505-1.54007c.216-.21817.521-.33012.82314-.31505l2.16801.122 1.53433-1.53935c.21673-.21745.50738-.33084.82314-.31505l2.17017.12128 1.53576-1.54079c.04162-.04162.08827-.07679.13492-.11051H25.31205c-3.39375 0-6.15526-2.76151-6.15526-6.15598 0-3.39447 2.7615-6.15598 6.15526-6.15598h2.03453l-.0043-.00717 20.15726-11.76511zm1.0248 13.92522H25.31205c-2.20676 0-4.00232 1.79556-4.00232 4.00304 0 2.20748 1.79556 4.00303 4.00232 4.00303h23.2123c2.20748 0 4.00303-1.79555 4.00303-4.00303s-1.79555-4.00304-4.00304-4.00304zm.3546 1.54725V52.038h1.49557v2.15294h-1.49558v1.49558H46.726v-1.49558h-1.49486V52.038H46.726v-1.49486h2.15294zM44.7854 39.14761l-13.1846 7.69533h6.83917l-.06387-.08827c3.99299-2.85336 5.68879-5.71462 6.4093-7.60706z"/></g><path fill="#6D7A99" fill-rule="nonzero" d="M78.565 38.821h2.079v.242c-.407.594-1.067.979-1.837.979-1.298 0-2.332-1.034-2.332-2.332 0-1.298 1.034-2.332 2.332-2.332.748 0 1.408.341 1.837.88l1.793-1.21c-.825-1.078-2.156-1.793-3.63-1.793-2.486 0-4.554 2.002-4.554 4.455 0 2.453 2.068 4.455 4.554 4.455.88 0 1.749-.33 2.167-.968V42h1.727v-5.005h-4.136v1.826zm7.74557-5.401V42h2.189v-2.299h1.122l1.628 2.299h2.629l-1.859-2.596c1.155-.528 1.694-1.65 1.694-2.849 0-1.705-1.012-3.135-3.212-3.135h-4.191zm4.07 2.002c.88 0 1.21.495 1.21 1.155 0 .594-.33 1.133-1.21 1.133h-1.881v-2.288h1.881zm9.50557-2.002l-3.476 8.58h2.398l.473-1.254h3.377l.473 1.254h2.398l-3.465-8.58h-2.178zm2.024 5.335h-1.881l.946-2.519.935 2.519zM108.68771 42h2.2v-1.947h1.584c2.277 0 3.366-1.529 3.366-3.344 0-1.727-1.089-3.289-3.366-3.289h-3.784V42zm3.663-6.578c.924 0 1.265.616 1.265 1.298 0 .759-.341 1.331-1.265 1.331h-1.463v-2.629h1.463zm12.51958-2.002v3.333h-3.498V33.42h-2.189V42h2.189v-3.19h3.498V42h2.2v-8.58h-2.2zm5.61157 4.29c0 2.2 1.672 4.048 3.806 4.389 1.485.495 2.486 2.035 4.213 2.035.781 0 1.782-.319 2.398-1.166l-1.661-1.342c-.231.352-.627.385-.748.385-.374 0-.726-.198-1.122-.473 1.331-.781 2.222-2.2 2.222-3.828 0-2.453-2.046-4.455-4.554-4.455-2.475 0-4.554 2.002-4.554 4.455zm2.222 0c0-1.298 1.045-2.332 2.332-2.332 1.32 0 2.332 1.034 2.332 2.332 0 1.298-1.012 2.332-2.332 2.332-1.287 0-2.332-1.034-2.332-2.332zM143.01243 42v-8.58h2.189v6.457h4.114V42h-6.303z"/><path fill="#050713" fill-rule="nonzero" d="M81.49884 68.25187V57.00961h4.6619v-3.72184H73v3.72184h4.6619v11.24226h3.83694zm14.92318.28777c4.37413 0 7.94249-3.49162 7.94249-7.76982S100.79615 53 96.42202 53c-4.31656 0-7.94248 3.49162-7.94248 7.76982s3.62592 7.76982 7.94248 7.76982zm0-3.70265c-2.24461 0-4.06716-1.80337-4.06716-4.06717s1.82255-4.06716 4.06716-4.06716c2.30217 0 4.06717 1.80336 4.06717 4.06716 0 2.2638-1.765 4.06717-4.06717 4.06717zm18.72177 3.70265c4.37412 0 7.94248-3.49162 7.94248-7.76982S119.51791 53 115.1438 53c-4.31657 0-7.94249 3.49162-7.94249 7.76982s3.62592 7.76982 7.94249 7.76982zm0-3.70265c-2.24462 0-4.06717-1.80337-4.06717-4.06717s1.82255-4.06716 4.06717-4.06716c2.30217 0 4.06716 1.80336 4.06716 4.06716 0 2.2638-1.765 4.06717-4.06716 4.06717zm22.48197 3.41488v-3.70265h-7.1751V53.28777h-3.81776v14.9641h10.99286zm9.1102.28777c3.41488 0 5.94727-1.53477 5.94727-4.45086 0-3.28059-3.53-4.50841-5.60194-5.23743-1.78419-.61391-2.47484-.92087-2.47484-1.5156 0-.4988.518-1.01679 1.82255-1.01679 1.55397 0 2.30217.86331 2.30217 1.59234v.13429h3.74103v-.21103c0-2.97364-2.62831-4.83456-6.11993-4.83456-3.41489 0-5.85135 1.78418-5.85135 4.6427 0 3.08875 3.12711 4.23984 5.50602 5.02641 1.80337.61391 2.55157.9976 2.55157 1.6307 0 .44126-.46043.92087-1.89929.92087-1.74581 0-2.53239-.78657-2.53239-1.36211v-.09593h-3.74102v.17267c0 2.93526 2.7626 4.60433 6.35015 4.60433z"/></g></svg>