<svg xmlns="http://www.w3.org/2000/svg" role="img" viewBox="21.16 21.16 394.68 75.18"><g fill="#3bbeb6"><path d="M245.11 73.27h.3a2 2 0 0 0 2-2V46.34a2 2 0 0 0-2-2h-.3a2 2 0 0 0-2 2v24.91a2 2 0 0 0 2 2.02zM218.73 47.7a9.11 9.11 0 0 1 6.66 2.93 2.09 2.09 0 0 0 2.5.48 2 2 0 0 0 .54-3.19 12.79 12.79 0 0 0-9.71-4.07c-8.42 0-15 6.07-15 15s6.6 15 15 15a12.75 12.75 0 0 0 9.69-4.07 2 2 0 0 0-.53-3.2 2.09 2.09 0 0 0-2.5.48 9.11 9.11 0 0 1-6.66 2.93c-6 0-10.55-4.65-10.55-11.12s4.52-11.17 10.56-11.17zm-42.33-.87l-9.33 23.47a2.18 2.18 0 0 0 2 3h.27a2.17 2.17 0 0 0 2-1.38l1.8-4.61h9.58l-.74-2a2.79 2.79 0 0 0-2.63-1.83h-4.95l5.65-14.68 8.76 23.13a2.18 2.18 0 0 0 2 1.4h.25a2.18 2.18 0 0 0 2-3l-9.33-23.47a4 4 0 0 0-3.71-2.52 4 4 0 0 0-3.62 2.49zm-46-2.52a2.17 2.17 0 0 0-2.17 2.17V71.1a2.17 2.17 0 0 0 2.17 2.17 2.17 2.17 0 0 0 2.17-2.17V60.33h11.66v-1.07a2.79 2.79 0 0 0-2.79-2.79h-8.87v-10a2.17 2.17 0 0 0-2.19-2.16zm20.36 29a2.17 2.17 0 0 0 2.17-2.17V46.48a2.17 2.17 0 0 0-2.17-2.17 2.17 2.17 0 0 0-2.17 2.17V71.1a2.17 2.17 0 0 0 2.15 2.17zm221.05-14.8a1.91 1.91 0 0 0-1.91-1.91h-4.39a2.79 2.79 0 0 0-2.79 2.79v1h7.18a1.9 1.9 0 0 0 1.91-1.88zm-111.33-14.2a2 2 0 0 0-1.54.72l-9.46 11.22a2.78 2.78 0 0 0 0 3.57l10.43 12.71a2 2 0 0 0 1.56.74h.07a2 2 0 0 0 1.54-3.33L253 58l9-10.36a2 2 0 0 0-1.52-3.33zm93.58 29h17.54a1.9 1.9 0 0 0 1.91-1.91 1.91 1.91 0 0 0-1.91-1.91h-13.19V48.13h13.19a1.9 1.9 0 0 0 1.91-1.91 1.91 1.91 0 0 0-1.91-1.91h-17.54zM398 56.17c-3.6-.92-6.73-1.74-6.73-4.35 0-2.43 2.21-4.08 5.43-4.08a11.72 11.72 0 0 1 7 2.14 2 2 0 0 0 2.75-.45 2 2 0 0 0-.34-2.84 14.77 14.77 0 0 0-9-2.71c-6 0-10.24 3.47-10.24 8.25 0 5.9 5.38 7.25 10 8.46 3.69 1 7 1.83 7 4.87 0 2.08-1.65 4.47-6.34 4.47a12.12 12.12 0 0 1-7.61-2.66 2 2 0 0 0-2.85.39l-.07.1a2 2 0 0 0 .27 2.71 15.36 15.36 0 0 0 10.09 3.32c7.81 0 10.94-4.21 10.94-8.72-.09-6.17-5.61-7.64-10.3-8.9zm-112.19-9.34l-9.26 23.31a2.28 2.28 0 0 0 2.12 3.13 2.29 2.29 0 0 0 2.13-1.45l1.78-4.54h9.57l-.74-2a2.79 2.79 0 0 0-2.62-1.83h-4.95l5.64-14.68 8.73 23.05a2.29 2.29 0 0 0 2.14 1.48 2.29 2.29 0 0 0 2.13-3.13l-9.26-23.31a4 4 0 0 0-3.71-2.52 4 4 0 0 0-3.7 2.49zm40.38 15.07h9.29v5.21a11.24 11.24 0 0 1-7.34 2.89c-6 0-10.55-4.69-10.55-11.16s4.52-11.11 10.55-11.11a10.09 10.09 0 0 1 6.94 2.77 2 2 0 0 0 2.41.32 2 2 0 0 0 .4-3.17 13.49 13.49 0 0 0-9.76-3.78c-8.29 0-15 5.94-15 15s6.73 15 15 15a15.43 15.43 0 0 0 10.32-3.79 4.08 4.08 0 0 0 1.37-3.08v-6.13a2.79 2.79 0 0 0-2.82-2.79h-8a2.79 2.79 0 0 0-2.79 2.79zM97.5 58.84a2.11 2.11 0 0 0-.28-1.09L81.14 29.9a2.12 2.12 0 0 0-1.84-1.06h-1.19a.67.67 0 0 0-.58 1l13.64 23.69a2.12 2.12 0 0 1-1.84 3.18 2.13 2.13 0 0 1-1.85-1.06l-4.57-7.92a1.34 1.34 0 0 0-1.15-.67H66.3a.67.67 0 0 0-.58 1l3.16 5.46A2.13 2.13 0 0 1 67 56.71a2.12 2.12 0 0 1-1.84-1.06L50.1 29.5a1.33 1.33 0 0 0-1.1-.66h-1.87a2.12 2.12 0 0 0-1.83 1.06L29.17 57.75a2.13 2.13 0 0 0 0 2.13l.62 1.12a.66.66 0 0 0 1.15 0l13.71-23.73a2.13 2.13 0 0 1 3.68 0 2.16 2.16 0 0 1 0 2.13l-4.57 7.92a1.32 1.32 0 0 0 0 1.33L51.49 62a.66.66 0 0 0 1.15 0l3.15-5.46a2.13 2.13 0 0 1 3.68 0 2.13 2.13 0 0 1 0 2.13l-15.1 26.2a1.34 1.34 0 0 0 0 1.34l.9 1.56a2.12 2.12 0 0 0 1.84 1.07h32.21a2.11 2.11 0 0 0 1.79-1v-.08l.59-1a.66.66 0 0 0-.57-1h-27.3A2.13 2.13 0 0 1 52 82.52a2.13 2.13 0 0 1 1.84-1.07H63a1.33 1.33 0 0 0 1.15-.66l7.73-13.39a.67.67 0 0 0-.58-1H65a2.12 2.12 0 0 1-1.84-3.18 2.11 2.11 0 0 1 1.84-1.1h30.11a1.32 1.32 0 0 0 1.16-.66l.93-1.61a2.08 2.08 0 0 0 .28-1z"/><path d="M49.2 66.66l-7.7-13.34a.67.67 0 0 0-1.16 0l-7.11 12.25a1.36 1.36 0 0 0 0 1.34l7.71 13.35a.67.67 0 0 0 1.15 0L49.2 68a1.34 1.34 0 0 0 0-1.34zm13.08-24.55a1.34 1.34 0 0 0 1.16.66h15.41a.66.66 0 0 0 .58-1l-7-12.27a1.33 1.33 0 0 0-1.16-.67H55.82a.67.67 0 0 0-.58 1zm30.01 24.33H78.18a1.32 1.32 0 0 0-1.16.66l-7.7 13.35a.66.66 0 0 0 .57 1h14.13a1.32 1.32 0 0 0 1.16-.66l7.68-13.35a.66.66 0 0 0-.57-1z"/></g></svg>