<svg xmlns="http://www.w3.org/2000/svg" role="img" viewBox="-9.92 -10.42 541.84 173.34"><title>Hasura GraphQL Engine logo</title><path fill="#1EB4D4" d="M149.769 51.9612c4.497-13.6868 1.792-40.9917-6.922-51.07217-1.142-1.32231-3.267-1.13341-4.216.32629L127.898 17.6841c-2.653 3.2972-7.431 4.0528-11.033 1.7517-11.647-7.4531-25.5598-11.78065-40.5094-11.78065-14.9497 0-28.8629 4.32755-40.5099 11.78065-3.5837 2.3011-8.362 1.5284-11.0322-1.7517L14.08 1.21532c-.9486-1.4597-3.0743-1.63143-4.21612-.32629C1.15057 10.9867-1.55477 38.2916 2.94242 51.9612c1.49321 4.5509 1.89726 9.3593 1.0189 14.0303-.87836 4.6367-1.75672 10.2351-1.75672 14.1333 0 40.0302 33.2019 72.4692 74.1334 72.4692 40.949 0 74.133-32.456 74.133-72.4692 0-3.8982-.878-9.4966-1.756-14.1333-.861-4.671-.44-9.4794 1.054-14.0303zM76.338 136.418c-31.656 0-57.3919-25.176-57.3919-56.1215 0-1.0132.0351-2.0092.0878-3.0052 1.1419-21.0884 14.247-39.1027 32.7803-47.6892 7.431-3.4689 15.7578-5.3923 24.5414-5.3923 8.7835 0 17.0928 1.9234 24.5414 5.4095 18.533 8.5864 31.638 26.618 32.78 47.6891.053.9961.088 2.0093.088 3.0053-.018 30.9283-25.771 56.1043-57.427 56.1043z"/><path fill="#1EB4D4" d="M101.212 101.9L86.5435 77.0333l-12.578-20.7277c-.2987-.498-.8433-.79-1.423-.79H60.5266c-.5973 0-1.1419.3091-1.4405.8243-.2986.498-.2811 1.1163.0176 1.6143l12.0335 19.766L54.993 101.797c-.3338.498-.3514 1.133-.0703 1.648.2811.515.8432.842 1.4581.842h12.1037c.5622 0 1.0892-.275 1.3878-.739l8.7309-13.3259 7.8349 13.2749c.2987.498.8432.807 1.423.807h11.928c.5969 0 1.1419-.309 1.4229-.807.299-.481.299-1.099 0-1.597z"/><path fill="#111B29" d="M218.844 38.6357h15.301v82.0183h-15.301V85.7067h-17.286v34.9643h-15.301V38.6357h15.301v35.6166h17.286V38.6357zm62.504 82.0343l-3.197-17.035h-18.357l-2.934 17.035h-15.301l16.882-82.0177h20.606l17.69 82.0177h-15.389zm-19.552-28.3523h14.23l-7.308-39.2573-6.922 39.2573zm69.023 13.3953V88.1618c0-1.391-.263-2.3183-.79-2.7992-.527-.4808-1.511-.7212-2.934-.7212h-10.769c-9.135 0-13.702-4.3276-13.702-12.9999V51.5148c0-8.5864 4.778-12.8625 14.352-12.8625h14.634c9.574 0 14.352 4.2933 14.352 12.8625V62.952h-15.424v-9.3592c0-1.391-.263-2.3184-.79-2.7992-.527-.4809-1.511-.7213-2.934-.7213h-5.059c-1.511 0-2.53.2404-3.057.7213-.527.4808-.791 1.4082-.791 2.7992v16.5031c0 1.391.264 2.3184.791 2.7992.527.4808 1.546.7213 3.057.7213h10.505c9.31 0 13.966 4.2417 13.966 12.7423v21.4493c0 8.586-4.831 12.862-14.493 12.862h-14.37c-9.662 0-14.493-4.293-14.493-12.862V96.4907h15.283v9.2223c0 1.391.264 2.318.791 2.799.527.481 1.546.721 3.057.721h5.059c1.423 0 2.389-.24 2.934-.721.544-.481.825-1.408.825-2.799zm56.231-67.0773h15.283v69.1553c0 8.586-4.831 12.863-14.493 12.863h-16.214c-9.662 0-14.493-4.294-14.493-12.863V38.6357h15.301v67.0773c0 1.391.263 2.318.79 2.799.527.481 1.511.722 2.934.722h7.044c1.511 0 2.53-.241 3.057-.722.527-.481.791-1.408.791-2.799V38.6357zm43.214 50.0591v31.9762H414.98V38.6357h30.848c9.662 0 14.493 4.2933 14.493 12.8625v24.3169c0 7.1096-3.232 11.2654-9.714 12.4847l13.966 32.3712h-16.496l-12.771-31.9762h-5.042zm0-38.6219v27.5625h11.032c1.423 0 2.389-.2404 2.934-.7213.527-.4808.79-1.4081.79-2.7991V53.5933c0-1.391-.263-2.3183-.79-2.7991-.527-.4809-1.511-.7213-2.934-.7213h-11.032zm76.33 70.5971l-3.198-17.035h-18.357l-2.934 17.035h-15.283l16.882-82.0177h20.606L522 120.67h-15.406zm-19.535-28.3523h14.229l-7.308-39.2573-6.921 39.2573z"/></svg>