<svg xmlns="http://www.w3.org/2000/svg" role="img" viewBox="18.88 1.38 369.98 170.23"><title>Hijup logo</title><path fill="#040404" fill-rule="evenodd" d="M179.441 8.747c-.852.102-.972.168-1.204.669-.174.373-.381.556-.632.559-.706.007-.917.19-.917.796 0 .549-.035.584-.584.584-.614 0-.792.213-.792.949 0 .332-.102.415-.559.459l-.559.054-.116 1.291c-.181 2.015.261 3.612.999 3.612.126 0 .275.213.332.474.185.846.232.908.759 1.014.398.079.52.197.52.5 0 .515.432.937.959.937.36 0 .418.081.418.584 0 .594.216.793.866.793.232 0 .354.168.434.597.096.512.197.614.696.708.506.094.584.177.584.612 0 1.648.696 2.039 3.628 2.039 2.455 0 2.91-.133 2.91-.855 0-.492.038-.521.678-.521.659 0 .679-.018.731-.645.049-.593.102-.652.655-.731l.602-.086.051-1.248c.048-1.185.071-1.247.461-1.247.899 0 .985-.316.922-3.388-.061-3.008-.102-3.141-.96-3.147-.355-.002-.388-.082-.388-.96 0-1.185-.184-1.548-.854-1.682-.396-.079-.522-.199-.524-.496-.005-.607-.192-.764-1.069-.893-.644-.096-.916-.246-1.312-.726l-.5-.607-2.644-.056c-1.455-.031-3.071-.005-3.591.057M28.731 31.474c-1.028.1-1.181.17-1.892.868l-.774.758v50.295c0 44.519.029 50.314.258 50.458.142.09.462.164.712.166.342.002.482.111.564.439.178.71.673.768 6.524.768 5.935 0 6.307-.052 6.307-.874 0-.239.152-.37.512-.442 1.009-.201.947 1.27.996-23.657l.045-23.027h37.329v23.126c0 22.701.016 23.67.397 23.67.104 0 .448.251.765.559l.577.559 5.946.049c6.361.053 6.766.005 6.766-.808 0-.232.171-.353.61-.436.99-.185.944 2.465.897-50.905l-.044-49.922-.86-.86-.861-.86h-6.193c-6.899 0-6.913.002-7.639 1.177l-.361.584v39.615H41.984l-.046-19.672c-.049-20.954-.015-20.148-.854-20.274-.23-.035-.42-.264-.546-.656-.192-.596-.206-.603-1.398-.71-1.547-.138-8.947-.129-10.409.012m99.871-.014c-1.364.13-1.79.32-2.255 1.006-.336.496-.635 92.883-.321 99.061l.114 2.236.793.689.794.688 5.899.049c6.248.053 6.47.028 6.766-.752.106-.277.343-.459.687-.528.897-.179.861 2.086.814-50.779l-.044-50.051-.837-.826-.838-.825-5.184-.042c-2.851-.023-5.725.01-6.388.074m92.201-.032c-.991.067-1.09.116-1.892.93l-.846.859v38.496c0 42.29-.069 39.427.95 39.427.326 0 .34.127.34 3.17 0 3.44.07 3.712.958 3.712.406 0 .418.038.418 1.29 0 .957.059 1.29.228 1.29.452 0 .944.776 1.09 1.721.138.896.174.949.681.998.52.051.538.081.644 1.101.125 1.188.319 1.513.905 1.513.333 0 .409.09.409.482 0 .612.283.895.895.895.433 0 .482.059.482.584 0 .614.213.792.949.792.33 0 .415.102.459.554.047.483.137.573.699.705.355.083.645.245.645.36 0 .527.478.831 1.474.938.977.105 1.023.132 1.079.625.077.68.256.769 1.538.773 1.063.002 1.081.01 1.184.524.139.698.495.855 1.948.855 1.196 0 1.239.015 1.816.645l.591.645 2.766.061c2.673.059 2.781.076 3.228.492.768.716 1.007.737 8.344.736 7.468-.001 8.186-.064 8.645-.765.258-.394.34-.406 3.224-.468 3.166-.067 3.618-.176 3.803-.912.104-.415.167-.435 1.439-.455 1.994-.03 2.332-.137 2.527-.797.163-.553.176-.559 1.235-.559 1.186 0 1.611-.253 1.611-.958 0-.373.074-.418.682-.418.557 0 .799-.117 1.316-.634.406-.406.856-.669 1.253-.733.548-.088.626-.164.674-.657.044-.455.128-.557.459-.557.732 0 .949-.179.949-.782 0-.538.04-.577.645-.627.608-.05.649-.09.698-.688.048-.575.105-.64.602-.688.471-.046.572-.142.701-.665.097-.394.323-.711.634-.889.394-.226.519-.467.688-1.324.161-.816.274-1.047.515-1.047.688 0 .85-.445.85-2.334 0-1.775.005-1.795.41-1.795.937 0 .877 2.754.932-42.392.054-44.024.06-43.503-.537-43.844-.434-.248-11.775-.315-12.904-.076-1.24.263-1.148-2.905-1.148 39.318v38.005l-.494.099c-.663.133-.728.361-.838 2.912-.089 2.085-.112 2.194-.456 2.196-.613.005-.742.214-.868 1.4-.119 1.136-.125 1.145-.711 1.255-.537.101-.59.164-.59.705 0 .514-.056.595-.416.595-.747 0-.96.175-.96.792 0 .554-.032.584-.608.584-.912 0-1.763.413-1.83.888-.051.359-.158.407-1.003.447-1.458.068-1.681.156-1.802.708l-.108.494-4.336.151c-4.914.171-4.484.171-9.354-.015l-3.643-.14-.113-.448c-.154-.615-.352-.703-1.59-.706-.802-.002-1.076-.064-1.076-.242 0-.576-.594-.981-1.591-1.083-.981-.101-.989-.107-.989-.662 0-.591-.222-.768-.96-.768-.359 0-.417-.082-.417-.583 0-.529-.055-.594-.592-.695-.553-.103-.6-.164-.707-.922-.14-.996-.49-1.585-.941-1.585-.301 0-.342-.124-.353-1.076-.024-2.035-.179-2.593-.801-2.881l-.555-.258-.004-38.485c-.004-43.122.109-39.273-1.166-39.879-.472-.225-9.539-.399-12.013-.23m98.693.006c-.983.06-1.166.13-1.635.627-.29.307-.663.61-.829.673-.496.19-.465 100.844.032 101.109.183.098.495.179.692.179.223 0 .421.159.52.419.285.751.558.785 6.347.785 5.788 0 6.278-.057 6.452-.748.077-.308.265-.463.667-.55.307-.067.616-.209.685-.315.07-.107.128-19.878.13-43.936l.002-43.742h10.151c9.751 0 10.15.013 10.15.318 0 .684.611.954 2.333 1.029l1.624.071v.485c0 .617.093.668 1.456.795l1.125.105v.562c0 .52.05.571.678.677.607.102.684.172.731.66.047.477.124.553.612.6.458.044.559.127.559.459 0 .736.179.949.793.949h.584l.002 1.075c.004 1.277.094 1.456.773 1.533l.515.059.086 2.513.086 2.513.559.47.559.47v5.419l-.602.548-.602.548v1.885c0 1.835-.011 1.888-.404 1.987-.49.123-.972 1.06-.972 1.889 0 .461-.071.597-.311.597-.624 0-.889.398-1.003 1.505l-.112 1.075h-.562c-.522 0-.571.05-.679.688-.109.646-.152.689-.703.689-.551 0-.587.035-.587.572v.573l-1.247.159c-1.207.153-1.25.175-1.335.674-.087.516-.087.516-1.548.618-1.929.135-2.227.244-2.35.858l-.101.503-5.785.002c-6.537.003-6.179-.07-6.313 1.297-.154 1.567.076 2.356.741 2.546.441.127.553.257.595.693.045.462.143.559.698.696.584.144.645.214.645.731 0 .535.038.572.58.572.544 0 .587.043.69.688.064.398.206.688.336.688.386 0 .941.743 1.067 1.428.138.748.473 1.153.952 1.153.221 0 .332.119.332.356 0 .639.324 1.02.866 1.02.444 0 .51.063.51.482 0 .868.13.896 4.035.874 4.354-.024 4.571-.059 4.911-.793l.258-.555 2.291-.004c2.483-.004 2.957-.129 2.957-.784 0-.394.062-.425.903-.441 1.436-.027 1.755-.169 1.817-.807.053-.539.075-.552.892-.552 1.261 0 1.721-.229 1.721-.856 0-.493.037-.521.688-.521.613 0 .688-.045.688-.416 0-.749.176-.96.799-.96.471 0 .739-.152 1.32-.75.401-.413.887-.801 1.079-.862.193-.061.491-.439.664-.841.359-.835.911-1.504 1.242-1.504.13 0 .272-.29.336-.688.103-.645.146-.688.69-.688.562 0 .58-.022.58-.688 0-.648.03-.689.51-.689.656 0 .866-.394.866-1.623 0-.946.006-.957.511-.957.666 0 .866-.395.866-1.709 0-1.04.001-1.044.506-1.044.666 0 .665.003.802-2.122.104-1.601.158-1.835.425-1.835.859 0 .847.137.847-9.83 0-9.716-.018-9.955-.756-9.955-.384 0-.406-.071-.523-1.67-.139-1.894-.286-2.287-.852-2.287-.367 0-.408-.093-.506-1.138-.118-1.267-.312-1.614-.9-1.614-.337 0-.407-.101-.452-.646-.051-.61-.089-.648-.699-.698l-.645-.054-.002-.806c-.004-1.067-.312-1.653-.905-1.722-.387-.045-.469-.139-.469-.538 0-.555-.247-.811-.86-.896-.309-.043-.446-.181-.486-.49-.065-.511-.467-.86-.991-.86-.259 0-.412-.134-.485-.425-.131-.52-.585-.779-1.629-.927-.726-.103-.802-.159-.855-.627-.068-.597-.274-.768-.931-.771-.351-.002-.473-.088-.473-.335 0-.594-.472-.872-1.483-.872-.895 0-.953-.027-1.125-.52-.255-.731-.598-.856-2.356-.856h-1.546l-.116-.527c-.17-.776-.567-.85-4.549-.85h-3.583l-.104-.413c-.218-.868-.049-.859-17.138-.885-8.753-.013-16.412.007-17.02.044m-145.332 8.173c-.078.122-.163 22.465-.188 49.652l-.045 49.431-.557.508c-.554.506-.557.517-.615 2.397-.056 1.802-.075 1.889-.43 1.892-.671.004-.835.257-.93 1.438-.089 1.114-.102 1.14-.578 1.14-.514 0-.843.393-.843 1.01 0 .262-.132.357-.559.398-.494.048-.569.124-.645.656-.076.535-.153.612-.688.688-.532.076-.608.151-.656.645-.044.458-.128.56-.459.56-.736 0-.949.178-.949.792 0 .581-.004.584-.818.586-1.076.004-1.662.31-1.732.905-.05.436-.111.469-.86.472-1.243.003-1.563.142-1.719.749a1.186 1.186 0 0 1-.6.762c-.978.474-1.043 1.803-.104 2.131.427.148.5.265.504.802.004.545.095.685.688 1.05.527.325.684.529.684.892 0 .835.285 1.324.808 1.384.403.046.496.152.568.647.072.495.178.615.645.736.383.099.559.247.559.469 0 .653.198.87.793.87.475 0 .584.066.584.355 0 .882.253 1.021 1.855 1.019 1.678-.003 1.854-.066 2.017-.718.108-.429.195-.465 1.39-.577l1.275-.12v-1.163h1.044c1.299 0 1.709-.203 1.709-.843 0-.476.025-.489 1.14-.578 1.182-.095 1.433-.258 1.438-.935.002-.31.116-.386.648-.43.593-.049.652-.102.731-.655.079-.554.138-.607.731-.656.61-.05.645-.085.645-.645 0-.533.048-.592.482-.592.611 0 .895-.283.895-.894 0-.422.065-.482.521-.482.526 0 .572-.054.755-.893.081-.369.213-.473.66-.516.511-.049.563-.109.612-.71.041-.494.222-.823.731-1.333.553-.553.677-.798.677-1.338 0-.535.081-.697.426-.854.598-.273.951-1.245.951-2.624v-1.173l.559-.054.559-.054.108-1.204c.059-.662.117-2.548.129-4.19.02-2.889.035-3.002.436-3.479.805-.957.789-.128.789-42.049 0-41.395.013-40.69-.747-40.69-.348 0-.425-.104-.501-.668-.125-.935-.484-1.608-.988-1.858-.288-.143-.459-.399-.516-.773-.07-.454-.192-.591-.645-.72-.421-.121-.56-.257-.56-.553 0-.512-.432-.934-.958-.934-.362 0-.418-.08-.418-.594 0-.542-.052-.604-.598-.707-.511-.096-.613-.196-.707-.696-.099-.527-.166-.583-.692-.583-.531 0-.583-.046-.583-.507 0-.63-.603-1.68-1.045-1.82-.182-.058-.376-.313-.432-.567-.182-.833-.23-.897-.756-1.002-.397-.08-.52-.198-.52-.499 0-.721-.182-.939-.782-.939-.539 0-.577-.039-.627-.645l-.054-.645-1.749-.049c-1.28-.036-1.788.01-1.893.172"/></svg>