<svg xmlns="http://www.w3.org/2000/svg" role="img" viewBox="102.49 104.49 754.52 340.52"><path fill="none" d="M0 0h960v550H0z"/><path d="M421.1 281.3c-.1 91-.2 100.8-1.8 106.4-2.9 10.8-10.1 19.6-20.8 25.3-3.3 1.7-5.9 3.4-5.9 3.7 0 1.3 11.3 14.3 12.5 14.3 3.1 0 17.9-8.6 23.1-13.3 9.7-8.8 15.7-20.8 17-33.8.4-4.2.8-140.8.4-168.9 0-5.5-.1-5.5-10.1-17.5-5.5-6.6-11-13-12.2-14.2l-2.2-2.3v100.3zm295-114.3c-.2.3-.3 46.1-.3 101.8l-.1 101.2 3.2.1c9.8.2 19.9 0 20.4-.5.3-.2.6-41.4.7-91.3l.1-90.8 18-.1c20.5 0 31.1 1.4 38.5 5.1 14.1 7.2 19.8 18.9 18.8 39.3-.4 8.4-.9 10.9-3.5 16.3-7.2 15.2-17.4 20.7-38.3 21-8.3.1-9 .3-7.8 1.8.7.9 4.4 5.4 8.3 10l6.9 8.4 7.8-.7c10.7-.9 19.4-3.8 27.5-9.2 12.1-8.2 21.4-21.4 24.8-35.6 3-11.9 2.3-31.1-1.4-40.3-2-5-4.5-9.9-5.6-11.2-.5-.7-2.6-3.3-4.5-5.7-4-4.9-12.2-11-19.5-14.4-10.3-4.9-16.2-5.5-56.3-5.6-20.5-.1-37.5.1-37.7.4zm-202.9 0c-.1.3-.2 36.5-.1 80.5.2 57.3.5 81.4 1.4 84.9 1.3 5.6 6.1 15.7 9.7 20.3 6.2 8.1 16.5 14.6 27.9 17.7 20 5.3 52.7 3.5 67.9-3.8 14.7-7.2 23.8-17.9 26.7-31.6.9-3.9 1.3-28.9 1.5-85 .2-43.7.1-80.4-.1-81.6-.4-1.9-1.1-2-11.7-1.8-6.2.1-11.5.2-11.8.3-.3 0-.5 34.4-.6 76.3 0 86 .1 85-6.8 95.1-7.1 10.4-19 14.7-39.1 14.1-12.3-.3-19.6-2.3-26.7-7.3-9.7-6.7-12.3-13.1-13.4-32.1-.3-5.8-.6-41.1-.7-78.5l-.2-68h-11.8c-6.5-.1-12 .2-12.1.5zm-189.7 0c-.1.3-.2 46.1-.3 101.7-.1 89.6.1 101.3 1.4 101.4 1.8.1 17.6.1 20.5 0 2-.1 2-.6 2-101.8V166.5h-11.7c-6.5-.1-11.9.2-11.9.5zm-206.3 0c-.2.5 0 199.9.3 202.2.1 1.1 10.7 1.5 22.1.9 1.3-.1 1.5-6 1.5-49.1v-49h7.5c9-.1 76.2-.1 77.3 0 .4 0 .7 22 .7 49 0 46 .1 49 1.8 49.1 2 .1 17.8.1 20.7 0 2-.1 2-.4 1.9-101.4-.1-55.6-.2-101.4-.3-101.7 0-.3-5.5-.6-12.1-.6l-12 .1v85h-85.5l-.1-42c-.1-23.1-.2-42.2-.3-42.5-.1-.7-23.2-.7-23.5 0zm310.3-45.7c-1.8 1.2-4 3.4-4.8 4.9-1.4 2.5-1.3 2.8 6.3 11.9 8.3 9.9 9.3 10.4 14.3 7.2 3.5-2.3 6.5-8.8 6-12.9-1.5-10.9-13.2-16.9-21.8-11.1z"/></svg>