<svg xmlns="http://www.w3.org/2000/svg" role="img" viewBox="-2.77 -2.77 144.17 66.17"><title>Hive logo</title><path fill="#eab308" fill-rule="evenodd" d="M2.29999 20.1C.89999 19.3 0 17.8 0 16.1c0-2.5 2.10004-4.6 4.60004-4.6.7 0 1.29998.1 1.79998.4L25.7.80005c.9-.5 2-.80005 3-.80005 1.1 0 2.1.30005 3 .80005L48.1 10.3c-1.2.8-2.1 2-2.7 3.4L29.5 4.5c-.3-.2-.6-.19995-.9-.19995-.3 0-.6.09995-.9.19995L8.90002 15.3c0 .3.09998.5.09998.8 0 2-1.3 3.6-3 4.3-.1 0-.29996.1-.39996.1H5.5c-.1 0-.29996.1-.39996.1H3.79999c-.1 0-.29997 0-.39997-.1h-.10003c-.3-.1-.7-.2-1-.4zM56.7 16.1c0 1.4-.6 2.6-1.6 3.4v21.7c0 2.2-1.2 4.2-3 5.3l-16.4 9.4c0-1.5-.5-3-1.4-4.1l15.6-9c.6-.3.9-.9.9-1.6V20.5c-1.9-.6-3.3-2.3-3.3-4.4 0-1 .3-1.9.9-2.7.1-.1.2-.3.3-.4.3-.3.5-.5.8-.7 0 0 .1 0 .1-.1.1-.1.2-.1.4-.2 0 0 .1 0 .1-.1.2-.1.3-.1.5-.2.4-.1.9-.2 1.4-.2 2.6 0 4.7 2.1 4.7 4.6zm-23.4 40c0 .2 0 .5-.1.7v.1c-.4 2.1-2.2 3.8-4.5 3.8-2 0-3.7-1.3-4.3-3.1l-18.99998-11c-1.9-1.1-3-3.1-3-5.3V22.8c.7.2 1.50002.4 2.20002.4s1.4-.1 2-.3v18.4c0 .7.39996 1.3.89996 1.6l17.8 10.3c.8-1 2.1-1.6 3.5-1.6 1.5 0 2.8.7 3.7 1.9v.1c.1.1.1.2.2.3 0 0 0 .1.1.1 0 .1.1.2.1.2s0 .1.1.1c0 .1.1.2.1.2 0 .1 0 .1.1.2 0 .0999.1.1.1.2s0 .1.1.2v.7c-.1 0-.1.1-.1.3z" clip-rule="evenodd"/><path fill="#FFB21D" d="M41.345 29.2535l2.4869-4.306c.2241-.3881.2241-.8662 0-1.2542l-2.8491-4.9331c-.2241-.3881-.6382-.6271-1.0865-.6271h-4.9738l-2.4869-4.3061c-.2241-.388-.6383-.627-1.0865-.627h-5.6982c-.4482 0-.8624.239-1.0865.627l-2.4869 4.3061h-4.9738c-.4483 0-.8624.239-1.0865.6271l-2.8491 4.9331c-.2241.3881-.2241.8662 0 1.2542l2.4869 4.306-2.4869 4.3061c-.2241.388-.2241.8661 0 1.2542l2.8491 4.9331c.2241.3881.6382.6271 1.0865.6271h4.9738l2.4869 4.306c.2241.388.6383.6271 1.0865.6271h5.6982c.4482 0 .8624-.2391 1.0865-.6271l2.4869-4.3061h4.9738c.4483 0 .8624-.239 1.0865-.627l2.8491-4.9332c.2241-.388.2241-.8661 0-1.2542l-2.4869-4.306zm-19.2675 8.6121H17.828l-2.1247-3.679 2.1247-3.6789h4.2495l2.1248 3.6789c-.258.4468-1.8659 3.2307-2.1248 3.679zm0-9.8663H17.828l-2.1247-3.6789 2.1247-3.679h4.2495c.258.4467 1.8658 3.2307 2.1248 3.679l-2.1248 3.6789zm8.5473 14.7994h-4.2495l-2.1248-3.6789c.258-.4467 1.8658-3.2306 2.1248-3.6789h4.2495c.258.4467 1.8658 3.2306 2.1248 3.6789l-2.1248 3.6789zm-6.3743-13.5452l2.1247-3.6789h4.2496l2.1247 3.6789-2.1247 3.679h-4.2496l-2.1247-3.679zm6.3743-6.1873h-4.2495c-.258-.4468-1.8658-3.2307-2.1248-3.679l2.1247-3.6789h4.2495l2.1248 3.6789c-.258.4468-1.8658 3.2307-2.1247 3.679zm8.5472 14.7994h-4.2495c-.258-.4468-1.8658-3.2307-2.1248-3.679l2.1248-3.6789h4.2495l2.1247 3.679-2.1247 3.6789zm0-9.8663h-4.2495l-2.1248-3.6789c.258-.4467 1.8658-3.2306 2.1248-3.6789h4.2495l2.1247 3.6789-2.1247 3.6789z"/><path fill="#0B0D11" d="M78.074 14.3199v6.666h-6.996v-6.666H66.7v17.16h4.378v-6.38h6.996v6.38h4.4v-17.16h-4.4zm12.1084 0v17.16h4.4v-17.16h-4.4zm22.0616 17.16l6.952-17.16H114.4l-4.334 11.528-4.312-11.528h-4.796l6.93 17.16h4.356zm13.323 0h13.178v-4.246h-8.778v-2.2h7.216v-3.982h-7.216v-2.464h8.778v-4.268h-13.178v17.16z"/><path fill="#C4C4C4" d="M70.7 39.88h3.7v4.5h-1.6001v-.6999c-.4.6-1.2.9-2 .9-2.2 0-4.0999-1.8-4.0999-4s1.8999-4 4.0999-4c1.3 0 2.5001.6 3.3001 1.6L72.4999 39.28c-.4-.5-1-.8-1.7-.8-1.2 0-2.0999.9001-2.0999 2.1001 0 1.2.8999 2.1 2.0999 2.1.7 0 1.3-.3001 1.7-.9001v-.1999H70.7V39.88zm9.4-3.1999c2 0 2.8999 1.2999 2.8999 2.7999 0 1.1-.5 2.1001-1.5 2.6001L83.2 44.38h-2.4001l-1.5-2.1h-1v2.1h-2v-7.6999H80.1zM78.2999 38.48v2.1001h1.7c.8 0 1.1001-.5 1.1001-1 0-.6-.3001-1-1.1001-1h-1.7V38.48zm11-1.7999L92.4 44.38h-2.2l-.4001-1.1h-3l-.3999 1.1h-2.2l3.0999-7.6999h2zm-1 2.5L87.4 41.48h1.7l-.8001-2.2999zm5.6-2.5h3.4c2.1 0 3.0001 1.4 3.0001 3s-1.0001 3-3.0001 3h-1.4V44.48h-2v-7.7999zm2 1.7999v2.4h1.3c.8 0 1.1-.4999 1.1-1.1999 0-.6-.3-1.2001-1.1-1.2001h-1.3zM109.2 36.6801V44.38h-2v-2.9H104v2.9h-2v-7.6999h2v3h3.2v-3h2zm5.8-.2001c2.3 0 4.1 1.8 4.1 4 0 1.5-.8 2.7-2 3.5.4.2.7.4 1 .4.1 0 .5.0001.7-.2999l1.5 1.1999c-.6.8-1.5 1.1-2.2 1.1-1.6 0-2.5-1.3999-3.8-1.7999-1.9-.3-3.4-2-3.4-4 0-2.3 1.8-4.1001 4.1-4.1001zm0 6.1001c1.2 0 2.1-.9001 2.1-2.1001 0-1.2-.9-2.1-2.1-2.1-1.2 0-2.1.9-2.1 2.1 0 1.2.9 2.1001 2.1 2.1001zm5.8-5.9h2V42.48h3.7v1.9h-5.7v-7.6999z"/></svg>