<svg xmlns="http://www.w3.org/2000/svg" role="img" viewBox="-3.95 6.05 205.40 44.65"><path fill="#2A6EBB" d="M3.57 10.69v11.56h13.37V10.69h3.62v27.63h-3.62V25.36H3.57v12.96H0V10.69h3.57zM43.6 28.23c0 7.34-5.09 10.54-9.88 10.54-5.37 0-9.51-3.94-9.51-10.21 0-6.63 4.35-10.54 9.84-10.54 5.7.01 9.55 4.14 9.55 10.21zm-15.73.2c0 4.36 2.5 7.63 6.03 7.63 3.44 0 6.03-3.24 6.03-7.71 0-3.37-1.68-7.63-5.94-7.63-4.28.01-6.12 3.95-6.12 7.71zm19.32-4.58c0-2.05-.04-3.73-.16-5.37h3.16l.16 3.19h.12c1.11-1.88 2.95-3.65 6.24-3.65 2.7 0 4.75 1.63 5.62 3.97h.09c.62-1.1 1.4-1.97 2.22-2.59 1.19-.89 2.5-1.39 4.38-1.39 2.62 0 6.52 1.72 6.52 8.62v11.69H72V27.09c0-3.81-1.4-6.1-4.31-6.1-2.05 0-3.65 1.51-4.26 3.28-.16.49-.28 1.15-.28 1.81v12.25h-3.53V26.44c0-3.16-1.39-5.46-4.15-5.46-2.25 0-3.89 1.81-4.47 3.6-.21.53-.28 1.15-.28 1.76v11.98h-3.53V23.85zm35.35 5.01c.09 4.98 3.26 7.03 6.95 7.03 2.64 0 4.22-.46 5.61-1.05l.62 2.64c-1.3.58-3.52 1.29-6.73 1.29-6.23 0-9.95-4.13-9.95-10.25s3.6-10.92 9.5-10.92c6.61 0 8.37 5.81 8.37 9.53 0 .76-.09 1.34-.12 1.71H82.54v.02zm10.78-2.62c.05-2.34-.95-5.98-5.1-5.98-3.73 0-5.35 3.43-5.64 5.98h10.74zm11.84 3.22l-2.93 8.87h-3.76l9.58-28.19h4.39l9.62 28.19h-3.89l-3.01-8.87h-10zm9.24-2.85l-2.76-8.11c-.63-1.84-1.04-3.52-1.46-5.15h-.09a89.09 89.09 0 0 1-1.42 5.1l-2.76 8.16h8.49zm11.29-8.53l2.67 10.29c.58 2.27 1.13 4.34 1.51 6.45h.13c.46-2.06 1.12-4.22 1.79-6.45l3.3-10.29h3.1l3.13 10.13c.75 2.43 1.34 4.56 1.79 6.61h.12c.33-2.06.88-4.18 1.55-6.58l2.88-10.16h3.64l-6.51 20.24h-3.36l-3.09-9.66c-.71-2.25-1.3-4.27-1.8-6.65h-.09c-.51 2.43-1.13 4.52-1.85 6.7l-3.26 9.61H128l-6.1-20.24h3.79zm42.39 15.39c0 1.76.09 3.47.33 4.85h-3.34l-.3-2.55h-.12c-1.14 1.58-3.31 3.01-6.19 3.01-4.11 0-6.19-2.88-6.19-5.82 0-4.89 4.35-7.56 12.17-7.53v-.42c0-1.67-.46-4.68-4.59-4.68-1.88 0-3.85.58-5.27 1.51l-.83-2.43c1.67-1.09 4.1-1.8 6.65-1.8 6.19 0 7.7 4.22 7.7 8.28l-.02 7.58zm-3.56-5.49c-4.01-.09-8.57.63-8.57 4.56 0 2.38 1.59 3.52 3.47 3.52 2.64 0 4.31-1.67 4.89-3.39.12-.38.21-.79.21-1.18v-3.51zm9.53-9.9l4.43 11.96c.46 1.34.97 2.92 1.3 4.14h.09c.37-1.21.79-2.76 1.3-4.22l4.01-11.89h3.89l-5.52 14.42c-2.32 6.08-4.16 9.71-6.95 12.12-1.79 1.58-3.59 2.21-4.52 2.39l-.91-3.09c.91-.3 2.13-.88 3.22-1.8 1-.79 2.25-2.22 3.1-4.1.16-.38.3-.67.3-.88s-.09-.5-.26-.95l-7.48-18.1h4zm23.58 2.18c0 1.48-1.2 2.67-2.72 2.67s-2.74-1.19-2.74-2.67c0-1.49 1.21-2.65 2.75-2.65 1.51 0 2.71 1.16 2.71 2.65zm-4.77 0c0 1.19.89 2.12 2.07 2.12 1.15.03 2.02-.93 2.02-2.09 0-1.18-.88-2.13-2.05-2.13-1.14-.02-2.04.93-2.04 2.1zm1.64 1.37h-.62v-2.65c.25-.04.58-.09 1.02-.09.51 0 .73.09.9.21.16.11.27.31.27.57 0 .32-.25.53-.54.63v.04c.26.09.38.29.47.64.09.4.15.54.2.64h-.64c-.09-.1-.12-.32-.21-.64-.05-.27-.21-.41-.56-.41h-.3l.01 1.06zm.01-1.48h.3c.33 0 .61-.11.61-.38 0-.25-.17-.41-.57-.41-.16 0-.27.01-.33.04l-.01.75z"/></svg>