<svg xmlns="http://www.w3.org/2000/svg" role="img" viewBox="18.93 10.43 114.01 36.76"><title>Housing Anywhere (adopter) logo</title><path fill="#ff8127" d="M47.006 41.86H23.07a1.915 1.915 0 0 1-1.917-1.914 1.915 1.915 0 0 1 1.914-1.916h22.022V27.251L34.933 18.82l-9.947 8.421v4.593a1.917 1.917 0 0 1-1.915 1.916 1.916 1.916 0 0 1-1.916-1.914v-5.484a1.912 1.912 0 0 1 .68-1.463l11.85-10.034a1.918 1.918 0 0 1 2.464-.011l12.083 10.034a1.915 1.915 0 0 1 .693 1.474v13.592a1.92 1.92 0 0 1-1.92 1.916zm9.238-27.468h2.89v4.065h3.259v-4.065h2.89v10.919h-2.891v-4.334h-3.258v4.334h-2.89zm16.163 6.719c0-1.276-.335-2.083-1.209-2.083s-1.21.807-1.21 2.083.337 2.089 1.212 2.089 1.209-.807 1.209-2.084m-5.375 0a4.172 4.172 0 1 1 8.332 0 4.172 4.172 0 1 1-8.332 0m9.779.975v-5.179H79.7v4.8c0 1.076.27 1.344.84 1.344a1.324 1.324 0 0 0 1.21-.739v-5.41h2.889v8.4h-2.352l-.2-1.109h-.067a3.183 3.183 0 0 1-2.587 1.31c-1.848 0-2.621-1.344-2.621-3.427m9.107 2.251l1.276-1.78a3.6 3.6 0 0 0 2.05.839c.6 0 .84-.168.84-.5 0-.437-.773-.638-1.613-.974a2.825 2.825 0 0 1-2.116-2.486c0-1.647 1.343-2.722 3.326-2.722a4.967 4.967 0 0 1 3.091 1.109L91.5 19.532a3.117 3.117 0 0 0-1.713-.7c-.488 0-.74.134-.74.47 0 .437.74.605 1.58.907a2.7 2.7 0 0 1 2.15 2.52c0 1.579-1.243 2.789-3.595 2.789a5.6 5.6 0 0 1-3.259-1.176m8.267.975h2.889v-8.4h-2.894v8.4zm-.168-10.886a1.622 1.622 0 1 1 1.608 1.439 1.48 1.48 0 0 1-1.613-1.444zm5.007 2.486h2.352l.2 1.008h.067a3.8 3.8 0 0 1 2.655-1.21c1.848 0 2.621 1.344 2.621 3.427v5.174h-2.89v-4.8c0-1.075-.269-1.344-.84-1.344a1.747 1.747 0 0 0-1.277.638v5.51h-2.893zm14.012 2.855c0-.772-.37-1.141-.907-1.141s-.907.369-.907 1.141c0 .807.369 1.177.907 1.177s.907-.37.907-1.177m.941 6.452c0-.437-.4-.5-1.125-.5h-.657a4.452 4.452 0 0 1-1.21-.1.813.813 0 0 0-.3.6c0 .538.672.773 1.646.773.941 0 1.646-.3 1.646-.773m-5.644.471a1.814 1.814 0 0 1 1.176-1.613v-.067a1.656 1.656 0 0 1-.773-1.444 2.058 2.058 0 0 1 .94-1.58v-.067a2.608 2.608 0 0 1-1.142-2.151c0-2.083 1.748-3.057 3.6-3.057a4.314 4.314 0 0 1 1.343.2h3.118V19h-1.21a2.953 2.953 0 0 1 .135.874c0 1.982-1.512 2.789-3.394 2.789a4.232 4.232 0 0 1-.941-.119.534.534 0 0 0-.2.488c0 .369.336.5 1.176.5h1.26c2.1 0 3.309.638 3.309 2.184 0 1.814-1.881 3.057-4.871 3.057-1.916 0-3.528-.571-3.528-2.083M58.882 37.308H60.9l-.185-.756c-.269-1.042-.537-2.369-.806-3.461h-.069c-.235 1.109-.5 2.419-.774 3.461zm-.689-6.366h3.5l3.326 10.919h-3.063l-.538-2.319h-3.057l-.537 2.319h-2.957l3.326-10.92zm7.629 2.519h2.353l.2 1.008h.066a3.8 3.8 0 0 1 2.655-1.21c1.848 0 2.622 1.344 2.622 3.428v5.174h-2.89v-4.8c0-1.075-.269-1.344-.84-1.344a1.747 1.747 0 0 0-1.277.638v5.511h-2.89v-8.4zm9.746 11.39l.5-2.184a2.729 2.729 0 0 0 .537.1 1.206 1.206 0 0 0 1.311-.84l.1-.37-3.192-8.1h2.889l1.008 3.225c.235.773.4 1.546.605 2.386h.074a62.36 62.36 0 0 1 .537-2.386l.841-3.225h2.755l-2.822 8.265c-.875 2.268-1.781 3.293-3.864 3.293a4.373 4.373 0 0 1-1.277-.168m8.569-11.39h2.855l.638 3.528c.135.84.2 1.68.336 2.553h.068c.134-.873.268-1.747.47-2.553l.773-3.528h2.451l.806 3.528c.2.84.336 1.68.5 2.553h.067c.135-.873.2-1.713.336-2.553l.639-3.528h2.654l-1.915 8.4h-3.36l-.605-2.923c-.134-.773-.269-1.546-.4-2.47h-.067c-.134.924-.235 1.7-.37 2.47l-.571 2.923h-3.292zm13.979-3.292h2.89v2.725l-.134 1.445a3.738 3.738 0 0 1 2.519-1.076c1.848 0 2.62 1.344 2.62 3.428v5.174h-2.888v-4.8c0-1.075-.27-1.344-.84-1.344a1.747 1.747 0 0 0-1.277.638v5.511h-2.89zm14.582 6.488a1.059 1.059 0 0 0-1.143-1.21 1.329 1.329 0 0 0-1.343 1.21zm-5.242 1.008a4.159 4.159 0 0 1 4.033-4.4c2.486 0 3.662 1.815 3.662 4.066a6.018 6.018 0 0 1-.118 1.209h-4.788a1.769 1.769 0 0 0 1.949 1.344 3.45 3.45 0 0 0 1.713-.5l.941 1.714a5.664 5.664 0 0 1-3.058.974 4.126 4.126 0 0 1-4.334-4.4zm9.275-4.2h2.352l.2 1.445h.066a2.818 2.818 0 0 1 2.386-1.647 2.489 2.489 0 0 1 1.041.168l-.47 2.486a4.025 4.025 0 0 0-.941-.134 1.932 1.932 0 0 0-1.747 1.411v4.671h-2.889v-8.4zm11.661 3.192a1.059 1.059 0 0 0-1.143-1.21 1.331 1.331 0 0 0-1.344 1.21zm-5.242 1.008a4.159 4.159 0 0 1 4.032-4.4c2.487 0 3.663 1.815 3.663 4.066a6.018 6.018 0 0 1-.118 1.209h-4.788a1.769 1.769 0 0 0 1.949 1.344 3.448 3.448 0 0 0 1.713-.5l.941 1.714a5.662 5.662 0 0 1-3.058.974 4.126 4.126 0 0 1-4.334-4.4z"/></svg>