<svg xmlns="http://www.w3.org/2000/svg" role="img" viewBox="9.37 7.37 91.39 32.14"><g fill="none" fill-rule="evenodd"><path fill="#000" d="M52.243 18.492a7.638 7.638 0 0 0-2.727.512v-7.248H44v22.313h5.515V22.984a2.937 2.937 0 0 1 1.165-.228c1.166 0 1.677.569 1.677 1.62v9.693h5.515V23.78c0-3.407-1.932-5.287-5.629-5.287zM68.42 29.834c-.227.085-.654.142-1.166.142-1.022 0-1.563-.427-1.563-1.393v-9.834h-5.514v9.692c0 4.293 2.36 6.001 7.077 6.001 2.56 0 5.202-.455 6.68-1.136V18.749H68.42v11.085zm16.662-11.002a6.745 6.745 0 0 0-1.62-.227c-4.803 0-7.246 3.04-7.246 7.79 0 5.258 2.814 8.043 8.044 8.043 2.7 0 5.031-.482 6.339-1.136v-21.55h-5.516v7.08zm0 11.228c-.199.085-.568.113-.938.113-1.563 0-2.416-1.222-2.416-3.837 0-2.217.825-3.667 2.36-3.667.398 0 .824.086.994.171v7.22zm8.438-18.304v22.313h5.519V11.756H93.52z"/><path fill="#FF6300" d="M25.619 37.874a4.928 4.928 0 0 1-4.797-3.773.09.09 0 0 0-.054-.064 12.945 12.945 0 0 1-1.874-.936.09.09 0 0 1-.038-.046 13.04 13.04 0 0 1-.647-7.114.09.09 0 0 1 .065-.071h.018a.09.09 0 0 1 .075.026 12.937 12.937 0 0 0 4.288 3.057.09.09 0 0 0 .037.007.09.09 0 0 0 .054-.017 4.917 4.917 0 0 1 6.745.97.09.09 0 0 0 .073.035h.011a13.142 13.142 0 0 0 8.243-4.484.09.09 0 0 1 .07-.033.09.09 0 0 1 .089.117 12.991 12.991 0 0 1-7.52 8.462.09.09 0 0 0-.054.064 4.918 4.918 0 0 1-4.784 3.8zm-9.196-6.757a.09.09 0 0 1-.065-.027 12.82 12.82 0 0 1-3.563-10.73.09.09 0 0 0-.029-.078 4.923 4.923 0 0 1 4.759-8.316.09.09 0 0 0 .082-.016 12.62 12.62 0 0 1 1.752-1.168.09.09 0 0 1 .044-.011 13.038 13.038 0 0 1 6.515 3.006.09.09 0 0 1 .03.09.09.09 0 0 1-.07.069 12.928 12.928 0 0 0-4.804 2.188.09.09 0 0 0-.037.083c.017.166.026.332.026.498a4.947 4.947 0 0 1-4.24 4.863.09.09 0 0 0-.072.056 13.3 13.3 0 0 0-.455 1.303c-.776 2.646-.7 5.468.217 8.068a.09.09 0 0 1-.09.122zM32.56 26.53a.09.09 0 0 1-.09-.12c.519-1.673.693-3.434.511-5.176a.09.09 0 0 0-.053-.074 4.945 4.945 0 0 1-2.855-4.455 4.884 4.884 0 0 1 .364-1.878.09.09 0 0 0-.012-.09 13.145 13.145 0 0 0-8.033-4.962.09.09 0 0 1-.076-.092.09.09 0 0 1 .07-.09 12.807 12.807 0 0 1 11.147 2.36.09.09 0 0 0 .057.02.09.09 0 0 0 .028 0 4.811 4.811 0 0 1 1.374-.203 4.922 4.922 0 0 1 3.382 8.51.09.09 0 0 0-.028.08c.078.57.117 1.146.118 1.722 0 .053 0 .106-.007.159l-.007.1a.09.09 0 0 1-.02.056 13.037 13.037 0 0 1-5.839 4.127l-.03.006z"/></g></svg>