<svg xmlns="http://www.w3.org/2000/svg" role="img" viewBox="-16.07 -16.07 835.64 256.64"><title>Hygraph (member) logo</title><g fill="#090E24" clip-path="url(#clip0_3522_2257)"><path d="M261.365 99.576V153h-23.282v-47.04c0-2.968-.731-5.628-2.193-7.98-1.406-2.408-3.318-4.312-5.736-5.712-2.362-1.4-5.005-2.1-7.929-2.1-2.925 0-5.596.7-8.014 2.1-2.418 1.4-4.33 3.304-5.736 5.712-1.406 2.352-2.109 5.012-2.109 7.98V153h-23.282L183 27h23.282l.084 48.216c2.812-2.688 6.102-4.788 9.869-6.3 3.825-1.512 7.845-2.268 12.063-2.268 6.13 0 11.669 1.484 16.618 4.452 5.005 2.968 8.998 6.944 11.978 11.928 2.981 4.928 4.471 10.444 4.471 16.548zM330.415 69h24.8l-46.226 126h-24.632l15.184-42-30.367-84h25.475l16.533 52.332L330.415 69zm94.323 0h23.282v85.176c0 6.216-1.265 11.816-3.796 16.8-2.531 5.04-5.989 9.352-10.376 12.936-4.33 3.584-9.335 6.328-15.015 8.232-5.623 1.904-11.584 2.856-17.883 2.856-5.961 0-11.669-1.176-17.124-3.528-5.454-2.296-10.291-5.488-14.508-9.576-4.218-4.088-7.508-8.792-9.87-14.112l21.257-9.66c1.181 2.8 2.784 5.208 4.809 7.224 2.08 2.016 4.442 3.556 7.085 4.62 2.7 1.12 5.483 1.68 8.351 1.68 3.093 0 6.046-.364 8.858-1.092 2.868-.728 5.426-1.82 7.676-3.276 2.249-1.456 4.021-3.276 5.314-5.46 1.293-2.184 1.94-4.732 1.94-7.644v-9.744c-2.587 3.192-5.736 5.796-9.447 7.812-3.656 1.96-7.902 2.94-12.738 2.94-6.073 0-11.781-1.148-17.124-3.444-5.286-2.296-9.954-5.46-14.003-9.492-4.049-4.088-7.226-8.792-9.532-14.112-2.305-5.32-3.458-11.032-3.458-17.136 0-6.104 1.153-11.816 3.458-17.136 2.306-5.32 5.483-9.996 9.532-14.028 4.049-4.088 8.717-7.28 14.003-9.576 5.343-2.296 11.051-3.444 17.124-3.444 4.836 0 9.082 1.008 12.738 3.024 3.711 1.96 6.86 4.536 9.447 7.728V69zm-21.848 63.924c3.825 0 7.283-.98 10.376-2.94 3.093-2.016 5.511-4.676 7.254-7.98 1.8-3.304 2.7-6.972 2.7-11.004 0-4.032-.9-7.7-2.7-11.004-1.743-3.36-4.161-6.02-7.254-7.98-3.093-1.96-6.551-2.94-10.376-2.94-3.767 0-7.226.98-10.375 2.94-3.093 1.96-5.567 4.62-7.423 7.98-1.856 3.304-2.784 6.972-2.784 11.004 0 4.032.928 7.728 2.784 11.088 1.856 3.304 4.33 5.936 7.423 7.896 3.149 1.96 6.608 2.94 10.375 2.94zM466.022 153l-.084-84h23.281l.085 6.216c2.811-2.688 6.101-4.788 9.869-6.3 3.824-1.512 7.845-2.268 12.063-2.268 3.093 0 6.186.448 9.279 1.344l-9.195 23.436c-2.025-.84-4.077-1.26-6.158-1.26-2.924 0-5.595.7-8.014 2.1-2.418 1.4-4.33 3.304-5.736 5.712-1.406 2.352-2.108 5.012-2.108 7.98V153h-23.282zm119.294-84h23.282v84h-23.366l-1.097-8.736c-2.193 3.248-5.005 5.88-8.435 7.896-3.431 2.016-7.452 3.024-12.063 3.024-6.299 0-12.175-1.176-17.63-3.528-5.455-2.352-10.263-5.6-14.425-9.744-4.161-4.144-7.423-8.932-9.785-14.364-2.305-5.488-3.458-11.368-3.458-17.64 0-5.992 1.096-11.592 3.29-16.8 2.193-5.208 5.286-9.8 9.279-13.776 3.992-3.976 8.576-7.084 13.749-9.324 5.23-2.24 10.854-3.36 16.871-3.36 5.174 0 9.813 1.092 13.918 3.276 4.162 2.184 7.789 4.956 10.882 8.316L585.316 69zm-22.27 63.924c3.824 0 7.283-.98 10.376-2.94 3.093-1.96 5.539-4.592 7.339-7.896 1.799-3.36 2.699-7.056 2.699-11.088 0-4.088-.9-7.784-2.699-11.088-1.8-3.304-4.246-5.936-7.339-7.896s-6.552-2.94-10.376-2.94c-3.88 0-7.395.98-10.544 2.94-3.149 1.96-5.652 4.62-7.507 7.98-1.856 3.304-2.784 6.972-2.784 11.004 0 4.032.928 7.728 2.784 11.088 1.912 3.304 4.442 5.936 7.592 7.896 3.149 1.96 6.635 2.94 10.459 2.94zM649.607 195h-23.282V69h23.282v9.072c2.699-3.304 5.904-5.992 9.616-8.064 3.712-2.128 8.042-3.192 12.991-3.192 6.129 0 11.865 1.148 17.208 3.444 5.398 2.296 10.122 5.488 14.171 9.576 4.049 4.032 7.227 8.708 9.532 14.028 2.306 5.32 3.459 11.032 3.459 17.136 0 6.104-1.153 11.844-3.459 17.22-2.305 5.376-5.483 10.108-9.532 14.196-4.049 4.032-8.773 7.196-14.171 9.492-5.343 2.296-11.079 3.444-17.208 3.444-4.949 0-9.279-1.064-12.991-3.192-3.712-2.128-6.917-4.816-9.616-8.064V195zm22.269-105.924c-3.824 0-7.282 1.008-10.375 3.024-3.037 1.96-5.455 4.592-7.255 7.896-1.743 3.304-2.615 6.972-2.615 11.004 0 4.032.872 7.728 2.615 11.088 1.8 3.304 4.218 5.936 7.255 7.896 3.093 1.96 6.551 2.94 10.375 2.94s7.311-.98 10.46-2.94c3.205-1.96 5.736-4.592 7.592-7.896 1.912-3.304 2.868-7 2.868-11.088 0-3.976-.928-7.616-2.784-10.92-1.856-3.36-4.386-6.02-7.592-7.98-3.149-2.016-6.664-3.024-10.544-3.024zM804 99.576V153h-23.282v-47.04c0-2.968-.731-5.628-2.193-7.98-1.406-2.408-3.318-4.312-5.736-5.712-2.362-1.4-5.005-2.1-7.929-2.1-2.925 0-5.596.7-8.014 2.1-2.418 1.4-4.33 3.304-5.736 5.712-1.406 2.352-2.109 5.012-2.109 7.98V153h-23.282l-.084-126h23.282l.084 48.216c2.812-2.688 6.102-4.788 9.869-6.3 3.825-1.512 7.845-2.268 12.063-2.268 6.13 0 11.669 1.484 16.618 4.452 5.005 2.968 8.998 6.944 11.978 11.928C802.51 87.956 804 93.472 804 99.576z"/><path fill-rule="evenodd" d="M104.769 29.9996L78.5773 45.0004 52.3856 59.9991 26.1917 75v90.001L52.3856 150l26.1917-15.001V105l-26.1917 15V90.0009L78.5773 75l26.1917-15.0009V150l-26.1917 15.001L52.3856 180l-26.1939 15L0 209.999 26.1917 225l26.1939-15.001L78.5773 195l26.1917-15 26.194-14.999V15.0009L104.769 0v29.9996z" clip-rule="evenodd"/></g><defs><clipPath id="clip0_3522_2257"><path fill="#fff" d="M0 0h804v225H0z"/></clipPath></defs></svg>