<svg xmlns="http://www.w3.org/2000/svg" role="img" viewBox="-7.97 34.03 414.18 176.68"><title>IBM (member) logo</title><style>svg {enable-background:new 0 0 400 245}</style><style>.st0{fill:#4c83c3}</style><path d="M398.3 53.5H332l4.1-11.4h62.2zM221.5 42.1h61.6l4 11.5h-65.6c.1-.1 0-11.5 0-11.5zm-48.8 0c10.1 1 19 4.6 26.5 11.5H87.6V42.1h85.1z" class="st0"/><path d="M0 42.1h77.5v11.4H0z" class="st0"/><path d="M398.3 75h-73.9l4-11.4h69.9V75zm-103.5 0h-73.3V63.6h69.2zm-87-11.4c1.5 3.8 3.2 7 3.2 11.4H87.6V63.6h120.2z" class="st0"/><path d="M0 63.6h77.5V75H0z" class="st0"/><path d="M316.8 96.5l4.1-11.4h55.5v11.4zm-18.5-11.4l4.1 11.4h-59V85.1zM212 85c0 3.9-.5 8-1.6 11.4h-33.8V85H212z" class="st0"/><path d="M21.6 85.1h33.3v11.4H21.6z" class="st0"/><path d="M110 85h33.3v11.4H110z" class="st0"/><path d="M276.1 108.8v8.7h-32.8v-11.4h62.4l3.9 10.6 3.7-10.6h62.9v11.4h-32.6v-8.7l-3 8.7H279l-2.9-8.7zM110 106.1h95.5c-2.1 3.8-5.9 8.4-9.5 11.4h-86v-11.4z" class="st0"/><path d="M21.6 106.1h33.3v11.4H21.6z" class="st0"/><path d="M343.8 127.6h32.6V139h-32.6z" class="st0"/><path d="M276.1 127.6h-32.8V139h32.8c0-.1.1-11.4 0-11.4zm61.1 0c-.1 0-3.8 11.4-4 11.4h-46.4l-4.1-11.4h54.5zm-227.2 0h85.8c3.9 3.3 7.5 7.3 10.2 11.4h-96.1c.1-.1.1-11.4.1-11.4zm-55.1 11.3v-11.4H21.7v11.4h33.2z" class="st0"/><path d="M343.8 149h32.6v11.4h-32.6z" class="st0"/><path d="M243.4 149h32.8v11.4h-32.8z" class="st0"/><path d="M325.6 160.4c0-.1 4-11.4 4.1-11.4h-39.5c-.1 0 4 11.4 4 11.4s31.4.1 31.4 0zm-215.6 0V149h33.8v11.4H110zM210.8 149c1.6 3.4 1.8 7.5 2.1 11.4h-35.8V149h33.7z" class="st0"/><path d="M21.7 149H55v11.4H21.7z" class="st0"/><path d="M343.8 170h54.5v11.4h-54.5z" class="st0"/><path d="M221.5 170h54.6v11.4h-54.6z" class="st0"/><path d="M318.2 181.4h-16.6l-4-11.4h24.5zM0 170v11.4h77.5V170H0zm211.5 0c-.8 3.8-1.6 8.3-4.3 11.4H87.6V170h123.9zm99.2 32.9h-1.5l-3.9-11.4h9.4z" class="st0"/><path d="M343.8 191.5h54.5v11.4h-54.5z" class="st0"/><path d="M87.6 202.9v-11.4h112.2c-7.5 7.2-17.8 11.2-28.9 11.4H87.6" class="st0"/><path d="M221.5 191.5h54.6v11.4h-54.6z" class="st0"/><path d="M77.5 191.5v11.4H0v-11.4s77.4.1 77.5 0z" class="st0"/></svg>