<svg xmlns="http://www.w3.org/2000/svg" role="img" viewBox="64.53 48.53 180.70 53.70"><title>Indeed, Inc. (member) logo</title><path d="M87 52h1v1h-1zm-8 3h1v1h-1zm5 0h1v1h-1zm12 1h1v1h-1zm-19 3h1v1h-1zm20 11h1v1h-1zm-29 4h1v1h-1zm43 1h1v1h-1zm3 4h1v1h-1zm-11 1h1v1h-1zm81 4h1v1h-1zm-29 2h1v1h-1zm38 5h1v1h-1zm23 3h1v1h-1zm-78 4h1v1h-1zm12 0h1v1h-1zm77 0h1v1h-1zm12 0h1v1h-1z" fill="#84a6fa"/><path d="M88 52h2v1h-2zm2 0h1v1h-1zm4 3h1v1h-1zm-11 7h1v1h-1zm7 0h1v1h-1zm25 8h1v1h-1zm-9 1h1v1h-1zm-18 1h1v1h-1zm-20 1h1v1h-1zm114 6h1v1h-1zm-58 2h1v1h-1zm31 4h1v1h-1zm54 0h1v1h-1zm-85 1h1v1h-1zm96 0h1v1h-1zm-63 6h1v1h-1zm-19 1h1v1h-1zm89 0h1v1h-1zm-99 2h1v1h-1zm89 0h1v1h-1zM96 96h1v1h-1zm82 0h1v1h-1zm-94 1h1v1h-1zm79 0h1v1h-1zm-29 1h1v1h-1zm38 0h1v1h-1zm51 0h1v1h-1z" fill="#6b96fa"/><path d="M90 54h1v1h-1zm-12 2h1v1h-1zm14 10h1v1h-1zm0 1h1v1h-1zm-6 5h1v1h-1zm1 0h1v1h-1zm16 2h1v1h-1zm32 1h1v1h-1zm29 1h1v1h-1zm-80 1h1v1h-1zm137 1h1v1h-1zm-100 1h1v1h-1zm24 2h1v1h-1zm46 0h1v1h-1zm-28 1h1v1h-1zm12 0h1v1h-1zm17 0h1v1h-1zm12 0h1v1h-1zm18 9h1v1h-1zm-96 1h1v1h-1zm49 0h1v1h-1zm-29 4h1v1h-1zm89 0h1v1h-1zm-84 1h1v1h-1zm89 0h1v1h-1z" fill="#246cf8"/><path d="M77 57h1v1h-1zm70 5h1v1h-1zm-65 4h1v1h-1zm9 0h1v1h-1zm-9 1h1v1h-1zm9 0h1v1h-1zm43 3h1v1h-1zm-48 1h1v1h-1zm1 0h1v1h-1zm12 0h1v1h-1zm1 0h1v1h-1zm13 0h1v1h-1zm1 0h1v1h-1zm21 0h1v1h-1zm1 0h1v1h-1zm5 0h1v1h-1zm54 0h1v1h-1zm29 0h1v1h-1zm1 0h1v1h-1zm5 0h1v1h-1zm-67 1h1v1h-1zm41 0h1v1h-1zm-75 1h1v1h-1zm32 0h1v1h-1zm9 0h1v1h-1zm1 0h1v1h-1zm6 0h1v1h-1zm20 0h3v1h-3zm3 0h1v1h-1zm18 0h1v1h-1zm-117 1h1v1h-1zm34 0h1v1h-1zm43 0h1v1h-1zm18 0h1v1h-1zm21 0h1v1h-1zm7 0h1v1h-1zm9 0h2v1h-2zm2 0h1v1h-1zm-133 1h1v1h-1zm1 0h2v1h-2zm2 0h1v1h-1zm83 0h1v1h-1zm5 0h1v1h-1zm-1 1h1v1h-1zm1 0h1v1h-1zm11 0h1v1h-1zm-101 1h1v1h-1zm59 0h1v1h-1zm-77 1h1v1h-1zm41 0h1v1h-1zm89 0h1v1h-1zm5 0h1v1h-1zm-100 1h1v15h-1zm37 0h1v1h-1zm29 0h1v1h-1zm-5 1h1v1h-1zm9 0h1v1h-1zm20 0h1v1h-1zm25 0h1v1h-1zm-89 1h1v1h-1zm35 0h1v1h-1zm9 0h1v1h-1zm15 0h1v1h-1zm-29 1h1v2h-1zm29 0h1v2h-1zm-42 1h12v1h-12zm12 0h1v1h-1zm17 0h12v1h-12zm12 0h1v1h-1zm-41 1h14v1h-14zm14 0h2v1h-2zm2 0h1v1h-1zm13 0h14v1h-14zm14 0h2v1h-2zm2 0h1v1h-1zm-18 2h1v1h-1zm0 1h1v1h-1zm29 0h1v1h-1zm16 0h1v1h-1zm-105 1h1v1h-1zm31 0h1v1h-1zm-35 1h1v1h-1zm5 1h1v1h-1zm60 0h1v1h-1zm18 0h1v1h-1zm-65 1h1v1h-1zm43 0h1v1h-1zm46 0h1v1h-1zm-106 1h1v1h-1zm7 1h1v1h-1zm89 0h1v1h-1zm-103 1h1v1h-1zm16 0h1v1h-1zm4 0h1v1h-1zm29 0h1v1h-1zm39 0h1v1h-1zm17 0h1v1h-1zm4 0h1v1h-1zM89 95h1v1h-1zm8 0h1v1h-1zm45 0h1v1h-1zm89 0h1v1h-1zm-130 1h1v1h-1zm46 0h1v1h-1zm57 0h1v1h-1zm-64 1h1v1h-1z" fill="#005df7"/><path d="M100 58h1v1h-1zm140 1h1v1h-1zM73 60h1v1h-1zm161 2h1v1h-1zM69 67h1v1h-1zm68 2h1v1h-1zm59 0h1v1h-1zm30 0h1v1h-1zM70 70h1v1h-1zm71 0h1v1h-1zm-59 1h1v1h-1zm23 0h1v1h-1zm72 0h1v1h-1zm-33 1h1v1h-1zm89 0h1v1h-1zM69 73h1v1h-1zm72 3h1v1h-1zm89 0h1v1h-1zm-87 2h1v1h-1zm70 0h1v1h-1zm19 0h1v1h-1zm-100 2h1v1h-1zm89 0h1v1h-1zm-29 1h1v1h-1zm-14 5h1v1h-1zm29 0h1v1h-1zm6 3h1v1h-1zm-45 4h1v1h-1zm3 0h1v1h-1zm26 0h1v1h-1zM91 95h1v1h-1zm88 1h1v1h-1zm-28 2h1v1h-1zm53 0h1v1h-1z" fill="#f5f9ff"/><path d="M82 63h1v1h-1zm10 2h1v1h-1zm47 5h1v1h-1zm26 0h1v1h-1zm8 0h1v1h-1zm-71 3h1v1h-1zm18 1h1v1h-1zm22 2h1v1h-1zm1 1h1v1h-1zm71 0h1v1h-1zM83 78h1v15h-1zm99 5h1v1h-1zm52 3h1v1h-1zm-20 4h1v1h-1zM83 93h1v1h-1zm65 5h1v1h-1zm49 0h1v1h-1zm40 0h1v1h-1z" fill="#5b8af9"/><path d="M142 71h1v1h-1zm-34 4h1v1h-1zm93 0h1v1h-1zm32 4h1v1h-1zm-49 3h1v1h-1zm-53 2h1v1h-1zm89 0h1v1h-1zm-42 5h1v1h-1zm-14 2h1v1h-1zm2 7h1v1h-1zm56 0h1v1h-1z" fill="#9eb9fb"/><path d="M87 53h1v1h-1zm3 0h1v1h-1zm1 0h1v1h-1zm-7 1h1v1h-1zm8 0h2v1h-2zm2 0h1v1h-1zm-13 1h1v1h-1zm16 0h1v1h-1zm-19 2h1v1h-1zm5 13h1v1h-1zm7 0h1v1h-1zm9 0h1v1h-1zm69 0h1v1h-1zm1 0h1v1h-1zm-61 1h1v1h-1zm24 0h1v1h-1zm31 0h1v1h-1zm41 0h1v1h-1zm17 0h1v1h-1zm-115 1h1v1h-1zm70 0h1v1h-1zm15 0h1v1h-1zm-45 1h1v1h-1zm-38 1h1v1h-1zm28 0h1v1h-1zm36 0h1v1h-1zm23 0h1v1h-1zm6 0h1v1h-1zm24 0h1v1h-1zm-16 1h1v1h-1zm14 0h1v1h-1zm-103 1h1v1h-1zm-33 1h1v1h-1zm3 0h1v17h-1zm24 0h1v1h-1zm96 1h1v1h-1zm-65 1h1v1h-1zm31 0h1v1h-1zm58 0h1v1h-1zm-109 1h1v1h-1zm20 0h1v1h-1zm60 0h1v1h-1zm9 0h1v1h-1zm-112 1h1v1h-1zm54 0h1v1h-1zm29 1h1v1h-1zm-55 1h1v2h-1zm89 0h1v2h-1zm-89 2h1v1h-1zm55 0h1v1h-1zm34 0h1v1h-1zm-34 1h1v1h-1zm-60 1h1v1h-1zm31 0h1v1h-1zm58 0h1v1h-1zm-83 1h1v1h-1zm0 1h1v1h-1zm89 0h1v1h-1zm-88 1h1v1h-1zm54 0h1v1h-1zm-5 1h1v1h-1zm11 0h1v1h-1zm-34 1h1v1h-1zm47 0h1v1h-1zM90 94h1v1h-1zm78 0h1v1h-1zm3 0h1v1h-1zm26 0h1v1h-1zm3 0h1v1h-1zm33 0h1v1h-1zm-87 1h1v1h-1zm44 0h1v1h-1zm-70 1h1v1h-1zm21 0h1v1h-1zm-53 1h1v1h-1zm31 0h1v1h-1zm14 0h1v1h-1zm33 0h1v1h-1zm7 0h1v1h-1zm22 0h1v1h-1zm7 0h1v1h-1zm20 0h1v1h-1z" fill="#0056f7"/><path d="M95 54h1v1h-1zm-15 1h1v1h-1zm15 0h1v1h-1zm3 1h1v1h-1zm-22 3h1v1h-1zm-1 1h1v1h-1zm72 0h1v1h-1zm88 3h1v9h-1zM82 64h1v1h-1zm9 0h1v1h-1zm0 5h1v1h-1zm-7 2h1v1h-1zm13 0h1v1h-1zm19 0h1v1h-1zm119 1h1v1h-1zm-116 1h1v1h-1zm9 0h1v1h-1zm32 0h1v1h-1zm18 0h1v1h-1zm39 0h1v1h-1zm-38 1h1v1h-1zm9 0h1v1h-1zm-68 1h1v1h-1zm6 1h1v1h-1zm7 0h1v1h-1zm82 0h1v1h-1zm-29 1h1v1h-1zm18 0h1v1h-1zm-19 3h1v1h-1zm26 1h1v1h-1zm-67 9h1v1h-1zm34 0h1v1h-1zm32 0h1v1h-1zm11 0h1v1h-1zm-47 3h1v1h-1zm42 0h1v1h-1zm-114 2h1v1h-1zm13 0h1v1h-1zm120 0h1v1h-1zm-58 1h1v1h-1zm14 0h1v1h-1zm15 0h1v1h-1zM85 97h1v1h-1zm47 0h1v1h-1zm89 0h1v1h-1z" fill="#0050f6"/><path d="M85 61h1v1h-1zm3 0h1v1h-1zm64 1h1v1h-1zm89 0h1v1h-1zM70 66h1v1h-1zm106 5h1v1h-1zm15 0h1v1h-1zm-32 2h1v1h-1zm22 3h1v1h-1zm-50 6h1v1h-1zm24 0h1v1h-1zm65 0h1v1h-1zm-75 1h1v2h-1zm89 0h1v2h-1zm-89 2h1v1h-1zm89 0h1v1h-1zm-90 4h1v1h-1zm66 0h1v1h-1zm23 0h1v1h-1zm-31 4h1v1h-1zm-75 1h1v1h-1zm-44 1h1v1h-1zm69 0h1v1h-1zm89 0h1v1h-1zm-120 1h1v1h-1zm71 1h1v1h-1zM88 98h1v1h-1zm31 0h1v1h-1z" fill="#7ca1fa"/><path d="M144 79h1v1h-1zm69 1h1v1h-1zm-58 1h1v1h-1zm-24 2h1v1h-1zm89 0h1v1h-1zm-7 4h1v1h-1zm-2 3h1v1h-1zm-29 1h1v1h-1zm-37 3h1v1h-1zm89 0h1v1h-1z" fill="#95b3fb"/><path d="M92 52h1v1h-1zm7 6h1v1h-1zM69 68h1v1h-1zm12 1h1v1h-1zm11 0h1v1h-1zm9 1h1v1h-1zm106 2h1v1h-1zm-41 3h1v1h-1zm-78 1h1v1h-1zm86 1h1v1h-1zm30 2h1v1h-1zm-20 2h1v1h-1zm-49 11h1v1h-1zm76 0h1v1h-1zm-59 4h1v1h-1zm-50 1h1v1h-1zm13 0h1v1h-1z" fill="#b2c8fc"/><path d="M85 53h1v1h-1zm7 0h1v1h-1zm-7 1h1v1h-1zm-3 1h1v1h-1zm14 0h1v1h-1zm-17 1h1v1h-1zm18 0h1v1h-1zm-21 2h1v1h-1zm1 0h1v1h-1zm73 2h1v1h-1zm89 0h1v1h-1zM90 63h1v1h-1zm56 0h1v1h-1zm-39 8h1v1h-1zm24 0h1v1h-1zm9 0h1v1h-1zm34 0h1v1h-1zm19 0h1v1h-1zm27 0h1v1h-1zm9 0h1v1h-1zm-111 1h1v1h-1zm24 0h1v1h-1zm19 0h1v1h-1zm70 0h1v1h-1zm-122 2h1v1h-1zm18 0h1v1h-1zm11 0h1v1h-1zm1 0h1v1h-1zm27 0h1v1h-1zm61 0h1v1h-1zm1 0h1v1h-1zm-55 1h1v1h-1zm2 2h1v1h-1zm17 0h1v1h-1zm-89 1h1v1h-1zm111 0h1v1h-1zm-89 1h1v1h-1zm66 0h1v1h-1zm23 0h1v1h-1zm6 0h1v1h-1zm-64 1h1v1h-1zm20 0h1v1h-1zm-61 1h1v13h-1zm70 0h1v1h-1zm-83 1h1v11h-1zm83 5h1v1h-1zm-60 1h1v1h-1zm31 0h1v1h-1zm29 0h1v1h-1zm29 0h1v1h-1zm-52 1h1v1h-1zm52 0h1v1h-1zm-88 2h1v1h-1zm31 0h1v1h-1zm6 0h1v1h-1zm43 0h1v1h-1zm-42 1h1v1h-1zm46 0h1v1h-1zm-108 1h1v1h-1zm33 0h1v1h-1zm59 0h1v1h-1zm30 0h1v1h-1zm-109 1h1v1h-1zm13 0h1v1h-1zm39 0h1v1h-1zm5 0h1v1h-1zm29 0h1v1h-1zm-72 1h1v1h-1zm14 0h1v1h-1zm89 0h1v1h-1zm-81 1h1v1h-1zm89 0h1v1h-1zm-75 1h1v1h-1zm38 0h1v1h-1zm25 0h1v1h-1z" fill="#0053f7"/><path d="M94 53h1v1h-1zm-5 1h1v1h-1zm-8 2h1v1h-1zm154 5h1v1h-1zm-102 9h1v1h-1zm89 0h1v1h-1zm-105 1h1v1h-1zm26 1h1v1h-1zm89 0h1v1h-1zm-17 3h1v1h-1zm-101 3h1v1h-1zm10 5h1v1h-1zm0 1h1v1h-1zm7 3h1v1h-1zm64 6h1v1h-1z" fill="#3979f8"/><path d="M95 53h1v1h-1zm140 7h1v1h-1zM92 64h1v1h-1zm24 6h1v1h-1zm-48 1h1v1h-1zm1 1h1v1h-1zm20 0h1v1h-1zm39 0h1v1h-1zm106 1h1v1h-1zm-54 1h1v1h-1zm-55 2h1v1h-1zm89 0h1v1h-1zm-1 3h1v1h-1zm-58 1h1v1h-1zm-41 2h1v12h-1zm-11 1h1v1h-1zm110 5h1v1h-1zm-87 5h1v1h-1zm41 0h1v1h-1zm48 0h1v1h-1zm-101 1h1v1h-1zm2 4h1v1h-1zm58 0h1v1h-1z" fill="#c2d4fd"/><path d="M91 54h1v1h-1zm-17 6h1v1h-1zm73 1h1v1h-1zm89 0h1v1h-1zM86 62h1v1h-1zm1 0h1v1h-1zm-5 3h1v1h-1zm0 3h1v1h-1zm9 0h1v1h-1zm19 2h1v1h-1zm27 0h1v1h-1zm89 0h1v1h-1zm-117 1h1v1h-1zm24 0h1v1h-1zm6 0h1v1h-1zm26 0h1v1h-1zm8 0h1v1h-1zm19 0h1v1h-1zm10 0h1v1h-1zm20 0h1v1h-1zm6 0h1v1h-1zM97 72h1v1h-1zm20 0h1v1h-1zm-16 1h1v1h-1zm4 0h1v1h-1zm63 0h1v1h-1zm1 0h1v1h-1zm-65 1h1v2h-1zm3 0h1v1h-1zm93 0h1v1h-1zm-88 1h1v1h-1zm1 0h1v1h-1zm90 0h1v1h-1zm27 0h1v1h-1zm-126 1h1v1h-1zm10 0h1v1h-1zm44 0h1v1h-1zm5 0h1v1h-1zm-74 1h1v1h-1zm31 0h1v1h-1zm6 0h1v1h-1zm-11 1h1v1h-1zm5 0h1v1h-1zm11 0h1v1h-1zm13 0h1v1h-1zm13 0h1v1h-1zm19 0h1v1h-1zm15 0h1v1h-1zm14 0h1v1h-1zM84 79h1v14h-1zm18 0h1v1h-1zm108 0h1v1h-1zm-80 2h1v1h-1zm52 0h1v1h-1zm37 0h1v1h-1zm16 0h1v1h-1zm-110 1h1v3h-1zm89 0h1v3h-1zm-4 1h1v1h-1zm-85 2h1v1h-1zm53 0h1v1h-1zm29 0h1v1h-1zm7 0h1v1h-1zm-68 1h1v1h-1zm15 0h1v1h-1zm74 0h1v1h-1zm-105 1h1v1h-1zm31 0h1v1h-1zm25 2h1v1h-1zm-60 1h1v1h-1zm36 0h1v1h-1zm17 0h1v1h-1zm1 0h1v1h-1zm28 0h1v1h-1zm7 0h1v1h-1zm-83 1h1v1h-1zm89 0h1v1h-1zm-88 1h1v1h-1zm83 0h1v1h-1zm6 0h1v1h-1zm10 0h1v1h-1zM84 93h1v1h-1zm52 0h1v1h-1zm23 0h1v1h-1zm16 0h1v1h-1zm29 0h1v1h-1zm5 0h1v1h-1zm-72 1h2v1h-2zm2 0h1v1h-1zm21 0h1v1h-1zm6 0h1v1h-1zm13 0h1v1h-1zm16 0h1v1h-1zm3 0h1v1h-1zm1 0h1v1h-1zm27 0h2v1h-2zm2 0h1v1h-1zm-108 1h1v1h-1zm88 0h1v1h-1zm-77 1h1v1h-1zm89 0h1v1h-1zm16 0h1v1h-1zM86 97h1v1h-1zm1 0h1v1h-1zm10 0h2v1h-2zm2 0h1v1h-1zm19 0h1v1h-1zm17 0h2v1h-2zm2 0h1v1h-1zm12 0h1v1h-1zm19 0h3v1h-3zm3 0h1v1h-1zm26 0h3v1h-3zm3 0h1v1h-1zm24 0h2v1h-2zm2 0h1v1h-1zm12 0h1v1h-1z" fill="#005bf7"/><path d="M80 57h1v1h-1zm161 4h1v1h-1zm-101 9h1v1h-1zm34 0h1v1h-1zm19 0h1v1h-1zm36 0h1v1h-1zm-50 3h1v1h-1zm30 1h1v1h-1zm-99 1h1v1h-1zm72 3h1v1h-1zm-68 2h1v1h-1zm-11 1h1v1h-1zm121 11h1v1h-1zm6 0h1v1h-1zm11 4h1v1h-1zM85 98h1v1h-1z" fill="#adc3fc"/><path d="M148 59h1v1h-1zm89 0h1v1h-1zM74 62h1v1h-1zm78 1h1v31h-1zm-81 1h1v1h-1zm134 7h1v1h-1zm-103 1h1v1h-1zm61 6h1v1h-1zm22 0h1v1h-1zm28 3h1v1h-1zm-33 4h1v1h-1zm-49 1h1v1h-1zm82 0h1v1h-1zm-57 4h1v1h-1zm21 0h1v1h-1zm28 1h1v1h-1zm6 0h1v1h-1zm-59 3h1v1h-1zm38 2h1v1h-1zm-14 1h1v1h-1zm-78 1h1v1h-1zm69 0h1v1h-1zm29 0h1v1h-1z" fill="#6f99fa"/><path d="M236 60h1v1h-1zM74 61h1v1h-1zm10 1h1v1h-1zm5 0h1v1h-1zm12 9h1v1h-1zm88 2h1v1h-1zm18 0h1v1h-1zm-49 2h1v1h-1zm52 9h1v1h-1zm-29 6h1v1h-1zm26 0h1v1h-1zm-80 3h1v1h-1zm-43 3h1v1h-1zm46 0h1v1h-1zm32 0h1v1h-1zm57 0h1v1h-1zm-118 1h1v1h-1zm15 0h1v1h-1zm31 0h1v1h-1zm89 0h1v1h-1z" fill="#004cf6"/><path d="M152 61h1v1h-1zm-71 3h1v1h-1zm-10 3h1v1h-1zm118 5h1v1h-1zm-80 3h1v1h-1zm47 2h1v1h-1zm-52 1h1v1h-1zm88 1h1v1h-1zm29 0h1v1h-1zm-107 2h1v1h-1zm-11 1h1v1h-1zm108 2h1v1h-1zm-4 5h1v1h-1zm-25 1h1v1h-1zm-57 1h1v1h-1zm19 4h1v1h-1zm89 0h1v1h-1zm-87 2h1v1h-1z" fill="#b7cbfc"/><path d="M81 68h1v1h-1zm88 6h1v1h-1zm29 0h1v1h-1zm-91 1h1v1h-1zm19 0h1v1h-1zm85 4h1v1h-1zm-49 8h1v1h-1zm1 3h1v1h-1zm-76 8h1v1h-1zm12 0h1v1h-1zm19 0h1v1h-1zm18 0h1v1h-1zm13 0h1v1h-1zm20 0h1v1h-1zm1 0h1v1h-1zm55 0h1v1h-1zm13 0h1v1h-1z" fill="#437cf8"/><path d="M86 52h1v1h-1zM72 62h1v1h-1zm-2 7h1v1h-1zm94 1h1v1h-1zm39 0h1v1h-1zM96 71h1v1h-1zm64 1h1v1h-1zm27 2h1v1h-1zm-51 1h1v1h-1zm59 0h1v1h-1zm30 0h1v1h-1zm-41 11h1v1h-1zm-29 1h1v1h-1zm37 2h1v1h-1zm-51 3h1v1h-1zm24 0h1v1h-1zm-32 6h1v1h-1zm62 0h1v1h-1z" fill="#a1bbfb"/><path d="M81 54h1v1h-1zm-8 7h1v1h-1zm13 0h1v1h-1zm1 0h1v1h-1zm5 7h1v1h-1zm136 2h1v1h-1zM83 71h1v1h-1zm7 0h1v1h-1zm120 5h1v1h-1zm-89 1h1v1h-1zm4 0h1v1h-1zm67 1h1v1h-1zm12 0h1v1h-1zm-73 3h1v1h-1zm82 1h1v1h-1zm0 3h1v1h-1zm-68 1h1v1h-1zm17 0h1v1h-1zm14 5h1v1h-1zm-39 2h1v1h-1zm29 0h1v1h-1zm60 0h1v1h-1zM86 98h1v1h-1zm51 0h1v1h-1zm31 0h1v1h-1zm58 0h1v1h-1z" fill="#5386f9"/><g fill="#085ff7"><path d="M87 54h1v1h-1zm-8 3h1v1h-1zm69 4h2v35h-2zm2 0h1v35h-1zm87 0h2v35h-2zm2 0h1v35h-1z"/><path d="M236 62h3v33h-3zM84 63h5v7h-5zm5 0h1v7h-1zm58 0h3v32h-3z"/><path d="M83 64h7v5h-7zm7 0h1v5h-1zm-20 4h1v1h-1zm13 1h7v1h-7zm7 0h1v1h-1zm-6 1h5v1h-5zm5 0h1v1h-1zm134 0h1v4h-1zM98 71h1v25h-1zm12 0h2v2h-2zm2 0h1v3h-1zm22 0h1v3h-1zm3 0h1v2h-1zm1 0h1v2h-1zm28 0h4v1h-4zm4 0h2v1h-2zm2 0h1v2h-1zm24 0h3v1h-3zm3 0h2v1h-2zm2 0h1v2h-1zm25 0h1v2h-1zm1 0h1v2h-1zM99 72h1v24h-1zm1 0h1v24h-1z"/><path d="M107 72h9v1h-9zm9 0h1v23h-1zm15 0h10v1h-10zm10 0h1v2h-1zm23 0h11v1h-11zm11 0h1v4h-1zm17 0h11v1h-11zm11 0h1v2h-1zm17 0h10v1h-10zm10 0h1v2h-1zM97 73h3v21h-3z"/><path d="M106 73h12v1h-12zm12 0h1v23h-1zm12 0h12v1h-12zm12 0h1v1h-1zm20 0h5v1h-5zm5 0h1v1h-1zm5 0h4v1h-4zm4 0h1v4h-1zm14 0h6v1h-6zm6 0h1v1h-1zm5 0h5v1h-5zm5 0h1v7h-1zm13 0h12v1h-12zm12 0h1v1h-1zm-126 1h1v1h-1zm1 0h1v1h-1zm6 0h6v1h-6zm16 0h6v1h-6zm6 0h1v1h-1zm7 0h2v1h-2zm2 0h7v1h-7zm17 0h5v1h-5zm5 0h1v1h-1z"/><path d="M173 74h4v1h-4zm4 0h1v9h-1zm12 0h5v1h-5zm5 0h1v1h-1zm8 0h5v1h-5zm5 0h1v10h-1zm11 0h5v1h-5zm5 0h1v1h-1zm7 0h2v1h-2zm2 0h1v1h-1zm-131 1h1v20h-1zm13 0h5v1h-5zm5 0h1v21h-1zm9 0h5v1h-5zm5 0h1v1h-1zm10 0h1v1h-1zm1 0h6v1h-6zm15 0h4v1h-4zm4 0h2v1h-2zm2 0h1v1h-1z"/><path d="M174 75h4v1h-4zm4 0h2v8h-2zm2 0h1v8h-1zm9 0h3v2h-3zm3 0h1v1h-1zm12 0h4v1h-4zm4 0h1v8h-1zm9 0h5v1h-5zm5 0h1v1h-1zm10 0h1v1h-1zm1 0h6v1h-6zm-131 1h1v2h-1zm1 0h1v1h-1zm12 0h4v1h-4zm12 0h5v1h-5zm5 0h1v1h-1zm12 0h6v1h-6zm15 0h3v4h-3zm3 0h1v1h-1z"/><path d="M175 76h4v1h-4zm13 0h3v3h-3zm17 0h3v1h-3zm11 0h5v1h-5zm5 0h1v1h-1zm12 0h6v2h-6zM86 77h1v19h-1zm29 0h4v1h-4zm12 0h4v3h-4zm4 0h1v1h-1zm14 0h5v1h-5zm13 0h3v14h-3zm18 0h4v1h-4z"/><path d="M187 77h4v2h-4zm4 0h1v1h-1zm14 0h4v1h-4zm4 0h1v6h-1zm7 0h4v3h-4zm4 0h1v1h-1zM87 78h2v18h-2zm2 0h1v16h-1zm13 0h1v1h-1zm15 0h2v18h-2zm28 0h5v1h-5zm88 0h6v1h-6z"/><path d="M85 79h4v17h-4zm41 0h4v9h-4zm20 0h4v1h-4zm41 0h3v11h-3zm3 0h1v1h-1zm25 0h4v10h-4zm20 0h4v1h-4zm-105 1h1v1h-1zm16 0h4v1h-4zm11 0h4v9h-4zm4 0h1v5h-1z"/><path d="M186 80h3v8h-3zm20 0h3v3h-3zm13 0h1v1h-1zm1 0h1v1h-1zm-10 1h1v1h-1zm-29 1h1v1h-1zm9 0h1v3h-1zm20 0h1v1h-1zm-48 1h1v2h-1zm15 0h3v1h-3zm3 0h1v1h-1zm11 0h1v2h-1zm15 0h3v1h-3zm3 0h1v1h-1zm-48 2h1v1h-1zm1 0h1v1h-1zm28 0h1v1h-1zm1 0h1v1h-1zm-45 2h4v6h-4zm-20 1h3v1h-3zm3 0h1v6h-1zm57 0h4v1h-4zm4 0h1v6h-1zm29 0h1v7h-1zm16 0h4v5h-4z"/><path d="M127 89h3v2h-3zm3 0h1v6h-1zm26 0h5v1h-5zm5 0h1v5h-1zm54 0h4v1h-4zm-70 1h5v2h-5zm42 0h3v1h-3zm29 0h4v1h-4zm4 0h1v5h-1zm14 0h5v2h-5z"/><path d="M127 91h4v1h-4zm4 0h1v4h-1zm27 0h4v1h-4zm4 0h1v4h-1zm16 0h2v2h-2zm2 0h1v1h-1zm8 0h3v1h-3zm3 0h1v4h-1zm16 0h2v2h-2zm2 0h1v1h-1zm7 0h4v1h-4z"/><path d="M128 92h4v1h-4zm4 0h1v4h-1zm10 0h8v1h-8zm17 0h4v1h-4zm4 0h1v3h-1zm14 0h3v1h-3zm3 0h1v1h-1zm8 0h4v1h-4zm4 0h1v3h-1zm14 0h3v1h-3zm3 0h1v1h-1zm8 0h4v1h-4zm4 0h1v4h-1zm12 0h6v1h-6z"/><path d="M128 93h5v1h-5zm5 0h1v3h-1zm9 0h2v1h-2zm2 0h6v1h-6zm16 0h4v1h-4zm4 0h1v3h-1zm12 0h3v1h-3zm3 0h1v1h-1zm10 0h4v1h-4zm4 0h1v4h-1zm12 0h3v1h-3zm3 0h1v1h-1zm9 0h5v1h-5zm5 0h1v3h-1zm9 0h2v1h-2zm2 0h6v1h-6zM89 94h1v1h-1zm8 0h4v1h-4z"/><path d="M129 94h6v1h-6zm6 0h1v2h-1zm6 0h2v1h-2zm2 0h1v1h-1zm18 0h4v1h-4zm4 0h1v2h-1zm9 0h4v1h-4zm4 0h1v1h-1zm12 0h4v1h-4zm4 0h1v2h-1zm9 0h4v1h-4zm4 0h1v1h-1zm11 0h6v1h-6zm6 0h1v2h-1zm6 0h2v1h-2zm2 0h1v1h-1zm-131 1h1v1h-1zm15 0h3v1h-3z"/><path d="M130 95h11v1h-11zm11 0h1v1h-1zm6 0h3v1h-3zm15 0h15v1h-15zm15 0h1v1h-1zm14 0h15v1h-15zm15 0h1v1h-1zm13 0h11v1h-11zm11 0h1v1h-1zm6 0h3v1h-3zM85 96h3v1h-3zm3 0h1v1h-1zm10 0h2v1h-2zm2 0h1v1h-1zm15 0h4v1h-4zm4 0h1v1h-1zm13 0h8v1h-8zm8 0h1v1h-1zm8 0h2v1h-2zm2 0h1v1h-1zm14 0h11v1h-11zm11 0h1v1h-1zm19 0h9v1h-9zm9 0h1v1h-1zm18 0h8v1h-8zm8 0h2v1h-2zm2 0h1v1h-1zm6 0h2v1h-2zm2 0h1v1h-1zm-119 1h1v1h-1zm73 0h1v1h-1zm36 0h1v1h-1z"/></g><path d="M93 55h1v1h-1zm-11 1h1v1h-1zm64 4h1v1h-1zM84 72h1v1h-1zm43 1h1v1h-1zm89 0h1v1h-1zm-92 6h1v1h-1zm8 0h1v1h-1zm52 8h1v1h-1zm-60 1h1v1h-1zm39 1h1v1h-1zm51 2h1v1h-1zm-18 2h1v1h-1zm39 4h1v1h-1zm-96 1h1v1h-1zm64 0h1v1h-1zm25 0h1v1h-1z" fill="#bfd0fc"/><path d="M150 59h1v1h-1zm89 0h1v1h-1zM72 65h1v1h-1zm149 5h1v1h-1zm10 1h1v1h-1zm-43 2h1v1h-1zm20 0h1v1h-1zm-87 3h1v1h-1zm54 3h1v1h-1zm-51 1h1v1h-1zm60 5h1v1h-1zm36 0h1v1h-1zm-96 2h1v1h-1zm57 2h1v1h-1zm4 1h1v1h-1zm21 0h1v1h-1zm-12 2h1v1h-1zm-21 6h1v1h-1zm29 0h1v1h-1z" fill="#95b2fb"/><path d="M149 60h1v1h-1zm89 0h1v1h-1zm2 3h1v31h-1zM91 65h1v1h-1zm22 5h1v1h-1zm22 0h1v1h-1zm1 0h1v1h-1zm31 0h1v1h-1zm4 0h1v1h-1zm25 0h1v1h-1zm28 0h1v1h-1zM85 71h1v1h-1zm3 0h1v1h-1zm87 0h1v1h-1zm19 0h1v1h-1zm-51 2h1v1h-1zm89 0h1v1h-1zm-113 1h1v1h-1zm8 1h1v1h-1zm15 0h1v1h-1zm74 0h1v1h-1zm-29 1h1v1h-1zm22 0h1v1h-1zm-28 1h1v2h-1zm34 0h1v1h-1zm-90 1h1v1h-1zm31 1h1v1h-1zm25 0h1v1h-1zm30 1h1v1h-1zm23 0h1v1h-1zm-109 1h1v1h-1zm21 1h1v1h-1zm89 0h1v1h-1zm-79 1h1v2h-1zm25 0h1v1h-1zm-25 2h1v1h-1zm7 0h14v1h-14zm14 0h1v1h-1zm15 0h14v1h-14zm14 0h1v1h-1zm-81 1h1v1h-1zm94 0h1v1h-1zm-57 2h1v1h-1zm26 5h1v1h-1zm37 0h1v1h-1zM84 94h1v1h-1zm86 0h1v1h-1zm3 0h1v1h-1zm16 0h1v1h-1zm51 0h1v1h-1zM89 96h1v1h-1zm116 0h1v1h-1zm-105 1h1v1h-1zm17 0h1v1h-1zm17 0h1v1h-1zm14 0h1v1h-1zm16 0h1v1h-1zm8 0h1v1h-1zm29 0h1v1h-1zm22 0h1v1h-1zm14 0h1v1h-1z" fill="#005af7"/><path d="M91 52h1v1h-1zm-15 8h1v1h-1zm-1 1h1v1h-1zm33 9h1v1h-1zm24 0h1v1h-1zm-64 2h1v1h-1zm90 2h1v1h-1zm-18 1h1v1h-1zm32 0h1v1h-1zm57 0h1v1h-1zm-95 1h1v1h-1zm89 0h1v1h-1zm-90 1h1v1h-1zm89 0h1v1h-1zm-11 1h1v1h-1zm-27 5h1v1h-1zm-53 2h1v1h-1zm1 4h1v1h-1zm89 0h1v1h-1zm-35 3h1v1h-1zm-57 4h1v1h-1zm89 0h1v1h-1zm-77 1h1v1h-1zm89 0h1v1h-1z" fill="#8dacfb"/><path d="M86 53h1v1h-1zm-11 6h1v1h-1zm8 4h1v1h-1zm-2 3h1v1h-1zm0 1h1v1h-1zm83 4h1v1h-1zm39 0h1v1h-1zm32 2h1v1h-1zm-125 1h1v1h-1zm24 1h1v1h-1zm9 1h1v1h-1zm89 0h1v1h-1zM88 77h1v1h-1zm44 0h1v1h-1zm89 0h1v1h-1zm-16 2h1v1h-1zm-90 1h1v1h-1zm30 8h1v1h-1zm46 0h1v1h-1zm43 0h1v1h-1zm-43 1h1v1h-1zm-14 2h1v1h-1zm9 0h1v1h-1zm1 1h1v1h-1zm-46 1h1v1h-1zm89 0h1v1h-1zm-86 1h1v1h-1zm52 0h1v1h-1zm-46 3h1v1h-1zm54 0h1v1h-1zm35 0h1v1h-1z" fill="#0055f7"/><path d="M80 54h1v1h-1zm-6 5h1v1h-1zm10 2h1v1h-1zm5 0h1v1h-1zm29 10h1v1h-1zm-50 4h1v1h-1zm53 0h1v1h-1zm16 0h1v1h-1zm-24 2h1v1h-1zm68 8h1v1h-1zm-37 3h1v1h-1zm-1 2h1v1h-1zm13 1h1v1h-1zm54 3h1v1h-1zm-96 1h1v1h-1zm45 0h1v1h-1zm-29 2h1v1h-1zm32 0h1v1h-1zm57 0h1v1h-1z" fill="#dae5fe"/><path d="M99 57h1v1h-1zm52 3h1v1h-1zm-5 1h1v1h-1zm-37 9h1v1h-1zm-7 4h1v1h-1zm66 0h1v1h-1zm29 0h1v1h-1zm-84 2h1v1h-1zm8 2h1v1h-1zm11 0h1v1h-1zm43 0h1v1h-1zm-72 1h1v1h-1zm131 2h1v1h-1zm-23 2h1v1h-1zm-20 3h1v1h-1zm-11 3h1v1h-1zm5 0h1v1h-1zm23 0h1v1h-1zm-4 3h1v1h-1z" fill="#3473f8"/><g fill="#fff"><path d="M0 0h309v51H0zm309 0h1v162h-1zM0 51h309v1H0zm0 1h83v1H0zm83 0h1v1h-1zm11 0h215v1H94zM0 53h81v1H0zm81 0h1v1h-1zm15 0h213v1H96zM0 54h79v1H0zm79 0h1v1h-1zm19 0h211v1H98zM0 55h78v1H0zm78 0h1v1h-1zm9 0h4v5h-4zm4 0h1v7h-1zm8 0h210v1H99zM0 56h76v1H0zm76 0h1v1h-1z"/><path d="M83 56h11v4H83zm11 0h1v106h-1zm6 0h209v1H100zM0 57h75v1H0zm75 0h1v1h-1z"/><path d="M81 57h15v3H81zm15 0h1v13h-1zm4 0h209v1H100zM0 58h74v1H0zm74 0h1v1h-1z"/><path d="M80 58h18v2H80zm18 0h1v10h-1zm3 0h208v1H101zM0 59h73v2H0zm73 0h1v1h-1z"/><path d="M78 59h68v1H78zm68 0h1v1h-1zm6 0h83v1h-83zm83 0h1v1h-1zm6 0h68v1h-68zM77 60h68v1H77zm68 0h1v1h-1zm7 0h82v1h-82zm82 0h1v1h-1zm8 0h67v102h-67zM0 61h72v1H0zm72 0h1v1h-1zm4 0h7v1h-7zm7 0h1v1h-1zm7 0h55v1H90zm55 0h1v1h-1zm8 0h81v7h-81zm81 0h1v1h-1zM0 62h71v2H0zm71 0h1v1h-1zm4 0h7v1h-7zm7 0h1v1h-1zm9 0h53v1H91zm53 0h1v9h-1zm-70 1h7v99h-7zm7 0h1v1h-1zm11 0h52v1H92zM0 64h70v2H0zm70 0h1v1h-1zm23 0h51v1H93z"/><path d="M73 65h7v97h-7zm20 0h51v1H93zM0 66h69v3H0zm69 0h1v1h-1z"/><path d="M72 66h8v96h-8zm23 0h49v2H95z"/><path d="M71 68h9v94h-9zm22 0h51v1H93zm60 0h80v1h-80zm80 0h1v3h-1zM0 69h68v93H0zm68 0h1v1h-1zm25 0h4v1h-4zm4 0h1v1h-1zm3 0h9v1h-9zm9 0h1v1h-1zm5 0h20v1h-20zm20 0h1v1h-1zm4 0h6v1h-6zm15 0h13v1h-13zm13 0h1v1h-1zm6 0h23v1h-23zm23 0h1v1h-1zm6 0h22v1h-22zm22 0h1v1h-1zm4 0h6v1h-6zM81 70h1v92h-1zm11 0h4v2h-4zm4 0h1v1h-1zm6 0h4v1h-4zm4 0h1v1h-1zm11 0h13v1h-13zm13 0h1v1h-1zm12 0h2v1h-2zm11 0h9v1h-9zm9 0h1v1h-1zm14 0h15v1h-15zm15 0h1v1h-1zm14 0h14v1h-14zm14 0h1v1h-1zm12 0h2v1h-2z"/><path d="M70 71h11v91H70zm33 0h1v1h-1zm1 0h1v1h-1zm15 0h9v1h-9zm9 0h1v1h-1zm15 0h1v1h-1zm1 0h1v1h-1zm9 0h7v1h-7zm7 0h1v1h-1zm18 0h11v1h-11zm11 0h1v1h-1zm18 0h10v1h-10zm10 0h1v1h-1zm15 0h1v1h-1zm1 0h1v1h-1zM82 72h1v90h-1zm1 0h1v4h-1zm7 0h5v2h-5zm5 0h1v1h-1zm8 0h1v1h-1zm17 0h7v1h-7zm7 0h1v1h-1zm26 0h6v1h-6zm6 0h1v1h-1zm20 0h9v1h-9zm9 0h1v1h-1zm20 0h8v1h-8zm8 0h1v1h-1z"/><path d="M84 73h10v1H84zm37 0h5v1h-5zm5 0h1v1h-1zm27 0h5v1h-5zm5 0h1v1h-1zm22 0h7v1h-7zm7 0h1v1h-1zm22 0h6v1h-6zm6 0h1v1h-1zM69 74h25v1H69zm52 0h4v1h-4zm4 0h1v1h-1zm28 0h4v2h-4zm4 0h1v1h-1zm24 0h5v1h-5zm5 0h1v1h-1zm24 0h4v1h-4zm4 0h1v1h-1zM69 75h20v1H69zm20 0h1v1h-1zm3 0h2v87h-2zm30 0h3v2h-3zm3 0h1v1h-1zm43 0h2v5h-2zm2 0h1v5h-1zm12 0h3v1h-3zm3 0h1v1h-1zm12 0h2v5h-2zm2 0h1v5h-1zm12 0h3v1h-3zm3 0h1v1h-1zM68 76h18v1H68zm18 0h1v1h-1zm21 0h4v86h-4zm4 0h1v86h-1zm24 0h5v15h-5zm5 0h1v15h-1zm13 0h3v2h-3zm3 0h1v1h-1z"/><path d="M166 76h6v4h-6zm6 0h1v4h-1zm10 0h3v1h-3zm3 0h1v1h-1zm10 0h6v4h-6zm6 0h1v4h-1zm10 0h2v1h-2zm2 0h1v1h-1zm11 0h5v15h-5zm5 0h1v15h-1zM68 77h14v85H68zm38 0h6v85h-6zm6 0h1v85h-1zm10 0h2v85h-2zm2 0h1v1h-1zm10 0h8v13h-8zm8 0h1v13h-1z"/><path d="M165 77h8v3h-8zm8 0h1v3h-1zm10 0h1v85h-1zm1 0h1v1h-1zm10 0h8v3h-8zm8 0h1v3h-1zm10 0h1v85h-1zm1 0h1v1h-1zm10 0h8v13h-8zm8 0h1v13h-1zm-126 1h8v84h-8zm8 0h1v84h-1zm20 0h9v11h-9zm20 0h2v84h-2zm2 0h1v1h-1z"/><path d="M164 78h10v2h-10zm10 0h1v2h-1zm10 0h1v1h-1zm9 0h10v2h-10zm10 0h1v2h-1zm19 0h9v11h-9zm-118 1h9v83h-9zm39 0h1v10h-1zm89 0h1v10h-1zm-69 1h11v1h-11zm11 0h1v1h-1zm19 0h10v1h-10zm10 0h1v1h-1z"/><path d="M132 81h12v6h-12zm12 0h1v6h-1zm19 0h1v1h-1zm58 0h12v6h-12zm12 0h1v6h-1zm-51 4h1v4h-1zm29 0h1v4h-1z"/><path d="M179 86h4v2h-4zm29 0h4v2h-4zm-76 1h12v1h-12zm12 0h1v1h-1z"/><path d="M163 87h20v1h-20zm30 0h19v1h-19zm28 0h12v1h-12zm12 0h1v1h-1zm-69 1h19v1h-19zm29 0h19v1h-19zm-60 1h10v1h-10zm10 0h1v1h-1zm21 0h13v1h-13zm13 0h1v1h-1zm5 0h2v1h-2zm2 0h1v73h-1zm9 0h13v1h-13zm13 0h1v1h-1zm5 0h1v1h-1zm11 0h10v1h-10zm10 0h1v1h-1zm-108 1h1v72h-1zm10 0h8v1h-8zm8 0h1v1h-1zm13 0h1v72h-1zm9 0h12v1h-12zm12 0h1v1h-1zm17 0h12v1h-12zm12 0h1v1h-1zm8 0h1v72h-1zm10 0h8v1h-8zm8 0h1v1h-1zm-96 1h6v1h-6zm6 0h1v1h-1zm24 0h9v1h-9zm9 0h1v1h-1zm20 0h10v1h-10zm10 0h1v1h-1zm20 0h6v1h-6zm6 0h1v1h-1zm-105 1h1v70h-1zm11 0h3v1h-3zm3 0h1v1h-1zm17 0h1v70h-1zm10 0h7v1h-7zm7 0h1v1h-1zm12 0h1v70h-1zm10 0h7v1h-7zm7 0h1v1h-1zm12 0h1v70h-1zm11 0h3v1h-3zm3 0h1v1h-1zm-59 1h1v1h-1zm1 0h1v1h-1z"/><path d="M182 93h4v69h-4zm4 0h1v69h-1zm12 0h1v1h-1zm1 0h1v1h-1zm12 0h3v69h-3zm-85 1h1v68h-1zm31 0h1v68h-1zm58 0h1v68h-1zM95 95h1v67h-1zm32 0h1v67h-1zm31 0h1v67h-1z"/><path d="M181 95h6v67h-6zm6 0h1v67h-1zm23 0h6v67h-6zm6 0h1v67h-1zM91 96h4v66h-4zm12 0h10v66h-10zm25 0h1v66h-1zm16 0h1v66h-1zm1 0h1v66h-1zm14 0h1v66h-1z"/><path d="M180 96h8v66h-8zm8 0h1v66h-1zm21 0h8v66h-8zm8 0h1v66h-1zm16 0h1v66h-1zm1 0h1v66h-1zM83 97h1v65h-1zm31 0h1v65h-1zm15 0h1v65h-1zm13 0h3v65h-3zm10 0h9v65h-9zm9 0h1v65h-1z"/><path d="M178 97h12v65h-12zm12 0h1v65h-1zm17 0h11v65h-11zm11 0h1v65h-1zm13 0h3v65h-3zM84 98h1v64h-1zm6 0h6v64h-6zm6 0h1v64h-1zm6 0h13v64h-13zm13 0h1v64h-1zm6 0h10v64h-10zm10 0h1v64h-1zm10 0h5v64h-5zm5 0h1v64h-1zm16 0h1v64h-1zm1 0h1v64h-1z"/><path d="M176 98h17v64h-17zm17 0h1v64h-1zm12 0h15v64h-15zm15 0h1v64h-1zm10 0h5v64h-5zm5 0h1v64h-1zm6 0h68v64h-68z"/><path d="M85 99h224v63H85zM0 162h309v1H0zm309 0h1v1h-1z"/></g><path d="M84 52h1v1h-1zm67 7h1v1h-1zm90 1h1v1h-1zM93 66h1v1h-1zm0 1h1v1h-1zm5 2h1v1h-1zm12 0h1v1h-1zm-19 2h1v1h-1zm4 2h1v21h-1zm17 3h1v1h-1zm72 3h1v1h-1zm-20 2h10v1h-10zm10 0h1v1h-1zm19 0h10v1h-10zm10 0h1v1h-1zm-11 6h1v1h-1zm-29 1h1v1h-1zm-8 1h1v1h-1zm20 2h1v1h-1zm-35 1h1v1h-1zm89 0h1v1h-1zm-72 1h1v1h-1zm43 0h1v1h-1zM95 94h1v1h-1zm139 1h1v1h-1zm-120 1h1v1h-1zm75 0h1v1h-1zm52 1h1v1h-1zm-101 1h1v1h-1zm24 0h1v1h-1zm11 0h1v1h-1zm54 0h1v1h-1z" fill="#fafdff"/><path d="M93 52h1v1h-1zm-1 3h1v1h-1zm-15 1h1v1h-1zm20 1h1v1h-1zm48 6h1v8h-1zm89 0h1v8h-1zM73 64h1v1h-1zm26 5h1v1h-1zm13 0h1v1h-1zm56 0h2v1h-2zm2 0h1v1h-1zm27 0h2v1h-2zm2 0h1v1h-1zm-54 2h1v1h-1zm89 0h1v1h-1zm-114 2h1v1h-1zm6 1h1v1h-1zm89 0h1v1h-1zm-77 1h1v1h-1zm48 0h1v1h-1zm24 0h1v1h-1zm17 0h1v1h-1zM87 76h1v1h-1zm107 0h1v1h-1zm8 0h1v1h-1zm2 4h1v1h-1zm-29 1h1v1h-1zm17 7h1v1h-1zm29 0h1v1h-1zm-88 2h1v1h-1zm89 0h1v1h-1zm-80 1h1v1h-1zm61 1h1v1h-1zm-23 3h1v1h-1zm8 0h1v1h-1zm-92 2h1v1h-1zm95 0h1v1h-1zm30 1h1v1h-1z" fill="#e4ecfe"/><path d="M84 53h1v1h-1zm-1 2h1v1h-1zm17 15h1v1h-1zm14 0h1v1h-1zm24 0h1v1h-1zm28 0h1v1h-1zm6 0h1v1h-1zm23 0h1v1h-1zm6 0h1v1h-1zm26 0h1v1h-1zm-122 2h1v1h-1zm72 0h1v1h-1zm-81 1h1v21h-1zm48 0h1v1h-1zm89 0h1v1h-1zm-66 1h1v1h-1zm-62 2h1v1h-1zm98 0h1v1h-1zm-99 1h1v1h-1zm27 3h1v1h-1zm31 0h1v2h-1zm0 2h1v1h-1zm20 0h1v1h-1zm9 0h1v1h-1zm-46 5h1v1h-1zm-11 5h1v1h-1zm89 0h1v1h-1zm8 0h1v1h-1zm-73 1h1v1h-1zm-62 1h1v1h-1zm84 0h1v1h-1zm8 0h1v1h-1zm-28 1h1v1h-1zm-58 1h1v1h-1zm40 0h1v1h-1z" fill="#0860f7"/><path d="M97 54h1v1h-1zm-11 1h1v1h-1zm9 1h1v1h-1zm-24 7h1v1h-1zm65 6h1v1h-1zm64 0h1v1h-1zm25 0h1v1h-1zm-50 1h1v1h-1zm-46 1h1v1h-1zm77 0h1v1h-1zm12 0h1v1h-1zm-22 4h1v1h-1zm4 0h1v1h-1zm-18 2h1v1h-1zm-58 1h1v1h-1zm31 1h1v1h-1zm22 7h1v1h-1zm15 0h1v1h-1zm14 0h1v1h-1zm-82 3h1v1h-1zm61 2h1v1h-1zm38 0h1v1h-1zm-36 3h1v1h-1zm21 2h1v1h-1zm-87 1h1v1h-1zm-1 1h1v1h-1z" fill="#ecf3ff"/><path d="M79 58h1v1h-1zm34 11h1v1h-1zm22 0h1v1h-1zm32 0h1v1h-1zm4 0h1v1h-1zm53 0h1v1h-1zM68 70h1v1h-1zm124 0h1v1h-1zm38 0h1v1h-1zm-40 1h1v1h-1zm-23 4h1v1h-1zm14 0h1v1h-1zm-16 1h1v1h-1zm27 4h1v1h-1zm12 1h1v1h-1zm-41 5h1v1h-1zm-29 5h1v1h-1zm11 4h1v1h-1zm15 1h1v1h-1zm80 2h1v1h-1z" fill="#f1f6ff"/><path d="M145 62h1v1h-1zm-75 3h1v1h-1zm41 4h1v1h-1zm52 1h1v1h-1zm41 0h1v1h-1zm-43 1h1v1h-1zm-16 1h1v1h-1zm89 0h1v1h-1zM91 75h1v1h-1zm80 0h1v1h-1zm-66 2h1v1h-1zm39 3h1v1h-1zm89 0h1v1h-1zm-69 6h12v1h-12zm12 0h1v1h-1zm17 0h12v1h-12zm12 0h1v1h-1zm-73 2h1v1h-1zm52 0h1v1h-1zm47 3h1v1h-1zm-50 3h1v1h-1zm-92 4h1v1h-1zm8 0h1v1h-1z" fill="#e9f1ff"/><path d="M83 53h1v1h-1zm66 6h1v1h-1zm89 0h1v1h-1zM91 63h1v1h-1zm103 7h1v1h-1zM69 71h1v1h-1zm61 0h1v1h-1zm32 0h1v1h-1zm57 0h1v1h-1zM85 72h1v1h-1zm146 4h1v1h-1zM83 77h1v1h-1zm149 0h1v1h-1zm-87 5h1v1h-1zm89 0h1v1h-1zm-79 1h1v1h-1zm0 1h1v1h-1zm18 9h1v1h-1zm-90 1h1v1h-1zm78 2h1v1h-1zm44 1h1v1h-1zm-105 1h1v1h-1zm17 0h1v1h-1zm84 0h1v1h-1z" fill="#5f8ef9"/><path d="M88 53h1v1h-1zm1 0h1v1h-1zm4 0h1v1h-1zm-10 1h1v1h-1zm3 0h1v1h-1zm62 6h1v1h-1zm89 0h1v1h-1zM85 62h1v1h-1zm3 0h1v1h-1zm58 0h1v1h-1zm5 0h1v33h-1zm89 0h1v1h-1zM72 63h1v1h-1zm26 7h1v1h-1zm13 0h1v1h-1zm1 0h1v1h-1zm58 0h1v1h-1zm27 0h3v1h-3zm3 0h1v1h-1zm25 0h1v1h-1zm-110 1h1v1h-1zm-14 1h1v1h-1zm28 0h1v1h-1zm1 0h1v1h-1zm32 0h1v1h-1zm28 0h1v1h-1zm15 0h1v1h-1zm1 0h1v1h-1zm12 0h1v1h-1zm1 0h1v1h-1zm-115 1h1v1h-1zm7 1h1v1h-1zm29 0h1v1h-1zm31 0h1v1h-1zm45 0h1v1h-1zm13 0h1v1h-1zm-88 1h1v1h-1zm53 0h1v1h-1zm8 0h1v1h-1zm29 0h1v1h-1zm-57 1h1v1h-1zm-30 1h1v1h-1zm19 0h1v1h-1zm-79 1h1v1h-1zm78 0h1v1h-1zm24 0h1v1h-1zm-71 1h1v1h-1zm-13 1h1v1h-1zm89 0h1v1h-1zm23 1h1v1h-1zm-84 1h1v1h-1zm26 0h1v1h-1zm63 0h1v1h-1zm-73 1h1v2h-1zm39 0h1v1h-1zm50 0h1v2h-1zm-55 1h1v1h-1zm5 0h1v1h-1zm24 0h1v1h-1zm-63 1h1v1h-1zm89 0h1v1h-1zm-105 1h1v1h-1zm26 0h1v1h-1zm58 0h1v1h-1zm6 2h1v1h-1zm-95 1h1v1h-1zm20 0h1v1h-1zm89 0h1v1h-1zm-77 1h1v1h-1zm53 1h1v1h-1zm-34 1h1v1h-1zm-36 1h1v1h-1zm40 0h1v1h-1zm49 0h1v1h-1zm-83 1h1v1h-1zm13 0h1v1h-1zm43 0h1v1h-1zm7 0h1v1h-1zm26 0h1v1h-1zM84 95h1v1h-1zm6 0h1v1h-1zm61 0h1v1h-1zm10 0h1v1h-1zm17 0h1v1h-1zm29 0h1v1h-1zm33 0h1v1h-1zM97 96h1v1h-1zm66 0h1v1h-1zm13 0h1v1h-1zm16 0h1v1h-1zM89 97h1v1h-1zm49 0h1v1h-1zm29 0h1v1h-1zm8 0h1v1h-1zm21 0h1v1h-1zm31 0h1v1h-1z" fill="#0058f7"/><path d="M82 54h1v1h-1zm-2 2h1v1h-1zm71 5h1v1h-1zm89 0h1v1h-1zm-5 1h1v1h-1zM72 64h1v1h-1zm74 0h1v8h-1zm-64 5h1v1h-1zm-13 1h1v1h-1zm20 1h1v1h-1zm57 1h1v1h-1zm-9 2h1v1h-1zm22 0h1v1h-1zm49 0h1v1h-1zm18 0h1v1h-1zm-120 1h1v1h-1zm81 0h1v1h-1zm35 1h1v1h-1zm-65 1h1v1h-1zm53 0h1v1h-1zm-79 2h1v1h-1zm31 0h1v1h-1zm14 2h1v1h-1zm35 1h1v1h-1zm-30 2h1v1h-1zm52 6h1v1h-1zm-18 1h1v1h-1zm-34 1h1v1h-1zm12 0h1v1h-1zm-28 1h1v1h-1zm38 0h1v1h-1zm-101 1h1v1h-1zm115 0h1v1h-1zm1 1h1v1h-1zm-79 2h1v1h-1zm35 0h1v1h-1zm20 0h1v1h-1z" fill="#0052f7"/><path d="M99 56h1v1h-1zm8 14h1v1h-1zm24 0h1v1h-1zm89 0h1v1h-1zm-116 2h1v1h-1zm-1 1h1v1h-1zm-12 3h1v18h-1zm73 1h1v1h-1zm47 0h1v1h-1zm-27 3h1v1h-1zm49 8h1v1h-1zm-1 2h1v1h-1zM91 94h1v1h-1zm67 0h1v1h-1zm-55 1h1v1h-1zm-13 2h1v1h-1zm87 0h1v1h-1zm-45 1h1v1h-1z" fill="#dbe7fe"/><path d="M85 52h1v1h-1zm-3 1h1v1h-1zm16 2h1v1h-1zm-22 2h1v1h-1zm-1 1h1v1h-1zm72 1h1v1h-1zm-45 12h1v1h-1zm-12 4h1v1h-1zm136 0h1v1h-1zm-120 1h1v1h-1zm67 0h1v1h-1zm12 1h1v1h-1zm18 0h1v1h-1zm-40 2h1v1h-1zm12 1h1v1h-1zm7 4h1v1h-1zm-27 4h1v1h-1zm19 4h1v1h-1zm27 1h1v1h-1zm8 2h1v1h-1zm-66 1h1v1h-1zm89 0h1v1h-1zm-26 1h1v1h-1zm-12 1h1v1h-1z" fill="#cfddfd"/><path d="M88 54h1v1h-1zm152 6h1v1h-1zM73 63h1v1h-1zm23 9h1v1h-1zm74 2h1v1h-1zm29 0h1v1h-1zm-42 2h1v1h-1zm63 11h1v1h-1zm14 0h1v1h-1zm-55 2h1v1h-1zm30 0h1v1h-1zm-22 4h1v1h-1zm-66 2h1v1h-1zm68 0h1v1h-1z" fill="#2a6ff8"/><path d="M96 54h1v1h-1zm2 3h1v1h-1zm-20 1h1v1h-1zm3 7h1v1h-1zm-12 4h1v1h-1zm13 1h1v1h-1zm9 0h1v1h-1zm111 0h1v1h-1zM89 76h1v1h-1zm97 0h1v1h-1zm-30 2h1v1h-1zm64 3h1v1h-1zm-96 1h1v1h-1zm89 1h1v1h-1zm0 1h1v1h-1zm-89 1h1v1h-1zm1 5h1v1h-1zm14 3h1v1h-1zm42 0h1v1h-1zm47 0h1v1h-1zM90 96h1v1h-1zm117 0h1v1h-1zm-76 1h1v1h-1zm89 0h1v1h-1zm-85 1h1v1h-1zm36 0h1v1h-1zm27 0h2v1h-2zm2 0h1v1h-1zm24 0h1v1h-1z" fill="#4c81f9"/><path d="M85 55h1v1h-1zm151 4h1v1h-1zM119 72h1v1h-1zm59 0h1v1h-1zm39 0h1v1h-1zm-72 1h1v1h-1zm-6 2h1v1h-1zm18 0h1v1h-1zm71 0h1v1h-1zm-35 2h1v1h-1zm-90 7h1v10h-1zm107 1h1v1h-1zm-28 7h1v1h-1zm-10 1h1v1h-1zm-69 1h1v1h-1zm-20 2h1v1h-1zm18 2h1v1h-1zm46 0h1v1h-1zm18 0h1v1h-1zm71 0h1v1h-1z" fill="#c9dafd"/><path d="M73 62h1v1h-1zm-2 3h1v1h-1zm-1 2h1v1h-1zm20 9h1v1h-1z" fill="#0047f6"/><path d="M241 63h1v31h-1zm0 31h1v1h-1z" fill="#698fec"/><path d="M71 66h1v1h-1zm153 9h1v1h-1zM85 77h1v1h-1zm100 2h1v1h-1zm-64 1h1v14h-1zm61 0h1v1h-1zm-18 2h10v1h-10zm10 0h1v1h-1zm19 0h10v1h-10zm10 0h1v1h-1zm-24 3h1v1h-1zm29 0h1v1h-1zm-17 2h1v1h-1zm1 3h1v1h-1zm-59 1h1v1h-1zm10 0h1v1h-1zm89 0h1v1h-1zm-17 1h1v1h-1zm-5 1h1v1h-1zm-89 1h1v1h-1zm-25 1h1v1h-1zm83 0h1v1h-1z" fill="#1c6af8"/></svg>