<svg xmlns="http://www.w3.org/2000/svg" role="img" viewBox="5.86 8.86 1359.28 257.28"><title>Instacart logo</title><path fill="#FF7009" d="M113.05 167.83c38.52 0 70.09 28.75 70 70H43.0502c-.07-41.23 31.49-70 69.9998-70z"/><path fill="#0AAD0A" d="M170.79 70.27c-8.85 0-15.15 3.85-21 12.22l-16.76 24.08V37.83h-40v68.74L76.27 82.49c-5.82-8.37-12.12-12.22-21-12.22-13.34 0-22.23 9.85-22.27 22 0 10.4 4.87 17.17 15.19 23.82L113 157.84l64.81-41.75c10.32-6.65 15.23-13.42 15.19-23.82.01-12.15-8.87-22-22.21-22z"/><path fill="#003D29" d="M264.92 81.57c-14.89 0-24.35-9.22-24.35-23.41S250.26 35 264.92 35c14.89 0 24.35 9.21 24.35 23.4 0 14.19-9.69 23.17-24.35 23.17zm21.75 9v147.26h-43.5V90.55l43.5.02zm64.53-.02v27.43h2.13c8.28-19.39 22.7-30.27 45.87-30.27 31.44 0 50.82 18.68 50.82 54.85v95.27h-43.5V150.6c0-20.33-8.74-29.55-26-29.55-18 0-28.13 9.93-28.13 30.73v86.05h-43.5V90.55h42.31zm154.13 100.71c1.66 12.77 9.46 19.39 23.41 19.39 15.36 0 21.75-5.91 21.75-14.19 0-8-4-12.77-17.26-14.18l-18.91-2.13c-33.81-3.78-47.76-18.91-47.76-44 0-27.9 21-48.47 61.7-48.47 39.72 0 58.4 18.92 60.76 47.52h-40.19c-.94-11.11-7.56-17.49-21.51-17.49-14.42 0-20.8 5.91-20.8 14.18 0 7.09 4.49 11.11 15.6 12.53l21.27 2.87c33.34 4.49 47.52 18 47.52 44.21 0 28.84-22.46 49.17-62.41 49.17-41.37 0-62.18-19.86-65-49.41h41.83zm110.68 3.31v-69.5h-18.68V96.23c24.12-1.66 33.57-10.64 34.52-32.87h27.66v27.19h32.88v34.52h-32.88v62.17c0 14.66 6.15 19.15 18.2 19.15 3.656-.042 7.3-.437 10.88-1.18v32.86c-7.028 1.809-14.264 2.683-21.52 2.6-35.68 0-51.06-16.08-51.06-46.1zm174.23 18.68h-1.85c-6.86 17.25-19.86 27.42-42.32 27.42-29.32 0-45.15-18.2-45.15-41.61 0-21.75 12.29-36.88 45.62-43l25.06-4.5c12.77-2.36 17.26-6.85 17.26-14.42 0-10.16-7.09-16.07-20.8-16.07-15.13 0-22.7 6.85-24.12 18.67h-41.41c4.49-31.68 27.66-52 67.14-52 42.55 0 62.65 21.52 62.65 54.61v95.51h-42.08v-24.61zm-1.42-43.27c-3.78 2.84-8.75 5-15.6 6.62l-13 3.08c-11.34 2.6-15.6 7.8-15.6 15.84 0 10.4 7.33 16.31 19.62 16.31 14.66 0 24.59-8 24.59-26.95l-.01-14.9zm138.05-82.27c45.87 0 71.4 25.06 74.71 65.25h-43c-2.12-18.2-12-29.79-31.91-29.79-22.23 0-34.75 13.95-34.75 40.2 0 27.89 13.47 41.84 35.22 41.84 18.44 0 30-10.88 32.15-30.5h43.26c-4 41.14-31.67 66-76.83 66-49.64 0-77.78-29.79-77.78-75.89-.03-46.61 31.18-77.11 78.93-77.11zm175.73 125.54h-1.89c-6.85 17.25-19.85 27.42-42.31 27.42-29.32 0-45.16-18.2-45.16-41.61 0-21.75 12.3-36.88 45.63-43l25.06-4.5c12.77-2.36 17.26-6.85 17.26-14.42 0-10.16-7.1-16.07-20.81-16.07-15.13 0-22.69 6.85-24.11 18.67h-41.37c4.49-31.68 27.66-52 67.14-52 42.55 0 62.65 21.52 62.65 54.61v95.51h-42.09v-24.61zm-1.41-43.27c-3.78 2.84-8.75 5-15.61 6.62l-13 3.08c-11.35 2.6-15.6 7.8-15.6 15.84 0 10.4 7.33 16.31 19.62 16.31 14.66 0 24.59-8 24.59-26.95v-14.9zm105.66-79.43v35.7h2.13c7.33-30 18-38.3 32.15-38.3 2.98-.0109 5.93.4689 8.75 1.42v40.9c-3.91-.593-7.86-.911-11.82-.95-20.57 0-28.84 8.28-28.84 31.44v77.07h-43.5V90.55h41.13zm56.12 1.66c11.35-4.5 16.07-13.72 16.78-28.85h26.72v27.19h32.86v34.52h-32.86v62.17c0 14.66 6.14 19.15 18.2 19.15 3.65-.041 7.29-.436 10.87-1.18v32.86c-7.02 1.809-14.26 2.683-21.51 2.6-35.7 0-51.06-16.08-51.06-46.1V92.21z"/></svg>