<svg xmlns="http://www.w3.org/2000/svg" role="img" viewBox="-6.01 -6.01 299.52 113.02"><g fill="#0b74de"><path d="M123.123 73.33v-45h9.88V47l15.08-18.61h11.54l-15.22 17.52 16.86 27.42h-11.19l-12.07-19.94-5 5.55v14.39z"/><path d="M160.503 84.58l2-7.54c.46.12 1.23.29 2.32.52a18.72 18.72 0 0 0 3.83.34 4.57 4.57 0 0 0 2.55-.64 4.37 4.37 0 0 0 1.57-2.18l.62-1.57-12.39-32.59h10.09l7.12 21h.12l7.15-21h9.52l-13.61 35.82a24.85 24.85 0 0 1-1.84 3.76 12.16 12.16 0 0 1-2.38 2.83 9.34 9.34 0 0 1-3.19 1.8 13.58 13.58 0 0 1-4.25.6 33 33 0 0 1-5.81-.4c-1.43-.26-2.57-.52-3.42-.75zm39.98-11.25V40.92h9.8V46a15.82 15.82 0 0 1 1.72-2 14.35 14.35 0 0 1 2.37-1.84 13.78 13.78 0 0 1 2.95-1.38 10.92 10.92 0 0 1 3.55-.55q4.08 0 6.16 1.53a7.15 7.15 0 0 1 2.77 4.24c.5-.59 1.08-1.23 1.76-1.92a12.61 12.61 0 0 1 2.44-1.88 13.94 13.94 0 0 1 3-1.38 12.14 12.14 0 0 1 7.76.18 7.81 7.81 0 0 1 3 2.06 8.2 8.2 0 0 1 1.73 3.13 13.51 13.51 0 0 1 .55 4v23.14h-9.79V52.75a6.42 6.42 0 0 0-.7-3.34c-.46-.75-1.4-1.13-2.82-1.13a6.33 6.33 0 0 0-3.34.93 20.53 20.53 0 0 0-3.14 2.32v21.8h-9.8V52.75a6.53 6.53 0 0 0-.69-3.34c-.47-.75-1.41-1.13-2.84-1.13a6.44 6.44 0 0 0-3.38.93 21.73 21.73 0 0 0-3.17 2.32v21.8zm56.34-8.28a9.86 9.86 0 0 1 4.93-8.74q4.92-3.16 15.61-4v-.78a4 4 0 0 0-1-2.85 4.44 4.44 0 0 0-3.36-1.08 14.59 14.59 0 0 0-5.75 1.12 20.54 20.54 0 0 0-4.88 2.91l-4.15-5.63a26 26 0 0 1 2.78-2.09 21 21 0 0 1 3.5-1.85 23 23 0 0 1 4.41-1.3 27.94 27.94 0 0 1 5.49-.49q6.67 0 9.6 3.22t2.91 9.51v12.44a44.7 44.7 0 0 0 .21 4.79 11.85 11.85 0 0 0 .71 3.1h-9.73c-.2-.69-.37-1.42-.52-2.2a13.39 13.39 0 0 1-.22-2.55 15.94 15.94 0 0 1-4.94 3.89 14.23 14.23 0 0 1-6.34 1.33 11.05 11.05 0 0 1-3.58-.57 8.83 8.83 0 0 1-2.95-1.7 7.67 7.67 0 0 1-2-2.76 9 9 0 0 1-.73-3.72zm9.56-1.69a2.77 2.77 0 0 0 1 2.34 4.08 4.08 0 0 0 2.6.77 10.78 10.78 0 0 0 4.38-.8 9.44 9.44 0 0 0 3-2v-6q-5.82.6-8.4 2t-2.58 3.69zm-195.3 38.01h-38.61a8.36 8.36 0 0 1-6.56-3.15L1.833 68a8.36 8.36 0 0 1-1.62-7.1l8.6-37.65a8.32 8.32 0 0 1 4.54-5.69L48.133.84a8.33 8.33 0 0 1 7.29 0l34.79 16.75a8.38 8.38 0 0 1 4.54 5.69l8.59 37.65a8.36 8.36 0 0 1-1.62 7.1l-24.08 30.19a8.36 8.36 0 0 1-6.56 3.15zM49.673 4l-34.79 16.77a4.85 4.85 0 0 0-2.63 3.3l-8.59 37.64a4.83 4.83 0 0 0 .94 4.11L28.673 96a4.81 4.81 0 0 0 3.8 1.83h38.61a4.81 4.81 0 0 0 3.8-1.83l24.12-30.18a4.82 4.82 0 0 0 .93-4.11l-8.63-37.64a4.85 4.85 0 0 0-2.63-3.3L53.883 4a4.79 4.79 0 0 0-4.21 0z"/><path d="M23.093 39.14v21.51a10.33 10.33 0 0 1 4.68-1.13h4.6a26.88 26.88 0 0 0 17.13-5.61c-1.25-1.11-2.47-2.25-3.64-3.37-5.86-5.61-12.03-10.92-22.77-11.4z"/><path d="M80.463 39.33c-10.56.52-16.12 5.78-22 11.34C52.093 56.74 45.473 63 32.373 63h-4.6a4.69 4.69 0 0 0-4.64 4.64v5.89h57.33zm-29.81-2.15c-4.89-4.68-9.79-9.35-19.58-9.35v9.29a30.93 30.93 0 0 1 11.32 6.06 29.88 29.88 0 0 0 8.26-6z"/><path d="M70.943 29.45c-8.13.46-12.42 4.55-16.94 8.89a40.93 40.93 0 0 1-9 7.07c1 .94 2.05 1.9 3.05 2.86 1.28 1.22 2.6 2.46 3.95 3.64 1.39-1.21 2.74-2.48 4.11-3.77 4.23-4 8.6-8.1 14.85-10.41z"/></g></svg>