<svg xmlns="http://www.w3.org/2000/svg" role="img" viewBox="3.77 17.77 148.33 70.45"><g fill="none" fill-rule="evenodd"><g fill="#5F18E8"><path d="M42.04 80.512c0 .255-.025.503-.063.748l-.014.091c-.397 2.292-2.39 4.04-4.785 4.04-2.136 0-3.95-1.392-4.602-3.317l-20.23-11.717a6.509 6.509 0 0 1-3.241-5.633V44.988c.749.255 1.548.4 2.383.4.75 0 1.472-.115 2.155-.322v19.658c0 .695.372 1.341.973 1.689l18.871 10.931a4.843 4.843 0 0 1 3.691-1.71 4.85 4.85 0 0 1 3.915 1.996c.015.022.032.043.048.065.062.088.12.178.177.271l.065.107a4.828 4.828 0 0 1 .316.655c.024.06.045.12.067.182.027.077.053.155.076.233.023.076.04.151.058.226.017.071.035.141.049.213.019.095.03.19.044.286.007.058.018.113.024.17.014.157.023.314.023.474zm24.88-42.605a4.867 4.867 0 0 1-1.67 3.67v23.147a6.507 6.507 0 0 1-3.24 5.633L44.63 80.424a7.449 7.449 0 0 0-1.496-4.392l16.607-9.62c.6-.347.972-.993.972-1.688V42.592a4.88 4.88 0 0 1-3.518-4.685 4.853 4.853 0 0 1 .982-2.927 4.91 4.91 0 0 1 .362-.43l.017-.019c.267-.278.565-.523.89-.732l.104-.064c.129-.077.26-.15.396-.216.04-.019.08-.04.12-.057.17-.077.345-.149.525-.204v-.001a4.826 4.826 0 0 1 1.467-.228c2.682 0 4.862 2.188 4.862 4.878zM9.105 42.155a4.883 4.883 0 0 1-2.48-4.248c0-2.69 2.181-4.878 4.863-4.878.695 0 1.355.15 1.954.414l20.494-11.87a6.462 6.462 0 0 1 6.483 0L57.902 31.7a7.508 7.508 0 0 0-2.83 3.616l-16.922-9.8a1.939 1.939 0 0 0-1.945 0L16.272 37.061c.049.275.078.556.078.845a4.882 4.882 0 0 1-3.188 4.574l-.043.016a5.14 5.14 0 0 1-.45.137c-.03.008-.06.017-.091.023a5 5 0 0 1-.427.078c-.04.006-.078.013-.118.018-.179.02-.36.033-.545.033a4.85 4.85 0 0 1-.586-.04c-.051-.005-.102-.015-.153-.023a4.687 4.687 0 0 1-.437-.087l-.132-.034a4.866 4.866 0 0 1-1.075-.447z"/><path d="M49.479 63.471a1.69 1.69 0 0 1-1.685-1.69c0-.934.755-1.691 1.685-1.691s1.685.757 1.685 1.69a1.69 1.69 0 0 1-1.685 1.691zm-12.312 0a1.69 1.69 0 0 1-1.685-1.69c0-.934.756-1.691 1.685-1.691a1.69 1.69 0 1 1 0 3.382zm-11.578 0a1.69 1.69 0 0 1-1.685-1.69c0-.934.756-1.691 1.685-1.691a1.69 1.69 0 1 1 0 3.382zm11.79-27.42l2.57 2.579h-5.14l2.57-2.579zm13.213 21.852V49.13a1.18 1.18 0 0 0-1.177-1.182H38.36v-6.956h4.43a1.183 1.183 0 0 0 .833-2.017l-5.411-5.43a1.176 1.176 0 0 0-1.666 0l-5.411 5.43a1.183 1.183 0 0 0 .832 2.017h4.038v6.956H25.866a1.18 1.18 0 0 0-1.177 1.182v8.707a4.053 4.053 0 0 0-3.14 3.943c0 2.235 1.813 4.054 4.04 4.054a4.052 4.052 0 0 0 4.041-4.054 4.051 4.051 0 0 0-2.586-3.771v-7.698h8.961v7.607c-1.658.504-2.878 2.035-2.878 3.862 0 2.235 1.813 4.054 4.04 4.054a4.052 4.052 0 0 0 4.04-4.054c0-1.816-1.203-3.338-2.847-3.853v-7.616h9.877v7.632c-1.618.529-2.798 2.04-2.798 3.837 0 2.235 1.812 4.054 4.04 4.054a4.043 4.043 0 1 0 1.113-7.931z"/></g><path fill="#050713" fill-rule="nonzero" d="M78.403 68v-6.239l2.754 5.729h2.227l2.754-5.729V68h3.383V54.74h-3.417l-3.842 8.381-3.825-8.381H75.02V68h3.383zm14.32 0h10.182v-3.281h-6.783v-1.7h5.576v-3.077h-5.576v-1.904h6.783V54.74H92.722V68zm12.993-13.26V68h3.383v-3.553h1.734L113.349 68h4.063l-2.873-4.012c1.785-.816 2.618-2.55 2.618-4.403 0-2.635-1.564-4.845-4.964-4.845h-6.477zm6.29 3.094c1.36 0 1.87.765 1.87 1.785 0 .918-.51 1.751-1.87 1.751h-2.907v-3.536h2.907zm13.928 5.253h3.213v.374c-.629.918-1.649 1.513-2.839 1.513a3.584 3.584 0 0 1-3.604-3.604 3.584 3.584 0 0 1 3.604-3.604c1.156 0 2.176.527 2.84 1.36l2.77-1.87a7.095 7.095 0 0 0-5.61-2.771c-3.842 0-7.038 3.094-7.038 6.885s3.196 6.885 7.038 6.885c1.36 0 2.703-.51 3.35-1.496V68h2.668v-7.735h-6.392v2.822zm9.27 4.913V54.74h10.184v3.298h-6.783v1.904h5.576v3.077h-5.576v1.7h6.783V68h-10.183z"/><path fill="#6D7A99" fill-rule="nonzero" d="M78.565 41.821h2.079v.242a2.208 2.208 0 0 1-1.837.979 2.32 2.32 0 0 1-2.332-2.332 2.32 2.32 0 0 1 2.332-2.332c.748 0 1.408.341 1.837.88l1.793-1.21a4.591 4.591 0 0 0-3.63-1.793c-2.486 0-4.554 2.002-4.554 4.455 0 2.453 2.068 4.455 4.554 4.455.88 0 1.749-.33 2.167-.968V45h1.727v-5.005h-4.136v1.826zm7.746-5.401V45H88.5v-2.299h1.122L91.25 45h2.629l-1.86-2.596c1.156-.528 1.695-1.65 1.695-2.849 0-1.705-1.012-3.135-3.212-3.135H86.31zm4.07 2.002c.88 0 1.21.495 1.21 1.155 0 .594-.33 1.133-1.21 1.133H88.5v-2.288h1.88zm9.505-2.002L96.41 45h2.398l.473-1.254h3.377l.473 1.254h2.398l-3.465-8.58h-2.178zm2.024 5.335h-1.88l.945-2.519.935 2.519zM108.688 45h2.2v-1.947h1.584c2.277 0 3.366-1.529 3.366-3.344 0-1.727-1.09-3.289-3.366-3.289h-3.784V45zm3.663-6.578c.924 0 1.265.616 1.265 1.298 0 .759-.341 1.331-1.265 1.331h-1.463v-2.629h1.463zm12.52-2.002v3.333h-3.499V36.42h-2.189V45h2.19v-3.19h3.497V45h2.2v-8.58h-2.2zm5.61 4.29c0 2.2 1.673 4.048 3.807 4.389 1.485.495 2.486 2.035 4.213 2.035.78 0 1.782-.319 2.398-1.166l-1.661-1.342c-.231.352-.627.385-.748.385-.374 0-.726-.198-1.122-.473 1.33-.781 2.222-2.2 2.222-3.828 0-2.453-2.046-4.455-4.554-4.455-2.475 0-4.554 2.002-4.554 4.455zm2.223 0a2.326 2.326 0 0 1 2.332-2.332 2.306 2.306 0 0 1 2.332 2.332 2.306 2.306 0 0 1-2.332 2.332 2.326 2.326 0 0 1-2.332-2.332zM143.012 45v-8.58h2.19v6.457h4.113V45h-6.303z"/></g></svg>