<svg xmlns="http://www.w3.org/2000/svg" role="img" viewBox="3.65 17.65 148.46 70.21"><title>merge-graphql-schemas logo</title><g fill="none" fill-rule="evenodd"><path fill="#FFF" d="M0 0h215v105H0z"/><g fill="#5F18E8"><path d="M42.04 80.31454c0 .2538-.02485.50156-.06325.7448-.00452.03088-.00829.061-.01356.09113-.39763 2.2841-2.38954 4.02675-4.78511 4.02675-2.1365 0-3.9507-1.38719-4.60211-3.30605L12.3458 70.19231c-2.00622-1.15825-3.24129-3.29928-3.24129-5.61426V44.90668c.74932.25379 1.54835.39763 2.38352.39763.74932 0 1.47229-.11372 2.15458-.32007v19.5938c0 .6921.37203 1.33674.97299 1.68316l18.8716 10.89565c.8924-1.04152 2.21407-1.70499 3.69087-1.70499 1.60633 0 3.02816.78547 3.91454 1.98966.01582.02184.03238.04292.0482.06476a5.05618 5.05618 0 0 1 .17698.27036c.02183.0354.04367.07004.06476.10618.0497.0851.09564.17246.14007.26057.0241.04745.0467.0949.06854.14309.0384.08209.0738.16492.10769.24927.0241.06025.04518.1205.06702.1815.02711.0768.05347.15438.07606.2327.0226.0753.03916.15062.058.22517.01731.0708.03539.14083.04894.21237.01883.09414.03088.18903.04443.28467.00678.05799.01808.11296.02335.1702.0143.15588.02334.31253.02334.47218zm24.87972-42.46579c0 1.45873-.64765 2.76609-1.66884 3.65774v23.07156c0 2.31498-1.2343 4.456-3.24128 5.61426L44.62912 80.22643c-.01958-1.64173-.5746-3.15317-1.49488-4.3777l16.6063-9.58753c.60022-.34642.97224-.99107.97224-1.68315V42.51789c-2.02806-.5844-3.51766-2.45431-3.51766-4.66914 0-1.07842.35771-2.0725.95416-2.87905.00828-.0128.01807-.0256.02786-.0384.11221-.14912.2327-.29296.36148-.42851l.01732-.01883c.2666-.27789.56482-.52189.89015-.7305.03389-.02183.06929-.04141.10393-.06325.12878-.07682.26057-.14987.39612-.21539.03991-.01882.07983-.03916.1205-.05723.16944-.07681.34416-.1476.52414-.20333.00076 0 .00076 0 .00076-.00076.46314-.14685.9549-.22743 1.46626-.22743 2.68174 0 4.86192 2.18094 4.86192 4.86268zM9.10452 42.0826c-1.47755-.83517-2.47916-2.41891-2.47916-4.23385 0-2.68174 2.18094-4.86268 4.86268-4.86268.6951 0 1.3548.14987 1.9535.41345l20.4945-11.8325c1.00236-.57912 2.12295-.8683 3.24129-.8683 1.11984 0 2.23967.28918 3.24203.8683l17.4829 10.09437c-1.28627.86756-2.2826 2.12822-2.82934 3.60503l-16.9226-9.76904c-.29522-.17095-.63185-.26057-.973-.26057-.34039 0-.67627.08962-.97223.26057L16.2724 37.00605c.0482.27412.07757.55427.07757.8427 0 2.09207-1.3307 3.87463-3.18782 4.55919-.0143.00527-.02937.0113-.04292.01581-.14836.05196-.29672.0979-.4496.1363-.03087.00754-.061.01658-.09187.0226-.14008.03238-.28316.05799-.427.07832-.03916.00527-.07757.0128-.11748.01732-.17924.02034-.36073.03314-.54524.03314-.19806 0-.3931-.01582-.5859-.03916-.0512-.00603-.10167-.01506-.15363-.02335-.1476-.02259-.2922-.0512-.43604-.08735-.04367-.0113-.0881-.0211-.13254-.0339-.3788-.10693-.73953-.25529-1.0754-.44507z"/><path d="M49.4789 63.32913c-.93016 0-1.68528-.7559-1.68528-1.68528 0-.93016.75512-1.68527 1.68527-1.68527.93016 0 1.68528.75511 1.68528 1.68527 0 .92937-.75512 1.68528-1.68528 1.68528zm-12.31185 0c-.92938 0-1.68528-.7559-1.68528-1.68528 0-.93016.7559-1.68527 1.68528-1.68527.93016 0 1.68606.75511 1.68606 1.68527 0 .92937-.7559 1.68528-1.68606 1.68528zm-11.57792 0c-.92938 0-1.68528-.7559-1.68528-1.68528 0-.93016.7559-1.68527 1.68528-1.68527.93015 0 1.68606.75511 1.68606 1.68527 0 .92937-.7559 1.68528-1.68606 1.68528zm11.78985-27.33018l2.56912 2.5699h-5.13824l2.56912-2.5699zm13.21296 21.77984V49.0345c0-.65072-.52748-1.17741-1.17741-1.17741H38.36016v-6.93341h4.43023c.47646 0 .90582-.2873 1.08793-.72686.1829-.44036.08163-.94664-.2551-1.28338l-5.41141-5.4122c-.45998-.45919-1.20567-.45919-1.66565 0l-5.4114 5.4122c-.33675.33674-.438.84302-.25511 1.28338.1821.43957.61147.72686 1.08715.72686h4.03853v6.9334H25.86621c-.64993 0-1.17741.5267-1.17741 1.17742v8.67834c-1.79439.4121-3.13978 2.01417-3.13978 3.931 0 2.22767 1.81322 4.0401 4.0401 4.0401 2.22768 0 4.0409-1.81243 4.0409-4.0401 0-1.71432-1.07695-3.17274-2.5864-3.7591v-7.67282h8.96171v7.58256c-1.65858.50236-2.87839 2.0283-2.87839 3.84936 0 2.22767 1.81322 4.0401 4.0401 4.0401 2.22768 0 4.0409-1.81243 4.0409-4.0401 0-1.81008-1.2041-3.32738-2.84778-3.84073v-7.5912h9.87695v7.6069c-1.61855.52748-2.79832 2.033-2.79832 3.82503 0 2.22767 1.81243 4.0401 4.0401 4.0401s4.04011-1.81243 4.04011-4.0401c0-1.83912-1.24335-3.3784-2.92706-3.86506z"/></g><path fill="#050713" fill-rule="nonzero" d="M78.383 67.515v-6.239l2.754 5.729h2.227l2.754-5.729v6.239h3.383v-13.26h-3.417l-3.842 8.381-3.825-8.381H75v13.26h3.383zm14.31943 0h10.183v-3.281h-6.783v-1.7h5.576v-3.077h-5.576v-1.904h6.783v-3.298h-10.183v13.26zm12.99343-13.26v13.26h3.383v-3.553h1.734l2.516 3.553h4.063l-2.873-4.012c1.785-.816 2.618-2.55 2.618-4.403 0-2.635-1.564-4.845-4.964-4.845h-6.477zm6.29 3.094c1.36 0 1.87.765 1.87 1.785 0 .918-.51 1.751-1.87 1.751h-2.907v-3.536h2.907zm13.92842 5.253h3.213v.374c-.629.918-1.649 1.513-2.839 1.513-2.006 0-3.604-1.598-3.604-3.604 0-2.006 1.598-3.604 3.604-3.604 1.156 0 2.176.527 2.839 1.36l2.771-1.87c-1.275-1.666-3.332-2.771-5.61-2.771-3.842 0-7.038 3.094-7.038 6.885s3.196 6.885 7.038 6.885c1.36 0 2.703-.51 3.349-1.496v1.241h2.669V59.78h-6.392v2.822zm9.27043 4.913v-13.26h10.183v3.298h-6.783v1.904h5.576v3.077h-5.576v1.7h6.783v3.281h-10.183z"/><path fill="#6D7A99" fill-rule="nonzero" d="M78.565 41.821h2.079v.242c-.407.594-1.067.979-1.837.979-1.298 0-2.332-1.034-2.332-2.332 0-1.298 1.034-2.332 2.332-2.332.748 0 1.408.341 1.837.88l1.793-1.21c-.825-1.078-2.156-1.793-3.63-1.793-2.486 0-4.554 2.002-4.554 4.455 0 2.453 2.068 4.455 4.554 4.455.88 0 1.749-.33 2.167-.968V45h1.727v-5.005h-4.136v1.826zm7.74557-5.401V45h2.189v-2.299h1.122l1.628 2.299h2.629l-1.859-2.596c1.155-.528 1.694-1.65 1.694-2.849 0-1.705-1.012-3.135-3.212-3.135h-4.191zm4.07 2.002c.88 0 1.21.495 1.21 1.155 0 .594-.33 1.133-1.21 1.133h-1.881v-2.288h1.881zm9.50557-2.002l-3.476 8.58h2.398l.473-1.254h3.377l.473 1.254h2.398l-3.465-8.58h-2.178zm2.024 5.335h-1.881l.946-2.519.935 2.519zM108.68771 45h2.2v-1.947h1.584c2.277 0 3.366-1.529 3.366-3.344 0-1.727-1.089-3.289-3.366-3.289h-3.784V45zm3.663-6.578c.924 0 1.265.616 1.265 1.298 0 .759-.341 1.331-1.265 1.331h-1.463v-2.629h1.463zm12.51958-2.002v3.333h-3.498V36.42h-2.189V45h2.189v-3.19h3.498V45h2.2v-8.58h-2.2zm5.61157 4.29c0 2.2 1.672 4.048 3.806 4.389 1.485.495 2.486 2.035 4.213 2.035.781 0 1.782-.319 2.398-1.166l-1.661-1.342c-.231.352-.627.385-.748.385-.374 0-.726-.198-1.122-.473 1.331-.781 2.222-2.2 2.222-3.828 0-2.453-2.046-4.455-4.554-4.455-2.475 0-4.554 2.002-4.554 4.455zm2.222 0c0-1.298 1.045-2.332 2.332-2.332 1.32 0 2.332 1.034 2.332 2.332 0 1.298-1.012 2.332-2.332 2.332-1.287 0-2.332-1.034-2.332-2.332zM143.01243 45v-8.58h2.189v6.457h4.114V45h-6.303z"/></g></svg>