<svg xmlns="http://www.w3.org/2000/svg" role="img" viewBox="54.59 54.59 398.58 398.58"><title>NashTech (adopter) logo</title><style>svg {enable-background:new 0 0 508 508}</style><path fill="#e30b17" d="M62.38 62.38h383.24v383.24H62.38V62.38zm365.61 365.61V80H80v347.99h347.99zm-270.27-218.3h-16.04v48.65h-14.26v-48.65h-16.04v-13.72h46.34v13.72zm45.97 26.34c0-13.26 10.06-23.5 23.58-23.5 8.63 0 16.29 4.54 20.11 11.39l-11.66 6.76c-1.51-3.11-4.72-4.98-8.63-4.98-5.78 0-10.06 4.18-10.06 10.32 0 6.14 4.27 10.32 10.06 10.32 3.92 0 7.21-1.87 8.63-4.98l11.66 6.67c-3.83 6.94-11.39 11.48-20.11 11.48-13.52.02-23.58-10.22-23.58-23.48zm36.5-108.09c-9.26 0-17.45 4.89-17.45 14.59 0 15.4 21.89 11.71 21.89 17.71 0 1.78-1.6 3-4.8 3-4.01 0-7.03-2.91-8.51-4.96l-10.63 6.06c3.73 7.17 10.23 10.59 19.14 10.59 9.61 0 18.51-4.36 18.51-14.59 0-16.47-21.89-12.13-21.89-18.16 0-2.37 6.02-4.9 10.83.82l10.27-5.53c-3.74-6.33-10.15-9.53-17.36-9.53zm67.41 18.42v27.4h-13.35v-25.44c0-5.52-3.47-8.1-7.74-8.1-4.89 0-8.28 2.85-8.28 9.17v24.37h-13.35v-62.38h13.35v21.99c2.4-3.29 6.85-5.43 12.73-5.43 8.98 0 16.64 6.41 16.64 18.42zm-12.15 84.58v27.4H282.1V232.9c0-5.52-3.47-8.1-7.74-8.1-4.89 0-8.28 2.85-8.28 9.17v24.37h-13.35v-62.38h13.35v21.99c2.4-3.29 6.85-5.43 12.73-5.43 8.99 0 16.64 6.41 16.64 18.42zm-80.18-102.12v44.94H201.9v-4.19c-2.94 3.39-7.31 5.44-13.28 5.44-11.67 0-21.3-10.25-21.3-23.52 0-13.28 9.62-23.52 21.3-23.52 5.97 0 10.34 2.05 13.28 5.44v-4.57h13.37zm-13.37 22.66c0-6.68-4.46-10.87-10.6-10.87s-10.6 4.19-10.6 10.87c0 6.68 4.46 10.87 10.6 10.87s10.6-4.19 10.6-10.87zm-41.51-40.1v62.38h-10.64l-24.11-33.93v33.93h-14.26v-62.38h10.69l24.06 33.79v-33.79h14.26zm38.14 124.65c0 1.61-.14 3.15-.4 4.62h-31.97c1.34 4.76 5.32 7.96 10.92 7.96 4.15 0 6.76-2.28 7.83-3.46l10.69 6.13c-4.34 5.44-10.68 8.25-18.7 8.25-15.22 0-24.66-10.23-24.66-23.5 0-13.26 9.62-23.49 23.68-23.49 13 0 22.61 10.05 22.61 23.49zm-32.25-5.1h18.84c-1.54-4.8-5.42-6.55-9.29-6.55-4.89 0-8.2 2.31-9.55 6.55zm138.94 27.41h15.54V242.8h-15.54v15.54z"/><path fill="none" d="M111.39 0v62.38h-10.65L76.63 28.44v33.94H62.38V0h10.69l24.06 33.79V0zM508 111.39h-62.38v-10.65l33.93-24.11h-33.93V62.38H508v10.69l-33.79 24.06H508zM396.61 508v-62.38h10.65l24.1 33.93v-33.93h14.26V508h-10.69l-24.06-33.79V508zM0 396.61h62.38v10.65l-33.94 24.1h33.94v14.26H0v-10.69l33.79-24.06H0z"/></svg>