<?xml version="1.0" encoding="utf-8"?>
<!-- Generator: Adobe Illustrator 24.0.1, SVG Export Plug-In . SVG Version: 6.00 Build 0)  -->
<svg version="1.1" id="Artwork" xmlns="http://www.w3.org/2000/svg" xmlns:xlink="http://www.w3.org/1999/xlink" x="0px" y="0px"
	 viewBox="0 0 508 508" style="enable-background:new 0 0 508 508;" xml:space="preserve">
<style type="text/css">
	.st0{fill:#E30B17;}
	.st1{fill:none;}
</style>
<g>
	<path class="st0" d="M62.38,62.38h383.24v383.24H62.38V62.38z M427.99,427.99V80H80v347.99H427.99z M157.72,209.69h-16.04v48.65
		h-14.26v-48.65h-16.04v-13.72h46.34V209.69z M203.69,236.03c0-13.26,10.06-23.5,23.58-23.5c8.63,0,16.29,4.54,20.11,11.39
		l-11.66,6.76c-1.51-3.11-4.72-4.98-8.63-4.98c-5.78,0-10.06,4.18-10.06,10.32c0,6.14,4.27,10.32,10.06,10.32
		c3.92,0,7.21-1.87,8.63-4.98l11.66,6.67c-3.83,6.94-11.39,11.48-20.11,11.48C213.75,259.53,203.69,249.29,203.69,236.03z
		 M240.19,127.94c-9.26,0-17.45,4.89-17.45,14.59c0,15.4,21.89,11.71,21.89,17.71c0,1.78-1.6,3-4.8,3c-4.01,0-7.03-2.91-8.51-4.96
		l-10.63,6.06c3.73,7.17,10.23,10.59,19.14,10.59c9.61,0,18.51-4.36,18.51-14.59c0-16.47-21.89-12.13-21.89-18.16
		c0-2.37,6.02-4.9,10.83,0.82l10.27-5.53C253.81,131.14,247.4,127.94,240.19,127.94z M307.6,146.36v27.4h-13.35v-25.44
		c0-5.52-3.47-8.1-7.74-8.1c-4.89,0-8.28,2.85-8.28,9.17v24.37h-13.35v-62.38h13.35v21.99c2.4-3.29,6.85-5.43,12.73-5.43
		C299.94,127.94,307.6,134.35,307.6,146.36z M295.45,230.94v27.4H282.1V232.9c0-5.52-3.47-8.1-7.74-8.1c-4.89,0-8.28,2.85-8.28,9.17
		v24.37h-13.35v-62.38h13.35v21.99c2.4-3.29,6.85-5.43,12.73-5.43C287.8,212.52,295.45,218.93,295.45,230.94z M215.27,128.82v44.94
		H201.9v-4.19c-2.94,3.39-7.31,5.44-13.28,5.44c-11.67,0-21.3-10.25-21.3-23.52c0-13.28,9.62-23.52,21.3-23.52
		c5.97,0,10.34,2.05,13.28,5.44v-4.57H215.27z M201.9,151.48c0-6.68-4.46-10.87-10.6-10.87s-10.6,4.19-10.6,10.87
		c0,6.68,4.46,10.87,10.6,10.87S201.9,158.16,201.9,151.48z M160.39,111.38v62.38h-10.64l-24.11-33.93v33.93h-14.26v-62.38h10.69
		l24.06,33.79v-33.79H160.39z M198.53,236.03c0,1.61-0.14,3.15-0.4,4.62h-31.97c1.34,4.76,5.32,7.96,10.92,7.96
		c4.15,0,6.76-2.28,7.83-3.46l10.69,6.13c-4.34,5.44-10.68,8.25-18.7,8.25c-15.22,0-24.66-10.23-24.66-23.5
		c0-13.26,9.62-23.49,23.68-23.49C188.92,212.54,198.53,222.59,198.53,236.03z M166.28,230.93h18.84c-1.54-4.8-5.42-6.55-9.29-6.55
		C170.94,224.38,167.63,226.69,166.28,230.93z M305.22,258.34h15.54V242.8h-15.54V258.34z"/>
	<g>
		<polygon class="st1" points="111.39,0 111.39,62.38 100.74,62.38 76.63,28.44 76.63,62.38 62.38,62.38 62.38,0 73.07,0 
			97.13,33.79 97.13,0 		"/>
		<polygon class="st1" points="508,111.39 445.62,111.39 445.62,100.74 479.55,76.63 445.62,76.63 445.62,62.38 508,62.38 
			508,73.07 474.21,97.13 508,97.13 		"/>
		<polygon class="st1" points="396.61,508 396.61,445.62 407.26,445.62 431.36,479.55 431.36,445.62 445.62,445.62 445.62,508 
			434.93,508 410.87,474.21 410.87,508 		"/>
		<polygon class="st1" points="0,396.61 62.38,396.61 62.38,407.26 28.44,431.36 62.38,431.36 62.38,445.62 0,445.62 0,434.93 
			33.79,410.87 0,410.87 		"/>
	</g>
</g>
</svg>
