<svg xmlns="http://www.w3.org/2000/svg" role="img" viewBox="-11.34 -11.34 589.68 581.18"><path fill="#FFF" d="M283.575 43.267C274.731 21.19 253.19-2.653 212.848.622c-51.391 5.587-67.406 54.837-59.641 84.219-20.467-13.86-55.272-19.955-85.651 6.067-39.223 39.319-18.243 92.492 3.319 105.247-23.764-2.201-61.321 13.857-69.63 55.861-8.839 52.152 30.918 82.555 69.63 82.555h429.281c44.766 0 69.605-38.727 66.818-75.25-4.393-47.667-48.012-65.956-71.805-62.038 19.879-11.09 46.43-63.189 6.059-104.146-32.045-30.48-72.898-19.391-87.262-6.096 7.744-25.463-4.953-78.098-56.93-86.424C353.446.215 349.987 0 346.69 0c-39.678.004-57.517 29.007-63.115 43.267"/><path fill="#f37021" d="M74.707 99.207c-22.665 20.517-30.914 67.005 9.943 94.181l162.993 111.825-79.031-181.059c-16.56-42.726-61.864-52.043-93.905-24.947"/><path fill="#cc004c" d="M215.012 11.176c-26.494.539-66.277 32.09-48.572 80.268l81.736 192.771 28.723-202.758c6.647-50.381-31.48-73.638-61.887-70.281"/><path fill="#6460aa" d="M289.657 73.725h15.455s8.254 0 9.377 3.893c-6.082 4.967-22.639 5.589-20.441 32.121l25.984 174.45 81.18-193.278c16.605-43.155-18.25-79.196-49.168-80.298-1.443-.104-2.893-.188-4.391-.188-27.752-.001-59.553 20.167-57.996 63.3"/><path fill="#0089d0" d="M397.944 125.795l-76.785 178.886 162.947-112.415c37.561-26.642 31.502-69.236 10.477-90.289-8.814-9.909-24.998-17.564-42.143-17.564-20.254-.003-41.931 10.74-54.496 41.382"/><path fill="#0db14b" d="M465.862 217.72L312.835 324.607h188.418c38.656 0 63.498-39.859 52.455-76.434-7.396-22.989-29.279-41.036-54.678-41.062-10.691.005-22.029 3.225-33.168 10.609"/><path fill="#fcb711" d="M70.316 324.607h185.638L102.89 217.72c-35.36-22.72-75.123-9.426-89.477 28.276-12.167 43.16 18.212 78.611 56.903 78.611"/><path d="M275.901 470.85h34.438c7.916.498 21.949 7.41 21.949 23.779 0 17.121-14.564 24.029-22.455 24.809h-33.932V470.85m-.525-76.221h28.346c9.689.523 21.146 7.683 21.146 20.976 0 13.039-8.662 21.729-19.869 23.278h-29.623v-44.254m-38.754-31.719v188.215h91.324c21.676 0 47.443-21.725 47.443-50.113 0-29.66-19.377-44.227-31.637-50.113 0 0 22.449-13.04 21.451-41.178-1.021-37.85-35.986-46.811-47.973-46.811h-80.608M96.549 551.125V442.719l118.37 115.566V362.91h-39.776v105.633L56.745 355.256v195.869zm285.235-96.146C382.782 514.5 425.548 559 480.526 559c13.035 0 26.768-2.467 40.803-7.875v-38.35c-11.123 6.797-23.5 10.074-35.627 10.074-33.27 0-64.662-24.619-63.363-69.398 2.242-36.324 31.979-61.406 64.027-61.406 11.736 0 23.807 3.381 34.963 10.767V365.49c-13.008-5.273-25.938-7.631-38.393-7.631-54.84-.001-100.099 46.258-101.152 97.12"/></svg>