<svg xmlns="http://www.w3.org/2000/svg" role="img" xmlns:xlink="http://www.w3.org/1999/xlink" viewBox="-20.00 -21.00 1040.00 942.00"><title>NBC News Digital logo</title><defs><radialGradient id="F" cx="134.841" cy="-30.263" r="160.72" gradientTransform="matrix(0 1.8662 -1.8635 0 242.469 -21.465)" gradientUnits="userSpaceOnUse"><stop offset="0" stop-color="#fff"/><stop offset="1" stop-color="#9caabd"/></radialGradient><linearGradient id="B" x1="278.862" x2="271.912" y1="410.721" y2="407.687" gradientTransform="matrix(2.8704 0 0 -2.7863 -584.296 1330.935)" gradientUnits="userSpaceOnUse"><stop offset="0"/><stop offset="1" stop-opacity="0"/></linearGradient><linearGradient id="A" x1="178.384" x2="183.384" y1="-81.275" y2="-82.025" gradientTransform="translate(-18.626 302.37) scale(1.849)" gradientUnits="userSpaceOnUse"><stop offset="0"/><stop offset="1" stop-opacity="0"/></linearGradient><linearGradient id="E" x1="225.565" x2="217.065" y1="-74.108" y2="-77.858" gradientTransform="translate(-18.626 302.37) scale(1.849)" gradientUnits="userSpaceOnUse"><stop offset="0"/><stop offset="1" stop-opacity="0"/></linearGradient><linearGradient id="z" x1="160.064" x2="163.61" y1="-106.452" y2="-106.452" gradientTransform="translate(6.534 343.318) scale(1.849)" gradientUnits="userSpaceOnUse"><stop offset="0" stop-color="#fff"/><stop offset="1" stop-color="#fff" stop-opacity="0"/></linearGradient><linearGradient id="D" x1="120.668" x2="132.176" y1="-186.082" y2="-85.744" gradientTransform="matrix(-1.849 0 0 1.849 598.158 302.37)" gradientUnits="userSpaceOnUse"><stop offset="0" stop-color="#fff"/><stop offset="1" stop-color="#fff" stop-opacity="0"/></linearGradient><linearGradient id="y" x1="337.201" x2="342.326" y1="410.273" y2="407.927" gradientTransform="matrix(2.8704 0 0 -2.7863 -584.296 1330.935)" gradientUnits="userSpaceOnUse"><stop offset="0"/><stop offset="1" stop-opacity="0"/></linearGradient><linearGradient id="x" x1="252.01" x2="252.01" y1="349.616" y2="361.229" gradientTransform="matrix(2.8704 0 0 -2.7863 -584.296 1330.935)" gradientUnits="userSpaceOnUse"><stop offset="0"/><stop offset=".5" stop-opacity=".212"/><stop offset="1" stop-opacity="0"/></linearGradient><linearGradient id="w" x1="362.536" x2="362.536" y1="351.628" y2="359.84" gradientTransform="matrix(2.8704 0 0 -2.7863 -584.296 1330.935)" gradientUnits="userSpaceOnUse"><stop offset="0"/><stop offset=".571" stop-opacity=".228"/><stop offset="1" stop-opacity="0"/></linearGradient><linearGradient id="v" x1="249.017" x2="255.297" y1="385.18" y2="393.973" gradientTransform="matrix(2.8704 0 0 -2.7863 -584.296 1330.935)" gradientUnits="userSpaceOnUse"><stop offset="0"/><stop offset="1" stop-opacity="0"/></linearGradient><linearGradient id="u" x1="271.313" x2="277.121" y1="418.351" y2="420.814" gradientTransform="matrix(2.8704 0 0 -2.7863 -584.296 1330.935)" gradientUnits="userSpaceOnUse"><stop offset="0"/><stop offset="1" stop-opacity="0"/></linearGradient><linearGradient id="t" x1="87.605" x2="93.858" y1="-106.455" y2="-106.455" gradientTransform="translate(6.534 343.318) scale(1.849)" gradientUnits="userSpaceOnUse"><stop offset="0" stop-color="#fff"/><stop offset="1" stop-color="#fff" stop-opacity="0"/></linearGradient><linearGradient id="C" x1="234.155" x2="231.92" y1="-80.666" y2="-80.903" gradientTransform="translate(-18.626 302.37) scale(1.849)" gradientUnits="userSpaceOnUse"><stop offset="0" stop-color="#fff"/><stop offset="1" stop-color="#fff" stop-opacity="0"/></linearGradient><linearGradient id="s" x1="304.095" x2="299.54" y1="423.199" y2="423.786" gradientTransform="matrix(2.8704 0 0 -2.7863 -584.296 1330.935)" gradientUnits="userSpaceOnUse"><stop offset="0"/><stop offset="1" stop-opacity="0"/></linearGradient><linearGradient id="r" x1="305.401" x2="303.399" y1="425.099" y2="425.099" gradientTransform="matrix(2.8704 0 0 -2.7863 -584.296 1330.935)" gradientUnits="userSpaceOnUse"><stop offset="0" stop-color="#fff"/><stop offset="1" stop-color="#fff" stop-opacity="0"/></linearGradient><linearGradient id="q" x1="129.041" x2="140.548" y1="-186.082" y2="-85.746" gradientTransform="translate(-18.626 302.37) scale(1.849)" gradientUnits="userSpaceOnUse"><stop offset="0" stop-color="#fff"/><stop offset="1" stop-color="#fff" stop-opacity="0"/></linearGradient><linearGradient id="p" x1="211.707" x2="243.592" y1="339.549" y2="364.888" gradientTransform="matrix(2.8704 0 0 -2.7863 -584.296 1330.935)" gradientUnits="userSpaceOnUse"><stop offset="0"/><stop offset=".506" stop-opacity=".192"/><stop offset=".691" stop-opacity=".067"/><stop offset="1" stop-opacity="0"/></linearGradient><linearGradient id="o" x1="402.829" x2="370.944" y1="339.547" y2="364.886" gradientTransform="matrix(2.8704 0 0 -2.7863 -584.296 1330.935)" gradientUnits="userSpaceOnUse"><stop offset="0"/><stop offset=".506" stop-opacity=".192"/><stop offset=".691" stop-opacity=".067"/><stop offset="1" stop-opacity="0"/></linearGradient><linearGradient id="n" x1="363.386" x2="358.555" y1="388.361" y2="394.997" gradientTransform="matrix(2.8704 0 0 -2.7863 -584.296 1330.935)" gradientUnits="userSpaceOnUse"><stop offset="0"/><stop offset="1" stop-opacity="0"/></linearGradient><linearGradient id="m" x1="226.002" x2="228.24" y1="433.018" y2="431.804" gradientTransform="matrix(2.8704 0 0 -2.7863 -584.296 1330.935)" gradientUnits="userSpaceOnUse"><stop offset="0" stop-color="#fff"/><stop offset="1" stop-color="#fff" stop-opacity="0"/></linearGradient><linearGradient id="l" x1="26.558" x2="29.118" y1="-42.459" y2="-40.357" gradientTransform="matrix(-1.849 0 0 1.849 602.007 303.894)" gradientUnits="userSpaceOnUse"><stop offset="0" stop-color="#fff"/><stop offset="1" stop-color="#fff" stop-opacity="0"/></linearGradient><linearGradient id="k" x1="151.598" x2="-13.402" y1="7.975" y2="-46.025" gradientTransform="matrix(-1.849 0 0 1.849 598.947 302.37)" gradientUnits="userSpaceOnUse"><stop offset="0" stop-color="#fff" stop-opacity=".75"/><stop offset="1" stop-color="#fff" stop-opacity="0"/></linearGradient><linearGradient id="j" x1="49.874" x2="-8.876" y1="-12.287" y2="-12.537" gradientTransform="translate(-18.626 302.37) scale(1.849)" gradientUnits="userSpaceOnUse"><stop offset="0" stop-color="#fff" stop-opacity=".75"/><stop offset="1" stop-color="#fff" stop-opacity="0"/></linearGradient><linearGradient id="i" x1="100.154" x2="94.669" y1="-143.23" y2="-71.184" gradientTransform="translate(-18.626 302.37) scale(1.849)" gradientUnits="userSpaceOnUse"><stop offset="0" stop-color="#fff"/><stop offset="1" stop-color="#fff" stop-opacity="0"/></linearGradient><linearGradient id="h" x1="216.373" x2="98.616" y1="-138.522" y2="-58.798" gradientTransform="translate(-18.49 302.37) scale(1.849)" gradientUnits="userSpaceOnUse"><stop offset="0" stop-color="#fff"/><stop offset="1" stop-color="#fff" stop-opacity="0"/></linearGradient><linearGradient id="g" x1="91.779" x2="86.293" y1="-143.23" y2="-71.184" gradientTransform="matrix(-1.849 0 0 1.849 598.208 302.37)" gradientUnits="userSpaceOnUse"><stop offset="0" stop-color="#fff"/><stop offset="1" stop-color="#fff" stop-opacity="0"/></linearGradient><linearGradient id="f" x1="208.003" x2="90.242" y1="-138.524" y2="-58.798" gradientTransform="matrix(-1.849 0 0 1.849 598.236 302.37)" gradientUnits="userSpaceOnUse"><stop offset="0" stop-color="#fff"/><stop offset="1" stop-color="#fff" stop-opacity="0"/></linearGradient><linearGradient id="e" x1="34.933" x2="37.493" y1="-42.459" y2="-40.356" gradientTransform="translate(-22.177 303.894) scale(1.849)" gradientUnits="userSpaceOnUse"><stop offset="0" stop-color="#fff"/><stop offset="1" stop-color="#fff" stop-opacity="0"/></linearGradient><linearGradient id="d" x1="159.832" x2="-4.918" y1="8.571" y2="-46.179" gradientTransform="translate(-18.626 302.37) scale(1.849)" gradientUnits="userSpaceOnUse"><stop offset="0" stop-color="#fff" stop-opacity=".75"/><stop offset="1" stop-color="#fff" stop-opacity="0"/></linearGradient><linearGradient id="c" x1="388.461" x2="386.223" y1="433.017" y2="431.803" gradientTransform="matrix(2.8704 0 0 -2.7863 -584.296 1330.935)" gradientUnits="userSpaceOnUse"><stop offset="0" stop-color="#fff"/><stop offset="1" stop-color="#fff" stop-opacity="0"/></linearGradient><linearGradient id="b" x1="285.801" x2="269.267" y1="367.746" y2="389.468" gradientTransform="matrix(-2.8704 0 0 -2.7863 1163.943 1330.935)" gradientUnits="userSpaceOnUse"><stop offset="0" stop-color="#fff"/><stop offset="1" stop-color="#fff" stop-opacity="0"/></linearGradient><linearGradient id="a" x1="292.015" x2="274.911" y1="367.469" y2="389.66" gradientTransform="matrix(2.8704 0 0 -2.7863 -584.296 1330.935)" gradientUnits="userSpaceOnUse"><stop offset="0" stop-color="#fff"/><stop offset="1" stop-color="#fff" stop-opacity="0"/></linearGradient><linearGradient id="ak" x1="292.015" x2="274.911" y1="367.469" y2="389.66" gradientTransform="matrix(4.8283 0 0 -4.68683 -983.432 2236.314)" gradientUnits="userSpaceOnUse" xlink:href="#a"/><linearGradient id="aj" x1="285.801" x2="269.267" y1="367.746" y2="389.468" gradientTransform="matrix(-4.8283 0 0 -4.68683 1957.277 2236.314)" gradientUnits="userSpaceOnUse" xlink:href="#b"/><linearGradient id="ai" x1="388.461" x2="386.223" y1="433.017" y2="431.803" gradientTransform="matrix(4.8283 0 0 -4.68683 -983.432 2236.314)" gradientUnits="userSpaceOnUse" xlink:href="#c"/><linearGradient id="ah" x1="159.832" x2="-4.918" y1="8.571" y2="-46.179" gradientTransform="translate(-31.92 506.167) scale(3.1102)" gradientUnits="userSpaceOnUse" xlink:href="#d"/><linearGradient id="ag" x1="34.933" x2="37.493" y1="-42.459" y2="-40.356" gradientTransform="translate(-37.893 508.73) scale(3.1102)" gradientUnits="userSpaceOnUse" xlink:href="#e"/><linearGradient id="af" x1="208.003" x2="90.242" y1="-138.524" y2="-58.798" gradientTransform="matrix(-3.1102 0 0 3.1102 1005.703 506.167)" gradientUnits="userSpaceOnUse" xlink:href="#f"/><linearGradient id="ae" x1="91.779" x2="86.293" y1="-143.23" y2="-71.184" gradientTransform="matrix(-3.1102 0 0 3.1102 1005.657 506.167)" gradientUnits="userSpaceOnUse" xlink:href="#g"/><linearGradient id="ad" x1="216.373" x2="98.616" y1="-138.522" y2="-58.798" gradientTransform="translate(-31.69 506.167) scale(3.1102)" gradientUnits="userSpaceOnUse" xlink:href="#h"/><linearGradient id="ac" x1="100.154" x2="94.669" y1="-143.23" y2="-71.184" gradientTransform="translate(-31.92 506.167) scale(3.1102)" gradientUnits="userSpaceOnUse" xlink:href="#i"/><linearGradient id="ab" x1="49.874" x2="-8.876" y1="-12.287" y2="-12.537" gradientTransform="translate(-31.92 506.167) scale(3.1102)" gradientUnits="userSpaceOnUse" xlink:href="#j"/><linearGradient id="aa" x1="151.598" x2="-13.402" y1="7.975" y2="-46.025" gradientTransform="matrix(-3.1102 0 0 3.1102 1006.899 506.167)" gradientUnits="userSpaceOnUse" xlink:href="#k"/><linearGradient id="Z" x1="26.558" x2="29.118" y1="-42.459" y2="-40.357" gradientTransform="matrix(-3.1102 0 0 3.1102 1012.047 508.73)" gradientUnits="userSpaceOnUse" xlink:href="#l"/><linearGradient id="Y" x1="226.002" x2="228.24" y1="433.018" y2="431.804" gradientTransform="matrix(4.8283 0 0 -4.68683 -983.432 2236.314)" gradientUnits="userSpaceOnUse" xlink:href="#m"/><linearGradient id="X" x1="363.386" x2="358.555" y1="388.361" y2="394.997" gradientTransform="matrix(4.8283 0 0 -4.68683 -983.432 2236.314)" gradientUnits="userSpaceOnUse" xlink:href="#n"/><linearGradient id="W" x1="402.829" x2="370.944" y1="339.547" y2="364.886" gradientTransform="matrix(4.8283 0 0 -4.68683 -983.432 2236.314)" gradientUnits="userSpaceOnUse" xlink:href="#o"/><linearGradient id="V" x1="211.707" x2="243.592" y1="339.549" y2="364.888" gradientTransform="matrix(4.8283 0 0 -4.68683 -983.432 2236.314)" gradientUnits="userSpaceOnUse" xlink:href="#p"/><linearGradient id="U" x1="129.041" x2="140.548" y1="-186.082" y2="-85.746" gradientTransform="translate(-31.92 506.167) scale(3.1102)" gradientUnits="userSpaceOnUse" xlink:href="#q"/><linearGradient id="T" x1="305.401" x2="303.399" y1="425.099" y2="425.099" gradientTransform="matrix(4.8283 0 0 -4.68683 -983.432 2236.314)" gradientUnits="userSpaceOnUse" xlink:href="#r"/><linearGradient id="S" x1="304.095" x2="299.54" y1="423.199" y2="423.786" gradientTransform="matrix(4.8283 0 0 -4.68683 -983.432 2236.314)" gradientUnits="userSpaceOnUse" xlink:href="#s"/><linearGradient id="Q" x1="87.605" x2="93.858" y1="-106.455" y2="-106.455" gradientTransform="translate(10.402 575.045) scale(3.1102)" gradientUnits="userSpaceOnUse" xlink:href="#t"/><linearGradient id="P" x1="271.313" x2="277.121" y1="418.351" y2="420.814" gradientTransform="matrix(4.8283 0 0 -4.68683 -983.432 2236.314)" gradientUnits="userSpaceOnUse" xlink:href="#u"/><linearGradient id="O" x1="249.017" x2="255.297" y1="385.18" y2="393.973" gradientTransform="matrix(4.8283 0 0 -4.68683 -983.432 2236.314)" gradientUnits="userSpaceOnUse" xlink:href="#v"/><linearGradient id="N" x1="362.536" x2="362.536" y1="351.628" y2="359.84" gradientTransform="matrix(4.8283 0 0 -4.68683 -983.432 2236.314)" gradientUnits="userSpaceOnUse" xlink:href="#w"/><linearGradient id="M" x1="252.01" x2="252.01" y1="349.616" y2="361.229" gradientTransform="matrix(4.8283 0 0 -4.68683 -983.432 2236.314)" gradientUnits="userSpaceOnUse" xlink:href="#x"/><linearGradient id="L" x1="337.201" x2="342.326" y1="410.273" y2="407.927" gradientTransform="matrix(4.8283 0 0 -4.68683 -983.432 2236.314)" gradientUnits="userSpaceOnUse" xlink:href="#y"/><linearGradient id="K" x1="160.064" x2="163.61" y1="-106.452" y2="-106.452" gradientTransform="translate(10.404 575.044) scale(3.11019)" gradientUnits="userSpaceOnUse" xlink:href="#z"/><linearGradient id="I" x1="178.384" x2="183.384" y1="-81.275" y2="-82.025" gradientTransform="translate(-31.922 506.167) scale(3.11021)" gradientUnits="userSpaceOnUse" xlink:href="#A"/><linearGradient id="H" x1="278.862" x2="271.912" y1="410.721" y2="407.687" gradientTransform="matrix(4.8283 0 0 -4.68683 -983.432 2236.314)" gradientUnits="userSpaceOnUse" xlink:href="#B"/><linearGradient id="R" x1="234.155" x2="231.92" y1="-80.666" y2="-80.903" gradientTransform="translate(-31.92 506.167) scale(3.1102)" gradientUnits="userSpaceOnUse" xlink:href="#C"/><linearGradient id="al" x1="120.668" x2="132.176" y1="-186.082" y2="-85.744" gradientTransform="matrix(-3.11021 0 0 3.11021 1005.573 506.169)" gradientUnits="userSpaceOnUse" xlink:href="#D"/><linearGradient id="J" x1="225.565" x2="217.065" y1="-74.108" y2="-77.858" gradientTransform="translate(-31.922 506.167) scale(3.11021)" gradientUnits="userSpaceOnUse" xlink:href="#E"/><radialGradient id="G" cx="134.841" cy="-30.263" r="160.72" gradientTransform="matrix(-.00002 3.13913 -3.1346 -.00002 407.268 -38.557)" gradientUnits="userSpaceOnUse" xlink:href="#F"/></defs><path fill="#fff" d="M388.165.056C320.772-1.66 263.14 65.088 272.159 131.515c1.322 13.509 5.092 26.339 9.876 38.959-37.915-41.671-108.533-50.156-153.628-14.708-36.479 26.632-56.019 74.774-45.755 119.284 6.255 33.51 28.462 62.65 58.034 79.403-41.911-8.204-86.319 8.861-112.858 41.843C3.049 424.777-5.948 466.142 5.645 502.32c14.515 51 67.674 84.079 119.744 82.425 255.87.12 511.752.82 767.616.577 46.621-1.513 86.712-37.13 100.663-80.426 17.019-46.217-2.822-100.43-42.08-128.486-27.738-21.585-64.709-28.32-98.954-21.851 18.501-12.019 37.486-24.406 48.413-44.103 29.77-45.241 22.526-112.563-19.922-147.394-36.793-34.555-96.626-38.82-139.246-12.51-8.773 5.212-16.874 11.54-23.918 18.713 19.333-37.512 14.37-84.842-10.31-118.764C685.275 17.44 645.42-2.864 605.26.214c-47.188 1.308-89.363 35.906-105.132 79.532C483.901 33.727 437.824-1.77 388.165.056z"/><path fill="url(#G)" d="M95.647 192.618c-9.703 15.666-15.67 39.492-15.67 57.803 0 19.274 5.015 41.09 15.275 59.01 10.26 17.922 26.203 34.499 45.208 44.937 0 0-8.564-1.932-20.854-1.932-61.761 0-119.04 51.31-119.04 116.664 0 66.314 56.096 115.714 122.641 115.714l323.074.365 214.612.056 229.953.073c44.095 0 77.568-29.958 95.124-62.3 9.65-17.777 13.856-38.744 13.856-50.894 0-44.799-23.384-77.41-48.15-95.976-18.946-13.417-42.623-23.965-75.52-23.965-10.927 0-23.08 2.333-23.08 2.333 17.062-10.984 31.78-21.41 41.078-33.622 9.48-12.451 16.84-27.304 20.913-41.726 3.194-11.305 4.121-22.592 4.121-30.6 0-27.581-8.29-45.082-13.77-55.94l-38.739-15.543-150.052-.302-220.621-13.101-341.01 10.784z" opacity=".5"/><path fill="#fff" d="M95.462 192.87H905.45c-7.743-15.204-22.769-30.777-41.646-43.018-17.488-10.638-38.996-16.208-60.63-16.208-27.304 0-57.789 8.767-84.76 35.065 8.422-17.153 11.435-36.962 11.435-45.799 0-30.433-7.773-54.947-29.666-82.03C679.36 18.178 652.477-.099 611.728-.099c-59.747 0-98.184 43.095-111.727 79.726C486.89 42.629 449.031-.04 388.01-.04c-33.249 0-58.414 12.534-79.682 33.13-21.268 20.597-37.03 51.908-37.03 83.431 0 30.596 10.811 53.644 10.811 53.644-23.641-23.387-51.054-36.643-88.11-36.643-46.487 0-81.143 28.927-98.536 59.348z" opacity=".52"/><path fill="#fff" stroke="#9caabd" stroke-width=".841" d="M117.674 362.774c-58.588-.085-112.12 54.075-106.34 113.49 2.67 49.443 44.177 92.113 93.198 97.403 33.63 3.1 67.507.084 101.242 1.166 88.362.097 176.725.158 265.088.2-95.877-64.154-190.843-129.87-287.199-193.204-19.02-13.626-45.503-19.435-65.99-19.055zm761.044-.053c-31.689-1.094-60.52 14.826-84.715 33.722-88.198 59.525-176.366 119.094-264.583 178.59 121.591-.491 243.232.663 364.793-.934 49.282-5.236 92.453-47.868 94.84-97.994 4.77-53.574-38.345-104.17-90.856-111.856-6.416-1.107-12.957-1.671-19.479-1.528zM386.81 10.217c-52.488-.34-98.81 43.87-104.194 95.497-3.92 26.146 3.469 44.236 16.456 76.469 45.705 104.558 90.848 207.667 139.935 310.69 24.565-118.23 35.673-238.718 55.603-357.704 1.155-7.238 2.056-12.615 2.056-18.825-.848-46.296-33.716-89.769-78.422-102.132-10.216-2.864-20.803-4.304-31.435-3.995zm221.09.053c-55.808.588-104.477 51.04-104.185 106.707l.024 8.056h55.277c1.848-.03 4.3.674.257 2.27-18.761 7.916-36.35 21.34-44.954 39.866-2.499 5.624-2.356 6.818-2.006 10.598 3.097 33.331 10.623 66.05 14.75 99.302 10.77 68.454 19.764 137.349 32.53 205.397l2.583 11.317 6.983-15.68c11.796-29.512 26.99-58.165 39.58-87.603 34.013-75.84 67.519-152.044 100.017-228.555 3.153-7.516 7.374-17.78 8.2-22.903 11.185-56.467-29.086-118.95-87.188-127.248-7.208-1.257-14.533-1.82-21.868-1.525zm195.912 133.463c-27.502-.451-54.067 10.93-73.853 29.511-13.21 12.405-16.893 19.85-28.828 45.464-48.778 107.77-97.457 215.584-146.322 323.315 103.331-66.907 204.895-136.157 305.795-206.685 12.632-8.636 17.216-12.376 23.902-20.01 28.845-33.105 33.505-86.025 8.457-122.972-19.055-29.698-53.383-49.587-89.15-48.623zm-609.971.053c-54.852-.57-103.05 48.853-103.186 103.396-1.82 38.756 16.677 72.66 53.446 96.366 99.113 67.907 199.963 133.136 301.319 197.634-51.702-112.717-101.658-226.295-154.124-338.634-2.557-6.09-5.453-11.476-9.125-16.386-20.345-27.118-54.294-43.477-88.33-42.376z"/><path fill="#ce0014" d="M392.378 16.945c-26.786-.84-53.999 8.935-72.8 28.382-27.036 27.132-38.358 66.722-26.243 104.68 47.285 107.338 92.924 215.504 143.072 321.523 22.379-111.042 31.91-226.19 52.39-338.144 3.705-24.476-2.46-46.806-12.733-66.288-11.312-18.76-29.287-34.126-48.306-42.377-11.14-4.826-23.206-7.395-35.38-7.776z"/><path fill="#ff6714" d="M283.95 201.207l145.968 322.12c-99.873-63.708-202.138-130.122-298.87-196.863-29.96-24.962-39.925-66.345-29.77-104.258 7.593-28.417 31.372-54.97 59.554-65.462 46.28-16.821 98.475 1.03 123.118 44.463"/><path fill="url(#H)" d="M283.95 201.207l145.968 322.12c-99.873-63.708-202.138-130.122-298.87-196.863-29.96-24.962-39.925-66.345-29.77-104.258 7.593-28.417 31.372-54.97 59.554-65.462 46.28-16.821 98.475 1.03 123.118 44.463"/><path fill="#fabc13" d="M26.343 429.185C11.067 460.34 17.03 503.13 38.784 529.687c21.625 25.462 50.519 39.26 84.36 38.374l325.716.259-272.848-184.18c-26.615-16.671-67.163-19.712-96.29-6.237-22.448 8.467-43.577 29.896-53.379 51.282"/><path fill="#5a1566" d="M608.054 16.945c-12.176.381-24.339 2.95-35.478 7.776-19.02 8.25-36.994 23.617-48.306 42.377-8.148 15.45-13.708 32.656-13.802 51.32h51.029c9.317 0 12.113 3.654 12.113 6.752-.204 3.025-5.33 5.903-8.423 7.145-1.093.37-2.141.753-3.206 1.165-21.627 8.39-36.704 25.331-42.668 37.711l-.194.389c-.351.786-.504 1.685-.583 2.624-.091 1.024-.105 1.978 0 2.915l.097 1.07c.019.094-.018.197 0 .29l.486 3.014 1.847 12.15 13.316 85.628v.194c.082.582.114 1.165.195 1.747.245 1.817.53 3.627.777 5.444l.1.585c7.325 53.824 14.72 107.63 24.687 160.568.042.224.054.456.098.678l2.042 13.415c.64 3.194 1.18 6.434 1.849 9.623.032-.066.065-.128.097-.193 50.13-105.937 95.717-214.07 142.975-321.33 12.115-37.958.796-77.646-26.244-104.778-18.807-19.442-46.02-29.119-72.804-28.28z"/><path fill="url(#I)" d="M608.01 16.98c-12.172.382-24.337 2.95-35.475 7.776-19.02 8.253-36.995 23.617-48.307 42.378-8.148 15.45-13.706 32.656-13.803 51.319h51.028c6.898 1.246 13.847 4.518 11.761 8.553-.013.032.012.068 0 .098-.059.11-.121.182-.195.293a5.026 5.026 0 0 1-.97 1.165c-.317.285-.658.594-1.07.875-.702.505-1.508.94-2.529 1.458-.042.022-.052.074-.097.098-.912.456-2.024.898-3.206 1.36a78.125 78.125 0 0 0-3.208 1.167c-21.627 8.39-36.704 25.329-42.668 37.71l-.192.39c-.355.785-.506 1.685-.585 2.623-.09 1.025-.103 1.979 0 2.915l.099 1.069c.018.094-.022.198 0 .292l.486 3.013 1.847 12.15 13.315 85.824c.327 2.4.648 4.796.973 7.193l26.922 175.245c.639 3.196 1.182 6.436 1.848 9.621l.1-.191c50.13-105.938 95.713-214.072 142.975-321.331 12.113-37.958.794-77.644-26.246-104.777-18.806-19.448-46.017-29.127-72.803-28.286z"/><path fill="url(#J)" d="M608.01 16.98c-12.172.382-24.337 2.95-35.475 7.776-19.02 8.253-36.995 23.617-48.307 42.378-8.148 15.45-13.706 32.656-13.803 51.319l50.974-1.149c7.253 0 13.9 5.667 11.815 9.702-.013.032.012.068 0 .098-.059.11-.121.182-.195.293a5.026 5.026 0 0 1-.97 1.165c-.317.285-.658.594-1.07.875-.702.505-1.508.94-2.529 1.458-.042.022-.052.074-.097.098-.912.456-2.024.898-3.206 1.36a78.125 78.125 0 0 0-3.208 1.167c-21.627 8.39-36.704 25.329-42.668 37.71l-.192.39c-.355.785-.506 1.685-.585 2.623-.09 1.025-.103 1.979 0 2.915l.099 1.069c.018.094-.022.198 0 .292l.486 3.013 1.847 12.15 13.315 85.824c.327 2.4.648 4.796.973 7.193l26.922 175.245c.639 3.196 1.182 6.436 1.848 9.621l.1-.191c50.13-105.938 95.713-214.072 142.975-321.331 12.113-37.958.794-77.644-26.246-104.777-18.806-19.448-46.017-29.127-72.803-28.286z"/><path fill="url(#K)" d="M606.649 21.552c-11.916.373-23.701 2.86-34.601 7.581-18.61 8.076-36.264 23.14-47.336 41.502-7.347 13.937-12.493 29.343-13.315 45.974h51.902c17.725 4.89 15.856 12.413.877 18.37-21.316 6.639-34.281 22.72-45.001 40.335 15.643 96.905 25.164 195.563 44.417 291.1 49.08-103.76 93.78-209.669 140.06-314.719 11.857-37.149.8-75.889-25.66-102.442-18.403-19.032-45.13-28.524-71.343-27.701zm-95.252 102.735c.06 1.9.112 3.805.292 5.735l-.097-5.735h-.195z"/><path fill="#10578d" d="M716.39 201.207L570.424 523.875c98.319-63.706 198.29-133.97 296.672-201.26 29.96-24.962 42.123-62.496 31.968-100.409-7.593-28.417-31.373-54.97-59.554-65.462-46.282-16.821-98.477 1.03-123.118 44.463"/><path fill="#359e35" d="M973.996 429.185c15.277 31.156 9.314 73.945-12.441 100.502-21.625 25.462-50.519 39.26-84.359 38.374l-325.716.259 272.85-184.183c26.612-16.672 67.161-19.713 96.29-6.238 22.444 8.471 43.575 29.9 53.375 51.286"/><path fill="url(#L)" d="M716.39 201.207L570.424 523.875c98.319-63.706 198.29-133.97 296.672-201.26 29.96-24.962 42.123-62.496 31.968-100.409-7.593-28.417-31.373-54.97-59.554-65.462-46.282-16.821-98.477 1.03-123.118 44.463"/><path fill="url(#M)" d="M26.343 429.185C11.067 460.34 17.03 503.13 38.784 529.687c21.625 25.462 50.519 39.26 84.36 38.374l325.716.259-272.848-184.18c-26.615-16.671-67.163-19.712-96.29-6.237-22.448 8.467-43.577 29.896-53.379 51.282"/><path fill="url(#N)" d="M973.996 429.185c15.277 31.156 9.314 73.945-12.441 100.502-21.625 25.462-50.519 39.26-84.359 38.374l-325.716.259 272.85-184.183c26.612-16.672 67.161-19.713 96.29-6.238 22.444 8.471 43.575 29.9 53.375 51.286"/><path fill="url(#O)" d="M283.95 201.207l145.968 322.12c-99.873-63.708-202.138-130.122-298.87-196.863-29.96-24.962-39.925-66.345-29.77-104.258 7.593-28.417 31.372-54.97 59.554-65.462 46.28-16.821 98.475 1.03 123.118 44.463"/><path fill="url(#P)" d="M476.095 67.138c10.27 19.483 16.39 41.735 12.686 66.21-20.481 111.955-30.019 227.162-52.396 338.204-50.148-106.016-95.775-214.219-143.06-321.557-12.117-37.958-.833-77.555 26.205-104.687 27.347-28.284 72.59-35.998 108.236-20.557 19.018 8.253 37.016 23.629 48.329 42.387"/><path fill="url(#Q)" d="M474.113 70.619c10.054 19.066 16.04 40.844 12.416 64.8-20.044 109.57-29.38 222.322-51.28 330.998-49.08-103.76-93.734-209.657-140.012-314.706-11.857-37.15-.814-75.903 25.647-102.457 26.766-27.682 71.043-35.231 105.932-20.117 18.612 8.074 36.225 23.122 47.297 41.482"/><path fill="url(#R)" d="M606.649 21.55c-11.916.374-23.7 2.86-34.6 7.581-18.612 8.076-36.265 23.141-47.337 41.503-7.347 13.936-12.493 29.342-13.315 45.973H563.3c17.724 4.89 15.855 12.414.876 18.37-21.316 6.64-34.281 22.72-45.001 40.336 15.643 96.905 25.164 195.564 44.417 291.1 49.08-103.76 93.78-209.668 140.06-314.719 11.857-37.149.8-75.89-25.66-102.443-18.402-19.031-45.13-28.523-71.343-27.7zm-95.252 102.736c.06 1.9.112 3.805.292 5.734l-.097-5.734h-.195z"/><path fill="url(#S)" d="M476.095 67.138c10.27 19.483 16.39 41.735 12.686 66.21-20.481 111.955-30.019 227.162-52.396 338.204-50.148-106.016-95.775-214.219-143.06-321.557-12.117-37.958-.833-77.555 26.205-104.687 27.347-28.284 72.59-35.998 108.236-20.557 19.018 8.253 37.016 23.629 48.329 42.387"/><path fill="url(#T)" d="M474.113 70.619c10.054 19.066 16.04 40.844 12.416 64.8-20.044 109.57-29.38 222.322-51.28 330.998-49.08-103.76-93.734-209.657-140.012-314.706-11.857-37.15-.814-75.903 25.647-102.457 26.766-27.682 71.043-35.231 105.932-20.117 18.612 8.074 36.225 23.122 47.297 41.482"/><path fill="url(#U)" d="M385.044 21.55c-23.843.956-47.42 10.399-64.15 27.701-21.982 22.06-29.398 51.423-24.495 82.033 40.203 15.458 103.902 18.05 189.142 8.844h.195c.28-1.558.493-3.11.777-4.664 3.625-23.955-2.386-45.765-12.44-64.83C463 52.272 445.447 37.207 426.834 29.13c-13.08-5.667-27.485-8.154-41.79-7.58z"/><path fill="url(#V)" d="M26.343 429.185C11.067 460.34 17.03 503.13 38.784 529.687c21.625 25.462 50.519 39.26 84.36 38.374l325.716.259-272.848-184.18c-26.615-16.671-67.163-19.712-96.29-6.237-22.448 8.467-43.577 29.896-53.379 51.282"/><path fill="url(#W)" d="M973.949 429.185c15.275 31.156 9.312 73.945-12.441 100.502-21.625 25.462-50.519 39.26-84.36 38.374l-325.716.259 272.85-184.182c26.613-16.67 67.161-19.712 96.29-6.237 22.446 8.47 43.577 29.898 53.377 51.284"/><path fill="url(#X)" d="M716.39 201.207L570.424 523.875c98.319-63.706 198.29-133.97 296.672-201.26 29.96-24.962 42.123-62.496 31.968-100.409-7.593-28.417-31.373-54.97-59.554-65.462-46.282-16.821-98.477 1.03-123.118 44.463"/><path fill="url(#Y)" d="M196.035 154.902c-14.185.013-37.023 4.65-49.304 12.51-27.312 15.404-49.53 47.575-39.144 72.925l-4.632-.013c42.15-.84 106.656-16.232 137.708 1.68 69.927 56.018 119.861 168.385 166.067 234.08l-126.425-271.61c-19.167-35.173-50.816-49.607-83.133-49.57l-1.137-.002z"/><path fill="url(#Z)" d="M882.976 377.61c14.156-.175 35.98 2.972 44.032 5.98 24.303 10.542 50.414 44.887 47.67 57.634-49.618-15.725-128.09-14.86-177.427 9.088-76.413 39.398-154.906 80.302-220.535 114.4 76.9-53.303 172.218-116.906 255.625-173.203 14.131-8.854 32.431-13.673 50.635-13.899z" opacity=".69"/><path fill="url(#aa)" d="M877.825 375.053c14.157-.175 28.301 2.402 40.335 7.968 24.009 11.417 40.286 28.21 46.325 43.175 1.428 2.908 1.247 9.563 2.284 12.66-51.299-41.276-108.6-23.706-174.674 8.898-76.412 39.398-154.906 80.298-220.536 114.4 76.902-53.305 172.218-116.907 255.625-173.203 14.138-8.855 32.44-13.674 50.641-13.898z" opacity=".75"/><path fill="url(#ab)" d="M123.199 375.053c-14.157-.175-28.302 2.402-40.335 7.968-25.725 9.974-55.817 42.043-49.945 55.643 49.618-15.723 126.67-14.858 176.008 9.09 76.413 39.398 154.904 80.298 220.536 114.4-76.9-53.305-172.218-116.907-255.625-173.203-14.136-8.855-32.439-13.674-50.64-13.898z" opacity=".69"/><path fill="url(#ac)" d="M195.803 154.902c-10.77.012-34.178 3.51-46.46 11.373-22.911 15.366-30.995 28.578-39.073 57.637-1.44 5.431-2.36 10.908-2.915 16.425l.486-.583c42.15-.84 101.538-15.666 132.592 2.249 69.924 56.019 119.86 168.384 166.065 234.079l-126.425-271.61c-19.166-35.173-51.953-49.607-84.27-49.57z"/><path fill="url(#ad)" d="M196.035 154.902c-10.77.013-34.178 3.51-46.46 11.373-22.911 15.366-30.995 28.578-39.073 57.637-1.44 5.431-2.36 10.908-2.915 16.425l.486-.583c42.15-.84 101.538-15.666 132.59 2.249 69.927 56.019 119.861 168.384 166.067 234.079l-126.425-271.61c-19.167-35.173-51.955-49.607-84.27-49.57z"/><path fill="url(#ae)" d="M803.981 154.902c10.77.013 34.179 3.51 46.46 11.373 22.911 15.366 30.997 28.578 39.073 57.637 1.438 5.431 2.358 10.908 2.913 16.425l-.486-.583c-42.15-.84-101.536-15.666-132.59 2.249-69.924 56.019-119.86 168.384-166.066 234.079l126.425-271.61c19.167-35.173 51.956-49.607 84.271-49.57z"/><path fill="url(#af)" d="M804.026 154.902c10.773.013 34.18 3.51 46.46 11.373 22.914 15.366 30.998 28.578 39.073 57.637 1.44 5.431 2.36 10.908 2.914 16.425l-.486-.583c-42.149-.84-101.537-15.666-132.59 2.249-69.925 56.019-119.861 168.384-166.065 234.079l126.425-271.61c19.167-35.173 51.955-49.607 84.27-49.57z"/><path fill="url(#ag)" d="M117.227 377.61c-14.158-.175-35.982 2.972-44.034 5.98-24.303 10.542-50.414 44.887-47.67 57.634 49.618-15.725 128.09-14.86 177.429 9.088 76.411 39.398 154.904 80.302 220.537 114.4-76.903-53.303-172.219-116.906-255.626-173.203-14.133-8.854-32.434-13.673-50.636-13.899z" opacity=".69"/><path fill="url(#ah)" d="M123.199 375.053c-14.157-.175-28.302 2.402-40.335 7.968-25.725 9.974-55.817 42.043-49.945 55.643 49.618-15.723 126.67-14.858 176.008 9.09 76.413 39.398 154.904 80.298 220.536 114.4-76.9-53.305-172.218-116.907-255.625-173.203-14.136-8.855-32.439-13.674-50.64-13.898z" opacity=".69"/><path fill="url(#ai)" d="M803.897 154.902c14.185.013 37.025 4.65 49.306 12.51 27.308 15.404 49.527 47.575 39.144 72.925l4.632-.013c-42.15-.84-106.655-16.232-137.708 1.68-69.927 56.018-119.863 168.385-166.067 234.08l126.425-271.61c19.166-35.173 50.816-49.607 83.13-49.57l1.138-.002z"/><path fill="url(#aj)" d="M803.86 154.902c10.77.013 34.177 3.51 46.46 11.373 22.911 15.366 30.997 28.578 39.073 57.637 1.44 5.431 2.36 10.908 2.915 16.425l-.486-.583c-42.152-.84-101.537-15.666-132.59 2.249-69.926 56.019-119.861 168.384-166.067 234.079l126.423-271.61c19.168-35.173 51.957-49.607 84.272-49.57z"/><path fill="url(#ak)" d="M196.035 154.902c-10.77.013-34.178 3.51-46.46 11.373-22.911 15.366-30.995 28.578-39.073 57.637-1.44 5.431-2.36 10.908-2.915 16.425l.486-.583c42.15-.84 101.538-15.666 132.59 2.249 69.927 56.019 119.861 168.384 166.067 234.079l-126.425-271.61c-19.167-35.173-51.955-49.607-84.27-49.57z"/><path d="M295.44 812.18h-.407L142.245 628.684h-40.12v264.533h45.387V709.693h.407l152.788 183.524h40.118V628.684h-45.384zm239.525 81.017c38.096 0 55.526-10.535 68.49-22.68 17.832-17.023 24.32-36.866 24.32-56.301 0-32.413-17.43-59.558-48.241-66.85 19.071-7.686 33.648-29.575 33.648-53.87 0-16.198-6.491-30.377-17.83-41.724-12.98-12.956-33.649-23.097-63.624-23.097H371.635V893.2h163.33zm1.623-118.7a45.82 45.82 0 0 1 33.238 14.186c6.473 6.88 10.525 15.408 10.525 25.127 0 9.72-4.052 19.842-10.942 26.742-8.101 8.103-20.266 12.162-32.821 12.162H417.02v-78.218h119.567zm-9.728-105.314c12.562 0 22.281 2.84 29.595 10.128 5.664 5.672 9.3 13.777 9.3 22.687 0 9.724-4.052 19.45-10.942 26.34-7.286 7.288-17.012 9.719-27.953 9.719H417.02v-68.874h109.84zM885.534 816.24c-22.705 24.31-57.963 44.541-99.296 44.541-59.174 0-97.67-44.542-97.67-99.636 0-54.68 37.68-100.064 95.647-100.064 32.422 0 68.89 14.178 92.41 36.46l30.793-30.378c-29.593-27.558-75.778-46.582-124.017-46.582-84.706 0-142.658 63.598-142.658 140.154 0 77.777 57.552 140.565 144.688 140.565 57.55 0 102.118-26.74 130.49-55.093l-30.387-29.968z"/><path fill="none" stroke="#9caabd" stroke-width=".841" d="M389.742 3.368c-.983.017-1.958.058-2.944.105-62.116-.751-115.48 58.097-111.86 119.64.877 17.231 3.337 32.18 19.87 69.439 1.215 2.738-4.344-6.909-3.311-4.469-1.141-2.381.303 1.013-.841-1.366-20.35-30.808-56.564-49.579-93.252-49.727-1.183-.005-2.39.018-3.574.052-63.2-.977-116.994 60.883-109.757 123.372 2.282 33.105 19.719 65.001 46.941 83.421l26.966 18.188c-13.906-4.396-28.608-6.4-43.209-5.94-63.554 1-119.811 63.58-109.599 127.209 6.5 56.82 57.274 98.087 118.535 98.087l762.234.784c74.436 0 110.478-68.426 110.478-111.557a97.152 97.152 0 0 0-1.174-16.015c-7.542-58.003-64.284-103.344-122.53-98.613-12.846.26-29.158 3.232-36.986 6.006 0 0 25.591-17.357 36.799-25.2 12.6-8.296 21.94-21.785 28.11-32.146 9.45-16.012 14.509-34.57 15.104-53.26.937-29.455-9.212-59.24-30.727-79.905-20.944-21.774-50.785-35.31-81.214-34.483-39.708-.727-79.195 21.336-99.297 55.036 4.813-11.304 10.652-24.158 15.072-35.618 3.479-8.736 4.983-15.136 6.126-24.272C733.683 71.302 685.39 8.282 623.08 4c-5.077-.559-10.194-.615-15.296-.473-50.634.227-95.218 39.733-107.707 87.574-12.29-49.015-58.583-88.64-110.335-87.732z"/><path fill="url(#al)" d="M609.275 21.452c-12.518.17-25 2.72-36.45 7.679-18.61 8.076-36.166 23.14-47.236 41.503-7.365 13.966-12.488 29.394-13.316 46.07h51.222c10.183 0 12.034 5.764 12.021 8.535-.023 5.046-10.5 9.481-15.715 11.294-4.691 1.647-8.993 3.921-13.021 6.61 69.018 5.27 121.59 1.559 156.483-11.858 4.905-30.609-2.508-59.974-24.495-82.033-16.727-17.302-40.307-26.745-64.149-27.7a97.647 97.647 0 0 0-5.344-.1z" opacity=".5"/><path fill="none" stroke="#9caabd" stroke-width=".841" d="M388.165.056C320.772-1.66 263.14 65.088 272.159 131.515c1.322 13.509 5.092 26.339 9.876 38.959-37.915-41.671-108.533-50.156-153.628-14.708-36.479 26.632-56.019 74.774-45.755 119.284 6.255 33.51 28.462 62.65 58.034 79.403-41.911-8.204-86.319 8.861-112.858 41.843C3.049 424.777-5.948 466.142 5.645 502.32c14.515 51 67.674 84.079 119.744 82.425 255.87.12 511.752.82 767.616.577 46.621-1.513 86.712-37.13 100.663-80.426 17.019-46.217-2.822-100.43-42.08-128.486-27.738-21.585-64.709-28.32-98.954-21.851 18.501-12.019 37.486-24.406 48.413-44.103 29.77-45.241 22.526-112.563-19.922-147.394-36.793-34.555-96.626-38.82-139.246-12.51-8.773 5.212-16.874 11.54-23.918 18.713 19.333-37.512 14.37-84.842-10.31-118.764C685.275 17.44 645.42-2.864 605.26.214c-47.188 1.308-89.363 35.906-105.132 79.532C483.901 33.727 437.824-1.77 388.165.056z"/></svg>