<svg xmlns="http://www.w3.org/2000/svg" role="img" viewBox="-7.48 44.27 414.70 155.95"><title>Neo4j, Inc. (member) logo</title><style>svg {enable-background:new 0 0 400 245}</style><style>.st2{fill:#64b145;stroke:#fff;stroke-width:1.9939;stroke-miterlimit:10}</style><path fill="#008cc1" d="M118.2 116c0 32.5-26.3 58.8-58.8 58.8S.6 148.5.6 116s26.3-58.8 58.8-58.8c32.4 0 58.8 26.4 58.8 58.8"/><path fill="#fff" d="M26.7 96.8c0 2.6-2.1 4.7-4.7 4.7s-4.7-2.1-4.7-4.7 2.1-4.7 4.7-4.7 4.7 2.1 4.7 4.7m.7 12.9c0 2.6-2.1 4.7-4.7 4.7s-4.7-2.1-4.7-4.7 2.1-4.7 4.7-4.7 4.7 2.1 4.7 4.7m2.9 13.6c0 2.6-2.1 4.7-4.7 4.7s-4.7-2.1-4.7-4.7 2.1-4.7 4.7-4.7 4.7 2.1 4.7 4.7m6.5 12.3c0 2.6-2.1 4.7-4.7 4.7s-4.7-2.1-4.7-4.7 2.1-4.7 4.7-4.7 4.7 2.1 4.7 4.7m50.3 17.1c0 2.6-2.1 4.7-4.7 4.7s-4.7-2.1-4.7-4.7 2.1-4.7 4.7-4.7 4.7 2.1 4.7 4.7m8.5-10.1c0 2.6-2.1 4.7-4.7 4.7s-4.7-2.1-4.7-4.7 2.1-4.7 4.7-4.7 4.7 2.1 4.7 4.7M70.8 71.1c0 2.6-2.1 4.7-4.7 4.7s-4.7-2.1-4.7-4.7 2.1-4.7 4.7-4.7 4.7 2.1 4.7 4.7m-12.3-4.3c0 2.6-2.1 4.7-4.7 4.7s-4.7-2.1-4.7-4.7 2.1-4.7 4.7-4.7 4.7 2.1 4.7 4.7"/><circle cx="91.8" cy="102" r="31.3" class="st2"/><circle cx="48.9" cy="165.9" r="25.6" class="st2"/><circle cx="27.8" cy="70.5" r="17.1" class="st2"/><g><path fill="#101010" d="M137.6 81.6h5.7v11.1c2.7-6.7 8.4-12 20.1-12 13.2 0 22.1 8.9 22.1 22.9V139h-5.7v-34.3c0-11.5-7.1-18.7-17.7-18.7-11.5 0-18.8 8.9-18.8 22.1V139h-5.7V81.6zm58 28.8c0-17.9 12.2-30.2 28-30.2 15.6 0 26.7 12.9 26.7 28.6 0 0 0 1.7-.1 2.8h-49c.3 13.8 9.6 23.6 22.7 23.6 10.7 0 18.1-4.6 21.5-8.9v6.7c-5.4 4.8-11.8 7.5-21.5 7.5-16.5 0-28.3-12.1-28.3-29.9v-.2zm48.6-3.9c-.1-11.7-9.2-21-20.6-21-12 0-21.8 9.2-22.2 21h42.8zm45.2-26.4c16.9 0 30.2 12.9 30.2 30.2 0 17.3-13.3 30.2-30.2 30.2s-30.2-12.9-30.2-30.2c0-17.3 13.3-30.2 30.2-30.2zm0 55c14 0 24.5-10.7 24.5-24.8s-10.5-24.8-24.5-24.8-24.5 10.7-24.5 24.8 10.5 24.8 24.5 24.8zm60.2-53.5h6.4l-24.4 52H367v-18.8h5.9V161H367v-22h-44.4l27-57.4zm42.9 0h5.7V147c0 12.9-7.4 15.5-14.6 15.5-1.4 0-2.8-.1-3.8-.3v-5.4c1.4.2 3 .3 4.3.3 5.8 0 8.3-2.8 8.3-10.1V81.6zm-1.3-15.4c0-2.4 1.9-4.1 4.1-4.1s4.1 1.7 4.1 4.1c0 2.3-1.9 4-4.1 4s-4.1-1.7-4.1-4z"/></g></svg>