<svg xmlns="http://www.w3.org/2000/svg" role="img" viewBox="-4.66 -4.66 242.06 88.06"><title>Nhost logo</title><g clip-path="url(#clip0)"><path fill="#21324B" fill-rule="evenodd" d="M124.791 37.5701h11.805v-9.385h6.245v24.075h-6.245v-9.385h-11.805v9.385h-6.025v-24.075h6.025v9.385zm41.87-9.385h-9.64c-2.67 0-4.295.505-5.525 1.735-1.225 1.225-1.695 2.78-1.695 5.525v9.565c0 2.745.47 4.295 1.695 5.525 1.225 1.23 2.85 1.735 5.525 1.735h9.64c2.67 0 4.295-.505 5.525-1.735 1.23-1.225 1.695-2.78 1.695-5.525v-9.565c0-2.745-.47-4.295-1.695-5.525-1.23-1.23-2.855-1.735-5.525-1.735zm1.19 16.965c0 1.41-.47 1.805-2.165 1.805h-7.69c-1.695 0-2.165-.395-2.165-1.805v-9.855c0-1.41.47-1.805 2.165-1.805h7.69c1.735 0 2.165.36 2.165 1.805v9.855zm20.969-7.33h8.625c2.67 0 4.33.505 5.525 1.735 1.08 1.085 1.695 2.85 1.695 4.765v1.445c0 1.915-.615 3.645-1.695 4.765-1.195 1.23-2.82 1.735-5.525 1.735h-16.46v-5.305h15.45c1.695 0 2.165-.395 2.165-1.805v-.72c0-1.41-.47-1.805-2.165-1.805h-8.625c-2.675 0-4.335-.51-5.525-1.735-1.08-1.085-1.695-2.85-1.695-4.765v-1.445c0-1.915.61-3.645 1.695-4.765 1.195-1.23 2.815-1.735 5.525-1.735h15.6v5.305h-14.59c-1.695 0-2.165.395-2.165 1.805v.72c0 1.41.47 1.805 2.165 1.805zm19.664-4.33v-5.305h24.545v5.305h-9.24v18.77h-6.03v-18.77h-9.275z" clip-rule="evenodd"/><path fill="#0052CD" d="M104.34 27.9951h-9.6395c-2.67 0-4.295.505-5.525 1.735-1.225 1.225-1.695 2.78-1.695 5.52v17.005h6.03v-17.145c0-1.41.47-1.805 2.165-1.805h7.6895c1.735 0 2.165.36 2.165 1.805v17.15h6.03v-17.005c0-2.745-.47-4.295-1.695-5.52-1.225-1.235-2.85-1.74-5.525-1.74z"/><g clip-path="url(#clip1)"><path fill="#0052CD" d="M67.025 16.93L39.55 1.065c-2.465-1.42-5.525-1.42-7.995 0C29.09 2.49 27.56 5.14 27.56 7.985v2.07L25.77 9.02c-2.465-1.42-5.525-1.42-7.995 0-2.465 1.425-3.995 4.075-3.995 6.925v2.07l-1.79-1.035c-2.465-1.42-5.525-1.42-7.995 0C1.53 18.405 0 21.055 0 23.905v49.71c0 1.43.83 2.76 2.12 3.38 1.28499.625 2.845.455 3.965-.43L19.71 65.82l21.01 12.13c.58.335 1.23.5 1.88.5.65 0 1.3-.17 1.88-.5 1.16-.67 1.88-1.915 1.88-3.255V44.78c0-4.91-2.64-9.48-6.89-11.935l-6.89-3.98V7.99c0-1.06.57-2.05 1.49-2.58.92-.53 2.06-.53 2.98 0l27.475 15.86c2.705 1.56 4.385 4.475 4.385 7.595v37.25c0 1.06-.57 2.05-1.49 2.58L60.14 72.9V36.82c0-4.91-2.64-9.48-6.89-11.935L36.335 15.12v5.785l14.41 8.32c2.705 1.56 4.385 4.47 4.385 7.595v38.245c0 1.335.72 2.585 1.88 3.255.58.335 1.23.5 1.88.5.65 0 1.3-.17 1.88-.5l9.16-5.29c2.465-1.425 3.995-4.075 3.995-6.925v-37.25c-.01-4.895-2.65-9.47-6.9-11.925zm-30.07 20.255c2.705 1.56 4.385 4.47 4.385 7.595v27.75l-17.4-10.045 5.585-4.4c1.935-1.525 3.045-3.81 3.045-6.275V34.66l4.385 2.525zM27.56 31.76V51.8c0 .92-.415 1.775-1.135 2.34L5.01 71.025V23.9c0-1.06.57-2.05 1.49-2.58.92-.53 2.06-.53 2.98 0l4.3 2.48v35.525l5.01-3.95v-39.43c0-1.06.57-2.05 1.49-2.58.92-.53 2.06-.53 2.98 0l4.3 2.48V25.97l-5.01-2.895v5.79l5.01 2.895z"/></g></g><defs><clipPath id="clip0"><path fill="#fff" d="M0 0h233v79H0z"/></clipPath><clipPath id="clip1"><path fill="#fff" d="M0 0h73.925v78.82H0z"/></clipPath></defs></svg>