<svg xmlns="http://www.w3.org/2000/svg" role="img" viewBox="17.51 23.51 961.48 938.48"><g fill="none"><path fill="#10506D" d="M628.14 376.586L292.663 667.994c-10.24 8.895-25.75 7.804-34.645-2.435A24.558 24.558 0 0 1 252 649.454V66.637c0-13.563 10.995-24.558 24.558-24.558a24.558 24.558 0 0 1 16.105 6.018L628.14 339.506c10.24 8.894 11.33 24.405 2.435 34.644a24.558 24.558 0 0 1-2.435 2.436z"/><path fill="#2AC3D3" d="M375.63 470.563a24.558 24.558 0 0 1-2.435-2.435c-8.894-10.24-7.804-25.75 2.436-34.645l335.477-291.408a24.558 24.558 0 0 1 16.104-6.018c13.563 0 24.558 10.995 24.558 24.558v582.817a24.558 24.558 0 0 1-6.018 16.104c-8.894 10.24-24.405 11.33-34.644 2.436L375.63 470.563z"/><path fill="#10506D" d="M36.018 944V801.178h9.522l89.502 89.502v-89.502h28.564V944h-10.473l-88.55-88.55V944H36.018zm221.375 0c-20.313 0-37.293-6.84-50.94-20.519-13.648-13.68-20.471-30.643-20.471-50.892 0-20.313 6.823-37.293 20.47-50.94 13.648-13.648 30.628-20.471 50.94-20.471 20.313 0 37.293 6.823 50.94 20.47 13.648 13.648 20.472 30.628 20.472 50.94 0 20.313-6.824 37.293-20.471 50.94C294.685 937.177 277.705 944 257.393 944zm.095-26.66c12.632 0 22.915-4.285 30.85-12.854 7.934-8.57 11.902-19.202 11.902-31.897 0-12.696-3.968-23.328-11.902-31.897-7.935-8.57-18.282-12.854-31.04-12.854-12.632 0-22.915 4.285-30.85 12.854-7.935 8.57-11.902 19.201-11.902 31.897 0 12.695 3.967 23.327 11.902 31.897 7.935 8.57 18.281 12.854 31.04 12.854zm83.79-116.162L398.5 944h28.565l57.033-142.822H453.63l-41.324 104.64-40.561-104.64h-30.469zm157.77 0L556.272 944h28.565l57.033-142.822h-30.468l-41.324 104.64-40.561-104.64h-30.469zm164.34 0v90.454c0 14.6 5.872 26.977 17.616 37.134C692.747 938.922 707.505 944 725.279 944c17.773 0 32.531-5.078 44.274-15.234 11.744-10.157 17.615-22.534 17.615-37.134v-90.454h-28.564v82.837c0 10.79-3.174 18.725-9.522 23.803-6.347 5.079-14.282 7.618-23.803 7.618-9.522 0-17.456-2.54-23.804-7.618-6.348-5.078-9.522-13.012-9.522-23.803v-82.837H663.39zM818.019 944V801.178h9.521l61.89 70.459 61.985-70.46h9.521V944h-28.564l-.095-82.837-42.847 47.608-42.847-47.608V944h-28.564z"/></g></svg>