<svg xmlns="http://www.w3.org/2000/svg" role="img" viewBox="7.10 -1.28 49.68 66.43"><title>NYTimes (adopter) logo</title><clipPath id="a"><path d="M2 61.8L1.3 11h374l.7 50.8z"/></clipPath><path fill="#251802" d="M13 39.2V25.5l-4.5 1.8s-1.1 2.3-.9 5.7c.1 2.7 1.7 5.8 2.9 7.2zM25.1 11c1 .1 2.7.6 3.9 1.6 1.3 1.2 1.6 3.1 1.2 4.8-.4 1.5-.9 2.3-2.5 3.4S24.9 22 24.9 22v6.6L28 31l-3.1 2.8v9s2.6-2.1 4.6-6.2c0 0 .1-.2.3-.7.2 1.1.1 3.4-1.2 6.2-1 2.2-2.7 4.2-5 5.4-3.9 2.1-6.9 2.3-10 1.7-3.7-.7-7.1-2.7-9.3-6.2C2.7 40.5 2 37.7 2 34.6c.1-6.1 4.8-11.3 10.2-13.3.7-.2.9-.4 1.8-.5-.4.3-.9.6-1.5 1-1.7 1.1-3.2 3.3-3.9 5L19 22.3v14.1l-8.3 4.1c1 1.3 3.9 3.2 6.4 3.5 4.2.5 7-1.1 7-1.1v-9.2L21 31l3.1-2.4V22c-1.8-.2-4.3-1-5.5-1.3-1.9-.4-8.1-2.1-9.1-2.3-1-.1-2.2-.1-2.9.5s-1.2 1.8-.9 2.8c.2.6.6.9.9 1.2 0 0-.4 0-1-.4-1.2-.7-2.1-2-2.2-3.7A6.2 6.2 0 0 1 6 13.4c1.6-1 3.4-1.6 5.5-1.3 3.1.4 7.2 2.1 10.9 3 1.4.3 2.5.4 3.5-.1.5-.3 1.3-1.2.6-2.3-.8-1.3-2.3-1.3-3.6-1.5 1.2-.2 1.4-.2 2.2-.2" clip-path="url(#a)" transform="translate(5.095 -18.288) scale(1.66257)"/></svg>