<svg xmlns="http://www.w3.org/2000/svg" role="img" viewBox="-11.21 -11.21 582.92 91.42"><title>One Medical logo</title><style>svg {max-width:100%;max-height:100%}</style><path d="M305.2 17.1c-6.8 0-12.1 3.9-14.9 10.5-2.2-6.7-7.5-10.5-14-10.5S265 21 262.5 27.4v-8.8h-10.4V68h10.4V38.4c0-7.6 3.8-12.9 10-12.9 5.8 0 8.8 3.9 8.8 11.5v31h10.3V37.6c0-7.1 3.8-12.1 10.1-12.1 5.8 0 8.5 3.9 8.5 11.8V68h10.3V35.5c0-11.5-6-18.4-15.3-18.4zm-106.8 0c-15 0-24.6 10.7-24.6 25.8 0 16 10.9 26.5 26.6 26.5 7.9 0 14.3-2.8 18.4-6.7v-6.4c-3.8 3.6-9.6 5.7-15.5 5.7-10.7 0-18.2-6.5-18.6-19h35.6v-3.3c-.1-14.3-8.6-22.6-21.9-22.6zM185 37c1.3-7.9 5.7-13.2 13.3-13.2 6.8 0 11.5 4.5 11.7 13.2h-25zM92.6 17.1c-14.2 0-24.7 11.4-24.7 26.2s10.4 26.1 24.7 26.1c14.4 0 24.8-11.3 24.8-26.1S107 17.1 92.6 17.1zm0 45.5C84.1 62.6 79 55 79 43.3S84.1 24 92.6 24c8.7 0 13.8 7.6 13.8 19.3s-5.2 19.3-13.8 19.3zm57.7-45.5c-8.1 0-13.6 4.5-16.3 11.3v-9.8h-10.3V68H134V40.8c0-9.2 4.6-15.1 12.7-15.1 7.4 0 10.5 4.4 10.5 13.7V68h10.3V37.1c0-12.6-6.8-20-17.2-20zm266.3 10.7c-3.1-6.8-8.7-10.7-16.2-10.7-12.7 0-22.7 11.4-22.7 26.6 0 14.9 9.3 25.7 21.7 25.7 7.6.2 14.5-4.5 17.2-11.7V68h10.3V.9h-10.3v26.9zm-14.1 34.1c-8.2 0-13.6-7.3-13.6-18.4 0-11.3 5.5-19 14-19s14 7.6 14 18.5c-.1 11.1-5.9 18.9-14.4 18.9zm78.4.2c-11 0-17-8.2-17-19 0-11 6.5-18.6 16.7-18.6 5.5 0 10.1 2.1 14.1 6.9v-7.7c-3.6-4-9.1-6.6-16.3-6.6-15 0-25.6 11.4-25.6 26.2s10.6 26.1 25.5 26.1c6.4.1 12.6-2.4 17-7.1v-6.8c-3.6 4.2-8.9 6.6-14.4 6.6zm-129.4-45c-15 0-24.8 10.7-24.8 25.8 0 16 11 26.5 26.7 26.5 7.9 0 14.3-2.8 18.3-6.7v-6.4c-3.7 3.6-9.6 5.7-15.5 5.7-10.6 0-18.1-6.5-18.6-19h35.6v-3.3c.1-14.3-8.5-22.6-21.7-22.6zM338 37c1.2-7.9 5.7-13.2 13.2-13.2 6.8 0 11.6 4.5 11.8 13.2h-25zm182.8-19.9c-6.7-.2-13.2 2.2-18.2 6.6v7.8c3.8-4.5 9.5-7.1 15.4-7 7.9 0 12.8 4.3 12.8 13.2v2h-9.3c-14.6 0-21.8 6.1-21.8 14.8 0 8.4 6.6 14.8 15.9 14.8 7.6 0 12.7-3.8 15.2-9.3v8h10.3V37.2c.1-12.7-7.3-20.1-20.3-20.1zm10 32.3c0 7.9-4.5 12.7-11.7 12.7-5.8 0-8.9-3.1-8.9-8 0-5.4 3.7-8.7 12-8.7h8.7l-.1 4zM441.3 0c-3.4 0-6.2 2.8-6.2 6.2s2.8 6.2 6.2 6.2c3.4 0 6.2-2.8 6.2-6.2 0-3.4-2.8-6.2-6.2-6.2zm-5.1 68h10.3V18.6h-10.3V68zM550.2.9V68h10.4V.9h-10.4zM6.2 37.1c-3.4 0-6.2 2.8-6.2 6.2 0 3.4 2.8 6.2 6.2 6.2s6.2-2.8 6.2-6.2c0-3.4-2.8-6.2-6.2-6.2zm18.5 0c-3.4 0-6.2 2.8-6.2 6.2 0 3.4 2.8 6.2 6.2 6.2 3.4 0 6.2-2.8 6.2-6.2 0-3.4-2.8-6.2-6.2-6.2zm0 18.5c-3.4 0-6.2 2.8-6.2 6.2 0 3.4 2.8 6.2 6.2 6.2s6.2-2.8 6.2-6.2c0-3.4-2.8-6.2-6.2-6.2zm0-37c-3.4 0-6.2 2.8-6.2 6.2 0 3.4 2.8 6.2 6.2 6.2 3.4 0 6.2-2.8 6.2-6.2 0-3.4-2.7-6.2-6.2-6.2zm18.5 18.5c-3.4 0-6.2 2.8-6.2 6.2 0 3.4 2.8 6.2 6.2 6.2 3.4 0 6.2-2.8 6.2-6.2 0-3.4-2.8-6.2-6.2-6.2z" class="st0"/></svg>