<svg xmlns="http://www.w3.org/2000/svg" role="img" viewBox="72.09 -3.66 255.58 252.33"><title>PayPal Holdings, Inc. (member) logo</title><style>svg {enable-background:new 0 0 400 245}</style><style>.st44{fill:#009ddc}.st45{fill:#1d3586}</style><path d="M242.94 178.46h-19.11c-1.31 0-2.42.95-2.62 2.24l-7.73 49c-.15.97.59 1.84 1.57 1.84h9.8c.91 0 1.69-.67 1.84-1.57l2.19-13.89c.2-1.29 1.32-2.24 2.62-2.24h6.05c12.59 0 19.85-6.09 21.75-18.16.85-5.28.03-9.43-2.44-12.33-2.71-3.2-7.53-4.89-13.92-4.89zm2.2 17.9c-1.04 6.86-6.28 6.86-11.35 6.86h-2.88l2.02-12.81c.12-.77.79-1.34 1.57-1.34h1.32c3.45 0 6.71 0 8.39 1.96 1.01 1.18 1.31 2.92.93 5.33z" class="st44"/><path d="M106.65 178.46H87.54c-1.31 0-2.42.95-2.62 2.24l-7.73 49c-.15.97.59 1.84 1.57 1.84h9.12c1.31 0 2.42-.95 2.62-2.24l2.09-13.22c.2-1.29 1.32-2.24 2.62-2.24h6.05c12.59 0 19.85-6.09 21.75-18.16.85-5.28.03-9.43-2.44-12.33-2.71-3.2-7.53-4.89-13.92-4.89zm2.2 17.9c-1.04 6.86-6.28 6.86-11.35 6.86h-2.88l2.02-12.81c.12-.77.79-1.34 1.57-1.34h1.32c3.45 0 6.71 0 8.39 1.96 1.01 1.18 1.31 2.92.93 5.33zm54.91-.22h-9.15c-.78 0-1.45.57-1.57 1.34l-.4 2.56-.64-.93c-1.98-2.88-6.4-3.84-10.81-3.84-10.11 0-18.74 7.66-20.42 18.4-.87 5.36.37 10.48 3.41 14.06 2.79 3.28 6.78 4.65 11.52 4.65 8.15 0 12.67-5.23 12.67-5.23l-.41 2.54c-.15.97.59 1.84 1.57 1.84h8.24c1.31 0 2.42-.95 2.62-2.24l4.95-31.32c.15-.96-.6-1.83-1.58-1.83zm-12.75 17.81c-.88 5.23-5.03 8.74-10.33 8.74-2.65 0-4.78-.85-6.14-2.47-1.35-1.6-1.86-3.88-1.43-6.43.82-5.18 5.04-8.8 10.25-8.8 2.6 0 4.71.86 6.1 2.49 1.4 1.64 1.95 3.94 1.55 6.47z" class="st45"/><path d="M300.05 196.14h-9.15c-.78 0-1.45.57-1.57 1.34l-.4 2.56-.64-.93c-1.98-2.88-6.4-3.84-10.81-3.84-10.11 0-18.74 7.66-20.42 18.4-.87 5.36.37 10.48 3.41 14.06 2.79 3.28 6.78 4.65 11.52 4.65 8.15 0 12.67-5.23 12.67-5.23l-.41 2.54c-.15.97.59 1.84 1.57 1.84h8.24c1.31 0 2.42-.95 2.62-2.24l4.95-31.32c.15-.96-.6-1.83-1.58-1.83zm-12.75 17.81c-.88 5.23-5.03 8.74-10.33 8.74-2.65 0-4.78-.85-6.14-2.47-1.35-1.6-1.86-3.88-1.43-6.43.82-5.18 5.04-8.8 10.25-8.8 2.6 0 4.71.86 6.1 2.49 1.4 1.64 1.95 3.94 1.55 6.47z" class="st44"/><path d="M212.5 196.14h-9.2c-.88 0-1.7.44-2.2 1.16l-12.69 18.68-5.38-17.95c-.34-1.12-1.37-1.89-2.54-1.89h-9.04c-1.09 0-1.86 1.07-1.51 2.11l10.13 29.72-9.52 13.44c-.75 1.05.01 2.51 1.3 2.51h9.19c.87 0 1.69-.43 2.18-1.14l30.59-44.14c.73-1.06-.03-2.5-1.31-2.5z" class="st45"/><path d="M310.84 179.81L303 229.7c-.15.97.6 1.84 1.57 1.84h7.89c1.31 0 2.42-.95 2.62-2.24l7.73-49c.15-.97-.59-1.84-1.57-1.84h-8.83c-.79 0-1.45.57-1.57 1.35z" class="st44"/><g><path d="M260.78 41.92c1.94-12.39-.01-20.82-6.72-28.46-7.38-8.41-20.71-12.01-37.77-12.01h-49.51c-3.49 0-6.45 2.54-7 5.98l-20.62 130.73c-.41 2.58 1.59 4.91 4.2 4.91h30.56l-2.11 13.38c-.36 2.26 1.39 4.3 3.67 4.3h25.76c3.05 0 5.65-2.22 6.12-5.23l.25-1.31 4.85-30.77.31-1.7c.48-3.01 3.07-5.23 6.12-5.23h3.85c24.96 0 44.5-10.14 50.21-39.46 2.39-12.25 1.15-22.48-5.16-29.67-1.86-2.19-4.24-3.99-7.01-5.46" class="st44"/><path fill="#211d70" d="M260.78 41.92c1.94-12.39-.01-20.82-6.72-28.46-7.38-8.41-20.71-12.01-37.77-12.01h-49.51c-3.49 0-6.45 2.54-7 5.98l-20.62 130.73c-.41 2.58 1.59 4.91 4.2 4.91h30.56l7.68-48.68-.24 1.53c.54-3.44 3.49-5.98 6.97-5.98h14.53c28.53 0 50.87-11.59 57.4-45.11.21-1 .37-1.96.52-2.91"/><path d="M189.87 42.09c.33-2.07 1.66-3.77 3.45-4.62.81-.39 1.72-.61 2.68-.61h38.81c4.6 0 8.88.3 12.8.93 1.12.18 2.21.39 3.27.62 1.06.23 2.09.5 3.08.79.5.15.99.3 1.47.46 1.92.64 3.72 1.39 5.36 2.27 1.94-12.39-.01-20.82-6.72-28.46-7.38-8.41-20.71-12.01-37.77-12.01h-49.51c-3.49 0-6.45 2.54-7 5.98l-20.62 130.73c-.41 2.58 1.59 4.91 4.2 4.91h30.56l7.68-48.68 8.26-52.31z" class="st45"/></g></svg>