<svg xmlns="http://www.w3.org/2000/svg" role="img" viewBox="-6.85 -6.60 395.20 127.95"><title>Postman (member) logo</title><defs><style>.cls-2{fill:#ff6c37}</style></defs><circle cx="57.06" cy="58.1" r="51.39" fill="#fff"/><path d="M139.84 73.66V41a1.27 1.27 0 0 1 .46-1 1.74 1.74 0 0 1 1.19-.42h9.2a10.79 10.79 0 0 1 7.48 2.53c1.88 1.69 2.81 4.34 2.81 8v.43c0 3.64-.95 6.3-2.86 8a11 11 0 0 1-7.6 2.55H144v12.57a1.12 1.12 0 0 1-.15.62 1.15 1.15 0 0 1-.45.45 2.77 2.77 0 0 1-1.43.39 2.81 2.81 0 0 1-1.44-.39 1.17 1.17 0 0 1-.47-.44 1.27 1.27 0 0 1-.22-.63zm4.08-16h6.6a6.2 6.2 0 0 0 2.56-.37 6.4 6.4 0 0 0 2.19-1.36 7.13 7.13 0 0 0 1.67-5.18v-.59a7.13 7.13 0 0 0-1.67-5.16 6.22 6.22 0 0 0-2.19-1.35 6.37 6.37 0 0 0-2.56-.37H144zm31.35 7.15V50.16q0-5.47 2.84-8a12.68 12.68 0 0 1 15.25 0c1.91 1.71 2.86 4.39 2.87 8v14.65c0 3.67-.95 6.35-2.87 8a12.63 12.63 0 0 1-15.27 0c-1.88-1.66-2.82-4.32-2.82-8zm4.09 0q0 6.9 6.37 6.91a6.35 6.35 0 0 0 2.55-.37 6.16 6.16 0 0 0 2.19-1.35 7.18 7.18 0 0 0 1.68-5.18V50.16a7.13 7.13 0 0 0-.33-2.75 7.21 7.21 0 0 0-1.35-2.41 6.35 6.35 0 0 0-4.75-1.73c-4.25 0-6.36 2.31-6.36 6.9zm31.33 5.3a2.47 2.47 0 0 1 .55-1.5 1.65 1.65 0 0 1 .51-.51 1.53 1.53 0 0 1 .68-.23 2 2 0 0 1 1.12.62c.45.4.92.85 1.41 1.34a6.35 6.35 0 0 0 2.3 1.37 9.43 9.43 0 0 0 3.56.6 7.42 7.42 0 0 0 5-1.53 5.56 5.56 0 0 0 1.81-4.49 6.07 6.07 0 0 0-.38-2.35 5.81 5.81 0 0 0-1.27-2 11 11 0 0 0-4-2.55c-1.57-.58-3.13-1.18-4.75-1.87a10.09 10.09 0 0 1-4-3.06 8.32 8.32 0 0 1-1.65-5.33 9.64 9.64 0 0 1 1-4.45 6.81 6.81 0 0 1 2.6-2.85 13.49 13.49 0 0 1 3.38-1.4 15.26 15.26 0 0 1 3.75-.44 18.76 18.76 0 0 1 5.76.87c1.83.6 2.76 1.4 2.76 2.37a2.72 2.72 0 0 1-.49 1.46 1.39 1.39 0 0 1-.53.57 1.49 1.49 0 0 1-.81.25 16.5 16.5 0 0 1-2.18-.87 10.87 10.87 0 0 0-4.52-.93 8.59 8.59 0 0 0-4.75 1.19 4.27 4.27 0 0 0-1.83 3.85 4.34 4.34 0 0 0 .37 2 4.44 4.44 0 0 0 1.23 1.64 12.6 12.6 0 0 0 4 2.21c1.58.56 3.15 1.19 4.75 1.9a10.12 10.12 0 0 1 4 3.43 10.28 10.28 0 0 1 1.64 6q0 5-2.92 7.57a11.28 11.28 0 0 1-7.72 2.55 13.81 13.81 0 0 1-7.32-1.82c-2.07-1.23-3.06-2.43-3.06-3.61zm33.17-28.75a2.06 2.06 0 0 1 .39-1.25 1.16 1.16 0 0 1 .46-.42 1.18 1.18 0 0 1 .61-.13h19.8a1.18 1.18 0 0 1 .61.13 1.23 1.23 0 0 1 .46.42 2.2 2.2 0 0 1 .39 1.25 2.3 2.3 0 0 1-.39 1.33 1.14 1.14 0 0 1-.46.44 1.18 1.18 0 0 1-.61.13h-7.78v30.4a1.12 1.12 0 0 1-.15.62 1.15 1.15 0 0 1-.45.45 2.77 2.77 0 0 1-1.43.39 2.81 2.81 0 0 1-1.44-.39 1.21 1.21 0 0 1-.45-.45 1.32 1.32 0 0 1-.15-.62v-30.4h-7.89a1.09 1.09 0 0 1-.61-.13 1.14 1.14 0 0 1-.46-.41 2.29 2.29 0 0 1-.45-1.36zm36.58 32.3v-32a1.82 1.82 0 0 1 .31-1.32 1.79 1.79 0 0 1 1.15-.72 2.29 2.29 0 0 1 .64 0c1.3 0 2.37.86 3.27 2.58l7.63 14.64 7.69-14.64c.94-1.72 2-2.58 3.25-2.58a1.76 1.76 0 0 1 2 1.47 1.46 1.46 0 0 1 0 .51v32a1.32 1.32 0 0 1-.15.62 1.15 1.15 0 0 1-.45.45 2.82 2.82 0 0 1-1.44.4 2.78 2.78 0 0 1-1.43-.4 1.15 1.15 0 0 1-.45-.45 1.12 1.12 0 0 1-.15-.62V48.12L295 61.93a1.75 1.75 0 0 1-.62.85 1.49 1.49 0 0 1-1.92 0 1.73 1.73 0 0 1-.57-.83l-7.34-14v25.71a1.22 1.22 0 0 1-.16.62 1.19 1.19 0 0 1-.44.45 2.55 2.55 0 0 1-1.38.45 2.47 2.47 0 0 1-1.43-.39 1.16 1.16 0 0 1-.52-.46 1.2 1.2 0 0 1-.18-.67zm39.94-.22a1.37 1.37 0 0 1 .09-.4l10-32c.29-.94 1.1-1.42 2.48-1.42s2.2.48 2.48 1.42l10 32.2a.54.54 0 0 0 0 .18.33.33 0 0 1 0 .14 1.36 1.36 0 0 1-.23.7 1.43 1.43 0 0 1-.57.49 3.17 3.17 0 0 1-1.78.47 1.33 1.33 0 0 1-.89-.19 1.35 1.35 0 0 1-.57-.72l-2.13-7.12h-12.81l-2.13 7.11a1.32 1.32 0 0 1-.57.74 1.27 1.27 0 0 1-.91.2 3 3 0 0 1-1.65-.49 1.35 1.35 0 0 1-.59-.52 1.32 1.32 0 0 1-.22-.79zm7.06-9.75h10.88l-5.45-18.18zm32.05 9.97V41c0-.93.67-1.41 2-1.41a2.66 2.66 0 0 1 1.73.6 6.32 6.32 0 0 1 1.38 2l12.12 23.74V41a1.21 1.21 0 0 1 .16-.61 1.24 1.24 0 0 1 .44-.44 3 3 0 0 1 1.44-.36 3 3 0 0 1 1.43.36 1.27 1.27 0 0 1 .45.44 1.32 1.32 0 0 1 .16.61v32.66a1.13 1.13 0 0 1-.16.62 1.08 1.08 0 0 1-.45.45 2.51 2.51 0 0 1-1.43.39 2.91 2.91 0 0 1-2.58-1.85l-12.61-24.46v24.85a1.18 1.18 0 0 1-.6 1.07 2.84 2.84 0 0 1-2.87 0 1.17 1.17 0 0 1-.46-.45 1.21 1.21 0 0 1-.15-.62zM89.63 29.34a.53.53 0 0 0-.2.16.61.61 0 0 0-.13.22.73.73 0 0 0 0 .25.72.72 0 0 0 .07.25 1.9 1.9 0 0 1 .19 1.1 2 2 0 0 1-.43 1 .61.61 0 0 0-.14.47.63.63 0 0 0 .24.43.64.64 0 0 0 .46.15.63.63 0 0 0 .44-.22 3.3 3.3 0 0 0 .74-1.71 3.26 3.26 0 0 0-.33-1.84.65.65 0 0 0-.37-.32.71.71 0 0 0-.54.06z" class="cls-2"/><path d="M64.46 1.46a56.5 56.5 0 1 0 48.92 63.24A56.57 56.57 0 0 0 64.46 1.46zm11.65 35.25a4 4 0 0 0-2.8 1.18l-21 21-4.48-4.48c20.69-20.64 24.43-20.84 28.28-17.7zM53.17 59.59l20.94-20.9a2.92 2.92 0 0 1 4.78 1 3 3 0 0 1 .2 1.16 2.86 2.86 0 0 1-.28 1.15 3 3 0 0 1-.71.95L55.94 62.36zm1.56 3.27L49.54 64a.22.22 0 0 1-.18 0 .28.28 0 0 1-.14-.12.29.29 0 0 1 0-.18.38.38 0 0 1 .08-.17l3-3zM41.51 60.7L47 55.18l4.15 4.13-9.34 2a.31.31 0 0 1-.23 0 .37.37 0 0 1-.17-.16.35.35 0 0 1 0-.22.33.33 0 0 1 .1-.23zm-17.2 28.53a.33.33 0 0 1-.18-.08A.36.36 0 0 1 24 89a.27.27 0 0 1 0-.2.4.4 0 0 1 .09-.17l4.46-4.46 5.77 5.76zm11.44-5.92a1.11 1.11 0 0 0-.48.5 1.05 1.05 0 0 0-.07.7l.95 4.07a.58.58 0 0 1 0 .37.55.55 0 0 1-.25.27.53.53 0 0 1-.37.07.59.59 0 0 1-.33-.15l-5.79-5.78L47.1 65.65l8.59-1.84 4.12 4.12c-5.93 5.17-14 10.35-24.06 15.37zm24.89-16.14l-4-4 22.2-19.38a3.53 3.53 0 0 0 .56-.6c-.7 6.34-9.57 15.28-18.75 24zm17.24-30.43a8.58 8.58 0 0 1 11.6-12.63l-7.61 7.59a.71.71 0 0 0-.12.18.51.51 0 0 0 0 .44.71.71 0 0 0 .12.18l5.88 5.87a8.58 8.58 0 0 1-9.86-1.63zm12.16 0a8 8 0 0 1-1.28 1l-5.69-5.64 7.23-7.22a8.57 8.57 0 0 1-.3 11.86z" class="cls-2"/></svg>