<svg xmlns="http://www.w3.org/2000/svg" role="img" viewBox="104.10 70.60 592.80 94.80"><title>ResearchGate (adopter) logo</title><path fill="#00A39E" fill-rule="nonzero" d="M167.4 153.8c1.7 0 3.5-.3 4.6-.8v-2.6c-3.6 0-7.2-2.5-9.8-5.3-4.4-4.8-10.3-12.5-15.2-21.2 8.1-1.9 14.1-9.5 14.1-17.1 0-11.2-8.7-16.4-20.1-16.4-5.9 0-10.6.3-15 .3l-2.07907-.00053c-3.26687-.0025-6.35571-.01686-8.42093-.09947v2.9l3.8.7c2.6.5 4.1 1.7 4.1 7.9v39.4c0 6.2-1.5 7.4-4.1 7.9l-3.8.7v2.9c2.7-.1 7.4-.3 12.1-.3 4.5 0 10.3.2 12.8.3v-2.9l-5.2-.7c-2.7-.4-4.1-1.7-4.1-7.9v-16.7c2.4.2 4.5.2 7.7.2 6.1 10.9 11.9 19.1 15.2 22.9 3 3.6 7.6 5.9 13.4 5.9zm-29.1-33.3c-3.4 0-4.9-.1-7.2-.3V95.1c2.3-.2 5.4-.2 8.1-.2 8.4 0 13.4 4.4 13.4 12.4 0 7.9-5.4 13.2-14.3 13.2zm59.7 33.7c7.2 0 13.5-3.1 15.4-6.2l-.3-2.5c-3.2 1.6-7.5 2.8-13.2 2.8-11.2 0-16.6-9-16.6-19.8 0-.9 0-1.9.1-2.9h32.3c.2-1.3.2-2.3.2-3.6 0-9.7-6-19-18.4-19-13 0-22.1 11.2-22.1 26.4 0 15.3 7.9 24.8 22.6 24.8zm7.3-32.6h-21.6c.8-6.8 5-14.2 13.4-14.2 7 0 10.5 6.1 10.5 12 0 1.4-.6 2.2-2.3 2.2zm34.1 32.6c10 0 17.3-6.7 17.3-14.7 0-17.9-25.2-13.1-25.2-24.7 0-5.1 3.9-7.7 9.9-7.7 6.7 0 9.7 3.3 10.2 9.7h3.7c-.3-4.3-.4-6.9-.2-11.2-3-1.2-8.2-2.6-13.3-2.6-9.7 0-16.9 5.2-16.9 13.2 0 18.1 25.1 12 25.1 24.5 0 5.6-4.4 9.1-10.7 9.1-8.5 0-10.6-3.9-11.5-11h-3.7c.3 4.7.5 8.4.3 13.1 4 1.3 8.8 2.3 15 2.3zm49.3 0c7.2 0 13.5-3.1 15.4-6.2l-.3-2.5c-3.2 1.6-7.5 2.8-13.2 2.8-11.2 0-16.6-9-16.6-19.8 0-.9 0-1.9.1-2.9h32.3c.2-1.3.2-2.3.2-3.6 0-9.7-6-19-18.4-19-13 0-22.1 11.2-22.1 26.4 0 15.3 7.9 24.8 22.6 24.8zm7.3-32.6h-21.6c.8-6.8 5-14.2 13.4-14.2 7 0 10.5 6.1 10.5 12 0 1.4-.6 2.2-2.3 2.2zm51.3 32.6c2.9 0 5.9-.7 7.6-1.8v-2.8c-6.1 0-7.9-1.4-7.9-6.3 0-9 .4-16.6.4-24.4 0-9.7-5.6-15.9-16.9-15.9-5.5 0-11.3 2.9-13.7 5.7l.5 2.9c3.1-1.7 6.8-2.7 11.4-2.7 7.8 0 11.2 4.1 11.2 11.8v5.8c-1.5-.1-4-.1-5.4-.1-12.8 0-21.1 6-21.1 15.4 0 7.3 5.4 12.4 13.1 12.4 6.1 0 11.5-3.8 13.3-6.8h.2c0 4.1 2.7 6.8 7.3 6.8zm-18.1-5.8c-4.9 0-8.2-3-8.2-7.9 0-6.1 4.6-9.8 14.9-9.8 1.1 0 2.8 0 3.9.1-.1 2.1-.3 9.6-.3 13.2-2 2.3-5.7 4.4-10.3 4.4zm55.6 4.6v-2.8l-4.6-.5c-2.16207-.29483-3.26174-.97598-3.29902-7.64352L376.9 113.4c3.1-2.5 7.1-3.8 10.6-3.8 1.8 0 4.3.3 5.5.9l.8-6.9c-1.2-.3-2.5-.6-4.3-.6-4.1 0-10.1 3.5-12.6 7v-7.5c-5 2.2-8.7 3.3-13.9 4.8v2.4c6.5 1.3 6.5 2.5 6.5 7.6v24.4c0 7-1 7.6-3.3 8l-3.3.5v2.8c2.5-.1 6.3-.4 10.2-.4 3.8 0 9.2.3 11.7.4zm36.2 1.2c7.4 0 13-3.4 14.8-6.4l-.5-2.6c-3 2-7.1 3.1-11.6 3.1-10.4 0-17.7-7.1-17.7-19.9 0-13.3 7.1-21.1 15.6-21.1 7.1 0 9.4 3.8 9.7 9.5h3.8c0-3.3.1-8.1.4-11.4-3.3-1.2-8-2.4-13.3-2.4-13.1 0-24 11.5-24 26.4 0 15.2 8.5 24.8 22.8 24.8zm73.2-1.2v-2.8l-3.3-.5c-2.16207-.3931-3.26174-.97937-3.29902-7.6436L487.6 120.1c0-10.1-3.4-17.1-15.2-17.1-5.3 0-11 3.4-14.3 6.5V82.2c-5 2.5-8.7 3.9-13.9 5.4V90c6.5 1.3 6.5 2.5 6.5 7.6v44.1c0 7-1 7.6-3.3 8l-3.3.5v2.8c2.5-.1 6.3-.3 10.2-.3 3.8 0 7.9.2 10.4.3v-2.8l-3.3-.5c-2.2-.4-3.3-1-3.3-8v-28.9c2.6-1.7 7.1-3.9 11.6-3.9 8.5 0 10.5 4.7 10.5 12.3v20.5c0 7-1 7.6-3.3 8l-3.3.5v2.8c2.5-.1 6.3-.3 10.2-.3 3.8 0 7.9.2 10.4.3zm36.9 1.4c8.3 0 17.1-1.9 20.7-3.4v-14.6c0-5.7.9-7.3 3.7-7.9l3.1-.6V125c-2.5.1-5.8.3-10.3.3-5.6 0-9.6-.2-12.1-.3v2.9l3.8.7c2.6.5 4.1 1.7 4.1 7.9v11.3c-3 1.8-7.9 2.3-11.9 2.3-13.5 0-22-11.5-22-28.2 0-16.6 8.6-28.2 22.1-28.2 9.2 0 14 5.3 14.6 13h3.9c-.4-5.3-.5-9.7-.6-14.3-4.5-1.6-10.1-3-17.7-3-18.3 0-31 14.5-31 33.2 0 19 11.2 31.8 29.6 31.8zm67.2-.2c2.9 0 5.9-.7 7.6-1.8v-2.8c-6.1 0-7.9-1.4-7.9-6.3 0-9 .4-16.6.4-24.4 0-9.7-5.6-15.9-16.9-15.9-5.5 0-11.3 2.9-13.7 5.7l.5 2.9c3.1-1.7 6.8-2.7 11.4-2.7 7.8 0 11.2 4.1 11.2 11.8v5.8c-1.5-.1-4-.1-5.4-.1-12.8 0-21.1 6-21.1 15.4 0 7.3 5.4 12.4 13.1 12.4 6.1 0 11.5-3.8 13.3-6.8h.2c0 4.1 2.7 6.8 7.3 6.8zm-18.1-5.8c-4.9 0-8.2-3-8.2-7.9 0-6.1 4.6-9.8 14.9-9.8 1.1 0 2.8 0 3.9.1-.1 2.1-.3 9.6-.3 13.2-2 2.3-5.7 4.4-10.3 4.4zm48.5 5.8c4.6 0 9.5-1.9 10.9-4.2l-.4-2c-1.4.5-4.5 1.2-7.3 1.2-4.9 0-6.7-2.5-6.7-8.5v-31.8h14.5v-4.7h-14.5V92.5H622c-1.7 6.1-4 9.8-10.3 13.2v3.2h6.1v33.5c0 8.2 2.8 11.8 10.9 11.8zm39 0c7.2 0 13.5-3.1 15.4-6.2l-.3-2.5c-3.2 1.6-7.5 2.8-13.2 2.8-11.2 0-16.6-9-16.6-19.8 0-.9 0-1.9.1-2.9h32.3c.2-1.3.2-2.3.2-3.6 0-9.7-6-19-18.4-19-13 0-22.1 11.2-22.1 26.4 0 15.3 7.9 24.8 22.6 24.8zm7.3-32.6h-21.6c.8-6.8 5-14.2 13.4-14.2 7 0 10.5 6.1 10.5 12 0 1.4-.6 2.2-2.3 2.2z"/></svg>