<svg xmlns="http://www.w3.org/2000/svg" role="img" viewBox="111.44 137.44 1485.12 1074.12"><defs><clipPath id="a" clipPathUnits="userSpaceOnUse"><path d="M0 942.143h1280V0H0z"/></clipPath><clipPath id="b" clipPathUnits="userSpaceOnUse"><path d="M640.896 568.652h.07v-.081h-.07z"/></clipPath><clipPath id="c" clipPathUnits="userSpaceOnUse"><path d="M440.912 817.452h200.014V684.018H440.912z"/></clipPath><clipPath id="d" clipPathUnits="userSpaceOnUse"><path d="M774.278 684.086h133.421V453.09H774.278z"/></clipPath><clipPath id="e" clipPathUnits="userSpaceOnUse"><path d="M640.926 817.477h200.057V684.073H640.926z"/></clipPath><clipPath id="f" clipPathUnits="userSpaceOnUse"><path d="M640.966 568.614h.004v-.004h-.004z"/></clipPath><clipPath id="g" clipPathUnits="userSpaceOnUse"><path d="M574.291 799.567h133.311V568.611H574.291z"/></clipPath><clipPath id="h" clipPathUnits="userSpaceOnUse"><path d="M574.291 799.567h133.311V568.611H574.291z"/></clipPath><clipPath id="i" clipPathUnits="userSpaceOnUse"><path d="M640.97 701.968h200.013V568.582H640.97z"/></clipPath><clipPath id="j" clipPathUnits="userSpaceOnUse"><path d="M640.97 701.968h200.013V568.582H640.97z"/></clipPath><clipPath id="k" clipPathUnits="userSpaceOnUse"><path d="M640.97 684.073h66.632V568.614H640.97z"/></clipPath><clipPath id="l" clipPathUnits="userSpaceOnUse"><path d="M640.97 684.073h66.632V568.614H640.97z"/></clipPath><clipPath id="m" clipPathUnits="userSpaceOnUse"><path d="M640.896 568.61h.074v-.086h-.074z"/></clipPath><clipPath id="n" clipPathUnits="userSpaceOnUse"><path d="M640.951 453.159h200.014V319.728H640.951z"/></clipPath><clipPath id="o" clipPathUnits="userSpaceOnUse"><path d="M640.97 568.609h199.995V435.234H640.97z"/></clipPath><clipPath id="p" clipPathUnits="userSpaceOnUse"><path d="M640.97 568.609h199.995V435.234H640.97z"/></clipPath><clipPath id="q" clipPathUnits="userSpaceOnUse"><path d="M640.968 568.611h.002v-.002h-.002z"/></clipPath><clipPath id="r" clipPathUnits="userSpaceOnUse"><path d="M640.968 568.611h.002v-.002h-.002z"/></clipPath><clipPath id="s" clipPathUnits="userSpaceOnUse"><path d="M640.97 586.462h133.308v-35.733H640.97z"/></clipPath><clipPath id="t" clipPathUnits="userSpaceOnUse"><path d="M640.97 586.462h133.308v-35.733H640.97z"/></clipPath><clipPath id="u" clipPathUnits="userSpaceOnUse"><path d="M440.886 453.107h200.065v-133.41H440.886z"/></clipPath><clipPath id="v" clipPathUnits="userSpaceOnUse"><path d="M574.271 568.567h133.307V337.611H574.271z"/></clipPath><clipPath id="w" clipPathUnits="userSpaceOnUse"><path d="M574.271 568.567h133.307V337.611H574.271z"/></clipPath><clipPath id="x" clipPathUnits="userSpaceOnUse"><path d="M640.97 568.524h66.608V453.159H640.97z"/></clipPath><clipPath id="y" clipPathUnits="userSpaceOnUse"><path d="M640.97 568.524h66.608V453.159H640.97z"/></clipPath><clipPath id="z" clipPathUnits="userSpaceOnUse"><path d="M374.17 684.094h133.419V453.093H374.17z"/></clipPath><clipPath id="A" clipPathUnits="userSpaceOnUse"><path d="M640.893 568.571h.003v-.003h-.003z"/></clipPath><clipPath id="B" clipPathUnits="userSpaceOnUse"><path d="M440.912 701.942h199.984V568.569H440.912z"/></clipPath><clipPath id="C" clipPathUnits="userSpaceOnUse"><path d="M440.912 701.942h199.984V568.569H440.912z"/></clipPath><clipPath id="D" clipPathUnits="userSpaceOnUse"><path d="M574.291 684.018h66.605V568.652h-66.605z"/></clipPath><clipPath id="E" clipPathUnits="userSpaceOnUse"><path d="M574.291 684.018h66.605V568.652h-66.605z"/></clipPath><clipPath id="F" clipPathUnits="userSpaceOnUse"><path d="M440.887 568.602h200.008V435.209H440.887z"/></clipPath><clipPath id="G" clipPathUnits="userSpaceOnUse"><path d="M440.887 568.602h200.008V435.209H440.887z"/></clipPath><clipPath id="H" clipPathUnits="userSpaceOnUse"><path d="M507.589 586.451h133.304v-35.734H507.589z"/></clipPath><clipPath id="I" clipPathUnits="userSpaceOnUse"><path d="M507.589 586.451h133.304v-35.734H507.589z"/></clipPath><clipPath id="J" clipPathUnits="userSpaceOnUse"><path d="M574.271 568.568h66.625V453.107h-66.625z"/></clipPath><clipPath id="K" clipPathUnits="userSpaceOnUse"><path d="M574.271 568.568h66.625V453.107h-66.625z"/></clipPath></defs><g clip-path="url(#a)" transform="matrix(1.33333 0 0 -1.33333 0 1256.19)"><path fill="#53b8ea" d="M166.924 54.345c-23.5 0-43.648 7.651-61.741 19.028l11.192 16.97c18.094-11.56 34.693-17.157 53.348-17.157 21.826 0 32.085 8.389 32.085 18.277 0 28.355-92.337 11.377-92.337 56.52 0 22.01 22.015 39.362 57.453 39.362 23.876 0 44.584-8.953 56.706-21.082l-13.804-14.177c-10.445 9.141-26.488 16.418-43.276 16.418-20.704 0-34.692-7.46-34.692-18.095 0-26.3 92.517-12.314 92.517-56.706 0-23.504-23.688-39.358-57.451-39.358m172.348 103.898l-23.318-51.482h47.194zm46.074-99.422L371.17 89.787h-62.678l-13.8-30.966h-23.318l58.573 124.23h19.77l59.505-124.23zm79.458.001V183.05h22.382V77.85h84.5V58.822zm220.677-4.477c-23.5 0-43.645 7.651-61.739 19.028l11.195 16.97c18.09-11.56 34.69-17.157 53.345-17.157 21.828 0 32.081 8.389 32.081 18.277 0 28.355-92.33 11.377-92.33 56.52 0 22.01 22.014 39.362 57.448 39.362 23.878 0 44.583-8.953 56.71-21.082l-13.804-14.177c-10.448 9.141-26.488 16.418-43.275 16.418-20.705 0-34.699-7.46-34.699-18.095 0-26.3 92.521-12.314 92.521-56.706 0-23.504-23.687-39.358-57.453-39.358m119.943 128.706H827.8V58.822h-22.376zm114.529-19.023v-35.633h57.826v-18.277h-57.826V58.822h-22.39V183.05h99.614v-19.023zm201.447-55.4V58.821h-22.383v49.994l-55.964 74.236h26.119l41.968-57.449 39.728 57.45h25.745zM640.935 568.592a.299.299 0 0 0-.04-.02v-.004c.014.007.027.016.04.024m.033.018h-.002l-.031-.018.033.018"/><g clip-path="url(#b)" opacity=".5"><path fill="#53b8ea" d="M640.966 568.61l-.07.042v-.081a.36.36 0 0 0 .039.02l.03.02"/></g><g clip-path="url(#c)" opacity=".4"><path fill="#53b8ea" d="M574.29 684.018c.017 46.06 23.886 90.852 66.635 115.549-39.897 22.982-90.606 24.69-133.353.013-42.74-24.68-66.614-69.444-66.66-115.486 42.764 24.667 93.484 22.938 133.378-.076"/></g><g clip-path="url(#d)" opacity=".4"><path fill="#53b8ea" d="M889.81 635.285c-12.15 21.042-29.184 37.486-48.827 48.8-.047-46.04-23.922-90.802-66.666-115.482l-.04-.02c19.648-11.316 36.687-27.763 48.838-48.81 12.149-21.042 17.873-44.016 17.85-66.683.01.007.02.01.032.017 63.789 36.826 85.639 118.387 48.813 182.179"/></g><g clip-path="url(#e)" opacity=".4"><path fill="#53b8ea" d="M689.752 750.765c12.15-21.045 17.874-44.023 17.85-66.693a.722.722 0 0 1 .036.023c42.744 24.677 93.449 22.97 133.345-.01.023 22.668-5.7 45.644-17.848 66.688-36.83 63.787-118.391 85.642-182.176 48.814a.58.58 0 0 0-.033-.02c19.642-11.315 36.677-27.76 48.826-48.802"/></g><g clip-path="url(#f)" opacity=".5"><path fill="#53b8ea" d="M640.97 568.61v.004l-.004-.003.002-.001a.003.003 0 0 0 .002 0"/></g><g clip-path="url(#g)" opacity=".5"><path fill="#53b8ea" d="M574.29 684.018c19.612-11.313 36.62-27.744 48.754-48.762 12.134-21.017 17.86-43.963 17.851-66.604l.07-.041a.014.014 0 0 1 .004.003c.05 46.027 23.913 90.777 66.633 115.459.024 22.67-5.7 45.647-17.85 66.693-12.148 21.042-29.184 37.486-48.826 48.8-42.75-24.696-66.618-69.488-66.635-115.548"/></g><g clip-path="url(#h)" opacity=".4"><path fill="#53b8ea" d="M574.29 684.018c19.612-11.313 36.62-27.744 48.754-48.762 12.134-21.017 17.86-43.963 17.851-66.604l.07-.041a.014.014 0 0 1 .004.003c.05 46.027 23.913 90.777 66.633 115.459.024 22.67-5.7 45.647-17.85 66.693-12.148 21.042-29.184 37.486-48.826 48.8-42.75-24.696-66.618-69.488-66.635-115.548"/></g><g clip-path="url(#i)" opacity=".5"><path fill="#53b8ea" d="M707.638 684.095a.348.348 0 0 0-.036-.022c-.048-46.029-23.912-90.779-66.632-115.459v-.003c42.734 24.654 93.421 22.943 133.308-.029.012.008.026.014.04.022 42.743 24.679 66.618 69.441 66.665 115.481-39.896 22.981-90.6 24.688-133.345.01"/></g><g clip-path="url(#j)" opacity=".4"><path fill="#53b8ea" d="M707.638 684.095a.348.348 0 0 0-.036-.022c-.048-46.029-23.912-90.779-66.632-115.459v-.003c42.734 24.654 93.421 22.943 133.308-.029.012.008.026.014.04.022 42.743 24.679 66.618 69.441 66.665 115.481-39.896 22.981-90.6 24.688-133.345.01"/></g><g clip-path="url(#k)" opacity=".5"><path fill="#53b8ea" d="M707.602 684.073c-42.72-24.682-66.583-69.432-66.632-115.46 42.72 24.682 66.584 69.432 66.632 115.46"/></g><g clip-path="url(#l)" opacity=".5"><path fill="#53b8ea" d="M707.602 684.073c-42.72-24.682-66.583-69.432-66.632-115.46 42.72 24.682 66.584 69.432 66.632 115.46"/></g><path fill="#53b8ea" d="M707.602 684.073c-42.72-24.682-66.583-69.432-66.632-115.46 42.72 24.682 66.584 69.432 66.632 115.46"/><g clip-path="url(#m)" opacity=".5"><path fill="#53b8ea" d="M640.935 568.592c-.013-.008-.026-.017-.04-.024l.076-.044-.001.085-.002.001-.033-.018"/></g><g clip-path="url(#n)" opacity=".4"><path fill="#53b8ea" d="M707.578 453.159c-.018-46.057-23.882-90.848-66.626-115.548 39.897-22.981 90.605-24.686 133.349-.013 42.743 24.683 66.618 69.45 66.664 115.493-42.763-24.676-93.49-22.948-133.387.068"/></g><g clip-path="url(#o)" opacity=".5"><path fill="#53b8ea" d="M774.278 568.582c-42.736-24.655-93.424-22.947-133.308.026v-.085c19.614-11.313 36.623-27.745 48.758-48.76 12.134-21.019 17.859-43.964 17.85-66.605 39.898-23.015 90.623-24.744 133.387-.068.022 22.667-5.702 45.641-17.851 66.683-12.15 21.046-29.19 37.494-48.836 48.81"/></g><g clip-path="url(#p)" opacity=".4"><path fill="#53b8ea" d="M774.278 568.582c-42.736-24.655-93.424-22.947-133.308.026v-.085c19.614-11.313 36.623-27.745 48.758-48.76 12.134-21.019 17.859-43.964 17.85-66.605 39.898-23.015 90.623-24.744 133.387-.068.022 22.667-5.702 45.641-17.851 66.683-12.15 21.046-29.19 37.494-48.836 48.81"/></g><g clip-path="url(#q)" opacity=".5"><path fill="#53b8ea" d="M640.968 568.61l.002-.001v.002l-.002-.001"/></g><g clip-path="url(#r)" opacity=".5"><path fill="#53b8ea" d="M640.968 568.61l.002-.001v.002l-.002-.001"/></g><g clip-path="url(#s)" opacity=".5"><path fill="#53b8ea" d="M640.97 568.61v-.001c39.884-22.974 90.572-24.682 133.308-.026-39.886 22.97-90.574 24.682-133.308.028"/></g><g clip-path="url(#t)" opacity=".5"><path fill="#53b8ea" d="M640.97 568.61v-.001c39.884-22.974 90.572-24.682 133.308-.026-39.886 22.97-90.574 24.682-133.308.028"/></g><path fill="#53b8ea" d="M640.97 568.61v-.001c39.884-22.974 90.572-24.682 133.308-.026-39.886 22.97-90.574 24.682-133.308.028"/><g clip-path="url(#u)" opacity=".4"><path fill="#53b8ea" d="M592.12 386.415c-12.15 21.044-17.873 44.021-17.848 66.692-.014-.007-.027-.016-.041-.025-42.742-24.68-93.447-22.972-133.344.011-.024-22.67 5.699-45.649 17.848-66.694 36.834-63.785 118.395-85.639 182.176-48.813l.04.024c-19.643 11.316-36.68 27.761-48.83 48.805"/></g><g clip-path="url(#v)" opacity=".5"><path fill="#53b8ea" d="M707.578 453.159c-19.612 11.313-36.622 27.744-48.757 48.763-12.135 21.015-17.86 43.961-17.85 66.601l-.075.044c-.046-46.028-23.906-90.778-66.624-115.46-.025-22.67 5.699-45.648 17.849-66.692 12.15-21.044 29.187-37.489 48.83-48.805 42.745 24.7 66.609 69.491 66.627 115.548"/></g><g clip-path="url(#w)" opacity=".4"><path fill="#53b8ea" d="M707.578 453.159c-19.612 11.313-36.622 27.744-48.757 48.763-12.135 21.015-17.86 43.961-17.85 66.601l-.075.044c-.046-46.028-23.906-90.778-66.624-115.46-.025-22.67 5.699-45.648 17.849-66.692 12.15-21.044 29.187-37.489 48.83-48.805 42.745 24.7 66.609 69.491 66.627 115.548"/></g><g clip-path="url(#x)" opacity=".5"><path fill="#53b8ea" d="M707.578 453.159c.009 22.64-5.716 45.586-17.85 66.604-12.135 21.016-29.144 37.448-48.757 48.76-.01-22.64 5.715-45.586 17.85-66.602 12.135-21.018 29.145-37.45 48.757-48.762"/></g><g clip-path="url(#y)" opacity=".5"><path fill="#53b8ea" d="M707.578 453.159c.009 22.64-5.716 45.586-17.85 66.604-12.135 21.016-29.144 37.448-48.757 48.76-.01-22.64 5.715-45.586 17.85-66.602 12.135-21.018 29.145-37.45 48.757-48.762"/></g><path fill="#53b8ea" d="M707.578 453.159c.009 22.64-5.716 45.586-17.85 66.604-12.135 21.016-29.144 37.448-48.757 48.76-.01-22.64 5.715-45.586 17.85-66.602 12.135-21.018 29.145-37.45 48.757-48.762"/><g clip-path="url(#z)" opacity=".4"><path fill="#53b8ea" d="M507.548 568.58a.82.82 0 0 0 .04.021c-19.64 11.315-36.676 27.76-48.825 48.804-12.15 21.044-17.873 44.02-17.851 66.69-.014-.01-.03-.017-.043-.026-63.781-36.823-85.635-118.388-48.81-182.174 12.15-21.042 29.186-37.487 48.828-48.802.049 46.042 23.924 90.807 66.66 115.486"/></g><g clip-path="url(#A)" opacity=".5"><path fill="#53b8ea" d="M640.895 568.57l-.003-.001.003-.001z"/></g><g clip-path="url(#B)" opacity=".5"><path fill="#53b8ea" d="M507.589 568.602c42.736 24.653 93.42 22.939 133.304-.033 0 0 .002 0 .003.002v.08c-19.611 11.314-36.618 27.745-48.751 48.763-12.137 21.017-17.862 43.962-17.854 66.604-39.894 23.014-90.615 24.743-133.38.076-.021-22.67 5.702-45.644 17.852-66.688 12.149-21.044 29.185-37.49 48.826-48.804"/></g><g clip-path="url(#C)" opacity=".4"><path fill="#53b8ea" d="M507.589 568.602c42.736 24.653 93.42 22.939 133.304-.033 0 0 .002 0 .003.002v.08c-19.611 11.314-36.618 27.745-48.751 48.763-12.137 21.017-17.862 43.962-17.854 66.604-39.894 23.014-90.615 24.743-133.38.076-.021-22.67 5.702-45.644 17.852-66.688 12.149-21.044 29.185-37.49 48.826-48.804"/></g><g clip-path="url(#D)" opacity=".5"><path fill="#53b8ea" d="M574.29 684.018c-.008-22.642 5.718-45.587 17.854-66.604 12.133-21.018 29.141-37.45 48.751-48.762.008 22.64-5.717 45.587-17.85 66.604-12.134 21.018-29.142 37.449-48.754 48.762"/></g><g clip-path="url(#E)" opacity=".5"><path fill="#53b8ea" d="M574.29 684.018c-.008-22.642 5.718-45.587 17.854-66.604 12.133-21.018 29.141-37.45 48.751-48.762.008 22.64-5.717 45.587-17.85 66.604-12.134 21.018-29.142 37.449-48.754 48.762"/></g><path fill="#53b8ea" d="M574.29 684.018c-.008-22.642 5.718-45.587 17.854-66.604 12.133-21.018 29.141-37.45 48.751-48.762.008 22.64-5.717 45.587-17.85 66.604-12.134 21.018-29.142 37.449-48.754 48.762"/><g clip-path="url(#F)" opacity=".5"><path fill="#53b8ea" d="M574.231 453.082a.25.25 0 0 0 .041.025c.049 46.026 23.911 90.777 66.623 115.46l-.002.001c-42.732-24.655-93.419-22.943-133.304.034l-.041-.023c-42.737-24.679-66.612-69.444-66.661-115.486 39.896-22.983 90.602-24.69 133.344-.01"/></g><g clip-path="url(#G)" opacity=".4"><path fill="#53b8ea" d="M574.231 453.082a.25.25 0 0 0 .041.025c.049 46.026 23.911 90.777 66.623 115.46l-.002.001c-42.732-24.655-93.419-22.943-133.304.034l-.041-.023c-42.737-24.679-66.612-69.444-66.661-115.486 39.896-22.983 90.602-24.69 133.344-.01"/></g><g clip-path="url(#H)" opacity=".5"><path fill="#53b8ea" d="M507.589 568.602c39.885-22.977 90.572-24.688 133.304-.033-39.884 22.972-90.568 24.686-133.304.033"/></g><g clip-path="url(#I)" opacity=".5"><path fill="#53b8ea" d="M507.589 568.602c39.885-22.977 90.572-24.688 133.304-.033-39.884 22.972-90.568 24.686-133.304.033"/></g><path fill="#53b8ea" d="M507.589 568.602c39.885-22.977 90.572-24.688 133.304-.033-39.884 22.972-90.568 24.686-133.304.033"/><g clip-path="url(#J)" opacity=".5"><path fill="#53b8ea" d="M574.271 453.108c42.718 24.682 66.58 69.432 66.624 115.46-42.712-24.684-66.575-69.435-66.624-115.46"/></g><g clip-path="url(#K)" opacity=".5"><path fill="#53b8ea" d="M574.271 453.108c42.718 24.682 66.58 69.432 66.624 115.46-42.712-24.684-66.575-69.435-66.624-115.46"/></g><path fill="#53b8ea" d="M574.271 453.108c42.718 24.682 66.58 69.432 66.624 115.46-42.712-24.684-66.575-69.435-66.624-115.46"/></g></svg>