<svg xmlns="http://www.w3.org/2000/svg" role="img" viewBox="-6.12 -6.12 317.98 83.98"><style>svg {fill-rule:evenodd;clip-rule:evenodd;stroke-linejoin:round;stroke-miterlimit:2}</style><g fill="#f64c43" fill-rule="nonzero"><path d="M90.2 49.9h.5c3.1.7 5.9 1.1 8.7 1.1 4.1 0 7.1-1 7.1-4.5 0-6.5-16.2-3.9-16.2-14.7 0-5.9 5.5-9 12.3-9 2.7 0 5.5.4 8 1.2v4.9h-.5c-2.9-.9-5.3-1.3-7.5-1.3-3.3 0-6.7.7-6.7 4.2 0 6.2 16.2 3.7 16.2 14.2 0 7.6-6.1 9.9-12.9 9.9-3.3 0-6.7-.5-9-1v-5zm76.4 4.7c-1.9.7-4 1.2-6.7 1.2-3.3 0-8.4-.7-8.4-8.3V28.4h-4.1v-4.7h4.1v-7.5l4.7-1h.5v8.5H167v4.7h-10.3v19.1c0 3.4 2.9 3.7 4.2 3.7 1.3 0 3.5-.5 5.1-1l.6 4.4zm19.5-4.7h.5c3.1.7 5.9 1.1 8.7 1.1 4.1 0 7.1-1 7.1-4.5 0-6.5-16.2-3.9-16.2-14.7 0-5.9 5.5-9 12.3-9 2.7 0 5.5.4 8 1.2v4.9h-.5c-2.9-.9-5.3-1.3-7.5-1.3-3.3 0-6.7.7-6.7 4.2 0 6.2 16.2 3.7 16.2 14.2 0 7.6-6.1 9.9-12.9 9.9-3.3 0-6.7-.5-9-1v-5zm29-26.1l4.7-1h.7v4.1c3.1-2.3 6.5-4.1 11.1-4.1 6.9 0 12.2 4.9 12.2 15.3 0 10.2-5.3 17.8-16.5 17.8-2.6 0-4.7-.3-6.9-.8v15.5l-4.7 1h-.7V23.8h.1zm5.4 26.6c2.1.3 4.3.7 7.1.7 6.5 0 10.7-4.1 10.7-12.2 0-7.5-2.5-11.3-7.8-11.3-3.1 0-6.6 1.3-9.9 4.3v18.5h-.1zm67.5 4.2l-10.7-30.9h6.1l7.5 24.3h.5l8.3-24.3h6.1L294 56.1c-2.8 8-6.3 11.9-12 15.5l-3-3.9c5.8-4.1 7.3-6.5 9.5-11.9m-15.9-1l-4.3.9h-.7v-4.4h-.2c-2.8 2.1-6.2 4.3-10.8 4.3-4.1 0-8.3-2.9-8.3-8.7 0-7.7 6.9-8.8 10.7-9.3l8.3-1.1v-2.1c0-5.3-2.5-6.8-7.1-6.8-1.7 0-6.1.5-9.6 2.1l-.6-4.9c2.9-1.1 7.5-2 11.2-2 6.6 0 11.5 2.7 11.5 11.6v20.4h-.1zm-5.3-14.3l-8.6 1.3c-2.3.3-4.8 1.3-4.8 4.9 0 2.6 1.8 4.4 4.5 4.4 2.9 0 6.3-1.9 8.9-3.7v-6.9zm-126-6.1c0-8.9-4.9-11.6-11.5-11.6-3.7 0-8.3.9-11.2 2l.6 4.9c3.5-1.6 7.9-2.1 9.6-2.1 4.6 0 7.1 1.5 7.1 6.8v2.1l-8.3 1.1c-3.7.5-10.7 1.6-10.7 9.3 0 5.7 4.3 8.7 8.3 8.7 4.6 0 8-2.2 10.8-4.3h.1v4.4h.7l4.3-.9V34.4h.2zM136 47.3c-2.6 1.9-5.9 3.7-8.9 3.7-2.7 0-4.5-1.8-4.5-4.4 0-3.6 2.5-4.5 4.8-4.9l8.6-1.3v6.9zm37.1 8.4h.1-.1zm4.7-32.9l-4.7 1v31.9h.7l4.7-1V22.8h-.7zm0-10.8l-4.7 1v5.6h.7l4.7-1V12h-.7z"/><path d="M220.5 37c0 1.5-1.2 2.7-2.7 2.7-1.5 0-2.7-1.2-2.7-2.7 0-1.5 1.2-2.7 2.7-2.7 1.5 0 2.7 1.2 2.7 2.7M57.5 1.9c.7-.7.2-1.9-.8-1.9H40l9.7 9.7 7.8-7.8zM34.1 25.2L22.2 13.3 11.4 24 .3 35.2c-.4.4-.4 1.2 0 1.6l21.8 21.8L34 46.7l-10-10-.6-.7.8-.8 9.9-10zm15.6 37.1L40 72h16.6c1 0 1.5-1.2.8-1.9l-7.7-7.8z"/><path d="M71.6 35.2L60.4 24 47.9 11.5 36.7.3c-.2-.2-.5-.3-.8-.3H15.2c-1 0-1.5 1.2-.8 1.9L48.5 36l-.8.8-11.8 11.7-11.9 12-9.6 9.5c-.7.7-.2 1.9.8 1.9h20.7c.3 0 .6-.1.8-.3l11.2-11.1 12.5-12.6 11.1-11.1c.5-.5.5-1.2.1-1.6"/></g></svg>