<svg xmlns="http://www.w3.org/2000/svg" role="img" viewBox="3.65 17.65 148.46 70.21"><title>SOFA logo</title><g fill="none" fill-rule="evenodd"><path fill="#FFF" d="M0 0h215v105H0z"/><g fill="#E873FF"><path d="M42.04 80.31454c0 .2538-.02485.50156-.06325.7448-.00452.03088-.00829.061-.01356.09113-.39763 2.2841-2.38954 4.02675-4.78511 4.02675-2.1365 0-3.9507-1.38719-4.60211-3.30605L12.3458 70.19231c-2.00622-1.15825-3.24129-3.29928-3.24129-5.61426V44.90668c.74932.25379 1.54835.39763 2.38352.39763.74932 0 1.47229-.11372 2.15458-.32007v19.5938c0 .6921.37203 1.33674.97299 1.68316l18.8716 10.89565c.8924-1.04152 2.21407-1.70499 3.69087-1.70499 1.60633 0 3.02816.78547 3.91454 1.98966.01582.02184.03238.04292.0482.06476a5.05618 5.05618 0 0 1 .17698.27036c.02183.0354.04367.07004.06476.10618.0497.0851.09564.17246.14007.26057.0241.04745.0467.0949.06854.14309.0384.08209.0738.16492.10769.24927.0241.06025.04518.1205.06702.1815.02711.0768.05347.15438.07606.2327.0226.0753.03916.15062.058.22517.01731.0708.03539.14083.04894.21237.01883.09414.03088.18903.04443.28467.00678.05799.01808.11296.02335.1702.0143.15588.02334.31253.02334.47218zm24.87972-42.46579c0 1.45873-.64765 2.76609-1.66884 3.65774v23.07156c0 2.31498-1.2343 4.456-3.24128 5.61426L44.62912 80.22643c-.01958-1.64173-.5746-3.15317-1.49488-4.3777l16.6063-9.58753c.60022-.34642.97224-.99107.97224-1.68315V42.51789c-2.02806-.5844-3.51766-2.45431-3.51766-4.66914 0-1.07842.35771-2.0725.95416-2.87905.00828-.0128.01807-.0256.02786-.0384.11221-.14912.2327-.29296.36148-.42851l.01732-.01883c.2666-.27789.56482-.52189.89015-.7305.03389-.02183.06929-.04141.10393-.06325.12878-.07682.26057-.14987.39612-.21539.03991-.01882.07983-.03916.1205-.05723.16944-.07681.34416-.1476.52414-.20333.00076 0 .00076 0 .00076-.00076.46314-.14685.9549-.22743 1.46626-.22743 2.68174 0 4.86192 2.18094 4.86192 4.86268zM9.10452 42.0826c-1.47755-.83517-2.47916-2.41891-2.47916-4.23385 0-2.68174 2.18094-4.86268 4.86268-4.86268.6951 0 1.3548.14987 1.9535.41345l20.4945-11.8325c1.00236-.57912 2.12295-.8683 3.24129-.8683 1.11984 0 2.23967.28918 3.24203.8683l17.4829 10.09437c-1.28627.86756-2.2826 2.12822-2.82934 3.60503l-16.9226-9.76904c-.29522-.17095-.63185-.26057-.973-.26057-.34039 0-.67627.08962-.97223.26057L16.2724 37.00605c.0482.27412.07757.55427.07757.8427 0 2.09207-1.3307 3.87463-3.18782 4.55919-.0143.00527-.02937.0113-.04292.01581-.14836.05196-.29672.0979-.4496.1363-.03087.00754-.061.01658-.09187.0226-.14008.03238-.28316.05799-.427.07832-.03916.00527-.07757.0128-.11748.01732-.17924.02034-.36073.03314-.54524.03314-.19806 0-.3931-.01582-.5859-.03916-.0512-.00603-.10167-.01506-.15363-.02335-.1476-.02259-.2922-.0512-.43604-.08735-.04367-.0113-.0881-.0211-.13254-.0339-.3788-.10693-.73953-.25529-1.0754-.44507z"/><path stroke="#E873FF" stroke-width=".5" d="M50.34135 60.88877H22.52738V48.54368c0-1.41395 1.15037-2.5652 2.56433-2.5652 1.41483 0 2.56607 1.15125 2.56607 2.5652v6.90833c0 .6005.48616 1.08752 1.08753 1.08752h15.37898c.59963 0 1.08666-.48703 1.08666-1.08752v-6.90833c0-1.41395 1.15036-2.5652 2.5652-2.5652 1.41483 0 2.5652 1.15125 2.5652 2.5652v12.34509zM28.94868 40.11579H43.4627c1.46807 0 2.6612 1.19314 2.6612 2.66121v1.33017c-1.79973.67294-3.08713 2.40548-3.08713 4.43651v5.82167h-13.2048v-5.82167c0-2.19949-1.5091-4.04898-3.5445-4.58052V42.777c0-1.46807 1.194-2.6612 2.6612-2.6612h0zm19.3494 3.71906V42.777c0-2.66644-2.16893-4.83626-4.83538-4.83626H28.94868c-2.66558 0-4.8354 2.16982-4.8354 4.83626v1.1303c-2.14537.45211-3.76008 2.35921-3.76008 4.63638V61.9763c0 .6005.48616 1.08666 1.08753 1.08666h3.00073l-.20598 2.9248 2.16807.15361.21733-3.07841h19.17049l.21645 3.07841 2.16895-.15362-.20599-2.9248h3.4581c.60136 0 1.08752-.48615 1.08752-1.08665V48.5437c-.00087-2.4369-1.8495-4.44787-4.21831-4.70884h0z"/></g><path fill="#050713" fill-rule="nonzero" d="M74.493 64.022v.153c0 2.601 2.448 4.08 5.627 4.08 3.026 0 5.27-1.36 5.27-3.944 0-2.82394-2.95181-3.93134-4.80357-4.58451l-.60602-.21206c-1.25169-.44538-1.74741-.71313-1.74741-1.18743 0-.442.459-.901 1.615-.901 1.377 0 2.04.765 2.04 1.411v.119h3.315v-.187c0-2.635-2.329-4.284-5.423-4.284-3.026 0-5.185 1.581-5.185 4.114 0 2.576 2.45459 3.63106 4.50082 4.32736l.37818.12664c1.598.544 2.261.884 2.261 1.445 0 .391-.408.816-1.683.816-1.547 0-2.244-.697-2.244-1.207v-.085h-3.315zm12.94243-2.652c0 3.791 3.213 6.885 7.038 6.885 3.876 0 7.038-3.094 7.038-6.885s-3.162-6.885-7.038-6.885c-3.825 0-7.038 3.094-7.038 6.885zm3.434 0c0-2.006 1.615-3.604 3.604-3.604 2.04 0 3.604 1.598 3.604 3.604 0 2.006-1.564 3.604-3.604 3.604-1.989 0-3.604-1.598-3.604-3.604zM104.08386 68h3.383v-4.539h5.423v-3.077h-5.423v-2.346h6.46V54.74h-9.843V68zm15.40742-13.26l-5.372 13.26h3.706l.731-1.938h5.219l.731 1.938h3.706l-5.355-13.26h-3.366zm3.128 8.245h-2.907l1.462-3.893 1.445 3.893z"/><path fill="#6D7A99" fill-rule="nonzero" d="M78.565 41.821h2.079v.242c-.407.594-1.067.979-1.837.979-1.298 0-2.332-1.034-2.332-2.332 0-1.298 1.034-2.332 2.332-2.332.748 0 1.408.341 1.837.88l1.793-1.21c-.825-1.078-2.156-1.793-3.63-1.793-2.486 0-4.554 2.002-4.554 4.455 0 2.453 2.068 4.455 4.554 4.455.88 0 1.749-.33 2.167-.968V45h1.727v-5.005h-4.136v1.826zm7.74557-5.401V45h2.189v-2.299h1.122l1.628 2.299h2.629l-1.859-2.596c1.155-.528 1.694-1.65 1.694-2.849 0-1.705-1.012-3.135-3.212-3.135h-4.191zm4.07 2.002c.88 0 1.21.495 1.21 1.155 0 .594-.33 1.133-1.21 1.133h-1.881v-2.288h1.881zm9.50557-2.002l-3.476 8.58h2.398l.473-1.254h3.377l.473 1.254h2.398l-3.465-8.58h-2.178zm2.024 5.335h-1.881l.946-2.519.935 2.519zM108.68771 45h2.2v-1.947h1.584c2.277 0 3.366-1.529 3.366-3.344 0-1.727-1.089-3.289-3.366-3.289h-3.784V45zm3.663-6.578c.924 0 1.265.616 1.265 1.298 0 .759-.341 1.331-1.265 1.331h-1.463v-2.629h1.463zm12.51958-2.002v3.333h-3.498V36.42h-2.189V45h2.189v-3.19h3.498V45h2.2v-8.58h-2.2zm5.61157 4.29c0 2.2 1.672 4.048 3.806 4.389 1.485.495 2.486 2.035 4.213 2.035.781 0 1.782-.319 2.398-1.166l-1.661-1.342c-.231.352-.627.385-.748.385-.374 0-.726-.198-1.122-.473 1.331-.781 2.222-2.2 2.222-3.828 0-2.453-2.046-4.455-4.554-4.455-2.475 0-4.554 2.002-4.554 4.455zm2.222 0c0-1.298 1.045-2.332 2.332-2.332 1.32 0 2.332 1.034 2.332 2.332 0 1.298-1.012 2.332-2.332 2.332-1.287 0-2.332-1.034-2.332-2.332zM143.01243 45v-8.58h2.189v6.457h4.114V45h-6.303z"/></g></svg>