<svg xmlns="http://www.w3.org/2000/svg" role="img" viewBox="-4.80 -4.80 246.86 249.86"><style>svg {enable-background:new 0 0 237.4 240.3}</style><path fill="#fff" d="M237.4 118.7c0 65.6-53.2 118.7-118.7 118.7C53.1 237.4 0 184.2 0 118.7 0 53.1 53.2 0 118.7 0s118.7 53.1 118.7 118.7"/><path fill="#00643c" d="M130.6 51.3c-1-.2-6-1-11.9-1s-10.9.8-11.9 1c-.6.1-.8-.5-.4-.8s12.3-9.4 12.3-9.4 11.9 9.1 12.3 9.4c.4.3.2.9-.4.8M110 110.1s-.6.2-.8.8c2.5 1.9 4.2 6.3 9.4 6.3s6.9-4.4 9.4-6.3c-.2-.6-.8-.8-.8-.8s-3.3.8-8.6.8-8.6-.8-8.6-.8m8.6-7.3c-1.4 0-1.8-.5-2.7-.5s-2.8.8-3.2 1.4c0 .3.2.6.4.9 2.1.3 3.1 1.5 5.5 1.5s3.4-1.2 5.5-1.5c.3-.3.4-.6.4-.9-.4-.7-2.2-1.4-3.2-1.4-.9-.1-1.2.5-2.7.5m118.6 22.4c-.2 2.8-.4 5.7-.7 8.4-13.4 2.2-18.2-9.7-32-9.2.8 2.9 1.5 5.9 2 8.9 11.4 0 15.9 10.6 28.6 9-.7 3.2-1.5 6.4-2.4 9.6-10 1-13.5-8.9-25.1-8.7.1 1.7.1 3.3.1 5 0 .9 0 1.9-.1 2.8 9.9-.1 13.1 9 22.5 8.6-1.2 3.2-2.5 6.3-3.9 9.4-6.8-.4-9.1-9-19.3-8.3-.3 2.2-.7 4.4-1.2 6.6 8.9-.6 10.8 7.6 17.2 8.2-1.6 3-3.4 5.9-5.2 8.7-3.8-2-7.1-8.1-14.2-8.5.7-2.3 1.4-4.6 1.9-6.9-6.4 0-13.6-2.5-19.7-8 2-11.3-15.5-22.7-15.5-31 0-8.9 4.5-13.9 4.5-26 0-9-4.4-18.7-10.9-25.3-1.3-1.3-2.6-2.3-4.1-3.3 6 7.5 10.7 16.3 10.7 26.6 0 11.4-5.3 17.4-5.3 27.9s15.4 19.6 15.4 30.4c0 4.3-1.4 8.4-5.8 16.6 6.9 6.9 15.9 10.6 21.7 10.6 1.9 0 2.9-.6 3.6-2 .6-1.3 1.1-2.6 1.6-3.9 6.2.2 9.1 5.9 12.5 8.2-1.9 2.5-3.9 5-6 7.4-2.3-2.6-5.4-6.9-10-8.1-.8 1.6-1.7 3.1-2.6 4.7 3.9 1.1 6.6 5 8.7 7.6-2.2 2.3-4.6 4.5-7 6.7-1.5-2.3-3.9-5.3-6.5-7l-3 3.9c2.3 1.5 4.2 4.3 5.5 6.5-2.8 2.3-5.7 4.4-8.7 6.4-1.5-12.1-17.9-20.3-13.5-34.3-1.5 2.5-3.2 5.6-3.2 9.3 0 10.1 10.8 18.2 11.6 28.2-2.2 1.3-4.5 2.6-6.9 3.8-.4-11.1-11.8-23.2-11.8-32.2 0-10.1 13.3-20.3 13.3-32.3s-15.3-20.3-15.3-30.8 6.5-16.5 6.5-30c0-9.9-4.7-19.8-11.9-26.2-1.3-1.1-2.5-2-4.1-2.8C156 78.6 160 86 160 97.3c0 12.7-7.5 19.7-7.5 32.1s15 19.3 15 30.8-14 21.3-14 33.2c0 10.8 12.3 21.6 12.5 34.4-2.7 1.2-5.4 2.3-8.2 3.2 1.6-12.9-12.3-26.3-12.3-36.9 0-11.5 14.5-21.5 14.5-33.9s-14.7-18.2-14.7-31 9.1-19.9 9.1-34c0-11-5.4-20.9-13.4-27-.2-.1-.3-.3-.5-.4-.7-.6-1.4.1-.8.8 5.6 7 8.6 14.1 8.6 24.6 0 12.9-10.4 23.4-10.4 35.9 0 14.8 14 19 14 31.1s-15 21.8-15 34.7c0 11.9 14.2 25.2 11.7 38.9-2.8.7-5.7 1.4-8.6 1.9 2.7-17.1-11.2-29.5-11.2-40.7 0-12.1 15.5-23 15.5-34.8 0-11.2-11.1-14.8-12.6-26.3-.2-1.6-1.5-2.7-3.2-2.4-2.3.4-5.2 1.9-9.7 1.9-4.6 0-7.4-1.5-9.7-1.9-1.7-.3-3 .9-3.2 2.4-1.5 11.5-12.6 15.1-12.6 26.3 0 11.9 15.5 22.7 15.5 34.8 0 11.2-13.9 23.5-11.2 40.7-2.9-.5-5.8-1.2-8.6-1.9-2.4-13.8 11.7-27 11.7-38.9 0-12.9-15-22.6-15-34.7 0-12.1 14-16.3 14-31.1 0-12.5-10.4-23-10.4-35.9 0-10.5 3-17.6 8.6-24.6.5-.7-.1-1.3-.8-.8-.2.1-.3.3-.5.4-7.9 6.1-13.4 16-13.4 27 0 14.1 9.1 21.2 9.1 34s-14.7 18.6-14.7 31 14.5 22.4 14.5 33.9c0 10.6-13.9 23.9-12.3 36.9-2.8-1-5.5-2-8.2-3.2.2-12.8 12.5-23.6 12.5-34.4 0-11.9-14-21.6-14-33.2 0-11.6 15-18.4 15-30.8s-7.5-19.4-7.5-32.1c0-11.3 4-18.7 10.8-26.9-1.5.8-2.8 1.7-4.1 2.8-7.2 6.4-11.9 16.4-11.9 26.2 0 13.5 6.5 19.5 6.5 30s-15.3 18.8-15.3 30.8 13.3 22.1 13.3 32.3c0 9.1-11.4 21.2-11.8 32.2-2.3-1.2-4.6-2.4-6.9-3.8.9-10.1 11.7-18.1 11.7-28.2 0-3.7-1.7-6.8-3.2-9.3 4.4 14-12 22.3-13.5 34.3-3-2-5.9-4.1-8.7-6.4 1.3-2.2 3.3-5 5.5-6.5-1-1.3-2.1-2.5-3-3.9-2.7 1.6-5 4.6-6.5 7-2.4-2.1-4.8-4.4-7-6.7 2.1-2.6 4.8-6.6 8.7-7.6-.9-1.5-1.8-3.1-2.6-4.7-4.6 1.2-7.7 5.5-10 8.1-2.1-2.4-4.1-4.8-6-7.4 3.5-2.3 6.3-7.9 12.6-8.2.5 1.3 1.1 2.6 1.6 3.9.7 1.5 1.7 2 3.6 2 5.8 0 14.8-3.8 21.7-10.6-4.5-8.2-5.8-12.3-5.8-16.6 0-10.8 15.4-19.9 15.4-30.4s-5.3-16.5-5.3-27.9c0-10.3 4.6-19.1 10.7-26.6-1.5.9-2.8 2-4.1 3.3-6.6 6.6-10.9 16.4-10.9 25.3 0 12.1 4.5 17 4.5 26 0 8.3-17.5 19.7-15.5 31-6.1 5.6-13.4 8-19.8 8 .6 2.3 1.2 4.6 1.9 6.9-7.2.4-10.5 6.5-14.2 8.5-1.9-2.8-3.6-5.7-5.2-8.7 6.4-.7 8.3-8.9 17.2-8.2-.5-2.2-.9-4.4-1.2-6.6-10.3-.7-12.6 8-19.3 8.3-1.4-3.1-2.7-6.2-3.9-9.4 9.4.4 12.6-8.7 22.4-8.6v-2.8c0-1.7.1-3.3.1-5-11.6-.3-15.1 9.7-25.1 8.7-.9-3.1-1.7-6.3-2.4-9.6 12.6 1.6 17.2-9.1 28.6-9 .5-3 1.2-6 2-8.9-13.8-.6-18.6 11.4-32 9.2-.4-2.8-.6-5.6-.8-8.4 15.6 1.7 21.5-11.1 35.7-9.5 1.3-3.4 2.9-6.7 4.7-9.9-17.8-3.1-23.9 11.8-40.5 9.5C1.7 51.3 54.2 0 118.6 0c64.5 0 116.9 51.3 118.7 115.4-16.6 2.3-22.7-12.6-40.5-9.5 1.8 3.2 3.3 6.5 4.7 9.9 14.2-1.7 20 11.2 35.7 9.4M67.6 75.4c-8.7-3.6-19.3-2.7-28.4 3.1-1.4-8.4-6-15.9-12.5-20.4-.9-.6-1.8 0-1.8 1 1.4 17.8-9 33.2-21.8 46.8 13.2 4 24.4-13 41.4-7.1 6.3-9.1 14.1-17.1 23.1-23.4m51-10.7c-11 0-20.3 6.2-22.7 14.3-.2.6.1 1 .8.7 2-.9 4.2-1.3 6.7-1.3 4.5 0 8.5 1.7 10.8 4.5 1 3.4 1.1 8.4-.1 11.2-1.8-.4-2.5-1.8-4.3-1.8s-3.2 1.3-6.3 1.3-3.4-1.5-5.4-1.5c-2.4 0-2.8 2.4-2.8 5.2 0 12.3 11.3 29.2 23.3 29.2s23.3-16.9 23.3-29.2c0-2.8-.6-5.1-3-5.4-1.2.9-2.4 1.7-5.2 1.7-3.1 0-3.9-1.3-5.7-1.3-2.2 0-2 4.6-4.6 4.9-1.7-4.1-1.8-9.5-.4-14.2 2.3-2.9 6.3-4.5 10.8-4.5 2.4 0 4.7.4 6.7 1.3.7.3 1-.1.8-.7-2.4-8.2-11.7-14.4-22.7-14.4m17.6 17.6c-2.7 0-5.7.8-7.7 3-.2.6-.2 1.5.1 2 4.8-1.6 9-1.7 11.1.6 1.1-1 1.4-1.9 1.4-2.9 0-1.6-1.7-2.7-4.9-2.7m-38.6 5.6c2.3-2.3 7.2-2.2 12.2-.4.2-2.5-4.3-5.3-8.8-5.3-3.3 0-4.9 1.1-4.9 2.7.1 1.1.4 2 1.5 3m76-41.6c-8.7.6-16.3 3.6-22.4 8.6 2.6-7.4 5.9-13.8 10.1-20-11.1 1.2-20.3 5.2-27.1 12.2l-5.3-13.9 11.7-10.4-15.7-1.1-6.3-14.6-6.3 14.6-15.7 1.1 11.7 10.4-5.3 13.9c-6.8-6.9-16-11-27.1-12.2 4.2 6.2 7.5 12.7 10.1 20-6.1-5-13.7-8-22.4-8.6 5.2 6.7 9.8 13.9 13.3 21.6.4.9 1.2 1.2 2.1.7 11.9-5.9 25.3-9.3 39.6-9.3 14.2 0 27.6 3.3 39.6 9.3.9.5 1.7.2 2.1-.7 3.4-7.7 8.1-14.9 13.3-21.6m19 52.5c17.1-5.9 28.3 11 41.5 7.1-12.8-13.6-23.2-29-21.8-46.8.1-1-.9-1.6-1.7-1-6.5 4.5-11.1 12-12.5 20.4-9-5.8-19.6-6.6-28.4-3.1 9 6.3 16.7 14.3 22.9 23.4m-2.2 141.5h-1.8v-11.4h-4.2v-1.6h10.3v1.6h-4.3zm12.8-3h.1l3.9-10h2.8v13h-1.8v-10.9h-.1l-4.3 10.9h-1.2l-4.4-10.9v10.9h-1.8v-13h2.9z"/></svg>