<svg xmlns="http://www.w3.org/2000/svg" role="img" viewBox="-2.30 -2.30 119.86 40.48"><title>Stellate (adopter) logo</title><g clip-path="url(#stellate-logo)"><path fill="#4568A5" fill-rule="evenodd" d="M30.21 28.318l.024-.015a2.55 2.55 0 0 0 .933-3.375l-2.905-5.536L6.382 30.98l7.827 4.539a3.573 3.573 0 0 0 3.584 0l12.416-7.2zM3.94 22.346L21.494 2.628 17.792.482a3.573 3.573 0 0 0-3.584 0l-12.416 7.2A3.612 3.612 0 0 0 0 10.8v2.7c0 1.67.35 3.32 1.03 4.845a11.862 11.862 0 0 0 2.91 4v.002z" clip-rule="evenodd"/><path fill="#608BD8" fill-rule="evenodd" d="M30.208 7.682l-.419-.243-10.016 9.25 8.4 7.313c1.325 1.152 1.816 2.833 1.304 4.743l.731-.424a3.592 3.592 0 0 0 1.313-1.32c.315-.548.48-1.17.48-1.802v-14.4a3.612 3.612 0 0 0-1.793-3.117zM15.57 20.637L3.996 11.67c-1.304-1.016-1.893-2.536-1.625-4.322l-.579.335A3.612 3.612 0 0 0 0 10.8v14.4c0 .633.164 1.255.479 1.803a3.591 3.591 0 0 0 1.313 1.32l3.315 1.922 10.463-9.608z" clip-rule="evenodd"/><path fill="#3B4C6A" d="M48.424 26.264c3.432 0 5.324-1.892 5.324-4.4 0-5.544-8.052-3.828-8.052-7.172 0-1.166.902-2.046 2.552-2.046 1.628 0 2.64 1.056 2.728 2.552h2.552c-.132-2.728-2.134-4.862-5.28-4.862-3.212 0-5.104 1.87-5.104 4.312 0 5.478 8.052 3.872 8.052 7.282 0 1.122-.902 2.024-2.75 2.024-1.892 0-2.948-1.1-3.102-2.684h-2.552c.132 2.882 2.222 4.994 5.632 4.994zm11.67 0c.593 0 1.033-.11 1.32-.22v-2.2c-.22.11-.485.154-.77.154-.99 0-1.65-.572-1.65-1.804v-5.148h2.42v-2.178h-2.42v-2.86h-2.09v1.672c0 .858-.463 1.32-1.343 1.32h-.791v2.046h1.825v5.346c0 2.442 1.474 3.872 3.498 3.872zm13.437-6.072c0-3.168-2.332-5.588-5.302-5.588-2.992 0-5.5 2.574-5.5 5.83 0 3.3 2.442 5.83 5.522 5.83 2.442 0 4.268-1.738 4.884-3.344h-2.508c-.396.572-1.144 1.166-2.398 1.166-1.584 0-2.772-1.012-3.08-2.706h8.25c.066-.242.132-.66.132-1.188zm-5.302-3.41c1.496 0 2.684 1.122 2.948 2.772h-6.028c.308-1.694 1.562-2.772 3.08-2.772zM78.207 26V10.6h-2.42V26h2.42zm5.436 0V10.6h-2.42V26h2.42zm7.086-11.396c-2.684 0-4.202 1.782-4.4 3.652h2.42c.132-.726.748-1.474 1.958-1.474 1.254 0 2.068.814 2.068 2.156v.374h-1.782c-3.058 0-5.17 1.408-5.17 3.63 0 1.826 1.562 3.322 3.74 3.322 1.782 0 2.816-.946 3.256-1.518h.11l.44 1.254h1.804v-6.864c0-2.706-1.716-4.532-4.444-4.532zm-.66 9.614c-1.21 0-1.826-.616-1.826-1.474 0-1.012.88-1.694 2.772-1.694h1.76v.704c0 1.32-1.056 2.464-2.706 2.464zm11.833 2.046c.594 0 1.034-.11 1.32-.22v-2.2c-.22.11-.484.154-.77.154-.99 0-1.65-.572-1.65-1.804v-5.148h2.42v-2.178h-2.42v-2.86h-2.09v1.672c0 .858-.462 1.32-1.342 1.32h-.792v2.046h1.826v5.346c0 2.442 1.474 3.872 3.498 3.872zm13.438-6.072c0-3.168-2.332-5.588-5.302-5.588-2.992 0-5.5 2.574-5.5 5.83 0 3.3 2.442 5.83 5.522 5.83 2.442 0 4.268-1.738 4.884-3.344h-2.508c-.396.572-1.144 1.166-2.398 1.166-1.584 0-2.772-1.012-3.08-2.706h8.25c.066-.242.132-.66.132-1.188zm-5.302-3.41c1.496 0 2.684 1.122 2.948 2.772h-6.028c.308-1.694 1.562-2.772 3.08-2.772z"/></g><defs><clipPath id="stellate-logo"><path fill="#fff" d="M0 0h116v36H0z"/></clipPath></defs></svg>