<svg xmlns="http://www.w3.org/2000/svg" role="img" viewBox="-19.66 -16.66 1438.32 382.32"><title>StepZen (member) logo</title><style>svg {enable-background:new 0 0 1400 350}</style><style>.st1{fill:#00b1c9}</style><g><g><path fill="#1a3560" d="M348 220.3c17.5 10.5 40 18.9 57.5 18.9 23.6 0 36.4-12.7 36.4-36 0-50.9-98.2-27.3-98.2-106.2 0-41.5 24.7-65.5 67.3-65.5 23.3 0 43.3 6.5 61.1 17.1l-10.9 26.2c-15.3-8.7-31.6-14.2-47.6-14.2-22.2 0-35.3 11.3-35.3 35.6 0 51.6 98.2 31.3 98.2 104.4 0 38.9-20.4 67.6-70.9 67.6-19.6 0-46.5-8-67.3-20.7L348 220.3zM516 117.8l-27.3-1.5V93.8h28l3.3-58.5h27.3v58.5H592l-4.4 24h-40.4V205c0 24.4 6.9 35.3 22.2 35.3 8.7 0 15.3-2.2 23.6-6.5l6.2 25.1c-12 5.8-21.5 9.5-37.5 9.5-34.2 0-45.8-24.7-45.8-58.5V117.8zM684.4 90.1c41.1 0 61.5 33.8 61.5 91.3l-1.8 4h-94.2c1.5 35.3 14.5 54.9 43.6 54.9 13.8 0 29.5-5.1 41.1-12.4l8 25.5c-15.6 9.5-32 14.9-52.4 14.9-50.2 0-73.5-36.7-73.5-88.7C616.7 123.2 642.9 90.1 684.4 90.1zM714.9 162.9c-1.5-29.5-10.5-45.8-29.8-45.8-19.6 0-32.4 16-34.9 45.8H714.9zM811.6 338.9h-31.3V93.8h26.5l2.2 26.2c8.7-18.2 24.4-29.8 46.5-29.8 33.1 0 56.4 33.1 56.4 87.6 0 56-25.8 90.5-67.6 90.5-12 0-24-3.3-32.7-10.9V338.9zM841.5 240.3c20.7 0 37.5-20.7 37.5-61.5 0-40.4-14.2-60.7-30.5-60.7-18.9 0-30.5 15.6-36.7 36v73.1C819.3 236 829.8 240.3 841.5 240.3zM937.1 254.9l94.2-190.5h-88.4l-.7-29.1h132.4v11.3l-94.2 189.1h96.7v29.1h-140V254.9zM1169.8 90.1c41.1 0 61.5 33.8 61.5 91.3l-1.8 4h-94.2c1.5 35.3 14.5 54.9 43.6 54.9 13.8 0 29.5-5.1 41.1-12.4l8 25.5c-15.6 9.5-32 14.9-52.4 14.9-50.2 0-73.5-36.7-73.5-88.7C1102.2 123.2 1128.4 90.1 1169.8 90.1zM1200.4 162.9c-1.5-29.5-10.5-45.8-29.8-45.8-19.6 0-32.4 16-34.9 45.8H1200.4zM1265.8 93.8h26.5l2.2 26.9c9.5-18.9 27.3-30.5 47.3-30.5 33.8 0 49.5 24.7 49.5 66.5v108H1360V161.8c0-30.2-9.1-43.6-25.8-43.6-17.8 0-30.2 17.1-37.1 36v110.5h-31.3V93.8z"/></g><g><g><path d="M118.6,115.6c0-3.6,0.7-7.1,2.1-10.4c1.3-3.2,3.3-6.1,5.7-8.5c2.5-2.5,5.3-4.4,8.5-5.7 c3.3-1.4,6.8-2.1,10.4-2.1H156l24.7-24.7h-35.3c-6.9,0-13.7,1.4-20,4c-6.1,2.6-11.6,6.3-16.4,11c-4.7,4.7-8.4,10.2-11,16.4 c-2.7,6.4-4,13.1-4,20v35.3l24.7-24.7V115.6z" class="st1"/></g><path d="M286.1,11.1c0,0,0,13.2,0,13.2c0,1.9-0.5,3.9-1.6,5.4c-1.5,2.2-2.8,3.5-4.3,5c-3.4,3.4-6.8,6.5-10.2,9.9 c-3.2,3.2-6.4,6.4-9.5,9.5c-3,3-5.9,5.9-8.9,8.9c-1.8,1.8-3.6,3.6-5.4,5.4c0,0,0,0,0,0c-86.7,86.7-105.9,105.9-106,106l0,0v0 L51,263.7h101.8c10.4,0,20.4-2,29.9-6c4.5-1.9,8.9-4.3,13-7.1c4.1-2.7,7.9-5.9,11.4-9.4c3.5-3.5,6.6-7.3,9.4-11.4 c2.8-4.1,5.2-8.5,7.1-13c4-9.5,6-19.5,6-29.9v-66.8l24.7-24.7V187c0,6.9-0.7,13.7-2.1,20.4c-1.3,6.5-3.3,12.9-5.9,19.1 c-2.5,6-5.7,11.8-9.4,17.2c-3.6,5.4-7.8,10.4-12.4,15c-4.6,4.6-9.6,8.8-15,12.4c-5.4,3.7-11.2,6.8-17.2,9.4 c-6.1,2.6-12.5,4.6-19.1,5.9c-6.7,1.4-13.6,2.1-20.4,2.1H40.4v0H8.7c0,0,0-13.2,0-13.2c0-1.6,0.4-3.2,1.1-4.6 c1-1.9,2.6-3.9,4.2-5.4c10-9.9,3.5-3.4,5.2-5.1c3.3-3.3,0,0.1,9.9-9.6c3.1-3.1,6.2-6.2,9.3-9.3c2.9-2.9,5.8-5.8,8.6-8.6 c2.7-2.7,5.4-5.4,8-8c2.5-2.5,5-5,7.4-7.4c2.3-2.3,4.6-4.6,6.9-6.9c2.1-2.1,4.2-4.2,6.3-6.3c1.9-1.9,3.9-3.9,5.8-5.8 c1.8-1.8,3.5-3.5,5.3-5.3c1.6-1.6,3.2-3.2,4.8-4.8c1.5-1.5,2.9-2.9,4.4-4.4c1.3-1.3,2.6-2.6,3.9-3.9c1.2-1.2,2.4-2.4,3.5-3.5 c1.1-1.1,2.1-2.1,3.2-3.2c0.9-0.9,1.9-1.9,2.8-2.8c0.8-0.8,1.6-1.6,2.4-2.4c0.7-0.7,1.4-1.4,2.1-2.1c0.6-0.6,1.2-1.2,1.8-1.8 c0.5-0.5,1-1,1.6-1.6c0.4-0.4,0.9-0.9,1.3-1.3c0.4-0.4,0.7-0.7,1.1-1.1c0.3-0.3,0.6-0.6,0.9-0.9c0.2-0.2,0.5-0.5,0.7-0.7 c0.2-0.2,0.3-0.3,0.5-0.5c0.1-0.1,0.2-0.2,0.4-0.4c0.1-0.1,0.1-0.1,0.2-0.2l2.1-2.1L243.9,35.9l0,0l0,0H142.1 c-10.4,0-20.4,2-29.9,6c-4.5,1.9-8.9,4.3-13,7.1c-4.1,2.7-7.9,5.9-11.4,9.4c-3.5,3.5-6.6,7.3-9.4,11.4c-2.8,4.1-5.2,8.5-7.1,13 c-4,9.5-6,19.5-6,29.9v66.8l-24.7,24.7v-91.5c0-6.9,0.7-13.8,2.1-20.4c1.3-6.5,3.3-12.9,5.9-19.1c2.5-6,5.7-11.8,9.4-17.2 c3.6-5.4,7.8-10.4,12.4-15c4.6-4.6,9.6-8.8,15-12.4c5.4-3.7,11.2-6.8,17.2-9.4c6.1-2.6,12.5-4.6,19.1-5.9 c6.7-1.4,13.6-2.1,20.4-2.1h112.4v0H286.1z" class="st1"/><path d="M176.2,184c0,3.6-0.7,7.1-2.1,10.4c-1.3,3.2-3.3,6.1-5.7,8.5c-2.5,2.5-5.3,4.4-8.5,5.7 c-3.3,1.4-6.8,2.1-10.4,2.1h-10.6l-24.7,24.7h35.3c6.9,0,13.7-1.4,20-4c6.1-2.6,11.6-6.3,16.4-11c4.7-4.7,8.4-10.2,11-16.4 c2.7-6.4,4-13.1,4-20v-35.3l-24.7,24.7V184z" class="st1"/></g></g></svg>