<svg xmlns="http://www.w3.org/2000/svg" role="img" viewBox="-19.66 -16.66 1438.32 382.32"><title>StepZen, Inc. (member) logo</title><style>svg {enable-background:new 0 0 1400 350}</style><style>.st1{fill:#00b1c9}</style><path fill="#1a3560" d="M348 220.3c17.5 10.5 40 18.9 57.5 18.9 23.6 0 36.4-12.7 36.4-36 0-50.9-98.2-27.3-98.2-106.2 0-41.5 24.7-65.5 67.3-65.5 23.3 0 43.3 6.5 61.1 17.1l-10.9 26.2c-15.3-8.7-31.6-14.2-47.6-14.2-22.2 0-35.3 11.3-35.3 35.6 0 51.6 98.2 31.3 98.2 104.4 0 38.9-20.4 67.6-70.9 67.6-19.6 0-46.5-8-67.3-20.7l9.7-27.2zm168-102.5l-27.3-1.5V93.8h28l3.3-58.5h27.3v58.5H592l-4.4 24h-40.4V205c0 24.4 6.9 35.3 22.2 35.3 8.7 0 15.3-2.2 23.6-6.5l6.2 25.1c-12 5.8-21.5 9.5-37.5 9.5-34.2 0-45.8-24.7-45.8-58.5v-92.1zm168.4-27.7c41.1 0 61.5 33.8 61.5 91.3l-1.8 4h-94.2c1.5 35.3 14.5 54.9 43.6 54.9 13.8 0 29.5-5.1 41.1-12.4l8 25.5c-15.6 9.5-32 14.9-52.4 14.9-50.2 0-73.5-36.7-73.5-88.7 0-56.4 26.2-89.5 67.7-89.5zm30.5 72.8c-1.5-29.5-10.5-45.8-29.8-45.8-19.6 0-32.4 16-34.9 45.8h64.7zm96.7 176h-31.3V93.8h26.5L809 120c8.7-18.2 24.4-29.8 46.5-29.8 33.1 0 56.4 33.1 56.4 87.6 0 56-25.8 90.5-67.6 90.5-12 0-24-3.3-32.7-10.9v81.5zm29.9-98.6c20.7 0 37.5-20.7 37.5-61.5 0-40.4-14.2-60.7-30.5-60.7-18.9 0-30.5 15.6-36.7 36v73.1c7.5 8.8 18 13.1 29.7 13.1zm95.6 14.6l94.2-190.5h-88.4l-.7-29.1h132.4v11.3l-94.2 189.1h96.7v29.1h-140v-9.9zm232.7-164.8c41.1 0 61.5 33.8 61.5 91.3l-1.8 4h-94.2c1.5 35.3 14.5 54.9 43.6 54.9 13.8 0 29.5-5.1 41.1-12.4l8 25.5c-15.6 9.5-32 14.9-52.4 14.9-50.2 0-73.5-36.7-73.5-88.7.1-56.4 26.3-89.5 67.7-89.5zm30.6 72.8c-1.5-29.5-10.5-45.8-29.8-45.8-19.6 0-32.4 16-34.9 45.8h64.7zm65.4-69.1h26.5l2.2 26.9c9.5-18.9 27.3-30.5 47.3-30.5 33.8 0 49.5 24.7 49.5 66.5v108H1360V161.8c0-30.2-9.1-43.6-25.8-43.6-17.8 0-30.2 17.1-37.1 36v110.5h-31.3V93.8z"/><path d="M118.6 115.6c0-3.6.7-7.1 2.1-10.4 1.3-3.2 3.3-6.1 5.7-8.5 2.5-2.5 5.3-4.4 8.5-5.7 3.3-1.4 6.8-2.1 10.4-2.1H156l24.7-24.7h-35.3c-6.9 0-13.7 1.4-20 4-6.1 2.6-11.6 6.3-16.4 11-4.7 4.7-8.4 10.2-11 16.4-2.7 6.4-4 13.1-4 20v35.3l24.7-24.7v-10.6z" class="st1"/><path d="M286.1 11.1v13.2c0 1.9-.5 3.9-1.6 5.4-1.5 2.2-2.8 3.5-4.3 5-3.4 3.4-6.8 6.5-10.2 9.9l-9.5 9.5-8.9 8.9-5.4 5.4-106 106L51 263.7h101.8c10.4 0 20.4-2 29.9-6 4.5-1.9 8.9-4.3 13-7.1 4.1-2.7 7.9-5.9 11.4-9.4s6.6-7.3 9.4-11.4c2.8-4.1 5.2-8.5 7.1-13 4-9.5 6-19.5 6-29.9v-66.8l24.7-24.7V187c0 6.9-.7 13.7-2.1 20.4-1.3 6.5-3.3 12.9-5.9 19.1-2.5 6-5.7 11.8-9.4 17.2-3.6 5.4-7.8 10.4-12.4 15-4.6 4.6-9.6 8.8-15 12.4-5.4 3.7-11.2 6.8-17.2 9.4-6.1 2.6-12.5 4.6-19.1 5.9-6.7 1.4-13.6 2.1-20.4 2.1H8.7v-13.2c0-1.6.4-3.2 1.1-4.6 1-1.9 2.6-3.9 4.2-5.4 10-9.9 3.5-3.4 5.2-5.1 3.3-3.3 0 .1 9.9-9.6l9.3-9.3 8.6-8.6 8-8 7.4-7.4 6.9-6.9 6.3-6.3 5.8-5.8 5.3-5.3 4.8-4.8 4.4-4.4 3.9-3.9 3.5-3.5 3.2-3.2 2.8-2.8 2.4-2.4 2.1-2.1 1.8-1.8 1.6-1.6 1.3-1.3 1.1-1.1.9-.9.7-.7.5-.5.4-.4.2-.2 2.1-2.1L243.9 35.9H142.1c-10.4 0-20.4 2-29.9 6-4.5 1.9-8.9 4.3-13 7.1-4.1 2.7-7.9 5.9-11.4 9.4s-6.6 7.3-9.4 11.4c-2.8 4.1-5.2 8.5-7.1 13-4 9.5-6 19.5-6 29.9v66.8l-24.7 24.7v-91.5c0-6.9.7-13.8 2.1-20.4 1.3-6.5 3.3-12.9 5.9-19.1 2.5-6 5.7-11.8 9.4-17.2 3.6-5.4 7.8-10.4 12.4-15 4.6-4.6 9.6-8.8 15-12.4 5.4-3.7 11.2-6.8 17.2-9.4 6.1-2.6 12.5-4.6 19.1-5.9 6.7-1.4 13.6-2.1 20.4-2.1h144z" class="st1"/><path d="M176.2 184c0 3.6-.7 7.1-2.1 10.4-1.3 3.2-3.3 6.1-5.7 8.5-2.5 2.5-5.3 4.4-8.5 5.7-3.3 1.4-6.8 2.1-10.4 2.1h-10.6l-24.7 24.7h35.3c6.9 0 13.7-1.4 20-4 6.1-2.6 11.6-6.3 16.4-11 4.7-4.7 8.4-10.2 11-16.4 2.7-6.4 4-13.1 4-20v-35.3l-24.7 24.7V184z" class="st1"/></svg>