<svg xmlns="http://www.w3.org/2000/svg" role="img" viewBox="-5.59 -5.59 290.42 77.92"><g fill="none" fill-rule="evenodd"><path fill="#0C8" d="M272.81707 18.87853v1.37107c-.61134-.51333-1.24414-.9604-1.8956-1.37107-2.4528-1.53906-5.22947-2.38373-8.2992-2.49013-.21747-.00933-.434-.01307-.64867-.01307-1.02853 0-2.03093.0952-2.99787.26974-2.01133.364-3.89293 1.11533-5.6336 2.23346-1.09573.70187-2.13826 1.53254-3.12106 2.52654-3.4384 3.44026-5.18187 7.63466-5.18187 12.46933 0 4.66107 1.60907 8.72013 4.77867 12.0624 2.57413 2.71133 5.64946 4.368 9.15786 4.9812.854.1456 1.72854.2548 2.6404.2772.21747.0112.44147.014.66734.014 4.43893 0 8.42146-1.6688 11.83093-4.97093 3.5252-3.46734 5.25-7.65147 5.13707-12.42267V1.18067C279.25147.5292 278.7232 0 278.0708 0h-4.07307c-.65146 0-1.18066.52827-1.18066 1.18067v17.69786zm-3.26947 22.7276c-2.00293 2.14014-4.35493 3.1808-7.20627 3.1808-.18386 0-.37893-.0056-.59453-.0168-.9828-.0364-1.90027-.1932-2.77107-.4704-1.6828-.52453-3.17333-1.49986-4.4912-2.95306-2.01786-2.20547-3.01-4.82534-2.9568-7.78027.04854-3.02213 1.092-5.51227 3.18174-7.60853 1.27773-1.27774 2.70293-2.15974 4.26626-2.66.9912-.31547 2.03094-.47787 3.1248-.47787l.20627.00187c2.88307 0 5.24813 1.0192 7.252 3.1136 2.07013 2.17653 3.10427 4.6536 3.15093 7.602.09894 3.10706-.93053 5.7372-3.16213 8.06866z"/><path fill="#0C8" d="M249.41 19.0624c.1344-.1204.20253-.29773.18387-.47787-.01867-.18013-.12134-.3388-.2772-.43026-1.91614-1.11627-4.14214-1.7584-6.51467-1.7584-2.4808 0-4.802.70093-6.776 1.91333v-.73267c0-.65146-.52827-1.18066-1.18067-1.18066h-3.85c-.65146 0-1.18066.52826-1.18066 1.18066V49.938c0 .65147.52826 1.18067 1.18066 1.18067h3.85c.65147 0 1.18067-.52827 1.18067-1.18067V29.38133c0-3.73613 3.03987-6.77506 6.776-6.77506.91187 0 1.77987.18106 2.57413.50866.24827.10267.532.0168.68227-.20626.73173-1.08267 1.58107-2.11587 2.5564-3.0912.25667-.25947.5236-.51054.7952-.75507zm-23.44533 14.756c.1764-4.6032-1.3944-8.65293-4.66854-12.04373-3.206-3.38334-7.20813-5.1884-11.88693-5.36294-4.86733-.18386-9.04213 1.4952-12.4488 4.95974-3.43373 3.43653-5.1828 7.62813-5.1828 12.45906 0 4.61254 1.62587 8.67067 4.83467 12.05867 3.17706 3.34413 7.12133 5.12587 11.73573 5.30507.21373.00653.4172.0112.6272.0112 4.02173 0 7.58053-1.31414 10.6204-3.90507v2.7244c0 .65147.52827 1.18067 1.18067 1.18067h4.00866c.65147 0 1.18067-.52827 1.18067-1.18067V33.8184h-.00093zm-9.70294 7.77467c-2.0524 2.142-4.41186 3.18453-7.23333 3.18453-.1792 0-.36867-.01307-.55253-.02147-2.9036-.1456-5.29014-1.2796-7.28094-3.4692-1.99826-2.1952-2.95026-4.74133-2.89893-7.77093.04853-3.024 1.09107-5.51787 3.1892-7.60853 2.10747-2.1056 4.59013-3.1332 7.58707-3.1332 2.87466 0 5.2444 1.02106 7.2408 3.11546 2.07573 2.17094 3.10146 4.648 3.1556 7.57027.04853 3.1696-1.00147 5.82213-3.20694 8.13307z"/><path fill="#262F3D" d="M117.78607 44.72567c-.1372-.20627-.39574-.2968-.63467-.22587-.23893.07093-.40133.29027-.40133.5376v20.62107c0 .64866.52826 1.17413 1.1816 1.17413h4.42026c.6524 0 1.1816-.52453 1.1816-1.17413v-14.658c0-.38454-.18946-.74574-.50773-.966-2.06547-1.4224-3.8472-3.22747-5.23973-5.3088z"/><path fill="#332F3D" d="M180.49113 28.3578c-1.88626-3.08093-5.29666-5.14267-9.184-5.14267-2.64693 0-5.1884.96227-7.15866 2.71414-.36867.32666-.71867.6832-1.0388 1.05933l-14.91374 17.46547c-.66546.8624-1.4112 1.66786-2.23906 2.40426-3.2144 2.85694-7.364 4.4296-11.68067 4.4296-9.66373 0-17.5252-7.80733-17.5252-17.4048 0-9.59746 7.86147-17.4048 17.5252-17.4048 5.166 0 10.04453 2.24747 13.384 6.16654l3.5196 4.1328c.17827.21.17827.51613 0 .7252l-3.7072 4.34186c-.1064.126-.26507.1988-.4312.19694-.16613 0-.3248-.07094-.43213-.1988l-4.1244-4.84027-.00467-.0056c-2.04867-2.40427-5.03813-3.7828-8.20493-3.7828-5.92294 0-10.74267 4.7852-10.74267 10.668s4.81973 10.668 10.74267 10.668c2.646 0 5.1884-.96413 7.1568-2.71413.20253-.17827 17.59333-20.39707 18.19253-20.92907 3.21533-2.85693 7.364-4.4296 11.6816-4.4296 7.32013 0 13.60333 4.4828 16.22227 10.82667.1484.36306.1064.77466-.11294 1.09946-.2184.3248-.58706.51987-.98093.51987h-4.9336c-.41347-.00093-.79707-.21467-1.00987-.5656z"/><path fill="#0C8" d="M171.30713 51.28793c-5.166 0-10.04453-2.24933-13.384-6.1684l-3.53826-4.15053c-.17734-.21-.17734-.51613.00093-.7252l3.7072-4.34187c.10733-.126.26507-.1988.43213-.19693.16614 0 .32387.07093.43027.1988l4.1468 4.86547c2.0468 2.4024 5.03813 3.7828 8.20493 3.7828 3.88734 0 7.2968-2.0636 9.184-5.14454.21374-.35.59827-.56466 1.00987-.56466h4.93453c.39387 0 .7616.19506.98094.51986.22026.32667.26133.73827.11293 1.09947-2.61893 6.34293-8.90213 10.82573-16.22227 10.82573z"/><path fill="#262F3D" d="M113.09573 33.8184c.17547-4.6032-1.39813-8.65293-4.66853-12.04373-3.2116-3.38707-7.2128-5.19027-11.89253-5.36294-4.8524-.18386-9.0384 1.4952-12.44507 4.95974-3.43653 3.43653-5.17907 7.62813-5.17907 12.45906 0 4.61254 1.62587 8.67067 4.83094 12.05867 3.17333 3.34413 7.11946 5.12587 11.73386 5.30507.21187.00653.42094.0112.63094.0112 4.01706 0 7.5768-1.31414 10.61666-3.90507v2.7244c0 .65147.52827 1.18067 1.18067 1.18067h4.01427c.65146 0 1.18066-.52827 1.18066-1.18067V33.992l-.0028-.1736zm-16.8784-11.0376c2.8784 0 5.24814 1.02107 7.2436 3.11547 2.072 2.1728 3.1052 4.648 3.15094 7.57026.0532 3.1696-.99494 5.82214-3.20414 8.13214-2.04586 2.14386-4.41093 3.1864-7.2268 3.1864-.182 0-.3696-.0056-.55253-.0196-2.9092-.1456-5.29387-1.28334-7.2856-3.47107-2.00293-2.1952-2.95027-4.74133-2.89707-7.77093.04854-3.024 1.092-5.51414 3.18547-7.60854 2.1084-2.1056 4.59293-3.13413 7.58613-3.13413zm-26.08013-6.384c-.65147 0-1.18067.52827-1.18067 1.18067v20.55666c0 3.7352-3.03893 6.77507-6.77506 6.77507-3.73614 0-6.77507-3.03987-6.77507-6.77507V17.57747c0-.65147-.52827-1.18067-1.18067-1.18067h-3.85c-.65146 0-1.18066.52827-1.18066 1.18067v20.55666c0 3.7352-3.03987 6.77507-6.776 6.77507-3.7352 0-6.776-3.03987-6.776-6.77507V17.57747c0-.65147-.52827-1.18067-1.18067-1.18067h-3.84907c-.65146 0-1.18066.52827-1.18066 1.18067v20.55666c0 7.16054 5.82493 12.98547 12.98546 12.98547 3.95267 0 7.49654-1.77707 9.88027-4.5724 2.38467 2.79533 5.92853 4.5724 9.8812 4.5724 7.16053 0 12.98547-5.82493 12.98547-12.98547V17.57747c0-.65147-.52827-1.18067-1.18067-1.18067h-3.8472zM20.36907 32.6704c-3.63627-1.8844-6.2244-1.95347-9.3184-2.8028-3.26387-.896-4.89254-1.93387-4.53414-4.43053.3864-2.69267 2.6516-3.83507 5.90147-3.81267 5.0736.03453 6.314 2.74773 6.6136 4.23267.11013.55066.5936.94733 1.15453.94733l4.60694.00093a.80785.80785 0 0 0 .6076-.27533c.15306-.17547.22306-.40787.1932-.63933-.33227-2.5368-2.2316-9.4808-13.0424-9.47147-10.9564.00933-12.5972 6.72-12.55054 10.06787.07187 5.278 5.22574 7.5712 6.87027 8.1816 1.54373.56933 6.944 1.81066 8.0948 2.21666 4.03387 1.4224 4.24573 3.30494 4.20933 4.43707.02054 2.65533-2.32586 4.4996-6.32986 4.28493-4.55934-.2464-5.79414-3.9816-6.12547-5.79133-.10173-.56-.58987-.96693-1.15827-.96787l-4.22146-.00186c-.3416 0-.66734.1484-.89134.40693-.22493.25853-.3276.60293-.27906.94173.22586 1.56894.82413 4.1944 2.3968 6.16187 2.3464 2.93347 4.60133 4.75347 11.02453 4.75347 7.56 0 11.3008-3.99094 11.99333-8.49987.51987-3.3908-.45733-7.47413-5.21546-9.94z"/></g></svg>