<svg xmlns="http://www.w3.org/2000/svg" role="img" viewBox="10.70 11.20 158.47 67.47"><title>SwiftGraphQL logo</title><path fill="url(#paint0_linear_653_2905)" d="M46.1241 27c14.5023 10.0476 9.8117 21.112 9.8117 21.112s4.1235 4.7348 2.4643 8.888c0 0-1.7047-2.8972-4.5505-2.8972-2.7479 0-4.3615 2.8972-9.9062 2.8972-12.3215 0-18.1497-10.4829-18.1497-10.4829 11.0963 7.4536 18.6712 2.173 18.6712 2.173-5.0056-2.9651-15.6398-17.1016-15.6398-17.1016 9.2691 8.0352 13.2701 10.1439 13.2701 10.1439-2.3943-2.0088-9.1011-11.8352-9.1011-11.8352 5.3661 5.5341 16.0179 13.2374 16.0179 13.2374C52.0539 34.6177 46.1241 27 46.1241 27z"/><path fill="url(#paint1_linear_653_2905)" fill-rule="evenodd" d="M18.7937 25.675c.7279 0 1.4195.1556 2.0433.4353L39.9376 15.125c.9-.5 2-.8 3-.8 1.1 0 2.1.3 3 .8l16.4 9.5c-1.2.8-2.1 1.9999-2.7 3.3999L43.7375 18.825c-.2999-.2-.5998-.2-.8997-.2h-.0002c-.3 0-.6.1-.9.2L23.6162 29.35c.1157.422.1775.8663.1775 1.325 0 2.7615-2.2386 5-5 5s-5-2.2385-5-5c0-2.7614 2.2386-5 5-5zm46.2438 9.6828c-1.8951-.711-3.2438-2.5394-3.2438-4.6828 0-2.7615 2.2386-5 5-5s5 2.2385 5 5c0 1.8325-.9858 3.4348-2.4561 4.3054v20.5445c0 2.2-1.2 4.2001-3 5.3001l-16.4 9.4c0-1.5-.5001-3-1.4001-4.1l15.6001-9c.6-.3.8999-.9001.8999-1.6001V35.3578zM47.6376 69.4305c.1019.3979.1561.8149.1561 1.2445 0 2.7615-2.2386 5-5 5-2.4898 0-4.5546-1.8198-4.9367-4.202L19.6376 60.9249c-1.9-1.1-3-3.0999-3-5.2999v-18.5c.7.2 1.5.3999 2.2.3999.7 0 1.4-.0999 2-.2999v18.4c0 .7.3999 1.3.8999 1.6L39.12 67.2833c.9135-.989 2.2213-1.6083 3.6737-1.6083 2.3291 0 4.2862 1.5925 4.842 3.748l.0016.0017.0003.0002v.0056z" clip-rule="evenodd"/><path fill="#0B0D11" d="M84.7938 41.1381v.207c0 3.519 3.312 5.52 7.613 5.52 4.094 0 7.13-1.84 7.13-5.336 0-3.933-4.232-5.405-6.716-6.279-2.139-.736-2.967-1.104-2.967-1.817 0-.598.621-1.219 2.185-1.219 1.863 0 2.76 1.035 2.76 1.909v.161h4.485v-.253c0-3.565-3.151-5.796-7.337-5.796-4.094 0-7.015 2.139-7.015 5.566 0 3.703 3.749 5.083 6.601 6.026 2.162.736 3.059 1.196 3.059 1.955 0 .529-.552 1.104-2.277 1.104-2.093 0-3.036-.943-3.036-1.633v-.115h-4.485zm25.2442 5.382l3.404-10.419 3.427 10.419h4.761l5.037-17.94h-4.922l-2.898 10.672-3.358-10.672h-4.094l-3.358 10.695-2.898-10.695h-4.899l5.037 17.94h4.761zm18.274-17.94v17.94h4.6v-17.94h-4.6zm7.646 17.94h4.577v-6.141h7.337v-4.163h-7.337v-3.174h8.74v-4.462h-13.317v17.94zm14.47-13.478h5.589v13.478h4.6v-13.478h5.589v-4.462h-15.778v4.462z"/><path fill="#7F818C" fill-rule="evenodd" d="M133.094 51.865c2.3 0 4.1 1.8 4.1 4 0 1.5-.8 2.7-2 3.5.083.0417.162.0835.238.1234.287.1514.524.2766.762.2766.1 0 .5 0 .7-.2999l1.5 1.1999c-.6.8-1.5 1.1-2.2 1.1-.954 0-1.659-.4978-2.349-.9845-.467-.3295-.926-.6539-1.451-.8154-1.9-.3-3.4-2-3.4-4 0-2.3 1.8-4.1001 4.1-4.1001zm0 6.1001c1.2 0 2.1-.9001 2.1-2.1001 0-1.2-.9-2.1-2.1-2.1-1.2 0-2.1.9-2.1 2.1 0 1.2.9 2.1001 2.1 2.1001zM88.7938 55.265h3.7v4.5h-1.6v-.6999c-.4.6-1.2.9-2 .9-2.2 0-4.1-1.8-4.1-4s1.9-4 4.1-4c1.3 0 2.5.6 3.3 1.6l-1.6 1.0999c-.4-.5-1-.8-1.7-.8-1.2 0-2.1.9001-2.1 2.1001 0 1.2.9 2.1 2.1 2.1.7 0 1.3-.3001 1.7-.9001v-.1999h-1.8V55.265zm9.4002-3.1998c2 0 2.9 1.2999 2.9 2.7999 0 1.1-.5 2.1001-1.5001 2.6001l1.7001 2.2999h-2.4001l-1.5-2.0999h-1v2.0999h-2v-7.6999h3.8001zm-1.8001 1.9v2h1.7c.8 0 1.1001-.5 1.1001-1 0-.6-.3001-1-1.1001-1h-1.7zm14.1001 5.7999l-3.1-7.6999h-2l-3.1 7.6999h2.2l.4-1.0999h3l.4 1.0999h2.2zm-5-2.9l.9-2.2999.8 2.2999h-1.7zm6.5-4.7999h3.4c2.1 0 3 1.4 3 3s-1 3-3 3h-1.4v1.7999h-2v-7.7999zm2 1.7999v2.4h1.3c.8 0 1.1-.4999 1.1-1.1999 0-.6-.3-1.2001-1.1-1.2001h-1.3zm13.3 5.9v-7.6999h-2v3h-3.2v-3h-2v7.6999h2v-2.9h3.2v2.9h2zm13.6-7.6999h-2v7.6999h5.7v-1.9h-3.7v-5.7999z" clip-rule="evenodd"/><defs><linearGradient id="paint0_linear_653_2905" x1="38.794" x2="60.294" y1="39.5" y2="57" gradientUnits="userSpaceOnUse"><stop stop-color="#F25C40"/><stop offset="1" stop-color="#FF9E57"/></linearGradient><linearGradient id="paint1_linear_653_2905" x1="36.642" x2="78.823" y1="39.888" y2="69.395" gradientUnits="userSpaceOnUse"><stop stop-color="#F25C40"/><stop offset="1" stop-color="#FF9E57"/></linearGradient></defs></svg>