<svg xmlns="http://www.w3.org/2000/svg" role="img" viewBox="-12.76 -12.76 663.52 128.52"><path fill="#252223" d="M11.2 81.06V40.74H0v-11.2h11.2V8.68h13.3v20.86h21.56v11.2H24.5V79.1c0 8.54 4.62 12.6 12.18 12.6 3.22 0 6.16-.42 9.38-1.4v11.06c-3.5 1.12-7.7 1.82-12.6 1.82-14.28 0-22.26-6.721-22.26-22.12zm68.737 22.259c-13.16 0-22.4-7.84-22.4-22.68 0-7.14 2.1-12.46 5.74-16.24 4.76-4.62 11.76-7.42 27.44-7.42 4.34 0 8.54.42 12.04.84v-5.04c0-8.68-4.62-13.16-15.4-13.16-7.28 0-14.56 1.96-21.42 4.9l-3.22-10.64c7.7-3.22 16.66-5.46 26.46-5.46 18.2 0 26.88 7.28 26.88 24.08v35.419l1.68 14.14h-11.34l-2.66-8.12c-7.42 6.162-14.841 9.381-23.8 9.381zm22.82-18.479V67.9c-3.22-.28-6.86-.56-10.5-.56-12.32 0-16.1 1.82-18.9 4.62-1.96 1.96-2.94 4.9-2.94 8.12 0 7.7 5.04 12.18 13.72 12.18 6.3 0 12.739-2.66 18.62-7.42zm33.879 17.22V29.54h10.08l2.52 12.04c6.58-7.98 14.7-13.02 26.04-12.88v13.58c-9.94.28-18.2 3.92-25.2 9.8v49.98h-13.44zm57.818-21V40.74h-11.2v-11.2h11.2V8.68h13.3v20.86h21.56v11.2h-21.56V79.1c0 8.54 4.62 12.6 12.18 12.6 3.22 0 6.16-.42 9.38-1.4v11.06c-3.5 1.12-7.7 1.82-12.6 1.82-14.28 0-22.26-6.721-22.26-22.12zm50.819-66.22V2.38h14.28v12.46h-14.28zm.42 87.22V29.54h13.3v72.52h-13.3zM321.011 1.54V12.6c-3.08-.84-6.86-1.54-10.64-1.54-8.4 0-11.9 4.62-11.9 12.18v6.3h20.02v11.2h-20.02v61.32h-13.16V40.74h-11.9v-11.2h11.9v-6.3c0-14.7 7.28-23.24 23.24-23.24 4.34 0 8.82.56 12.46 1.54zm10.781 100.52V.7h13.3v101.36h-13.3zm30.238-35.98c0-22.96 13.02-38.22 30.939-38.22 18.76 0 30.38 15.54 30.38 38.64v4.9H375.19c1.119 12.6 8.819 21 20.859 21 6.72 0 14-2.24 20.58-6.02l3.92 10.08c-7.7 4.48-16.52 7-25.06 7-19.319-.001-33.459-12.601-33.459-37.38zm48.3-5.32c-.98-13.02-7.28-21.98-17.5-21.98-10.08 0-16.8 9.1-17.78 21.98h35.28zm33.182 20.3V40.74h-11.2v-11.2h11.2V8.68h13.3v20.86h21.561v11.2h-21.561V79.1c0 8.54 4.62 12.6 12.18 12.6 3.221 0 6.16-.42 9.381-1.4v11.06c-3.5 1.12-7.7 1.82-12.601 1.82-14.28 0-22.26-6.721-22.26-22.12zm55.018 0V40.74h-11.2v-11.2h11.2V8.68h13.3v20.86h21.561v11.2H511.83V79.1c0 8.54 4.62 12.6 12.181 12.6 3.22 0 6.159-.42 9.38-1.4v11.06c-3.5 1.12-7.7 1.82-12.601 1.82-14.279 0-22.26-6.721-22.26-22.12zm45.78-14.98c0-22.96 13.02-38.22 30.939-38.22 18.76 0 30.38 15.54 30.38 38.64v4.9H557.47c1.119 12.6 8.819 21 20.859 21 6.72 0 14-2.24 20.58-6.02l3.92 10.08c-7.7 4.48-16.52 7-25.06 7-19.32-.001-33.459-12.601-33.459-37.38zm48.299-5.32c-.98-13.02-7.28-21.98-17.5-21.98-10.08 0-16.8 9.1-17.78 21.98h35.28z"/><path fill="#FEDD2F" d="M617.469 81.938h20.889v20.889h-20.889z"/></svg>