<svg xmlns="http://www.w3.org/2000/svg" role="img" viewBox="-1.94 -0.94 100.62 37.62"><title>The Guild (member) logo</title><g fill="#03060D" fill-rule="evenodd"><path d="M1.30166 13.70914c.39346.13309.81313.20865 1.25118.20865.39347 0 .77297-.0599 1.13138-.16814v10.28618c0 .36351.19537.70217.51055.88393l9.90735 5.72018c.46869-.54697 1.1627-.89516 1.9377-.89516.84343 0 1.58985.41252 2.05513 1.04458l.02519.0337c.03267.04629.0633.0936.09292.14227.01157.01838.02314.03676.03403.05548.02621.04493.05038.09054.07352.13683.0126.02484.0245.05003.03642.07522a2.79498 2.79498 0 0 1 .05616.1307c.0126.03165.02383.0633.03506.0953.0143.0405.02825.08135.04016.12253.01157.03914.02076.07863.03064.1181.00884.0371.01838.07387.02552.1113.00987.04936.01634.0994.02315.14977.00374.02995.00953.05922.01225.08918.00783.08168.0126.16405.0126.24778 0 .13342-.01328.2631-.03336.39108-.00238.016-.00443.032-.00715.04765-.20864 1.19911-1.25459 2.11401-2.51224 2.11401-1.1215 0-2.07418-.72804-2.41625-1.73552L3.00349 26.9834c-1.05343-.6079-1.70183-1.73178-1.70183-2.94757zm27.79969-6.2583c1.40775 0 2.55274 1.145 2.55274 2.55274 0 .76583-.34037 1.452-.8761 1.92035v12.1119c0 1.21579-.6484 2.33967-1.70183 2.94757l-9.12452 5.26783c-.0102-.8618-.30156-1.6552-.78488-2.29815l8.71812-5.03332c.31518-.18176.51055-.52042.51055-.88393V12.4549c-1.065-.30701-1.84682-1.28863-1.84682-2.45132 0-.56602.18754-1.0878.50067-1.51156.00477-.0068.00987-.01327.01464-.02008.05922-.07828.12253-.15384.18992-.22498l.0092-.00987c.13988-.14568.29645-.274.46732-.38325.0177-.01158.03641-.02213.05445-.03336.06774-.0405.13683-.07862.2083-.113l.06263-.0303c.08952-.04016.18074-.07726.27536-.10687.2437-.07726.50204-.11947.77025-.11947zm-3.48871 5.50378v8.44243c0 .99999-.53812 1.93191-1.40401 2.4319v.00035l-6.8233 3.93496-.62968.34513.00748-.72225v-2.99318l5.61603-3.24232V18.1823l-4.78043-1.36044 8.0139-3.86723zm-19.1456-.00504l3.23348 1.5861v6.61569l5.53094 3.1933v3.73382l-7.3604-4.24912c-.8659-.50034-1.40401-1.43226-1.40401-2.43226v-8.44753zm8.1687-5.70115c.85262-.49183 1.9554-.49183 2.80802 0l7.48566 4.34272-.71136.33662-2.77705 1.36249-5.40125-3.11843-5.40126 3.11843L7.16132 11.584l.66814-.4023c.00613-.00545.02349-.01703.0422-.02758zM16.03973 1c.58781 0 1.17528.1518 1.70183.45575l9.17863 5.29949c-.67562.4554-1.19842 1.11742-1.48603 1.89277l-8.88388-5.12863c-.15487-.08985-.33152-.13682-.51055-.13682-.17903 0-.35534.04697-.51055.13682L5.06464 9.56121c.02518.14398.04084.29101.04084.44248 0 1.09836-.69843 2.03402-1.67358 2.39345l-.0228.00817a2.5154 2.5154 0 0 1-.23587.07147c-.016.00409-.032.00885-.048.01226-.07351.01701-.14873.03029-.2243.04084-.02076.00272-.04084.0068-.0616.00919-.09428.01055-.18959.01736-.28659.01736-.10381 0-.20592-.00817-.307-.02042-.02724-.0034-.05379-.00817-.08068-.01226a2.54847 2.54847 0 0 1-.22906-.04595c-.02315-.00578-.0463-.01123-.06944-.0177-.19911-.05616-.38835-.1341-.565-.23383l-.15173-.09283C.4581 11.67652 0 10.89318 0 10.00369c0-1.40775 1.14533-2.55274 2.55274-2.55274.36521 0 .7117.07828 1.02586.2168l10.7593-6.212C14.86443 1.1518 15.45224 1 16.03971 1z"/><path fill-rule="nonzero" d="M42.915 15V7.382h3.159V4.86h-8.918v2.522h3.159V15h2.6zm8.64978 0v-3.77h4.134V15h2.6V4.86h-2.6v3.939h-4.134V4.86h-2.587V15h2.587zm18.04878 0v-2.509h-5.187v-1.3h4.264V8.838h-4.264V7.382h5.187V4.86h-7.787V15h7.787zM42.681 30.195c1.04 0 2.067-.39 2.561-1.144V30h2.041v-5.915h-4.888v2.158h2.457v.286c-.481.702-1.261 1.157-2.171 1.157-1.534 0-2.756-1.222-2.756-2.756 0-1.534 1.222-2.756 2.756-2.756.884 0 1.664.403 2.171 1.04l2.119-1.43c-.975-1.274-2.548-2.119-4.29-2.119-2.938 0-5.382 2.366-5.382 5.265 0 2.899 2.444 5.265 5.382 5.265zm12.39378 0c3.029 0 4.667-2.015 4.667-4.628V19.86h-2.587v5.551c0 1.469-.715 2.275-2.08 2.275-1.352 0-2.054-.806-2.054-2.275V19.86h-2.6v5.707c0 2.613 1.612 4.628 4.654 4.628zM65.72656 30V19.86h-2.6V30h2.6zm10.97677 0v-2.509h-4.862V19.86h-2.587V30h7.449zm7.62278 0c3.172 0 4.797-2.301 4.797-5.07 0-2.756-1.625-5.07-4.797-5.07h-4.706V30h4.706zm-.195-2.509h-1.911v-5.109h1.911c1.547 0 2.366 1.027 2.366 2.548 0 1.521-.819 2.561-2.366 2.561zm10.05478 2.558c.24033 0 .47192-.03092.69475-.09275.22283-.06183.4305-.14933.623-.2625.1925-.11317.36867-.24908.5285-.40775.15983-.15867.29633-.33425.4095-.52675.11317-.1925.20067-.39958.2625-.62125.06183-.22167.09275-.4515.09275-.6895 0-.24033-.03092-.47133-.09275-.693-.06183-.22167-.14933-.42875-.2625-.62125-.11317-.1925-.24967-.36808-.4095-.52675-.15983-.15867-.336-.29458-.5285-.40775-.1925-.11317-.40017-.20067-.623-.2625-.22283-.06183-.45442-.09275-.69475-.09275s-.47075.03092-.69125.09275c-.2205.06183-.42758.14933-.62125.2625a2.5981 2.5981 0 0 0-.5285.40775c-.15867.15867-.29458.33425-.40775.52675-.11317.1925-.20067.39958-.2625.62125-.06183.22167-.09275.45267-.09275.693 0 .24033.03092.47075.09275.69125.06183.2205.14933.427.2625.6195.11317.1925.24908.36808.40775.52675a2.5981 2.5981 0 0 0 .5285.40775c.19367.11317.40133.20067.623.2625.22167.06183.4515.09275.6895.09275zm0-.49c-.28467 0-.55008-.05425-.79625-.16275-.24617-.1085-.46025-.25783-.64225-.448s-.32492-.41358-.42875-.67025c-.10383-.25667-.15575-.53317-.15575-.8295s.05192-.574.15575-.833.24675-.48475.42875-.67725c.182-.1925.39608-.34358.64225-.45325.24617-.10967.51158-.1645.79625-.1645.19133 0 .3745.02508.5495.07525.175.05017.33833.12075.49.21175.15167.091.28933.20125.413.33075.12367.1295.22925.273.31675.4305.0875.1575.15517.32725.203.50925.04783.182.07175.37217.07175.5705 0 .29633-.0525.57283-.1575.8295-.105.25667-.24967.48008-.434.67025s-.40075.3395-.64925.448c-.2485.1085-.51625.16275-.80325.16275zm0-.483c.26833 0 .50458-.04492.70875-.13475.20417-.08983.36925-.22225.49525-.39725l-.357-.3675c-.01867-.021-.04083-.0385-.0665-.0525-.02567-.014-.0525-.021-.0805-.021-.04667.00233-.08517.014-.1155.035-.03033.021-.0665.04317-.1085.0665-.042.02333-.09508.04492-.15925.06475s-.15108.02975-.26075.02975c-.09333 0-.17908-.01867-.25725-.056-.07817-.03733-.14525-.09217-.20125-.1645-.056-.07233-.09975-.16217-.13125-.2695-.0315-.10733-.04725-.231-.04725-.371 0-.266.06008-.47658.18025-.63175.12017-.15517.29808-.23275.53375-.23275.10267 0 .18492.0105.24675.0315.06183.021.11375.04433.15575.07.042.02567.07992.049.11375.07.03383.021.07408.0315.12075.0315s.084-.01225.112-.03675c.028-.0245.05133-.04608.07-.06475l.287-.3815c-.119-.14-.27533-.25667-.469-.35-.19367-.09333-.42467-.14-.693-.14-.22633 0-.4375.04025-.6335.12075-.196.0805-.36692.19367-.51275.3395-.14583.14583-.26075.3185-.34475.518-.084.1995-.126.41825-.126.65625 0 .22867.03617.44217.1085.6405.07233.19833.175.37158.308.51975.133.14817.29458.26483.48475.35.19017.08517.40308.12775.63875.12775z"/></g></svg>