<svg xmlns="http://www.w3.org/2000/svg" role="img" viewBox="-4.96 -4.96 257.92 43.42"><title>Travaux.com (adopter) logo</title><path fill-rule="evenodd" d="M44.4027 8.35401v4.67189h7.4634v20.2559h5.4728V13.0259h7.4233V8.35401H44.4027zM64.7622 33.2818V15.2303h4.8617v2.4284c1.3393-1.5698 3.5946-2.878 5.8931-2.878v4.6358a6.27991 6.27991 0 0 0-1.3394-.1128c-1.6087 0-3.7517.8992-4.5537 2.0556v11.9241h-4.8617v-.0016zm25.7169-5.8297v-6.3545c-.8036-1.1954-2.5632-2.0931-4.1705-2.0931-2.7941 0-4.7076 2.1307-4.7076 5.2328 0 3.1411 1.9135 5.2688 4.7076 5.2688 1.6073 0 3.3669-.8571 4.1705-2.054zm0 5.8313v-2.3172c-1.4533 1.7924-3.4438 2.7652-5.7022 2.7652-4.6292 0-8.19-3.4404-8.19-9.4941 0-5.8673 3.4838-9.4566 8.19-9.4566 2.1814 0 4.2089.8977 5.7022 2.7667v-2.3171h4.897v18.0531h-4.897zm14.1219-.0016l-7.4237-18.0515h5.2037l4.821 12.5586 4.86-12.5586h5.204l-7.423 18.0515h-5.242zm26.405-5.8297v-6.3545c-.804-1.1954-2.564-2.0931-4.171-2.0931-2.792 0-4.707 2.1307-4.707 5.2328 0 3.1411 1.915 5.2688 4.707 5.2688 1.607 0 3.367-.8571 4.172-2.054h-.001zm0 5.8313v-2.3172c-1.454 1.7924-3.444 2.7652-5.701 2.7652-4.631 0-8.19-3.4404-8.19-9.4941 0-5.8673 3.482-9.4566 8.19-9.4566 2.18 0 4.207.8977 5.701 2.7667v-2.3171h4.898v18.0531h-4.898zm20.666-.0016v-2.2795c-1.263 1.3458-3.483 2.7291-6.506 2.7291-4.057 0-5.97-2.1698-5.97-5.6808V15.2303h4.86v10.9512c0 2.5036 1.339 3.3246 3.405 3.3246 1.875 0 3.368-1.0074 4.211-2.054V15.2303h4.86v18.0515h-4.86zm20.361 0l-4.211-6.0913-4.249 6.0913h-5.394l6.581-9.2671-6.198-8.7844h5.433l3.827 5.5305 3.787-5.5305h5.435l-6.161 8.7844 6.582 9.2671h-5.432zm8.705-1.3939c0-.8555.802-1.5999 1.718-1.5999.913 0 1.675.7444 1.675 1.6014 0 .8932-.762 1.636-1.675 1.636-.916 0-1.716-.7428-1.716-1.636l-.002-.0015zm4.984-7.7063c0-5.2478 3.51-9.422 8.922-9.422 3.202 0 5.033 1.227 6.522 3.0525l-1.375 1.1939c-1.335-1.7879-3.011-2.4961-5.031-2.4961-4.309 0-6.94 3.3502-6.94 7.6717 0 4.3186 2.632 7.7078 6.94 7.7078 2.02 0 3.696-.7443 5.031-2.5321l1.375 1.1924c-1.489 1.86-3.32 3.0915-6.522 3.0915-5.412 0-8.922-4.2087-8.922-9.4596zm32.869 0c0-3.9847-2.402-7.6732-6.748-7.6732-4.27 0-6.71 3.6885-6.71 7.6732 0 4.0193 2.44 7.7078 6.71 7.7078 4.348 0 6.748-3.6885 6.748-7.7078zm-15.555 0c0-5.2478 3.433-9.422 8.806-9.422 5.454 0 8.884 4.1727 8.884 9.422 0 5.2509-3.43 9.4596-8.883 9.4596-5.374 0-8.807-4.2087-8.807-9.4596zm43.204 9.01V20.6059c0-2.5337-1.104-4.0975-3.698-4.0975-1.983 0-4.232 1.418-5.261 3.0555v13.6277h-2.021V20.6059c0-2.5337-1.07-4.0975-3.661-4.0975-1.981 0-4.193 1.4526-5.3 3.0916v13.5931h-1.981V15.2032h1.981v2.7217c.763-1.1579 3.281-3.1668 5.948-3.1668 2.859 0 4.385 1.639 4.842 3.3893 1.031-1.6766 3.509-3.3893 6.101-3.3893 3.391 0 5.034 1.8631 5.034 5.4734v12.9586h-1.984v.0015z" clip-rule="evenodd"/><path fill="#E73B1D" fill-rule="evenodd" d="M1.33321 33H32.4875c.7356 0 1.3301-.5809 1.5125-1.2959V8.26983c-.1824-.715-.7785-.98313-1.511-1.29445L17.8344.21562c-.7616-.2875-1.1217-.2875-1.9217 0L1.33321 6.97389C.52716 7.33437 0 7.55334 0 8.26834V31.7055C0 32.4205.59765 33 1.33321 33z" clip-rule="evenodd"/><path fill="#fff" fill-rule="evenodd" d="M12.9765 28.0188v-2.4027h2.1347V13.0216h-4.6709l.0245 2.86H7.83826v-5.2612H26.163v5.2612h-2.6281v-2.86h-4.7306v12.5945h2.1071v2.4027h-7.9349z" clip-rule="evenodd"/></svg>