<svg xmlns="http://www.w3.org/2000/svg" role="img" viewBox="-7.98 -7.98 415.22 222.22"><title>Tyk logo</title><path fill="#505071" d="M182.3 4c-2.6-2.7-6-4-9.9-4H58.7v13.7c0 3.7 1.3 6.9 4 9.5 2.7 2.7 6.1 4.1 10 4.1H109V165l13.3.1c3.9 0 7.3-1.4 9.9-4 2.7-2.7 4.1-6 4.1-9.6V27.4l50.1-.1V14.6c-.1-3.6-1.4-7.8-4.1-10.6z"/><path fill="#505071" d="M254.5 50.4c-3.9 0-7.3 1.3-9.9 4-2.7 2.7-4.1 6-4.1 9.6v54.9c-4.8 13.5-19.4 20-35.1 20-13 0-19.3-6.1-19.3-18.5V64c0-3.6-1.4-6.8-4.1-9.6-2.6-2.7-6-4-9.9-4h-13.3V123c0 27.9 14.2 42.1 43.6 42.1 14.5 0 30.3-5.1 37.9-15-.6 8.8-1.6 13.4-6.5 20-5.5 7.4-16.3 10.2-27.6 10.2-10.8 0-21.2-2.1-32.6-6.4-1.9-.5-3.7-.7-5.2-.7-6.2 0-9.6 3.4-9.6 9.6V194l.8.5c13 7.9 28.2 11.9 46.6 11.9 38.2 0 61.5-20.9 61.5-62.2V50.4h-13.2zm125.2 64.3c-2-6.1-4.4-7-7.3-9.7 1.3-1.7 2.9-4.9 5.2-11.7l17.2-42.8h-15.6c-8.5 0-14 3.5-16.2 10.3l-11.7 27.3c-.9 2.3-3.6 3.4-8 3.4h-25.5l.1-78.1c0-3.6-1.2-6.6-3.9-9.4-2.6-2.7-6-4-9.9-4h-13.5v165H304c3.9 0 7.3-1.4 10-4.1 2.6-2.6 4-5.8 4-9.5l-.2-32.3H348c4.3 0 5.4 2 5.9 3.5l14 32.7c2.1 6.5 7.5 9.7 16.1 9.7h15.5l-19.8-50.3z"/><path fill="#00D9BA" d="M72.5 79.1c-1.6-18.6-16.9-33.2-35.7-33.4H0v38.2c.8 19.1 16 34.5 35 35.2h37.6V79.2c0-.1-.1-.1-.1-.1z"/></svg>