<svg xmlns="http://www.w3.org/2000/svg" role="img" viewBox="38.50 18.50 7358.00 5348.00"><g fill="#497ec2"><path d="M820 5160v-70h49c88 0 120-25 151-119 12-38 11-41-110-317-68-154-129-294-137-312l-14-33 91 3 91 3 69 165c39 91 77 181 86 200l16 35 73-200 72-200 77-3c42-2 76-1 76 2 0 11-280 776-294 804-38 73-120 112-235 112h-61v-70zm652-347l3-418 23-33c40-55 73-67 192-66 136 1 197 20 259 83 66 66 86 128 85 261-1 117-17 169-73 232-60 69-201 106-288 75l-43-15v298h-161l3-417zm336-23c44-27 62-74 62-162 0-132-50-188-170-188-39 0-52 4-60 19-6 11-10 88-10 180 0 181-7 168 90 170 39 1 65-5 88-19zm2754 23l3-418 23-33c40-55 73-67 192-66 136 1 197 20 259 83 66 66 86 128 85 261-1 117-17 169-73 232-60 69-201 106-288 75l-43-15v298h-161l3-417zm336-23c44-27 62-74 62-162 0-132-50-188-170-188-39 0-52 4-60 19-6 11-10 88-10 180 0 181-7 168 90 170 39 1 65-5 88-19zm1495 314c-32-16-88-77-111-120-9-17-27-24-89-33-153-23-257-107-310-250-24-65-28-91-28-181s4-116 28-181c51-139 155-226 300-249 161-25 305 31 393 155 103 146 102 405-3 555-33 46-106 108-145 123-9 3-4 14 14 33l27 28 45-32 44-32 41 49c23 27 41 52 41 56 0 8-55 55-92 78-36 21-112 22-155 1zm-46-328c180-84 172-434-12-517-157-72-305 55-305 261 0 213 150 333 317 256zm-3993 174c-144-31-232-121-255-260-18-111 19-241 88-312 82-84 227-108 336-54 96 46 144 134 154 283l6 83h-207c-233 0-233 0-168 69 60 63 169 78 269 36 68-29 73-24 73 60v74l-37 11c-53 14-210 21-259 10zm156-405c0-20-32-75-51-89-29-20-91-21-128-1-24 12-61 67-61 89 0 3 54 6 120 6s120-2 120-5zm572 405c-199-31-332-204-332-433 0-287 210-468 499-429 47 7 103 17 124 24l37 11v159l-27-5c-16-3-57-13-93-22-90-23-184-16-243 18-78 46-117 128-117 248 0 183 101 285 277 277l68-3 3-77 3-78h-151v-150h320v428l-67 16c-86 19-232 27-301 16zm987-4c-89-31-141-104-141-195 0-70 18-115 61-154 46-41 74-51 211-72 57-9 106-17 107-19 1-1-4-12-13-24-29-41-140-54-230-27-75 23-74 24-74-59v-73l63-14c84-19 200-16 266 6 65 21 125 78 140 132 6 22 11 136 11 266v227h-80c-74 0-80-1-80-21s0-20-27-1c-61 42-144 53-214 28zm201-156l40-20v-66c0-57-2-65-17-60-10 2-43 8-73 12-30 3-64 10-76 14-55 21-71 78-34 118 28 29 105 30 160 2z"/><path d="M410 4595v-345H180v-150h630v150H580v690H410v-345zm3170 30v-315h80c64 0 80 3 80 15 0 18-5 19 55-4 28-10 71-21 98-24l47-7v159l-53-6c-41-4-64-1-100 15l-47 21v461h-160v-315zm1630-125v-440h160v141c0 131 1 141 18 134 151-65 277-46 344 51 39 56 48 119 48 350v204h-170v-442l-31-30c-28-28-34-30-79-25-27 3-67 15-89 27l-41 20v450h-160v-440zm1645 426c-16-7-38-23-48-34-43-47-46-81-47-444v-348h169l3 335c3 285 5 337 18 345 8 5 81 10 163 10h147v150h-187c-134-1-197-5-218-14zM3667 3376c-86-31-137-86-167-179l-17-52-381-230c-236-142-380-235-377-242 6-17 6-17-50 8-39 17-62 21-119 17-77-5-116-21-172-71-108-94-113-279-11-385 35-36 101-75 111-65 3 4 6-186 6-420v-427l-38-19c-53-27-91-68-120-129-56-123 0-276 124-338 56-28 184-27 239 2l40 21 374-226 374-227 14-48c36-123 132-196 258-196 125 0 222 73 257 193l13 45 368 222 368 221 51-25c41-21 66-26 122-26 110 1 189 46 244 139 24 40 27 56 27 131 0 72-4 93-26 135-25 50-109 125-139 125-13 0-15 54-15 424v425l27 5c40 8 108 74 134 131 49 103 22 240-60 312-56 50-95 66-172 71-57 4-80 0-119-17-55-24-61-25-47-8 7 9-84 69-378 246l-388 233-11 42c-29 116-133 195-256 195-27 0-67-6-88-13zm2-495c19-6 57-11 86-11 66 0 108 14 169 57l48 35 344-208c189-114 343-208 341-208-1-1-402 1-892 4l-890 5 334 202 333 201 47-32c25-18 61-38 80-45zm-864-290c-7-6-65 50-65 63 0 5 16-5 35-24 19-18 32-36 30-39zm1940 29c-16-17-33-30-39-30-5 0 5 16 24 35 18 19 36 32 39 30 2-3-8-19-24-35zm-1890-67c21 9 19-6-4-20-16-10-20-8-30 13-15 34-13 43 4 20 8-11 21-16 30-13zm1835-3c-6-12-14-19-17-17-2 3 1 15 7 27s14 19 17 17c2-3-1-15-7-27zm-1884-309c5-6 419-251 919-545 501-294 915-539 922-543 11-8 24-155 13-148-3 2-161-90-350-205l-345-208-30 28c-55 51-93 65-180 65-86 0-125-14-177-62-14-14-31-24-36-22s-165 98-355 213l-347 209v56c0 93-47 174-131 226l-39 25v409c0 225-2 416-6 424-3 10 4 16 25 20 16 4 45 20 63 36 37 34 40 35 54 22zm-276-81c0-5-4-10-9-10-6 0-13 5-16 10-3 6 1 10 9 10 9 0 16-4 16-10zm115 0c-3-5-10-10-16-10-5 0-9 5-9 10 0 6 7 10 16 10 8 0 12-4 9-10zm2245 0c0-5-4-10-9-10-6 0-13 5-16 10-3 6 1 10 9 10 9 0 16-4 16-10zm115 0c-3-5-10-10-16-10-5 0-9 5-9 10 0 6 7 10 16 10 8 0 12-4 9-10zm-115-810c0-5-7-10-16-10-8 0-12 5-9 10 3 6 10 10 16 10 5 0 9-4 9-10zm115 0c3-5-1-10-9-10-9 0-16 5-16 10 0 6 4 10 9 10 6 0 13-4 16-10zm-260-471c11-17-1-21-15-4-8 9-8 15-2 15s14-5 17-11z"/></g><path fill="#c73792" d="M3667 3386c-88-32-157-106-179-193l-10-43-352-212c-193-116-368-222-389-235l-38-24 41-30c22-16 53-50 69-74l28-44 54 28c30 15 188 109 353 209l298 181 47-33c58-42 101-56 166-56 66 0 108 14 169 57l48 35 335-202c183-111 342-204 351-207 12-3 27 10 49 41 18 25 48 55 67 68 20 13 36 26 36 29s-175 111-389 240c-387 233-389 234-400 274-39 150-210 242-354 191zM2650 2168c-14-5-58-8-97-5l-73 4v-835l-30-12c-45-19-100-78-128-138-57-126 3-283 133-347 57-29 185-28 240 1l40 21 369-224 370-223 14-46c36-124 140-204 267-204 125 0 233 82 267 201l12 44 358 215c198 118 364 218 370 222 7 4-1 18-22 40-18 18-44 57-57 85-20 44-27 51-41 44-9-5-165-99-347-209l-330-200-25 25c-49 50-99 68-185 68s-125-14-177-62c-14-14-31-24-36-22s-162 96-350 209l-341 205-1 55c-1 92-62 195-141 235l-29 15-2 424-3 423-25-9zm2360 0c-14-5-58-8-97-5l-73 4v-824l69 5c38 2 83 0 100-6l31-11v425c0 233-1 424-2 423-2 0-14-5-28-11z"/></svg>