<svg xmlns="http://www.w3.org/2000/svg" role="img" viewBox="-1.48 -1.23 167.96 47.34"><style>.st0{fill:#252a5c}</style><style>.st0{fill:#252a5c}</style><style>.st0{fill:#252a5c}</style><style>.st0{fill:#252a5c}</style><style>.st0{fill:#252a5c}</style><style>.st0{fill:#252a5c}</style><style>.st0{fill:#252a5c}</style><style>.st0{fill:#252a5c}</style><style>.st0{fill:#252a5c}</style><style>.st0{fill:#252a5c}</style><style>.st0{fill:#252a5c}</style><path d="M91.1 16.7c-1.3-.7-3.2-1.1-5.8-1.1-1.2 0-2.5.1-3.9.3-1.3.2-2.3.4-3 .5l-.3.1-.9 3.8h1c.8-.3 1.8-.6 3.1-.8 2.1-.5 3.8-.5 5.2-.3.5.1 1 .2 1.3.3.3.2.6.4.8.6.2.2.3.5.3.9 0 .2 0 .4-.1.6 0 .1-.1.3-.1.4-2.3.1-4.4.2-6.2.5-1.9.3-3.6.7-5 1.3-1.4.6-2.6 1.5-3.3 2.5-.8 1-1.1 2.3-1.1 3.8 0 1.4.6 2.6 1.7 3.5 1.1.9 2.5 1.3 4.2 1.3 1 0 1.9-.1 2.7-.3.8-.2 1.5-.4 2.1-.6.6-.2 1.2-.5 1.8-.8.1-.1.3-.1.4-.2l-.4 1.4h4.3l3.2-12.2c.1-.3.1-.6.2-.9.1-.3.1-.7.1-1-.2-1.7-.9-2.9-2.3-3.6zm-3.3 8.5l-1.1 4.1c-.9.5-1.9 1-2.9 1.4-1.1.4-2.1.6-3.2.6s-2-.2-2.5-.5-.7-.7-.7-1.3c0-.8.2-1.4.6-1.9.4-.5 1.1-.9 2-1.3.9-.3 2.1-.6 3.4-.8 1.4-.1 2.8-.2 4.4-.3zm11.7-5.9h11.3L96.1 31.5l-.8 2.8h17.9l1-3.2h-12l14.9-12.3.7-2.8h-17.4zm36.3-3.3c-1.1-.3-2.4-.4-3.6-.4-1.9 0-3.8.3-5.4.9-1.7.6-3.1 1.5-4.3 2.6-1.2 1.1-2.1 2.4-2.8 3.9-.6 1.5-1 3.1-1 4.8 0 1.2.2 2.2.7 3.1.4.9 1.1 1.6 1.9 2.2.8.6 1.8 1 2.9 1.3 1.1.3 2.3.4 3.7.4 1.3 0 2.6-.2 3.9-.5 1.3-.3 2.5-.7 3.6-1.1l.2-.1 1-4h-.9l-.1.1c-.2.1-.6.3-1.1.6-.5.3-1.1.5-1.7.7-.5.2-1.2.4-2 .6-.8.2-1.5.3-2.3.3-1.6 0-2.8-.4-3.6-1.1-.8-.7-1.2-1.7-1.2-3 0-2.3.7-4.3 2.2-5.9 1.5-1.6 3.3-2.4 5.7-2.4.8 0 1.5.1 2.1.2.6.1 1.2.3 1.7.5s.9.4 1.3.7c.4.2.7.5.9.6l.1.1h.7l1-3.9-.4-.2c-1.1-.3-2.1-.7-3.2-1zm24.9 1.3c-1.6-1.2-3.8-1.8-6.5-1.8-2 0-3.9.3-5.6 1-1.7.7-3.1 1.5-4.3 2.6-1.2 1.1-2.2 2.5-2.8 3.9-.6 1.5-1 3-1 4.6 0 2.2.8 4 2.5 5.3 1.6 1.2 3.8 1.9 6.6 1.9 2.1 0 4-.3 5.6-1 1.6-.6 3-1.5 4.3-2.7 1.2-1.1 2.1-2.4 2.8-3.9.6-1.5 1-3.1 1-4.7-.1-2.1-.9-3.9-2.6-5.2zm-10.5 14.2c-1.6 0-2.8-.4-3.6-1-.8-.7-1.2-1.6-1.2-2.9 0-1.1.2-2.2.6-3.3.4-1 .9-2 1.6-2.7.7-.8 1.6-1.4 2.6-1.9s2.1-.7 3.4-.7c1.5 0 2.7.3 3.6 1 .8.7 1.2 1.6 1.2 2.9 0 1.2-.2 2.3-.6 3.3-.4 1-.9 1.9-1.6 2.7-.7.8-1.6 1.4-2.6 1.9-1 .4-2.1.7-3.4.7zM71.5 11.1L58.3 28.4l-.7 1-7.8-18.3h-6L54 33.9h5.5l17.9-22.8z" class="st0"/><path fill="#20ac75" d="M23.1 2.1L31 18.2s-8.5-4.5-15.1-5.5l7.2-10.6z"/><path fill="#378b60" d="M15.9 12.7l.8 2.7s5.5.5 14.1 4.9l.2-2.1s-8.8-4.6-15.1-5.5z"/><path fill="#1c1d45" d="M1.8 38s7.7-6.6 21.6-2.3c12.8 3.9 15.5 5.5 20.2 6.6l-1.1.6s-2 .3-9.4-2.3c-8.9-3.2-12.5-5-18.3-4.9-6.8.2-10 2.5-11.1 3.4L1.8 38z"/><path d="M13 17.3S3.9 32.7 1.8 38c0 0 7.4-6.1 20-2.6 12.7 3.5 15.7 5.9 21.8 6.9L34 23.9s-7.1-3.1-9.3-4c-2.2-.9-7.5-3-11.7-2.6z" class="st0"/></svg>