<svg xmlns="http://www.w3.org/2000/svg" role="img" viewBox="62.89 25.39 473.72 128.72"><style>svg {enable-background:new 0 0 600 180}</style><path fill="#792e80" d="M381.3 90.5v17.8c0 2.3 0 2.3 2.4 2.4 4.5.1 4.5.1 4.5 4.5 0 4.6 0 4.6-4.7 4.6h-19.3c-.4 0-.9.1-1.3 0-.8-.3-1.9-.5-2.3-1.1-.3-.4.2-1.6.6-2.2 1.2-1.7 2.4-3.3 3.8-4.8.9-1 1.2-2.1 1.2-3.5V72.4c0-2.5 0-2.5-2.6-2.5-1.4 0-2.7.1-4.1 0-1.6-.1-2.4.5-3 2-3.7 8.3-7.4 16.5-11.1 24.7-5.7 12.6-11.4 25.3-17.1 37.9-1.3 2.8-3 5.3-5.4 7.3-6.5 5.4-16.6 5-23.5-1.9-1-1-1-1.9-.2-2.9 1.2-1.4 2.6-2.7 3.9-4 .8-.9 1.7-.9 2.7-.2.7.6 1.4 1.2 2.2 1.7 3.2 2 6.3 1.6 9-1.1.9-.9 1.7-1.9 2.3-3 1.9-3.6 3.6-7.3 5.5-10.9.6-1.3.1-2.3-.4-3.3-4.7-10-9.4-20-14.1-30.1-2.2-4.7-4.5-9.5-6.6-14.3-.6-1.4-1.4-2.1-2.8-1.8-3.2.6-5.1-.8-6.1-3.8-.4-1-1.1-1.9-1.5-2.9-.5-1.2 0-2.1 1.4-2.3.4-.1.8 0 1.3 0h27.4c2.6 0 2.9.3 2.9 2.9 0 1.3.1 2.5 0 3.8-.1 1.8-.5 2.2-2.3 2.3h-2.3c-1.8.1-2.1.5-1.3 2.2 1.5 3.6 3.1 7.1 4.6 10.7 2.1 4.7 4.1 9.5 6.2 14.2.3.6.9 1 1.4 1.6.5-.5 1.1-1 1.4-1.6 3.6-8.1 7.1-16.3 10.6-24.4.9-2 .8-2.3-1.4-2.6-1.4-.2-1.9-.9-1.9-2.2v-3.8c0-2.9.1-3.1 3-3.1h20.3c1.5.1 2-.7 2.1-2.2.2-3.2.1-6.5.9-9.6 2.3-9.7 9.7-15.3 20.6-14.3 3.1.3 6.2.7 9 2.2 4.5 2.4 7.5 8 7 12.9-.1 1.2-.7 1.9-1.9 1.9h-6.4c-1.3 0-2-.6-2.2-1.9-.1-.8-.2-1.7-.4-2.5-.7-2.8-2.2-4.2-4.6-4.4-2.8-.3-5 .7-6.3 3.2-.5 1-.9 2-1 3.1-.2 3.3-.1 6.6-.2 9.9 0 1.4.8 1.7 2 1.7h9.9c1 0 2.3-.4 2.6.9.1.8-.4 1.8-.9 2.7-2.2 4.4-5.7 6.2-10.7 5.5-2.7-.4-2.7 0-2.7 2.8-.1 5.7-.1 11.7-.1 17.6z"/><path fill="#792d80" d="M162.8 60.8H174c2.2 0 2.4.3 2.5 2.5 0 1.4-.1 2.9 0 4.3.1 1.5-.6 2.1-2.1 2.2-3.8.3-3.8.3-2.7 3.9 2.2 6.9 4.5 13.8 6.8 20.7.2.5.3 1 .5 1.4.5.8 1.2.9 1.8 0 .4-.7.7-1.5 1-2.3 3.9-10 7.7-20 11.6-30 1.1-2.7 1.1-2.7 4-2.7h4.1c2.4 0 2.4.1 3.3 2.3 3.7 10.2 7.4 20.5 11.2 30.7.3.9 1 2.4 1.6 2.5 1.4.1 1.2-1.5 1.6-2.5l6.9-20.4c.2-.6.4-1.3.6-1.9.3-1-.1-1.7-1.2-1.7h-2.8c-1.2 0-1.9-.7-1.9-1.9v-5.1c0-1.3.6-2 2-2h21.3c1.7 0 2.3.8 1.8 2.5-.5 1.7-1.1 3.4-1.7 5-.3 1-1.1 1.5-2.1 1.5-.5 0-1 .1-1.5 0-1.7-.2-2.6.5-3.1 2.1-4.9 14.7-9.9 29.3-14.9 43.9-.2.7-.5 1.4-.7 2.2-.4 1.2-1.1 1.8-2.4 1.7-2.3-.1-4.6-.1-6.9 0-1.8.1-2.6-.7-3.1-2.3-3.4-9.5-6.8-18.9-10.2-28.4-.5-1.5-1-3-1.6-4.5-.2-.6-.8-1-1.2-1.5-.5.5-1.2.9-1.5 1.5-1.7 4.1-3.3 8.3-4.9 12.5l-7.8 20.1c-1 2.5-1.1 2.6-3.7 2.6H174c-2.4 0-2.5-.1-3.3-2.3-2.6-7.8-5.2-15.6-7.8-23.3-2.4-7.2-4.8-14.4-7.2-21.7-.9-2.6-.9-2.6-3.5-2.6h-1.8c-1.1-.1-1.7-.7-1.7-1.8v-4.8c0-2 .4-2.3 2.4-2.3 4.1-.2 7.9-.1 11.7-.1zM292.4 91v12.7c0 1.1.1 2.2.3 3.3.4 2.7 1.2 3.4 3.9 3.8 2.5.3 2.9 1.3 1.6 3.3l-1.5 2.1c-4.3 5.5-11.9 5.4-15.9-.4-1.5-2.1-1.5-2.1-3.6-.5-4.8 3.6-10 5.9-16.1 5.7-9.7-.3-16.8-7.6-16.3-17.3.4-8.8 4.3-14.6 13.1-17.1 1.2-.3 2.4-.7 3.7-.8 4.7-.4 9.4-.8 14.1-1 1.5-.1 2.1-.3 2-2-.2-2.3 0-4.6-.5-6.8-.8-4.2-3.5-6.3-7.9-6.5-4.8-.2-8.1 1.8-9.4 5.7-.4 1.2-.5 2.9-1.3 3.4-1.1.7-2.7.4-4.2.5-1.4.1-2.9.1-4.3 0-2-.1-2.5-.7-2.3-2.7.8-6.4 4-11.1 10-13.6 7-3 14.2-3.6 21.5-1.3 8.1 2.6 13.5 9.7 13.1 18.2-.1 3.7 0 7.5 0 11.3zm-14.8 8.8c0-1.9-.1-3.7 0-5.6.1-1.2-.3-1.7-1.6-1.6-1.9.1-3.7.1-5.6.3-2.7.3-5.3.9-7.6 2.5-3.1 2.1-4.3 6-3.2 9.9 1.1 3.7 3.9 5.7 7.9 5.9 3.4.2 6-1.3 8.6-3.2 1-.8 1.6-1.6 1.5-3-.1-1.6 0-3.4 0-5.2zm165.8-8.3v13.2c0 .8 0 1.7.2 2.5.5 2.5 1.4 3.2 3.9 3.5 2.6.3 3 1.3 1.5 3.5-.4.6-.9 1.2-1.3 1.8-3.9 6.2-13.2 4.5-16-.2-1.3-2.2-1.5-2.2-3.6-.5-4.7 3.6-9.8 5.8-15.9 5.7-10.6-.2-18-8.8-16.5-19.3 1.3-9.2 6.3-14.2 16.2-15.8 4.8-.8 9.7-.9 14.6-1.1 1.5-.1 2.1-.4 2-2-.2-2.3-.1-4.7-.5-7.1-.5-3-2.4-5-5.4-5.8-4.8-1.4-11-.2-12.3 7-.3 1.8-1.2 2.2-2.8 2.2-2.1-.1-4.2 0-6.3 0-2.3 0-2.8-.7-2.5-3 1-7 5-11.8 11.6-14.1 5.9-2.1 12.1-2.6 18.2-1.1 9.1 2.2 15.1 9.6 14.8 18.7 0 3.9.1 7.9.1 11.9zm-14.9 8.6v-2.8c-.1-1.5.3-3.4-.5-4.3-.6-.7-2.7-.2-4.1-.2-3.2 0-6.4.6-9.3 2.1-5.5 2.9-5.4 10.3-2.2 13.8 1.3 1.4 2.9 2.3 4.8 2.5 4.1.6 7.5-1 10.4-3.6.5-.5.8-1.4.9-2.2.1-1.8 0-3.5 0-5.3zm77.4 8.1s.1 2.5 2.4 2.5c4.7-.1 4.2.5 4.2 4.2 0 4.7.5 4.9-4.8 4.9-6.3-.1-12.5 0-18.8 0h-1.5c-2.1-.1-2.7-1.3-1.5-3 1.2-1.7 2.6-3.4 3.9-5 .9-1 1.3-2.1 1.3-3.4-.1-11.9 0-23.9 0-35.8 0-2.3 0-2.3-2.2-2.7-1.9-.4-2.4-1.5-1.2-3.1 1.3-1.7 2.6-3.4 4-4.9.4-.5 1.3-.9 1.9-1 3.5-.1 6.9 0 10.4-.1 1.4 0 2 .6 2 2s-.1 2.9 0 4.3c0 .5.4 1.2.8 1.3.4.1 1.1-.3 1.4-.7 1.3-1.4 2.4-3 3.9-4.3 3.9-3.6 8.7-3.6 13.6-2.9 1.3.2 2 1.1 2 2.5-.1 2.4 0 4.7 0 7.1 0 2.4-.6 2.7-2.9 2.4-2.4-.4-4.9-.8-7.2-.6-3.2.3-5.9 2-8.2 4.2-2.2 2-3.4 7.5-3.4 7.5l-.1 24.6z"/><path fill="#782c7e" d="M83.5 90.2V90c7.4-7.4 14.9-14.8 22.3-22.3.8.6 1.7 1.1 2.4 1.8 6.8 6.8 13.7 13.6 20.5 20.4-.2.3-.3.6-.6.8l-20.6 20.6c-.5.5-1.1.7-1.6 1.1-.8-.8-1.6-1.5-2.4-2.3-6.7-6.7-13.4-13.3-20-19.9z"/><path fill="#7a2e81" d="M474.8 86.1v22.1c0 2.4 0 2.3 2.4 2.4 1.3.1 2.9-.6 3.7.9.9 1.7-.9 2.5-1.5 3.7-2 3.8-5.1 5-9.4 4.6-4.3-.4-8.6-.1-12.9-.1-1.1 0-2.5.3-2.8-1-.2-.8.3-2 .9-2.6 3.9-3.7 4.9-8.1 4.7-13.5-.4-10-.1-20-.1-30 0-2.4 0-2.4-2.3-2.8-1.7-.3-2.2-1.4-1.3-2.7 1.4-1.9 2.8-3.8 4.4-5.5.5-.5 1.5-.7 2.3-.7 3-.1 6.1 0 9.1 0 2.5 0 2.8.2 2.8 2.8v22.4z"/><path fill="#b983b8" d="M105.9 112.4c.6-.4 1.2-.6 1.6-1.1 6.9-6.8 13.7-13.7 20.6-20.6.2-.2.4-.5.6-.8h.4c.5.7.9 1.4 1.5 2 2.7 2.7 5.3 5.4 8.1 8.1 1.2 1.1 1.4 2.4 1 3.9-1.2 4.4-2.4 8.8-3.5 13.2-.4 1.7-1.3 2.6-3.2 3.1-4.5 1-9 2.3-13.4 3.6-1.5.4-2.5.1-3.6-1-2.6-2.7-5.4-5.4-8.1-8.1-.6-.6-1.3-1-2-1.5v-.8z"/><path fill="#86c771" d="M129.1 89.9h-.4c-6.8-6.8-13.6-13.6-20.5-20.4-.7-.7-1.6-1.2-2.4-1.8 0-.2 0-.4.1-.6.7-.5 1.4-.9 2-1.5 2.8-2.7 5.5-5.5 8.2-8.3 1-1 2-1.3 3.4-.9 4.6 1.3 9.2 2.6 13.9 3.7 1.4.3 2.2.9 2.6 2.4 1.2 4.8 2.5 9.6 3.8 14.4.4 1.3-.1 2.2-1 3.1-3.3 3.4-6.5 6.6-9.7 9.9z"/><path fill="#f6cf1d" d="M105.9 112.4c0 .2.1.4.1.6-3.2 3.2-6.5 6.4-9.7 9.7-1 1-2 1.4-3.4 1-4.7-1.3-9.4-2.6-14.2-3.8-1.4-.3-2-1.1-2.3-2.3-1.2-4.7-2.4-9.5-3.8-14.2-.4-1.5-.1-2.4.9-3.4 3.3-3.2 6.6-6.5 9.9-9.8 6.7 6.6 13.4 13.3 20 19.9.9.8 1.7 1.5 2.5 2.3z"/><path fill="#c5d635" d="M105.8 67.1c0 .2 0 .4-.1.6-7.4 7.4-14.8 14.9-22.2 22.3-3.4-3.3-6.7-6.7-10.1-10-.9-.8-1.2-1.7-.9-2.9 1.4-4.9 2.6-9.8 3.9-14.7.3-1.1.9-1.8 2-2 5-1.3 9.9-2.6 14.9-4 1.3-.3 2.1.2 2.9 1 3.2 3.3 6.4 6.5 9.6 9.7z"/><path fill="#7a2f81" d="M467.3 54.5c-4.6 0-8.4-3.7-8.5-8.3-.1-4.7 3.7-8.7 8.4-8.7 4.5 0 8.4 3.7 8.5 8.3.1 4.8-3.7 8.7-8.4 8.7z"/></svg>