<svg xmlns="http://www.w3.org/2000/svg" role="img" viewBox="-3.67 -3.67 191.10 41.10"><title>Werkspot (adopter) logo</title><path fill="#09C" fill-rule="evenodd" d="M183.606 27.7482v-3.2988c0-.1832-.092-.2138-.245-.2443-.488 0-.977.0305-1.466.0305-.091 0-.855 0-1.161-.5498-.152-.2749-.122-.6719-.122-1.3439V14.828h2.871c.214 0 .398-.2138.428-.3971v-2.2297c0-.1832-.214-.3971-.428-.3971h-2.84V6.94762c0-.18327-.183-.39708-.367-.39708h-4.123c-.183.03055-.367.21381-.367.39708v4.82598h-2.046c-.214.0305-.397.2138-.397.3971v2.1992c0 .2138.214.4276.427.4276h2.016v8.0636c0 1.5272-.061 3.2377 1.222 4.3679 1.13 1.0385 2.596 1.0079 3.055 1.0384.305.0306.671.0306 1.038.0306.886 0 1.772-.1222 2.26-.1833.122-.0611.245-.1832.245-.3665zm-13.929-15.0277c-1.588-1.2523-3.298-1.7105-5.253-1.8021-4.246-.2444-6.537 1.4661-7.697 2.8406-1.894 2.2908-1.955 5.0092-1.955 5.9561 0 3.5126 1.405 5.559 2.413 6.5059 2.321 2.2603 5.712 2.413 6.567 2.413 3.146 0 5.101-1.1607 6.078-1.9548 1.161-.9775 2.963-3.1461 2.963-6.9336-.031-2.6573-1.039-5.3147-3.116-7.0251zm-5.895 12.0038c-1.863 0-2.84-1.069-3.207-1.6494-.336-.5192-.855-1.741-.855-3.3598 0-2.4741 1.069-3.9097 1.955-4.4289.702-.4276 1.649-.4887 1.863-.4887 1.313 0 1.985.336 2.444.6414.977.672 1.771 1.9548 1.771 4.49 0 2.5046-1.222 4.7954-3.971 4.7954zM145.639 11.01c-2.046 0-3.36.7636-3.971 1.2829-.366.2443-.458.4276-.702.7331l-.031-1.3134c-.03-.1833-.183-.336-.336-.336h-3.665c-.214 0-.427.2138-.427.397V32.452c0 .1833.213.3666.397.3971h4.184c.214 0 .397-.2138.397-.4276v-5.4063c1.436.8858 2.352 1.405 4.093 1.405 1.588 0 2.566-.3665 3.116-.6109.549-.2443 1.71-1.0079 2.626-2.413.611-.9774 1.497-2.8711 1.528-5.7117 0-2.3519-.55-4.826-2.23-6.5976-1.772-1.9242-4.032-2.077-4.979-2.077zm2.535 8.6746c0 1.8021-.427 2.7795-.794 3.5126-.275.5192-.977 1.741-2.657 1.741-.764 0-1.344-.2749-1.588-.4582-.397-.2138-.703-.5498-.978-.8858-.916-1.3744-.855-3.3904-.855-3.7569 0-3.6348 1.71-5.2841 3.543-5.2841.122 0 .397 0 .703.0916.58.1527 1.099.5192 1.466.9469 1.221 1.4355 1.16 3.6042 1.16 4.0929zm-18.54-1.9854l-2.199-.4887c-.55-.1221-1.772-.2749-2.26-.6109-.245-.1832-.459-.4887-.459-.7941 0-.2749.153-.7025.764-1.008.214-.0916.855-.2749 1.558-.2749 1.069 0 2.413.4887 3.299 1.0385.213.1222.397.2444.58.3971.153.1222.458.0917.611-.0305l2.413-2.2298c.152-.1527.152-.397.03-.5192-.336-.2444-.702-.4582-1.069-.672-2.535-1.4355-5.009-1.6188-6.078-1.6188-3.726 0-5.62 1.741-6.384 3.1155-.611 1.069-.702 2.0465-.702 2.5046 0 .3971.061 1.1912.519 2.077.855 1.6799 2.474 2.4741 5.956 3.0544 1.802.2749 3.268.4277 3.299 1.5883 0 .9164-1.008 1.344-1.741 1.4967-.55.1222-1.008.1527-1.222.1527-1.374 0-2.902-.6414-3.971-1.4966-.213-.1528-.427-.336-.611-.5193-.152-.1527-.458-.1222-.61.0305l-2.536 2.2603c-.152.1527-.152.3971 0 .5193.367.336.947.8552 1.711 1.3134 2.443 1.4966 5.223 1.6799 6.139 1.6799 2.535 0 5.62-.8552 7.086-3.085.275-.4276.795-1.405.795-2.7795.061-3.1766-2.23-4.5205-4.918-5.1009z" clip-rule="evenodd"/><path fill="#09C" fill-rule="evenodd" d="M118.699 27.7483l-5.895-10.2324 5.529-5.7117c.152-.1833.061-.3971-.092-.3971h-5.04c-.183 0-.427.0306-.794.4276l-5.192 5.3147V5.84807c-.031-.18327-.184-.33599-.367-.36653h-4.093c-.183.03054-.397.21381-.397.39707V27.7177c0 .1833.214.3971.428.3971h3.97c.214 0 .428-.2138.428-.4276v-4.7955l2.108-2.0159 4.001 6.8419c.122.1833.397.3971.672.3971h4.551c.214.0305.366-.1222.183-.3665zm-18.235-12.4621v-3.8181c0-.1527-.122-.2443-.274-.2443-.6113.0611-1.4666.1832-2.6273.6414-1.0996.4582-1.5272.8858-1.9548 1.2523v-1.405c-.0305-.1527-.1833-.3055-.336-.3055h-4.0013c-.2138 0-.4276.2139-.4276.4277v15.9135c0 .2138.2138.4276.4276.4276h4.0624c.2138 0 .4276-.2138.4276-.4276v-9.0411c0-1.2523.2138-2.077 1.5272-2.5352.6109-.2138 1.3745-.3054 1.5273-.3665l1.3129-.2138c.214 0 .336-.1222.336-.3054zm-12.1867 9.0411c.2138-.3055.0305-.4276-.1222-.4887l-3.4209-.9774c-.1527-.0306-.336-.0306-.5193.2138-.0305.0305-.0305.0611-.0611.0611-.4276.5803-1.0385 1.2217-1.9242 1.5272-.672.2443-1.3134.2749-1.6189.2749-1.9854 0-3.3598-1.2218-3.7569-3.1766-.0917-.4582-.0611-.8247-.0611-1.008h11.5762c.1528 0 .3971 0 .3971-.4581-.0305-1.2524-.2138-4.154-1.8632-6.4143-2.077-2.9323-5.4369-3.0544-6.5364-3.0544-3.6653 0-5.4369 1.4966-6.4449 2.6573-2.077 2.413-2.1381 5.5285-2.1381 6.5365 0 3.7874 1.7411 7.0557 5.4675 8.2163 1.3134.4277 2.5046.4582 3.0238.4582 1.2523 0 4.4595-.2138 6.9335-2.9628.2444-.3054.5498-.6719 1.0691-1.405zm-11.0875-7.8804c.2443-.5803 1.1606-2.0159 3.1155-2.0159.2749 0 .8247 0 1.4966.336 1.68.733 1.7716 2.4435 1.8327 2.9933h-6.8419c.1222-.672.2749-1.0385.3971-1.3134zm-10.66 11.6984c.1527 0 .336-.0611.4276-.3971l5.5285-21.86961c.0916-.42762-.1833-.42762-.336-.42762H67.385c-.1527 0-.4276 0-.5192.36653L63.6281 21.059 59.5046 5.87859c-.0916-.42762-.3665-.42762-.5192-.42762h-4.2151c-.1528 0-.3971 0-.4887.30545L50.2497 21.0285 47.012 5.87859c-.0916-.39707-.3359-.36653-.5192-.36653h-4.7954c-.1833 0-.4582 0-.336.42762l5.5285 21.83912c.0916.3665.2749.397.4581.4276h5.1009c.1833 0 .3971 0 .5193-.3971l4.0012-14.1114 3.9708 14.142c.1222.3054.336.3054.4887.3054h5.1009z" clip-rule="evenodd"/><path fill="#09C" d="M17 34c9.3888 0 17-7.6112 17-17 0-9.38884-7.6112-17-17-17C7.61116 0 0 7.61116 0 17c0 9.3888 7.61116 17 17 17z"/><path fill="#E8E8E9" fill-rule="evenodd" d="M16.7484 5.97675h.071L27.5815 19.8464H6.03259L16.7484 5.97675z" clip-rule="evenodd"/><path fill="#F6F8F8" d="M16.7806 16.7225l10.8021 3.1154c.0874-.3494.0874-.6988.0291-.9899l-1.7178-7.6867c-.1456-.5823-.6988-1.31025-1.2229-1.5723l-6.8714-3.40659c-.2621-.14559-.6406-.20382-.99-.20382V16.7225h-.0291z"/><path fill="#DEE3E9" d="M16.7807 16.7225V5.97859c-.3494 0-.7279.05823-.9899.20382L8.91934 9.589c-.55321.26205-1.10642.9608-1.22288 1.5723L6.00772 18.848c-.05824.2911-.05824.6405.02911.9899l10.74387-3.1154z"/><path fill="#C2CDD6" d="M16.7807 16.7224L6.00769 19.8379c.08735.3494.23293.6988.40763.9608l4.77508 6.1435c.3785.4659 1.1646.8735 1.7761.8735h2.2419l-1.1646-5.5612h5.4447l-1.1355 5.5612h2.2419c.6115 0 1.3976-.3785 1.7761-.8735l4.7751-6.1435c.1747-.2329.3203-.5823.4076-.9608l-10.773-3.1155z"/></svg>