<svg xmlns="http://www.w3.org/2000/svg" role="img" viewBox="-36.00 -41.00 2132.00 1004.50"><title>WunderGraph logo</title><path fill="#1E293B" d="M1126.3 259.976l-41.7 71.002-53.29-91.054-53.21 90.898-91.877-159.169c32.986-44.318 85.654-72.8746 145.087-72.8746 35.63 0 68.85 10.2996 96.94 28.0106-.55 2.965-.86 5.93-.86 9.051 0 26.84 21.71 48.531 48.39 48.531s48.39-21.769 48.39-48.531c0-26.84-21.71-48.5311-48.39-48.5311-7.23 0-14.16 1.6385-20.3 4.5254-35.63-23.5633-78.27-37.3735-124.17-37.3735-67.291 0-127.583 29.415-168.815 76.1512l-31.352-54.4606c5.446-7.8804 8.636-17.3213 8.636-27.6205C839.779 21.6907 818.073 0 791.389 0S743 21.7687 743 48.5309c0 26.7623 21.705 48.531 48.389 48.531 1.401 0 2.723-.0781 4.123-.2341l40.61 70.4552c-19.371 33.317-30.34 72.251-30.34 113.447 0 62.498 25.206 119.065 66.049 160.028C912.674 481.72 969.076 507 1031.39 507c117.47 0 214.25-90.274 224.6-205.593.62-6.866 1.01-13.654 1.01-20.677v-20.676h-130.7v-.078zm-94.91 202.862c-50.178 0-95.533-20.52-128.363-53.368-32.83-32.926-53.291-78.492-53.291-128.74 0-23.797 4.513-46.58 12.992-67.49l114.983 199.507 53.679-91.054 53.29 90.898 65.19-111.184h61.7c-10.12 90.898-86.9 161.431-180.18 161.431zM68.0753 863L5.64631 644.818H56.0369L92.152 796.416h1.8111l39.8439-151.598h43.146l39.737 151.918h1.918l36.115-151.918h50.391L242.685 863h-44.958l-41.548-142.649h-1.705L113.033 863H68.0753zm365.8117-69.673v-93.963h45.383V863h-43.572v-29.723h-1.705c-3.693 9.588-9.836 17.294-18.43 23.118-8.523 5.824-18.928 8.736-31.215 8.736-10.937 0-20.561-2.486-28.87-7.458-8.31-4.971-14.809-12.038-19.496-21.2-4.617-9.162-6.96-20.135-7.031-32.919v-104.19h45.383v96.093c.071 9.659 2.664 17.294 7.777 22.905 5.114 5.611 11.967 8.416 20.561 8.416 5.469 0 10.583-1.242 15.341-3.728 4.759-2.557 8.594-6.321 11.506-11.293 2.983-4.971 4.439-11.115 4.368-18.43zm127.068-24.929V863h-45.383V699.364h43.253v28.87h1.917c3.622-9.517 9.695-17.045 18.218-22.585 8.522-5.611 18.856-8.416 31.001-8.416 11.364 0 21.271 2.486 29.723 7.457 8.452 4.972 15.021 12.074 19.709 21.307 4.687 9.162 7.031 20.1 7.031 32.813V863H621.04v-96.094c.072-10.014-2.485-17.826-7.67-23.437-5.185-5.682-12.322-8.523-21.413-8.523-6.108 0-11.506 1.314-16.194 3.942-4.616 2.628-8.238 6.463-10.866 11.505-2.557 4.972-3.871 10.973-3.942 18.005zm201.536 97.265c-12.429 0-23.686-3.196-33.771-9.588-10.014-6.463-17.969-15.944-23.864-28.444-5.824-12.571-8.736-27.983-8.736-46.236 0-18.75 3.019-34.34 9.056-46.769 6.037-12.5 14.062-21.839 24.076-28.018 10.086-6.25 21.13-9.375 33.133-9.375 9.162 0 16.796 1.562 22.904 4.687 6.179 3.054 11.151 6.89 14.915 11.506 3.835 4.546 6.747 9.02 8.736 13.423h1.385v-82.031h45.277V863h-44.744v-26.207h-1.918c-2.131 4.545-5.149 9.055-9.055 13.529-3.836 4.404-8.843 8.062-15.022 10.973-6.108 2.912-13.565 4.368-22.372 4.368zm14.382-36.115c7.316 0 13.495-1.988 18.537-5.966 5.114-4.048 9.02-9.694 11.719-16.939 2.77-7.244 4.155-15.731 4.155-25.461 0-9.73-1.35-18.182-4.049-25.355-2.698-7.174-6.605-12.713-11.718-16.62-5.114-3.906-11.328-5.859-18.644-5.859-7.457 0-13.743 2.024-18.856 6.072-5.114 4.049-8.985 9.66-11.613 16.833-2.627 7.173-3.941 15.483-3.941 24.929 0 9.517 1.314 17.933 3.941 25.248 2.699 7.245 6.57 12.927 11.613 17.046 5.113 4.048 11.399 6.072 18.856 6.072zm190.616 36.648c-16.832 0-31.321-3.409-43.466-10.227-12.073-6.889-21.377-16.62-27.911-29.191-6.535-12.642-9.802-27.592-9.802-44.85 0-16.833 3.267-31.606 9.802-44.319 6.534-12.713 15.731-22.62 27.592-29.723 11.932-7.102 25.923-10.653 41.974-10.653 10.796 0 20.845 1.74 30.149 5.22 9.373 3.409 17.543 8.558 24.503 15.448 7.03 6.889 12.5 15.554 16.41 25.994 3.9 10.369 5.86 22.514 5.86 36.435v12.464H904.421v-28.125h95.455c0-6.534-1.421-12.322-4.262-17.365-2.841-5.043-6.782-8.984-11.825-11.825-4.972-2.912-10.76-4.368-17.365-4.368-6.889 0-12.997 1.598-18.324 4.794-5.256 3.125-9.375 7.351-12.358 12.677-2.983 5.256-4.51 11.115-4.581 17.579v26.74c0 8.096 1.492 15.092 4.475 20.987 3.054 5.895 7.351 10.44 12.89 13.636 5.54 3.196 12.11 4.794 19.709 4.794 5.043 0 9.659-.71 13.85-2.13 4.19-1.421 7.777-3.552 10.759-6.393 2.983-2.84 5.256-6.321 6.819-10.44l41.977 2.77c-2.13 10.085-6.5 18.892-13.11 26.42-6.53 7.458-14.98 13.282-25.35 17.472-10.3 4.119-22.196 6.179-35.691 6.179zM1072.21 863V699.364h44v28.551h1.71c2.98-10.156 7.99-17.827 15.02-23.012 7.03-5.255 15.12-7.883 24.29-7.883 2.27 0 4.72.142 7.35.426 2.63.284 4.93.675 6.92 1.172v40.27c-2.13-.639-5.08-1.208-8.84-1.705-3.76-.497-7.21-.745-10.33-.745-6.68 0-12.65 1.455-17.9 4.367-5.19 2.841-9.31 6.819-12.36 11.932-2.98 5.114-4.47 11.009-4.47 17.685V863h-45.39zm268.28-147.656c-1.49-5.185-3.58-9.766-6.28-13.743-2.7-4.048-6.01-7.458-9.91-10.227-3.84-2.841-8.24-5.008-13.21-6.499-4.9-1.491-10.34-2.237-16.3-2.237-11.15 0-20.95 2.77-29.4 8.309-8.39 5.54-14.92 13.601-19.61 24.184-4.68 10.511-7.03 23.366-7.03 38.565 0 15.199 2.31 28.125 6.93 38.778 4.61 10.654 11.15 18.786 19.6 24.397 8.45 5.54 18.43 8.309 29.93 8.309 10.45 0 19.36-1.846 26.74-5.539 7.46-3.765 13.14-9.056 17.05-15.874 3.98-6.818 5.97-14.879 5.97-24.183l9.37 1.385h-56.25v-34.73h91.3v27.485c0 19.177-4.05 35.654-12.14 49.432-8.1 13.708-19.25 24.29-33.46 31.747-14.2 7.387-30.46 11.08-48.79 11.08-20.45 0-38.42-4.51-53.9-13.53-15.49-9.091-27.56-21.981-36.23-38.672-8.59-16.761-12.89-36.647-12.89-59.659 0-17.685 2.56-33.452 7.67-47.301 5.19-13.92 12.43-25.71 21.74-35.369 9.3-9.659 20.13-17.01 32.49-22.053 12.36-5.042 25.75-7.564 40.16-7.564 12.36 0 23.87 1.811 34.52 5.433 10.65 3.552 20.1 8.594 28.34 15.128 8.31 6.534 15.09 14.311 20.35 23.331 5.25 8.949 8.63 18.821 10.12 29.617h-46.88zM1423.19 863V699.364h44v28.551h1.7c2.99-10.156 7.99-17.827 15.02-23.012 7.03-5.255 15.13-7.883 24.29-7.883 2.28 0 4.73.142 7.35.426 2.63.284 4.94.675 6.93 1.172v40.27c-2.13-.639-5.08-1.208-8.84-1.705-3.77-.497-7.21-.745-10.34-.745-6.67 0-12.64 1.455-17.9 4.367-5.18 2.841-9.3 6.819-12.35 11.932-2.99 5.114-4.48 11.009-4.48 17.685V863h-45.38zm164.73 3.089c-10.44 0-19.75-1.811-27.91-5.433-8.17-3.693-14.64-9.126-19.39-16.299-4.69-7.245-7.04-16.265-7.04-27.06 0-9.091 1.67-16.726 5.01-22.905 3.34-6.179 7.89-11.151 13.64-14.915 5.75-3.764 12.29-6.605 19.6-8.522 7.39-1.918 15.13-3.267 23.23-4.049 9.51-.994 17.18-1.917 23.01-2.77 5.82-.923 10.05-2.272 12.67-4.048 2.63-1.776 3.95-4.403 3.95-7.883v-.64c0-6.747-2.13-11.967-6.4-15.66-4.19-3.693-10.15-5.54-17.89-5.54-8.17 0-14.67 1.811-19.5 5.433-4.83 3.551-8.03 8.026-9.59 13.424l-41.97-3.41c2.13-9.943 6.32-18.536 12.57-25.781 6.25-7.315 14.31-12.926 24.18-16.832 9.95-3.977 21.45-5.966 34.52-5.966 9.09 0 17.79 1.065 26.1 3.196 8.38 2.131 15.8 5.433 22.27 9.908 6.53 4.474 11.68 10.227 15.44 17.258 3.77 6.96 5.65 15.306 5.65 25.036V863h-43.04v-22.692h-1.28c-2.63 5.114-6.14 9.624-10.55 13.53-4.4 3.835-9.69 6.854-15.87 9.055-6.18 2.131-13.32 3.196-21.41 3.196zm12.99-31.321c6.68 0 12.58-1.313 17.69-3.941 5.11-2.699 9.13-6.321 12.04-10.867 2.91-4.545 4.37-9.694 4.37-15.447v-17.365c-1.43.923-3.38 1.775-5.86 2.557-2.42.71-5.15 1.384-8.21 2.024-3.05.568-6.11 1.101-9.16 1.598-3.05.426-5.82.816-8.31 1.172-5.33.781-9.98 2.024-13.95 3.728-3.98 1.705-7.07 4.013-9.27 6.925-2.2 2.841-3.31 6.392-3.31 10.653 0 6.179 2.24 10.902 6.72 14.169 4.54 3.196 10.29 4.794 17.25 4.794zm114.37 89.596v-225h44.74v27.485h2.03c1.99-4.403 4.86-8.877 8.63-13.423 3.83-4.616 8.8-8.452 14.91-11.506 6.18-3.125 13.85-4.687 23.01-4.687 11.93 0 22.94 3.125 33.03 9.375 10.08 6.179 18.14 15.518 24.18 28.018 6.04 12.429 9.06 28.019 9.06 46.769 0 18.253-2.95 33.665-8.85 46.236-5.82 12.5-13.77 21.981-23.86 28.444-10.01 6.392-21.23 9.588-33.66 9.588-8.81 0-16.3-1.456-22.48-4.368-6.11-2.911-11.12-6.569-15.02-10.973-3.91-4.474-6.89-8.984-8.95-13.529h-1.39v87.571h-45.38zm44.42-143.182c0 9.73 1.35 18.217 4.05 25.461 2.7 7.245 6.61 12.891 11.72 16.939 5.11 3.978 11.33 5.966 18.64 5.966 7.39 0 13.64-2.024 18.75-6.072 5.12-4.119 8.99-9.801 11.62-17.046 2.7-7.315 4.04-15.731 4.04-25.248 0-9.446-1.31-17.756-3.94-24.929-2.63-7.173-6.5-12.784-11.61-16.833-5.11-4.048-11.4-6.072-18.86-6.072-7.38 0-13.63 1.953-18.75 5.859-5.04 3.907-8.91 9.446-11.61 16.62-2.7 7.173-4.05 15.625-4.05 25.355zm190.81-12.784V863h-45.39V644.818h44.11v83.416h1.92c3.69-9.659 9.65-17.223 17.89-22.691 8.24-5.54 18.58-8.31 31-8.31 11.37 0 21.28 2.486 29.73 7.457 8.52 4.901 15.13 11.968 19.81 21.201 4.76 9.162 7.11 20.135 7.03 32.919V863h-45.38v-96.094c.07-10.085-2.49-17.933-7.67-23.544-5.11-5.611-12.29-8.416-21.52-8.416-6.18 0-11.65 1.314-16.41 3.942-4.68 2.628-8.38 6.463-11.08 11.505-2.62 4.972-3.97 10.973-4.04 18.005z"/></svg>