<svg xmlns="http://www.w3.org/2000/svg" role="img" viewBox="-5.99 -5.99 311.74 158.24"><defs><clipPath id="a"><path d="M406.788 304.001h-60.901v-29.714h60.901v29.714z"/></clipPath></defs><g clip-path="url(#a)" transform="matrix(4.92607 0 0 -4.92607 -1703.865 1497.53)"><path fill="#fff" d="M405.717 287.389c-.389.294-.453.339-2.791 1.109 2.025.498 2.112.551 2.471.787.813.551 1.247 1.465 1.184 2.455l-.008.108c-.165 1.589-2.212 4.587-3.59 5.26-.909.434-1.92.373-2.716-.162-.375-.248-.425-.282-1.964-2.383-.15 2.455-.439 6.784-.51 7.189l-.015.093-.023.09c-.263.951-1.009 1.665-1.997 1.913-1.649.411-6.01-.818-7.18-2.024-.687-.717-.951-1.682-.714-2.587l.048-.18.081-.167c.112-.231.407-.72 2.938-4.691l.933-1.47c-2.266.927-2.356.93-2.825.934-.893.039-1.788-.439-2.327-1.283l-.01-.016c-.278-.448-.45-1.057-.557-1.695-.73.984-1.829 1.773-3.495 2.1-1.181.237-2.289.094-3.333-.328-.956.61-2.27.681-3.369.054a2.769 2.769 0 0 1-.792-.668v1.348l-.105.801-.032.144c-.221.869-.877 1.602-1.755 1.962l-.008.004c-.964.389-2.045.296-2.962-.253-.977-.577-1.478-1.535-1.478-2.845v-2.749a5.413 5.413 0 0 1-1.287 1.398c-1.372 1.04-3.212 1.391-5.318 1.013-1.221-.212-2.242-.745-3.051-1.527l-.039.081c-.411.736-1.078 1.242-1.932 1.466-1.426.391-3.236-.094-3.983-2.644l-.287-.975c-.327.6-1.175 2.239-1.21 2.288-.764 1.158-2.294 1.66-3.662 1.116-1.322-.498-2.087-1.661-2.087-3.028 0-.431.075-.88.232-1.336l.039-.111 3.502-7.133c-1.263-.333-2.163-1.275-2.309-2.567a2.953 2.953 0 0 1 .944-2.552c.95-.877 2.426-1.167 4.159-.812 1.883.37 2.966 1.505 3.725 3.912l1.155 3.629c.376-1.528 1.06-2.526 1.709-3.166.933-.923 2.642-1.944 5.471-1.562 2.102.294 3.557 1.235 4.343 2.341l.051-.267c.224-.789.833-1.49 1.651-1.863a3.206 3.206 0 0 1 2.713.018c.453.197.837.508 1.136.897v-1.144c0-1.891 1.094-2.695 1.746-3.007a3.269 3.269 0 0 1 2.757-.077c.838.363 1.46 1.054 1.704 1.893l.038.129.114.78v.335c1.137-.116 2.324.069 3.369.611.462.24.866.529 1.227.861h.768c.418-.22.893-.357 1.404-.357.513 0 .987.137 1.404.357h2.227c1.475-.83 3.631-1.459 4.785-1.261.994.176 1.777.816 2.108 1.713l.017.045c.14.408.163.484.173 2.789 1.264-2.042 1.33-2.096 1.685-2.376.763-.595 1.766-.726 2.692-.353 1.487.597 3.759 3.485 3.987 5.07.019.138.03.278.03.415 0 .83-.358 1.599-.999 2.111zm-23.075 5.382c.003-.002.005-.002.008-.002.002-.002.004-.002.007-.002l-.015.004zm20.059-12.978h-.002c-.003 0-.004-.003-.007-.004l.009.004"/><path fill="none" stroke="#bdbcbc" stroke-linecap="round" stroke-linejoin="round" stroke-width=".145" d="M405.717 287.389c-.389.294-.453.339-2.791 1.109 2.025.498 2.112.551 2.471.787.813.551 1.247 1.465 1.184 2.455l-.008.108c-.165 1.589-2.212 4.587-3.59 5.26-.909.434-1.92.373-2.716-.162-.375-.248-.425-.282-1.964-2.383-.15 2.455-.439 6.784-.51 7.189l-.015.093-.023.09c-.263.951-1.009 1.665-1.997 1.913-1.649.411-6.01-.818-7.18-2.024-.687-.717-.951-1.682-.714-2.587l.048-.18.081-.167c.112-.231.407-.72 2.938-4.691l.933-1.47c-2.266.927-2.356.93-2.825.934-.893.039-1.788-.439-2.327-1.283l-.01-.016c-.278-.448-.45-1.057-.557-1.695-.73.984-1.829 1.773-3.495 2.1-1.181.237-2.289.094-3.333-.328-.956.61-2.27.681-3.369.054a2.769 2.769 0 0 1-.792-.668v1.348l-.105.801-.032.144c-.221.869-.877 1.602-1.755 1.962l-.008.004c-.964.389-2.045.296-2.962-.253-.977-.577-1.478-1.535-1.478-2.845v-2.749a5.413 5.413 0 0 1-1.287 1.398c-1.372 1.04-3.212 1.391-5.318 1.013-1.221-.212-2.242-.745-3.051-1.527l-.039.081c-.411.736-1.078 1.242-1.932 1.466-1.426.391-3.236-.094-3.983-2.644l-.287-.975c-.327.6-1.175 2.239-1.21 2.288-.764 1.158-2.294 1.66-3.662 1.116-1.322-.498-2.087-1.661-2.087-3.028 0-.431.075-.88.232-1.336l.039-.111 3.502-7.133c-1.263-.333-2.163-1.275-2.309-2.567a2.953 2.953 0 0 1 .944-2.552c.95-.877 2.426-1.167 4.159-.812 1.883.37 2.966 1.505 3.725 3.912l1.155 3.629c.376-1.528 1.06-2.526 1.709-3.166.933-.923 2.642-1.944 5.471-1.562 2.102.294 3.557 1.235 4.343 2.341l.051-.267c.224-.789.833-1.49 1.651-1.863a3.206 3.206 0 0 1 2.713.018c.453.197.837.508 1.136.897v-1.144c0-1.891 1.094-2.695 1.746-3.007a3.269 3.269 0 0 1 2.757-.077c.838.363 1.46 1.054 1.704 1.893l.038.129.114.78v.335c1.137-.116 2.324.069 3.369.611.462.24.866.529 1.227.861h.768c.418-.22.893-.357 1.404-.357.513 0 .987.137 1.404.357h2.227c1.475-.83 3.631-1.459 4.785-1.261.994.176 1.777.816 2.108 1.713l.017.045c.14.408.163.484.173 2.789 1.264-2.042 1.33-2.096 1.685-2.376.763-.595 1.766-.726 2.692-.353 1.487.597 3.759 3.485 3.987 5.07.019.138.03.278.03.415 0 .83-.358 1.599-.999 2.111z"/><path fill="none" stroke="#bdbcbc" stroke-linecap="round" stroke-linejoin="round" stroke-width=".145" d="M382.642 292.771l.008-.002c.003-.002.004-.002.008-.002l-.016.004zm20.06-12.978h-.003c-.002 0-.003-.003-.006-.004l.009.004z"/></g><path fill="#e9e9e9" d="M207.592 66.059c-1.778 2.847-2.522 11.793-1.907 17.738.212 1.96.562 3.596 1.09 4.567.709 1.354 1.9 2.162 3.26 2.207.862.044 1.41-.099 17.803-5.385 0 0 7.286-2.315 7.325-2.33 1.803-.468 3.035-2.133 3.153-4.266.118-2.192-1.02-4.118-2.872-4.817l-5.143-2.099c-17.625-7.27-18.409-7.546-19.305-7.556-1.355-.064-2.562.63-3.404 1.94m39.404 54.148c.29-.828.32-1.394.364-18.616 0 0 .044-7.61.06-7.694.108-1.852-1.094-3.557-3.075-4.32-2.034-.789-4.226-.306-5.463 1.231 0 0-3.586 4.256-3.6 4.261-12.34 14.507-12.858 15.168-13.153 16.035a3.423 3.423 0 0 0-.202 1.576c.079.763.418 1.537 1.005 2.226 2.857 3.414 16.586 8.463 20.96 7.715 1.522-.276 2.636-1.143 3.104-2.414m27.832-5.996c4.148-1.65 13.182-13.137 13.812-17.55.217-1.543-.26-2.863-1.325-3.715-.684-.522-1.231-.724-17.6-6.103 0 0-7.197-2.375-7.276-2.414-1.749-.68-3.73-.054-5.064 1.596-1.39 1.69-1.606 3.911-.488 5.6l2.892 4.705c9.729 15.803 10.463 16.916 11.162 17.468 1.084.842 2.468.995 3.887.414m-8.448-40.67c18.62-4.502 19.334-4.739 20.073-5.221 1.128-.769 1.685-2.03 1.591-3.591 0-.055.005-.099 0-.153-.482-4.567-8.487-16.463-12.433-18.394-1.404-.665-2.803-.62-3.956.148-.719.482-1.256 1.172-11.216 14.817 0 0-4.508 6.138-4.562 6.192-1.187 1.439-1.202 3.513-.05 5.29 1.198 1.838 3.237 2.735 5.1 2.218 0 0-.084.128-.1.157.912-.35 2.567-.753 5.553-1.463m-18.7-15.374c-.325-7.38-2.537-40.231-2.798-41.748-.38-1.39-1.458-2.37-3.01-2.759-4.743-1.182-22.916 3.916-26.28 7.39-1.074 1.122-1.478 2.516-1.158 3.748.527 1.084 23.034 36.497 23.034 36.497 3.33 5.399 6.045 4.557 6.931 4.28.887-.275 3.587-1.117 3.281-7.408"/><path fill="#bf2519" d="M209.08 62.334c-1.774 2.843-2.523 11.793-1.907 17.734.217 1.96.572 3.596 1.089 4.572.71 1.35 1.901 2.152 3.26 2.202.873.044 1.415-.104 17.809-5.375 0 0 7.285-2.325 7.315-2.34 1.818-.463 3.04-2.133 3.157-4.266.119-2.187-1.01-4.118-2.871-4.817 0 0-5.138-2.094-5.148-2.094-17.616-7.266-18.409-7.551-19.296-7.561-1.36-.055-2.566.63-3.408 1.945m39.408 54.138c.286-.828.32-1.394.37-18.616 0 0 .039-7.61.044-7.684.118-1.867-1.089-3.567-3.064-4.325-2.035-.784-4.227-.3-5.458 1.231 0 0-3.596 4.266-3.606 4.266-12.34 14.497-12.857 15.167-13.158 16.025a3.518 3.518 0 0 0-.197 1.58c.074.77.424 1.528 1 2.237 2.862 3.4 16.586 8.448 20.97 7.7 1.523-.276 2.631-1.133 3.1-2.414m27.841-5.995c4.138-1.65 13.163-13.133 13.798-17.552.222-1.537-.26-2.862-1.32-3.709-.695-.522-1.222-.724-17.606-6.103 0 0-7.187-2.375-7.28-2.42-1.74-.674-3.725-.048-5.06 1.597-1.389 1.69-1.596 3.921-.487 5.606l2.891 4.71c9.724 15.792 10.468 16.91 11.168 17.457 1.083.852 2.463.99 3.896.414m-8.468-40.66c18.62-4.512 19.34-4.749 20.074-5.231 1.128-.759 1.695-2.03 1.596-3.577 0-.049.01-.103 0-.157-.478-4.572-8.488-16.463-12.433-18.394-1.4-.67-2.798-.626-3.96.152-.72.468-1.247 1.178-11.218 14.813 0 0-4.502 6.133-4.556 6.192-1.187 1.444-1.207 3.513-.044 5.286 1.202 1.837 3.231 2.734 5.093 2.217 0 0-.074.133-.093.157.916-.345 2.556-.748 5.541-1.458m-18.689-15.374c-.32-7.38-2.542-40.236-2.803-41.758-.374-1.38-1.453-2.365-3-2.754-4.754-1.177-22.921 3.911-26.286 7.384-1.083 1.128-1.482 2.517-1.157 3.749.532 1.089 23.039 36.502 23.039 36.502 3.325 5.394 6.04 4.557 6.931 4.276.882-.271 3.581-1.109 3.276-7.4"/><path fill="#231f20" d="M18.623 132.324c2.345 2.172 6.788 2.788 12.187 1.69 5.06-1 8.197-3.261 11.217-12.862L57.066 73.9c.778-2.508.72-4.685-.172-6.3-.725-1.301-1.931-2.183-3.636-2.636-2.68-.734-6.024-.66-8.133 6.542L37.234 98.31S21.16 67.945 21.15 67.94c-1.015-2.03-3.99-3.482-7.02-2.28-3.95 1.502-5.266 5.054-3.69 9.63 0 0 19.552 39.788 19.597 39.896 0 0 .532 1.419.532 1.65 0 0 .177 1.08.177 1.119-.04 1.532-.552 2.822-1.468 3.684-.901.848-2.153 1.291-3.616 1.232 0 0-3.049-.07-3.28-.07-3.133.385-5.104 2.183-5.42 4.961-.22 1.789.356 3.36 1.661 4.562m77.039-44.803H74.726c-.567-.413-.842-1.108-.419-3.197.266-1.098.552-2.083 1.39-3.463.27-.413.551-.837.822-1.26 1.532-1.937 3.606-3.178 5.966-3.73 7.36-1.798 12.492 1.941 13.325 8.32.399 2.784.137 3.33-.148 3.33zm12.867-3.645c-.675-6.827-3.31-12.157-7.63-15.423-4.602-3.493-11.114-4.606-18.823-3.227-9.665 1.675-15.468 8.581-16.798 20-1.636 13.65.61 23.936 6.517 29.753 4.453 4.4 11.04 6.148 19.05 5.064 11.423-1.606 16.56-7.876 16.56-11.842 0-2.916-1.763-5.212-4.354-5.561-1.483-.296-2.734 0-5.503 2.477-3.99 3.478-8.615 4.877-12.714 3.838-3.123-.793-5.561-2.946-6.665-5.897 0 0-.492-1.95-.463-1.734-.335-1.758-.487-3.502.596-4.212l.29-.197h25.094c2.316 0 3.488-.3 4.163-1.03 1.38-1.531 1.27-5.905.68-12.009m22.748-36.108c-1.985-.808-4.226-.591-6.192.581-1.891 1.119-2.68 2.823-2.68 5.902v59.832s.33 2.138.365 2.231c.424 1.493 1.527 2.764 3.059 3.458 1.7.789 3.66.774 5.414-.049 2.182-.946 3.468-3.128 3.468-5.832V53.945s-.38-2.896-.38-2.95c-.35-1.39-1.497-2.591-3.054-3.227m47.35 60.773c-8.286 0-9.606-7.355-9.867-12.906-.015-.015-.109-3.252-.109-3.252s.094-2.403.094-2.497c.537-9.606 2.522-13.394 7.591-14.448 3.404-.788 6.005-.404 7.956 1.167 2.93 2.36 4.221 7.355 4.103 15.69-.084 9.758-1.783 16.246-9.768 16.246zm.615-43.93c-5.551-1.134-10.3-.183-14.867 2.91 0 0-.512.414-.709.533l-.409.207-1.25.561-.356-1.404-.3-.507-.104-.315-.034-.094s-.305-.409-.35-.473c-1.31-2.04-4.872-2.975-8.083-1.143-1.572.892-2.473 2.148-2.473 5.897v58.723c0 3.217 1.01 5.217 3.216 6.271 1.862.936 3.956 1.01 5.754.237 1.527-.67 2.65-1.853 3.069-3.291l.37-2.517v-10.163l-.109-1.635.044-.483.064-.231.606-1.936 1.838 1.221s.463.306.66.513l.552.364c.004.005.64.375.64.375.01 0 .591.285.591.285 4.926 2.325 11.517 2.054 16.823-.68 6.68-3.487 9.98-9.674 10.743-20.063 1.596-20.764-3.182-30.685-15.926-33.163m25.744 48.527h.685c.556 0 1.079-.03 1.079-.655 0-.562-.478-.62-.907-.62h-.857v1.275zm-.562-1.778h1.468c.961 0 1.41.35 1.41 1.147 0 .72-.459 1.02-1.06 1.084l1.158 1.769h-.606l-1.094-1.72h-.714v1.72h-.562v-4zm1.296 4.926c1.62 0 2.926-1.276 2.926-2.966 0-1.66-1.305-2.94-2.926-2.94-1.626 0-2.931 1.28-2.931 2.975a2.904 2.904 0 0 0 2.931 2.93zm0-6.404c1.892 0 3.483 1.488 3.483 3.438 0 1.985-1.591 3.468-3.483 3.468-1.897 0-3.483-1.483-3.483-3.433 0-1.985 1.586-3.473 3.483-3.473"/></svg>