<svg xmlns="http://www.w3.org/2000/svg" role="img" viewBox="-12.00 -11.00 624.00 396.00"><defs><clipPath id="clip-path"><path fill="none" d="M399.25 99.44a98.79 98.79 0 1 1-99.53-98 98.78 98.78 0 0 1 99.53 98"/></clipPath><style>.cls-8{fill:#f4896a}.cls-9{fill:#ec5735}</style></defs><path fill="#322965" d="M12.06 369.84a1.85 1.85 0 0 1-.66-1.41 4.1 4.1 0 0 1 .41-1.62l8-18.66L.4 302.44A3.81 3.81 0 0 1 0 301a2.68 2.68 0 0 1 .71-1.56 2 2 0 0 1 1.51-.66h8.38a2.72 2.72 0 0 1 2.62 1.92l13.42 32.9 13.62-32.9a3.11 3.11 0 0 1 2.83-1.92h8.17a2.05 2.05 0 0 1 1.51.61 1.9 1.9 0 0 1 .61 1.41 4.25 4.25 0 0 1-.4 1.62l-28.56 66.11a2.86 2.86 0 0 1-2.83 1.92h-8.07a2.08 2.08 0 0 1-1.46-.61zm54.84-23.61q-5.36-6.06-5.35-16.65v-28.35a2.31 2.31 0 0 1 .71-1.77 2.41 2.41 0 0 1 1.74-.66h9.09a2.42 2.42 0 0 1 2.42 2.43V329q0 12.42 10.79 12.42a10.79 10.79 0 0 0 8.33-3.33q3.08-3.33 3.08-9.09v-27.77a2.31 2.31 0 0 1 .7-1.77 2.42 2.42 0 0 1 1.72-.66h9a2.35 2.35 0 0 1 1.76.66 2.39 2.39 0 0 1 .66 1.77v47.62a2.42 2.42 0 0 1-.66 1.72 2.28 2.28 0 0 1-1.76.71h-8.43a2.42 2.42 0 0 1-2.42-2.43v-4.13q-5.55 7.56-16.75 7.56-9.28 0-14.63-6.05zM134 370.5q-5.55-3-7.87-6.81a13.33 13.33 0 0 1-2.32-6.56 2.18 2.18 0 0 1 .71-1.67 2.4 2.4 0 0 1 1.71-.65h9a2.71 2.71 0 0 1 1.57.45 3.22 3.22 0 0 1 1.06 1.67 11.92 11.92 0 0 0 3.33 4.49c1.48 1.24 3.76 1.86 6.86 1.86q6 0 8.88-2.67c1.88-1.78 2.82-4.9 2.82-9.33v-6.87q-5.44 6.46-15.44 6.46-10.48 0-15.79-6.36t-5.7-17.35l-.1-2.73.1-2.72q.4-10.8 5.75-17.36t15.74-6.56a20.81 20.81 0 0 1 9.39 2 19 19 0 0 1 6.66 5.45v-3.93a2.36 2.36 0 0 1 .76-1.82 2.5 2.5 0 0 1 1.76-.71h8.28a2.33 2.33 0 0 1 1.71.71 2.47 2.47 0 0 1 .71 1.82l.1 48.63q0 11.21-6.26 17.36t-18.87 6.15q-9.01.02-14.55-2.95zm22.6-34a15.48 15.48 0 0 0 3.13-8.88 52.05 52.05 0 0 0 0-6.45 15.48 15.48 0 0 0-3.13-8.88q-2.82-3.65-8.47-3.64-10.9 0-11.5 13.32l-.11 2.42q0 15.75 11.61 15.75 5.66.04 8.47-3.6zm36.18 13.72a17.18 17.18 0 0 1-6.76-5.6 13.71 13.71 0 0 1 3.08-18.87q5.55-4.25 15.23-5.76l13.83-2v-2.12q0-4.33-2.22-6.56t-7.07-2.22a10.25 10.25 0 0 0-5.34 1.21 17 17 0 0 0-3.28 2.47l-1.67 1.67a1.53 1.53 0 0 1-1.51 1.21h-7.87a2.21 2.21 0 0 1-1.57-.61 2.07 2.07 0 0 1-.65-1.61 10.63 10.63 0 0 1 2.47-5.7 19.32 19.32 0 0 1 7.31-5.55 28.15 28.15 0 0 1 12.24-2.39q11.91 0 17.36 5.35t5.45 14v31.68a2.42 2.42 0 0 1-.66 1.72 2.28 2.28 0 0 1-1.76.71H221a2.42 2.42 0 0 1-2.42-2.43v-3.93a16.61 16.61 0 0 1-6.26 5.3 22.1 22.1 0 0 1-10.09 2.06 21.54 21.54 0 0 1-9.45-2.03zM214.73 339q3.53-3.63 3.53-10.49v-2l-10.09 1.62q-11.61 1.81-11.61 7.77a5.62 5.62 0 0 0 2.68 5 11.31 11.31 0 0 0 6.4 1.77 12.11 12.11 0 0 0 9.09-3.67zm43.08 6.12v3.73a2.33 2.33 0 0 1-.7 1.72 2.49 2.49 0 0 1-1.82.71h-8.07a2.41 2.41 0 0 1-2.42-2.43v-66.8a2.28 2.28 0 0 1 .7-1.76 2.42 2.42 0 0 1 1.72-.66H256a2.27 2.27 0 0 1 2.42 2.42v22.4q5.64-6.66 15.44-6.66 10.18 0 15.69 6.61t5.8 17.31c.07.81.1 1.92.1 3.33s0 2.46-.1 3.33q-.41 10.89-5.85 17.41t-15.64 6.5q-10.5 0-16.05-7.16zm23.71-17.05c.07-.67.11-1.68.11-3s0-2.35-.11-3q-.7-13.32-11.5-13.32-5.55 0-8.47 3.53a13.86 13.86 0 0 0-3.13 8.58c-.07.81-.1 2.12-.1 3.94s0 3 .1 3.83a15.61 15.61 0 0 0 3 9.08q2.83 3.74 8.58 3.74 10.82-.06 11.52-13.38zm31.13 41.77a1.87 1.87 0 0 1-.65-1.41 4.07 4.07 0 0 1 .4-1.62l8-18.66-19.4-45.71a3.81 3.81 0 0 1-.4-1.42 2.66 2.66 0 0 1 .7-1.56 2 2 0 0 1 1.52-.66h8.37a2.74 2.74 0 0 1 2.63 1.92l13.42 32.9 13.62-32.9a3.1 3.1 0 0 1 2.82-1.92h8.18a2.07 2.07 0 0 1 1.51.61 1.94 1.94 0 0 1 .61 1.41 4.1 4.1 0 0 1-.41 1.62L325 368.53a2.86 2.86 0 0 1-2.83 1.92h-8.07a2.1 2.1 0 0 1-1.45-.61zm59.99-23.36Q368 341.7 368 332.41V309.6h-8a2.41 2.41 0 0 1-2.42-2.42v-5.95a2.33 2.33 0 0 1 .7-1.72 2.36 2.36 0 0 1 1.72-.71h8v-16.75a2.29 2.29 0 0 1 .71-1.76 2.41 2.41 0 0 1 1.71-.66h8.38a2.27 2.27 0 0 1 2.42 2.42v16.75h12.61a2.36 2.36 0 0 1 1.72.71 2.33 2.33 0 0 1 .7 1.72v5.95a2.41 2.41 0 0 1-2.42 2.42h-12.61v21.7c0 2.89.5 5.08 1.51 6.55s2.66 2.22 4.95 2.22h7.06a2.39 2.39 0 0 1 1.77.66 2.43 2.43 0 0 1 .65 1.77v6.35a2.45 2.45 0 0 1-.65 1.72 2.31 2.31 0 0 1-1.77.71h-8.27q-9.19 0-13.83-4.8zm38.3-.65q-6.62-6.46-7-18.37l-.1-2.52q0-12.62 6.61-19.88t18.32-7.27q12 0 18.51 7.27t6.51 19.37v2.12a2.34 2.34 0 0 1-.71 1.72 2.44 2.44 0 0 1-1.81.7h-33.5v.81a15.63 15.63 0 0 0 3.08 9.34 9.49 9.49 0 0 0 7.92 3.68 11.39 11.39 0 0 0 9.38-4.64 5.47 5.47 0 0 1 1.41-1.36 4.13 4.13 0 0 1 1.72-.26h8.88a2.48 2.48 0 0 1 1.56.51 1.66 1.66 0 0 1 .66 1.41c0 1.61-1 3.52-2.88 5.7a23.67 23.67 0 0 1-8.22 5.7 29.77 29.77 0 0 1-12.41 2.42q-11.33 0-17.93-6.45zm28.91-25.43v-.2q0-6-3-9.54a10 10 0 0 0-8.12-3.58 9.86 9.86 0 0 0-8.08 3.58q-2.93 3.58-2.92 9.54v.2z"/><path fill="#ff6e42" d="M467.66 350.52a2.44 2.44 0 0 1-.75-1.77v-65.49a2.62 2.62 0 0 1 .7-1.86 2.36 2.36 0 0 1 1.82-.76H496q14.92 0 23.2 7.11t8.68 20.44q.1 2.93.1 7.77c0 3.23 0 5.78-.1 7.67q-1 27.64-31.38 27.65h-27a2.45 2.45 0 0 1-1.84-.76zM496 336.14q6.34 0 9.38-3t3.23-9.68q.19-2.94.2-7.57t-.2-7.47q-.21-6.45-3.48-9.54t-9.64-3.07h-9.58v40.36zm44.21 14.38a2.44 2.44 0 0 1-.75-1.77v-65.49a2.62 2.62 0 0 1 .7-1.86 2.36 2.36 0 0 1 1.82-.76h31.18q12.81 0 19.07 5.25t6.26 14.93a13.84 13.84 0 0 1-2.58 8.38 16.47 16.47 0 0 1-5.7 5.14 16.23 16.23 0 0 1 7 6 16.44 16.44 0 0 1 2.83 9.43q0 10.2-6.71 15.84t-19.22 5.66H542a2.46 2.46 0 0 1-1.79-.75zM571 308.59a7.77 7.77 0 0 0 5.75-2 7.06 7.06 0 0 0 2-5.24 6.9 6.9 0 0 0-2-5.1 7.86 7.86 0 0 0-5.8-2h-12.52v14.33zm.91 29.06a8 8 0 0 0 6.1-2.27 8.37 8.37 0 0 0 0-11.3 8.09 8.09 0 0 0-6-2.27h-13.58v15.84z"/><path fill="#312965" d="M399.25 99.44a98.79 98.79 0 1 1-99.53-98 98.78 98.78 0 0 1 99.53 98"/><g clip-path="url(#clip-path)"><path fill="#5b5480" d="M313.05 1l.31.06-.31-.06M310.9.72l.44.05h-.42m-.25 0l-.56-.17.57.08m58.69 27.94l-.32-.34c-1.56-1.46-3-2.77-4.43-3.93l-.63-.52c1.87 1.47 2.89 2.42 5.06 4.45l.52.49a1.73 1.73 0 0 0-.2-.15m25 37.79l.07.18-.05-.13m-.83-2.11c.29.71.57 1.42.82 2.08l-.06-.16c0-.13-.1-.3-.15-.43v-.11l-.05-.13v-.06c-.17-.39-.32-.78-.5-1.19M388.19 53c-1.38-2.49-2-3.69-3.3-5.58 1 1.59 2 3.19 2.87 4.8.15.27.3.53.43.78m-8.51-13l-.09-.13.09.12m-10.32-11.35c.2.2.42.39.62.6l-.44-.47a1.73 1.73 0 0 0-.2-.15m12 128c-.12.18-.25.35-.37.52a66.52 66.52 0 0 0 3.8-5.52c-.62.95-1.76 2.72-3.43 5m7.57-12.13a58.4 58.4 0 0 0 3.24-6.67l-.11.22c-1 2.25-2 4.4-3.13 6.45m6.53-15.33a.24.24 0 0 0 0 .08 63.16 63.16 0 0 0 1.83-6.36c-.55 2.19-1.17 4.3-1.83 6.35v-.07m4.71-29.89a.75.75 0 0 1 0 .15.75.75 0 0 0 0-.15m-1.1-14.61c.29 1.68.44 2.87.59 4.7-.16-1.64-.36-3.21-.59-4.7m-110.34-54.5c0-.15 0-.31.05-.46s0-.53 0-.8l-.87-.12-.93.46.19 1.15h1.12l.48-.23m-3.17-1.56v-.5c-.15.08-.26.22-.42.3a.85.85 0 0 1-.35.1 2.62 2.62 0 0 0-.84.39l-.42.22c.14.11.22.27.41.33a1.1 1.1 0 0 0 .48 0 2.7 2.7 0 0 0 .77-.4c.09-.06.09-.06.36-.4m6.7-16.64l.86-.23-.75-.62-1.27-.07h-.86v.69l.08.55 1.41.08.56-.4M309.47.52h.17c-.41-.06-.83-.1-1.25-.15h-.3.23l1.51.18 1.17.18.54.08.6.08.53.09.34.05h.2l-2.1-.29h.15l-.66-.07-.6-.08h.11l-.64-.08m2.71.38l-.64-.09-1-.13h-.14c.4.06.81.1 1.21.17l.39.06h-.23l.94.14-.43-.04c.39.06.78.13 1.18.17-.29-.05-.58-.08-.87-.14h.09-.11c.3.05.6.08.89.14l.67.11.58.1.38.06c-.3-.06-.83-.15-1.61-.27l-.31-.05h-.15l-.84-.22m4 1a5.88 5.88 0 0 0-.85-.13l.25.05c-.49-.09-1-.16-1.47-.24.42.1.85.13 1.27.25h-.25l-.77-.15h-.17l-.35-.06.42.08h-.17c1.17.2 1.53.28 1.88.35-.47-.06-.92-.17-1.38-.24-.3-.05-.32-.05-.4 0 .39.09 1.22.25 1.6.3h.27l-.19-.11a7.55 7.55 0 0 1 .77.13h-.05l.75.15c.21 0 .42.09.63.11h-.08c.25 0 .46.2.71.11-.25-.12-.55-.09-.82-.21h.34c-.14 0-.14 0-2-.43m1.79.6h-.17.17m6.55 1.38l-.33-.09-.67-.16h.06l-1.17-.29c-.74-.19-1.48-.35-2.21-.52l-1.26-.24a1.21 1.21 0 0 0 .3.09h-.38l-.8-.16c-.77.12-1.41-.3-2.13-.37.33.09.67.15 1 .22l.33.07a15.82 15.82 0 0 1 1.67.38 5.54 5.54 0 0 1-.95-.19l-.34-.08-.34-.07-.34-.08a5.78 5.78 0 0 0-.69-.12l1.05.26-.57-.13-.89-.2.66.16h-.05c1.45.52 3 .65 4.46 1.06-.53-.1-1.05-.26-1.58-.35.25.08 2.07.53 2.3.55a6.92 6.92 0 0 0-1-.29 5 5 0 0 1 1.23.27h.07c-.12-.05-1-.31-1.37-.4l-.54-.13c.43.09.43.09 1.27.3h.05l-.47-.14.26.06c.28.06.55.15.84.2l.29.08h-.35a.94.94 0 0 0 .27.1c0 .09 0 .09.58.24l.72.2-.13-.07h.2c-.08-.06-.08-.06-.65-.25h-.05c.14 0 1.32.4 1.33.41a.42.42 0 0 0-.2 0 25 25 0 0 0 3.58 1h-.07l-2.95-1c-.56-.19-1.1-.34-1.65-.49a10.92 10.92 0 0 0-2.09-.57h.07c2.29.56 2.29.56 4.21 1.1-.28-.11-.56-.19-.85-.28a12.37 12.37 0 0 1 1.23.33 6.56 6.56 0 0 0-.78-.24V3.9l-.16-.06m45 25.74l.09-.1h-.08l-.21-.17-.22-.22s0 .12.46.48M346 12.23c-.44-.24-.89-.47-1.34-.7l.07.05.16.07 1.15.6m8.24 4.49l-5.68-3.42-.6-.32h.06l.7.38.07.05L348 13l-.21-.11-.92-.49h.05l.4.22a4.25 4.25 0 0 0-.54-.24l-.37-.19-.65-.36c-.4-.2-.81-.36-1.21-.56l.89.46-.53-.24-.5-.27-.35-.17v.08c.76.37.77.37 1.25.63l.29.15.25.13a14.44 14.44 0 0 0-1.31-.66l-.75-.37h-.09.07c.5.27 1.5.86 1.51.87a5.07 5.07 0 0 1-.79-.39h-.13a5.31 5.31 0 0 0 1.57.84c.28.13.5.25.71.37a3.74 3.74 0 0 0-.42-.11h-.06c1.15.62 1.24.68 1.46.82-.66-.32-.66-.32-2-.93a3.47 3.47 0 0 0 .54.34 16.38 16.38 0 0 1 1.84 1.23c-.17 0-.17 0-1-.48.28.21 1 .67 1 .67.25.14.54.24.79.39l.29.17.23.15a14.83 14.83 0 0 1-1.73-.85c.35.24.64.42.92.59l.11.08h-.15c.22.31.6.41.9.61l-.1.09a4.83 4.83 0 0 0 .45.34v.05a4 4 0 0 0 .52.37h-.05l.27.2h.12c-.45-.48-.45-.48-.45-.53l-.25-.17-.05-.08-.1-.12v-.12a1.82 1.82 0 0 1 .61.32c.15.39 5.28 4.29 5.34 4.33l-.24-.16a9.36 9.36 0 0 0 1.12 1.24l.21-.07c.15.13.15.13 2 2.12a1.09 1.09 0 0 1-.31-.08.48.48 0 0 0-.19 0l.42.37c.19.13.37.26.55.41v.19a18.76 18.76 0 0 0 1.1 1.53l-.12.06c.41 1 1.44 1.44 2.13 2.19v.06l.19.23c.15.15.31.29.46.45l.21-.05c1.25-.13.79 1.73 2 1.67.49.51.49.51.56.67a5.76 5.76 0 0 0 1.29-.22c-.16-.22-.32-.44-.5-.65l.13-.06-.06-.12c-.15-.16-.31-.31-.47-.47.1 0 .36.07 1.43 1.14A9.26 9.26 0 0 0 369 30a9 9 0 0 0-1.33-1.57l-.25-.24c-.6-.54-1.39-.85-2-1.41s-1.36-1.2-2-1.77a55.91 55.91 0 0 0-7.18-6.31h.08q.42.26.84.54c-.11-.11-.23-.2-.35-.3a7.72 7.72 0 0 1 .91.57l.9.64v.05a17.58 17.58 0 0 1 1.94 1.49h-.13c.65.63.65.63 4.65 4l.26.22c.47.4 1.18.9 2.35 1.74h.05c-.16-.18-.31-.34-.46-.52l.12.05a1.53 1.53 0 0 0-.38-.43l-.1-.11v-.15l-.21-.2-.06-.08.53.46.24.21c.58.52 1.11 1.09 1.67 1.64a2.26 2.26 0 0 1-.46-.34 2.78 2.78 0 0 0 .28.47l-.12-.05a7.33 7.33 0 0 0 .85.89c.22-.17.19-.4 0-.63l-.52-.5c-7.72-6.73-7.87-6.86-12.33-9.93l-1.56-1.05-1.87-1.19c.3.17 1 .6 1 .6m12.77 14c-.38.1-.79.2-1.25.3l.16.21c.08.08.18.14.26.22l.17.18h.22l.15.11c.14.12.29.22.44.33v-.15h.16c.07 0 .11.11.2.08s0-.24 0-.24l-.08-.1c-.06-.09-.08-.12-.07-.14s.1 0 .06-.12a5.08 5.08 0 0 0-.48-.7m2-.69a11.3 11.3 0 0 1-1.45.53c.29.28.64.5.93.78l.11.12c.66.72.66.72.89.88a4.32 4.32 0 0 1 .69.53l.23.24.22.24a7.29 7.29 0 0 0 1.13.95 6.37 6.37 0 0 1 .79.93l.1.12.46.48.37-.13c-.8-.95-.8-.95-.88-1.14h.07c.1 0 .16.13.26.14-.07-.17-.32-.24-.27-.47-.21-.25-.42-.49-.66-.73l.17-.08c-.19-.19-.37-.39-.56-.59h-.08v.06c-.16 0-.21-.22-.36-.27a13.35 13.35 0 0 0-1.45-1.67 4 4 0 0 1-.8-1m10.6 9.89c-2.89-3.43-6.9-7.89-10-11.1a.5.5 0 0 1 .11.7l-.09.1h.08c.42.34.61.9 1.13 1.16-.1-.23-.1-.23-.5-.65.35.15.35.15 2.41 2.33v.09a4.16 4.16 0 0 1-.72-.65c-.13-.1-.14-.09-.14-.09l-.34-.34c-.1-.1-.15-.1-.16-.09 1.27 1.43 2.41 3 3.8 4.29l.2.26a.8.8 0 0 0-.43-.1c.05.08.05.08 1.13 1.3v.08c-.38-.31-.75-.66-1.14-1a10.07 10.07 0 0 0 .72 1.43l-.16.18.11.19-.22.08a5.68 5.68 0 0 1-.77-.83c-.14-.12-.18-.1-.21-.09l.09.21a.59.59 0 0 1-.21.15c.06.26.06.26.54.85h-.13c-.3-.1-.3-.1-.8-.68v.07h-.14c-.12-.15-.23-.3-.36-.44l-.3-.35c0-.18.08-.21.16-.23a4.32 4.32 0 0 1 .62.35c0-.44-1.22-1.78-1.74-2.34-.15-.12-.19-.1-.23-.09-.07.23-.07.23.3.78v.07c-.25-.19-.25-.19-.77-.91l-.43-.5h-.23a13.16 13.16 0 0 0-1.76-1.74c0 .54.78.78.63 1.39.1.11.23.25.34.35l.24.26c.77.91 1.44 1.89 2.29 2.73l.24.29.43.58c.28.32.6.6.89.91l.45.58h-.11l-.14.18h-.14a1 1 0 0 0-.43 0 1.14 1.14 0 0 0 .07.41l-.1.21c.38.69.38.69.48.91h-.43a.63.63 0 0 0 .19.56l.37.22.62.85c-.23.26-.23.26 0 1.26 0 .17 0 .18-.08.19h-.21a10.85 10.85 0 0 0 .94 1.63 1.19 1.19 0 0 0-.42.21 2.86 2.86 0 0 0 .43.93l-.42.07-.18-.11a1 1 0 0 1-.45 0c-.07-.09-.12-.18-.18-.27a.63.63 0 0 0-.4-.19 5.41 5.41 0 0 0 .45.86c.26.12.44.49.58.73l.22.27a4.05 4.05 0 0 1 .21.35 1.51 1.51 0 0 1-1.39-.32 1.33 1.33 0 0 1-.39.24c-.14.33-.21.5.24 1h.16c.51.55.79.48.93.45h.16c.52.39 1 .82 1.5 1.23l.8 1.48c2 2.3 2 2.3 2.65 4.88 0 .15-.1.33-.13.47-.21.14-.25.15-.3.16-.52-.28-1.15-.32-1.6-.73a13.68 13.68 0 0 0-1.46.14c-.7 0-.7 0-.92-.24h-.12l-.09.19a2 2 0 0 1 .16.45 1.75 1.75 0 0 1-.77.22l.05.3c.8.94.84 2.26 1.72 3.16.29.68.52 1.27.75 1.86.27.9.15 1.89.69 2.73l.25.37a2.83 2.83 0 0 1 .11.31l.11.31c0 .42 0 .58.34 1.46a1 1 0 0 0 .53 0 1 1 0 0 1 .44-.16c.17.14.29.34.49.44a1.21 1.21 0 0 0 .38-.28c.3.16.58.34.88.51.28.35.41.79.77 1.08v-.36l-.18-.06.11-.18c1-.1.26-1.52 1.23-1.64.53-.67.43-1.68 1.29-2.17l-.39-1a5.31 5.31 0 0 1-1-2.64c0-.15-.07-.34-.11-.48a1.56 1.56 0 0 1 .32-.31c-.1-.59-.1-.59.32-1.26a1.3 1.3 0 0 0 .42-.14 7.89 7.89 0 0 0-.37-.91 2.71 2.71 0 0 1-.13-.3c-.83-1.57-1.24-2.37-.22-2h.08a6.19 6.19 0 0 0 .59.41h.34l.11-.2a4 4 0 0 1-.37-1.1c.11-.13.13-.14.16-.14l.17-.16a3.07 3.07 0 0 0-.15-.88c1.46.33 1.41 1.87 2.31 2.65a1.79 1.79 0 0 1 .52.68 17.23 17.23 0 0 1 4.08 5.78c-.07.1-.07.1-.09.93-.22 0-.22 0-.7.18l.16.36c.41.37.47 1 1 1.27a.84.84 0 0 0 .5-.06c-.14-.38-.29-.77-.43-1.16a11.46 11.46 0 0 0-.76-3.35c0-.11-.1-.22-.15-.33l-.13.11a1 1 0 0 1-.22-.36c-.06-.13-.14-.32-.19-.45l.2-.09a1.69 1.69 0 0 1 .44.55c-.27-1.28-1.38-2.08-2-3.17-.53-.16-2.08-2.42-2.18-2.57h-.1c-.2-.34-.2-.34-.51-.94h-.22a2.1 2.1 0 0 1-.5-.69l-.09-.31v-.23l-.08-.14a7.09 7.09 0 0 1-.58-1l.21-.09a35.86 35.86 0 0 1 3.35 3.87 29.81 29.81 0 0 1 1.9 2.88c1.39 2.84 1.39 2.84 1.63 3 .23.46.4.87.56 1.27l-.08.06-.08-.23c0 .18 0 .42.67 1.47a2.73 2.73 0 0 0-.1-.41v-.22c.31.68.59 1.39.9 2.06.09.1.11.08.13.07a2.25 2.25 0 0 0-.23-.89 5.19 5.19 0 0 0-.18-.43 5.1 5.1 0 0 1-.24-.67l.13.17h.05a12.61 12.61 0 0 0-.47-1.25 2.61 2.61 0 0 0-.34-.86 6.41 6.41 0 0 0 .26.73 27.41 27.41 0 0 1-1.32-2.5c0-.1-.09-.19-.13-.29l-.09-.23h.06c.06.11.16.27.23.38l.05-.06a4.86 4.86 0 0 1-.5-1.29c.26.33.38.74.62 1.09.08.15.17.36.24.51.29.81.71 1.58 1 2.38l.17.41.18.45c.11.26.21.52.32.77v.21l.05.15.06.14v.1c.09.22.17.43.24.66l.06.15.07.21c.12.29.22.58.33.87v.15l.05.1c-.05-.16-.14-.37-.19-.53l-.14-.4c-.07-.2-.16-.41-.24-.61s-.11-.32-.16-.46c-1.61-3.81-3.9-8.85-5.78-12.54-5-8.27-5.76-9.54-8.62-13.07m-18.94-7.49l-.05-.06-.09.18c0 .13.09.23.08.35l-.07.08c0 .09.11.14.14.22a2.7 2.7 0 0 0 .13.43 3.92 3.92 0 0 0 .25.32l.23.11v-.14l-.07-.13c-.17-.34-.17-.36-.15-.38h.1c.09-.05.09-.07.08-.1s-.14-.14-.2-.21v-.13a3.44 3.44 0 0 0-.37-.55m12.66 9.93a4.61 4.61 0 0 0-.44-.56c-.42-.29-.7-.71-1.13-1l-.05.08c.1.13.39.51.29.74-.09 0-.09 0-1.23-1.44l-.32.06c-.49-.73-1-1.47-1.33-1.37-.09-.07-.16-.16-.25-.24a6.47 6.47 0 0 1-.87-.67c-.38-.26-.6-.67-1-.93s-.83-.18-1.16-.47l-.3-.72.13-.08c-.07-.08-.14-.16-.22-.27s-.24-.6-.44-.86l-.83-1-1.08.16c-.88-1.53-1-1.68-1.17-1.73h-.09l-.19.07c-.1.08-.2.08-.52.05.09.11.09.11.73 1 .21.29.59.47.69.85-.31.18-.5-.21-.78-.16A1.49 1.49 0 0 0 363 35c0 .09.09.18.13.26a2.43 2.43 0 0 1 .2.25 3.49 3.49 0 0 1 .56.75c-.25.22-.25.22.23.78a.52.52 0 0 0 .26-.08v-.09l.64.46h.26a1.79 1.79 0 0 1-.33-.51 5.18 5.18 0 0 1 1.14 1.25h-.06v.16a3.46 3.46 0 0 0 .47.49c.21 0 .42-.05.61-.09l-.08-.23c.81.27.95 1.22 1.68 1.55.28.46.93.69.87 1.35-.28 0-.51-.23-.8-.15h-.19l.09.28c0 .08.1.19.14.28h-.24c.28.39.29.42.45.43.37-.37.52-.06.75.41h-.13a2.59 2.59 0 0 0 .12.48l-.13.07h-.08c.1.19.46.81.71.78a2.22 2.22 0 0 1 .13-.31l1.06.18s.68.63-.15.69c-.11.16 0 .31 0 .47h-.07l-.2.17c.54.83.54.83.36 1.3l.21.16a1.18 1.18 0 0 0 .29-.25l-.05-.44.39.16.37-.05c-.36-.59-.36-.61-.39-.74a.47.47 0 0 0 .36-.06c.07 0 .17.06.49 0a.66.66 0 0 0-.1-.43l.05-.07c.29.06.46.31.73.39h.08c.11-.08.27-.06.38-.13s-.16-.3-.11-.49h.16v-.15a6.73 6.73 0 0 0-.77-.91l-.09-.13c-.14-.2-.14-.2-.14-.31l.15-.07-.32-.53h.21m-6.71-2.84l-1.13-1.21c-.23-.22-.32-.17-.36-.14a2.2 2.2 0 0 1-.28-.18h-.09c-.09 0-.08.16-.17.21s.09.28.08.43c-.24-.14-.47-.32-.71-.46l-.27.1c.31.42.58.87.9 1.28h-.08v.12l-.17.06-.11.2a1.81 1.81 0 0 1-.27-.18l-.12.09c.42.6.84 1.22 1.25 1.83a1.16 1.16 0 0 0 .48-.05q.28.41.54.81a1.43 1.43 0 0 1-.31.11 2.8 2.8 0 0 0 .18.51c.09.21.27.36.35.57l-.06.12c.21.67.86 1 1 .82s.18-.3.52-.07c.1-.06.1-.06-.08-1l1.17-.15-.35-.31a2.39 2.39 0 0 0-.23-.26c-.26-.26-.25-.31-.24-.34h.06a10 10 0 0 0-1.2-1.87c-.13-.17-.25-.34-.37-.52h.11a.43.43 0 0 0-.07-.46m32.13 43.19L397 75.1a17.24 17.24 0 0 0-1.14-2.1c-.23 1.58.74 2.94.83 4.45l-.26-.12a6.9 6.9 0 0 0-.57-1.07 6 6 0 0 1-.55.24l-5.13-9.61c-.35.73-1.15 1.07-1.57 1.74-.65-.91-.65-.91-1.29-1-.15.51-.52.94-.52 1.5a3.52 3.52 0 0 0-1.23.39c.14 1.25.14 1.25 0 1.68h-.58l-.36.4h-.14l-.56-.08h-.12a1.25 1.25 0 0 1-1.5-.44l-.4-.17a11.59 11.59 0 0 0 .44 2.86 4.34 4.34 0 0 1-1.13.16c.23.87.46 1.75.68 2.64a1.36 1.36 0 0 0-1.19.65c.23 1.42.35 2.83.59 4.24.08.39.16.77.22 1.15l-1.08.12c.13 1-.43 1.91-.61 2.87-2.69 1.7-.31 5-2.38 6.91l-.18.1-.54.14c0 .27 0 .27-.93 5 0 .39.05.79.07 1.18.6.08 1.21 0 1.82.11.06.17.16.39.23.56-.35 1.18-.35 1.18-.33 5.55v1.12c-.18.73-.18.73-.87 1.42 0 .78.24 1.53.31 2.3v.67c-.05 1.49.22 1.82 1.35 3.23h.56a10.07 10.07 0 0 1 .46 1.69l.58.07c-.33 2.77-.33 2.77 1.9 4-.05.56-.13 1.13-.18 1.69.82.71 1.2 1.86 2.4 2.18.34-.48.54-1 .83-1.53.34 0 .79-.1 1.12-.17h.2a2.64 2.64 0 0 1 1.12 0c.08.16.16.39.22.55 1.55-.25 1.61-2.53 3.47-2.33 0 0 .09 0 .28-.26a3.19 3.19 0 0 1 .77-.87l.5.26c-.13 2.28-.13 2.28.2 2.7.6-.14 1.15-.27 1.65-.42-.13.67-.28 1.33-.55 2.36-4.07 15.8-4.07 15.8-4.83 17.29l-.27.59c-1.61 3.58-2.67 5.94-10.87 18.35-.68.87-1.37 1.72-2.06 2.57a69.37 69.37 0 0 1-7.47 8.34l-.42.39c-.8.7-.8.7-1.3 1.18-1 .84-1 .84-1.29 1.15l.21-.15c3-2.77 6.9-6.63 9.72-9.58 3.52-4 3.52-4 9.46-12.47 2.85-4.43 2.85-4.43 7.39-13.8 2.11-4.88 2.11-4.88 5.09-14.94 2.37-9.41 2.66-17.54 2.9-24.07 0-5.53 0-5.53-1.46-16.22m-47.26 60.94c.22-3.18-.22-3.41-.73-3.67h-1.6c-1.53-.42-1.86-3.07-3.88-2.34l-2 .07c-1.27-.65-2.18-1.12-2.42.11-.35.23-.72.46-1.64-.12.1-.32.1-.32.91-.89-2.17-1.4-2.17-1.4-3.29-1.54a1.45 1.45 0 0 1-.66-.15 2 2 0 0 0-1.75-.22c-.06.49-.12 1-.17 1.46h-1.31a4.51 4.51 0 0 1 .22-1 5.48 5.48 0 0 0 .59-.59l.42-.3-.11-.41s-.72-.2-1.77-.55h-.7l-.37.25c-.09.81-.14 1.35-1.43 1.19a5.1 5.1 0 0 1 .17-.92c2.12-2.3 2.12-2.3 1.61-3.36h-.88c0-.57.09-1.14.14-1.71a13.62 13.62 0 0 0-.77-2s-3.41-1.56-4.3-2.06-1.67.18-2.51.15h-.64c-3.12-.5-3.35-1.19-4-3-.24 0-.24 0-1.95-.9a.57.57 0 0 0-.07-.35c-1.2-.16-1.14-.85-1.08-1.53a3 3 0 0 0-.69.09c-1.39.41-1.39.41-1.75.37a8.21 8.21 0 0 1-.13-1.24 2.3 2.3 0 0 0 .78-.35c-.33-.45-.4-.54-1.54-.71l-.78.58a.54.54 0 0 1-.26 0 1.78 1.78 0 0 0-1.36-.2c-.7 1.49-.7 1.49-1.25 1.61-.72-.45-1.21-1.23-2.16-1.37a11.82 11.82 0 0 1-2.12-.14l-.87-.17a1.26 1.26 0 0 0-.34-1c-1 0-1.76-1.18-2.92-.73a1.26 1.26 0 0 1-.49 1.19 1.91 1.91 0 0 0-1.53.63c-.41 1 .44 2 .06 2.94-1.7-.91-.25-2.66-1-3.83.14-.63 1.5-1.66 1.52-1.67l-.17-.34h-.75c-1 .22-1.21.29-1.14 1.43a21.75 21.75 0 0 0-2.25.1 4.63 4.63 0 0 1-3.37 1.19 9 9 0 0 1-.14 2.07 1.53 1.53 0 0 1-1.3.42 3.59 3.59 0 0 0-.61 1.56c-1.29.88-1.57 1.6-1.63 2a2.6 2.6 0 0 0 .79.33c0 1.33 1.54 3-.11 4-.23 2-.23 2-.63 2.42-.29 0-.66 0-.94.07.07.33.16.77.2 1.11-.3.15-.69.37-1 .54 0 .19 0 .44-.06.63-.93.2-1.44.32-1.4 1.86a2.42 2.42 0 0 0-1.33.24 17.42 17.42 0 0 0 .13 2.6l.41.19a1.83 1.83 0 0 1 1.32-.11 2.43 2.43 0 0 1-.12.91 9.05 9.05 0 0 0-1.33.45c0 .68 0 .68-.93 1.3-.14.72-.14.72.53 1.54v.3c.16 2.92 4.24 3.06 4.55 5.88a5.88 5.88 0 0 0 .06.68c5.14 7.33 5.14 7.33 5.79 7.39 0 0 2.38.44 5 3.42h.9c0 .9 0 1.78-.05 2.66a2.39 2.39 0 0 0-.07.88l-.08.13v.41c0 .24.08.3.11.44a1.75 1.75 0 0 1-.16.47 2 2 0 0 0-.08.81l-.07.07a1.27 1.27 0 0 0 .1.49v.54c0 .08 0 .16-.23.54a2 2 0 0 0 .2.82v.56a.78.78 0 0 1-.1.38c-.16.84-.87 1.48-.88 2.37a26.61 26.61 0 0 1-1.11 3.28 1.13 1.13 0 0 0 0 .22c.59 3.15.72 3.81-.78 5.06a3.68 3.68 0 0 0 0 .51v.42l.06.12c-.28.65-.9 1.07-1.22 1.69.73 1.21.54 1.6-.05 2.77.06.12.12.27.17.39a1.22 1.22 0 0 1 .17.65l-.44.12c-.28.84-.28.84-.19 1.16l.38.18h.59l.11-1.41h.73a1.42 1.42 0 0 1-.12.62l-.36.26a5.52 5.52 0 0 1 0 .88c-.07.08-.07.08-.28 1.56a2.21 2.21 0 0 1-.52-.44 4.16 4.16 0 0 0-.07-.43l-.26.07c0 .15 0 .29.37.66a2.64 2.64 0 0 1 .28.77c-.31-.15-.58-.36-.9-.49 0 .14 0 .28-.34.55v.42a2.18 2.18 0 0 1 .83.26c0 .12-.06.29-.08.41s.29.06.41.07a3.71 3.71 0 0 1 .14.39c-.85.09-.85.09-1.23.33a1.74 1.74 0 0 0 .12.36l.3.31a4.24 4.24 0 0 1 0 .44 1.42 1.42 0 0 0 .45.66l-.27.11.22.11c.09 0 .18 0 .22.35l.43.1v.08l-.08.13c.29.49.84.71 1.2 1.14h.44s0 .06.24.25l.85.13a1.23 1.23 0 0 1 .35.09h1.15a2 2 0 0 1 .49-.32 5.74 5.74 0 0 0-.83-.13c0-.07 0-.13-.36-.22 0-.24-.1-.57-.16-.81v-.1a5.47 5.47 0 0 0-.13-.81.68.68 0 0 0 0-.22 4.53 4.53 0 0 1 .14-.64 3.7 3.7 0 0 0 .74-.06c0-.12 0-.28.05-.41a18.43 18.43 0 0 1 2-1.46c0-.09.05-.17-.27-.29l-.43-.06c-.64-.63-.64-.63-.73-1a.84.84 0 0 1 .12-.26 3.6 3.6 0 0 1 .8-.42h1.06a3.31 3.31 0 0 1 .39-1c.29-.3.29-.3.67-1.1.79 0 .79 0 1.15-.36 0 0 0-.11-.13-.32h-.17a1.47 1.47 0 0 1-.8.17v-.84c0-.25.07-.34.1-.51a2.56 2.56 0 0 1 .74.11c.1.08.25.17.36.25a1.94 1.94 0 0 0 1.27-.36s0-.11.12-.38l.34-.23a2.57 2.57 0 0 0 0-.83c0-.13.07-.27.1-.41.33 0 .66 0 1.23-.06h.47a6 6 0 0 0 .86-.2 7.11 7.11 0 0 1 1.37.1s1.7-1.15 2.43-1.81l.35-.36c.06-.19.13-.38.19-.58a3.5 3.5 0 0 1-.43 0 5.61 5.61 0 0 0 .19-.65 3 3 0 0 0-1-.8c0-.12-.05-.28-.07-.41h.91c3.39.53 3.39.53 4.78-.7 3.85-3.44 3.85-3.44 3.89-3.44a4.75 4.75 0 0 0-.48.72c.33 0 4.92-3.32 4.82-4.9-.05-.88-.11-1.71 4-4l1.24-.05a9 9 0 0 0 1.49-.95 15.11 15.11 0 0 0 3.19-.37 2.15 2.15 0 0 1 .52-.64c.45-.12.45-.12 3.8-4.07.2-.05.2-.05 1.48-2.43a1.76 1.76 0 0 1 .28-.5 6.07 6.07 0 0 0 1.06-1.86 3.76 3.76 0 0 0 .17-.65c0-.13 0-.29.05-.41a5.51 5.51 0 0 0 .2-.87 4.24 4.24 0 0 1 .9-1.75s2.85-2.37 3.62-3.09l2.54-3a3.77 3.77 0 0 0 .88-1.63m-43.24-38.33h.09c-.19-.18-.55-.06-.7-.34s0-.65 0-1a7.76 7.76 0 0 1-2.07.33h-.69c-.37-.06-.67-.3-1-.33h-.35c-.3.1-.41.44-.72.53h-1.19c-.48 0-.68-.5-1.12-.59s-.88-.63-1.46-.66l-2.48-.1a6.41 6.41 0 0 0-1.32.18v2.06a5.73 5.73 0 0 0 1.39 1.2h.75c.88 0 1.35-.89 2.22-.89.4 0 .76.19 1.16.18s.77-.18 1.17-.17a10.72 10.72 0 0 0 2.63-.3.75.75 0 0 1 .7 0 11.42 11.42 0 0 0 1.73.24h.7c.24 0 .4-.21.6-.32m-18.44.89l.08-.09c-.09-.22.07-.5-.17-.69s-.4-.06-.6-.13-.39-.27-.61-.35h-2.2c.13.21.22.43.37.63l.18.18c.15.11.18.1.55 0s.93.35.94.36.12.18.12.41a.6.6 0 0 0 .06.29c.23 0 .45.11.68 0s.15-.07.6-.61m-2.11-4h5.27a5.86 5.86 0 0 0-2.76-2.14h-.74a6.24 6.24 0 0 1-2.24 0c-.5-.19-.7-.69-1.1-1a18.25 18.25 0 0 0-2-1c-.79-.4-.79-.4-.91-.68s-.16-.39-.62-.41-1.09 0-1.62 0c-.09 0-.09 0-.69.31-.31.16-.56-.1-.84-.13h-1.5c-1.29-.07-1.29-.07-1.45.06-1.47 1.13.85 3.12 2.61 2.24.42-.21.68-.63 1.16-.76a5.93 5.93 0 0 1 1.24.06s1.43.46 1.6 1.16c.06.28.11.3.32.39a8 8 0 0 0 1.68.45.68.68 0 0 1 .81.4 2.47 2.47 0 0 0 1.8 1M346.71 23l-.88-.82a3 3 0 0 0-.55-.38c-.52-.21-.52-.21-.6-.17h-.09a6 6 0 0 1-.73-.78c-.2-.19-.43-.33-.64-.51l-.57.06c-.21.05-.15.2-.11.28s.13.36 0 .42l.08.17c-.34.05-.64-.15-1-.12-.49 0-.48.26-.47.4s0 .18-.14.2h-.52l-.41-.41-.4-.39c-.18-.15-.4-.24-.6-.38l-.17.12c.13.13.26.27.4.4-.56-.17-.56-.17-.6-.16s-.66.08-.69.3c-.05.4.77 1.13 1.05 1v-.2c.64-.14 1.27.46 1.78 1a2.16 2.16 0 0 0-1.44.11l.64.62.2-.12.59-.05.17.09c.24.28.5.56.75.84l.53.41h.3a2 2 0 0 1 .77-.18h.31c.51-.15.73.33 1.11.48a1.43 1.43 0 0 0 1.07 0l-.08-.47c-.24-.42-.24-.42-.27-.56s-.05-.16 0-.22h.23c.06-.25-.3-.49 0-.74.08-.08.08-.08 1-.16M322.6 52.8l.08-.16c-.09-.16-.2-.39-.28-.56-.68 0-.68 0-.91-.12a5.75 5.75 0 0 1-1.22-.76.9.9 0 0 0-.43-.32c-.38-.12-.78 0-1.17-.12a3.8 3.8 0 0 1-.63-.26c.13-.93.13-.93.23-1.13s.28-.11.42-.18a.72.72 0 0 0-.06-.95.76.76 0 0 1-.2-.27 1.72 1.72 0 0 1-.45 0c-.05 0-.54.16-.63.33s.07.32.09.49a3.87 3.87 0 0 1 0 .68.52.52 0 0 1 0 .25 14.14 14.14 0 0 1-1.7 2.28 3 3 0 0 0-.61.88 1.61 1.61 0 0 0-.1.82c0 .24.2.44.25.68l4.26-.11c.35 0 .52.06 1 .54a4.67 4.67 0 0 0 1.72 1.19c.07-.1.08-.12.3-.22s.42-.18 0-1.46a1.4 1.4 0 0 1 .06-1.5m-12-1.52v-.05c-.19-.06-.34-.19-.53-.25a.93.93 0 0 0-.32 0 1 1 0 0 1-.49 0 1.63 1.63 0 0 1-.78-.51c-.2-.24-.32-.29-.47-.29a1.93 1.93 0 0 1-.41 0l-.56.28a4.22 4.22 0 0 1 .61.28c.18.13.25.34.41.5l.15.11c.18.12.37.22.55.35s.28.27.43.37a1.05 1.05 0 0 0 .37.18c.17 0 .47.11 1-.95M307.2 1.51c-.37-.08-.75-.07-1.13-.13h-.3a5 5 0 0 1 1.13.36c-.19 0-.38-.06-.58-.07a3.15 3.15 0 0 1 .62.22h.05c.39.16.79.29 1.17.46-.58-.14-1.12-.42-1.7-.56-.18-.06-.37-.1-.63-.17a9.13 9.13 0 0 0-1.41-.35l-.09.05h-.19a9.76 9.76 0 0 1 1.24.33h-.19l.17.09-.78-.23v-.07a1.2 1.2 0 0 0-.53 0 2.79 2.79 0 0 0-.38.06l.17.09v.07a4.06 4.06 0 0 1-1-.35 1.63 1.63 0 0 0 .45-.06l-.19-.06a2.22 2.22 0 0 0 .43-.06 2.5 2.5 0 0 1-.39-.11l-.09-.02-.58-.11-1.2-.16h.15-.16l-.43-.05h-.22.18-.2l-.24-.06h.1l-.45.06.54-.05-.8-.11h-.08a2.66 2.66 0 0 0-.39 0 .24.24 0 0 1-.1 0h-.43a3 3 0 0 0 .32.1h-.1v.01a4.68 4.68 0 0 1 .81.23h-.34a4.4 4.4 0 0 0-.6-.11l.16.09h-.28l.07.06.19.06.03.04h.38l.45.16h-.64.06l.23.08h.08l.32.09h.33l.22.06.29.1h.27l.24.11h-.22l-.19-.05h-.25l-.39-.08h-.28l-.19-.07h-.23a1.71 1.71 0 0 0-.39 0l.39.15h.07l.22.08h.18l.23.09h.07l.25.11h.09-.63l-.25-.09h-.11l-.2-.07h-.58l.24.13c.12.05.25.12.36.18h.16l.24.18h.05l-.34-.16-.16-.12-.11-.11h-.14l-.1-.05h-.12l-.17-.09h-.33v.05h-.36.71l.16.07.16.06h-.6l-.19-.07-.16-.05h-.26v.12l.11.13h.11a4 4 0 0 1 .27.31h-.7v.11l-.18.18v.13h-.21v.05H297v.34h.75l.07.17v.05c0 .08.07.15.11.26v.2h-.16l-.24.06-.1.06h-.4a.91.91 0 0 0-.33 0v.08a.47.47 0 0 1-.05.17.7.7 0 0 0-.32.07 3.43 3.43 0 0 1-.55.06h-.12V5h-.24c-.13.21-.13.21.17.57.31 0 .33 0 .49.22h.47l.21.11h.07a.71.71 0 0 0 .35.13h.16l.15-.08h.72a1.78 1.78 0 0 1 0 .36l-.18.17h-.62l-.19.07H297l-.36-.07h-.08v.16h-.32l-.09.14.14.15.07.06a7.12 7.12 0 0 1 .85.32h-.13v.06l.05.07.17.06.06.07.06.06v.06h.2l.21.1h.08l.08.07.27.06h.15l-.03.08a.92.92 0 0 1-.14-.26h.18a1.15 1.15 0 0 1 .37.06h.2v-.13h.3a1 1 0 0 0 .39 0v-.06h.16v-.06c.14-.12.22-.07.41 0h.47l.3.13.08.06h.62l.3.13.25.06h.12l.26.19.21.07h.2l.24.17.26.49.15.12.08.07.1.07h.48l.21.21v.07a1.73 1.73 0 0 1 .28.19l.12.08.1.1.09.07c.06 0 .06 0 .38.34.1.1.22.23.32.32h.1l.31.21a1.31 1.31 0 0 1 .08.18c.05.12.05.12.39.44a2.69 2.69 0 0 1 .23.45.61.61 0 0 0 .07.35h.36c.06.11.12.22 0 .33l-.15.11a4.77 4.77 0 0 1 .34.63h-.29a2.94 2.94 0 0 0 .18.35c.17.18.2.22.56.26h.52a2.28 2.28 0 0 0 .74-.1l-.08-.19c.78-.51 1.11.75 1.83.74h.11a2.58 2.58 0 0 1 1 .62l.05.18h-.91c-.74.06-1.39-.59-2.16-.2a5.79 5.79 0 0 0 .8.67l-.1.17h-.19s-.5.27 0 .7 1 .26 1.49.56l.23-.06a1.73 1.73 0 0 1 .18-.36 3.05 3.05 0 0 1 .6 0 2.1 2.1 0 0 0-.46-.63 5.85 5.85 0 0 1-.59 0l-.13-.15a2.45 2.45 0 0 1-.38 0v.15h.45a2.28 2.28 0 0 0 .93.26h.5a.67.67 0 0 1 .52.3v.09l-.08.16.09.16-.07.19a.44.44 0 0 0 .09.15 2.79 2.79 0 0 1 .66.49c.09.19.2.37.29.55h-.71a1.33 1.33 0 0 0-.13.33H313l-.16-.08-.18.07a1.87 1.87 0 0 1 .28.91l-.42-.08c-.07.25-.07.25-.42.35l-.07.17.09.18s0 .08.08.19c.45.48 1.32.42 1.56 1.15a.75.75 0 0 0-.35.22s.72 1.65 1.67 1.26l.06-.2h.19a.83.83 0 0 1 .32 0c.2.14.2.14.25.47h-.21l-.14.11c.84 1.61.84 1.61 1.14 1.61.18-.18.17-.46.33-.66a2.73 2.73 0 0 1 .41 0 8.63 8.63 0 0 1 .36.91c-.08.18-.27.26-.39.41-.71.87 5.55 5.54 6.31 5.47A.89.89 0 0 0 324 31a2.2 2.2 0 0 1 .36-.13h.12c1.36.27 3.43 2.7 4.05.92l-.1-.18-.18-.37c-.31-.66.12-1.42-.34-2.06s-1-.93-1.25-1.56l-.05-.18a1 1 0 0 1 .38-.15 1.19 1.19 0 0 0 .34-.07 1 1 0 0 0 .37-.13c-.36-.59-.36-.59-.17-.9h.18l.1-.17c-.22-.36-.44-.72-.65-1.12.16-.76-.82-.79-1-1.35.55-.11.55-.11.71-.31-.08-.25-.27-.45-.37-.69l1.08-.06a4.14 4.14 0 0 1-.54-.76h.59a7.06 7.06 0 0 0 .62.85 1.7 1.7 0 0 1 .61 0c.15-.3 0-.66.22-.95h.18a.49.49 0 0 0 .5-.23l-.14-.16c-.09-.32-.09-.32.08-.65a1.63 1.63 0 0 1-.13-.37l.11-.11c-.08-.21-.08-.21-.23-.55l.17-.17-.18-.21v-.19l.13-.15a3.1 3.1 0 0 0-.57-.65h.32l.14.06h.06l.17.1c1.33.37 1.33.37 1.78.24.15-.31 0-.59 0-.89a1.13 1.13 0 0 1 .37-.1.71.71 0 0 1 .31-.19l.05-.17.13-.11c0-.41-.45-.67-.38-1.09a2.38 2.38 0 0 0 .69-.12.93.93 0 0 0-.4-.67h-.18l.05.17v.24h-.17c-.37-.09-.64-.39-1-.43h-.11a2.23 2.23 0 0 1-1.61-.53c-.13-.11-.27-.23-.26-.4a.94.94 0 0 0 .54-.14 1 1 0 0 0-.17-.38c.72.16 1.13.79 1.78 1.06l.19-.12-.26-.31c.16-.11.36-.12.51-.23a24.45 24.45 0 0 0-4.3-2.24v-.19c.67.33.67.33.83.34h.28q-.41-.31-.84-.6l-.25-.17c-.56-.44-.83-.66-1.24-.47L326 11a.85.85 0 0 1-.4 0 .65.65 0 0 1-.19-.33c-.08-.06-.08-.06-.73-.27l-.09-.11h.41l.61.4a1 1 0 0 0 .41-.09v-.19a.93.93 0 0 1 .22 0 .77.77 0 0 0 .4 0 3 3 0 0 0-1.5-.8l-.08.15c-.53-.13-.57-.19-.71-.39.33.06.36.05.57-.07l-.19-.22.19.06s.09 0 .18-.14c-.84-.43-1.78-.66-2.59-1.14v-.08h.2l-.83-.43c-.94-.38-2-.54-2.88-1a.68.68 0 0 1-.19-.13l-.17-.11.16-.08h.3a5.73 5.73 0 0 1 .61.21l.12.06a10.75 10.75 0 0 0 1.55.74v-.07l-2-1-.35-.2-.18-.08-.59-.22-.18.09h-.27a6.88 6.88 0 0 1-.78-.37h.2l.07-.08s-.92-.39-1.31-.23a1.45 1.45 0 0 1 .34.2 11.55 11.55 0 0 1-1.11-.46c0-.07 0-.07-1.59-.7h.16c-.59-.22-.59-.22-.77-.36v-.05c-.94-.35-1.83-.84-2.8-1.15l-.33-.08h-.36a3.62 3.62 0 0 1-.55-.2l.38.06-.05-.07a9.34 9.34 0 0 1-1-.3v-.06c-.32-.09-.54-.15-1-.25m-9.84-.09l-.23-.17-.09.07h-.16l-.17-.15-.39-.12-.07.05h-.16l-.14.09L296 1h-.19c-.05 0-.05 0-.12-.12l-.26-.07a.62.62 0 0 1 0 .17h-.05l-.12-.13h-.11V1c0 .03-.15 0-.23-.08h-.19s-.1.06-.14.3h-.08l-.08-.22h-.13l-.08.11h-.14l-.43.1-.24.18h.21c0 .07 0 .07.21.16l-.07.2a.43.43 0 0 1-.16 0l-.06-.18h-.3c0-.09.06-.15.07-.23h-.17v-.08h-.18a3 3 0 0 1-.4.31h-.13l-.07-.08h-.07a1.87 1.87 0 0 1-.45.19h-.22l-.21.14h-.19L291 2h.09l-.31.22.12.07c-.11.13-.11.13-.1.21.18 0 .31.16.49.17l.36-.24.2-.14h.3l-.33.17-.33.24-.19.25c.73 0 .73 0 1.11-.26h.59l.32-.2.21-.18.12-.13c.13 0 .14 0 .41-.13h.2-.15c-.2.11-.39.24-.57.36h.56l-.14.16h-.58l-.2.09a5.27 5.27 0 0 0-.57.14h-.4l-.13.22h.19l.07.14v.23l.42.1h-.51c-.32-.58-.32-.58-.69-.62l-.42-.06-.23.24v.21l.06.27.22.4.22.17.5.07c-.12.14-.36.11-.47.27l-.15.31-.29-.16-.29-.08h-.45l-.34.08-.43.18a3 3 0 0 0-.2.29l-.14.21.27.09h.9l-.51.25-.06.31c.43.09.48.09 1.27-.42l-.3.37-.53.32h-.43c-.17-.09-.45-.16-.53-.32s-.1-.19-.21-.23a2.27 2.27 0 0 0-.6 0c-.25.75-.25.75-.86.87l-.42.33.05.47.33.23a4.55 4.55 0 0 1 .67-.25c.3 0 .51.23.81.22s.33-.23.54-.26c.11.14.11.14.86.09h.41c0 .08 0 .08-.17.33v.06a1 1 0 0 0 .58 0h.32c1-.42 1-.42 1.14-.7v-.34l-.46.22v-.45l.43-.08.22-.42V5.6h.97c.21-.25-.1-.44-.11-.66h.46a.27.27 0 0 0 .18 0c0-.06 0-.16-.15-.39-.21 0-.36-.19-.58-.18l-.3.18-.25.15v-.3l.34-.15c0-.06 0-.06.33-.27h.24l.1.19c.47.09.47.09.92-.24l-.3-.31h.35l.13.21h.3l.33-.14-.17-.32-.22-.11h.6l.1-.2.24-.1c.18-.22.5-.33.59-.63h.22l.06-.11L297 2a.78.78 0 0 1-.29.19c-.15-.09-.15-.09-.48-.06v-.19l.2-.08h.25a1.32 1.32 0 0 0 .27 0c.1-.07.23-.07.31-.18h.2a.82.82 0 0 0-.13-.2m-6.79 2.82l.25-.37a2.22 2.22 0 0 1-.39-.24l.1-.23.16-.18-.06-.14c-.21.13-.24.14-.28.14s.15-.2.17-.33-.22-.08-.2-.21 0-.09.1-.18l.21-.38h-.09a1.3 1.3 0 0 0-.49.16h.18c-.23.21-.34.19-.4.17h-.24c-.24.07-.26.07-.25.2s0 .06-.24.2h-.41l-.36.28-.33.13a4.33 4.33 0 0 0-.37.27h.18l-.39.3v.2h.3l.36-.09h.35l-.11.25a1.58 1.58 0 0 1-.42.11h-.31l-.39.14.08.23-.19.37.44.17.52-.07.31.14.31-.21h.19s.1 0 .24-.26l.26-.29.18.16c.1-.06.17-.16.26-.22a.18.18 0 0 1 .16 0c.07 0 .13.09.21.06s.1 0 .34-.21m-3.58 2.11a2.29 2.29 0 0 0 .53-.2 2.45 2.45 0 0 0 0-.44l-.6.1-.55.41.59.13m4.28 2.7l.05-.55-.67-.24-.73-.2-.68.23-1 .23-.6.06-.7-.18h-.66l-.22-.5.28-.49.13-.44h-.63l-.48.08a2.92 2.92 0 0 0-.48 1.27l-.64.55v.42l.29.44.85-.06.56-.27c.38.59.38.59 1.17.51h1l.53-.15.3-.24.21.28c1.59-.09 1.59-.09 1.62-.41 0-.14 0-.24.41-.36m-10.91.75h.41l.09-.33-.5.32m2.82-.34l.49-.52-.18-.29.07-.38-.41.07-.78.25-.38.34v.47h.44l.25.22.48-.17m1.3-1.93l.56-.34.21-.29-.05-.34h-.45l-.11-.15-.41.1-.44.4.15.32.18.3h.46M286.11 6l.26-.29h-.91l-.5.25-.23.23h.57l.37-.08.44-.08m-.11-.65l.32-.21v-.33l-.4-.06v-.32l-.4.18-.19.29-.46.49.28.09h.42l.41-.08zm.55-1.73l.37-.11.39-.31v-.1H287l-.43.26h.23l-.32.25m-2.75 2.08l.4-.25.34-.33.06-.21.32-.32-.07-.16v-.18h-.28l.12-.2.05-.2h-.28l-.73.13-.29.24h.22v.13l-.42.31h-.32l-.25.32h.25l-.12.19.4-.13h.16l.39.07-.17.42.25.12m-1.29.14l.42-.11.06-.25h-.43l-.35.31h.3zm.08 1.87a.83.83 0 0 0 .19-.33s0-.27-.15-.28a1.62 1.62 0 0 0-.5.21L282 7h-.37c-.06.34-.23 1.23-.64.93l.14-.62h-.35l-.4.38-.36.42-.02-.43.52-.63-.25-.3-.68.52c-.07.1-.22.22-.22.35a1.37 1.37 0 0 1-.07.57l.32.26.44-.13.33-.06-.1.31-.4.62.45-.16h.49l.38-.07.36-.37.5-.54c.16-.11.34-.17.49-.29m-4.24 1c.17-.14 0-.25-.07-.26h-.11a.44.44 0 0 1-.33.13l-.31.38a1.54 1.54 0 0 0 .38 0 2.2 2.2 0 0 0 .44-.27m2.12-2.31l.43-.14.4-.5.05-.26a1.8 1.8 0 0 0-.88.9m12.4 14.37l.45-.68-.34-.73a10.54 10.54 0 0 0-1.4.08 4.21 4.21 0 0 0-.73.79l.36.64.79.1.87-.2m-9.54-9.38c.2-.17.5-.37.71-.54-.22-.25-.31-.27-.39-.29h-.55l-.41-.23c-.9 0-.9 0-1 .17-.31.5-.35.55-.87.7-.23.32-.44.64-.66 1-.42.91-.42.91-.49 1l.74-.1.66-.36.42-.56.57.17.61-.34.66-.62m-5.19 2.41l.76-.65.09-.53-.09-.49-.22-.33c1.14-.41 1.14-.41 1-1.13v-.3h-.51l-.41.41h-.21l-.25-.2-.58.14-.28.41v.47c-1.09 1-1.11.83-1.15.25h-.4l-.44.43.18.37.14.29.43.18a2.33 2.33 0 0 1-.19.59l-.05.15c0 .14.46.41.49.41a4.75 4.75 0 0 0 .84-.49h.82m-3.27-2.14l.67-.58v-.27l-.71-.21-.58.32c0 .34.05.41.07.44s.05.06-.11.59l.64-.29m-1.23-.61l.55-.37h-.39l-.48.25.32.09zM281 4.91c.38-.22.4-.25.4-.27a.23.23 0 0 1 0-.17h-.4l-.46.09-.82.3h1.26m-1.22.57l.54-.24h-.68l-.46.1-.65.2-.66.52.1.07.41-.11h.49l.45-.22.22-.26h.24m-1.84 0h.23l.61-.36v-.18h-.22l-.44.28-.21.19zm-.75 3.18l1-.7.12-.26h-.26l-.42.29-.13-.17.15-.43.42-.32.39-.37h-.32l-.44.21-.38.08-.33.25c-.1.3-.1.3-.82.74l.27.09a.68.68 0 0 1-.68.28h-.49l.06-.27.43-.53-.07-.21h-.29v-.23l-.1-.07-.7.16-.93.42-.73.31-.81.35-.57.41h.47l.25.16h.5l.61-.14.44.16h.42a1.69 1.69 0 0 1-.76.18L273 9l-.61.19-.37.32.07.19h.64l1.06-.29.93-.4.54-.05h1.26l.66-.36m-1.18-2l.36.08.46-.3a1.69 1.69 0 0 1-.45 0v-.06l-.35.25m-4.11 1.49l1.27-.64-.68.14-.84.37.25.13zm4.3-2l.78-.37-.15-.16-.73.27h-.64c-.86.31-1.69.7-2.54 1h-.35l-.72.19-.54.38v.33l.72-.31-.19.26.55-.17.48-.25h.32l.71-.35.66-.24-.5.41.41-.12.65-.16 1.07-.55M273 16.7l.44-.4-.29-.46-.82-.52v-.75l.7-.71-.1-.48.75-.93.19-.6-.31-.37H273c-.24.21-.46.43-.69.65l-.35.49-.35.65-.46.28h-.22v-.3l.41-.48.25-.41.22-.64-.39-.06-.36.43-.2.37h-.51l-.36.31-.52.07.48-.36.6-.43-.31-.05-.2-.22h-.48l-.56.43-.25-.1.4-.27.56-.54-.08-.12h-.48l-.8.36-.57.18-.64.13-.83.33-.61.55-1 .38-.37.33h.35l-.15.34.67-.18h.66l-.06.38-.81.18-.7.14-.63.33.25.42h2.23c.23 0 .18.23.26.35a2.58 2.58 0 0 1-.5.4l-1.12-.1h-1l-1.2.4-.46.92.8.09h.71l-.43.89.17.4h2l1-.4.86-.2 1-.44.59-.25v.32l.48-.07.57.68.7.07.73-.07.68-.6-.17-.51h.45l.73-.12m-4.84 1.78l.5-.61-1.28.29-1.47.57.62.22.91-.36.72-.11zm.28-7.31l.93-.24.57-.48.08-.62-.3-.09-.88.26-.16-.28-.09-.32-.51-.11-1 .06-.56.35-.91.65-1.64 1-2.65 1.32.36.46-.86 1.11 1.2-.55h.6l.87-.39a16.55 16.55 0 0 1 3.25-1.69l1.66-.47m49 35.59l.45-.56-.73-.52.31-.56-.08-1.2-1.47-.17-.41-.66h-1.55l-1.11.7-.73.56-.74-.26.16-.8 1.33-.5 1.62-.43.61-.68h-1.09l-1.16-.5-1.46-.35-1-.76-1.11-.76-.5-.69.56-.14.12-.51-1.09-1.18-1.27-1.28-1.81-2.23-.62-1-.92 1.34c.06.38.09.76.14 1.15l-1.13.44-.67.81h-1.13l-.3-.74-.78-.55-1.09.26.24-1.28c0-.56-.06-1.12-.1-1.67l-.11-.88-1.27-.05-1-.64-.92-.91-1.57-1-.58.47-1.33-.11-.54-.34h-1.49l-.67.63.48.92-.32 1.22.11.83.44 1.14h-.83v1.1l-.59.6.7.5 1 .8.25 1.44c0 .55-.07 1.1-.09 1.66l-.91 1.16-1.22.91-1.64.2.81 1.44c-.05.62-.09 1.25-.13 1.88l.4 1.08-.33.89-.82 1.1-1.69.19-.81-1.58-1-1.36c0-.38.08-.76.11-1.14l-.15-1.6.35-1.31-1.95-.27-1.45-.09-.69-.46-1.74-.47-.53-.78-1.35-.85-1.37-.9-2.15.46-.26-.82-.28-1.88-.81-.51-.39-.74 1-2.21 1.45-1.61 1.38-1.41 1.32-.49 1.12-.71-.12-.79-1.24-.35-1.33-.57 1.67.3 1.33.41.73-.15.41-.81 1.08.44.75-.15.24-.64.53-.27.48-.85-.81-.12-1-.11-.23-.48-1-.54.79.06 1.17.38.77.33 1-.3.8-.77-.44-.63h.84l.38.57-.6.61-.69 1.16c-.13.47-.25.95-.37 1.44l-1 .32.09.66 1 .07a1.21 1.21 0 0 0 0 .63 3.58 3.58 0 0 0 1.22-.13l.53-.76 1.25.06.67.12.63.33h1l.22-.82-1-.22-.29-1-1.28-.14-.74-.8-.79-.21c0-.2.09-.39.14-.59l.74.17.44-.42v-.46h.91l.48-.66 1-.65.38-.55-.34-.59-.21-1 .79-.14.36-.7-.42-.71-.68-.37-.8-.56h1.07l.21-.36.76.09.54.41.89-.05.82-.18L290 16l.48-.13.59.76.79.09.27.73.59.14.31.55.65.28.34.71.77.29.65.72.15.89-1 1-.85 1 .43.94-1.53.22-.8-.21H291l-1.14.79c0 .29-.06.57-.09.86l1.29.22 1.05-.06.28-.48.49-.27.66.15 1.26.37 1.24 1.2.28.66.79.83h1.12l1.24 1.12h1.77l1.19.5v-.69l-2-1.39-.82-.6-.42-.66 1.24.6 2.15 1 1.16.61c0-.34-.1-.68-.14-1l.45-.89-1.05-.6-.41-1.35-1.37-.46-1.72-1.66.46-.47.44-.41 2.22 1.52.89 1 .91.15v-1.16l1-.44.05-.46h.71l.17-.52-.25-.75h-1.37c0-.13-.05-.27-.08-.4l-1-.63-.59-.09-.92-.37h-.66l-.27-.53-.3-.47h-1.56c0-.27-.07-.54-.1-.8h.76l.34-.37-1-.27.08-.32.47-.1-.64-.53-.77-.21.23-.5-.82-.34-.86.05-.14-.39h-.68l-.29-.09.54-.38-.75-.25-.94.26-.61-.67-.05-.38h-.56v-.44l-.85-.32h-1.12l-.21.36-.6.08-.52-.12-.27.44h-.57l.1-.56.44-.52-.34-.71-.07-.61h-.93l-.58.46h-.66l-.56.31-.35.62.18.7-.45.44.3.88-.53.09-.4-.77.17-1 .19-.64.72-.66.84-.52h-.85l-1 .11-1.2.75-1.07 1.11-.72 1.43.77.19.58.05.05.57-.64-.15-.82.22.33.7h.87l.5-.17.44.45 1 .41-.77.22-.24.65.38.46-1.1 1.24-.68.92-.85.73-.51-.31-.07-1.12.68-.66-.68-1.05-1.15.78-.55-1.45-.31-.2.42-.71.24-.8-.44-.1.31-.64-.37-.73-.87-.06-.4.41h-.41l-.84.67-.12.57-.38.44.33.78.48.51-.61.69-.75-.21-.18.81h.76l1.12-.54c-.15.28-.29.56-.42.85l-1.9.83-.5 1.27-.61-.71.71-.87h-.59l.39-.81h.54l.48-1.17-.84-.72-.78.82-.9.35.63.92-.87.51-.6.68h-2.3l-.77-.57-.7-.17-.51-.74-1.08.49-1.52.53-.34.84-1.09 1.28.4-1.55-.6-.62-1.38.23-2.19-.4.35-.43 1.17-.34-.42-.85h-.76l-1.17-.84.17-.61-.67-.14h-.5l-.78.48-.61.1.88-1.13-1.47.95-.36-.18 1.11-1.3-.26-.25-1.23.8-1 .5-.72.08-1.21.34-1.44.52 1.71-.84.92-.22.78-.22.74-.42-.11-.1-1.22.32-1.53.5h-.9l-1.89.71-.56-.21.61-.9-.84-.21.33-.47-.2-.23-.92.17.34-.47-.49-.08v-.42l-.43-.08-.24-.05a102.69 102.69 0 0 0-19.13 14.45l.8-.21-.15.5-1.35.55-.93.75-.42.43-.66.75 1.9-.93.93-.17a5.07 5.07 0 0 1 1.33-1.36l.53.15-.29.94-.06.77.33.44.83-.21.13.47.47.06-.18.82.19.8c0 .37 0 .87.06 1.24l.6-.19.09.6-.3.89.57.45-.75.78.45.54-.67.73.32.36.47.18-.56.9-.18 1-.57 1.11-.4 1.07.69.2-.52 1.27.16 1.27-.25.9.52.74.65.55.6.4-.2.7.56 1 .4.82-.34 1.71-.68 1.35-.2-.9-.16-1.17.17-.71-.47-.75-.41-.32.44-1.11h-.62l-.24-.59-.33-.31-.36-.24-.61.09v.93l.34.6.24.81.71 1.35-.15 1.38-.22 1.68-.62 1.36-.84 1.89c-.28.7-.56 1.42-.82 2.13l-.66.48c-.18.48-.35.95-.51 1.43l.07 1.54-.68 1.42-.2 1.16.13 1-.48 1.47.27 1.28.57 1.06v2.15l.55.92-.08 1.12.44 1.32 1.08.07.62.92 1.09.8.67 1.18v1.39l.22 1.4.25 2.32.64 1 .84 1.2.17.84-.88.7.43.94.9 1 1.2 1.07.65 1.13-.2.91.22.77 1 .55.91 1.06.65.87v1l.58-.31.19-1.1-.34-1.28-.88-.54-.05-1.11-1-1-.23-1.35-.28-1.35-.78-1-.13-1.33L235 86l-.32-1.67-.79-1.44.12-1.8h.79l1 .62.53 1-.14 1.56 1 2.12L238.3 88l1.06 1.23.74 1.2.1 1.35 1.21.88.85 1.31.64 1.37 1.43 1.92.53 1.64.79.79-.82.57-.25 1 1.67 1.61 1.4 1.33 1.73.66 1.82 1.27 2.14 1.09 2.41 1.35 2 .65 1.25-.05.39-.69 1.42-.13 1.6.88 1.78 1.49 1 1.21h2.01l.83.35.92 1.28 1.81.62.06-.85 1 .53c3 4 3 4 2.76 4.89l.59.67.73-.33 1 .5c2 1.83 2 1.83 2.94 1.76l2.54 1.24 1.35.58-.11-1.31.64-.82 2.35.17.27.82.76-.08.36-.95-.86-1h-2.44l-1.6-.09-2.35-.17-1.1-.75-1.53-1.59.05-1.26v-1.68l.46-2.11v-1.45l-.78-1.13-1.5-.78-2.24.15-1.57-.36-1.73.67-1.15-.78 1.06-.85v-1.56l.4-1 .58-1.53V102l1-.66.17-1.29-.73-.51-2.46.14-1.55.23-.67 1.19-.67 1.79-.73 1.61-1.29.16-1.85.48-1.9.22-.88-1.23-1.57-.89-.55-1.39-1.02-1.8-.59-3.05-.14-2.21.85-1.67.48-1.92-.65-2 1.5-1.87 1.17-.06 1.23-1 1.24-1.13 1.63.27 1.15.44 1-.4.73 1.08h1.43l1.12-.06-.2-.83.47-1.31h1.76l1.22-.15 2.23.26.84 1.16h.74l.51-.66.65-.16 1 1 .95 1.24c0 .47 0 1-.05 1.42l.56.83.23.92.73.67.39 1 .91.5.07 1.09.83.26.52-.76.42-1.17-.47-1.42-.46-2.17-1-1.91c0-.82.05-1.65.17-2.88.15-.39.36-.91.52-1.3l1-1.79 1.39-.56 1.67-1.37 1.55-1 1.49-.56.25-1 1.15-.64-1-1.74-.71-.8.34-.93-.63-.86 1.13-.56.94 1.26.58-1.26.65-1.09.71-.7.72-2.32H296l1.33-.77 1.57-.16-.41-.92-.11-1.89 1-1.43h1.23l.37-.83 1.61.06 1.41-.94.85-1.12c2.54-.1 2.54-.1 3.74.28-.15.15-.33.34-.48.48l-2 .06-1.09.82a5.25 5.25 0 0 0 .17 1.18l.87.36.89-.76.64-.47 1.28-.38 1.33-.69 1.35-.32.93-1.28.95-.9v-1l-1.38.38-.82 1.55-1.66.11-1.36-.6-1.51-1.07-.9-1.93 1.18-.94-.21-1.49-1.83-.12-1.93.59-2.13 1.24-2.07 2-1.69 1.17.65-1.09 1-1.17.65-.57-1.7-.42h2.12l.48-1 1.12-.93 1.36-.09.51-1.14 1.12-.42h1.79l3.23-.12 1.68.25 1.28-.1 1.15-.93.94-1.27 2-.25 1-.44"/></g><path fill="#f26e46" d="M344.93 82.11a532.29 532.29 0 0 1-51 49.72c-9 7.79-18.33 15.19-27.82 22.38s-19.34 13.93-29.44 20.32q-7.6 4.74-15.5 9.05c-5.27 2.86-10.63 5.57-16.21 7.92a82.53 82.53 0 0 1-17.57 5.5 25.18 25.18 0 0 1-9.86 0 11.67 11.67 0 0 1-5-2.58 10.17 10.17 0 0 1-2.87-5c-.86-3.62-.2-6.9.6-9.93a50.13 50.13 0 0 1 3.36-8.61 121.69 121.69 0 0 1 9.28-15.46 248.21 248.21 0 0 1 22.69-27.53A352.36 352.36 0 0 0 185.38 157a120 120 0 0 0-8.17 15.48 52.53 52.53 0 0 0-2.75 8.06c-.62 2.67-.92 5.46-.27 7.63a5.32 5.32 0 0 0 1.59 2.57 6.85 6.85 0 0 0 2.9 1.3 20.76 20.76 0 0 0 7.81-.24 77.21 77.21 0 0 0 16.2-5.49 244.86 244.86 0 0 0 30.78-16.83c10-6.19 19.7-12.89 29.26-19.8s18.92-14.11 28.21-21.41q27.72-22.12 53.99-46.16z"/><path d="M380.3 71.85c-3.76 3.27-12.55-.69-19.64-8.84s-9.78-17.41-6-20.67l42.49-36.95 25.66 29.51z" class="cls-8"/><path d="M422.81 34.9c-3.76 3.27-11.09-2-18.17-10.11s-11.25-16.14-7.49-19.4c8.4-7.31 33.58-3.28 33.58-3.28s.48 25.49-7.92 32.79zm-25.19 46.5c5.69-4.94 7.62-31.23 7.62-31.23l-30.78 26.76 12.19 14z" class="cls-8"/><path d="M383.137 69.39l12.183 14.015-8.68 7.545-12.182-14.015z" class="cls-9"/><path d="M347.6 23.86c5.68-4.95 32-3.2 32-3.2l-30.8 26.75-12.18-14z" class="cls-8"/><path d="M348.798 47.412l-12.183-14.015 8.68-7.545 12.182 14.015zM380.54 70.48a8.14 8.14 0 0 1-2.19-.06 11.33 11.33 0 0 1-1.21-.25 16 16 0 0 1-2.57-.92 34 34 0 0 1-11.07-8.71 33.92 33.92 0 0 1-7.08-12.17 15.68 15.68 0 0 1-.55-2.67q-.08-.64-.09-1.23a8.31 8.31 0 0 1 .25-2.18 5.39 5.39 0 0 1 .34-.93 4.44 4.44 0 0 1 1.11-1.49l-8 7c-3.76 3.26-1.06 12.52 6 20.67s15.88 12.11 19.64 8.84l8-7a4.49 4.49 0 0 1-1.63.9 6 6 0 0 1-.95.2z" class="cls-9"/><path d="M395.3 57.65a8.14 8.14 0 0 1-2.19-.06 11.86 11.86 0 0 1-1.21-.25 17.13 17.13 0 0 1-2.57-.93 34 34 0 0 1-11.07-8.7 34 34 0 0 1-7.07-12.17 15.65 15.65 0 0 1-.56-2.68 10.4 10.4 0 0 1-.08-1.22 8.33 8.33 0 0 1 .24-2.18 5.39 5.39 0 0 1 .34-.93 4.34 4.34 0 0 1 1.11-1.53l-8 7c-3.76 3.27-1.06 12.53 6 20.68s15.87 12.11 19.63 8.84l8-7a4.49 4.49 0 0 1-1.63.9 6 6 0 0 1-.94.23z" class="cls-9"/><path d="M410.06 44.82a8.15 8.15 0 0 1-2.19-.06 11.17 11.17 0 0 1-1.2-.25 16.84 16.84 0 0 1-2.58-.93 34 34 0 0 1-11.09-8.7 33.94 33.94 0 0 1-7-12.17 16.89 16.89 0 0 1-.56-2.68 10.4 10.4 0 0 1-.08-1.22 7.87 7.87 0 0 1 .25-2.18 5.38 5.38 0 0 1 .33-.93 4.38 4.38 0 0 1 1.06-1.5l-8 7c-3.76 3.27-1.07 12.53 6 20.68s15.87 12.12 19.62 8.83l8-7a4.47 4.47 0 0 1-1.63.89 5.06 5.06 0 0 1-.93.22z" class="cls-9"/></svg>