<svg xmlns="http://www.w3.org/2000/svg" role="img" viewBox="0.23 -0.77 403.78 140.03"><defs><style>.cls-1{fill:none}.cls-5{fill:#d2e4f4}.cls-7{fill:#fc0}</style><clipPath id="clip-path"><path d="M106.442 96.248L62.22 120.635 18.99 94.53l.99-50.492 44.223-24.387 43.23 26.105z" class="cls-1"/></clipPath><clipPath id="clip-path-2"><path d="M85.105 21.76l-53.238 5.457L9.973 76.051l31.345 42.476 52.337-5.157 22.795-48.232L85.105 21.76z" class="cls-1"/></clipPath><clipPath id="clip-path-3"><path d="M7.509 15.664h106.89v106.89H7.509z" class="cls-1"/></clipPath></defs><g clip-path="url(#clip-path)"><g clip-path="url(#clip-path-2)"><g clip-path="url(#clip-path-3)"><path d="M8.734 54.157V91.91c8.804-7.112 17.598-14.222 26.348-21.414 2.337-1.904 3.894-1.904 6.057.346 8.566 8.825 17.478 17.39 26.13 26.13 1.817 1.903 3.288 1.903 5.278.346 4.759-3.807 9.69-7.355 14.363-11.248 2.509-2.077 4.412-1.99 6.921-.087 8.23 6.173 16.54 12.188 24.927 18.196V14.89H8.689v23.565h-22.947v15.702H8.734zm76.272-26.23a17.287 17.287 0 0 1 17.479 17.093q.002.235-.001.47a17.52 17.52 0 0 1-35.042-.07v-.016A17.34 17.34 0 0 1 84.64 27.925q.182-.001.365.001z" class="cls-5"/><ellipse cx="84.244" cy="46.161" class="cls-5" rx="24.121" ry="25.935"/><path fill="#43af5a" d="M99.991 115.91h23.674V95.236c-8.386-6.008-16.697-12.022-24.926-18.195-2.51-1.903-4.413-1.99-6.922.087-4.672 3.893-9.604 7.44-14.363 11.248-1.99 1.557-3.46 1.557-5.277-.346-8.653-8.739-17.565-17.305-26.13-26.13-2.163-2.25-3.72-2.25-6.057-.346-8.75 7.192-17.544 14.302-26.349 21.414v42.578l70.676-9.637v21.585h15.674z"/><path d="M73.854 63.593a14.008 14.008 0 1 0-.14 0h.14z" class="cls-7"/></g><path d="M182.348 29.244A15.544 15.544 0 1 0 166.65 13.7a15.544 15.544 0 0 0 15.698 15.544z" class="cls-7"/></g></g><path fill="#e50695" d="M173.943 40.648h-14.662v5.577h7.376c0 4.407-3.508 7.106-7.916 7.106-5.487 0-8.995-4.048-8.995-11.514 0-7.196 3.418-11.424 8.815-11.424a7.376 7.376 0 0 1 7.556 5.307h7.556c-.99-6.926-7.196-11.874-15.112-11.874-9.265 0-16.281 6.657-16.281 18.08 0 11.155 6.656 17.991 16.461 17.991 8.905 0 15.292-5.577 15.292-14.842l-.09-4.408zm14.303-2.968h-.27v-4.588h-7.106v26.356h7.286V44.515a5.174 5.174 0 0 1 5.307-5.397 5.485 5.485 0 0 1 2.519.63l2.158-6.027a7.353 7.353 0 0 0-3.598-.99 6.3 6.3 0 0 0-6.296 4.948zm24.647-4.948c-6.477 0-10.615 3.058-11.604 7.826l6.746.54c.54-1.71 2.07-3.06 4.678-3.06 2.519 0 3.868 1.26 3.868 3.42 0 1.708-1.8 1.978-6.387 2.428-5.217.45-9.895 2.249-9.895 8.096 0 5.217 3.688 7.825 8.726 7.825 3.868 0 6.386-1.709 7.736-4.137h.18v3.688h6.926V41.637c.09-6.297-5.307-8.905-10.974-8.905zm3.778 17.27c0 2.79-2.25 4.858-5.487 4.858-2.25 0-3.868-1.08-3.868-3.058 0-2.07 1.709-3.059 4.227-3.419 1.62-.18 4.228-.63 5.038-1.169v2.789zm29.414-17.27a7.71 7.71 0 0 0-7.466 4.767h-.36v-4.407h-7.196v36.25h7.286V55.22h.18a7.844 7.844 0 0 0 7.466 4.677c6.027 0 10.705-4.767 10.705-13.582.09-9.086-4.858-13.583-10.615-13.583zm-2.339 21.318c-3.508 0-5.487-3.058-5.577-7.825 0-4.678 1.98-7.736 5.577-7.736s5.578 3.148 5.578 7.736c0 4.677-1.98 7.825-5.578 7.825zm34.632-21.318c-3.958 0-6.656 1.889-7.916 4.947h-.27V24.276h-7.106v35.172h7.287V44.156c0-3.419 2.068-5.398 5.037-5.398s4.677 1.89 4.677 5.128v15.472h7.287V42.626c.09-6.116-3.509-9.894-8.996-9.894zm46.686 29.594l-5.038-6.297c3.419-3.058 5.578-7.915 5.578-14.122 0-11.514-7.107-18.08-16.462-18.08s-16.461 6.566-16.461 18.08c0 11.424 7.106 18.08 16.461 18.08a17.157 17.157 0 0 0 6.117-1.08l2.788 3.51h7.017zm-9.535-11.784l-2.609-3.328h-6.297l4.498 5.937a13.42 13.42 0 0 1-1.889.18c-5.397 0-8.905-4.048-8.905-11.514s3.508-11.514 8.905-11.514 8.905 4.048 8.905 11.514c0 3.868-.99 6.836-2.608 8.725zm39.579 2.789h-15.112V24.276h-7.376v35.172h22.488v-6.117zm-242.333.179a11.147 11.147 0 0 0 4.048-15.201 10.959 10.959 0 0 0-15.022-4.048 11.149 11.149 0 0 0-2.519 1.979L73.826 21.398a12.097 12.097 0 0 0 .45-3.149 11.02 11.02 0 1 0-22.039 0 12.097 12.097 0 0 0 .45 3.149L27.23 36.24a11.149 11.149 0 0 0-2.518-1.98A10.882 10.882 0 0 0 9.69 38.31a11.228 11.228 0 0 0 4.047 15.202 10.76 10.76 0 0 0 2.969 1.17v29.684a11.388 11.388 0 0 0-2.879 1.169 11.147 11.147 0 0 0-4.047 15.202 10.938 10.938 0 0 0 15.022 4.048 12.973 12.973 0 0 0 2.428-1.98l25.457 14.843a12.097 12.097 0 0 0-.45 3.148 10.975 10.975 0 1 0 21.409-3.508l25.277-14.752a10.887 10.887 0 0 0 17.72-1.799 11.147 11.147 0 0 0-4.048-15.202 11.388 11.388 0 0 0-2.878-1.17V54.68a11.354 11.354 0 0 0 3.058-1.17zM22.373 84.455c-.18 0-.27-.09-.45-.09V54.68a11.396 11.396 0 0 0 6.926-5.217 11.675 11.675 0 0 0 1.08-8.636l25.457-14.842.27.27zm49.024 28.785a10.814 10.814 0 0 0-8.096-3.598 10.926 10.926 0 0 0-7.915 3.418L29.839 98.217c0-.18.09-.27.09-.45h66.565c.09.27.09.45.18.72zm26.266-23.657a10.76 10.76 0 0 0-1.17 2.968H30.02a13.554 13.554 0 0 0-1.17-2.968 10.637 10.637 0 0 0-1.979-2.519l33.283-58.2a10.624 10.624 0 0 0 6.117 0l33.282 58.2a14.15 14.15 0 0 0-1.889 2.519zm6.927-5.217c-.18 0-.27.09-.45.09l-33.283-58.2.27-.27 25.457 14.842a11.142 11.142 0 0 0 8.006 13.853z"/><path fill="#666" d="M149.87 72.194h-4.986v37.617h22.812v-4.056H149.87V72.194zm44.024 18.214a8.715 8.715 0 0 0-2.842-6.653q-2.739-2.415-7.57-2.415a13.56 13.56 0 0 0-5.594 1.136 10.143 10.143 0 0 0-4.03 3.087 6.595 6.595 0 0 0-1.485 4.044h4.805a3.807 3.807 0 0 1 1.731-3.126 6.97 6.97 0 0 1 4.288-1.292 6.021 6.021 0 0 1 4.418 1.486 5.37 5.37 0 0 1 1.5 3.991v2.196h-4.652q-6.02 0-9.339 2.416a7.902 7.902 0 0 0-3.32 6.782 7.564 7.564 0 0 0 2.648 5.93 9.866 9.866 0 0 0 6.782 2.337 10.662 10.662 0 0 0 7.957-3.462 10.024 10.024 0 0 0 .672 2.946h5.012v-.415a15.726 15.726 0 0 1-.982-6.123zm-4.78 11.574a7.034 7.034 0 0 1-2.919 3.022 8.401 8.401 0 0 1-4.263 1.164 5.756 5.756 0 0 1-3.85-1.267 4.35 4.35 0 0 1-1.498-3.513q0-5.14 8.784-5.141h3.746zm25.319-20.642a10.185 10.185 0 0 0-8.371 4.03l-.155-3.513h-4.52v27.954h4.779V89.89a8.42 8.42 0 0 1 2.738-3.255 6.899 6.899 0 0 1 4.082-1.24 5.54 5.54 0 0 1 4.225 1.447 6.436 6.436 0 0 1 1.382 4.47v18.498h4.78V91.338q-.078-9.998-8.94-9.998zm33.793 3.358a10.373 10.373 0 0 0-15.76.556q-3.049 3.914-3.049 10.347v.361q0 6.408 3.062 10.386a9.546 9.546 0 0 0 7.918 3.979 9.733 9.733 0 0 0 7.984-3.514l.232 2.997h4.392V70.127h-4.78zm0 17.49a6.97 6.97 0 0 1-6.64 4.083 6.346 6.346 0 0 1-5.426-2.687 12.4 12.4 0 0 1-1.963-7.44q0-5.322 1.963-8.036a6.376 6.376 0 0 1 5.477-2.712 7.027 7.027 0 0 1 6.588 3.953zm28.884-6.613a25.798 25.798 0 0 0-5.8-1.912 16.813 16.813 0 0 1-4.948-1.679 2.898 2.898 0 0 1-1.369-2.61 3.578 3.578 0 0 1 1.472-2.97 6.538 6.538 0 0 1 4.083-1.137 6.245 6.245 0 0 1 4.198 1.421 4.315 4.315 0 0 1 1.666 3.384h4.806a7.796 7.796 0 0 0-2.958-6.278 11.685 11.685 0 0 0-7.713-2.454 11.347 11.347 0 0 0-7.427 2.377 7.251 7.251 0 0 0-2.907 5.813 6.178 6.178 0 0 0 1.021 3.565 8.194 8.194 0 0 0 3.152 2.583 24.071 24.071 0 0 0 5.761 1.86 14.058 14.058 0 0 1 5.09 1.848 3.52 3.52 0 0 1 1.459 3.01 3.374 3.374 0 0 1-1.64 2.932 7.705 7.705 0 0 1-4.353 1.098 7.468 7.468 0 0 1-4.742-1.408 4.947 4.947 0 0 1-1.924-3.81h-4.78a8 8 0 0 0 1.46 4.61 9.659 9.659 0 0 0 4.043 3.32 14.08 14.08 0 0 0 5.942 1.19 12.574 12.574 0 0 0 7.777-2.261 7.154 7.154 0 0 0 2.997-6.007 6.577 6.577 0 0 0-1.072-3.81 8.462 8.462 0 0 0-3.295-2.675zm16.133-7.686a6.69 6.69 0 0 1 5.646-2.622 6.39 6.39 0 0 1 4.56 1.744 6.589 6.589 0 0 1 2.053 4.456h4.522a10.067 10.067 0 0 0-3.32-7.311 11.21 11.21 0 0 0-7.815-2.816 12.219 12.219 0 0 0-6.627 1.757 11.41 11.41 0 0 0-4.302 4.934 16.828 16.828 0 0 0-1.499 7.26v.8q0 6.614 3.372 10.426a11.512 11.512 0 0 0 9.082 3.81 11.745 11.745 0 0 0 5.386-1.292 10.894 10.894 0 0 0 4.069-3.461 8.671 8.671 0 0 0 1.654-4.573h-4.522a5.455 5.455 0 0 1-2.118 3.875 6.885 6.885 0 0 1-4.47 1.55 6.722 6.722 0 0 1-5.684-2.61q-1.99-2.608-1.989-7.44v-.905q0-4.96 2.002-7.582zm43.443 2.52a8.716 8.716 0 0 0-2.842-6.654q-2.739-2.415-7.57-2.415a13.56 13.56 0 0 0-5.593 1.136 10.14 10.14 0 0 0-4.03 3.087 6.596 6.596 0 0 0-1.486 4.044h4.805a3.807 3.807 0 0 1 1.732-3.126 6.97 6.97 0 0 1 4.288-1.292 6.021 6.021 0 0 1 4.418 1.486 5.37 5.37 0 0 1 1.499 3.99v2.197h-4.65q-6.02 0-9.34 2.416a7.904 7.904 0 0 0-3.32 6.782 7.564 7.564 0 0 0 2.648 5.93 9.864 9.864 0 0 0 6.781 2.337 10.663 10.663 0 0 0 7.958-3.462 9.992 9.992 0 0 0 .672 2.945h5.012v-.414a15.714 15.714 0 0 1-.982-6.123zm-4.779 11.573a7.037 7.037 0 0 1-2.92 3.022 8.401 8.401 0 0 1-4.263 1.164 5.756 5.756 0 0 1-3.85-1.267 4.35 4.35 0 0 1-1.497-3.513q0-5.14 8.783-5.141h3.747zM356.89 81.34a9.847 9.847 0 0 0-8.113 3.617l-.232-3.1h-4.367v38.7h4.78v-13.459a10.247 10.247 0 0 0 8.01 3.229 9.358 9.358 0 0 0 7.905-3.901q2.918-3.901 2.92-10.282v-.44q0-6.768-2.933-10.567a9.534 9.534 0 0 0-7.97-3.797zm4.094 22.36a6.46 6.46 0 0 1-5.464 2.726 7.04 7.04 0 0 1-6.562-3.824V89.245a7.027 7.027 0 0 1 6.51-3.85 6.492 6.492 0 0 1 5.53 2.74 12.352 12.352 0 0 1 2.015 7.466q0 5.374-2.029 8.1zm23.885-22.36a11.172 11.172 0 0 0-6.187 1.847 12.39 12.39 0 0 0-4.444 5.116 16.776 16.776 0 0 0-1.589 7.427v.879q0 6.252 3.566 9.985a12.21 12.21 0 0 0 9.249 3.733q7.027 0 10.54-5.4l-2.919-2.273a10.77 10.77 0 0 1-3.074 2.739 8.325 8.325 0 0 1-4.289 1.033 7.593 7.593 0 0 1-5.878-2.545 9.936 9.936 0 0 1-2.415-6.678h18.937v-1.99q0-6.69-3.023-10.282a10.469 10.469 0 0 0-8.474-3.591zm6.717 11.936h-14.002a10.232 10.232 0 0 1 2.429-5.904 6.376 6.376 0 0 1 4.856-2.105 6.003 6.003 0 0 1 4.754 2.002 9.105 9.105 0 0 1 1.963 5.645z"/></svg>