<svg id="Layer_1" data-name="Layer 1" xmlns="http://www.w3.org/2000/svg" xmlns:xlink="http://www.w3.org/1999/xlink" viewBox="0 0 407.72011 139.81367"><defs><style>.cls-1{fill:none;}.cls-2{clip-path:url(#clip-path);}.cls-3{clip-path:url(#clip-path-2);}.cls-4{clip-path:url(#clip-path-3);}.cls-5{fill:#d2e4f4;}.cls-6{fill:#43af5a;}.cls-7{fill:#fc0;}.cls-8{fill:#e50695;}.cls-9{fill:#666;}</style><clipPath id="clip-path"><path class="cls-1" d="M106.44238,96.24775l-44.22233,24.387L18.9891,94.53064l.99137-50.49118,44.22233-24.387,43.231,26.10415Z"/></clipPath><clipPath id="clip-path-2"><polygon class="cls-1" points="85.105 21.76 31.867 27.217 9.973 76.051 41.318 118.527 93.655 113.37 116.45 65.138 85.105 21.76"/></clipPath><clipPath id="clip-path-3"><rect class="cls-1" x="7.50883" y="15.66438" width="106.89005" height="106.89004"/></clipPath></defs><title>graphql_landscape</title><g class="cls-2"><g class="cls-3"><g class="cls-4"><path class="cls-5" d="M8.7336,54.15749V91.91c8.80456-7.11218,17.59874-14.22176,26.3488-21.4144,2.33611-1.90351,3.89352-1.90351,6.0566.34609,8.56576,8.82533,17.47761,17.39109,26.12989,26.1299,1.817,1.9035,3.28787,1.9035,5.27789.34608,4.75876-3.807,9.69056-7.35443,14.36279-11.248,2.50916-2.07654,4.41267-1.99,6.92183-.08652,8.22919,6.17254,16.5397,12.18762,24.92637,18.19576V14.89083H8.68947V38.4562H-14.25812V54.15836H8.7336ZM85.00608,27.92636a17.28726,17.28726,0,0,1,17.47848,17.09345q.00259.23537-.00087.47068a17.52093,17.52093,0,0,1-35.04179-.07035l0-.01617A17.33917,17.33917,0,0,1,84.64068,27.9255H84.641Q84.82266,27.92376,85.00608,27.92636Z"/><ellipse class="cls-5" cx="84.24371" cy="46.16103" rx="24.12086" ry="25.93547"/><path class="cls-6" d="M99.99105,115.90932h23.67438v-20.672c-8.38666-6.00816-16.69718-12.02236-24.92637-18.19489-2.50916-1.9035-4.41267-1.99-6.92183.08652-4.67223,3.89353-9.604,7.441-14.36279,11.248-1.99,1.55742-3.46091,1.55742-5.27789-.34609-8.65228-8.7388-17.56414-17.30457-26.1299-26.12989-2.16307-2.2496-3.72048-2.2496-6.05659-.3461C31.23913,68.74745,22.44582,75.857,13.64124,82.96921v42.57763l70.67618-9.63667V137.495H99.991Z"/><path class="cls-7" d="M73.85405,63.593a14.00783,14.00783,0,1,0-.13938.00069Q73.78436,63.59373,73.85405,63.593Z"/></g><path class="cls-7" d="M182.34761,29.24429a15.54388,15.54388,0,1,0-15.69779-15.54388A15.54389,15.54389,0,0,0,182.34761,29.24429Z"/></g></g><path class="cls-8" d="M173.94321,40.64752h-14.6623v5.57707H166.657c0,4.40769-3.50815,7.10627-7.91584,7.10627-5.48712,0-8.99527-4.04787-8.99527-11.514,0-7.19621,3.41821-11.424,8.81537-11.424a7.37566,7.37566,0,0,1,7.556,5.30721h7.556c-.98948-6.92636-7.19621-11.87376-15.112-11.87376-9.26514,0-16.28145,6.6565-16.28145,18.0805,0,11.15413,6.65649,17.99054,16.46135,17.99054,8.90531,0,15.292-5.57707,15.292-14.8422l-.08993-4.40769Z"/><path class="cls-8" d="M188.2457,37.67909h-.26986V33.0915h-7.10626V59.44764h7.28617V44.51549a5.17446,5.17446,0,0,1,5.30721-5.39716,5.48451,5.48451,0,0,1,2.51868.62967l2.15886-6.02683a7.35273,7.35273,0,0,0-3.59811-.98949A6.30072,6.30072,0,0,0,188.2457,37.67909Z"/><path class="cls-8" d="M212.89273,32.73169c-6.47659,0-10.61442,3.05839-11.60389,7.82588l6.74645.53972c.53973-1.7091,2.06892-3.0584,4.67754-3.0584,2.51868,0,3.868,1.25934,3.868,3.41821,0,1.7091-1.79905,1.979-6.38665,2.42872-5.21726.44976-9.89479,2.24882-9.89479,8.09574,0,5.21726,3.68806,7.82589,8.72541,7.82589,3.868,0,6.38664-1.7091,7.73593-4.13782h.17991v3.68806H223.867V41.637C223.95692,35.34031,218.55976,32.73169,212.89273,32.73169Zm3.778,17.27092c0,2.78853-2.24882,4.85745-5.48712,4.85745-2.24882,0-3.868-1.07944-3.868-3.0584,0-2.06891,1.70909-3.05839,4.22777-3.4182,1.61915-.17991,4.22778-.62967,5.03736-1.16938v2.78853Z"/><path class="cls-8" d="M246.08528,32.73169a7.71,7.71,0,0,0-7.46606,4.76749h-.35981V33.0915h-7.19622V69.34244h7.28618V55.21986h.17992a7.84439,7.84439,0,0,0,7.46606,4.67755c6.02684,0,10.70437-4.7675,10.70437-13.58287C256.78965,37.22932,251.84225,32.73169,246.08528,32.73169ZM243.7465,54.05048c-3.50815,0-5.48712-3.05839-5.57706-7.82589,0-4.67754,1.979-7.73593,5.57706-7.73593s5.57708,3.14835,5.57708,7.73593C249.32358,50.90214,247.34461,54.05048,243.7465,54.05048Z"/><path class="cls-8" d="M278.3783,32.73169c-3.95792,0-6.6565,1.889-7.91583,4.9474h-.26985v-13.403h-7.10626V59.44764h7.28618v-15.292c0-3.4182,2.0689-5.39716,5.03736-5.39716s4.67755,1.889,4.67755,5.1273V59.35769h7.28617V42.62648C287.46353,36.5097,283.86542,32.73169,278.3783,32.73169Z"/><path class="cls-8" d="M325.06378,62.32613l-5.03736-6.29669c3.41819-3.05839,5.57708-7.91584,5.57708-14.12258,0-11.51394-7.10626-18.08049-16.46134-18.08049s-16.46133,6.56655-16.46133,18.08049c0,11.424,7.10626,18.0805,16.46133,18.0805a17.15719,17.15719,0,0,0,6.11678-1.07943l2.78854,3.50815h7.0163Zm-9.535-11.78381-2.60862-3.32825h-6.29669l4.49764,5.93688a13.4206,13.4206,0,0,1-1.889.17991c-5.39716,0-8.90531-4.04788-8.90531-11.514s3.50815-11.514,8.90531-11.514,8.90532,4.04787,8.90532,11.514C318.13741,45.68488,317.14792,48.65332,315.52878,50.54232Z"/><polygon class="cls-8" points="355.108 53.331 339.996 53.331 339.996 24.276 332.62 24.276 332.62 59.448 355.108 59.448 355.108 53.331"/><path class="cls-8" d="M112.77536,53.51076a11.14743,11.14743,0,0,0,4.04788-15.202,10.9589,10.9589,0,0,0-15.0221-4.04787,11.14894,11.14894,0,0,0-2.51868,1.979L73.82584,21.39764a12.09686,12.09686,0,0,0,.44977-3.14834,11.02,11.02,0,1,0-22.03842,0,12.09728,12.09728,0,0,0,.44977,3.14834L27.23034,36.23984a11.14894,11.14894,0,0,0-2.51868-1.979,10.88216,10.88216,0,0,0-15.0221,4.04788,11.22764,11.22764,0,0,0,4.04787,15.202,10.75968,10.75968,0,0,0,2.96844,1.16939V84.36454a11.38779,11.38779,0,0,0-2.87849,1.16939,11.14744,11.14744,0,0,0-4.04787,15.202,10.9382,10.9382,0,0,0,15.02211,4.04787,12.97316,12.97316,0,0,0,2.42872-1.979L52.687,117.64705a12.09728,12.09728,0,0,0-.44977,3.14834,10.97476,10.97476,0,1,0,21.40875-3.50815L98.92265,102.535a10.88721,10.88721,0,0,0,17.72068-1.799,11.14743,11.14743,0,0,0-4.04787-15.202,11.3881,11.3881,0,0,0-2.87848-1.16939V54.68014A11.35389,11.35389,0,0,0,112.77536,53.51076ZM22.37289,84.4545c-.1799,0-.26986-.09-.44976-.09V54.68015a11.39607,11.39607,0,0,0,6.92636-5.21726,11.67491,11.67491,0,0,0,1.07943-8.63546l25.45662-14.8422.26986.26986Zm49.02423,28.78486a10.814,10.814,0,0,0-8.09575-3.59811,10.9258,10.9258,0,0,0-7.91583,3.41821L29.839,98.21726c0-.1799.09-.26986.09-.44976h66.565c.08995.26986.08995.44976.1799.71962ZM97.66331,89.5818a10.75973,10.75973,0,0,0-1.16938,2.96844H30.01887a13.55355,13.55355,0,0,0-1.16938-2.96844,10.63739,10.63739,0,0,0-1.979-2.51868L60.153,28.86372a10.62351,10.62351,0,0,0,6.11679,0l33.2825,58.1994A14.15026,14.15026,0,0,0,97.66331,89.5818Zm6.92636-5.21726c-.1799,0-.26986.09-.44976.09L70.8574,26.25509l.26986-.26985L96.58388,40.82743a11.14248,11.14248,0,0,0,8.00578,13.85272Z"/><path class="cls-9" d="M149.86992,72.19364h-4.9863v37.61689h22.81285v-4.05575h-17.827V72.19364Zm44.02362,18.21462a8.71461,8.71461,0,0,0-2.84181-6.65287q-2.73858-2.41548-7.56953-2.41548a13.56042,13.56042,0,0,0-5.59377,1.13652,10.14293,10.14293,0,0,0-4.03044,3.087,6.59531,6.59531,0,0,0-1.48542,4.04383h4.80515a3.80719,3.80719,0,0,1,1.73159-3.12668,6.96951,6.96951,0,0,1,4.288-1.29137,6.02138,6.02138,0,0,1,4.418,1.4859,5.37,5.37,0,0,1,1.49881,3.99123v2.19613h-4.65081q-6.0201,0-9.33933,2.41548a7.90164,7.90164,0,0,0-3.31973,6.78191,7.56354,7.56354,0,0,0,2.64775,5.92927,9.86623,9.86623,0,0,0,6.78191,2.33758,10.66243,10.66243,0,0,0,7.95713-3.46168,10.02439,10.02439,0,0,0,.672,2.94552h5.01212v-.4144a15.72605,15.72605,0,0,1-.98168-6.12284Zm-4.77936,11.57367a7.03448,7.03448,0,0,1-2.91923,3.02246,8.40141,8.40141,0,0,1-4.2632,1.16333,5.756,5.756,0,0,1-3.84929-1.26656,4.35006,4.35006,0,0,1-1.49881-3.51329q0-5.14065,8.78448-5.14114h3.74556Zm25.31862-20.642a10.18547,10.18547,0,0,0-8.37106,4.02993l-.15485-3.51329h-4.52074v27.954h4.77935V89.89162a8.42021,8.42021,0,0,1,2.73857-3.25522,6.8985,6.8985,0,0,1,4.08205-1.24025,5.53971,5.53971,0,0,1,4.22448,1.4472,6.43576,6.43576,0,0,1,1.3822,4.46916v18.498h4.77935V91.33832q-.07745-9.99842-8.93882-9.99842Zm33.79292,3.35844a10.37331,10.37331,0,0,0-15.76.55536Q229.417,89.16754,229.417,95.601v.3613q0,6.40818,3.06216,10.386a9.54629,9.54629,0,0,0,7.91794,3.97832,9.73342,9.73342,0,0,0,7.98345-3.51379l.23227,2.99764H253.005V70.12705h-4.77936Zm0,17.49053a6.97067,6.97067,0,0,1-6.63947,4.082,6.34571,6.34571,0,0,1-5.426-2.68646,12.40021,12.40021,0,0,1-1.96335-7.441q0-5.32179,1.96335-8.03507a6.37592,6.37592,0,0,1,5.47715-2.71276,7.02658,7.02658,0,0,1,6.58785,3.953Zm28.884-6.61369a25.79818,25.79818,0,0,0-5.80023-1.91219,16.81321,16.81321,0,0,1-4.94759-1.679,2.89841,2.89841,0,0,1-1.36879-2.60953,3.57832,3.57832,0,0,1,1.472-2.97083,6.53833,6.53833,0,0,1,4.08257-1.137,6.24544,6.24544,0,0,1,4.19818,1.42138,4.31475,4.31475,0,0,1,1.66606,3.38425h4.80566a7.79632,7.79632,0,0,0-2.95793-6.27816,11.685,11.685,0,0,0-7.71249-2.4542,11.34686,11.34686,0,0,0-7.4271,2.37727,7.25139,7.25139,0,0,0-2.90682,5.81264,6.17784,6.17784,0,0,0,1.02088,3.56541,8.19433,8.19433,0,0,0,3.15149,2.58323,24.07125,24.07125,0,0,0,5.76153,1.86013,14.05837,14.05837,0,0,1,5.08954,1.84722,3.52022,3.52022,0,0,1,1.45911,3.01005,3.37383,3.37383,0,0,1-1.63977,2.93213,7.70492,7.70492,0,0,1-4.35352,1.09829,7.46767,7.46767,0,0,1-4.74114-1.408,4.94665,4.94665,0,0,1-1.92415-3.81107H259.257a7.9998,7.9998,0,0,0,1.45963,4.6116,9.65854,9.65854,0,0,0,4.04334,3.31973,14.08,14.08,0,0,0,5.94217,1.18864,12.5737,12.5737,0,0,0,7.777-2.26063,7.15365,7.15365,0,0,0,2.99664-6.00669,6.57743,6.57743,0,0,0-1.072-3.81057,8.46177,8.46177,0,0,0-3.29444-2.674ZM293.24339,87.889a6.69033,6.69033,0,0,1,5.64537-2.62244,6.38978,6.38978,0,0,1,4.56,1.744,6.5888,6.5888,0,0,1,2.05368,4.45675h4.52125a10.06688,10.06688,0,0,0-3.32022-7.31146,11.21079,11.21079,0,0,0-7.8147-2.816,12.21889,12.21889,0,0,0-6.62656,1.75689,11.41074,11.41074,0,0,0-4.30192,4.93419,16.82792,16.82792,0,0,0-1.49881,7.25986v.801q0,6.61368,3.37184,10.42474a11.51189,11.51189,0,0,0,9.08124,3.81008,11.74547,11.74547,0,0,0,5.38682-1.29137,10.89361,10.89361,0,0,0,4.06865-3.46168,8.67116,8.67116,0,0,0,1.65366-4.5729h-4.52125a5.45478,5.45478,0,0,1-2.1182,3.8751,6.88519,6.88519,0,0,1-4.46965,1.5504,6.72158,6.72158,0,0,1-5.68411-2.60953q-1.99017-2.609-1.98917-7.44049v-.90475q0-4.96,2.00206-7.58243Zm43.44294,2.51921a8.716,8.716,0,0,0-2.84228-6.65288q-2.73856-2.41546-7.56955-2.41548a13.5605,13.5605,0,0,0-5.5933,1.13652,10.13914,10.13914,0,0,0-4.03041,3.087,6.59572,6.59572,0,0,0-1.48594,4.04383h4.80565a3.80711,3.80711,0,0,1,1.73108-3.12668,6.97,6.97,0,0,1,4.28852-1.29137,6.02127,6.02127,0,0,1,4.418,1.4859,5.36944,5.36944,0,0,1,1.49882,3.99073v2.19661h-4.6503q-6.02015,0-9.34033,2.41549a7.90372,7.90372,0,0,0-3.31923,6.7819,7.56357,7.56357,0,0,0,2.64774,5.92928,9.86438,9.86438,0,0,0,6.7814,2.33757,10.66341,10.66341,0,0,0,7.95814-3.46168,9.99164,9.99164,0,0,0,.67152,2.94553h5.01262v-.4144a15.71383,15.71383,0,0,1-.98265-6.12284ZM331.907,101.98193a7.037,7.037,0,0,1-2.91973,3.02246,8.40132,8.40132,0,0,1-4.26321,1.16333,5.7565,5.7565,0,0,1-3.84929-1.26656,4.35,4.35,0,0,1-1.49784-3.51329q0-5.14065,8.78347-5.14114h3.7466Zm24.98265-20.642a9.84661,9.84661,0,0,0-8.1125,3.617l-.23228-3.10037h-4.36642V120.5579h4.77983V107.09828a10.24722,10.24722,0,0,0,8.00879,3.22842,9.3582,9.3582,0,0,0,7.906-3.9009q2.91819-3.9009,2.91925-10.2823v-.43873q0-6.769-2.93262-10.56767a9.53359,9.53359,0,0,0-7.97056-3.79718Zm4.09447,22.36072a6.46034,6.46034,0,0,1-5.46424,2.72567,7.03948,7.03948,0,0,1-6.56157-3.824V89.24546a7.02659,7.02659,0,0,1,6.51044-3.84979,6.49158,6.49158,0,0,1,5.52877,2.73858,12.35163,12.35163,0,0,1,2.015,7.46631q0,5.3744-2.02837,8.09957Zm23.88533-22.3607a11.17171,11.17171,0,0,0-6.18733,1.84722,12.39,12.39,0,0,0-4.44383,5.11535,16.77563,16.77563,0,0,0-1.58917,7.42759v.87845q0,6.25236,3.56543,9.98551a12.2102,12.2102,0,0,0,9.249,3.73265q7.02762,0,10.54089-5.39922l-2.91925-2.27307a10.7701,10.7701,0,0,1-3.07457,2.73808,8.3255,8.3255,0,0,1-4.28852,1.03377,7.59283,7.59283,0,0,1-5.87816-2.545,9.93636,9.93636,0,0,1-2.415-6.67819H396.3662V95.21342q0-6.6911-3.023-10.28279a10.469,10.469,0,0,0-8.4738-3.59071Zm6.71688,11.936H377.5838a10.232,10.232,0,0,1,2.42886-5.90347,6.376,6.376,0,0,1,4.85677-2.10579,6.00321,6.00321,0,0,1,4.75354,2.00206,9.105,9.105,0,0,1,1.96333,5.6449Z"/></svg>