<svg id="Layer_1" data-name="Layer 1" xmlns="http://www.w3.org/2000/svg" viewBox="0 0 783 224"><defs><style>.cls-1{fill:none;}.cls-2{fill:#43af5a;}.cls-3{fill:#fc0;}.cls-4{fill:#d2e4f4;}.cls-5{fill:#009ade;}.cls-6{fill:#003764;}.cls-7{fill:#666;}.cls-8{fill:#333;}</style></defs><title>graphql-landscape</title><path class="cls-1" d="M704.772,33.142a8.48011,8.48011,0,0,0,2.715-6.656,9.03013,9.03013,0,0,0-2.507-6.826q-2.508-2.412-7.486-2.489H687.426V35.574h9.804Q702.056,35.574,704.772,33.142ZM692.689,161.466a11.505,11.505,0,0,0,3.962,9.293,15.2249,15.2249,0,0,0,10.182,3.349,22.21993,22.21993,0,0,0,11.275-3.076,18.612,18.612,0,0,0,7.721-7.994v-15.17h-9.908Q692.687,147.868,692.689,161.466ZM487.08,119.169q-9.295,0-14.487,7.175-5.194,7.175-5.193,21.25,0,12.575,5.193,19.68a16.784,16.784,0,0,0,14.35,7.107q12.024,0,17.56-10.797v-33.96q-5.672-10.454-17.424-10.455Zm14.134-85.235q2.678-2.395,2.678-6.92a9.49909,9.49909,0,0,0-2.715-7.109,10.472,10.472,0,0,0-7.467-2.734H481.983V36.328h11.463q5.09,0,7.768-2.394Zm137.415,9.974h15.914l-7.957-22.777-7.957,22.777Zm227.279,74.919a16.86393,16.86393,0,0,0-12.846,5.57q-5.193,5.569-6.423,15.613h37.035v-.956q-.54795-9.636-5.193-14.93-4.647-5.295-12.573-5.297ZM350.865,17.171H344.19v39.52h6.222q7.504,0,11.52-4.686,4.017-4.686,4.092-13.455V35.502q0-8.92-3.884-13.625Q358.25494,17.171,350.865,17.171ZM315.02,161.466a11.505,11.505,0,0,0,3.964,9.293,15.224,15.224,0,0,0,10.181,3.349,22.22,22.22,0,0,0,11.275-3.076,18.6051,18.6051,0,0,0,7.721-7.994v-15.17h-9.907q-23.234,0-23.233,13.598Zm473.127-42.297q-11.47906,0-17.22,10.182v35.327q5.671,10.113,17.356,10.113a17.087,17.087,0,0,0,14.452-7.209q5.36508-7.208,5.365-21.422-.00009-12.505-5.33-19.748a17.17,17.17,0,0,0-14.623-7.243Z"/><path class="cls-2" d="M144.377,161.252h27.362V137.36c-9.693-6.944-19.298-13.895-28.809-21.029-2.9-2.2-5.1-2.3-8,.1-5.4,4.5-11.1,8.6-16.6,13-2.3,1.8-4,1.8-6.1-.4-10-10.1-20.3-20-30.2-30.2-2.5-2.6-4.3-2.6-7-.4-10.114,8.313-20.277,16.53-30.453,24.75v38.072h81.685V186.2h18.115V161.252Z"/><path class="cls-3" d="M132.83,89.63a20.20061,20.20061,0,1,0-20.4-20.2A20.363,20.363,0,0,0,132.83,89.63Z"/><path class="cls-4" d="M44.577,79.547V123.18c10.176-8.22,20.34-16.437,30.453-24.75,2.7-2.2,4.5-2.2,7,.4,9.9,10.2,20.2,20.1,30.2,30.2,2.1,2.2,3.8,2.2,6.1.4,5.5-4.4,11.2-8.5,16.6-13,2.9-2.4,5.1-2.3,8-.1,9.511,7.134,19.116,14.086,28.809,21.03V34.164H44.526V61.4H18.004V79.548H44.577ZM132.73,49.23a19.98,19.98,0,0,1,20.20134,19.75618q.003.2719-.00135.54382a20.25006,20.25006,0,0,1-40.5-.1h0a20.04,20.04,0,0,1,19.87766-20.201Q132.51883,49.22724,132.73,49.23Z"/><path class="cls-5" d="M126.262,161.252H44.577V79.547H18.004V186.199H126.262Z"/><path class="cls-6" d="M18.004,14.621V61.399H44.526V34.165H171.739V161.252H144.377v24.947H198.67V7.061H18.004Z"/><path class="cls-7" d="M234.2819,112.04091H224.235v75.79377h45.96611V179.6626h-35.9192V112.04091ZM322.98626,148.741q-.20871-8.537-5.72662-13.405-5.51788-4.86652-15.25169-4.86729a27.32289,27.32289,0,0,0-11.27118,2.29,20.43663,20.43663,0,0,0-8.121,6.221,13.28851,13.28851,0,0,0-2.99319,8.14694h9.68276a7.67115,7.67115,0,0,1,3.48839-6.29876,14.04261,14.04261,0,0,1,8.64061-2.60315q5.88281,0,8.9019,2.994a10.82059,10.82059,0,0,1,3.01911,8.0418V153.686h-9.37041q-12.12974,0-18.81778,4.8673-6.68958,4.868-6.68881,13.66481a15.23954,15.23954,0,0,0,5.335,11.94692q5.33582,4.71111,13.66483,4.71035a21.4842,21.4842,0,0,0,16.03332-6.97526,20.1984,20.1984,0,0,0,1.35376,5.9346H324.964v-.83343q-1.97844-4.57932-1.9777-12.337Zm-9.631,23.32093a14.17357,14.17357,0,0,1-5.88128,6.09,16.92754,16.92754,0,0,1-8.59031,2.34337,11.59794,11.59794,0,0,1-7.75612-2.55211,8.76479,8.76479,0,0,1-3.01912-7.07886q0-10.3585,17.69944-10.35926h7.54739Zm51.01547-41.59325a20.5235,20.5235,0,0,0-16.86677,8.121l-.31235-7.07962h-9.10833v56.32461h9.62946V147.70031a16.966,16.966,0,0,1,5.51863-6.55929,13.90034,13.90034,0,0,1,8.22464-2.49878q5.77842,0,8.51185,2.91549,2.73269,2.91627,2.78523,9.00551v37.27219h9.62945V150.61581q-.1554-20.1464-18.011-20.14641Zm68.08946,6.76727q-5.77842-6.76728-15.6684-6.76728a19.42346,19.42346,0,0,0-16.08588,7.88639q-6.14331,7.8864-6.14257,20.84882v.72829q0,12.91214,6.16923,20.92728a19.23537,19.23537,0,0,0,15.95486,8.01591q10.30744,0,16.08514-7.07962l.46851,6.039h8.8501V107.876h-9.631Zm0,35.24193q-4.21589,8.22692-13.3776,8.2254a12.78641,12.78641,0,0,1-10.93217-5.41352q-3.95688-5.41351-3.95614-14.99267,0-10.72342,3.95614-16.18951a12.84738,12.84738,0,0,1,11.03576-5.46608,14.15806,14.15806,0,0,1,13.274,7.96486ZM490.65972,159.152a51.9791,51.9791,0,0,0-11.68639-3.85255q-7.21141-1.612-9.96921-3.38325a5.84007,5.84007,0,0,1-2.75854-5.2581,7.2098,7.2098,0,0,1,2.96652-5.9864q2.96731-2.29,8.2254-2.29081a12.58382,12.58382,0,0,1,8.45929,2.8637,8.694,8.694,0,0,1,3.35734,6.81908h9.68279a15.70878,15.70878,0,0,0-5.96049-12.64931q-5.962-4.945-15.53888-4.94576-9.11062,0-14.966,4.78959a14.61136,14.61136,0,0,0-5.85688,11.713,12.44824,12.44824,0,0,0,2.05693,7.184,16.51141,16.51141,0,0,0,6.35055,5.20478,48.50158,48.50158,0,0,0,11.60864,3.74817q7.31277,1.56174,10.2549,3.72227a7.09264,7.09264,0,0,1,2.94063,6.06411,6.79849,6.79849,0,0,1-3.3048,5.9087,15.52521,15.52521,0,0,1-8.77161,2.21234q-5.93457,0-9.5525-2.837a9.967,9.967,0,0,1-3.8777-7.67841H454.688a16.11864,16.11864,0,0,0,2.94141,9.292,19.46148,19.46148,0,0,0,8.14691,6.6888,28.37014,28.37014,0,0,0,11.97282,2.39517q9.6294,0,15.66917-4.55494a14.41374,14.41374,0,0,0,6.03822-12.10308,13.25261,13.25261,0,0,0-2.15978-7.67841,17.05054,17.05054,0,0,0-6.63777-5.38761Zm32.5085-15.4871q4.033-5.28324,11.37476-5.284a12.87482,12.87482,0,0,1,9.18758,3.5143,13.27561,13.27561,0,0,1,4.13823,8.97961h9.10989a20.28369,20.28369,0,0,0-6.68883-14.73137q-6.2736-5.67407-15.74687-5.67482a24.61994,24.61994,0,0,0-13.35246,3.54019,22.99191,22.99191,0,0,0-8.66727,9.9418,33.90747,33.90747,0,0,0-3.01985,14.62852v1.61354q0,13.32657,6.794,21.005,6.79245,7.67917,18.29746,7.67766a23.66623,23.66623,0,0,0,10.85445-2.60239,21.95027,21.95027,0,0,0,8.198-6.97526,17.47177,17.47177,0,0,0,3.33145-9.21348h-9.10989a10.991,10.991,0,0,1-4.26772,7.80792,13.87279,13.87279,0,0,1-9.00629,3.12348q-7.44528,0-11.4525-5.25734-4.00949-5.25734-4.00794-14.99267v-1.82228q0-9.99437,4.03384-15.27836Zm87.53348,5.076q-.20868-8.537-5.72664-13.405-5.5179-4.86652-15.25171-4.86728a27.32279,27.32279,0,0,0-11.27042,2.29,20.42975,20.42975,0,0,0-8.121,6.221,13.28939,13.28939,0,0,0-2.994,8.14694h9.68279a7.67118,7.67118,0,0,1,3.48837-6.29876,14.04353,14.04353,0,0,1,8.64137-2.60315q5.88212,0,8.90116,2.994a10.819,10.819,0,0,1,3.01985,8.04181v4.42543h-9.37041q-12.12976,0-18.81857,4.86728-6.6888,4.868-6.68883,13.66482a15.23955,15.23955,0,0,0,5.33583,11.94691q5.335,4.71113,13.664,4.71035a21.48566,21.48566,0,0,0,16.03408-6.97525,20.13308,20.13308,0,0,0,1.35375,5.93459H612.6801v-.83343q-1.97928-4.57932-1.97844-12.337Zm-9.62945,23.32093a14.179,14.179,0,0,1-5.88279,6.09,16.92755,16.92755,0,0,1-8.58957,2.34337,11.59881,11.59881,0,0,1-7.75689-2.55211,8.76478,8.76478,0,0,1-3.01832-7.07885q0-10.3585,17.69867-10.35926h7.54815Zm50.33746-41.59325q-10.463,0-16.34567,7.28836l-.46851-6.24695H625.798v77.9802h9.631v-27.1209q5.88127,6.50748,16.13694,6.506a18.85616,18.85616,0,0,0,15.9297-7.85972q5.88122-7.85975,5.882-20.71854v-.88447q0-13.63818-5.90868-21.2922-5.90876-7.65176-16.05924-7.65175Zm8.25056,45.055a13.01731,13.01731,0,0,1-11.00989,5.49274,14.18387,14.18387,0,0,1-13.22142-7.70507V146.3976a14.15833,14.15833,0,0,1,13.11782-7.75688,13.08047,13.08047,0,0,1,11.14013,5.51788q4.06053,5.51865,4.06053,15.04448,0,10.82855-4.08717,16.31977Zm48.12662-45.055a22.50972,22.50972,0,0,0-12.46723,3.72227,24.96506,24.96506,0,0,0-8.95369,10.30747,33.80208,33.80208,0,0,0-3.20195,14.966v1.76971q0,12.59828,7.184,20.11975,7.18393,7.523,18.63648,7.52148,14.15926,0,21.2381-10.87883l-5.88126-4.58085a21.70063,21.70063,0,0,1-6.19515,5.51789,16.77472,16.77472,0,0,1-8.64138,2.08206,15.29894,15.29894,0,0,1-11.84331-5.12707q-4.65854-5.12706-4.86653-13.45684h38.15741V158.423q0-13.482-6.09151-20.71853-6.08927-7.2358-17.074-7.2358Zm13.53454,24.05H693.10734q.937-7.65252,4.89317-11.89435a12.84735,12.84735,0,0,1,9.78638-4.24336,12.09587,12.09587,0,0,1,9.5784,4.03462q3.53939,4.03539,3.95614,11.374Z"/><path class="cls-8" d="M282.56147,79.25049a25.044,25.044,0,0,1-11.33689,8.07587,46.26834,46.26834,0,0,1-16.462,2.74375A32.43035,32.43035,0,0,1,237.99035,85.773,28.61335,28.61335,0,0,1,226.73116,73.4788a43.00984,43.00984,0,0,1-4.11511-18.66189V48.91539q0-17.08277,8.17859-26.68563,8.17886-9.60157,22.82915-9.60261,12.57918,0,19.98215,6.23784,7.4022,6.23915,8.90338,17.93711H269.67125q-2.17358-13.614-15.78831-13.61448-8.80143,0-13.38192,6.3244-4.581,6.32361-4.73665,18.55813v5.78159q0,12.1842,5.15066,18.92105,5.15041,6.73737,14.31372,6.73685,10.04192,0,14.28764-4.53121v-14.674H253.98618V50.365h28.57529Z"/><path class="cls-8" d="M325.06148,44.51558a31.1543,31.1543,0,0,0-5.1246-.41453q-8.64579,0-11.64765,6.6263V89.03456H295.71031V33.02331h12.00952l.31077,6.26391q4.55442-7.29972,12.63107-7.29946a11.78686,11.78686,0,0,1,4.452.72478Z"/><path class="cls-8" d="M364.922,89.03456a19.383,19.383,0,0,1-1.44957-5.22836,19.58151,19.58151,0,0,1-14.70166,6.26391q-8.43852,0-13.76986-4.81434a15.40178,15.40178,0,0,1-5.33212-11.90628q0-8.95552,6.65185-13.74431,6.65134-4.78749,19.02429-4.78827h7.71348V51.14136a9.81174,9.81174,0,0,0-2.4335-6.96262q-2.43324-2.61313-7.40219-2.61392a11.0801,11.0801,0,0,0-7.04031,2.14828,6.64892,6.64892,0,0,0-2.74376,5.46144H330.85923a13.95972,13.95972,0,0,1,3.05452-8.6192,20.35294,20.35294,0,0,1,8.30843-6.28946,29.18207,29.18207,0,0,1,11.72535-2.27812q9.83465,0,15.68507,4.94365,5.84884,4.9447,6.00476,13.8997V76.09272q0,7.5594,2.12273,12.06167v.88017ZM351.1,79.97527a14.30479,14.30479,0,0,0,7.01425-1.81144,12.10451,12.10451,0,0,0,4.94417-4.86648v-10.56h-6.78168q-6.98844,0-10.50834,2.433a7.88014,7.88014,0,0,0-3.52016,6.88493,7.34842,7.34842,0,0,0,2.40691,5.77168A9.321,9.321,0,0,0,351.1,79.97527Z"/><path class="cls-8" d="M437.86037,61.59807q0,12.9945-5.901,20.73249a18.89955,18.89955,0,0,1-15.841,7.73955q-9.21441,0-14.75328-6.0569v26.55631H388.7862V33.02331h11.59551l.51778,5.694q5.53834-6.72876,15.064-6.72954,10.24919,0,16.07353,7.63579,5.823,7.636,5.82331,21.19812Zm-12.5273-1.08665q0-8.38612-3.3387-13.30423a10.85554,10.85554,0,0,0-9.551-4.91758q-7.71427,0-11.07826,6.36715V73.50488q3.4164,6.52227,11.1815,6.52254a10.84192,10.84192,0,0,0,9.3956-4.84042Q425.332,70.34712,425.33307,60.51142Z"/><path class="cls-8" d="M460.89652,39.13184a19.688,19.688,0,0,1,15.58131-7.14408q17.911,0,18.17071,20.44779v36.599H482.06962V52.9017q0-5.79723-2.5112-8.20518-2.51223-2.40666-7.37716-2.40691a12.1174,12.1174,0,0,0-11.28474,6.72954V89.03456H448.3176V9.52152h12.57892Z"/><path class="cls-8" d="M568.46706,53.31572a46.535,46.535,0,0,1-3.39032,18.55813A30.24044,30.24044,0,0,1,555.57737,84.324L568.51921,94.4183l-8.48989,7.66134L543.98186,89.397a32.56469,32.56469,0,0,1-6.78169.67316,30.08408,30.08408,0,0,1-16.28-4.478A29.39779,29.39779,0,0,1,509.8419,72.83171a44.78449,44.78449,0,0,1-3.96076-19.102V49.48479a45.83744,45.83744,0,0,1,3.90862-19.46386,29.37654,29.37654,0,0,1,11.02611-12.91576,29.93037,29.93037,0,0,1,16.28106-4.478,30.47565,30.47565,0,0,1,16.4354,4.4264,29.00161,29.00161,0,0,1,11.00108,12.7343,45.76245,45.76245,0,0,1,3.93365,19.33454Zm-13.14832-3.93418q0-12.73482-4.76272-19.309-4.76323-6.5739-13.45909-6.57416a15.40016,15.40016,0,0,0-13.22654,6.65186q-4.78827,6.65211-4.892,18.76514v4.40033q0,12.21783,4.78879,19.102a15.42844,15.42844,0,0,0,13.433,6.88493q8.74748,0,13.433-6.6263,4.685-6.62553,4.68555-19.36061Z"/><path class="cls-8" d="M594.868,78.47408h34.21817V89.03456H581.77181V13.6627H594.868Z"/></svg>