<svg xmlns="http://www.w3.org/2000/svg" width="437" height="139" viewBox="0 0 437 139">
  <g fill="#E50695" transform="translate(-1)">
    <polygon points="153.4 116.4 158.1 116.4 158.1 98.9 175.1 98.9 175.1 94.7 158.1 94.7 158.1 81.5 176.8 81.5 176.8 77.3 153.4 77.3"/>
    <path d="M194.6 86.7C186.7 86.7 181.3 92.7 181.3 101.9 181.3 111 186.6 117 194.6 117 202.6 117 207.9 111 207.9 101.9 207.9 92.7 202.5 86.7 194.6 86.7zM194.6 112.9C188.6 112.9 185.8 107.7 185.8 101.8 185.8 95.9 188.5 90.7 194.6 90.7 200.6 90.7 203.4 96 203.4 101.8 203.4 107.7 200.6 112.9 194.6 112.9zM233.8 104.4C233.8 109.9 229.6 112.4 226.2 112.4 222.5 112.4 219.8 109.7 219.8 105.4L219.8 87.1 215.3 87.1 215.3 105.7C215.3 113.2 219.3 116.8 224.8 116.8 229.2 116.8 232.1 114.4 233.5 111.5L233.8 111.5 233.8 116.5 238.3 116.5 238.3 87.1 233.8 87.1 233.8 104.4zM261.4 86.7C257 86.7 254.2 88.7 252.9 91.7L252.5 91.7 252.5 87.1 248.2 87.1 248.2 116.4 252.7 116.4 252.7 98.7C252.7 93.6 255.9 90.7 260.2 90.7 264.4 90.7 266.9 93.4 266.9 98L266.9 116.3 271.4 116.3 271.4 97.7C271.3 90.3 267.3 86.7 261.4 86.7zM300.6 91.7L300.2 91.7C299.2 90.2 297.5 86.7 291.7 86.7 284.3 86.7 279.2 92.6 279.2 101.8 279.2 111.1 284.3 117 291.6 117 297.2 117 299.2 113.5 300.1 111.9L300.6 111.9 300.6 116.4 304.9 116.4 304.9 77.3 300.4 77.3 300.4 91.7 300.6 91.7zM292.3 112.9C286.7 112.9 283.8 107.9 283.8 101.7 283.8 95.5 286.6 90.7 292.3 90.7 297.8 90.7 300.7 95.1 300.7 101.7 300.7 108.3 297.7 112.9 292.3 112.9zM326.1 86.7C321.7 86.7 316.6 88.2 314.4 93.6L318.7 95.1C319.7 93 322 90.7 326.3 90.7 330.5 90.7 332.5 92.9 332.5 96.7 332.5 98.9 330.3 98.8 324.9 99.4 319.5 100.1 313.5 101.3 313.5 108 313.5 113.7 317.9 117 323.5 117 328.6 117 331.3 114.3 332.2 112.3L332.4 112.3 332.4 116.3 336.9 116.3 336.9 97.1C337 87.8 329.9 86.7 326.1 86.7zM332.5 105.8C332.5 109.5 329.6 113 324.3 113 320.7 113 318.1 111.4 318.1 108.3 318.1 104.9 321.2 103.8 324.7 103.3 326.6 103.1 331.7 102.5 332.5 101.6L332.5 105.8 332.5 105.8zM357.2 112.4C355.2 112.4 353.3 111.8 353.3 108L353.3 90.9 359.6 90.9 359.6 87.1 353.3 87.1 353.3 80.1 348.8 80.1 348.8 87.1 344.4 87.1 344.4 90.9 348.8 90.9 348.8 109.2C348.8 114.3 352.9 116.8 356.7 116.8 358.4 116.8 359.4 116.5 360.1 116.3L359.2 112.3C358.8 112.2 358.2 112.4 357.2 112.4z"/>
    <rect width="4.5" height="29.3" x="368.2" y="87.1"/>
    <path d="M370.5 76.2C368.7 76.2 367.3 77.6 367.3 79.3 367.3 81 368.8 82.4 370.5 82.4 372.3 82.4 373.7 81 373.7 79.3 373.7 77.5 372.3 76.2 370.5 76.2zM394 86.7C386.1 86.7 380.7 92.7 380.7 101.9 380.7 111 386 117 394 117 402 117 407.3 111 407.3 101.9 407.2 92.7 401.9 86.7 394 86.7zM394 112.9C388 112.9 385.2 107.7 385.2 101.8 385.2 95.9 387.9 90.7 394 90.7 400 90.7 402.8 96 402.8 101.8 402.7 107.7 400 112.9 394 112.9zM427.9 86.7C423.5 86.7 420.7 88.7 419.4 91.7L419 91.7 419 87.1 414.7 87.1 414.7 116.4 419.2 116.4 419.2 98.7C419.2 93.6 422.4 90.7 426.7 90.7 430.9 90.7 433.4 93.4 433.4 98L433.4 116.3 437.9 116.3 437.9 97.7C437.8 90.3 433.8 86.7 427.9 86.7zM185.2 37.3L168.9 37.3 168.9 43.5 177.1 43.5C177.1 48.4 173.2 51.4 168.3 51.4 162.2 51.4 158.3 46.9 158.3 38.6 158.3 30.6 162.1 25.9 168.1 25.9 172.4 25.9 175.3 28.1 176.5 31.8L184.9 31.8C183.8 24.1 176.9 18.6 168.1 18.6 157.8 18.6 150 26 150 38.7 150 51.1 157.4 58.7 168.3 58.7 178.2 58.7 185.3 52.5 185.3 42.2L185.2 37.3 185.2 37.3zM201.1 34L200.8 34 200.8 28.9 192.9 28.9 192.9 58.2 201 58.2 201 41.6C201 38 203.6 35.6 206.9 35.6 208 35.6 208.9 35.9 209.7 36.3L212.1 29.6C211 29 209.7 28.5 208.1 28.5 204.8 28.5 202.1 30.4 201.1 34zM228.5 28.5C221.3 28.5 216.7 31.9 215.6 37.2L223.1 37.8C223.7 35.9 225.4 34.4 228.3 34.4 231.1 34.4 232.6 35.8 232.6 38.2 232.6 40.1 230.6 40.4 225.5 40.9 219.7 41.4 214.5 43.4 214.5 49.9 214.5 55.7 218.6 58.6 224.2 58.6 228.5 58.6 231.3 56.7 232.8 54L233 54 233 58.1 240.7 58.1 240.7 38.4C240.8 31.4 234.8 28.5 228.5 28.5zM232.7 47.7C232.7 50.8 230.2 53.1 226.6 53.1 224.1 53.1 222.3 51.9 222.3 49.7 222.3 47.4 224.2 46.3 227 45.9 228.8 45.7 231.7 45.2 232.6 44.6L232.6 47.7 232.7 47.7 232.7 47.7zM265.4 28.5C260.5 28.5 258.2 31.4 257.1 33.8L256.7 33.8 256.7 28.9 248.7 28.9 248.7 69.2 256.8 69.2 256.8 53.5 257 53.5C258.1 55.9 260.6 58.7 265.3 58.7 272 58.7 277.2 53.4 277.2 43.6 277.3 33.5 271.8 28.5 265.4 28.5zM262.8 52.2C258.9 52.2 256.7 48.8 256.6 43.5 256.6 38.3 258.8 34.9 262.8 34.9 266.8 34.9 269 38.4 269 43.5 269 48.7 266.8 52.2 262.8 52.2zM301.3 28.5C296.9 28.5 293.9 30.6 292.5 34L292.2 34 292.2 19.1 284.3 19.1 284.3 58.2 292.4 58.2 292.4 41.2C292.4 37.4 294.7 35.2 298 35.2 301.3 35.2 303.2 37.3 303.2 40.9L303.2 58.1 311.3 58.1 311.3 39.5C311.4 32.7 307.4 28.5 301.3 28.5zM353.2 61.4L347.6 54.4C351.4 51 353.8 45.6 353.8 38.7 353.8 25.9 345.9 18.6 335.5 18.6 325.1 18.6 317.2 25.9 317.2 38.7 317.2 51.4 325.1 58.8 335.5 58.8 337.9 58.8 340.2 58.4 342.3 57.6L345.4 61.5 353.2 61.5 353.2 61.4zM342.6 48.3L339.7 44.6 332.7 44.6 337.7 51.2C337 51.3 336.3 51.4 335.6 51.4 329.6 51.4 325.7 46.9 325.7 38.6 325.7 30.3 329.6 25.8 335.6 25.8 341.6 25.8 345.5 30.3 345.5 38.6 345.5 42.9 344.4 46.2 342.6 48.3z"/>
    <polygon points="386.6 51.4 369.8 51.4 369.8 19.1 361.6 19.1 361.6 58.2 386.6 58.2"/>
    <path d="M117.2,51.6 C123.1,48.2 125.1,40.6 121.7,34.7 C118.3,28.8 110.8,26.8 105,30.2 C103.9,30.8 103,31.6 102.2,32.4 L73.9,15.9 C74.2,14.8 74.4,13.6 74.4,12.4 C74.4,5.5 68.9,0 62.2,0 C55.5,0 49.9,5.5 49.9,12.4 C49.9,13.6 50.1,14.8 50.4,15.9 L22.1,32.4 C21.3,31.6 20.4,30.8 19.3,30.2 C13.5,26.7 6,28.8 2.6,34.7 C-0.8,40.6 1.3,48.2 7.1,51.6 C8.1,52.2 9.2,52.6 10.4,52.9 L10.4,85.9 C9.3,86.2 8.2,86.6 7.2,87.2 C1.3,90.6 -0.7,98.2 2.7,104.1 C6.1,110 13.5,112 19.4,108.6 C20.4,108 21.3,107.2 22.1,106.4 L50.4,122.9 C50.1,124 49.9,125.2 49.9,126.4 C49.9,133.2 55.4,138.8 62.1,138.8 C68.8,138.8 74.3,133.2 74.3,126.4 C74.3,125 74.1,123.7 73.7,122.5 L101.8,106.1 C102.6,107.1 103.7,107.9 104.8,108.6 C110.7,112 118.2,110 121.5,104.1 C124.9,98.2 122.9,90.6 117,87.2 C116,86.6 114.9,86.2 113.8,85.9 L113.8,52.9 C115.1,52.6 116.1,52.2 117.2,51.6 Z M16.7,86 C16.5,86 16.4,85.9 16.2,85.9 L16.2,52.9 C19.3,52.1 22.1,50.1 23.9,47.1 C25.6,44.1 25.9,40.6 25.1,37.5 L53.4,21 C53.5,21.1 53.6,21.2 53.7,21.3 L16.7,86 Z M71.2,118 C69,115.5 65.7,114 62.2,114 C58.7,114 55.6,115.5 53.4,117.8 L25,101.3 C25,101.1 25.1,101 25.1,100.8 L99.1,100.8 C99.2,101.1 99.2,101.3 99.3,101.6 L71.2,118 Z M100.4,91.7 C99.8,92.7 99.4,93.8 99.1,95 L25.2,95 C24.9,93.9 24.5,92.8 23.9,91.7 C23.3,90.7 22.6,89.7 21.7,88.9 L58.7,24.2 C59.8,24.5 60.9,24.7 62.1,24.7 C63.3,24.7 64.4,24.5 65.5,24.2 L102.5,88.9 C101.8,89.7 101,90.6 100.4,91.7 Z M108.1,85.9 C107.9,85.9 107.8,86 107.6,86 L70.6,21.3 C70.7,21.2 70.8,21.1 70.9,21 L99.2,37.5 C98.3,40.6 98.6,44 100.4,47.1 C102.1,50.1 104.9,52.1 108.1,52.9 C108.1,52.9 108.1,85.9 108.1,85.9 Z"/>
  </g>
</svg>
