<?xml version="1.0" encoding="UTF-8"?>
<!DOCTYPE svg PUBLIC "-//W3C//DTD SVG 1.1//EN" "http://www.w3.org/Graphics/SVG/1.1/DTD/svg11.dtd">
<svg version="1.1" xmlns="http://www.w3.org/2000/svg" xmlns:xlink="http://www.w3.org/1999/xlink" x="0" y="0" width="800" height="800" viewBox="0, 0, 800, 800">
  <g id="Layer_1">
    <g>
      <path d="M75.663,131.75 Q74.913,131.75 74.463,131.3 Q74.013,130.85 74.013,130.1 L74.013,80.975 Q74.013,80.15 74.463,79.7 Q74.913,79.25 75.663,79.25 L77.013,79.25 Q77.838,79.25 78.288,79.7 Q78.738,80.15 78.738,80.975 L78.738,102.875 L107.688,102.875 L107.688,80.975 Q107.688,80.15 108.138,79.7 Q108.588,79.25 109.338,79.25 L110.688,79.25 Q111.513,79.25 111.963,79.7 Q112.413,80.15 112.413,80.975 L112.413,130.1 Q112.413,130.85 111.963,131.3 Q111.513,131.75 110.688,131.75 L109.338,131.75 Q108.588,131.75 108.138,131.3 Q107.688,130.85 107.688,130.1 L107.688,107.375 L78.738,107.375 L78.738,130.1 Q78.738,130.85 78.288,131.3 Q77.838,131.75 77.013,131.75 z" fill="#E434AA"/>
      <path d="M140.012,132.5 Q132.738,132.5 128.463,127.738 Q124.188,122.975 123.588,115.25 Q123.513,114.125 123.513,112.25 Q123.513,110.375 123.588,109.25 Q123.963,104.15 125.988,100.25 Q128.012,96.35 131.575,94.175 Q135.137,92 140.012,92 Q145.262,92 148.938,94.325 Q152.613,96.65 154.6,101 Q156.588,105.35 156.588,111.35 L156.588,112.475 Q156.588,113.225 156.1,113.675 Q155.613,114.125 154.863,114.125 L128.163,114.125 Q128.163,114.125 128.163,114.425 Q128.163,114.725 128.163,114.875 Q128.312,118.25 129.738,121.288 Q131.163,124.325 133.788,126.238 Q136.413,128.15 140.012,128.15 Q143.238,128.15 145.375,127.175 Q147.512,126.2 148.788,125.038 Q150.062,123.875 150.438,123.275 Q151.113,122.3 151.488,122.113 Q151.863,121.925 152.688,121.925 L153.887,121.925 Q154.562,121.925 155.05,122.338 Q155.538,122.75 155.463,123.425 Q155.387,124.475 154.3,126.013 Q153.213,127.55 151.225,129.05 Q149.238,130.55 146.387,131.525 Q143.538,132.5 140.012,132.5 z M128.163,109.925 L152.012,109.925 L152.012,109.625 Q152.012,105.875 150.588,102.875 Q149.163,99.875 146.463,98.113 Q143.762,96.35 140.012,96.35 Q136.262,96.35 133.6,98.113 Q130.938,99.875 129.55,102.875 Q128.163,105.875 128.163,109.625 z" fill="#E434AA"/>
      <path d="M168.212,131.75 Q167.462,131.75 167.012,131.3 Q166.562,130.85 166.562,130.1 L166.562,80.15 Q166.562,79.4 167.012,78.95 Q167.462,78.5 168.212,78.5 L169.488,78.5 Q170.238,78.5 170.688,78.95 Q171.137,79.4 171.137,80.15 L171.137,130.1 Q171.137,130.85 170.688,131.3 Q170.238,131.75 169.488,131.75 z" fill="#E434AA"/>
      <path d="M185.087,146 Q184.337,146 183.887,145.55 Q183.438,145.1 183.438,144.35 L183.438,94.4 Q183.438,93.65 183.887,93.2 Q184.337,92.75 185.087,92.75 L186.363,92.75 Q187.113,92.75 187.562,93.2 Q188.012,93.65 188.012,94.4 L188.012,97.925 Q189.887,95.375 192.925,93.688 Q195.962,92 200.613,92 Q205.037,92 208.037,93.538 Q211.037,95.075 212.912,97.625 Q214.787,100.175 215.688,103.325 Q216.587,106.475 216.662,109.775 Q216.738,110.9 216.738,112.25 Q216.738,113.6 216.662,114.725 Q216.587,118.025 215.688,121.175 Q214.787,124.325 212.912,126.875 Q211.037,129.425 208.037,130.963 Q205.037,132.5 200.613,132.5 Q195.962,132.5 192.925,130.775 Q189.887,129.05 188.012,126.575 L188.012,144.35 Q188.012,145.1 187.562,145.55 Q187.113,146 186.363,146 z M200.162,128.15 Q204.587,128.15 207.137,126.2 Q209.688,124.25 210.812,121.1 Q211.938,117.95 212.087,114.35 Q212.162,112.25 212.087,110.15 Q211.938,106.55 210.812,103.4 Q209.688,100.25 207.137,98.3 Q204.587,96.35 200.162,96.35 Q195.887,96.35 193.262,98.375 Q190.637,100.4 189.4,103.438 Q188.162,106.475 188.012,109.55 Q187.938,110.675 187.938,112.475 Q187.938,114.275 188.012,115.4 Q188.087,118.4 189.4,121.325 Q190.712,124.25 193.375,126.2 Q196.037,128.15 200.162,128.15 z" fill="#E434AA"/>
      <path d="M260.913,132.5 Q255.813,132.5 252.475,130.288 Q249.138,128.075 247.525,124.25 Q245.913,120.425 245.913,115.7 L245.913,94.4 Q245.913,93.65 246.363,93.2 Q246.813,92.75 247.563,92.75 L248.838,92.75 Q249.588,92.75 250.038,93.2 Q250.488,93.65 250.488,94.4 L250.488,115.325 Q250.488,128.15 261.663,128.15 Q266.988,128.15 270.213,124.738 Q273.438,121.325 273.438,115.325 L273.438,94.4 Q273.438,93.65 273.888,93.2 Q274.338,92.75 275.088,92.75 L276.363,92.75 Q277.113,92.75 277.562,93.2 Q278.013,93.65 278.013,94.4 L278.013,130.1 Q278.013,130.85 277.562,131.3 Q277.113,131.75 276.363,131.75 L275.088,131.75 Q274.338,131.75 273.888,131.3 Q273.438,130.85 273.438,130.1 L273.438,126.575 Q271.413,129.2 268.6,130.85 Q265.788,132.5 260.913,132.5 z" fill="#E434AA"/>
      <path d="M302.538,132.5 Q298.638,132.5 295.825,131.45 Q293.013,130.4 291.212,128.938 Q289.413,127.475 288.55,126.05 Q287.688,124.625 287.613,123.875 Q287.538,123.05 288.138,122.638 Q288.738,122.225 289.263,122.225 L290.388,122.225 Q290.837,122.225 291.175,122.375 Q291.513,122.525 292.038,123.2 Q293.013,124.475 294.288,125.638 Q295.562,126.8 297.55,127.475 Q299.538,128.15 302.538,128.15 Q307.038,128.15 309.962,126.425 Q312.888,124.7 312.888,121.325 Q312.888,119.225 311.725,117.95 Q310.562,116.675 307.788,115.7 Q305.013,114.725 300.288,113.675 Q295.562,112.55 293.05,110.975 Q290.538,109.4 289.638,107.338 Q288.738,105.275 288.738,102.875 Q288.738,100.25 290.238,97.738 Q291.738,95.225 294.7,93.613 Q297.663,92 302.163,92 Q305.837,92 308.425,92.975 Q311.013,93.95 312.663,95.338 Q314.312,96.725 315.1,98.075 Q315.888,99.425 315.962,100.25 Q316.038,101 315.513,101.45 Q314.988,101.9 314.312,101.9 L313.188,101.9 Q312.587,101.9 312.212,101.638 Q311.837,101.375 311.538,100.925 Q310.788,99.725 309.738,98.675 Q308.688,97.625 306.925,96.988 Q305.163,96.35 302.163,96.35 Q297.663,96.35 295.488,98.188 Q293.312,100.025 293.312,102.875 Q293.312,104.525 294.212,105.763 Q295.113,107 297.587,108.013 Q300.062,109.025 304.788,110.15 Q309.587,111.2 312.363,112.738 Q315.138,114.275 316.3,116.375 Q317.462,118.475 317.462,121.325 Q317.462,124.325 315.775,126.875 Q314.087,129.425 310.75,130.963 Q307.413,132.5 302.538,132.5 z" fill="#E434AA"/>
      <path d="M358.788,132.5 Q354.888,132.5 352.075,131.45 Q349.263,130.4 347.462,128.938 Q345.663,127.475 344.8,126.05 Q343.938,124.625 343.863,123.875 Q343.788,123.05 344.388,122.638 Q344.988,122.225 345.513,122.225 L346.638,122.225 Q347.087,122.225 347.425,122.375 Q347.763,122.525 348.288,123.2 Q349.263,124.475 350.538,125.638 Q351.812,126.8 353.8,127.475 Q355.788,128.15 358.788,128.15 Q363.288,128.15 366.212,126.425 Q369.138,124.7 369.138,121.325 Q369.138,119.225 367.975,117.95 Q366.812,116.675 364.038,115.7 Q361.263,114.725 356.538,113.675 Q351.812,112.55 349.3,110.975 Q346.788,109.4 345.888,107.338 Q344.988,105.275 344.988,102.875 Q344.988,100.25 346.488,97.738 Q347.988,95.225 350.95,93.613 Q353.913,92 358.413,92 Q362.087,92 364.675,92.975 Q367.263,93.95 368.913,95.338 Q370.562,96.725 371.35,98.075 Q372.138,99.425 372.212,100.25 Q372.288,101 371.763,101.45 Q371.238,101.9 370.562,101.9 L369.438,101.9 Q368.837,101.9 368.462,101.638 Q368.087,101.375 367.788,100.925 Q367.038,99.725 365.988,98.675 Q364.938,97.625 363.175,96.988 Q361.413,96.35 358.413,96.35 Q353.913,96.35 351.738,98.188 Q349.562,100.025 349.562,102.875 Q349.562,104.525 350.462,105.763 Q351.363,107 353.837,108.013 Q356.312,109.025 361.038,110.15 Q365.837,111.2 368.613,112.738 Q371.388,114.275 372.55,116.375 Q373.712,118.475 373.712,121.325 Q373.712,124.325 372.025,126.875 Q370.337,129.425 367,130.963 Q363.663,132.5 358.788,132.5 z" fill="#E434AA"/>
      <path d="M397.938,132.5 Q392.837,132.5 389.5,130.288 Q386.162,128.075 384.55,124.25 Q382.938,120.425 382.938,115.7 L382.938,94.4 Q382.938,93.65 383.387,93.2 Q383.837,92.75 384.587,92.75 L385.862,92.75 Q386.612,92.75 387.062,93.2 Q387.512,93.65 387.512,94.4 L387.512,115.325 Q387.512,128.15 398.688,128.15 Q404.012,128.15 407.237,124.738 Q410.462,121.325 410.462,115.325 L410.462,94.4 Q410.462,93.65 410.912,93.2 Q411.362,92.75 412.112,92.75 L413.387,92.75 Q414.137,92.75 414.587,93.2 Q415.037,93.65 415.037,94.4 L415.037,130.1 Q415.037,130.85 414.587,131.3 Q414.137,131.75 413.387,131.75 L412.112,131.75 Q411.362,131.75 410.912,131.3 Q410.462,130.85 410.462,130.1 L410.462,126.575 Q408.438,129.2 405.625,130.85 Q402.812,132.5 397.938,132.5 z" fill="#E434AA"/>
      <path d="M428.913,146 Q428.163,146 427.712,145.55 Q427.263,145.1 427.263,144.35 L427.263,94.4 Q427.263,93.65 427.712,93.2 Q428.163,92.75 428.913,92.75 L430.188,92.75 Q430.938,92.75 431.388,93.2 Q431.837,93.65 431.837,94.4 L431.837,97.925 Q433.712,95.375 436.75,93.688 Q439.788,92 444.438,92 Q448.862,92 451.862,93.538 Q454.862,95.075 456.737,97.625 Q458.612,100.175 459.513,103.325 Q460.413,106.475 460.487,109.775 Q460.562,110.9 460.562,112.25 Q460.562,113.6 460.487,114.725 Q460.413,118.025 459.513,121.175 Q458.612,124.325 456.737,126.875 Q454.862,129.425 451.862,130.963 Q448.862,132.5 444.438,132.5 Q439.788,132.5 436.75,130.775 Q433.712,129.05 431.837,126.575 L431.837,144.35 Q431.837,145.1 431.388,145.55 Q430.938,146 430.188,146 z M443.987,128.15 Q448.413,128.15 450.962,126.2 Q453.513,124.25 454.638,121.1 Q455.763,117.95 455.913,114.35 Q455.987,112.25 455.913,110.15 Q455.763,106.55 454.638,103.4 Q453.513,100.25 450.962,98.3 Q448.413,96.35 443.987,96.35 Q439.712,96.35 437.087,98.375 Q434.462,100.4 433.225,103.438 Q431.987,106.475 431.837,109.55 Q431.763,110.675 431.763,112.475 Q431.763,114.275 431.837,115.4 Q431.913,118.4 433.225,121.325 Q434.538,124.25 437.2,126.2 Q439.862,128.15 443.987,128.15 z" fill="#E434AA"/>
      <path d="M472.487,146 Q471.737,146 471.287,145.55 Q470.837,145.1 470.837,144.35 L470.837,94.4 Q470.837,93.65 471.287,93.2 Q471.737,92.75 472.487,92.75 L473.762,92.75 Q474.512,92.75 474.962,93.2 Q475.412,93.65 475.412,94.4 L475.412,97.925 Q477.287,95.375 480.325,93.688 Q483.362,92 488.012,92 Q492.438,92 495.438,93.538 Q498.438,95.075 500.312,97.625 Q502.188,100.175 503.087,103.325 Q503.987,106.475 504.062,109.775 Q504.137,110.9 504.137,112.25 Q504.137,113.6 504.062,114.725 Q503.987,118.025 503.087,121.175 Q502.188,124.325 500.312,126.875 Q498.438,129.425 495.438,130.963 Q492.438,132.5 488.012,132.5 Q483.362,132.5 480.325,130.775 Q477.287,129.05 475.412,126.575 L475.412,144.35 Q475.412,145.1 474.962,145.55 Q474.512,146 473.762,146 z M487.562,128.15 Q491.987,128.15 494.537,126.2 Q497.087,124.25 498.212,121.1 Q499.337,117.95 499.487,114.35 Q499.562,112.25 499.487,110.15 Q499.337,106.55 498.212,103.4 Q497.087,100.25 494.537,98.3 Q491.987,96.35 487.562,96.35 Q483.287,96.35 480.662,98.375 Q478.037,100.4 476.8,103.438 Q475.562,106.475 475.412,109.55 Q475.337,110.675 475.337,112.475 Q475.337,114.275 475.412,115.4 Q475.487,118.4 476.8,121.325 Q478.112,124.25 480.775,126.2 Q483.438,128.15 487.562,128.15 z" fill="#E434AA"/>
      <path d="M529.188,132.5 Q523.788,132.5 520.15,130.25 Q516.513,128 514.6,124.1 Q512.688,120.2 512.538,115.4 Q512.463,114.275 512.463,112.25 Q512.463,110.225 512.538,109.1 Q512.688,104.225 514.6,100.363 Q516.513,96.5 520.15,94.25 Q523.788,92 529.188,92 Q534.588,92 538.225,94.25 Q541.862,96.5 543.775,100.363 Q545.688,104.225 545.838,109.1 Q545.913,110.225 545.913,112.25 Q545.913,114.275 545.838,115.4 Q545.688,120.2 543.775,124.1 Q541.862,128 538.225,130.25 Q534.588,132.5 529.188,132.5 z M529.188,128.15 Q534.438,128.15 537.737,124.775 Q541.038,121.4 541.263,115.025 Q541.338,113.9 541.338,112.25 Q541.338,110.6 541.263,109.475 Q541.038,103.025 537.737,99.688 Q534.438,96.35 529.188,96.35 Q523.938,96.35 520.638,99.688 Q517.338,103.025 517.112,109.475 Q517.038,110.6 517.038,112.25 Q517.038,113.9 517.112,115.025 Q517.338,121.4 520.638,124.775 Q523.938,128.15 529.188,128.15 z" fill="#E434AA"/>
      <path d="M557.838,131.75 Q557.088,131.75 556.638,131.3 Q556.188,130.85 556.188,130.1 L556.188,94.475 Q556.188,93.725 556.638,93.238 Q557.088,92.75 557.838,92.75 L559.038,92.75 Q559.788,92.75 560.275,93.238 Q560.763,93.725 560.763,94.475 L560.763,97.925 Q562.113,95.3 564.663,94.025 Q567.213,92.75 570.963,92.75 L573.738,92.75 Q574.488,92.75 574.938,93.2 Q575.388,93.65 575.388,94.4 L575.388,95.45 Q575.388,96.2 574.938,96.65 Q574.488,97.1 573.738,97.1 L570.513,97.1 Q566.013,97.1 563.388,99.725 Q560.763,102.35 560.763,106.85 L560.763,130.1 Q560.763,130.85 560.275,131.3 Q559.788,131.75 559.038,131.75 z" fill="#E434AA"/>
      <path d="M595.413,131.75 Q591.513,131.75 589.263,130.1 Q587.013,128.45 586.113,125.6 Q585.213,122.75 585.213,119.225 L585.213,97.1 L579.363,97.1 Q578.613,97.1 578.163,96.65 Q577.713,96.2 577.713,95.45 L577.713,94.4 Q577.713,93.65 578.163,93.2 Q578.613,92.75 579.363,92.75 L585.213,92.75 L585.213,80.15 Q585.213,79.4 585.663,78.95 Q586.113,78.5 586.863,78.5 L588.138,78.5 Q588.888,78.5 589.338,78.95 Q589.788,79.4 589.788,80.15 L589.788,92.75 L599.088,92.75 Q599.838,92.75 600.288,93.2 Q600.738,93.65 600.738,94.4 L600.738,95.45 Q600.738,96.2 600.288,96.65 Q599.838,97.1 599.088,97.1 L589.788,97.1 L589.788,118.925 Q589.788,122.9 591.1,125.15 Q592.413,127.4 595.788,127.4 L599.838,127.4 Q600.588,127.4 601.038,127.85 Q601.488,128.3 601.488,129.05 L601.488,130.1 Q601.488,130.85 601.038,131.3 Q600.588,131.75 599.838,131.75 z" fill="#E434AA"/>
      <path d="M640.038,131.75 Q636.138,131.75 633.888,130.1 Q631.638,128.45 630.738,125.6 Q629.838,122.75 629.838,119.225 L629.838,97.1 L623.988,97.1 Q623.238,97.1 622.788,96.65 Q622.338,96.2 622.338,95.45 L622.338,94.4 Q622.338,93.65 622.788,93.2 Q623.238,92.75 623.988,92.75 L629.838,92.75 L629.838,80.15 Q629.838,79.4 630.288,78.95 Q630.738,78.5 631.488,78.5 L632.763,78.5 Q633.513,78.5 633.963,78.95 Q634.413,79.4 634.413,80.15 L634.413,92.75 L643.713,92.75 Q644.463,92.75 644.913,93.2 Q645.363,93.65 645.363,94.4 L645.363,95.45 Q645.363,96.2 644.913,96.65 Q644.463,97.1 643.713,97.1 L634.413,97.1 L634.413,118.925 Q634.413,122.9 635.725,125.15 Q637.038,127.4 640.413,127.4 L644.463,127.4 Q645.213,127.4 645.663,127.85 Q646.113,128.3 646.113,129.05 L646.113,130.1 Q646.113,130.85 645.663,131.3 Q645.213,131.75 644.463,131.75 z" fill="#E434AA"/>
      <path d="M655.562,131.75 Q654.812,131.75 654.362,131.3 Q653.912,130.85 653.912,130.1 L653.912,80.15 Q653.912,79.4 654.362,78.95 Q654.812,78.5 655.562,78.5 L656.837,78.5 Q657.587,78.5 658.037,78.95 Q658.487,79.4 658.487,80.15 L658.487,97.925 Q660.513,95.3 663.4,93.65 Q666.287,92 671.087,92 Q676.188,92 679.6,94.213 Q683.013,96.425 684.7,100.213 Q686.388,104 686.388,108.8 L686.388,130.1 Q686.388,130.85 685.938,131.3 Q685.487,131.75 684.737,131.75 L683.462,131.75 Q682.712,131.75 682.263,131.3 Q681.812,130.85 681.812,130.1 L681.812,109.175 Q681.812,103.175 678.888,99.763 Q675.962,96.35 670.337,96.35 Q665.013,96.35 661.75,99.763 Q658.487,103.175 658.487,109.175 L658.487,130.1 Q658.487,130.85 658.037,131.3 Q657.587,131.75 656.837,131.75 z" fill="#E434AA"/>
      <path d="M712.638,132.5 Q705.363,132.5 701.088,127.738 Q696.812,122.975 696.213,115.25 Q696.138,114.125 696.138,112.25 Q696.138,110.375 696.213,109.25 Q696.588,104.15 698.613,100.25 Q700.638,96.35 704.2,94.175 Q707.763,92 712.638,92 Q717.888,92 721.562,94.325 Q725.238,96.65 727.225,101 Q729.213,105.35 729.213,111.35 L729.213,112.475 Q729.213,113.225 728.725,113.675 Q728.238,114.125 727.488,114.125 L700.788,114.125 Q700.788,114.125 700.788,114.425 Q700.788,114.725 700.788,114.875 Q700.938,118.25 702.363,121.288 Q703.788,124.325 706.413,126.238 Q709.038,128.15 712.638,128.15 Q715.863,128.15 718,127.175 Q720.138,126.2 721.413,125.038 Q722.688,123.875 723.062,123.275 Q723.738,122.3 724.113,122.113 Q724.488,121.925 725.312,121.925 L726.513,121.925 Q727.188,121.925 727.675,122.338 Q728.163,122.75 728.088,123.425 Q728.013,124.475 726.925,126.013 Q725.838,127.55 723.85,129.05 Q721.863,130.55 719.013,131.525 Q716.163,132.5 712.638,132.5 z M700.788,109.925 L724.638,109.925 L724.638,109.625 Q724.638,105.875 723.213,102.875 Q721.788,99.875 719.088,98.113 Q716.388,96.35 712.638,96.35 Q708.888,96.35 706.225,98.113 Q703.562,99.875 702.175,102.875 Q700.788,105.875 700.788,109.625 z" fill="#E434AA"/>
      <path d="M68.163,221.5 Q61.713,221.5 57.325,218.988 Q52.938,216.475 50.65,211.975 Q48.363,207.475 48.138,201.625 Q48.063,198.25 48.063,194.5 Q48.063,190.75 48.138,187.375 Q48.363,181.45 50.65,176.988 Q52.938,172.525 57.363,170.013 Q61.788,167.5 68.163,167.5 Q73.338,167.5 77.013,169.038 Q80.688,170.575 83.013,172.863 Q85.338,175.15 86.463,177.475 Q87.588,179.8 87.663,181.375 Q87.738,182.05 87.288,182.463 Q86.838,182.875 86.088,182.875 L84.438,182.875 Q83.763,182.875 83.463,182.538 Q83.163,182.2 82.863,181.375 Q82.113,179.05 80.35,176.913 Q78.588,174.775 75.625,173.388 Q72.663,172 68.163,172 Q61.488,172 57.325,175.638 Q53.163,179.275 52.863,187.75 Q52.638,194.5 52.863,201.25 Q53.163,209.65 57.325,213.325 Q61.488,217 68.163,217 Q72.588,217 76.113,215.313 Q79.638,213.625 81.663,210.138 Q83.688,206.65 83.688,201.25 L83.688,197.425 L70.638,197.425 Q69.888,197.425 69.438,196.938 Q68.988,196.45 68.988,195.7 L68.988,194.65 Q68.988,193.825 69.438,193.375 Q69.888,192.925 70.638,192.925 L86.688,192.925 Q87.513,192.925 87.963,193.375 Q88.413,193.825 88.413,194.65 L88.413,201.25 Q88.413,207.25 86.05,211.825 Q83.688,216.4 79.15,218.95 Q74.613,221.5 68.163,221.5 z" fill="#E434AA"/>
      <path d="M100.638,220.75 Q99.888,220.75 99.438,220.3 Q98.988,219.85 98.988,219.1 L98.988,183.475 Q98.988,182.725 99.438,182.238 Q99.888,181.75 100.638,181.75 L101.838,181.75 Q102.588,181.75 103.075,182.238 Q103.563,182.725 103.563,183.475 L103.563,186.925 Q104.913,184.3 107.463,183.025 Q110.013,181.75 113.763,181.75 L116.538,181.75 Q117.288,181.75 117.738,182.2 Q118.188,182.65 118.188,183.4 L118.188,184.45 Q118.188,185.2 117.738,185.65 Q117.288,186.1 116.538,186.1 L113.313,186.1 Q108.813,186.1 106.188,188.725 Q103.563,191.35 103.563,195.85 L103.563,219.1 Q103.563,219.85 103.075,220.3 Q102.588,220.75 101.838,220.75 z" fill="#E434AA"/>
      <path d="M134.988,221.5 Q131.388,221.5 128.35,220 Q125.313,218.5 123.438,215.988 Q121.563,213.475 121.563,210.325 Q121.563,205.225 125.688,202.15 Q129.813,199.075 136.413,198.175 L148.263,196.525 L148.263,193.9 Q148.263,189.925 145.825,187.638 Q143.388,185.35 138.063,185.35 Q134.163,185.35 131.763,186.888 Q129.363,188.425 128.463,190.9 Q128.088,192.025 127.038,192.025 L125.838,192.025 Q124.938,192.025 124.563,191.538 Q124.188,191.05 124.188,190.375 Q124.188,189.325 124.975,187.75 Q125.763,186.175 127.413,184.638 Q129.063,183.1 131.688,182.05 Q134.313,181 138.063,181 Q142.488,181 145.375,182.2 Q148.263,183.4 149.875,185.313 Q151.488,187.225 152.163,189.55 Q152.838,191.875 152.838,194.125 L152.838,219.1 Q152.838,219.85 152.388,220.3 Q151.938,220.75 151.188,220.75 L149.913,220.75 Q149.163,220.75 148.713,220.3 Q148.263,219.85 148.263,219.1 L148.263,215.575 Q147.363,216.925 145.713,218.275 Q144.063,219.625 141.475,220.563 Q138.888,221.5 134.988,221.5 z M135.738,217.15 Q139.188,217.15 142.038,215.65 Q144.888,214.15 146.575,211.038 Q148.263,207.925 148.263,203.2 L148.263,200.65 L138.588,202 Q132.438,202.825 129.288,204.85 Q126.138,206.875 126.138,209.95 Q126.138,212.425 127.563,214 Q128.988,215.575 131.2,216.363 Q133.413,217.15 135.738,217.15 z" fill="#E434AA"/>
      <path d="M166.413,235 Q165.663,235 165.212,234.55 Q164.762,234.1 164.762,233.35 L164.762,183.4 Q164.762,182.65 165.212,182.2 Q165.663,181.75 166.413,181.75 L167.688,181.75 Q168.438,181.75 168.887,182.2 Q169.337,182.65 169.337,183.4 L169.337,186.925 Q171.212,184.375 174.25,182.688 Q177.288,181 181.938,181 Q186.363,181 189.363,182.538 Q192.363,184.075 194.238,186.625 Q196.113,189.175 197.012,192.325 Q197.913,195.475 197.988,198.775 Q198.062,199.9 198.062,201.25 Q198.062,202.6 197.988,203.725 Q197.913,207.025 197.012,210.175 Q196.113,213.325 194.238,215.875 Q192.363,218.425 189.363,219.963 Q186.363,221.5 181.938,221.5 Q177.288,221.5 174.25,219.775 Q171.212,218.05 169.337,215.575 L169.337,233.35 Q169.337,234.1 168.887,234.55 Q168.438,235 167.688,235 z M181.488,217.15 Q185.913,217.15 188.462,215.2 Q191.012,213.25 192.137,210.1 Q193.262,206.95 193.413,203.35 Q193.488,201.25 193.413,199.15 Q193.262,195.55 192.137,192.4 Q191.012,189.25 188.462,187.3 Q185.913,185.35 181.488,185.35 Q177.212,185.35 174.587,187.375 Q171.962,189.4 170.725,192.438 Q169.488,195.475 169.337,198.55 Q169.262,199.675 169.262,201.475 Q169.262,203.275 169.337,204.4 Q169.413,207.4 170.725,210.325 Q172.038,213.25 174.7,215.2 Q177.363,217.15 181.488,217.15 z" fill="#E434AA"/>
      <path d="M209.988,220.75 Q209.238,220.75 208.788,220.3 Q208.338,219.85 208.338,219.1 L208.338,169.15 Q208.338,168.4 208.788,167.95 Q209.238,167.5 209.988,167.5 L211.263,167.5 Q212.013,167.5 212.463,167.95 Q212.913,168.4 212.913,169.15 L212.913,186.925 Q214.938,184.3 217.825,182.65 Q220.713,181 225.513,181 Q230.613,181 234.025,183.213 Q237.438,185.425 239.125,189.213 Q240.813,193 240.813,197.8 L240.813,219.1 Q240.813,219.85 240.363,220.3 Q239.913,220.75 239.163,220.75 L237.888,220.75 Q237.138,220.75 236.688,220.3 Q236.238,219.85 236.238,219.1 L236.238,198.175 Q236.238,192.175 233.313,188.763 Q230.388,185.35 224.763,185.35 Q219.438,185.35 216.175,188.763 Q212.913,192.175 212.913,198.175 L212.913,219.1 Q212.913,219.85 212.463,220.3 Q212.013,220.75 211.263,220.75 z" fill="#E434AA"/>
      <path d="M287.538,225.625 Q286.712,225.625 286.113,224.988 Q285.513,224.35 285.138,223.9 L281.837,219.325 Q277.337,221.5 271.337,221.5 Q265.113,221.5 260.763,219.288 Q256.413,217.075 254.088,212.463 Q251.763,207.85 251.538,200.8 Q251.463,197.425 251.463,194.5 Q251.463,191.575 251.538,188.2 Q251.763,181.225 254.238,176.613 Q256.712,172 261.1,169.75 Q265.488,167.5 271.337,167.5 Q277.188,167.5 281.575,169.75 Q285.962,172 288.475,176.613 Q290.988,181.225 291.138,188.2 Q291.288,191.575 291.288,194.5 Q291.288,197.425 291.138,200.8 Q290.763,211.525 285.663,216.55 L290.462,223.3 Q290.538,223.375 290.613,223.563 Q290.688,223.75 290.688,224.125 Q290.688,224.725 290.238,225.175 Q289.788,225.625 289.188,225.625 z M271.337,217 Q277.788,217 281.95,213.1 Q286.113,209.2 286.413,200.425 Q286.562,197.05 286.562,194.5 Q286.562,191.95 286.413,188.575 Q286.263,182.725 284.275,179.05 Q282.288,175.375 278.95,173.688 Q275.613,172 271.337,172 Q267.138,172 263.8,173.688 Q260.462,175.375 258.475,179.05 Q256.488,182.725 256.263,188.575 Q256.188,191.95 256.188,194.5 Q256.188,197.05 256.263,200.425 Q256.562,209.2 260.763,213.1 Q264.962,217 271.337,217 z" fill="#E434AA"/>
      <path d="M304.863,220.75 Q304.113,220.75 303.663,220.3 Q303.212,219.85 303.212,219.1 L303.212,169.9 Q303.212,169.15 303.663,168.7 Q304.113,168.25 304.863,168.25 L306.288,168.25 Q307.038,168.25 307.488,168.7 Q307.938,169.15 307.938,169.9 L307.938,216.25 L333.812,216.25 Q334.638,216.25 335.087,216.7 Q335.538,217.15 335.538,217.975 L335.538,219.1 Q335.538,219.85 335.087,220.3 Q334.638,220.75 333.812,220.75 z" fill="#E434AA"/>
      <path d="M375.438,221.5 Q370.188,221.5 366.513,219.438 Q362.837,217.375 360.925,213.475 Q359.013,209.575 358.862,204.25 Q358.788,203.125 358.788,201.25 Q358.788,199.375 358.862,198.25 Q359.013,192.85 360.925,188.988 Q362.837,185.125 366.513,183.063 Q370.188,181 375.438,181 Q379.413,181 382.3,182.088 Q385.188,183.175 387.062,184.938 Q388.938,186.7 389.913,188.8 Q390.888,190.9 390.962,192.925 Q391.038,193.675 390.513,194.125 Q389.987,194.575 389.312,194.575 L388.263,194.575 Q387.513,194.575 387.175,194.238 Q386.837,193.9 386.462,193 Q384.888,188.725 382.15,187.038 Q379.413,185.35 375.438,185.35 Q370.337,185.35 367,188.463 Q363.663,191.575 363.438,198.625 Q363.288,201.25 363.438,203.875 Q363.663,210.925 367,214.038 Q370.337,217.15 375.438,217.15 Q379.413,217.15 382.15,215.463 Q384.888,213.775 386.462,209.5 Q386.837,208.6 387.175,208.263 Q387.513,207.925 388.263,207.925 L389.312,207.925 Q389.987,207.925 390.513,208.375 Q391.038,208.825 390.962,209.575 Q390.888,211.225 390.288,212.875 Q389.688,214.525 388.45,216.1 Q387.212,217.675 385.413,218.875 Q383.612,220.075 381.1,220.788 Q378.587,221.5 375.438,221.5 z" fill="#E434AA"/>
      <path d="M415.713,221.5 Q410.312,221.5 406.675,219.25 Q403.038,217 401.125,213.1 Q399.213,209.2 399.062,204.4 Q398.988,203.275 398.988,201.25 Q398.988,199.225 399.062,198.1 Q399.213,193.225 401.125,189.363 Q403.038,185.5 406.675,183.25 Q410.312,181 415.713,181 Q421.113,181 424.75,183.25 Q428.388,185.5 430.3,189.363 Q432.213,193.225 432.363,198.1 Q432.438,199.225 432.438,201.25 Q432.438,203.275 432.363,204.4 Q432.213,209.2 430.3,213.1 Q428.388,217 424.75,219.25 Q421.113,221.5 415.713,221.5 z M415.713,217.15 Q420.963,217.15 424.263,213.775 Q427.562,210.4 427.788,204.025 Q427.863,202.9 427.863,201.25 Q427.863,199.6 427.788,198.475 Q427.562,192.025 424.263,188.688 Q420.963,185.35 415.713,185.35 Q410.463,185.35 407.163,188.688 Q403.863,192.025 403.638,198.475 Q403.562,199.6 403.562,201.25 Q403.562,202.9 403.638,204.025 Q403.863,210.4 407.163,213.775 Q410.463,217.15 415.713,217.15 z" fill="#E434AA"/>
      <path d="M444.363,220.75 Q443.613,220.75 443.163,220.3 Q442.712,219.85 442.712,219.1 L442.712,183.4 Q442.712,182.65 443.163,182.2 Q443.613,181.75 444.363,181.75 L445.638,181.75 Q446.388,181.75 446.837,182.2 Q447.288,182.65 447.288,183.4 L447.288,186.025 Q449.163,183.625 451.75,182.313 Q454.337,181 458.013,181 Q466.413,181 470.013,188.05 Q471.738,184.825 475.075,182.913 Q478.413,181 482.763,181 Q486.738,181 489.925,182.838 Q493.113,184.675 494.95,188.275 Q496.788,191.875 496.788,197.275 L496.788,219.1 Q496.788,219.85 496.337,220.3 Q495.888,220.75 495.138,220.75 L493.863,220.75 Q493.113,220.75 492.663,220.3 Q492.212,219.85 492.212,219.1 L492.212,198.025 Q492.212,193.075 490.788,190.338 Q489.363,187.6 487.038,186.475 Q484.712,185.35 482.013,185.35 Q479.763,185.35 477.438,186.475 Q475.113,187.6 473.575,190.338 Q472.038,193.075 472.038,198.025 L472.038,219.1 Q472.038,219.85 471.587,220.3 Q471.138,220.75 470.388,220.75 L469.113,220.75 Q468.363,220.75 467.913,220.3 Q467.462,219.85 467.462,219.1 L467.462,198.025 Q467.462,193.075 465.962,190.338 Q464.462,187.6 462.138,186.475 Q459.812,185.35 457.263,185.35 Q455.013,185.35 452.688,186.475 Q450.363,187.6 448.825,190.338 Q447.288,193.075 447.288,197.95 L447.288,219.1 Q447.288,219.85 446.837,220.3 Q446.388,220.75 445.638,220.75 z" fill="#E434AA"/>
      <path d="M510.213,220.75 Q509.463,220.75 509.013,220.3 Q508.563,219.85 508.563,219.1 L508.563,183.4 Q508.563,182.65 509.013,182.2 Q509.463,181.75 510.213,181.75 L511.488,181.75 Q512.238,181.75 512.688,182.2 Q513.138,182.65 513.138,183.4 L513.138,186.025 Q515.013,183.625 517.6,182.313 Q520.188,181 523.863,181 Q532.263,181 535.863,188.05 Q537.588,184.825 540.925,182.913 Q544.263,181 548.613,181 Q552.588,181 555.775,182.838 Q558.963,184.675 560.8,188.275 Q562.638,191.875 562.638,197.275 L562.638,219.1 Q562.638,219.85 562.188,220.3 Q561.738,220.75 560.988,220.75 L559.713,220.75 Q558.963,220.75 558.513,220.3 Q558.063,219.85 558.063,219.1 L558.063,198.025 Q558.063,193.075 556.638,190.338 Q555.213,187.6 552.888,186.475 Q550.563,185.35 547.863,185.35 Q545.613,185.35 543.288,186.475 Q540.963,187.6 539.425,190.338 Q537.888,193.075 537.888,198.025 L537.888,219.1 Q537.888,219.85 537.438,220.3 Q536.988,220.75 536.238,220.75 L534.963,220.75 Q534.213,220.75 533.763,220.3 Q533.313,219.85 533.313,219.1 L533.313,198.025 Q533.313,193.075 531.813,190.338 Q530.313,187.6 527.988,186.475 Q525.663,185.35 523.113,185.35 Q520.863,185.35 518.538,186.475 Q516.213,187.6 514.675,190.338 Q513.138,193.075 513.138,197.95 L513.138,219.1 Q513.138,219.85 512.688,220.3 Q512.238,220.75 511.488,220.75 z" fill="#E434AA"/>
      <path d="M589.037,221.5 Q583.938,221.5 580.6,219.288 Q577.263,217.075 575.65,213.25 Q574.037,209.425 574.037,204.7 L574.037,183.4 Q574.037,182.65 574.487,182.2 Q574.938,181.75 575.688,181.75 L576.962,181.75 Q577.712,181.75 578.162,182.2 Q578.612,182.65 578.612,183.4 L578.612,204.325 Q578.612,217.15 589.787,217.15 Q595.112,217.15 598.337,213.738 Q601.562,210.325 601.562,204.325 L601.562,183.4 Q601.562,182.65 602.013,182.2 Q602.462,181.75 603.212,181.75 L604.487,181.75 Q605.237,181.75 605.688,182.2 Q606.138,182.65 606.138,183.4 L606.138,219.1 Q606.138,219.85 605.688,220.3 Q605.237,220.75 604.487,220.75 L603.212,220.75 Q602.462,220.75 602.013,220.3 Q601.562,219.85 601.562,219.1 L601.562,215.575 Q599.537,218.2 596.725,219.85 Q593.912,221.5 589.037,221.5 z" fill="#E434AA"/>
      <path d="M619.938,220.75 Q619.188,220.75 618.737,220.3 Q618.287,219.85 618.287,219.1 L618.287,183.4 Q618.287,182.65 618.737,182.2 Q619.188,181.75 619.938,181.75 L621.212,181.75 Q621.962,181.75 622.412,182.2 Q622.862,182.65 622.862,183.4 L622.862,186.925 Q624.888,184.3 627.775,182.65 Q630.662,181 635.462,181 Q640.562,181 643.975,183.213 Q647.388,185.425 649.075,189.213 Q650.763,193 650.763,197.8 L650.763,219.1 Q650.763,219.85 650.312,220.3 Q649.862,220.75 649.112,220.75 L647.837,220.75 Q647.087,220.75 646.638,220.3 Q646.188,219.85 646.188,219.1 L646.188,198.175 Q646.188,192.175 643.263,188.763 Q640.337,185.35 634.712,185.35 Q629.388,185.35 626.125,188.763 Q622.862,192.175 622.862,198.175 L622.862,219.1 Q622.862,219.85 622.412,220.3 Q621.962,220.75 621.212,220.75 z" fill="#E434AA"/>
      <path d="M664.188,220.75 Q663.438,220.75 662.987,220.3 Q662.537,219.85 662.537,219.1 L662.537,183.4 Q662.537,182.65 662.987,182.2 Q663.438,181.75 664.188,181.75 L665.463,181.75 Q666.213,181.75 666.662,182.2 Q667.112,182.65 667.112,183.4 L667.112,219.1 Q667.112,219.85 666.662,220.3 Q666.213,220.75 665.463,220.75 z M663.362,173.725 Q662.612,173.725 662.162,173.275 Q661.713,172.825 661.713,172.075 L661.713,169.225 Q661.713,168.475 662.162,167.988 Q662.612,167.5 663.362,167.5 L666.213,167.5 Q666.963,167.5 667.45,167.988 Q667.938,168.475 667.938,169.225 L667.938,172.075 Q667.938,172.825 667.45,173.275 Q666.963,173.725 666.213,173.725 z" fill="#E434AA"/>
      <path d="M692.388,220.75 Q688.487,220.75 686.237,219.1 Q683.987,217.45 683.088,214.6 Q682.188,211.75 682.188,208.225 L682.188,186.1 L676.338,186.1 Q675.588,186.1 675.138,185.65 Q674.688,185.2 674.688,184.45 L674.688,183.4 Q674.688,182.65 675.138,182.2 Q675.588,181.75 676.338,181.75 L682.188,181.75 L682.188,169.15 Q682.188,168.4 682.638,167.95 Q683.088,167.5 683.838,167.5 L685.112,167.5 Q685.862,167.5 686.312,167.95 Q686.763,168.4 686.763,169.15 L686.763,181.75 L696.062,181.75 Q696.812,181.75 697.263,182.2 Q697.713,182.65 697.713,183.4 L697.713,184.45 Q697.713,185.2 697.263,185.65 Q696.812,186.1 696.062,186.1 L686.763,186.1 L686.763,207.925 Q686.763,211.9 688.075,214.15 Q689.388,216.4 692.763,216.4 L696.812,216.4 Q697.562,216.4 698.013,216.85 Q698.463,217.3 698.463,218.05 L698.463,219.1 Q698.463,219.85 698.013,220.3 Q697.562,220.75 696.812,220.75 z" fill="#E434AA"/>
      <path d="M712.788,235 Q712.188,235 711.737,234.55 Q711.288,234.1 711.288,233.5 Q711.288,233.2 711.4,232.863 Q711.513,232.525 711.737,232 L717.513,218.5 L703.188,184.75 Q702.737,183.625 702.737,183.25 Q702.737,182.65 703.188,182.2 Q703.638,181.75 704.237,181.75 L705.812,181.75 Q706.562,181.75 706.938,182.088 Q707.312,182.425 707.538,182.875 L720.138,212.575 L733.038,182.875 Q733.263,182.425 733.638,182.088 Q734.013,181.75 734.763,181.75 L736.263,181.75 Q736.862,181.75 737.312,182.2 Q737.763,182.65 737.763,183.25 Q737.763,183.625 737.312,184.75 L716.013,233.875 Q715.788,234.325 715.413,234.663 Q715.038,235 714.288,235 z" fill="#E434AA"/>
      <path d="M747.812,210.025 Q747.062,210.025 746.612,209.575 Q746.162,209.125 746.162,208.375 L746.162,169.9 Q746.162,169.15 746.612,168.7 Q747.062,168.25 747.812,168.25 L749.088,168.25 Q749.838,168.25 750.287,168.7 Q750.737,169.15 750.737,169.9 L750.737,208.375 Q750.737,209.125 750.287,209.575 Q749.838,210.025 749.088,210.025 z M746.987,220.75 Q746.237,220.75 745.787,220.3 Q745.338,219.85 745.338,219.1 L745.338,216.25 Q745.338,215.5 745.787,215.013 Q746.237,214.525 746.987,214.525 L749.838,214.525 Q750.588,214.525 751.075,215.013 Q751.562,215.5 751.562,216.25 L751.562,219.1 Q751.562,219.85 751.075,220.3 Q750.588,220.75 749.838,220.75 z" fill="#E434AA"/>
      <g id="GraphQL_Foundation-logo-stacked">
        <g id="GraphQL-mark">
          <path d="M299.553,486.587 L289.422,480.738 L402.284,285.259 L412.416,291.108 z" fill="#E434AA" id="path871"/>
          <path d="M287.101,465.121 L512.827,465.121 L512.827,476.82 L287.101,476.82 z" fill="#E434AA" id="path873"/>
          <path d="M404.474,536.881 L291.568,471.693 L297.417,461.562 L410.323,526.75 z" fill="#E434AA" id="path875"/>
          <path d="M502.554,366.985 L389.649,301.797 L395.498,291.666 L508.403,356.854 z" fill="#E434AA" id="path877"/>
          <path d="M297.448,366.94 L291.599,356.809 L404.505,291.621 L410.354,301.752 z" fill="#E434AA" id="path879"/>
          <path d="M500.472,486.589 L387.609,291.11 L397.74,285.261 L510.603,480.74 z" fill="#E434AA" id="path881"/>
          <path d="M296.052,349.051 L307.75,349.051 L307.75,479.427 L296.052,479.427 z" fill="#E434AA" id="path883"/>
          <path d="M492.25,349.051 L503.948,349.051 L503.948,479.427 L492.25,479.427 z" fill="#E434AA" id="path885"/>
          <path d="M402.482,531.929 L397.372,523.08 L495.569,466.384 L500.679,475.233 z" fill="#E434AA" id="path887"/>
          <path d="M519.452,483.233 C512.687,495.002 497.605,499.019 485.836,492.253 C474.067,485.488 470.05,470.407 476.816,458.637 C483.581,446.868 498.662,442.851 510.432,449.617 C522.271,456.453 526.288,471.464 519.452,483.233" fill="#E434AA" id="path889"/>
          <path d="M323.113,369.841 C316.348,381.61 301.266,385.627 289.498,378.862 C277.729,372.096 273.712,357.015 280.477,345.246 C287.242,333.477 302.324,329.46 314.093,336.225 C325.862,343.061 329.879,358.072 323.113,369.841" fill="#E434AA" id="path891"/>
          <path d="M280.548,483.233 C273.782,471.464 277.799,456.453 289.568,449.617 C301.337,442.851 316.348,446.868 323.184,458.637 C329.949,470.407 325.932,485.417 314.163,492.253 C302.324,499.019 287.313,495.002 280.548,483.233" fill="#E434AA" id="path893"/>
          <path d="M476.886,369.841 C470.121,358.072 474.138,343.061 485.907,336.225 C497.676,329.46 512.687,333.477 519.523,345.246 C526.288,357.015 522.271,372.026 510.502,378.862 C498.733,385.627 483.652,381.61 476.886,369.841" fill="#E434AA" id="path895"/>
          <path d="M400,552.226 C386.398,552.226 375.404,541.232 375.404,527.631 C375.404,514.03 386.398,503.036 400,503.036 C413.601,503.036 424.595,514.03 424.595,527.631 C424.595,541.162 413.601,552.226 400,552.226" fill="#E434AA" id="path897"/>
          <path d="M400,325.443 C386.398,325.443 375.404,314.449 375.404,300.848 C375.404,287.247 386.398,276.253 400,276.253 C413.601,276.253 424.595,287.247 424.595,300.848 C424.595,314.449 413.601,325.443 400,325.443" fill="#E434AA" id="path899"/>
        </g>
        <g id="GraphQL-text-3">
          <path d="M549.638,661.925 Q548.645,661.925 548.05,661.33 Q547.454,660.734 547.454,659.741 L547.454,594.625 Q547.454,593.633 548.05,593.037 Q548.645,592.442 549.638,592.442 L551.524,592.442 Q552.516,592.442 553.112,593.037 Q553.708,593.633 553.708,594.625 L553.708,655.969 L587.953,655.969 Q589.045,655.969 589.641,656.565 Q590.236,657.161 590.236,658.253 L590.236,659.741 Q590.236,660.734 589.641,661.33 Q589.045,661.925 587.953,661.925 z" fill="#E434AA" id="path38"/>
          <path d="M526.708,668.377 Q525.616,668.377 524.822,667.533 Q524.028,666.69 523.532,666.094 L519.164,660.039 Q513.209,662.918 505.267,662.918 Q497.029,662.918 491.272,659.989 Q485.514,657.061 482.437,650.956 Q479.36,644.852 479.062,635.521 Q478.963,631.055 478.963,627.183 Q478.963,623.312 479.062,618.845 Q479.36,609.614 482.636,603.509 Q485.911,597.405 491.718,594.427 Q497.525,591.449 505.267,591.449 Q513.01,591.449 518.817,594.427 Q524.623,597.405 527.949,603.509 Q531.274,609.614 531.472,618.845 Q531.671,623.312 531.671,627.183 Q531.671,631.055 531.472,635.521 Q530.976,649.716 524.226,656.367 L530.579,665.3 Q530.678,665.399 530.778,665.647 Q530.877,665.896 530.877,666.392 Q530.877,667.186 530.281,667.782 Q529.686,668.377 528.892,668.377 z M505.267,656.962 Q513.804,656.962 519.313,651.8 Q524.822,646.639 525.219,635.025 Q525.417,630.558 525.417,627.183 Q525.417,623.808 525.219,619.342 Q525.021,611.599 522.39,606.735 Q519.76,601.872 515.343,599.638 Q510.926,597.405 505.267,597.405 Q499.709,597.405 495.292,599.638 Q490.874,601.872 488.244,606.735 Q485.613,611.599 485.316,619.342 Q485.217,623.808 485.217,627.183 Q485.217,630.558 485.316,635.025 Q485.713,646.639 491.272,651.8 Q496.83,656.962 505.267,656.962 z" fill="#E434AA" id="path40"/>
          <path d="M424.071,661.925 Q423.078,661.925 422.483,661.33 Q421.887,660.734 421.887,659.741 L421.887,593.633 Q421.887,592.64 422.483,592.045 Q423.078,591.449 424.071,591.449 L425.759,591.449 Q426.751,591.449 427.347,592.045 Q427.942,592.64 427.942,593.633 L427.942,617.158 Q430.622,613.684 434.444,611.5 Q438.266,609.316 444.618,609.316 Q451.368,609.316 455.884,612.244 Q460.401,615.173 462.634,620.185 Q464.868,625.198 464.868,631.551 L464.868,659.741 Q464.868,660.734 464.272,661.33 Q463.677,661.925 462.684,661.925 L460.997,661.925 Q460.004,661.925 459.408,661.33 Q458.813,660.734 458.813,659.741 L458.813,632.047 Q458.813,624.106 454.942,619.59 Q451.07,615.073 443.626,615.073 Q436.578,615.073 432.26,619.59 Q427.942,624.106 427.942,632.047 L427.942,659.741 Q427.942,660.734 427.347,661.33 Q426.751,661.925 425.759,661.925 z" fill="#E434AA" id="path42"/>
          <path d="M366.4,680.785 Q365.407,680.785 364.812,680.189 Q364.216,679.594 364.216,678.601 L364.216,612.493 Q364.216,611.5 364.812,610.904 Q365.407,610.309 366.4,610.309 L368.087,610.309 Q369.08,610.309 369.675,610.904 Q370.271,611.5 370.271,612.493 L370.271,617.158 Q372.753,613.783 376.772,611.549 Q380.793,609.316 386.947,609.316 Q392.803,609.316 396.774,611.351 Q400.744,613.386 403.226,616.761 Q405.708,620.136 406.899,624.305 Q408.09,628.474 408.189,632.841 Q408.288,634.33 408.288,636.117 Q408.288,637.904 408.189,639.393 Q408.09,643.76 406.899,647.929 Q405.708,652.098 403.226,655.473 Q400.744,658.848 396.774,660.883 Q392.803,662.918 386.947,662.918 Q380.793,662.918 376.772,660.635 Q372.753,658.352 370.271,655.076 L370.271,678.601 Q370.271,679.594 369.675,680.189 Q369.08,680.785 368.087,680.785 z M386.351,657.161 Q392.208,657.161 395.583,654.58 Q398.958,651.999 400.447,647.83 Q401.936,643.661 402.134,638.896 Q402.233,636.117 402.134,633.338 Q401.936,628.573 400.447,624.404 Q398.958,620.235 395.583,617.654 Q392.208,615.073 386.351,615.073 Q380.693,615.073 377.219,617.753 Q373.745,620.434 372.107,624.453 Q370.469,628.474 370.271,632.544 Q370.172,634.033 370.172,636.415 Q370.172,638.797 370.271,640.286 Q370.37,644.257 372.107,648.128 Q373.844,651.999 377.368,654.58 Q380.892,657.161 386.351,657.161 z" fill="#E434AA" id="path44"/>
          <path d="M324.809,662.918 Q320.044,662.918 316.024,660.933 Q312.004,658.947 309.522,655.622 Q307.041,652.297 307.041,648.128 Q307.041,641.378 312.5,637.308 Q317.96,633.238 326.695,632.047 L342.378,629.863 L342.378,626.389 Q342.378,621.128 339.152,618.101 Q335.926,615.073 328.879,615.073 Q323.717,615.073 320.541,617.108 Q317.364,619.143 316.173,622.419 Q315.677,623.908 314.287,623.908 L312.699,623.908 Q311.508,623.908 311.011,623.262 Q310.515,622.617 310.515,621.724 Q310.515,620.334 311.557,618.25 Q312.6,616.165 314.783,614.13 Q316.967,612.096 320.441,610.706 Q323.915,609.316 328.879,609.316 Q334.735,609.316 338.556,610.904 Q342.378,612.493 344.512,615.024 Q346.647,617.555 347.54,620.632 Q348.433,623.709 348.433,626.687 L348.433,659.741 Q348.433,660.734 347.838,661.33 Q347.242,661.925 346.249,661.925 L344.562,661.925 Q343.569,661.925 342.974,661.33 Q342.378,660.734 342.378,659.741 L342.378,655.076 Q341.187,656.863 339.003,658.65 Q336.82,660.436 333.395,661.677 Q329.97,662.918 324.809,662.918 z M325.801,657.161 Q330.368,657.161 334.139,655.175 Q337.911,653.19 340.145,649.071 Q342.378,644.951 342.378,638.698 L342.378,635.323 L329.573,637.11 Q321.434,638.202 317.265,640.882 Q313.096,643.562 313.096,647.631 Q313.096,650.907 314.982,652.992 Q316.868,655.076 319.796,656.118 Q322.724,657.161 325.801,657.161 z" fill="#E434AA" id="path46"/>
          <path d="M279.347,661.925 Q278.354,661.925 277.759,661.33 Q277.163,660.734 277.163,659.741 L277.163,612.592 Q277.163,611.599 277.759,610.954 Q278.354,610.309 279.347,610.309 L280.935,610.309 Q281.928,610.309 282.573,610.954 Q283.218,611.599 283.218,612.592 L283.218,617.158 Q285.005,613.684 288.38,611.996 Q291.754,610.309 296.718,610.309 L300.39,610.309 Q301.383,610.309 301.979,610.904 Q302.574,611.5 302.574,612.493 L302.574,613.882 Q302.574,614.875 301.979,615.47 Q301.383,616.066 300.39,616.066 L296.122,616.066 Q290.166,616.066 286.692,619.54 Q283.218,623.014 283.218,628.97 L283.218,659.741 Q283.218,660.734 282.573,661.33 Q281.928,661.925 280.935,661.925 z" fill="#E434AA" id="path48"/>
          <path d="M236.366,662.918 Q227.83,662.918 222.023,659.592 Q216.216,656.267 213.188,650.312 Q210.161,644.356 209.863,636.613 Q209.764,632.147 209.764,627.183 Q209.764,622.22 209.863,617.753 Q210.161,609.912 213.188,604.005 Q216.216,598.1 222.072,594.774 Q227.929,591.449 236.366,591.449 Q243.215,591.449 248.079,593.484 Q252.943,595.519 256.02,598.546 Q259.097,601.574 260.586,604.651 Q262.075,607.728 262.174,609.812 Q262.274,610.706 261.678,611.252 Q261.082,611.798 260.09,611.798 L257.906,611.798 Q257.012,611.798 256.616,611.351 Q256.219,610.904 255.822,609.812 Q254.829,606.735 252.496,603.906 Q250.164,601.077 246.243,599.241 Q242.321,597.405 236.366,597.405 Q227.532,597.405 222.023,602.219 Q216.514,607.033 216.117,618.25 Q215.819,627.183 216.117,636.117 Q216.514,647.234 222.023,652.098 Q227.532,656.962 236.366,656.962 Q242.223,656.962 246.888,654.728 Q251.553,652.495 254.233,647.879 Q256.913,643.264 256.913,636.117 L256.913,631.055 L239.642,631.055 Q238.649,631.055 238.054,630.409 Q237.458,629.764 237.458,628.772 L237.458,627.382 Q237.458,626.29 238.054,625.694 Q238.649,625.099 239.642,625.099 L260.884,625.099 Q261.976,625.099 262.571,625.694 Q263.167,626.29 263.167,627.382 L263.167,636.117 Q263.167,644.058 260.04,650.113 Q256.913,656.168 250.908,659.543 Q244.902,662.918 236.366,662.918 z" fill="#E434AA" id="path50"/>
        </g>
        <g id="g1154">
          <path d="M207.104,737.466 Q206.32,737.466 205.849,736.995 Q205.379,736.524 205.379,735.74 L205.379,684.369 Q205.379,683.506 205.849,683.036 Q206.32,682.565 207.104,682.565 L237.378,682.565 Q238.24,682.565 238.711,683.036 Q239.182,683.506 239.182,684.369 L239.182,685.545 Q239.182,686.33 238.711,686.8 Q238.24,687.271 237.378,687.271 L210.32,687.271 L210.32,708.368 L235.809,708.368 Q236.672,708.368 237.142,708.839 Q237.613,709.309 237.613,710.172 L237.613,711.349 Q237.613,712.133 237.142,712.603 Q236.672,713.074 235.809,713.074 L210.32,713.074 L210.32,735.74 Q210.32,736.524 209.849,736.995 Q209.378,737.466 208.516,737.466 z" fill="#E434AA" id="path1113"/>
          <path d="M263.698,738.25 Q258.051,738.25 254.208,735.897 Q250.444,733.544 248.404,729.466 Q246.444,725.388 246.287,720.368 Q246.208,719.192 246.208,717.074 Q246.208,714.956 246.287,713.78 Q246.444,708.682 248.404,704.682 Q250.444,700.604 254.208,698.251 Q258.051,695.898 263.698,695.898 Q269.345,695.898 273.11,698.251 Q276.953,700.604 278.914,704.682 Q280.953,708.682 281.11,713.78 Q281.188,714.956 281.188,717.074 Q281.188,719.192 281.11,720.368 Q280.953,725.388 278.914,729.466 Q276.953,733.544 273.11,735.897 Q269.345,738.25 263.698,738.25 z M263.698,733.701 Q269.188,733.701 272.639,730.172 Q276.09,726.642 276.325,719.976 Q276.404,718.799 276.404,717.074 Q276.404,715.349 276.325,714.172 Q276.09,707.427 272.639,703.976 Q269.188,700.447 263.698,700.447 Q258.208,700.447 254.757,703.976 Q251.306,707.427 251.071,714.172 Q250.993,715.349 250.993,717.074 Q250.993,718.799 251.071,719.976 Q251.306,726.642 254.757,730.172 Q258.208,733.701 263.698,733.701 z" fill="#E434AA" id="path1115"/>
          <path d="M307.273,738.25 Q301.94,738.25 298.411,735.975 Q294.96,733.623 293.234,729.623 Q291.587,725.623 291.587,720.682 L291.587,698.408 Q291.587,697.623 292.058,697.153 Q292.528,696.682 293.313,696.682 L294.646,696.682 Q295.43,696.682 295.901,697.153 Q296.371,697.623 296.371,698.408 L296.371,720.29 Q296.371,733.701 308.057,733.701 Q313.626,733.701 316.998,730.172 Q320.371,726.564 320.371,720.29 L320.371,698.408 Q320.371,697.623 320.841,697.153 Q321.312,696.682 322.096,696.682 L323.43,696.682 Q324.214,696.682 324.684,697.153 Q325.155,697.623 325.155,698.408 L325.155,735.74 Q325.155,736.524 324.684,736.995 Q324.214,737.466 323.43,737.466 L322.096,737.466 Q321.312,737.466 320.841,736.995 Q320.371,736.524 320.371,735.74 L320.371,732.054 Q318.253,734.799 315.273,736.524 Q312.371,738.25 307.273,738.25 z" fill="#E434AA" id="path1117"/>
          <path d="M339.66,737.466 Q338.875,737.466 338.405,736.995 Q337.934,736.524 337.934,735.74 L337.934,698.408 Q337.934,697.623 338.405,697.153 Q338.875,696.682 339.66,696.682 L340.993,696.682 Q341.777,696.682 342.248,697.153 Q342.718,697.623 342.718,698.408 L342.718,702.094 Q344.836,699.349 347.816,697.623 Q350.875,695.898 355.894,695.898 Q361.228,695.898 364.757,698.251 Q368.365,700.525 370.09,704.525 Q371.894,708.447 371.894,713.466 L371.894,735.74 Q371.894,736.524 371.423,736.995 Q370.953,737.466 370.169,737.466 L368.835,737.466 Q368.051,737.466 367.58,736.995 Q367.11,736.524 367.11,735.74 L367.11,713.858 Q367.11,707.584 364.051,704.055 Q360.992,700.447 355.11,700.447 Q349.542,700.447 346.091,704.055 Q342.718,707.584 342.718,713.858 L342.718,735.74 Q342.718,736.524 342.248,736.995 Q341.777,737.466 340.993,737.466 z" fill="#E434AA" id="path1119"/>
          <path d="M398.94,738.25 Q394.391,738.25 391.175,736.603 Q388.038,734.956 386.078,732.211 Q384.117,729.466 383.176,726.093 Q382.313,722.721 382.156,719.27 Q382.078,718.094 382.078,717.074 Q382.078,716.054 382.156,714.878 Q382.313,711.427 383.176,708.055 Q384.117,704.682 386.078,701.937 Q388.038,699.192 391.175,697.545 Q394.391,695.898 398.94,695.898 Q403.803,695.898 406.94,697.702 Q410.155,699.506 412.116,702.094 L412.116,683.506 Q412.116,682.722 412.587,682.251 Q413.057,681.781 413.842,681.781 L415.175,681.781 Q415.959,681.781 416.43,682.251 Q416.9,682.722 416.9,683.506 L416.9,735.74 Q416.9,736.524 416.43,736.995 Q415.959,737.466 415.175,737.466 L413.842,737.466 Q413.057,737.466 412.587,736.995 Q412.116,736.524 412.116,735.74 L412.116,732.054 Q410.155,734.721 406.94,736.524 Q403.803,738.25 398.94,738.25 z M399.411,733.701 Q403.881,733.701 406.626,731.583 Q409.371,729.466 410.704,726.329 Q412.038,723.113 412.116,719.897 Q412.195,718.721 412.195,716.839 Q412.195,714.956 412.116,713.78 Q412.038,710.643 410.626,707.584 Q409.293,704.525 406.548,702.486 Q403.803,700.447 399.411,700.447 Q394.862,700.447 392.117,702.486 Q389.45,704.525 388.274,707.819 Q387.097,711.113 386.94,714.878 Q386.862,717.074 386.94,719.27 Q387.097,723.035 388.274,726.329 Q389.45,729.623 392.117,731.662 Q394.862,733.701 399.411,733.701 z" fill="#E434AA" id="path1121"/>
          <path d="M440.671,738.25 Q436.906,738.25 433.69,736.681 Q430.553,735.113 428.592,732.525 Q426.632,729.858 426.632,726.564 Q426.632,721.231 430.945,718.015 Q435.259,714.8 442.161,713.858 L454.553,712.133 L454.553,709.388 Q454.553,705.231 451.964,702.878 Q449.455,700.447 443.886,700.447 Q439.808,700.447 437.298,702.094 Q434.788,703.663 433.847,706.251 Q433.455,707.427 432.357,707.427 L431.102,707.427 Q430.161,707.427 429.769,706.957 Q429.377,706.408 429.377,705.702 Q429.377,704.604 430.161,702.957 Q431.024,701.31 432.749,699.741 Q434.475,698.094 437.22,696.996 Q439.965,695.898 443.886,695.898 Q448.514,695.898 451.494,697.153 Q454.553,698.408 456.2,700.447 Q457.925,702.408 458.631,704.839 Q459.337,707.27 459.337,709.623 L459.337,735.74 Q459.337,736.524 458.866,736.995 Q458.396,737.466 457.611,737.466 L456.278,737.466 Q455.494,737.466 455.023,736.995 Q454.553,736.524 454.553,735.74 L454.553,732.054 Q453.611,733.466 451.886,734.877 Q450.161,736.289 447.416,737.309 Q444.749,738.25 440.671,738.25 z M441.455,733.701 Q445.063,733.701 448.043,732.132 Q451.023,730.564 452.749,727.348 Q454.553,724.054 454.553,719.113 L454.553,716.447 L444.435,717.858 Q438.004,718.721 434.71,720.839 Q431.416,722.956 431.416,726.172 Q431.416,728.76 432.906,730.407 Q434.396,732.054 436.671,732.917 Q439.024,733.701 441.455,733.701 z" fill="#E434AA" id="path1123"/>
          <path d="M484.928,737.466 Q480.85,737.466 478.497,735.74 Q476.144,734.015 475.203,731.034 Q474.262,728.054 474.262,724.368 L474.262,701.231 L468.144,701.231 Q467.36,701.231 466.889,700.761 Q466.419,700.29 466.419,699.506 L466.419,698.408 Q466.419,697.623 466.889,697.153 Q467.36,696.682 468.144,696.682 L474.262,696.682 L474.262,683.506 Q474.262,682.722 474.732,682.251 Q475.203,681.781 475.987,681.781 L477.32,681.781 Q478.105,681.781 478.575,682.251 Q479.046,682.722 479.046,683.506 L479.046,696.682 L488.771,696.682 Q489.555,696.682 490.026,697.153 Q490.497,697.623 490.497,698.408 L490.497,699.506 Q490.497,700.29 490.026,700.761 Q489.555,701.231 488.771,701.231 L479.046,701.231 L479.046,724.054 Q479.046,728.211 480.379,730.564 Q481.791,732.917 485.32,732.917 L489.555,732.917 Q490.34,732.917 490.81,733.387 Q491.281,733.858 491.281,734.642 L491.281,735.74 Q491.281,736.524 490.81,736.995 Q490.34,737.466 489.555,737.466 z" fill="#E434AA" id="path1125"/>
          <path d="M501.114,737.466 Q500.33,737.466 499.859,736.995 Q499.389,736.524 499.389,735.74 L499.389,698.408 Q499.389,697.623 499.859,697.153 Q500.33,696.682 501.114,696.682 L502.447,696.682 Q503.232,696.682 503.702,697.153 Q504.173,697.623 504.173,698.408 L504.173,735.74 Q504.173,736.524 503.702,736.995 Q503.232,737.466 502.447,737.466 z M500.251,688.29 Q499.467,688.29 498.996,687.82 Q498.526,687.349 498.526,686.565 L498.526,683.585 Q498.526,682.8 498.996,682.33 Q499.467,681.781 500.251,681.781 L503.232,681.781 Q504.016,681.781 504.486,682.33 Q505.035,682.8 505.035,683.585 L505.035,686.565 Q505.035,687.349 504.486,687.82 Q504.016,688.29 503.232,688.29 z" fill="#E434AA" id="path1127"/>
          <path d="M532.38,738.25 Q526.733,738.25 522.89,735.897 Q519.126,733.544 517.087,729.466 Q515.126,725.388 514.969,720.368 Q514.891,719.192 514.891,717.074 Q514.891,714.956 514.969,713.78 Q515.126,708.682 517.087,704.682 Q519.126,700.604 522.89,698.251 Q526.733,695.898 532.38,695.898 Q538.027,695.898 541.792,698.251 Q545.635,700.604 547.596,704.682 Q549.635,708.682 549.792,713.78 Q549.87,714.956 549.87,717.074 Q549.87,719.192 549.792,720.368 Q549.635,725.388 547.596,729.466 Q545.635,733.544 541.792,735.897 Q538.027,738.25 532.38,738.25 z M532.38,733.701 Q537.87,733.701 541.321,730.172 Q544.772,726.642 545.008,719.976 Q545.086,718.799 545.086,717.074 Q545.086,715.349 545.008,714.172 Q544.772,707.427 541.321,703.976 Q537.87,700.447 532.38,700.447 Q526.89,700.447 523.439,703.976 Q519.988,707.427 519.753,714.172 Q519.675,715.349 519.675,717.074 Q519.675,718.799 519.753,719.976 Q519.988,726.642 523.439,730.172 Q526.89,733.701 532.38,733.701 z" fill="#E434AA" id="path1129"/>
          <path d="M562.387,737.466 Q561.603,737.466 561.132,736.995 Q560.661,736.524 560.661,735.74 L560.661,698.408 Q560.661,697.623 561.132,697.153 Q561.603,696.682 562.387,696.682 L563.72,696.682 Q564.505,696.682 564.975,697.153 Q565.446,697.623 565.446,698.408 L565.446,702.094 Q567.563,699.349 570.544,697.623 Q573.602,695.898 578.622,695.898 Q583.955,695.898 587.484,698.251 Q591.092,700.525 592.818,704.525 Q594.621,708.447 594.621,713.466 L594.621,735.74 Q594.621,736.524 594.151,736.995 Q593.68,737.466 592.896,737.466 L591.563,737.466 Q590.778,737.466 590.308,736.995 Q589.837,736.524 589.837,735.74 L589.837,713.858 Q589.837,707.584 586.779,704.055 Q583.72,700.447 577.838,700.447 Q572.269,700.447 568.818,704.055 Q565.446,707.584 565.446,713.858 L565.446,735.74 Q565.446,736.524 564.975,736.995 Q564.505,737.466 563.72,737.466 z" fill="#E434AA" id="path1131"/>
        </g>
      </g>
    </g>
  </g>
</svg>
